<?xml version="1.0" encoding="UTF-8"?>
<svg xmlns="http://www.w3.org/2000/svg" xmlns:xlink="http://www.w3.org/1999/xlink" width="339.547913" height="245.64563" viewBox="0 0 339.547913 245.64563" version="1.1">
<defs>
<clipPath id="clip1">
  <path d="M 104 10.769531 L 106 10.769531 L 106 195.570312 L 104 195.570312 Z M 104 10.769531 "/>
</clipPath>
<clipPath id="clip2">
  <path d="M 151 10.769531 L 154 10.769531 L 154 195.570312 L 151 195.570312 Z M 151 10.769531 "/>
</clipPath>
<clipPath id="clip3">
  <path d="M 199 10.769531 L 201 10.769531 L 201 195.570312 L 199 195.570312 Z M 199 10.769531 "/>
</clipPath>
<clipPath id="clip4">
  <path d="M 246 10.769531 L 249 10.769531 L 249 195.570312 L 246 195.570312 Z M 246 10.769531 "/>
</clipPath>
<clipPath id="clip5">
  <path d="M 294 10.769531 L 296 10.769531 L 296 195.570312 L 294 195.570312 Z M 294 10.769531 "/>
</clipPath>
<clipPath id="clip6">
  <path d="M 69.546875 186 L 329.949219 186 L 329.949219 188 L 69.546875 188 Z M 69.546875 186 "/>
</clipPath>
<clipPath id="clip7">
  <path d="M 69.546875 128 L 329.949219 128 L 329.949219 131 L 69.546875 131 Z M 69.546875 128 "/>
</clipPath>
<clipPath id="clip8">
  <path d="M 69.546875 71 L 329.949219 71 L 329.949219 73 L 69.546875 73 Z M 69.546875 71 "/>
</clipPath>
<clipPath id="clip9">
  <path d="M 69.546875 13 L 329.949219 13 L 329.949219 16 L 69.546875 16 Z M 69.546875 13 "/>
</clipPath>
</defs>
<g id="surface1">
<path style=" stroke:none;fill-rule:nonzero;fill:rgb(100%,100%,100%);fill-opacity:1;" d="M 0 245.644531 L 339.546875 245.644531 L 339.546875 0 L 0 0 Z M 0 245.644531 "/>
<path style=" stroke:none;fill-rule:nonzero;fill:rgb(100%,100%,100%);fill-opacity:1;" d="M 69.546875 195.570312 L 329.949219 195.570312 L 329.949219 10.769531 L 69.546875 10.769531 Z M 69.546875 195.570312 "/>
<g clip-path="url(#clip1)" clip-rule="nonzero">
<path style="fill:none;stroke-width:0.8;stroke-linecap:square;stroke-linejoin:round;stroke:rgb(69.01961%,69.01961%,69.01961%);stroke-opacity:1;stroke-miterlimit:4;" d="M 78.829102 146.677734 L 78.829102 8.077148 " transform="matrix(1.333333,0,0,1.333333,0,0)"/>
</g>
<path style="fill:none;stroke-width:0.8;stroke-linecap:butt;stroke-linejoin:round;stroke:rgb(0%,0%,0%);stroke-opacity:1;stroke-miterlimit:4;" d="M 0.000770569 -0.000228882 L 0.000770569 3.500748 " transform="matrix(1.333333,0,0,1.333333,105.104441,195.570618)"/>
<path style=" stroke:none;fill-rule:nonzero;fill:rgb(0%,0%,0%);fill-opacity:1;" d="M 96.15625 213.929688 L 98.304688 213.929688 L 98.304688 206.511719 L 95.96875 206.980469 L 95.96875 205.78125 L 98.292969 205.3125 L 99.605469 205.3125 L 99.605469 213.929688 L 101.753906 213.929688 L 101.753906 215.035156 L 96.15625 215.035156 Z M 96.15625 213.929688 "/>
<path style=" stroke:none;fill-rule:nonzero;fill:rgb(0%,0%,0%);fill-opacity:1;" d="M 104.410156 213.382812 L 105.785156 213.382812 L 105.785156 215.035156 L 104.410156 215.035156 Z M 104.410156 213.382812 "/>
<path style=" stroke:none;fill-rule:nonzero;fill:rgb(0%,0%,0%);fill-opacity:1;" d="M 111.460938 210.417969 C 110.835938 210.417969 110.34375 210.585938 109.984375 210.921875 C 109.628906 211.253906 109.449219 211.714844 109.449219 212.300781 C 109.449219 212.886719 109.628906 213.347656 109.984375 213.679688 C 110.34375 214.015625 110.835938 214.183594 111.460938 214.183594 C 112.085938 214.183594 112.578125 214.015625 112.9375 213.679688 C 113.300781 213.339844 113.480469 212.882812 113.480469 212.300781 C 113.480469 211.714844 113.300781 211.253906 112.941406 210.921875 C 112.585938 210.585938 112.089844 210.417969 111.460938 210.417969 Z M 110.148438 209.859375 C 109.582031 209.722656 109.144531 209.457031 108.828125 209.074219 C 108.515625 208.683594 108.355469 208.214844 108.355469 207.65625 C 108.355469 206.882812 108.632812 206.269531 109.1875 205.816406 C 109.742188 205.363281 110.5 205.140625 111.460938 205.140625 C 112.429688 205.140625 113.1875 205.363281 113.742188 205.816406 C 114.292969 206.269531 114.566406 206.882812 114.566406 207.65625 C 114.566406 208.214844 114.410156 208.683594 114.09375 209.074219 C 113.78125 209.457031 113.34375 209.722656 112.785156 209.859375 C 113.417969 210.007812 113.910156 210.296875 114.261719 210.726562 C 114.617188 211.15625 114.792969 211.679688 114.792969 212.300781 C 114.792969 213.242188 114.507812 213.964844 113.933594 214.46875 C 113.355469 214.972656 112.535156 215.226562 111.460938 215.226562 C 110.390625 215.226562 109.566406 214.972656 108.992188 214.46875 C 108.414062 213.964844 108.128906 213.242188 108.128906 212.300781 C 108.128906 211.679688 108.304688 211.15625 108.660156 210.726562 C 109.019531 210.296875 109.511719 210.007812 110.148438 209.859375 Z M 109.664062 207.78125 C 109.664062 208.285156 109.824219 208.679688 110.136719 208.960938 C 110.453125 209.242188 110.894531 209.382812 111.460938 209.382812 C 112.027344 209.382812 112.46875 209.242188 112.785156 208.960938 C 113.105469 208.679688 113.265625 208.285156 113.265625 207.78125 C 113.265625 207.277344 113.105469 206.886719 112.785156 206.605469 C 112.46875 206.320312 112.027344 206.179688 111.460938 206.179688 C 110.894531 206.179688 110.453125 206.320312 110.136719 206.605469 C 109.824219 206.886719 109.664062 207.277344 109.664062 207.78125 Z M 109.664062 207.78125 "/>
<g clip-path="url(#clip2)" clip-rule="nonzero">
<path style="fill:none;stroke-width:0.8;stroke-linecap:square;stroke-linejoin:round;stroke:rgb(69.01961%,69.01961%,69.01961%);stroke-opacity:1;stroke-miterlimit:4;" d="M 114.407227 146.677734 L 114.407227 8.077148 " transform="matrix(1.333333,0,0,1.333333,0,0)"/>
</g>
<path style="fill:none;stroke-width:0.8;stroke-linecap:butt;stroke-linejoin:round;stroke:rgb(0%,0%,0%);stroke-opacity:1;stroke-miterlimit:4;" d="M -0.0013504 -0.000228882 L -0.0013504 3.500748 " transform="matrix(1.333333,0,0,1.333333,152.544769,195.570618)"/>
<path style=" stroke:none;fill-rule:nonzero;fill:rgb(0%,0%,0%);fill-opacity:1;" d="M 143.597656 213.929688 L 145.746094 213.929688 L 145.746094 206.511719 L 143.40625 206.980469 L 143.40625 205.78125 L 145.730469 205.3125 L 147.046875 205.3125 L 147.046875 213.929688 L 149.195312 213.929688 L 149.195312 215.035156 L 143.597656 215.035156 Z M 143.597656 213.929688 "/>
<path style=" stroke:none;fill-rule:nonzero;fill:rgb(0%,0%,0%);fill-opacity:1;" d="M 151.851562 213.382812 L 153.226562 213.382812 L 153.226562 215.035156 L 151.851562 215.035156 Z M 151.851562 213.382812 "/>
<path style=" stroke:none;fill-rule:nonzero;fill:rgb(0%,0%,0%);fill-opacity:1;" d="M 156.128906 214.832031 L 156.128906 213.636719 C 156.460938 213.792969 156.792969 213.910156 157.128906 213.992188 C 157.46875 214.074219 157.800781 214.117188 158.128906 214.117188 C 158.996094 214.117188 159.660156 213.824219 160.117188 213.242188 C 160.574219 212.65625 160.835938 211.769531 160.902344 210.582031 C 160.648438 210.953125 160.332031 211.242188 159.941406 211.441406 C 159.558594 211.640625 159.128906 211.742188 158.660156 211.742188 C 157.691406 211.742188 156.921875 211.449219 156.355469 210.859375 C 155.785156 210.269531 155.503906 209.464844 155.503906 208.445312 C 155.503906 207.449219 155.796875 206.648438 156.390625 206.046875 C 156.980469 205.441406 157.765625 205.140625 158.746094 205.140625 C 159.871094 205.140625 160.730469 205.570312 161.320312 206.433594 C 161.914062 207.292969 162.210938 208.546875 162.210938 210.183594 C 162.210938 211.71875 161.847656 212.941406 161.117188 213.855469 C 160.390625 214.769531 159.414062 215.226562 158.1875 215.226562 C 157.855469 215.226562 157.523438 215.191406 157.183594 215.125 C 156.84375 215.0625 156.492188 214.964844 156.128906 214.832031 Z M 158.746094 210.710938 C 159.335938 210.710938 159.804688 210.511719 160.148438 210.109375 C 160.492188 209.703125 160.667969 209.148438 160.667969 208.445312 C 160.667969 207.746094 160.492188 207.195312 160.148438 206.789062 C 159.804688 206.382812 159.335938 206.179688 158.746094 206.179688 C 158.15625 206.179688 157.6875 206.382812 157.34375 206.789062 C 157 207.195312 156.828125 207.746094 156.828125 208.445312 C 156.828125 209.148438 157 209.703125 157.34375 210.109375 C 157.6875 210.511719 158.15625 210.710938 158.746094 210.710938 Z M 158.746094 210.710938 "/>
<g clip-path="url(#clip3)" clip-rule="nonzero">
<path style="fill:none;stroke-width:0.8;stroke-linecap:square;stroke-linejoin:round;stroke:rgb(69.01961%,69.01961%,69.01961%);stroke-opacity:1;stroke-miterlimit:4;" d="M 149.988281 146.677734 L 149.988281 8.077148 " transform="matrix(1.333333,0,0,1.333333,0,0)"/>
</g>
<path style="fill:none;stroke-width:0.8;stroke-linecap:butt;stroke-linejoin:round;stroke:rgb(0%,0%,0%);stroke-opacity:1;stroke-miterlimit:4;" d="M -0.000549316 -0.000228882 L -0.000549316 3.500748 " transform="matrix(1.333333,0,0,1.333333,199.985107,195.570618)"/>
<path style=" stroke:none;fill-rule:nonzero;fill:rgb(0%,0%,0%);fill-opacity:1;" d="M 191.941406 213.929688 L 196.53125 213.929688 L 196.53125 215.035156 L 190.359375 215.035156 L 190.359375 213.929688 C 190.859375 213.414062 191.539062 212.71875 192.398438 211.851562 C 193.261719 210.980469 193.804688 210.417969 194.023438 210.164062 C 194.445312 209.691406 194.738281 209.292969 194.90625 208.964844 C 195.074219 208.636719 195.15625 208.3125 195.15625 207.996094 C 195.15625 207.480469 194.976562 207.058594 194.613281 206.734375 C 194.25 206.410156 193.78125 206.246094 193.199219 206.246094 C 192.785156 206.246094 192.351562 206.316406 191.890625 206.460938 C 191.433594 206.601562 190.945312 206.820312 190.425781 207.113281 L 190.425781 205.78125 C 190.953125 205.570312 191.449219 205.410156 191.90625 205.300781 C 192.367188 205.195312 192.789062 205.140625 193.171875 205.140625 C 194.179688 205.140625 194.980469 205.390625 195.582031 205.894531 C 196.179688 206.398438 196.480469 207.070312 196.480469 207.914062 C 196.480469 208.3125 196.402344 208.691406 196.253906 209.050781 C 196.105469 209.40625 195.832031 209.828125 195.4375 210.3125 C 195.328125 210.441406 194.984375 210.804688 194.402344 211.40625 C 193.820312 212.007812 193 212.847656 191.941406 213.929688 Z M 191.941406 213.929688 "/>
<path style=" stroke:none;fill-rule:nonzero;fill:rgb(0%,0%,0%);fill-opacity:1;" d="M 199.292969 213.382812 L 200.667969 213.382812 L 200.667969 215.035156 L 199.292969 215.035156 Z M 199.292969 213.382812 "/>
<path style=" stroke:none;fill-rule:nonzero;fill:rgb(0%,0%,0%);fill-opacity:1;" d="M 206.34375 206.179688 C 205.664062 206.179688 205.15625 206.515625 204.816406 207.179688 C 204.472656 207.847656 204.304688 208.847656 204.304688 210.183594 C 204.304688 211.515625 204.472656 212.515625 204.816406 213.183594 C 205.15625 213.851562 205.664062 214.183594 206.34375 214.183594 C 207.023438 214.183594 207.535156 213.851562 207.875 213.183594 C 208.21875 212.515625 208.386719 211.515625 208.386719 210.183594 C 208.386719 208.847656 208.21875 207.847656 207.875 207.179688 C 207.535156 206.515625 207.023438 206.179688 206.34375 206.179688 Z M 206.34375 205.140625 C 207.433594 205.140625 208.265625 205.570312 208.839844 206.433594 C 209.414062 207.292969 209.703125 208.546875 209.703125 210.183594 C 209.703125 211.820312 209.414062 213.070312 208.839844 213.933594 C 208.265625 214.792969 207.433594 215.226562 206.34375 215.226562 C 205.253906 215.226562 204.421875 214.792969 203.847656 213.933594 C 203.269531 213.070312 202.984375 211.820312 202.984375 210.183594 C 202.984375 208.546875 203.269531 207.292969 203.847656 206.433594 C 204.421875 205.570312 205.253906 205.140625 206.34375 205.140625 Z M 206.34375 205.140625 "/>
<g clip-path="url(#clip4)" clip-rule="nonzero">
<path style="fill:none;stroke-width:0.8;stroke-linecap:square;stroke-linejoin:round;stroke:rgb(69.01961%,69.01961%,69.01961%);stroke-opacity:1;stroke-miterlimit:4;" d="M 185.569336 146.677734 L 185.569336 8.077148 " transform="matrix(1.333333,0,0,1.333333,0,0)"/>
</g>
<path style="fill:none;stroke-width:0.8;stroke-linecap:butt;stroke-linejoin:round;stroke:rgb(0%,0%,0%);stroke-opacity:1;stroke-miterlimit:4;" d="M 0.000259399 -0.000228882 L 0.000259399 3.500748 " transform="matrix(1.333333,0,0,1.333333,247.425435,195.570618)"/>
<path style=" stroke:none;fill-rule:nonzero;fill:rgb(0%,0%,0%);fill-opacity:1;" d="M 239.382812 213.929688 L 243.972656 213.929688 L 243.972656 215.035156 L 237.800781 215.035156 L 237.800781 213.929688 C 238.300781 213.414062 238.980469 212.71875 239.839844 211.851562 C 240.703125 210.980469 241.246094 210.417969 241.464844 210.164062 C 241.886719 209.691406 242.179688 209.292969 242.347656 208.964844 C 242.515625 208.636719 242.597656 208.3125 242.597656 207.996094 C 242.597656 207.480469 242.417969 207.058594 242.054688 206.734375 C 241.691406 206.410156 241.21875 206.246094 240.636719 206.246094 C 240.226562 206.246094 239.789062 206.316406 239.332031 206.460938 C 238.875 206.601562 238.386719 206.820312 237.863281 207.113281 L 237.863281 205.78125 C 238.394531 205.570312 238.886719 205.410156 239.347656 205.300781 C 239.808594 205.195312 240.230469 205.140625 240.613281 205.140625 C 241.621094 205.140625 242.421875 205.390625 243.019531 205.894531 C 243.621094 206.398438 243.917969 207.070312 243.917969 207.914062 C 243.917969 208.3125 243.84375 208.691406 243.695312 209.050781 C 243.546875 209.40625 243.273438 209.828125 242.878906 210.3125 C 242.769531 210.441406 242.425781 210.804688 241.84375 211.40625 C 241.261719 212.007812 240.441406 212.847656 239.382812 213.929688 Z M 239.382812 213.929688 "/>
<path style=" stroke:none;fill-rule:nonzero;fill:rgb(0%,0%,0%);fill-opacity:1;" d="M 246.730469 213.382812 L 248.105469 213.382812 L 248.105469 215.035156 L 246.730469 215.035156 Z M 246.730469 213.382812 "/>
<path style=" stroke:none;fill-rule:nonzero;fill:rgb(0%,0%,0%);fill-opacity:1;" d="M 251.199219 213.929688 L 253.347656 213.929688 L 253.347656 206.511719 L 251.007812 206.980469 L 251.007812 205.78125 L 253.335938 205.3125 L 254.648438 205.3125 L 254.648438 213.929688 L 256.796875 213.929688 L 256.796875 215.035156 L 251.199219 215.035156 Z M 251.199219 213.929688 "/>
<g clip-path="url(#clip5)" clip-rule="nonzero">
<path style="fill:none;stroke-width:0.8;stroke-linecap:square;stroke-linejoin:round;stroke:rgb(69.01961%,69.01961%,69.01961%);stroke-opacity:1;stroke-miterlimit:4;" d="M 221.150391 146.677734 L 221.150391 8.077148 " transform="matrix(1.333333,0,0,1.333333,0,0)"/>
</g>
<path style="fill:none;stroke-width:0.8;stroke-linecap:butt;stroke-linejoin:round;stroke:rgb(0%,0%,0%);stroke-opacity:1;stroke-miterlimit:4;" d="M 0.00106812 -0.000228882 L 0.00106812 3.500748 " transform="matrix(1.333333,0,0,1.333333,294.865763,195.570618)"/>
<path style=" stroke:none;fill-rule:nonzero;fill:rgb(0%,0%,0%);fill-opacity:1;" d="M 286.820312 213.929688 L 291.410156 213.929688 L 291.410156 215.035156 L 285.242188 215.035156 L 285.242188 213.929688 C 285.738281 213.414062 286.417969 212.71875 287.28125 211.851562 C 288.144531 210.980469 288.683594 210.417969 288.90625 210.164062 C 289.328125 209.691406 289.621094 209.292969 289.785156 208.964844 C 289.953125 208.636719 290.039062 208.3125 290.039062 207.996094 C 290.039062 207.480469 289.859375 207.058594 289.496094 206.734375 C 289.132812 206.410156 288.660156 206.246094 288.078125 206.246094 C 287.664062 206.246094 287.230469 206.316406 286.773438 206.460938 C 286.316406 206.601562 285.828125 206.820312 285.304688 207.113281 L 285.304688 205.78125 C 285.835938 205.570312 286.328125 205.410156 286.789062 205.300781 C 287.25 205.195312 287.671875 205.140625 288.054688 205.140625 C 289.058594 205.140625 289.863281 205.390625 290.460938 205.894531 C 291.058594 206.398438 291.359375 207.070312 291.359375 207.914062 C 291.359375 208.3125 291.285156 208.691406 291.132812 209.050781 C 290.984375 209.40625 290.714844 209.828125 290.316406 210.3125 C 290.210938 210.441406 289.863281 210.804688 289.28125 211.40625 C 288.703125 212.007812 287.882812 212.847656 286.820312 213.929688 Z M 286.820312 213.929688 "/>
<path style=" stroke:none;fill-rule:nonzero;fill:rgb(0%,0%,0%);fill-opacity:1;" d="M 294.171875 213.382812 L 295.546875 213.382812 L 295.546875 215.035156 L 294.171875 215.035156 Z M 294.171875 213.382812 "/>
<path style=" stroke:none;fill-rule:nonzero;fill:rgb(0%,0%,0%);fill-opacity:1;" d="M 299.542969 213.929688 L 304.132812 213.929688 L 304.132812 215.035156 L 297.960938 215.035156 L 297.960938 213.929688 C 298.460938 213.414062 299.140625 212.71875 300 211.851562 C 300.863281 210.980469 301.40625 210.417969 301.625 210.164062 C 302.046875 209.691406 302.339844 209.292969 302.507812 208.964844 C 302.675781 208.636719 302.761719 208.3125 302.761719 207.996094 C 302.761719 207.480469 302.578125 207.058594 302.214844 206.734375 C 301.855469 206.410156 301.382812 206.246094 300.800781 206.246094 C 300.386719 206.246094 299.953125 206.316406 299.492188 206.460938 C 299.035156 206.601562 298.546875 206.820312 298.027344 207.113281 L 298.027344 205.78125 C 298.554688 205.570312 299.050781 205.410156 299.511719 205.300781 C 299.972656 205.195312 300.394531 205.140625 300.773438 205.140625 C 301.78125 205.140625 302.585938 205.390625 303.183594 205.894531 C 303.78125 206.398438 304.082031 207.070312 304.082031 207.914062 C 304.082031 208.3125 304.007812 208.691406 303.855469 209.050781 C 303.707031 209.40625 303.433594 209.828125 303.039062 210.3125 C 302.929688 210.441406 302.585938 210.804688 302.003906 211.40625 C 301.421875 212.007812 300.601562 212.847656 299.542969 213.929688 Z M 299.542969 213.929688 "/>
<path style=" stroke:none;fill-rule:nonzero;fill:rgb(0%,0%,0%);fill-opacity:1;" d="M 203.121094 225.980469 L 200.484375 229.527344 L 203.257812 233.273438 L 201.84375 233.273438 L 199.722656 230.40625 L 197.601562 233.273438 L 196.183594 233.273438 L 199.019531 229.457031 L 196.425781 225.980469 L 197.839844 225.980469 L 199.773438 228.578125 L 201.707031 225.980469 Z M 203.121094 225.980469 "/>
<g clip-path="url(#clip6)" clip-rule="nonzero">
<path style="fill:none;stroke-width:0.8;stroke-linecap:square;stroke-linejoin:round;stroke:rgb(69.01961%,69.01961%,69.01961%);stroke-opacity:1;stroke-miterlimit:4;" d="M 52.160156 140.378906 L 247.461914 140.378906 " transform="matrix(1.333333,0,0,1.333333,0,0)"/>
</g>
<path style="fill:none;stroke-width:0.8;stroke-linecap:butt;stroke-linejoin:round;stroke:rgb(0%,0%,0%);stroke-opacity:1;stroke-miterlimit:4;" d="M -0.000782013 0.000274658 L -3.498829 0.000274658 " transform="matrix(1.333333,0,0,1.333333,69.547918,187.171509)"/>
<path style=" stroke:none;fill-rule:nonzero;fill:rgb(0%,0%,0%);fill-opacity:1;" d="M 29.25 187.503906 L 37.597656 187.503906 L 37.597656 188.609375 L 29.25 188.609375 Z M 29.25 187.503906 "/>
<path style=" stroke:none;fill-rule:nonzero;fill:rgb(0%,0%,0%);fill-opacity:1;" d="M 40.664062 191.132812 L 42.8125 191.132812 L 42.8125 183.714844 L 40.472656 184.183594 L 40.472656 182.984375 L 42.800781 182.515625 L 44.113281 182.515625 L 44.113281 191.132812 L 46.261719 191.132812 L 46.261719 192.238281 L 40.664062 192.238281 Z M 40.664062 191.132812 "/>
<path style=" stroke:none;fill-rule:nonzero;fill:rgb(0%,0%,0%);fill-opacity:1;" d="M 48.917969 190.582031 L 50.292969 190.582031 L 50.292969 192.238281 L 48.917969 192.238281 Z M 48.917969 190.582031 "/>
<path style=" stroke:none;fill-rule:nonzero;fill:rgb(0%,0%,0%);fill-opacity:1;" d="M 55.96875 183.382812 C 55.292969 183.382812 54.78125 183.714844 54.441406 184.382812 C 54.101562 185.046875 53.929688 186.050781 53.929688 187.386719 C 53.929688 188.71875 54.101562 189.71875 54.441406 190.386719 C 54.78125 191.050781 55.292969 191.386719 55.96875 191.386719 C 56.648438 191.386719 57.160156 191.050781 57.5 190.386719 C 57.84375 189.71875 58.015625 188.71875 58.015625 187.386719 C 58.015625 186.050781 57.84375 185.046875 57.5 184.382812 C 57.160156 183.714844 56.648438 183.382812 55.96875 183.382812 Z M 55.96875 182.339844 C 57.058594 182.339844 57.890625 182.773438 58.464844 183.636719 C 59.042969 184.496094 59.328125 185.746094 59.328125 187.386719 C 59.328125 189.023438 59.042969 190.273438 58.464844 191.136719 C 57.890625 191.996094 57.058594 192.425781 55.96875 192.425781 C 54.878906 192.425781 54.046875 191.996094 53.472656 191.136719 C 52.898438 190.273438 52.609375 189.023438 52.609375 187.386719 C 52.609375 185.746094 52.898438 184.496094 53.472656 183.636719 C 54.046875 182.773438 54.878906 182.339844 55.96875 182.339844 Z M 55.96875 182.339844 "/>
<g clip-path="url(#clip7)" clip-rule="nonzero">
<path style="fill:none;stroke-width:0.8;stroke-linecap:square;stroke-linejoin:round;stroke:rgb(69.01961%,69.01961%,69.01961%);stroke-opacity:1;stroke-miterlimit:4;" d="M 52.160156 97.250977 L 247.461914 97.250977 " transform="matrix(1.333333,0,0,1.333333,0,0)"/>
</g>
<path style="fill:none;stroke-width:0.8;stroke-linecap:butt;stroke-linejoin:round;stroke:rgb(0%,0%,0%);stroke-opacity:1;stroke-miterlimit:4;" d="M -0.000782013 -0.00118256 L -3.498829 -0.00118256 " transform="matrix(1.333333,0,0,1.333333,69.547918,129.669545)"/>
<path style=" stroke:none;fill-rule:nonzero;fill:rgb(0%,0%,0%);fill-opacity:1;" d="M 29.25 130 L 37.597656 130 L 37.597656 131.109375 L 29.25 131.109375 Z M 29.25 130 "/>
<path style=" stroke:none;fill-rule:nonzero;fill:rgb(0%,0%,0%);fill-opacity:1;" d="M 43.246094 125.882812 C 42.570312 125.882812 42.0625 126.214844 41.71875 126.882812 C 41.378906 127.546875 41.210938 128.546875 41.210938 129.886719 C 41.210938 131.21875 41.378906 132.214844 41.71875 132.882812 C 42.0625 133.550781 42.570312 133.882812 43.246094 133.882812 C 43.929688 133.882812 44.441406 133.550781 44.78125 132.882812 C 45.121094 132.214844 45.292969 131.21875 45.292969 129.886719 C 45.292969 128.546875 45.121094 127.546875 44.78125 126.882812 C 44.441406 126.214844 43.929688 125.882812 43.246094 125.882812 Z M 43.246094 124.839844 C 44.335938 124.839844 45.167969 125.269531 45.746094 126.132812 C 46.320312 126.996094 46.605469 128.246094 46.605469 129.886719 C 46.605469 131.519531 46.320312 132.769531 45.746094 133.632812 C 45.167969 134.496094 44.335938 134.925781 43.246094 134.925781 C 42.15625 134.925781 41.324219 134.496094 40.75 133.632812 C 40.175781 132.769531 39.886719 131.519531 39.886719 129.886719 C 39.886719 128.246094 40.175781 126.996094 40.75 126.132812 C 41.324219 125.269531 42.15625 124.839844 43.246094 124.839844 Z M 43.246094 124.839844 "/>
<path style=" stroke:none;fill-rule:nonzero;fill:rgb(0%,0%,0%);fill-opacity:1;" d="M 48.917969 133.082031 L 50.292969 133.082031 L 50.292969 134.734375 L 48.917969 134.734375 Z M 48.917969 133.082031 "/>
<path style=" stroke:none;fill-rule:nonzero;fill:rgb(0%,0%,0%);fill-opacity:1;" d="M 53.171875 125.015625 L 58.332031 125.015625 L 58.332031 126.121094 L 54.375 126.121094 L 54.375 128.503906 C 54.566406 128.4375 54.753906 128.390625 54.945312 128.359375 C 55.136719 128.324219 55.328125 128.308594 55.519531 128.308594 C 56.605469 128.308594 57.464844 128.605469 58.097656 129.203125 C 58.730469 129.796875 59.050781 130.601562 59.050781 131.617188 C 59.050781 132.664062 58.722656 133.476562 58.074219 134.054688 C 57.421875 134.636719 56.503906 134.925781 55.316406 134.925781 C 54.910156 134.925781 54.492188 134.890625 54.070312 134.820312 C 53.648438 134.75 53.210938 134.648438 52.761719 134.507812 L 52.761719 133.183594 C 53.148438 133.398438 53.554688 133.554688 53.96875 133.660156 C 54.386719 133.765625 54.828125 133.816406 55.292969 133.816406 C 56.042969 133.816406 56.636719 133.621094 57.074219 133.226562 C 57.511719 132.832031 57.734375 132.292969 57.734375 131.617188 C 57.734375 130.941406 57.511719 130.40625 57.074219 130.011719 C 56.636719 129.613281 56.042969 129.417969 55.292969 129.417969 C 54.941406 129.417969 54.589844 129.457031 54.238281 129.53125 C 53.890625 129.609375 53.535156 129.730469 53.171875 129.898438 Z M 53.171875 125.015625 "/>
<g clip-path="url(#clip8)" clip-rule="nonzero">
<path style="fill:none;stroke-width:0.8;stroke-linecap:square;stroke-linejoin:round;stroke:rgb(69.01961%,69.01961%,69.01961%);stroke-opacity:1;stroke-miterlimit:4;" d="M 52.160156 54.125977 L 247.461914 54.125977 " transform="matrix(1.333333,0,0,1.333333,0,0)"/>
</g>
<path style="fill:none;stroke-width:0.8;stroke-linecap:butt;stroke-linejoin:round;stroke:rgb(0%,0%,0%);stroke-opacity:1;stroke-miterlimit:4;" d="M -0.000782013 0.000289917 L -3.498829 0.000289917 " transform="matrix(1.333333,0,0,1.333333,69.547918,72.167582)"/>
<path style=" stroke:none;fill-rule:nonzero;fill:rgb(0%,0%,0%);fill-opacity:1;" d="M 43.246094 68.378906 C 42.570312 68.378906 42.0625 68.710938 41.722656 69.378906 C 41.378906 70.042969 41.210938 71.046875 41.210938 72.382812 C 41.210938 73.714844 41.378906 74.714844 41.722656 75.382812 C 42.0625 76.046875 42.570312 76.382812 43.246094 76.382812 C 43.929688 76.382812 44.441406 76.046875 44.78125 75.382812 C 45.121094 74.714844 45.292969 73.714844 45.292969 72.382812 C 45.292969 71.046875 45.121094 70.042969 44.78125 69.378906 C 44.441406 68.710938 43.929688 68.378906 43.246094 68.378906 Z M 43.246094 67.335938 C 44.339844 67.335938 45.171875 67.769531 45.746094 68.632812 C 46.320312 69.492188 46.609375 70.742188 46.609375 72.382812 C 46.609375 74.019531 46.320312 75.269531 45.746094 76.132812 C 45.171875 76.992188 44.339844 77.421875 43.246094 77.421875 C 42.160156 77.421875 41.328125 76.992188 40.753906 76.132812 C 40.175781 75.269531 39.890625 74.019531 39.890625 72.382812 C 39.890625 70.742188 40.175781 69.492188 40.753906 68.632812 C 41.328125 67.769531 42.160156 67.335938 43.246094 67.335938 Z M 43.246094 67.335938 "/>
<path style=" stroke:none;fill-rule:nonzero;fill:rgb(0%,0%,0%);fill-opacity:1;" d="M 48.917969 75.578125 L 50.292969 75.578125 L 50.292969 77.234375 L 48.917969 77.234375 Z M 48.917969 75.578125 "/>
<path style=" stroke:none;fill-rule:nonzero;fill:rgb(0%,0%,0%);fill-opacity:1;" d="M 55.96875 68.378906 C 55.292969 68.378906 54.785156 68.710938 54.441406 69.378906 C 54.101562 70.042969 53.933594 71.046875 53.933594 72.382812 C 53.933594 73.714844 54.101562 74.714844 54.441406 75.382812 C 54.785156 76.046875 55.292969 76.382812 55.96875 76.382812 C 56.652344 76.382812 57.164062 76.046875 57.503906 75.382812 C 57.84375 74.714844 58.015625 73.714844 58.015625 72.382812 C 58.015625 71.046875 57.84375 70.042969 57.503906 69.378906 C 57.164062 68.710938 56.652344 68.378906 55.96875 68.378906 Z M 55.96875 67.335938 C 57.058594 67.335938 57.890625 67.769531 58.46875 68.632812 C 59.042969 69.492188 59.328125 70.742188 59.328125 72.382812 C 59.328125 74.019531 59.042969 75.269531 58.46875 76.132812 C 57.890625 76.992188 57.058594 77.421875 55.96875 77.421875 C 54.878906 77.421875 54.046875 76.992188 53.472656 76.132812 C 52.898438 75.269531 52.609375 74.019531 52.609375 72.382812 C 52.609375 70.742188 52.898438 69.492188 53.472656 68.632812 C 54.046875 67.769531 54.878906 67.335938 55.96875 67.335938 Z M 55.96875 67.335938 "/>
<g clip-path="url(#clip9)" clip-rule="nonzero">
<path style="fill:none;stroke-width:0.8;stroke-linecap:square;stroke-linejoin:round;stroke:rgb(69.01961%,69.01961%,69.01961%);stroke-opacity:1;stroke-miterlimit:4;" d="M 52.160156 10.998047 L 247.461914 10.998047 " transform="matrix(1.333333,0,0,1.333333,0,0)"/>
</g>
<path style="fill:none;stroke-width:0.8;stroke-linecap:butt;stroke-linejoin:round;stroke:rgb(0%,0%,0%);stroke-opacity:1;stroke-miterlimit:4;" d="M -0.000782013 -0.00117207 L -3.498829 -0.00117207 " transform="matrix(1.333333,0,0,1.333333,69.547918,14.665625)"/>
<path style=" stroke:none;fill-rule:nonzero;fill:rgb(0%,0%,0%);fill-opacity:1;" d="M 43.246094 10.878906 C 42.570312 10.878906 42.0625 11.210938 41.722656 11.878906 C 41.378906 12.542969 41.210938 13.542969 41.210938 14.882812 C 41.210938 16.214844 41.378906 17.210938 41.722656 17.878906 C 42.0625 18.546875 42.570312 18.878906 43.246094 18.878906 C 43.929688 18.878906 44.441406 18.546875 44.78125 17.878906 C 45.121094 17.210938 45.292969 16.214844 45.292969 14.882812 C 45.292969 13.542969 45.121094 12.542969 44.78125 11.878906 C 44.441406 11.210938 43.929688 10.878906 43.246094 10.878906 Z M 43.246094 9.835938 C 44.339844 9.835938 45.171875 10.265625 45.746094 11.128906 C 46.320312 11.992188 46.609375 13.242188 46.609375 14.882812 C 46.609375 16.515625 46.320312 17.765625 45.746094 18.628906 C 45.171875 19.492188 44.339844 19.921875 43.246094 19.921875 C 42.160156 19.921875 41.328125 19.492188 40.753906 18.628906 C 40.175781 17.765625 39.890625 16.515625 39.890625 14.882812 C 39.890625 13.242188 40.175781 11.992188 40.753906 11.128906 C 41.328125 10.265625 42.160156 9.835938 43.246094 9.835938 Z M 43.246094 9.835938 "/>
<path style=" stroke:none;fill-rule:nonzero;fill:rgb(0%,0%,0%);fill-opacity:1;" d="M 48.917969 18.078125 L 50.292969 18.078125 L 50.292969 19.730469 L 48.917969 19.730469 Z M 48.917969 18.078125 "/>
<path style=" stroke:none;fill-rule:nonzero;fill:rgb(0%,0%,0%);fill-opacity:1;" d="M 53.171875 10.011719 L 58.332031 10.011719 L 58.332031 11.117188 L 54.375 11.117188 L 54.375 13.5 C 54.566406 13.433594 54.757812 13.386719 54.945312 13.355469 C 55.136719 13.320312 55.328125 13.304688 55.519531 13.304688 C 56.605469 13.304688 57.464844 13.601562 58.097656 14.199219 C 58.734375 14.792969 59.050781 15.597656 59.050781 16.613281 C 59.050781 17.660156 58.726562 18.472656 58.074219 19.050781 C 57.421875 19.632812 56.503906 19.921875 55.320312 19.921875 C 54.910156 19.921875 54.496094 19.886719 54.070312 19.816406 C 53.648438 19.746094 53.210938 19.644531 52.761719 19.503906 L 52.761719 18.179688 C 53.152344 18.394531 53.554688 18.550781 53.972656 18.65625 C 54.386719 18.761719 54.828125 18.8125 55.292969 18.8125 C 56.042969 18.8125 56.636719 18.617188 57.074219 18.222656 C 57.515625 17.828125 57.734375 17.289062 57.734375 16.613281 C 57.734375 15.9375 57.515625 15.402344 57.074219 15.007812 C 56.636719 14.609375 56.042969 14.414062 55.292969 14.414062 C 54.941406 14.414062 54.589844 14.453125 54.238281 14.527344 C 53.890625 14.605469 53.535156 14.726562 53.171875 14.894531 Z M 53.171875 10.011719 "/>
<path style=" stroke:none;fill-rule:nonzero;fill:rgb(0%,0%,0%);fill-opacity:1;" d="M 9.601562 109.71875 L 10.597656 109.71875 L 10.597656 110.863281 C 10.597656 111.292969 10.683594 111.589844 10.859375 111.757812 C 11.03125 111.925781 11.34375 112.007812 11.796875 112.007812 L 12.441406 112.007812 L 12.441406 110.035156 L 13.371094 110.035156 L 13.371094 112.007812 L 19.730469 112.007812 L 19.730469 113.214844 L 13.371094 113.214844 L 13.371094 114.359375 L 12.441406 114.359375 L 12.441406 113.214844 L 11.929688 113.214844 C 11.121094 113.214844 10.527344 113.023438 10.160156 112.648438 C 9.785156 112.269531 9.601562 111.671875 9.601562 110.851562 Z M 9.601562 109.71875 "/>
<path style=" stroke:none;fill-rule:nonzero;fill:rgb(0%,0%,0%);fill-opacity:1;" d="M 9.613281 105.839844 C 10.613281 106.417969 11.597656 106.851562 12.578125 107.132812 C 13.554688 107.414062 14.542969 107.558594 15.546875 107.558594 C 16.546875 107.558594 17.539062 107.414062 18.523438 107.128906 C 19.507812 106.84375 20.496094 106.414062 21.488281 105.839844 L 21.488281 106.878906 C 20.46875 107.53125 19.464844 108.015625 18.480469 108.339844 C 17.496094 108.664062 16.519531 108.824219 15.546875 108.824219 C 14.578125 108.824219 13.601562 108.664062 12.621094 108.34375 C 11.640625 108.023438 10.636719 107.535156 9.613281 106.878906 Z M 9.613281 105.839844 "/>
<path style=" stroke:none;fill-rule:nonzero;fill:rgb(0%,0%,0%);fill-opacity:1;" d="M 12.441406 97.449219 L 15.988281 100.089844 L 19.730469 97.316406 L 19.730469 98.726562 L 16.867188 100.851562 L 19.730469 102.972656 L 19.730469 104.386719 L 15.917969 101.554688 L 12.441406 104.144531 L 12.441406 102.730469 L 15.039062 100.796875 L 12.441406 98.867188 Z M 12.441406 97.449219 "/>
<path style=" stroke:none;fill-rule:nonzero;fill:rgb(0%,0%,0%);fill-opacity:1;" d="M 9.613281 95.808594 L 9.613281 94.769531 C 10.636719 94.117188 11.640625 93.632812 12.621094 93.308594 C 13.601562 92.984375 14.578125 92.824219 15.546875 92.824219 C 16.519531 92.824219 17.496094 92.984375 18.480469 93.308594 C 19.464844 93.632812 20.46875 94.117188 21.488281 94.769531 L 21.488281 95.808594 C 20.496094 95.234375 19.507812 94.804688 18.523438 94.519531 C 17.539062 94.234375 16.546875 94.089844 15.546875 94.089844 C 14.542969 94.089844 13.554688 94.234375 12.578125 94.519531 C 11.597656 94.804688 10.613281 95.234375 9.613281 95.808594 Z M 9.613281 95.808594 "/>
<path style="fill:none;stroke-width:1.5;stroke-linecap:square;stroke-linejoin:round;stroke:rgb(12.156863%,46.666667%,70.588237%);stroke-opacity:1;stroke-miterlimit:4;" d="M 61.037109 14.378906 L 66.375 19.291992 L 71.712891 24.495117 L 77.405273 30.357422 L 83.097656 36.533203 L 89.147461 43.415039 L 95.551758 51.032227 L 102.667969 59.844727 L 111.205078 70.787109 L 138.603516 106.21582 L 144.295898 113.030273 L 148.921875 118.248047 L 153.19043 122.745117 L 157.104492 126.544922 L 160.664062 129.694336 L 163.866211 132.246094 L 167.068359 134.501953 L 169.913086 136.236328 L 172.760742 137.695312 L 175.250977 138.729492 L 177.741211 139.526367 L 180.231445 140.068359 L 182.367188 140.320312 L 184.50293 140.373047 L 186.635742 140.211914 L 188.771484 139.833984 L 190.907227 139.230469 L 193.040039 138.398438 L 195.175781 137.326172 L 197.311523 136.010742 L 199.444336 134.449219 L 201.580078 132.632812 L 204.070312 130.192383 L 206.560547 127.400391 L 209.050781 124.253906 L 211.543945 120.75293 L 214.03418 116.900391 L 216.878906 112.069336 L 219.726562 106.795898 L 222.928711 100.347656 L 226.130859 93.383789 L 229.6875 85.089844 L 233.601562 75.363281 L 237.873047 64.151367 L 238.584961 62.232422 " transform="matrix(1.333333,0,0,1.333333,0,0)"/>
<path style="fill:none;stroke-width:0.8;stroke-linecap:square;stroke-linejoin:miter;stroke:rgb(0%,0%,0%);stroke-opacity:1;stroke-miterlimit:4;" d="M 52.160156 146.677734 L 52.160156 8.077148 " transform="matrix(1.333333,0,0,1.333333,0,0)"/>
<path style="fill:none;stroke-width:0.8;stroke-linecap:square;stroke-linejoin:miter;stroke:rgb(0%,0%,0%);stroke-opacity:1;stroke-miterlimit:4;" d="M 247.461914 146.677734 L 247.461914 8.077148 " transform="matrix(1.333333,0,0,1.333333,0,0)"/>
<path style="fill:none;stroke-width:0.8;stroke-linecap:square;stroke-linejoin:miter;stroke:rgb(0%,0%,0%);stroke-opacity:1;stroke-miterlimit:4;" d="M 52.160156 146.677734 L 247.461914 146.677734 " transform="matrix(1.333333,0,0,1.333333,0,0)"/>
<path style="fill:none;stroke-width:0.8;stroke-linecap:square;stroke-linejoin:miter;stroke:rgb(0%,0%,0%);stroke-opacity:1;stroke-miterlimit:4;" d="M 52.160156 8.077148 L 247.461914 8.077148 " transform="matrix(1.333333,0,0,1.333333,0,0)"/>
</g>
</svg>
