<?xml version="1.0" encoding="UTF-8"?>
<svg xmlns="http://www.w3.org/2000/svg" xmlns:xlink="http://www.w3.org/1999/xlink" width="310.137492" height="231.303121" viewBox="0 0 310.137492 231.303121" version="1.1">
<defs>
<clipPath id="clip1">
  <path d="M 57 190 L 64 190 L 64 199.464844 L 57 199.464844 Z M 57 190 "/>
</clipPath>
<clipPath id="clip2">
  <path d="M 63 181 L 70 181 L 70 199.464844 L 63 199.464844 Z M 63 181 "/>
</clipPath>
<clipPath id="clip3">
  <path d="M 69 172 L 76 172 L 76 199.464844 L 69 199.464844 Z M 69 172 "/>
</clipPath>
<clipPath id="clip4">
  <path d="M 75 163 L 82 163 L 82 199.464844 L 75 199.464844 Z M 75 163 "/>
</clipPath>
<clipPath id="clip5">
  <path d="M 81 155 L 88 155 L 88 199.464844 L 81 199.464844 Z M 81 155 "/>
</clipPath>
<clipPath id="clip6">
  <path d="M 87 148 L 94 148 L 94 199.464844 L 87 199.464844 Z M 87 148 "/>
</clipPath>
<clipPath id="clip7">
  <path d="M 93 141 L 100 141 L 100 199.464844 L 93 199.464844 Z M 93 141 "/>
</clipPath>
<clipPath id="clip8">
  <path d="M 99 135 L 106 135 L 106 199.464844 L 99 199.464844 Z M 99 135 "/>
</clipPath>
<clipPath id="clip9">
  <path d="M 105 130 L 112 130 L 112 199.464844 L 105 199.464844 Z M 105 130 "/>
</clipPath>
<clipPath id="clip10">
  <path d="M 111 125 L 118 125 L 118 199.464844 L 111 199.464844 Z M 111 125 "/>
</clipPath>
<clipPath id="clip11">
  <path d="M 117 121 L 123 121 L 123 199.464844 L 117 199.464844 Z M 117 121 "/>
</clipPath>
<clipPath id="clip12">
  <path d="M 122 117 L 129 117 L 129 199.464844 L 122 199.464844 Z M 122 117 "/>
</clipPath>
<clipPath id="clip13">
  <path d="M 128 115 L 135 115 L 135 199.464844 L 128 199.464844 Z M 128 115 "/>
</clipPath>
<clipPath id="clip14">
  <path d="M 134 112 L 141 112 L 141 199.464844 L 134 199.464844 Z M 134 112 "/>
</clipPath>
<clipPath id="clip15">
  <path d="M 140 110 L 147 110 L 147 199.464844 L 140 199.464844 Z M 140 110 "/>
</clipPath>
<clipPath id="clip16">
  <path d="M 146 109 L 153 109 L 153 199.464844 L 146 199.464844 Z M 146 109 "/>
</clipPath>
<clipPath id="clip17">
  <path d="M 152 108 L 159 108 L 159 199.464844 L 152 199.464844 Z M 152 108 "/>
</clipPath>
<clipPath id="clip18">
  <path d="M 158 107 L 165 107 L 165 199.464844 L 158 199.464844 Z M 158 107 "/>
</clipPath>
<clipPath id="clip19">
  <path d="M 164 107 L 171 107 L 171 199.464844 L 164 199.464844 Z M 164 107 "/>
</clipPath>
<clipPath id="clip20">
  <path d="M 170 107 L 177 107 L 177 199.464844 L 170 199.464844 Z M 170 107 "/>
</clipPath>
<clipPath id="clip21">
  <path d="M 176 107 L 183 107 L 183 199.464844 L 176 199.464844 Z M 176 107 "/>
</clipPath>
<clipPath id="clip22">
  <path d="M 182 107 L 189 107 L 189 199.464844 L 182 199.464844 Z M 182 107 "/>
</clipPath>
<clipPath id="clip23">
  <path d="M 188 107 L 195 107 L 195 199.464844 L 188 199.464844 Z M 188 107 "/>
</clipPath>
<clipPath id="clip24">
  <path d="M 194 108 L 200 108 L 200 199.464844 L 194 199.464844 Z M 194 108 "/>
</clipPath>
<clipPath id="clip25">
  <path d="M 199 109 L 206 109 L 206 199.464844 L 199 199.464844 Z M 199 109 "/>
</clipPath>
<clipPath id="clip26">
  <path d="M 205 110 L 212 110 L 212 199.464844 L 205 199.464844 Z M 205 110 "/>
</clipPath>
<clipPath id="clip27">
  <path d="M 211 111 L 218 111 L 218 199.464844 L 211 199.464844 Z M 211 111 "/>
</clipPath>
<clipPath id="clip28">
  <path d="M 217 112 L 224 112 L 224 199.464844 L 217 199.464844 Z M 217 112 "/>
</clipPath>
<clipPath id="clip29">
  <path d="M 223 113 L 230 113 L 230 199.464844 L 223 199.464844 Z M 223 113 "/>
</clipPath>
<clipPath id="clip30">
  <path d="M 229 114 L 236 114 L 236 199.464844 L 229 199.464844 Z M 229 114 "/>
</clipPath>
<clipPath id="clip31">
  <path d="M 235 115 L 242 115 L 242 199.464844 L 235 199.464844 Z M 235 115 "/>
</clipPath>
<clipPath id="clip32">
  <path d="M 241 116 L 248 116 L 248 199.464844 L 241 199.464844 Z M 241 116 "/>
</clipPath>
<clipPath id="clip33">
  <path d="M 247 117 L 254 117 L 254 199.464844 L 247 199.464844 Z M 247 117 "/>
</clipPath>
<clipPath id="clip34">
  <path d="M 253 118 L 260 118 L 260 199.464844 L 253 199.464844 Z M 253 118 "/>
</clipPath>
<clipPath id="clip35">
  <path d="M 259 119 L 266 119 L 266 199.464844 L 259 199.464844 Z M 259 119 "/>
</clipPath>
<clipPath id="clip36">
  <path d="M 265 121 L 271 121 L 271 199.464844 L 265 199.464844 Z M 265 121 "/>
</clipPath>
<clipPath id="clip37">
  <path d="M 270 122 L 277 122 L 277 199.464844 L 270 199.464844 Z M 270 122 "/>
</clipPath>
<clipPath id="clip38">
  <path d="M 276 123 L 283 123 L 283 199.464844 L 276 199.464844 Z M 276 123 "/>
</clipPath>
<clipPath id="clip39">
  <path d="M 282 124 L 289 124 L 289 199.464844 L 282 199.464844 Z M 282 124 "/>
</clipPath>
<clipPath id="clip40">
  <path d="M 50 105 L 285 105 L 285 199.464844 L 50 199.464844 Z M 50 105 "/>
</clipPath>
</defs>
<g id="surface1">
<path style=" stroke:none;fill-rule:nonzero;fill:rgb(100%,100%,100%);fill-opacity:1;" d="M 0 231.304688 L 310.136719 231.304688 L 310.136719 0 L 0 0 Z M 0 231.304688 "/>
<path style=" stroke:none;fill-rule:nonzero;fill:rgb(100%,100%,100%);fill-opacity:1;" d="M 40.136719 199.464844 L 300.539062 199.464844 L 300.539062 14.664062 L 40.136719 14.664062 Z M 40.136719 199.464844 "/>
<g clip-path="url(#clip1)" clip-rule="nonzero">
<path style=" stroke:none;fill-rule:nonzero;fill:rgb(12.156863%,46.666667%,70.588237%);fill-opacity:1;" d="M 57.890625 199.464844 L 63.808594 199.464844 L 63.808594 190.25 L 57.890625 190.25 Z M 57.890625 199.464844 "/>
</g>
<g clip-path="url(#clip2)" clip-rule="nonzero">
<path style=" stroke:none;fill-rule:nonzero;fill:rgb(12.156863%,46.666667%,70.588237%);fill-opacity:1;" d="M 63.808594 199.464844 L 69.726562 199.464844 L 69.726562 181.167969 L 63.808594 181.167969 Z M 63.808594 199.464844 "/>
</g>
<g clip-path="url(#clip3)" clip-rule="nonzero">
<path style=" stroke:none;fill-rule:nonzero;fill:rgb(12.156863%,46.666667%,70.588237%);fill-opacity:1;" d="M 69.726562 199.464844 L 75.648438 199.464844 L 75.648438 172.355469 L 69.726562 172.355469 Z M 69.726562 199.464844 "/>
</g>
<g clip-path="url(#clip4)" clip-rule="nonzero">
<path style=" stroke:none;fill-rule:nonzero;fill:rgb(12.156863%,46.666667%,70.588237%);fill-opacity:1;" d="M 75.648438 199.464844 L 81.566406 199.464844 L 81.566406 163.925781 L 75.648438 163.925781 Z M 75.648438 199.464844 "/>
</g>
<g clip-path="url(#clip5)" clip-rule="nonzero">
<path style=" stroke:none;fill-rule:nonzero;fill:rgb(12.156863%,46.666667%,70.588237%);fill-opacity:1;" d="M 81.566406 199.464844 L 87.484375 199.464844 L 87.484375 155.984375 L 81.566406 155.984375 Z M 81.566406 199.464844 "/>
</g>
<g clip-path="url(#clip6)" clip-rule="nonzero">
<path style=" stroke:none;fill-rule:nonzero;fill:rgb(12.156863%,46.666667%,70.588237%);fill-opacity:1;" d="M 87.484375 199.464844 L 93.402344 199.464844 L 93.402344 148.601562 L 87.484375 148.601562 Z M 87.484375 199.464844 "/>
</g>
<g clip-path="url(#clip7)" clip-rule="nonzero">
<path style=" stroke:none;fill-rule:nonzero;fill:rgb(12.156863%,46.666667%,70.588237%);fill-opacity:1;" d="M 93.402344 199.464844 L 99.320312 199.464844 L 99.320312 141.84375 L 93.402344 141.84375 Z M 93.402344 199.464844 "/>
</g>
<g clip-path="url(#clip8)" clip-rule="nonzero">
<path style=" stroke:none;fill-rule:nonzero;fill:rgb(12.156863%,46.666667%,70.588237%);fill-opacity:1;" d="M 99.320312 199.464844 L 105.238281 199.464844 L 105.238281 135.742188 L 99.320312 135.742188 Z M 99.320312 199.464844 "/>
</g>
<g clip-path="url(#clip9)" clip-rule="nonzero">
<path style=" stroke:none;fill-rule:nonzero;fill:rgb(12.156863%,46.666667%,70.588237%);fill-opacity:1;" d="M 105.238281 199.464844 L 111.15625 199.464844 L 111.15625 130.308594 L 105.238281 130.308594 Z M 105.238281 199.464844 "/>
</g>
<g clip-path="url(#clip10)" clip-rule="nonzero">
<path style=" stroke:none;fill-rule:nonzero;fill:rgb(12.156863%,46.666667%,70.588237%);fill-opacity:1;" d="M 111.15625 199.464844 L 117.074219 199.464844 L 117.074219 125.546875 L 111.15625 125.546875 Z M 111.15625 199.464844 "/>
</g>
<g clip-path="url(#clip11)" clip-rule="nonzero">
<path style=" stroke:none;fill-rule:nonzero;fill:rgb(12.156863%,46.666667%,70.588237%);fill-opacity:1;" d="M 117.074219 199.464844 L 122.992188 199.464844 L 122.992188 121.429688 L 117.074219 121.429688 Z M 117.074219 199.464844 "/>
</g>
<g clip-path="url(#clip12)" clip-rule="nonzero">
<path style=" stroke:none;fill-rule:nonzero;fill:rgb(12.156863%,46.666667%,70.588237%);fill-opacity:1;" d="M 122.992188 199.464844 L 128.910156 199.464844 L 128.910156 117.9375 L 122.992188 117.9375 Z M 122.992188 199.464844 "/>
</g>
<g clip-path="url(#clip13)" clip-rule="nonzero">
<path style=" stroke:none;fill-rule:nonzero;fill:rgb(12.156863%,46.666667%,70.588237%);fill-opacity:1;" d="M 128.910156 199.464844 L 134.828125 199.464844 L 134.828125 115.023438 L 128.910156 115.023438 Z M 128.910156 199.464844 "/>
</g>
<g clip-path="url(#clip14)" clip-rule="nonzero">
<path style=" stroke:none;fill-rule:nonzero;fill:rgb(12.156863%,46.666667%,70.588237%);fill-opacity:1;" d="M 134.828125 199.464844 L 140.746094 199.464844 L 140.746094 112.648438 L 134.828125 112.648438 Z M 134.828125 199.464844 "/>
</g>
<g clip-path="url(#clip15)" clip-rule="nonzero">
<path style=" stroke:none;fill-rule:nonzero;fill:rgb(12.156863%,46.666667%,70.588237%);fill-opacity:1;" d="M 140.746094 199.464844 L 146.664062 199.464844 L 146.664062 110.761719 L 140.746094 110.761719 Z M 140.746094 199.464844 "/>
</g>
<g clip-path="url(#clip16)" clip-rule="nonzero">
<path style=" stroke:none;fill-rule:nonzero;fill:rgb(12.156863%,46.666667%,70.588237%);fill-opacity:1;" d="M 146.664062 199.464844 L 152.582031 199.464844 L 152.582031 109.320312 L 146.664062 109.320312 Z M 146.664062 199.464844 "/>
</g>
<g clip-path="url(#clip17)" clip-rule="nonzero">
<path style=" stroke:none;fill-rule:nonzero;fill:rgb(12.156863%,46.666667%,70.588237%);fill-opacity:1;" d="M 152.582031 199.464844 L 158.5 199.464844 L 158.5 108.273438 L 152.582031 108.273438 Z M 152.582031 199.464844 "/>
</g>
<g clip-path="url(#clip18)" clip-rule="nonzero">
<path style=" stroke:none;fill-rule:nonzero;fill:rgb(12.156863%,46.666667%,70.588237%);fill-opacity:1;" d="M 158.5 199.464844 L 164.417969 199.464844 L 164.417969 107.574219 L 158.5 107.574219 Z M 158.5 199.464844 "/>
</g>
<g clip-path="url(#clip19)" clip-rule="nonzero">
<path style=" stroke:none;fill-rule:nonzero;fill:rgb(12.156863%,46.666667%,70.588237%);fill-opacity:1;" d="M 164.417969 199.464844 L 170.335938 199.464844 L 170.335938 107.1875 L 164.417969 107.1875 Z M 164.417969 199.464844 "/>
</g>
<g clip-path="url(#clip20)" clip-rule="nonzero">
<path style=" stroke:none;fill-rule:nonzero;fill:rgb(12.156863%,46.666667%,70.588237%);fill-opacity:1;" d="M 170.335938 199.464844 L 176.253906 199.464844 L 176.253906 107.066406 L 170.335938 107.066406 Z M 170.335938 199.464844 "/>
</g>
<g clip-path="url(#clip21)" clip-rule="nonzero">
<path style=" stroke:none;fill-rule:nonzero;fill:rgb(12.156863%,46.666667%,70.588237%);fill-opacity:1;" d="M 176.253906 199.464844 L 182.175781 199.464844 L 182.175781 107.175781 L 176.253906 107.175781 Z M 176.253906 199.464844 "/>
</g>
<g clip-path="url(#clip22)" clip-rule="nonzero">
<path style=" stroke:none;fill-rule:nonzero;fill:rgb(12.156863%,46.666667%,70.588237%);fill-opacity:1;" d="M 182.175781 199.464844 L 188.09375 199.464844 L 188.09375 107.484375 L 182.175781 107.484375 Z M 182.175781 199.464844 "/>
</g>
<g clip-path="url(#clip23)" clip-rule="nonzero">
<path style=" stroke:none;fill-rule:nonzero;fill:rgb(12.156863%,46.666667%,70.588237%);fill-opacity:1;" d="M 188.09375 199.464844 L 194.011719 199.464844 L 194.011719 107.960938 L 188.09375 107.960938 Z M 188.09375 199.464844 "/>
</g>
<g clip-path="url(#clip24)" clip-rule="nonzero">
<path style=" stroke:none;fill-rule:nonzero;fill:rgb(12.156863%,46.666667%,70.588237%);fill-opacity:1;" d="M 194.011719 199.464844 L 199.929688 199.464844 L 199.929688 108.582031 L 194.011719 108.582031 Z M 194.011719 199.464844 "/>
</g>
<g clip-path="url(#clip25)" clip-rule="nonzero">
<path style=" stroke:none;fill-rule:nonzero;fill:rgb(12.156863%,46.666667%,70.588237%);fill-opacity:1;" d="M 199.929688 199.464844 L 205.847656 199.464844 L 205.847656 109.320312 L 199.929688 109.320312 Z M 199.929688 199.464844 "/>
</g>
<g clip-path="url(#clip26)" clip-rule="nonzero">
<path style=" stroke:none;fill-rule:nonzero;fill:rgb(12.156863%,46.666667%,70.588237%);fill-opacity:1;" d="M 205.847656 199.464844 L 211.765625 199.464844 L 211.765625 110.15625 L 205.847656 110.15625 Z M 205.847656 199.464844 "/>
</g>
<g clip-path="url(#clip27)" clip-rule="nonzero">
<path style=" stroke:none;fill-rule:nonzero;fill:rgb(12.156863%,46.666667%,70.588237%);fill-opacity:1;" d="M 211.765625 199.464844 L 217.683594 199.464844 L 217.683594 111.074219 L 211.765625 111.074219 Z M 211.765625 199.464844 "/>
</g>
<g clip-path="url(#clip28)" clip-rule="nonzero">
<path style=" stroke:none;fill-rule:nonzero;fill:rgb(12.156863%,46.666667%,70.588237%);fill-opacity:1;" d="M 217.683594 199.464844 L 223.601562 199.464844 L 223.601562 112.058594 L 217.683594 112.058594 Z M 217.683594 199.464844 "/>
</g>
<g clip-path="url(#clip29)" clip-rule="nonzero">
<path style=" stroke:none;fill-rule:nonzero;fill:rgb(12.156863%,46.666667%,70.588237%);fill-opacity:1;" d="M 223.601562 199.464844 L 229.519531 199.464844 L 229.519531 113.097656 L 223.601562 113.097656 Z M 223.601562 199.464844 "/>
</g>
<g clip-path="url(#clip30)" clip-rule="nonzero">
<path style=" stroke:none;fill-rule:nonzero;fill:rgb(12.156863%,46.666667%,70.588237%);fill-opacity:1;" d="M 229.519531 199.464844 L 235.4375 199.464844 L 235.4375 114.171875 L 229.519531 114.171875 Z M 229.519531 199.464844 "/>
</g>
<g clip-path="url(#clip31)" clip-rule="nonzero">
<path style=" stroke:none;fill-rule:nonzero;fill:rgb(12.156863%,46.666667%,70.588237%);fill-opacity:1;" d="M 235.4375 199.464844 L 241.355469 199.464844 L 241.355469 115.28125 L 235.4375 115.28125 Z M 235.4375 199.464844 "/>
</g>
<g clip-path="url(#clip32)" clip-rule="nonzero">
<path style=" stroke:none;fill-rule:nonzero;fill:rgb(12.156863%,46.666667%,70.588237%);fill-opacity:1;" d="M 241.355469 199.464844 L 247.273438 199.464844 L 247.273438 116.410156 L 241.355469 116.410156 Z M 241.355469 199.464844 "/>
</g>
<g clip-path="url(#clip33)" clip-rule="nonzero">
<path style=" stroke:none;fill-rule:nonzero;fill:rgb(12.156863%,46.666667%,70.588237%);fill-opacity:1;" d="M 247.273438 199.464844 L 253.191406 199.464844 L 253.191406 117.554688 L 247.273438 117.554688 Z M 247.273438 199.464844 "/>
</g>
<g clip-path="url(#clip34)" clip-rule="nonzero">
<path style=" stroke:none;fill-rule:nonzero;fill:rgb(12.156863%,46.666667%,70.588237%);fill-opacity:1;" d="M 253.191406 199.464844 L 259.109375 199.464844 L 259.109375 118.703125 L 253.191406 118.703125 Z M 253.191406 199.464844 "/>
</g>
<g clip-path="url(#clip35)" clip-rule="nonzero">
<path style=" stroke:none;fill-rule:nonzero;fill:rgb(12.156863%,46.666667%,70.588237%);fill-opacity:1;" d="M 259.109375 199.464844 L 265.027344 199.464844 L 265.027344 119.859375 L 259.109375 119.859375 Z M 259.109375 199.464844 "/>
</g>
<g clip-path="url(#clip36)" clip-rule="nonzero">
<path style=" stroke:none;fill-rule:nonzero;fill:rgb(12.156863%,46.666667%,70.588237%);fill-opacity:1;" d="M 265.027344 199.464844 L 270.945312 199.464844 L 270.945312 121.011719 L 265.027344 121.011719 Z M 265.027344 199.464844 "/>
</g>
<g clip-path="url(#clip37)" clip-rule="nonzero">
<path style=" stroke:none;fill-rule:nonzero;fill:rgb(12.156863%,46.666667%,70.588237%);fill-opacity:1;" d="M 270.945312 199.464844 L 276.863281 199.464844 L 276.863281 122.160156 L 270.945312 122.160156 Z M 270.945312 199.464844 "/>
</g>
<g clip-path="url(#clip38)" clip-rule="nonzero">
<path style=" stroke:none;fill-rule:nonzero;fill:rgb(12.156863%,46.666667%,70.588237%);fill-opacity:1;" d="M 276.863281 199.464844 L 282.78125 199.464844 L 282.78125 123.300781 L 276.863281 123.300781 Z M 276.863281 199.464844 "/>
</g>
<g clip-path="url(#clip39)" clip-rule="nonzero">
<path style=" stroke:none;fill-rule:nonzero;fill:rgb(12.156863%,46.666667%,70.588237%);fill-opacity:1;" d="M 282.78125 199.464844 L 288.699219 199.464844 L 288.699219 124.429688 L 282.78125 124.429688 Z M 282.78125 199.464844 "/>
</g>
<path style="fill:none;stroke-width:0.8;stroke-linecap:butt;stroke-linejoin:round;stroke:rgb(0%,0%,0%);stroke-opacity:1;stroke-miterlimit:4;" d="M -0.000904083 -0.000579834 L -0.000904083 3.500397 " transform="matrix(1.333333,0,0,1.333333,51.973862,199.465617)"/>
<path style=" stroke:none;fill-rule:nonzero;fill:rgb(0%,0%,0%);fill-opacity:1;" d="M 45.609375 210.074219 C 44.933594 210.074219 44.425781 210.410156 44.082031 211.074219 C 43.742188 211.742188 43.570312 212.742188 43.570312 214.082031 C 43.570312 215.414062 43.742188 216.410156 44.082031 217.078125 C 44.425781 217.746094 44.933594 218.078125 45.609375 218.078125 C 46.292969 218.078125 46.800781 217.746094 47.144531 217.078125 C 47.484375 216.410156 47.65625 215.414062 47.65625 214.082031 C 47.65625 212.742188 47.484375 211.742188 47.144531 211.074219 C 46.800781 210.410156 46.292969 210.074219 45.609375 210.074219 Z M 45.609375 209.035156 C 46.699219 209.035156 47.53125 209.464844 48.105469 210.328125 C 48.683594 211.1875 48.96875 212.441406 48.96875 214.082031 C 48.96875 215.714844 48.683594 216.964844 48.105469 217.828125 C 47.53125 218.6875 46.699219 219.121094 45.609375 219.121094 C 44.519531 219.121094 43.6875 218.6875 43.113281 217.828125 C 42.539062 216.964844 42.25 215.714844 42.25 214.082031 C 42.25 212.441406 42.539062 211.1875 43.113281 210.328125 C 43.6875 209.464844 44.519531 209.035156 45.609375 209.035156 Z M 45.609375 209.035156 "/>
<path style=" stroke:none;fill-rule:nonzero;fill:rgb(0%,0%,0%);fill-opacity:1;" d="M 51.28125 217.277344 L 52.65625 217.277344 L 52.65625 218.929688 L 51.28125 218.929688 Z M 51.28125 217.277344 "/>
<path style=" stroke:none;fill-rule:nonzero;fill:rgb(0%,0%,0%);fill-opacity:1;" d="M 58.332031 210.074219 C 57.652344 210.074219 57.144531 210.410156 56.804688 211.074219 C 56.464844 211.742188 56.292969 212.742188 56.292969 214.082031 C 56.292969 215.414062 56.464844 216.410156 56.804688 217.078125 C 57.144531 217.746094 57.652344 218.078125 58.332031 218.078125 C 59.011719 218.078125 59.523438 217.746094 59.863281 217.078125 C 60.207031 216.410156 60.375 215.414062 60.375 214.082031 C 60.375 212.742188 60.207031 211.742188 59.863281 211.074219 C 59.523438 210.410156 59.011719 210.074219 58.332031 210.074219 Z M 58.332031 209.035156 C 59.421875 209.035156 60.253906 209.464844 60.828125 210.328125 C 61.402344 211.1875 61.691406 212.441406 61.691406 214.082031 C 61.691406 215.714844 61.402344 216.964844 60.828125 217.828125 C 60.253906 218.6875 59.421875 219.121094 58.332031 219.121094 C 57.242188 219.121094 56.410156 218.6875 55.835938 217.828125 C 55.261719 216.964844 54.972656 215.714844 54.972656 214.082031 C 54.972656 212.441406 55.261719 211.1875 55.835938 210.328125 C 56.410156 209.464844 57.242188 209.035156 58.332031 209.035156 Z M 58.332031 209.035156 "/>
<path style="fill:none;stroke-width:0.8;stroke-linecap:butt;stroke-linejoin:round;stroke:rgb(0%,0%,0%);stroke-opacity:1;stroke-miterlimit:4;" d="M 0.000427246 -0.000579834 L 0.000427246 3.500397 " transform="matrix(1.333333,0,0,1.333333,111.15568,199.465617)"/>
<path style=" stroke:none;fill-rule:nonzero;fill:rgb(0%,0%,0%);fill-opacity:1;" d="M 104.792969 210.074219 C 104.113281 210.074219 103.605469 210.410156 103.265625 211.074219 C 102.921875 211.742188 102.753906 212.742188 102.753906 214.082031 C 102.753906 215.414062 102.921875 216.410156 103.265625 217.078125 C 103.605469 217.746094 104.113281 218.078125 104.792969 218.078125 C 105.472656 218.078125 105.984375 217.746094 106.324219 217.078125 C 106.667969 216.410156 106.835938 215.414062 106.835938 214.082031 C 106.835938 212.742188 106.667969 211.742188 106.324219 211.074219 C 105.984375 210.410156 105.472656 210.074219 104.792969 210.074219 Z M 104.792969 209.035156 C 105.882812 209.035156 106.714844 209.464844 107.289062 210.328125 C 107.863281 211.1875 108.152344 212.441406 108.152344 214.082031 C 108.152344 215.714844 107.863281 216.964844 107.289062 217.828125 C 106.714844 218.6875 105.882812 219.121094 104.792969 219.121094 C 103.703125 219.121094 102.871094 218.6875 102.296875 217.828125 C 101.71875 216.964844 101.433594 215.714844 101.433594 214.082031 C 101.433594 212.441406 101.71875 211.1875 102.296875 210.328125 C 102.871094 209.464844 103.703125 209.035156 104.792969 209.035156 Z M 104.792969 209.035156 "/>
<path style=" stroke:none;fill-rule:nonzero;fill:rgb(0%,0%,0%);fill-opacity:1;" d="M 110.460938 217.277344 L 111.835938 217.277344 L 111.835938 218.929688 L 110.460938 218.929688 Z M 110.460938 217.277344 "/>
<path style=" stroke:none;fill-rule:nonzero;fill:rgb(0%,0%,0%);fill-opacity:1;" d="M 114.714844 209.210938 L 119.878906 209.210938 L 119.878906 210.316406 L 115.917969 210.316406 L 115.917969 212.699219 C 116.109375 212.632812 116.300781 212.585938 116.488281 212.554688 C 116.679688 212.519531 116.871094 212.503906 117.066406 212.503906 C 118.148438 212.503906 119.007812 212.800781 119.640625 213.398438 C 120.277344 213.992188 120.59375 214.796875 120.59375 215.8125 C 120.59375 216.855469 120.269531 217.671875 119.617188 218.25 C 118.964844 218.832031 118.046875 219.121094 116.863281 219.121094 C 116.453125 219.121094 116.039062 219.085938 115.613281 219.015625 C 115.191406 218.945312 114.753906 218.84375 114.304688 218.703125 L 114.304688 217.378906 C 114.695312 217.59375 115.097656 217.75 115.515625 217.855469 C 115.929688 217.960938 116.371094 218.011719 116.835938 218.011719 C 117.585938 218.011719 118.179688 217.8125 118.617188 217.417969 C 119.058594 217.023438 119.277344 216.488281 119.277344 215.8125 C 119.277344 215.136719 119.058594 214.601562 118.617188 214.207031 C 118.179688 213.808594 117.585938 213.613281 116.835938 213.613281 C 116.484375 213.613281 116.132812 213.648438 115.785156 213.726562 C 115.433594 213.804688 115.078125 213.925781 114.714844 214.09375 Z M 114.714844 209.210938 "/>
<path style="fill:none;stroke-width:0.8;stroke-linecap:butt;stroke-linejoin:round;stroke:rgb(0%,0%,0%);stroke-opacity:1;stroke-miterlimit:4;" d="M -0.00117493 -0.000579834 L -0.00117493 3.500397 " transform="matrix(1.333333,0,0,1.333333,170.337504,199.465617)"/>
<path style=" stroke:none;fill-rule:nonzero;fill:rgb(0%,0%,0%);fill-opacity:1;" d="M 161.390625 217.824219 L 163.539062 217.824219 L 163.539062 210.40625 L 161.199219 210.875 L 161.199219 209.679688 L 163.523438 209.210938 L 164.839844 209.210938 L 164.839844 217.824219 L 166.988281 217.824219 L 166.988281 218.929688 L 161.390625 218.929688 Z M 161.390625 217.824219 "/>
<path style=" stroke:none;fill-rule:nonzero;fill:rgb(0%,0%,0%);fill-opacity:1;" d="M 169.644531 217.277344 L 171.019531 217.277344 L 171.019531 218.929688 L 169.644531 218.929688 Z M 169.644531 217.277344 "/>
<path style=" stroke:none;fill-rule:nonzero;fill:rgb(0%,0%,0%);fill-opacity:1;" d="M 176.695312 210.074219 C 176.019531 210.074219 175.507812 210.410156 175.167969 211.074219 C 174.828125 211.742188 174.65625 212.742188 174.65625 214.082031 C 174.65625 215.414062 174.828125 216.410156 175.167969 217.078125 C 175.507812 217.746094 176.019531 218.078125 176.695312 218.078125 C 177.375 218.078125 177.886719 217.746094 178.226562 217.078125 C 178.570312 216.410156 178.738281 215.414062 178.738281 214.082031 C 178.738281 212.742188 178.570312 211.742188 178.226562 211.074219 C 177.886719 210.410156 177.375 210.074219 176.695312 210.074219 Z M 176.695312 209.035156 C 177.785156 209.035156 178.617188 209.464844 179.191406 210.328125 C 179.765625 211.1875 180.054688 212.441406 180.054688 214.082031 C 180.054688 215.714844 179.765625 216.964844 179.191406 217.828125 C 178.617188 218.6875 177.785156 219.121094 176.695312 219.121094 C 175.605469 219.121094 174.773438 218.6875 174.199219 217.828125 C 173.625 216.964844 173.335938 215.714844 173.335938 214.082031 C 173.335938 212.441406 173.625 211.1875 174.199219 210.328125 C 174.773438 209.464844 175.605469 209.035156 176.695312 209.035156 Z M 176.695312 209.035156 "/>
<path style="fill:none;stroke-width:0.8;stroke-linecap:butt;stroke-linejoin:round;stroke:rgb(0%,0%,0%);stroke-opacity:1;stroke-miterlimit:4;" d="M 0.000152588 -0.000579834 L 0.000152588 3.500397 " transform="matrix(1.333333,0,0,1.333333,229.519328,199.465617)"/>
<path style=" stroke:none;fill-rule:nonzero;fill:rgb(0%,0%,0%);fill-opacity:1;" d="M 220.570312 217.824219 L 222.71875 217.824219 L 222.71875 210.40625 L 220.382812 210.875 L 220.382812 209.679688 L 222.707031 209.210938 L 224.019531 209.210938 L 224.019531 217.824219 L 226.167969 217.824219 L 226.167969 218.929688 L 220.570312 218.929688 Z M 220.570312 217.824219 "/>
<path style=" stroke:none;fill-rule:nonzero;fill:rgb(0%,0%,0%);fill-opacity:1;" d="M 228.824219 217.277344 L 230.199219 217.277344 L 230.199219 218.929688 L 228.824219 218.929688 Z M 228.824219 217.277344 "/>
<path style=" stroke:none;fill-rule:nonzero;fill:rgb(0%,0%,0%);fill-opacity:1;" d="M 233.078125 209.210938 L 238.242188 209.210938 L 238.242188 210.316406 L 234.28125 210.316406 L 234.28125 212.699219 C 234.472656 212.632812 234.664062 212.585938 234.851562 212.554688 C 235.042969 212.519531 235.238281 212.503906 235.429688 212.503906 C 236.511719 212.503906 237.371094 212.800781 238.003906 213.398438 C 238.640625 213.992188 238.957031 214.796875 238.957031 215.8125 C 238.957031 216.855469 238.632812 217.671875 237.980469 218.25 C 237.328125 218.832031 236.410156 219.121094 235.226562 219.121094 C 234.816406 219.121094 234.402344 219.085938 233.976562 219.015625 C 233.554688 218.945312 233.121094 218.84375 232.667969 218.703125 L 232.667969 217.378906 C 233.058594 217.59375 233.460938 217.75 233.878906 217.855469 C 234.292969 217.960938 234.734375 218.011719 235.199219 218.011719 C 235.949219 218.011719 236.542969 217.8125 236.980469 217.417969 C 237.421875 217.023438 237.640625 216.488281 237.640625 215.8125 C 237.640625 215.136719 237.421875 214.601562 236.980469 214.207031 C 236.542969 213.808594 235.949219 213.613281 235.199219 213.613281 C 234.847656 213.613281 234.496094 213.648438 234.148438 213.726562 C 233.796875 213.804688 233.441406 213.925781 233.078125 214.09375 Z M 233.078125 209.210938 "/>
<path style="fill:none;stroke-width:0.8;stroke-linecap:butt;stroke-linejoin:round;stroke:rgb(0%,0%,0%);stroke-opacity:1;stroke-miterlimit:4;" d="M -0.00143433 -0.000579834 L -0.00143433 3.500397 " transform="matrix(1.333333,0,0,1.333333,288.701131,199.465617)"/>
<path style=" stroke:none;fill-rule:nonzero;fill:rgb(0%,0%,0%);fill-opacity:1;" d="M 280.65625 217.824219 L 285.246094 217.824219 L 285.246094 218.929688 L 279.074219 218.929688 L 279.074219 217.824219 C 279.574219 217.308594 280.253906 216.613281 281.117188 215.746094 C 281.976562 214.875 282.519531 214.3125 282.742188 214.058594 C 283.160156 213.585938 283.457031 213.1875 283.621094 212.859375 C 283.789062 212.53125 283.875 212.210938 283.875 211.894531 C 283.875 211.375 283.691406 210.957031 283.332031 210.628906 C 282.96875 210.304688 282.496094 210.140625 281.914062 210.140625 C 281.5 210.140625 281.066406 210.210938 280.605469 210.355469 C 280.152344 210.5 279.660156 210.714844 279.140625 211.007812 L 279.140625 209.679688 C 279.667969 209.464844 280.164062 209.304688 280.625 209.195312 C 281.085938 209.089844 281.507812 209.035156 281.886719 209.035156 C 282.894531 209.035156 283.699219 209.285156 284.296875 209.789062 C 284.894531 210.292969 285.195312 210.964844 285.195312 211.808594 C 285.195312 212.207031 285.121094 212.585938 284.96875 212.945312 C 284.820312 213.300781 284.550781 213.722656 284.152344 214.210938 C 284.042969 214.335938 283.699219 214.699219 283.117188 215.300781 C 282.539062 215.902344 281.71875 216.742188 280.65625 217.824219 Z M 280.65625 217.824219 "/>
<path style=" stroke:none;fill-rule:nonzero;fill:rgb(0%,0%,0%);fill-opacity:1;" d="M 288.007812 217.277344 L 289.382812 217.277344 L 289.382812 218.929688 L 288.007812 218.929688 Z M 288.007812 217.277344 "/>
<path style=" stroke:none;fill-rule:nonzero;fill:rgb(0%,0%,0%);fill-opacity:1;" d="M 295.058594 210.074219 C 294.382812 210.074219 293.871094 210.410156 293.53125 211.074219 C 293.191406 211.742188 293.019531 212.742188 293.019531 214.082031 C 293.019531 215.414062 293.191406 216.410156 293.53125 217.078125 C 293.871094 217.746094 294.382812 218.078125 295.058594 218.078125 C 295.738281 218.078125 296.25 217.746094 296.589844 217.078125 C 296.933594 216.410156 297.105469 215.414062 297.105469 214.082031 C 297.105469 212.742188 296.933594 211.742188 296.589844 211.074219 C 296.25 210.410156 295.738281 210.074219 295.058594 210.074219 Z M 295.058594 209.035156 C 296.148438 209.035156 296.980469 209.464844 297.554688 210.328125 C 298.128906 211.1875 298.417969 212.441406 298.417969 214.082031 C 298.417969 215.714844 298.128906 216.964844 297.554688 217.828125 C 296.980469 218.6875 296.148438 219.121094 295.058594 219.121094 C 293.96875 219.121094 293.136719 218.6875 292.5625 217.828125 C 291.988281 216.964844 291.699219 215.714844 291.699219 214.082031 C 291.699219 212.441406 291.988281 211.1875 292.5625 210.328125 C 293.136719 209.464844 293.96875 209.035156 295.058594 209.035156 Z M 295.058594 209.035156 "/>
<path style="fill:none;stroke-width:0.8;stroke-linecap:butt;stroke-linejoin:round;stroke:rgb(0%,0%,0%);stroke-opacity:1;stroke-miterlimit:4;" d="M -0.000585556 -0.000579834 L -3.498632 -0.000579834 " transform="matrix(1.333333,0,0,1.333333,40.137499,199.465617)"/>
<path style=" stroke:none;fill-rule:nonzero;fill:rgb(0%,0%,0%);fill-opacity:1;" d="M 13.835938 195.675781 C 13.160156 195.675781 12.652344 196.011719 12.308594 196.675781 C 11.96875 197.34375 11.800781 198.34375 11.800781 199.679688 C 11.800781 201.011719 11.96875 202.011719 12.308594 202.679688 C 12.652344 203.347656 13.160156 203.679688 13.835938 203.679688 C 14.519531 203.679688 15.03125 203.347656 15.371094 202.679688 C 15.710938 202.011719 15.882812 201.011719 15.882812 199.679688 C 15.882812 198.34375 15.710938 197.34375 15.371094 196.675781 C 15.03125 196.011719 14.519531 195.675781 13.835938 195.675781 Z M 13.835938 194.636719 C 14.929688 194.636719 15.761719 195.066406 16.335938 195.929688 C 16.910156 196.789062 17.199219 198.039062 17.199219 199.679688 C 17.199219 201.316406 16.910156 202.566406 16.335938 203.429688 C 15.761719 204.289062 14.929688 204.722656 13.835938 204.722656 C 12.75 204.722656 11.917969 204.289062 11.339844 203.429688 C 10.765625 202.566406 10.480469 201.316406 10.480469 199.679688 C 10.480469 198.039062 10.765625 196.789062 11.339844 195.929688 C 11.917969 195.066406 12.75 194.636719 13.835938 194.636719 Z M 13.835938 194.636719 "/>
<path style=" stroke:none;fill-rule:nonzero;fill:rgb(0%,0%,0%);fill-opacity:1;" d="M 19.507812 202.878906 L 20.882812 202.878906 L 20.882812 204.53125 L 19.507812 204.53125 Z M 19.507812 202.878906 "/>
<path style=" stroke:none;fill-rule:nonzero;fill:rgb(0%,0%,0%);fill-opacity:1;" d="M 26.558594 195.675781 C 25.882812 195.675781 25.375 196.011719 25.03125 196.675781 C 24.691406 197.34375 24.519531 198.34375 24.519531 199.679688 C 24.519531 201.011719 24.691406 202.011719 25.03125 202.679688 C 25.375 203.347656 25.882812 203.679688 26.558594 203.679688 C 27.242188 203.679688 27.75 203.347656 28.09375 202.679688 C 28.433594 202.011719 28.605469 201.011719 28.605469 199.679688 C 28.605469 198.34375 28.433594 197.34375 28.09375 196.675781 C 27.75 196.011719 27.242188 195.675781 26.558594 195.675781 Z M 26.558594 194.636719 C 27.648438 194.636719 28.480469 195.066406 29.058594 195.929688 C 29.632812 196.789062 29.917969 198.039062 29.917969 199.679688 C 29.917969 201.316406 29.632812 202.566406 29.058594 203.429688 C 28.480469 204.289062 27.648438 204.722656 26.558594 204.722656 C 25.46875 204.722656 24.636719 204.289062 24.0625 203.429688 C 23.488281 202.566406 23.199219 201.316406 23.199219 199.679688 C 23.199219 198.039062 23.488281 196.789062 24.0625 195.929688 C 24.636719 195.066406 25.46875 194.636719 26.558594 194.636719 Z M 26.558594 194.636719 "/>
<path style="fill:none;stroke-width:0.8;stroke-linecap:butt;stroke-linejoin:round;stroke:rgb(0%,0%,0%);stroke-opacity:1;stroke-miterlimit:4;" d="M -0.000585556 -0.00128937 L -3.498632 -0.00128937 " transform="matrix(1.333333,0,0,1.333333,40.137499,162.505625)"/>
<path style=" stroke:none;fill-rule:nonzero;fill:rgb(0%,0%,0%);fill-opacity:1;" d="M 13.835938 158.71875 C 13.160156 158.71875 12.652344 159.050781 12.308594 159.71875 C 11.96875 160.382812 11.800781 161.382812 11.800781 162.722656 C 11.800781 164.054688 11.96875 165.050781 12.308594 165.71875 C 12.652344 166.386719 13.160156 166.71875 13.835938 166.71875 C 14.519531 166.71875 15.03125 166.386719 15.371094 165.71875 C 15.710938 165.050781 15.882812 164.054688 15.882812 162.722656 C 15.882812 161.382812 15.710938 160.382812 15.371094 159.71875 C 15.03125 159.050781 14.519531 158.71875 13.835938 158.71875 Z M 13.835938 157.675781 C 14.929688 157.675781 15.761719 158.105469 16.335938 158.96875 C 16.910156 159.832031 17.199219 161.082031 17.199219 162.722656 C 17.199219 164.355469 16.910156 165.605469 16.335938 166.46875 C 15.761719 167.332031 14.929688 167.761719 13.835938 167.761719 C 12.75 167.761719 11.917969 167.332031 11.339844 166.46875 C 10.765625 165.605469 10.480469 164.355469 10.480469 162.722656 C 10.480469 161.082031 10.765625 159.832031 11.339844 158.96875 C 11.917969 158.105469 12.75 157.675781 13.835938 157.675781 Z M 13.835938 157.675781 "/>
<path style=" stroke:none;fill-rule:nonzero;fill:rgb(0%,0%,0%);fill-opacity:1;" d="M 19.507812 165.917969 L 20.882812 165.917969 L 20.882812 167.570312 L 19.507812 167.570312 Z M 19.507812 165.917969 "/>
<path style=" stroke:none;fill-rule:nonzero;fill:rgb(0%,0%,0%);fill-opacity:1;" d="M 24.878906 166.464844 L 29.46875 166.464844 L 29.46875 167.570312 L 23.296875 167.570312 L 23.296875 166.464844 C 23.796875 165.949219 24.476562 165.253906 25.339844 164.386719 C 26.199219 163.515625 26.742188 162.953125 26.964844 162.699219 C 27.382812 162.226562 27.675781 161.828125 27.84375 161.5 C 28.011719 161.171875 28.097656 160.851562 28.097656 160.535156 C 28.097656 160.015625 27.914062 159.597656 27.550781 159.269531 C 27.191406 158.945312 26.71875 158.78125 26.136719 158.78125 C 25.722656 158.78125 25.289062 158.851562 24.828125 158.996094 C 24.371094 159.140625 23.882812 159.355469 23.363281 159.648438 L 23.363281 158.320312 C 23.890625 158.105469 24.386719 157.945312 24.847656 157.839844 C 25.308594 157.730469 25.730469 157.675781 26.109375 157.675781 C 27.117188 157.675781 27.921875 157.925781 28.519531 158.433594 C 29.117188 158.933594 29.417969 159.605469 29.417969 160.449219 C 29.417969 160.847656 29.34375 161.226562 29.191406 161.585938 C 29.042969 161.941406 28.769531 162.363281 28.375 162.851562 C 28.265625 162.976562 27.921875 163.339844 27.339844 163.941406 C 26.757812 164.542969 25.9375 165.382812 24.878906 166.464844 Z M 24.878906 166.464844 "/>
<path style="fill:none;stroke-width:0.8;stroke-linecap:butt;stroke-linejoin:round;stroke:rgb(0%,0%,0%);stroke-opacity:1;stroke-miterlimit:4;" d="M -0.000585556 0.000938416 L -3.498632 0.000938416 " transform="matrix(1.333333,0,0,1.333333,40.137499,125.545624)"/>
<path style=" stroke:none;fill-rule:nonzero;fill:rgb(0%,0%,0%);fill-opacity:1;" d="M 13.835938 121.757812 C 13.160156 121.757812 12.652344 122.089844 12.308594 122.757812 C 11.96875 123.421875 11.800781 124.421875 11.800781 125.761719 C 11.800781 127.09375 11.96875 128.09375 12.308594 128.757812 C 12.652344 129.425781 13.160156 129.757812 13.835938 129.757812 C 14.519531 129.757812 15.03125 129.425781 15.371094 128.757812 C 15.710938 128.09375 15.882812 127.09375 15.882812 125.761719 C 15.882812 124.421875 15.710938 123.421875 15.371094 122.757812 C 15.03125 122.089844 14.519531 121.757812 13.835938 121.757812 Z M 13.835938 120.714844 C 14.929688 120.714844 15.761719 121.148438 16.335938 122.007812 C 16.910156 122.871094 17.199219 124.121094 17.199219 125.761719 C 17.199219 127.398438 16.910156 128.648438 16.335938 129.507812 C 15.761719 130.371094 14.929688 130.800781 13.835938 130.800781 C 12.75 130.800781 11.917969 130.371094 11.339844 129.507812 C 10.765625 128.648438 10.480469 127.398438 10.480469 125.761719 C 10.480469 124.121094 10.765625 122.871094 11.339844 122.007812 C 11.917969 121.148438 12.75 120.714844 13.835938 120.714844 Z M 13.835938 120.714844 "/>
<path style=" stroke:none;fill-rule:nonzero;fill:rgb(0%,0%,0%);fill-opacity:1;" d="M 19.507812 128.957031 L 20.882812 128.957031 L 20.882812 130.609375 L 19.507812 130.609375 Z M 19.507812 128.957031 "/>
<path style=" stroke:none;fill-rule:nonzero;fill:rgb(0%,0%,0%);fill-opacity:1;" d="M 27.359375 122.035156 L 24.039062 127.226562 L 27.359375 127.226562 Z M 27.015625 120.890625 L 28.667969 120.890625 L 28.667969 127.226562 L 30.058594 127.226562 L 30.058594 128.320312 L 28.667969 128.320312 L 28.667969 130.609375 L 27.359375 130.609375 L 27.359375 128.320312 L 22.972656 128.320312 L 22.972656 127.050781 Z M 27.015625 120.890625 "/>
<path style="fill:none;stroke-width:0.8;stroke-linecap:butt;stroke-linejoin:round;stroke:rgb(0%,0%,0%);stroke-opacity:1;stroke-miterlimit:4;" d="M -0.000585556 0.000236511 L -3.498632 0.000236511 " transform="matrix(1.333333,0,0,1.333333,40.137499,88.585622)"/>
<path style=" stroke:none;fill-rule:nonzero;fill:rgb(0%,0%,0%);fill-opacity:1;" d="M 13.835938 84.796875 C 13.160156 84.796875 12.652344 85.128906 12.308594 85.796875 C 11.96875 86.460938 11.800781 87.464844 11.800781 88.800781 C 11.800781 90.132812 11.96875 91.132812 12.308594 91.800781 C 12.652344 92.464844 13.160156 92.800781 13.835938 92.800781 C 14.519531 92.800781 15.03125 92.464844 15.371094 91.800781 C 15.710938 91.132812 15.882812 90.132812 15.882812 88.800781 C 15.882812 87.464844 15.710938 86.460938 15.371094 85.796875 C 15.03125 85.128906 14.519531 84.796875 13.835938 84.796875 Z M 13.835938 83.753906 C 14.929688 83.753906 15.761719 84.1875 16.335938 85.050781 C 16.910156 85.910156 17.199219 87.160156 17.199219 88.800781 C 17.199219 90.4375 16.910156 91.6875 16.335938 92.550781 C 15.761719 93.410156 14.929688 93.839844 13.835938 93.839844 C 12.75 93.839844 11.917969 93.410156 11.339844 92.550781 C 10.765625 91.6875 10.480469 90.4375 10.480469 88.800781 C 10.480469 87.160156 10.765625 85.910156 11.339844 85.050781 C 11.917969 84.1875 12.75 83.753906 13.835938 83.753906 Z M 13.835938 83.753906 "/>
<path style=" stroke:none;fill-rule:nonzero;fill:rgb(0%,0%,0%);fill-opacity:1;" d="M 19.507812 91.996094 L 20.882812 91.996094 L 20.882812 93.652344 L 19.507812 93.652344 Z M 19.507812 91.996094 "/>
<path style=" stroke:none;fill-rule:nonzero;fill:rgb(0%,0%,0%);fill-opacity:1;" d="M 26.722656 88.269531 C 26.132812 88.269531 25.664062 88.46875 25.320312 88.875 C 24.976562 89.277344 24.800781 89.828125 24.800781 90.53125 C 24.800781 91.230469 24.976562 91.785156 25.320312 92.191406 C 25.664062 92.597656 26.132812 92.800781 26.722656 92.800781 C 27.3125 92.800781 27.78125 92.597656 28.125 92.191406 C 28.46875 91.785156 28.640625 91.230469 28.640625 90.53125 C 28.640625 89.828125 28.46875 89.277344 28.125 88.875 C 27.78125 88.46875 27.3125 88.269531 26.722656 88.269531 Z M 29.332031 84.144531 L 29.332031 85.34375 C 29.003906 85.1875 28.671875 85.070312 28.332031 84.988281 C 27.996094 84.902344 27.664062 84.863281 27.332031 84.863281 C 26.464844 84.863281 25.800781 85.15625 25.34375 85.742188 C 24.886719 86.328125 24.625 87.210938 24.5625 88.398438 C 24.816406 88.019531 25.136719 87.730469 25.523438 87.527344 C 25.910156 87.328125 26.335938 87.226562 26.800781 87.226562 C 27.777344 87.226562 28.546875 87.523438 29.113281 88.117188 C 29.683594 88.707031 29.964844 89.511719 29.964844 90.53125 C 29.964844 91.53125 29.671875 92.332031 29.078125 92.9375 C 28.488281 93.539062 27.703125 93.839844 26.722656 93.839844 C 25.597656 93.839844 24.738281 93.410156 24.144531 92.550781 C 23.550781 91.6875 23.253906 90.4375 23.253906 88.800781 C 23.253906 87.265625 23.617188 86.039062 24.347656 85.125 C 25.074219 84.210938 26.054688 83.753906 27.28125 83.753906 C 27.613281 83.753906 27.945312 83.789062 28.28125 83.851562 C 28.617188 83.917969 28.96875 84.015625 29.332031 84.144531 Z M 29.332031 84.144531 "/>
<path style="fill:none;stroke-width:0.8;stroke-linecap:butt;stroke-linejoin:round;stroke:rgb(0%,0%,0%);stroke-opacity:1;stroke-miterlimit:4;" d="M -0.000585556 -0.000469208 L -3.498632 -0.000469208 " transform="matrix(1.333333,0,0,1.333333,40.137499,51.625626)"/>
<path style=" stroke:none;fill-rule:nonzero;fill:rgb(0%,0%,0%);fill-opacity:1;" d="M 13.835938 47.835938 C 13.160156 47.835938 12.652344 48.171875 12.308594 48.835938 C 11.96875 49.503906 11.800781 50.503906 11.800781 51.839844 C 11.800781 53.171875 11.96875 54.171875 12.308594 54.839844 C 12.652344 55.503906 13.160156 55.839844 13.835938 55.839844 C 14.519531 55.839844 15.03125 55.503906 15.371094 54.839844 C 15.710938 54.171875 15.882812 53.171875 15.882812 51.839844 C 15.882812 50.503906 15.710938 49.503906 15.371094 48.835938 C 15.03125 48.171875 14.519531 47.835938 13.835938 47.835938 Z M 13.835938 46.796875 C 14.929688 46.796875 15.761719 47.226562 16.335938 48.089844 C 16.910156 48.949219 17.199219 50.199219 17.199219 51.839844 C 17.199219 53.476562 16.910156 54.726562 16.335938 55.589844 C 15.761719 56.449219 14.929688 56.878906 13.835938 56.878906 C 12.75 56.878906 11.917969 56.449219 11.339844 55.589844 C 10.765625 54.726562 10.480469 53.476562 10.480469 51.839844 C 10.480469 50.199219 10.765625 48.949219 11.339844 48.089844 C 11.917969 47.226562 12.75 46.796875 13.835938 46.796875 Z M 13.835938 46.796875 "/>
<path style=" stroke:none;fill-rule:nonzero;fill:rgb(0%,0%,0%);fill-opacity:1;" d="M 19.507812 55.035156 L 20.882812 55.035156 L 20.882812 56.691406 L 19.507812 56.691406 Z M 19.507812 55.035156 "/>
<path style=" stroke:none;fill-rule:nonzero;fill:rgb(0%,0%,0%);fill-opacity:1;" d="M 26.558594 52.074219 C 25.933594 52.074219 25.441406 52.242188 25.082031 52.578125 C 24.726562 52.910156 24.546875 53.371094 24.546875 53.957031 C 24.546875 54.542969 24.726562 55.003906 25.082031 55.335938 C 25.441406 55.671875 25.933594 55.839844 26.558594 55.839844 C 27.183594 55.839844 27.675781 55.671875 28.035156 55.335938 C 28.398438 54.996094 28.578125 54.539062 28.578125 53.957031 C 28.578125 53.371094 28.398438 52.910156 28.039062 52.578125 C 27.683594 52.242188 27.1875 52.074219 26.558594 52.074219 Z M 25.246094 51.515625 C 24.679688 51.378906 24.242188 51.113281 23.925781 50.730469 C 23.613281 50.339844 23.453125 49.871094 23.453125 49.3125 C 23.453125 48.539062 23.730469 47.925781 24.285156 47.472656 C 24.839844 47.019531 25.597656 46.796875 26.558594 46.796875 C 27.527344 46.796875 28.285156 47.019531 28.839844 47.472656 C 29.390625 47.925781 29.664062 48.539062 29.664062 49.3125 C 29.664062 49.871094 29.507812 50.339844 29.191406 50.730469 C 28.878906 51.113281 28.441406 51.378906 27.882812 51.515625 C 28.515625 51.664062 29.007812 51.953125 29.359375 52.382812 C 29.714844 52.8125 29.890625 53.335938 29.890625 53.957031 C 29.890625 54.898438 29.605469 55.621094 29.03125 56.125 C 28.453125 56.628906 27.632812 56.878906 26.558594 56.878906 C 25.488281 56.878906 24.664062 56.628906 24.089844 56.125 C 23.511719 55.621094 23.226562 54.898438 23.226562 53.957031 C 23.226562 53.335938 23.402344 52.8125 23.757812 52.382812 C 24.117188 51.953125 24.609375 51.664062 25.246094 51.515625 Z M 24.761719 49.4375 C 24.761719 49.941406 24.921875 50.335938 25.234375 50.617188 C 25.550781 50.898438 25.992188 51.039062 26.558594 51.039062 C 27.125 51.039062 27.566406 50.898438 27.882812 50.617188 C 28.203125 50.335938 28.363281 49.941406 28.363281 49.4375 C 28.363281 48.933594 28.203125 48.542969 27.882812 48.261719 C 27.566406 47.976562 27.125 47.835938 26.558594 47.835938 C 25.992188 47.835938 25.550781 47.976562 25.234375 48.261719 C 24.921875 48.542969 24.761719 48.933594 24.761719 49.4375 Z M 24.761719 49.4375 "/>
<path style="fill:none;stroke-width:0.8;stroke-linecap:butt;stroke-linejoin:round;stroke:rgb(0%,0%,0%);stroke-opacity:1;stroke-miterlimit:4;" d="M -0.000585556 -0.00117207 L -3.498632 -0.00117207 " transform="matrix(1.333333,0,0,1.333333,40.137499,14.665625)"/>
<path style=" stroke:none;fill-rule:nonzero;fill:rgb(0%,0%,0%);fill-opacity:1;" d="M 11.253906 18.625 L 13.402344 18.625 L 13.402344 11.207031 L 11.066406 11.675781 L 11.066406 10.480469 L 13.390625 10.011719 L 14.703125 10.011719 L 14.703125 18.625 L 16.851562 18.625 L 16.851562 19.730469 L 11.253906 19.730469 Z M 11.253906 18.625 "/>
<path style=" stroke:none;fill-rule:nonzero;fill:rgb(0%,0%,0%);fill-opacity:1;" d="M 19.507812 18.078125 L 20.882812 18.078125 L 20.882812 19.730469 L 19.507812 19.730469 Z M 19.507812 18.078125 "/>
<path style=" stroke:none;fill-rule:nonzero;fill:rgb(0%,0%,0%);fill-opacity:1;" d="M 26.558594 10.878906 C 25.882812 10.878906 25.375 11.210938 25.03125 11.878906 C 24.691406 12.542969 24.519531 13.542969 24.519531 14.882812 C 24.519531 16.214844 24.691406 17.210938 25.03125 17.878906 C 25.375 18.546875 25.882812 18.878906 26.558594 18.878906 C 27.242188 18.878906 27.75 18.546875 28.09375 17.878906 C 28.433594 17.210938 28.605469 16.214844 28.605469 14.882812 C 28.605469 13.542969 28.433594 12.542969 28.09375 11.878906 C 27.75 11.210938 27.242188 10.878906 26.558594 10.878906 Z M 26.558594 9.835938 C 27.648438 9.835938 28.480469 10.265625 29.058594 11.128906 C 29.632812 11.992188 29.917969 13.242188 29.917969 14.882812 C 29.917969 16.515625 29.632812 17.765625 29.058594 18.628906 C 28.480469 19.492188 27.648438 19.921875 26.558594 19.921875 C 25.46875 19.921875 24.636719 19.492188 24.0625 18.628906 C 23.488281 17.765625 23.199219 16.515625 23.199219 14.882812 C 23.199219 13.242188 23.488281 11.992188 24.0625 11.128906 C 24.636719 10.265625 25.46875 9.835938 26.558594 9.835938 Z M 26.558594 9.835938 "/>
<g clip-path="url(#clip40)" clip-rule="nonzero">
<path style="fill:none;stroke-width:1.5;stroke-linecap:square;stroke-linejoin:round;stroke:rgb(0%,0%,0%);stroke-opacity:1;stroke-miterlimit:4;" d="M 38.979492 149.598633 L 43.417969 142.6875 L 47.856445 135.875977 L 52.294922 129.266602 L 56.736328 122.944336 L 61.174805 116.988281 L 65.613281 111.451172 L 70.051758 106.382812 L 74.490234 101.806641 L 78.928711 97.731445 L 83.367187 94.160156 L 87.805664 91.072266 L 92.244141 88.453125 L 96.682617 86.267578 L 101.121094 84.486328 L 105.55957 83.071289 L 109.998047 81.990234 L 114.436523 81.205078 L 118.875 80.680664 L 123.313477 80.390625 L 127.751953 80.299805 L 132.19043 80.381836 L 136.631836 80.613281 L 141.070312 80.970703 L 145.508789 81.436523 L 149.947266 81.990234 L 154.385742 82.617188 L 158.824219 83.305664 L 163.262695 84.043945 L 167.701172 84.823242 L 172.139648 85.628906 L 176.578125 86.460938 L 181.016602 87.307617 L 185.455078 88.166016 L 189.893555 89.027344 L 194.332031 89.894531 L 198.770508 90.758789 L 203.208984 91.620117 L 207.647461 92.475586 L 212.085937 93.322266 " transform="matrix(1.333333,0,0,1.333333,0,-0.000000000000014211)"/>
</g>
<path style="fill:none;stroke-width:0.8;stroke-linecap:square;stroke-linejoin:miter;stroke:rgb(0%,0%,0%);stroke-opacity:1;stroke-miterlimit:4;" d="M 30.102539 149.598633 L 30.102539 10.998047 " transform="matrix(1.333333,0,0,1.333333,0,-0.000000000000014211)"/>
<path style="fill:none;stroke-width:0.8;stroke-linecap:square;stroke-linejoin:miter;stroke:rgb(0%,0%,0%);stroke-opacity:1;stroke-miterlimit:4;" d="M 225.404297 149.598633 L 225.404297 10.998047 " transform="matrix(1.333333,0,0,1.333333,0,-0.000000000000014211)"/>
<path style="fill:none;stroke-width:0.8;stroke-linecap:square;stroke-linejoin:miter;stroke:rgb(0%,0%,0%);stroke-opacity:1;stroke-miterlimit:4;" d="M 30.102539 149.598633 L 225.404297 149.598633 " transform="matrix(1.333333,0,0,1.333333,0,-0.000000000000014211)"/>
<path style="fill:none;stroke-width:0.8;stroke-linecap:square;stroke-linejoin:miter;stroke:rgb(0%,0%,0%);stroke-opacity:1;stroke-miterlimit:4;" d="M 30.102539 10.998047 L 225.404297 10.998047 " transform="matrix(1.333333,0,0,1.333333,0,-0.000000000000014211)"/>
</g>
</svg>
