<?xml version="1.0" encoding="UTF-8"?>
<svg xmlns="http://www.w3.org/2000/svg" xmlns:xlink="http://www.w3.org/1999/xlink" width="340.162557" height="244.474996" viewBox="0 0 340.162557 244.474996" version="1.1">
<defs>
<clipPath id="clip1">
  <path d="M 75 9.601562 L 78 9.601562 L 78 194.398438 L 75 194.398438 Z M 75 9.601562 "/>
</clipPath>
<clipPath id="clip2">
  <path d="M 123 9.601562 L 126 9.601562 L 126 194.398438 L 123 194.398438 Z M 123 9.601562 "/>
</clipPath>
<clipPath id="clip3">
  <path d="M 172 9.601562 L 174 9.601562 L 174 194.398438 L 172 194.398438 Z M 172 9.601562 "/>
</clipPath>
<clipPath id="clip4">
  <path d="M 220 9.601562 L 222 9.601562 L 222 194.398438 L 220 194.398438 Z M 220 9.601562 "/>
</clipPath>
<clipPath id="clip5">
  <path d="M 268 9.601562 L 271 9.601562 L 271 194.398438 L 268 194.398438 Z M 268 9.601562 "/>
</clipPath>
<clipPath id="clip6">
  <path d="M 317 9.601562 L 319 9.601562 L 319 194.398438 L 317 194.398438 Z M 317 9.601562 "/>
</clipPath>
<clipPath id="clip7">
  <path d="M 66.859375 172 L 327.257812 172 L 327.257812 175 L 66.859375 175 Z M 66.859375 172 "/>
</clipPath>
<clipPath id="clip8">
  <path d="M 66.859375 137 L 327.257812 137 L 327.257812 139 L 66.859375 139 Z M 66.859375 137 "/>
</clipPath>
<clipPath id="clip9">
  <path d="M 66.859375 101 L 327.257812 101 L 327.257812 104 L 66.859375 104 Z M 66.859375 101 "/>
</clipPath>
<clipPath id="clip10">
  <path d="M 66.859375 66 L 327.257812 66 L 327.257812 68 L 66.859375 68 Z M 66.859375 66 "/>
</clipPath>
<clipPath id="clip11">
  <path d="M 66.859375 30 L 327.257812 30 L 327.257812 33 L 66.859375 33 Z M 66.859375 30 "/>
</clipPath>
</defs>
<g id="surface1">
<path style=" stroke:none;fill-rule:nonzero;fill:rgb(100%,100%,100%);fill-opacity:1;" d="M 0 244.476562 L 340.164062 244.476562 L 340.164062 0 L 0 0 Z M 0 244.476562 "/>
<path style=" stroke:none;fill-rule:nonzero;fill:rgb(100%,100%,100%);fill-opacity:1;" d="M 66.859375 194.398438 L 327.257812 194.398438 L 327.257812 9.601562 L 66.859375 9.601562 Z M 66.859375 194.398438 "/>
<g clip-path="url(#clip1)" clip-rule="nonzero">
<path style="fill:none;stroke-width:0.8;stroke-linecap:square;stroke-linejoin:round;stroke:rgb(69.01961%,69.01961%,69.01961%);stroke-opacity:1;stroke-miterlimit:4;" d="M 57.208008 145.798828 L 57.208008 7.201172 " transform="matrix(1.333333,0,0,1.333333,0,0.000000000000014211)"/>
</g>
<path style="fill:none;stroke-width:0.8;stroke-linecap:butt;stroke-linejoin:round;stroke:rgb(0%,0%,0%);stroke-opacity:1;stroke-miterlimit:4;" d="M -0.00132751 -0.00117493 L -0.00132751 3.499802 " transform="matrix(1.333333,0,0,1.333333,76.279114,194.400004)"/>
<path style=" stroke:none;fill-rule:nonzero;fill:rgb(0%,0%,0%);fill-opacity:1;" d="M 76.273438 205.011719 C 75.597656 205.011719 75.089844 205.34375 74.746094 206.011719 C 74.40625 206.675781 74.238281 207.675781 74.238281 209.015625 C 74.238281 210.347656 74.40625 211.347656 74.746094 212.011719 C 75.089844 212.679688 75.597656 213.011719 76.273438 213.011719 C 76.957031 213.011719 77.46875 212.679688 77.808594 212.011719 C 78.148438 211.347656 78.320312 210.347656 78.320312 209.015625 C 78.320312 207.675781 78.148438 206.675781 77.808594 206.011719 C 77.46875 205.34375 76.957031 205.011719 76.273438 205.011719 Z M 76.273438 203.96875 C 77.363281 203.96875 78.199219 204.398438 78.773438 205.261719 C 79.347656 206.125 79.636719 207.375 79.636719 209.015625 C 79.636719 210.652344 79.347656 211.898438 78.773438 212.761719 C 78.199219 213.625 77.363281 214.054688 76.273438 214.054688 C 75.1875 214.054688 74.355469 213.625 73.777344 212.761719 C 73.203125 211.898438 72.917969 210.652344 72.917969 209.015625 C 72.917969 207.375 73.203125 206.125 73.777344 205.261719 C 74.355469 204.398438 75.1875 203.96875 76.273438 203.96875 Z M 76.273438 203.96875 "/>
<g clip-path="url(#clip2)" clip-rule="nonzero">
<path style="fill:none;stroke-width:0.8;stroke-linecap:square;stroke-linejoin:round;stroke:rgb(69.01961%,69.01961%,69.01961%);stroke-opacity:1;stroke-miterlimit:4;" d="M 93.442383 145.798828 L 93.442383 7.201172 " transform="matrix(1.333333,0,0,1.333333,0,0.000000000000014211)"/>
</g>
<path style="fill:none;stroke-width:0.8;stroke-linecap:butt;stroke-linejoin:round;stroke:rgb(0%,0%,0%);stroke-opacity:1;stroke-miterlimit:4;" d="M -0.000717163 -0.00117493 L -0.000717163 3.499802 " transform="matrix(1.333333,0,0,1.333333,124.5908,194.400004)"/>
<path style=" stroke:none;fill-rule:nonzero;fill:rgb(0%,0%,0%);fill-opacity:1;" d="M 118.664062 212.757812 L 123.253906 212.757812 L 123.253906 213.863281 L 117.085938 213.863281 L 117.085938 212.757812 C 117.582031 212.242188 118.261719 211.546875 119.125 210.679688 C 119.988281 209.808594 120.527344 209.246094 120.75 208.992188 C 121.171875 208.523438 121.464844 208.121094 121.628906 207.792969 C 121.796875 207.464844 121.882812 207.144531 121.882812 206.828125 C 121.882812 206.308594 121.703125 205.890625 121.339844 205.566406 C 120.976562 205.238281 120.503906 205.074219 119.921875 205.074219 C 119.507812 205.074219 119.074219 205.148438 118.617188 205.289062 C 118.160156 205.433594 117.671875 205.648438 117.148438 205.941406 L 117.148438 204.613281 C 117.679688 204.398438 118.171875 204.238281 118.632812 204.132812 C 119.09375 204.023438 119.515625 203.96875 119.898438 203.96875 C 120.902344 203.96875 121.707031 204.222656 122.304688 204.726562 C 122.902344 205.226562 123.203125 205.898438 123.203125 206.742188 C 123.203125 207.140625 123.128906 207.519531 122.976562 207.878906 C 122.828125 208.234375 122.558594 208.65625 122.160156 209.144531 C 122.054688 209.269531 121.707031 209.632812 121.125 210.234375 C 120.546875 210.835938 119.726562 211.679688 118.664062 212.757812 Z M 118.664062 212.757812 "/>
<path style=" stroke:none;fill-rule:nonzero;fill:rgb(0%,0%,0%);fill-opacity:1;" d="M 128.828125 205.011719 C 128.152344 205.011719 127.644531 205.34375 127.300781 206.011719 C 126.960938 206.675781 126.789062 207.675781 126.789062 209.015625 C 126.789062 210.347656 126.960938 211.347656 127.300781 212.011719 C 127.644531 212.679688 128.152344 213.011719 128.828125 213.011719 C 129.511719 213.011719 130.019531 212.679688 130.363281 212.011719 C 130.703125 211.347656 130.875 210.347656 130.875 209.015625 C 130.875 207.675781 130.703125 206.675781 130.363281 206.011719 C 130.019531 205.34375 129.511719 205.011719 128.828125 205.011719 Z M 128.828125 203.96875 C 129.917969 203.96875 130.75 204.398438 131.324219 205.261719 C 131.902344 206.125 132.1875 207.375 132.1875 209.015625 C 132.1875 210.652344 131.902344 211.898438 131.324219 212.761719 C 130.75 213.625 129.917969 214.054688 128.828125 214.054688 C 127.738281 214.054688 126.90625 213.625 126.332031 212.761719 C 125.757812 211.898438 125.46875 210.652344 125.46875 209.015625 C 125.46875 207.375 125.757812 206.125 126.332031 205.261719 C 126.90625 204.398438 127.738281 203.96875 128.828125 203.96875 Z M 128.828125 203.96875 "/>
<g clip-path="url(#clip3)" clip-rule="nonzero">
<path style="fill:none;stroke-width:0.8;stroke-linecap:square;stroke-linejoin:round;stroke:rgb(69.01961%,69.01961%,69.01961%);stroke-opacity:1;stroke-miterlimit:4;" d="M 129.676758 145.798828 L 129.676758 7.201172 " transform="matrix(1.333333,0,0,1.333333,0,0.000000000000014211)"/>
</g>
<path style="fill:none;stroke-width:0.8;stroke-linecap:butt;stroke-linejoin:round;stroke:rgb(0%,0%,0%);stroke-opacity:1;stroke-miterlimit:4;" d="M -0.000106812 -0.00117493 L -0.000106812 3.499802 " transform="matrix(1.333333,0,0,1.333333,172.902486,194.400004)"/>
<path style=" stroke:none;fill-rule:nonzero;fill:rgb(0%,0%,0%);fill-opacity:1;" d="M 169.457031 205.289062 L 166.136719 210.480469 L 169.457031 210.480469 Z M 169.113281 204.144531 L 170.765625 204.144531 L 170.765625 210.480469 L 172.15625 210.480469 L 172.15625 211.574219 L 170.765625 211.574219 L 170.765625 213.863281 L 169.457031 213.863281 L 169.457031 211.574219 L 165.070312 211.574219 L 165.070312 210.304688 Z M 169.113281 204.144531 "/>
<path style=" stroke:none;fill-rule:nonzero;fill:rgb(0%,0%,0%);fill-opacity:1;" d="M 177.140625 205.011719 C 176.464844 205.011719 175.953125 205.34375 175.613281 206.011719 C 175.273438 206.675781 175.101562 207.675781 175.101562 209.015625 C 175.101562 210.347656 175.273438 211.347656 175.613281 212.011719 C 175.953125 212.679688 176.464844 213.011719 177.140625 213.011719 C 177.820312 213.011719 178.332031 212.679688 178.671875 212.011719 C 179.015625 211.347656 179.1875 210.347656 179.1875 209.015625 C 179.1875 207.675781 179.015625 206.675781 178.671875 206.011719 C 178.332031 205.34375 177.820312 205.011719 177.140625 205.011719 Z M 177.140625 203.96875 C 178.230469 203.96875 179.0625 204.398438 179.636719 205.261719 C 180.210938 206.125 180.5 207.375 180.5 209.015625 C 180.5 210.652344 180.210938 211.898438 179.636719 212.761719 C 179.0625 213.625 178.230469 214.054688 177.140625 214.054688 C 176.050781 214.054688 175.21875 213.625 174.644531 212.761719 C 174.070312 211.898438 173.78125 210.652344 173.78125 209.015625 C 173.78125 207.375 174.070312 206.125 174.644531 205.261719 C 175.21875 204.398438 176.050781 203.96875 177.140625 203.96875 Z M 177.140625 203.96875 "/>
<g clip-path="url(#clip4)" clip-rule="nonzero">
<path style="fill:none;stroke-width:0.8;stroke-linecap:square;stroke-linejoin:round;stroke:rgb(69.01961%,69.01961%,69.01961%);stroke-opacity:1;stroke-miterlimit:4;" d="M 165.911133 145.798828 L 165.911133 7.201172 " transform="matrix(1.333333,0,0,1.333333,0,0.000000000000014211)"/>
</g>
<path style="fill:none;stroke-width:0.8;stroke-linecap:butt;stroke-linejoin:round;stroke:rgb(0%,0%,0%);stroke-opacity:1;stroke-miterlimit:4;" d="M 0.00050354 -0.00117493 L 0.00050354 3.499802 " transform="matrix(1.333333,0,0,1.333333,221.214172,194.400004)"/>
<path style=" stroke:none;fill-rule:nonzero;fill:rgb(0%,0%,0%);fill-opacity:1;" d="M 217.132812 208.480469 C 216.542969 208.480469 216.074219 208.683594 215.730469 209.085938 C 215.382812 209.492188 215.210938 210.042969 215.210938 210.746094 C 215.210938 211.445312 215.382812 211.996094 215.730469 212.402344 C 216.074219 212.808594 216.542969 213.011719 217.132812 213.011719 C 217.722656 213.011719 218.191406 212.808594 218.535156 212.402344 C 218.878906 211.996094 219.050781 211.445312 219.050781 210.746094 C 219.050781 210.042969 218.878906 209.492188 218.535156 209.085938 C 218.191406 208.683594 217.722656 208.480469 217.132812 208.480469 Z M 219.742188 204.359375 L 219.742188 205.554688 C 219.414062 205.402344 219.078125 205.28125 218.742188 205.199219 C 218.40625 205.117188 218.074219 205.074219 217.742188 205.074219 C 216.875 205.074219 216.210938 205.367188 215.753906 205.953125 C 215.296875 206.539062 215.035156 207.425781 214.96875 208.609375 C 215.226562 208.234375 215.546875 207.941406 215.933594 207.742188 C 216.320312 207.539062 216.746094 207.441406 217.210938 207.441406 C 218.1875 207.441406 218.957031 207.734375 219.523438 208.328125 C 220.089844 208.921875 220.375 209.726562 220.375 210.746094 C 220.375 211.746094 220.078125 212.546875 219.488281 213.148438 C 218.898438 213.753906 218.113281 214.054688 217.132812 214.054688 C 216.007812 214.054688 215.148438 213.625 214.554688 212.761719 C 213.960938 211.898438 213.660156 210.652344 213.660156 209.015625 C 213.660156 207.476562 214.027344 206.253906 214.753906 205.339844 C 215.484375 204.425781 216.464844 203.96875 217.691406 203.96875 C 218.023438 203.96875 218.355469 204 218.691406 204.066406 C 219.027344 204.132812 219.378906 204.230469 219.742188 204.359375 Z M 219.742188 204.359375 "/>
<path style=" stroke:none;fill-rule:nonzero;fill:rgb(0%,0%,0%);fill-opacity:1;" d="M 225.453125 205.011719 C 224.773438 205.011719 224.265625 205.34375 223.925781 206.011719 C 223.585938 206.675781 223.414062 207.675781 223.414062 209.015625 C 223.414062 210.347656 223.585938 211.347656 223.925781 212.011719 C 224.265625 212.679688 224.773438 213.011719 225.453125 213.011719 C 226.132812 213.011719 226.644531 212.679688 226.984375 212.011719 C 227.328125 211.347656 227.496094 210.347656 227.496094 209.015625 C 227.496094 207.675781 227.328125 206.675781 226.984375 206.011719 C 226.644531 205.34375 226.132812 205.011719 225.453125 205.011719 Z M 225.453125 203.96875 C 226.542969 203.96875 227.375 204.398438 227.949219 205.261719 C 228.523438 206.125 228.8125 207.375 228.8125 209.015625 C 228.8125 210.652344 228.523438 211.898438 227.949219 212.761719 C 227.375 213.625 226.542969 214.054688 225.453125 214.054688 C 224.363281 214.054688 223.53125 213.625 222.957031 212.761719 C 222.378906 211.898438 222.09375 210.652344 222.09375 209.015625 C 222.09375 207.375 222.378906 206.125 222.957031 205.261719 C 223.53125 204.398438 224.363281 203.96875 225.453125 203.96875 Z M 225.453125 203.96875 "/>
<g clip-path="url(#clip5)" clip-rule="nonzero">
<path style="fill:none;stroke-width:0.8;stroke-linecap:square;stroke-linejoin:round;stroke:rgb(69.01961%,69.01961%,69.01961%);stroke-opacity:1;stroke-miterlimit:4;" d="M 202.145508 145.798828 L 202.145508 7.201172 " transform="matrix(1.333333,0,0,1.333333,0,0.000000000000014211)"/>
</g>
<path style="fill:none;stroke-width:0.8;stroke-linecap:butt;stroke-linejoin:round;stroke:rgb(0%,0%,0%);stroke-opacity:1;stroke-miterlimit:4;" d="M 0.00111389 -0.00117493 L 0.00111389 3.499802 " transform="matrix(1.333333,0,0,1.333333,269.525859,194.400004)"/>
<path style=" stroke:none;fill-rule:nonzero;fill:rgb(0%,0%,0%);fill-opacity:1;" d="M 265.28125 209.246094 C 264.65625 209.246094 264.164062 209.414062 263.804688 209.75 C 263.449219 210.085938 263.269531 210.542969 263.269531 211.128906 C 263.269531 211.714844 263.449219 212.175781 263.804688 212.511719 C 264.164062 212.84375 264.65625 213.011719 265.28125 213.011719 C 265.90625 213.011719 266.398438 212.84375 266.757812 212.507812 C 267.117188 212.171875 267.296875 211.710938 267.296875 211.128906 C 267.296875 210.542969 267.121094 210.085938 266.761719 209.75 C 266.40625 209.414062 265.910156 209.246094 265.28125 209.246094 Z M 263.964844 208.691406 C 263.402344 208.550781 262.960938 208.289062 262.648438 207.902344 C 262.332031 207.515625 262.175781 207.042969 262.175781 206.488281 C 262.175781 205.710938 262.453125 205.097656 263.003906 204.644531 C 263.558594 204.195312 264.316406 203.96875 265.28125 203.96875 C 266.25 203.96875 267.007812 204.195312 267.558594 204.644531 C 268.109375 205.097656 268.386719 205.710938 268.386719 206.488281 C 268.386719 207.042969 268.230469 207.515625 267.914062 207.902344 C 267.597656 208.289062 267.164062 208.550781 266.601562 208.691406 C 267.234375 208.835938 267.730469 209.125 268.082031 209.554688 C 268.4375 209.984375 268.613281 210.507812 268.613281 211.128906 C 268.613281 212.070312 268.324219 212.796875 267.75 213.300781 C 267.175781 213.804688 266.351562 214.054688 265.28125 214.054688 C 264.210938 214.054688 263.386719 213.804688 262.808594 213.300781 C 262.234375 212.796875 261.945312 212.070312 261.945312 211.128906 C 261.945312 210.507812 262.125 209.984375 262.480469 209.554688 C 262.835938 209.125 263.332031 208.835938 263.964844 208.691406 Z M 263.484375 206.613281 C 263.484375 207.117188 263.640625 207.507812 263.953125 207.789062 C 264.269531 208.070312 264.710938 208.210938 265.28125 208.210938 C 265.84375 208.210938 266.285156 208.070312 266.605469 207.789062 C 266.925781 207.507812 267.085938 207.117188 267.085938 206.613281 C 267.085938 206.109375 266.925781 205.714844 266.605469 205.433594 C 266.285156 205.152344 265.84375 205.011719 265.28125 205.011719 C 264.710938 205.011719 264.269531 205.152344 263.953125 205.433594 C 263.640625 205.714844 263.484375 206.109375 263.484375 206.613281 Z M 263.484375 206.613281 "/>
<path style=" stroke:none;fill-rule:nonzero;fill:rgb(0%,0%,0%);fill-opacity:1;" d="M 273.761719 205.011719 C 273.085938 205.011719 272.578125 205.34375 272.234375 206.011719 C 271.894531 206.675781 271.726562 207.675781 271.726562 209.015625 C 271.726562 210.347656 271.894531 211.347656 272.234375 212.011719 C 272.578125 212.679688 273.085938 213.011719 273.761719 213.011719 C 274.445312 213.011719 274.957031 212.679688 275.296875 212.011719 C 275.636719 211.347656 275.808594 210.347656 275.808594 209.015625 C 275.808594 207.675781 275.636719 206.675781 275.296875 206.011719 C 274.957031 205.34375 274.445312 205.011719 273.761719 205.011719 Z M 273.761719 203.96875 C 274.851562 203.96875 275.6875 204.398438 276.261719 205.261719 C 276.835938 206.125 277.125 207.375 277.125 209.015625 C 277.125 210.652344 276.835938 211.898438 276.261719 212.761719 C 275.6875 213.625 274.851562 214.054688 273.761719 214.054688 C 272.675781 214.054688 271.84375 213.625 271.265625 212.761719 C 270.691406 211.898438 270.40625 210.652344 270.40625 209.015625 C 270.40625 207.375 270.691406 206.125 271.265625 205.261719 C 271.84375 204.398438 272.675781 203.96875 273.761719 203.96875 Z M 273.761719 203.96875 "/>
<g clip-path="url(#clip6)" clip-rule="nonzero">
<path style="fill:none;stroke-width:0.8;stroke-linecap:square;stroke-linejoin:round;stroke:rgb(69.01961%,69.01961%,69.01961%);stroke-opacity:1;stroke-miterlimit:4;" d="M 238.376953 145.798828 L 238.376953 7.201172 " transform="matrix(1.333333,0,0,1.333333,0,0.000000000000014211)"/>
</g>
<path style="fill:none;stroke-width:0.8;stroke-linecap:butt;stroke-linejoin:round;stroke:rgb(0%,0%,0%);stroke-opacity:1;stroke-miterlimit:4;" d="M -0.00120544 -0.00117493 L -0.00120544 3.499802 " transform="matrix(1.333333,0,0,1.333333,317.837545,194.400004)"/>
<path style=" stroke:none;fill-rule:nonzero;fill:rgb(0%,0%,0%);fill-opacity:1;" d="M 306.765625 212.757812 L 308.914062 212.757812 L 308.914062 205.339844 L 306.578125 205.808594 L 306.578125 204.613281 L 308.902344 204.144531 L 310.214844 204.144531 L 310.214844 212.757812 L 312.363281 212.757812 L 312.363281 213.863281 L 306.765625 213.863281 Z M 306.765625 212.757812 "/>
<path style=" stroke:none;fill-rule:nonzero;fill:rgb(0%,0%,0%);fill-opacity:1;" d="M 317.832031 205.011719 C 317.15625 205.011719 316.648438 205.34375 316.304688 206.011719 C 315.964844 206.675781 315.796875 207.675781 315.796875 209.015625 C 315.796875 210.347656 315.964844 211.347656 316.304688 212.011719 C 316.648438 212.679688 317.15625 213.011719 317.832031 213.011719 C 318.515625 213.011719 319.027344 212.679688 319.367188 212.011719 C 319.707031 211.347656 319.878906 210.347656 319.878906 209.015625 C 319.878906 207.675781 319.707031 206.675781 319.367188 206.011719 C 319.027344 205.34375 318.515625 205.011719 317.832031 205.011719 Z M 317.832031 203.96875 C 318.921875 203.96875 319.757812 204.398438 320.332031 205.261719 C 320.90625 206.125 321.195312 207.375 321.195312 209.015625 C 321.195312 210.652344 320.90625 211.898438 320.332031 212.761719 C 319.757812 213.625 318.921875 214.054688 317.832031 214.054688 C 316.746094 214.054688 315.914062 213.625 315.335938 212.761719 C 314.761719 211.898438 314.476562 210.652344 314.476562 209.015625 C 314.476562 207.375 314.761719 206.125 315.335938 205.261719 C 315.914062 204.398438 316.746094 203.96875 317.832031 203.96875 Z M 317.832031 203.96875 "/>
<path style=" stroke:none;fill-rule:nonzero;fill:rgb(0%,0%,0%);fill-opacity:1;" d="M 326.316406 205.011719 C 325.640625 205.011719 325.128906 205.34375 324.789062 206.011719 C 324.449219 206.675781 324.277344 207.675781 324.277344 209.015625 C 324.277344 210.347656 324.449219 211.347656 324.789062 212.011719 C 325.128906 212.679688 325.640625 213.011719 326.316406 213.011719 C 327 213.011719 327.507812 212.679688 327.847656 212.011719 C 328.191406 211.347656 328.363281 210.347656 328.363281 209.015625 C 328.363281 207.675781 328.191406 206.675781 327.847656 206.011719 C 327.507812 205.34375 327 205.011719 326.316406 205.011719 Z M 326.316406 203.96875 C 327.40625 203.96875 328.238281 204.398438 328.8125 205.261719 C 329.390625 206.125 329.675781 207.375 329.675781 209.015625 C 329.675781 210.652344 329.390625 211.898438 328.8125 212.761719 C 328.238281 213.625 327.40625 214.054688 326.316406 214.054688 C 325.226562 214.054688 324.394531 213.625 323.820312 212.761719 C 323.246094 211.898438 322.957031 210.652344 322.957031 209.015625 C 322.957031 207.375 323.246094 206.125 323.820312 205.261719 C 324.394531 204.398438 325.226562 203.96875 326.316406 203.96875 Z M 326.316406 203.96875 "/>
<path style=" stroke:none;fill-rule:nonzero;fill:rgb(0%,0%,0%);fill-opacity:1;" d="M 170.089844 222.382812 L 171.402344 222.382812 L 171.402344 232.101562 L 170.089844 232.101562 Z M 170.089844 222.382812 "/>
<path style=" stroke:none;fill-rule:nonzero;fill:rgb(0%,0%,0%);fill-opacity:1;" d="M 175.152344 222.738281 L 175.152344 224.808594 L 177.621094 224.808594 L 177.621094 225.742188 L 175.152344 225.742188 L 175.152344 229.699219 C 175.152344 230.292969 175.234375 230.675781 175.398438 230.847656 C 175.558594 231.015625 175.890625 231.101562 176.390625 231.101562 L 177.621094 231.101562 L 177.621094 232.101562 L 176.390625 232.101562 C 175.464844 232.101562 174.828125 231.929688 174.476562 231.585938 C 174.125 231.238281 173.949219 230.609375 173.949219 229.699219 L 173.949219 225.742188 L 173.070312 225.742188 L 173.070312 224.808594 L 173.949219 224.808594 L 173.949219 222.738281 Z M 175.152344 222.738281 "/>
<path style=" stroke:none;fill-rule:nonzero;fill:rgb(0%,0%,0%);fill-opacity:1;" d="M 185.433594 228.15625 L 185.433594 228.742188 L 179.925781 228.742188 C 179.980469 229.566406 180.226562 230.195312 180.671875 230.628906 C 181.117188 231.058594 181.734375 231.273438 182.53125 231.273438 C 182.988281 231.273438 183.433594 231.21875 183.867188 231.105469 C 184.300781 230.992188 184.730469 230.824219 185.15625 230.597656 L 185.15625 231.730469 C 184.722656 231.914062 184.285156 232.050781 183.832031 232.148438 C 183.378906 232.242188 182.921875 232.292969 182.460938 232.292969 C 181.296875 232.292969 180.375 231.953125 179.695312 231.277344 C 179.015625 230.597656 178.675781 229.683594 178.675781 228.527344 C 178.675781 227.335938 178.996094 226.386719 179.640625 225.6875 C 180.285156 224.984375 181.15625 224.636719 182.25 224.636719 C 183.230469 224.636719 184.007812 224.953125 184.578125 225.582031 C 185.148438 226.214844 185.433594 227.070312 185.433594 228.15625 Z M 184.234375 227.804688 C 184.226562 227.148438 184.042969 226.628906 183.6875 226.238281 C 183.328125 225.847656 182.855469 225.648438 182.261719 225.648438 C 181.59375 225.648438 181.058594 225.839844 180.660156 226.214844 C 180.257812 226.59375 180.027344 227.125 179.964844 227.8125 Z M 184.234375 227.804688 "/>
<path style=" stroke:none;fill-rule:nonzero;fill:rgb(0%,0%,0%);fill-opacity:1;" d="M 191.625 225.929688 C 191.488281 225.851562 191.34375 225.792969 191.183594 225.757812 C 191.027344 225.722656 190.851562 225.703125 190.664062 225.703125 C 189.984375 225.703125 189.464844 225.921875 189.101562 226.363281 C 188.738281 226.804688 188.558594 227.433594 188.558594 228.261719 L 188.558594 232.101562 L 187.355469 232.101562 L 187.355469 224.808594 L 188.558594 224.808594 L 188.558594 225.945312 C 188.8125 225.5 189.136719 225.171875 189.542969 224.957031 C 189.945312 224.742188 190.4375 224.636719 191.015625 224.636719 C 191.097656 224.636719 191.1875 224.640625 191.289062 224.652344 C 191.386719 224.660156 191.496094 224.679688 191.617188 224.699219 Z M 191.625 225.929688 "/>
<path style=" stroke:none;fill-rule:nonzero;fill:rgb(0%,0%,0%);fill-opacity:1;" d="M 196.195312 228.4375 C 195.226562 228.4375 194.558594 228.546875 194.183594 228.769531 C 193.808594 228.988281 193.625 229.367188 193.625 229.902344 C 193.625 230.328125 193.761719 230.664062 194.042969 230.914062 C 194.324219 231.164062 194.707031 231.289062 195.1875 231.289062 C 195.851562 231.289062 196.382812 231.050781 196.785156 230.582031 C 197.1875 230.109375 197.386719 229.484375 197.386719 228.703125 L 197.386719 228.4375 Z M 198.585938 227.941406 L 198.585938 232.101562 L 197.386719 232.101562 L 197.386719 230.996094 C 197.113281 231.4375 196.773438 231.765625 196.363281 231.976562 C 195.957031 232.1875 195.457031 232.292969 194.867188 232.292969 C 194.121094 232.292969 193.527344 232.082031 193.085938 231.664062 C 192.644531 231.242188 192.425781 230.683594 192.425781 229.980469 C 192.425781 229.160156 192.699219 228.542969 193.25 228.125 C 193.796875 227.707031 194.617188 227.5 195.707031 227.5 L 197.386719 227.5 L 197.386719 227.382812 C 197.386719 226.828125 197.207031 226.402344 196.84375 226.101562 C 196.480469 225.800781 195.972656 225.648438 195.316406 225.648438 C 194.898438 225.648438 194.492188 225.699219 194.097656 225.800781 C 193.703125 225.898438 193.324219 226.050781 192.960938 226.25 L 192.960938 225.140625 C 193.398438 224.972656 193.824219 224.847656 194.234375 224.761719 C 194.648438 224.679688 195.050781 224.636719 195.441406 224.636719 C 196.496094 224.636719 197.285156 224.910156 197.804688 225.457031 C 198.324219 226.003906 198.585938 226.832031 198.585938 227.941406 Z M 198.585938 227.941406 "/>
<path style=" stroke:none;fill-rule:nonzero;fill:rgb(0%,0%,0%);fill-opacity:1;" d="M 202.238281 222.738281 L 202.238281 224.808594 L 204.703125 224.808594 L 204.703125 225.742188 L 202.238281 225.742188 L 202.238281 229.699219 C 202.238281 230.292969 202.320312 230.675781 202.480469 230.847656 C 202.644531 231.015625 202.976562 231.101562 203.476562 231.101562 L 204.703125 231.101562 L 204.703125 232.101562 L 203.476562 232.101562 C 202.550781 232.101562 201.910156 231.929688 201.558594 231.585938 C 201.210938 231.238281 201.035156 230.609375 201.035156 229.699219 L 201.035156 225.742188 L 200.152344 225.742188 L 200.152344 224.808594 L 201.035156 224.808594 L 201.035156 222.738281 Z M 202.238281 222.738281 "/>
<path style=" stroke:none;fill-rule:nonzero;fill:rgb(0%,0%,0%);fill-opacity:1;" d="M 206.28125 224.808594 L 207.476562 224.808594 L 207.476562 232.101562 L 206.28125 232.101562 Z M 206.28125 221.972656 L 207.476562 221.972656 L 207.476562 223.488281 L 206.28125 223.488281 Z M 206.28125 221.972656 "/>
<path style=" stroke:none;fill-rule:nonzero;fill:rgb(0%,0%,0%);fill-opacity:1;" d="M 212.808594 225.648438 C 212.167969 225.648438 211.660156 225.902344 211.285156 226.402344 C 210.914062 226.902344 210.726562 227.589844 210.726562 228.460938 C 210.726562 229.335938 210.910156 230.023438 211.28125 230.523438 C 211.65625 231.023438 212.164062 231.273438 212.808594 231.273438 C 213.449219 231.273438 213.953125 231.023438 214.324219 230.519531 C 214.699219 230.015625 214.886719 229.332031 214.886719 228.460938 C 214.886719 227.597656 214.699219 226.914062 214.324219 226.410156 C 213.953125 225.902344 213.449219 225.648438 212.808594 225.648438 Z M 212.808594 224.636719 C 213.851562 224.636719 214.667969 224.972656 215.261719 225.652344 C 215.859375 226.328125 216.15625 227.265625 216.15625 228.460938 C 216.15625 229.65625 215.859375 230.59375 215.261719 231.273438 C 214.667969 231.953125 213.851562 232.292969 212.808594 232.292969 C 211.761719 232.292969 210.945312 231.953125 210.351562 231.273438 C 209.757812 230.59375 209.464844 229.65625 209.464844 228.460938 C 209.464844 227.265625 209.757812 226.328125 210.351562 225.652344 C 210.945312 224.972656 211.761719 224.636719 212.808594 224.636719 Z M 212.808594 224.636719 "/>
<path style=" stroke:none;fill-rule:nonzero;fill:rgb(0%,0%,0%);fill-opacity:1;" d="M 224.203125 227.699219 L 224.203125 232.101562 L 223.007812 232.101562 L 223.007812 227.738281 C 223.007812 227.050781 222.871094 226.535156 222.601562 226.191406 C 222.332031 225.847656 221.929688 225.675781 221.390625 225.675781 C 220.746094 225.675781 220.234375 225.882812 219.859375 226.296875 C 219.488281 226.707031 219.300781 227.269531 219.300781 227.980469 L 219.300781 232.101562 L 218.097656 232.101562 L 218.097656 224.808594 L 219.300781 224.808594 L 219.300781 225.945312 C 219.585938 225.503906 219.925781 225.175781 220.3125 224.960938 C 220.703125 224.742188 221.148438 224.636719 221.660156 224.636719 C 222.496094 224.636719 223.128906 224.894531 223.558594 225.414062 C 223.988281 225.929688 224.203125 226.691406 224.203125 227.699219 Z M 224.203125 227.699219 "/>
<g clip-path="url(#clip7)" clip-rule="nonzero">
<path style="fill:none;stroke-width:0.8;stroke-linecap:square;stroke-linejoin:round;stroke:rgb(69.01961%,69.01961%,69.01961%);stroke-opacity:1;stroke-miterlimit:4;" d="M 50.144531 129.94043 L 245.443359 129.94043 " transform="matrix(1.333333,0,0,1.333333,0,0.000000000000014211)"/>
</g>
<path style="fill:none;stroke-width:0.8;stroke-linecap:butt;stroke-linejoin:round;stroke:rgb(0%,0%,0%);stroke-opacity:1;stroke-miterlimit:4;" d="M 0.000782013 -0.000396729 L -3.500195 -0.000396729 " transform="matrix(1.333333,0,0,1.333333,66.858332,173.254435)"/>
<path style=" stroke:none;fill-rule:nonzero;fill:rgb(0%,0%,0%);fill-opacity:1;" d="M 32.074219 169.464844 C 31.398438 169.464844 30.890625 169.800781 30.546875 170.464844 C 30.207031 171.132812 30.039062 172.132812 30.039062 173.46875 C 30.039062 174.800781 30.207031 175.800781 30.546875 176.46875 C 30.890625 177.132812 31.398438 177.46875 32.074219 177.46875 C 32.757812 177.46875 33.269531 177.132812 33.609375 176.46875 C 33.949219 175.800781 34.121094 174.800781 34.121094 173.46875 C 34.121094 172.132812 33.949219 171.132812 33.609375 170.464844 C 33.269531 169.800781 32.757812 169.464844 32.074219 169.464844 Z M 32.074219 168.425781 C 33.164062 168.425781 33.996094 168.855469 34.574219 169.71875 C 35.148438 170.578125 35.433594 171.828125 35.433594 173.46875 C 35.433594 175.105469 35.148438 176.355469 34.574219 177.21875 C 33.996094 178.078125 33.164062 178.507812 32.074219 178.507812 C 30.984375 178.507812 30.152344 178.078125 29.578125 177.21875 C 29.003906 176.355469 28.714844 175.105469 28.714844 173.46875 C 28.714844 171.828125 29.003906 170.578125 29.578125 169.71875 C 30.152344 168.855469 30.984375 168.425781 32.074219 168.425781 Z M 32.074219 168.425781 "/>
<path style=" stroke:none;fill-rule:nonzero;fill:rgb(0%,0%,0%);fill-opacity:1;" d="M 37.746094 176.664062 L 39.121094 176.664062 L 39.121094 178.320312 L 37.746094 178.320312 Z M 37.746094 176.664062 "/>
<path style=" stroke:none;fill-rule:nonzero;fill:rgb(0%,0%,0%);fill-opacity:1;" d="M 44.796875 173.703125 C 44.171875 173.703125 43.679688 173.871094 43.320312 174.207031 C 42.964844 174.539062 42.785156 175 42.785156 175.585938 C 42.785156 176.171875 42.964844 176.632812 43.320312 176.964844 C 43.679688 177.300781 44.171875 177.46875 44.796875 177.46875 C 45.421875 177.46875 45.914062 177.300781 46.273438 176.964844 C 46.632812 176.625 46.816406 176.167969 46.816406 175.585938 C 46.816406 175 46.636719 174.539062 46.277344 174.207031 C 45.921875 173.871094 45.425781 173.703125 44.796875 173.703125 Z M 43.480469 173.144531 C 42.917969 173.007812 42.476562 172.742188 42.164062 172.359375 C 41.847656 171.96875 41.691406 171.5 41.691406 170.941406 C 41.691406 170.167969 41.96875 169.550781 42.519531 169.101562 C 43.074219 168.648438 43.832031 168.425781 44.796875 168.425781 C 45.765625 168.425781 46.523438 168.648438 47.074219 169.101562 C 47.625 169.550781 47.902344 170.167969 47.902344 170.941406 C 47.902344 171.5 47.746094 171.96875 47.429688 172.359375 C 47.117188 172.742188 46.679688 173.007812 46.121094 173.144531 C 46.753906 173.292969 47.246094 173.582031 47.597656 174.011719 C 47.953125 174.441406 48.128906 174.964844 48.128906 175.585938 C 48.128906 176.527344 47.84375 177.25 47.265625 177.753906 C 46.691406 178.257812 45.867188 178.507812 44.796875 178.507812 C 43.726562 178.507812 42.902344 178.257812 42.324219 177.753906 C 41.75 177.25 41.464844 176.527344 41.464844 175.585938 C 41.464844 174.964844 41.640625 174.441406 41.996094 174.011719 C 42.351562 173.582031 42.847656 173.292969 43.480469 173.144531 Z M 43 171.066406 C 43 171.570312 43.15625 171.964844 43.472656 172.246094 C 43.785156 172.527344 44.226562 172.667969 44.796875 172.667969 C 45.363281 172.667969 45.804688 172.527344 46.121094 172.246094 C 46.441406 171.964844 46.601562 171.570312 46.601562 171.066406 C 46.601562 170.5625 46.441406 170.171875 46.121094 169.890625 C 45.804688 169.605469 45.363281 169.464844 44.796875 169.464844 C 44.226562 169.464844 43.785156 169.605469 43.472656 169.890625 C 43.15625 170.171875 43 170.5625 43 171.066406 Z M 43 171.066406 "/>
<path style=" stroke:none;fill-rule:nonzero;fill:rgb(0%,0%,0%);fill-opacity:1;" d="M 50.480469 168.597656 L 55.644531 168.597656 L 55.644531 169.707031 L 51.6875 169.707031 L 51.6875 172.089844 C 51.875 172.023438 52.066406 171.976562 52.257812 171.941406 C 52.449219 171.910156 52.640625 171.894531 52.832031 171.894531 C 53.917969 171.894531 54.773438 172.191406 55.410156 172.785156 C 56.042969 173.382812 56.359375 174.1875 56.359375 175.203125 C 56.359375 176.246094 56.035156 177.058594 55.382812 177.640625 C 54.730469 178.21875 53.8125 178.507812 52.628906 178.507812 C 52.222656 178.507812 51.804688 178.476562 51.382812 178.40625 C 50.960938 178.335938 50.523438 178.230469 50.070312 178.09375 L 50.070312 176.769531 C 50.460938 176.984375 50.863281 177.140625 51.28125 177.246094 C 51.699219 177.347656 52.136719 177.402344 52.601562 177.402344 C 53.355469 177.402344 53.949219 177.203125 54.386719 176.808594 C 54.824219 176.414062 55.042969 175.878906 55.042969 175.203125 C 55.042969 174.523438 54.824219 173.988281 54.386719 173.59375 C 53.949219 173.199219 53.355469 173 52.601562 173 C 52.25 173 51.898438 173.039062 51.550781 173.117188 C 51.203125 173.195312 50.84375 173.316406 50.480469 173.484375 Z M 50.480469 168.597656 "/>
<g clip-path="url(#clip8)" clip-rule="nonzero">
<path style="fill:none;stroke-width:0.8;stroke-linecap:square;stroke-linejoin:round;stroke:rgb(69.01961%,69.01961%,69.01961%);stroke-opacity:1;stroke-miterlimit:4;" d="M 50.144531 103.379883 L 245.443359 103.379883 " transform="matrix(1.333333,0,0,1.333333,0,0.000000000000014211)"/>
</g>
<path style="fill:none;stroke-width:0.8;stroke-linecap:butt;stroke-linejoin:round;stroke:rgb(0%,0%,0%);stroke-opacity:1;stroke-miterlimit:4;" d="M 0.000782013 0.000579834 L -3.500195 0.000579834 " transform="matrix(1.333333,0,0,1.333333,66.858332,137.839071)"/>
<path style=" stroke:none;fill-rule:nonzero;fill:rgb(0%,0%,0%);fill-opacity:1;" d="M 32.074219 134.050781 C 31.398438 134.050781 30.890625 134.382812 30.546875 135.050781 C 30.207031 135.714844 30.039062 136.71875 30.039062 138.054688 C 30.039062 139.386719 30.207031 140.386719 30.546875 141.050781 C 30.890625 141.71875 31.398438 142.050781 32.074219 142.050781 C 32.757812 142.050781 33.269531 141.71875 33.609375 141.050781 C 33.949219 140.386719 34.121094 139.386719 34.121094 138.054688 C 34.121094 136.71875 33.949219 135.714844 33.609375 135.050781 C 33.269531 134.382812 32.757812 134.050781 32.074219 134.050781 Z M 32.074219 133.007812 C 33.164062 133.007812 33.996094 133.441406 34.574219 134.300781 C 35.148438 135.164062 35.433594 136.414062 35.433594 138.054688 C 35.433594 139.691406 35.148438 140.941406 34.574219 141.800781 C 33.996094 142.664062 33.164062 143.09375 32.074219 143.09375 C 30.984375 143.09375 30.152344 142.664062 29.578125 141.800781 C 29.003906 140.941406 28.714844 139.691406 28.714844 138.054688 C 28.714844 136.414062 29.003906 135.164062 29.578125 134.300781 C 30.152344 133.441406 30.984375 133.007812 32.074219 133.007812 Z M 32.074219 133.007812 "/>
<path style=" stroke:none;fill-rule:nonzero;fill:rgb(0%,0%,0%);fill-opacity:1;" d="M 37.746094 141.25 L 39.121094 141.25 L 39.121094 142.90625 L 37.746094 142.90625 Z M 37.746094 141.25 "/>
<path style=" stroke:none;fill-rule:nonzero;fill:rgb(0%,0%,0%);fill-opacity:1;" d="M 42.023438 142.703125 L 42.023438 141.503906 C 42.355469 141.660156 42.6875 141.78125 43.027344 141.863281 C 43.363281 141.945312 43.695312 141.984375 44.023438 141.984375 C 44.890625 141.984375 45.554688 141.695312 46.011719 141.109375 C 46.46875 140.527344 46.730469 139.640625 46.796875 138.449219 C 46.546875 138.824219 46.226562 139.109375 45.839844 139.3125 C 45.453125 139.511719 45.023438 139.609375 44.558594 139.609375 C 43.585938 139.609375 42.816406 139.316406 42.25 138.730469 C 41.683594 138.140625 41.398438 137.335938 41.398438 136.316406 C 41.398438 135.316406 41.695312 134.519531 42.285156 133.914062 C 42.875 133.3125 43.660156 133.007812 44.640625 133.007812 C 45.765625 133.007812 46.625 133.441406 47.214844 134.300781 C 47.808594 135.164062 48.105469 136.414062 48.105469 138.054688 C 48.105469 139.585938 47.742188 140.808594 47.011719 141.722656 C 46.285156 142.636719 45.308594 143.09375 44.082031 143.09375 C 43.75 143.09375 43.417969 143.0625 43.078125 142.996094 C 42.738281 142.929688 42.390625 142.832031 42.023438 142.703125 Z M 44.640625 138.582031 C 45.230469 138.582031 45.699219 138.378906 46.042969 137.976562 C 46.386719 137.574219 46.5625 137.019531 46.5625 136.316406 C 46.5625 135.617188 46.386719 135.0625 46.042969 134.660156 C 45.699219 134.253906 45.230469 134.050781 44.640625 134.050781 C 44.050781 134.050781 43.582031 134.253906 43.238281 134.660156 C 42.894531 135.0625 42.722656 135.617188 42.722656 136.316406 C 42.722656 137.019531 42.894531 137.574219 43.238281 137.976562 C 43.582031 138.378906 44.050781 138.582031 44.640625 138.582031 Z M 44.640625 138.582031 "/>
<path style=" stroke:none;fill-rule:nonzero;fill:rgb(0%,0%,0%);fill-opacity:1;" d="M 53.28125 134.050781 C 52.601562 134.050781 52.09375 134.382812 51.753906 135.050781 C 51.410156 135.714844 51.242188 136.71875 51.242188 138.054688 C 51.242188 139.386719 51.410156 140.386719 51.753906 141.050781 C 52.09375 141.71875 52.601562 142.050781 53.28125 142.050781 C 53.960938 142.050781 54.472656 141.71875 54.8125 141.050781 C 55.15625 140.386719 55.324219 139.386719 55.324219 138.054688 C 55.324219 136.71875 55.15625 135.714844 54.8125 135.050781 C 54.472656 134.382812 53.960938 134.050781 53.28125 134.050781 Z M 53.28125 133.007812 C 54.371094 133.007812 55.203125 133.441406 55.777344 134.300781 C 56.351562 135.164062 56.640625 136.414062 56.640625 138.054688 C 56.640625 139.691406 56.351562 140.941406 55.777344 141.800781 C 55.203125 142.664062 54.371094 143.09375 53.28125 143.09375 C 52.191406 143.09375 51.359375 142.664062 50.785156 141.800781 C 50.207031 140.941406 49.921875 139.691406 49.921875 138.054688 C 49.921875 136.414062 50.207031 135.164062 50.785156 134.300781 C 51.359375 133.441406 52.191406 133.007812 53.28125 133.007812 Z M 53.28125 133.007812 "/>
<g clip-path="url(#clip9)" clip-rule="nonzero">
<path style="fill:none;stroke-width:0.8;stroke-linecap:square;stroke-linejoin:round;stroke:rgb(69.01961%,69.01961%,69.01961%);stroke-opacity:1;stroke-miterlimit:4;" d="M 50.144531 76.816406 L 245.443359 76.816406 " transform="matrix(1.333333,0,0,1.333333,0,0.000000000000014211)"/>
</g>
<path style="fill:none;stroke-width:0.8;stroke-linecap:butt;stroke-linejoin:round;stroke:rgb(0%,0%,0%);stroke-opacity:1;stroke-miterlimit:4;" d="M 0.000782013 -0.00136566 L -3.500195 -0.00136566 " transform="matrix(1.333333,0,0,1.333333,66.858332,102.423696)"/>
<path style=" stroke:none;fill-rule:nonzero;fill:rgb(0%,0%,0%);fill-opacity:1;" d="M 32.074219 98.636719 C 31.398438 98.636719 30.890625 98.96875 30.546875 99.636719 C 30.207031 100.300781 30.039062 101.300781 30.039062 102.640625 C 30.039062 103.972656 30.207031 104.96875 30.546875 105.636719 C 30.890625 106.304688 31.398438 106.636719 32.074219 106.636719 C 32.757812 106.636719 33.269531 106.304688 33.609375 105.636719 C 33.949219 104.96875 34.121094 103.972656 34.121094 102.640625 C 34.121094 101.300781 33.949219 100.300781 33.609375 99.636719 C 33.269531 98.96875 32.757812 98.636719 32.074219 98.636719 Z M 32.074219 97.59375 C 33.164062 97.59375 33.996094 98.023438 34.574219 98.886719 C 35.148438 99.75 35.433594 101 35.433594 102.640625 C 35.433594 104.277344 35.148438 105.523438 34.574219 106.386719 C 33.996094 107.25 33.164062 107.679688 32.074219 107.679688 C 30.984375 107.679688 30.152344 107.25 29.578125 106.386719 C 29.003906 105.523438 28.714844 104.277344 28.714844 102.640625 C 28.714844 101 29.003906 99.75 29.578125 98.886719 C 30.152344 98.023438 30.984375 97.59375 32.074219 97.59375 Z M 32.074219 97.59375 "/>
<path style=" stroke:none;fill-rule:nonzero;fill:rgb(0%,0%,0%);fill-opacity:1;" d="M 37.746094 105.835938 L 39.121094 105.835938 L 39.121094 107.488281 L 37.746094 107.488281 Z M 37.746094 105.835938 "/>
<path style=" stroke:none;fill-rule:nonzero;fill:rgb(0%,0%,0%);fill-opacity:1;" d="M 42.023438 107.289062 L 42.023438 106.089844 C 42.355469 106.246094 42.6875 106.367188 43.027344 106.449219 C 43.363281 106.53125 43.695312 106.570312 44.023438 106.570312 C 44.890625 106.570312 45.554688 106.277344 46.011719 105.695312 C 46.46875 105.113281 46.730469 104.226562 46.796875 103.035156 C 46.546875 103.410156 46.226562 103.695312 45.839844 103.894531 C 45.453125 104.09375 45.023438 104.195312 44.558594 104.195312 C 43.585938 104.195312 42.816406 103.902344 42.25 103.3125 C 41.683594 102.726562 41.398438 101.921875 41.398438 100.898438 C 41.398438 99.902344 41.695312 99.101562 42.285156 98.5 C 42.875 97.894531 43.660156 97.59375 44.640625 97.59375 C 45.765625 97.59375 46.625 98.023438 47.214844 98.886719 C 47.808594 99.75 48.105469 101 48.105469 102.640625 C 48.105469 104.171875 47.742188 105.394531 47.011719 106.308594 C 46.285156 107.222656 45.308594 107.679688 44.082031 107.679688 C 43.75 107.679688 43.417969 107.644531 43.078125 107.582031 C 42.738281 107.515625 42.390625 107.417969 42.023438 107.289062 Z M 44.640625 103.167969 C 45.230469 103.167969 45.699219 102.964844 46.042969 102.5625 C 46.386719 102.15625 46.5625 101.605469 46.5625 100.898438 C 46.5625 100.199219 46.386719 99.648438 46.042969 99.242188 C 45.699219 98.839844 45.230469 98.636719 44.640625 98.636719 C 44.050781 98.636719 43.582031 98.839844 43.238281 99.242188 C 42.894531 99.648438 42.722656 100.199219 42.722656 100.898438 C 42.722656 101.605469 42.894531 102.15625 43.238281 102.5625 C 43.582031 102.964844 44.050781 103.167969 44.640625 103.167969 Z M 44.640625 103.167969 "/>
<path style=" stroke:none;fill-rule:nonzero;fill:rgb(0%,0%,0%);fill-opacity:1;" d="M 50.480469 97.769531 L 55.644531 97.769531 L 55.644531 98.875 L 51.6875 98.875 L 51.6875 101.257812 C 51.875 101.191406 52.066406 101.144531 52.257812 101.113281 C 52.449219 101.082031 52.640625 101.0625 52.832031 101.0625 C 53.917969 101.0625 54.773438 101.363281 55.410156 101.957031 C 56.042969 102.550781 56.359375 103.355469 56.359375 104.371094 C 56.359375 105.417969 56.035156 106.230469 55.382812 106.808594 C 54.730469 107.390625 53.8125 107.679688 52.628906 107.679688 C 52.222656 107.679688 51.804688 107.644531 51.382812 107.574219 C 50.960938 107.503906 50.523438 107.402344 50.070312 107.261719 L 50.070312 105.9375 C 50.460938 106.152344 50.863281 106.308594 51.28125 106.414062 C 51.699219 106.519531 52.136719 106.570312 52.601562 106.570312 C 53.355469 106.570312 53.949219 106.375 54.386719 105.980469 C 54.824219 105.585938 55.042969 105.046875 55.042969 104.371094 C 55.042969 103.695312 54.824219 103.160156 54.386719 102.765625 C 53.949219 102.367188 53.355469 102.171875 52.601562 102.171875 C 52.25 102.171875 51.898438 102.210938 51.550781 102.289062 C 51.203125 102.363281 50.84375 102.488281 50.480469 102.652344 Z M 50.480469 97.769531 "/>
<g clip-path="url(#clip10)" clip-rule="nonzero">
<path style="fill:none;stroke-width:0.8;stroke-linecap:square;stroke-linejoin:round;stroke:rgb(69.01961%,69.01961%,69.01961%);stroke-opacity:1;stroke-miterlimit:4;" d="M 50.144531 50.255859 L 245.443359 50.255859 " transform="matrix(1.333333,0,0,1.333333,0,0.000000000000014211)"/>
</g>
<path style="fill:none;stroke-width:0.8;stroke-linecap:butt;stroke-linejoin:round;stroke:rgb(0%,0%,0%);stroke-opacity:1;stroke-miterlimit:4;" d="M 0.000782013 -0.000389099 L -3.500195 -0.000389099 " transform="matrix(1.333333,0,0,1.333333,66.858332,67.008331)"/>
<path style=" stroke:none;fill-rule:nonzero;fill:rgb(0%,0%,0%);fill-opacity:1;" d="M 29.492188 70.96875 L 31.640625 70.96875 L 31.640625 63.550781 L 29.300781 64.019531 L 29.300781 62.820312 L 31.628906 62.351562 L 32.941406 62.351562 L 32.941406 70.96875 L 35.089844 70.96875 L 35.089844 72.074219 L 29.492188 72.074219 Z M 29.492188 70.96875 "/>
<path style=" stroke:none;fill-rule:nonzero;fill:rgb(0%,0%,0%);fill-opacity:1;" d="M 37.746094 70.417969 L 39.121094 70.417969 L 39.121094 72.074219 L 37.746094 72.074219 Z M 37.746094 70.417969 "/>
<path style=" stroke:none;fill-rule:nonzero;fill:rgb(0%,0%,0%);fill-opacity:1;" d="M 44.796875 63.21875 C 44.121094 63.21875 43.609375 63.554688 43.269531 64.21875 C 42.929688 64.886719 42.757812 65.886719 42.757812 67.222656 C 42.757812 68.554688 42.929688 69.554688 43.269531 70.222656 C 43.609375 70.886719 44.121094 71.222656 44.796875 71.222656 C 45.476562 71.222656 45.988281 70.886719 46.328125 70.222656 C 46.671875 69.554688 46.84375 68.554688 46.84375 67.222656 C 46.84375 65.886719 46.671875 64.886719 46.328125 64.21875 C 45.988281 63.554688 45.476562 63.21875 44.796875 63.21875 Z M 44.796875 62.179688 C 45.886719 62.179688 46.71875 62.609375 47.292969 63.472656 C 47.871094 64.332031 48.15625 65.582031 48.15625 67.222656 C 48.15625 68.859375 47.871094 70.109375 47.292969 70.972656 C 46.71875 71.832031 45.886719 72.261719 44.796875 72.261719 C 43.707031 72.261719 42.875 71.832031 42.300781 70.972656 C 41.726562 70.109375 41.4375 68.859375 41.4375 67.222656 C 41.4375 65.582031 41.726562 64.332031 42.300781 63.472656 C 42.875 62.609375 43.707031 62.179688 44.796875 62.179688 Z M 44.796875 62.179688 "/>
<path style=" stroke:none;fill-rule:nonzero;fill:rgb(0%,0%,0%);fill-opacity:1;" d="M 53.28125 63.21875 C 52.601562 63.21875 52.09375 63.554688 51.753906 64.21875 C 51.410156 64.886719 51.242188 65.886719 51.242188 67.222656 C 51.242188 68.554688 51.410156 69.554688 51.753906 70.222656 C 52.09375 70.886719 52.601562 71.222656 53.28125 71.222656 C 53.960938 71.222656 54.472656 70.886719 54.8125 70.222656 C 55.15625 69.554688 55.324219 68.554688 55.324219 67.222656 C 55.324219 65.886719 55.15625 64.886719 54.8125 64.21875 C 54.472656 63.554688 53.960938 63.21875 53.28125 63.21875 Z M 53.28125 62.179688 C 54.371094 62.179688 55.203125 62.609375 55.777344 63.472656 C 56.351562 64.332031 56.640625 65.582031 56.640625 67.222656 C 56.640625 68.859375 56.351562 70.109375 55.777344 70.972656 C 55.203125 71.832031 54.371094 72.261719 53.28125 72.261719 C 52.191406 72.261719 51.359375 71.832031 50.785156 70.972656 C 50.207031 70.109375 49.921875 68.859375 49.921875 67.222656 C 49.921875 65.582031 50.207031 64.332031 50.785156 63.472656 C 51.359375 62.609375 52.191406 62.179688 53.28125 62.179688 Z M 53.28125 62.179688 "/>
<g clip-path="url(#clip11)" clip-rule="nonzero">
<path style="fill:none;stroke-width:0.8;stroke-linecap:square;stroke-linejoin:round;stroke:rgb(69.01961%,69.01961%,69.01961%);stroke-opacity:1;stroke-miterlimit:4;" d="M 50.144531 23.695312 L 245.443359 23.695312 " transform="matrix(1.333333,0,0,1.333333,0,0.000000000000014211)"/>
</g>
<path style="fill:none;stroke-width:0.8;stroke-linecap:butt;stroke-linejoin:round;stroke:rgb(0%,0%,0%);stroke-opacity:1;stroke-miterlimit:4;" d="M 0.000782013 0.000593185 L -3.500195 0.000593185 " transform="matrix(1.333333,0,0,1.333333,66.858332,31.592959)"/>
<path style=" stroke:none;fill-rule:nonzero;fill:rgb(0%,0%,0%);fill-opacity:1;" d="M 29.492188 35.550781 L 31.640625 35.550781 L 31.640625 28.136719 L 29.300781 28.605469 L 29.300781 27.40625 L 31.628906 26.9375 L 32.941406 26.9375 L 32.941406 35.550781 L 35.089844 35.550781 L 35.089844 36.660156 L 29.492188 36.660156 Z M 29.492188 35.550781 "/>
<path style=" stroke:none;fill-rule:nonzero;fill:rgb(0%,0%,0%);fill-opacity:1;" d="M 37.746094 35.003906 L 39.121094 35.003906 L 39.121094 36.660156 L 37.746094 36.660156 Z M 37.746094 35.003906 "/>
<path style=" stroke:none;fill-rule:nonzero;fill:rgb(0%,0%,0%);fill-opacity:1;" d="M 44.796875 27.804688 C 44.121094 27.804688 43.609375 28.136719 43.269531 28.804688 C 42.929688 29.46875 42.757812 30.472656 42.757812 31.808594 C 42.757812 33.140625 42.929688 34.140625 43.269531 34.804688 C 43.609375 35.472656 44.121094 35.804688 44.796875 35.804688 C 45.476562 35.804688 45.988281 35.472656 46.328125 34.804688 C 46.671875 34.140625 46.84375 33.140625 46.84375 31.808594 C 46.84375 30.472656 46.671875 29.46875 46.328125 28.804688 C 45.988281 28.136719 45.476562 27.804688 44.796875 27.804688 Z M 44.796875 26.761719 C 45.886719 26.761719 46.71875 27.195312 47.292969 28.054688 C 47.871094 28.917969 48.15625 30.167969 48.15625 31.808594 C 48.15625 33.445312 47.871094 34.695312 47.292969 35.554688 C 46.71875 36.417969 45.886719 36.847656 44.796875 36.847656 C 43.707031 36.847656 42.875 36.417969 42.300781 35.554688 C 41.726562 34.695312 41.4375 33.445312 41.4375 31.808594 C 41.4375 30.167969 41.726562 28.917969 42.300781 28.054688 C 42.875 27.195312 43.707031 26.761719 44.796875 26.761719 Z M 44.796875 26.761719 "/>
<path style=" stroke:none;fill-rule:nonzero;fill:rgb(0%,0%,0%);fill-opacity:1;" d="M 50.480469 26.9375 L 55.644531 26.9375 L 55.644531 28.046875 L 51.6875 28.046875 L 51.6875 30.425781 C 51.875 30.363281 52.066406 30.3125 52.257812 30.28125 C 52.449219 30.25 52.640625 30.234375 52.832031 30.234375 C 53.917969 30.234375 54.773438 30.53125 55.410156 31.125 C 56.042969 31.71875 56.359375 32.523438 56.359375 33.539062 C 56.359375 34.585938 56.035156 35.398438 55.382812 35.980469 C 54.730469 36.558594 53.8125 36.847656 52.628906 36.847656 C 52.222656 36.847656 51.804688 36.8125 51.382812 36.742188 C 50.960938 36.675781 50.523438 36.570312 50.070312 36.429688 L 50.070312 35.109375 C 50.460938 35.320312 50.863281 35.480469 51.28125 35.582031 C 51.699219 35.6875 52.136719 35.738281 52.601562 35.738281 C 53.355469 35.738281 53.949219 35.542969 54.386719 35.148438 C 54.824219 34.753906 55.042969 34.21875 55.042969 33.539062 C 55.042969 32.863281 54.824219 32.328125 54.386719 31.933594 C 53.949219 31.539062 53.355469 31.339844 52.601562 31.339844 C 52.25 31.339844 51.898438 31.378906 51.550781 31.457031 C 51.203125 31.535156 50.84375 31.65625 50.480469 31.820312 Z M 50.480469 26.9375 "/>
<path style=" stroke:none;fill-rule:nonzero;fill:rgb(0%,0%,0%);fill-opacity:1;" d="M 15.171875 113.195312 C 15.269531 112.910156 15.472656 112.636719 15.785156 112.371094 C 16.097656 112.105469 16.527344 111.835938 17.074219 111.566406 L 19.730469 110.230469 L 19.730469 111.644531 L 17.238281 112.886719 C 16.585938 113.210938 16.152344 113.523438 15.941406 113.824219 C 15.730469 114.125 15.621094 114.535156 15.621094 115.054688 L 15.621094 116.488281 L 19.730469 116.488281 L 19.730469 117.804688 L 10.011719 117.804688 L 10.011719 114.835938 C 10.011719 113.722656 10.242188 112.894531 10.707031 112.347656 C 11.171875 111.800781 11.871094 111.527344 12.808594 111.527344 C 13.421875 111.527344 13.929688 111.667969 14.335938 111.953125 C 14.738281 112.238281 15.015625 112.652344 15.171875 113.195312 Z M 11.089844 116.488281 L 14.542969 116.488281 L 14.542969 114.835938 C 14.542969 114.203125 14.394531 113.722656 14.101562 113.398438 C 13.808594 113.078125 13.378906 112.914062 12.808594 112.914062 C 12.242188 112.914062 11.8125 113.078125 11.523438 113.398438 C 11.234375 113.722656 11.089844 114.203125 11.089844 114.835938 Z M 11.089844 116.488281 "/>
<path style=" stroke:none;fill-rule:nonzero;fill:rgb(0%,0%,0%);fill-opacity:1;" d="M 16.066406 105.578125 C 16.066406 106.546875 16.175781 107.214844 16.398438 107.589844 C 16.617188 107.964844 16.996094 108.148438 17.53125 108.148438 C 17.957031 108.148438 18.292969 108.011719 18.542969 107.730469 C 18.792969 107.449219 18.917969 107.066406 18.917969 106.585938 C 18.917969 105.921875 18.679688 105.390625 18.210938 104.988281 C 17.738281 104.585938 17.113281 104.386719 16.332031 104.386719 L 16.066406 104.386719 Z M 15.570312 103.1875 L 19.730469 103.1875 L 19.730469 104.386719 L 18.625 104.386719 C 19.066406 104.660156 19.394531 105 19.605469 105.410156 C 19.816406 105.816406 19.921875 106.316406 19.921875 106.90625 C 19.921875 107.652344 19.710938 108.246094 19.292969 108.6875 C 18.871094 109.128906 18.3125 109.347656 17.609375 109.347656 C 16.789062 109.347656 16.171875 109.074219 15.753906 108.523438 C 15.335938 107.976562 15.128906 107.15625 15.128906 106.066406 L 15.128906 104.386719 L 15.011719 104.386719 C 14.460938 104.386719 14.03125 104.566406 13.730469 104.929688 C 13.429688 105.292969 13.277344 105.800781 13.277344 106.457031 C 13.277344 106.875 13.328125 107.28125 13.429688 107.675781 C 13.527344 108.070312 13.679688 108.449219 13.878906 108.8125 L 12.769531 108.8125 C 12.601562 108.375 12.476562 107.949219 12.390625 107.539062 C 12.308594 107.125 12.265625 106.722656 12.265625 106.332031 C 12.265625 105.277344 12.539062 104.488281 13.085938 103.96875 C 13.632812 103.449219 14.460938 103.1875 15.570312 103.1875 Z M 15.570312 103.1875 "/>
<path style=" stroke:none;fill-rule:nonzero;fill:rgb(0%,0%,0%);fill-opacity:1;" d="M 10.367188 99.535156 L 12.441406 99.535156 L 12.441406 97.070312 L 13.371094 97.070312 L 13.371094 99.535156 L 17.328125 99.535156 C 17.921875 99.535156 18.304688 99.453125 18.476562 99.292969 C 18.644531 99.128906 18.730469 98.796875 18.730469 98.296875 L 18.730469 97.070312 L 19.730469 97.070312 L 19.730469 98.296875 C 19.730469 99.222656 19.558594 99.863281 19.214844 100.214844 C 18.867188 100.5625 18.242188 100.738281 17.328125 100.738281 L 13.371094 100.738281 L 13.371094 101.621094 L 12.441406 101.621094 L 12.441406 100.738281 L 10.367188 100.738281 Z M 10.367188 99.535156 "/>
<path style=" stroke:none;fill-rule:nonzero;fill:rgb(0%,0%,0%);fill-opacity:1;" d="M 12.441406 95.492188 L 12.441406 94.296875 L 19.730469 94.296875 L 19.730469 95.492188 Z M 9.601562 95.492188 L 9.601562 94.296875 L 11.117188 94.296875 L 11.117188 95.492188 Z M 9.601562 95.492188 "/>
<path style=" stroke:none;fill-rule:nonzero;fill:rgb(0%,0%,0%);fill-opacity:1;" d="M 13.277344 88.964844 C 13.277344 89.605469 13.53125 90.113281 14.03125 90.488281 C 14.53125 90.859375 15.21875 91.046875 16.089844 91.046875 C 16.964844 91.046875 17.652344 90.863281 18.152344 90.492188 C 18.652344 90.117188 18.902344 89.609375 18.902344 88.964844 C 18.902344 88.324219 18.652344 87.820312 18.148438 87.449219 C 17.644531 87.074219 16.960938 86.886719 16.089844 86.886719 C 15.226562 86.886719 14.542969 87.074219 14.039062 87.449219 C 13.53125 87.820312 13.277344 88.324219 13.277344 88.964844 Z M 12.265625 88.964844 C 12.265625 87.921875 12.601562 87.105469 13.28125 86.511719 C 13.957031 85.914062 14.894531 85.617188 16.089844 85.617188 C 17.285156 85.617188 18.222656 85.914062 18.902344 86.511719 C 19.582031 87.105469 19.921875 87.921875 19.921875 88.964844 C 19.921875 90.011719 19.582031 90.828125 18.902344 91.421875 C 18.222656 92.015625 17.285156 92.308594 16.089844 92.308594 C 14.894531 92.308594 13.957031 92.015625 13.28125 91.421875 C 12.601562 90.828125 12.265625 90.011719 12.265625 88.964844 Z M 12.265625 88.964844 "/>
<path style="fill:none;stroke-width:1.5;stroke-linecap:square;stroke-linejoin:round;stroke:rgb(12.156863%,46.666667%,70.588237%);stroke-opacity:1;stroke-miterlimit:4;" d="M 59.021484 13.5 L 60.832031 139.5 L 62.645508 39.395508 L 64.456055 46.236328 L 66.266602 59.375977 L 68.080078 47.771484 L 69.890625 49.895508 L 71.704102 51.140625 L 73.514648 50.000977 L 75.325195 50.223633 L 77.138672 50.34375 L 78.949219 50.232422 L 80.762695 50.25293 L 82.573242 50.264648 L 84.383789 50.25293 L 86.197266 50.255859 L 236.566406 50.255859 " transform="matrix(1.333333,0,0,1.333333,0,0.000000000000014211)"/>
<path style="fill:none;stroke-width:0.8;stroke-linecap:square;stroke-linejoin:miter;stroke:rgb(0%,0%,0%);stroke-opacity:1;stroke-miterlimit:4;" d="M 50.144531 145.798828 L 50.144531 7.201172 " transform="matrix(1.333333,0,0,1.333333,0,0.000000000000014211)"/>
<path style="fill:none;stroke-width:0.8;stroke-linecap:square;stroke-linejoin:miter;stroke:rgb(0%,0%,0%);stroke-opacity:1;stroke-miterlimit:4;" d="M 245.443359 145.798828 L 245.443359 7.201172 " transform="matrix(1.333333,0,0,1.333333,0,0.000000000000014211)"/>
<path style="fill:none;stroke-width:0.8;stroke-linecap:square;stroke-linejoin:miter;stroke:rgb(0%,0%,0%);stroke-opacity:1;stroke-miterlimit:4;" d="M 50.144531 145.798828 L 245.443359 145.798828 " transform="matrix(1.333333,0,0,1.333333,0,0.000000000000014211)"/>
<path style="fill:none;stroke-width:0.8;stroke-linecap:square;stroke-linejoin:miter;stroke:rgb(0%,0%,0%);stroke-opacity:1;stroke-miterlimit:4;" d="M 50.144531 7.201172 L 245.443359 7.201172 " transform="matrix(1.333333,0,0,1.333333,0,0.000000000000014211)"/>
</g>
</svg>
