<?xml version="1.0" encoding="UTF-8"?>
<svg xmlns="http://www.w3.org/2000/svg" xmlns:xlink="http://www.w3.org/1999/xlink" width="310.137492" height="226.237508" viewBox="0 0 310.137492 226.237508" version="1.1">
<g id="surface1">
<path style=" stroke:none;fill-rule:nonzero;fill:rgb(100%,100%,100%);fill-opacity:1;" d="M 0 226.238281 L 310.136719 226.238281 L 310.136719 0 L 0 0 Z M 0 226.238281 "/>
<path style=" stroke:none;fill-rule:nonzero;fill:rgb(100%,100%,100%);fill-opacity:1;" d="M 40.136719 194.398438 L 300.539062 194.398438 L 300.539062 9.601562 L 40.136719 9.601562 Z M 40.136719 194.398438 "/>
<path style=" stroke:none;fill-rule:nonzero;fill:rgb(12.156863%,46.666667%,70.588237%);fill-opacity:1;" d="M 81.640625 186 L 81.640625 168.292969 L 82.230469 167.753906 L 82.824219 167.207031 L 83.417969 166.644531 L 84.011719 166.066406 L 84.605469 165.480469 L 85.199219 164.878906 L 85.792969 164.261719 L 86.386719 163.632812 L 86.980469 162.992188 L 87.570312 162.335938 L 88.164062 161.667969 L 88.757812 160.984375 L 89.351562 160.285156 L 89.945312 159.574219 L 90.539062 158.847656 L 91.132812 158.105469 L 91.726562 157.351562 L 92.316406 156.582031 L 92.910156 155.800781 L 93.503906 155 L 94.097656 154.1875 L 94.691406 153.359375 L 95.285156 152.515625 L 95.878906 151.65625 L 96.472656 150.785156 L 97.066406 149.898438 L 97.65625 148.996094 L 98.25 148.078125 L 98.84375 147.144531 L 99.4375 146.195312 L 100.03125 145.234375 L 100.625 144.253906 L 101.21875 143.261719 L 101.8125 142.253906 L 102.40625 141.234375 L 102.996094 140.195312 L 103.589844 139.144531 L 104.183594 138.078125 L 104.777344 136.996094 L 105.371094 135.902344 L 105.964844 134.792969 L 106.558594 133.671875 L 107.152344 132.53125 L 107.746094 131.382812 L 108.335938 130.21875 L 108.929688 129.039062 L 109.523438 127.847656 L 110.117188 126.644531 L 110.710938 125.425781 L 111.304688 124.195312 L 111.898438 122.953125 L 112.492188 121.699219 L 113.082031 120.433594 L 113.675781 119.15625 L 114.269531 117.867188 L 114.863281 116.566406 L 115.457031 115.257812 L 116.050781 113.933594 L 116.644531 112.605469 L 117.238281 111.265625 L 117.832031 109.914062 L 118.421875 108.554688 L 119.015625 107.1875 L 119.609375 105.8125 L 120.203125 104.429688 L 120.796875 103.039062 L 121.390625 101.640625 L 121.984375 100.238281 L 122.578125 98.828125 L 123.171875 97.414062 L 123.761719 95.996094 L 124.949219 93.144531 L 126.136719 90.277344 L 127.324219 87.402344 L 127.917969 85.960938 L 128.507812 84.519531 L 129.695312 81.636719 L 131.476562 77.324219 L 132.070312 75.890625 L 132.664062 74.460938 L 133.257812 73.035156 L 133.847656 71.617188 L 134.441406 70.199219 L 135.035156 68.789062 L 135.628906 67.386719 L 136.222656 65.992188 L 136.816406 64.601562 L 137.410156 63.222656 L 138.003906 61.851562 L 138.597656 60.492188 L 139.1875 59.140625 L 139.78125 57.804688 L 140.375 56.476562 L 140.96875 55.160156 L 141.5625 53.859375 L 142.15625 52.570312 L 142.75 51.296875 L 143.34375 50.039062 L 143.9375 48.796875 L 144.527344 47.570312 L 145.121094 46.359375 L 145.714844 45.167969 L 146.308594 43.996094 L 146.902344 42.839844 L 147.496094 41.703125 L 148.089844 40.589844 L 148.683594 39.496094 L 149.273438 38.421875 L 149.867188 37.371094 L 150.460938 36.339844 L 151.054688 35.335938 L 151.648438 34.351562 L 152.242188 33.394531 L 152.835938 32.460938 L 153.429688 31.550781 L 154.023438 30.667969 L 154.613281 29.8125 L 155.207031 28.980469 L 155.800781 28.179688 L 156.394531 27.402344 L 156.988281 26.65625 L 157.582031 25.9375 L 158.175781 25.246094 L 158.769531 24.585938 L 159.363281 23.957031 L 159.953125 23.355469 L 160.546875 22.785156 L 161.140625 22.246094 L 161.734375 21.738281 L 162.328125 21.261719 L 162.921875 20.816406 L 163.515625 20.402344 L 164.109375 20.019531 L 164.699219 19.671875 L 165.292969 19.355469 L 165.886719 19.070312 L 166.480469 18.820312 L 167.074219 18.605469 L 167.667969 18.417969 L 168.261719 18.269531 L 168.855469 18.152344 L 169.449219 18.066406 L 170.039062 18.015625 L 170.632812 18 L 171.226562 18.015625 L 171.820312 18.066406 L 172.414062 18.152344 L 173.007812 18.269531 L 173.601562 18.417969 L 174.195312 18.605469 L 174.789062 18.820312 L 175.378906 19.070312 L 175.972656 19.355469 L 176.566406 19.671875 L 177.160156 20.019531 L 177.753906 20.402344 L 178.347656 20.816406 L 178.941406 21.261719 L 179.535156 21.738281 L 180.128906 22.246094 L 180.71875 22.785156 L 181.3125 23.355469 L 181.90625 23.957031 L 182.5 24.585938 L 183.09375 25.246094 L 183.6875 25.9375 L 184.28125 26.65625 L 184.875 27.402344 L 185.464844 28.179688 L 186.058594 28.980469 L 186.652344 29.8125 L 187.246094 30.667969 L 187.839844 31.550781 L 188.433594 32.460938 L 189.027344 33.394531 L 189.621094 34.351562 L 190.214844 35.335938 L 190.804688 36.339844 L 191.398438 37.371094 L 191.992188 38.421875 L 192.585938 39.496094 L 193.179688 40.589844 L 193.773438 41.703125 L 194.367188 42.839844 L 194.960938 43.996094 L 195.554688 45.167969 L 196.144531 46.359375 L 196.738281 47.570312 L 197.332031 48.796875 L 197.925781 50.039062 L 198.519531 51.296875 L 199.113281 52.570312 L 199.707031 53.859375 L 199.707031 186 Z M 81.640625 186 "/>
<path style="fill:none;stroke-width:0.8;stroke-linecap:butt;stroke-linejoin:round;stroke:rgb(0%,0%,0%);stroke-opacity:1;stroke-miterlimit:4;" d="M -0.000904083 -0.00117493 L -0.000904083 3.499802 " transform="matrix(1.333333,0,0,1.333333,51.973862,194.400004)"/>
<path style=" stroke:none;fill-rule:nonzero;fill:rgb(0%,0%,0%);fill-opacity:1;" d="M 43.558594 209.132812 L 51.902344 209.132812 L 51.902344 210.238281 L 43.558594 210.238281 Z M 43.558594 209.132812 "/>
<path style=" stroke:none;fill-rule:nonzero;fill:rgb(0%,0%,0%);fill-opacity:1;" d="M 55.875 212.757812 L 60.464844 212.757812 L 60.464844 213.863281 L 54.292969 213.863281 L 54.292969 212.757812 C 54.792969 212.242188 55.472656 211.546875 56.335938 210.679688 C 57.195312 209.808594 57.738281 209.246094 57.960938 208.992188 C 58.378906 208.523438 58.675781 208.121094 58.839844 207.792969 C 59.007812 207.464844 59.09375 207.144531 59.09375 206.828125 C 59.09375 206.308594 58.910156 205.890625 58.550781 205.566406 C 58.1875 205.238281 57.714844 205.074219 57.132812 205.074219 C 56.71875 205.074219 56.285156 205.148438 55.824219 205.289062 C 55.367188 205.433594 54.878906 205.648438 54.359375 205.941406 L 54.359375 204.613281 C 54.886719 204.398438 55.382812 204.238281 55.84375 204.132812 C 56.304688 204.023438 56.726562 203.96875 57.105469 203.96875 C 58.113281 203.96875 58.917969 204.222656 59.515625 204.726562 C 60.113281 205.226562 60.414062 205.898438 60.414062 206.742188 C 60.414062 207.140625 60.339844 207.519531 60.1875 207.878906 C 60.039062 208.234375 59.769531 208.65625 59.371094 209.144531 C 59.261719 209.269531 58.917969 209.632812 58.335938 210.234375 C 57.753906 210.835938 56.9375 211.679688 55.875 212.757812 Z M 55.875 212.757812 "/>
<path style="fill:none;stroke-width:0.8;stroke-linecap:butt;stroke-linejoin:round;stroke:rgb(0%,0%,0%);stroke-opacity:1;stroke-miterlimit:4;" d="M 0.000511169 -0.00117493 L 0.000511169 3.499802 " transform="matrix(1.333333,0,0,1.333333,111.304006,194.400004)"/>
<path style=" stroke:none;fill-rule:nonzero;fill:rgb(0%,0%,0%);fill-opacity:1;" d="M 102.886719 209.132812 L 111.234375 209.132812 L 111.234375 210.238281 L 102.886719 210.238281 Z M 102.886719 209.132812 "/>
<path style=" stroke:none;fill-rule:nonzero;fill:rgb(0%,0%,0%);fill-opacity:1;" d="M 114.300781 212.757812 L 116.449219 212.757812 L 116.449219 205.339844 L 114.113281 205.808594 L 114.113281 204.613281 L 116.4375 204.144531 L 117.75 204.144531 L 117.75 212.757812 L 119.898438 212.757812 L 119.898438 213.863281 L 114.300781 213.863281 Z M 114.300781 212.757812 "/>
<path style="fill:none;stroke-width:0.8;stroke-linecap:butt;stroke-linejoin:round;stroke:rgb(0%,0%,0%);stroke-opacity:1;stroke-miterlimit:4;" d="M -0.00100708 -0.00117493 L -0.00100708 3.499802 " transform="matrix(1.333333,0,0,1.333333,170.634155,194.400004)"/>
<path style=" stroke:none;fill-rule:nonzero;fill:rgb(0%,0%,0%);fill-opacity:1;" d="M 170.628906 205.011719 C 169.953125 205.011719 169.445312 205.34375 169.101562 206.011719 C 168.761719 206.675781 168.59375 207.675781 168.59375 209.015625 C 168.59375 210.347656 168.761719 211.347656 169.101562 212.011719 C 169.445312 212.679688 169.953125 213.011719 170.628906 213.011719 C 171.3125 213.011719 171.824219 212.679688 172.164062 212.011719 C 172.503906 211.347656 172.675781 210.347656 172.675781 209.015625 C 172.675781 207.675781 172.503906 206.675781 172.164062 206.011719 C 171.824219 205.34375 171.3125 205.011719 170.628906 205.011719 Z M 170.628906 203.96875 C 171.71875 203.96875 172.554688 204.398438 173.128906 205.261719 C 173.703125 206.125 173.992188 207.375 173.992188 209.015625 C 173.992188 210.652344 173.703125 211.898438 173.128906 212.761719 C 172.554688 213.625 171.71875 214.054688 170.628906 214.054688 C 169.542969 214.054688 168.710938 213.625 168.132812 212.761719 C 167.558594 211.898438 167.273438 210.652344 167.273438 209.015625 C 167.273438 207.375 167.558594 206.125 168.132812 205.261719 C 168.710938 204.398438 169.542969 203.96875 170.628906 203.96875 Z M 170.628906 203.96875 "/>
<path style="fill:none;stroke-width:0.8;stroke-linecap:butt;stroke-linejoin:round;stroke:rgb(0%,0%,0%);stroke-opacity:1;stroke-miterlimit:4;" d="M 0.000411987 -0.00117493 L 0.000411987 3.499802 " transform="matrix(1.333333,0,0,1.333333,229.964294,194.400004)"/>
<path style=" stroke:none;fill-rule:nonzero;fill:rgb(0%,0%,0%);fill-opacity:1;" d="M 227.375 212.757812 L 229.523438 212.757812 L 229.523438 205.339844 L 227.1875 205.808594 L 227.1875 204.613281 L 229.511719 204.144531 L 230.828125 204.144531 L 230.828125 212.757812 L 232.976562 212.757812 L 232.976562 213.863281 L 227.375 213.863281 Z M 227.375 212.757812 "/>
<path style="fill:none;stroke-width:0.8;stroke-linecap:butt;stroke-linejoin:round;stroke:rgb(0%,0%,0%);stroke-opacity:1;stroke-miterlimit:4;" d="M -0.00109863 -0.00117493 L -0.00109863 3.499802 " transform="matrix(1.333333,0,0,1.333333,289.294434,194.400004)"/>
<path style=" stroke:none;fill-rule:nonzero;fill:rgb(0%,0%,0%);fill-opacity:1;" d="M 287.609375 212.757812 L 292.199219 212.757812 L 292.199219 213.863281 L 286.03125 213.863281 L 286.03125 212.757812 C 286.527344 212.242188 287.207031 211.546875 288.070312 210.679688 C 288.933594 209.808594 289.472656 209.246094 289.695312 208.992188 C 290.117188 208.523438 290.410156 208.121094 290.574219 207.792969 C 290.742188 207.464844 290.828125 207.144531 290.828125 206.828125 C 290.828125 206.308594 290.648438 205.890625 290.285156 205.566406 C 289.921875 205.238281 289.449219 205.074219 288.867188 205.074219 C 288.453125 205.074219 288.019531 205.148438 287.5625 205.289062 C 287.105469 205.433594 286.617188 205.648438 286.09375 205.941406 L 286.09375 204.613281 C 286.625 204.398438 287.117188 204.238281 287.578125 204.132812 C 288.039062 204.023438 288.460938 203.96875 288.84375 203.96875 C 289.847656 203.96875 290.652344 204.222656 291.25 204.726562 C 291.847656 205.226562 292.148438 205.898438 292.148438 206.742188 C 292.148438 207.140625 292.074219 207.519531 291.921875 207.878906 C 291.773438 208.234375 291.503906 208.65625 291.105469 209.144531 C 291 209.269531 290.652344 209.632812 290.070312 210.234375 C 289.492188 210.835938 288.671875 211.679688 287.609375 212.757812 Z M 287.609375 212.757812 "/>
<path style="fill:none;stroke-width:0.8;stroke-linecap:butt;stroke-linejoin:round;stroke:rgb(0%,0%,0%);stroke-opacity:1;stroke-miterlimit:4;" d="M -0.000585556 -0.000000000000028422 L -3.498632 -0.000000000000028422 " transform="matrix(1.333333,0,0,1.333333,40.137499,186)"/>
<path style=" stroke:none;fill-rule:nonzero;fill:rgb(0%,0%,0%);fill-opacity:1;" d="M 13.835938 182.210938 C 13.160156 182.210938 12.652344 182.542969 12.308594 183.210938 C 11.96875 183.875 11.800781 184.878906 11.800781 186.214844 C 11.800781 187.546875 11.96875 188.546875 12.308594 189.214844 C 12.652344 189.878906 13.160156 190.214844 13.835938 190.214844 C 14.519531 190.214844 15.03125 189.878906 15.371094 189.214844 C 15.710938 188.546875 15.882812 187.546875 15.882812 186.214844 C 15.882812 184.878906 15.710938 183.875 15.371094 183.210938 C 15.03125 182.542969 14.519531 182.210938 13.835938 182.210938 Z M 13.835938 181.167969 C 14.929688 181.167969 15.761719 181.601562 16.335938 182.464844 C 16.910156 183.324219 17.199219 184.574219 17.199219 186.214844 C 17.199219 187.851562 16.910156 189.101562 16.335938 189.964844 C 15.761719 190.824219 14.929688 191.253906 13.835938 191.253906 C 12.75 191.253906 11.917969 190.824219 11.339844 189.964844 C 10.765625 189.101562 10.480469 187.851562 10.480469 186.214844 C 10.480469 184.574219 10.765625 183.324219 11.339844 182.464844 C 11.917969 181.601562 12.75 181.167969 13.835938 181.167969 Z M 13.835938 181.167969 "/>
<path style=" stroke:none;fill-rule:nonzero;fill:rgb(0%,0%,0%);fill-opacity:1;" d="M 19.507812 189.410156 L 20.882812 189.410156 L 20.882812 191.066406 L 19.507812 191.066406 Z M 19.507812 189.410156 "/>
<path style=" stroke:none;fill-rule:nonzero;fill:rgb(0%,0%,0%);fill-opacity:1;" d="M 26.558594 182.210938 C 25.882812 182.210938 25.375 182.542969 25.03125 183.210938 C 24.691406 183.875 24.519531 184.878906 24.519531 186.214844 C 24.519531 187.546875 24.691406 188.546875 25.03125 189.214844 C 25.375 189.878906 25.882812 190.214844 26.558594 190.214844 C 27.242188 190.214844 27.75 189.878906 28.09375 189.214844 C 28.433594 188.546875 28.605469 187.546875 28.605469 186.214844 C 28.605469 184.878906 28.433594 183.875 28.09375 183.210938 C 27.75 182.542969 27.242188 182.210938 26.558594 182.210938 Z M 26.558594 181.167969 C 27.648438 181.167969 28.480469 181.601562 29.058594 182.464844 C 29.632812 183.324219 29.917969 184.574219 29.917969 186.214844 C 29.917969 187.851562 29.632812 189.101562 29.058594 189.964844 C 28.480469 190.824219 27.648438 191.253906 26.558594 191.253906 C 25.46875 191.253906 24.636719 190.824219 24.0625 189.964844 C 23.488281 189.101562 23.199219 187.851562 23.199219 186.214844 C 23.199219 184.574219 23.488281 183.324219 24.0625 182.464844 C 24.636719 181.601562 25.46875 181.167969 26.558594 181.167969 Z M 26.558594 181.167969 "/>
<path style="fill:none;stroke-width:0.8;stroke-linecap:butt;stroke-linejoin:round;stroke:rgb(0%,0%,0%);stroke-opacity:1;stroke-miterlimit:4;" d="M -0.000585556 -0.00117493 L -3.498632 -0.00117493 " transform="matrix(1.333333,0,0,1.333333,40.137499,152.400004)"/>
<path style=" stroke:none;fill-rule:nonzero;fill:rgb(0%,0%,0%);fill-opacity:1;" d="M 13.835938 148.613281 C 13.160156 148.613281 12.652344 148.945312 12.308594 149.613281 C 11.96875 150.277344 11.800781 151.277344 11.800781 152.617188 C 11.800781 153.949219 11.96875 154.945312 12.308594 155.613281 C 12.652344 156.28125 13.160156 156.613281 13.835938 156.613281 C 14.519531 156.613281 15.03125 156.28125 15.371094 155.613281 C 15.710938 154.945312 15.882812 153.949219 15.882812 152.617188 C 15.882812 151.277344 15.710938 150.277344 15.371094 149.613281 C 15.03125 148.945312 14.519531 148.613281 13.835938 148.613281 Z M 13.835938 147.570312 C 14.929688 147.570312 15.761719 148 16.335938 148.863281 C 16.910156 149.726562 17.199219 150.976562 17.199219 152.617188 C 17.199219 154.25 16.910156 155.5 16.335938 156.363281 C 15.761719 157.226562 14.929688 157.65625 13.835938 157.65625 C 12.75 157.65625 11.917969 157.226562 11.339844 156.363281 C 10.765625 155.5 10.480469 154.25 10.480469 152.617188 C 10.480469 150.976562 10.765625 149.726562 11.339844 148.863281 C 11.917969 148 12.75 147.570312 13.835938 147.570312 Z M 13.835938 147.570312 "/>
<path style=" stroke:none;fill-rule:nonzero;fill:rgb(0%,0%,0%);fill-opacity:1;" d="M 19.507812 155.8125 L 20.882812 155.8125 L 20.882812 157.464844 L 19.507812 157.464844 Z M 19.507812 155.8125 "/>
<path style=" stroke:none;fill-rule:nonzero;fill:rgb(0%,0%,0%);fill-opacity:1;" d="M 24.878906 156.359375 L 29.46875 156.359375 L 29.46875 157.464844 L 23.296875 157.464844 L 23.296875 156.359375 C 23.796875 155.84375 24.476562 155.148438 25.339844 154.28125 C 26.199219 153.410156 26.742188 152.847656 26.964844 152.59375 C 27.382812 152.121094 27.675781 151.722656 27.84375 151.394531 C 28.011719 151.066406 28.097656 150.746094 28.097656 150.429688 C 28.097656 149.910156 27.914062 149.492188 27.550781 149.164062 C 27.191406 148.839844 26.71875 148.675781 26.136719 148.675781 C 25.722656 148.675781 25.289062 148.746094 24.828125 148.890625 C 24.371094 149.035156 23.882812 149.25 23.363281 149.542969 L 23.363281 148.214844 C 23.890625 148 24.386719 147.839844 24.847656 147.730469 C 25.308594 147.625 25.730469 147.570312 26.109375 147.570312 C 27.117188 147.570312 27.921875 147.820312 28.519531 148.324219 C 29.117188 148.828125 29.417969 149.5 29.417969 150.34375 C 29.417969 150.742188 29.34375 151.121094 29.191406 151.480469 C 29.042969 151.835938 28.769531 152.257812 28.375 152.746094 C 28.265625 152.871094 27.921875 153.234375 27.339844 153.835938 C 26.757812 154.4375 25.9375 155.277344 24.878906 156.359375 Z M 24.878906 156.359375 "/>
<path style="fill:none;stroke-width:0.8;stroke-linecap:butt;stroke-linejoin:round;stroke:rgb(0%,0%,0%);stroke-opacity:1;stroke-miterlimit:4;" d="M -0.000585556 0.000587463 L -3.498632 0.000587463 " transform="matrix(1.333333,0,0,1.333333,40.137499,118.799998)"/>
<path style=" stroke:none;fill-rule:nonzero;fill:rgb(0%,0%,0%);fill-opacity:1;" d="M 13.835938 115.011719 C 13.160156 115.011719 12.652344 115.34375 12.308594 116.011719 C 11.96875 116.675781 11.800781 117.679688 11.800781 119.015625 C 11.800781 120.347656 11.96875 121.347656 12.308594 122.011719 C 12.652344 122.679688 13.160156 123.011719 13.835938 123.011719 C 14.519531 123.011719 15.03125 122.679688 15.371094 122.011719 C 15.710938 121.347656 15.882812 120.347656 15.882812 119.015625 C 15.882812 117.679688 15.710938 116.675781 15.371094 116.011719 C 15.03125 115.34375 14.519531 115.011719 13.835938 115.011719 Z M 13.835938 113.96875 C 14.929688 113.96875 15.761719 114.402344 16.335938 115.261719 C 16.910156 116.125 17.199219 117.375 17.199219 119.015625 C 17.199219 120.652344 16.910156 121.902344 16.335938 122.761719 C 15.761719 123.625 14.929688 124.054688 13.835938 124.054688 C 12.75 124.054688 11.917969 123.625 11.339844 122.761719 C 10.765625 121.902344 10.480469 120.652344 10.480469 119.015625 C 10.480469 117.375 10.765625 116.125 11.339844 115.261719 C 11.917969 114.402344 12.75 113.96875 13.835938 113.96875 Z M 13.835938 113.96875 "/>
<path style=" stroke:none;fill-rule:nonzero;fill:rgb(0%,0%,0%);fill-opacity:1;" d="M 19.507812 122.210938 L 20.882812 122.210938 L 20.882812 123.867188 L 19.507812 123.867188 Z M 19.507812 122.210938 "/>
<path style=" stroke:none;fill-rule:nonzero;fill:rgb(0%,0%,0%);fill-opacity:1;" d="M 27.359375 115.289062 L 24.039062 120.480469 L 27.359375 120.480469 Z M 27.015625 114.144531 L 28.667969 114.144531 L 28.667969 120.480469 L 30.058594 120.480469 L 30.058594 121.574219 L 28.667969 121.574219 L 28.667969 123.867188 L 27.359375 123.867188 L 27.359375 121.574219 L 22.972656 121.574219 L 22.972656 120.304688 Z M 27.015625 114.144531 "/>
<path style="fill:none;stroke-width:0.8;stroke-linecap:butt;stroke-linejoin:round;stroke:rgb(0%,0%,0%);stroke-opacity:1;stroke-miterlimit:4;" d="M -0.000585556 -0.000587463 L -3.498632 -0.000587463 " transform="matrix(1.333333,0,0,1.333333,40.137499,85.200002)"/>
<path style=" stroke:none;fill-rule:nonzero;fill:rgb(0%,0%,0%);fill-opacity:1;" d="M 13.835938 81.410156 C 13.160156 81.410156 12.652344 81.746094 12.308594 82.410156 C 11.96875 83.078125 11.800781 84.078125 11.800781 85.414062 C 11.800781 86.746094 11.96875 87.746094 12.308594 88.414062 C 12.652344 89.082031 13.160156 89.414062 13.835938 89.414062 C 14.519531 89.414062 15.03125 89.082031 15.371094 88.414062 C 15.710938 87.746094 15.882812 86.746094 15.882812 85.414062 C 15.882812 84.078125 15.710938 83.078125 15.371094 82.410156 C 15.03125 81.746094 14.519531 81.410156 13.835938 81.410156 Z M 13.835938 80.371094 C 14.929688 80.371094 15.761719 80.800781 16.335938 81.664062 C 16.910156 82.523438 17.199219 83.773438 17.199219 85.414062 C 17.199219 87.050781 16.910156 88.300781 16.335938 89.164062 C 15.761719 90.023438 14.929688 90.457031 13.835938 90.457031 C 12.75 90.457031 11.917969 90.023438 11.339844 89.164062 C 10.765625 88.300781 10.480469 87.050781 10.480469 85.414062 C 10.480469 83.773438 10.765625 82.523438 11.339844 81.664062 C 11.917969 80.800781 12.75 80.371094 13.835938 80.371094 Z M 13.835938 80.371094 "/>
<path style=" stroke:none;fill-rule:nonzero;fill:rgb(0%,0%,0%);fill-opacity:1;" d="M 19.507812 88.613281 L 20.882812 88.613281 L 20.882812 90.265625 L 19.507812 90.265625 Z M 19.507812 88.613281 "/>
<path style=" stroke:none;fill-rule:nonzero;fill:rgb(0%,0%,0%);fill-opacity:1;" d="M 26.722656 84.882812 C 26.132812 84.882812 25.664062 85.085938 25.320312 85.488281 C 24.976562 85.890625 24.800781 86.445312 24.800781 87.148438 C 24.800781 87.84375 24.976562 88.398438 25.320312 88.804688 C 25.664062 89.210938 26.132812 89.414062 26.722656 89.414062 C 27.3125 89.414062 27.78125 89.210938 28.125 88.804688 C 28.46875 88.398438 28.640625 87.84375 28.640625 87.148438 C 28.640625 86.445312 28.46875 85.890625 28.125 85.488281 C 27.78125 85.085938 27.3125 84.882812 26.722656 84.882812 Z M 29.332031 80.757812 L 29.332031 81.957031 C 29.003906 81.800781 28.671875 81.683594 28.332031 81.601562 C 27.996094 81.519531 27.664062 81.476562 27.332031 81.476562 C 26.464844 81.476562 25.800781 81.769531 25.34375 82.355469 C 24.886719 82.941406 24.625 83.828125 24.5625 85.011719 C 24.816406 84.632812 25.136719 84.34375 25.523438 84.144531 C 25.910156 83.941406 26.335938 83.839844 26.800781 83.839844 C 27.777344 83.839844 28.546875 84.136719 29.113281 84.730469 C 29.683594 85.320312 29.964844 86.128906 29.964844 87.148438 C 29.964844 88.144531 29.671875 88.945312 29.078125 89.550781 C 28.488281 90.152344 27.703125 90.457031 26.722656 90.457031 C 25.597656 90.457031 24.738281 90.023438 24.144531 89.164062 C 23.550781 88.300781 23.253906 87.050781 23.253906 85.414062 C 23.253906 83.878906 23.617188 82.65625 24.347656 81.742188 C 25.074219 80.828125 26.054688 80.371094 27.28125 80.371094 C 27.613281 80.371094 27.945312 80.402344 28.28125 80.46875 C 28.617188 80.53125 28.96875 80.628906 29.332031 80.757812 Z M 29.332031 80.757812 "/>
<path style="fill:none;stroke-width:0.8;stroke-linecap:butt;stroke-linejoin:round;stroke:rgb(0%,0%,0%);stroke-opacity:1;stroke-miterlimit:4;" d="M -0.000585556 0.00117111 L -3.498632 0.00117111 " transform="matrix(1.333333,0,0,1.333333,40.137499,51.600001)"/>
<path style=" stroke:none;fill-rule:nonzero;fill:rgb(0%,0%,0%);fill-opacity:1;" d="M 13.835938 47.8125 C 13.160156 47.8125 12.652344 48.144531 12.308594 48.8125 C 11.96875 49.476562 11.800781 50.476562 11.800781 51.816406 C 11.800781 53.148438 11.96875 54.148438 12.308594 54.8125 C 12.652344 55.480469 13.160156 55.8125 13.835938 55.8125 C 14.519531 55.8125 15.03125 55.480469 15.371094 54.8125 C 15.710938 54.148438 15.882812 53.148438 15.882812 51.816406 C 15.882812 50.476562 15.710938 49.476562 15.371094 48.8125 C 15.03125 48.144531 14.519531 47.8125 13.835938 47.8125 Z M 13.835938 46.769531 C 14.929688 46.769531 15.761719 47.199219 16.335938 48.0625 C 16.910156 48.925781 17.199219 50.175781 17.199219 51.816406 C 17.199219 53.453125 16.910156 54.699219 16.335938 55.5625 C 15.761719 56.425781 14.929688 56.855469 13.835938 56.855469 C 12.75 56.855469 11.917969 56.425781 11.339844 55.5625 C 10.765625 54.699219 10.480469 53.453125 10.480469 51.816406 C 10.480469 50.175781 10.765625 48.925781 11.339844 48.0625 C 11.917969 47.199219 12.75 46.769531 13.835938 46.769531 Z M 13.835938 46.769531 "/>
<path style=" stroke:none;fill-rule:nonzero;fill:rgb(0%,0%,0%);fill-opacity:1;" d="M 19.507812 55.011719 L 20.882812 55.011719 L 20.882812 56.664062 L 19.507812 56.664062 Z M 19.507812 55.011719 "/>
<path style=" stroke:none;fill-rule:nonzero;fill:rgb(0%,0%,0%);fill-opacity:1;" d="M 26.558594 52.050781 C 25.933594 52.050781 25.441406 52.214844 25.082031 52.550781 C 24.726562 52.886719 24.546875 53.34375 24.546875 53.929688 C 24.546875 54.515625 24.726562 54.976562 25.082031 55.3125 C 25.441406 55.644531 25.933594 55.8125 26.558594 55.8125 C 27.183594 55.8125 27.675781 55.644531 28.035156 55.308594 C 28.398438 54.972656 28.578125 54.511719 28.578125 53.929688 C 28.578125 53.34375 28.398438 52.886719 28.039062 52.550781 C 27.683594 52.214844 27.1875 52.050781 26.558594 52.050781 Z M 25.246094 51.492188 C 24.679688 51.351562 24.242188 51.089844 23.925781 50.703125 C 23.613281 50.316406 23.453125 49.84375 23.453125 49.289062 C 23.453125 48.511719 23.730469 47.898438 24.285156 47.445312 C 24.839844 46.996094 25.597656 46.769531 26.558594 46.769531 C 27.527344 46.769531 28.285156 46.996094 28.839844 47.445312 C 29.390625 47.898438 29.664062 48.511719 29.664062 49.289062 C 29.664062 49.84375 29.507812 50.316406 29.191406 50.703125 C 28.878906 51.089844 28.441406 51.351562 27.882812 51.492188 C 28.515625 51.636719 29.007812 51.925781 29.359375 52.355469 C 29.714844 52.785156 29.890625 53.3125 29.890625 53.929688 C 29.890625 54.875 29.605469 55.597656 29.03125 56.101562 C 28.453125 56.605469 27.632812 56.855469 26.558594 56.855469 C 25.488281 56.855469 24.664062 56.605469 24.089844 56.101562 C 23.511719 55.597656 23.226562 54.875 23.226562 53.929688 C 23.226562 53.3125 23.402344 52.785156 23.757812 52.355469 C 24.117188 51.925781 24.609375 51.636719 25.246094 51.492188 Z M 24.761719 49.414062 C 24.761719 49.917969 24.921875 50.308594 25.234375 50.589844 C 25.550781 50.871094 25.992188 51.011719 26.558594 51.011719 C 27.125 51.011719 27.566406 50.871094 27.882812 50.589844 C 28.203125 50.308594 28.363281 49.917969 28.363281 49.414062 C 28.363281 48.910156 28.203125 48.515625 27.882812 48.234375 C 27.566406 47.953125 27.125 47.8125 26.558594 47.8125 C 25.992188 47.8125 25.550781 47.953125 25.234375 48.234375 C 24.921875 48.515625 24.761719 48.910156 24.761719 49.414062 Z M 24.761719 49.414062 "/>
<path style="fill:none;stroke-width:0.8;stroke-linecap:butt;stroke-linejoin:round;stroke:rgb(0%,0%,0%);stroke-opacity:1;stroke-miterlimit:4;" d="M -0.000585556 0.000000000000008882 L -3.498632 0.000000000000008882 " transform="matrix(1.333333,0,0,1.333333,40.137499,18)"/>
<path style=" stroke:none;fill-rule:nonzero;fill:rgb(0%,0%,0%);fill-opacity:1;" d="M 11.253906 21.960938 L 13.402344 21.960938 L 13.402344 14.542969 L 11.066406 15.011719 L 11.066406 13.8125 L 13.390625 13.34375 L 14.703125 13.34375 L 14.703125 21.960938 L 16.851562 21.960938 L 16.851562 23.066406 L 11.253906 23.066406 Z M 11.253906 21.960938 "/>
<path style=" stroke:none;fill-rule:nonzero;fill:rgb(0%,0%,0%);fill-opacity:1;" d="M 19.507812 21.410156 L 20.882812 21.410156 L 20.882812 23.066406 L 19.507812 23.066406 Z M 19.507812 21.410156 "/>
<path style=" stroke:none;fill-rule:nonzero;fill:rgb(0%,0%,0%);fill-opacity:1;" d="M 26.558594 14.210938 C 25.882812 14.210938 25.375 14.542969 25.03125 15.210938 C 24.691406 15.875 24.519531 16.878906 24.519531 18.214844 C 24.519531 19.546875 24.691406 20.546875 25.03125 21.214844 C 25.375 21.878906 25.882812 22.214844 26.558594 22.214844 C 27.242188 22.214844 27.75 21.878906 28.09375 21.214844 C 28.433594 20.546875 28.605469 19.546875 28.605469 18.214844 C 28.605469 16.878906 28.433594 15.875 28.09375 15.210938 C 27.75 14.542969 27.242188 14.210938 26.558594 14.210938 Z M 26.558594 13.167969 C 27.648438 13.167969 28.480469 13.601562 29.058594 14.464844 C 29.632812 15.324219 29.917969 16.574219 29.917969 18.214844 C 29.917969 19.851562 29.632812 21.101562 29.058594 21.964844 C 28.480469 22.824219 27.648438 23.253906 26.558594 23.253906 C 25.46875 23.253906 24.636719 22.824219 24.0625 21.964844 C 23.488281 21.101562 23.199219 19.851562 23.199219 18.214844 C 23.199219 16.574219 23.488281 15.324219 24.0625 14.464844 C 24.636719 13.601562 25.46875 13.167969 26.558594 13.167969 Z M 26.558594 13.167969 "/>
<path style="fill:none;stroke-width:1.5;stroke-linecap:square;stroke-linejoin:round;stroke:rgb(0%,0%,0%);stroke-opacity:1;stroke-miterlimit:4;" d="M 38.979492 137.191406 L 42.539062 136.341797 L 45.65625 135.389648 L 48.770508 134.200195 L 51.439453 132.960937 L 54.108398 131.490234 L 56.780273 129.758789 L 59.449219 127.740234 L 62.118164 125.405273 L 64.790039 122.724609 L 67.458984 119.680664 L 70.12793 116.25 L 72.799805 112.423828 L 75.46875 108.19043 L 78.137695 103.558594 L 81.251953 97.664062 L 84.369141 91.274414 L 87.928711 83.449219 L 92.378906 73.060547 L 105.726562 41.370117 L 108.84082 34.769531 L 111.512695 29.62207 L 113.736328 25.763672 L 115.959961 22.359375 L 117.741211 19.992188 L 119.522461 17.967773 L 121.300781 16.303711 L 122.636719 15.301758 L 123.969727 14.516602 L 125.305664 13.954102 L 126.641602 13.614258 L 127.974609 13.5 L 129.310547 13.614258 L 130.646484 13.954102 L 131.979492 14.516602 L 133.31543 15.301758 L 134.651367 16.303711 L 136.429687 17.967773 L 138.210937 19.992188 L 139.989258 22.359375 L 142.21582 25.763672 L 144.439453 29.62207 L 147.108398 34.769531 L 150.225586 41.370117 L 153.785156 49.494141 L 159.123047 62.308594 L 166.6875 80.390625 L 170.692383 89.367188 L 174.251953 96.779297 L 177.369141 102.74707 L 180.483398 108.19043 L 183.152344 112.423828 L 185.821289 116.25 L 188.493164 119.680664 L 191.162109 122.724609 L 193.831055 125.405273 L 196.50293 127.740234 L 199.171875 129.758789 L 201.84082 131.490234 L 204.512695 132.960937 L 207.181641 134.200195 L 210.295898 135.389648 L 213.410156 136.341797 L 216.524414 137.097656 " transform="matrix(1.333333,0,0,1.333333,0,-0.000000000000014211)"/>
<path style="fill:none;stroke-width:0.8;stroke-linecap:square;stroke-linejoin:miter;stroke:rgb(0%,0%,0%);stroke-opacity:1;stroke-miterlimit:4;" d="M 30.102539 145.798828 L 30.102539 7.201172 " transform="matrix(1.333333,0,0,1.333333,0,-0.000000000000014211)"/>
<path style="fill:none;stroke-width:0.8;stroke-linecap:square;stroke-linejoin:miter;stroke:rgb(0%,0%,0%);stroke-opacity:1;stroke-miterlimit:4;" d="M 225.404297 145.798828 L 225.404297 7.201172 " transform="matrix(1.333333,0,0,1.333333,0,-0.000000000000014211)"/>
<path style="fill:none;stroke-width:0.8;stroke-linecap:square;stroke-linejoin:miter;stroke:rgb(0%,0%,0%);stroke-opacity:1;stroke-miterlimit:4;" d="M 30.102539 145.798828 L 225.404297 145.798828 " transform="matrix(1.333333,0,0,1.333333,0,-0.000000000000014211)"/>
<path style="fill:none;stroke-width:0.8;stroke-linecap:square;stroke-linejoin:miter;stroke:rgb(0%,0%,0%);stroke-opacity:1;stroke-miterlimit:4;" d="M 30.102539 7.201172 L 225.404297 7.201172 " transform="matrix(1.333333,0,0,1.333333,0,-0.000000000000014211)"/>
</g>
</svg>
