<?xml version="1.0" encoding="UTF-8"?>
<svg xmlns="http://www.w3.org/2000/svg" xmlns:xlink="http://www.w3.org/1999/xlink" width="335.310425" height="244.474996" viewBox="0 0 335.310425 244.474996" version="1.1">
<defs>
<clipPath id="clip1">
  <path d="M 76 9.601562 L 78 9.601562 L 78 194.398438 L 76 194.398438 Z M 76 9.601562 "/>
</clipPath>
<clipPath id="clip2">
  <path d="M 123 9.601562 L 126 9.601562 L 126 194.398438 L 123 194.398438 Z M 123 9.601562 "/>
</clipPath>
<clipPath id="clip3">
  <path d="M 171 9.601562 L 173 9.601562 L 173 194.398438 L 171 194.398438 Z M 171 9.601562 "/>
</clipPath>
<clipPath id="clip4">
  <path d="M 218 9.601562 L 221 9.601562 L 221 194.398438 L 218 194.398438 Z M 218 9.601562 "/>
</clipPath>
<clipPath id="clip5">
  <path d="M 266 9.601562 L 268 9.601562 L 268 194.398438 L 266 194.398438 Z M 266 9.601562 "/>
</clipPath>
<clipPath id="clip6">
  <path d="M 313 9.601562 L 316 9.601562 L 316 194.398438 L 313 194.398438 Z M 313 9.601562 "/>
</clipPath>
<clipPath id="clip7">
  <path d="M 65.308594 153 L 325.710938 153 L 325.710938 156 L 65.308594 156 Z M 65.308594 153 "/>
</clipPath>
<clipPath id="clip8">
  <path d="M 65.308594 101 L 325.710938 101 L 325.710938 103 L 65.308594 103 Z M 65.308594 101 "/>
</clipPath>
<clipPath id="clip9">
  <path d="M 65.308594 48 L 325.710938 48 L 325.710938 51 L 65.308594 51 Z M 65.308594 48 "/>
</clipPath>
</defs>
<g id="surface1">
<path style=" stroke:none;fill-rule:nonzero;fill:rgb(100%,100%,100%);fill-opacity:1;" d="M 0 244.476562 L 335.308594 244.476562 L 335.308594 0 L 0 0 Z M 0 244.476562 "/>
<path style=" stroke:none;fill-rule:nonzero;fill:rgb(100%,100%,100%);fill-opacity:1;" d="M 65.308594 194.398438 L 325.710938 194.398438 L 325.710938 9.601562 L 65.308594 9.601562 Z M 65.308594 194.398438 "/>
<g clip-path="url(#clip1)" clip-rule="nonzero">
<path style="fill:none;stroke-width:0.8;stroke-linecap:square;stroke-linejoin:round;stroke:rgb(69.01961%,69.01961%,69.01961%);stroke-opacity:1;stroke-miterlimit:4;" d="M 57.861328 145.798828 L 57.861328 7.201172 " transform="matrix(1.333333,0,0,1.333333,0,0.000000000000014211)"/>
</g>
<path style="fill:none;stroke-width:0.8;stroke-linecap:butt;stroke-linejoin:round;stroke:rgb(0%,0%,0%);stroke-opacity:1;stroke-miterlimit:4;" d="M 0.00124359 -0.00117493 L 0.00124359 3.499802 " transform="matrix(1.333333,0,0,1.333333,77.146779,194.400004)"/>
<path style=" stroke:none;fill-rule:nonzero;fill:rgb(0%,0%,0%);fill-opacity:1;" d="M 68.730469 209.132812 L 77.078125 209.132812 L 77.078125 210.238281 L 68.730469 210.238281 Z M 68.730469 209.132812 "/>
<path style=" stroke:none;fill-rule:nonzero;fill:rgb(0%,0%,0%);fill-opacity:1;" d="M 81.050781 212.757812 L 85.636719 212.757812 L 85.636719 213.863281 L 79.46875 213.863281 L 79.46875 212.757812 C 79.964844 212.242188 80.644531 211.546875 81.507812 210.679688 C 82.371094 209.808594 82.910156 209.246094 83.132812 208.992188 C 83.554688 208.523438 83.847656 208.121094 84.011719 207.792969 C 84.179688 207.464844 84.265625 207.144531 84.265625 206.828125 C 84.265625 206.308594 84.085938 205.890625 83.722656 205.566406 C 83.359375 205.238281 82.886719 205.074219 82.304688 205.074219 C 81.894531 205.074219 81.457031 205.148438 81 205.289062 C 80.542969 205.433594 80.054688 205.648438 79.53125 205.941406 L 79.53125 204.613281 C 80.0625 204.398438 80.554688 204.238281 81.015625 204.132812 C 81.476562 204.023438 81.898438 203.96875 82.28125 203.96875 C 83.285156 203.96875 84.089844 204.222656 84.6875 204.726562 C 85.285156 205.226562 85.585938 205.898438 85.585938 206.742188 C 85.585938 207.140625 85.511719 207.519531 85.363281 207.878906 C 85.210938 208.234375 84.941406 208.65625 84.542969 209.144531 C 84.4375 209.269531 84.089844 209.632812 83.507812 210.234375 C 82.929688 210.835938 82.109375 211.679688 81.050781 212.757812 Z M 81.050781 212.757812 "/>
<g clip-path="url(#clip2)" clip-rule="nonzero">
<path style="fill:none;stroke-width:0.8;stroke-linecap:square;stroke-linejoin:round;stroke:rgb(69.01961%,69.01961%,69.01961%);stroke-opacity:1;stroke-miterlimit:4;" d="M 93.439453 145.798828 L 93.439453 7.201172 " transform="matrix(1.333333,0,0,1.333333,0,0.000000000000014211)"/>
</g>
<path style="fill:none;stroke-width:0.8;stroke-linecap:butt;stroke-linejoin:round;stroke:rgb(0%,0%,0%);stroke-opacity:1;stroke-miterlimit:4;" d="M -0.00088501 -0.00117493 L -0.00088501 3.499802 " transform="matrix(1.333333,0,0,1.333333,124.587118,194.400004)"/>
<path style=" stroke:none;fill-rule:nonzero;fill:rgb(0%,0%,0%);fill-opacity:1;" d="M 116.171875 209.132812 L 124.515625 209.132812 L 124.515625 210.238281 L 116.171875 210.238281 Z M 116.171875 209.132812 "/>
<path style=" stroke:none;fill-rule:nonzero;fill:rgb(0%,0%,0%);fill-opacity:1;" d="M 127.585938 212.757812 L 129.734375 212.757812 L 129.734375 205.339844 L 127.394531 205.808594 L 127.394531 204.613281 L 129.71875 204.144531 L 131.035156 204.144531 L 131.035156 212.757812 L 133.183594 212.757812 L 133.183594 213.863281 L 127.585938 213.863281 Z M 127.585938 212.757812 "/>
<g clip-path="url(#clip3)" clip-rule="nonzero">
<path style="fill:none;stroke-width:0.8;stroke-linecap:square;stroke-linejoin:round;stroke:rgb(69.01961%,69.01961%,69.01961%);stroke-opacity:1;stroke-miterlimit:4;" d="M 129.020508 145.798828 L 129.020508 7.201172 " transform="matrix(1.333333,0,0,1.333333,0,0.000000000000014211)"/>
</g>
<path style="fill:none;stroke-width:0.8;stroke-linecap:butt;stroke-linejoin:round;stroke:rgb(0%,0%,0%);stroke-opacity:1;stroke-miterlimit:4;" d="M -0.0000762939 -0.00117493 L -0.0000762939 3.499802 " transform="matrix(1.333333,0,0,1.333333,172.027445,194.400004)"/>
<path style=" stroke:none;fill-rule:nonzero;fill:rgb(0%,0%,0%);fill-opacity:1;" d="M 172.023438 205.011719 C 171.347656 205.011719 170.835938 205.34375 170.496094 206.011719 C 170.15625 206.675781 169.984375 207.675781 169.984375 209.015625 C 169.984375 210.347656 170.15625 211.347656 170.496094 212.011719 C 170.835938 212.679688 171.347656 213.011719 172.023438 213.011719 C 172.707031 213.011719 173.214844 212.679688 173.554688 212.011719 C 173.898438 211.347656 174.070312 210.347656 174.070312 209.015625 C 174.070312 207.675781 173.898438 206.675781 173.554688 206.011719 C 173.214844 205.34375 172.707031 205.011719 172.023438 205.011719 Z M 172.023438 203.96875 C 173.113281 203.96875 173.945312 204.398438 174.519531 205.261719 C 175.097656 206.125 175.382812 207.375 175.382812 209.015625 C 175.382812 210.652344 175.097656 211.898438 174.519531 212.761719 C 173.945312 213.625 173.113281 214.054688 172.023438 214.054688 C 170.933594 214.054688 170.101562 213.625 169.527344 212.761719 C 168.953125 211.898438 168.664062 210.652344 168.664062 209.015625 C 168.664062 207.375 168.953125 206.125 169.527344 205.261719 C 170.101562 204.398438 170.933594 203.96875 172.023438 203.96875 Z M 172.023438 203.96875 "/>
<g clip-path="url(#clip4)" clip-rule="nonzero">
<path style="fill:none;stroke-width:0.8;stroke-linecap:square;stroke-linejoin:round;stroke:rgb(69.01961%,69.01961%,69.01961%);stroke-opacity:1;stroke-miterlimit:4;" d="M 164.601562 145.798828 L 164.601562 7.201172 " transform="matrix(1.333333,0,0,1.333333,0,0.000000000000014211)"/>
</g>
<path style="fill:none;stroke-width:0.8;stroke-linecap:butt;stroke-linejoin:round;stroke:rgb(0%,0%,0%);stroke-opacity:1;stroke-miterlimit:4;" d="M 0.000717163 -0.00117493 L 0.000717163 3.499802 " transform="matrix(1.333333,0,0,1.333333,219.467794,194.400004)"/>
<path style=" stroke:none;fill-rule:nonzero;fill:rgb(0%,0%,0%);fill-opacity:1;" d="M 216.878906 212.757812 L 219.027344 212.757812 L 219.027344 205.339844 L 216.691406 205.808594 L 216.691406 204.613281 L 219.015625 204.144531 L 220.332031 204.144531 L 220.332031 212.757812 L 222.476562 212.757812 L 222.476562 213.863281 L 216.878906 213.863281 Z M 216.878906 212.757812 "/>
<g clip-path="url(#clip5)" clip-rule="nonzero">
<path style="fill:none;stroke-width:0.8;stroke-linecap:square;stroke-linejoin:round;stroke:rgb(69.01961%,69.01961%,69.01961%);stroke-opacity:1;stroke-miterlimit:4;" d="M 200.179688 145.798828 L 200.179688 7.201172 " transform="matrix(1.333333,0,0,1.333333,0,0.000000000000014211)"/>
</g>
<path style="fill:none;stroke-width:0.8;stroke-linecap:butt;stroke-linejoin:round;stroke:rgb(0%,0%,0%);stroke-opacity:1;stroke-miterlimit:4;" d="M -0.00140381 -0.00117493 L -0.00140381 3.499802 " transform="matrix(1.333333,0,0,1.333333,266.908122,194.400004)"/>
<path style=" stroke:none;fill-rule:nonzero;fill:rgb(0%,0%,0%);fill-opacity:1;" d="M 265.226562 212.757812 L 269.8125 212.757812 L 269.8125 213.863281 L 263.644531 213.863281 L 263.644531 212.757812 C 264.140625 212.242188 264.820312 211.546875 265.683594 210.679688 C 266.546875 209.808594 267.085938 209.246094 267.308594 208.992188 C 267.730469 208.523438 268.023438 208.121094 268.1875 207.792969 C 268.359375 207.464844 268.441406 207.144531 268.441406 206.828125 C 268.441406 206.308594 268.261719 205.890625 267.898438 205.566406 C 267.535156 205.238281 267.0625 205.074219 266.480469 205.074219 C 266.070312 205.074219 265.632812 205.148438 265.175781 205.289062 C 264.71875 205.433594 264.230469 205.648438 263.707031 205.941406 L 263.707031 204.613281 C 264.238281 204.398438 264.730469 204.238281 265.191406 204.132812 C 265.652344 204.023438 266.074219 203.96875 266.457031 203.96875 C 267.464844 203.96875 268.265625 204.222656 268.863281 204.726562 C 269.464844 205.226562 269.761719 205.898438 269.761719 206.742188 C 269.761719 207.140625 269.6875 207.519531 269.539062 207.878906 C 269.390625 208.234375 269.117188 208.65625 268.71875 209.144531 C 268.613281 209.269531 268.265625 209.632812 267.683594 210.234375 C 267.105469 210.835938 266.285156 211.679688 265.226562 212.757812 Z M 265.226562 212.757812 "/>
<g clip-path="url(#clip6)" clip-rule="nonzero">
<path style="fill:none;stroke-width:0.8;stroke-linecap:square;stroke-linejoin:round;stroke:rgb(69.01961%,69.01961%,69.01961%);stroke-opacity:1;stroke-miterlimit:4;" d="M 235.760742 145.798828 L 235.760742 7.201172 " transform="matrix(1.333333,0,0,1.333333,0,0.000000000000014211)"/>
</g>
<path style="fill:none;stroke-width:0.8;stroke-linecap:butt;stroke-linejoin:round;stroke:rgb(0%,0%,0%);stroke-opacity:1;stroke-miterlimit:4;" d="M -0.000595093 -0.00117493 L -0.000595093 3.499802 " transform="matrix(1.333333,0,0,1.333333,314.34845,194.400004)"/>
<path style=" stroke:none;fill-rule:nonzero;fill:rgb(0%,0%,0%);fill-opacity:1;" d="M 315.515625 208.621094 C 316.144531 208.757812 316.636719 209.039062 316.988281 209.464844 C 317.34375 209.890625 317.519531 210.414062 317.519531 211.039062 C 317.519531 211.996094 317.191406 212.742188 316.53125 213.265625 C 315.871094 213.792969 314.933594 214.054688 313.71875 214.054688 C 313.3125 214.054688 312.894531 214.015625 312.460938 213.933594 C 312.027344 213.851562 311.582031 213.730469 311.125 213.570312 L 311.125 212.300781 C 311.488281 212.515625 311.886719 212.675781 312.320312 212.785156 C 312.753906 212.890625 313.207031 212.945312 313.683594 212.945312 C 314.503906 212.945312 315.132812 212.785156 315.566406 212.457031 C 315.996094 212.132812 316.214844 211.660156 316.214844 211.039062 C 316.214844 210.464844 316.011719 210.019531 315.609375 209.695312 C 315.210938 209.371094 314.652344 209.210938 313.9375 209.210938 L 312.800781 209.210938 L 312.800781 208.128906 L 313.988281 208.128906 C 314.632812 208.128906 315.128906 208 315.472656 207.742188 C 315.8125 207.484375 315.984375 207.109375 315.984375 206.625 C 315.984375 206.125 315.808594 205.742188 315.453125 205.476562 C 315.101562 205.210938 314.59375 205.074219 313.9375 205.074219 C 313.574219 205.074219 313.1875 205.113281 312.777344 205.195312 C 312.363281 205.273438 311.910156 205.390625 311.414062 205.554688 L 311.414062 204.386719 C 311.914062 204.246094 312.382812 204.140625 312.820312 204.074219 C 313.253906 204.003906 313.667969 203.96875 314.050781 203.96875 C 315.050781 203.96875 315.839844 204.195312 316.421875 204.648438 C 317.003906 205.101562 317.292969 205.714844 317.292969 206.488281 C 317.292969 207.027344 317.140625 207.480469 316.832031 207.851562 C 316.523438 208.222656 316.085938 208.480469 315.515625 208.621094 Z M 315.515625 208.621094 "/>
<path style=" stroke:none;fill-rule:nonzero;fill:rgb(0%,0%,0%);fill-opacity:1;" d="M 198.882812 224.808594 L 196.246094 228.359375 L 199.019531 232.101562 L 197.605469 232.101562 L 195.484375 229.238281 L 193.363281 232.101562 L 191.949219 232.101562 L 194.78125 228.289062 L 192.191406 224.808594 L 193.601562 224.808594 L 195.535156 227.410156 L 197.46875 224.808594 Z M 198.882812 224.808594 "/>
<g clip-path="url(#clip7)" clip-rule="nonzero">
<path style="fill:none;stroke-width:0.8;stroke-linecap:square;stroke-linejoin:round;stroke:rgb(69.01961%,69.01961%,69.01961%);stroke-opacity:1;stroke-miterlimit:4;" d="M 48.981445 115.875 L 244.283203 115.875 " transform="matrix(1.333333,0,0,1.333333,0,0.000000000000014211)"/>
</g>
<path style="fill:none;stroke-width:0.8;stroke-linecap:butt;stroke-linejoin:round;stroke:rgb(0%,0%,0%);stroke-opacity:1;stroke-miterlimit:4;" d="M -0.00136948 -0.000000000000014211 L -3.499416 -0.000000000000014211 " transform="matrix(1.333333,0,0,1.333333,65.31042,154.5)"/>
<path style=" stroke:none;fill-rule:nonzero;fill:rgb(0%,0%,0%);fill-opacity:1;" d="M 29.25 154.832031 L 37.597656 154.832031 L 37.597656 155.9375 L 29.25 155.9375 Z M 29.25 154.832031 "/>
<path style=" stroke:none;fill-rule:nonzero;fill:rgb(0%,0%,0%);fill-opacity:1;" d="M 41.566406 158.460938 L 46.15625 158.460938 L 46.15625 159.566406 L 39.988281 159.566406 L 39.988281 158.460938 C 40.484375 157.941406 41.164062 157.25 42.027344 156.378906 C 42.886719 155.507812 43.429688 154.949219 43.652344 154.695312 C 44.070312 154.222656 44.367188 153.824219 44.53125 153.496094 C 44.699219 153.167969 44.785156 152.84375 44.785156 152.527344 C 44.785156 152.011719 44.601562 151.589844 44.242188 151.265625 C 43.878906 150.9375 43.40625 150.777344 42.824219 150.777344 C 42.410156 150.777344 41.976562 150.847656 41.519531 150.992188 C 41.0625 151.132812 40.570312 151.351562 40.050781 151.644531 L 40.050781 150.3125 C 40.582031 150.101562 41.074219 149.941406 41.535156 149.832031 C 41.996094 149.722656 42.417969 149.667969 42.800781 149.667969 C 43.804688 149.667969 44.609375 149.921875 45.207031 150.425781 C 45.804688 150.929688 46.105469 151.601562 46.105469 152.441406 C 46.105469 152.84375 46.03125 153.222656 45.878906 153.582031 C 45.730469 153.9375 45.460938 154.359375 45.0625 154.84375 C 44.957031 154.972656 44.609375 155.335938 44.027344 155.9375 C 43.449219 156.539062 42.628906 157.378906 41.566406 158.460938 Z M 41.566406 158.460938 "/>
<path style=" stroke:none;fill-rule:nonzero;fill:rgb(0%,0%,0%);fill-opacity:1;" d="M 51.730469 150.710938 C 51.054688 150.710938 50.542969 151.042969 50.203125 151.710938 C 49.863281 152.375 49.691406 153.378906 49.691406 154.714844 C 49.691406 156.046875 49.863281 157.046875 50.203125 157.714844 C 50.542969 158.378906 51.054688 158.714844 51.730469 158.714844 C 52.410156 158.714844 52.921875 158.378906 53.261719 157.714844 C 53.605469 157.046875 53.777344 156.046875 53.777344 154.714844 C 53.777344 153.378906 53.605469 152.375 53.261719 151.710938 C 52.921875 151.042969 52.410156 150.710938 51.730469 150.710938 Z M 51.730469 149.667969 C 52.820312 149.667969 53.652344 150.101562 54.226562 150.964844 C 54.804688 151.824219 55.089844 153.074219 55.089844 154.714844 C 55.089844 156.351562 54.804688 157.601562 54.226562 158.464844 C 53.652344 159.324219 52.820312 159.753906 51.730469 159.753906 C 50.640625 159.753906 49.808594 159.324219 49.234375 158.464844 C 48.660156 157.601562 48.371094 156.351562 48.371094 154.714844 C 48.371094 153.074219 48.660156 151.824219 49.234375 150.964844 C 49.808594 150.101562 50.640625 149.667969 51.730469 149.667969 Z M 51.730469 149.667969 "/>
<g clip-path="url(#clip8)" clip-rule="nonzero">
<path style="fill:none;stroke-width:0.8;stroke-linecap:square;stroke-linejoin:round;stroke:rgb(69.01961%,69.01961%,69.01961%);stroke-opacity:1;stroke-miterlimit:4;" d="M 48.981445 76.5 L 244.283203 76.5 " transform="matrix(1.333333,0,0,1.333333,0,0.000000000000014211)"/>
</g>
<path style="fill:none;stroke-width:0.8;stroke-linecap:butt;stroke-linejoin:round;stroke:rgb(0%,0%,0%);stroke-opacity:1;stroke-miterlimit:4;" d="M -0.00136948 -0.000000000000014211 L -3.499416 -0.000000000000014211 " transform="matrix(1.333333,0,0,1.333333,65.31042,102)"/>
<path style=" stroke:none;fill-rule:nonzero;fill:rgb(0%,0%,0%);fill-opacity:1;" d="M 51.730469 98.210938 C 51.054688 98.210938 50.546875 98.542969 50.203125 99.210938 C 49.863281 99.875 49.695312 100.878906 49.695312 102.214844 C 49.695312 103.546875 49.863281 104.546875 50.203125 105.214844 C 50.546875 105.878906 51.054688 106.214844 51.730469 106.214844 C 52.414062 106.214844 52.925781 105.878906 53.265625 105.214844 C 53.605469 104.546875 53.777344 103.546875 53.777344 102.214844 C 53.777344 100.878906 53.605469 99.875 53.265625 99.210938 C 52.925781 98.542969 52.414062 98.210938 51.730469 98.210938 Z M 51.730469 97.167969 C 52.820312 97.167969 53.652344 97.601562 54.230469 98.464844 C 54.804688 99.324219 55.089844 100.574219 55.089844 102.214844 C 55.089844 103.851562 54.804688 105.101562 54.230469 105.964844 C 53.652344 106.824219 52.820312 107.253906 51.730469 107.253906 C 50.640625 107.253906 49.808594 106.824219 49.234375 105.964844 C 48.660156 105.101562 48.371094 103.851562 48.371094 102.214844 C 48.371094 100.574219 48.660156 99.324219 49.234375 98.464844 C 49.808594 97.601562 50.640625 97.167969 51.730469 97.167969 Z M 51.730469 97.167969 "/>
<g clip-path="url(#clip9)" clip-rule="nonzero">
<path style="fill:none;stroke-width:0.8;stroke-linecap:square;stroke-linejoin:round;stroke:rgb(69.01961%,69.01961%,69.01961%);stroke-opacity:1;stroke-miterlimit:4;" d="M 48.981445 37.125 L 244.283203 37.125 " transform="matrix(1.333333,0,0,1.333333,0,0.000000000000014211)"/>
</g>
<path style="fill:none;stroke-width:0.8;stroke-linecap:butt;stroke-linejoin:round;stroke:rgb(0%,0%,0%);stroke-opacity:1;stroke-miterlimit:4;" d="M -0.00136948 -0.000000000000014211 L -3.499416 -0.000000000000014211 " transform="matrix(1.333333,0,0,1.333333,65.31042,49.5)"/>
<path style=" stroke:none;fill-rule:nonzero;fill:rgb(0%,0%,0%);fill-opacity:1;" d="M 41.570312 53.460938 L 46.160156 53.460938 L 46.160156 54.566406 L 39.988281 54.566406 L 39.988281 53.460938 C 40.484375 52.941406 41.164062 52.25 42.027344 51.378906 C 42.890625 50.507812 43.429688 49.949219 43.652344 49.695312 C 44.074219 49.222656 44.367188 48.824219 44.535156 48.496094 C 44.703125 48.167969 44.785156 47.84375 44.785156 47.527344 C 44.785156 47.011719 44.605469 46.589844 44.242188 46.265625 C 43.878906 45.9375 43.40625 45.777344 42.824219 45.777344 C 42.414062 45.777344 41.976562 45.847656 41.519531 45.992188 C 41.0625 46.132812 40.574219 46.351562 40.050781 46.644531 L 40.050781 45.3125 C 40.582031 45.101562 41.074219 44.941406 41.535156 44.832031 C 41.996094 44.722656 42.417969 44.667969 42.800781 44.667969 C 43.808594 44.667969 44.609375 44.921875 45.207031 45.425781 C 45.808594 45.929688 46.105469 46.601562 46.105469 47.441406 C 46.105469 47.84375 46.03125 48.222656 45.882812 48.582031 C 45.734375 48.9375 45.460938 49.359375 45.066406 49.84375 C 44.957031 49.972656 44.609375 50.335938 44.027344 50.9375 C 43.449219 51.539062 42.628906 52.378906 41.570312 53.460938 Z M 41.570312 53.460938 "/>
<path style=" stroke:none;fill-rule:nonzero;fill:rgb(0%,0%,0%);fill-opacity:1;" d="M 51.730469 45.710938 C 51.054688 45.710938 50.546875 46.042969 50.203125 46.710938 C 49.863281 47.375 49.695312 48.378906 49.695312 49.714844 C 49.695312 51.046875 49.863281 52.046875 50.203125 52.714844 C 50.546875 53.378906 51.054688 53.714844 51.730469 53.714844 C 52.414062 53.714844 52.925781 53.378906 53.265625 52.714844 C 53.605469 52.046875 53.777344 51.046875 53.777344 49.714844 C 53.777344 48.378906 53.605469 47.375 53.265625 46.710938 C 52.925781 46.042969 52.414062 45.710938 51.730469 45.710938 Z M 51.730469 44.667969 C 52.820312 44.667969 53.652344 45.101562 54.230469 45.964844 C 54.804688 46.824219 55.089844 48.074219 55.089844 49.714844 C 55.089844 51.351562 54.804688 52.601562 54.230469 53.464844 C 53.652344 54.324219 52.820312 54.753906 51.730469 54.753906 C 50.640625 54.753906 49.808594 54.324219 49.234375 53.464844 C 48.660156 52.601562 48.371094 51.351562 48.371094 49.714844 C 48.371094 48.074219 48.660156 46.824219 49.234375 45.964844 C 49.808594 45.101562 50.640625 44.667969 51.730469 44.667969 Z M 51.730469 44.667969 "/>
<path style=" stroke:none;fill-rule:nonzero;fill:rgb(0%,0%,0%);fill-opacity:1;" d="M 9.601562 108.546875 L 10.597656 108.546875 L 10.597656 109.691406 C 10.597656 110.121094 10.683594 110.421875 10.859375 110.589844 C 11.03125 110.753906 11.34375 110.839844 11.796875 110.839844 L 12.441406 110.839844 L 12.441406 108.867188 L 13.371094 108.867188 L 13.371094 110.839844 L 19.730469 110.839844 L 19.730469 112.042969 L 13.371094 112.042969 L 13.371094 113.1875 L 12.441406 113.1875 L 12.441406 112.042969 L 11.929688 112.042969 C 11.121094 112.042969 10.527344 111.855469 10.160156 111.476562 C 9.785156 111.097656 9.601562 110.5 9.601562 109.679688 Z M 9.601562 108.546875 "/>
<path style=" stroke:none;fill-rule:nonzero;fill:rgb(0%,0%,0%);fill-opacity:1;" d="M 9.613281 104.667969 C 10.613281 105.246094 11.597656 105.679688 12.578125 105.964844 C 13.554688 106.246094 14.542969 106.386719 15.546875 106.386719 C 16.546875 106.386719 17.539062 106.242188 18.523438 105.960938 C 19.507812 105.675781 20.496094 105.242188 21.488281 104.667969 L 21.488281 105.710938 C 20.46875 106.359375 19.464844 106.847656 18.480469 107.167969 C 17.496094 107.492188 16.519531 107.65625 15.546875 107.65625 C 14.578125 107.65625 13.601562 107.496094 12.621094 107.171875 C 11.640625 106.851562 10.636719 106.363281 9.613281 105.710938 Z M 9.613281 104.667969 "/>
<path style=" stroke:none;fill-rule:nonzero;fill:rgb(0%,0%,0%);fill-opacity:1;" d="M 12.441406 96.28125 L 15.988281 98.917969 L 19.730469 96.144531 L 19.730469 97.558594 L 16.867188 99.679688 L 19.730469 101.800781 L 19.730469 103.214844 L 15.917969 100.382812 L 12.441406 102.972656 L 12.441406 101.5625 L 15.039062 99.628906 L 12.441406 97.695312 Z M 12.441406 96.28125 "/>
<path style=" stroke:none;fill-rule:nonzero;fill:rgb(0%,0%,0%);fill-opacity:1;" d="M 9.613281 94.640625 L 9.613281 93.597656 C 10.636719 92.949219 11.640625 92.460938 12.621094 92.136719 C 13.601562 91.8125 14.578125 91.652344 15.546875 91.652344 C 16.519531 91.652344 17.496094 91.8125 18.480469 92.136719 C 19.464844 92.460938 20.46875 92.949219 21.488281 93.597656 L 21.488281 94.640625 C 20.496094 94.0625 19.507812 93.632812 18.523438 93.347656 C 17.539062 93.0625 16.546875 92.921875 15.546875 92.921875 C 14.542969 92.921875 13.554688 93.0625 12.578125 93.347656 C 11.597656 93.632812 10.613281 94.0625 9.613281 94.640625 Z M 9.613281 94.640625 "/>
<path style="fill:none;stroke-width:1.5;stroke-linecap:square;stroke-linejoin:round;stroke:rgb(12.156863%,46.666667%,70.588237%);stroke-opacity:1;stroke-miterlimit:4;" d="M 57.861328 13.5 L 59.994141 24.257812 L 62.129883 33.893555 L 64.265625 42.477539 L 66.398438 50.077148 L 68.53418 56.756836 L 70.3125 61.666992 L 72.09082 66.017578 L 73.87207 69.84375 L 75.650391 73.177734 L 77.428711 76.054687 L 79.207031 78.506836 L 80.988281 80.563477 L 82.766602 82.256836 L 84.544922 83.613281 L 86.323242 84.665039 L 88.104492 85.438477 L 89.882812 85.957031 L 91.661133 86.25 L 93.439453 86.34375 L 95.575195 86.223633 L 97.710938 85.886719 L 100.201172 85.271484 L 103.045898 84.348633 L 106.959961 82.831055 L 116.923828 78.84375 L 120.125977 77.830078 L 122.970703 77.138672 L 125.818359 76.68457 L 128.308594 76.508789 L 130.798828 76.558594 L 133.289062 76.851562 L 135.782227 77.399414 L 138.272461 78.208008 L 140.762695 79.286133 L 143.25293 80.633789 L 145.743164 82.248047 L 148.233398 84.125977 L 151.081055 86.586914 L 153.925781 89.358398 L 157.12793 92.827148 L 160.330078 96.621094 L 164.244141 101.62207 L 169.227539 108.398437 L 180.612305 124.072266 L 184.168945 128.493164 L 187.016602 131.680664 L 189.506836 134.135742 L 191.642578 135.943359 L 193.420898 137.203125 L 195.199219 138.216797 L 196.977539 138.955078 L 198.401367 139.327148 L 199.825195 139.494141 L 201.249023 139.435547 L 202.672852 139.139648 L 204.09375 138.588867 L 205.517578 137.768555 L 206.941406 136.664062 L 208.365234 135.254883 L 209.789062 133.526367 L 211.209961 131.460938 L 212.633789 129.041016 L 214.057617 126.249023 L 215.835938 122.203125 L 217.614258 117.509766 L 219.395508 112.130859 L 221.173828 106.025391 L 222.952148 99.158203 L 224.730469 91.482422 L 226.866211 81.152344 L 229.001953 69.530273 L 231.134766 56.542969 L 233.270508 42.111328 L 235.40625 26.15625 " transform="matrix(1.333333,0,0,1.333333,0,0.000000000000014211)"/>
<path style="fill:none;stroke-width:0.8;stroke-linecap:square;stroke-linejoin:miter;stroke:rgb(0%,0%,0%);stroke-opacity:1;stroke-miterlimit:4;" d="M 48.981445 145.798828 L 48.981445 7.201172 " transform="matrix(1.333333,0,0,1.333333,0,0.000000000000014211)"/>
<path style="fill:none;stroke-width:0.8;stroke-linecap:square;stroke-linejoin:miter;stroke:rgb(0%,0%,0%);stroke-opacity:1;stroke-miterlimit:4;" d="M 244.283203 145.798828 L 244.283203 7.201172 " transform="matrix(1.333333,0,0,1.333333,0,0.000000000000014211)"/>
<path style="fill:none;stroke-width:0.8;stroke-linecap:square;stroke-linejoin:miter;stroke:rgb(0%,0%,0%);stroke-opacity:1;stroke-miterlimit:4;" d="M 48.981445 145.798828 L 244.283203 145.798828 " transform="matrix(1.333333,0,0,1.333333,0,0.000000000000014211)"/>
<path style="fill:none;stroke-width:0.8;stroke-linecap:square;stroke-linejoin:miter;stroke:rgb(0%,0%,0%);stroke-opacity:1;stroke-miterlimit:4;" d="M 48.981445 7.201172 L 244.283203 7.201172 " transform="matrix(1.333333,0,0,1.333333,0,0.000000000000014211)"/>
</g>
</svg>
