<?xml version="1.0" encoding="UTF-8"?>
<svg xmlns="http://www.w3.org/2000/svg" xmlns:xlink="http://www.w3.org/1999/xlink" width="328.375" height="244.474996" viewBox="0 0 328.375 244.474996" version="1.1">
<g id="surface1">
<path style=" stroke:none;fill-rule:nonzero;fill:rgb(100%,100%,100%);fill-opacity:1;" d="M 0 244.476562 L 328.375 244.476562 L 328.375 0 L 0 0 Z M 0 244.476562 "/>
<path style=" stroke:none;fill-rule:nonzero;fill:rgb(100%,100%,100%);fill-opacity:1;" d="M 58.375 194.398438 L 318.773438 194.398438 L 318.773438 9.601562 L 58.375 9.601562 Z M 58.375 194.398438 "/>
<path style="fill:none;stroke-width:0.8;stroke-linecap:butt;stroke-linejoin:round;stroke:rgb(0%,0%,0%);stroke-opacity:1;stroke-miterlimit:4;" d="M -0.000320435 -0.00117493 L -0.000320435 3.499802 " transform="matrix(1.333333,0,0,1.333333,70.211365,194.400004)"/>
<path style=" stroke:none;fill-rule:nonzero;fill:rgb(0%,0%,0%);fill-opacity:1;" d="M 63.847656 205.011719 C 63.171875 205.011719 62.660156 205.34375 62.320312 206.011719 C 61.980469 206.675781 61.808594 207.675781 61.808594 209.015625 C 61.808594 210.347656 61.980469 211.347656 62.320312 212.011719 C 62.660156 212.679688 63.171875 213.011719 63.847656 213.011719 C 64.527344 213.011719 65.039062 212.679688 65.378906 212.011719 C 65.722656 211.347656 65.894531 210.347656 65.894531 209.015625 C 65.894531 207.675781 65.722656 206.675781 65.378906 206.011719 C 65.039062 205.34375 64.527344 205.011719 63.847656 205.011719 Z M 63.847656 203.96875 C 64.9375 203.96875 65.769531 204.398438 66.34375 205.261719 C 66.917969 206.125 67.207031 207.375 67.207031 209.015625 C 67.207031 210.652344 66.917969 211.898438 66.34375 212.761719 C 65.769531 213.625 64.9375 214.054688 63.847656 214.054688 C 62.757812 214.054688 61.925781 213.625 61.351562 212.761719 C 60.777344 211.898438 60.488281 210.652344 60.488281 209.015625 C 60.488281 207.375 60.777344 206.125 61.351562 205.261719 C 61.925781 204.398438 62.757812 203.96875 63.847656 203.96875 Z M 63.847656 203.96875 "/>
<path style=" stroke:none;fill-rule:nonzero;fill:rgb(0%,0%,0%);fill-opacity:1;" d="M 69.515625 212.210938 L 70.890625 212.210938 L 70.890625 213.863281 L 69.515625 213.863281 Z M 69.515625 212.210938 "/>
<path style=" stroke:none;fill-rule:nonzero;fill:rgb(0%,0%,0%);fill-opacity:1;" d="M 76.566406 205.011719 C 75.890625 205.011719 75.382812 205.34375 75.042969 206.011719 C 74.699219 206.675781 74.53125 207.675781 74.53125 209.015625 C 74.53125 210.347656 74.699219 211.347656 75.042969 212.011719 C 75.382812 212.679688 75.890625 213.011719 76.566406 213.011719 C 77.25 213.011719 77.761719 212.679688 78.101562 212.011719 C 78.441406 211.347656 78.613281 210.347656 78.613281 209.015625 C 78.613281 207.675781 78.441406 206.675781 78.101562 206.011719 C 77.761719 205.34375 77.25 205.011719 76.566406 205.011719 Z M 76.566406 203.96875 C 77.660156 203.96875 78.492188 204.398438 79.066406 205.261719 C 79.640625 206.125 79.929688 207.375 79.929688 209.015625 C 79.929688 210.652344 79.640625 211.898438 79.066406 212.761719 C 78.492188 213.625 77.660156 214.054688 76.566406 214.054688 C 75.480469 214.054688 74.648438 213.625 74.074219 212.761719 C 73.496094 211.898438 73.210938 210.652344 73.210938 209.015625 C 73.210938 207.375 73.496094 206.125 74.074219 205.261719 C 74.648438 204.398438 75.480469 203.96875 76.566406 203.96875 Z M 76.566406 203.96875 "/>
<path style="fill:none;stroke-width:0.8;stroke-linecap:butt;stroke-linejoin:round;stroke:rgb(0%,0%,0%);stroke-opacity:1;stroke-miterlimit:4;" d="M 0.00132751 -0.00117493 L 0.00132751 3.499802 " transform="matrix(1.333333,0,0,1.333333,117.556824,194.400004)"/>
<path style=" stroke:none;fill-rule:nonzero;fill:rgb(0%,0%,0%);fill-opacity:1;" d="M 111.191406 205.011719 C 110.515625 205.011719 110.007812 205.34375 109.664062 206.011719 C 109.324219 206.675781 109.15625 207.675781 109.15625 209.015625 C 109.15625 210.347656 109.324219 211.347656 109.664062 212.011719 C 110.007812 212.679688 110.515625 213.011719 111.191406 213.011719 C 111.875 213.011719 112.386719 212.679688 112.726562 212.011719 C 113.066406 211.347656 113.238281 210.347656 113.238281 209.015625 C 113.238281 207.675781 113.066406 206.675781 112.726562 206.011719 C 112.386719 205.34375 111.875 205.011719 111.191406 205.011719 Z M 111.191406 203.96875 C 112.28125 203.96875 113.113281 204.398438 113.691406 205.261719 C 114.265625 206.125 114.550781 207.375 114.550781 209.015625 C 114.550781 210.652344 114.265625 211.898438 113.691406 212.761719 C 113.113281 213.625 112.28125 214.054688 111.191406 214.054688 C 110.101562 214.054688 109.269531 213.625 108.695312 212.761719 C 108.121094 211.898438 107.832031 210.652344 107.832031 209.015625 C 107.832031 207.375 108.121094 206.125 108.695312 205.261719 C 109.269531 204.398438 110.101562 203.96875 111.191406 203.96875 Z M 111.191406 203.96875 "/>
<path style=" stroke:none;fill-rule:nonzero;fill:rgb(0%,0%,0%);fill-opacity:1;" d="M 116.863281 212.210938 L 118.238281 212.210938 L 118.238281 213.863281 L 116.863281 213.863281 Z M 116.863281 212.210938 "/>
<path style=" stroke:none;fill-rule:nonzero;fill:rgb(0%,0%,0%);fill-opacity:1;" d="M 122.234375 212.757812 L 126.824219 212.757812 L 126.824219 213.863281 L 120.652344 213.863281 L 120.652344 212.757812 C 121.152344 212.242188 121.832031 211.546875 122.691406 210.679688 C 123.554688 209.808594 124.097656 209.246094 124.316406 208.992188 C 124.738281 208.523438 125.03125 208.121094 125.199219 207.792969 C 125.367188 207.464844 125.449219 207.144531 125.449219 206.828125 C 125.449219 206.308594 125.269531 205.890625 124.90625 205.566406 C 124.542969 205.238281 124.074219 205.074219 123.492188 205.074219 C 123.078125 205.074219 122.644531 205.148438 122.183594 205.289062 C 121.726562 205.433594 121.238281 205.648438 120.71875 205.941406 L 120.71875 204.613281 C 121.246094 204.398438 121.742188 204.238281 122.199219 204.132812 C 122.664062 204.023438 123.082031 203.96875 123.464844 203.96875 C 124.472656 203.96875 125.277344 204.222656 125.875 204.726562 C 126.472656 205.226562 126.773438 205.898438 126.773438 206.742188 C 126.773438 207.140625 126.695312 207.519531 126.546875 207.878906 C 126.398438 208.234375 126.125 208.65625 125.730469 209.144531 C 125.621094 209.269531 125.277344 209.632812 124.695312 210.234375 C 124.113281 210.835938 123.292969 211.679688 122.234375 212.757812 Z M 122.234375 212.757812 "/>
<path style="fill:none;stroke-width:0.8;stroke-linecap:butt;stroke-linejoin:round;stroke:rgb(0%,0%,0%);stroke-opacity:1;stroke-miterlimit:4;" d="M 0.0000534058 -0.00117493 L 0.0000534058 3.499802 " transform="matrix(1.333333,0,0,1.333333,164.902273,194.400004)"/>
<path style=" stroke:none;fill-rule:nonzero;fill:rgb(0%,0%,0%);fill-opacity:1;" d="M 158.539062 205.011719 C 157.859375 205.011719 157.351562 205.34375 157.011719 206.011719 C 156.671875 206.675781 156.5 207.675781 156.5 209.015625 C 156.5 210.347656 156.671875 211.347656 157.011719 212.011719 C 157.351562 212.679688 157.859375 213.011719 158.539062 213.011719 C 159.21875 213.011719 159.730469 212.679688 160.070312 212.011719 C 160.414062 211.347656 160.582031 210.347656 160.582031 209.015625 C 160.582031 207.675781 160.414062 206.675781 160.070312 206.011719 C 159.730469 205.34375 159.21875 205.011719 158.539062 205.011719 Z M 158.539062 203.96875 C 159.628906 203.96875 160.460938 204.398438 161.035156 205.261719 C 161.609375 206.125 161.898438 207.375 161.898438 209.015625 C 161.898438 210.652344 161.609375 211.898438 161.035156 212.761719 C 160.460938 213.625 159.628906 214.054688 158.539062 214.054688 C 157.449219 214.054688 156.617188 213.625 156.042969 212.761719 C 155.46875 211.898438 155.179688 210.652344 155.179688 209.015625 C 155.179688 207.375 155.46875 206.125 156.042969 205.261719 C 156.617188 204.398438 157.449219 203.96875 158.539062 203.96875 Z M 158.539062 203.96875 "/>
<path style=" stroke:none;fill-rule:nonzero;fill:rgb(0%,0%,0%);fill-opacity:1;" d="M 164.207031 212.210938 L 165.582031 212.210938 L 165.582031 213.863281 L 164.207031 213.863281 Z M 164.207031 212.210938 "/>
<path style=" stroke:none;fill-rule:nonzero;fill:rgb(0%,0%,0%);fill-opacity:1;" d="M 172.0625 205.289062 L 168.742188 210.480469 L 172.0625 210.480469 Z M 171.714844 204.144531 L 173.371094 204.144531 L 173.371094 210.480469 L 174.757812 210.480469 L 174.757812 211.574219 L 173.371094 211.574219 L 173.371094 213.863281 L 172.0625 213.863281 L 172.0625 211.574219 L 167.671875 211.574219 L 167.671875 210.304688 Z M 171.714844 204.144531 "/>
<path style="fill:none;stroke-width:0.8;stroke-linecap:butt;stroke-linejoin:round;stroke:rgb(0%,0%,0%);stroke-opacity:1;stroke-miterlimit:4;" d="M -0.0012207 -0.00117493 L -0.0012207 3.499802 " transform="matrix(1.333333,0,0,1.333333,212.247721,194.400004)"/>
<path style=" stroke:none;fill-rule:nonzero;fill:rgb(0%,0%,0%);fill-opacity:1;" d="M 205.882812 205.011719 C 205.207031 205.011719 204.699219 205.34375 204.355469 206.011719 C 204.015625 206.675781 203.84375 207.675781 203.84375 209.015625 C 203.84375 210.347656 204.015625 211.347656 204.355469 212.011719 C 204.699219 212.679688 205.207031 213.011719 205.882812 213.011719 C 206.566406 213.011719 207.078125 212.679688 207.417969 212.011719 C 207.757812 211.347656 207.929688 210.347656 207.929688 209.015625 C 207.929688 207.675781 207.757812 206.675781 207.417969 206.011719 C 207.078125 205.34375 206.566406 205.011719 205.882812 205.011719 Z M 205.882812 203.96875 C 206.972656 203.96875 207.804688 204.398438 208.382812 205.261719 C 208.957031 206.125 209.242188 207.375 209.242188 209.015625 C 209.242188 210.652344 208.957031 211.898438 208.382812 212.761719 C 207.804688 213.625 206.972656 214.054688 205.882812 214.054688 C 204.792969 214.054688 203.960938 213.625 203.386719 212.761719 C 202.8125 211.898438 202.523438 210.652344 202.523438 209.015625 C 202.523438 207.375 202.8125 206.125 203.386719 205.261719 C 203.960938 204.398438 204.792969 203.96875 205.882812 203.96875 Z M 205.882812 203.96875 "/>
<path style=" stroke:none;fill-rule:nonzero;fill:rgb(0%,0%,0%);fill-opacity:1;" d="M 211.554688 212.210938 L 212.929688 212.210938 L 212.929688 213.863281 L 211.554688 213.863281 Z M 211.554688 212.210938 "/>
<path style=" stroke:none;fill-rule:nonzero;fill:rgb(0%,0%,0%);fill-opacity:1;" d="M 218.769531 208.480469 C 218.179688 208.480469 217.710938 208.683594 217.363281 209.085938 C 217.019531 209.492188 216.847656 210.042969 216.847656 210.746094 C 216.847656 211.445312 217.019531 211.996094 217.363281 212.402344 C 217.710938 212.808594 218.179688 213.011719 218.769531 213.011719 C 219.359375 213.011719 219.828125 212.808594 220.171875 212.402344 C 220.515625 211.996094 220.6875 211.445312 220.6875 210.746094 C 220.6875 210.042969 220.515625 209.492188 220.171875 209.085938 C 219.828125 208.683594 219.359375 208.480469 218.769531 208.480469 Z M 221.378906 204.359375 L 221.378906 205.554688 C 221.050781 205.402344 220.714844 205.28125 220.378906 205.199219 C 220.042969 205.117188 219.710938 205.074219 219.378906 205.074219 C 218.511719 205.074219 217.847656 205.367188 217.390625 205.953125 C 216.933594 206.539062 216.671875 207.425781 216.605469 208.609375 C 216.863281 208.234375 217.183594 207.941406 217.570312 207.742188 C 217.957031 207.539062 218.382812 207.441406 218.847656 207.441406 C 219.824219 207.441406 220.59375 207.734375 221.160156 208.328125 C 221.726562 208.921875 222.011719 209.726562 222.011719 210.746094 C 222.011719 211.746094 221.714844 212.546875 221.125 213.148438 C 220.535156 213.753906 219.75 214.054688 218.769531 214.054688 C 217.644531 214.054688 216.785156 213.625 216.191406 212.761719 C 215.59375 211.898438 215.296875 210.652344 215.296875 209.015625 C 215.296875 207.476562 215.664062 206.253906 216.390625 205.339844 C 217.121094 204.425781 218.101562 203.96875 219.328125 203.96875 C 219.65625 203.96875 219.992188 204 220.328125 204.066406 C 220.664062 204.132812 221.015625 204.230469 221.378906 204.359375 Z M 221.378906 204.359375 "/>
<path style="fill:none;stroke-width:0.8;stroke-linecap:butt;stroke-linejoin:round;stroke:rgb(0%,0%,0%);stroke-opacity:1;stroke-miterlimit:4;" d="M 0.000427246 -0.00117493 L 0.000427246 3.499802 " transform="matrix(1.333333,0,0,1.333333,259.59318,194.400004)"/>
<path style=" stroke:none;fill-rule:nonzero;fill:rgb(0%,0%,0%);fill-opacity:1;" d="M 253.230469 205.011719 C 252.550781 205.011719 252.042969 205.34375 251.703125 206.011719 C 251.359375 206.675781 251.191406 207.675781 251.191406 209.015625 C 251.191406 210.347656 251.359375 211.347656 251.703125 212.011719 C 252.042969 212.679688 252.550781 213.011719 253.230469 213.011719 C 253.910156 213.011719 254.421875 212.679688 254.761719 212.011719 C 255.105469 211.347656 255.273438 210.347656 255.273438 209.015625 C 255.273438 207.675781 255.105469 206.675781 254.761719 206.011719 C 254.421875 205.34375 253.910156 205.011719 253.230469 205.011719 Z M 253.230469 203.96875 C 254.320312 203.96875 255.152344 204.398438 255.726562 205.261719 C 256.300781 206.125 256.589844 207.375 256.589844 209.015625 C 256.589844 210.652344 256.300781 211.898438 255.726562 212.761719 C 255.152344 213.625 254.320312 214.054688 253.230469 214.054688 C 252.140625 214.054688 251.308594 213.625 250.734375 212.761719 C 250.15625 211.898438 249.871094 210.652344 249.871094 209.015625 C 249.871094 207.375 250.15625 206.125 250.734375 205.261719 C 251.308594 204.398438 252.140625 203.96875 253.230469 203.96875 Z M 253.230469 203.96875 "/>
<path style=" stroke:none;fill-rule:nonzero;fill:rgb(0%,0%,0%);fill-opacity:1;" d="M 258.898438 212.210938 L 260.273438 212.210938 L 260.273438 213.863281 L 258.898438 213.863281 Z M 258.898438 212.210938 "/>
<path style=" stroke:none;fill-rule:nonzero;fill:rgb(0%,0%,0%);fill-opacity:1;" d="M 265.949219 209.246094 C 265.324219 209.246094 264.832031 209.414062 264.476562 209.75 C 264.117188 210.085938 263.941406 210.542969 263.941406 211.128906 C 263.941406 211.714844 264.117188 212.175781 264.476562 212.511719 C 264.832031 212.84375 265.324219 213.011719 265.949219 213.011719 C 266.574219 213.011719 267.066406 212.84375 267.425781 212.507812 C 267.789062 212.171875 267.96875 211.710938 267.96875 211.128906 C 267.96875 210.542969 267.789062 210.085938 267.429688 209.75 C 267.074219 209.414062 266.582031 209.246094 265.949219 209.246094 Z M 264.636719 208.691406 C 264.070312 208.550781 263.632812 208.289062 263.316406 207.902344 C 263.003906 207.515625 262.847656 207.042969 262.847656 206.488281 C 262.847656 205.710938 263.121094 205.097656 263.675781 204.644531 C 264.230469 204.195312 264.988281 203.96875 265.949219 203.96875 C 266.917969 203.96875 267.675781 204.195312 268.230469 204.644531 C 268.78125 205.097656 269.054688 205.710938 269.054688 206.488281 C 269.054688 207.042969 268.898438 207.515625 268.582031 207.902344 C 268.269531 208.289062 267.832031 208.550781 267.273438 208.691406 C 267.90625 208.835938 268.398438 209.125 268.753906 209.554688 C 269.105469 209.984375 269.285156 210.507812 269.285156 211.128906 C 269.285156 212.070312 268.996094 212.796875 268.421875 213.300781 C 267.847656 213.804688 267.023438 214.054688 265.949219 214.054688 C 264.878906 214.054688 264.054688 213.804688 263.480469 213.300781 C 262.902344 212.796875 262.617188 212.070312 262.617188 211.128906 C 262.617188 210.507812 262.792969 209.984375 263.148438 209.554688 C 263.507812 209.125 264.003906 208.835938 264.636719 208.691406 Z M 264.152344 206.613281 C 264.152344 207.117188 264.3125 207.507812 264.625 207.789062 C 264.941406 208.070312 265.382812 208.210938 265.949219 208.210938 C 266.515625 208.210938 266.957031 208.070312 267.273438 207.789062 C 267.59375 207.507812 267.753906 207.117188 267.753906 206.613281 C 267.753906 206.109375 267.59375 205.714844 267.273438 205.433594 C 266.957031 205.152344 266.515625 205.011719 265.949219 205.011719 C 265.382812 205.011719 264.941406 205.152344 264.625 205.433594 C 264.3125 205.714844 264.152344 206.109375 264.152344 206.613281 Z M 264.152344 206.613281 "/>
<path style="fill:none;stroke-width:0.8;stroke-linecap:butt;stroke-linejoin:round;stroke:rgb(0%,0%,0%);stroke-opacity:1;stroke-miterlimit:4;" d="M -0.000854492 -0.00117493 L -0.000854492 3.499802 " transform="matrix(1.333333,0,0,1.333333,306.938639,194.400004)"/>
<path style=" stroke:none;fill-rule:nonzero;fill:rgb(0%,0%,0%);fill-opacity:1;" d="M 297.992188 212.757812 L 300.136719 212.757812 L 300.136719 205.339844 L 297.800781 205.808594 L 297.800781 204.613281 L 300.125 204.144531 L 301.441406 204.144531 L 301.441406 212.757812 L 303.589844 212.757812 L 303.589844 213.863281 L 297.992188 213.863281 Z M 297.992188 212.757812 "/>
<path style=" stroke:none;fill-rule:nonzero;fill:rgb(0%,0%,0%);fill-opacity:1;" d="M 306.246094 212.210938 L 307.621094 212.210938 L 307.621094 213.863281 L 306.246094 213.863281 Z M 306.246094 212.210938 "/>
<path style=" stroke:none;fill-rule:nonzero;fill:rgb(0%,0%,0%);fill-opacity:1;" d="M 313.296875 205.011719 C 312.617188 205.011719 312.109375 205.34375 311.769531 206.011719 C 311.429688 206.675781 311.257812 207.675781 311.257812 209.015625 C 311.257812 210.347656 311.429688 211.347656 311.769531 212.011719 C 312.109375 212.679688 312.617188 213.011719 313.296875 213.011719 C 313.976562 213.011719 314.488281 212.679688 314.828125 212.011719 C 315.171875 211.347656 315.339844 210.347656 315.339844 209.015625 C 315.339844 207.675781 315.171875 206.675781 314.828125 206.011719 C 314.488281 205.34375 313.976562 205.011719 313.296875 205.011719 Z M 313.296875 203.96875 C 314.386719 203.96875 315.21875 204.398438 315.792969 205.261719 C 316.367188 206.125 316.65625 207.375 316.65625 209.015625 C 316.65625 210.652344 316.367188 211.898438 315.792969 212.761719 C 315.21875 213.625 314.386719 214.054688 313.296875 214.054688 C 312.207031 214.054688 311.375 213.625 310.800781 212.761719 C 310.222656 211.898438 309.9375 210.652344 309.9375 209.015625 C 309.9375 207.375 310.222656 206.125 310.800781 205.261719 C 311.375 204.398438 312.207031 203.96875 313.296875 203.96875 Z M 313.296875 203.96875 "/>
<path style=" stroke:none;fill-rule:nonzero;fill:rgb(0%,0%,0%);fill-opacity:1;" d="M 191.949219 224.808594 L 189.308594 228.359375 L 192.082031 232.101562 L 190.671875 232.101562 L 188.546875 229.238281 L 186.425781 232.101562 L 185.011719 232.101562 L 187.847656 228.289062 L 185.253906 224.808594 L 186.667969 224.808594 L 188.601562 227.410156 L 190.535156 224.808594 Z M 191.949219 224.808594 "/>
<path style="fill:none;stroke-width:0.8;stroke-linecap:butt;stroke-linejoin:round;stroke:rgb(0%,0%,0%);stroke-opacity:1;stroke-miterlimit:4;" d="M 0 0 L -3.500977 0 " transform="matrix(1.333333,0,0,1.333333,58.375,186)"/>
<path style=" stroke:none;fill-rule:nonzero;fill:rgb(0%,0%,0%);fill-opacity:1;" d="M 32.074219 182.210938 C 31.398438 182.210938 30.890625 182.542969 30.546875 183.210938 C 30.207031 183.875 30.039062 184.878906 30.039062 186.214844 C 30.039062 187.546875 30.207031 188.546875 30.546875 189.214844 C 30.890625 189.878906 31.398438 190.214844 32.074219 190.214844 C 32.757812 190.214844 33.269531 189.878906 33.609375 189.214844 C 33.949219 188.546875 34.121094 187.546875 34.121094 186.214844 C 34.121094 184.878906 33.949219 183.875 33.609375 183.210938 C 33.269531 182.542969 32.757812 182.210938 32.074219 182.210938 Z M 32.074219 181.167969 C 33.164062 181.167969 33.996094 181.601562 34.574219 182.464844 C 35.148438 183.324219 35.433594 184.574219 35.433594 186.214844 C 35.433594 187.851562 35.148438 189.101562 34.574219 189.964844 C 33.996094 190.824219 33.164062 191.253906 32.074219 191.253906 C 30.984375 191.253906 30.152344 190.824219 29.578125 189.964844 C 29.003906 189.101562 28.714844 187.851562 28.714844 186.214844 C 28.714844 184.574219 29.003906 183.324219 29.578125 182.464844 C 30.152344 181.601562 30.984375 181.167969 32.074219 181.167969 Z M 32.074219 181.167969 "/>
<path style=" stroke:none;fill-rule:nonzero;fill:rgb(0%,0%,0%);fill-opacity:1;" d="M 37.746094 189.410156 L 39.121094 189.410156 L 39.121094 191.066406 L 37.746094 191.066406 Z M 37.746094 189.410156 "/>
<path style=" stroke:none;fill-rule:nonzero;fill:rgb(0%,0%,0%);fill-opacity:1;" d="M 44.796875 182.210938 C 44.121094 182.210938 43.609375 182.542969 43.269531 183.210938 C 42.929688 183.875 42.757812 184.878906 42.757812 186.214844 C 42.757812 187.546875 42.929688 188.546875 43.269531 189.214844 C 43.609375 189.878906 44.121094 190.214844 44.796875 190.214844 C 45.476562 190.214844 45.988281 189.878906 46.328125 189.214844 C 46.671875 188.546875 46.84375 187.546875 46.84375 186.214844 C 46.84375 184.878906 46.671875 183.875 46.328125 183.210938 C 45.988281 182.542969 45.476562 182.210938 44.796875 182.210938 Z M 44.796875 181.167969 C 45.886719 181.167969 46.71875 181.601562 47.292969 182.464844 C 47.871094 183.324219 48.15625 184.574219 48.15625 186.214844 C 48.15625 187.851562 47.871094 189.101562 47.292969 189.964844 C 46.71875 190.824219 45.886719 191.253906 44.796875 191.253906 C 43.707031 191.253906 42.875 190.824219 42.300781 189.964844 C 41.726562 189.101562 41.4375 187.851562 41.4375 186.214844 C 41.4375 184.574219 41.726562 183.324219 42.300781 182.464844 C 42.875 181.601562 43.707031 181.167969 44.796875 181.167969 Z M 44.796875 181.167969 "/>
<path style="fill:none;stroke-width:0.8;stroke-linecap:butt;stroke-linejoin:round;stroke:rgb(0%,0%,0%);stroke-opacity:1;stroke-miterlimit:4;" d="M 0 -0.000000000000014211 L -3.500977 -0.000000000000014211 " transform="matrix(1.333333,0,0,1.333333,58.375,138)"/>
<path style=" stroke:none;fill-rule:nonzero;fill:rgb(0%,0%,0%);fill-opacity:1;" d="M 32.074219 134.210938 C 31.398438 134.210938 30.890625 134.542969 30.546875 135.210938 C 30.207031 135.875 30.039062 136.878906 30.039062 138.214844 C 30.039062 139.546875 30.207031 140.546875 30.546875 141.214844 C 30.890625 141.878906 31.398438 142.214844 32.074219 142.214844 C 32.757812 142.214844 33.269531 141.878906 33.609375 141.214844 C 33.949219 140.546875 34.121094 139.546875 34.121094 138.214844 C 34.121094 136.878906 33.949219 135.875 33.609375 135.210938 C 33.269531 134.542969 32.757812 134.210938 32.074219 134.210938 Z M 32.074219 133.167969 C 33.164062 133.167969 33.996094 133.601562 34.574219 134.464844 C 35.148438 135.324219 35.433594 136.574219 35.433594 138.214844 C 35.433594 139.851562 35.148438 141.101562 34.574219 141.964844 C 33.996094 142.824219 33.164062 143.253906 32.074219 143.253906 C 30.984375 143.253906 30.152344 142.824219 29.578125 141.964844 C 29.003906 141.101562 28.714844 139.851562 28.714844 138.214844 C 28.714844 136.574219 29.003906 135.324219 29.578125 134.464844 C 30.152344 133.601562 30.984375 133.167969 32.074219 133.167969 Z M 32.074219 133.167969 "/>
<path style=" stroke:none;fill-rule:nonzero;fill:rgb(0%,0%,0%);fill-opacity:1;" d="M 37.746094 141.410156 L 39.121094 141.410156 L 39.121094 143.066406 L 37.746094 143.066406 Z M 37.746094 141.410156 "/>
<path style=" stroke:none;fill-rule:nonzero;fill:rgb(0%,0%,0%);fill-opacity:1;" d="M 43.117188 141.960938 L 47.707031 141.960938 L 47.707031 143.066406 L 41.535156 143.066406 L 41.535156 141.960938 C 42.035156 141.441406 42.714844 140.75 43.574219 139.878906 C 44.4375 139.007812 44.980469 138.449219 45.199219 138.195312 C 45.621094 137.722656 45.914062 137.324219 46.082031 136.996094 C 46.25 136.667969 46.332031 136.34375 46.332031 136.027344 C 46.332031 135.511719 46.152344 135.089844 45.789062 134.765625 C 45.425781 134.4375 44.957031 134.277344 44.375 134.277344 C 43.960938 134.277344 43.527344 134.347656 43.066406 134.492188 C 42.609375 134.632812 42.121094 134.851562 41.601562 135.144531 L 41.601562 133.8125 C 42.128906 133.601562 42.625 133.441406 43.082031 133.332031 C 43.546875 133.222656 43.964844 133.167969 44.347656 133.167969 C 45.355469 133.167969 46.15625 133.421875 46.757812 133.925781 C 47.355469 134.429688 47.65625 135.101562 47.65625 135.941406 C 47.65625 136.34375 47.578125 136.722656 47.429688 137.082031 C 47.28125 137.4375 47.007812 137.859375 46.613281 138.34375 C 46.503906 138.472656 46.160156 138.835938 45.578125 139.4375 C 44.996094 140.039062 44.175781 140.878906 43.117188 141.960938 Z M 43.117188 141.960938 "/>
<path style="fill:none;stroke-width:0.8;stroke-linecap:butt;stroke-linejoin:round;stroke:rgb(0%,0%,0%);stroke-opacity:1;stroke-miterlimit:4;" d="M 0 -0.000000000000014211 L -3.500977 -0.000000000000014211 " transform="matrix(1.333333,0,0,1.333333,58.375,90)"/>
<path style=" stroke:none;fill-rule:nonzero;fill:rgb(0%,0%,0%);fill-opacity:1;" d="M 32.074219 86.210938 C 31.398438 86.210938 30.890625 86.542969 30.546875 87.210938 C 30.207031 87.875 30.039062 88.878906 30.039062 90.214844 C 30.039062 91.546875 30.207031 92.546875 30.546875 93.214844 C 30.890625 93.878906 31.398438 94.214844 32.074219 94.214844 C 32.757812 94.214844 33.269531 93.878906 33.609375 93.214844 C 33.949219 92.546875 34.121094 91.546875 34.121094 90.214844 C 34.121094 88.878906 33.949219 87.875 33.609375 87.210938 C 33.269531 86.542969 32.757812 86.210938 32.074219 86.210938 Z M 32.074219 85.167969 C 33.164062 85.167969 33.996094 85.601562 34.574219 86.464844 C 35.148438 87.324219 35.433594 88.574219 35.433594 90.214844 C 35.433594 91.851562 35.148438 93.101562 34.574219 93.964844 C 33.996094 94.824219 33.164062 95.253906 32.074219 95.253906 C 30.984375 95.253906 30.152344 94.824219 29.578125 93.964844 C 29.003906 93.101562 28.714844 91.851562 28.714844 90.214844 C 28.714844 88.574219 29.003906 87.324219 29.578125 86.464844 C 30.152344 85.601562 30.984375 85.167969 32.074219 85.167969 Z M 32.074219 85.167969 "/>
<path style=" stroke:none;fill-rule:nonzero;fill:rgb(0%,0%,0%);fill-opacity:1;" d="M 37.746094 93.410156 L 39.121094 93.410156 L 39.121094 95.066406 L 37.746094 95.066406 Z M 37.746094 93.410156 "/>
<path style=" stroke:none;fill-rule:nonzero;fill:rgb(0%,0%,0%);fill-opacity:1;" d="M 45.597656 86.492188 L 42.277344 91.679688 L 45.597656 91.679688 Z M 45.253906 85.34375 L 46.90625 85.34375 L 46.90625 91.679688 L 48.292969 91.679688 L 48.292969 92.773438 L 46.90625 92.773438 L 46.90625 95.066406 L 45.597656 95.066406 L 45.597656 92.773438 L 41.210938 92.773438 L 41.210938 91.503906 Z M 45.253906 85.34375 "/>
<path style="fill:none;stroke-width:0.8;stroke-linecap:butt;stroke-linejoin:round;stroke:rgb(0%,0%,0%);stroke-opacity:1;stroke-miterlimit:4;" d="M 0 -0.000000000000010658 L -3.500977 -0.000000000000010658 " transform="matrix(1.333333,0,0,1.333333,58.375,42)"/>
<path style=" stroke:none;fill-rule:nonzero;fill:rgb(0%,0%,0%);fill-opacity:1;" d="M 32.074219 38.210938 C 31.398438 38.210938 30.890625 38.542969 30.546875 39.210938 C 30.207031 39.875 30.039062 40.878906 30.039062 42.214844 C 30.039062 43.546875 30.207031 44.546875 30.546875 45.214844 C 30.890625 45.878906 31.398438 46.214844 32.074219 46.214844 C 32.757812 46.214844 33.269531 45.878906 33.609375 45.214844 C 33.949219 44.546875 34.121094 43.546875 34.121094 42.214844 C 34.121094 40.878906 33.949219 39.875 33.609375 39.210938 C 33.269531 38.542969 32.757812 38.210938 32.074219 38.210938 Z M 32.074219 37.167969 C 33.164062 37.167969 33.996094 37.601562 34.574219 38.464844 C 35.148438 39.324219 35.433594 40.574219 35.433594 42.214844 C 35.433594 43.851562 35.148438 45.101562 34.574219 45.964844 C 33.996094 46.824219 33.164062 47.253906 32.074219 47.253906 C 30.984375 47.253906 30.152344 46.824219 29.578125 45.964844 C 29.003906 45.101562 28.714844 43.851562 28.714844 42.214844 C 28.714844 40.574219 29.003906 39.324219 29.578125 38.464844 C 30.152344 37.601562 30.984375 37.167969 32.074219 37.167969 Z M 32.074219 37.167969 "/>
<path style=" stroke:none;fill-rule:nonzero;fill:rgb(0%,0%,0%);fill-opacity:1;" d="M 37.746094 45.410156 L 39.121094 45.410156 L 39.121094 47.066406 L 37.746094 47.066406 Z M 37.746094 45.410156 "/>
<path style=" stroke:none;fill-rule:nonzero;fill:rgb(0%,0%,0%);fill-opacity:1;" d="M 44.960938 41.683594 C 44.371094 41.683594 43.902344 41.882812 43.558594 42.289062 C 43.210938 42.691406 43.039062 43.242188 43.039062 43.945312 C 43.039062 44.644531 43.210938 45.199219 43.558594 45.605469 C 43.902344 46.011719 44.371094 46.214844 44.960938 46.214844 C 45.550781 46.214844 46.019531 46.011719 46.363281 45.605469 C 46.707031 45.199219 46.878906 44.644531 46.878906 43.945312 C 46.878906 43.242188 46.707031 42.691406 46.363281 42.289062 C 46.019531 41.882812 45.550781 41.683594 44.960938 41.683594 Z M 47.570312 37.558594 L 47.570312 38.757812 C 47.242188 38.601562 46.90625 38.484375 46.570312 38.402344 C 46.234375 38.316406 45.902344 38.277344 45.570312 38.277344 C 44.703125 38.277344 44.039062 38.570312 43.582031 39.15625 C 43.125 39.742188 42.863281 40.625 42.796875 41.8125 C 43.054688 41.433594 43.375 41.144531 43.761719 40.941406 C 44.148438 40.742188 44.574219 40.640625 45.039062 40.640625 C 46.015625 40.640625 46.785156 40.9375 47.351562 41.53125 C 47.917969 42.121094 48.203125 42.925781 48.203125 43.945312 C 48.203125 44.945312 47.90625 45.746094 47.316406 46.351562 C 46.726562 46.953125 45.941406 47.253906 44.960938 47.253906 C 43.835938 47.253906 42.976562 46.824219 42.382812 45.964844 C 41.789062 45.101562 41.488281 43.851562 41.488281 42.214844 C 41.488281 40.679688 41.855469 39.453125 42.582031 38.539062 C 43.3125 37.625 44.292969 37.167969 45.519531 37.167969 C 45.851562 37.167969 46.183594 37.203125 46.519531 37.269531 C 46.855469 37.332031 47.207031 37.429688 47.570312 37.558594 Z M 47.570312 37.558594 "/>
<path style=" stroke:none;fill-rule:nonzero;fill:rgb(0%,0%,0%);fill-opacity:1;" d="M 18.636719 118.53125 L 22.503906 118.53125 L 22.503906 119.734375 L 12.441406 119.734375 L 12.441406 118.53125 L 13.546875 118.53125 C 13.113281 118.277344 12.789062 117.960938 12.582031 117.578125 C 12.371094 117.191406 12.265625 116.734375 12.265625 116.199219 C 12.265625 115.3125 12.617188 114.59375 13.320312 114.042969 C 14.023438 113.488281 14.945312 113.210938 16.089844 113.210938 C 17.238281 113.210938 18.164062 113.488281 18.867188 114.042969 C 19.570312 114.59375 19.921875 115.3125 19.921875 116.199219 C 19.921875 116.734375 19.816406 117.191406 19.605469 117.578125 C 19.394531 117.960938 19.070312 118.277344 18.636719 118.53125 Z M 16.089844 114.453125 C 15.210938 114.453125 14.519531 114.636719 14.019531 114.996094 C 13.515625 115.359375 13.265625 115.859375 13.265625 116.492188 C 13.265625 117.125 13.515625 117.625 14.019531 117.988281 C 14.519531 118.351562 15.210938 118.53125 16.089844 118.53125 C 16.972656 118.53125 17.664062 118.351562 18.164062 117.988281 C 18.664062 117.625 18.917969 117.125 18.917969 116.492188 C 18.917969 115.859375 18.664062 115.359375 18.164062 114.996094 C 17.664062 114.636719 16.972656 114.453125 16.089844 114.453125 Z M 16.089844 114.453125 "/>
<path style=" stroke:none;fill-rule:nonzero;fill:rgb(0%,0%,0%);fill-opacity:1;" d="M 18.078125 111.058594 L 18.078125 109.683594 L 19.730469 109.683594 L 19.730469 111.058594 Z M 18.078125 111.058594 "/>
<path style=" stroke:none;fill-rule:nonzero;fill:rgb(0%,0%,0%);fill-opacity:1;" d="M 13.839844 101.3125 C 13.300781 101.011719 12.902344 100.652344 12.648438 100.234375 C 12.390625 99.820312 12.265625 99.328125 12.265625 98.765625 C 12.265625 98.003906 12.53125 97.417969 13.0625 97.007812 C 13.59375 96.59375 14.347656 96.386719 15.328125 96.386719 L 19.730469 96.386719 L 19.730469 97.59375 L 15.367188 97.59375 C 14.671875 97.59375 14.152344 97.714844 13.816406 97.964844 C 13.476562 98.210938 13.304688 98.589844 13.304688 99.097656 C 13.304688 99.71875 13.511719 100.207031 13.925781 100.570312 C 14.335938 100.929688 14.898438 101.109375 15.609375 101.109375 L 19.730469 101.109375 L 19.730469 102.3125 L 15.367188 102.3125 C 14.664062 102.3125 14.148438 102.4375 13.808594 102.683594 C 13.472656 102.929688 13.304688 103.3125 13.304688 103.828125 C 13.304688 104.441406 13.511719 104.929688 13.925781 105.289062 C 14.339844 105.648438 14.902344 105.828125 15.609375 105.828125 L 19.730469 105.828125 L 19.730469 107.035156 L 12.441406 107.035156 L 12.441406 105.828125 L 13.574219 105.828125 C 13.125 105.554688 12.796875 105.226562 12.582031 104.847656 C 12.371094 104.464844 12.265625 104.011719 12.265625 103.484375 C 12.265625 102.957031 12.398438 102.503906 12.667969 102.132812 C 12.9375 101.761719 13.328125 101.488281 13.839844 101.3125 Z M 13.839844 101.3125 "/>
<path style=" stroke:none;fill-rule:nonzero;fill:rgb(0%,0%,0%);fill-opacity:1;" d="M 18.078125 93.832031 L 18.078125 92.457031 L 19.730469 92.457031 L 19.730469 93.832031 Z M 18.078125 93.832031 "/>
<path style=" stroke:none;fill-rule:nonzero;fill:rgb(0%,0%,0%);fill-opacity:1;" d="M 9.601562 86.070312 L 10.597656 86.070312 L 10.597656 87.214844 C 10.597656 87.644531 10.683594 87.941406 10.859375 88.109375 C 11.03125 88.277344 11.34375 88.359375 11.796875 88.359375 L 12.441406 88.359375 L 12.441406 86.386719 L 13.371094 86.386719 L 13.371094 88.359375 L 19.730469 88.359375 L 19.730469 89.566406 L 13.371094 89.566406 L 13.371094 90.710938 L 12.441406 90.710938 L 12.441406 89.566406 L 11.929688 89.566406 C 11.121094 89.566406 10.527344 89.375 10.160156 89 C 9.785156 88.621094 9.601562 88.023438 9.601562 87.203125 Z M 9.601562 86.070312 "/>
<path style=" stroke:none;fill-rule:nonzero;fill:rgb(0%,0%,0%);fill-opacity:1;" d="M 18.078125 85.863281 L 18.078125 84.488281 L 19.730469 84.488281 L 19.730469 85.863281 Z M 18.078125 85.863281 "/>
<path style="fill:none;stroke-width:1.5;stroke-linecap:butt;stroke-linejoin:round;stroke:rgb(12.156863%,46.666667%,70.588237%);stroke-opacity:1;stroke-miterlimit:4;" d="M 52.658203 139.5 L 52.658203 13.5 " transform="matrix(1.333333,0,0,1.333333,0,0.000000000000014211)"/>
<path style="fill:none;stroke-width:1.5;stroke-linecap:butt;stroke-linejoin:round;stroke:rgb(12.156863%,46.666667%,70.588237%);stroke-opacity:1;stroke-miterlimit:4;" d="M 230.203125 139.5 L 230.203125 85.5 " transform="matrix(1.333333,0,0,1.333333,0,0.000000000000014211)"/>
<path style="fill-rule:nonzero;fill:rgb(12.156863%,46.666667%,70.588237%);fill-opacity:1;stroke-width:1;stroke-linecap:butt;stroke-linejoin:round;stroke:rgb(12.156863%,46.666667%,70.588237%);stroke-opacity:1;stroke-miterlimit:4;" d="M -0.000320435 3 C 0.796555 3 1.558273 2.683594 2.120773 2.121094 C 2.683273 1.558594 2.99968 0.796875 2.99968 -0.000000000000010658 C 2.99968 -0.796875 2.683273 -1.558594 2.120773 -2.121094 C 1.558273 -2.683594 0.796555 -3 -0.000320435 -3 C -0.794266 -3 -1.558914 -2.683594 -2.121414 -2.121094 C -2.683914 -1.558594 -3.00032 -0.796875 -3.00032 -0.000000000000010658 C -3.00032 0.796875 -2.683914 1.558594 -2.121414 2.121094 C -1.558914 2.683594 -0.794266 3 -0.000320435 3 Z M -0.000320435 3 " transform="matrix(1.333333,0,0,1.333333,70.211365,18)"/>
<path style="fill-rule:nonzero;fill:rgb(12.156863%,46.666667%,70.588237%);fill-opacity:1;stroke-width:1;stroke-linecap:butt;stroke-linejoin:round;stroke:rgb(12.156863%,46.666667%,70.588237%);stroke-opacity:1;stroke-miterlimit:4;" d="M -0.000854492 3 C 0.796021 3 1.557739 2.683594 2.120239 2.121094 C 2.682739 1.558594 2.999146 0.796875 2.999146 -0.000000000000014211 C 2.999146 -0.796875 2.682739 -1.558594 2.120239 -2.121094 C 1.557739 -2.683594 0.796021 -3 -0.000854492 -3 C -0.7948 -3 -1.559448 -2.683594 -2.121948 -2.121094 C -2.684448 -1.558594 -3.000854 -0.796875 -3.000854 -0.000000000000014211 C -3.000854 0.796875 -2.684448 1.558594 -2.121948 2.121094 C -1.559448 2.683594 -0.7948 3 -0.000854492 3 Z M -0.000854492 3 " transform="matrix(1.333333,0,0,1.333333,306.938639,114)"/>
<path style="fill:none;stroke-width:1.5;stroke-linecap:square;stroke-linejoin:round;stroke:rgb(83.92157%,15.294118%,15.686275%);stroke-opacity:1;stroke-miterlimit:4;" d="M 52.658203 139.5 L 230.203125 139.5 " transform="matrix(1.333333,0,0,1.333333,0,0.000000000000014211)"/>
<path style="fill:none;stroke-width:0.8;stroke-linecap:square;stroke-linejoin:miter;stroke:rgb(0%,0%,0%);stroke-opacity:1;stroke-miterlimit:4;" d="M 43.78125 145.798828 L 43.78125 7.201172 " transform="matrix(1.333333,0,0,1.333333,0,0.000000000000014211)"/>
<path style="fill:none;stroke-width:0.8;stroke-linecap:square;stroke-linejoin:miter;stroke:rgb(0%,0%,0%);stroke-opacity:1;stroke-miterlimit:4;" d="M 239.080078 145.798828 L 239.080078 7.201172 " transform="matrix(1.333333,0,0,1.333333,0,0.000000000000014211)"/>
<path style="fill:none;stroke-width:0.8;stroke-linecap:square;stroke-linejoin:miter;stroke:rgb(0%,0%,0%);stroke-opacity:1;stroke-miterlimit:4;" d="M 43.78125 145.798828 L 239.080078 145.798828 " transform="matrix(1.333333,0,0,1.333333,0,0.000000000000014211)"/>
<path style="fill:none;stroke-width:0.8;stroke-linecap:square;stroke-linejoin:miter;stroke:rgb(0%,0%,0%);stroke-opacity:1;stroke-miterlimit:4;" d="M 43.78125 7.201172 L 239.080078 7.201172 " transform="matrix(1.333333,0,0,1.333333,0,0.000000000000014211)"/>
</g>
</svg>
