<?xml version="1.0" encoding="UTF-8"?>
<svg xmlns="http://www.w3.org/2000/svg" xmlns:xlink="http://www.w3.org/1999/xlink" width="328.375" height="244.474996" viewBox="0 0 328.375 244.474996" version="1.1">
<defs>
<clipPath id="clip1">
  <path d="M 69 9.601562 L 71 9.601562 L 71 194.398438 L 69 194.398438 Z M 69 9.601562 "/>
</clipPath>
<clipPath id="clip2">
  <path d="M 148 9.601562 L 151 9.601562 L 151 194.398438 L 148 194.398438 Z M 148 9.601562 "/>
</clipPath>
<clipPath id="clip3">
  <path d="M 227 9.601562 L 230 9.601562 L 230 194.398438 L 227 194.398438 Z M 227 9.601562 "/>
</clipPath>
<clipPath id="clip4">
  <path d="M 306 9.601562 L 309 9.601562 L 309 194.398438 L 306 194.398438 Z M 306 9.601562 "/>
</clipPath>
<clipPath id="clip5">
  <path d="M 58.375 185 L 318.773438 185 L 318.773438 187 L 58.375 187 Z M 58.375 185 "/>
</clipPath>
<clipPath id="clip6">
  <path d="M 58.375 151 L 318.773438 151 L 318.773438 154 L 58.375 154 Z M 58.375 151 "/>
</clipPath>
<clipPath id="clip7">
  <path d="M 58.375 118 L 318.773438 118 L 318.773438 120 L 58.375 120 Z M 58.375 118 "/>
</clipPath>
<clipPath id="clip8">
  <path d="M 58.375 84 L 318.773438 84 L 318.773438 86 L 58.375 86 Z M 58.375 84 "/>
</clipPath>
<clipPath id="clip9">
  <path d="M 58.375 50 L 318.773438 50 L 318.773438 53 L 58.375 53 Z M 58.375 50 "/>
</clipPath>
<clipPath id="clip10">
  <path d="M 58.375 17 L 318.773438 17 L 318.773438 19 L 58.375 19 Z M 58.375 17 "/>
</clipPath>
</defs>
<g id="surface1">
<path style=" stroke:none;fill-rule:nonzero;fill:rgb(100%,100%,100%);fill-opacity:1;" d="M 0 244.476562 L 328.375 244.476562 L 328.375 0 L 0 0 Z M 0 244.476562 "/>
<path style=" stroke:none;fill-rule:nonzero;fill:rgb(100%,100%,100%);fill-opacity:1;" d="M 58.375 194.398438 L 318.773438 194.398438 L 318.773438 9.601562 L 58.375 9.601562 Z M 58.375 194.398438 "/>
<g clip-path="url(#clip1)" clip-rule="nonzero">
<path style="fill:none;stroke-width:0.8;stroke-linecap:square;stroke-linejoin:round;stroke:rgb(69.01961%,69.01961%,69.01961%);stroke-opacity:1;stroke-miterlimit:4;" d="M 52.658203 145.798828 L 52.658203 7.201172 " transform="matrix(1.333333,0,0,1.333333,0,0.000000000000014211)"/>
</g>
<path style="fill:none;stroke-width:0.8;stroke-linecap:butt;stroke-linejoin:round;stroke:rgb(0%,0%,0%);stroke-opacity:1;stroke-miterlimit:4;" d="M -0.000320435 -0.00117493 L -0.000320435 3.499802 " transform="matrix(1.333333,0,0,1.333333,70.211365,194.400004)"/>
<path style=" stroke:none;fill-rule:nonzero;fill:rgb(0%,0%,0%);fill-opacity:1;" d="M 61.796875 209.132812 L 70.140625 209.132812 L 70.140625 210.238281 L 61.796875 210.238281 Z M 61.796875 209.132812 "/>
<path style=" stroke:none;fill-rule:nonzero;fill:rgb(0%,0%,0%);fill-opacity:1;" d="M 73.210938 212.757812 L 75.355469 212.757812 L 75.355469 205.339844 L 73.019531 205.808594 L 73.019531 204.613281 L 75.34375 204.144531 L 76.660156 204.144531 L 76.660156 212.757812 L 78.808594 212.757812 L 78.808594 213.863281 L 73.210938 213.863281 Z M 73.210938 212.757812 "/>
<g clip-path="url(#clip2)" clip-rule="nonzero">
<path style="fill:none;stroke-width:0.8;stroke-linecap:square;stroke-linejoin:round;stroke:rgb(69.01961%,69.01961%,69.01961%);stroke-opacity:1;stroke-miterlimit:4;" d="M 112.037109 145.798828 L 112.037109 7.201172 " transform="matrix(1.333333,0,0,1.333333,0,0.000000000000014211)"/>
</g>
<path style="fill:none;stroke-width:0.8;stroke-linecap:butt;stroke-linejoin:round;stroke:rgb(0%,0%,0%);stroke-opacity:1;stroke-miterlimit:4;" d="M -0.0011673 -0.00117493 L -0.0011673 3.499802 " transform="matrix(1.333333,0,0,1.333333,149.384369,194.400004)"/>
<path style=" stroke:none;fill-rule:nonzero;fill:rgb(0%,0%,0%);fill-opacity:1;" d="M 149.378906 205.011719 C 148.703125 205.011719 148.195312 205.34375 147.851562 206.011719 C 147.511719 206.675781 147.34375 207.675781 147.34375 209.015625 C 147.34375 210.347656 147.511719 211.347656 147.851562 212.011719 C 148.195312 212.679688 148.703125 213.011719 149.378906 213.011719 C 150.0625 213.011719 150.574219 212.679688 150.914062 212.011719 C 151.253906 211.347656 151.425781 210.347656 151.425781 209.015625 C 151.425781 207.675781 151.253906 206.675781 150.914062 206.011719 C 150.574219 205.34375 150.0625 205.011719 149.378906 205.011719 Z M 149.378906 203.96875 C 150.46875 203.96875 151.304688 204.398438 151.878906 205.261719 C 152.453125 206.125 152.742188 207.375 152.742188 209.015625 C 152.742188 210.652344 152.453125 211.898438 151.878906 212.761719 C 151.304688 213.625 150.46875 214.054688 149.378906 214.054688 C 148.292969 214.054688 147.460938 213.625 146.882812 212.761719 C 146.308594 211.898438 146.023438 210.652344 146.023438 209.015625 C 146.023438 207.375 146.308594 206.125 146.882812 205.261719 C 147.460938 204.398438 148.292969 203.96875 149.378906 203.96875 Z M 149.378906 203.96875 "/>
<g clip-path="url(#clip3)" clip-rule="nonzero">
<path style="fill:none;stroke-width:0.8;stroke-linecap:square;stroke-linejoin:round;stroke:rgb(69.01961%,69.01961%,69.01961%);stroke-opacity:1;stroke-miterlimit:4;" d="M 171.418945 145.798828 L 171.418945 7.201172 " transform="matrix(1.333333,0,0,1.333333,0,0.000000000000014211)"/>
</g>
<path style="fill:none;stroke-width:0.8;stroke-linecap:butt;stroke-linejoin:round;stroke:rgb(0%,0%,0%);stroke-opacity:1;stroke-miterlimit:4;" d="M 0.000915527 -0.00117493 L 0.000915527 3.499802 " transform="matrix(1.333333,0,0,1.333333,228.557373,194.400004)"/>
<path style=" stroke:none;fill-rule:nonzero;fill:rgb(0%,0%,0%);fill-opacity:1;" d="M 225.96875 212.757812 L 228.117188 212.757812 L 228.117188 205.339844 L 225.78125 205.808594 L 225.78125 204.613281 L 228.105469 204.144531 L 229.417969 204.144531 L 229.417969 212.757812 L 231.566406 212.757812 L 231.566406 213.863281 L 225.96875 213.863281 Z M 225.96875 212.757812 "/>
<g clip-path="url(#clip4)" clip-rule="nonzero">
<path style="fill:none;stroke-width:0.8;stroke-linecap:square;stroke-linejoin:round;stroke:rgb(69.01961%,69.01961%,69.01961%);stroke-opacity:1;stroke-miterlimit:4;" d="M 230.797852 145.798828 L 230.797852 7.201172 " transform="matrix(1.333333,0,0,1.333333,0,0.000000000000014211)"/>
</g>
<path style="fill:none;stroke-width:0.8;stroke-linecap:butt;stroke-linejoin:round;stroke:rgb(0%,0%,0%);stroke-opacity:1;stroke-miterlimit:4;" d="M 0.0000762939 -0.00117493 L 0.0000762939 3.499802 " transform="matrix(1.333333,0,0,1.333333,307.730367,194.400004)"/>
<path style=" stroke:none;fill-rule:nonzero;fill:rgb(0%,0%,0%);fill-opacity:1;" d="M 306.046875 212.757812 L 310.636719 212.757812 L 310.636719 213.863281 L 304.464844 213.863281 L 304.464844 212.757812 C 304.964844 212.242188 305.644531 211.546875 306.503906 210.679688 C 307.367188 209.808594 307.910156 209.246094 308.128906 208.992188 C 308.550781 208.523438 308.84375 208.121094 309.011719 207.792969 C 309.179688 207.464844 309.265625 207.144531 309.265625 206.828125 C 309.265625 206.308594 309.082031 205.890625 308.71875 205.566406 C 308.359375 205.238281 307.886719 205.074219 307.304688 205.074219 C 306.890625 205.074219 306.457031 205.148438 305.996094 205.289062 C 305.539062 205.433594 305.050781 205.648438 304.53125 205.941406 L 304.53125 204.613281 C 305.058594 204.398438 305.554688 204.238281 306.015625 204.132812 C 306.476562 204.023438 306.894531 203.96875 307.277344 203.96875 C 308.285156 203.96875 309.089844 204.222656 309.6875 204.726562 C 310.285156 205.226562 310.585938 205.898438 310.585938 206.742188 C 310.585938 207.140625 310.507812 207.519531 310.359375 207.878906 C 310.210938 208.234375 309.9375 208.65625 309.542969 209.144531 C 309.433594 209.269531 309.089844 209.632812 308.507812 210.234375 C 307.925781 210.835938 307.105469 211.679688 306.046875 212.757812 Z M 306.046875 212.757812 "/>
<path style=" stroke:none;fill-rule:nonzero;fill:rgb(0%,0%,0%);fill-opacity:1;" d="M 191.949219 224.808594 L 189.308594 228.359375 L 192.082031 232.101562 L 190.671875 232.101562 L 188.546875 229.238281 L 186.425781 232.101562 L 185.011719 232.101562 L 187.847656 228.289062 L 185.253906 224.808594 L 186.667969 224.808594 L 188.601562 227.410156 L 190.535156 224.808594 Z M 191.949219 224.808594 "/>
<g clip-path="url(#clip5)" clip-rule="nonzero">
<path style="fill:none;stroke-width:0.8;stroke-linecap:square;stroke-linejoin:round;stroke:rgb(69.01961%,69.01961%,69.01961%);stroke-opacity:1;stroke-miterlimit:4;" d="M 43.78125 139.5 L 239.080078 139.5 " transform="matrix(1.333333,0,0,1.333333,0,0.000000000000014211)"/>
</g>
<path style="fill:none;stroke-width:0.8;stroke-linecap:butt;stroke-linejoin:round;stroke:rgb(0%,0%,0%);stroke-opacity:1;stroke-miterlimit:4;" d="M 0 0 L -3.500977 0 " transform="matrix(1.333333,0,0,1.333333,58.375,186)"/>
<path style=" stroke:none;fill-rule:nonzero;fill:rgb(0%,0%,0%);fill-opacity:1;" d="M 32.074219 182.210938 C 31.398438 182.210938 30.890625 182.542969 30.546875 183.210938 C 30.207031 183.875 30.039062 184.878906 30.039062 186.214844 C 30.039062 187.546875 30.207031 188.546875 30.546875 189.214844 C 30.890625 189.878906 31.398438 190.214844 32.074219 190.214844 C 32.757812 190.214844 33.269531 189.878906 33.609375 189.214844 C 33.949219 188.546875 34.121094 187.546875 34.121094 186.214844 C 34.121094 184.878906 33.949219 183.875 33.609375 183.210938 C 33.269531 182.542969 32.757812 182.210938 32.074219 182.210938 Z M 32.074219 181.167969 C 33.164062 181.167969 33.996094 181.601562 34.574219 182.464844 C 35.148438 183.324219 35.433594 184.574219 35.433594 186.214844 C 35.433594 187.851562 35.148438 189.101562 34.574219 189.964844 C 33.996094 190.824219 33.164062 191.253906 32.074219 191.253906 C 30.984375 191.253906 30.152344 190.824219 29.578125 189.964844 C 29.003906 189.101562 28.714844 187.851562 28.714844 186.214844 C 28.714844 184.574219 29.003906 183.324219 29.578125 182.464844 C 30.152344 181.601562 30.984375 181.167969 32.074219 181.167969 Z M 32.074219 181.167969 "/>
<path style=" stroke:none;fill-rule:nonzero;fill:rgb(0%,0%,0%);fill-opacity:1;" d="M 37.746094 189.410156 L 39.121094 189.410156 L 39.121094 191.066406 L 37.746094 191.066406 Z M 37.746094 189.410156 "/>
<path style=" stroke:none;fill-rule:nonzero;fill:rgb(0%,0%,0%);fill-opacity:1;" d="M 44.796875 182.210938 C 44.121094 182.210938 43.609375 182.542969 43.269531 183.210938 C 42.929688 183.875 42.757812 184.878906 42.757812 186.214844 C 42.757812 187.546875 42.929688 188.546875 43.269531 189.214844 C 43.609375 189.878906 44.121094 190.214844 44.796875 190.214844 C 45.476562 190.214844 45.988281 189.878906 46.328125 189.214844 C 46.671875 188.546875 46.84375 187.546875 46.84375 186.214844 C 46.84375 184.878906 46.671875 183.875 46.328125 183.210938 C 45.988281 182.542969 45.476562 182.210938 44.796875 182.210938 Z M 44.796875 181.167969 C 45.886719 181.167969 46.71875 181.601562 47.292969 182.464844 C 47.871094 183.324219 48.15625 184.574219 48.15625 186.214844 C 48.15625 187.851562 47.871094 189.101562 47.292969 189.964844 C 46.71875 190.824219 45.886719 191.253906 44.796875 191.253906 C 43.707031 191.253906 42.875 190.824219 42.300781 189.964844 C 41.726562 189.101562 41.4375 187.851562 41.4375 186.214844 C 41.4375 184.574219 41.726562 183.324219 42.300781 182.464844 C 42.875 181.601562 43.707031 181.167969 44.796875 181.167969 Z M 44.796875 181.167969 "/>
<g clip-path="url(#clip6)" clip-rule="nonzero">
<path style="fill:none;stroke-width:0.8;stroke-linecap:square;stroke-linejoin:round;stroke:rgb(69.01961%,69.01961%,69.01961%);stroke-opacity:1;stroke-miterlimit:4;" d="M 43.78125 114.298828 L 239.080078 114.298828 " transform="matrix(1.333333,0,0,1.333333,0,0.000000000000014211)"/>
</g>
<path style="fill:none;stroke-width:0.8;stroke-linecap:butt;stroke-linejoin:round;stroke:rgb(0%,0%,0%);stroke-opacity:1;stroke-miterlimit:4;" d="M 0 -0.00117493 L -3.500977 -0.00117493 " transform="matrix(1.333333,0,0,1.333333,58.375,152.400004)"/>
<path style=" stroke:none;fill-rule:nonzero;fill:rgb(0%,0%,0%);fill-opacity:1;" d="M 32.074219 148.613281 C 31.398438 148.613281 30.890625 148.945312 30.546875 149.613281 C 30.207031 150.277344 30.039062 151.277344 30.039062 152.617188 C 30.039062 153.949219 30.207031 154.945312 30.546875 155.613281 C 30.890625 156.28125 31.398438 156.613281 32.074219 156.613281 C 32.757812 156.613281 33.269531 156.28125 33.609375 155.613281 C 33.949219 154.945312 34.121094 153.949219 34.121094 152.617188 C 34.121094 151.277344 33.949219 150.277344 33.609375 149.613281 C 33.269531 148.945312 32.757812 148.613281 32.074219 148.613281 Z M 32.074219 147.570312 C 33.164062 147.570312 33.996094 148 34.574219 148.863281 C 35.148438 149.726562 35.433594 150.976562 35.433594 152.617188 C 35.433594 154.25 35.148438 155.5 34.574219 156.363281 C 33.996094 157.226562 33.164062 157.65625 32.074219 157.65625 C 30.984375 157.65625 30.152344 157.226562 29.578125 156.363281 C 29.003906 155.5 28.714844 154.25 28.714844 152.617188 C 28.714844 150.976562 29.003906 149.726562 29.578125 148.863281 C 30.152344 148 30.984375 147.570312 32.074219 147.570312 Z M 32.074219 147.570312 "/>
<path style=" stroke:none;fill-rule:nonzero;fill:rgb(0%,0%,0%);fill-opacity:1;" d="M 37.746094 155.8125 L 39.121094 155.8125 L 39.121094 157.464844 L 37.746094 157.464844 Z M 37.746094 155.8125 "/>
<path style=" stroke:none;fill-rule:nonzero;fill:rgb(0%,0%,0%);fill-opacity:1;" d="M 43.117188 156.359375 L 47.707031 156.359375 L 47.707031 157.464844 L 41.535156 157.464844 L 41.535156 156.359375 C 42.035156 155.84375 42.714844 155.148438 43.574219 154.28125 C 44.4375 153.410156 44.980469 152.847656 45.199219 152.59375 C 45.621094 152.121094 45.914062 151.722656 46.082031 151.394531 C 46.25 151.066406 46.332031 150.746094 46.332031 150.429688 C 46.332031 149.910156 46.152344 149.492188 45.789062 149.164062 C 45.425781 148.839844 44.957031 148.675781 44.375 148.675781 C 43.960938 148.675781 43.527344 148.746094 43.066406 148.890625 C 42.609375 149.035156 42.121094 149.25 41.601562 149.542969 L 41.601562 148.214844 C 42.128906 148 42.625 147.839844 43.082031 147.730469 C 43.546875 147.625 43.964844 147.570312 44.347656 147.570312 C 45.355469 147.570312 46.15625 147.820312 46.757812 148.324219 C 47.355469 148.828125 47.65625 149.5 47.65625 150.34375 C 47.65625 150.742188 47.578125 151.121094 47.429688 151.480469 C 47.28125 151.835938 47.007812 152.257812 46.613281 152.746094 C 46.503906 152.871094 46.160156 153.234375 45.578125 153.835938 C 44.996094 154.4375 44.175781 155.277344 43.117188 156.359375 Z M 43.117188 156.359375 "/>
<g clip-path="url(#clip7)" clip-rule="nonzero">
<path style="fill:none;stroke-width:0.8;stroke-linecap:square;stroke-linejoin:round;stroke:rgb(69.01961%,69.01961%,69.01961%);stroke-opacity:1;stroke-miterlimit:4;" d="M 43.78125 89.100586 L 239.080078 89.100586 " transform="matrix(1.333333,0,0,1.333333,0,0.000000000000014211)"/>
</g>
<path style="fill:none;stroke-width:0.8;stroke-linecap:butt;stroke-linejoin:round;stroke:rgb(0%,0%,0%);stroke-opacity:1;stroke-miterlimit:4;" d="M 0 0.000587463 L -3.500977 0.000587463 " transform="matrix(1.333333,0,0,1.333333,58.375,118.799998)"/>
<path style=" stroke:none;fill-rule:nonzero;fill:rgb(0%,0%,0%);fill-opacity:1;" d="M 32.074219 115.011719 C 31.398438 115.011719 30.890625 115.34375 30.546875 116.011719 C 30.207031 116.675781 30.039062 117.679688 30.039062 119.015625 C 30.039062 120.347656 30.207031 121.347656 30.546875 122.011719 C 30.890625 122.679688 31.398438 123.011719 32.074219 123.011719 C 32.757812 123.011719 33.269531 122.679688 33.609375 122.011719 C 33.949219 121.347656 34.121094 120.347656 34.121094 119.015625 C 34.121094 117.679688 33.949219 116.675781 33.609375 116.011719 C 33.269531 115.34375 32.757812 115.011719 32.074219 115.011719 Z M 32.074219 113.96875 C 33.164062 113.96875 33.996094 114.402344 34.574219 115.261719 C 35.148438 116.125 35.433594 117.375 35.433594 119.015625 C 35.433594 120.652344 35.148438 121.902344 34.574219 122.761719 C 33.996094 123.625 33.164062 124.054688 32.074219 124.054688 C 30.984375 124.054688 30.152344 123.625 29.578125 122.761719 C 29.003906 121.902344 28.714844 120.652344 28.714844 119.015625 C 28.714844 117.375 29.003906 116.125 29.578125 115.261719 C 30.152344 114.402344 30.984375 113.96875 32.074219 113.96875 Z M 32.074219 113.96875 "/>
<path style=" stroke:none;fill-rule:nonzero;fill:rgb(0%,0%,0%);fill-opacity:1;" d="M 37.746094 122.210938 L 39.121094 122.210938 L 39.121094 123.867188 L 37.746094 123.867188 Z M 37.746094 122.210938 "/>
<path style=" stroke:none;fill-rule:nonzero;fill:rgb(0%,0%,0%);fill-opacity:1;" d="M 45.597656 115.289062 L 42.277344 120.480469 L 45.597656 120.480469 Z M 45.253906 114.144531 L 46.90625 114.144531 L 46.90625 120.480469 L 48.292969 120.480469 L 48.292969 121.574219 L 46.90625 121.574219 L 46.90625 123.867188 L 45.597656 123.867188 L 45.597656 121.574219 L 41.210938 121.574219 L 41.210938 120.304688 Z M 45.253906 114.144531 "/>
<g clip-path="url(#clip8)" clip-rule="nonzero">
<path style="fill:none;stroke-width:0.8;stroke-linecap:square;stroke-linejoin:round;stroke:rgb(69.01961%,69.01961%,69.01961%);stroke-opacity:1;stroke-miterlimit:4;" d="M 43.78125 63.899414 L 239.080078 63.899414 " transform="matrix(1.333333,0,0,1.333333,0,0.000000000000014211)"/>
</g>
<path style="fill:none;stroke-width:0.8;stroke-linecap:butt;stroke-linejoin:round;stroke:rgb(0%,0%,0%);stroke-opacity:1;stroke-miterlimit:4;" d="M 0 -0.000587463 L -3.500977 -0.000587463 " transform="matrix(1.333333,0,0,1.333333,58.375,85.200002)"/>
<path style=" stroke:none;fill-rule:nonzero;fill:rgb(0%,0%,0%);fill-opacity:1;" d="M 32.074219 81.410156 C 31.398438 81.410156 30.890625 81.746094 30.546875 82.410156 C 30.207031 83.078125 30.039062 84.078125 30.039062 85.414062 C 30.039062 86.746094 30.207031 87.746094 30.546875 88.414062 C 30.890625 89.082031 31.398438 89.414062 32.074219 89.414062 C 32.757812 89.414062 33.269531 89.082031 33.609375 88.414062 C 33.949219 87.746094 34.121094 86.746094 34.121094 85.414062 C 34.121094 84.078125 33.949219 83.078125 33.609375 82.410156 C 33.269531 81.746094 32.757812 81.410156 32.074219 81.410156 Z M 32.074219 80.371094 C 33.164062 80.371094 33.996094 80.800781 34.574219 81.664062 C 35.148438 82.523438 35.433594 83.773438 35.433594 85.414062 C 35.433594 87.050781 35.148438 88.300781 34.574219 89.164062 C 33.996094 90.023438 33.164062 90.457031 32.074219 90.457031 C 30.984375 90.457031 30.152344 90.023438 29.578125 89.164062 C 29.003906 88.300781 28.714844 87.050781 28.714844 85.414062 C 28.714844 83.773438 29.003906 82.523438 29.578125 81.664062 C 30.152344 80.800781 30.984375 80.371094 32.074219 80.371094 Z M 32.074219 80.371094 "/>
<path style=" stroke:none;fill-rule:nonzero;fill:rgb(0%,0%,0%);fill-opacity:1;" d="M 37.746094 88.613281 L 39.121094 88.613281 L 39.121094 90.265625 L 37.746094 90.265625 Z M 37.746094 88.613281 "/>
<path style=" stroke:none;fill-rule:nonzero;fill:rgb(0%,0%,0%);fill-opacity:1;" d="M 44.960938 84.882812 C 44.371094 84.882812 43.902344 85.085938 43.558594 85.488281 C 43.210938 85.890625 43.039062 86.445312 43.039062 87.148438 C 43.039062 87.84375 43.210938 88.398438 43.558594 88.804688 C 43.902344 89.210938 44.371094 89.414062 44.960938 89.414062 C 45.550781 89.414062 46.019531 89.210938 46.363281 88.804688 C 46.707031 88.398438 46.878906 87.84375 46.878906 87.148438 C 46.878906 86.445312 46.707031 85.890625 46.363281 85.488281 C 46.019531 85.085938 45.550781 84.882812 44.960938 84.882812 Z M 47.570312 80.757812 L 47.570312 81.957031 C 47.242188 81.800781 46.90625 81.683594 46.570312 81.601562 C 46.234375 81.519531 45.902344 81.476562 45.570312 81.476562 C 44.703125 81.476562 44.039062 81.769531 43.582031 82.355469 C 43.125 82.941406 42.863281 83.828125 42.796875 85.011719 C 43.054688 84.632812 43.375 84.34375 43.761719 84.144531 C 44.148438 83.941406 44.574219 83.839844 45.039062 83.839844 C 46.015625 83.839844 46.785156 84.136719 47.351562 84.730469 C 47.917969 85.320312 48.203125 86.128906 48.203125 87.148438 C 48.203125 88.144531 47.90625 88.945312 47.316406 89.550781 C 46.726562 90.152344 45.941406 90.457031 44.960938 90.457031 C 43.835938 90.457031 42.976562 90.023438 42.382812 89.164062 C 41.789062 88.300781 41.488281 87.050781 41.488281 85.414062 C 41.488281 83.878906 41.855469 82.65625 42.582031 81.742188 C 43.3125 80.828125 44.292969 80.371094 45.519531 80.371094 C 45.851562 80.371094 46.183594 80.402344 46.519531 80.46875 C 46.855469 80.53125 47.207031 80.628906 47.570312 80.757812 Z M 47.570312 80.757812 "/>
<g clip-path="url(#clip9)" clip-rule="nonzero">
<path style="fill:none;stroke-width:0.8;stroke-linecap:square;stroke-linejoin:round;stroke:rgb(69.01961%,69.01961%,69.01961%);stroke-opacity:1;stroke-miterlimit:4;" d="M 43.78125 38.701172 L 239.080078 38.701172 " transform="matrix(1.333333,0,0,1.333333,0,0.000000000000014211)"/>
</g>
<path style="fill:none;stroke-width:0.8;stroke-linecap:butt;stroke-linejoin:round;stroke:rgb(0%,0%,0%);stroke-opacity:1;stroke-miterlimit:4;" d="M 0 0.00117111 L -3.500977 0.00117111 " transform="matrix(1.333333,0,0,1.333333,58.375,51.600001)"/>
<path style=" stroke:none;fill-rule:nonzero;fill:rgb(0%,0%,0%);fill-opacity:1;" d="M 32.074219 47.8125 C 31.398438 47.8125 30.890625 48.144531 30.546875 48.8125 C 30.207031 49.476562 30.039062 50.476562 30.039062 51.816406 C 30.039062 53.148438 30.207031 54.148438 30.546875 54.8125 C 30.890625 55.480469 31.398438 55.8125 32.074219 55.8125 C 32.757812 55.8125 33.269531 55.480469 33.609375 54.8125 C 33.949219 54.148438 34.121094 53.148438 34.121094 51.816406 C 34.121094 50.476562 33.949219 49.476562 33.609375 48.8125 C 33.269531 48.144531 32.757812 47.8125 32.074219 47.8125 Z M 32.074219 46.769531 C 33.164062 46.769531 33.996094 47.199219 34.574219 48.0625 C 35.148438 48.925781 35.433594 50.175781 35.433594 51.816406 C 35.433594 53.453125 35.148438 54.699219 34.574219 55.5625 C 33.996094 56.425781 33.164062 56.855469 32.074219 56.855469 C 30.984375 56.855469 30.152344 56.425781 29.578125 55.5625 C 29.003906 54.699219 28.714844 53.453125 28.714844 51.816406 C 28.714844 50.175781 29.003906 48.925781 29.578125 48.0625 C 30.152344 47.199219 30.984375 46.769531 32.074219 46.769531 Z M 32.074219 46.769531 "/>
<path style=" stroke:none;fill-rule:nonzero;fill:rgb(0%,0%,0%);fill-opacity:1;" d="M 37.746094 55.011719 L 39.121094 55.011719 L 39.121094 56.664062 L 37.746094 56.664062 Z M 37.746094 55.011719 "/>
<path style=" stroke:none;fill-rule:nonzero;fill:rgb(0%,0%,0%);fill-opacity:1;" d="M 44.796875 52.050781 C 44.171875 52.050781 43.679688 52.214844 43.320312 52.550781 C 42.964844 52.886719 42.785156 53.34375 42.785156 53.929688 C 42.785156 54.515625 42.964844 54.976562 43.320312 55.3125 C 43.679688 55.644531 44.171875 55.8125 44.796875 55.8125 C 45.421875 55.8125 45.914062 55.644531 46.273438 55.308594 C 46.632812 54.972656 46.816406 54.511719 46.816406 53.929688 C 46.816406 53.34375 46.636719 52.886719 46.277344 52.550781 C 45.921875 52.214844 45.425781 52.050781 44.796875 52.050781 Z M 43.480469 51.492188 C 42.917969 51.351562 42.476562 51.089844 42.164062 50.703125 C 41.847656 50.316406 41.691406 49.84375 41.691406 49.289062 C 41.691406 48.511719 41.96875 47.898438 42.519531 47.445312 C 43.074219 46.996094 43.832031 46.769531 44.796875 46.769531 C 45.765625 46.769531 46.523438 46.996094 47.074219 47.445312 C 47.625 47.898438 47.902344 48.511719 47.902344 49.289062 C 47.902344 49.84375 47.746094 50.316406 47.429688 50.703125 C 47.117188 51.089844 46.679688 51.351562 46.121094 51.492188 C 46.753906 51.636719 47.246094 51.925781 47.597656 52.355469 C 47.953125 52.785156 48.128906 53.3125 48.128906 53.929688 C 48.128906 54.875 47.84375 55.597656 47.265625 56.101562 C 46.691406 56.605469 45.867188 56.855469 44.796875 56.855469 C 43.726562 56.855469 42.902344 56.605469 42.324219 56.101562 C 41.75 55.597656 41.464844 54.875 41.464844 53.929688 C 41.464844 53.3125 41.640625 52.785156 41.996094 52.355469 C 42.351562 51.925781 42.847656 51.636719 43.480469 51.492188 Z M 43 49.414062 C 43 49.917969 43.15625 50.308594 43.472656 50.589844 C 43.785156 50.871094 44.226562 51.011719 44.796875 51.011719 C 45.363281 51.011719 45.804688 50.871094 46.121094 50.589844 C 46.441406 50.308594 46.601562 49.917969 46.601562 49.414062 C 46.601562 48.910156 46.441406 48.515625 46.121094 48.234375 C 45.804688 47.953125 45.363281 47.8125 44.796875 47.8125 C 44.226562 47.8125 43.785156 47.953125 43.472656 48.234375 C 43.15625 48.515625 43 48.910156 43 49.414062 Z M 43 49.414062 "/>
<g clip-path="url(#clip10)" clip-rule="nonzero">
<path style="fill:none;stroke-width:0.8;stroke-linecap:square;stroke-linejoin:round;stroke:rgb(69.01961%,69.01961%,69.01961%);stroke-opacity:1;stroke-miterlimit:4;" d="M 43.78125 13.5 L 239.080078 13.5 " transform="matrix(1.333333,0,0,1.333333,0,0.000000000000014211)"/>
</g>
<path style="fill:none;stroke-width:0.8;stroke-linecap:butt;stroke-linejoin:round;stroke:rgb(0%,0%,0%);stroke-opacity:1;stroke-miterlimit:4;" d="M 0 -0.000000000000010658 L -3.500977 -0.000000000000010658 " transform="matrix(1.333333,0,0,1.333333,58.375,18)"/>
<path style=" stroke:none;fill-rule:nonzero;fill:rgb(0%,0%,0%);fill-opacity:1;" d="M 29.492188 21.960938 L 31.640625 21.960938 L 31.640625 14.542969 L 29.300781 15.011719 L 29.300781 13.8125 L 31.628906 13.34375 L 32.941406 13.34375 L 32.941406 21.960938 L 35.089844 21.960938 L 35.089844 23.066406 L 29.492188 23.066406 Z M 29.492188 21.960938 "/>
<path style=" stroke:none;fill-rule:nonzero;fill:rgb(0%,0%,0%);fill-opacity:1;" d="M 37.746094 21.410156 L 39.121094 21.410156 L 39.121094 23.066406 L 37.746094 23.066406 Z M 37.746094 21.410156 "/>
<path style=" stroke:none;fill-rule:nonzero;fill:rgb(0%,0%,0%);fill-opacity:1;" d="M 44.796875 14.210938 C 44.121094 14.210938 43.609375 14.542969 43.269531 15.210938 C 42.929688 15.875 42.757812 16.878906 42.757812 18.214844 C 42.757812 19.546875 42.929688 20.546875 43.269531 21.214844 C 43.609375 21.878906 44.121094 22.214844 44.796875 22.214844 C 45.476562 22.214844 45.988281 21.878906 46.328125 21.214844 C 46.671875 20.546875 46.84375 19.546875 46.84375 18.214844 C 46.84375 16.878906 46.671875 15.875 46.328125 15.210938 C 45.988281 14.542969 45.476562 14.210938 44.796875 14.210938 Z M 44.796875 13.167969 C 45.886719 13.167969 46.71875 13.601562 47.292969 14.464844 C 47.871094 15.324219 48.15625 16.574219 48.15625 18.214844 C 48.15625 19.851562 47.871094 21.101562 47.292969 21.964844 C 46.71875 22.824219 45.886719 23.253906 44.796875 23.253906 C 43.707031 23.253906 42.875 22.824219 42.300781 21.964844 C 41.726562 21.101562 41.4375 19.851562 41.4375 18.214844 C 41.4375 16.574219 41.726562 15.324219 42.300781 14.464844 C 42.875 13.601562 43.707031 13.167969 44.796875 13.167969 Z M 44.796875 13.167969 "/>
<path style=" stroke:none;fill-rule:nonzero;fill:rgb(0%,0%,0%);fill-opacity:1;" d="M 12.71875 111.613281 L 13.839844 111.613281 C 13.652344 111.953125 13.511719 112.292969 13.417969 112.632812 C 13.324219 112.972656 13.277344 113.316406 13.277344 113.664062 C 13.277344 114.441406 13.527344 115.046875 14.019531 115.476562 C 14.511719 115.90625 15.203125 116.121094 16.089844 116.121094 C 16.980469 116.121094 17.671875 115.90625 18.167969 115.476562 C 18.660156 115.046875 18.902344 114.441406 18.902344 113.664062 C 18.902344 113.316406 18.859375 112.972656 18.765625 112.632812 C 18.671875 112.292969 18.53125 111.953125 18.34375 111.613281 L 19.453125 111.613281 C 19.609375 111.949219 19.722656 112.292969 19.800781 112.652344 C 19.882812 113.011719 19.921875 113.390625 19.921875 113.792969 C 19.921875 114.894531 19.574219 115.765625 18.886719 116.414062 C 18.195312 117.058594 17.265625 117.382812 16.089844 117.382812 C 14.902344 117.382812 13.96875 117.054688 13.289062 116.402344 C 12.605469 115.75 12.265625 114.851562 12.265625 113.714844 C 12.265625 113.347656 12.304688 112.988281 12.378906 112.636719 C 12.453125 112.285156 12.566406 111.945312 12.71875 111.613281 Z M 12.71875 111.613281 "/>
<path style=" stroke:none;fill-rule:nonzero;fill:rgb(0%,0%,0%);fill-opacity:1;" d="M 18.078125 109.363281 L 18.078125 107.988281 L 19.730469 107.988281 L 19.730469 109.363281 Z M 18.078125 109.363281 "/>
<path style=" stroke:none;fill-rule:nonzero;fill:rgb(0%,0%,0%);fill-opacity:1;" d="M 13.546875 100.496094 L 9.601562 100.496094 L 9.601562 99.296875 L 19.730469 99.296875 L 19.730469 100.496094 L 18.636719 100.496094 C 19.070312 100.746094 19.394531 101.0625 19.605469 101.449219 C 19.816406 101.832031 19.921875 102.292969 19.921875 102.832031 C 19.921875 103.710938 19.570312 104.429688 18.867188 104.984375 C 18.164062 105.535156 17.238281 105.8125 16.089844 105.8125 C 14.945312 105.8125 14.023438 105.535156 13.320312 104.984375 C 12.617188 104.429688 12.265625 103.710938 12.265625 102.832031 C 12.265625 102.292969 12.371094 101.832031 12.582031 101.449219 C 12.789062 101.0625 13.113281 100.746094 13.546875 100.496094 Z M 16.089844 104.574219 C 16.972656 104.574219 17.664062 104.394531 18.164062 104.03125 C 18.664062 103.667969 18.917969 103.171875 18.917969 102.539062 C 18.917969 101.90625 18.664062 101.40625 18.164062 101.042969 C 17.664062 100.675781 16.972656 100.496094 16.089844 100.496094 C 15.210938 100.496094 14.519531 100.675781 14.019531 101.042969 C 13.515625 101.40625 13.265625 101.90625 13.265625 102.539062 C 13.265625 103.171875 13.515625 103.667969 14.019531 104.03125 C 14.519531 104.394531 15.210938 104.574219 16.089844 104.574219 Z M 16.089844 104.574219 "/>
<path style=" stroke:none;fill-rule:nonzero;fill:rgb(0%,0%,0%);fill-opacity:1;" d="M 18.078125 96.660156 L 18.078125 95.285156 L 19.730469 95.285156 L 19.730469 96.660156 Z M 18.078125 96.660156 "/>
<path style=" stroke:none;fill-rule:nonzero;fill:rgb(0%,0%,0%);fill-opacity:1;" d="M 9.601562 88.898438 L 10.597656 88.898438 L 10.597656 90.042969 C 10.597656 90.472656 10.683594 90.773438 10.859375 90.941406 C 11.03125 91.105469 11.34375 91.191406 11.796875 91.191406 L 12.441406 91.191406 L 12.441406 89.21875 L 13.371094 89.21875 L 13.371094 91.191406 L 19.730469 91.191406 L 19.730469 92.394531 L 13.371094 92.394531 L 13.371094 93.539062 L 12.441406 93.539062 L 12.441406 92.394531 L 11.929688 92.394531 C 11.121094 92.394531 10.527344 92.207031 10.160156 91.828125 C 9.785156 91.449219 9.601562 90.851562 9.601562 90.03125 Z M 9.601562 88.898438 "/>
<path style=" stroke:none;fill-rule:nonzero;fill:rgb(0%,0%,0%);fill-opacity:1;" d="M 18.078125 88.695312 L 18.078125 87.320312 L 19.730469 87.320312 L 19.730469 88.695312 Z M 18.078125 88.695312 "/>
<path style="fill:none;stroke-width:1.5;stroke-linecap:square;stroke-linejoin:round;stroke:rgb(12.156863%,46.666667%,70.588237%);stroke-opacity:1;stroke-miterlimit:4;" d="M 52.658203 139.5 L 111.445312 139.5 L 112.037109 51.298828 L 171.418945 51.298828 L 172.010742 13.5 L 230.203125 13.5 " transform="matrix(1.333333,0,0,1.333333,0,0.000000000000014211)"/>
<path style="fill:none;stroke-width:0.8;stroke-linecap:square;stroke-linejoin:miter;stroke:rgb(0%,0%,0%);stroke-opacity:1;stroke-miterlimit:4;" d="M 43.78125 145.798828 L 43.78125 7.201172 " transform="matrix(1.333333,0,0,1.333333,0,0.000000000000014211)"/>
<path style="fill:none;stroke-width:0.8;stroke-linecap:square;stroke-linejoin:miter;stroke:rgb(0%,0%,0%);stroke-opacity:1;stroke-miterlimit:4;" d="M 239.080078 145.798828 L 239.080078 7.201172 " transform="matrix(1.333333,0,0,1.333333,0,0.000000000000014211)"/>
<path style="fill:none;stroke-width:0.8;stroke-linecap:square;stroke-linejoin:miter;stroke:rgb(0%,0%,0%);stroke-opacity:1;stroke-miterlimit:4;" d="M 43.78125 145.798828 L 239.080078 145.798828 " transform="matrix(1.333333,0,0,1.333333,0,0.000000000000014211)"/>
<path style="fill:none;stroke-width:0.8;stroke-linecap:square;stroke-linejoin:miter;stroke:rgb(0%,0%,0%);stroke-opacity:1;stroke-miterlimit:4;" d="M 43.78125 7.201172 L 239.080078 7.201172 " transform="matrix(1.333333,0,0,1.333333,0,0.000000000000014211)"/>
</g>
</svg>
