<?xml version="1.0" encoding="UTF-8"?>
<svg xmlns="http://www.w3.org/2000/svg" xmlns:xlink="http://www.w3.org/1999/xlink" width="328.375" height="244.474996" viewBox="0 0 328.375 244.474996" version="1.1">
<defs>
<clipPath id="clip1">
  <path d="M 93 9.601562 L 95 9.601562 L 95 194.398438 L 93 194.398438 Z M 93 9.601562 "/>
</clipPath>
<clipPath id="clip2">
  <path d="M 140 9.601562 L 143 9.601562 L 143 194.398438 L 140 194.398438 Z M 140 9.601562 "/>
</clipPath>
<clipPath id="clip3">
  <path d="M 187 9.601562 L 190 9.601562 L 190 194.398438 L 187 194.398438 Z M 187 9.601562 "/>
</clipPath>
<clipPath id="clip4">
  <path d="M 235 9.601562 L 237 9.601562 L 237 194.398438 L 235 194.398438 Z M 235 9.601562 "/>
</clipPath>
<clipPath id="clip5">
  <path d="M 282 9.601562 L 285 9.601562 L 285 194.398438 L 282 194.398438 Z M 282 9.601562 "/>
</clipPath>
<clipPath id="clip6">
  <path d="M 58.375 191 L 318.773438 191 L 318.773438 194 L 58.375 194 Z M 58.375 191 "/>
</clipPath>
<clipPath id="clip7">
  <path d="M 58.375 157 L 318.773438 157 L 318.773438 159 L 58.375 159 Z M 58.375 157 "/>
</clipPath>
<clipPath id="clip8">
  <path d="M 58.375 122 L 318.773438 122 L 318.773438 124 L 58.375 124 Z M 58.375 122 "/>
</clipPath>
<clipPath id="clip9">
  <path d="M 58.375 87 L 318.773438 87 L 318.773438 89 L 58.375 89 Z M 58.375 87 "/>
</clipPath>
<clipPath id="clip10">
  <path d="M 58.375 52 L 318.773438 52 L 318.773438 54 L 58.375 54 Z M 58.375 52 "/>
</clipPath>
<clipPath id="clip11">
  <path d="M 58.375 17 L 318.773438 17 L 318.773438 19 L 58.375 19 Z M 58.375 17 "/>
</clipPath>
</defs>
<g id="surface1">
<path style=" stroke:none;fill-rule:nonzero;fill:rgb(100%,100%,100%);fill-opacity:1;" d="M 0 244.476562 L 328.375 244.476562 L 328.375 0 L 0 0 Z M 0 244.476562 "/>
<path style=" stroke:none;fill-rule:nonzero;fill:rgb(100%,100%,100%);fill-opacity:1;" d="M 58.375 194.398438 L 318.773438 194.398438 L 318.773438 9.601562 L 58.375 9.601562 Z M 58.375 194.398438 "/>
<g clip-path="url(#clip1)" clip-rule="nonzero">
<path style="fill:none;stroke-width:0.8;stroke-linecap:square;stroke-linejoin:round;stroke:rgb(69.01961%,69.01961%,69.01961%);stroke-opacity:1;stroke-miterlimit:4;" d="M 70.429688 145.798828 L 70.429688 7.201172 " transform="matrix(1.333333,0,0,1.333333,0,0.000000000000014211)"/>
</g>
<path style="fill:none;stroke-width:0.8;stroke-linecap:butt;stroke-linejoin:round;stroke:rgb(0%,0%,0%);stroke-opacity:1;stroke-miterlimit:4;" d="M -0.00115204 -0.00117493 L -0.00115204 3.499802 " transform="matrix(1.333333,0,0,1.333333,93.907786,194.400004)"/>
<path style=" stroke:none;fill-rule:nonzero;fill:rgb(0%,0%,0%);fill-opacity:1;" d="M 85.492188 209.132812 L 93.839844 209.132812 L 93.839844 210.238281 L 85.492188 210.238281 Z M 85.492188 209.132812 "/>
<path style=" stroke:none;fill-rule:nonzero;fill:rgb(0%,0%,0%);fill-opacity:1;" d="M 100.292969 205.289062 L 96.96875 210.480469 L 100.292969 210.480469 Z M 99.945312 204.144531 L 101.597656 204.144531 L 101.597656 210.480469 L 102.988281 210.480469 L 102.988281 211.574219 L 101.597656 211.574219 L 101.597656 213.863281 L 100.292969 213.863281 L 100.292969 211.574219 L 95.902344 211.574219 L 95.902344 210.304688 Z M 99.945312 204.144531 "/>
<g clip-path="url(#clip2)" clip-rule="nonzero">
<path style="fill:none;stroke-width:0.8;stroke-linecap:square;stroke-linejoin:round;stroke:rgb(69.01961%,69.01961%,69.01961%);stroke-opacity:1;stroke-miterlimit:4;" d="M 105.975586 145.798828 L 105.975586 7.201172 " transform="matrix(1.333333,0,0,1.333333,0,0.000000000000014211)"/>
</g>
<path style="fill:none;stroke-width:0.8;stroke-linecap:butt;stroke-linejoin:round;stroke:rgb(0%,0%,0%);stroke-opacity:1;stroke-miterlimit:4;" d="M 0.000106812 -0.00117493 L 0.000106812 3.499802 " transform="matrix(1.333333,0,0,1.333333,141.300639,194.400004)"/>
<path style=" stroke:none;fill-rule:nonzero;fill:rgb(0%,0%,0%);fill-opacity:1;" d="M 132.886719 209.132812 L 141.230469 209.132812 L 141.230469 210.238281 L 132.886719 210.238281 Z M 132.886719 209.132812 "/>
<path style=" stroke:none;fill-rule:nonzero;fill:rgb(0%,0%,0%);fill-opacity:1;" d="M 145.203125 212.757812 L 149.792969 212.757812 L 149.792969 213.863281 L 143.621094 213.863281 L 143.621094 212.757812 C 144.121094 212.242188 144.800781 211.546875 145.660156 210.679688 C 146.523438 209.808594 147.066406 209.246094 147.285156 208.992188 C 147.707031 208.523438 148 208.121094 148.167969 207.792969 C 148.335938 207.464844 148.417969 207.144531 148.417969 206.828125 C 148.417969 206.308594 148.238281 205.890625 147.875 205.566406 C 147.511719 205.238281 147.039062 205.074219 146.457031 205.074219 C 146.046875 205.074219 145.609375 205.148438 145.152344 205.289062 C 144.695312 205.433594 144.207031 205.648438 143.6875 205.941406 L 143.6875 204.613281 C 144.214844 204.398438 144.710938 204.238281 145.167969 204.132812 C 145.628906 204.023438 146.050781 203.96875 146.433594 203.96875 C 147.441406 203.96875 148.242188 204.222656 148.84375 204.726562 C 149.441406 205.226562 149.738281 205.898438 149.738281 206.742188 C 149.738281 207.140625 149.664062 207.519531 149.515625 207.878906 C 149.367188 208.234375 149.09375 208.65625 148.699219 209.144531 C 148.589844 209.269531 148.246094 209.632812 147.664062 210.234375 C 147.082031 210.835938 146.261719 211.679688 145.203125 212.757812 Z M 145.203125 212.757812 "/>
<g clip-path="url(#clip3)" clip-rule="nonzero">
<path style="fill:none;stroke-width:0.8;stroke-linecap:square;stroke-linejoin:round;stroke:rgb(69.01961%,69.01961%,69.01961%);stroke-opacity:1;stroke-miterlimit:4;" d="M 141.521484 145.798828 L 141.521484 7.201172 " transform="matrix(1.333333,0,0,1.333333,0,0.000000000000014211)"/>
</g>
<path style="fill:none;stroke-width:0.8;stroke-linecap:butt;stroke-linejoin:round;stroke:rgb(0%,0%,0%);stroke-opacity:1;stroke-miterlimit:4;" d="M 0.00137329 -0.00117493 L 0.00137329 3.499802 " transform="matrix(1.333333,0,0,1.333333,188.693481,194.400004)"/>
<path style=" stroke:none;fill-rule:nonzero;fill:rgb(0%,0%,0%);fill-opacity:1;" d="M 188.6875 205.011719 C 188.011719 205.011719 187.503906 205.34375 187.164062 206.011719 C 186.820312 206.675781 186.652344 207.675781 186.652344 209.015625 C 186.652344 210.347656 186.820312 211.347656 187.164062 212.011719 C 187.503906 212.679688 188.011719 213.011719 188.6875 213.011719 C 189.371094 213.011719 189.882812 212.679688 190.222656 212.011719 C 190.5625 211.347656 190.734375 210.347656 190.734375 209.015625 C 190.734375 207.675781 190.5625 206.675781 190.222656 206.011719 C 189.882812 205.34375 189.371094 205.011719 188.6875 205.011719 Z M 188.6875 203.96875 C 189.78125 203.96875 190.613281 204.398438 191.1875 205.261719 C 191.761719 206.125 192.050781 207.375 192.050781 209.015625 C 192.050781 210.652344 191.761719 211.898438 191.1875 212.761719 C 190.613281 213.625 189.78125 214.054688 188.6875 214.054688 C 187.601562 214.054688 186.769531 213.625 186.195312 212.761719 C 185.617188 211.898438 185.332031 210.652344 185.332031 209.015625 C 185.332031 207.375 185.617188 206.125 186.195312 205.261719 C 186.769531 204.398438 187.601562 203.96875 188.6875 203.96875 Z M 188.6875 203.96875 "/>
<g clip-path="url(#clip4)" clip-rule="nonzero">
<path style="fill:none;stroke-width:0.8;stroke-linecap:square;stroke-linejoin:round;stroke:rgb(69.01961%,69.01961%,69.01961%);stroke-opacity:1;stroke-miterlimit:4;" d="M 177.064453 145.798828 L 177.064453 7.201172 " transform="matrix(1.333333,0,0,1.333333,0,0.000000000000014211)"/>
</g>
<path style="fill:none;stroke-width:0.8;stroke-linecap:butt;stroke-linejoin:round;stroke:rgb(0%,0%,0%);stroke-opacity:1;stroke-miterlimit:4;" d="M -0.000289917 -0.00117493 L -0.000289917 3.499802 " transform="matrix(1.333333,0,0,1.333333,236.086324,194.400004)"/>
<path style=" stroke:none;fill-rule:nonzero;fill:rgb(0%,0%,0%);fill-opacity:1;" d="M 234.402344 212.757812 L 238.992188 212.757812 L 238.992188 213.863281 L 232.820312 213.863281 L 232.820312 212.757812 C 233.320312 212.242188 234 211.546875 234.863281 210.679688 C 235.722656 209.808594 236.265625 209.246094 236.488281 208.992188 C 236.90625 208.523438 237.199219 208.121094 237.367188 207.792969 C 237.535156 207.464844 237.621094 207.144531 237.621094 206.828125 C 237.621094 206.308594 237.4375 205.890625 237.074219 205.566406 C 236.714844 205.238281 236.242188 205.074219 235.660156 205.074219 C 235.246094 205.074219 234.8125 205.148438 234.351562 205.289062 C 233.894531 205.433594 233.40625 205.648438 232.886719 205.941406 L 232.886719 204.613281 C 233.414062 204.398438 233.910156 204.238281 234.371094 204.132812 C 234.832031 204.023438 235.253906 203.96875 235.632812 203.96875 C 236.640625 203.96875 237.445312 204.222656 238.042969 204.726562 C 238.640625 205.226562 238.941406 205.898438 238.941406 206.742188 C 238.941406 207.140625 238.867188 207.519531 238.714844 207.878906 C 238.566406 208.234375 238.292969 208.65625 237.898438 209.144531 C 237.789062 209.269531 237.445312 209.632812 236.863281 210.234375 C 236.28125 210.835938 235.460938 211.679688 234.402344 212.757812 Z M 234.402344 212.757812 "/>
<g clip-path="url(#clip5)" clip-rule="nonzero">
<path style="fill:none;stroke-width:0.8;stroke-linecap:square;stroke-linejoin:round;stroke:rgb(69.01961%,69.01961%,69.01961%);stroke-opacity:1;stroke-miterlimit:4;" d="M 212.610352 145.798828 L 212.610352 7.201172 " transform="matrix(1.333333,0,0,1.333333,0,0.000000000000014211)"/>
</g>
<path style="fill:none;stroke-width:0.8;stroke-linecap:butt;stroke-linejoin:round;stroke:rgb(0%,0%,0%);stroke-opacity:1;stroke-miterlimit:4;" d="M 0.000961304 -0.00117493 L 0.000961304 3.499802 " transform="matrix(1.333333,0,0,1.333333,283.479187,194.400004)"/>
<path style=" stroke:none;fill-rule:nonzero;fill:rgb(0%,0%,0%);fill-opacity:1;" d="M 284.277344 205.289062 L 280.957031 210.480469 L 284.277344 210.480469 Z M 283.929688 204.144531 L 285.585938 204.144531 L 285.585938 210.480469 L 286.972656 210.480469 L 286.972656 211.574219 L 285.585938 211.574219 L 285.585938 213.863281 L 284.277344 213.863281 L 284.277344 211.574219 L 279.890625 211.574219 L 279.890625 210.304688 Z M 283.929688 204.144531 "/>
<path style=" stroke:none;fill-rule:nonzero;fill:rgb(0%,0%,0%);fill-opacity:1;" d="M 191.949219 224.808594 L 189.308594 228.359375 L 192.082031 232.101562 L 190.671875 232.101562 L 188.546875 229.238281 L 186.425781 232.101562 L 185.011719 232.101562 L 187.847656 228.289062 L 185.253906 224.808594 L 186.667969 224.808594 L 188.601562 227.410156 L 190.535156 224.808594 Z M 191.949219 224.808594 "/>
<g clip-path="url(#clip6)" clip-rule="nonzero">
<path style="fill:none;stroke-width:0.8;stroke-linecap:square;stroke-linejoin:round;stroke:rgb(69.01961%,69.01961%,69.01961%);stroke-opacity:1;stroke-miterlimit:4;" d="M 43.78125 144.539062 L 239.080078 144.539062 " transform="matrix(1.333333,0,0,1.333333,0,0.000000000000014211)"/>
</g>
<path style="fill:none;stroke-width:0.8;stroke-linecap:butt;stroke-linejoin:round;stroke:rgb(0%,0%,0%);stroke-opacity:1;stroke-miterlimit:4;" d="M 0 -0.000930786 L -3.500977 -0.000930786 " transform="matrix(1.333333,0,0,1.333333,58.375,192.719991)"/>
<path style=" stroke:none;fill-rule:nonzero;fill:rgb(0%,0%,0%);fill-opacity:1;" d="M 32.074219 188.929688 C 31.398438 188.929688 30.890625 189.265625 30.546875 189.929688 C 30.207031 190.597656 30.039062 191.597656 30.039062 192.9375 C 30.039062 194.265625 30.207031 195.265625 30.546875 195.933594 C 30.890625 196.601562 31.398438 196.933594 32.074219 196.933594 C 32.757812 196.933594 33.269531 196.601562 33.609375 195.933594 C 33.949219 195.265625 34.121094 194.265625 34.121094 192.9375 C 34.121094 191.597656 33.949219 190.597656 33.609375 189.929688 C 33.269531 189.265625 32.757812 188.929688 32.074219 188.929688 Z M 32.074219 187.890625 C 33.164062 187.890625 33.996094 188.320312 34.574219 189.183594 C 35.148438 190.042969 35.433594 191.296875 35.433594 192.9375 C 35.433594 194.570312 35.148438 195.820312 34.574219 196.683594 C 33.996094 197.542969 33.164062 197.976562 32.074219 197.976562 C 30.984375 197.976562 30.152344 197.542969 29.578125 196.683594 C 29.003906 195.820312 28.714844 194.570312 28.714844 192.9375 C 28.714844 191.296875 29.003906 190.042969 29.578125 189.183594 C 30.152344 188.320312 30.984375 187.890625 32.074219 187.890625 Z M 32.074219 187.890625 "/>
<path style=" stroke:none;fill-rule:nonzero;fill:rgb(0%,0%,0%);fill-opacity:1;" d="M 37.746094 196.132812 L 39.121094 196.132812 L 39.121094 197.785156 L 37.746094 197.785156 Z M 37.746094 196.132812 "/>
<path style=" stroke:none;fill-rule:nonzero;fill:rgb(0%,0%,0%);fill-opacity:1;" d="M 44.796875 188.929688 C 44.121094 188.929688 43.609375 189.265625 43.269531 189.929688 C 42.929688 190.597656 42.757812 191.597656 42.757812 192.9375 C 42.757812 194.265625 42.929688 195.265625 43.269531 195.933594 C 43.609375 196.601562 44.121094 196.933594 44.796875 196.933594 C 45.476562 196.933594 45.988281 196.601562 46.328125 195.933594 C 46.671875 195.265625 46.84375 194.265625 46.84375 192.9375 C 46.84375 191.597656 46.671875 190.597656 46.328125 189.929688 C 45.988281 189.265625 45.476562 188.929688 44.796875 188.929688 Z M 44.796875 187.890625 C 45.886719 187.890625 46.71875 188.320312 47.292969 189.183594 C 47.871094 190.042969 48.15625 191.296875 48.15625 192.9375 C 48.15625 194.570312 47.871094 195.820312 47.292969 196.683594 C 46.71875 197.542969 45.886719 197.976562 44.796875 197.976562 C 43.707031 197.976562 42.875 197.542969 42.300781 196.683594 C 41.726562 195.820312 41.4375 194.570312 41.4375 192.9375 C 41.4375 191.296875 41.726562 190.042969 42.300781 189.183594 C 42.875 188.320312 43.707031 187.890625 44.796875 187.890625 Z M 44.796875 187.890625 "/>
<g clip-path="url(#clip7)" clip-rule="nonzero">
<path style="fill:none;stroke-width:0.8;stroke-linecap:square;stroke-linejoin:round;stroke:rgb(69.01961%,69.01961%,69.01961%);stroke-opacity:1;stroke-miterlimit:4;" d="M 43.78125 118.333008 L 239.080078 118.333008 " transform="matrix(1.333333,0,0,1.333333,0,0.000000000000014211)"/>
</g>
<path style="fill:none;stroke-width:0.8;stroke-linecap:butt;stroke-linejoin:round;stroke:rgb(0%,0%,0%);stroke-opacity:1;stroke-miterlimit:4;" d="M 0 0.00100708 L -3.500977 0.00100708 " transform="matrix(1.333333,0,0,1.333333,58.375,157.776001)"/>
<path style=" stroke:none;fill-rule:nonzero;fill:rgb(0%,0%,0%);fill-opacity:1;" d="M 32.074219 153.988281 C 31.398438 153.988281 30.890625 154.320312 30.546875 154.988281 C 30.207031 155.652344 30.039062 156.652344 30.039062 157.992188 C 30.039062 159.324219 30.207031 160.324219 30.546875 160.988281 C 30.890625 161.65625 31.398438 161.988281 32.074219 161.988281 C 32.757812 161.988281 33.269531 161.65625 33.609375 160.988281 C 33.949219 160.324219 34.121094 159.324219 34.121094 157.992188 C 34.121094 156.652344 33.949219 155.652344 33.609375 154.988281 C 33.269531 154.320312 32.757812 153.988281 32.074219 153.988281 Z M 32.074219 152.945312 C 33.164062 152.945312 33.996094 153.378906 34.574219 154.238281 C 35.148438 155.101562 35.433594 156.351562 35.433594 157.992188 C 35.433594 159.628906 35.148438 160.878906 34.574219 161.738281 C 33.996094 162.601562 33.164062 163.03125 32.074219 163.03125 C 30.984375 163.03125 30.152344 162.601562 29.578125 161.738281 C 29.003906 160.878906 28.714844 159.628906 28.714844 157.992188 C 28.714844 156.351562 29.003906 155.101562 29.578125 154.238281 C 30.152344 153.378906 30.984375 152.945312 32.074219 152.945312 Z M 32.074219 152.945312 "/>
<path style=" stroke:none;fill-rule:nonzero;fill:rgb(0%,0%,0%);fill-opacity:1;" d="M 37.746094 161.1875 L 39.121094 161.1875 L 39.121094 162.839844 L 37.746094 162.839844 Z M 37.746094 161.1875 "/>
<path style=" stroke:none;fill-rule:nonzero;fill:rgb(0%,0%,0%);fill-opacity:1;" d="M 43.117188 161.734375 L 47.707031 161.734375 L 47.707031 162.839844 L 41.535156 162.839844 L 41.535156 161.734375 C 42.035156 161.21875 42.714844 160.527344 43.574219 159.65625 C 44.4375 158.785156 44.980469 158.222656 45.199219 157.972656 C 45.621094 157.5 45.914062 157.097656 46.082031 156.769531 C 46.25 156.441406 46.332031 156.121094 46.332031 155.804688 C 46.332031 155.289062 46.152344 154.867188 45.789062 154.542969 C 45.425781 154.214844 44.957031 154.050781 44.375 154.050781 C 43.960938 154.050781 43.527344 154.125 43.066406 154.265625 C 42.609375 154.410156 42.121094 154.628906 41.601562 154.917969 L 41.601562 153.589844 C 42.128906 153.378906 42.625 153.214844 43.082031 153.109375 C 43.546875 153 43.964844 152.945312 44.347656 152.945312 C 45.355469 152.945312 46.15625 153.199219 46.757812 153.703125 C 47.355469 154.203125 47.65625 154.878906 47.65625 155.71875 C 47.65625 156.117188 47.578125 156.496094 47.429688 156.855469 C 47.28125 157.214844 47.007812 157.632812 46.613281 158.121094 C 46.503906 158.246094 46.160156 158.609375 45.578125 159.210938 C 44.996094 159.8125 44.175781 160.65625 43.117188 161.734375 Z M 43.117188 161.734375 "/>
<g clip-path="url(#clip8)" clip-rule="nonzero">
<path style="fill:none;stroke-width:0.8;stroke-linecap:square;stroke-linejoin:round;stroke:rgb(69.01961%,69.01961%,69.01961%);stroke-opacity:1;stroke-miterlimit:4;" d="M 43.78125 92.124023 L 239.080078 92.124023 " transform="matrix(1.333333,0,0,1.333333,0,0.000000000000014211)"/>
</g>
<path style="fill:none;stroke-width:0.8;stroke-linecap:butt;stroke-linejoin:round;stroke:rgb(0%,0%,0%);stroke-opacity:1;stroke-miterlimit:4;" d="M 0 0.0000228882 L -3.500977 0.0000228882 " transform="matrix(1.333333,0,0,1.333333,58.375,122.832001)"/>
<path style=" stroke:none;fill-rule:nonzero;fill:rgb(0%,0%,0%);fill-opacity:1;" d="M 32.074219 119.042969 C 31.398438 119.042969 30.890625 119.375 30.546875 120.042969 C 30.207031 120.707031 30.039062 121.710938 30.039062 123.046875 C 30.039062 124.378906 30.207031 125.378906 30.546875 126.046875 C 30.890625 126.710938 31.398438 127.046875 32.074219 127.046875 C 32.757812 127.046875 33.269531 126.710938 33.609375 126.046875 C 33.949219 125.378906 34.121094 124.378906 34.121094 123.046875 C 34.121094 121.710938 33.949219 120.707031 33.609375 120.042969 C 33.269531 119.375 32.757812 119.042969 32.074219 119.042969 Z M 32.074219 118 C 33.164062 118 33.996094 118.433594 34.574219 119.296875 C 35.148438 120.15625 35.433594 121.40625 35.433594 123.046875 C 35.433594 124.683594 35.148438 125.933594 34.574219 126.796875 C 33.996094 127.65625 33.164062 128.085938 32.074219 128.085938 C 30.984375 128.085938 30.152344 127.65625 29.578125 126.796875 C 29.003906 125.933594 28.714844 124.683594 28.714844 123.046875 C 28.714844 121.40625 29.003906 120.15625 29.578125 119.296875 C 30.152344 118.433594 30.984375 118 32.074219 118 Z M 32.074219 118 "/>
<path style=" stroke:none;fill-rule:nonzero;fill:rgb(0%,0%,0%);fill-opacity:1;" d="M 37.746094 126.242188 L 39.121094 126.242188 L 39.121094 127.898438 L 37.746094 127.898438 Z M 37.746094 126.242188 "/>
<path style=" stroke:none;fill-rule:nonzero;fill:rgb(0%,0%,0%);fill-opacity:1;" d="M 45.597656 119.324219 L 42.277344 124.511719 L 45.597656 124.511719 Z M 45.253906 118.175781 L 46.90625 118.175781 L 46.90625 124.511719 L 48.292969 124.511719 L 48.292969 125.605469 L 46.90625 125.605469 L 46.90625 127.898438 L 45.597656 127.898438 L 45.597656 125.605469 L 41.210938 125.605469 L 41.210938 124.335938 Z M 45.253906 118.175781 "/>
<g clip-path="url(#clip9)" clip-rule="nonzero">
<path style="fill:none;stroke-width:0.8;stroke-linecap:square;stroke-linejoin:round;stroke:rgb(69.01961%,69.01961%,69.01961%);stroke-opacity:1;stroke-miterlimit:4;" d="M 43.78125 65.915039 L 239.080078 65.915039 " transform="matrix(1.333333,0,0,1.333333,0,0.000000000000014211)"/>
</g>
<path style="fill:none;stroke-width:0.8;stroke-linecap:butt;stroke-linejoin:round;stroke:rgb(0%,0%,0%);stroke-opacity:1;stroke-miterlimit:4;" d="M 0 -0.000961304 L -3.500977 -0.000961304 " transform="matrix(1.333333,0,0,1.333333,58.375,87.888)"/>
<path style=" stroke:none;fill-rule:nonzero;fill:rgb(0%,0%,0%);fill-opacity:1;" d="M 32.074219 84.097656 C 31.398438 84.097656 30.890625 84.433594 30.546875 85.097656 C 30.207031 85.765625 30.039062 86.765625 30.039062 88.105469 C 30.039062 89.4375 30.207031 90.433594 30.546875 91.101562 C 30.890625 91.769531 31.398438 92.101562 32.074219 92.101562 C 32.757812 92.101562 33.269531 91.769531 33.609375 91.101562 C 33.949219 90.433594 34.121094 89.4375 34.121094 88.105469 C 34.121094 86.765625 33.949219 85.765625 33.609375 85.097656 C 33.269531 84.433594 32.757812 84.097656 32.074219 84.097656 Z M 32.074219 83.058594 C 33.164062 83.058594 33.996094 83.488281 34.574219 84.351562 C 35.148438 85.210938 35.433594 86.464844 35.433594 88.105469 C 35.433594 89.738281 35.148438 90.988281 34.574219 91.851562 C 33.996094 92.710938 33.164062 93.144531 32.074219 93.144531 C 30.984375 93.144531 30.152344 92.710938 29.578125 91.851562 C 29.003906 90.988281 28.714844 89.738281 28.714844 88.105469 C 28.714844 86.464844 29.003906 85.210938 29.578125 84.351562 C 30.152344 83.488281 30.984375 83.058594 32.074219 83.058594 Z M 32.074219 83.058594 "/>
<path style=" stroke:none;fill-rule:nonzero;fill:rgb(0%,0%,0%);fill-opacity:1;" d="M 37.746094 91.300781 L 39.121094 91.300781 L 39.121094 92.953125 L 37.746094 92.953125 Z M 37.746094 91.300781 "/>
<path style=" stroke:none;fill-rule:nonzero;fill:rgb(0%,0%,0%);fill-opacity:1;" d="M 44.960938 87.570312 C 44.371094 87.570312 43.902344 87.773438 43.558594 88.175781 C 43.210938 88.578125 43.039062 89.132812 43.039062 89.835938 C 43.039062 90.535156 43.210938 91.085938 43.558594 91.492188 C 43.902344 91.898438 44.371094 92.101562 44.960938 92.101562 C 45.550781 92.101562 46.019531 91.898438 46.363281 91.492188 C 46.707031 91.085938 46.878906 90.535156 46.878906 89.835938 C 46.878906 89.132812 46.707031 88.578125 46.363281 88.175781 C 46.019531 87.773438 45.550781 87.570312 44.960938 87.570312 Z M 47.570312 83.449219 L 47.570312 84.644531 C 47.242188 84.488281 46.90625 84.371094 46.570312 84.289062 C 46.234375 84.207031 45.902344 84.164062 45.570312 84.164062 C 44.703125 84.164062 44.039062 84.457031 43.582031 85.042969 C 43.125 85.628906 42.863281 86.515625 42.796875 87.699219 C 43.054688 87.320312 43.375 87.03125 43.761719 86.832031 C 44.148438 86.628906 44.574219 86.527344 45.039062 86.527344 C 46.015625 86.527344 46.785156 86.824219 47.351562 87.417969 C 47.917969 88.011719 48.203125 88.816406 48.203125 89.835938 C 48.203125 90.832031 47.90625 91.636719 47.316406 92.238281 C 46.726562 92.84375 45.941406 93.144531 44.960938 93.144531 C 43.835938 93.144531 42.976562 92.710938 42.382812 91.851562 C 41.789062 90.988281 41.488281 89.738281 41.488281 88.105469 C 41.488281 86.566406 41.855469 85.34375 42.582031 84.429688 C 43.3125 83.515625 44.292969 83.058594 45.519531 83.058594 C 45.851562 83.058594 46.183594 83.089844 46.519531 83.15625 C 46.855469 83.222656 47.207031 83.316406 47.570312 83.449219 Z M 47.570312 83.449219 "/>
<g clip-path="url(#clip10)" clip-rule="nonzero">
<path style="fill:none;stroke-width:0.8;stroke-linecap:square;stroke-linejoin:round;stroke:rgb(69.01961%,69.01961%,69.01961%);stroke-opacity:1;stroke-miterlimit:4;" d="M 43.78125 39.708984 L 239.080078 39.708984 " transform="matrix(1.333333,0,0,1.333333,0,0.000000000000014211)"/>
</g>
<path style="fill:none;stroke-width:0.8;stroke-linecap:butt;stroke-linejoin:round;stroke:rgb(0%,0%,0%);stroke-opacity:1;stroke-miterlimit:4;" d="M 0 0.000984192 L -3.500977 0.000984192 " transform="matrix(1.333333,0,0,1.333333,58.375,52.944)"/>
<path style=" stroke:none;fill-rule:nonzero;fill:rgb(0%,0%,0%);fill-opacity:1;" d="M 32.074219 49.15625 C 31.398438 49.15625 30.890625 49.488281 30.546875 50.15625 C 30.207031 50.820312 30.039062 51.820312 30.039062 53.160156 C 30.039062 54.492188 30.207031 55.492188 30.546875 56.15625 C 30.890625 56.824219 31.398438 57.15625 32.074219 57.15625 C 32.757812 57.15625 33.269531 56.824219 33.609375 56.15625 C 33.949219 55.492188 34.121094 54.492188 34.121094 53.160156 C 34.121094 51.820312 33.949219 50.820312 33.609375 50.15625 C 33.269531 49.488281 32.757812 49.15625 32.074219 49.15625 Z M 32.074219 48.113281 C 33.164062 48.113281 33.996094 48.546875 34.574219 49.40625 C 35.148438 50.269531 35.433594 51.519531 35.433594 53.160156 C 35.433594 54.796875 35.148438 56.046875 34.574219 56.90625 C 33.996094 57.769531 33.164062 58.199219 32.074219 58.199219 C 30.984375 58.199219 30.152344 57.769531 29.578125 56.90625 C 29.003906 56.046875 28.714844 54.796875 28.714844 53.160156 C 28.714844 51.519531 29.003906 50.269531 29.578125 49.40625 C 30.152344 48.546875 30.984375 48.113281 32.074219 48.113281 Z M 32.074219 48.113281 "/>
<path style=" stroke:none;fill-rule:nonzero;fill:rgb(0%,0%,0%);fill-opacity:1;" d="M 37.746094 56.355469 L 39.121094 56.355469 L 39.121094 58.007812 L 37.746094 58.007812 Z M 37.746094 56.355469 "/>
<path style=" stroke:none;fill-rule:nonzero;fill:rgb(0%,0%,0%);fill-opacity:1;" d="M 44.796875 53.394531 C 44.171875 53.394531 43.679688 53.558594 43.320312 53.894531 C 42.964844 54.230469 42.785156 54.691406 42.785156 55.273438 C 42.785156 55.859375 42.964844 56.320312 43.320312 56.65625 C 43.679688 56.988281 44.171875 57.15625 44.796875 57.15625 C 45.421875 57.15625 45.914062 56.988281 46.273438 56.652344 C 46.632812 56.316406 46.816406 55.855469 46.816406 55.273438 C 46.816406 54.691406 46.636719 54.230469 46.277344 53.894531 C 45.921875 53.558594 45.425781 53.394531 44.796875 53.394531 Z M 43.480469 52.835938 C 42.917969 52.695312 42.476562 52.433594 42.164062 52.046875 C 41.847656 51.660156 41.691406 51.1875 41.691406 50.632812 C 41.691406 49.855469 41.96875 49.242188 42.519531 48.789062 C 43.074219 48.339844 43.832031 48.113281 44.796875 48.113281 C 45.765625 48.113281 46.523438 48.339844 47.074219 48.789062 C 47.625 49.242188 47.902344 49.855469 47.902344 50.632812 C 47.902344 51.1875 47.746094 51.660156 47.429688 52.046875 C 47.117188 52.433594 46.679688 52.695312 46.121094 52.835938 C 46.753906 52.980469 47.246094 53.269531 47.597656 53.703125 C 47.953125 54.128906 48.128906 54.65625 48.128906 55.273438 C 48.128906 56.21875 47.84375 56.941406 47.265625 57.445312 C 46.691406 57.949219 45.867188 58.199219 44.796875 58.199219 C 43.726562 58.199219 42.902344 57.949219 42.324219 57.445312 C 41.75 56.941406 41.464844 56.21875 41.464844 55.273438 C 41.464844 54.65625 41.640625 54.128906 41.996094 53.703125 C 42.351562 53.269531 42.847656 52.980469 43.480469 52.835938 Z M 43 50.757812 C 43 51.261719 43.15625 51.652344 43.472656 51.933594 C 43.785156 52.214844 44.226562 52.359375 44.796875 52.359375 C 45.363281 52.359375 45.804688 52.214844 46.121094 51.933594 C 46.441406 51.652344 46.601562 51.261719 46.601562 50.757812 C 46.601562 50.253906 46.441406 49.859375 46.121094 49.578125 C 45.804688 49.296875 45.363281 49.15625 44.796875 49.15625 C 44.226562 49.15625 43.785156 49.296875 43.472656 49.578125 C 43.15625 49.859375 43 50.253906 43 50.757812 Z M 43 50.757812 "/>
<g clip-path="url(#clip11)" clip-rule="nonzero">
<path style="fill:none;stroke-width:0.8;stroke-linecap:square;stroke-linejoin:round;stroke:rgb(69.01961%,69.01961%,69.01961%);stroke-opacity:1;stroke-miterlimit:4;" d="M 43.78125 13.5 L 239.080078 13.5 " transform="matrix(1.333333,0,0,1.333333,0,0.000000000000014211)"/>
</g>
<path style="fill:none;stroke-width:0.8;stroke-linecap:butt;stroke-linejoin:round;stroke:rgb(0%,0%,0%);stroke-opacity:1;stroke-miterlimit:4;" d="M 0 -0.000000000000010658 L -3.500977 -0.000000000000010658 " transform="matrix(1.333333,0,0,1.333333,58.375,18)"/>
<path style=" stroke:none;fill-rule:nonzero;fill:rgb(0%,0%,0%);fill-opacity:1;" d="M 29.492188 21.960938 L 31.640625 21.960938 L 31.640625 14.542969 L 29.300781 15.011719 L 29.300781 13.8125 L 31.628906 13.34375 L 32.941406 13.34375 L 32.941406 21.960938 L 35.089844 21.960938 L 35.089844 23.066406 L 29.492188 23.066406 Z M 29.492188 21.960938 "/>
<path style=" stroke:none;fill-rule:nonzero;fill:rgb(0%,0%,0%);fill-opacity:1;" d="M 37.746094 21.410156 L 39.121094 21.410156 L 39.121094 23.066406 L 37.746094 23.066406 Z M 37.746094 21.410156 "/>
<path style=" stroke:none;fill-rule:nonzero;fill:rgb(0%,0%,0%);fill-opacity:1;" d="M 44.796875 14.210938 C 44.121094 14.210938 43.609375 14.542969 43.269531 15.210938 C 42.929688 15.875 42.757812 16.878906 42.757812 18.214844 C 42.757812 19.546875 42.929688 20.546875 43.269531 21.214844 C 43.609375 21.878906 44.121094 22.214844 44.796875 22.214844 C 45.476562 22.214844 45.988281 21.878906 46.328125 21.214844 C 46.671875 20.546875 46.84375 19.546875 46.84375 18.214844 C 46.84375 16.878906 46.671875 15.875 46.328125 15.210938 C 45.988281 14.542969 45.476562 14.210938 44.796875 14.210938 Z M 44.796875 13.167969 C 45.886719 13.167969 46.71875 13.601562 47.292969 14.464844 C 47.871094 15.324219 48.15625 16.574219 48.15625 18.214844 C 48.15625 19.851562 47.871094 21.101562 47.292969 21.964844 C 46.71875 22.824219 45.886719 23.253906 44.796875 23.253906 C 43.707031 23.253906 42.875 22.824219 42.300781 21.964844 C 41.726562 21.101562 41.4375 19.851562 41.4375 18.214844 C 41.4375 16.574219 41.726562 15.324219 42.300781 14.464844 C 42.875 13.601562 43.707031 13.167969 44.796875 13.167969 Z M 44.796875 13.167969 "/>
<path style=" stroke:none;fill-rule:nonzero;fill:rgb(0%,0%,0%);fill-opacity:1;" d="M 18.636719 116.269531 L 22.503906 116.269531 L 22.503906 117.472656 L 12.441406 117.472656 L 12.441406 116.269531 L 13.546875 116.269531 C 13.113281 116.015625 12.789062 115.699219 12.582031 115.316406 C 12.371094 114.929688 12.265625 114.472656 12.265625 113.9375 C 12.265625 113.050781 12.617188 112.332031 13.320312 111.78125 C 14.023438 111.226562 14.945312 110.949219 16.089844 110.949219 C 17.238281 110.949219 18.164062 111.226562 18.867188 111.78125 C 19.570312 112.332031 19.921875 113.050781 19.921875 113.9375 C 19.921875 114.472656 19.816406 114.929688 19.605469 115.316406 C 19.394531 115.699219 19.070312 116.015625 18.636719 116.269531 Z M 16.089844 112.191406 C 15.210938 112.191406 14.519531 112.375 14.019531 112.738281 C 13.515625 113.097656 13.265625 113.597656 13.265625 114.230469 C 13.265625 114.863281 13.515625 115.363281 14.019531 115.726562 C 14.519531 116.089844 15.210938 116.269531 16.089844 116.269531 C 16.972656 116.269531 17.664062 116.089844 18.164062 115.726562 C 18.664062 115.363281 18.917969 114.863281 18.917969 114.230469 C 18.917969 113.597656 18.664062 113.097656 18.164062 112.738281 C 17.664062 112.375 16.972656 112.191406 16.089844 112.191406 Z M 16.089844 112.191406 "/>
<path style=" stroke:none;fill-rule:nonzero;fill:rgb(0%,0%,0%);fill-opacity:1;" d="M 18.078125 108.796875 L 18.078125 107.421875 L 19.730469 107.421875 L 19.730469 108.796875 Z M 18.078125 108.796875 "/>
<path style=" stroke:none;fill-rule:nonzero;fill:rgb(0%,0%,0%);fill-opacity:1;" d="M 13.546875 99.929688 L 9.601562 99.929688 L 9.601562 98.730469 L 19.730469 98.730469 L 19.730469 99.929688 L 18.636719 99.929688 C 19.070312 100.179688 19.394531 100.496094 19.605469 100.882812 C 19.816406 101.265625 19.921875 101.726562 19.921875 102.265625 C 19.921875 103.144531 19.570312 103.863281 18.867188 104.417969 C 18.164062 104.972656 17.238281 105.246094 16.089844 105.246094 C 14.945312 105.246094 14.023438 104.972656 13.320312 104.417969 C 12.617188 103.863281 12.265625 103.144531 12.265625 102.265625 C 12.265625 101.726562 12.371094 101.265625 12.582031 100.882812 C 12.789062 100.496094 13.113281 100.179688 13.546875 99.929688 Z M 16.089844 104.007812 C 16.972656 104.007812 17.664062 103.828125 18.164062 103.464844 C 18.664062 103.101562 18.917969 102.605469 18.917969 101.972656 C 18.917969 101.339844 18.664062 100.839844 18.164062 100.476562 C 17.664062 100.109375 16.972656 99.929688 16.089844 99.929688 C 15.210938 99.929688 14.519531 100.109375 14.019531 100.476562 C 13.515625 100.839844 13.265625 101.339844 13.265625 101.972656 C 13.265625 102.605469 13.515625 103.101562 14.019531 103.464844 C 14.519531 103.828125 15.210938 104.007812 16.089844 104.007812 Z M 16.089844 104.007812 "/>
<path style=" stroke:none;fill-rule:nonzero;fill:rgb(0%,0%,0%);fill-opacity:1;" d="M 18.078125 96.09375 L 18.078125 94.71875 L 19.730469 94.71875 L 19.730469 96.09375 Z M 18.078125 96.09375 "/>
<path style=" stroke:none;fill-rule:nonzero;fill:rgb(0%,0%,0%);fill-opacity:1;" d="M 9.601562 88.332031 L 10.597656 88.332031 L 10.597656 89.480469 C 10.597656 89.90625 10.683594 90.207031 10.859375 90.375 C 11.03125 90.542969 11.34375 90.625 11.796875 90.625 L 12.441406 90.625 L 12.441406 88.652344 L 13.371094 88.652344 L 13.371094 90.625 L 19.730469 90.625 L 19.730469 91.828125 L 13.371094 91.828125 L 13.371094 92.972656 L 12.441406 92.972656 L 12.441406 91.828125 L 11.929688 91.828125 C 11.121094 91.828125 10.527344 91.640625 10.160156 91.261719 C 9.785156 90.882812 9.601562 90.285156 9.601562 89.464844 Z M 9.601562 88.332031 "/>
<path style=" stroke:none;fill-rule:nonzero;fill:rgb(0%,0%,0%);fill-opacity:1;" d="M 18.078125 88.128906 L 18.078125 86.753906 L 19.730469 86.753906 L 19.730469 88.128906 Z M 18.078125 88.128906 "/>
<path style="fill:none;stroke-width:1.5;stroke-linecap:square;stroke-linejoin:round;stroke:rgb(12.156863%,46.666667%,70.588237%);stroke-opacity:1;stroke-miterlimit:4;" d="M 52.658203 139.5 L 60.301758 138.553711 L 66.697266 137.542969 L 72.208008 136.456055 L 77.006836 135.295898 L 81.272461 134.050781 L 85.180664 132.679688 L 88.737305 131.197266 L 91.936523 129.621094 L 94.77832 127.989258 L 97.444336 126.213867 L 99.931641 124.303711 L 102.243164 122.270508 L 104.554688 119.938477 L 106.6875 117.474609 L 108.820312 114.65918 L 110.774414 111.720703 L 112.728516 108.383789 L 114.682617 104.589844 L 116.639648 100.268555 L 118.59375 95.352539 L 120.547852 89.765625 L 122.504883 83.446289 L 124.458984 76.347656 L 126.591797 67.710937 L 129.079102 56.592773 L 135.65625 26.370117 L 137.077148 21.208008 L 138.143555 18.064453 L 139.03125 16.019531 L 139.921875 14.551758 L 140.630859 13.828125 L 141.164062 13.552734 L 141.697266 13.511719 L 142.230469 13.708008 L 142.763672 14.138672 L 143.475586 15.067383 L 144.18457 16.382812 L 145.075195 18.539062 L 146.141602 21.796875 L 147.383789 26.370117 L 148.983398 33.149414 L 151.649414 45.635742 L 155.560547 63.855469 L 157.87207 73.570312 L 160.001953 81.588867 L 161.958984 88.119141 L 163.913086 93.899414 L 165.867188 98.991211 L 167.824219 103.467773 L 169.77832 107.399414 L 171.732422 110.853516 L 173.865234 114.152344 L 175.998047 117.032227 L 178.130859 119.548828 L 180.442383 121.930664 L 182.750977 124.007812 L 185.241211 125.956055 L 187.907227 127.766602 L 190.749023 129.430664 L 193.948242 131.033203 L 197.326172 132.474609 L 201.058594 133.819336 L 205.145508 135.055664 L 209.765625 136.21875 L 214.918945 137.282227 L 220.78418 138.266602 L 227.537109 139.174805 L 230.203125 139.479492 " transform="matrix(1.333333,0,0,1.333333,0,0.000000000000014211)"/>
<path style="fill:none;stroke-width:0.8;stroke-linecap:square;stroke-linejoin:miter;stroke:rgb(0%,0%,0%);stroke-opacity:1;stroke-miterlimit:4;" d="M 43.78125 145.798828 L 43.78125 7.201172 " transform="matrix(1.333333,0,0,1.333333,0,0.000000000000014211)"/>
<path style="fill:none;stroke-width:0.8;stroke-linecap:square;stroke-linejoin:miter;stroke:rgb(0%,0%,0%);stroke-opacity:1;stroke-miterlimit:4;" d="M 239.080078 145.798828 L 239.080078 7.201172 " transform="matrix(1.333333,0,0,1.333333,0,0.000000000000014211)"/>
<path style="fill:none;stroke-width:0.8;stroke-linecap:square;stroke-linejoin:miter;stroke:rgb(0%,0%,0%);stroke-opacity:1;stroke-miterlimit:4;" d="M 43.78125 145.798828 L 239.080078 145.798828 " transform="matrix(1.333333,0,0,1.333333,0,0.000000000000014211)"/>
<path style="fill:none;stroke-width:0.8;stroke-linecap:square;stroke-linejoin:miter;stroke:rgb(0%,0%,0%);stroke-opacity:1;stroke-miterlimit:4;" d="M 43.78125 7.201172 L 239.080078 7.201172 " transform="matrix(1.333333,0,0,1.333333,0,0.000000000000014211)"/>
</g>
</svg>
