<?xml version="1.0" encoding="UTF-8"?>
<svg xmlns="http://www.w3.org/2000/svg" xmlns:xlink="http://www.w3.org/1999/xlink" width="507.310425" height="244.474996" viewBox="0 0 507.310425 244.474996" version="1.1">
<defs>
<clipPath id="clip1">
  <path d="M 70 9.601562 L 73 9.601562 L 73 194.398438 L 70 194.398438 Z M 70 9.601562 "/>
</clipPath>
<clipPath id="clip2">
  <path d="M 139 9.601562 L 142 9.601562 L 142 194.398438 L 139 194.398438 Z M 139 9.601562 "/>
</clipPath>
<clipPath id="clip3">
  <path d="M 208 9.601562 L 210 9.601562 L 210 194.398438 L 208 194.398438 Z M 208 9.601562 "/>
</clipPath>
<clipPath id="clip4">
  <path d="M 277 9.601562 L 279 9.601562 L 279 194.398438 L 277 194.398438 Z M 277 9.601562 "/>
</clipPath>
<clipPath id="clip5">
  <path d="M 345 9.601562 L 348 9.601562 L 348 194.398438 L 345 194.398438 Z M 345 9.601562 "/>
</clipPath>
<clipPath id="clip6">
  <path d="M 414 9.601562 L 417 9.601562 L 417 194.398438 L 414 194.398438 Z M 414 9.601562 "/>
</clipPath>
<clipPath id="clip7">
  <path d="M 483 9.601562 L 486 9.601562 L 486 194.398438 L 483 194.398438 Z M 483 9.601562 "/>
</clipPath>
<clipPath id="clip8">
  <path d="M 51.308594 185 L 497.710938 185 L 497.710938 187 L 51.308594 187 Z M 51.308594 185 "/>
</clipPath>
<clipPath id="clip9">
  <path d="M 51.308594 143 L 497.710938 143 L 497.710938 145 L 51.308594 145 Z M 51.308594 143 "/>
</clipPath>
<clipPath id="clip10">
  <path d="M 51.308594 101 L 497.710938 101 L 497.710938 103 L 51.308594 103 Z M 51.308594 101 "/>
</clipPath>
<clipPath id="clip11">
  <path d="M 51.308594 59 L 497.710938 59 L 497.710938 61 L 51.308594 61 Z M 51.308594 59 "/>
</clipPath>
<clipPath id="clip12">
  <path d="M 51.308594 17 L 497.710938 17 L 497.710938 19 L 51.308594 19 Z M 51.308594 17 "/>
</clipPath>
<filter id="alpha" filterUnits="objectBoundingBox" x="0%" y="0%" width="100%" height="100%">
  <feColorMatrix type="matrix" in="SourceGraphic" values="0 0 0 0 1 0 0 0 0 1 0 0 0 0 1 0 0 0 1 0"/>
</filter>
<mask id="mask0">
  <g filter="url(#alpha)">
<rect x="0" y="0" width="507.310425" height="244.474996" style="fill:rgb(0%,0%,0%);fill-opacity:0.8;stroke:none;"/>
  </g>
</mask>
<clipPath id="clip13">
  <rect x="0" y="0" width="508" height="245"/>
</clipPath>
<g id="surface5" clip-path="url(#clip13)">
<path style="fill-rule:nonzero;fill:rgb(100%,100%,100%);fill-opacity:1;stroke-width:1;stroke-linecap:butt;stroke-linejoin:miter;stroke:rgb(80.000001%,80.000001%,80.000001%);stroke-opacity:1;stroke-miterlimit:4;" d="M 45.483398 140.800781 L 102.902344 140.800781 C 104.235352 140.800781 104.90332 140.132812 104.90332 138.799805 L 104.90332 81.087891 C 104.90332 79.754883 104.235352 79.086914 102.902344 79.086914 L 45.483398 79.086914 C 44.150391 79.086914 43.482422 79.754883 43.482422 81.087891 L 43.482422 138.799805 C 43.482422 140.132812 44.150391 140.800781 45.483398 140.800781 Z M 45.483398 140.800781 " transform="matrix(1.333333,0,0,1.333333,0,0.000000000000014211)"/>
</g>
</defs>
<g id="surface1">
<path style=" stroke:none;fill-rule:nonzero;fill:rgb(100%,100%,100%);fill-opacity:1;" d="M 0 244.476562 L 507.308594 244.476562 L 507.308594 0 L 0 0 Z M 0 244.476562 "/>
<path style=" stroke:none;fill-rule:nonzero;fill:rgb(100%,100%,100%);fill-opacity:1;" d="M 51.308594 194.398438 L 497.710938 194.398438 L 497.710938 9.601562 L 51.308594 9.601562 Z M 51.308594 194.398438 "/>
<g clip-path="url(#clip1)" clip-rule="nonzero">
<path style="fill:none;stroke-width:0.8;stroke-linecap:square;stroke-linejoin:round;stroke:rgb(69.01961%,69.01961%,69.01961%);stroke-opacity:1;stroke-miterlimit:4;" d="M 53.701172 145.798828 L 53.701172 7.201172 " transform="matrix(1.333333,0,0,1.333333,0,0.000000000000014211)"/>
</g>
<path style="fill:none;stroke-width:0.8;stroke-linecap:butt;stroke-linejoin:round;stroke:rgb(0%,0%,0%);stroke-opacity:1;stroke-miterlimit:4;" d="M 0.000179291 -0.00117493 L 0.000179291 3.499802 " transform="matrix(1.333333,0,0,1.333333,71.601323,194.400004)"/>
<path style=" stroke:none;fill-rule:nonzero;fill:rgb(0%,0%,0%);fill-opacity:1;" d="M 71.597656 205.011719 C 70.921875 205.011719 70.410156 205.34375 70.070312 206.011719 C 69.730469 206.675781 69.558594 207.675781 69.558594 209.015625 C 69.558594 210.347656 69.730469 211.347656 70.070312 212.011719 C 70.410156 212.679688 70.921875 213.011719 71.597656 213.011719 C 72.277344 213.011719 72.789062 212.679688 73.128906 212.011719 C 73.472656 211.347656 73.644531 210.347656 73.644531 209.015625 C 73.644531 207.675781 73.472656 206.675781 73.128906 206.011719 C 72.789062 205.34375 72.277344 205.011719 71.597656 205.011719 Z M 71.597656 203.96875 C 72.6875 203.96875 73.519531 204.398438 74.09375 205.261719 C 74.671875 206.125 74.957031 207.375 74.957031 209.015625 C 74.957031 210.652344 74.671875 211.898438 74.09375 212.761719 C 73.519531 213.625 72.6875 214.054688 71.597656 214.054688 C 70.507812 214.054688 69.675781 213.625 69.101562 212.761719 C 68.527344 211.898438 68.238281 210.652344 68.238281 209.015625 C 68.238281 207.375 68.527344 206.125 69.101562 205.261719 C 69.675781 204.398438 70.507812 203.96875 71.597656 203.96875 Z M 71.597656 203.96875 "/>
<g clip-path="url(#clip2)" clip-rule="nonzero">
<path style="fill:none;stroke-width:0.8;stroke-linecap:square;stroke-linejoin:round;stroke:rgb(69.01961%,69.01961%,69.01961%);stroke-opacity:1;stroke-miterlimit:4;" d="M 105.287109 145.798828 L 105.287109 7.201172 " transform="matrix(1.333333,0,0,1.333333,0,0.000000000000014211)"/>
</g>
<path style="fill:none;stroke-width:0.8;stroke-linecap:butt;stroke-linejoin:round;stroke:rgb(0%,0%,0%);stroke-opacity:1;stroke-miterlimit:4;" d="M -0.000938416 -0.00117493 L -0.000938416 3.499802 " transform="matrix(1.333333,0,0,1.333333,140.384064,194.400004)"/>
<path style=" stroke:none;fill-rule:nonzero;fill:rgb(0%,0%,0%);fill-opacity:1;" d="M 133.554688 212.757812 L 135.703125 212.757812 L 135.703125 205.339844 L 133.367188 205.808594 L 133.367188 204.613281 L 135.691406 204.144531 L 137.003906 204.144531 L 137.003906 212.757812 L 139.152344 212.757812 L 139.152344 213.863281 L 133.554688 213.863281 Z M 133.554688 212.757812 "/>
<path style=" stroke:none;fill-rule:nonzero;fill:rgb(0%,0%,0%);fill-opacity:1;" d="M 144.621094 205.011719 C 143.945312 205.011719 143.4375 205.34375 143.09375 206.011719 C 142.753906 206.675781 142.582031 207.675781 142.582031 209.015625 C 142.582031 210.347656 142.753906 211.347656 143.09375 212.011719 C 143.4375 212.679688 143.945312 213.011719 144.621094 213.011719 C 145.304688 213.011719 145.8125 212.679688 146.15625 212.011719 C 146.496094 211.347656 146.667969 210.347656 146.667969 209.015625 C 146.667969 207.675781 146.496094 206.675781 146.15625 206.011719 C 145.8125 205.34375 145.304688 205.011719 144.621094 205.011719 Z M 144.621094 203.96875 C 145.710938 203.96875 146.542969 204.398438 147.121094 205.261719 C 147.695312 206.125 147.980469 207.375 147.980469 209.015625 C 147.980469 210.652344 147.695312 211.898438 147.121094 212.761719 C 146.542969 213.625 145.710938 214.054688 144.621094 214.054688 C 143.53125 214.054688 142.699219 213.625 142.125 212.761719 C 141.550781 211.898438 141.261719 210.652344 141.261719 209.015625 C 141.261719 207.375 141.550781 206.125 142.125 205.261719 C 142.699219 204.398438 143.53125 203.96875 144.621094 203.96875 Z M 144.621094 203.96875 "/>
<g clip-path="url(#clip3)" clip-rule="nonzero">
<path style="fill:none;stroke-width:0.8;stroke-linecap:square;stroke-linejoin:round;stroke:rgb(69.01961%,69.01961%,69.01961%);stroke-opacity:1;stroke-miterlimit:4;" d="M 156.875977 145.798828 L 156.875977 7.201172 " transform="matrix(1.333333,0,0,1.333333,0,0.000000000000014211)"/>
</g>
<path style="fill:none;stroke-width:0.8;stroke-linecap:butt;stroke-linejoin:round;stroke:rgb(0%,0%,0%);stroke-opacity:1;stroke-miterlimit:4;" d="M 0.000869751 -0.00117493 L 0.000869751 3.499802 " transform="matrix(1.333333,0,0,1.333333,209.166809,194.400004)"/>
<path style=" stroke:none;fill-rule:nonzero;fill:rgb(0%,0%,0%);fill-opacity:1;" d="M 203.242188 212.757812 L 207.832031 212.757812 L 207.832031 213.863281 L 201.660156 213.863281 L 201.660156 212.757812 C 202.160156 212.242188 202.839844 211.546875 203.699219 210.679688 C 204.5625 209.808594 205.105469 209.246094 205.324219 208.992188 C 205.746094 208.523438 206.039062 208.121094 206.207031 207.792969 C 206.375 207.464844 206.457031 207.144531 206.457031 206.828125 C 206.457031 206.308594 206.277344 205.890625 205.914062 205.566406 C 205.550781 205.238281 205.078125 205.074219 204.5 205.074219 C 204.085938 205.074219 203.648438 205.148438 203.191406 205.289062 C 202.734375 205.433594 202.246094 205.648438 201.726562 205.941406 L 201.726562 204.613281 C 202.253906 204.398438 202.75 204.238281 203.207031 204.132812 C 203.667969 204.023438 204.089844 203.96875 204.472656 203.96875 C 205.480469 203.96875 206.28125 204.222656 206.882812 204.726562 C 207.480469 205.226562 207.78125 205.898438 207.78125 206.742188 C 207.78125 207.140625 207.703125 207.519531 207.554688 207.878906 C 207.40625 208.234375 207.132812 208.65625 206.738281 209.144531 C 206.628906 209.269531 206.285156 209.632812 205.703125 210.234375 C 205.121094 210.835938 204.300781 211.679688 203.242188 212.757812 Z M 203.242188 212.757812 "/>
<path style=" stroke:none;fill-rule:nonzero;fill:rgb(0%,0%,0%);fill-opacity:1;" d="M 213.402344 205.011719 C 212.726562 205.011719 212.21875 205.34375 211.878906 206.011719 C 211.535156 206.675781 211.367188 207.675781 211.367188 209.015625 C 211.367188 210.347656 211.535156 211.347656 211.878906 212.011719 C 212.21875 212.679688 212.726562 213.011719 213.402344 213.011719 C 214.085938 213.011719 214.597656 212.679688 214.9375 212.011719 C 215.277344 211.347656 215.449219 210.347656 215.449219 209.015625 C 215.449219 207.675781 215.277344 206.675781 214.9375 206.011719 C 214.597656 205.34375 214.085938 205.011719 213.402344 205.011719 Z M 213.402344 203.96875 C 214.496094 203.96875 215.328125 204.398438 215.902344 205.261719 C 216.476562 206.125 216.765625 207.375 216.765625 209.015625 C 216.765625 210.652344 216.476562 211.898438 215.902344 212.761719 C 215.328125 213.625 214.496094 214.054688 213.402344 214.054688 C 212.316406 214.054688 211.484375 213.625 210.910156 212.761719 C 210.332031 211.898438 210.046875 210.652344 210.046875 209.015625 C 210.046875 207.375 210.332031 206.125 210.910156 205.261719 C 211.484375 204.398438 212.316406 203.96875 213.402344 203.96875 Z M 213.402344 203.96875 "/>
<g clip-path="url(#clip4)" clip-rule="nonzero">
<path style="fill:none;stroke-width:0.8;stroke-linecap:square;stroke-linejoin:round;stroke:rgb(69.01961%,69.01961%,69.01961%);stroke-opacity:1;stroke-miterlimit:4;" d="M 208.461914 145.798828 L 208.461914 7.201172 " transform="matrix(1.333333,0,0,1.333333,0,0.000000000000014211)"/>
</g>
<path style="fill:none;stroke-width:0.8;stroke-linecap:butt;stroke-linejoin:round;stroke:rgb(0%,0%,0%);stroke-opacity:1;stroke-miterlimit:4;" d="M -0.000244141 -0.00117493 L -0.000244141 3.499802 " transform="matrix(1.333333,0,0,1.333333,277.949544,194.400004)"/>
<path style=" stroke:none;fill-rule:nonzero;fill:rgb(0%,0%,0%);fill-opacity:1;" d="M 274.875 208.621094 C 275.503906 208.757812 275.996094 209.039062 276.347656 209.464844 C 276.703125 209.890625 276.878906 210.414062 276.878906 211.039062 C 276.878906 211.996094 276.550781 212.742188 275.890625 213.265625 C 275.230469 213.792969 274.292969 214.054688 273.078125 214.054688 C 272.671875 214.054688 272.253906 214.015625 271.820312 213.933594 C 271.386719 213.851562 270.941406 213.730469 270.484375 213.570312 L 270.484375 212.300781 C 270.847656 212.515625 271.246094 212.675781 271.679688 212.785156 C 272.113281 212.890625 272.566406 212.945312 273.042969 212.945312 C 273.863281 212.945312 274.492188 212.785156 274.925781 212.457031 C 275.355469 212.132812 275.574219 211.660156 275.574219 211.039062 C 275.574219 210.464844 275.371094 210.019531 274.96875 209.695312 C 274.570312 209.371094 274.011719 209.210938 273.296875 209.210938 L 272.160156 209.210938 L 272.160156 208.128906 L 273.347656 208.128906 C 273.992188 208.128906 274.488281 208 274.832031 207.742188 C 275.175781 207.484375 275.34375 207.109375 275.34375 206.625 C 275.34375 206.125 275.167969 205.742188 274.8125 205.476562 C 274.460938 205.210938 273.957031 205.074219 273.296875 205.074219 C 272.933594 205.074219 272.546875 205.113281 272.136719 205.195312 C 271.722656 205.273438 271.269531 205.390625 270.773438 205.554688 L 270.773438 204.386719 C 271.273438 204.246094 271.742188 204.140625 272.179688 204.074219 C 272.613281 204.003906 273.027344 203.96875 273.410156 203.96875 C 274.410156 203.96875 275.199219 204.195312 275.78125 204.648438 C 276.363281 205.101562 276.652344 205.714844 276.652344 206.488281 C 276.652344 207.027344 276.5 207.480469 276.191406 207.851562 C 275.882812 208.222656 275.445312 208.480469 274.875 208.621094 Z M 274.875 208.621094 "/>
<path style=" stroke:none;fill-rule:nonzero;fill:rgb(0%,0%,0%);fill-opacity:1;" d="M 282.1875 205.011719 C 281.511719 205.011719 281 205.34375 280.660156 206.011719 C 280.320312 206.675781 280.148438 207.675781 280.148438 209.015625 C 280.148438 210.347656 280.320312 211.347656 280.660156 212.011719 C 281 212.679688 281.511719 213.011719 282.1875 213.011719 C 282.867188 213.011719 283.378906 212.679688 283.71875 212.011719 C 284.0625 211.347656 284.234375 210.347656 284.234375 209.015625 C 284.234375 207.675781 284.0625 206.675781 283.71875 206.011719 C 283.378906 205.34375 282.867188 205.011719 282.1875 205.011719 Z M 282.1875 203.96875 C 283.277344 203.96875 284.109375 204.398438 284.683594 205.261719 C 285.257812 206.125 285.546875 207.375 285.546875 209.015625 C 285.546875 210.652344 285.257812 211.898438 284.683594 212.761719 C 284.109375 213.625 283.277344 214.054688 282.1875 214.054688 C 281.097656 214.054688 280.265625 213.625 279.691406 212.761719 C 279.117188 211.898438 278.828125 210.652344 278.828125 209.015625 C 278.828125 207.375 279.117188 206.125 279.691406 205.261719 C 280.265625 204.398438 281.097656 203.96875 282.1875 203.96875 Z M 282.1875 203.96875 "/>
<g clip-path="url(#clip5)" clip-rule="nonzero">
<path style="fill:none;stroke-width:0.8;stroke-linecap:square;stroke-linejoin:round;stroke:rgb(69.01961%,69.01961%,69.01961%);stroke-opacity:1;stroke-miterlimit:4;" d="M 260.047852 145.798828 L 260.047852 7.201172 " transform="matrix(1.333333,0,0,1.333333,0,0.000000000000014211)"/>
</g>
<path style="fill:none;stroke-width:0.8;stroke-linecap:butt;stroke-linejoin:round;stroke:rgb(0%,0%,0%);stroke-opacity:1;stroke-miterlimit:4;" d="M -0.00137329 -0.00117493 L -0.00137329 3.499802 " transform="matrix(1.333333,0,0,1.333333,346.7323,194.400004)"/>
<path style=" stroke:none;fill-rule:nonzero;fill:rgb(0%,0%,0%);fill-opacity:1;" d="M 343.289062 205.289062 L 339.96875 210.480469 L 343.289062 210.480469 Z M 342.941406 204.144531 L 344.597656 204.144531 L 344.597656 210.480469 L 345.984375 210.480469 L 345.984375 211.574219 L 344.597656 211.574219 L 344.597656 213.863281 L 343.289062 213.863281 L 343.289062 211.574219 L 338.902344 211.574219 L 338.902344 210.304688 Z M 342.941406 204.144531 "/>
<path style=" stroke:none;fill-rule:nonzero;fill:rgb(0%,0%,0%);fill-opacity:1;" d="M 350.96875 205.011719 C 350.292969 205.011719 349.785156 205.34375 349.441406 206.011719 C 349.101562 206.675781 348.933594 207.675781 348.933594 209.015625 C 348.933594 210.347656 349.101562 211.347656 349.441406 212.011719 C 349.785156 212.679688 350.292969 213.011719 350.96875 213.011719 C 351.652344 213.011719 352.164062 212.679688 352.503906 212.011719 C 352.84375 211.347656 353.015625 210.347656 353.015625 209.015625 C 353.015625 207.675781 352.84375 206.675781 352.503906 206.011719 C 352.164062 205.34375 351.652344 205.011719 350.96875 205.011719 Z M 350.96875 203.96875 C 352.058594 203.96875 352.890625 204.398438 353.46875 205.261719 C 354.042969 206.125 354.328125 207.375 354.328125 209.015625 C 354.328125 210.652344 354.042969 211.898438 353.46875 212.761719 C 352.890625 213.625 352.058594 214.054688 350.96875 214.054688 C 349.878906 214.054688 349.046875 213.625 348.472656 212.761719 C 347.898438 211.898438 347.609375 210.652344 347.609375 209.015625 C 347.609375 207.375 347.898438 206.125 348.472656 205.261719 C 349.046875 204.398438 349.878906 203.96875 350.96875 203.96875 Z M 350.96875 203.96875 "/>
<g clip-path="url(#clip6)" clip-rule="nonzero">
<path style="fill:none;stroke-width:0.8;stroke-linecap:square;stroke-linejoin:round;stroke:rgb(69.01961%,69.01961%,69.01961%);stroke-opacity:1;stroke-miterlimit:4;" d="M 311.636719 145.798828 L 311.636719 7.201172 " transform="matrix(1.333333,0,0,1.333333,0,0.000000000000014211)"/>
</g>
<path style="fill:none;stroke-width:0.8;stroke-linecap:butt;stroke-linejoin:round;stroke:rgb(0%,0%,0%);stroke-opacity:1;stroke-miterlimit:4;" d="M 0.000427246 -0.00117493 L 0.000427246 3.499802 " transform="matrix(1.333333,0,0,1.333333,415.515055,194.400004)"/>
<path style=" stroke:none;fill-rule:nonzero;fill:rgb(0%,0%,0%);fill-opacity:1;" d="M 408.472656 204.144531 L 413.632812 204.144531 L 413.632812 205.253906 L 409.675781 205.253906 L 409.675781 207.632812 C 409.867188 207.566406 410.054688 207.519531 410.246094 207.488281 C 410.4375 207.457031 410.628906 207.441406 410.820312 207.441406 C 411.90625 207.441406 412.765625 207.738281 413.398438 208.332031 C 414.03125 208.925781 414.351562 209.730469 414.351562 210.746094 C 414.351562 211.792969 414.023438 212.605469 413.375 213.183594 C 412.722656 213.765625 411.804688 214.054688 410.621094 214.054688 C 410.210938 214.054688 409.792969 214.019531 409.371094 213.949219 C 408.949219 213.878906 408.511719 213.777344 408.0625 213.636719 L 408.0625 212.316406 C 408.449219 212.527344 408.855469 212.683594 409.269531 212.789062 C 409.6875 212.894531 410.128906 212.945312 410.59375 212.945312 C 411.34375 212.945312 411.9375 212.75 412.375 212.355469 C 412.8125 211.960938 413.035156 211.421875 413.035156 210.746094 C 413.035156 210.070312 412.8125 209.535156 412.375 209.140625 C 411.9375 208.742188 411.34375 208.546875 410.59375 208.546875 C 410.242188 208.546875 409.890625 208.585938 409.539062 208.664062 C 409.191406 208.742188 408.835938 208.863281 408.472656 209.027344 Z M 408.472656 204.144531 "/>
<path style=" stroke:none;fill-rule:nonzero;fill:rgb(0%,0%,0%);fill-opacity:1;" d="M 419.753906 205.011719 C 419.074219 205.011719 418.566406 205.34375 418.226562 206.011719 C 417.886719 206.675781 417.714844 207.675781 417.714844 209.015625 C 417.714844 210.347656 417.886719 211.347656 418.226562 212.011719 C 418.566406 212.679688 419.074219 213.011719 419.753906 213.011719 C 420.433594 213.011719 420.945312 212.679688 421.285156 212.011719 C 421.628906 211.347656 421.796875 210.347656 421.796875 209.015625 C 421.796875 207.675781 421.628906 206.675781 421.285156 206.011719 C 420.945312 205.34375 420.433594 205.011719 419.753906 205.011719 Z M 419.753906 203.96875 C 420.84375 203.96875 421.675781 204.398438 422.25 205.261719 C 422.824219 206.125 423.113281 207.375 423.113281 209.015625 C 423.113281 210.652344 422.824219 211.898438 422.25 212.761719 C 421.675781 213.625 420.84375 214.054688 419.753906 214.054688 C 418.664062 214.054688 417.832031 213.625 417.257812 212.761719 C 416.679688 211.898438 416.394531 210.652344 416.394531 209.015625 C 416.394531 207.375 416.679688 206.125 417.257812 205.261719 C 417.832031 204.398438 418.664062 203.96875 419.753906 203.96875 Z M 419.753906 203.96875 "/>
<g clip-path="url(#clip7)" clip-rule="nonzero">
<path style="fill:none;stroke-width:0.8;stroke-linecap:square;stroke-linejoin:round;stroke:rgb(69.01961%,69.01961%,69.01961%);stroke-opacity:1;stroke-miterlimit:4;" d="M 363.222656 145.798828 L 363.222656 7.201172 " transform="matrix(1.333333,0,0,1.333333,0,0.000000000000014211)"/>
</g>
<path style="fill:none;stroke-width:0.8;stroke-linecap:butt;stroke-linejoin:round;stroke:rgb(0%,0%,0%);stroke-opacity:1;stroke-miterlimit:4;" d="M -0.000671387 -0.00117493 L -0.000671387 3.499802 " transform="matrix(1.333333,0,0,1.333333,484.29777,194.400004)"/>
<path style=" stroke:none;fill-rule:nonzero;fill:rgb(0%,0%,0%);fill-opacity:1;" d="M 480.214844 208.480469 C 479.625 208.480469 479.160156 208.683594 478.8125 209.085938 C 478.46875 209.492188 478.296875 210.042969 478.296875 210.746094 C 478.296875 211.445312 478.46875 211.996094 478.8125 212.402344 C 479.160156 212.808594 479.625 213.011719 480.214844 213.011719 C 480.808594 213.011719 481.273438 212.808594 481.617188 212.402344 C 481.964844 211.996094 482.136719 211.445312 482.136719 210.746094 C 482.136719 210.042969 481.964844 209.492188 481.617188 209.085938 C 481.273438 208.683594 480.808594 208.480469 480.214844 208.480469 Z M 482.828125 204.359375 L 482.828125 205.554688 C 482.496094 205.402344 482.164062 205.28125 481.828125 205.199219 C 481.492188 205.117188 481.15625 205.074219 480.828125 205.074219 C 479.957031 205.074219 479.296875 205.367188 478.835938 205.953125 C 478.378906 206.539062 478.121094 207.425781 478.054688 208.609375 C 478.308594 208.234375 478.628906 207.941406 479.015625 207.742188 C 479.402344 207.539062 479.828125 207.441406 480.292969 207.441406 C 481.269531 207.441406 482.042969 207.734375 482.609375 208.328125 C 483.175781 208.921875 483.457031 209.726562 483.457031 210.746094 C 483.457031 211.746094 483.164062 212.546875 482.574219 213.148438 C 481.984375 213.753906 481.195312 214.054688 480.214844 214.054688 C 479.089844 214.054688 478.230469 213.625 477.636719 212.761719 C 477.042969 211.898438 476.746094 210.652344 476.746094 209.015625 C 476.746094 207.476562 477.109375 206.253906 477.839844 205.339844 C 478.570312 204.425781 479.546875 203.96875 480.773438 203.96875 C 481.105469 203.96875 481.4375 204 481.773438 204.066406 C 482.109375 204.132812 482.460938 204.230469 482.828125 204.359375 Z M 482.828125 204.359375 "/>
<path style=" stroke:none;fill-rule:nonzero;fill:rgb(0%,0%,0%);fill-opacity:1;" d="M 488.535156 205.011719 C 487.859375 205.011719 487.351562 205.34375 487.007812 206.011719 C 486.667969 206.675781 486.496094 207.675781 486.496094 209.015625 C 486.496094 210.347656 486.667969 211.347656 487.007812 212.011719 C 487.351562 212.679688 487.859375 213.011719 488.535156 213.011719 C 489.21875 213.011719 489.726562 212.679688 490.070312 212.011719 C 490.410156 211.347656 490.582031 210.347656 490.582031 209.015625 C 490.582031 207.675781 490.410156 206.675781 490.070312 206.011719 C 489.726562 205.34375 489.21875 205.011719 488.535156 205.011719 Z M 488.535156 203.96875 C 489.625 203.96875 490.457031 204.398438 491.03125 205.261719 C 491.609375 206.125 491.894531 207.375 491.894531 209.015625 C 491.894531 210.652344 491.609375 211.898438 491.03125 212.761719 C 490.457031 213.625 489.625 214.054688 488.535156 214.054688 C 487.445312 214.054688 486.613281 213.625 486.039062 212.761719 C 485.464844 211.898438 485.175781 210.652344 485.175781 209.015625 C 485.175781 207.375 485.464844 206.125 486.039062 205.261719 C 486.613281 204.398438 487.445312 203.96875 488.535156 203.96875 Z M 488.535156 203.96875 "/>
<path style=" stroke:none;fill-rule:nonzero;fill:rgb(0%,0%,0%);fill-opacity:1;" d="M 232.839844 227.542969 C 233.121094 227.640625 233.394531 227.84375 233.660156 228.15625 C 233.929688 228.46875 234.195312 228.898438 234.464844 229.445312 L 235.800781 232.101562 L 234.386719 232.101562 L 233.144531 229.609375 C 232.824219 228.957031 232.511719 228.523438 232.210938 228.3125 C 231.90625 228.101562 231.496094 227.992188 230.976562 227.992188 L 229.542969 227.992188 L 229.542969 232.101562 L 228.226562 232.101562 L 228.226562 222.382812 L 231.195312 222.382812 C 232.308594 222.382812 233.136719 222.613281 233.683594 223.078125 C 234.230469 223.542969 234.503906 224.242188 234.503906 225.179688 C 234.503906 225.792969 234.363281 226.300781 234.078125 226.707031 C 233.792969 227.109375 233.378906 227.386719 232.839844 227.542969 Z M 229.542969 223.460938 L 229.542969 226.914062 L 231.195312 226.914062 C 231.832031 226.914062 232.308594 226.765625 232.632812 226.472656 C 232.957031 226.179688 233.117188 225.75 233.117188 225.179688 C 233.117188 224.613281 232.957031 224.183594 232.632812 223.894531 C 232.308594 223.605469 231.832031 223.460938 231.195312 223.460938 Z M 229.542969 223.460938 "/>
<path style=" stroke:none;fill-rule:nonzero;fill:rgb(0%,0%,0%);fill-opacity:1;" d="M 239.664062 225.648438 C 239.023438 225.648438 238.515625 225.902344 238.140625 226.402344 C 237.769531 226.902344 237.582031 227.589844 237.582031 228.460938 C 237.582031 229.335938 237.765625 230.023438 238.136719 230.523438 C 238.511719 231.023438 239.019531 231.273438 239.664062 231.273438 C 240.304688 231.273438 240.808594 231.023438 241.183594 230.519531 C 241.554688 230.015625 241.742188 229.332031 241.742188 228.460938 C 241.742188 227.597656 241.554688 226.914062 241.183594 226.410156 C 240.808594 225.902344 240.304688 225.648438 239.664062 225.648438 Z M 239.664062 224.636719 C 240.707031 224.636719 241.523438 224.972656 242.121094 225.652344 C 242.714844 226.328125 243.011719 227.265625 243.011719 228.460938 C 243.011719 229.65625 242.714844 230.59375 242.121094 231.273438 C 241.523438 231.953125 240.707031 232.292969 239.664062 232.292969 C 238.621094 232.292969 237.800781 231.953125 237.207031 231.273438 C 236.617188 230.59375 236.320312 229.65625 236.320312 228.460938 C 236.320312 227.265625 236.617188 226.328125 237.207031 225.652344 C 237.800781 224.972656 238.621094 224.636719 239.664062 224.636719 Z M 239.664062 224.636719 "/>
<path style=" stroke:none;fill-rule:nonzero;fill:rgb(0%,0%,0%);fill-opacity:1;" d="M 244.300781 224.808594 L 245.5 224.808594 L 246.996094 230.5 L 248.488281 224.808594 L 249.898438 224.808594 L 251.398438 230.5 L 252.890625 224.808594 L 254.085938 224.808594 L 252.179688 232.101562 L 250.765625 232.101562 L 249.199219 226.125 L 247.621094 232.101562 L 246.207031 232.101562 Z M 244.300781 224.808594 "/>
<path style=" stroke:none;fill-rule:nonzero;fill:rgb(0%,0%,0%);fill-opacity:1;" d="M 263.019531 221.984375 C 262.4375 222.984375 262.003906 223.96875 261.722656 224.949219 C 261.441406 225.925781 261.300781 226.914062 261.300781 227.917969 C 261.300781 228.917969 261.441406 229.910156 261.726562 230.894531 C 262.011719 231.878906 262.441406 232.867188 263.019531 233.859375 L 261.976562 233.859375 C 261.328125 232.839844 260.839844 231.835938 260.515625 230.851562 C 260.191406 229.867188 260.03125 228.890625 260.03125 227.917969 C 260.03125 226.949219 260.191406 225.972656 260.511719 224.992188 C 260.835938 224.011719 261.324219 223.007812 261.976562 221.984375 Z M 263.019531 221.984375 "/>
<path style=" stroke:none;fill-rule:nonzero;fill:rgb(0%,0%,0%);fill-opacity:1;" d="M 266.5 231.007812 L 266.5 234.875 L 265.296875 234.875 L 265.296875 224.808594 L 266.5 224.808594 L 266.5 225.917969 C 266.753906 225.484375 267.070312 225.160156 267.457031 224.953125 C 267.839844 224.742188 268.300781 224.636719 268.832031 224.636719 C 269.71875 224.636719 270.4375 224.988281 270.992188 225.691406 C 271.546875 226.390625 271.820312 227.316406 271.820312 228.460938 C 271.820312 229.609375 271.546875 230.535156 270.992188 231.238281 C 270.4375 231.941406 269.71875 232.292969 268.832031 232.292969 C 268.300781 232.292969 267.839844 232.1875 267.457031 231.976562 C 267.070312 231.765625 266.753906 231.441406 266.5 231.007812 Z M 270.578125 228.460938 C 270.578125 227.582031 270.398438 226.890625 270.035156 226.390625 C 269.671875 225.886719 269.175781 225.636719 268.539062 225.636719 C 267.90625 225.636719 267.40625 225.886719 267.046875 226.390625 C 266.683594 226.890625 266.5 227.582031 266.5 228.460938 C 266.5 229.34375 266.683594 230.035156 267.046875 230.535156 C 267.40625 231.035156 267.90625 231.289062 268.539062 231.289062 C 269.175781 231.289062 269.671875 231.035156 270.035156 230.535156 C 270.398438 230.035156 270.578125 229.34375 270.578125 228.460938 Z M 270.578125 228.460938 "/>
<path style=" stroke:none;fill-rule:nonzero;fill:rgb(0%,0%,0%);fill-opacity:1;" d="M 276.632812 225.648438 C 275.988281 225.648438 275.480469 225.902344 275.109375 226.402344 C 274.734375 226.902344 274.546875 227.589844 274.546875 228.460938 C 274.546875 229.335938 274.734375 230.023438 275.105469 230.523438 C 275.476562 231.023438 275.984375 231.273438 276.632812 231.273438 C 277.269531 231.273438 277.777344 231.023438 278.148438 230.519531 C 278.523438 230.015625 278.707031 229.332031 278.707031 228.460938 C 278.707031 227.597656 278.523438 226.914062 278.148438 226.410156 C 277.777344 225.902344 277.269531 225.648438 276.632812 225.648438 Z M 276.632812 224.636719 C 277.671875 224.636719 278.492188 224.972656 279.085938 225.652344 C 279.679688 226.328125 279.980469 227.265625 279.980469 228.460938 C 279.980469 229.65625 279.679688 230.59375 279.085938 231.273438 C 278.492188 231.953125 277.671875 232.292969 276.632812 232.292969 C 275.585938 232.292969 274.765625 231.953125 274.171875 231.273438 C 273.582031 230.59375 273.285156 229.65625 273.285156 228.460938 C 273.285156 227.265625 273.582031 226.328125 274.171875 225.652344 C 274.765625 224.972656 275.585938 224.636719 276.632812 224.636719 Z M 276.632812 224.636719 "/>
<path style=" stroke:none;fill-rule:nonzero;fill:rgb(0%,0%,0%);fill-opacity:1;" d="M 286.613281 225.023438 L 286.613281 226.160156 C 286.273438 225.984375 285.921875 225.855469 285.558594 225.769531 C 285.195312 225.679688 284.816406 225.636719 284.425781 225.636719 C 283.828125 225.636719 283.382812 225.726562 283.085938 225.910156 C 282.789062 226.09375 282.640625 226.367188 282.640625 226.730469 C 282.640625 227.007812 282.746094 227.226562 282.960938 227.386719 C 283.171875 227.542969 283.601562 227.695312 284.242188 227.835938 L 284.652344 227.929688 C 285.503906 228.109375 286.109375 228.367188 286.464844 228.699219 C 286.824219 229.03125 287.003906 229.496094 287.003906 230.089844 C 287.003906 230.765625 286.734375 231.304688 286.199219 231.699219 C 285.664062 232.09375 284.925781 232.292969 283.988281 232.292969 C 283.597656 232.292969 283.191406 232.253906 282.769531 232.175781 C 282.34375 232.101562 281.898438 231.988281 281.429688 231.835938 L 281.429688 230.597656 C 281.875 230.828125 282.308594 231 282.738281 231.117188 C 283.167969 231.230469 283.59375 231.289062 284.015625 231.289062 C 284.578125 231.289062 285.011719 231.191406 285.316406 230.996094 C 285.621094 230.804688 285.773438 230.53125 285.773438 230.179688 C 285.773438 229.855469 285.664062 229.605469 285.441406 229.433594 C 285.226562 229.257812 284.746094 229.09375 284 228.929688 L 283.585938 228.832031 C 282.84375 228.679688 282.308594 228.4375 281.976562 228.113281 C 281.648438 227.789062 281.484375 227.347656 281.484375 226.785156 C 281.484375 226.097656 281.726562 225.566406 282.210938 225.195312 C 282.699219 224.820312 283.386719 224.636719 284.28125 224.636719 C 284.722656 224.636719 285.140625 224.667969 285.53125 224.734375 C 285.921875 224.796875 286.28125 224.894531 286.613281 225.023438 Z M 286.613281 225.023438 "/>
<path style=" stroke:none;fill-rule:nonzero;fill:rgb(0%,0%,0%);fill-opacity:1;" d="M 288.910156 224.808594 L 290.109375 224.808594 L 290.109375 232.101562 L 288.910156 232.101562 Z M 288.910156 221.972656 L 290.109375 221.972656 L 290.109375 223.488281 L 288.910156 223.488281 Z M 288.910156 221.972656 "/>
<path style=" stroke:none;fill-rule:nonzero;fill:rgb(0%,0%,0%);fill-opacity:1;" d="M 293.800781 222.738281 L 293.800781 224.808594 L 296.265625 224.808594 L 296.265625 225.742188 L 293.800781 225.742188 L 293.800781 229.699219 C 293.800781 230.292969 293.882812 230.675781 294.042969 230.847656 C 294.207031 231.015625 294.539062 231.101562 295.039062 231.101562 L 296.265625 231.101562 L 296.265625 232.101562 L 295.039062 232.101562 C 294.113281 232.101562 293.476562 231.929688 293.125 231.585938 C 292.773438 231.238281 292.597656 230.609375 292.597656 229.699219 L 292.597656 225.742188 L 291.71875 225.742188 L 291.71875 224.808594 L 292.597656 224.808594 L 292.597656 222.738281 Z M 293.800781 222.738281 "/>
<path style=" stroke:none;fill-rule:nonzero;fill:rgb(0%,0%,0%);fill-opacity:1;" d="M 297.84375 224.808594 L 299.039062 224.808594 L 299.039062 232.101562 L 297.84375 232.101562 Z M 297.84375 221.972656 L 299.039062 221.972656 L 299.039062 223.488281 L 297.84375 223.488281 Z M 297.84375 221.972656 "/>
<path style=" stroke:none;fill-rule:nonzero;fill:rgb(0%,0%,0%);fill-opacity:1;" d="M 304.371094 225.648438 C 303.730469 225.648438 303.222656 225.902344 302.847656 226.402344 C 302.476562 226.902344 302.289062 227.589844 302.289062 228.460938 C 302.289062 229.335938 302.472656 230.023438 302.84375 230.523438 C 303.21875 231.023438 303.726562 231.273438 304.371094 231.273438 C 305.011719 231.273438 305.515625 231.023438 305.890625 230.519531 C 306.261719 230.015625 306.449219 229.332031 306.449219 228.460938 C 306.449219 227.597656 306.261719 226.914062 305.890625 226.410156 C 305.515625 225.902344 305.011719 225.648438 304.371094 225.648438 Z M 304.371094 224.636719 C 305.414062 224.636719 306.230469 224.972656 306.828125 225.652344 C 307.421875 226.328125 307.71875 227.265625 307.71875 228.460938 C 307.71875 229.65625 307.421875 230.59375 306.828125 231.273438 C 306.230469 231.953125 305.414062 232.292969 304.371094 232.292969 C 303.328125 232.292969 302.507812 231.953125 301.914062 231.273438 C 301.324219 230.59375 301.027344 229.65625 301.027344 228.460938 C 301.027344 227.265625 301.324219 226.328125 301.914062 225.652344 C 302.507812 224.972656 303.328125 224.636719 304.371094 224.636719 Z M 304.371094 224.636719 "/>
<path style=" stroke:none;fill-rule:nonzero;fill:rgb(0%,0%,0%);fill-opacity:1;" d="M 315.765625 227.699219 L 315.765625 232.101562 L 314.570312 232.101562 L 314.570312 227.738281 C 314.570312 227.050781 314.433594 226.535156 314.164062 226.191406 C 313.894531 225.847656 313.492188 225.675781 312.953125 225.675781 C 312.308594 225.675781 311.796875 225.882812 311.421875 226.296875 C 311.050781 226.707031 310.863281 227.269531 310.863281 227.980469 L 310.863281 232.101562 L 309.660156 232.101562 L 309.660156 224.808594 L 310.863281 224.808594 L 310.863281 225.945312 C 311.152344 225.503906 311.488281 225.175781 311.875 224.960938 C 312.265625 224.742188 312.714844 224.636719 313.222656 224.636719 C 314.058594 224.636719 314.691406 224.894531 315.121094 225.414062 C 315.550781 225.929688 315.765625 226.691406 315.765625 227.699219 Z M 315.765625 227.699219 "/>
<path style=" stroke:none;fill-rule:nonzero;fill:rgb(0%,0%,0%);fill-opacity:1;" d="M 317.96875 221.984375 L 319.007812 221.984375 C 319.660156 223.007812 320.144531 224.011719 320.46875 224.992188 C 320.792969 225.972656 320.957031 226.949219 320.957031 227.917969 C 320.957031 228.890625 320.792969 229.867188 320.46875 230.851562 C 320.144531 231.835938 319.660156 232.839844 319.007812 233.859375 L 317.96875 233.859375 C 318.542969 232.867188 318.976562 231.878906 319.257812 230.894531 C 319.542969 229.910156 319.6875 228.917969 319.6875 227.917969 C 319.6875 226.914062 319.542969 225.925781 319.257812 224.949219 C 318.976562 223.96875 318.542969 222.984375 317.96875 221.984375 Z M 317.96875 221.984375 "/>
<g clip-path="url(#clip8)" clip-rule="nonzero">
<path style="fill:none;stroke-width:0.8;stroke-linecap:square;stroke-linejoin:round;stroke:rgb(69.01961%,69.01961%,69.01961%);stroke-opacity:1;stroke-miterlimit:4;" d="M 38.481445 139.5 L 373.283203 139.5 " transform="matrix(1.333333,0,0,1.333333,0,0.000000000000014211)"/>
</g>
<path style="fill:none;stroke-width:0.8;stroke-linecap:butt;stroke-linejoin:round;stroke:rgb(0%,0%,0%);stroke-opacity:1;stroke-miterlimit:4;" d="M -0.00136948 0 L -3.499416 0 " transform="matrix(1.333333,0,0,1.333333,51.31042,186)"/>
<path style=" stroke:none;fill-rule:nonzero;fill:rgb(0%,0%,0%);fill-opacity:1;" d="M 11.011719 186.332031 L 19.359375 186.332031 L 19.359375 187.4375 L 11.011719 187.4375 Z M 11.011719 186.332031 "/>
<path style=" stroke:none;fill-rule:nonzero;fill:rgb(0%,0%,0%);fill-opacity:1;" d="M 22.425781 189.960938 L 24.574219 189.960938 L 24.574219 182.542969 L 22.238281 183.011719 L 22.238281 181.8125 L 24.5625 181.34375 L 25.875 181.34375 L 25.875 189.960938 L 28.023438 189.960938 L 28.023438 191.066406 L 22.425781 191.066406 Z M 22.425781 189.960938 "/>
<path style=" stroke:none;fill-rule:nonzero;fill:rgb(0%,0%,0%);fill-opacity:1;" d="M 30.679688 189.410156 L 32.054688 189.410156 L 32.054688 191.066406 L 30.679688 191.066406 Z M 30.679688 189.410156 "/>
<path style=" stroke:none;fill-rule:nonzero;fill:rgb(0%,0%,0%);fill-opacity:1;" d="M 37.730469 182.210938 C 37.054688 182.210938 36.546875 182.542969 36.203125 183.210938 C 35.863281 183.875 35.691406 184.878906 35.691406 186.214844 C 35.691406 187.546875 35.863281 188.546875 36.203125 189.214844 C 36.546875 189.878906 37.054688 190.214844 37.730469 190.214844 C 38.414062 190.214844 38.921875 189.878906 39.265625 189.214844 C 39.605469 188.546875 39.777344 187.546875 39.777344 186.214844 C 39.777344 184.878906 39.605469 183.875 39.265625 183.210938 C 38.921875 182.542969 38.414062 182.210938 37.730469 182.210938 Z M 37.730469 181.167969 C 38.820312 181.167969 39.652344 181.601562 40.230469 182.464844 C 40.804688 183.324219 41.089844 184.574219 41.089844 186.214844 C 41.089844 187.851562 40.804688 189.101562 40.230469 189.964844 C 39.652344 190.824219 38.820312 191.253906 37.730469 191.253906 C 36.640625 191.253906 35.808594 190.824219 35.234375 189.964844 C 34.660156 189.101562 34.371094 187.851562 34.371094 186.214844 C 34.371094 184.574219 34.660156 183.324219 35.234375 182.464844 C 35.808594 181.601562 36.640625 181.167969 37.730469 181.167969 Z M 37.730469 181.167969 "/>
<g clip-path="url(#clip9)" clip-rule="nonzero">
<path style="fill:none;stroke-width:0.8;stroke-linecap:square;stroke-linejoin:round;stroke:rgb(69.01961%,69.01961%,69.01961%);stroke-opacity:1;stroke-miterlimit:4;" d="M 38.481445 108 L 373.283203 108 " transform="matrix(1.333333,0,0,1.333333,0,0.000000000000014211)"/>
</g>
<path style="fill:none;stroke-width:0.8;stroke-linecap:butt;stroke-linejoin:round;stroke:rgb(0%,0%,0%);stroke-opacity:1;stroke-miterlimit:4;" d="M -0.00136948 -0.000000000000014211 L -3.499416 -0.000000000000014211 " transform="matrix(1.333333,0,0,1.333333,51.31042,144)"/>
<path style=" stroke:none;fill-rule:nonzero;fill:rgb(0%,0%,0%);fill-opacity:1;" d="M 11.011719 144.332031 L 19.359375 144.332031 L 19.359375 145.4375 L 11.011719 145.4375 Z M 11.011719 144.332031 "/>
<path style=" stroke:none;fill-rule:nonzero;fill:rgb(0%,0%,0%);fill-opacity:1;" d="M 25.007812 140.210938 C 24.332031 140.210938 23.824219 140.542969 23.480469 141.210938 C 23.140625 141.875 22.972656 142.878906 22.972656 144.214844 C 22.972656 145.546875 23.140625 146.546875 23.480469 147.214844 C 23.824219 147.878906 24.332031 148.214844 25.007812 148.214844 C 25.691406 148.214844 26.203125 147.878906 26.542969 147.214844 C 26.882812 146.546875 27.054688 145.546875 27.054688 144.214844 C 27.054688 142.878906 26.882812 141.875 26.542969 141.210938 C 26.203125 140.542969 25.691406 140.210938 25.007812 140.210938 Z M 25.007812 139.167969 C 26.101562 139.167969 26.933594 139.601562 27.507812 140.464844 C 28.082031 141.324219 28.371094 142.574219 28.371094 144.214844 C 28.371094 145.851562 28.082031 147.101562 27.507812 147.964844 C 26.933594 148.824219 26.101562 149.253906 25.007812 149.253906 C 23.921875 149.253906 23.089844 148.824219 22.511719 147.964844 C 21.9375 147.101562 21.652344 145.851562 21.652344 144.214844 C 21.652344 142.574219 21.9375 141.324219 22.511719 140.464844 C 23.089844 139.601562 23.921875 139.167969 25.007812 139.167969 Z M 25.007812 139.167969 "/>
<path style=" stroke:none;fill-rule:nonzero;fill:rgb(0%,0%,0%);fill-opacity:1;" d="M 30.679688 147.410156 L 32.054688 147.410156 L 32.054688 149.066406 L 30.679688 149.066406 Z M 30.679688 147.410156 "/>
<path style=" stroke:none;fill-rule:nonzero;fill:rgb(0%,0%,0%);fill-opacity:1;" d="M 34.933594 139.34375 L 40.09375 139.34375 L 40.09375 140.453125 L 36.136719 140.453125 L 36.136719 142.835938 C 36.328125 142.769531 36.515625 142.71875 36.707031 142.6875 C 36.898438 142.65625 37.089844 142.640625 37.28125 142.640625 C 38.367188 142.640625 39.226562 142.9375 39.859375 143.53125 C 40.496094 144.125 40.8125 144.929688 40.8125 145.945312 C 40.8125 146.992188 40.484375 147.804688 39.835938 148.386719 C 39.183594 148.964844 38.265625 149.253906 37.082031 149.253906 C 36.671875 149.253906 36.257812 149.21875 35.832031 149.152344 C 35.410156 149.082031 34.972656 148.976562 34.523438 148.839844 L 34.523438 147.515625 C 34.914062 147.726562 35.316406 147.886719 35.734375 147.992188 C 36.148438 148.09375 36.589844 148.148438 37.054688 148.148438 C 37.804688 148.148438 38.398438 147.949219 38.835938 147.554688 C 39.277344 147.160156 39.496094 146.625 39.496094 145.945312 C 39.496094 145.269531 39.277344 144.734375 38.835938 144.339844 C 38.398438 143.945312 37.804688 143.746094 37.054688 143.746094 C 36.703125 143.746094 36.351562 143.785156 36 143.863281 C 35.652344 143.941406 35.296875 144.0625 34.933594 144.226562 Z M 34.933594 139.34375 "/>
<g clip-path="url(#clip10)" clip-rule="nonzero">
<path style="fill:none;stroke-width:0.8;stroke-linecap:square;stroke-linejoin:round;stroke:rgb(69.01961%,69.01961%,69.01961%);stroke-opacity:1;stroke-miterlimit:4;" d="M 38.481445 76.5 L 373.283203 76.5 " transform="matrix(1.333333,0,0,1.333333,0,0.000000000000014211)"/>
</g>
<path style="fill:none;stroke-width:0.8;stroke-linecap:butt;stroke-linejoin:round;stroke:rgb(0%,0%,0%);stroke-opacity:1;stroke-miterlimit:4;" d="M -0.00136948 -0.000000000000014211 L -3.499416 -0.000000000000014211 " transform="matrix(1.333333,0,0,1.333333,51.31042,102)"/>
<path style=" stroke:none;fill-rule:nonzero;fill:rgb(0%,0%,0%);fill-opacity:1;" d="M 25.011719 98.210938 C 24.335938 98.210938 23.824219 98.542969 23.484375 99.210938 C 23.144531 99.875 22.972656 100.878906 22.972656 102.214844 C 22.972656 103.546875 23.144531 104.546875 23.484375 105.214844 C 23.824219 105.878906 24.335938 106.214844 25.011719 106.214844 C 25.691406 106.214844 26.203125 105.878906 26.542969 105.214844 C 26.886719 104.546875 27.054688 103.546875 27.054688 102.214844 C 27.054688 100.878906 26.886719 99.875 26.542969 99.210938 C 26.203125 98.542969 25.691406 98.210938 25.011719 98.210938 Z M 25.011719 97.167969 C 26.101562 97.167969 26.933594 97.601562 27.507812 98.464844 C 28.082031 99.324219 28.371094 100.574219 28.371094 102.214844 C 28.371094 103.851562 28.082031 105.101562 27.507812 105.964844 C 26.933594 106.824219 26.101562 107.253906 25.011719 107.253906 C 23.921875 107.253906 23.089844 106.824219 22.515625 105.964844 C 21.941406 105.101562 21.652344 103.851562 21.652344 102.214844 C 21.652344 100.574219 21.941406 99.324219 22.515625 98.464844 C 23.089844 97.601562 23.921875 97.167969 25.011719 97.167969 Z M 25.011719 97.167969 "/>
<path style=" stroke:none;fill-rule:nonzero;fill:rgb(0%,0%,0%);fill-opacity:1;" d="M 30.679688 105.410156 L 32.054688 105.410156 L 32.054688 107.066406 L 30.679688 107.066406 Z M 30.679688 105.410156 "/>
<path style=" stroke:none;fill-rule:nonzero;fill:rgb(0%,0%,0%);fill-opacity:1;" d="M 37.730469 98.210938 C 37.054688 98.210938 36.546875 98.542969 36.203125 99.210938 C 35.863281 99.875 35.695312 100.878906 35.695312 102.214844 C 35.695312 103.546875 35.863281 104.546875 36.203125 105.214844 C 36.546875 105.878906 37.054688 106.214844 37.730469 106.214844 C 38.414062 106.214844 38.925781 105.878906 39.265625 105.214844 C 39.605469 104.546875 39.777344 103.546875 39.777344 102.214844 C 39.777344 100.878906 39.605469 99.875 39.265625 99.210938 C 38.925781 98.542969 38.414062 98.210938 37.730469 98.210938 Z M 37.730469 97.167969 C 38.820312 97.167969 39.65625 97.601562 40.230469 98.464844 C 40.804688 99.324219 41.09375 100.574219 41.09375 102.214844 C 41.09375 103.851562 40.804688 105.101562 40.230469 105.964844 C 39.65625 106.824219 38.820312 107.253906 37.730469 107.253906 C 36.644531 107.253906 35.8125 106.824219 35.234375 105.964844 C 34.660156 105.101562 34.375 103.851562 34.375 102.214844 C 34.375 100.574219 34.660156 99.324219 35.234375 98.464844 C 35.8125 97.601562 36.644531 97.167969 37.730469 97.167969 Z M 37.730469 97.167969 "/>
<g clip-path="url(#clip11)" clip-rule="nonzero">
<path style="fill:none;stroke-width:0.8;stroke-linecap:square;stroke-linejoin:round;stroke:rgb(69.01961%,69.01961%,69.01961%);stroke-opacity:1;stroke-miterlimit:4;" d="M 38.481445 45 L 373.283203 45 " transform="matrix(1.333333,0,0,1.333333,0,0.000000000000014211)"/>
</g>
<path style="fill:none;stroke-width:0.8;stroke-linecap:butt;stroke-linejoin:round;stroke:rgb(0%,0%,0%);stroke-opacity:1;stroke-miterlimit:4;" d="M -0.00136948 -0.000000000000014211 L -3.499416 -0.000000000000014211 " transform="matrix(1.333333,0,0,1.333333,51.31042,60)"/>
<path style=" stroke:none;fill-rule:nonzero;fill:rgb(0%,0%,0%);fill-opacity:1;" d="M 25.011719 56.210938 C 24.335938 56.210938 23.824219 56.542969 23.484375 57.210938 C 23.144531 57.875 22.972656 58.878906 22.972656 60.214844 C 22.972656 61.546875 23.144531 62.546875 23.484375 63.214844 C 23.824219 63.878906 24.335938 64.214844 25.011719 64.214844 C 25.691406 64.214844 26.203125 63.878906 26.542969 63.214844 C 26.886719 62.546875 27.054688 61.546875 27.054688 60.214844 C 27.054688 58.878906 26.886719 57.875 26.542969 57.210938 C 26.203125 56.542969 25.691406 56.210938 25.011719 56.210938 Z M 25.011719 55.167969 C 26.101562 55.167969 26.933594 55.601562 27.507812 56.464844 C 28.082031 57.324219 28.371094 58.574219 28.371094 60.214844 C 28.371094 61.851562 28.082031 63.101562 27.507812 63.964844 C 26.933594 64.824219 26.101562 65.253906 25.011719 65.253906 C 23.921875 65.253906 23.089844 64.824219 22.515625 63.964844 C 21.941406 63.101562 21.652344 61.851562 21.652344 60.214844 C 21.652344 58.574219 21.941406 57.324219 22.515625 56.464844 C 23.089844 55.601562 23.921875 55.167969 25.011719 55.167969 Z M 25.011719 55.167969 "/>
<path style=" stroke:none;fill-rule:nonzero;fill:rgb(0%,0%,0%);fill-opacity:1;" d="M 30.679688 63.410156 L 32.054688 63.410156 L 32.054688 65.066406 L 30.679688 65.066406 Z M 30.679688 63.410156 "/>
<path style=" stroke:none;fill-rule:nonzero;fill:rgb(0%,0%,0%);fill-opacity:1;" d="M 34.933594 55.34375 L 40.097656 55.34375 L 40.097656 56.453125 L 36.136719 56.453125 L 36.136719 58.835938 C 36.328125 58.769531 36.519531 58.71875 36.707031 58.6875 C 36.902344 58.65625 37.09375 58.640625 37.285156 58.640625 C 38.367188 58.640625 39.226562 58.9375 39.859375 59.53125 C 40.496094 60.125 40.8125 60.929688 40.8125 61.945312 C 40.8125 62.992188 40.488281 63.804688 39.835938 64.386719 C 39.183594 64.964844 38.265625 65.253906 37.082031 65.253906 C 36.671875 65.253906 36.257812 65.21875 35.832031 65.152344 C 35.410156 65.082031 34.976562 64.976562 34.523438 64.839844 L 34.523438 63.515625 C 34.914062 63.726562 35.316406 63.886719 35.734375 63.992188 C 36.152344 64.09375 36.589844 64.148438 37.054688 64.148438 C 37.804688 64.148438 38.402344 63.949219 38.839844 63.554688 C 39.277344 63.160156 39.496094 62.625 39.496094 61.945312 C 39.496094 61.269531 39.277344 60.734375 38.839844 60.339844 C 38.402344 59.945312 37.804688 59.746094 37.054688 59.746094 C 36.703125 59.746094 36.351562 59.785156 36.003906 59.863281 C 35.652344 59.941406 35.296875 60.0625 34.933594 60.226562 Z M 34.933594 55.34375 "/>
<g clip-path="url(#clip12)" clip-rule="nonzero">
<path style="fill:none;stroke-width:0.8;stroke-linecap:square;stroke-linejoin:round;stroke:rgb(69.01961%,69.01961%,69.01961%);stroke-opacity:1;stroke-miterlimit:4;" d="M 38.481445 13.5 L 373.283203 13.5 " transform="matrix(1.333333,0,0,1.333333,0,0.000000000000014211)"/>
</g>
<path style="fill:none;stroke-width:0.8;stroke-linecap:butt;stroke-linejoin:round;stroke:rgb(0%,0%,0%);stroke-opacity:1;stroke-miterlimit:4;" d="M -0.00136948 -0.000000000000010658 L -3.499416 -0.000000000000010658 " transform="matrix(1.333333,0,0,1.333333,51.31042,18)"/>
<path style=" stroke:none;fill-rule:nonzero;fill:rgb(0%,0%,0%);fill-opacity:1;" d="M 22.425781 21.960938 L 24.574219 21.960938 L 24.574219 14.542969 L 22.238281 15.011719 L 22.238281 13.8125 L 24.5625 13.34375 L 25.878906 13.34375 L 25.878906 21.960938 L 28.023438 21.960938 L 28.023438 23.066406 L 22.425781 23.066406 Z M 22.425781 21.960938 "/>
<path style=" stroke:none;fill-rule:nonzero;fill:rgb(0%,0%,0%);fill-opacity:1;" d="M 30.679688 21.410156 L 32.054688 21.410156 L 32.054688 23.066406 L 30.679688 23.066406 Z M 30.679688 21.410156 "/>
<path style=" stroke:none;fill-rule:nonzero;fill:rgb(0%,0%,0%);fill-opacity:1;" d="M 37.730469 14.210938 C 37.054688 14.210938 36.546875 14.542969 36.203125 15.210938 C 35.863281 15.875 35.695312 16.878906 35.695312 18.214844 C 35.695312 19.546875 35.863281 20.546875 36.203125 21.214844 C 36.546875 21.878906 37.054688 22.214844 37.730469 22.214844 C 38.414062 22.214844 38.925781 21.878906 39.265625 21.214844 C 39.605469 20.546875 39.777344 19.546875 39.777344 18.214844 C 39.777344 16.878906 39.605469 15.875 39.265625 15.210938 C 38.925781 14.542969 38.414062 14.210938 37.730469 14.210938 Z M 37.730469 13.167969 C 38.820312 13.167969 39.65625 13.601562 40.230469 14.464844 C 40.804688 15.324219 41.09375 16.574219 41.09375 18.214844 C 41.09375 19.851562 40.804688 21.101562 40.230469 21.964844 C 39.65625 22.824219 38.820312 23.253906 37.730469 23.253906 C 36.644531 23.253906 35.8125 22.824219 35.234375 21.964844 C 34.660156 21.101562 34.375 19.851562 34.375 18.214844 C 34.375 16.574219 34.660156 15.324219 35.234375 14.464844 C 35.8125 13.601562 36.644531 13.167969 37.730469 13.167969 Z M 37.730469 13.167969 "/>
<path style="fill:none;stroke-width:1.5;stroke-linecap:square;stroke-linejoin:round;stroke:rgb(12.156863%,46.666667%,70.588237%);stroke-opacity:1;stroke-miterlimit:4;" d="M 53.701172 76.5 L 58.860352 65.355469 L 64.019531 54.5625 L 69.175781 44.460937 L 74.334961 35.373047 L 79.494141 27.577148 L 84.65332 21.328125 L 89.8125 16.819336 L 94.97168 14.191406 L 100.12793 13.526367 L 105.287109 14.850586 L 110.446289 18.120117 L 115.605469 23.229492 L 120.764648 30.017578 L 125.923828 38.273437 L 131.083008 47.733398 L 136.239258 58.101562 L 141.398438 69.049805 L 146.557617 80.235352 L 151.716797 91.300781 L 156.875977 101.900391 L 162.035156 111.697266 L 167.191406 120.383789 L 172.350586 127.6875 L 177.509766 133.376953 L 182.668945 137.273438 L 187.828125 139.250977 L 192.987305 139.250977 L 198.143555 137.270508 L 203.302734 133.374023 L 208.461914 127.68457 L 213.621094 120.380859 L 218.780273 111.691406 L 223.939453 101.891602 L 229.095703 91.294922 L 234.254883 80.226562 L 239.414062 69.043945 L 244.573242 58.095703 L 249.732422 47.727539 L 254.891602 38.267578 L 260.047852 30.014648 L 265.207031 23.223633 L 270.366211 18.117187 L 275.525391 14.850586 L 280.68457 13.526367 L 285.84375 14.191406 L 291 16.819336 L 296.15918 21.331055 L 301.318359 27.583008 L 306.477539 35.375977 L 311.636719 44.466797 L 316.795898 54.568359 L 321.955078 65.361328 L 327.111328 76.505859 L 332.270508 87.650391 L 337.429688 98.443359 L 342.588867 108.541992 L 347.748047 117.632812 L 352.907227 125.425781 L 358.063477 131.674805 " transform="matrix(1.333333,0,0,1.333333,0,0.000000000000014211)"/>
<path style="fill:none;stroke-width:1.5;stroke-linecap:butt;stroke-linejoin:round;stroke:rgb(74.901962%,0%,74.901962%);stroke-opacity:1;stroke-dasharray:5.55,2.4;stroke-miterlimit:4;" d="M 53.701172 13.5 L 58.860352 14.493164 L 64.019531 17.443359 L 69.175781 22.253906 L 74.334961 28.77832 L 79.494141 36.805664 L 84.65332 46.083984 L 89.8125 56.323242 L 94.97168 67.198242 L 100.12793 78.369141 L 105.287109 89.478516 L 110.446289 100.177734 L 115.605469 110.132812 L 120.764648 119.024414 L 125.923828 126.577148 L 131.083008 132.547852 L 136.239258 136.754883 L 141.398438 139.057617 L 146.557617 139.388672 L 151.716797 137.736328 L 156.875977 134.15332 L 162.035156 128.750977 L 167.191406 121.702148 L 172.350586 113.226562 L 177.509766 103.59082 L 182.668945 93.102539 L 187.828125 82.089844 L 192.987305 70.901367 L 198.143555 59.891602 L 203.302734 49.40332 L 208.461914 39.770508 L 213.621094 31.294922 L 218.780273 24.246094 L 223.939453 18.84375 L 229.095703 15.260742 L 234.254883 13.611328 L 239.414062 13.942383 L 244.573242 16.248047 L 249.732422 20.455078 L 254.891602 26.425781 L 260.047852 33.978516 L 265.207031 42.873047 L 270.366211 52.828125 L 275.525391 63.527344 L 280.68457 74.639648 L 285.84375 85.807617 L 291 96.682617 L 296.15918 106.921875 L 301.318359 116.200195 L 306.477539 124.227539 L 311.636719 130.749023 L 316.795898 135.55957 L 321.955078 138.506836 L 327.111328 139.5 L 332.270508 138.503906 L 337.429688 135.553711 L 342.588867 130.743164 L 347.748047 124.21875 L 352.907227 116.191406 L 358.063477 106.910156 " transform="matrix(1.333333,0,0,1.333333,0,0.000000000000014211)"/>
<path style="fill:none;stroke-width:1.5;stroke-linecap:butt;stroke-linejoin:round;stroke:rgb(0%,50.196081%,0%);stroke-opacity:1;stroke-dasharray:9.6,2.4,1.5,2.4;stroke-miterlimit:4;" d="M 53.701172 76.5 L 58.860352 70.209961 L 64.019531 63.984375 L 69.175781 57.881836 L 74.334961 51.966797 L 79.494141 46.294922 L 84.65332 40.927734 L 89.8125 35.915039 L 94.97168 31.306641 L 100.12793 27.149414 L 105.287109 23.487305 L 110.446289 20.352539 L 115.605469 17.780273 L 120.764648 15.796875 L 125.923828 14.416992 L 131.083008 13.658203 L 136.239258 13.526367 L 141.398438 14.024414 L 146.557617 15.146484 L 151.716797 16.883789 L 156.875977 19.212891 L 162.035156 22.119141 L 167.191406 25.564453 L 172.350586 29.519531 L 177.509766 33.946289 L 182.668945 38.794922 L 187.828125 44.024414 L 192.987305 49.576172 L 198.143555 55.394531 L 203.302734 61.426758 L 208.461914 67.608398 L 213.621094 73.880859 L 218.780273 80.176758 L 223.939453 86.4375 L 229.095703 92.598633 L 234.254883 98.598633 L 239.414062 104.378906 L 244.573242 109.880859 L 249.732422 115.045898 L 254.891602 119.830078 L 260.047852 124.177734 L 265.207031 128.050781 L 270.366211 131.408203 L 275.525391 134.217773 L 280.68457 136.450195 L 285.84375 138.084961 L 291 139.101562 L 296.15918 139.494141 L 301.318359 139.259766 L 306.477539 138.395508 L 311.636719 136.913086 L 316.795898 134.827148 L 321.955078 132.158203 L 327.111328 128.932617 L 332.270508 125.185547 L 337.429688 120.949219 L 342.588867 116.270508 L 347.748047 111.193359 L 352.907227 105.770508 L 358.063477 100.054687 " transform="matrix(1.333333,0,0,1.333333,0,0.000000000000014211)"/>
<path style="fill:none;stroke-width:1.5;stroke-linecap:butt;stroke-linejoin:round;stroke:rgb(100%,0%,0%);stroke-opacity:1;stroke-dasharray:1.5,2.475;stroke-miterlimit:4;" d="M 53.701172 13.5 L 58.860352 13.813477 L 64.019531 14.756836 L 69.175781 16.3125 L 74.334961 18.474609 L 79.494141 21.210937 L 84.65332 24.503906 L 89.8125 28.31543 L 94.97168 32.607422 L 100.12793 37.338867 L 105.287109 42.459961 L 110.446289 47.923828 L 115.605469 53.671875 L 120.764648 59.648437 L 125.923828 65.791992 L 131.083008 72.043945 L 136.239258 78.339844 L 141.398438 84.618164 L 146.557617 90.814453 L 151.716797 96.867187 L 156.875977 102.717773 L 162.035156 108.304687 L 167.191406 113.575195 L 172.350586 118.476562 L 177.509766 122.956055 L 182.668945 126.972656 L 187.828125 130.485352 L 192.987305 133.456055 L 198.143555 135.861328 L 203.302734 137.668945 L 208.461914 138.870117 L 213.621094 139.444336 L 218.780273 139.391602 L 223.939453 138.711914 L 229.095703 137.408203 L 234.254883 135.498047 L 239.414062 132.996094 L 244.573242 129.931641 L 249.732422 126.331055 L 254.891602 122.232422 L 260.047852 117.679687 L 265.207031 112.713867 L 270.366211 107.387695 L 275.525391 101.750977 L 280.68457 95.862305 L 285.84375 89.780273 L 291 83.566406 L 296.15918 77.279297 L 301.318359 70.986328 L 306.477539 64.749023 L 311.636719 58.628906 L 316.795898 52.6875 L 321.955078 46.983398 L 327.111328 41.575195 L 332.270508 36.515625 L 337.429688 31.854492 L 342.588867 27.638672 L 347.748047 23.912109 L 352.907227 20.712891 L 358.063477 18.070312 " transform="matrix(1.333333,0,0,1.333333,0,0.000000000000014211)"/>
<path style="fill:none;stroke-width:0.8;stroke-linecap:square;stroke-linejoin:miter;stroke:rgb(0%,0%,0%);stroke-opacity:1;stroke-miterlimit:4;" d="M 38.481445 145.798828 L 38.481445 7.201172 " transform="matrix(1.333333,0,0,1.333333,0,0.000000000000014211)"/>
<path style="fill:none;stroke-width:0.8;stroke-linecap:square;stroke-linejoin:miter;stroke:rgb(0%,0%,0%);stroke-opacity:1;stroke-miterlimit:4;" d="M 373.283203 145.798828 L 373.283203 7.201172 " transform="matrix(1.333333,0,0,1.333333,0,0.000000000000014211)"/>
<path style="fill:none;stroke-width:0.8;stroke-linecap:square;stroke-linejoin:miter;stroke:rgb(0%,0%,0%);stroke-opacity:1;stroke-miterlimit:4;" d="M 38.481445 145.798828 L 373.283203 145.798828 " transform="matrix(1.333333,0,0,1.333333,0,0.000000000000014211)"/>
<path style="fill:none;stroke-width:0.8;stroke-linecap:square;stroke-linejoin:miter;stroke:rgb(0%,0%,0%);stroke-opacity:1;stroke-miterlimit:4;" d="M 38.481445 7.201172 L 373.283203 7.201172 " transform="matrix(1.333333,0,0,1.333333,0,0.000000000000014211)"/>
<use xlink:href="#surface5" mask="url(#mask0)"/>
<path style="fill:none;stroke-width:1.5;stroke-linecap:square;stroke-linejoin:round;stroke:rgb(12.156863%,46.666667%,70.588237%);stroke-opacity:1;stroke-miterlimit:4;" d="M 47.481445 87.18457 L 67.482422 87.18457 " transform="matrix(1.333333,0,0,1.333333,0,0.000000000000014211)"/>
<path style=" stroke:none;fill-rule:nonzero;fill:rgb(0%,0%,0%);fill-opacity:1;" d="M 109.230469 111.945312 L 109.230469 113.328125 C 108.789062 112.917969 108.316406 112.609375 107.816406 112.40625 C 107.3125 112.203125 106.78125 112.101562 106.214844 112.101562 C 105.105469 112.101562 104.253906 112.441406 103.664062 113.117188 C 103.074219 113.796875 102.777344 114.78125 102.777344 116.066406 C 102.777344 117.34375 103.074219 118.324219 103.664062 119.003906 C 104.253906 119.683594 105.105469 120.023438 106.214844 120.023438 C 106.78125 120.023438 107.3125 119.921875 107.816406 119.714844 C 108.316406 119.511719 108.789062 119.203125 109.230469 118.792969 L 109.230469 120.167969 C 108.773438 120.480469 108.285156 120.714844 107.769531 120.871094 C 107.253906 121.027344 106.710938 121.105469 106.140625 121.105469 C 104.667969 121.105469 103.507812 120.652344 102.660156 119.753906 C 101.816406 118.851562 101.390625 117.621094 101.390625 116.066406 C 101.390625 114.503906 101.816406 113.269531 102.660156 112.371094 C 103.507812 111.46875 104.667969 111.019531 106.140625 111.019531 C 106.71875 111.019531 107.265625 111.097656 107.78125 111.25 C 108.296875 111.402344 108.78125 111.636719 109.230469 111.945312 Z M 109.230469 111.945312 "/>
<path style=" stroke:none;fill-rule:nonzero;fill:rgb(0%,0%,0%);fill-opacity:1;" d="M 114.035156 114.460938 C 113.394531 114.460938 112.886719 114.714844 112.511719 115.214844 C 112.136719 115.714844 111.953125 116.402344 111.953125 117.273438 C 111.953125 118.148438 112.136719 118.835938 112.507812 119.335938 C 112.878906 119.835938 113.390625 120.085938 114.035156 120.085938 C 114.671875 120.085938 115.179688 119.835938 115.550781 119.332031 C 115.925781 118.828125 116.113281 118.144531 116.113281 117.273438 C 116.113281 116.410156 115.925781 115.726562 115.550781 115.222656 C 115.179688 114.714844 114.671875 114.460938 114.035156 114.460938 Z M 114.035156 113.449219 C 115.078125 113.449219 115.894531 113.785156 116.488281 114.464844 C 117.085938 115.140625 117.382812 116.078125 117.382812 117.273438 C 117.382812 118.46875 117.085938 119.40625 116.488281 120.085938 C 115.894531 120.765625 115.078125 121.105469 114.035156 121.105469 C 112.988281 121.105469 112.167969 120.765625 111.578125 120.085938 C 110.984375 119.40625 110.6875 118.46875 110.6875 117.273438 C 110.6875 116.078125 110.984375 115.140625 111.578125 114.464844 C 112.167969 113.785156 112.988281 113.449219 114.035156 113.449219 Z M 114.035156 113.449219 "/>
<path style=" stroke:none;fill-rule:nonzero;fill:rgb(0%,0%,0%);fill-opacity:1;" d="M 119.367188 110.785156 L 120.566406 110.785156 L 120.566406 120.914062 L 119.367188 120.914062 Z M 119.367188 110.785156 "/>
<path style=" stroke:none;fill-rule:nonzero;fill:rgb(0%,0%,0%);fill-opacity:1;" d="M 130.457031 115.53125 C 129.867188 115.53125 129.398438 115.734375 129.050781 116.136719 C 128.707031 116.539062 128.535156 117.09375 128.535156 117.796875 C 128.535156 118.496094 128.707031 119.046875 129.050781 119.453125 C 129.398438 119.859375 129.867188 120.0625 130.457031 120.0625 C 131.046875 120.0625 131.511719 119.859375 131.859375 119.453125 C 132.203125 119.046875 132.375 118.496094 132.375 117.796875 C 132.375 117.09375 132.203125 116.539062 131.859375 116.136719 C 131.511719 115.734375 131.046875 115.53125 130.457031 115.53125 Z M 133.066406 111.410156 L 133.066406 112.605469 C 132.734375 112.449219 132.402344 112.332031 132.066406 112.25 C 131.730469 112.167969 131.398438 112.125 131.066406 112.125 C 130.199219 112.125 129.535156 112.417969 129.078125 113.003906 C 128.621094 113.589844 128.359375 114.476562 128.292969 115.660156 C 128.550781 115.28125 128.871094 114.992188 129.257812 114.792969 C 129.644531 114.589844 130.070312 114.488281 130.53125 114.488281 C 131.507812 114.488281 132.28125 114.785156 132.847656 115.378906 C 133.414062 115.972656 133.699219 116.777344 133.699219 117.796875 C 133.699219 118.792969 133.402344 119.597656 132.8125 120.199219 C 132.222656 120.804688 131.4375 121.105469 130.457031 121.105469 C 129.332031 121.105469 128.472656 120.671875 127.875 119.8125 C 127.28125 118.949219 126.984375 117.699219 126.984375 116.066406 C 126.984375 114.527344 127.351562 113.304688 128.078125 112.390625 C 128.808594 111.476562 129.785156 111.019531 131.015625 111.019531 C 131.34375 111.019531 131.679688 111.050781 132.015625 111.117188 C 132.351562 111.183594 132.699219 111.277344 133.066406 111.410156 Z M 133.066406 111.410156 "/>
<path style="fill:none;stroke-width:1.5;stroke-linecap:butt;stroke-linejoin:round;stroke:rgb(74.901962%,0%,74.901962%);stroke-opacity:1;stroke-dasharray:5.55,2.4;stroke-miterlimit:4;" d="M 47.481445 101.865234 L 67.482422 101.865234 " transform="matrix(1.333333,0,0,1.333333,0,0.000000000000014211)"/>
<path style=" stroke:none;fill-rule:nonzero;fill:rgb(0%,0%,0%);fill-opacity:1;" d="M 109.230469 131.515625 L 109.230469 132.898438 C 108.789062 132.488281 108.316406 132.179688 107.816406 131.976562 C 107.3125 131.773438 106.78125 131.671875 106.214844 131.671875 C 105.105469 131.671875 104.253906 132.011719 103.664062 132.691406 C 103.074219 133.367188 102.777344 134.351562 102.777344 135.636719 C 102.777344 136.914062 103.074219 137.894531 103.664062 138.574219 C 104.253906 139.253906 105.105469 139.59375 106.214844 139.59375 C 106.78125 139.59375 107.3125 139.492188 107.816406 139.289062 C 108.316406 139.082031 108.789062 138.773438 109.230469 138.363281 L 109.230469 139.738281 C 108.773438 140.050781 108.285156 140.285156 107.769531 140.441406 C 107.253906 140.597656 106.710938 140.675781 106.140625 140.675781 C 104.667969 140.675781 103.507812 140.226562 102.660156 139.324219 C 101.816406 138.421875 101.390625 137.195312 101.390625 135.636719 C 101.390625 134.074219 101.816406 132.839844 102.660156 131.941406 C 103.507812 131.039062 104.667969 130.589844 106.140625 130.589844 C 106.71875 130.589844 107.265625 130.667969 107.78125 130.820312 C 108.296875 130.976562 108.78125 131.207031 109.230469 131.515625 Z M 109.230469 131.515625 "/>
<path style=" stroke:none;fill-rule:nonzero;fill:rgb(0%,0%,0%);fill-opacity:1;" d="M 114.035156 134.035156 C 113.394531 134.035156 112.886719 134.285156 112.511719 134.785156 C 112.136719 135.285156 111.953125 135.972656 111.953125 136.847656 C 111.953125 137.71875 112.136719 138.40625 112.507812 138.90625 C 112.878906 139.40625 113.390625 139.660156 114.035156 139.660156 C 114.671875 139.660156 115.179688 139.40625 115.550781 138.902344 C 115.925781 138.398438 116.113281 137.714844 116.113281 136.847656 C 116.113281 135.980469 115.925781 135.296875 115.550781 134.792969 C 115.179688 134.285156 114.671875 134.035156 114.035156 134.035156 Z M 114.035156 133.019531 C 115.078125 133.019531 115.894531 133.359375 116.488281 134.035156 C 117.085938 134.710938 117.382812 135.648438 117.382812 136.847656 C 117.382812 138.039062 117.085938 138.976562 116.488281 139.65625 C 115.894531 140.335938 115.078125 140.675781 114.035156 140.675781 C 112.988281 140.675781 112.167969 140.335938 111.578125 139.65625 C 110.984375 138.976562 110.6875 138.039062 110.6875 136.847656 C 110.6875 135.648438 110.984375 134.710938 111.578125 134.035156 C 112.167969 133.359375 112.988281 133.019531 114.035156 133.019531 Z M 114.035156 133.019531 "/>
<path style=" stroke:none;fill-rule:nonzero;fill:rgb(0%,0%,0%);fill-opacity:1;" d="M 119.367188 130.355469 L 120.566406 130.355469 L 120.566406 140.484375 L 119.367188 140.484375 Z M 119.367188 130.355469 "/>
<path style=" stroke:none;fill-rule:nonzero;fill:rgb(0%,0%,0%);fill-opacity:1;" d="M 127.148438 130.765625 L 133.398438 130.765625 L 133.398438 131.324219 L 129.867188 140.484375 L 128.496094 140.484375 L 131.816406 131.871094 L 127.148438 131.871094 Z M 127.148438 130.765625 "/>
<path style="fill:none;stroke-width:1.5;stroke-linecap:butt;stroke-linejoin:round;stroke:rgb(0%,50.196081%,0%);stroke-opacity:1;stroke-dasharray:9.6,2.4,1.5,2.4;stroke-miterlimit:4;" d="M 47.481445 116.542969 L 67.482422 116.542969 " transform="matrix(1.333333,0,0,1.333333,0,0.000000000000014211)"/>
<path style=" stroke:none;fill-rule:nonzero;fill:rgb(0%,0%,0%);fill-opacity:1;" d="M 109.230469 151.085938 L 109.230469 152.472656 C 108.789062 152.058594 108.316406 151.75 107.816406 151.546875 C 107.3125 151.34375 106.78125 151.242188 106.214844 151.242188 C 105.105469 151.242188 104.253906 151.582031 103.664062 152.261719 C 103.074219 152.941406 102.777344 153.921875 102.777344 155.207031 C 102.777344 156.488281 103.074219 157.464844 103.664062 158.144531 C 104.253906 158.824219 105.105469 159.164062 106.214844 159.164062 C 106.78125 159.164062 107.3125 159.0625 107.816406 158.859375 C 108.316406 158.652344 108.789062 158.347656 109.230469 157.933594 L 109.230469 159.308594 C 108.773438 159.621094 108.285156 159.855469 107.769531 160.011719 C 107.253906 160.167969 106.710938 160.246094 106.140625 160.246094 C 104.667969 160.246094 103.507812 159.796875 102.660156 158.894531 C 101.816406 157.996094 101.390625 156.765625 101.390625 155.207031 C 101.390625 153.644531 101.816406 152.414062 102.660156 151.511719 C 103.507812 150.609375 104.667969 150.160156 106.140625 150.160156 C 106.71875 150.160156 107.265625 150.238281 107.78125 150.390625 C 108.296875 150.546875 108.78125 150.777344 109.230469 151.085938 Z M 109.230469 151.085938 "/>
<path style=" stroke:none;fill-rule:nonzero;fill:rgb(0%,0%,0%);fill-opacity:1;" d="M 114.035156 153.605469 C 113.394531 153.605469 112.886719 153.855469 112.511719 154.355469 C 112.136719 154.859375 111.953125 155.542969 111.953125 156.417969 C 111.953125 157.289062 112.136719 157.976562 112.507812 158.476562 C 112.878906 158.976562 113.390625 159.230469 114.035156 159.230469 C 114.671875 159.230469 115.179688 158.976562 115.550781 158.476562 C 115.925781 157.972656 116.113281 157.285156 116.113281 156.417969 C 116.113281 155.554688 115.925781 154.867188 115.550781 154.363281 C 115.179688 153.855469 114.671875 153.605469 114.035156 153.605469 Z M 114.035156 152.589844 C 115.078125 152.589844 115.894531 152.929688 116.488281 153.605469 C 117.085938 154.28125 117.382812 155.21875 117.382812 156.417969 C 117.382812 157.609375 117.085938 158.546875 116.488281 159.226562 C 115.894531 159.90625 115.078125 160.246094 114.035156 160.246094 C 112.988281 160.246094 112.167969 159.90625 111.578125 159.226562 C 110.984375 158.546875 110.6875 157.609375 110.6875 156.417969 C 110.6875 155.21875 110.984375 154.28125 111.578125 153.605469 C 112.167969 152.929688 112.988281 152.589844 114.035156 152.589844 Z M 114.035156 152.589844 "/>
<path style=" stroke:none;fill-rule:nonzero;fill:rgb(0%,0%,0%);fill-opacity:1;" d="M 119.367188 149.925781 L 120.566406 149.925781 L 120.566406 160.054688 L 119.367188 160.054688 Z M 119.367188 149.925781 "/>
<path style=" stroke:none;fill-rule:nonzero;fill:rgb(0%,0%,0%);fill-opacity:1;" d="M 130.292969 155.441406 C 129.667969 155.441406 129.175781 155.605469 128.816406 155.941406 C 128.460938 156.277344 128.28125 156.734375 128.28125 157.320312 C 128.28125 157.90625 128.460938 158.367188 128.816406 158.703125 C 129.175781 159.035156 129.667969 159.203125 130.292969 159.203125 C 130.917969 159.203125 131.410156 159.035156 131.769531 158.699219 C 132.128906 158.363281 132.308594 157.902344 132.308594 157.320312 C 132.308594 156.734375 132.132812 156.277344 131.773438 155.941406 C 131.414062 155.605469 130.921875 155.441406 130.292969 155.441406 Z M 128.976562 154.882812 C 128.414062 154.742188 127.972656 154.480469 127.65625 154.09375 C 127.34375 153.707031 127.1875 153.234375 127.1875 152.679688 C 127.1875 151.902344 127.464844 151.289062 128.015625 150.835938 C 128.570312 150.386719 129.328125 150.160156 130.292969 150.160156 C 131.257812 150.160156 132.019531 150.386719 132.570312 150.835938 C 133.121094 151.289062 133.398438 151.902344 133.398438 152.679688 C 133.398438 153.234375 133.238281 153.707031 132.925781 154.09375 C 132.609375 154.480469 132.175781 154.742188 131.613281 154.882812 C 132.246094 155.027344 132.742188 155.316406 133.09375 155.746094 C 133.449219 156.175781 133.625 156.703125 133.625 157.320312 C 133.625 158.265625 133.335938 158.988281 132.761719 159.492188 C 132.1875 159.996094 131.363281 160.246094 130.292969 160.246094 C 129.21875 160.246094 128.398438 159.996094 127.820312 159.492188 C 127.246094 158.988281 126.957031 158.265625 126.957031 157.320312 C 126.957031 156.703125 127.136719 156.175781 127.492188 155.746094 C 127.847656 155.316406 128.34375 155.027344 128.976562 154.882812 Z M 128.496094 152.804688 C 128.496094 153.308594 128.652344 153.699219 128.964844 153.980469 C 129.28125 154.261719 129.722656 154.402344 130.292969 154.402344 C 130.855469 154.402344 131.296875 154.261719 131.617188 153.980469 C 131.9375 153.699219 132.09375 153.308594 132.09375 152.804688 C 132.09375 152.300781 131.9375 151.90625 131.617188 151.625 C 131.296875 151.34375 130.855469 151.203125 130.292969 151.203125 C 129.722656 151.203125 129.28125 151.34375 128.964844 151.625 C 128.652344 151.90625 128.496094 152.300781 128.496094 152.804688 Z M 128.496094 152.804688 "/>
<path style="fill:none;stroke-width:1.5;stroke-linecap:butt;stroke-linejoin:round;stroke:rgb(100%,0%,0%);stroke-opacity:1;stroke-dasharray:1.5,2.475;stroke-miterlimit:4;" d="M 47.481445 131.220703 L 67.482422 131.220703 " transform="matrix(1.333333,0,0,1.333333,0,0.000000000000014211)"/>
<path style=" stroke:none;fill-rule:nonzero;fill:rgb(0%,0%,0%);fill-opacity:1;" d="M 109.230469 170.65625 L 109.230469 172.042969 C 108.789062 171.628906 108.316406 171.320312 107.816406 171.117188 C 107.3125 170.914062 106.78125 170.8125 106.214844 170.8125 C 105.105469 170.8125 104.253906 171.152344 103.664062 171.832031 C 103.074219 172.511719 102.777344 173.492188 102.777344 174.777344 C 102.777344 176.058594 103.074219 177.039062 103.664062 177.714844 C 104.253906 178.394531 105.105469 178.734375 106.214844 178.734375 C 106.78125 178.734375 107.3125 178.632812 107.816406 178.429688 C 108.316406 178.226562 108.789062 177.917969 109.230469 177.503906 L 109.230469 178.878906 C 108.773438 179.191406 108.285156 179.425781 107.769531 179.582031 C 107.253906 179.738281 106.710938 179.816406 106.140625 179.816406 C 104.667969 179.816406 103.507812 179.367188 102.660156 178.464844 C 101.816406 177.566406 101.390625 176.335938 101.390625 174.777344 C 101.390625 173.214844 101.816406 171.984375 102.660156 171.082031 C 103.507812 170.183594 104.667969 169.730469 106.140625 169.730469 C 106.71875 169.730469 107.265625 169.808594 107.78125 169.960938 C 108.296875 170.117188 108.78125 170.347656 109.230469 170.65625 Z M 109.230469 170.65625 "/>
<path style=" stroke:none;fill-rule:nonzero;fill:rgb(0%,0%,0%);fill-opacity:1;" d="M 114.035156 173.175781 C 113.394531 173.175781 112.886719 173.425781 112.511719 173.925781 C 112.136719 174.429688 111.953125 175.117188 111.953125 175.988281 C 111.953125 176.859375 112.136719 177.546875 112.507812 178.046875 C 112.878906 178.550781 113.390625 178.800781 114.035156 178.800781 C 114.671875 178.800781 115.179688 178.546875 115.550781 178.046875 C 115.925781 177.542969 116.113281 176.855469 116.113281 175.988281 C 116.113281 175.125 115.925781 174.4375 115.550781 173.933594 C 115.179688 173.429688 114.671875 173.175781 114.035156 173.175781 Z M 114.035156 172.160156 C 115.078125 172.160156 115.894531 172.5 116.488281 173.175781 C 117.085938 173.851562 117.382812 174.789062 117.382812 175.988281 C 117.382812 177.179688 117.085938 178.117188 116.488281 178.796875 C 115.894531 179.476562 115.078125 179.816406 114.035156 179.816406 C 112.988281 179.816406 112.167969 179.476562 111.578125 178.796875 C 110.984375 178.117188 110.6875 177.179688 110.6875 175.988281 C 110.6875 174.789062 110.984375 173.851562 111.578125 173.175781 C 112.167969 172.5 112.988281 172.160156 114.035156 172.160156 Z M 114.035156 172.160156 "/>
<path style=" stroke:none;fill-rule:nonzero;fill:rgb(0%,0%,0%);fill-opacity:1;" d="M 119.367188 169.496094 L 120.566406 169.496094 L 120.566406 179.628906 L 119.367188 179.628906 Z M 119.367188 169.496094 "/>
<path style=" stroke:none;fill-rule:nonzero;fill:rgb(0%,0%,0%);fill-opacity:1;" d="M 127.519531 179.425781 L 127.519531 178.226562 C 127.847656 178.382812 128.183594 178.503906 128.519531 178.585938 C 128.859375 178.667969 129.191406 178.707031 129.519531 178.707031 C 130.386719 178.707031 131.050781 178.417969 131.507812 177.832031 C 131.964844 177.25 132.226562 176.363281 132.292969 175.171875 C 132.039062 175.546875 131.71875 175.832031 131.332031 176.035156 C 130.945312 176.234375 130.519531 176.332031 130.050781 176.332031 C 129.078125 176.332031 128.308594 176.039062 127.742188 175.453125 C 127.175781 174.863281 126.894531 174.058594 126.894531 173.039062 C 126.894531 172.039062 127.1875 171.242188 127.777344 170.636719 C 128.371094 170.035156 129.15625 169.730469 130.136719 169.730469 C 131.261719 169.730469 132.117188 170.164062 132.710938 171.023438 C 133.304688 171.886719 133.601562 173.136719 133.601562 174.777344 C 133.601562 176.308594 133.234375 177.53125 132.507812 178.445312 C 131.78125 179.359375 130.804688 179.816406 129.578125 179.816406 C 129.246094 179.816406 128.910156 179.785156 128.574219 179.71875 C 128.234375 179.652344 127.882812 179.554688 127.519531 179.425781 Z M 130.136719 175.304688 C 130.726562 175.304688 131.191406 175.101562 131.539062 174.699219 C 131.882812 174.296875 132.054688 173.742188 132.054688 173.039062 C 132.054688 172.339844 131.882812 171.785156 131.539062 171.382812 C 131.191406 170.976562 130.726562 170.773438 130.136719 170.773438 C 129.542969 170.773438 129.078125 170.976562 128.734375 171.382812 C 128.386719 171.785156 128.214844 172.339844 128.214844 173.039062 C 128.214844 173.742188 128.386719 174.296875 128.734375 174.699219 C 129.078125 175.101562 129.542969 175.304688 130.136719 175.304688 Z M 130.136719 175.304688 "/>
</g>
</svg>
