<?xml version="1.0" encoding="UTF-8"?>
<svg xmlns="http://www.w3.org/2000/svg" xmlns:xlink="http://www.w3.org/1999/xlink" width="332.616659" height="264.632507" viewBox="0 0 332.616659 264.632507" version="1.1">
<g id="surface1">
<path style=" stroke:none;fill-rule:nonzero;fill:rgb(100%,100%,100%);fill-opacity:1;" d="M 0 264.632812 L 332.617188 264.632812 L 332.617188 0 L 0 0 Z M 0 264.632812 "/>
<path style=" stroke:none;fill-rule:nonzero;fill:rgb(100%,100%,100%);fill-opacity:1;" d="M 58.375 214.558594 L 318.773438 214.558594 L 318.773438 29.757812 L 58.375 29.757812 Z M 58.375 214.558594 "/>
<path style="fill:none;stroke-width:0.8;stroke-linecap:butt;stroke-linejoin:round;stroke:rgb(0%,0%,0%);stroke-opacity:1;stroke-miterlimit:4;" d="M 0 0.000823975 L 0 3.498871 " transform="matrix(1.333333,0,0,1.333333,58.375,214.557495)"/>
<path style=" stroke:none;fill-rule:nonzero;fill:rgb(0%,0%,0%);fill-opacity:1;" d="M 49.960938 229.289062 L 58.304688 229.289062 L 58.304688 230.394531 L 49.960938 230.394531 Z M 49.960938 229.289062 "/>
<path style=" stroke:none;fill-rule:nonzero;fill:rgb(0%,0%,0%);fill-opacity:1;" d="M 64.757812 225.445312 L 61.4375 230.636719 L 64.757812 230.636719 Z M 64.414062 224.300781 L 66.066406 224.300781 L 66.066406 230.636719 L 67.453125 230.636719 L 67.453125 231.730469 L 66.066406 231.730469 L 66.066406 234.023438 L 64.757812 234.023438 L 64.757812 231.730469 L 60.371094 231.730469 L 60.371094 230.460938 Z M 64.414062 224.300781 "/>
<path style="fill:none;stroke-width:0.8;stroke-linecap:butt;stroke-linejoin:round;stroke:rgb(0%,0%,0%);stroke-opacity:1;stroke-miterlimit:4;" d="M 0.00117493 0.000823975 L 0.00117493 3.498871 " transform="matrix(1.333333,0,0,1.333333,123.474996,214.557495)"/>
<path style=" stroke:none;fill-rule:nonzero;fill:rgb(0%,0%,0%);fill-opacity:1;" d="M 115.058594 229.289062 L 123.40625 229.289062 L 123.40625 230.394531 L 115.058594 230.394531 Z M 115.058594 229.289062 "/>
<path style=" stroke:none;fill-rule:nonzero;fill:rgb(0%,0%,0%);fill-opacity:1;" d="M 127.378906 232.914062 L 131.964844 232.914062 L 131.964844 234.023438 L 125.796875 234.023438 L 125.796875 232.914062 C 126.292969 232.398438 126.972656 231.707031 127.835938 230.835938 C 128.699219 229.964844 129.238281 229.402344 129.460938 229.152344 C 129.882812 228.679688 130.175781 228.277344 130.339844 227.953125 C 130.507812 227.625 130.59375 227.300781 130.59375 226.984375 C 130.59375 226.46875 130.414062 226.046875 130.050781 225.722656 C 129.6875 225.394531 129.214844 225.234375 128.632812 225.234375 C 128.222656 225.234375 127.785156 225.304688 127.328125 225.445312 C 126.871094 225.589844 126.382812 225.808594 125.859375 226.097656 L 125.859375 224.769531 C 126.390625 224.558594 126.882812 224.398438 127.34375 224.289062 C 127.804688 224.179688 128.226562 224.125 128.609375 224.125 C 129.617188 224.125 130.417969 224.378906 131.015625 224.882812 C 131.617188 225.386719 131.914062 226.058594 131.914062 226.898438 C 131.914062 227.300781 131.839844 227.679688 131.691406 228.035156 C 131.539062 228.394531 131.269531 228.816406 130.871094 229.300781 C 130.765625 229.425781 130.417969 229.792969 129.835938 230.394531 C 129.257812 230.996094 128.4375 231.835938 127.378906 232.914062 Z M 127.378906 232.914062 "/>
<path style="fill:none;stroke-width:0.8;stroke-linecap:butt;stroke-linejoin:round;stroke:rgb(0%,0%,0%);stroke-opacity:1;stroke-miterlimit:4;" d="M -0.000579834 0.000823975 L -0.000579834 3.498871 " transform="matrix(1.333333,0,0,1.333333,188.574992,214.557495)"/>
<path style=" stroke:none;fill-rule:nonzero;fill:rgb(0%,0%,0%);fill-opacity:1;" d="M 188.570312 225.167969 C 187.894531 225.167969 187.386719 225.5 187.042969 226.167969 C 186.703125 226.832031 186.535156 227.835938 186.535156 229.171875 C 186.535156 230.503906 186.703125 231.503906 187.042969 232.171875 C 187.386719 232.835938 187.894531 233.171875 188.570312 233.171875 C 189.253906 233.171875 189.765625 232.835938 190.105469 232.171875 C 190.445312 231.503906 190.617188 230.503906 190.617188 229.171875 C 190.617188 227.835938 190.445312 226.832031 190.105469 226.167969 C 189.765625 225.5 189.253906 225.167969 188.570312 225.167969 Z M 188.570312 224.125 C 189.660156 224.125 190.492188 224.558594 191.070312 225.421875 C 191.644531 226.28125 191.929688 227.53125 191.929688 229.171875 C 191.929688 230.808594 191.644531 232.058594 191.070312 232.921875 C 190.492188 233.78125 189.660156 234.210938 188.570312 234.210938 C 187.480469 234.210938 186.648438 233.78125 186.074219 232.921875 C 185.5 232.058594 185.210938 230.808594 185.210938 229.171875 C 185.210938 227.53125 185.5 226.28125 186.074219 225.421875 C 186.648438 224.558594 187.480469 224.125 188.570312 224.125 Z M 188.570312 224.125 "/>
<path style="fill:none;stroke-width:0.8;stroke-linecap:butt;stroke-linejoin:round;stroke:rgb(0%,0%,0%);stroke-opacity:1;stroke-miterlimit:4;" d="M 0.000579834 0.000823975 L 0.000579834 3.498871 " transform="matrix(1.333333,0,0,1.333333,253.675008,214.557495)"/>
<path style=" stroke:none;fill-rule:nonzero;fill:rgb(0%,0%,0%);fill-opacity:1;" d="M 251.992188 232.914062 L 256.582031 232.914062 L 256.582031 234.023438 L 250.410156 234.023438 L 250.410156 232.914062 C 250.910156 232.398438 251.589844 231.707031 252.449219 230.835938 C 253.3125 229.964844 253.855469 229.402344 254.074219 229.152344 C 254.496094 228.679688 254.789062 228.277344 254.957031 227.953125 C 255.125 227.625 255.207031 227.300781 255.207031 226.984375 C 255.207031 226.46875 255.027344 226.046875 254.664062 225.722656 C 254.300781 225.394531 253.828125 225.234375 253.246094 225.234375 C 252.835938 225.234375 252.398438 225.304688 251.941406 225.445312 C 251.484375 225.589844 250.996094 225.808594 250.476562 226.097656 L 250.476562 224.769531 C 251.003906 224.558594 251.5 224.398438 251.957031 224.289062 C 252.417969 224.179688 252.839844 224.125 253.222656 224.125 C 254.230469 224.125 255.03125 224.378906 255.632812 224.882812 C 256.230469 225.386719 256.527344 226.058594 256.527344 226.898438 C 256.527344 227.300781 256.453125 227.679688 256.304688 228.035156 C 256.15625 228.394531 255.882812 228.816406 255.488281 229.300781 C 255.378906 229.425781 255.035156 229.792969 254.453125 230.394531 C 253.871094 230.996094 253.050781 231.835938 251.992188 232.914062 Z M 251.992188 232.914062 "/>
<path style="fill:none;stroke-width:0.8;stroke-linecap:butt;stroke-linejoin:round;stroke:rgb(0%,0%,0%);stroke-opacity:1;stroke-miterlimit:4;" d="M -0.00117493 0.000823975 L -0.00117493 3.498871 " transform="matrix(1.333333,0,0,1.333333,318.775004,214.557495)"/>
<path style=" stroke:none;fill-rule:nonzero;fill:rgb(0%,0%,0%);fill-opacity:1;" d="M 319.574219 225.445312 L 316.253906 230.636719 L 319.574219 230.636719 Z M 319.226562 224.300781 L 320.882812 224.300781 L 320.882812 230.636719 L 322.269531 230.636719 L 322.269531 231.730469 L 320.882812 231.730469 L 320.882812 234.023438 L 319.574219 234.023438 L 319.574219 231.730469 L 315.183594 231.730469 L 315.183594 230.460938 Z M 319.226562 224.300781 "/>
<path style=" stroke:none;fill-rule:nonzero;fill:rgb(0%,0%,0%);fill-opacity:1;" d="M 191.949219 244.96875 L 189.308594 248.515625 L 192.082031 252.257812 L 190.671875 252.257812 L 188.546875 249.394531 L 186.425781 252.257812 L 185.011719 252.257812 L 187.847656 248.445312 L 185.253906 244.96875 L 186.667969 244.96875 L 188.601562 247.566406 L 190.535156 244.96875 Z M 191.949219 244.96875 "/>
<path style="fill:none;stroke-width:0.8;stroke-linecap:butt;stroke-linejoin:round;stroke:rgb(0%,0%,0%);stroke-opacity:1;stroke-miterlimit:4;" d="M 0 -0.000930786 L -3.500977 -0.000930786 " transform="matrix(1.333333,0,0,1.333333,58.375,206.157491)"/>
<path style=" stroke:none;fill-rule:nonzero;fill:rgb(0%,0%,0%);fill-opacity:1;" d="M 32.074219 202.367188 C 31.398438 202.367188 30.890625 202.703125 30.546875 203.367188 C 30.207031 204.035156 30.039062 205.035156 30.039062 206.375 C 30.039062 207.703125 30.207031 208.703125 30.546875 209.371094 C 30.890625 210.039062 31.398438 210.371094 32.074219 210.371094 C 32.757812 210.371094 33.269531 210.039062 33.609375 209.371094 C 33.949219 208.703125 34.121094 207.703125 34.121094 206.375 C 34.121094 205.035156 33.949219 204.035156 33.609375 203.367188 C 33.269531 202.703125 32.757812 202.367188 32.074219 202.367188 Z M 32.074219 201.328125 C 33.164062 201.328125 33.996094 201.757812 34.574219 202.621094 C 35.148438 203.480469 35.433594 204.734375 35.433594 206.375 C 35.433594 208.007812 35.148438 209.257812 34.574219 210.121094 C 33.996094 210.980469 33.164062 211.414062 32.074219 211.414062 C 30.984375 211.414062 30.152344 210.980469 29.578125 210.121094 C 29.003906 209.257812 28.714844 208.007812 28.714844 206.375 C 28.714844 204.734375 29.003906 203.480469 29.578125 202.621094 C 30.152344 201.757812 30.984375 201.328125 32.074219 201.328125 Z M 32.074219 201.328125 "/>
<path style=" stroke:none;fill-rule:nonzero;fill:rgb(0%,0%,0%);fill-opacity:1;" d="M 37.746094 209.570312 L 39.121094 209.570312 L 39.121094 211.222656 L 37.746094 211.222656 Z M 37.746094 209.570312 "/>
<path style=" stroke:none;fill-rule:nonzero;fill:rgb(0%,0%,0%);fill-opacity:1;" d="M 44.796875 202.367188 C 44.121094 202.367188 43.609375 202.703125 43.269531 203.367188 C 42.929688 204.035156 42.757812 205.035156 42.757812 206.375 C 42.757812 207.703125 42.929688 208.703125 43.269531 209.371094 C 43.609375 210.039062 44.121094 210.371094 44.796875 210.371094 C 45.476562 210.371094 45.988281 210.039062 46.328125 209.371094 C 46.671875 208.703125 46.84375 207.703125 46.84375 206.375 C 46.84375 205.035156 46.671875 204.035156 46.328125 203.367188 C 45.988281 202.703125 45.476562 202.367188 44.796875 202.367188 Z M 44.796875 201.328125 C 45.886719 201.328125 46.71875 201.757812 47.292969 202.621094 C 47.871094 203.480469 48.15625 204.734375 48.15625 206.375 C 48.15625 208.007812 47.871094 209.257812 47.292969 210.121094 C 46.71875 210.980469 45.886719 211.414062 44.796875 211.414062 C 43.707031 211.414062 42.875 210.980469 42.300781 210.121094 C 41.726562 209.257812 41.4375 208.007812 41.4375 206.375 C 41.4375 204.734375 41.726562 203.480469 42.300781 202.621094 C 42.875 201.757812 43.707031 201.328125 44.796875 201.328125 Z M 44.796875 201.328125 "/>
<path style="fill:none;stroke-width:0.8;stroke-linecap:butt;stroke-linejoin:round;stroke:rgb(0%,0%,0%);stroke-opacity:1;stroke-miterlimit:4;" d="M 0 0.00140381 L -3.500977 0.00140381 " transform="matrix(1.333333,0,0,1.333333,58.375,161.357503)"/>
<path style=" stroke:none;fill-rule:nonzero;fill:rgb(0%,0%,0%);fill-opacity:1;" d="M 32.074219 157.570312 C 31.398438 157.570312 30.890625 157.902344 30.546875 158.570312 C 30.207031 159.234375 30.039062 160.234375 30.039062 161.574219 C 30.039062 162.90625 30.207031 163.90625 30.546875 164.570312 C 30.890625 165.238281 31.398438 165.570312 32.074219 165.570312 C 32.757812 165.570312 33.269531 165.238281 33.609375 164.570312 C 33.949219 163.90625 34.121094 162.90625 34.121094 161.574219 C 34.121094 160.234375 33.949219 159.234375 33.609375 158.570312 C 33.269531 157.902344 32.757812 157.570312 32.074219 157.570312 Z M 32.074219 156.527344 C 33.164062 156.527344 33.996094 156.957031 34.574219 157.820312 C 35.148438 158.683594 35.433594 159.933594 35.433594 161.574219 C 35.433594 163.210938 35.148438 164.457031 34.574219 165.320312 C 33.996094 166.183594 33.164062 166.613281 32.074219 166.613281 C 30.984375 166.613281 30.152344 166.183594 29.578125 165.320312 C 29.003906 164.457031 28.714844 163.210938 28.714844 161.574219 C 28.714844 159.933594 29.003906 158.683594 29.578125 157.820312 C 30.152344 156.957031 30.984375 156.527344 32.074219 156.527344 Z M 32.074219 156.527344 "/>
<path style=" stroke:none;fill-rule:nonzero;fill:rgb(0%,0%,0%);fill-opacity:1;" d="M 37.746094 164.769531 L 39.121094 164.769531 L 39.121094 166.421875 L 37.746094 166.421875 Z M 37.746094 164.769531 "/>
<path style=" stroke:none;fill-rule:nonzero;fill:rgb(0%,0%,0%);fill-opacity:1;" d="M 43.117188 165.316406 L 47.707031 165.316406 L 47.707031 166.421875 L 41.535156 166.421875 L 41.535156 165.316406 C 42.035156 164.800781 42.714844 164.105469 43.574219 163.238281 C 44.4375 162.367188 44.980469 161.804688 45.199219 161.550781 C 45.621094 161.078125 45.914062 160.679688 46.082031 160.351562 C 46.25 160.023438 46.332031 159.703125 46.332031 159.386719 C 46.332031 158.867188 46.152344 158.449219 45.789062 158.125 C 45.425781 157.796875 44.957031 157.632812 44.375 157.632812 C 43.960938 157.632812 43.527344 157.703125 43.066406 157.847656 C 42.609375 157.992188 42.121094 158.207031 41.601562 158.5 L 41.601562 157.171875 C 42.128906 156.957031 42.625 156.796875 43.082031 156.691406 C 43.546875 156.582031 43.964844 156.527344 44.347656 156.527344 C 45.355469 156.527344 46.15625 156.78125 46.757812 157.285156 C 47.355469 157.785156 47.65625 158.457031 47.65625 159.300781 C 47.65625 159.699219 47.578125 160.078125 47.429688 160.4375 C 47.28125 160.792969 47.007812 161.214844 46.613281 161.703125 C 46.503906 161.828125 46.160156 162.191406 45.578125 162.792969 C 44.996094 163.394531 44.175781 164.234375 43.117188 165.316406 Z M 43.117188 165.316406 "/>
<path style="fill:none;stroke-width:0.8;stroke-linecap:butt;stroke-linejoin:round;stroke:rgb(0%,0%,0%);stroke-opacity:1;stroke-miterlimit:4;" d="M 0 0.000823975 L -3.500977 0.000823975 " transform="matrix(1.333333,0,0,1.333333,58.375,116.557495)"/>
<path style=" stroke:none;fill-rule:nonzero;fill:rgb(0%,0%,0%);fill-opacity:1;" d="M 32.074219 112.769531 C 31.398438 112.769531 30.890625 113.101562 30.546875 113.769531 C 30.207031 114.433594 30.039062 115.4375 30.039062 116.773438 C 30.039062 118.105469 30.207031 119.105469 30.546875 119.769531 C 30.890625 120.4375 31.398438 120.769531 32.074219 120.769531 C 32.757812 120.769531 33.269531 120.4375 33.609375 119.769531 C 33.949219 119.105469 34.121094 118.105469 34.121094 116.773438 C 34.121094 115.4375 33.949219 114.433594 33.609375 113.769531 C 33.269531 113.101562 32.757812 112.769531 32.074219 112.769531 Z M 32.074219 111.726562 C 33.164062 111.726562 33.996094 112.160156 34.574219 113.019531 C 35.148438 113.882812 35.433594 115.132812 35.433594 116.773438 C 35.433594 118.410156 35.148438 119.660156 34.574219 120.519531 C 33.996094 121.382812 33.164062 121.8125 32.074219 121.8125 C 30.984375 121.8125 30.152344 121.382812 29.578125 120.519531 C 29.003906 119.660156 28.714844 118.410156 28.714844 116.773438 C 28.714844 115.132812 29.003906 113.882812 29.578125 113.019531 C 30.152344 112.160156 30.984375 111.726562 32.074219 111.726562 Z M 32.074219 111.726562 "/>
<path style=" stroke:none;fill-rule:nonzero;fill:rgb(0%,0%,0%);fill-opacity:1;" d="M 37.746094 119.96875 L 39.121094 119.96875 L 39.121094 121.625 L 37.746094 121.625 Z M 37.746094 119.96875 "/>
<path style=" stroke:none;fill-rule:nonzero;fill:rgb(0%,0%,0%);fill-opacity:1;" d="M 45.597656 113.046875 L 42.277344 118.238281 L 45.597656 118.238281 Z M 45.253906 111.902344 L 46.90625 111.902344 L 46.90625 118.238281 L 48.292969 118.238281 L 48.292969 119.332031 L 46.90625 119.332031 L 46.90625 121.625 L 45.597656 121.625 L 45.597656 119.332031 L 41.210938 119.332031 L 41.210938 118.0625 Z M 45.253906 111.902344 "/>
<path style="fill:none;stroke-width:0.8;stroke-linecap:butt;stroke-linejoin:round;stroke:rgb(0%,0%,0%);stroke-opacity:1;stroke-miterlimit:4;" d="M 0 0.000232697 L -3.500977 0.000232697 " transform="matrix(1.333333,0,0,1.333333,58.375,71.757502)"/>
<path style=" stroke:none;fill-rule:nonzero;fill:rgb(0%,0%,0%);fill-opacity:1;" d="M 32.074219 67.96875 C 31.398438 67.96875 30.890625 68.300781 30.546875 68.96875 C 30.207031 69.632812 30.039062 70.636719 30.039062 71.972656 C 30.039062 73.304688 30.207031 74.304688 30.546875 74.972656 C 30.890625 75.636719 31.398438 75.972656 32.074219 75.972656 C 32.757812 75.972656 33.269531 75.636719 33.609375 74.972656 C 33.949219 74.304688 34.121094 73.304688 34.121094 71.972656 C 34.121094 70.636719 33.949219 69.632812 33.609375 68.96875 C 33.269531 68.300781 32.757812 67.96875 32.074219 67.96875 Z M 32.074219 66.925781 C 33.164062 66.925781 33.996094 67.359375 34.574219 68.222656 C 35.148438 69.082031 35.433594 70.332031 35.433594 71.972656 C 35.433594 73.609375 35.148438 74.859375 34.574219 75.722656 C 33.996094 76.582031 33.164062 77.011719 32.074219 77.011719 C 30.984375 77.011719 30.152344 76.582031 29.578125 75.722656 C 29.003906 74.859375 28.714844 73.609375 28.714844 71.972656 C 28.714844 70.332031 29.003906 69.082031 29.578125 68.222656 C 30.152344 67.359375 30.984375 66.925781 32.074219 66.925781 Z M 32.074219 66.925781 "/>
<path style=" stroke:none;fill-rule:nonzero;fill:rgb(0%,0%,0%);fill-opacity:1;" d="M 37.746094 75.167969 L 39.121094 75.167969 L 39.121094 76.824219 L 37.746094 76.824219 Z M 37.746094 75.167969 "/>
<path style=" stroke:none;fill-rule:nonzero;fill:rgb(0%,0%,0%);fill-opacity:1;" d="M 44.960938 71.441406 C 44.371094 71.441406 43.902344 71.640625 43.558594 72.046875 C 43.210938 72.449219 43.039062 73 43.039062 73.703125 C 43.039062 74.402344 43.210938 74.957031 43.558594 75.363281 C 43.902344 75.769531 44.371094 75.972656 44.960938 75.972656 C 45.550781 75.972656 46.019531 75.769531 46.363281 75.363281 C 46.707031 74.957031 46.878906 74.402344 46.878906 73.703125 C 46.878906 73 46.707031 72.449219 46.363281 72.046875 C 46.019531 71.640625 45.550781 71.441406 44.960938 71.441406 Z M 47.570312 67.316406 L 47.570312 68.515625 C 47.242188 68.359375 46.90625 68.242188 46.570312 68.160156 C 46.234375 68.074219 45.902344 68.035156 45.570312 68.035156 C 44.703125 68.035156 44.039062 68.328125 43.582031 68.914062 C 43.125 69.5 42.863281 70.382812 42.796875 71.570312 C 43.054688 71.191406 43.375 70.902344 43.761719 70.699219 C 44.148438 70.5 44.574219 70.398438 45.039062 70.398438 C 46.015625 70.398438 46.785156 70.695312 47.351562 71.289062 C 47.917969 71.878906 48.203125 72.683594 48.203125 73.703125 C 48.203125 74.703125 47.90625 75.503906 47.316406 76.109375 C 46.726562 76.710938 45.941406 77.011719 44.960938 77.011719 C 43.835938 77.011719 42.976562 76.582031 42.382812 75.722656 C 41.789062 74.859375 41.488281 73.609375 41.488281 71.972656 C 41.488281 70.4375 41.855469 69.210938 42.582031 68.296875 C 43.3125 67.382812 44.292969 66.925781 45.519531 66.925781 C 45.851562 66.925781 46.183594 66.960938 46.519531 67.023438 C 46.855469 67.089844 47.207031 67.1875 47.570312 67.316406 Z M 47.570312 67.316406 "/>
<path style=" stroke:none;fill-rule:nonzero;fill:rgb(0%,0%,0%);fill-opacity:1;" d="M 18.636719 138.6875 L 22.503906 138.6875 L 22.503906 139.894531 L 12.441406 139.894531 L 12.441406 138.6875 L 13.546875 138.6875 C 13.113281 138.4375 12.789062 138.117188 12.582031 137.734375 C 12.371094 137.351562 12.265625 136.890625 12.265625 136.359375 C 12.265625 135.472656 12.617188 134.75 13.320312 134.199219 C 14.023438 133.644531 14.945312 133.367188 16.089844 133.367188 C 17.238281 133.367188 18.164062 133.644531 18.867188 134.199219 C 19.570312 134.75 19.921875 135.472656 19.921875 136.359375 C 19.921875 136.890625 19.816406 137.351562 19.605469 137.734375 C 19.394531 138.117188 19.070312 138.4375 18.636719 138.6875 Z M 16.089844 134.613281 C 15.210938 134.613281 14.519531 134.792969 14.019531 135.15625 C 13.515625 135.519531 13.265625 136.015625 13.265625 136.648438 C 13.265625 137.285156 13.515625 137.78125 14.019531 138.144531 C 14.519531 138.507812 15.210938 138.6875 16.089844 138.6875 C 16.972656 138.6875 17.664062 138.507812 18.164062 138.144531 C 18.664062 137.78125 18.917969 137.285156 18.917969 136.648438 C 18.917969 136.015625 18.664062 135.519531 18.164062 135.15625 C 17.664062 134.792969 16.972656 134.613281 16.089844 134.613281 Z M 16.089844 134.613281 "/>
<path style=" stroke:none;fill-rule:nonzero;fill:rgb(0%,0%,0%);fill-opacity:1;" d="M 18.078125 131.214844 L 18.078125 129.839844 L 19.730469 129.839844 L 19.730469 131.214844 Z M 18.078125 131.214844 "/>
<path style=" stroke:none;fill-rule:nonzero;fill:rgb(0%,0%,0%);fill-opacity:1;" d="M 13.839844 121.46875 C 13.300781 121.167969 12.902344 120.808594 12.648438 120.394531 C 12.390625 119.976562 12.265625 119.484375 12.265625 118.921875 C 12.265625 118.164062 12.53125 117.578125 13.0625 117.164062 C 13.59375 116.75 14.347656 116.546875 15.328125 116.546875 L 19.730469 116.546875 L 19.730469 117.75 L 15.367188 117.75 C 14.671875 117.75 14.152344 117.875 13.816406 118.121094 C 13.476562 118.371094 13.304688 118.746094 13.304688 119.253906 C 13.304688 119.875 13.511719 120.367188 13.925781 120.726562 C 14.335938 121.085938 14.898438 121.265625 15.609375 121.265625 L 19.730469 121.265625 L 19.730469 122.46875 L 15.367188 122.46875 C 14.664062 122.46875 14.148438 122.59375 13.808594 122.839844 C 13.472656 123.089844 13.304688 123.46875 13.304688 123.988281 C 13.304688 124.597656 13.511719 125.085938 13.925781 125.449219 C 14.339844 125.808594 14.902344 125.988281 15.609375 125.988281 L 19.730469 125.988281 L 19.730469 127.191406 L 12.441406 127.191406 L 12.441406 125.988281 L 13.574219 125.988281 C 13.125 125.714844 12.796875 125.386719 12.582031 125.003906 C 12.371094 124.621094 12.265625 124.167969 12.265625 123.644531 C 12.265625 123.113281 12.398438 122.660156 12.667969 122.292969 C 12.9375 121.921875 13.328125 121.644531 13.839844 121.46875 Z M 13.839844 121.46875 "/>
<path style=" stroke:none;fill-rule:nonzero;fill:rgb(0%,0%,0%);fill-opacity:1;" d="M 18.078125 113.988281 L 18.078125 112.613281 L 19.730469 112.613281 L 19.730469 113.988281 Z M 18.078125 113.988281 "/>
<path style=" stroke:none;fill-rule:nonzero;fill:rgb(0%,0%,0%);fill-opacity:1;" d="M 9.601562 106.226562 L 10.597656 106.226562 L 10.597656 107.371094 C 10.597656 107.800781 10.683594 108.101562 10.859375 108.269531 C 11.03125 108.433594 11.34375 108.519531 11.796875 108.519531 L 12.441406 108.519531 L 12.441406 106.546875 L 13.371094 106.546875 L 13.371094 108.519531 L 19.730469 108.519531 L 19.730469 109.722656 L 13.371094 109.722656 L 13.371094 110.867188 L 12.441406 110.867188 L 12.441406 109.722656 L 11.929688 109.722656 C 11.121094 109.722656 10.527344 109.535156 10.160156 109.15625 C 9.785156 108.777344 9.601562 108.179688 9.601562 107.359375 Z M 9.601562 106.226562 "/>
<path style=" stroke:none;fill-rule:nonzero;fill:rgb(0%,0%,0%);fill-opacity:1;" d="M 18.078125 106.023438 L 18.078125 104.648438 L 19.730469 104.648438 L 19.730469 106.023438 Z M 18.078125 106.023438 "/>
<path style="fill:none;stroke-width:1.5;stroke-linecap:butt;stroke-linejoin:round;stroke:rgb(12.156863%,46.666667%,70.588237%);stroke-opacity:1;stroke-miterlimit:4;" d="M 92.607422 154.617188 L 92.607422 133.617188 " transform="matrix(1.333333,0,0,1.333333,0,0)"/>
<path style="fill:none;stroke-width:1.5;stroke-linecap:butt;stroke-linejoin:round;stroke:rgb(12.156863%,46.666667%,70.588237%);stroke-opacity:1;stroke-miterlimit:4;" d="M 141.430664 154.617188 L 141.430664 28.617188 " transform="matrix(1.333333,0,0,1.333333,0,0)"/>
<path style="fill:none;stroke-width:1.5;stroke-linecap:butt;stroke-linejoin:round;stroke:rgb(12.156863%,46.666667%,70.588237%);stroke-opacity:1;stroke-miterlimit:4;" d="M 190.256836 154.617188 L 190.256836 133.617188 " transform="matrix(1.333333,0,0,1.333333,0,0)"/>
<path style="fill-rule:nonzero;fill:rgb(12.156863%,46.666667%,70.588237%);fill-opacity:1;stroke-width:1;stroke-linecap:butt;stroke-linejoin:round;stroke:rgb(12.156863%,46.666667%,70.588237%);stroke-opacity:1;stroke-miterlimit:4;" d="M 0.00117493 2.999069 C 0.79512 2.999069 1.559769 2.682663 2.122269 2.120163 C 2.684769 1.557663 3.001175 0.795944 3.001175 -0.000930786 C 3.001175 -0.794876 2.684769 -1.559525 2.122269 -2.122025 C 1.559769 -2.684525 0.79512 -3.000931 0.00117493 -3.000931 C -0.7957 -3.000931 -1.557419 -2.684525 -2.119919 -2.122025 C -2.685349 -1.559525 -2.998825 -0.794876 -2.998825 -0.000930786 C -2.998825 0.795944 -2.685349 1.557663 -2.119919 2.120163 C -1.557419 2.682663 -0.7957 2.999069 0.00117493 2.999069 Z M 0.00117493 2.999069 " transform="matrix(1.333333,0,0,1.333333,123.474996,178.157491)"/>
<path style="fill-rule:nonzero;fill:rgb(12.156863%,46.666667%,70.588237%);fill-opacity:1;stroke-width:1;stroke-linecap:butt;stroke-linejoin:round;stroke:rgb(12.156863%,46.666667%,70.588237%);stroke-opacity:1;stroke-miterlimit:4;" d="M -0.000579834 2.999062 C 0.796295 2.999062 1.558014 2.682655 2.120514 2.120155 C 2.683014 1.557655 2.99942 0.795937 2.99942 -0.000938416 C 2.99942 -0.794884 2.683014 -1.559532 2.120514 -2.122032 C 1.558014 -2.684532 0.796295 -3.000938 -0.000579834 -3.000938 C -0.794525 -3.000938 -1.559174 -2.684532 -2.121674 -2.122032 C -2.684174 -1.559532 -3.00058 -0.794884 -3.00058 -0.000938416 C -3.00058 0.795937 -2.684174 1.557655 -2.121674 2.120155 C -1.559174 2.682655 -0.794525 2.999062 -0.000579834 2.999062 Z M -0.000579834 2.999062 " transform="matrix(1.333333,0,0,1.333333,188.574992,38.157501)"/>
<path style="fill-rule:nonzero;fill:rgb(12.156863%,46.666667%,70.588237%);fill-opacity:1;stroke-width:1;stroke-linecap:butt;stroke-linejoin:round;stroke:rgb(12.156863%,46.666667%,70.588237%);stroke-opacity:1;stroke-miterlimit:4;" d="M 0.000579834 2.999069 C 0.794525 2.999069 1.559174 2.682663 2.121674 2.120163 C 2.684174 1.557663 3.00058 0.795944 3.00058 -0.000930786 C 3.00058 -0.794876 2.684174 -1.559525 2.121674 -2.122025 C 1.559174 -2.684525 0.794525 -3.000931 0.000579834 -3.000931 C -0.796295 -3.000931 -1.558014 -2.684525 -2.120514 -2.122025 C -2.683014 -1.559525 -2.99942 -0.794876 -2.99942 -0.000930786 C -2.99942 0.795944 -2.683014 1.557663 -2.120514 2.120163 C -1.558014 2.682663 -0.796295 2.999069 0.000579834 2.999069 Z M 0.000579834 2.999069 " transform="matrix(1.333333,0,0,1.333333,253.675008,178.157491)"/>
<path style="fill:none;stroke-width:1.5;stroke-linecap:square;stroke-linejoin:round;stroke:rgb(83.92157%,15.294118%,15.686275%);stroke-opacity:1;stroke-miterlimit:4;" d="M 92.607422 154.617188 L 190.256836 154.617188 " transform="matrix(1.333333,0,0,1.333333,0,0)"/>
<path style="fill:none;stroke-width:4;stroke-linecap:butt;stroke-linejoin:round;stroke:rgb(0%,0%,0%);stroke-opacity:1;stroke-miterlimit:4;" d="M 92.607422 70.617188 L 190.256836 70.617188 " transform="matrix(1.333333,0,0,1.333333,0,0)"/>
<path style="fill:none;stroke-width:1;stroke-linecap:butt;stroke-linejoin:round;stroke:rgb(0%,0%,0%);stroke-opacity:1;stroke-miterlimit:4;" d="M 92.607422 65.578125 L 92.607422 75.65918 " transform="matrix(1.333333,0,0,1.333333,0,0)"/>
<path style="fill:none;stroke-width:1;stroke-linecap:butt;stroke-linejoin:round;stroke:rgb(0%,0%,0%);stroke-opacity:1;stroke-miterlimit:4;" d="M 190.256836 65.578125 L 190.256836 75.65918 " transform="matrix(1.333333,0,0,1.333333,0,0)"/>
<path style="fill:none;stroke-width:0.8;stroke-linecap:square;stroke-linejoin:miter;stroke:rgb(0%,0%,0%);stroke-opacity:1;stroke-miterlimit:4;" d="M 43.78125 160.918945 L 43.78125 22.318359 " transform="matrix(1.333333,0,0,1.333333,0,0)"/>
<path style="fill:none;stroke-width:0.8;stroke-linecap:square;stroke-linejoin:miter;stroke:rgb(0%,0%,0%);stroke-opacity:1;stroke-miterlimit:4;" d="M 239.080078 160.918945 L 239.080078 22.318359 " transform="matrix(1.333333,0,0,1.333333,0,0)"/>
<path style="fill:none;stroke-width:0.8;stroke-linecap:square;stroke-linejoin:miter;stroke:rgb(0%,0%,0%);stroke-opacity:1;stroke-miterlimit:4;" d="M 43.78125 160.918945 L 239.080078 160.918945 " transform="matrix(1.333333,0,0,1.333333,0,0)"/>
<path style="fill:none;stroke-width:0.8;stroke-linecap:square;stroke-linejoin:miter;stroke:rgb(0%,0%,0%);stroke-opacity:1;stroke-miterlimit:4;" d="M 43.78125 22.318359 L 239.080078 22.318359 " transform="matrix(1.333333,0,0,1.333333,0,0)"/>
<path style=" stroke:none;fill-rule:nonzero;fill:rgb(0%,0%,0%);fill-opacity:1;" d="M 151.703125 20.445312 L 151.703125 25.085938 L 150.257812 25.085938 L 150.257812 13.007812 L 151.703125 13.007812 L 151.703125 14.335938 C 152.003906 13.816406 152.386719 13.429688 152.847656 13.175781 C 153.308594 12.925781 153.859375 12.796875 154.5 12.796875 C 155.5625 12.796875 156.425781 13.21875 157.089844 14.0625 C 157.753906 14.90625 158.085938 16.015625 158.085938 17.390625 C 158.085938 18.765625 157.753906 19.875 157.089844 20.71875 C 156.425781 21.5625 155.5625 21.984375 154.5 21.984375 C 153.859375 21.984375 153.308594 21.859375 152.847656 21.605469 C 152.386719 21.351562 152.003906 20.964844 151.703125 20.445312 Z M 156.59375 17.390625 C 156.59375 16.332031 156.378906 15.503906 155.941406 14.902344 C 155.507812 14.300781 154.910156 14 154.148438 14 C 153.386719 14 152.789062 14.300781 152.355469 14.902344 C 151.921875 15.503906 151.703125 16.332031 151.703125 17.390625 C 151.703125 18.445312 151.921875 19.277344 152.355469 19.878906 C 152.789062 20.480469 153.386719 20.78125 154.148438 20.78125 C 154.910156 20.78125 155.507812 20.480469 155.941406 19.878906 C 156.378906 19.277344 156.59375 18.445312 156.59375 17.390625 Z M 156.59375 17.390625 "/>
<path style=" stroke:none;fill-rule:nonzero;fill:rgb(0%,0%,0%);fill-opacity:1;" d="M 165.742188 14.492188 L 175.757812 14.492188 L 175.757812 15.804688 L 165.742188 15.804688 Z M 165.742188 17.679688 L 175.757812 17.679688 L 175.757812 19.007812 L 165.742188 19.007812 Z M 165.742188 17.679688 "/>
<path style=" stroke:none;fill-rule:nonzero;fill:rgb(0%,0%,0%);fill-opacity:1;" d="M 187.625 11.132812 C 186.8125 11.132812 186.203125 11.53125 185.792969 12.332031 C 185.382812 13.128906 185.179688 14.332031 185.179688 15.9375 C 185.179688 17.535156 185.382812 18.734375 185.792969 19.535156 C 186.203125 20.335938 186.8125 20.734375 187.625 20.734375 C 188.441406 20.734375 189.054688 20.335938 189.464844 19.535156 C 189.875 18.734375 190.078125 17.535156 190.078125 15.9375 C 190.078125 14.332031 189.875 13.128906 189.464844 12.332031 C 189.054688 11.53125 188.441406 11.132812 187.625 11.132812 Z M 187.625 9.882812 C 188.933594 9.882812 189.933594 10.398438 190.621094 11.433594 C 191.3125 12.46875 191.65625 13.96875 191.65625 15.9375 C 191.65625 17.902344 191.3125 19.398438 190.621094 20.433594 C 189.933594 21.46875 188.933594 21.984375 187.625 21.984375 C 186.316406 21.984375 185.320312 21.46875 184.628906 20.433594 C 183.9375 19.398438 183.59375 17.902344 183.59375 15.9375 C 183.59375 13.96875 183.9375 12.46875 184.628906 11.433594 C 185.320312 10.398438 186.316406 9.882812 187.625 9.882812 Z M 187.625 9.882812 "/>
<path style=" stroke:none;fill-rule:nonzero;fill:rgb(0%,0%,0%);fill-opacity:1;" d="M 194.429688 19.773438 L 196.078125 19.773438 L 196.078125 21.757812 L 194.429688 21.757812 Z M 194.429688 19.773438 "/>
<path style=" stroke:none;fill-rule:nonzero;fill:rgb(0%,0%,0%);fill-opacity:1;" d="M 199.789062 20.429688 L 202.367188 20.429688 L 202.367188 11.53125 L 199.5625 12.09375 L 199.5625 10.65625 L 202.351562 10.09375 L 203.929688 10.09375 L 203.929688 20.429688 L 206.507812 20.429688 L 206.507812 21.757812 L 199.789062 21.757812 Z M 199.789062 20.429688 "/>
<path style=" stroke:none;fill-rule:nonzero;fill:rgb(0%,0%,0%);fill-opacity:1;" d="M 211.054688 20.429688 L 216.5625 20.429688 L 216.5625 21.757812 L 209.15625 21.757812 L 209.15625 20.429688 C 209.753906 19.808594 210.570312 18.976562 211.605469 17.933594 C 212.640625 16.890625 213.289062 16.214844 213.554688 15.914062 C 214.058594 15.347656 214.414062 14.867188 214.613281 14.472656 C 214.8125 14.078125 214.914062 13.691406 214.914062 13.3125 C 214.914062 12.691406 214.695312 12.1875 214.261719 11.796875 C 213.828125 11.40625 213.261719 11.210938 212.5625 11.210938 C 212.066406 11.210938 211.542969 11.296875 210.996094 11.46875 C 210.445312 11.640625 209.859375 11.898438 209.234375 12.25 L 209.234375 10.65625 C 209.871094 10.398438 210.464844 10.207031 211.015625 10.078125 C 211.566406 9.949219 212.074219 9.882812 212.53125 9.882812 C 213.742188 9.882812 214.703125 10.183594 215.421875 10.789062 C 216.140625 11.394531 216.5 12.199219 216.5 13.210938 C 216.5 13.691406 216.410156 14.144531 216.230469 14.574219 C 216.050781 15.003906 215.726562 15.507812 215.25 16.09375 C 215.121094 16.246094 214.707031 16.679688 214.007812 17.402344 C 213.308594 18.125 212.328125 19.132812 211.054688 20.429688 Z M 211.054688 20.429688 "/>
<path style=" stroke:none;fill-rule:nonzero;fill:rgb(0%,0%,0%);fill-opacity:1;" d="M 219.890625 10.09375 L 226.085938 10.09375 L 226.085938 11.421875 L 221.335938 11.421875 L 221.335938 14.28125 C 221.566406 14.203125 221.792969 14.144531 222.023438 14.105469 C 222.25 14.066406 222.480469 14.046875 222.710938 14.046875 C 224.011719 14.046875 225.042969 14.402344 225.804688 15.117188 C 226.566406 15.832031 226.945312 16.796875 226.945312 18.015625 C 226.945312 19.269531 226.554688 20.246094 225.773438 20.941406 C 224.992188 21.636719 223.890625 21.984375 222.46875 21.984375 C 221.980469 21.984375 221.480469 21.941406 220.972656 21.859375 C 220.464844 21.777344 219.941406 21.652344 219.398438 21.484375 L 219.398438 19.898438 C 219.867188 20.152344 220.351562 20.34375 220.851562 20.46875 C 221.351562 20.59375 221.878906 20.65625 222.4375 20.65625 C 223.339844 20.65625 224.050781 20.417969 224.578125 19.945312 C 225.105469 19.472656 225.367188 18.828125 225.367188 18.015625 C 225.367188 17.203125 225.105469 16.5625 224.578125 16.085938 C 224.050781 15.613281 223.339844 15.375 222.4375 15.375 C 222.015625 15.375 221.59375 15.421875 221.175781 15.515625 C 220.757812 15.609375 220.328125 15.753906 219.890625 15.953125 Z M 219.890625 10.09375 "/>
</g>
</svg>
