<?xml version="1.0" encoding="UTF-8"?>
<svg xmlns="http://www.w3.org/2000/svg" xmlns:xlink="http://www.w3.org/1999/xlink" width="328.375" height="244.474996" viewBox="0 0 328.375 244.474996" version="1.1">
<defs>
<clipPath id="clip1">
  <path d="M 108 9.601562 L 111 9.601562 L 111 194.398438 L 108 194.398438 Z M 108 9.601562 "/>
</clipPath>
<clipPath id="clip2">
  <path d="M 188 9.601562 L 190 9.601562 L 190 194.398438 L 188 194.398438 Z M 188 9.601562 "/>
</clipPath>
<clipPath id="clip3">
  <path d="M 267 9.601562 L 269 9.601562 L 269 194.398438 L 267 194.398438 Z M 267 9.601562 "/>
</clipPath>
<clipPath id="clip4">
  <path d="M 58.375 185 L 318.773438 185 L 318.773438 187 L 58.375 187 Z M 58.375 185 "/>
</clipPath>
<clipPath id="clip5">
  <path d="M 58.375 151 L 318.773438 151 L 318.773438 154 L 58.375 154 Z M 58.375 151 "/>
</clipPath>
<clipPath id="clip6">
  <path d="M 58.375 118 L 318.773438 118 L 318.773438 120 L 58.375 120 Z M 58.375 118 "/>
</clipPath>
<clipPath id="clip7">
  <path d="M 58.375 84 L 318.773438 84 L 318.773438 86 L 58.375 86 Z M 58.375 84 "/>
</clipPath>
<clipPath id="clip8">
  <path d="M 58.375 50 L 318.773438 50 L 318.773438 53 L 58.375 53 Z M 58.375 50 "/>
</clipPath>
<clipPath id="clip9">
  <path d="M 58.375 17 L 318.773438 17 L 318.773438 19 L 58.375 19 Z M 58.375 17 "/>
</clipPath>
</defs>
<g id="surface1">
<path style=" stroke:none;fill-rule:nonzero;fill:rgb(100%,100%,100%);fill-opacity:1;" d="M 0 244.476562 L 328.375 244.476562 L 328.375 0 L 0 0 Z M 0 244.476562 "/>
<path style=" stroke:none;fill-rule:nonzero;fill:rgb(100%,100%,100%);fill-opacity:1;" d="M 58.375 194.398438 L 318.773438 194.398438 L 318.773438 9.601562 L 58.375 9.601562 Z M 58.375 194.398438 "/>
<g clip-path="url(#clip1)" clip-rule="nonzero">
<path style="fill:none;stroke-width:0.8;stroke-linecap:square;stroke-linejoin:round;stroke:rgb(69.01961%,69.01961%,69.01961%);stroke-opacity:1;stroke-miterlimit:4;" d="M 82.297852 145.798828 L 82.297852 7.201172 " transform="matrix(1.333333,0,0,1.333333,0,0.000000000000014211)"/>
</g>
<path style="fill:none;stroke-width:0.8;stroke-linecap:butt;stroke-linejoin:round;stroke:rgb(0%,0%,0%);stroke-opacity:1;stroke-miterlimit:4;" d="M -0.000984192 -0.00117493 L -0.000984192 3.499802 " transform="matrix(1.333333,0,0,1.333333,109.731781,194.400004)"/>
<path style=" stroke:none;fill-rule:nonzero;fill:rgb(0%,0%,0%);fill-opacity:1;" d="M 101.316406 209.132812 L 109.660156 209.132812 L 109.660156 210.238281 L 101.316406 210.238281 Z M 101.316406 209.132812 "/>
<path style=" stroke:none;fill-rule:nonzero;fill:rgb(0%,0%,0%);fill-opacity:1;" d="M 113.632812 212.757812 L 118.222656 212.757812 L 118.222656 213.863281 L 112.050781 213.863281 L 112.050781 212.757812 C 112.550781 212.242188 113.230469 211.546875 114.09375 210.679688 C 114.953125 209.808594 115.496094 209.246094 115.71875 208.992188 C 116.136719 208.523438 116.433594 208.121094 116.597656 207.792969 C 116.765625 207.464844 116.851562 207.144531 116.851562 206.828125 C 116.851562 206.308594 116.667969 205.890625 116.308594 205.566406 C 115.945312 205.238281 115.472656 205.074219 114.890625 205.074219 C 114.476562 205.074219 114.042969 205.148438 113.582031 205.289062 C 113.125 205.433594 112.636719 205.648438 112.117188 205.941406 L 112.117188 204.613281 C 112.644531 204.398438 113.140625 204.238281 113.601562 204.132812 C 114.0625 204.023438 114.484375 203.96875 114.863281 203.96875 C 115.871094 203.96875 116.675781 204.222656 117.273438 204.726562 C 117.871094 205.226562 118.171875 205.898438 118.171875 206.742188 C 118.171875 207.140625 118.097656 207.519531 117.945312 207.878906 C 117.796875 208.234375 117.527344 208.65625 117.128906 209.144531 C 117.019531 209.269531 116.675781 209.632812 116.09375 210.234375 C 115.515625 210.835938 114.695312 211.679688 113.632812 212.757812 Z M 113.632812 212.757812 "/>
<g clip-path="url(#clip2)" clip-rule="nonzero">
<path style="fill:none;stroke-width:0.8;stroke-linecap:square;stroke-linejoin:round;stroke:rgb(69.01961%,69.01961%,69.01961%);stroke-opacity:1;stroke-miterlimit:4;" d="M 141.580078 145.798828 L 141.580078 7.201172 " transform="matrix(1.333333,0,0,1.333333,0,0.000000000000014211)"/>
</g>
<path style="fill:none;stroke-width:0.8;stroke-linecap:butt;stroke-linejoin:round;stroke:rgb(0%,0%,0%);stroke-opacity:1;stroke-miterlimit:4;" d="M 0.00062561 -0.00117493 L 0.00062561 3.499802 " transform="matrix(1.333333,0,0,1.333333,188.772603,194.400004)"/>
<path style=" stroke:none;fill-rule:nonzero;fill:rgb(0%,0%,0%);fill-opacity:1;" d="M 188.769531 205.011719 C 188.09375 205.011719 187.582031 205.34375 187.242188 206.011719 C 186.902344 206.675781 186.730469 207.675781 186.730469 209.015625 C 186.730469 210.347656 186.902344 211.347656 187.242188 212.011719 C 187.582031 212.679688 188.09375 213.011719 188.769531 213.011719 C 189.449219 213.011719 189.960938 212.679688 190.300781 212.011719 C 190.644531 211.347656 190.8125 210.347656 190.8125 209.015625 C 190.8125 207.675781 190.644531 206.675781 190.300781 206.011719 C 189.960938 205.34375 189.449219 205.011719 188.769531 205.011719 Z M 188.769531 203.96875 C 189.859375 203.96875 190.691406 204.398438 191.265625 205.261719 C 191.839844 206.125 192.128906 207.375 192.128906 209.015625 C 192.128906 210.652344 191.839844 211.898438 191.265625 212.761719 C 190.691406 213.625 189.859375 214.054688 188.769531 214.054688 C 187.679688 214.054688 186.847656 213.625 186.273438 212.761719 C 185.699219 211.898438 185.410156 210.652344 185.410156 209.015625 C 185.410156 207.375 185.699219 206.125 186.273438 205.261719 C 186.847656 204.398438 187.679688 203.96875 188.769531 203.96875 Z M 188.769531 203.96875 "/>
<g clip-path="url(#clip3)" clip-rule="nonzero">
<path style="fill:none;stroke-width:0.8;stroke-linecap:square;stroke-linejoin:round;stroke:rgb(69.01961%,69.01961%,69.01961%);stroke-opacity:1;stroke-miterlimit:4;" d="M 200.859375 145.798828 L 200.859375 7.201172 " transform="matrix(1.333333,0,0,1.333333,0,0.000000000000014211)"/>
</g>
<path style="fill:none;stroke-width:0.8;stroke-linecap:butt;stroke-linejoin:round;stroke:rgb(0%,0%,0%);stroke-opacity:1;stroke-miterlimit:4;" d="M -0.000701904 -0.00117493 L -0.000701904 3.499802 " transform="matrix(1.333333,0,0,1.333333,267.813436,194.400004)"/>
<path style=" stroke:none;fill-rule:nonzero;fill:rgb(0%,0%,0%);fill-opacity:1;" d="M 266.128906 212.757812 L 270.71875 212.757812 L 270.71875 213.863281 L 264.550781 213.863281 L 264.550781 212.757812 C 265.046875 212.242188 265.726562 211.546875 266.589844 210.679688 C 267.449219 209.808594 267.992188 209.246094 268.214844 208.992188 C 268.632812 208.523438 268.929688 208.121094 269.09375 207.792969 C 269.261719 207.464844 269.347656 207.144531 269.347656 206.828125 C 269.347656 206.308594 269.164062 205.890625 268.804688 205.566406 C 268.441406 205.238281 267.96875 205.074219 267.386719 205.074219 C 266.972656 205.074219 266.539062 205.148438 266.082031 205.289062 C 265.625 205.433594 265.132812 205.648438 264.613281 205.941406 L 264.613281 204.613281 C 265.144531 204.398438 265.636719 204.238281 266.097656 204.132812 C 266.558594 204.023438 266.980469 203.96875 267.363281 203.96875 C 268.367188 203.96875 269.171875 204.222656 269.769531 204.726562 C 270.367188 205.226562 270.667969 205.898438 270.667969 206.742188 C 270.667969 207.140625 270.59375 207.519531 270.441406 207.878906 C 270.292969 208.234375 270.023438 208.65625 269.625 209.144531 C 269.519531 209.269531 269.171875 209.632812 268.589844 210.234375 C 268.011719 210.835938 267.191406 211.679688 266.128906 212.757812 Z M 266.128906 212.757812 "/>
<path style=" stroke:none;fill-rule:nonzero;fill:rgb(0%,0%,0%);fill-opacity:1;" d="M 191.949219 224.808594 L 189.308594 228.359375 L 192.082031 232.101562 L 190.671875 232.101562 L 188.546875 229.238281 L 186.425781 232.101562 L 185.011719 232.101562 L 187.847656 228.289062 L 185.253906 224.808594 L 186.667969 224.808594 L 188.601562 227.410156 L 190.535156 224.808594 Z M 191.949219 224.808594 "/>
<g clip-path="url(#clip4)" clip-rule="nonzero">
<path style="fill:none;stroke-width:0.8;stroke-linecap:square;stroke-linejoin:round;stroke:rgb(69.01961%,69.01961%,69.01961%);stroke-opacity:1;stroke-miterlimit:4;" d="M 43.78125 139.669922 L 239.080078 139.669922 " transform="matrix(1.333333,0,0,1.333333,0,0.000000000000014211)"/>
</g>
<path style="fill:none;stroke-width:0.8;stroke-linecap:butt;stroke-linejoin:round;stroke:rgb(0%,0%,0%);stroke-opacity:1;stroke-miterlimit:4;" d="M 0 -0.00062561 L -3.500977 -0.00062561 " transform="matrix(1.333333,0,0,1.333333,58.375,186.227397)"/>
<path style=" stroke:none;fill-rule:nonzero;fill:rgb(0%,0%,0%);fill-opacity:1;" d="M 32.074219 182.4375 C 31.398438 182.4375 30.890625 182.773438 30.546875 183.4375 C 30.207031 184.105469 30.039062 185.105469 30.039062 186.441406 C 30.039062 187.773438 30.207031 188.773438 30.546875 189.441406 C 30.890625 190.109375 31.398438 190.441406 32.074219 190.441406 C 32.757812 190.441406 33.269531 190.109375 33.609375 189.441406 C 33.949219 188.773438 34.121094 187.773438 34.121094 186.441406 C 34.121094 185.105469 33.949219 184.105469 33.609375 183.4375 C 33.269531 182.773438 32.757812 182.4375 32.074219 182.4375 Z M 32.074219 181.398438 C 33.164062 181.398438 33.996094 181.828125 34.574219 182.691406 C 35.148438 183.550781 35.433594 184.804688 35.433594 186.441406 C 35.433594 188.078125 35.148438 189.328125 34.574219 190.191406 C 33.996094 191.050781 33.164062 191.484375 32.074219 191.484375 C 30.984375 191.484375 30.152344 191.050781 29.578125 190.191406 C 29.003906 189.328125 28.714844 188.078125 28.714844 186.441406 C 28.714844 184.804688 29.003906 183.550781 29.578125 182.691406 C 30.152344 181.828125 30.984375 181.398438 32.074219 181.398438 Z M 32.074219 181.398438 "/>
<path style=" stroke:none;fill-rule:nonzero;fill:rgb(0%,0%,0%);fill-opacity:1;" d="M 37.746094 189.640625 L 39.121094 189.640625 L 39.121094 191.292969 L 37.746094 191.292969 Z M 37.746094 189.640625 "/>
<path style=" stroke:none;fill-rule:nonzero;fill:rgb(0%,0%,0%);fill-opacity:1;" d="M 44.796875 182.4375 C 44.121094 182.4375 43.609375 182.773438 43.269531 183.4375 C 42.929688 184.105469 42.757812 185.105469 42.757812 186.441406 C 42.757812 187.773438 42.929688 188.773438 43.269531 189.441406 C 43.609375 190.109375 44.121094 190.441406 44.796875 190.441406 C 45.476562 190.441406 45.988281 190.109375 46.328125 189.441406 C 46.671875 188.773438 46.84375 187.773438 46.84375 186.441406 C 46.84375 185.105469 46.671875 184.105469 46.328125 183.4375 C 45.988281 182.773438 45.476562 182.4375 44.796875 182.4375 Z M 44.796875 181.398438 C 45.886719 181.398438 46.71875 181.828125 47.292969 182.691406 C 47.871094 183.550781 48.15625 184.804688 48.15625 186.441406 C 48.15625 188.078125 47.871094 189.328125 47.292969 190.191406 C 46.71875 191.050781 45.886719 191.484375 44.796875 191.484375 C 43.707031 191.484375 42.875 191.050781 42.300781 190.191406 C 41.726562 189.328125 41.4375 188.078125 41.4375 186.441406 C 41.4375 184.804688 41.726562 183.550781 42.300781 182.691406 C 42.875 181.828125 43.707031 181.398438 44.796875 181.398438 Z M 44.796875 181.398438 "/>
<g clip-path="url(#clip5)" clip-rule="nonzero">
<path style="fill:none;stroke-width:0.8;stroke-linecap:square;stroke-linejoin:round;stroke:rgb(69.01961%,69.01961%,69.01961%);stroke-opacity:1;stroke-miterlimit:4;" d="M 43.78125 114.401367 L 239.080078 114.401367 " transform="matrix(1.333333,0,0,1.333333,0,0.000000000000014211)"/>
</g>
<path style="fill:none;stroke-width:0.8;stroke-linecap:butt;stroke-linejoin:round;stroke:rgb(0%,0%,0%);stroke-opacity:1;stroke-miterlimit:4;" d="M 0 0.000167847 L -3.500977 0.000167847 " transform="matrix(1.333333,0,0,1.333333,58.375,152.534932)"/>
<path style=" stroke:none;fill-rule:nonzero;fill:rgb(0%,0%,0%);fill-opacity:1;" d="M 32.074219 148.746094 C 31.398438 148.746094 30.890625 149.078125 30.546875 149.746094 C 30.207031 150.410156 30.039062 151.414062 30.039062 152.75 C 30.039062 154.082031 30.207031 155.082031 30.546875 155.75 C 30.890625 156.414062 31.398438 156.75 32.074219 156.75 C 32.757812 156.75 33.269531 156.414062 33.609375 155.75 C 33.949219 155.082031 34.121094 154.082031 34.121094 152.75 C 34.121094 151.414062 33.949219 150.410156 33.609375 149.746094 C 33.269531 149.078125 32.757812 148.746094 32.074219 148.746094 Z M 32.074219 147.703125 C 33.164062 147.703125 33.996094 148.136719 34.574219 149 C 35.148438 149.859375 35.433594 151.109375 35.433594 152.75 C 35.433594 154.386719 35.148438 155.636719 34.574219 156.5 C 33.996094 157.359375 33.164062 157.789062 32.074219 157.789062 C 30.984375 157.789062 30.152344 157.359375 29.578125 156.5 C 29.003906 155.636719 28.714844 154.386719 28.714844 152.75 C 28.714844 151.109375 29.003906 149.859375 29.578125 149 C 30.152344 148.136719 30.984375 147.703125 32.074219 147.703125 Z M 32.074219 147.703125 "/>
<path style=" stroke:none;fill-rule:nonzero;fill:rgb(0%,0%,0%);fill-opacity:1;" d="M 37.746094 155.945312 L 39.121094 155.945312 L 39.121094 157.601562 L 37.746094 157.601562 Z M 37.746094 155.945312 "/>
<path style=" stroke:none;fill-rule:nonzero;fill:rgb(0%,0%,0%);fill-opacity:1;" d="M 43.117188 156.496094 L 47.707031 156.496094 L 47.707031 157.601562 L 41.535156 157.601562 L 41.535156 156.496094 C 42.035156 155.976562 42.714844 155.285156 43.574219 154.414062 C 44.4375 153.542969 44.980469 152.984375 45.199219 152.730469 C 45.621094 152.257812 45.914062 151.859375 46.082031 151.53125 C 46.25 151.203125 46.332031 150.878906 46.332031 150.5625 C 46.332031 150.046875 46.152344 149.625 45.789062 149.300781 C 45.425781 148.972656 44.957031 148.8125 44.375 148.8125 C 43.960938 148.8125 43.527344 148.882812 43.066406 149.027344 C 42.609375 149.167969 42.121094 149.386719 41.601562 149.675781 L 41.601562 148.347656 C 42.128906 148.136719 42.625 147.976562 43.082031 147.867188 C 43.546875 147.757812 43.964844 147.703125 44.347656 147.703125 C 45.355469 147.703125 46.15625 147.957031 46.757812 148.460938 C 47.355469 148.964844 47.65625 149.636719 47.65625 150.476562 C 47.65625 150.878906 47.578125 151.257812 47.429688 151.613281 C 47.28125 151.972656 47.007812 152.394531 46.613281 152.878906 C 46.503906 153.007812 46.160156 153.371094 45.578125 153.972656 C 44.996094 154.574219 44.175781 155.414062 43.117188 156.496094 Z M 43.117188 156.496094 "/>
<g clip-path="url(#clip6)" clip-rule="nonzero">
<path style="fill:none;stroke-width:0.8;stroke-linecap:square;stroke-linejoin:round;stroke:rgb(69.01961%,69.01961%,69.01961%);stroke-opacity:1;stroke-miterlimit:4;" d="M 43.78125 89.132812 L 239.080078 89.132812 " transform="matrix(1.333333,0,0,1.333333,0,0.000000000000014211)"/>
</g>
<path style="fill:none;stroke-width:0.8;stroke-linecap:butt;stroke-linejoin:round;stroke:rgb(0%,0%,0%);stroke-opacity:1;stroke-miterlimit:4;" d="M 0 0.000976562 L -3.500977 0.000976562 " transform="matrix(1.333333,0,0,1.333333,58.375,118.842448)"/>
<path style=" stroke:none;fill-rule:nonzero;fill:rgb(0%,0%,0%);fill-opacity:1;" d="M 32.074219 115.054688 C 31.398438 115.054688 30.890625 115.386719 30.546875 116.054688 C 30.207031 116.71875 30.039062 117.71875 30.039062 119.058594 C 30.039062 120.390625 30.207031 121.390625 30.546875 122.054688 C 30.890625 122.722656 31.398438 123.054688 32.074219 123.054688 C 32.757812 123.054688 33.269531 122.722656 33.609375 122.054688 C 33.949219 121.390625 34.121094 120.390625 34.121094 119.058594 C 34.121094 117.71875 33.949219 116.71875 33.609375 116.054688 C 33.269531 115.386719 32.757812 115.054688 32.074219 115.054688 Z M 32.074219 114.011719 C 33.164062 114.011719 33.996094 114.445312 34.574219 115.304688 C 35.148438 116.167969 35.433594 117.417969 35.433594 119.058594 C 35.433594 120.695312 35.148438 121.945312 34.574219 122.804688 C 33.996094 123.667969 33.164062 124.097656 32.074219 124.097656 C 30.984375 124.097656 30.152344 123.667969 29.578125 122.804688 C 29.003906 121.945312 28.714844 120.695312 28.714844 119.058594 C 28.714844 117.417969 29.003906 116.167969 29.578125 115.304688 C 30.152344 114.445312 30.984375 114.011719 32.074219 114.011719 Z M 32.074219 114.011719 "/>
<path style=" stroke:none;fill-rule:nonzero;fill:rgb(0%,0%,0%);fill-opacity:1;" d="M 37.746094 122.253906 L 39.121094 122.253906 L 39.121094 123.90625 L 37.746094 123.90625 Z M 37.746094 122.253906 "/>
<path style=" stroke:none;fill-rule:nonzero;fill:rgb(0%,0%,0%);fill-opacity:1;" d="M 45.597656 115.332031 L 42.277344 120.523438 L 45.597656 120.523438 Z M 45.253906 114.1875 L 46.90625 114.1875 L 46.90625 120.523438 L 48.292969 120.523438 L 48.292969 121.617188 L 46.90625 121.617188 L 46.90625 123.90625 L 45.597656 123.90625 L 45.597656 121.617188 L 41.210938 121.617188 L 41.210938 120.347656 Z M 45.253906 114.1875 "/>
<g clip-path="url(#clip7)" clip-rule="nonzero">
<path style="fill:none;stroke-width:0.8;stroke-linecap:square;stroke-linejoin:round;stroke:rgb(69.01961%,69.01961%,69.01961%);stroke-opacity:1;stroke-miterlimit:4;" d="M 43.78125 63.861328 L 239.080078 63.861328 " transform="matrix(1.333333,0,0,1.333333,0,0.000000000000014211)"/>
</g>
<path style="fill:none;stroke-width:0.8;stroke-linecap:butt;stroke-linejoin:round;stroke:rgb(0%,0%,0%);stroke-opacity:1;stroke-miterlimit:4;" d="M 0 -0.00115204 L -3.500977 -0.00115204 " transform="matrix(1.333333,0,0,1.333333,58.375,85.149974)"/>
<path style=" stroke:none;fill-rule:nonzero;fill:rgb(0%,0%,0%);fill-opacity:1;" d="M 32.074219 81.363281 C 31.398438 81.363281 30.890625 81.695312 30.546875 82.363281 C 30.207031 83.027344 30.039062 84.027344 30.039062 85.367188 C 30.039062 86.699219 30.207031 87.695312 30.546875 88.363281 C 30.890625 89.03125 31.398438 89.363281 32.074219 89.363281 C 32.757812 89.363281 33.269531 89.03125 33.609375 88.363281 C 33.949219 87.695312 34.121094 86.699219 34.121094 85.367188 C 34.121094 84.027344 33.949219 83.027344 33.609375 82.363281 C 33.269531 81.695312 32.757812 81.363281 32.074219 81.363281 Z M 32.074219 80.320312 C 33.164062 80.320312 33.996094 80.75 34.574219 81.613281 C 35.148438 82.476562 35.433594 83.726562 35.433594 85.367188 C 35.433594 87 35.148438 88.25 34.574219 89.113281 C 33.996094 89.976562 33.164062 90.40625 32.074219 90.40625 C 30.984375 90.40625 30.152344 89.976562 29.578125 89.113281 C 29.003906 88.25 28.714844 87 28.714844 85.367188 C 28.714844 83.726562 29.003906 82.476562 29.578125 81.613281 C 30.152344 80.75 30.984375 80.320312 32.074219 80.320312 Z M 32.074219 80.320312 "/>
<path style=" stroke:none;fill-rule:nonzero;fill:rgb(0%,0%,0%);fill-opacity:1;" d="M 37.746094 88.5625 L 39.121094 88.5625 L 39.121094 90.214844 L 37.746094 90.214844 Z M 37.746094 88.5625 "/>
<path style=" stroke:none;fill-rule:nonzero;fill:rgb(0%,0%,0%);fill-opacity:1;" d="M 44.960938 84.832031 C 44.371094 84.832031 43.902344 85.035156 43.558594 85.4375 C 43.210938 85.839844 43.039062 86.394531 43.039062 87.097656 C 43.039062 87.796875 43.210938 88.347656 43.558594 88.753906 C 43.902344 89.160156 44.371094 89.363281 44.960938 89.363281 C 45.550781 89.363281 46.019531 89.160156 46.363281 88.753906 C 46.707031 88.347656 46.878906 87.796875 46.878906 87.097656 C 46.878906 86.394531 46.707031 85.839844 46.363281 85.4375 C 46.019531 85.035156 45.550781 84.832031 44.960938 84.832031 Z M 47.570312 80.710938 L 47.570312 81.90625 C 47.242188 81.75 46.90625 81.632812 46.570312 81.550781 C 46.234375 81.46875 45.902344 81.425781 45.570312 81.425781 C 44.703125 81.425781 44.039062 81.71875 43.582031 82.304688 C 43.125 82.890625 42.863281 83.777344 42.796875 84.960938 C 43.054688 84.582031 43.375 84.292969 43.761719 84.09375 C 44.148438 83.890625 44.574219 83.789062 45.039062 83.789062 C 46.015625 83.789062 46.785156 84.085938 47.351562 84.679688 C 47.917969 85.273438 48.203125 86.078125 48.203125 87.097656 C 48.203125 88.09375 47.90625 88.898438 47.316406 89.5 C 46.726562 90.105469 45.941406 90.40625 44.960938 90.40625 C 43.835938 90.40625 42.976562 89.976562 42.382812 89.113281 C 41.789062 88.25 41.488281 87 41.488281 85.367188 C 41.488281 83.828125 41.855469 82.605469 42.582031 81.691406 C 43.3125 80.777344 44.292969 80.320312 45.519531 80.320312 C 45.851562 80.320312 46.183594 80.351562 46.519531 80.417969 C 46.855469 80.484375 47.207031 80.582031 47.570312 80.710938 Z M 47.570312 80.710938 "/>
<g clip-path="url(#clip8)" clip-rule="nonzero">
<path style="fill:none;stroke-width:0.8;stroke-linecap:square;stroke-linejoin:round;stroke:rgb(69.01961%,69.01961%,69.01961%);stroke-opacity:1;stroke-miterlimit:4;" d="M 43.78125 38.592773 L 239.080078 38.592773 " transform="matrix(1.333333,0,0,1.333333,0,0.000000000000014211)"/>
</g>
<path style="fill:none;stroke-width:0.8;stroke-linecap:butt;stroke-linejoin:round;stroke:rgb(0%,0%,0%);stroke-opacity:1;stroke-miterlimit:4;" d="M 0 -0.000347137 L -3.500977 -0.000347137 " transform="matrix(1.333333,0,0,1.333333,58.375,51.457494)"/>
<path style=" stroke:none;fill-rule:nonzero;fill:rgb(0%,0%,0%);fill-opacity:1;" d="M 32.074219 47.667969 C 31.398438 47.667969 30.890625 48.003906 30.546875 48.667969 C 30.207031 49.335938 30.039062 50.335938 30.039062 51.671875 C 30.039062 53.003906 30.207031 54.003906 30.546875 54.671875 C 30.890625 55.335938 31.398438 55.671875 32.074219 55.671875 C 32.757812 55.671875 33.269531 55.335938 33.609375 54.671875 C 33.949219 54.003906 34.121094 53.003906 34.121094 51.671875 C 34.121094 50.335938 33.949219 49.335938 33.609375 48.667969 C 33.269531 48.003906 32.757812 47.667969 32.074219 47.667969 Z M 32.074219 46.628906 C 33.164062 46.628906 33.996094 47.058594 34.574219 47.921875 C 35.148438 48.78125 35.433594 50.03125 35.433594 51.671875 C 35.433594 53.308594 35.148438 54.558594 34.574219 55.421875 C 33.996094 56.28125 33.164062 56.710938 32.074219 56.710938 C 30.984375 56.710938 30.152344 56.28125 29.578125 55.421875 C 29.003906 54.558594 28.714844 53.308594 28.714844 51.671875 C 28.714844 50.03125 29.003906 48.78125 29.578125 47.921875 C 30.152344 47.058594 30.984375 46.628906 32.074219 46.628906 Z M 32.074219 46.628906 "/>
<path style=" stroke:none;fill-rule:nonzero;fill:rgb(0%,0%,0%);fill-opacity:1;" d="M 37.746094 54.867188 L 39.121094 54.867188 L 39.121094 56.523438 L 37.746094 56.523438 Z M 37.746094 54.867188 "/>
<path style=" stroke:none;fill-rule:nonzero;fill:rgb(0%,0%,0%);fill-opacity:1;" d="M 44.796875 51.90625 C 44.171875 51.90625 43.679688 52.074219 43.320312 52.410156 C 42.964844 52.742188 42.785156 53.203125 42.785156 53.789062 C 42.785156 54.375 42.964844 54.835938 43.320312 55.167969 C 43.679688 55.503906 44.171875 55.671875 44.796875 55.671875 C 45.421875 55.671875 45.914062 55.503906 46.273438 55.167969 C 46.632812 54.828125 46.816406 54.371094 46.816406 53.789062 C 46.816406 53.203125 46.636719 52.742188 46.277344 52.410156 C 45.921875 52.074219 45.425781 51.90625 44.796875 51.90625 Z M 43.480469 51.347656 C 42.917969 51.210938 42.476562 50.945312 42.164062 50.5625 C 41.847656 50.171875 41.691406 49.703125 41.691406 49.144531 C 41.691406 48.371094 41.96875 47.753906 42.519531 47.304688 C 43.074219 46.851562 43.832031 46.628906 44.796875 46.628906 C 45.765625 46.628906 46.523438 46.851562 47.074219 47.304688 C 47.625 47.753906 47.902344 48.371094 47.902344 49.144531 C 47.902344 49.703125 47.746094 50.171875 47.429688 50.5625 C 47.117188 50.945312 46.679688 51.210938 46.121094 51.347656 C 46.753906 51.496094 47.246094 51.785156 47.597656 52.214844 C 47.953125 52.644531 48.128906 53.167969 48.128906 53.789062 C 48.128906 54.730469 47.84375 55.453125 47.265625 55.957031 C 46.691406 56.460938 45.867188 56.710938 44.796875 56.710938 C 43.726562 56.710938 42.902344 56.460938 42.324219 55.957031 C 41.75 55.453125 41.464844 54.730469 41.464844 53.789062 C 41.464844 53.167969 41.640625 52.644531 41.996094 52.214844 C 42.351562 51.785156 42.847656 51.496094 43.480469 51.347656 Z M 43 49.269531 C 43 49.773438 43.15625 50.167969 43.472656 50.449219 C 43.785156 50.730469 44.226562 50.871094 44.796875 50.871094 C 45.363281 50.871094 45.804688 50.730469 46.121094 50.449219 C 46.441406 50.167969 46.601562 49.773438 46.601562 49.269531 C 46.601562 48.765625 46.441406 48.375 46.121094 48.09375 C 45.804688 47.808594 45.363281 47.667969 44.796875 47.667969 C 44.226562 47.667969 43.785156 47.808594 43.472656 48.09375 C 43.15625 48.375 43 48.765625 43 49.269531 Z M 43 49.269531 "/>
<g clip-path="url(#clip9)" clip-rule="nonzero">
<path style="fill:none;stroke-width:0.8;stroke-linecap:square;stroke-linejoin:round;stroke:rgb(69.01961%,69.01961%,69.01961%);stroke-opacity:1;stroke-miterlimit:4;" d="M 43.78125 13.324219 L 239.080078 13.324219 " transform="matrix(1.333333,0,0,1.333333,0,0.000000000000014211)"/>
</g>
<path style="fill:none;stroke-width:0.8;stroke-linecap:butt;stroke-linejoin:round;stroke:rgb(0%,0%,0%);stroke-opacity:1;stroke-miterlimit:4;" d="M 0 0.000455856 L -3.500977 0.000455856 " transform="matrix(1.333333,0,0,1.333333,58.375,17.765017)"/>
<path style=" stroke:none;fill-rule:nonzero;fill:rgb(0%,0%,0%);fill-opacity:1;" d="M 29.492188 21.722656 L 31.640625 21.722656 L 31.640625 14.308594 L 29.300781 14.777344 L 29.300781 13.578125 L 31.628906 13.109375 L 32.941406 13.109375 L 32.941406 21.722656 L 35.089844 21.722656 L 35.089844 22.832031 L 29.492188 22.832031 Z M 29.492188 21.722656 "/>
<path style=" stroke:none;fill-rule:nonzero;fill:rgb(0%,0%,0%);fill-opacity:1;" d="M 37.746094 21.175781 L 39.121094 21.175781 L 39.121094 22.832031 L 37.746094 22.832031 Z M 37.746094 21.175781 "/>
<path style=" stroke:none;fill-rule:nonzero;fill:rgb(0%,0%,0%);fill-opacity:1;" d="M 44.796875 13.976562 C 44.121094 13.976562 43.609375 14.308594 43.269531 14.976562 C 42.929688 15.640625 42.757812 16.644531 42.757812 17.980469 C 42.757812 19.3125 42.929688 20.3125 43.269531 20.980469 C 43.609375 21.644531 44.121094 21.980469 44.796875 21.980469 C 45.476562 21.980469 45.988281 21.644531 46.328125 20.980469 C 46.671875 20.3125 46.84375 19.3125 46.84375 17.980469 C 46.84375 16.644531 46.671875 15.640625 46.328125 14.976562 C 45.988281 14.308594 45.476562 13.976562 44.796875 13.976562 Z M 44.796875 12.933594 C 45.886719 12.933594 46.71875 13.367188 47.292969 14.230469 C 47.871094 15.089844 48.15625 16.339844 48.15625 17.980469 C 48.15625 19.617188 47.871094 20.867188 47.292969 21.730469 C 46.71875 22.589844 45.886719 23.019531 44.796875 23.019531 C 43.707031 23.019531 42.875 22.589844 42.300781 21.730469 C 41.726562 20.867188 41.4375 19.617188 41.4375 17.980469 C 41.4375 16.339844 41.726562 15.089844 42.300781 14.230469 C 42.875 13.367188 43.707031 12.933594 44.796875 12.933594 Z M 44.796875 12.933594 "/>
<path style=" stroke:none;fill-rule:nonzero;fill:rgb(0%,0%,0%);fill-opacity:1;" d="M 12.71875 111.613281 L 13.839844 111.613281 C 13.652344 111.953125 13.511719 112.292969 13.417969 112.632812 C 13.324219 112.972656 13.277344 113.316406 13.277344 113.664062 C 13.277344 114.441406 13.527344 115.046875 14.019531 115.476562 C 14.511719 115.90625 15.203125 116.121094 16.089844 116.121094 C 16.980469 116.121094 17.671875 115.90625 18.167969 115.476562 C 18.660156 115.046875 18.902344 114.441406 18.902344 113.664062 C 18.902344 113.316406 18.859375 112.972656 18.765625 112.632812 C 18.671875 112.292969 18.53125 111.953125 18.34375 111.613281 L 19.453125 111.613281 C 19.609375 111.949219 19.722656 112.292969 19.800781 112.652344 C 19.882812 113.011719 19.921875 113.390625 19.921875 113.792969 C 19.921875 114.894531 19.574219 115.765625 18.886719 116.414062 C 18.195312 117.058594 17.265625 117.382812 16.089844 117.382812 C 14.902344 117.382812 13.96875 117.054688 13.289062 116.402344 C 12.605469 115.75 12.265625 114.851562 12.265625 113.714844 C 12.265625 113.347656 12.304688 112.988281 12.378906 112.636719 C 12.453125 112.285156 12.566406 111.945312 12.71875 111.613281 Z M 12.71875 111.613281 "/>
<path style=" stroke:none;fill-rule:nonzero;fill:rgb(0%,0%,0%);fill-opacity:1;" d="M 18.078125 109.363281 L 18.078125 107.988281 L 19.730469 107.988281 L 19.730469 109.363281 Z M 18.078125 109.363281 "/>
<path style=" stroke:none;fill-rule:nonzero;fill:rgb(0%,0%,0%);fill-opacity:1;" d="M 13.546875 100.496094 L 9.601562 100.496094 L 9.601562 99.296875 L 19.730469 99.296875 L 19.730469 100.496094 L 18.636719 100.496094 C 19.070312 100.746094 19.394531 101.0625 19.605469 101.449219 C 19.816406 101.832031 19.921875 102.292969 19.921875 102.832031 C 19.921875 103.710938 19.570312 104.429688 18.867188 104.984375 C 18.164062 105.535156 17.238281 105.8125 16.089844 105.8125 C 14.945312 105.8125 14.023438 105.535156 13.320312 104.984375 C 12.617188 104.429688 12.265625 103.710938 12.265625 102.832031 C 12.265625 102.292969 12.371094 101.832031 12.582031 101.449219 C 12.789062 101.0625 13.113281 100.746094 13.546875 100.496094 Z M 16.089844 104.574219 C 16.972656 104.574219 17.664062 104.394531 18.164062 104.03125 C 18.664062 103.667969 18.917969 103.171875 18.917969 102.539062 C 18.917969 101.90625 18.664062 101.40625 18.164062 101.042969 C 17.664062 100.675781 16.972656 100.496094 16.089844 100.496094 C 15.210938 100.496094 14.519531 100.675781 14.019531 101.042969 C 13.515625 101.40625 13.265625 101.90625 13.265625 102.539062 C 13.265625 103.171875 13.515625 103.667969 14.019531 104.03125 C 14.519531 104.394531 15.210938 104.574219 16.089844 104.574219 Z M 16.089844 104.574219 "/>
<path style=" stroke:none;fill-rule:nonzero;fill:rgb(0%,0%,0%);fill-opacity:1;" d="M 18.078125 96.660156 L 18.078125 95.285156 L 19.730469 95.285156 L 19.730469 96.660156 Z M 18.078125 96.660156 "/>
<path style=" stroke:none;fill-rule:nonzero;fill:rgb(0%,0%,0%);fill-opacity:1;" d="M 9.601562 88.898438 L 10.597656 88.898438 L 10.597656 90.042969 C 10.597656 90.472656 10.683594 90.773438 10.859375 90.941406 C 11.03125 91.105469 11.34375 91.191406 11.796875 91.191406 L 12.441406 91.191406 L 12.441406 89.21875 L 13.371094 89.21875 L 13.371094 91.191406 L 19.730469 91.191406 L 19.730469 92.394531 L 13.371094 92.394531 L 13.371094 93.539062 L 12.441406 93.539062 L 12.441406 92.394531 L 11.929688 92.394531 C 11.121094 92.394531 10.527344 92.207031 10.160156 91.828125 C 9.785156 91.449219 9.601562 90.851562 9.601562 90.03125 Z M 9.601562 88.898438 "/>
<path style=" stroke:none;fill-rule:nonzero;fill:rgb(0%,0%,0%);fill-opacity:1;" d="M 18.078125 88.695312 L 18.078125 87.320312 L 19.730469 87.320312 L 19.730469 88.695312 Z M 18.078125 88.695312 "/>
<path style="fill:none;stroke-width:1.5;stroke-linecap:square;stroke-linejoin:round;stroke:rgb(12.156863%,46.666667%,70.588237%);stroke-opacity:1;stroke-miterlimit:4;" d="M 52.658203 139.5 L 61.845703 139.21875 L 68.663086 138.793945 L 74.000977 138.243164 L 78.445312 137.575195 L 82.59668 136.728516 L 86.15332 135.785156 L 89.709961 134.610352 L 92.970703 133.289062 L 95.932617 131.865234 L 98.897461 130.204102 L 101.862305 128.285156 L 104.824219 126.09082 L 107.789062 123.606445 L 110.753906 120.823242 L 113.71875 117.735352 L 116.680664 114.342773 L 119.941406 110.270508 L 123.498047 105.439453 L 127.353516 99.793945 L 131.501953 93.310547 L 136.836914 84.527344 L 153.140625 57.325195 L 157.289062 50.982422 L 161.141602 45.495117 L 164.698242 40.828125 L 167.958984 36.916992 L 171.219727 33.369141 L 174.18457 30.46582 L 177.146484 27.861328 L 180.111328 25.552734 L 183.076172 23.52832 L 186.041016 21.764648 L 189.00293 20.24707 L 192.263672 18.837891 L 195.524414 17.668945 L 199.081055 16.631836 L 202.933594 15.75293 L 207.084961 15.035156 L 211.828125 14.446289 L 217.458984 13.986328 L 224.276367 13.658203 L 230.203125 13.5 " transform="matrix(1.333333,0,0,1.333333,0,0.000000000000014211)"/>
<path style="fill:none;stroke-width:0.8;stroke-linecap:square;stroke-linejoin:miter;stroke:rgb(0%,0%,0%);stroke-opacity:1;stroke-miterlimit:4;" d="M 43.78125 145.798828 L 43.78125 7.201172 " transform="matrix(1.333333,0,0,1.333333,0,0.000000000000014211)"/>
<path style="fill:none;stroke-width:0.8;stroke-linecap:square;stroke-linejoin:miter;stroke:rgb(0%,0%,0%);stroke-opacity:1;stroke-miterlimit:4;" d="M 239.080078 145.798828 L 239.080078 7.201172 " transform="matrix(1.333333,0,0,1.333333,0,0.000000000000014211)"/>
<path style="fill:none;stroke-width:0.8;stroke-linecap:square;stroke-linejoin:miter;stroke:rgb(0%,0%,0%);stroke-opacity:1;stroke-miterlimit:4;" d="M 43.78125 145.798828 L 239.080078 145.798828 " transform="matrix(1.333333,0,0,1.333333,0,0.000000000000014211)"/>
<path style="fill:none;stroke-width:0.8;stroke-linecap:square;stroke-linejoin:miter;stroke:rgb(0%,0%,0%);stroke-opacity:1;stroke-miterlimit:4;" d="M 43.78125 7.201172 L 239.080078 7.201172 " transform="matrix(1.333333,0,0,1.333333,0,0.000000000000014211)"/>
</g>
</svg>
