<?xml version="1.0" encoding="UTF-8"?>
<svg xmlns="http://www.w3.org/2000/svg" xmlns:xlink="http://www.w3.org/1999/xlink" width="324.137492" height="244.474996" viewBox="0 0 324.137492 244.474996" version="1.1">
<defs>
<clipPath id="clip1">
  <path d="M 65 9.601562 L 67 9.601562 L 67 194.398438 L 65 194.398438 Z M 65 9.601562 "/>
</clipPath>
<clipPath id="clip2">
  <path d="M 144 9.601562 L 146 9.601562 L 146 194.398438 L 144 194.398438 Z M 144 9.601562 "/>
</clipPath>
<clipPath id="clip3">
  <path d="M 223 9.601562 L 226 9.601562 L 226 194.398438 L 223 194.398438 Z M 223 9.601562 "/>
</clipPath>
<clipPath id="clip4">
  <path d="M 302 9.601562 L 305 9.601562 L 305 194.398438 L 302 194.398438 Z M 302 9.601562 "/>
</clipPath>
<clipPath id="clip5">
  <path d="M 54.136719 149 L 314.539062 149 L 314.539062 152 L 54.136719 152 Z M 54.136719 149 "/>
</clipPath>
<clipPath id="clip6">
  <path d="M 54.136719 105 L 314.539062 105 L 314.539062 107 L 54.136719 107 Z M 54.136719 105 "/>
</clipPath>
<clipPath id="clip7">
  <path d="M 54.136719 60 L 314.539062 60 L 314.539062 63 L 54.136719 63 Z M 54.136719 60 "/>
</clipPath>
<clipPath id="clip8">
  <path d="M 54.136719 16 L 314.539062 16 L 314.539062 18 L 54.136719 18 Z M 54.136719 16 "/>
</clipPath>
<filter id="alpha" filterUnits="objectBoundingBox" x="0%" y="0%" width="100%" height="100%">
  <feColorMatrix type="matrix" in="SourceGraphic" values="0 0 0 0 1 0 0 0 0 1 0 0 0 0 1 0 0 0 1 0"/>
</filter>
<mask id="mask0">
  <g filter="url(#alpha)">
<rect x="0" y="0" width="324.137492" height="244.474996" style="fill:rgb(0%,0%,0%);fill-opacity:0.8;stroke:none;"/>
  </g>
</mask>
<clipPath id="clip9">
  <rect x="0" y="0" width="325" height="245"/>
</clipPath>
<g id="surface5" clip-path="url(#clip9)">
<path style="fill-rule:nonzero;fill:rgb(100%,100%,100%);fill-opacity:1;stroke-width:1;stroke-linecap:butt;stroke-linejoin:miter;stroke:rgb(80.000001%,80.000001%,80.000001%);stroke-opacity:1;stroke-miterlimit:4;" d="M 47.604492 73.913086 L 192.158203 73.913086 C 193.494141 73.913086 194.15918 73.245117 194.15918 71.912109 L 194.15918 14.200195 C 194.15918 12.867188 193.494141 12.199219 192.158203 12.199219 L 47.604492 12.199219 C 46.268555 12.199219 45.603516 12.867188 45.603516 14.200195 L 45.603516 71.912109 C 45.603516 73.245117 46.268555 73.913086 47.604492 73.913086 Z M 47.604492 73.913086 " transform="matrix(1.333333,0,0,1.333333,0,-0.000000000000014211)"/>
</g>
</defs>
<g id="surface1">
<path style=" stroke:none;fill-rule:nonzero;fill:rgb(100%,100%,100%);fill-opacity:1;" d="M 0 244.476562 L 324.136719 244.476562 L 324.136719 0 L 0 0 Z M 0 244.476562 "/>
<path style=" stroke:none;fill-rule:nonzero;fill:rgb(100%,100%,100%);fill-opacity:1;" d="M 54.136719 194.398438 L 314.539062 194.398438 L 314.539062 9.601562 L 54.136719 9.601562 Z M 54.136719 194.398438 "/>
<g clip-path="url(#clip1)" clip-rule="nonzero">
<path style="fill:none;stroke-width:0.8;stroke-linecap:square;stroke-linejoin:round;stroke:rgb(69.01961%,69.01961%,69.01961%);stroke-opacity:1;stroke-miterlimit:4;" d="M 49.479492 145.798828 L 49.479492 7.201172 " transform="matrix(1.333333,0,0,1.333333,0,-0.000000000000014211)"/>
</g>
<path style="fill:none;stroke-width:0.8;stroke-linecap:butt;stroke-linejoin:round;stroke:rgb(0%,0%,0%);stroke-opacity:1;stroke-miterlimit:4;" d="M -0.000904083 -0.00117493 L -0.000904083 3.499802 " transform="matrix(1.333333,0,0,1.333333,65.973862,194.400004)"/>
<path style=" stroke:none;fill-rule:nonzero;fill:rgb(0%,0%,0%);fill-opacity:1;" d="M 65.96875 205.011719 C 65.292969 205.011719 64.785156 205.34375 64.441406 206.011719 C 64.101562 206.675781 63.933594 207.675781 63.933594 209.015625 C 63.933594 210.347656 64.101562 211.347656 64.441406 212.011719 C 64.785156 212.679688 65.292969 213.011719 65.96875 213.011719 C 66.652344 213.011719 67.164062 212.679688 67.503906 212.011719 C 67.84375 211.347656 68.015625 210.347656 68.015625 209.015625 C 68.015625 207.675781 67.84375 206.675781 67.503906 206.011719 C 67.164062 205.34375 66.652344 205.011719 65.96875 205.011719 Z M 65.96875 203.96875 C 67.058594 203.96875 67.894531 204.398438 68.46875 205.261719 C 69.042969 206.125 69.332031 207.375 69.332031 209.015625 C 69.332031 210.652344 69.042969 211.898438 68.46875 212.761719 C 67.894531 213.625 67.058594 214.054688 65.96875 214.054688 C 64.878906 214.054688 64.050781 213.625 63.472656 212.761719 C 62.898438 211.898438 62.613281 210.652344 62.613281 209.015625 C 62.613281 207.375 62.898438 206.125 63.472656 205.261719 C 64.050781 204.398438 64.878906 203.96875 65.96875 203.96875 Z M 65.96875 203.96875 "/>
<g clip-path="url(#clip2)" clip-rule="nonzero">
<path style="fill:none;stroke-width:0.8;stroke-linecap:square;stroke-linejoin:round;stroke:rgb(69.01961%,69.01961%,69.01961%);stroke-opacity:1;stroke-miterlimit:4;" d="M 108.861328 145.798828 L 108.861328 7.201172 " transform="matrix(1.333333,0,0,1.333333,0,-0.000000000000014211)"/>
</g>
<path style="fill:none;stroke-width:0.8;stroke-linecap:butt;stroke-linejoin:round;stroke:rgb(0%,0%,0%);stroke-opacity:1;stroke-miterlimit:4;" d="M 0.00118256 -0.00117493 L 0.00118256 3.499802 " transform="matrix(1.333333,0,0,1.333333,145.146861,194.400004)"/>
<path style=" stroke:none;fill-rule:nonzero;fill:rgb(0%,0%,0%);fill-opacity:1;" d="M 142.558594 212.757812 L 144.707031 212.757812 L 144.707031 205.339844 L 142.371094 205.808594 L 142.371094 204.613281 L 144.695312 204.144531 L 146.007812 204.144531 L 146.007812 212.757812 L 148.15625 212.757812 L 148.15625 213.863281 L 142.558594 213.863281 Z M 142.558594 212.757812 "/>
<g clip-path="url(#clip3)" clip-rule="nonzero">
<path style="fill:none;stroke-width:0.8;stroke-linecap:square;stroke-linejoin:round;stroke:rgb(69.01961%,69.01961%,69.01961%);stroke-opacity:1;stroke-miterlimit:4;" d="M 168.240234 145.798828 L 168.240234 7.201172 " transform="matrix(1.333333,0,0,1.333333,0,-0.000000000000014211)"/>
</g>
<path style="fill:none;stroke-width:0.8;stroke-linecap:butt;stroke-linejoin:round;stroke:rgb(0%,0%,0%);stroke-opacity:1;stroke-miterlimit:4;" d="M 0.000335693 -0.00117493 L 0.000335693 3.499802 " transform="matrix(1.333333,0,0,1.333333,224.319865,194.400004)"/>
<path style=" stroke:none;fill-rule:nonzero;fill:rgb(0%,0%,0%);fill-opacity:1;" d="M 222.636719 212.757812 L 227.226562 212.757812 L 227.226562 213.863281 L 221.054688 213.863281 L 221.054688 212.757812 C 221.554688 212.242188 222.234375 211.546875 223.09375 210.679688 C 223.957031 209.808594 224.5 209.246094 224.71875 208.992188 C 225.140625 208.523438 225.433594 208.121094 225.601562 207.792969 C 225.769531 207.464844 225.851562 207.144531 225.851562 206.828125 C 225.851562 206.308594 225.671875 205.890625 225.308594 205.566406 C 224.945312 205.238281 224.476562 205.074219 223.894531 205.074219 C 223.480469 205.074219 223.042969 205.148438 222.585938 205.289062 C 222.128906 205.433594 221.640625 205.648438 221.121094 205.941406 L 221.121094 204.613281 C 221.648438 204.398438 222.144531 204.238281 222.601562 204.132812 C 223.0625 204.023438 223.484375 203.96875 223.867188 203.96875 C 224.875 203.96875 225.675781 204.222656 226.277344 204.726562 C 226.875 205.226562 227.175781 205.898438 227.175781 206.742188 C 227.175781 207.140625 227.097656 207.519531 226.949219 207.878906 C 226.800781 208.234375 226.527344 208.65625 226.132812 209.144531 C 226.023438 209.269531 225.679688 209.632812 225.097656 210.234375 C 224.515625 210.835938 223.695312 211.679688 222.636719 212.757812 Z M 222.636719 212.757812 "/>
<g clip-path="url(#clip4)" clip-rule="nonzero">
<path style="fill:none;stroke-width:0.8;stroke-linecap:square;stroke-linejoin:round;stroke:rgb(69.01961%,69.01961%,69.01961%);stroke-opacity:1;stroke-miterlimit:4;" d="M 227.619141 145.798828 L 227.619141 7.201172 " transform="matrix(1.333333,0,0,1.333333,0,-0.000000000000014211)"/>
</g>
<path style="fill:none;stroke-width:0.8;stroke-linecap:butt;stroke-linejoin:round;stroke:rgb(0%,0%,0%);stroke-opacity:1;stroke-miterlimit:4;" d="M -0.00050354 -0.00117493 L -0.00050354 3.499802 " transform="matrix(1.333333,0,0,1.333333,303.492859,194.400004)"/>
<path style=" stroke:none;fill-rule:nonzero;fill:rgb(0%,0%,0%);fill-opacity:1;" d="M 304.660156 208.621094 C 305.289062 208.757812 305.78125 209.039062 306.132812 209.464844 C 306.488281 209.890625 306.664062 210.414062 306.664062 211.039062 C 306.664062 211.996094 306.335938 212.742188 305.675781 213.265625 C 305.015625 213.792969 304.078125 214.054688 302.863281 214.054688 C 302.457031 214.054688 302.039062 214.015625 301.605469 213.933594 C 301.171875 213.851562 300.726562 213.730469 300.269531 213.570312 L 300.269531 212.300781 C 300.632812 212.515625 301.03125 212.675781 301.464844 212.785156 C 301.898438 212.890625 302.351562 212.945312 302.828125 212.945312 C 303.648438 212.945312 304.277344 212.785156 304.710938 212.457031 C 305.140625 212.132812 305.359375 211.660156 305.359375 211.039062 C 305.359375 210.464844 305.15625 210.019531 304.753906 209.695312 C 304.355469 209.371094 303.796875 209.210938 303.082031 209.210938 L 301.945312 209.210938 L 301.945312 208.128906 L 303.132812 208.128906 C 303.777344 208.128906 304.273438 208 304.617188 207.742188 C 304.957031 207.484375 305.128906 207.109375 305.128906 206.625 C 305.128906 206.125 304.953125 205.742188 304.597656 205.476562 C 304.246094 205.210938 303.738281 205.074219 303.082031 205.074219 C 302.71875 205.074219 302.332031 205.113281 301.921875 205.195312 C 301.507812 205.273438 301.054688 205.390625 300.558594 205.554688 L 300.558594 204.386719 C 301.058594 204.246094 301.527344 204.140625 301.964844 204.074219 C 302.398438 204.003906 302.8125 203.96875 303.195312 203.96875 C 304.195312 203.96875 304.984375 204.195312 305.566406 204.648438 C 306.148438 205.101562 306.4375 205.714844 306.4375 206.488281 C 306.4375 207.027344 306.285156 207.480469 305.976562 207.851562 C 305.667969 208.222656 305.230469 208.480469 304.660156 208.621094 Z M 304.660156 208.621094 "/>
<path style=" stroke:none;fill-rule:nonzero;fill:rgb(0%,0%,0%);fill-opacity:1;" d="M 187.710938 224.808594 L 185.074219 228.359375 L 187.847656 232.101562 L 186.433594 232.101562 L 184.308594 229.238281 L 182.191406 232.101562 L 180.773438 232.101562 L 183.609375 228.289062 L 181.015625 224.808594 L 182.429688 224.808594 L 184.363281 227.410156 L 186.296875 224.808594 Z M 187.710938 224.808594 "/>
<g clip-path="url(#clip5)" clip-rule="nonzero">
<path style="fill:none;stroke-width:0.8;stroke-linecap:square;stroke-linejoin:round;stroke:rgb(69.01961%,69.01961%,69.01961%);stroke-opacity:1;stroke-miterlimit:4;" d="M 40.602539 112.813477 L 235.904297 112.813477 " transform="matrix(1.333333,0,0,1.333333,0,-0.000000000000014211)"/>
</g>
<path style="fill:none;stroke-width:0.8;stroke-linecap:butt;stroke-linejoin:round;stroke:rgb(0%,0%,0%);stroke-opacity:1;stroke-miterlimit:4;" d="M -0.000587463 0.000358582 L -3.498634 0.000358582 " transform="matrix(1.333333,0,0,1.333333,54.137502,150.417491)"/>
<path style=" stroke:none;fill-rule:nonzero;fill:rgb(0%,0%,0%);fill-opacity:1;" d="M 37.761719 145.761719 L 42.921875 145.761719 L 42.921875 146.871094 L 38.964844 146.871094 L 38.964844 149.25 C 39.15625 149.1875 39.34375 149.136719 39.535156 149.105469 C 39.726562 149.074219 39.917969 149.058594 40.109375 149.058594 C 41.195312 149.058594 42.054688 149.355469 42.6875 149.949219 C 43.320312 150.542969 43.640625 151.347656 43.640625 152.363281 C 43.640625 153.410156 43.3125 154.222656 42.664062 154.804688 C 42.011719 155.382812 41.09375 155.671875 39.910156 155.671875 C 39.5 155.671875 39.085938 155.636719 38.660156 155.570312 C 38.238281 155.5 37.800781 155.394531 37.351562 155.257812 L 37.351562 153.933594 C 37.742188 154.144531 38.144531 154.304688 38.558594 154.40625 C 38.976562 154.511719 39.417969 154.5625 39.882812 154.5625 C 40.632812 154.5625 41.226562 154.367188 41.664062 153.972656 C 42.101562 153.578125 42.324219 153.042969 42.324219 152.363281 C 42.324219 151.6875 42.101562 151.152344 41.664062 150.757812 C 41.226562 150.363281 40.632812 150.164062 39.882812 150.164062 C 39.53125 150.164062 39.179688 150.203125 38.828125 150.28125 C 38.480469 150.359375 38.125 150.480469 37.761719 150.644531 Z M 37.761719 145.761719 "/>
<g clip-path="url(#clip6)" clip-rule="nonzero">
<path style="fill:none;stroke-width:0.8;stroke-linecap:square;stroke-linejoin:round;stroke:rgb(69.01961%,69.01961%,69.01961%);stroke-opacity:1;stroke-miterlimit:4;" d="M 40.602539 79.453125 L 235.904297 79.453125 " transform="matrix(1.333333,0,0,1.333333,0,-0.000000000000014211)"/>
</g>
<path style="fill:none;stroke-width:0.8;stroke-linecap:butt;stroke-linejoin:round;stroke:rgb(0%,0%,0%);stroke-opacity:1;stroke-miterlimit:4;" d="M -0.000587463 -0.00138855 L -3.498634 -0.00138855 " transform="matrix(1.333333,0,0,1.333333,54.137502,105.939351)"/>
<path style=" stroke:none;fill-rule:nonzero;fill:rgb(0%,0%,0%);fill-opacity:1;" d="M 29.492188 109.898438 L 31.640625 109.898438 L 31.640625 102.480469 L 29.300781 102.949219 L 29.300781 101.753906 L 31.628906 101.285156 L 32.941406 101.285156 L 32.941406 109.898438 L 35.089844 109.898438 L 35.089844 111.003906 L 29.492188 111.003906 Z M 29.492188 109.898438 "/>
<path style=" stroke:none;fill-rule:nonzero;fill:rgb(0%,0%,0%);fill-opacity:1;" d="M 40.558594 102.152344 C 39.882812 102.152344 39.371094 102.484375 39.03125 103.152344 C 38.691406 103.816406 38.519531 104.816406 38.519531 106.15625 C 38.519531 107.488281 38.691406 108.484375 39.03125 109.152344 C 39.371094 109.820312 39.882812 110.152344 40.558594 110.152344 C 41.238281 110.152344 41.75 109.820312 42.089844 109.152344 C 42.433594 108.484375 42.605469 107.488281 42.605469 106.15625 C 42.605469 104.816406 42.433594 103.816406 42.089844 103.152344 C 41.75 102.484375 41.238281 102.152344 40.558594 102.152344 Z M 40.558594 101.109375 C 41.648438 101.109375 42.480469 101.539062 43.054688 102.402344 C 43.632812 103.265625 43.917969 104.515625 43.917969 106.15625 C 43.917969 107.792969 43.632812 109.039062 43.054688 109.902344 C 42.480469 110.765625 41.648438 111.195312 40.558594 111.195312 C 39.46875 111.195312 38.636719 110.765625 38.0625 109.902344 C 37.488281 109.039062 37.199219 107.792969 37.199219 106.15625 C 37.199219 104.515625 37.488281 103.265625 38.0625 102.402344 C 38.636719 101.539062 39.46875 101.109375 40.558594 101.109375 Z M 40.558594 101.109375 "/>
<g clip-path="url(#clip7)" clip-rule="nonzero">
<path style="fill:none;stroke-width:0.8;stroke-linecap:square;stroke-linejoin:round;stroke:rgb(69.01961%,69.01961%,69.01961%);stroke-opacity:1;stroke-miterlimit:4;" d="M 40.602539 46.095703 L 235.904297 46.095703 " transform="matrix(1.333333,0,0,1.333333,0,-0.000000000000014211)"/>
</g>
<path style="fill:none;stroke-width:0.8;stroke-linecap:butt;stroke-linejoin:round;stroke:rgb(0%,0%,0%);stroke-opacity:1;stroke-miterlimit:4;" d="M -0.000587463 -0.000209808 L -3.498634 -0.000209808 " transform="matrix(1.333333,0,0,1.333333,54.137502,61.461217)"/>
<path style=" stroke:none;fill-rule:nonzero;fill:rgb(0%,0%,0%);fill-opacity:1;" d="M 29.492188 65.421875 L 31.640625 65.421875 L 31.640625 58.003906 L 29.300781 58.472656 L 29.300781 57.273438 L 31.628906 56.804688 L 32.941406 56.804688 L 32.941406 65.421875 L 35.089844 65.421875 L 35.089844 66.527344 L 29.492188 66.527344 Z M 29.492188 65.421875 "/>
<path style=" stroke:none;fill-rule:nonzero;fill:rgb(0%,0%,0%);fill-opacity:1;" d="M 37.761719 56.804688 L 42.921875 56.804688 L 42.921875 57.914062 L 38.964844 57.914062 L 38.964844 60.296875 C 39.15625 60.230469 39.34375 60.183594 39.535156 60.148438 C 39.726562 60.117188 39.917969 60.101562 40.109375 60.101562 C 41.195312 60.101562 42.054688 60.398438 42.6875 60.992188 C 43.320312 61.589844 43.640625 62.394531 43.640625 63.40625 C 43.640625 64.453125 43.3125 65.265625 42.664062 65.847656 C 42.011719 66.425781 41.09375 66.714844 39.90625 66.714844 C 39.5 66.714844 39.082031 66.683594 38.660156 66.613281 C 38.238281 66.542969 37.800781 66.4375 37.351562 66.300781 L 37.351562 64.976562 C 37.738281 65.1875 38.144531 65.347656 38.558594 65.453125 C 38.976562 65.554688 39.417969 65.609375 39.882812 65.609375 C 40.632812 65.609375 41.226562 65.410156 41.664062 65.015625 C 42.101562 64.621094 42.324219 64.085938 42.324219 63.40625 C 42.324219 62.730469 42.101562 62.195312 41.664062 61.800781 C 41.226562 61.40625 40.632812 61.207031 39.882812 61.207031 C 39.53125 61.207031 39.179688 61.246094 38.828125 61.324219 C 38.480469 61.402344 38.125 61.523438 37.761719 61.6875 Z M 37.761719 56.804688 "/>
<g clip-path="url(#clip8)" clip-rule="nonzero">
<path style="fill:none;stroke-width:0.8;stroke-linecap:square;stroke-linejoin:round;stroke:rgb(69.01961%,69.01961%,69.01961%);stroke-opacity:1;stroke-miterlimit:4;" d="M 40.602539 12.738281 L 235.904297 12.738281 " transform="matrix(1.333333,0,0,1.333333,0,-0.000000000000014211)"/>
</g>
<path style="fill:none;stroke-width:0.8;stroke-linecap:butt;stroke-linejoin:round;stroke:rgb(0%,0%,0%);stroke-opacity:1;stroke-miterlimit:4;" d="M -0.000587463 0.000971794 L -3.498634 0.000971794 " transform="matrix(1.333333,0,0,1.333333,54.137502,16.983079)"/>
<path style=" stroke:none;fill-rule:nonzero;fill:rgb(0%,0%,0%);fill-opacity:1;" d="M 30.394531 20.941406 L 34.984375 20.941406 L 34.984375 22.046875 L 28.816406 22.046875 L 28.816406 20.941406 C 29.3125 20.425781 29.992188 19.734375 30.855469 18.863281 C 31.714844 17.992188 32.257812 17.429688 32.480469 17.179688 C 32.898438 16.707031 33.195312 16.304688 33.359375 15.976562 C 33.527344 15.648438 33.613281 15.328125 33.613281 15.011719 C 33.613281 14.496094 33.429688 14.074219 33.070312 13.75 C 32.707031 13.421875 32.234375 13.257812 31.652344 13.257812 C 31.238281 13.257812 30.804688 13.332031 30.347656 13.472656 C 29.890625 13.617188 29.398438 13.835938 28.878906 14.125 L 28.878906 12.796875 C 29.410156 12.585938 29.902344 12.421875 30.363281 12.316406 C 30.824219 12.207031 31.246094 12.152344 31.628906 12.152344 C 32.632812 12.152344 33.4375 12.40625 34.035156 12.910156 C 34.632812 13.410156 34.933594 14.085938 34.933594 14.925781 C 34.933594 15.324219 34.859375 15.703125 34.707031 16.0625 C 34.558594 16.421875 34.289062 16.839844 33.890625 17.328125 C 33.785156 17.453125 33.4375 17.816406 32.855469 18.417969 C 32.277344 19.019531 31.457031 19.863281 30.394531 20.941406 Z M 30.394531 20.941406 "/>
<path style=" stroke:none;fill-rule:nonzero;fill:rgb(0%,0%,0%);fill-opacity:1;" d="M 40.558594 13.195312 C 39.882812 13.195312 39.371094 13.527344 39.03125 14.195312 C 38.691406 14.859375 38.519531 15.859375 38.519531 17.199219 C 38.519531 18.53125 38.691406 19.53125 39.03125 20.195312 C 39.371094 20.863281 39.882812 21.195312 40.558594 21.195312 C 41.238281 21.195312 41.75 20.863281 42.089844 20.195312 C 42.433594 19.53125 42.605469 18.53125 42.605469 17.199219 C 42.605469 15.859375 42.433594 14.859375 42.089844 14.195312 C 41.75 13.527344 41.238281 13.195312 40.558594 13.195312 Z M 40.558594 12.152344 C 41.648438 12.152344 42.480469 12.585938 43.054688 13.445312 C 43.632812 14.308594 43.917969 15.558594 43.917969 17.199219 C 43.917969 18.835938 43.632812 20.085938 43.054688 20.945312 C 42.480469 21.808594 41.648438 22.238281 40.558594 22.238281 C 39.46875 22.238281 38.636719 21.808594 38.0625 20.945312 C 37.488281 20.085938 37.199219 18.835938 37.199219 17.199219 C 37.199219 15.558594 37.488281 14.308594 38.0625 13.445312 C 38.636719 12.585938 39.46875 12.152344 40.558594 12.152344 Z M 40.558594 12.152344 "/>
<path style=" stroke:none;fill-rule:nonzero;fill:rgb(0%,0%,0%);fill-opacity:1;" d="M 9.601562 108.546875 L 10.597656 108.546875 L 10.597656 109.691406 C 10.597656 110.121094 10.683594 110.421875 10.859375 110.589844 C 11.03125 110.753906 11.34375 110.839844 11.796875 110.839844 L 12.441406 110.839844 L 12.441406 108.867188 L 13.371094 108.867188 L 13.371094 110.839844 L 19.730469 110.839844 L 19.730469 112.042969 L 13.371094 112.042969 L 13.371094 113.1875 L 12.441406 113.1875 L 12.441406 112.042969 L 11.929688 112.042969 C 11.121094 112.042969 10.527344 111.855469 10.160156 111.476562 C 9.785156 111.097656 9.601562 110.5 9.601562 109.679688 Z M 9.601562 108.546875 "/>
<path style=" stroke:none;fill-rule:nonzero;fill:rgb(0%,0%,0%);fill-opacity:1;" d="M 9.613281 104.667969 C 10.613281 105.246094 11.597656 105.679688 12.578125 105.964844 C 13.554688 106.246094 14.542969 106.386719 15.546875 106.386719 C 16.546875 106.386719 17.539062 106.242188 18.523438 105.960938 C 19.507812 105.675781 20.496094 105.242188 21.488281 104.667969 L 21.488281 105.710938 C 20.46875 106.359375 19.464844 106.847656 18.480469 107.167969 C 17.496094 107.492188 16.519531 107.65625 15.546875 107.65625 C 14.578125 107.65625 13.601562 107.496094 12.621094 107.171875 C 11.640625 106.851562 10.636719 106.363281 9.613281 105.710938 Z M 9.613281 104.667969 "/>
<path style=" stroke:none;fill-rule:nonzero;fill:rgb(0%,0%,0%);fill-opacity:1;" d="M 12.441406 96.28125 L 15.988281 98.917969 L 19.730469 96.144531 L 19.730469 97.558594 L 16.867188 99.679688 L 19.730469 101.800781 L 19.730469 103.214844 L 15.917969 100.382812 L 12.441406 102.972656 L 12.441406 101.5625 L 15.039062 99.628906 L 12.441406 97.695312 Z M 12.441406 96.28125 "/>
<path style=" stroke:none;fill-rule:nonzero;fill:rgb(0%,0%,0%);fill-opacity:1;" d="M 9.613281 94.640625 L 9.613281 93.597656 C 10.636719 92.949219 11.640625 92.460938 12.621094 92.136719 C 13.601562 91.8125 14.578125 91.652344 15.546875 91.652344 C 16.519531 91.652344 17.496094 91.8125 18.480469 92.136719 C 19.464844 92.460938 20.46875 92.949219 21.488281 93.597656 L 21.488281 94.640625 C 20.496094 94.0625 19.507812 93.632812 18.523438 93.347656 C 17.539062 93.0625 16.546875 92.921875 15.546875 92.921875 C 14.542969 92.921875 13.554688 93.0625 12.578125 93.347656 C 11.597656 93.632812 10.613281 94.0625 9.613281 94.640625 Z M 9.613281 94.640625 "/>
<path style="fill:none;stroke-width:1.5;stroke-linecap:square;stroke-linejoin:round;stroke:rgb(12.156863%,46.666667%,70.588237%);stroke-opacity:1;stroke-miterlimit:4;" d="M 49.479492 139.5 L 60.169922 138.18457 L 69.670898 136.798828 L 78.577148 135.28125 L 86.888672 133.643555 L 94.608398 131.90625 L 101.733398 130.086914 L 108.861328 128.036133 L 115.391602 125.926758 L 121.924805 123.574219 L 127.860352 121.195312 L 133.798828 118.570312 L 139.142578 115.97168 L 144.489258 113.126953 L 149.833008 110.015625 L 154.582031 107.003906 L 159.333984 103.740234 L 164.083008 100.207031 L 168.834961 96.37793 L 173.583984 92.232422 L 177.741211 88.321289 L 181.898437 84.125977 L 186.052734 79.625977 L 190.209961 74.800781 L 194.367187 69.626953 L 198.524414 64.078125 L 202.678711 58.125 L 206.835937 51.741211 L 210.993164 44.891602 L 215.150391 37.549805 L 218.712891 30.832031 L 222.275391 23.701172 L 225.837891 16.12793 L 227.024414 13.5 " transform="matrix(1.333333,0,0,1.333333,0,-0.000000000000014211)"/>
<path style="fill:none;stroke-width:1.5;stroke-linecap:butt;stroke-linejoin:round;stroke:rgb(74.901962%,0%,74.901962%);stroke-opacity:1;stroke-dasharray:5.55,2.4;stroke-miterlimit:4;" d="M 49.479492 139.5 L 227.024414 119.551758 " transform="matrix(1.333333,0,0,1.333333,0,-0.000000000000014211)"/>
<path style="fill:none;stroke-width:1.5;stroke-linecap:butt;stroke-linejoin:round;stroke:rgb(0%,50.196081%,0%);stroke-opacity:1;stroke-dasharray:9.6,2.4,1.5,2.4;stroke-miterlimit:4;" d="M 49.479492 139.5 L 60.169922 138.19043 L 70.857422 136.666992 L 81.544922 134.923828 L 92.232422 132.966797 L 102.922852 130.792969 L 113.610352 128.402344 L 124.892578 125.645508 L 136.174805 122.648438 L 147.457031 119.411133 L 158.739258 115.930664 L 170.021484 112.209961 L 181.303711 108.249023 L 192.585937 104.044922 L 203.868164 99.603516 L 215.150391 94.918945 L 226.432617 89.994141 L 227.024414 89.727539 " transform="matrix(1.333333,0,0,1.333333,0,-0.000000000000014211)"/>
<path style="fill:none;stroke-width:1.5;stroke-linecap:butt;stroke-linejoin:round;stroke:rgb(100%,0%,0%);stroke-opacity:1;stroke-dasharray:1.5,2.475;stroke-miterlimit:4;" d="M 49.479492 139.5 L 60.169922 138.18457 L 69.670898 136.798828 L 78.577148 135.28125 L 86.888672 133.646484 L 94.608398 131.90918 L 101.733398 130.092773 L 108.861328 128.047852 L 115.391602 125.947266 L 121.924805 123.609375 L 127.860352 121.256836 L 133.798828 118.664062 L 139.737305 115.810547 L 145.081055 113.000977 L 150.424805 109.942383 L 155.771484 106.617188 L 161.115234 102.999023 L 165.864258 99.524414 L 170.616211 95.789062 L 175.365234 91.772461 L 180.117187 87.459961 L 184.866211 82.831055 L 189.615234 77.865234 L 194.367187 72.544922 L 199.116211 66.84668 L 203.273437 61.535156 L 207.430664 55.901367 L 211.587891 49.927734 L 215.745117 43.602539 L 219.899414 36.902344 L 224.056641 29.8125 L 227.024414 24.500977 " transform="matrix(1.333333,0,0,1.333333,0,-0.000000000000014211)"/>
<path style="fill:none;stroke-width:0.8;stroke-linecap:square;stroke-linejoin:miter;stroke:rgb(0%,0%,0%);stroke-opacity:1;stroke-miterlimit:4;" d="M 40.602539 145.798828 L 40.602539 7.201172 " transform="matrix(1.333333,0,0,1.333333,0,-0.000000000000014211)"/>
<path style="fill:none;stroke-width:0.8;stroke-linecap:square;stroke-linejoin:miter;stroke:rgb(0%,0%,0%);stroke-opacity:1;stroke-miterlimit:4;" d="M 235.904297 145.798828 L 235.904297 7.201172 " transform="matrix(1.333333,0,0,1.333333,0,-0.000000000000014211)"/>
<path style="fill:none;stroke-width:0.8;stroke-linecap:square;stroke-linejoin:miter;stroke:rgb(0%,0%,0%);stroke-opacity:1;stroke-miterlimit:4;" d="M 40.602539 145.798828 L 235.904297 145.798828 " transform="matrix(1.333333,0,0,1.333333,0,-0.000000000000014211)"/>
<path style="fill:none;stroke-width:0.8;stroke-linecap:square;stroke-linejoin:miter;stroke:rgb(0%,0%,0%);stroke-opacity:1;stroke-miterlimit:4;" d="M 40.602539 7.201172 L 235.904297 7.201172 " transform="matrix(1.333333,0,0,1.333333,0,-0.000000000000014211)"/>
<use xlink:href="#surface5" mask="url(#mask0)"/>
<path style="fill:none;stroke-width:1.5;stroke-linecap:square;stroke-linejoin:round;stroke:rgb(12.156863%,46.666667%,70.588237%);stroke-opacity:1;stroke-miterlimit:4;" d="M 49.602539 20.299805 L 69.603516 20.299805 " transform="matrix(1.333333,0,0,1.333333,0,-0.000000000000014211)"/>
<path style=" stroke:none;fill-rule:nonzero;fill:rgb(0%,0%,0%);fill-opacity:1;" d="M 104.777344 22.011719 L 110.925781 22.011719 L 110.925781 23.117188 L 106.09375 23.117188 L 106.09375 25.996094 L 110.722656 25.996094 L 110.722656 27.101562 L 106.09375 27.101562 L 106.09375 30.625 L 111.042969 30.625 L 111.042969 31.730469 L 104.777344 31.730469 Z M 104.777344 22.011719 "/>
<path style=" stroke:none;fill-rule:nonzero;fill:rgb(0%,0%,0%);fill-opacity:1;" d="M 119.214844 24.441406 L 116.578125 27.988281 L 119.347656 31.730469 L 117.9375 31.730469 L 115.8125 28.867188 L 113.691406 31.730469 L 112.277344 31.730469 L 115.113281 27.917969 L 112.519531 24.441406 L 113.933594 24.441406 L 115.867188 27.039062 L 117.800781 24.441406 Z M 119.214844 24.441406 "/>
<path style=" stroke:none;fill-rule:nonzero;fill:rgb(0%,0%,0%);fill-opacity:1;" d="M 122.199219 30.636719 L 122.199219 34.503906 L 120.996094 34.503906 L 120.996094 24.441406 L 122.199219 24.441406 L 122.199219 25.546875 C 122.453125 25.113281 122.769531 24.789062 123.15625 24.582031 C 123.539062 24.371094 124 24.265625 124.53125 24.265625 C 125.417969 24.265625 126.136719 24.617188 126.691406 25.320312 C 127.246094 26.023438 127.519531 26.945312 127.519531 28.089844 C 127.519531 29.238281 127.246094 30.164062 126.691406 30.867188 C 126.136719 31.570312 125.417969 31.921875 124.53125 31.921875 C 124 31.921875 123.539062 31.816406 123.15625 31.605469 C 122.769531 31.394531 122.453125 31.070312 122.199219 30.636719 Z M 126.277344 28.089844 C 126.277344 27.210938 126.097656 26.519531 125.734375 26.019531 C 125.371094 25.515625 124.875 25.265625 124.238281 25.265625 C 123.605469 25.265625 123.105469 25.515625 122.746094 26.019531 C 122.382812 26.519531 122.199219 27.210938 122.199219 28.089844 C 122.199219 28.972656 122.382812 29.664062 122.746094 30.164062 C 123.105469 30.664062 123.605469 30.917969 124.238281 30.917969 C 124.875 30.917969 125.371094 30.664062 125.734375 30.164062 C 126.097656 29.664062 126.277344 28.972656 126.277344 28.089844 Z M 126.277344 28.089844 "/>
<path style=" stroke:none;fill-rule:nonzero;fill:rgb(0%,0%,0%);fill-opacity:1;" d="M 132.332031 25.277344 C 131.6875 25.277344 131.179688 25.53125 130.808594 26.03125 C 130.433594 26.53125 130.246094 27.21875 130.246094 28.089844 C 130.246094 28.964844 130.433594 29.652344 130.804688 30.152344 C 131.175781 30.652344 131.683594 30.902344 132.332031 30.902344 C 132.96875 30.902344 133.476562 30.652344 133.847656 30.148438 C 134.222656 29.644531 134.40625 28.960938 134.40625 28.089844 C 134.40625 27.226562 134.222656 26.542969 133.847656 26.039062 C 133.476562 25.53125 132.96875 25.277344 132.332031 25.277344 Z M 132.332031 24.265625 C 133.371094 24.265625 134.191406 24.601562 134.785156 25.28125 C 135.378906 25.957031 135.679688 26.894531 135.679688 28.089844 C 135.679688 29.285156 135.378906 30.222656 134.785156 30.902344 C 134.191406 31.582031 133.371094 31.921875 132.332031 31.921875 C 131.285156 31.921875 130.464844 31.582031 129.871094 30.902344 C 129.28125 30.222656 128.984375 29.285156 128.984375 28.089844 C 128.984375 26.894531 129.28125 25.957031 129.871094 25.28125 C 130.464844 24.601562 131.285156 24.265625 132.332031 24.265625 Z M 132.332031 24.265625 "/>
<path style=" stroke:none;fill-rule:nonzero;fill:rgb(0%,0%,0%);fill-opacity:1;" d="M 143.726562 27.328125 L 143.726562 31.730469 L 142.527344 31.730469 L 142.527344 27.367188 C 142.527344 26.679688 142.394531 26.164062 142.125 25.820312 C 141.855469 25.476562 141.449219 25.304688 140.914062 25.304688 C 140.265625 25.304688 139.753906 25.511719 139.382812 25.925781 C 139.007812 26.335938 138.820312 26.898438 138.820312 27.609375 L 138.820312 31.730469 L 137.617188 31.730469 L 137.617188 24.441406 L 138.820312 24.441406 L 138.820312 25.574219 C 139.109375 25.132812 139.445312 24.804688 139.835938 24.589844 C 140.222656 24.371094 140.671875 24.265625 141.179688 24.265625 C 142.015625 24.265625 142.652344 24.523438 143.078125 25.042969 C 143.511719 25.558594 143.726562 26.320312 143.726562 27.328125 Z M 143.726562 27.328125 "/>
<path style=" stroke:none;fill-rule:nonzero;fill:rgb(0%,0%,0%);fill-opacity:1;" d="M 152.351562 27.785156 L 152.351562 28.371094 L 146.84375 28.371094 C 146.894531 29.195312 147.144531 29.824219 147.589844 30.257812 C 148.035156 30.6875 148.652344 30.902344 149.445312 30.902344 C 149.90625 30.902344 150.351562 30.847656 150.785156 30.734375 C 151.214844 30.621094 151.644531 30.453125 152.070312 30.226562 L 152.070312 31.359375 C 151.640625 31.542969 151.199219 31.679688 150.75 31.777344 C 150.296875 31.871094 149.839844 31.921875 149.375 31.921875 C 148.210938 31.921875 147.289062 31.582031 146.613281 30.90625 C 145.933594 30.226562 145.59375 29.3125 145.59375 28.15625 C 145.59375 26.964844 145.914062 26.015625 146.558594 25.316406 C 147.203125 24.617188 148.074219 24.265625 149.167969 24.265625 C 150.148438 24.265625 150.925781 24.582031 151.496094 25.210938 C 152.066406 25.84375 152.351562 26.699219 152.351562 27.785156 Z M 151.152344 27.433594 C 151.144531 26.777344 150.960938 26.257812 150.601562 25.867188 C 150.246094 25.476562 149.769531 25.277344 149.179688 25.277344 C 148.511719 25.277344 147.976562 25.46875 147.578125 25.847656 C 147.175781 26.222656 146.945312 26.753906 146.882812 27.441406 Z M 151.152344 27.433594 "/>
<path style=" stroke:none;fill-rule:nonzero;fill:rgb(0%,0%,0%);fill-opacity:1;" d="M 160.378906 27.328125 L 160.378906 31.730469 L 159.179688 31.730469 L 159.179688 27.367188 C 159.179688 26.679688 159.046875 26.164062 158.777344 25.820312 C 158.507812 25.476562 158.105469 25.304688 157.566406 25.304688 C 156.917969 25.304688 156.410156 25.511719 156.035156 25.925781 C 155.660156 26.335938 155.476562 26.898438 155.476562 27.609375 L 155.476562 31.730469 L 154.269531 31.730469 L 154.269531 24.441406 L 155.476562 24.441406 L 155.476562 25.574219 C 155.761719 25.132812 156.101562 24.804688 156.488281 24.589844 C 156.875 24.371094 157.324219 24.265625 157.832031 24.265625 C 158.671875 24.265625 159.304688 24.523438 159.734375 25.042969 C 160.164062 25.558594 160.378906 26.320312 160.378906 27.328125 Z M 160.378906 27.328125 "/>
<path style=" stroke:none;fill-rule:nonzero;fill:rgb(0%,0%,0%);fill-opacity:1;" d="M 163.953125 22.367188 L 163.953125 24.441406 L 166.417969 24.441406 L 166.417969 25.371094 L 163.953125 25.371094 L 163.953125 29.328125 C 163.953125 29.921875 164.035156 30.304688 164.195312 30.476562 C 164.359375 30.644531 164.691406 30.730469 165.191406 30.730469 L 166.417969 30.730469 L 166.417969 31.730469 L 165.191406 31.730469 C 164.265625 31.730469 163.628906 31.558594 163.277344 31.214844 C 162.925781 30.867188 162.75 30.242188 162.75 29.328125 L 162.75 25.371094 L 161.871094 25.371094 L 161.871094 24.441406 L 162.75 24.441406 L 162.75 22.367188 Z M 163.953125 22.367188 "/>
<path style=" stroke:none;fill-rule:nonzero;fill:rgb(0%,0%,0%);fill-opacity:1;" d="M 167.996094 24.441406 L 169.191406 24.441406 L 169.191406 31.730469 L 167.996094 31.730469 Z M 167.996094 21.601562 L 169.191406 21.601562 L 169.191406 23.117188 L 167.996094 23.117188 Z M 167.996094 21.601562 "/>
<path style=" stroke:none;fill-rule:nonzero;fill:rgb(0%,0%,0%);fill-opacity:1;" d="M 175.015625 28.066406 C 174.046875 28.066406 173.375 28.175781 173 28.398438 C 172.628906 28.617188 172.441406 28.996094 172.441406 29.53125 C 172.441406 29.957031 172.582031 30.292969 172.863281 30.542969 C 173.144531 30.792969 173.523438 30.917969 174.003906 30.917969 C 174.667969 30.917969 175.203125 30.679688 175.605469 30.210938 C 176.003906 29.738281 176.207031 29.113281 176.207031 28.332031 L 176.207031 28.066406 Z M 177.402344 27.570312 L 177.402344 31.730469 L 176.207031 31.730469 L 176.207031 30.625 C 175.933594 31.066406 175.589844 31.394531 175.183594 31.605469 C 174.773438 31.816406 174.277344 31.921875 173.683594 31.921875 C 172.9375 31.921875 172.34375 31.710938 171.902344 31.292969 C 171.464844 30.871094 171.242188 30.3125 171.242188 29.609375 C 171.242188 28.789062 171.519531 28.171875 172.066406 27.753906 C 172.617188 27.335938 173.4375 27.128906 174.523438 27.128906 L 176.207031 27.128906 L 176.207031 27.011719 C 176.207031 26.460938 176.023438 26.03125 175.664062 25.730469 C 175.300781 25.429688 174.789062 25.277344 174.136719 25.277344 C 173.71875 25.277344 173.3125 25.328125 172.917969 25.429688 C 172.523438 25.527344 172.144531 25.679688 171.777344 25.878906 L 171.777344 24.769531 C 172.214844 24.601562 172.640625 24.476562 173.054688 24.390625 C 173.464844 24.308594 173.867188 24.265625 174.257812 24.265625 C 175.3125 24.265625 176.101562 24.539062 176.621094 25.085938 C 177.144531 25.632812 177.402344 26.460938 177.402344 27.570312 Z M 177.402344 27.570312 "/>
<path style=" stroke:none;fill-rule:nonzero;fill:rgb(0%,0%,0%);fill-opacity:1;" d="M 179.871094 21.601562 L 181.066406 21.601562 L 181.066406 31.730469 L 179.871094 31.730469 Z M 179.871094 21.601562 "/>
<path style="fill:none;stroke-width:1.5;stroke-linecap:butt;stroke-linejoin:round;stroke:rgb(74.901962%,0%,74.901962%);stroke-opacity:1;stroke-dasharray:5.55,2.4;stroke-miterlimit:4;" d="M 49.602539 34.977539 L 69.603516 34.977539 " transform="matrix(1.333333,0,0,1.333333,0,-0.000000000000014211)"/>
<path style=" stroke:none;fill-rule:nonzero;fill:rgb(0%,0%,0%);fill-opacity:1;" d="M 106.09375 42.664062 L 106.09375 50.222656 L 107.683594 50.222656 C 109.023438 50.222656 110.007812 49.917969 110.628906 49.308594 C 111.25 48.703125 111.5625 47.742188 111.5625 46.429688 C 111.5625 45.128906 111.25 44.175781 110.628906 43.570312 C 110.007812 42.964844 109.023438 42.664062 107.683594 42.664062 Z M 104.777344 41.582031 L 107.480469 41.582031 C 109.363281 41.582031 110.746094 41.972656 111.628906 42.757812 C 112.507812 43.539062 112.949219 44.765625 112.949219 46.429688 C 112.949219 48.109375 112.507812 49.339844 111.621094 50.125 C 110.734375 50.910156 109.355469 51.300781 107.480469 51.300781 L 104.777344 51.300781 Z M 104.777344 41.582031 "/>
<path style=" stroke:none;fill-rule:nonzero;fill:rgb(0%,0%,0%);fill-opacity:1;" d="M 121.230469 47.355469 L 121.230469 47.941406 L 115.722656 47.941406 C 115.777344 48.765625 116.023438 49.394531 116.46875 49.828125 C 116.914062 50.257812 117.53125 50.476562 118.328125 50.476562 C 118.785156 50.476562 119.234375 50.417969 119.664062 50.304688 C 120.097656 50.195312 120.527344 50.023438 120.953125 49.796875 L 120.953125 50.929688 C 120.523438 51.113281 120.082031 51.253906 119.628906 51.347656 C 119.179688 51.445312 118.71875 51.492188 118.257812 51.492188 C 117.09375 51.492188 116.171875 51.152344 115.492188 50.476562 C 114.8125 49.800781 114.472656 48.882812 114.472656 47.726562 C 114.472656 46.535156 114.796875 45.585938 115.441406 44.886719 C 116.085938 44.1875 116.953125 43.835938 118.046875 43.835938 C 119.027344 43.835938 119.804688 44.152344 120.375 44.785156 C 120.945312 45.414062 121.230469 46.273438 121.230469 47.355469 Z M 120.035156 47.003906 C 120.023438 46.351562 119.84375 45.828125 119.484375 45.4375 C 119.125 45.046875 118.652344 44.851562 118.0625 44.851562 C 117.394531 44.851562 116.859375 45.039062 116.457031 45.417969 C 116.054688 45.792969 115.824219 46.328125 115.761719 47.011719 Z M 120.035156 47.003906 "/>
<path style=" stroke:none;fill-rule:nonzero;fill:rgb(0%,0%,0%);fill-opacity:1;" d="M 127.996094 47.570312 C 127.996094 46.703125 127.816406 46.03125 127.457031 45.554688 C 127.101562 45.078125 126.597656 44.835938 125.953125 44.835938 C 125.308594 44.835938 124.808594 45.078125 124.453125 45.554688 C 124.09375 46.03125 123.914062 46.703125 123.914062 47.570312 C 123.914062 48.433594 124.09375 49.105469 124.453125 49.582031 C 124.808594 50.0625 125.308594 50.300781 125.953125 50.300781 C 126.597656 50.300781 127.101562 50.0625 127.457031 49.582031 C 127.816406 49.105469 127.996094 48.433594 127.996094 47.570312 Z M 129.191406 50.398438 C 129.191406 51.636719 128.917969 52.5625 128.367188 53.167969 C 127.816406 53.773438 126.972656 54.074219 125.835938 54.074219 C 125.414062 54.074219 125.015625 54.042969 124.644531 53.980469 C 124.269531 53.917969 123.90625 53.820312 123.554688 53.691406 L 123.554688 52.527344 C 123.90625 52.71875 124.253906 52.859375 124.597656 52.949219 C 124.941406 53.039062 125.289062 53.085938 125.644531 53.085938 C 126.429688 53.085938 127.019531 52.878906 127.410156 52.472656 C 127.800781 52.0625 127.996094 51.441406 127.996094 50.613281 L 127.996094 50.019531 C 127.746094 50.449219 127.429688 50.769531 127.046875 50.984375 C 126.660156 51.195312 126.195312 51.300781 125.65625 51.300781 C 124.765625 51.300781 124.042969 50.960938 123.496094 50.28125 C 122.949219 49.597656 122.675781 48.695312 122.675781 47.570312 C 122.675781 46.441406 122.949219 45.539062 123.496094 44.859375 C 124.042969 44.175781 124.765625 43.835938 125.65625 43.835938 C 126.195312 43.835938 126.660156 43.941406 127.046875 44.152344 C 127.429688 44.367188 127.746094 44.6875 127.996094 45.117188 L 127.996094 44.011719 L 129.191406 44.011719 Z M 129.191406 50.398438 "/>
<path style=" stroke:none;fill-rule:nonzero;fill:rgb(0%,0%,0%);fill-opacity:1;" d="M 135.886719 45.128906 C 135.75 45.050781 135.605469 44.996094 135.445312 44.957031 C 135.289062 44.921875 135.113281 44.902344 134.921875 44.902344 C 134.246094 44.902344 133.726562 45.121094 133.363281 45.5625 C 133 46.003906 132.820312 46.636719 132.820312 47.460938 L 132.820312 51.300781 L 131.613281 51.300781 L 131.613281 44.011719 L 132.820312 44.011719 L 132.820312 45.144531 C 133.070312 44.699219 133.398438 44.371094 133.800781 44.160156 C 134.207031 43.941406 134.699219 43.835938 135.273438 43.835938 C 135.355469 43.835938 135.449219 43.839844 135.546875 43.851562 C 135.648438 43.863281 135.757812 43.878906 135.878906 43.898438 Z M 135.886719 45.128906 "/>
<path style=" stroke:none;fill-rule:nonzero;fill:rgb(0%,0%,0%);fill-opacity:1;" d="M 143.078125 47.355469 L 143.078125 47.941406 L 137.570312 47.941406 C 137.625 48.765625 137.871094 49.394531 138.316406 49.828125 C 138.761719 50.257812 139.382812 50.476562 140.175781 50.476562 C 140.636719 50.476562 141.082031 50.417969 141.511719 50.304688 C 141.945312 50.195312 142.375 50.023438 142.800781 49.796875 L 142.800781 50.929688 C 142.371094 51.113281 141.929688 51.253906 141.476562 51.347656 C 141.027344 51.445312 140.570312 51.492188 140.105469 51.492188 C 138.941406 51.492188 138.019531 51.152344 137.339844 50.476562 C 136.660156 49.800781 136.320312 48.882812 136.320312 47.726562 C 136.320312 46.535156 136.644531 45.585938 137.289062 44.886719 C 137.933594 44.1875 138.800781 43.835938 139.898438 43.835938 C 140.878906 43.835938 141.652344 44.152344 142.222656 44.785156 C 142.792969 45.414062 143.078125 46.273438 143.078125 47.355469 Z M 141.882812 47.003906 C 141.875 46.351562 141.691406 45.828125 141.332031 45.4375 C 140.972656 45.046875 140.5 44.851562 139.910156 44.851562 C 139.242188 44.851562 138.707031 45.039062 138.304688 45.417969 C 137.902344 45.792969 137.671875 46.328125 137.609375 47.011719 Z M 141.882812 47.003906 "/>
<path style=" stroke:none;fill-rule:nonzero;fill:rgb(0%,0%,0%);fill-opacity:1;" d="M 151.28125 47.355469 L 151.28125 47.941406 L 145.773438 47.941406 C 145.828125 48.765625 146.074219 49.394531 146.519531 49.828125 C 146.964844 50.257812 147.585938 50.476562 148.378906 50.476562 C 148.839844 50.476562 149.285156 50.417969 149.714844 50.304688 C 150.148438 50.195312 150.578125 50.023438 151.003906 49.796875 L 151.003906 50.929688 C 150.574219 51.113281 150.132812 51.253906 149.679688 51.347656 C 149.230469 51.445312 148.773438 51.492188 148.308594 51.492188 C 147.144531 51.492188 146.222656 51.152344 145.542969 50.476562 C 144.863281 49.800781 144.523438 48.882812 144.523438 47.726562 C 144.523438 46.535156 144.847656 45.585938 145.492188 44.886719 C 146.136719 44.1875 147.003906 43.835938 148.101562 43.835938 C 149.082031 43.835938 149.855469 44.152344 150.425781 44.785156 C 150.996094 45.414062 151.28125 46.273438 151.28125 47.355469 Z M 150.085938 47.003906 C 150.078125 46.351562 149.894531 45.828125 149.535156 45.4375 C 149.175781 45.046875 148.703125 44.851562 148.113281 44.851562 C 147.445312 44.851562 146.910156 45.039062 146.507812 45.417969 C 146.105469 45.792969 145.875 46.328125 145.8125 47.011719 Z M 150.085938 47.003906 "/>
<path style=" stroke:none;fill-rule:nonzero;fill:rgb(0%,0%,0%);fill-opacity:1;" d="M 157.886719 50.195312 L 160.03125 50.195312 L 160.03125 42.777344 L 157.695312 43.246094 L 157.695312 42.050781 L 160.019531 41.582031 L 161.335938 41.582031 L 161.335938 50.195312 L 163.484375 50.195312 L 163.484375 51.300781 L 157.886719 51.300781 Z M 157.886719 50.195312 "/>
<path style=" stroke:none;fill-rule:nonzero;fill:rgb(0%,0%,0%);fill-opacity:1;" d="M 168.914062 41.582031 L 177.136719 41.582031 L 177.136719 42.691406 L 173.683594 42.691406 L 173.683594 51.300781 L 172.363281 51.300781 L 172.363281 42.691406 L 168.914062 42.691406 Z M 168.914062 41.582031 "/>
<path style=" stroke:none;fill-rule:nonzero;fill:rgb(0%,0%,0%);fill-opacity:1;" d="M 179.46875 47.636719 C 178.5 47.636719 177.828125 47.746094 177.453125 47.96875 C 177.082031 48.191406 176.894531 48.566406 176.894531 49.101562 C 176.894531 49.527344 177.035156 49.863281 177.316406 50.113281 C 177.597656 50.363281 177.976562 50.488281 178.457031 50.488281 C 179.121094 50.488281 179.65625 50.253906 180.058594 49.78125 C 180.457031 49.308594 180.660156 48.683594 180.660156 47.902344 L 180.660156 47.636719 Z M 181.855469 47.140625 L 181.855469 51.300781 L 180.660156 51.300781 L 180.660156 50.195312 C 180.386719 50.636719 180.042969 50.964844 179.636719 51.175781 C 179.226562 51.386719 178.730469 51.492188 178.136719 51.492188 C 177.390625 51.492188 176.796875 51.28125 176.355469 50.863281 C 175.917969 50.441406 175.695312 49.882812 175.695312 49.179688 C 175.695312 48.359375 175.972656 47.742188 176.519531 47.324219 C 177.070312 46.910156 177.890625 46.699219 178.976562 46.699219 L 180.660156 46.699219 L 180.660156 46.582031 C 180.660156 46.03125 180.476562 45.601562 180.117188 45.300781 C 179.753906 45 179.242188 44.851562 178.589844 44.851562 C 178.171875 44.851562 177.765625 44.898438 177.371094 45 C 176.976562 45.101562 176.597656 45.25 176.230469 45.449219 L 176.230469 44.339844 C 176.667969 44.171875 177.09375 44.046875 177.507812 43.960938 C 177.917969 43.878906 178.320312 43.835938 178.710938 43.835938 C 179.765625 43.835938 180.554688 44.109375 181.074219 44.65625 C 181.597656 45.203125 181.855469 46.03125 181.855469 47.140625 Z M 181.855469 47.140625 "/>
<path style=" stroke:none;fill-rule:nonzero;fill:rgb(0%,0%,0%);fill-opacity:1;" d="M 187.355469 51.980469 C 187.019531 52.847656 186.6875 53.414062 186.367188 53.675781 C 186.046875 53.941406 185.617188 54.074219 185.078125 54.074219 L 184.121094 54.074219 L 184.121094 53.074219 L 184.824219 53.074219 C 185.15625 53.074219 185.410156 52.996094 185.59375 52.835938 C 185.777344 52.683594 185.976562 52.3125 186.199219 51.730469 L 186.414062 51.183594 L 183.464844 44.011719 L 184.734375 44.011719 L 187.011719 49.710938 L 189.292969 44.011719 L 190.5625 44.011719 Z M 187.355469 51.980469 "/>
<path style=" stroke:none;fill-rule:nonzero;fill:rgb(0%,0%,0%);fill-opacity:1;" d="M 192.214844 41.171875 L 193.410156 41.171875 L 193.410156 51.300781 L 192.214844 51.300781 Z M 192.214844 41.171875 "/>
<path style=" stroke:none;fill-rule:nonzero;fill:rgb(0%,0%,0%);fill-opacity:1;" d="M 198.742188 44.851562 C 198.101562 44.851562 197.59375 45.101562 197.21875 45.601562 C 196.847656 46.101562 196.660156 46.789062 196.660156 47.664062 C 196.660156 48.535156 196.84375 49.222656 197.214844 49.722656 C 197.589844 50.222656 198.097656 50.476562 198.742188 50.476562 C 199.382812 50.476562 199.886719 50.222656 200.261719 49.722656 C 200.632812 49.214844 200.820312 48.53125 200.820312 47.664062 C 200.820312 46.796875 200.632812 46.113281 200.261719 45.609375 C 199.886719 45.101562 199.382812 44.851562 198.742188 44.851562 Z M 198.742188 43.835938 C 199.785156 43.835938 200.601562 44.175781 201.199219 44.851562 C 201.792969 45.527344 202.089844 46.464844 202.089844 47.664062 C 202.089844 48.855469 201.792969 49.792969 201.199219 50.472656 C 200.601562 51.152344 199.785156 51.492188 198.742188 51.492188 C 197.699219 51.492188 196.878906 51.152344 196.285156 50.472656 C 195.695312 49.792969 195.398438 48.855469 195.398438 47.664062 C 195.398438 46.464844 195.695312 45.527344 196.285156 44.851562 C 196.878906 44.175781 197.699219 43.835938 198.742188 43.835938 Z M 198.742188 43.835938 "/>
<path style=" stroke:none;fill-rule:nonzero;fill:rgb(0%,0%,0%);fill-opacity:1;" d="M 208.300781 45.128906 C 208.167969 45.050781 208.019531 44.996094 207.863281 44.957031 C 207.703125 44.921875 207.527344 44.902344 207.339844 44.902344 C 206.660156 44.902344 206.140625 45.121094 205.777344 45.5625 C 205.414062 46.003906 205.234375 46.636719 205.234375 47.460938 L 205.234375 51.300781 L 204.03125 51.300781 L 204.03125 44.011719 L 205.234375 44.011719 L 205.234375 45.144531 C 205.488281 44.699219 205.816406 44.371094 206.21875 44.160156 C 206.621094 43.941406 207.113281 43.835938 207.691406 43.835938 C 207.773438 43.835938 207.863281 43.839844 207.964844 43.851562 C 208.0625 43.863281 208.175781 43.878906 208.292969 43.898438 Z M 208.300781 45.128906 "/>
<path style=" stroke:none;fill-rule:nonzero;fill:rgb(0%,0%,0%);fill-opacity:1;" d="M 219.675781 41.898438 L 219.675781 43.183594 C 219.175781 42.945312 218.707031 42.765625 218.261719 42.648438 C 217.820312 42.53125 217.390625 42.472656 216.980469 42.472656 C 216.265625 42.472656 215.710938 42.613281 215.324219 42.890625 C 214.933594 43.167969 214.738281 43.5625 214.738281 44.074219 C 214.738281 44.503906 214.867188 44.832031 215.128906 45.050781 C 215.386719 45.269531 215.875 45.445312 216.597656 45.578125 L 217.390625 45.742188 C 218.371094 45.929688 219.09375 46.257812 219.5625 46.730469 C 220.027344 47.199219 220.261719 47.828125 220.261719 48.617188 C 220.261719 49.5625 219.945312 50.277344 219.3125 50.761719 C 218.683594 51.25 217.757812 51.492188 216.539062 51.492188 C 216.078125 51.492188 215.589844 51.441406 215.070312 51.335938 C 214.550781 51.230469 214.015625 51.078125 213.457031 50.871094 L 213.457031 49.519531 C 213.992188 49.816406 214.515625 50.042969 215.027344 50.195312 C 215.539062 50.347656 216.042969 50.421875 216.539062 50.421875 C 217.289062 50.421875 217.867188 50.277344 218.273438 49.980469 C 218.683594 49.683594 218.886719 49.265625 218.886719 48.714844 C 218.886719 48.242188 218.742188 47.867188 218.449219 47.597656 C 218.15625 47.328125 217.675781 47.125 217.007812 46.992188 L 216.203125 46.835938 C 215.222656 46.640625 214.515625 46.335938 214.074219 45.917969 C 213.636719 45.503906 213.417969 44.921875 213.417969 44.179688 C 213.417969 43.320312 213.722656 42.640625 214.328125 42.148438 C 214.933594 41.652344 215.765625 41.40625 216.828125 41.40625 C 217.285156 41.40625 217.75 41.449219 218.222656 41.53125 C 218.695312 41.613281 219.179688 41.734375 219.675781 41.898438 Z M 219.675781 41.898438 "/>
<path style=" stroke:none;fill-rule:nonzero;fill:rgb(0%,0%,0%);fill-opacity:1;" d="M 228.496094 47.355469 L 228.496094 47.941406 L 222.988281 47.941406 C 223.042969 48.765625 223.289062 49.394531 223.734375 49.828125 C 224.179688 50.257812 224.796875 50.476562 225.59375 50.476562 C 226.050781 50.476562 226.5 50.417969 226.929688 50.304688 C 227.363281 50.195312 227.792969 50.023438 228.21875 49.796875 L 228.21875 50.929688 C 227.789062 51.113281 227.347656 51.253906 226.894531 51.347656 C 226.445312 51.445312 225.984375 51.492188 225.523438 51.492188 C 224.359375 51.492188 223.4375 51.152344 222.757812 50.476562 C 222.078125 49.800781 221.738281 48.882812 221.738281 47.726562 C 221.738281 46.535156 222.0625 45.585938 222.707031 44.886719 C 223.351562 44.1875 224.21875 43.835938 225.3125 43.835938 C 226.292969 43.835938 227.070312 44.152344 227.640625 44.785156 C 228.210938 45.414062 228.496094 46.273438 228.496094 47.355469 Z M 227.300781 47.003906 C 227.289062 46.351562 227.109375 45.828125 226.75 45.4375 C 226.390625 45.046875 225.917969 44.851562 225.328125 44.851562 C 224.660156 44.851562 224.125 45.039062 223.722656 45.417969 C 223.320312 45.792969 223.089844 46.328125 223.027344 47.011719 Z M 227.300781 47.003906 "/>
<path style=" stroke:none;fill-rule:nonzero;fill:rgb(0%,0%,0%);fill-opacity:1;" d="M 234.6875 45.128906 C 234.554688 45.050781 234.40625 44.996094 234.25 44.957031 C 234.089844 44.921875 233.914062 44.902344 233.726562 44.902344 C 233.046875 44.902344 232.527344 45.121094 232.164062 45.5625 C 231.800781 46.003906 231.621094 46.636719 231.621094 47.460938 L 231.621094 51.300781 L 230.417969 51.300781 L 230.417969 44.011719 L 231.621094 44.011719 L 231.621094 45.144531 C 231.875 44.699219 232.203125 44.371094 232.605469 44.160156 C 233.007812 43.941406 233.5 43.835938 234.078125 43.835938 C 234.160156 43.835938 234.25 43.839844 234.351562 43.851562 C 234.449219 43.863281 234.5625 43.878906 234.679688 43.898438 Z M 234.6875 45.128906 "/>
<path style=" stroke:none;fill-rule:nonzero;fill:rgb(0%,0%,0%);fill-opacity:1;" d="M 235.945312 44.011719 L 237.140625 44.011719 L 237.140625 51.300781 L 235.945312 51.300781 Z M 235.945312 41.171875 L 237.140625 41.171875 L 237.140625 42.691406 L 235.945312 42.691406 Z M 235.945312 41.171875 "/>
<path style=" stroke:none;fill-rule:nonzero;fill:rgb(0%,0%,0%);fill-opacity:1;" d="M 245.886719 47.355469 L 245.886719 47.941406 L 240.378906 47.941406 C 240.429688 48.765625 240.679688 49.394531 241.125 49.828125 C 241.570312 50.257812 242.1875 50.476562 242.980469 50.476562 C 243.441406 50.476562 243.886719 50.417969 244.320312 50.304688 C 244.75 50.195312 245.179688 50.023438 245.605469 49.796875 L 245.605469 50.929688 C 245.175781 51.113281 244.734375 51.253906 244.285156 51.347656 C 243.832031 51.445312 243.375 51.492188 242.910156 51.492188 C 241.746094 51.492188 240.824219 51.152344 240.148438 50.476562 C 239.46875 49.800781 239.128906 48.882812 239.128906 47.726562 C 239.128906 46.535156 239.449219 45.585938 240.09375 44.886719 C 240.738281 44.1875 241.609375 43.835938 242.703125 43.835938 C 243.683594 43.835938 244.460938 44.152344 245.03125 44.785156 C 245.601562 45.414062 245.886719 46.273438 245.886719 47.355469 Z M 244.6875 47.003906 C 244.679688 46.351562 244.496094 45.828125 244.136719 45.4375 C 243.78125 45.046875 243.304688 44.851562 242.714844 44.851562 C 242.046875 44.851562 241.511719 45.039062 241.113281 45.417969 C 240.710938 45.792969 240.480469 46.328125 240.417969 47.011719 Z M 244.6875 47.003906 "/>
<path style=" stroke:none;fill-rule:nonzero;fill:rgb(0%,0%,0%);fill-opacity:1;" d="M 252.5 44.226562 L 252.5 45.359375 C 252.164062 45.183594 251.8125 45.054688 251.445312 44.96875 C 251.082031 44.882812 250.703125 44.835938 250.3125 44.835938 C 249.71875 44.835938 249.273438 44.929688 248.976562 45.109375 C 248.679688 45.292969 248.527344 45.566406 248.527344 45.929688 C 248.527344 46.210938 248.636719 46.425781 248.847656 46.585938 C 249.058594 46.742188 249.488281 46.894531 250.132812 47.039062 L 250.542969 47.128906 C 251.390625 47.3125 251.996094 47.566406 252.355469 47.898438 C 252.710938 48.230469 252.890625 48.695312 252.890625 49.289062 C 252.890625 49.96875 252.625 50.503906 252.085938 50.898438 C 251.550781 51.292969 250.816406 51.492188 249.878906 51.492188 C 249.488281 51.492188 249.078125 51.453125 248.65625 51.378906 C 248.234375 51.300781 247.785156 51.1875 247.320312 51.035156 L 247.320312 49.796875 C 247.761719 50.027344 248.199219 50.203125 248.628906 50.316406 C 249.054688 50.429688 249.480469 50.488281 249.902344 50.488281 C 250.46875 50.488281 250.902344 50.390625 251.203125 50.199219 C 251.507812 50.003906 251.660156 49.734375 251.660156 49.382812 C 251.660156 49.054688 251.550781 48.808594 251.332031 48.632812 C 251.113281 48.460938 250.632812 48.292969 249.890625 48.132812 L 249.472656 48.035156 C 248.730469 47.878906 248.195312 47.636719 247.863281 47.316406 C 247.535156 46.992188 247.371094 46.546875 247.371094 45.984375 C 247.371094 45.296875 247.613281 44.769531 248.101562 44.394531 C 248.585938 44.023438 249.277344 43.835938 250.171875 43.835938 C 250.613281 43.835938 251.027344 43.867188 251.417969 43.933594 C 251.808594 43.996094 252.171875 44.09375 252.5 44.226562 Z M 252.5 44.226562 "/>
<path style="fill:none;stroke-width:1.5;stroke-linecap:butt;stroke-linejoin:round;stroke:rgb(0%,50.196081%,0%);stroke-opacity:1;stroke-dasharray:9.6,2.4,1.5,2.4;stroke-miterlimit:4;" d="M 49.602539 49.655273 L 69.603516 49.655273 " transform="matrix(1.333333,0,0,1.333333,0,-0.000000000000014211)"/>
<path style=" stroke:none;fill-rule:nonzero;fill:rgb(0%,0%,0%);fill-opacity:1;" d="M 106.09375 62.234375 L 106.09375 69.792969 L 107.683594 69.792969 C 109.023438 69.792969 110.007812 69.488281 110.628906 68.882812 C 111.25 68.273438 111.5625 67.3125 111.5625 66.003906 C 111.5625 64.699219 111.25 63.746094 110.628906 63.140625 C 110.007812 62.535156 109.023438 62.234375 107.683594 62.234375 Z M 104.777344 61.152344 L 107.480469 61.152344 C 109.363281 61.152344 110.746094 61.542969 111.628906 62.328125 C 112.507812 63.109375 112.949219 64.335938 112.949219 66.003906 C 112.949219 67.679688 112.507812 68.910156 111.621094 69.695312 C 110.734375 70.480469 109.355469 70.871094 107.480469 70.871094 L 104.777344 70.871094 Z M 104.777344 61.152344 "/>
<path style=" stroke:none;fill-rule:nonzero;fill:rgb(0%,0%,0%);fill-opacity:1;" d="M 121.230469 66.925781 L 121.230469 67.511719 L 115.722656 67.511719 C 115.777344 68.335938 116.023438 68.964844 116.46875 69.398438 C 116.914062 69.828125 117.53125 70.046875 118.328125 70.046875 C 118.785156 70.046875 119.234375 69.988281 119.664062 69.878906 C 120.097656 69.765625 120.527344 69.59375 120.953125 69.367188 L 120.953125 70.503906 C 120.523438 70.683594 120.082031 70.824219 119.628906 70.917969 C 119.179688 71.015625 118.71875 71.0625 118.257812 71.0625 C 117.09375 71.0625 116.171875 70.722656 115.492188 70.046875 C 114.8125 69.371094 114.472656 68.453125 114.472656 67.296875 C 114.472656 66.105469 114.796875 65.160156 115.441406 64.457031 C 116.085938 63.757812 116.953125 63.40625 118.046875 63.40625 C 119.027344 63.40625 119.804688 63.722656 120.375 64.355469 C 120.945312 64.984375 121.230469 65.84375 121.230469 66.925781 Z M 120.035156 66.574219 C 120.023438 65.921875 119.84375 65.398438 119.484375 65.007812 C 119.125 64.617188 118.652344 64.421875 118.0625 64.421875 C 117.394531 64.421875 116.859375 64.609375 116.457031 64.988281 C 116.054688 65.367188 115.824219 65.898438 115.761719 66.582031 Z M 120.035156 66.574219 "/>
<path style=" stroke:none;fill-rule:nonzero;fill:rgb(0%,0%,0%);fill-opacity:1;" d="M 127.996094 67.140625 C 127.996094 66.273438 127.816406 65.601562 127.457031 65.125 C 127.101562 64.648438 126.597656 64.410156 125.953125 64.410156 C 125.308594 64.410156 124.808594 64.648438 124.453125 65.125 C 124.09375 65.601562 123.914062 66.273438 123.914062 67.140625 C 123.914062 68.003906 124.09375 68.675781 124.453125 69.152344 C 124.808594 69.632812 125.308594 69.871094 125.953125 69.871094 C 126.597656 69.871094 127.101562 69.632812 127.457031 69.152344 C 127.816406 68.675781 127.996094 68.003906 127.996094 67.140625 Z M 129.191406 69.96875 C 129.191406 71.210938 128.917969 72.132812 128.367188 72.738281 C 127.816406 73.34375 126.972656 73.644531 125.835938 73.644531 C 125.414062 73.644531 125.015625 73.613281 124.644531 73.550781 C 124.269531 73.488281 123.90625 73.394531 123.554688 73.261719 L 123.554688 72.097656 C 123.90625 72.289062 124.253906 72.429688 124.597656 72.519531 C 124.941406 72.609375 125.289062 72.65625 125.644531 72.65625 C 126.429688 72.65625 127.019531 72.453125 127.410156 72.042969 C 127.800781 71.632812 127.996094 71.011719 127.996094 70.183594 L 127.996094 69.589844 C 127.746094 70.019531 127.429688 70.339844 127.046875 70.554688 C 126.660156 70.765625 126.195312 70.871094 125.65625 70.871094 C 124.765625 70.871094 124.042969 70.53125 123.496094 69.851562 C 122.949219 69.171875 122.675781 68.265625 122.675781 67.140625 C 122.675781 66.015625 122.949219 65.109375 123.496094 64.429688 C 124.042969 63.746094 124.765625 63.40625 125.65625 63.40625 C 126.195312 63.40625 126.660156 63.511719 127.046875 63.726562 C 127.429688 63.9375 127.746094 64.257812 127.996094 64.6875 L 127.996094 63.582031 L 129.191406 63.582031 Z M 129.191406 69.96875 "/>
<path style=" stroke:none;fill-rule:nonzero;fill:rgb(0%,0%,0%);fill-opacity:1;" d="M 135.886719 64.699219 C 135.75 64.621094 135.605469 64.566406 135.445312 64.527344 C 135.289062 64.492188 135.113281 64.472656 134.921875 64.472656 C 134.246094 64.472656 133.726562 64.691406 133.363281 65.132812 C 133 65.574219 132.820312 66.207031 132.820312 67.03125 L 132.820312 70.871094 L 131.613281 70.871094 L 131.613281 63.582031 L 132.820312 63.582031 L 132.820312 64.714844 C 133.070312 64.273438 133.398438 63.941406 133.800781 63.730469 C 134.207031 63.515625 134.699219 63.40625 135.273438 63.40625 C 135.355469 63.40625 135.449219 63.410156 135.546875 63.421875 C 135.648438 63.433594 135.757812 63.449219 135.878906 63.472656 Z M 135.886719 64.699219 "/>
<path style=" stroke:none;fill-rule:nonzero;fill:rgb(0%,0%,0%);fill-opacity:1;" d="M 143.078125 66.925781 L 143.078125 67.511719 L 137.570312 67.511719 C 137.625 68.335938 137.871094 68.964844 138.316406 69.398438 C 138.761719 69.828125 139.382812 70.046875 140.175781 70.046875 C 140.636719 70.046875 141.082031 69.988281 141.511719 69.878906 C 141.945312 69.765625 142.375 69.59375 142.800781 69.367188 L 142.800781 70.503906 C 142.371094 70.683594 141.929688 70.824219 141.476562 70.917969 C 141.027344 71.015625 140.570312 71.0625 140.105469 71.0625 C 138.941406 71.0625 138.019531 70.722656 137.339844 70.046875 C 136.660156 69.371094 136.320312 68.453125 136.320312 67.296875 C 136.320312 66.105469 136.644531 65.160156 137.289062 64.457031 C 137.933594 63.757812 138.800781 63.40625 139.898438 63.40625 C 140.878906 63.40625 141.652344 63.722656 142.222656 64.355469 C 142.792969 64.984375 143.078125 65.84375 143.078125 66.925781 Z M 141.882812 66.574219 C 141.875 65.921875 141.691406 65.398438 141.332031 65.007812 C 140.972656 64.617188 140.5 64.421875 139.910156 64.421875 C 139.242188 64.421875 138.707031 64.609375 138.304688 64.988281 C 137.902344 65.367188 137.671875 65.898438 137.609375 66.582031 Z M 141.882812 66.574219 "/>
<path style=" stroke:none;fill-rule:nonzero;fill:rgb(0%,0%,0%);fill-opacity:1;" d="M 151.28125 66.925781 L 151.28125 67.511719 L 145.773438 67.511719 C 145.828125 68.335938 146.074219 68.964844 146.519531 69.398438 C 146.964844 69.828125 147.585938 70.046875 148.378906 70.046875 C 148.839844 70.046875 149.285156 69.988281 149.714844 69.878906 C 150.148438 69.765625 150.578125 69.59375 151.003906 69.367188 L 151.003906 70.503906 C 150.574219 70.683594 150.132812 70.824219 149.679688 70.917969 C 149.230469 71.015625 148.773438 71.0625 148.308594 71.0625 C 147.144531 71.0625 146.222656 70.722656 145.542969 70.046875 C 144.863281 69.371094 144.523438 68.453125 144.523438 67.296875 C 144.523438 66.105469 144.847656 65.160156 145.492188 64.457031 C 146.136719 63.757812 147.003906 63.40625 148.101562 63.40625 C 149.082031 63.40625 149.855469 63.722656 150.425781 64.355469 C 150.996094 64.984375 151.28125 65.84375 151.28125 66.925781 Z M 150.085938 66.574219 C 150.078125 65.921875 149.894531 65.398438 149.535156 65.007812 C 149.175781 64.617188 148.703125 64.421875 148.113281 64.421875 C 147.445312 64.421875 146.910156 64.609375 146.507812 64.988281 C 146.105469 65.367188 145.875 65.898438 145.8125 66.582031 Z M 150.085938 66.574219 "/>
<path style=" stroke:none;fill-rule:nonzero;fill:rgb(0%,0%,0%);fill-opacity:1;" d="M 158.789062 69.765625 L 163.378906 69.765625 L 163.378906 70.871094 L 157.207031 70.871094 L 157.207031 69.765625 C 157.707031 69.25 158.386719 68.558594 159.246094 67.6875 C 160.109375 66.816406 160.652344 66.253906 160.871094 66.003906 C 161.292969 65.53125 161.585938 65.128906 161.753906 64.800781 C 161.921875 64.472656 162.003906 64.152344 162.003906 63.835938 C 162.003906 63.320312 161.824219 62.898438 161.460938 62.574219 C 161.097656 62.246094 160.628906 62.082031 160.046875 62.082031 C 159.632812 62.082031 159.199219 62.15625 158.738281 62.296875 C 158.28125 62.441406 157.792969 62.660156 157.273438 62.949219 L 157.273438 61.621094 C 157.800781 61.410156 158.296875 61.246094 158.753906 61.140625 C 159.21875 61.03125 159.636719 60.976562 160.019531 60.976562 C 161.027344 60.976562 161.828125 61.230469 162.429688 61.734375 C 163.027344 62.234375 163.328125 62.910156 163.328125 63.75 C 163.328125 64.148438 163.25 64.527344 163.101562 64.886719 C 162.953125 65.246094 162.679688 65.664062 162.285156 66.152344 C 162.175781 66.277344 161.832031 66.640625 161.25 67.242188 C 160.667969 67.84375 159.847656 68.6875 158.789062 69.765625 Z M 158.789062 69.765625 "/>
<path style=" stroke:none;fill-rule:nonzero;fill:rgb(0%,0%,0%);fill-opacity:1;" d="M 168.914062 61.152344 L 177.136719 61.152344 L 177.136719 62.261719 L 173.683594 62.261719 L 173.683594 70.871094 L 172.363281 70.871094 L 172.363281 62.261719 L 168.914062 62.261719 Z M 168.914062 61.152344 "/>
<path style=" stroke:none;fill-rule:nonzero;fill:rgb(0%,0%,0%);fill-opacity:1;" d="M 179.46875 67.207031 C 178.5 67.207031 177.828125 67.320312 177.453125 67.539062 C 177.082031 67.761719 176.894531 68.136719 176.894531 68.671875 C 176.894531 69.097656 177.035156 69.433594 177.316406 69.683594 C 177.597656 69.933594 177.976562 70.058594 178.457031 70.058594 C 179.121094 70.058594 179.65625 69.824219 180.058594 69.351562 C 180.457031 68.882812 180.660156 68.253906 180.660156 67.476562 L 180.660156 67.207031 Z M 181.855469 66.710938 L 181.855469 70.871094 L 180.660156 70.871094 L 180.660156 69.765625 C 180.386719 70.207031 180.042969 70.535156 179.636719 70.746094 C 179.226562 70.957031 178.730469 71.0625 178.136719 71.0625 C 177.390625 71.0625 176.796875 70.851562 176.355469 70.433594 C 175.917969 70.015625 175.695312 69.453125 175.695312 68.75 C 175.695312 67.929688 175.972656 67.3125 176.519531 66.894531 C 177.070312 66.480469 177.890625 66.269531 178.976562 66.269531 L 180.660156 66.269531 L 180.660156 66.152344 C 180.660156 65.601562 180.476562 65.175781 180.117188 64.871094 C 179.753906 64.570312 179.242188 64.421875 178.589844 64.421875 C 178.171875 64.421875 177.765625 64.472656 177.371094 64.570312 C 176.976562 64.671875 176.597656 64.820312 176.230469 65.019531 L 176.230469 63.914062 C 176.667969 63.742188 177.09375 63.617188 177.507812 63.535156 C 177.917969 63.449219 178.320312 63.40625 178.710938 63.40625 C 179.765625 63.40625 180.554688 63.679688 181.074219 64.226562 C 181.597656 64.773438 181.855469 65.601562 181.855469 66.710938 Z M 181.855469 66.710938 "/>
<path style=" stroke:none;fill-rule:nonzero;fill:rgb(0%,0%,0%);fill-opacity:1;" d="M 187.355469 71.550781 C 187.019531 72.417969 186.6875 72.984375 186.367188 73.246094 C 186.046875 73.511719 185.617188 73.644531 185.078125 73.644531 L 184.121094 73.644531 L 184.121094 72.644531 L 184.824219 72.644531 C 185.15625 72.644531 185.410156 72.566406 185.59375 72.410156 C 185.777344 72.253906 185.976562 71.882812 186.199219 71.300781 L 186.414062 70.757812 L 183.464844 63.582031 L 184.734375 63.582031 L 187.011719 69.285156 L 189.292969 63.582031 L 190.5625 63.582031 Z M 187.355469 71.550781 "/>
<path style=" stroke:none;fill-rule:nonzero;fill:rgb(0%,0%,0%);fill-opacity:1;" d="M 192.214844 60.742188 L 193.410156 60.742188 L 193.410156 70.871094 L 192.214844 70.871094 Z M 192.214844 60.742188 "/>
<path style=" stroke:none;fill-rule:nonzero;fill:rgb(0%,0%,0%);fill-opacity:1;" d="M 198.742188 64.421875 C 198.101562 64.421875 197.59375 64.671875 197.21875 65.171875 C 196.847656 65.675781 196.660156 66.359375 196.660156 67.234375 C 196.660156 68.105469 196.84375 68.792969 197.214844 69.292969 C 197.589844 69.796875 198.097656 70.046875 198.742188 70.046875 C 199.382812 70.046875 199.886719 69.792969 200.261719 69.292969 C 200.632812 68.789062 200.820312 68.101562 200.820312 67.234375 C 200.820312 66.371094 200.632812 65.683594 200.261719 65.179688 C 199.886719 64.671875 199.382812 64.421875 198.742188 64.421875 Z M 198.742188 63.40625 C 199.785156 63.40625 200.601562 63.746094 201.199219 64.421875 C 201.792969 65.097656 202.089844 66.035156 202.089844 67.234375 C 202.089844 68.425781 201.792969 69.363281 201.199219 70.042969 C 200.601562 70.722656 199.785156 71.0625 198.742188 71.0625 C 197.699219 71.0625 196.878906 70.722656 196.285156 70.042969 C 195.695312 69.363281 195.398438 68.425781 195.398438 67.234375 C 195.398438 66.035156 195.695312 65.097656 196.285156 64.421875 C 196.878906 63.746094 197.699219 63.40625 198.742188 63.40625 Z M 198.742188 63.40625 "/>
<path style=" stroke:none;fill-rule:nonzero;fill:rgb(0%,0%,0%);fill-opacity:1;" d="M 208.300781 64.699219 C 208.167969 64.621094 208.019531 64.566406 207.863281 64.527344 C 207.703125 64.492188 207.527344 64.472656 207.339844 64.472656 C 206.660156 64.472656 206.140625 64.691406 205.777344 65.132812 C 205.414062 65.574219 205.234375 66.207031 205.234375 67.03125 L 205.234375 70.871094 L 204.03125 70.871094 L 204.03125 63.582031 L 205.234375 63.582031 L 205.234375 64.714844 C 205.488281 64.273438 205.816406 63.941406 206.21875 63.730469 C 206.621094 63.515625 207.113281 63.40625 207.691406 63.40625 C 207.773438 63.40625 207.863281 63.410156 207.964844 63.421875 C 208.0625 63.433594 208.175781 63.449219 208.292969 63.472656 Z M 208.300781 64.699219 "/>
<path style=" stroke:none;fill-rule:nonzero;fill:rgb(0%,0%,0%);fill-opacity:1;" d="M 219.675781 61.472656 L 219.675781 62.753906 C 219.175781 62.515625 218.707031 62.335938 218.261719 62.222656 C 217.820312 62.101562 217.390625 62.042969 216.980469 62.042969 C 216.265625 62.042969 215.710938 62.183594 215.324219 62.460938 C 214.933594 62.738281 214.738281 63.132812 214.738281 63.644531 C 214.738281 64.078125 214.867188 64.402344 215.128906 64.621094 C 215.386719 64.839844 215.875 65.015625 216.597656 65.148438 L 217.390625 65.3125 C 218.371094 65.5 219.09375 65.828125 219.5625 66.300781 C 220.027344 66.769531 220.261719 67.402344 220.261719 68.191406 C 220.261719 69.132812 219.945312 69.847656 219.3125 70.332031 C 218.683594 70.820312 217.757812 71.0625 216.539062 71.0625 C 216.078125 71.0625 215.589844 71.011719 215.070312 70.90625 C 214.550781 70.800781 214.015625 70.648438 213.457031 70.445312 L 213.457031 69.089844 C 213.992188 69.386719 214.515625 69.613281 215.027344 69.765625 C 215.539062 69.917969 216.042969 69.992188 216.539062 69.992188 C 217.289062 69.992188 217.867188 69.847656 218.273438 69.550781 C 218.683594 69.257812 218.886719 68.835938 218.886719 68.289062 C 218.886719 67.8125 218.742188 67.4375 218.449219 67.167969 C 218.15625 66.898438 217.675781 66.695312 217.007812 66.5625 L 216.203125 66.40625 C 215.222656 66.210938 214.515625 65.90625 214.074219 65.488281 C 213.636719 65.074219 213.417969 64.492188 213.417969 63.75 C 213.417969 62.890625 213.722656 62.214844 214.328125 61.71875 C 214.933594 61.222656 215.765625 60.976562 216.828125 60.976562 C 217.285156 60.976562 217.75 61.019531 218.222656 61.101562 C 218.695312 61.183594 219.179688 61.308594 219.675781 61.472656 Z M 219.675781 61.472656 "/>
<path style=" stroke:none;fill-rule:nonzero;fill:rgb(0%,0%,0%);fill-opacity:1;" d="M 228.496094 66.925781 L 228.496094 67.511719 L 222.988281 67.511719 C 223.042969 68.335938 223.289062 68.964844 223.734375 69.398438 C 224.179688 69.828125 224.796875 70.046875 225.59375 70.046875 C 226.050781 70.046875 226.5 69.988281 226.929688 69.878906 C 227.363281 69.765625 227.792969 69.59375 228.21875 69.367188 L 228.21875 70.503906 C 227.789062 70.683594 227.347656 70.824219 226.894531 70.917969 C 226.445312 71.015625 225.984375 71.0625 225.523438 71.0625 C 224.359375 71.0625 223.4375 70.722656 222.757812 70.046875 C 222.078125 69.371094 221.738281 68.453125 221.738281 67.296875 C 221.738281 66.105469 222.0625 65.160156 222.707031 64.457031 C 223.351562 63.757812 224.21875 63.40625 225.3125 63.40625 C 226.292969 63.40625 227.070312 63.722656 227.640625 64.355469 C 228.210938 64.984375 228.496094 65.84375 228.496094 66.925781 Z M 227.300781 66.574219 C 227.289062 65.921875 227.109375 65.398438 226.75 65.007812 C 226.390625 64.617188 225.917969 64.421875 225.328125 64.421875 C 224.660156 64.421875 224.125 64.609375 223.722656 64.988281 C 223.320312 65.367188 223.089844 65.898438 223.027344 66.582031 Z M 227.300781 66.574219 "/>
<path style=" stroke:none;fill-rule:nonzero;fill:rgb(0%,0%,0%);fill-opacity:1;" d="M 234.6875 64.699219 C 234.554688 64.621094 234.40625 64.566406 234.25 64.527344 C 234.089844 64.492188 233.914062 64.472656 233.726562 64.472656 C 233.046875 64.472656 232.527344 64.691406 232.164062 65.132812 C 231.800781 65.574219 231.621094 66.207031 231.621094 67.03125 L 231.621094 70.871094 L 230.417969 70.871094 L 230.417969 63.582031 L 231.621094 63.582031 L 231.621094 64.714844 C 231.875 64.273438 232.203125 63.941406 232.605469 63.730469 C 233.007812 63.515625 233.5 63.40625 234.078125 63.40625 C 234.160156 63.40625 234.25 63.410156 234.351562 63.421875 C 234.449219 63.433594 234.5625 63.449219 234.679688 63.472656 Z M 234.6875 64.699219 "/>
<path style=" stroke:none;fill-rule:nonzero;fill:rgb(0%,0%,0%);fill-opacity:1;" d="M 235.945312 63.582031 L 237.140625 63.582031 L 237.140625 70.871094 L 235.945312 70.871094 Z M 235.945312 60.742188 L 237.140625 60.742188 L 237.140625 62.261719 L 235.945312 62.261719 Z M 235.945312 60.742188 "/>
<path style=" stroke:none;fill-rule:nonzero;fill:rgb(0%,0%,0%);fill-opacity:1;" d="M 245.886719 66.925781 L 245.886719 67.511719 L 240.378906 67.511719 C 240.429688 68.335938 240.679688 68.964844 241.125 69.398438 C 241.570312 69.828125 242.1875 70.046875 242.980469 70.046875 C 243.441406 70.046875 243.886719 69.988281 244.320312 69.878906 C 244.75 69.765625 245.179688 69.59375 245.605469 69.367188 L 245.605469 70.503906 C 245.175781 70.683594 244.734375 70.824219 244.285156 70.917969 C 243.832031 71.015625 243.375 71.0625 242.910156 71.0625 C 241.746094 71.0625 240.824219 70.722656 240.148438 70.046875 C 239.46875 69.371094 239.128906 68.453125 239.128906 67.296875 C 239.128906 66.105469 239.449219 65.160156 240.09375 64.457031 C 240.738281 63.757812 241.609375 63.40625 242.703125 63.40625 C 243.683594 63.40625 244.460938 63.722656 245.03125 64.355469 C 245.601562 64.984375 245.886719 65.84375 245.886719 66.925781 Z M 244.6875 66.574219 C 244.679688 65.921875 244.496094 65.398438 244.136719 65.007812 C 243.78125 64.617188 243.304688 64.421875 242.714844 64.421875 C 242.046875 64.421875 241.511719 64.609375 241.113281 64.988281 C 240.710938 65.367188 240.480469 65.898438 240.417969 66.582031 Z M 244.6875 66.574219 "/>
<path style=" stroke:none;fill-rule:nonzero;fill:rgb(0%,0%,0%);fill-opacity:1;" d="M 252.5 63.796875 L 252.5 64.929688 C 252.164062 64.753906 251.8125 64.625 251.445312 64.539062 C 251.082031 64.453125 250.703125 64.410156 250.3125 64.410156 C 249.71875 64.410156 249.273438 64.5 248.976562 64.679688 C 248.679688 64.863281 248.527344 65.136719 248.527344 65.503906 C 248.527344 65.78125 248.636719 65.996094 248.847656 66.15625 C 249.058594 66.316406 249.488281 66.464844 250.132812 66.609375 L 250.542969 66.699219 C 251.390625 66.882812 251.996094 67.140625 252.355469 67.472656 C 252.710938 67.804688 252.890625 68.265625 252.890625 68.859375 C 252.890625 69.539062 252.625 70.074219 252.085938 70.472656 C 251.550781 70.867188 250.816406 71.0625 249.878906 71.0625 C 249.488281 71.0625 249.078125 71.023438 248.65625 70.949219 C 248.234375 70.871094 247.785156 70.757812 247.320312 70.605469 L 247.320312 69.367188 C 247.761719 69.597656 248.199219 69.773438 248.628906 69.886719 C 249.054688 70 249.480469 70.058594 249.902344 70.058594 C 250.46875 70.058594 250.902344 69.960938 251.203125 69.769531 C 251.507812 69.574219 251.660156 69.304688 251.660156 68.953125 C 251.660156 68.628906 251.550781 68.378906 251.332031 68.203125 C 251.113281 68.03125 250.632812 67.863281 249.890625 67.703125 L 249.472656 67.605469 C 248.730469 67.449219 248.195312 67.210938 247.863281 66.886719 C 247.535156 66.5625 247.371094 66.117188 247.371094 65.554688 C 247.371094 64.867188 247.613281 64.339844 248.101562 63.964844 C 248.585938 63.59375 249.277344 63.40625 250.171875 63.40625 C 250.613281 63.40625 251.027344 63.4375 251.417969 63.503906 C 251.808594 63.566406 252.171875 63.664062 252.5 63.796875 Z M 252.5 63.796875 "/>
<path style="fill:none;stroke-width:1.5;stroke-linecap:butt;stroke-linejoin:round;stroke:rgb(100%,0%,0%);stroke-opacity:1;stroke-dasharray:1.5,2.475;stroke-miterlimit:4;" d="M 49.602539 64.333008 L 69.603516 64.333008 " transform="matrix(1.333333,0,0,1.333333,0,-0.000000000000014211)"/>
<path style=" stroke:none;fill-rule:nonzero;fill:rgb(0%,0%,0%);fill-opacity:1;" d="M 106.09375 81.804688 L 106.09375 89.363281 L 107.683594 89.363281 C 109.023438 89.363281 110.007812 89.058594 110.628906 88.453125 C 111.25 87.84375 111.5625 86.882812 111.5625 85.574219 C 111.5625 84.273438 111.25 83.316406 110.628906 82.710938 C 110.007812 82.105469 109.023438 81.804688 107.683594 81.804688 Z M 104.777344 80.722656 L 107.480469 80.722656 C 109.363281 80.722656 110.746094 81.113281 111.628906 81.898438 C 112.507812 82.679688 112.949219 83.90625 112.949219 85.574219 C 112.949219 87.25 112.507812 88.480469 111.621094 89.265625 C 110.734375 90.050781 109.355469 90.445312 107.480469 90.445312 L 104.777344 90.445312 Z M 104.777344 80.722656 "/>
<path style=" stroke:none;fill-rule:nonzero;fill:rgb(0%,0%,0%);fill-opacity:1;" d="M 121.230469 86.496094 L 121.230469 87.082031 L 115.722656 87.082031 C 115.777344 87.910156 116.023438 88.535156 116.46875 88.96875 C 116.914062 89.402344 117.53125 89.617188 118.328125 89.617188 C 118.785156 89.617188 119.234375 89.558594 119.664062 89.449219 C 120.097656 89.335938 120.527344 89.164062 120.953125 88.941406 L 120.953125 90.074219 C 120.523438 90.253906 120.082031 90.394531 119.628906 90.488281 C 119.179688 90.585938 118.71875 90.632812 118.257812 90.632812 C 117.09375 90.632812 116.171875 90.296875 115.492188 89.617188 C 114.8125 88.941406 114.472656 88.023438 114.472656 86.867188 C 114.472656 85.675781 114.796875 84.730469 115.441406 84.027344 C 116.085938 83.328125 116.953125 82.976562 118.046875 82.976562 C 119.027344 82.976562 119.804688 83.292969 120.375 83.925781 C 120.945312 84.554688 121.230469 85.414062 121.230469 86.496094 Z M 120.035156 86.144531 C 120.023438 85.492188 119.84375 84.96875 119.484375 84.578125 C 119.125 84.1875 118.652344 83.992188 118.0625 83.992188 C 117.394531 83.992188 116.859375 84.179688 116.457031 84.558594 C 116.054688 84.9375 115.824219 85.46875 115.761719 86.152344 Z M 120.035156 86.144531 "/>
<path style=" stroke:none;fill-rule:nonzero;fill:rgb(0%,0%,0%);fill-opacity:1;" d="M 127.996094 86.710938 C 127.996094 85.84375 127.816406 85.171875 127.457031 84.695312 C 127.101562 84.21875 126.597656 83.980469 125.953125 83.980469 C 125.308594 83.980469 124.808594 84.21875 124.453125 84.695312 C 124.09375 85.171875 123.914062 85.84375 123.914062 86.710938 C 123.914062 87.578125 124.09375 88.246094 124.453125 88.726562 C 124.808594 89.203125 125.308594 89.441406 125.953125 89.441406 C 126.597656 89.441406 127.101562 89.203125 127.457031 88.726562 C 127.816406 88.246094 127.996094 87.578125 127.996094 86.710938 Z M 129.191406 89.539062 C 129.191406 90.78125 128.917969 91.703125 128.367188 92.308594 C 127.816406 92.914062 126.972656 93.214844 125.835938 93.214844 C 125.414062 93.214844 125.015625 93.183594 124.644531 93.121094 C 124.269531 93.058594 123.90625 92.964844 123.554688 92.832031 L 123.554688 91.667969 C 123.90625 91.859375 124.253906 92 124.597656 92.089844 C 124.941406 92.179688 125.289062 92.226562 125.644531 92.226562 C 126.429688 92.226562 127.019531 92.023438 127.410156 91.613281 C 127.800781 91.203125 127.996094 90.582031 127.996094 89.753906 L 127.996094 89.160156 C 127.746094 89.589844 127.429688 89.914062 127.046875 90.125 C 126.660156 90.335938 126.195312 90.445312 125.65625 90.445312 C 124.765625 90.445312 124.042969 90.101562 123.496094 89.421875 C 122.949219 88.742188 122.675781 87.835938 122.675781 86.710938 C 122.675781 85.585938 122.949219 84.679688 123.496094 84 C 124.042969 83.316406 124.765625 82.976562 125.65625 82.976562 C 126.195312 82.976562 126.660156 83.082031 127.046875 83.296875 C 127.429688 83.507812 127.746094 83.828125 127.996094 84.257812 L 127.996094 83.152344 L 129.191406 83.152344 Z M 129.191406 89.539062 "/>
<path style=" stroke:none;fill-rule:nonzero;fill:rgb(0%,0%,0%);fill-opacity:1;" d="M 135.886719 84.269531 C 135.75 84.191406 135.605469 84.136719 135.445312 84.101562 C 135.289062 84.0625 135.113281 84.042969 134.921875 84.042969 C 134.246094 84.042969 133.726562 84.265625 133.363281 84.703125 C 133 85.144531 132.820312 85.777344 132.820312 86.601562 L 132.820312 90.445312 L 131.613281 90.445312 L 131.613281 83.152344 L 132.820312 83.152344 L 132.820312 84.285156 C 133.070312 83.84375 133.398438 83.515625 133.800781 83.300781 C 134.207031 83.085938 134.699219 82.976562 135.273438 82.976562 C 135.355469 82.976562 135.449219 82.984375 135.546875 82.992188 C 135.648438 83.003906 135.757812 83.019531 135.878906 83.042969 Z M 135.886719 84.269531 "/>
<path style=" stroke:none;fill-rule:nonzero;fill:rgb(0%,0%,0%);fill-opacity:1;" d="M 143.078125 86.496094 L 143.078125 87.082031 L 137.570312 87.082031 C 137.625 87.910156 137.871094 88.535156 138.316406 88.96875 C 138.761719 89.402344 139.382812 89.617188 140.175781 89.617188 C 140.636719 89.617188 141.082031 89.558594 141.511719 89.449219 C 141.945312 89.335938 142.375 89.164062 142.800781 88.941406 L 142.800781 90.074219 C 142.371094 90.253906 141.929688 90.394531 141.476562 90.488281 C 141.027344 90.585938 140.570312 90.632812 140.105469 90.632812 C 138.941406 90.632812 138.019531 90.296875 137.339844 89.617188 C 136.660156 88.941406 136.320312 88.023438 136.320312 86.867188 C 136.320312 85.675781 136.644531 84.730469 137.289062 84.027344 C 137.933594 83.328125 138.800781 82.976562 139.898438 82.976562 C 140.878906 82.976562 141.652344 83.292969 142.222656 83.925781 C 142.792969 84.554688 143.078125 85.414062 143.078125 86.496094 Z M 141.882812 86.144531 C 141.875 85.492188 141.691406 84.96875 141.332031 84.578125 C 140.972656 84.1875 140.5 83.992188 139.910156 83.992188 C 139.242188 83.992188 138.707031 84.179688 138.304688 84.558594 C 137.902344 84.9375 137.671875 85.46875 137.609375 86.152344 Z M 141.882812 86.144531 "/>
<path style=" stroke:none;fill-rule:nonzero;fill:rgb(0%,0%,0%);fill-opacity:1;" d="M 151.28125 86.496094 L 151.28125 87.082031 L 145.773438 87.082031 C 145.828125 87.910156 146.074219 88.535156 146.519531 88.96875 C 146.964844 89.402344 147.585938 89.617188 148.378906 89.617188 C 148.839844 89.617188 149.285156 89.558594 149.714844 89.449219 C 150.148438 89.335938 150.578125 89.164062 151.003906 88.941406 L 151.003906 90.074219 C 150.574219 90.253906 150.132812 90.394531 149.679688 90.488281 C 149.230469 90.585938 148.773438 90.632812 148.308594 90.632812 C 147.144531 90.632812 146.222656 90.296875 145.542969 89.617188 C 144.863281 88.941406 144.523438 88.023438 144.523438 86.867188 C 144.523438 85.675781 144.847656 84.730469 145.492188 84.027344 C 146.136719 83.328125 147.003906 82.976562 148.101562 82.976562 C 149.082031 82.976562 149.855469 83.292969 150.425781 83.925781 C 150.996094 84.554688 151.28125 85.414062 151.28125 86.496094 Z M 150.085938 86.144531 C 150.078125 85.492188 149.894531 84.96875 149.535156 84.578125 C 149.175781 84.1875 148.703125 83.992188 148.113281 83.992188 C 147.445312 83.992188 146.910156 84.179688 146.507812 84.558594 C 146.105469 84.9375 145.875 85.46875 145.8125 86.152344 Z M 150.085938 86.144531 "/>
<path style=" stroke:none;fill-rule:nonzero;fill:rgb(0%,0%,0%);fill-opacity:1;" d="M 157.671875 80.722656 L 162.832031 80.722656 L 162.832031 81.832031 L 158.875 81.832031 L 158.875 84.210938 C 159.066406 84.148438 159.253906 84.097656 159.445312 84.066406 C 159.636719 84.035156 159.828125 84.019531 160.019531 84.019531 C 161.105469 84.019531 161.964844 84.316406 162.597656 84.910156 C 163.230469 85.503906 163.550781 86.308594 163.550781 87.324219 C 163.550781 88.371094 163.222656 89.183594 162.574219 89.765625 C 161.921875 90.34375 161.003906 90.632812 159.816406 90.632812 C 159.410156 90.632812 158.992188 90.597656 158.570312 90.527344 C 158.148438 90.460938 157.710938 90.355469 157.261719 90.214844 L 157.261719 88.894531 C 157.648438 89.105469 158.054688 89.265625 158.46875 89.367188 C 158.886719 89.472656 159.328125 89.523438 159.792969 89.523438 C 160.542969 89.523438 161.136719 89.328125 161.574219 88.933594 C 162.011719 88.539062 162.234375 88.003906 162.234375 87.324219 C 162.234375 86.648438 162.011719 86.113281 161.574219 85.71875 C 161.136719 85.324219 160.542969 85.125 159.792969 85.125 C 159.441406 85.125 159.089844 85.164062 158.738281 85.242188 C 158.390625 85.320312 158.035156 85.441406 157.671875 85.605469 Z M 157.671875 80.722656 "/>
<path style=" stroke:none;fill-rule:nonzero;fill:rgb(0%,0%,0%);fill-opacity:1;" d="M 168.914062 80.722656 L 177.136719 80.722656 L 177.136719 81.832031 L 173.683594 81.832031 L 173.683594 90.445312 L 172.363281 90.445312 L 172.363281 81.832031 L 168.914062 81.832031 Z M 168.914062 80.722656 "/>
<path style=" stroke:none;fill-rule:nonzero;fill:rgb(0%,0%,0%);fill-opacity:1;" d="M 179.46875 86.777344 C 178.5 86.777344 177.828125 86.890625 177.453125 87.109375 C 177.082031 87.332031 176.894531 87.710938 176.894531 88.242188 C 176.894531 88.667969 177.035156 89.007812 177.316406 89.257812 C 177.597656 89.503906 177.976562 89.628906 178.457031 89.628906 C 179.121094 89.628906 179.65625 89.394531 180.058594 88.921875 C 180.457031 88.453125 180.660156 87.828125 180.660156 87.046875 L 180.660156 86.777344 Z M 181.855469 86.285156 L 181.855469 90.445312 L 180.660156 90.445312 L 180.660156 89.335938 C 180.386719 89.777344 180.042969 90.105469 179.636719 90.316406 C 179.226562 90.527344 178.730469 90.632812 178.136719 90.632812 C 177.390625 90.632812 176.796875 90.421875 176.355469 90.003906 C 175.917969 89.585938 175.695312 89.023438 175.695312 88.320312 C 175.695312 87.5 175.972656 86.882812 176.519531 86.464844 C 177.070312 86.050781 177.890625 85.839844 178.976562 85.839844 L 180.660156 85.839844 L 180.660156 85.722656 C 180.660156 85.171875 180.476562 84.746094 180.117188 84.445312 C 179.753906 84.140625 179.242188 83.992188 178.589844 83.992188 C 178.171875 83.992188 177.765625 84.042969 177.371094 84.140625 C 176.976562 84.242188 176.597656 84.390625 176.230469 84.589844 L 176.230469 83.484375 C 176.667969 83.3125 177.09375 83.1875 177.507812 83.105469 C 177.917969 83.019531 178.320312 82.976562 178.710938 82.976562 C 179.765625 82.976562 180.554688 83.25 181.074219 83.796875 C 181.597656 84.34375 181.855469 85.171875 181.855469 86.285156 Z M 181.855469 86.285156 "/>
<path style=" stroke:none;fill-rule:nonzero;fill:rgb(0%,0%,0%);fill-opacity:1;" d="M 187.355469 91.121094 C 187.019531 91.988281 186.6875 92.554688 186.367188 92.820312 C 186.046875 93.085938 185.617188 93.214844 185.078125 93.214844 L 184.121094 93.214844 L 184.121094 92.214844 L 184.824219 92.214844 C 185.15625 92.214844 185.410156 92.136719 185.59375 91.980469 C 185.777344 91.824219 185.976562 91.453125 186.199219 90.871094 L 186.414062 90.328125 L 183.464844 83.152344 L 184.734375 83.152344 L 187.011719 88.855469 L 189.292969 83.152344 L 190.5625 83.152344 Z M 187.355469 91.121094 "/>
<path style=" stroke:none;fill-rule:nonzero;fill:rgb(0%,0%,0%);fill-opacity:1;" d="M 192.214844 80.3125 L 193.410156 80.3125 L 193.410156 90.445312 L 192.214844 90.445312 Z M 192.214844 80.3125 "/>
<path style=" stroke:none;fill-rule:nonzero;fill:rgb(0%,0%,0%);fill-opacity:1;" d="M 198.742188 83.992188 C 198.101562 83.992188 197.59375 84.242188 197.21875 84.742188 C 196.847656 85.246094 196.660156 85.933594 196.660156 86.804688 C 196.660156 87.675781 196.84375 88.363281 197.214844 88.863281 C 197.589844 89.367188 198.097656 89.617188 198.742188 89.617188 C 199.382812 89.617188 199.886719 89.367188 200.261719 88.863281 C 200.632812 88.359375 200.820312 87.671875 200.820312 86.804688 C 200.820312 85.941406 200.632812 85.253906 200.261719 84.75 C 199.886719 84.246094 199.382812 83.992188 198.742188 83.992188 Z M 198.742188 82.976562 C 199.785156 82.976562 200.601562 83.316406 201.199219 83.992188 C 201.792969 84.671875 202.089844 85.605469 202.089844 86.804688 C 202.089844 87.996094 201.792969 88.933594 201.199219 89.613281 C 200.601562 90.292969 199.785156 90.632812 198.742188 90.632812 C 197.699219 90.632812 196.878906 90.292969 196.285156 89.613281 C 195.695312 88.933594 195.398438 87.996094 195.398438 86.804688 C 195.398438 85.605469 195.695312 84.671875 196.285156 83.992188 C 196.878906 83.316406 197.699219 82.976562 198.742188 82.976562 Z M 198.742188 82.976562 "/>
<path style=" stroke:none;fill-rule:nonzero;fill:rgb(0%,0%,0%);fill-opacity:1;" d="M 208.300781 84.269531 C 208.167969 84.191406 208.019531 84.136719 207.863281 84.101562 C 207.703125 84.0625 207.527344 84.042969 207.339844 84.042969 C 206.660156 84.042969 206.140625 84.265625 205.777344 84.703125 C 205.414062 85.144531 205.234375 85.777344 205.234375 86.601562 L 205.234375 90.445312 L 204.03125 90.445312 L 204.03125 83.152344 L 205.234375 83.152344 L 205.234375 84.285156 C 205.488281 83.84375 205.816406 83.515625 206.21875 83.300781 C 206.621094 83.085938 207.113281 82.976562 207.691406 82.976562 C 207.773438 82.976562 207.863281 82.984375 207.964844 82.992188 C 208.0625 83.003906 208.175781 83.019531 208.292969 83.042969 Z M 208.300781 84.269531 "/>
<path style=" stroke:none;fill-rule:nonzero;fill:rgb(0%,0%,0%);fill-opacity:1;" d="M 219.675781 81.042969 L 219.675781 82.324219 C 219.175781 82.085938 218.707031 81.910156 218.261719 81.792969 C 217.820312 81.671875 217.390625 81.613281 216.980469 81.613281 C 216.265625 81.613281 215.710938 81.753906 215.324219 82.03125 C 214.933594 82.308594 214.738281 82.703125 214.738281 83.214844 C 214.738281 83.648438 214.867188 83.972656 215.128906 84.191406 C 215.386719 84.410156 215.875 84.585938 216.597656 84.722656 L 217.390625 84.882812 C 218.371094 85.070312 219.09375 85.398438 219.5625 85.871094 C 220.027344 86.339844 220.261719 86.972656 220.261719 87.761719 C 220.261719 88.703125 219.945312 89.417969 219.3125 89.902344 C 218.683594 90.390625 217.757812 90.632812 216.539062 90.632812 C 216.078125 90.632812 215.589844 90.582031 215.070312 90.476562 C 214.550781 90.371094 214.015625 90.21875 213.457031 90.015625 L 213.457031 88.660156 C 213.992188 88.960938 214.515625 89.183594 215.027344 89.335938 C 215.539062 89.488281 216.042969 89.566406 216.539062 89.566406 C 217.289062 89.566406 217.867188 89.417969 218.273438 89.121094 C 218.683594 88.828125 218.886719 88.40625 218.886719 87.859375 C 218.886719 87.382812 218.742188 87.007812 218.449219 86.738281 C 218.15625 86.46875 217.675781 86.269531 217.007812 86.132812 L 216.203125 85.976562 C 215.222656 85.78125 214.515625 85.476562 214.074219 85.058594 C 213.636719 84.644531 213.417969 84.0625 213.417969 83.320312 C 213.417969 82.460938 213.722656 81.785156 214.328125 81.289062 C 214.933594 80.796875 215.765625 80.546875 216.828125 80.546875 C 217.285156 80.546875 217.75 80.589844 218.222656 80.671875 C 218.695312 80.753906 219.179688 80.878906 219.675781 81.042969 Z M 219.675781 81.042969 "/>
<path style=" stroke:none;fill-rule:nonzero;fill:rgb(0%,0%,0%);fill-opacity:1;" d="M 228.496094 86.496094 L 228.496094 87.082031 L 222.988281 87.082031 C 223.042969 87.910156 223.289062 88.535156 223.734375 88.96875 C 224.179688 89.402344 224.796875 89.617188 225.59375 89.617188 C 226.050781 89.617188 226.5 89.558594 226.929688 89.449219 C 227.363281 89.335938 227.792969 89.164062 228.21875 88.941406 L 228.21875 90.074219 C 227.789062 90.253906 227.347656 90.394531 226.894531 90.488281 C 226.445312 90.585938 225.984375 90.632812 225.523438 90.632812 C 224.359375 90.632812 223.4375 90.296875 222.757812 89.617188 C 222.078125 88.941406 221.738281 88.023438 221.738281 86.867188 C 221.738281 85.675781 222.0625 84.730469 222.707031 84.027344 C 223.351562 83.328125 224.21875 82.976562 225.3125 82.976562 C 226.292969 82.976562 227.070312 83.292969 227.640625 83.925781 C 228.210938 84.554688 228.496094 85.414062 228.496094 86.496094 Z M 227.300781 86.144531 C 227.289062 85.492188 227.109375 84.96875 226.75 84.578125 C 226.390625 84.1875 225.917969 83.992188 225.328125 83.992188 C 224.660156 83.992188 224.125 84.179688 223.722656 84.558594 C 223.320312 84.9375 223.089844 85.46875 223.027344 86.152344 Z M 227.300781 86.144531 "/>
<path style=" stroke:none;fill-rule:nonzero;fill:rgb(0%,0%,0%);fill-opacity:1;" d="M 234.6875 84.269531 C 234.554688 84.191406 234.40625 84.136719 234.25 84.101562 C 234.089844 84.0625 233.914062 84.042969 233.726562 84.042969 C 233.046875 84.042969 232.527344 84.265625 232.164062 84.703125 C 231.800781 85.144531 231.621094 85.777344 231.621094 86.601562 L 231.621094 90.445312 L 230.417969 90.445312 L 230.417969 83.152344 L 231.621094 83.152344 L 231.621094 84.285156 C 231.875 83.84375 232.203125 83.515625 232.605469 83.300781 C 233.007812 83.085938 233.5 82.976562 234.078125 82.976562 C 234.160156 82.976562 234.25 82.984375 234.351562 82.992188 C 234.449219 83.003906 234.5625 83.019531 234.679688 83.042969 Z M 234.6875 84.269531 "/>
<path style=" stroke:none;fill-rule:nonzero;fill:rgb(0%,0%,0%);fill-opacity:1;" d="M 235.945312 83.152344 L 237.140625 83.152344 L 237.140625 90.445312 L 235.945312 90.445312 Z M 235.945312 80.3125 L 237.140625 80.3125 L 237.140625 81.832031 L 235.945312 81.832031 Z M 235.945312 80.3125 "/>
<path style=" stroke:none;fill-rule:nonzero;fill:rgb(0%,0%,0%);fill-opacity:1;" d="M 245.886719 86.496094 L 245.886719 87.082031 L 240.378906 87.082031 C 240.429688 87.910156 240.679688 88.535156 241.125 88.96875 C 241.570312 89.402344 242.1875 89.617188 242.980469 89.617188 C 243.441406 89.617188 243.886719 89.558594 244.320312 89.449219 C 244.75 89.335938 245.179688 89.164062 245.605469 88.941406 L 245.605469 90.074219 C 245.175781 90.253906 244.734375 90.394531 244.285156 90.488281 C 243.832031 90.585938 243.375 90.632812 242.910156 90.632812 C 241.746094 90.632812 240.824219 90.296875 240.148438 89.617188 C 239.46875 88.941406 239.128906 88.023438 239.128906 86.867188 C 239.128906 85.675781 239.449219 84.730469 240.09375 84.027344 C 240.738281 83.328125 241.609375 82.976562 242.703125 82.976562 C 243.683594 82.976562 244.460938 83.292969 245.03125 83.925781 C 245.601562 84.554688 245.886719 85.414062 245.886719 86.496094 Z M 244.6875 86.144531 C 244.679688 85.492188 244.496094 84.96875 244.136719 84.578125 C 243.78125 84.1875 243.304688 83.992188 242.714844 83.992188 C 242.046875 83.992188 241.511719 84.179688 241.113281 84.558594 C 240.710938 84.9375 240.480469 85.46875 240.417969 86.152344 Z M 244.6875 86.144531 "/>
<path style=" stroke:none;fill-rule:nonzero;fill:rgb(0%,0%,0%);fill-opacity:1;" d="M 252.5 83.367188 L 252.5 84.5 C 252.164062 84.328125 251.8125 84.195312 251.445312 84.109375 C 251.082031 84.023438 250.703125 83.980469 250.3125 83.980469 C 249.71875 83.980469 249.273438 84.070312 248.976562 84.253906 C 248.679688 84.433594 248.527344 84.707031 248.527344 85.074219 C 248.527344 85.351562 248.636719 85.570312 248.847656 85.726562 C 249.058594 85.886719 249.488281 86.035156 250.132812 86.179688 L 250.542969 86.269531 C 251.390625 86.453125 251.996094 86.710938 252.355469 87.042969 C 252.710938 87.375 252.890625 87.835938 252.890625 88.429688 C 252.890625 89.109375 252.625 89.644531 252.085938 90.042969 C 251.550781 90.4375 250.816406 90.632812 249.878906 90.632812 C 249.488281 90.632812 249.078125 90.59375 248.65625 90.519531 C 248.234375 90.441406 247.785156 90.328125 247.320312 90.175781 L 247.320312 88.941406 C 247.761719 89.171875 248.199219 89.34375 248.628906 89.457031 C 249.054688 89.570312 249.480469 89.628906 249.902344 89.628906 C 250.46875 89.628906 250.902344 89.53125 251.203125 89.339844 C 251.507812 89.148438 251.660156 88.875 251.660156 88.523438 C 251.660156 88.199219 251.550781 87.949219 251.332031 87.773438 C 251.113281 87.601562 250.632812 87.433594 249.890625 87.273438 L 249.472656 87.175781 C 248.730469 87.019531 248.195312 86.78125 247.863281 86.457031 C 247.535156 86.132812 247.371094 85.6875 247.371094 85.125 C 247.371094 84.4375 247.613281 83.910156 248.101562 83.539062 C 248.585938 83.164062 249.277344 82.976562 250.171875 82.976562 C 250.613281 82.976562 251.027344 83.007812 251.417969 83.074219 C 251.808594 83.140625 252.171875 83.234375 252.5 83.367188 Z M 252.5 83.367188 "/>
</g>
</svg>
