<?xml version="1.0" encoding="UTF-8"?>
<svg xmlns="http://www.w3.org/2000/svg" xmlns:xlink="http://www.w3.org/1999/xlink" width="384.537516" height="226.237508" viewBox="0 0 384.537516 226.237508" version="1.1">
<defs>
<clipPath id="clip1">
  <path d="M 64 9.601562 L 66 9.601562 L 66 194.398438 L 64 194.398438 Z M 64 9.601562 "/>
</clipPath>
<clipPath id="clip2">
  <path d="M 112 9.601562 L 114 9.601562 L 114 194.398438 L 112 194.398438 Z M 112 9.601562 "/>
</clipPath>
<clipPath id="clip3">
  <path d="M 159 9.601562 L 162 9.601562 L 162 194.398438 L 159 194.398438 Z M 159 9.601562 "/>
</clipPath>
<clipPath id="clip4">
  <path d="M 207 9.601562 L 210 9.601562 L 210 194.398438 L 207 194.398438 Z M 207 9.601562 "/>
</clipPath>
<clipPath id="clip5">
  <path d="M 255 9.601562 L 258 9.601562 L 258 194.398438 L 255 194.398438 Z M 255 9.601562 "/>
</clipPath>
<clipPath id="clip6">
  <path d="M 303 9.601562 L 305 9.601562 L 305 194.398438 L 303 194.398438 Z M 303 9.601562 "/>
</clipPath>
<clipPath id="clip7">
  <path d="M 351 9.601562 L 353 9.601562 L 353 194.398438 L 351 194.398438 Z M 351 9.601562 "/>
</clipPath>
<clipPath id="clip8">
  <path d="M 40.136719 185 L 374.9375 185 L 374.9375 187 L 40.136719 187 Z M 40.136719 185 "/>
</clipPath>
<clipPath id="clip9">
  <path d="M 40.136719 151 L 374.9375 151 L 374.9375 154 L 40.136719 154 Z M 40.136719 151 "/>
</clipPath>
<clipPath id="clip10">
  <path d="M 40.136719 118 L 374.9375 118 L 374.9375 120 L 40.136719 120 Z M 40.136719 118 "/>
</clipPath>
<clipPath id="clip11">
  <path d="M 40.136719 84 L 374.9375 84 L 374.9375 86 L 40.136719 86 Z M 40.136719 84 "/>
</clipPath>
<clipPath id="clip12">
  <path d="M 40.136719 50 L 374.9375 50 L 374.9375 53 L 40.136719 53 Z M 40.136719 50 "/>
</clipPath>
<clipPath id="clip13">
  <path d="M 40.136719 17 L 374.9375 17 L 374.9375 19 L 40.136719 19 Z M 40.136719 17 "/>
</clipPath>
<filter id="alpha" filterUnits="objectBoundingBox" x="0%" y="0%" width="100%" height="100%">
  <feColorMatrix type="matrix" in="SourceGraphic" values="0 0 0 0 1 0 0 0 0 1 0 0 0 0 1 0 0 0 1 0"/>
</filter>
<mask id="mask0">
  <g filter="url(#alpha)">
<rect x="0" y="0" width="384.537516" height="226.237508" style="fill:rgb(0%,0%,0%);fill-opacity:0.8;stroke:none;"/>
  </g>
</mask>
<clipPath id="clip14">
  <rect x="0" y="0" width="385" height="227"/>
</clipPath>
<g id="surface5" clip-path="url(#clip14)">
<path style="fill-rule:nonzero;fill:rgb(100%,100%,100%);fill-opacity:1;stroke-width:1;stroke-linecap:butt;stroke-linejoin:miter;stroke:rgb(80.000001%,80.000001%,80.000001%);stroke-opacity:1;stroke-miterlimit:4;" d="M 37.104492 44.557617 L 111.228516 44.557617 C 112.561523 44.557617 113.229492 43.889648 113.229492 42.556641 L 113.229492 14.200195 C 113.229492 12.867188 112.561523 12.199219 111.228516 12.199219 L 37.104492 12.199219 C 35.768555 12.199219 35.103516 12.867188 35.103516 14.200195 L 35.103516 42.556641 C 35.103516 43.889648 35.768555 44.557617 37.104492 44.557617 Z M 37.104492 44.557617 " transform="matrix(1.333333,0,0,1.333333,0,-0.000000000000014211)"/>
</g>
</defs>
<g id="surface1">
<path style=" stroke:none;fill-rule:nonzero;fill:rgb(100%,100%,100%);fill-opacity:1;" d="M 0 226.238281 L 384.539062 226.238281 L 384.539062 0 L 0 0 Z M 0 226.238281 "/>
<path style=" stroke:none;fill-rule:nonzero;fill:rgb(100%,100%,100%);fill-opacity:1;" d="M 40.136719 194.398438 L 374.9375 194.398438 L 374.9375 9.601562 L 40.136719 9.601562 Z M 40.136719 194.398438 "/>
<g clip-path="url(#clip1)" clip-rule="nonzero">
<path style="fill:none;stroke-width:0.8;stroke-linecap:square;stroke-linejoin:round;stroke:rgb(69.01961%,69.01961%,69.01961%);stroke-opacity:1;stroke-miterlimit:4;" d="M 48.694336 145.798828 L 48.694336 7.201172 " transform="matrix(1.333333,0,0,1.333333,0,-0.000000000000014211)"/>
</g>
<path style="fill:none;stroke-width:0.8;stroke-linecap:butt;stroke-linejoin:round;stroke:rgb(0%,0%,0%);stroke-opacity:1;stroke-miterlimit:4;" d="M -0.000812531 -0.00117493 L -0.000812531 3.499802 " transform="matrix(1.333333,0,0,1.333333,64.926865,194.400004)"/>
<path style=" stroke:none;fill-rule:nonzero;fill:rgb(0%,0%,0%);fill-opacity:1;" d="M 50.152344 209.132812 L 58.496094 209.132812 L 58.496094 210.238281 L 50.152344 210.238281 Z M 50.152344 209.132812 "/>
<path style=" stroke:none;fill-rule:nonzero;fill:rgb(0%,0%,0%);fill-opacity:1;" d="M 61.003906 204.144531 L 67.253906 204.144531 L 67.253906 204.703125 L 63.726562 213.863281 L 62.351562 213.863281 L 65.671875 205.253906 L 61.003906 205.253906 Z M 61.003906 204.144531 "/>
<path style=" stroke:none;fill-rule:nonzero;fill:rgb(0%,0%,0%);fill-opacity:1;" d="M 69.816406 212.210938 L 71.191406 212.210938 L 71.191406 213.863281 L 69.816406 213.863281 Z M 69.816406 212.210938 "/>
<path style=" stroke:none;fill-rule:nonzero;fill:rgb(0%,0%,0%);fill-opacity:1;" d="M 74.070312 204.144531 L 79.234375 204.144531 L 79.234375 205.253906 L 75.273438 205.253906 L 75.273438 207.632812 C 75.464844 207.566406 75.65625 207.519531 75.847656 207.488281 C 76.039062 207.457031 76.230469 207.441406 76.421875 207.441406 C 77.503906 207.441406 78.363281 207.738281 79 208.332031 C 79.632812 208.925781 79.949219 209.730469 79.949219 210.746094 C 79.949219 211.792969 79.625 212.605469 78.972656 213.183594 C 78.320312 213.765625 77.402344 214.054688 76.21875 214.054688 C 75.8125 214.054688 75.394531 214.019531 74.972656 213.949219 C 74.550781 213.878906 74.113281 213.777344 73.660156 213.636719 L 73.660156 212.316406 C 74.050781 212.527344 74.453125 212.683594 74.871094 212.789062 C 75.289062 212.894531 75.726562 212.945312 76.191406 212.945312 C 76.941406 212.945312 77.539062 212.75 77.976562 212.355469 C 78.414062 211.960938 78.632812 211.421875 78.632812 210.746094 C 78.632812 210.070312 78.414062 209.535156 77.976562 209.140625 C 77.539062 208.742188 76.941406 208.546875 76.191406 208.546875 C 75.839844 208.546875 75.488281 208.585938 75.140625 208.664062 C 74.792969 208.742188 74.433594 208.863281 74.070312 209.027344 Z M 74.070312 204.144531 "/>
<g clip-path="url(#clip2)" clip-rule="nonzero">
<path style="fill:none;stroke-width:0.8;stroke-linecap:square;stroke-linejoin:round;stroke:rgb(69.01961%,69.01961%,69.01961%);stroke-opacity:1;stroke-miterlimit:4;" d="M 84.585937 145.798828 L 84.585937 7.201172 " transform="matrix(1.333333,0,0,1.333333,0,-0.000000000000014211)"/>
</g>
<path style="fill:none;stroke-width:0.8;stroke-linecap:butt;stroke-linejoin:round;stroke:rgb(0%,0%,0%);stroke-opacity:1;stroke-miterlimit:4;" d="M -0.00115204 -0.00117493 L -0.00115204 3.499802 " transform="matrix(1.333333,0,0,1.333333,112.782786,194.400004)"/>
<path style=" stroke:none;fill-rule:nonzero;fill:rgb(0%,0%,0%);fill-opacity:1;" d="M 98.007812 209.132812 L 106.351562 209.132812 L 106.351562 210.238281 L 98.007812 210.238281 Z M 98.007812 209.132812 "/>
<path style=" stroke:none;fill-rule:nonzero;fill:rgb(0%,0%,0%);fill-opacity:1;" d="M 109.207031 204.144531 L 114.367188 204.144531 L 114.367188 205.253906 L 110.410156 205.253906 L 110.410156 207.632812 C 110.601562 207.566406 110.789062 207.519531 110.980469 207.488281 C 111.171875 207.457031 111.363281 207.441406 111.554688 207.441406 C 112.640625 207.441406 113.5 207.738281 114.132812 208.332031 C 114.765625 208.925781 115.085938 209.730469 115.085938 210.746094 C 115.085938 211.792969 114.757812 212.605469 114.109375 213.183594 C 113.457031 213.765625 112.539062 214.054688 111.355469 214.054688 C 110.945312 214.054688 110.53125 214.019531 110.105469 213.949219 C 109.683594 213.878906 109.246094 213.777344 108.796875 213.636719 L 108.796875 212.316406 C 109.1875 212.527344 109.589844 212.683594 110.003906 212.789062 C 110.421875 212.894531 110.863281 212.945312 111.328125 212.945312 C 112.078125 212.945312 112.671875 212.75 113.109375 212.355469 C 113.546875 211.960938 113.769531 211.421875 113.769531 210.746094 C 113.769531 210.070312 113.546875 209.535156 113.109375 209.140625 C 112.671875 208.742188 112.078125 208.546875 111.328125 208.546875 C 110.976562 208.546875 110.625 208.585938 110.273438 208.664062 C 109.925781 208.742188 109.570312 208.863281 109.207031 209.027344 Z M 109.207031 204.144531 "/>
<path style=" stroke:none;fill-rule:nonzero;fill:rgb(0%,0%,0%);fill-opacity:1;" d="M 117.675781 212.210938 L 119.050781 212.210938 L 119.050781 213.863281 L 117.675781 213.863281 Z M 117.675781 212.210938 "/>
<path style=" stroke:none;fill-rule:nonzero;fill:rgb(0%,0%,0%);fill-opacity:1;" d="M 124.726562 205.011719 C 124.046875 205.011719 123.539062 205.34375 123.199219 206.011719 C 122.859375 206.675781 122.6875 207.675781 122.6875 209.015625 C 122.6875 210.347656 122.859375 211.347656 123.199219 212.011719 C 123.539062 212.679688 124.046875 213.011719 124.726562 213.011719 C 125.40625 213.011719 125.917969 212.679688 126.257812 212.011719 C 126.601562 211.347656 126.769531 210.347656 126.769531 209.015625 C 126.769531 207.675781 126.601562 206.675781 126.257812 206.011719 C 125.917969 205.34375 125.40625 205.011719 124.726562 205.011719 Z M 124.726562 203.96875 C 125.816406 203.96875 126.648438 204.398438 127.222656 205.261719 C 127.796875 206.125 128.085938 207.375 128.085938 209.015625 C 128.085938 210.652344 127.796875 211.898438 127.222656 212.761719 C 126.648438 213.625 125.816406 214.054688 124.726562 214.054688 C 123.636719 214.054688 122.804688 213.625 122.230469 212.761719 C 121.652344 211.898438 121.367188 210.652344 121.367188 209.015625 C 121.367188 207.375 121.652344 206.125 122.230469 205.261719 C 122.804688 204.398438 123.636719 203.96875 124.726562 203.96875 Z M 124.726562 203.96875 "/>
<g clip-path="url(#clip3)" clip-rule="nonzero">
<path style="fill:none;stroke-width:0.8;stroke-linecap:square;stroke-linejoin:round;stroke:rgb(69.01961%,69.01961%,69.01961%);stroke-opacity:1;stroke-miterlimit:4;" d="M 120.480469 145.798828 L 120.480469 7.201172 " transform="matrix(1.333333,0,0,1.333333,0,-0.000000000000014211)"/>
</g>
<path style="fill:none;stroke-width:0.8;stroke-linecap:butt;stroke-linejoin:round;stroke:rgb(0%,0%,0%);stroke-opacity:1;stroke-miterlimit:4;" d="M 0.00144196 -0.00117493 L 0.00144196 3.499802 " transform="matrix(1.333333,0,0,1.333333,160.638702,194.400004)"/>
<path style=" stroke:none;fill-rule:nonzero;fill:rgb(0%,0%,0%);fill-opacity:1;" d="M 145.863281 209.132812 L 154.207031 209.132812 L 154.207031 210.238281 L 145.863281 210.238281 Z M 145.863281 209.132812 "/>
<path style=" stroke:none;fill-rule:nonzero;fill:rgb(0%,0%,0%);fill-opacity:1;" d="M 158.179688 212.757812 L 162.769531 212.757812 L 162.769531 213.863281 L 156.597656 213.863281 L 156.597656 212.757812 C 157.097656 212.242188 157.777344 211.546875 158.640625 210.679688 C 159.5 209.808594 160.042969 209.246094 160.265625 208.992188 C 160.683594 208.523438 160.976562 208.121094 161.144531 207.792969 C 161.3125 207.464844 161.398438 207.144531 161.398438 206.828125 C 161.398438 206.308594 161.214844 205.890625 160.851562 205.566406 C 160.492188 205.238281 160.019531 205.074219 159.4375 205.074219 C 159.023438 205.074219 158.589844 205.148438 158.128906 205.289062 C 157.671875 205.433594 157.183594 205.648438 156.664062 205.941406 L 156.664062 204.613281 C 157.191406 204.398438 157.6875 204.238281 158.148438 204.132812 C 158.609375 204.023438 159.03125 203.96875 159.410156 203.96875 C 160.417969 203.96875 161.222656 204.222656 161.820312 204.726562 C 162.417969 205.226562 162.71875 205.898438 162.71875 206.742188 C 162.71875 207.140625 162.644531 207.519531 162.492188 207.878906 C 162.34375 208.234375 162.070312 208.65625 161.675781 209.144531 C 161.566406 209.269531 161.222656 209.632812 160.640625 210.234375 C 160.058594 210.835938 159.238281 211.679688 158.179688 212.757812 Z M 158.179688 212.757812 "/>
<path style=" stroke:none;fill-rule:nonzero;fill:rgb(0%,0%,0%);fill-opacity:1;" d="M 165.53125 212.210938 L 166.90625 212.210938 L 166.90625 213.863281 L 165.53125 213.863281 Z M 165.53125 212.210938 "/>
<path style=" stroke:none;fill-rule:nonzero;fill:rgb(0%,0%,0%);fill-opacity:1;" d="M 169.78125 204.144531 L 174.945312 204.144531 L 174.945312 205.253906 L 170.988281 205.253906 L 170.988281 207.632812 C 171.175781 207.566406 171.367188 207.519531 171.558594 207.488281 C 171.75 207.457031 171.941406 207.441406 172.132812 207.441406 C 173.21875 207.441406 174.078125 207.738281 174.710938 208.332031 C 175.34375 208.925781 175.664062 209.730469 175.664062 210.746094 C 175.664062 211.792969 175.335938 212.605469 174.683594 213.183594 C 174.035156 213.765625 173.117188 214.054688 171.929688 214.054688 C 171.523438 214.054688 171.105469 214.019531 170.683594 213.949219 C 170.261719 213.878906 169.824219 213.777344 169.371094 213.636719 L 169.371094 212.316406 C 169.761719 212.527344 170.167969 212.683594 170.582031 212.789062 C 171 212.894531 171.441406 212.945312 171.902344 212.945312 C 172.65625 212.945312 173.25 212.75 173.6875 212.355469 C 174.125 211.960938 174.34375 211.421875 174.34375 210.746094 C 174.34375 210.070312 174.125 209.535156 173.6875 209.140625 C 173.25 208.742188 172.65625 208.546875 171.902344 208.546875 C 171.550781 208.546875 171.203125 208.585938 170.851562 208.664062 C 170.503906 208.742188 170.148438 208.863281 169.78125 209.027344 Z M 169.78125 204.144531 "/>
<g clip-path="url(#clip4)" clip-rule="nonzero">
<path style="fill:none;stroke-width:0.8;stroke-linecap:square;stroke-linejoin:round;stroke:rgb(69.01961%,69.01961%,69.01961%);stroke-opacity:1;stroke-miterlimit:4;" d="M 156.37207 145.798828 L 156.37207 7.201172 " transform="matrix(1.333333,0,0,1.333333,0,-0.000000000000014211)"/>
</g>
<path style="fill:none;stroke-width:0.8;stroke-linecap:butt;stroke-linejoin:round;stroke:rgb(0%,0%,0%);stroke-opacity:1;stroke-miterlimit:4;" d="M 0.00109863 -0.00117493 L 0.00109863 3.499802 " transform="matrix(1.333333,0,0,1.333333,208.494629,194.400004)"/>
<path style=" stroke:none;fill-rule:nonzero;fill:rgb(0%,0%,0%);fill-opacity:1;" d="M 202.128906 205.011719 C 201.453125 205.011719 200.945312 205.34375 200.601562 206.011719 C 200.261719 206.675781 200.09375 207.675781 200.09375 209.015625 C 200.09375 210.347656 200.261719 211.347656 200.601562 212.011719 C 200.945312 212.679688 201.453125 213.011719 202.128906 213.011719 C 202.8125 213.011719 203.324219 212.679688 203.664062 212.011719 C 204.003906 211.347656 204.175781 210.347656 204.175781 209.015625 C 204.175781 207.675781 204.003906 206.675781 203.664062 206.011719 C 203.324219 205.34375 202.8125 205.011719 202.128906 205.011719 Z M 202.128906 203.96875 C 203.21875 203.96875 204.054688 204.398438 204.628906 205.261719 C 205.203125 206.125 205.492188 207.375 205.492188 209.015625 C 205.492188 210.652344 205.203125 211.898438 204.628906 212.761719 C 204.054688 213.625 203.21875 214.054688 202.128906 214.054688 C 201.042969 214.054688 200.210938 213.625 199.632812 212.761719 C 199.058594 211.898438 198.773438 210.652344 198.773438 209.015625 C 198.773438 207.375 199.058594 206.125 199.632812 205.261719 C 200.210938 204.398438 201.042969 203.96875 202.128906 203.96875 Z M 202.128906 203.96875 "/>
<path style=" stroke:none;fill-rule:nonzero;fill:rgb(0%,0%,0%);fill-opacity:1;" d="M 207.800781 212.210938 L 209.175781 212.210938 L 209.175781 213.863281 L 207.800781 213.863281 Z M 207.800781 212.210938 "/>
<path style=" stroke:none;fill-rule:nonzero;fill:rgb(0%,0%,0%);fill-opacity:1;" d="M 214.851562 205.011719 C 214.175781 205.011719 213.664062 205.34375 213.324219 206.011719 C 212.984375 206.675781 212.8125 207.675781 212.8125 209.015625 C 212.8125 210.347656 212.984375 211.347656 213.324219 212.011719 C 213.664062 212.679688 214.175781 213.011719 214.851562 213.011719 C 215.535156 213.011719 216.042969 212.679688 216.382812 212.011719 C 216.726562 211.347656 216.898438 210.347656 216.898438 209.015625 C 216.898438 207.675781 216.726562 206.675781 216.382812 206.011719 C 216.042969 205.34375 215.535156 205.011719 214.851562 205.011719 Z M 214.851562 203.96875 C 215.941406 203.96875 216.773438 204.398438 217.347656 205.261719 C 217.925781 206.125 218.210938 207.375 218.210938 209.015625 C 218.210938 210.652344 217.925781 211.898438 217.347656 212.761719 C 216.773438 213.625 215.941406 214.054688 214.851562 214.054688 C 213.761719 214.054688 212.929688 213.625 212.355469 212.761719 C 211.78125 211.898438 211.492188 210.652344 211.492188 209.015625 C 211.492188 207.375 211.78125 206.125 212.355469 205.261719 C 212.929688 204.398438 213.761719 203.96875 214.851562 203.96875 Z M 214.851562 203.96875 "/>
<g clip-path="url(#clip5)" clip-rule="nonzero">
<path style="fill:none;stroke-width:0.8;stroke-linecap:square;stroke-linejoin:round;stroke:rgb(69.01961%,69.01961%,69.01961%);stroke-opacity:1;stroke-miterlimit:4;" d="M 192.263672 145.798828 L 192.263672 7.201172 " transform="matrix(1.333333,0,0,1.333333,0,-0.000000000000014211)"/>
</g>
<path style="fill:none;stroke-width:0.8;stroke-linecap:butt;stroke-linejoin:round;stroke:rgb(0%,0%,0%);stroke-opacity:1;stroke-miterlimit:4;" d="M 0.000762939 -0.00117493 L 0.000762939 3.499802 " transform="matrix(1.333333,0,0,1.333333,256.350545,194.400004)"/>
<path style=" stroke:none;fill-rule:nonzero;fill:rgb(0%,0%,0%);fill-opacity:1;" d="M 248.308594 212.757812 L 252.894531 212.757812 L 252.894531 213.863281 L 246.726562 213.863281 L 246.726562 212.757812 C 247.222656 212.242188 247.902344 211.546875 248.765625 210.679688 C 249.628906 209.808594 250.167969 209.246094 250.390625 208.992188 C 250.8125 208.523438 251.105469 208.121094 251.269531 207.792969 C 251.4375 207.464844 251.523438 207.144531 251.523438 206.828125 C 251.523438 206.308594 251.34375 205.890625 250.980469 205.566406 C 250.617188 205.238281 250.144531 205.074219 249.5625 205.074219 C 249.152344 205.074219 248.714844 205.148438 248.257812 205.289062 C 247.800781 205.433594 247.3125 205.648438 246.789062 205.941406 L 246.789062 204.613281 C 247.320312 204.398438 247.8125 204.238281 248.273438 204.132812 C 248.734375 204.023438 249.15625 203.96875 249.539062 203.96875 C 250.546875 203.96875 251.347656 204.222656 251.945312 204.726562 C 252.546875 205.226562 252.84375 205.898438 252.84375 206.742188 C 252.84375 207.140625 252.769531 207.519531 252.621094 207.878906 C 252.46875 208.234375 252.199219 208.65625 251.800781 209.144531 C 251.695312 209.269531 251.347656 209.632812 250.765625 210.234375 C 250.1875 210.835938 249.367188 211.679688 248.308594 212.757812 Z M 248.308594 212.757812 "/>
<path style=" stroke:none;fill-rule:nonzero;fill:rgb(0%,0%,0%);fill-opacity:1;" d="M 255.65625 212.210938 L 257.03125 212.210938 L 257.03125 213.863281 L 255.65625 213.863281 Z M 255.65625 212.210938 "/>
<path style=" stroke:none;fill-rule:nonzero;fill:rgb(0%,0%,0%);fill-opacity:1;" d="M 259.910156 204.144531 L 265.070312 204.144531 L 265.070312 205.253906 L 261.113281 205.253906 L 261.113281 207.632812 C 261.304688 207.566406 261.492188 207.519531 261.683594 207.488281 C 261.875 207.457031 262.066406 207.441406 262.257812 207.441406 C 263.34375 207.441406 264.203125 207.738281 264.835938 208.332031 C 265.472656 208.925781 265.789062 209.730469 265.789062 210.746094 C 265.789062 211.792969 265.460938 212.605469 264.8125 213.183594 C 264.160156 213.765625 263.242188 214.054688 262.058594 214.054688 C 261.648438 214.054688 261.234375 214.019531 260.808594 213.949219 C 260.386719 213.878906 259.949219 213.777344 259.5 213.636719 L 259.5 212.316406 C 259.890625 212.527344 260.292969 212.683594 260.710938 212.789062 C 261.125 212.894531 261.566406 212.945312 262.03125 212.945312 C 262.78125 212.945312 263.375 212.75 263.8125 212.355469 C 264.253906 211.960938 264.472656 211.421875 264.472656 210.746094 C 264.472656 210.070312 264.253906 209.535156 263.8125 209.140625 C 263.375 208.742188 262.78125 208.546875 262.03125 208.546875 C 261.679688 208.546875 261.328125 208.585938 260.976562 208.664062 C 260.628906 208.742188 260.273438 208.863281 259.910156 209.027344 Z M 259.910156 204.144531 "/>
<g clip-path="url(#clip6)" clip-rule="nonzero">
<path style="fill:none;stroke-width:0.8;stroke-linecap:square;stroke-linejoin:round;stroke:rgb(69.01961%,69.01961%,69.01961%);stroke-opacity:1;stroke-miterlimit:4;" d="M 228.155273 145.798828 L 228.155273 7.201172 " transform="matrix(1.333333,0,0,1.333333,0,-0.000000000000014211)"/>
</g>
<path style="fill:none;stroke-width:0.8;stroke-linecap:butt;stroke-linejoin:round;stroke:rgb(0%,0%,0%);stroke-opacity:1;stroke-miterlimit:4;" d="M 0.000427246 -0.00117493 L 0.000427246 3.499802 " transform="matrix(1.333333,0,0,1.333333,304.206462,194.400004)"/>
<path style=" stroke:none;fill-rule:nonzero;fill:rgb(0%,0%,0%);fill-opacity:1;" d="M 295.042969 204.144531 L 300.207031 204.144531 L 300.207031 205.253906 L 296.25 205.253906 L 296.25 207.632812 C 296.4375 207.566406 296.628906 207.519531 296.820312 207.488281 C 297.011719 207.457031 297.203125 207.441406 297.394531 207.441406 C 298.480469 207.441406 299.335938 207.738281 299.972656 208.332031 C 300.605469 208.925781 300.921875 209.730469 300.921875 210.746094 C 300.921875 211.792969 300.597656 212.605469 299.945312 213.183594 C 299.292969 213.765625 298.375 214.054688 297.191406 214.054688 C 296.785156 214.054688 296.367188 214.019531 295.945312 213.949219 C 295.523438 213.878906 295.085938 213.777344 294.632812 213.636719 L 294.632812 212.316406 C 295.023438 212.527344 295.425781 212.683594 295.84375 212.789062 C 296.261719 212.894531 296.699219 212.945312 297.164062 212.945312 C 297.917969 212.945312 298.511719 212.75 298.949219 212.355469 C 299.386719 211.960938 299.605469 211.421875 299.605469 210.746094 C 299.605469 210.070312 299.386719 209.535156 298.949219 209.140625 C 298.511719 208.742188 297.917969 208.546875 297.164062 208.546875 C 296.8125 208.546875 296.460938 208.585938 296.113281 208.664062 C 295.765625 208.742188 295.40625 208.863281 295.042969 209.027344 Z M 295.042969 204.144531 "/>
<path style=" stroke:none;fill-rule:nonzero;fill:rgb(0%,0%,0%);fill-opacity:1;" d="M 303.511719 212.210938 L 304.886719 212.210938 L 304.886719 213.863281 L 303.511719 213.863281 Z M 303.511719 212.210938 "/>
<path style=" stroke:none;fill-rule:nonzero;fill:rgb(0%,0%,0%);fill-opacity:1;" d="M 310.5625 205.011719 C 309.886719 205.011719 309.378906 205.34375 309.035156 206.011719 C 308.695312 206.675781 308.527344 207.675781 308.527344 209.015625 C 308.527344 210.347656 308.695312 211.347656 309.035156 212.011719 C 309.378906 212.679688 309.886719 213.011719 310.5625 213.011719 C 311.246094 213.011719 311.757812 212.679688 312.097656 212.011719 C 312.4375 211.347656 312.609375 210.347656 312.609375 209.015625 C 312.609375 207.675781 312.4375 206.675781 312.097656 206.011719 C 311.757812 205.34375 311.246094 205.011719 310.5625 205.011719 Z M 310.5625 203.96875 C 311.652344 203.96875 312.484375 204.398438 313.0625 205.261719 C 313.636719 206.125 313.921875 207.375 313.921875 209.015625 C 313.921875 210.652344 313.636719 211.898438 313.0625 212.761719 C 312.484375 213.625 311.652344 214.054688 310.5625 214.054688 C 309.472656 214.054688 308.640625 213.625 308.066406 212.761719 C 307.492188 211.898438 307.203125 210.652344 307.203125 209.015625 C 307.203125 207.375 307.492188 206.125 308.066406 205.261719 C 308.640625 204.398438 309.472656 203.96875 310.5625 203.96875 Z M 310.5625 203.96875 "/>
<g clip-path="url(#clip7)" clip-rule="nonzero">
<path style="fill:none;stroke-width:0.8;stroke-linecap:square;stroke-linejoin:round;stroke:rgb(69.01961%,69.01961%,69.01961%);stroke-opacity:1;stroke-miterlimit:4;" d="M 264.046875 145.798828 L 264.046875 7.201172 " transform="matrix(1.333333,0,0,1.333333,0,-0.000000000000014211)"/>
</g>
<path style="fill:none;stroke-width:0.8;stroke-linecap:butt;stroke-linejoin:round;stroke:rgb(0%,0%,0%);stroke-opacity:1;stroke-miterlimit:4;" d="M 0.0000915527 -0.00117493 L 0.0000915527 3.499802 " transform="matrix(1.333333,0,0,1.333333,352.062378,194.400004)"/>
<path style=" stroke:none;fill-rule:nonzero;fill:rgb(0%,0%,0%);fill-opacity:1;" d="M 342.554688 204.144531 L 348.804688 204.144531 L 348.804688 204.703125 L 345.273438 213.863281 L 343.902344 213.863281 L 347.222656 205.253906 L 342.554688 205.253906 Z M 342.554688 204.144531 "/>
<path style=" stroke:none;fill-rule:nonzero;fill:rgb(0%,0%,0%);fill-opacity:1;" d="M 351.367188 212.210938 L 352.742188 212.210938 L 352.742188 213.863281 L 351.367188 213.863281 Z M 351.367188 212.210938 "/>
<path style=" stroke:none;fill-rule:nonzero;fill:rgb(0%,0%,0%);fill-opacity:1;" d="M 355.621094 204.144531 L 360.785156 204.144531 L 360.785156 205.253906 L 356.824219 205.253906 L 356.824219 207.632812 C 357.015625 207.566406 357.207031 207.519531 357.394531 207.488281 C 357.589844 207.457031 357.78125 207.441406 357.972656 207.441406 C 359.054688 207.441406 359.914062 207.738281 360.546875 208.332031 C 361.183594 208.925781 361.5 209.730469 361.5 210.746094 C 361.5 211.792969 361.175781 212.605469 360.523438 213.183594 C 359.871094 213.765625 358.953125 214.054688 357.769531 214.054688 C 357.359375 214.054688 356.945312 214.019531 356.519531 213.949219 C 356.097656 213.878906 355.664062 213.777344 355.210938 213.636719 L 355.210938 212.316406 C 355.601562 212.527344 356.003906 212.683594 356.421875 212.789062 C 356.839844 212.894531 357.277344 212.945312 357.742188 212.945312 C 358.492188 212.945312 359.089844 212.75 359.527344 212.355469 C 359.964844 211.960938 360.183594 211.421875 360.183594 210.746094 C 360.183594 210.070312 359.964844 209.535156 359.527344 209.140625 C 359.089844 208.742188 358.492188 208.546875 357.742188 208.546875 C 357.390625 208.546875 357.039062 208.585938 356.691406 208.664062 C 356.339844 208.742188 355.984375 208.863281 355.621094 209.027344 Z M 355.621094 204.144531 "/>
<g clip-path="url(#clip8)" clip-rule="nonzero">
<path style="fill:none;stroke-width:0.8;stroke-linecap:square;stroke-linejoin:round;stroke:rgb(69.01961%,69.01961%,69.01961%);stroke-opacity:1;stroke-miterlimit:4;" d="M 30.102539 139.541016 L 281.203125 139.541016 " transform="matrix(1.333333,0,0,1.333333,0,-0.000000000000014211)"/>
</g>
<path style="fill:none;stroke-width:0.8;stroke-linecap:butt;stroke-linejoin:round;stroke:rgb(0%,0%,0%);stroke-opacity:1;stroke-miterlimit:4;" d="M -0.000585556 -0.00125122 L -3.498632 -0.00125122 " transform="matrix(1.333333,0,0,1.333333,40.137499,186.056356)"/>
<path style=" stroke:none;fill-rule:nonzero;fill:rgb(0%,0%,0%);fill-opacity:1;" d="M 13.835938 182.269531 C 13.160156 182.269531 12.652344 182.601562 12.308594 183.269531 C 11.96875 183.933594 11.800781 184.933594 11.800781 186.273438 C 11.800781 187.605469 11.96875 188.601562 12.308594 189.269531 C 12.652344 189.9375 13.160156 190.269531 13.835938 190.269531 C 14.519531 190.269531 15.03125 189.9375 15.371094 189.269531 C 15.710938 188.601562 15.882812 187.605469 15.882812 186.273438 C 15.882812 184.933594 15.710938 183.933594 15.371094 183.269531 C 15.03125 182.601562 14.519531 182.269531 13.835938 182.269531 Z M 13.835938 181.226562 C 14.929688 181.226562 15.761719 181.65625 16.335938 182.519531 C 16.910156 183.382812 17.199219 184.632812 17.199219 186.273438 C 17.199219 187.90625 16.910156 189.15625 16.335938 190.019531 C 15.761719 190.882812 14.929688 191.3125 13.835938 191.3125 C 12.75 191.3125 11.917969 190.882812 11.339844 190.019531 C 10.765625 189.15625 10.480469 187.90625 10.480469 186.273438 C 10.480469 184.632812 10.765625 183.382812 11.339844 182.519531 C 11.917969 181.65625 12.75 181.226562 13.835938 181.226562 Z M 13.835938 181.226562 "/>
<path style=" stroke:none;fill-rule:nonzero;fill:rgb(0%,0%,0%);fill-opacity:1;" d="M 19.507812 189.46875 L 20.882812 189.46875 L 20.882812 191.121094 L 19.507812 191.121094 Z M 19.507812 189.46875 "/>
<path style=" stroke:none;fill-rule:nonzero;fill:rgb(0%,0%,0%);fill-opacity:1;" d="M 26.558594 182.269531 C 25.882812 182.269531 25.375 182.601562 25.03125 183.269531 C 24.691406 183.933594 24.519531 184.933594 24.519531 186.273438 C 24.519531 187.605469 24.691406 188.601562 25.03125 189.269531 C 25.375 189.9375 25.882812 190.269531 26.558594 190.269531 C 27.242188 190.269531 27.75 189.9375 28.09375 189.269531 C 28.433594 188.601562 28.605469 187.605469 28.605469 186.273438 C 28.605469 184.933594 28.433594 183.933594 28.09375 183.269531 C 27.75 182.601562 27.242188 182.269531 26.558594 182.269531 Z M 26.558594 181.226562 C 27.648438 181.226562 28.480469 181.65625 29.058594 182.519531 C 29.632812 183.382812 29.917969 184.632812 29.917969 186.273438 C 29.917969 187.90625 29.632812 189.15625 29.058594 190.019531 C 28.480469 190.882812 27.648438 191.3125 26.558594 191.3125 C 25.46875 191.3125 24.636719 190.882812 24.0625 190.019531 C 23.488281 189.15625 23.199219 187.90625 23.199219 186.273438 C 23.199219 184.632812 23.488281 183.382812 24.0625 182.519531 C 24.636719 181.65625 25.46875 181.226562 26.558594 181.226562 Z M 26.558594 181.226562 "/>
<g clip-path="url(#clip9)" clip-rule="nonzero">
<path style="fill:none;stroke-width:0.8;stroke-linecap:square;stroke-linejoin:round;stroke:rgb(69.01961%,69.01961%,69.01961%);stroke-opacity:1;stroke-miterlimit:4;" d="M 30.102539 114.325195 L 281.203125 114.325195 " transform="matrix(1.333333,0,0,1.333333,0,-0.000000000000014211)"/>
</g>
<path style="fill:none;stroke-width:0.8;stroke-linecap:butt;stroke-linejoin:round;stroke:rgb(0%,0%,0%);stroke-opacity:1;stroke-miterlimit:4;" d="M -0.000585556 0.000724792 L -3.498632 0.000724792 " transform="matrix(1.333333,0,0,1.333333,40.137499,152.432627)"/>
<path style=" stroke:none;fill-rule:nonzero;fill:rgb(0%,0%,0%);fill-opacity:1;" d="M 13.835938 148.644531 C 13.160156 148.644531 12.652344 148.976562 12.308594 149.644531 C 11.96875 150.308594 11.800781 151.3125 11.800781 152.648438 C 11.800781 153.980469 11.96875 154.980469 12.308594 155.644531 C 12.652344 156.3125 13.160156 156.644531 13.835938 156.644531 C 14.519531 156.644531 15.03125 156.3125 15.371094 155.644531 C 15.710938 154.980469 15.882812 153.980469 15.882812 152.648438 C 15.882812 151.3125 15.710938 150.308594 15.371094 149.644531 C 15.03125 148.976562 14.519531 148.644531 13.835938 148.644531 Z M 13.835938 147.601562 C 14.929688 147.601562 15.761719 148.035156 16.335938 148.894531 C 16.910156 149.757812 17.199219 151.007812 17.199219 152.648438 C 17.199219 154.285156 16.910156 155.535156 16.335938 156.394531 C 15.761719 157.257812 14.929688 157.6875 13.835938 157.6875 C 12.75 157.6875 11.917969 157.257812 11.339844 156.394531 C 10.765625 155.535156 10.480469 154.285156 10.480469 152.648438 C 10.480469 151.007812 10.765625 149.757812 11.339844 148.894531 C 11.917969 148.035156 12.75 147.601562 13.835938 147.601562 Z M 13.835938 147.601562 "/>
<path style=" stroke:none;fill-rule:nonzero;fill:rgb(0%,0%,0%);fill-opacity:1;" d="M 19.507812 155.84375 L 20.882812 155.84375 L 20.882812 157.5 L 19.507812 157.5 Z M 19.507812 155.84375 "/>
<path style=" stroke:none;fill-rule:nonzero;fill:rgb(0%,0%,0%);fill-opacity:1;" d="M 24.878906 156.390625 L 29.46875 156.390625 L 29.46875 157.5 L 23.296875 157.5 L 23.296875 156.390625 C 23.796875 155.875 24.476562 155.183594 25.339844 154.3125 C 26.199219 153.441406 26.742188 152.878906 26.964844 152.628906 C 27.382812 152.15625 27.675781 151.753906 27.84375 151.425781 C 28.011719 151.101562 28.097656 150.777344 28.097656 150.460938 C 28.097656 149.945312 27.914062 149.523438 27.550781 149.199219 C 27.191406 148.871094 26.71875 148.707031 26.136719 148.707031 C 25.722656 148.707031 25.289062 148.78125 24.828125 148.921875 C 24.371094 149.066406 23.882812 149.285156 23.363281 149.574219 L 23.363281 148.246094 C 23.890625 148.035156 24.386719 147.875 24.847656 147.765625 C 25.308594 147.65625 25.730469 147.601562 26.109375 147.601562 C 27.117188 147.601562 27.921875 147.855469 28.519531 148.359375 C 29.117188 148.863281 29.417969 149.535156 29.417969 150.375 C 29.417969 150.773438 29.34375 151.15625 29.191406 151.511719 C 29.042969 151.871094 28.769531 152.292969 28.375 152.777344 C 28.265625 152.902344 27.921875 153.269531 27.339844 153.867188 C 26.757812 154.46875 25.9375 155.3125 24.878906 156.390625 Z M 24.878906 156.390625 "/>
<g clip-path="url(#clip10)" clip-rule="nonzero">
<path style="fill:none;stroke-width:0.8;stroke-linecap:square;stroke-linejoin:round;stroke:rgb(69.01961%,69.01961%,69.01961%);stroke-opacity:1;stroke-miterlimit:4;" d="M 30.102539 89.106445 L 281.203125 89.106445 " transform="matrix(1.333333,0,0,1.333333,0,-0.000000000000014211)"/>
</g>
<path style="fill:none;stroke-width:0.8;stroke-linecap:butt;stroke-linejoin:round;stroke:rgb(0%,0%,0%);stroke-opacity:1;stroke-miterlimit:4;" d="M -0.000585556 -0.000221252 L -3.498632 -0.000221252 " transform="matrix(1.333333,0,0,1.333333,40.137499,118.808889)"/>
<path style=" stroke:none;fill-rule:nonzero;fill:rgb(0%,0%,0%);fill-opacity:1;" d="M 13.835938 115.019531 C 13.160156 115.019531 12.652344 115.355469 12.308594 116.019531 C 11.96875 116.6875 11.800781 117.6875 11.800781 119.023438 C 11.800781 120.355469 11.96875 121.355469 12.308594 122.023438 C 12.652344 122.6875 13.160156 123.023438 13.835938 123.023438 C 14.519531 123.023438 15.03125 122.6875 15.371094 122.023438 C 15.710938 121.355469 15.882812 120.355469 15.882812 119.023438 C 15.882812 117.6875 15.710938 116.6875 15.371094 116.019531 C 15.03125 115.355469 14.519531 115.019531 13.835938 115.019531 Z M 13.835938 113.980469 C 14.929688 113.980469 15.761719 114.410156 16.335938 115.273438 C 16.910156 116.132812 17.199219 117.382812 17.199219 119.023438 C 17.199219 120.660156 16.910156 121.910156 16.335938 122.773438 C 15.761719 123.632812 14.929688 124.0625 13.835938 124.0625 C 12.75 124.0625 11.917969 123.632812 11.339844 122.773438 C 10.765625 121.910156 10.480469 120.660156 10.480469 119.023438 C 10.480469 117.382812 10.765625 116.132812 11.339844 115.273438 C 11.917969 114.410156 12.75 113.980469 13.835938 113.980469 Z M 13.835938 113.980469 "/>
<path style=" stroke:none;fill-rule:nonzero;fill:rgb(0%,0%,0%);fill-opacity:1;" d="M 19.507812 122.21875 L 20.882812 122.21875 L 20.882812 123.875 L 19.507812 123.875 Z M 19.507812 122.21875 "/>
<path style=" stroke:none;fill-rule:nonzero;fill:rgb(0%,0%,0%);fill-opacity:1;" d="M 27.359375 115.300781 L 24.039062 120.488281 L 27.359375 120.488281 Z M 27.015625 114.152344 L 28.667969 114.152344 L 28.667969 120.488281 L 30.058594 120.488281 L 30.058594 121.582031 L 28.667969 121.582031 L 28.667969 123.875 L 27.359375 123.875 L 27.359375 121.582031 L 22.972656 121.582031 L 22.972656 120.3125 Z M 27.015625 114.152344 "/>
<g clip-path="url(#clip11)" clip-rule="nonzero">
<path style="fill:none;stroke-width:0.8;stroke-linecap:square;stroke-linejoin:round;stroke:rgb(69.01961%,69.01961%,69.01961%);stroke-opacity:1;stroke-miterlimit:4;" d="M 30.102539 63.887695 L 281.203125 63.887695 " transform="matrix(1.333333,0,0,1.333333,0,-0.000000000000014211)"/>
</g>
<path style="fill:none;stroke-width:0.8;stroke-linecap:butt;stroke-linejoin:round;stroke:rgb(0%,0%,0%);stroke-opacity:1;stroke-miterlimit:4;" d="M -0.000585556 -0.00117493 L -3.498632 -0.00117493 " transform="matrix(1.333333,0,0,1.333333,40.137499,85.18516)"/>
<path style=" stroke:none;fill-rule:nonzero;fill:rgb(0%,0%,0%);fill-opacity:1;" d="M 13.835938 81.398438 C 13.160156 81.398438 12.652344 81.730469 12.308594 82.398438 C 11.96875 83.0625 11.800781 84.0625 11.800781 85.402344 C 11.800781 86.734375 11.96875 87.730469 12.308594 88.398438 C 12.652344 89.066406 13.160156 89.398438 13.835938 89.398438 C 14.519531 89.398438 15.03125 89.066406 15.371094 88.398438 C 15.710938 87.730469 15.882812 86.734375 15.882812 85.402344 C 15.882812 84.0625 15.710938 83.0625 15.371094 82.398438 C 15.03125 81.730469 14.519531 81.398438 13.835938 81.398438 Z M 13.835938 80.355469 C 14.929688 80.355469 15.761719 80.785156 16.335938 81.648438 C 16.910156 82.511719 17.199219 83.761719 17.199219 85.402344 C 17.199219 87.035156 16.910156 88.285156 16.335938 89.148438 C 15.761719 90.011719 14.929688 90.441406 13.835938 90.441406 C 12.75 90.441406 11.917969 90.011719 11.339844 89.148438 C 10.765625 88.285156 10.480469 87.035156 10.480469 85.402344 C 10.480469 83.761719 10.765625 82.511719 11.339844 81.648438 C 11.917969 80.785156 12.75 80.355469 13.835938 80.355469 Z M 13.835938 80.355469 "/>
<path style=" stroke:none;fill-rule:nonzero;fill:rgb(0%,0%,0%);fill-opacity:1;" d="M 19.507812 88.597656 L 20.882812 88.597656 L 20.882812 90.25 L 19.507812 90.25 Z M 19.507812 88.597656 "/>
<path style=" stroke:none;fill-rule:nonzero;fill:rgb(0%,0%,0%);fill-opacity:1;" d="M 26.722656 84.867188 C 26.132812 84.867188 25.664062 85.070312 25.320312 85.472656 C 24.976562 85.875 24.800781 86.429688 24.800781 87.132812 C 24.800781 87.832031 24.976562 88.382812 25.320312 88.789062 C 25.664062 89.195312 26.132812 89.398438 26.722656 89.398438 C 27.3125 89.398438 27.78125 89.195312 28.125 88.789062 C 28.46875 88.382812 28.640625 87.832031 28.640625 87.132812 C 28.640625 86.429688 28.46875 85.875 28.125 85.472656 C 27.78125 85.070312 27.3125 84.867188 26.722656 84.867188 Z M 29.332031 80.746094 L 29.332031 81.941406 C 29.003906 81.785156 28.671875 81.667969 28.332031 81.585938 C 27.996094 81.503906 27.664062 81.460938 27.332031 81.460938 C 26.464844 81.460938 25.800781 81.753906 25.34375 82.339844 C 24.886719 82.925781 24.625 83.8125 24.5625 84.996094 C 24.816406 84.617188 25.136719 84.328125 25.523438 84.128906 C 25.910156 83.925781 26.335938 83.824219 26.800781 83.824219 C 27.777344 83.824219 28.546875 84.121094 29.113281 84.714844 C 29.683594 85.308594 29.964844 86.113281 29.964844 87.132812 C 29.964844 88.128906 29.671875 88.933594 29.078125 89.535156 C 28.488281 90.140625 27.703125 90.441406 26.722656 90.441406 C 25.597656 90.441406 24.738281 90.011719 24.144531 89.148438 C 23.550781 88.285156 23.253906 87.035156 23.253906 85.402344 C 23.253906 83.863281 23.617188 82.640625 24.347656 81.726562 C 25.074219 80.8125 26.054688 80.355469 27.28125 80.355469 C 27.613281 80.355469 27.945312 80.386719 28.28125 80.453125 C 28.617188 80.519531 28.96875 80.617188 29.332031 80.746094 Z M 29.332031 80.746094 "/>
<g clip-path="url(#clip12)" clip-rule="nonzero">
<path style="fill:none;stroke-width:0.8;stroke-linecap:square;stroke-linejoin:round;stroke:rgb(69.01961%,69.01961%,69.01961%);stroke-opacity:1;stroke-miterlimit:4;" d="M 30.102539 38.671875 L 281.203125 38.671875 " transform="matrix(1.333333,0,0,1.333333,0,-0.000000000000014211)"/>
</g>
<path style="fill:none;stroke-width:0.8;stroke-linecap:butt;stroke-linejoin:round;stroke:rgb(0%,0%,0%);stroke-opacity:1;stroke-miterlimit:4;" d="M -0.000585556 0.000804901 L -3.498632 0.000804901 " transform="matrix(1.333333,0,0,1.333333,40.137499,51.561427)"/>
<path style=" stroke:none;fill-rule:nonzero;fill:rgb(0%,0%,0%);fill-opacity:1;" d="M 13.835938 47.773438 C 13.160156 47.773438 12.652344 48.105469 12.308594 48.773438 C 11.96875 49.4375 11.800781 50.441406 11.800781 51.777344 C 11.800781 53.109375 11.96875 54.109375 12.308594 54.773438 C 12.652344 55.441406 13.160156 55.773438 13.835938 55.773438 C 14.519531 55.773438 15.03125 55.441406 15.371094 54.773438 C 15.710938 54.109375 15.882812 53.109375 15.882812 51.777344 C 15.882812 50.441406 15.710938 49.4375 15.371094 48.773438 C 15.03125 48.105469 14.519531 47.773438 13.835938 47.773438 Z M 13.835938 46.730469 C 14.929688 46.730469 15.761719 47.164062 16.335938 48.023438 C 16.910156 48.886719 17.199219 50.136719 17.199219 51.777344 C 17.199219 53.414062 16.910156 54.664062 16.335938 55.523438 C 15.761719 56.386719 14.929688 56.816406 13.835938 56.816406 C 12.75 56.816406 11.917969 56.386719 11.339844 55.523438 C 10.765625 54.664062 10.480469 53.414062 10.480469 51.777344 C 10.480469 50.136719 10.765625 48.886719 11.339844 48.023438 C 11.917969 47.164062 12.75 46.730469 13.835938 46.730469 Z M 13.835938 46.730469 "/>
<path style=" stroke:none;fill-rule:nonzero;fill:rgb(0%,0%,0%);fill-opacity:1;" d="M 19.507812 54.972656 L 20.882812 54.972656 L 20.882812 56.628906 L 19.507812 56.628906 Z M 19.507812 54.972656 "/>
<path style=" stroke:none;fill-rule:nonzero;fill:rgb(0%,0%,0%);fill-opacity:1;" d="M 26.558594 52.011719 C 25.933594 52.011719 25.441406 52.179688 25.082031 52.511719 C 24.726562 52.847656 24.546875 53.308594 24.546875 53.890625 C 24.546875 54.476562 24.726562 54.9375 25.082031 55.273438 C 25.441406 55.609375 25.933594 55.773438 26.558594 55.773438 C 27.183594 55.773438 27.675781 55.605469 28.035156 55.269531 C 28.398438 54.933594 28.578125 54.472656 28.578125 53.890625 C 28.578125 53.308594 28.398438 52.847656 28.039062 52.511719 C 27.683594 52.179688 27.1875 52.011719 26.558594 52.011719 Z M 25.246094 51.453125 C 24.679688 51.3125 24.242188 51.050781 23.925781 50.664062 C 23.613281 50.277344 23.453125 49.804688 23.453125 49.25 C 23.453125 48.472656 23.730469 47.859375 24.285156 47.410156 C 24.839844 46.957031 25.597656 46.730469 26.558594 46.730469 C 27.527344 46.730469 28.285156 46.957031 28.839844 47.410156 C 29.390625 47.859375 29.664062 48.472656 29.664062 49.25 C 29.664062 49.804688 29.507812 50.277344 29.191406 50.664062 C 28.878906 51.050781 28.441406 51.3125 27.882812 51.453125 C 28.515625 51.597656 29.007812 51.886719 29.359375 52.320312 C 29.714844 52.746094 29.890625 53.273438 29.890625 53.890625 C 29.890625 54.835938 29.605469 55.558594 29.03125 56.0625 C 28.453125 56.566406 27.632812 56.816406 26.558594 56.816406 C 25.488281 56.816406 24.664062 56.566406 24.089844 56.0625 C 23.511719 55.558594 23.226562 54.835938 23.226562 53.890625 C 23.226562 53.273438 23.402344 52.746094 23.757812 52.320312 C 24.117188 51.886719 24.609375 51.597656 25.246094 51.453125 Z M 24.761719 49.375 C 24.761719 49.878906 24.921875 50.269531 25.234375 50.550781 C 25.550781 50.835938 25.992188 50.976562 26.558594 50.976562 C 27.125 50.976562 27.566406 50.835938 27.882812 50.550781 C 28.203125 50.269531 28.363281 49.878906 28.363281 49.375 C 28.363281 48.871094 28.203125 48.476562 27.882812 48.195312 C 27.566406 47.914062 27.125 47.773438 26.558594 47.773438 C 25.992188 47.773438 25.550781 47.914062 25.234375 48.195312 C 24.921875 48.476562 24.761719 48.871094 24.761719 49.375 Z M 24.761719 49.375 "/>
<g clip-path="url(#clip13)" clip-rule="nonzero">
<path style="fill:none;stroke-width:0.8;stroke-linecap:square;stroke-linejoin:round;stroke:rgb(69.01961%,69.01961%,69.01961%);stroke-opacity:1;stroke-miterlimit:4;" d="M 30.102539 13.453125 L 281.203125 13.453125 " transform="matrix(1.333333,0,0,1.333333,0,-0.000000000000014211)"/>
</g>
<path style="fill:none;stroke-width:0.8;stroke-linecap:butt;stroke-linejoin:round;stroke:rgb(0%,0%,0%);stroke-opacity:1;stroke-miterlimit:4;" d="M -0.000585556 -0.000144005 L -3.498632 -0.000144005 " transform="matrix(1.333333,0,0,1.333333,40.137499,17.937692)"/>
<path style=" stroke:none;fill-rule:nonzero;fill:rgb(0%,0%,0%);fill-opacity:1;" d="M 11.253906 21.898438 L 13.402344 21.898438 L 13.402344 14.480469 L 11.066406 14.949219 L 11.066406 13.75 L 13.390625 13.28125 L 14.703125 13.28125 L 14.703125 21.898438 L 16.851562 21.898438 L 16.851562 23.003906 L 11.253906 23.003906 Z M 11.253906 21.898438 "/>
<path style=" stroke:none;fill-rule:nonzero;fill:rgb(0%,0%,0%);fill-opacity:1;" d="M 19.507812 21.347656 L 20.882812 21.347656 L 20.882812 23.003906 L 19.507812 23.003906 Z M 19.507812 21.347656 "/>
<path style=" stroke:none;fill-rule:nonzero;fill:rgb(0%,0%,0%);fill-opacity:1;" d="M 26.558594 14.148438 C 25.882812 14.148438 25.375 14.484375 25.03125 15.148438 C 24.691406 15.8125 24.519531 16.816406 24.519531 18.152344 C 24.519531 19.484375 24.691406 20.484375 25.03125 21.152344 C 25.375 21.816406 25.882812 22.152344 26.558594 22.152344 C 27.242188 22.152344 27.75 21.816406 28.09375 21.152344 C 28.433594 20.484375 28.605469 19.484375 28.605469 18.152344 C 28.605469 16.816406 28.433594 15.8125 28.09375 15.148438 C 27.75 14.484375 27.242188 14.148438 26.558594 14.148438 Z M 26.558594 13.109375 C 27.648438 13.109375 28.480469 13.539062 29.058594 14.402344 C 29.632812 15.261719 29.917969 16.511719 29.917969 18.152344 C 29.917969 19.789062 29.632812 21.039062 29.058594 21.902344 C 28.480469 22.761719 27.648438 23.191406 26.558594 23.191406 C 25.46875 23.191406 24.636719 22.761719 24.0625 21.902344 C 23.488281 21.039062 23.199219 19.789062 23.199219 18.152344 C 23.199219 16.511719 23.488281 15.261719 24.0625 14.402344 C 24.636719 13.539062 25.46875 13.109375 26.558594 13.109375 Z M 26.558594 13.109375 "/>
<path style="fill:none;stroke-width:1.5;stroke-linecap:square;stroke-linejoin:round;stroke:rgb(12.156863%,46.666667%,70.588237%);stroke-opacity:1;stroke-miterlimit:4;" d="M 41.516602 139.5 L 64.488281 139.333008 L 77.408203 139.02832 L 86.021484 138.609375 L 93.202148 138.011719 L 98.944336 137.273437 L 103.250977 136.5 L 107.557617 135.46875 L 110.428711 134.604492 L 113.299805 133.561523 L 116.170898 132.313477 L 119.041992 130.825195 L 121.916016 129.055664 L 124.787109 126.963867 L 127.658203 124.511719 L 130.529297 121.655273 L 133.400391 118.362305 L 136.271484 114.600586 L 139.142578 110.355469 L 142.013672 105.632812 L 144.884766 100.450195 L 147.755859 94.863281 L 152.0625 85.883789 L 164.985352 58.130859 L 167.856445 52.543945 L 170.727539 47.364258 L 173.598633 42.638672 L 176.469727 38.396484 L 179.34082 34.634766 L 182.211914 31.338867 L 185.085937 28.482422 L 187.957031 26.030273 L 190.828125 23.941406 L 193.699219 22.171875 L 196.570312 20.680664 L 199.441406 19.432617 L 202.3125 18.392578 L 205.183594 17.525391 L 209.490234 16.494141 L 213.796875 15.720703 L 219.541992 14.982422 L 225.28418 14.481445 L 232.461914 14.080078 L 242.510742 13.763672 L 256.869141 13.567383 L 269.789062 13.5 " transform="matrix(1.333333,0,0,1.333333,0,-0.000000000000014211)"/>
<path style="fill:none;stroke-width:1.5;stroke-linecap:butt;stroke-linejoin:round;stroke:rgb(74.901962%,0%,74.901962%);stroke-opacity:1;stroke-dasharray:5.55,2.4;stroke-miterlimit:4;" d="M 41.516602 139.5 L 64.488281 139.333008 L 77.408203 139.03125 L 86.021484 138.618164 L 93.202148 138.032227 L 98.944336 137.314453 L 103.250977 136.573242 L 107.557617 135.600586 L 111.864258 134.34082 L 114.735352 133.30957 L 117.606445 132.102539 L 120.480469 130.702148 L 123.351562 129.099609 L 126.222656 127.286133 L 129.09375 125.270508 L 133.400391 121.918945 L 144.884766 112.570312 L 147.755859 110.695312 L 150.626953 109.248047 L 152.0625 108.717773 L 153.500977 108.333984 L 154.936523 108.099609 L 156.37207 108.020508 L 157.807617 108.099609 L 159.243164 108.333984 L 160.678711 108.717773 L 162.114258 109.248047 L 164.985352 110.695312 L 167.856445 112.570312 L 170.727539 114.75293 L 176.469727 119.53418 L 180.776367 123.073242 L 185.085937 126.304688 L 187.957031 128.220703 L 190.828125 129.928711 L 193.699219 131.428711 L 196.570312 132.729492 L 199.441406 133.845703 L 203.748047 135.216797 L 208.054687 136.277344 L 212.361328 137.088867 L 216.667969 137.707031 L 222.413086 138.298828 L 229.59082 138.782227 L 238.204102 139.12207 L 251.126953 139.371094 L 269.789062 139.494141 " transform="matrix(1.333333,0,0,1.333333,0,-0.000000000000014211)"/>
<path style="fill:none;stroke-width:0.8;stroke-linecap:square;stroke-linejoin:miter;stroke:rgb(0%,0%,0%);stroke-opacity:1;stroke-miterlimit:4;" d="M 30.102539 145.798828 L 30.102539 7.201172 " transform="matrix(1.333333,0,0,1.333333,0,-0.000000000000014211)"/>
<path style="fill:none;stroke-width:0.8;stroke-linecap:square;stroke-linejoin:miter;stroke:rgb(0%,0%,0%);stroke-opacity:1;stroke-miterlimit:4;" d="M 281.203125 145.798828 L 281.203125 7.201172 " transform="matrix(1.333333,0,0,1.333333,0,-0.000000000000014211)"/>
<path style="fill:none;stroke-width:0.8;stroke-linecap:square;stroke-linejoin:miter;stroke:rgb(0%,0%,0%);stroke-opacity:1;stroke-miterlimit:4;" d="M 30.102539 145.798828 L 281.203125 145.798828 " transform="matrix(1.333333,0,0,1.333333,0,-0.000000000000014211)"/>
<path style="fill:none;stroke-width:0.8;stroke-linecap:square;stroke-linejoin:miter;stroke:rgb(0%,0%,0%);stroke-opacity:1;stroke-miterlimit:4;" d="M 30.102539 7.201172 L 281.203125 7.201172 " transform="matrix(1.333333,0,0,1.333333,0,-0.000000000000014211)"/>
<use xlink:href="#surface5" mask="url(#mask0)"/>
<path style="fill:none;stroke-width:1.5;stroke-linecap:square;stroke-linejoin:round;stroke:rgb(12.156863%,46.666667%,70.588237%);stroke-opacity:1;stroke-miterlimit:4;" d="M 39.102539 20.299805 L 59.103516 20.299805 " transform="matrix(1.333333,0,0,1.333333,0,-0.000000000000014211)"/>
<path style=" stroke:none;fill-rule:nonzero;fill:rgb(0%,0%,0%);fill-opacity:1;" d="M 95.375 24.652344 L 95.375 25.789062 C 95.039062 25.613281 94.6875 25.484375 94.320312 25.398438 C 93.957031 25.308594 93.578125 25.265625 93.1875 25.265625 C 92.59375 25.265625 92.148438 25.359375 91.851562 25.539062 C 91.554688 25.722656 91.402344 25.996094 91.402344 26.359375 C 91.402344 26.636719 91.511719 26.855469 91.722656 27.015625 C 91.933594 27.171875 92.363281 27.324219 93.007812 27.464844 L 93.417969 27.558594 C 94.265625 27.742188 94.871094 27.996094 95.230469 28.328125 C 95.585938 28.660156 95.765625 29.125 95.765625 29.71875 C 95.765625 30.398438 95.5 30.933594 94.960938 31.328125 C 94.425781 31.722656 93.691406 31.921875 92.753906 31.921875 C 92.363281 31.921875 91.953125 31.882812 91.53125 31.804688 C 91.109375 31.730469 90.660156 31.617188 90.195312 31.464844 L 90.195312 30.226562 C 90.636719 30.457031 91.074219 30.628906 91.503906 30.746094 C 91.929688 30.859375 92.355469 30.917969 92.777344 30.917969 C 93.34375 30.917969 93.777344 30.820312 94.078125 30.628906 C 94.382812 30.433594 94.535156 30.160156 94.535156 29.808594 C 94.535156 29.484375 94.425781 29.234375 94.207031 29.0625 C 93.988281 28.890625 93.507812 28.722656 92.765625 28.558594 L 92.347656 28.460938 C 91.605469 28.308594 91.070312 28.066406 90.738281 27.742188 C 90.410156 27.421875 90.246094 26.976562 90.246094 26.414062 C 90.246094 25.726562 90.488281 25.195312 90.976562 24.824219 C 91.460938 24.453125 92.152344 24.265625 93.046875 24.265625 C 93.488281 24.265625 93.902344 24.296875 94.292969 24.363281 C 94.683594 24.425781 95.046875 24.523438 95.375 24.652344 Z M 95.375 24.652344 "/>
<path style=" stroke:none;fill-rule:nonzero;fill:rgb(0%,0%,0%);fill-opacity:1;" d="M 97.671875 24.441406 L 98.871094 24.441406 L 98.871094 31.730469 L 97.671875 31.730469 Z M 97.671875 21.601562 L 98.871094 21.601562 L 98.871094 23.117188 L 97.671875 23.117188 Z M 97.671875 21.601562 "/>
<path style=" stroke:none;fill-rule:nonzero;fill:rgb(0%,0%,0%);fill-opacity:1;" d="M 106.175781 28 C 106.175781 27.132812 105.996094 26.460938 105.636719 25.984375 C 105.28125 25.503906 104.78125 25.265625 104.132812 25.265625 C 103.492188 25.265625 102.992188 25.503906 102.632812 25.984375 C 102.273438 26.460938 102.09375 27.132812 102.09375 28 C 102.09375 28.863281 102.273438 29.535156 102.632812 30.011719 C 102.992188 30.492188 103.492188 30.730469 104.132812 30.730469 C 104.78125 30.730469 105.28125 30.492188 105.636719 30.011719 C 105.996094 29.535156 106.175781 28.863281 106.175781 28 Z M 107.375 30.828125 C 107.375 32.066406 107.097656 32.992188 106.546875 33.597656 C 105.996094 34.203125 105.152344 34.503906 104.015625 34.503906 C 103.59375 34.503906 103.199219 34.472656 102.824219 34.410156 C 102.449219 34.347656 102.085938 34.25 101.738281 34.121094 L 101.738281 32.957031 C 102.085938 33.148438 102.433594 33.285156 102.777344 33.378906 C 103.121094 33.46875 103.46875 33.515625 103.824219 33.515625 C 104.613281 33.515625 105.199219 33.308594 105.589844 32.898438 C 105.980469 32.492188 106.175781 31.871094 106.175781 31.042969 L 106.175781 30.449219 C 105.929688 30.878906 105.613281 31.199219 105.226562 31.414062 C 104.839844 31.625 104.378906 31.730469 103.839844 31.730469 C 102.945312 31.730469 102.226562 31.390625 101.679688 30.710938 C 101.132812 30.027344 100.855469 29.125 100.855469 28 C 100.855469 26.871094 101.132812 25.96875 101.679688 25.289062 C 102.226562 24.605469 102.945312 24.265625 103.839844 24.265625 C 104.378906 24.265625 104.839844 24.371094 105.226562 24.582031 C 105.613281 24.796875 105.929688 25.117188 106.175781 25.546875 L 106.175781 24.441406 L 107.375 24.441406 Z M 107.375 30.828125 "/>
<path style=" stroke:none;fill-rule:nonzero;fill:rgb(0%,0%,0%);fill-opacity:1;" d="M 115.519531 25.839844 C 115.820312 25.300781 116.175781 24.902344 116.59375 24.648438 C 117.011719 24.390625 117.5 24.265625 118.066406 24.265625 C 118.824219 24.265625 119.410156 24.53125 119.824219 25.0625 C 120.234375 25.59375 120.441406 26.347656 120.441406 27.328125 L 120.441406 31.730469 L 119.238281 31.730469 L 119.238281 27.367188 C 119.238281 26.671875 119.113281 26.152344 118.863281 25.816406 C 118.617188 25.476562 118.242188 25.304688 117.734375 25.304688 C 117.113281 25.304688 116.621094 25.511719 116.261719 25.925781 C 115.902344 26.335938 115.722656 26.898438 115.722656 27.609375 L 115.722656 31.730469 L 114.515625 31.730469 L 114.515625 27.367188 C 114.515625 26.664062 114.394531 26.148438 114.144531 25.808594 C 113.898438 25.472656 113.515625 25.304688 113 25.304688 C 112.386719 25.304688 111.902344 25.511719 111.539062 25.925781 C 111.179688 26.339844 111 26.902344 111 27.609375 L 111 31.730469 L 109.796875 31.730469 L 109.796875 24.441406 L 111 24.441406 L 111 25.574219 C 111.273438 25.125 111.601562 24.796875 111.984375 24.582031 C 112.367188 24.371094 112.820312 24.265625 113.34375 24.265625 C 113.875 24.265625 114.324219 24.398438 114.695312 24.667969 C 115.066406 24.9375 115.339844 25.328125 115.519531 25.839844 Z M 115.519531 25.839844 "/>
<path style=" stroke:none;fill-rule:nonzero;fill:rgb(0%,0%,0%);fill-opacity:1;" d="M 125.65625 25.277344 C 125.011719 25.277344 124.503906 25.53125 124.132812 26.03125 C 123.757812 26.53125 123.570312 27.21875 123.570312 28.089844 C 123.570312 28.964844 123.757812 29.652344 124.128906 30.152344 C 124.5 30.652344 125.007812 30.902344 125.65625 30.902344 C 126.292969 30.902344 126.800781 30.652344 127.171875 30.148438 C 127.546875 29.644531 127.730469 28.960938 127.730469 28.089844 C 127.730469 27.226562 127.546875 26.542969 127.171875 26.039062 C 126.800781 25.53125 126.292969 25.277344 125.65625 25.277344 Z M 125.65625 24.265625 C 126.695312 24.265625 127.515625 24.601562 128.109375 25.28125 C 128.703125 25.957031 129.003906 26.894531 129.003906 28.089844 C 129.003906 29.285156 128.703125 30.222656 128.109375 30.902344 C 127.515625 31.582031 126.695312 31.921875 125.65625 31.921875 C 124.609375 31.921875 123.789062 31.582031 123.195312 30.902344 C 122.605469 30.222656 122.308594 29.285156 122.308594 28.089844 C 122.308594 26.894531 122.605469 25.957031 123.195312 25.28125 C 123.789062 24.601562 124.609375 24.265625 125.65625 24.265625 Z M 125.65625 24.265625 "/>
<path style=" stroke:none;fill-rule:nonzero;fill:rgb(0%,0%,0%);fill-opacity:1;" d="M 130.988281 24.441406 L 132.183594 24.441406 L 132.183594 31.730469 L 130.988281 31.730469 Z M 130.988281 21.601562 L 132.183594 21.601562 L 132.183594 23.117188 L 130.988281 23.117188 Z M 130.988281 21.601562 "/>
<path style=" stroke:none;fill-rule:nonzero;fill:rgb(0%,0%,0%);fill-opacity:1;" d="M 139.488281 25.546875 L 139.488281 21.601562 L 140.6875 21.601562 L 140.6875 31.730469 L 139.488281 31.730469 L 139.488281 30.636719 C 139.238281 31.070312 138.921875 31.394531 138.535156 31.605469 C 138.152344 31.816406 137.691406 31.921875 137.152344 31.921875 C 136.273438 31.921875 135.554688 31.570312 135 30.867188 C 134.449219 30.164062 134.171875 29.238281 134.171875 28.089844 C 134.171875 26.945312 134.449219 26.023438 135 25.320312 C 135.554688 24.617188 136.273438 24.265625 137.152344 24.265625 C 137.691406 24.265625 138.152344 24.371094 138.535156 24.582031 C 138.921875 24.789062 139.238281 25.113281 139.488281 25.546875 Z M 135.410156 28.089844 C 135.410156 28.972656 135.589844 29.664062 135.953125 30.164062 C 136.316406 30.664062 136.8125 30.917969 137.445312 30.917969 C 138.078125 30.917969 138.578125 30.664062 138.941406 30.164062 C 139.308594 29.664062 139.488281 28.972656 139.488281 28.089844 C 139.488281 27.210938 139.308594 26.519531 138.941406 26.019531 C 138.578125 25.515625 138.078125 25.265625 137.445312 25.265625 C 136.8125 25.265625 136.316406 25.515625 135.953125 26.019531 C 135.589844 26.519531 135.410156 27.210938 135.410156 28.089844 Z M 135.410156 28.089844 "/>
<path style="fill:none;stroke-width:1.5;stroke-linecap:butt;stroke-linejoin:round;stroke:rgb(74.901962%,0%,74.901962%);stroke-opacity:1;stroke-dasharray:5.55,2.4;stroke-miterlimit:4;" d="M 39.102539 34.977539 L 59.103516 34.977539 " transform="matrix(1.333333,0,0,1.333333,0,-0.000000000000014211)"/>
<path style=" stroke:none;fill-rule:nonzero;fill:rgb(0%,0%,0%);fill-opacity:1;" d="M 95.523438 47.570312 C 95.523438 46.703125 95.347656 46.03125 94.988281 45.554688 C 94.628906 45.078125 94.128906 44.835938 93.480469 44.835938 C 92.839844 44.835938 92.339844 45.078125 91.980469 45.554688 C 91.621094 46.03125 91.445312 46.703125 91.445312 47.570312 C 91.445312 48.433594 91.621094 49.105469 91.980469 49.582031 C 92.339844 50.0625 92.839844 50.300781 93.480469 50.300781 C 94.128906 50.300781 94.628906 50.0625 94.988281 49.582031 C 95.347656 49.105469 95.523438 48.433594 95.523438 47.570312 Z M 96.722656 50.398438 C 96.722656 51.636719 96.445312 52.5625 95.894531 53.167969 C 95.347656 53.773438 94.503906 54.074219 93.363281 54.074219 C 92.945312 54.074219 92.546875 54.042969 92.171875 53.980469 C 91.800781 53.917969 91.4375 53.820312 91.085938 53.691406 L 91.085938 52.527344 C 91.4375 52.71875 91.785156 52.859375 92.128906 52.949219 C 92.46875 53.039062 92.820312 53.085938 93.175781 53.085938 C 93.960938 53.085938 94.550781 52.878906 94.941406 52.472656 C 95.328125 52.0625 95.523438 51.441406 95.523438 50.613281 L 95.523438 50.019531 C 95.277344 50.449219 94.960938 50.769531 94.574219 50.984375 C 94.1875 51.195312 93.726562 51.300781 93.1875 51.300781 C 92.292969 51.300781 91.574219 50.960938 91.027344 50.28125 C 90.480469 49.597656 90.207031 48.695312 90.207031 47.570312 C 90.207031 46.441406 90.480469 45.539062 91.027344 44.859375 C 91.574219 44.175781 92.292969 43.835938 93.1875 43.835938 C 93.726562 43.835938 94.1875 43.941406 94.574219 44.152344 C 94.960938 44.367188 95.277344 44.6875 95.523438 45.117188 L 95.523438 44.011719 L 96.722656 44.011719 Z M 96.722656 50.398438 "/>
<path style=" stroke:none;fill-rule:nonzero;fill:rgb(0%,0%,0%);fill-opacity:1;" d="M 103.414062 45.128906 C 103.28125 45.050781 103.132812 44.996094 102.976562 44.957031 C 102.816406 44.921875 102.644531 44.902344 102.453125 44.902344 C 101.773438 44.902344 101.253906 45.121094 100.894531 45.5625 C 100.53125 46.003906 100.347656 46.636719 100.347656 47.460938 L 100.347656 51.300781 L 99.144531 51.300781 L 99.144531 44.011719 L 100.347656 44.011719 L 100.347656 45.144531 C 100.601562 44.699219 100.929688 44.371094 101.332031 44.160156 C 101.738281 43.941406 102.226562 43.835938 102.804688 43.835938 C 102.886719 43.835938 102.976562 43.839844 103.078125 43.851562 C 103.179688 43.863281 103.289062 43.878906 103.410156 43.898438 Z M 103.414062 45.128906 "/>
<path style=" stroke:none;fill-rule:nonzero;fill:rgb(0%,0%,0%);fill-opacity:1;" d="M 107.988281 47.636719 C 107.019531 47.636719 106.347656 47.746094 105.972656 47.96875 C 105.601562 48.191406 105.414062 48.566406 105.414062 49.101562 C 105.414062 49.527344 105.554688 49.863281 105.835938 50.113281 C 106.117188 50.363281 106.496094 50.488281 106.976562 50.488281 C 107.640625 50.488281 108.175781 50.253906 108.578125 49.78125 C 108.976562 49.308594 109.179688 48.683594 109.179688 47.902344 L 109.179688 47.636719 Z M 110.375 47.140625 L 110.375 51.300781 L 109.179688 51.300781 L 109.179688 50.195312 C 108.90625 50.636719 108.5625 50.964844 108.15625 51.175781 C 107.746094 51.386719 107.25 51.492188 106.65625 51.492188 C 105.910156 51.492188 105.316406 51.28125 104.875 50.863281 C 104.4375 50.441406 104.214844 49.882812 104.214844 49.179688 C 104.214844 48.359375 104.492188 47.742188 105.039062 47.324219 C 105.589844 46.910156 106.410156 46.699219 107.496094 46.699219 L 109.179688 46.699219 L 109.179688 46.582031 C 109.179688 46.03125 108.996094 45.601562 108.636719 45.300781 C 108.273438 45 107.761719 44.851562 107.109375 44.851562 C 106.691406 44.851562 106.285156 44.898438 105.890625 45 C 105.496094 45.101562 105.117188 45.25 104.75 45.449219 L 104.75 44.339844 C 105.1875 44.171875 105.613281 44.046875 106.027344 43.960938 C 106.4375 43.878906 106.839844 43.835938 107.230469 43.835938 C 108.285156 43.835938 109.074219 44.109375 109.59375 44.65625 C 110.117188 45.203125 110.375 46.03125 110.375 47.140625 Z M 110.375 47.140625 "/>
<path style=" stroke:none;fill-rule:nonzero;fill:rgb(0%,0%,0%);fill-opacity:1;" d="M 117.640625 45.117188 L 117.640625 41.171875 L 118.839844 41.171875 L 118.839844 51.300781 L 117.640625 51.300781 L 117.640625 50.207031 C 117.390625 50.640625 117.070312 50.964844 116.6875 51.175781 C 116.304688 51.386719 115.84375 51.492188 115.304688 51.492188 C 114.421875 51.492188 113.707031 51.140625 113.152344 50.4375 C 112.597656 49.734375 112.320312 48.808594 112.320312 47.664062 C 112.320312 46.515625 112.597656 45.59375 113.152344 44.890625 C 113.707031 44.1875 114.421875 43.835938 115.304688 43.835938 C 115.84375 43.835938 116.304688 43.941406 116.6875 44.152344 C 117.070312 44.363281 117.390625 44.683594 117.640625 45.117188 Z M 113.558594 47.664062 C 113.558594 48.542969 113.742188 49.234375 114.101562 49.734375 C 114.464844 50.238281 114.964844 50.488281 115.597656 50.488281 C 116.230469 50.488281 116.730469 50.238281 117.09375 49.734375 C 117.457031 49.234375 117.640625 48.542969 117.640625 47.664062 C 117.640625 46.78125 117.457031 46.089844 117.09375 45.589844 C 116.730469 45.089844 116.230469 44.835938 115.597656 44.835938 C 114.964844 44.835938 114.464844 45.089844 114.101562 45.589844 C 113.742188 46.089844 113.558594 46.78125 113.558594 47.664062 Z M 113.558594 47.664062 "/>
<path style=" stroke:none;fill-rule:nonzero;fill:rgb(0%,0%,0%);fill-opacity:1;" d="M 121.304688 44.011719 L 122.503906 44.011719 L 122.503906 51.300781 L 121.304688 51.300781 Z M 121.304688 41.171875 L 122.503906 41.171875 L 122.503906 42.691406 L 121.304688 42.691406 Z M 121.304688 41.171875 "/>
<path style=" stroke:none;fill-rule:nonzero;fill:rgb(0%,0%,0%);fill-opacity:1;" d="M 131.25 47.355469 L 131.25 47.941406 L 125.738281 47.941406 C 125.792969 48.765625 126.042969 49.394531 126.484375 49.828125 C 126.929688 50.257812 127.550781 50.476562 128.34375 50.476562 C 128.804688 50.476562 129.25 50.417969 129.683594 50.304688 C 130.113281 50.195312 130.542969 50.023438 130.96875 49.796875 L 130.96875 50.929688 C 130.539062 51.113281 130.097656 51.253906 129.644531 51.347656 C 129.195312 51.445312 128.738281 51.492188 128.273438 51.492188 C 127.109375 51.492188 126.1875 51.152344 125.507812 50.476562 C 124.828125 49.800781 124.488281 48.882812 124.488281 47.726562 C 124.488281 46.535156 124.8125 45.585938 125.457031 44.886719 C 126.101562 44.1875 126.96875 43.835938 128.066406 43.835938 C 129.046875 43.835938 129.820312 44.152344 130.390625 44.785156 C 130.964844 45.414062 131.25 46.273438 131.25 47.355469 Z M 130.050781 47.003906 C 130.042969 46.351562 129.859375 45.828125 129.5 45.4375 C 129.140625 45.046875 128.667969 44.851562 128.078125 44.851562 C 127.410156 44.851562 126.875 45.039062 126.472656 45.417969 C 126.070312 45.792969 125.839844 46.328125 125.78125 47.011719 Z M 130.050781 47.003906 "/>
<path style=" stroke:none;fill-rule:nonzero;fill:rgb(0%,0%,0%);fill-opacity:1;" d="M 139.277344 46.898438 L 139.277344 51.300781 L 138.078125 51.300781 L 138.078125 46.941406 C 138.078125 46.25 137.945312 45.734375 137.675781 45.390625 C 137.40625 45.046875 137 44.878906 136.464844 44.878906 C 135.816406 44.878906 135.304688 45.082031 134.933594 45.496094 C 134.558594 45.90625 134.371094 46.46875 134.371094 47.179688 L 134.371094 51.300781 L 133.167969 51.300781 L 133.167969 44.011719 L 134.371094 44.011719 L 134.371094 45.144531 C 134.660156 44.703125 134.996094 44.378906 135.386719 44.160156 C 135.773438 43.945312 136.222656 43.835938 136.730469 43.835938 C 137.566406 43.835938 138.203125 44.09375 138.628906 44.613281 C 139.0625 45.128906 139.277344 45.894531 139.277344 46.898438 Z M 139.277344 46.898438 "/>
<path style=" stroke:none;fill-rule:nonzero;fill:rgb(0%,0%,0%);fill-opacity:1;" d="M 142.851562 41.941406 L 142.851562 44.011719 L 145.316406 44.011719 L 145.316406 44.941406 L 142.851562 44.941406 L 142.851562 48.898438 C 142.851562 49.496094 142.929688 49.875 143.09375 50.046875 C 143.257812 50.214844 143.585938 50.300781 144.085938 50.300781 L 145.316406 50.300781 L 145.316406 51.300781 L 144.085938 51.300781 C 143.164062 51.300781 142.523438 51.128906 142.171875 50.785156 C 141.820312 50.441406 141.644531 49.8125 141.644531 48.898438 L 141.644531 44.941406 L 140.765625 44.941406 L 140.765625 44.011719 L 141.644531 44.011719 L 141.644531 41.941406 Z M 142.851562 41.941406 "/>
</g>
</svg>
