<?xml version="1.0" encoding="UTF-8"?>
<svg xmlns="http://www.w3.org/2000/svg" xmlns:xlink="http://www.w3.org/1999/xlink" width="942.537516" height="281.434998" viewBox="0 0 942.537516 281.434998" version="1.1">
<g id="surface1">
<path style=" stroke:none;fill-rule:nonzero;fill:rgb(100%,100%,100%);fill-opacity:1;" d="M 0 281.433594 L 942.539062 281.433594 L 942.539062 0 L 0 0 Z M 0 281.433594 "/>
<path style=" stroke:none;fill-rule:nonzero;fill:rgb(100%,100%,100%);fill-opacity:1;" d="M 40.136719 231.359375 L 234.222656 231.359375 L 234.222656 9.601562 L 40.136719 9.601562 Z M 40.136719 231.359375 "/>
<path style="fill:none;stroke-width:0.8;stroke-linecap:butt;stroke-linejoin:round;stroke:rgb(0%,0%,0%);stroke-opacity:1;stroke-miterlimit:4;" d="M 0.000640869 -0.000473022 L 0.000640869 3.500504 " transform="matrix(1.333333,0,0,1.333333,66.963989,231.360006)"/>
<path style=" stroke:none;fill-rule:nonzero;fill:rgb(0%,0%,0%);fill-opacity:1;" d="M 58.546875 246.089844 L 66.894531 246.089844 L 66.894531 247.199219 L 58.546875 247.199219 Z M 58.546875 246.089844 "/>
<path style=" stroke:none;fill-rule:nonzero;fill:rgb(0%,0%,0%);fill-opacity:1;" d="M 70.867188 249.71875 L 75.457031 249.71875 L 75.457031 250.824219 L 69.285156 250.824219 L 69.285156 249.71875 C 69.785156 249.203125 70.464844 248.507812 71.324219 247.640625 C 72.1875 246.769531 72.730469 246.207031 72.949219 245.953125 C 73.371094 245.480469 73.664062 245.082031 73.832031 244.753906 C 74 244.425781 74.082031 244.105469 74.082031 243.785156 C 74.082031 243.269531 73.902344 242.847656 73.539062 242.523438 C 73.175781 242.199219 72.703125 242.035156 72.121094 242.035156 C 71.710938 242.035156 71.273438 242.105469 70.816406 242.25 C 70.359375 242.394531 69.871094 242.609375 69.347656 242.902344 L 69.347656 241.574219 C 69.878906 241.359375 70.371094 241.199219 70.832031 241.089844 C 71.292969 240.984375 71.714844 240.929688 72.097656 240.929688 C 73.105469 240.929688 73.90625 241.179688 74.503906 241.683594 C 75.105469 242.1875 75.402344 242.859375 75.402344 243.703125 C 75.402344 244.101562 75.328125 244.480469 75.179688 244.839844 C 75.03125 245.195312 74.757812 245.617188 74.363281 246.105469 C 74.253906 246.230469 73.910156 246.59375 73.328125 247.195312 C 72.746094 247.796875 71.925781 248.636719 70.867188 249.71875 Z M 70.867188 249.71875 "/>
<path style="fill:none;stroke-width:0.8;stroke-linecap:butt;stroke-linejoin:round;stroke:rgb(0%,0%,0%);stroke-opacity:1;stroke-miterlimit:4;" d="M -0.000709534 -0.000473022 L -0.000709534 3.500504 " transform="matrix(1.333333,0,0,1.333333,138.981415,231.360006)"/>
<path style=" stroke:none;fill-rule:nonzero;fill:rgb(0%,0%,0%);fill-opacity:1;" d="M 138.976562 241.96875 C 138.300781 241.96875 137.792969 242.304688 137.449219 242.96875 C 137.109375 243.636719 136.941406 244.636719 136.941406 245.972656 C 136.941406 247.304688 137.109375 248.304688 137.449219 248.972656 C 137.792969 249.640625 138.300781 249.972656 138.976562 249.972656 C 139.660156 249.972656 140.171875 249.640625 140.511719 248.972656 C 140.851562 248.304688 141.023438 247.304688 141.023438 245.972656 C 141.023438 244.636719 140.851562 243.636719 140.511719 242.96875 C 140.171875 242.304688 139.660156 241.96875 138.976562 241.96875 Z M 138.976562 240.929688 C 140.066406 240.929688 140.898438 241.359375 141.476562 242.222656 C 142.050781 243.082031 142.335938 244.335938 142.335938 245.972656 C 142.335938 247.609375 142.050781 248.859375 141.476562 249.722656 C 140.898438 250.582031 140.066406 251.015625 138.976562 251.015625 C 137.886719 251.015625 137.054688 250.582031 136.480469 249.722656 C 135.90625 248.859375 135.617188 247.609375 135.617188 245.972656 C 135.617188 244.335938 135.90625 243.082031 136.480469 242.222656 C 137.054688 241.359375 137.886719 240.929688 138.976562 240.929688 Z M 138.976562 240.929688 "/>
<path style="fill:none;stroke-width:0.8;stroke-linecap:butt;stroke-linejoin:round;stroke:rgb(0%,0%,0%);stroke-opacity:1;stroke-miterlimit:4;" d="M 0.000869751 -0.000473022 L 0.000869751 3.500504 " transform="matrix(1.333333,0,0,1.333333,210.99884,231.360006)"/>
<path style=" stroke:none;fill-rule:nonzero;fill:rgb(0%,0%,0%);fill-opacity:1;" d="M 209.316406 249.71875 L 213.90625 249.71875 L 213.90625 250.824219 L 207.734375 250.824219 L 207.734375 249.71875 C 208.234375 249.203125 208.914062 248.507812 209.773438 247.640625 C 210.636719 246.769531 211.179688 246.207031 211.398438 245.953125 C 211.820312 245.480469 212.113281 245.082031 212.28125 244.753906 C 212.449219 244.425781 212.53125 244.105469 212.53125 243.785156 C 212.53125 243.269531 212.351562 242.847656 211.988281 242.523438 C 211.625 242.199219 211.152344 242.035156 210.570312 242.035156 C 210.160156 242.035156 209.722656 242.105469 209.265625 242.25 C 208.808594 242.394531 208.320312 242.609375 207.800781 242.902344 L 207.800781 241.574219 C 208.328125 241.359375 208.824219 241.199219 209.28125 241.089844 C 209.742188 240.984375 210.164062 240.929688 210.546875 240.929688 C 211.554688 240.929688 212.355469 241.179688 212.957031 241.683594 C 213.554688 242.1875 213.851562 242.859375 213.851562 243.703125 C 213.851562 244.101562 213.777344 244.480469 213.628906 244.839844 C 213.480469 245.195312 213.207031 245.617188 212.8125 246.105469 C 212.703125 246.230469 212.359375 246.59375 211.777344 247.195312 C 211.195312 247.796875 210.375 248.636719 209.316406 249.71875 Z M 209.316406 249.71875 "/>
<path style=" stroke:none;fill-rule:nonzero;fill:rgb(0%,0%,0%);fill-opacity:1;" d="M 114.53125 267.675781 L 114.53125 265.0625 L 112.382812 265.0625 L 112.382812 263.984375 L 115.835938 263.984375 L 115.835938 268.15625 C 115.328125 268.519531 114.765625 268.789062 114.15625 268.972656 C 113.542969 269.160156 112.890625 269.25 112.195312 269.25 C 110.675781 269.25 109.488281 268.808594 108.628906 267.921875 C 107.773438 267.03125 107.34375 265.796875 107.34375 264.210938 C 107.34375 262.625 107.773438 261.386719 108.628906 260.496094 C 109.488281 259.609375 110.675781 259.167969 112.195312 259.167969 C 112.828125 259.167969 113.433594 259.246094 114.003906 259.402344 C 114.574219 259.558594 115.101562 259.785156 115.582031 260.089844 L 115.582031 261.492188 C 115.097656 261.078125 114.578125 260.769531 114.03125 260.558594 C 113.484375 260.351562 112.910156 260.246094 112.308594 260.246094 C 111.117188 260.246094 110.222656 260.578125 109.625 261.242188 C 109.03125 261.90625 108.730469 262.898438 108.730469 264.210938 C 108.730469 265.523438 109.03125 266.511719 109.625 267.175781 C 110.222656 267.839844 111.117188 268.171875 112.308594 268.171875 C 112.769531 268.171875 113.183594 268.128906 113.546875 268.050781 C 113.914062 267.96875 114.242188 267.84375 114.53125 267.675781 Z M 114.53125 267.675781 "/>
<path style=" stroke:none;fill-rule:nonzero;fill:rgb(0%,0%,0%);fill-opacity:1;" d="M 121.5 265.398438 C 120.53125 265.398438 119.859375 265.507812 119.488281 265.730469 C 119.113281 265.949219 118.925781 266.328125 118.925781 266.863281 C 118.925781 267.285156 119.066406 267.625 119.347656 267.875 C 119.628906 268.125 120.007812 268.246094 120.488281 268.246094 C 121.15625 268.246094 121.6875 268.011719 122.089844 267.542969 C 122.492188 267.070312 122.691406 266.445312 122.691406 265.664062 L 122.691406 265.398438 Z M 123.890625 264.902344 L 123.890625 269.0625 L 122.691406 269.0625 L 122.691406 267.957031 C 122.417969 268.398438 122.078125 268.722656 121.667969 268.933594 C 121.261719 269.144531 120.761719 269.25 120.171875 269.25 C 119.425781 269.25 118.832031 269.042969 118.390625 268.621094 C 117.949219 268.203125 117.730469 267.640625 117.730469 266.9375 C 117.730469 266.121094 118.003906 265.5 118.550781 265.085938 C 119.101562 264.667969 119.921875 264.460938 121.011719 264.460938 L 122.691406 264.460938 L 122.691406 264.339844 C 122.691406 263.789062 122.511719 263.363281 122.148438 263.0625 C 121.785156 262.761719 121.277344 262.609375 120.621094 262.609375 C 120.203125 262.609375 119.796875 262.660156 119.402344 262.761719 C 119.007812 262.859375 118.628906 263.011719 118.265625 263.210938 L 118.265625 262.101562 C 118.703125 261.933594 119.125 261.804688 119.539062 261.722656 C 119.953125 261.636719 120.351562 261.59375 120.742188 261.59375 C 121.796875 261.59375 122.585938 261.867188 123.109375 262.417969 C 123.628906 262.960938 123.890625 263.789062 123.890625 264.902344 Z M 123.890625 264.902344 "/>
<path style=" stroke:none;fill-rule:nonzero;fill:rgb(0%,0%,0%);fill-opacity:1;" d="M 126.234375 266.183594 L 126.234375 261.769531 L 127.429688 261.769531 L 127.429688 266.140625 C 127.429688 266.828125 127.566406 267.347656 127.832031 267.691406 C 128.101562 268.039062 128.507812 268.210938 129.046875 268.210938 C 129.691406 268.210938 130.203125 268.003906 130.578125 267.589844 C 130.953125 267.179688 131.140625 266.617188 131.140625 265.902344 L 131.140625 261.769531 L 132.339844 261.769531 L 132.339844 269.0625 L 131.140625 269.0625 L 131.140625 267.941406 C 130.851562 268.382812 130.511719 268.714844 130.128906 268.929688 C 129.746094 269.144531 129.300781 269.25 128.789062 269.25 C 127.953125 269.25 127.316406 268.992188 126.882812 268.46875 C 126.449219 267.949219 126.234375 267.1875 126.234375 266.183594 Z M 129.246094 261.59375 Z M 129.246094 261.59375 "/>
<path style=" stroke:none;fill-rule:nonzero;fill:rgb(0%,0%,0%);fill-opacity:1;" d="M 139.453125 261.984375 L 139.453125 263.117188 C 139.117188 262.945312 138.765625 262.816406 138.398438 262.730469 C 138.035156 262.640625 137.65625 262.597656 137.265625 262.597656 C 136.671875 262.597656 136.226562 262.6875 135.929688 262.871094 C 135.632812 263.050781 135.484375 263.324219 135.484375 263.691406 C 135.484375 263.96875 135.589844 264.1875 135.800781 264.34375 C 136.015625 264.503906 136.441406 264.65625 137.085938 264.796875 L 137.496094 264.890625 C 138.34375 265.070312 138.949219 265.328125 139.308594 265.660156 C 139.667969 265.992188 139.84375 266.457031 139.84375 267.050781 C 139.84375 267.726562 139.578125 268.265625 139.042969 268.660156 C 138.503906 269.054688 137.769531 269.25 136.832031 269.25 C 136.441406 269.25 136.035156 269.214844 135.609375 269.136719 C 135.1875 269.0625 134.742188 268.945312 134.273438 268.796875 L 134.273438 267.558594 C 134.714844 267.789062 135.152344 267.960938 135.582031 268.078125 C 136.011719 268.191406 136.4375 268.246094 136.859375 268.246094 C 137.421875 268.246094 137.855469 268.152344 138.15625 267.957031 C 138.460938 267.765625 138.613281 267.492188 138.613281 267.140625 C 138.613281 266.816406 138.503906 266.566406 138.285156 266.394531 C 138.066406 266.21875 137.585938 266.050781 136.84375 265.890625 L 136.425781 265.792969 C 135.683594 265.636719 135.148438 265.398438 134.820312 265.074219 C 134.488281 264.75 134.324219 264.308594 134.324219 263.742188 C 134.324219 263.058594 134.566406 262.527344 135.054688 262.15625 C 135.539062 261.78125 136.230469 261.59375 137.125 261.59375 C 137.566406 261.59375 137.980469 261.628906 138.371094 261.691406 C 138.765625 261.757812 139.125 261.855469 139.453125 261.984375 Z M 139.453125 261.984375 "/>
<path style=" stroke:none;fill-rule:nonzero;fill:rgb(0%,0%,0%);fill-opacity:1;" d="M 146.402344 261.984375 L 146.402344 263.117188 C 146.0625 262.945312 145.710938 262.816406 145.347656 262.730469 C 144.984375 262.640625 144.605469 262.597656 144.214844 262.597656 C 143.617188 262.597656 143.171875 262.6875 142.875 262.871094 C 142.578125 263.050781 142.429688 263.324219 142.429688 263.691406 C 142.429688 263.96875 142.535156 264.1875 142.75 264.34375 C 142.960938 264.503906 143.390625 264.65625 144.03125 264.796875 L 144.441406 264.890625 C 145.292969 265.070312 145.894531 265.328125 146.253906 265.660156 C 146.613281 265.992188 146.792969 266.457031 146.792969 267.050781 C 146.792969 267.726562 146.523438 268.265625 145.988281 268.660156 C 145.453125 269.054688 144.714844 269.25 143.777344 269.25 C 143.386719 269.25 142.980469 269.214844 142.558594 269.136719 C 142.132812 269.0625 141.6875 268.945312 141.21875 268.796875 L 141.21875 267.558594 C 141.664062 267.789062 142.097656 267.960938 142.527344 268.078125 C 142.957031 268.191406 143.382812 268.246094 143.804688 268.246094 C 144.367188 268.246094 144.800781 268.152344 145.105469 267.957031 C 145.410156 267.765625 145.5625 267.492188 145.5625 267.140625 C 145.5625 266.816406 145.453125 266.566406 145.230469 266.394531 C 145.015625 266.21875 144.53125 266.050781 143.789062 265.890625 L 143.375 265.792969 C 142.632812 265.636719 142.09375 265.398438 141.765625 265.074219 C 141.4375 264.75 141.269531 264.308594 141.269531 263.742188 C 141.269531 263.058594 141.515625 262.527344 142 262.15625 C 142.488281 261.78125 143.175781 261.59375 144.070312 261.59375 C 144.511719 261.59375 144.929688 261.628906 145.320312 261.691406 C 145.710938 261.757812 146.070312 261.855469 146.402344 261.984375 Z M 146.402344 261.984375 "/>
<path style=" stroke:none;fill-rule:nonzero;fill:rgb(0%,0%,0%);fill-opacity:1;" d="M 148.699219 261.769531 L 149.898438 261.769531 L 149.898438 269.0625 L 148.699219 269.0625 Z M 148.699219 258.929688 L 149.898438 258.929688 L 149.898438 260.449219 L 148.699219 260.449219 Z M 148.699219 258.929688 "/>
<path style=" stroke:none;fill-rule:nonzero;fill:rgb(0%,0%,0%);fill-opacity:1;" d="M 155.71875 265.398438 C 154.75 265.398438 154.078125 265.507812 153.707031 265.730469 C 153.332031 265.949219 153.144531 266.328125 153.144531 266.863281 C 153.144531 267.285156 153.285156 267.625 153.566406 267.875 C 153.847656 268.125 154.226562 268.246094 154.707031 268.246094 C 155.375 268.246094 155.90625 268.011719 156.308594 267.542969 C 156.710938 267.070312 156.910156 266.445312 156.910156 265.664062 L 156.910156 265.398438 Z M 158.109375 264.902344 L 158.109375 269.0625 L 156.910156 269.0625 L 156.910156 267.957031 C 156.636719 268.398438 156.296875 268.722656 155.886719 268.933594 C 155.480469 269.144531 154.980469 269.25 154.390625 269.25 C 153.644531 269.25 153.050781 269.042969 152.609375 268.621094 C 152.167969 268.203125 151.949219 267.640625 151.949219 266.9375 C 151.949219 266.121094 152.222656 265.5 152.769531 265.085938 C 153.320312 264.667969 154.140625 264.460938 155.230469 264.460938 L 156.910156 264.460938 L 156.910156 264.339844 C 156.910156 263.789062 156.730469 263.363281 156.367188 263.0625 C 156.003906 262.761719 155.496094 262.609375 154.839844 262.609375 C 154.421875 262.609375 154.015625 262.660156 153.621094 262.761719 C 153.226562 262.859375 152.847656 263.011719 152.484375 263.210938 L 152.484375 262.101562 C 152.921875 261.933594 153.34375 261.804688 153.757812 261.722656 C 154.171875 261.636719 154.570312 261.59375 154.960938 261.59375 C 156.015625 261.59375 156.804688 261.867188 157.328125 262.417969 C 157.847656 262.960938 158.109375 263.789062 158.109375 264.902344 Z M 158.109375 264.902344 "/>
<path style=" stroke:none;fill-rule:nonzero;fill:rgb(0%,0%,0%);fill-opacity:1;" d="M 166.636719 264.660156 L 166.636719 269.0625 L 165.4375 269.0625 L 165.4375 264.699219 C 165.4375 264.007812 165.304688 263.492188 165.035156 263.152344 C 164.765625 262.808594 164.363281 262.636719 163.824219 262.636719 C 163.175781 262.636719 162.667969 262.84375 162.292969 263.253906 C 161.917969 263.667969 161.734375 264.230469 161.734375 264.941406 L 161.734375 269.0625 L 160.527344 269.0625 L 160.527344 261.769531 L 161.734375 261.769531 L 161.734375 262.902344 C 162.019531 262.464844 162.359375 262.136719 162.746094 261.921875 C 163.132812 261.703125 163.582031 261.59375 164.089844 261.59375 C 164.929688 261.59375 165.5625 261.855469 165.992188 262.371094 C 166.421875 262.890625 166.636719 263.652344 166.636719 264.660156 Z M 166.636719 264.660156 "/>
<path style="fill:none;stroke-width:0.8;stroke-linecap:butt;stroke-linejoin:round;stroke:rgb(0%,0%,0%);stroke-opacity:1;stroke-miterlimit:4;" d="M -0.000585556 0.000930786 L -3.498632 0.000930786 " transform="matrix(1.333333,0,0,1.333333,40.137499,221.280009)"/>
<path style=" stroke:none;fill-rule:nonzero;fill:rgb(0%,0%,0%);fill-opacity:1;" d="M 13.835938 217.492188 C 13.160156 217.492188 12.652344 217.824219 12.308594 218.492188 C 11.96875 219.15625 11.800781 220.15625 11.800781 221.496094 C 11.800781 222.828125 11.96875 223.828125 12.308594 224.492188 C 12.652344 225.160156 13.160156 225.492188 13.835938 225.492188 C 14.519531 225.492188 15.03125 225.160156 15.371094 224.492188 C 15.710938 223.828125 15.882812 222.828125 15.882812 221.496094 C 15.882812 220.15625 15.710938 219.15625 15.371094 218.492188 C 15.03125 217.824219 14.519531 217.492188 13.835938 217.492188 Z M 13.835938 216.449219 C 14.929688 216.449219 15.761719 216.882812 16.335938 217.742188 C 16.910156 218.605469 17.199219 219.855469 17.199219 221.496094 C 17.199219 223.132812 16.910156 224.382812 16.335938 225.242188 C 15.761719 226.105469 14.929688 226.535156 13.835938 226.535156 C 12.75 226.535156 11.917969 226.105469 11.339844 225.242188 C 10.765625 224.382812 10.480469 223.132812 10.480469 221.496094 C 10.480469 219.855469 10.765625 218.605469 11.339844 217.742188 C 11.917969 216.882812 12.75 216.449219 13.835938 216.449219 Z M 13.835938 216.449219 "/>
<path style=" stroke:none;fill-rule:nonzero;fill:rgb(0%,0%,0%);fill-opacity:1;" d="M 19.507812 224.691406 L 20.882812 224.691406 L 20.882812 226.34375 L 19.507812 226.34375 Z M 19.507812 224.691406 "/>
<path style=" stroke:none;fill-rule:nonzero;fill:rgb(0%,0%,0%);fill-opacity:1;" d="M 26.558594 217.492188 C 25.882812 217.492188 25.375 217.824219 25.03125 218.492188 C 24.691406 219.15625 24.519531 220.15625 24.519531 221.496094 C 24.519531 222.828125 24.691406 223.828125 25.03125 224.492188 C 25.375 225.160156 25.882812 225.492188 26.558594 225.492188 C 27.242188 225.492188 27.75 225.160156 28.09375 224.492188 C 28.433594 223.828125 28.605469 222.828125 28.605469 221.496094 C 28.605469 220.15625 28.433594 219.15625 28.09375 218.492188 C 27.75 217.824219 27.242188 217.492188 26.558594 217.492188 Z M 26.558594 216.449219 C 27.648438 216.449219 28.480469 216.882812 29.058594 217.742188 C 29.632812 218.605469 29.917969 219.855469 29.917969 221.496094 C 29.917969 223.132812 29.632812 224.382812 29.058594 225.242188 C 28.480469 226.105469 27.648438 226.535156 26.558594 226.535156 C 25.46875 226.535156 24.636719 226.105469 24.0625 225.242188 C 23.488281 224.382812 23.199219 223.132812 23.199219 221.496094 C 23.199219 219.855469 23.488281 218.605469 24.0625 217.742188 C 24.636719 216.882812 25.46875 216.449219 26.558594 216.449219 Z M 26.558594 216.449219 "/>
<path style="fill:none;stroke-width:0.8;stroke-linecap:butt;stroke-linejoin:round;stroke:rgb(0%,0%,0%);stroke-opacity:1;stroke-miterlimit:4;" d="M -0.000585556 0.000701904 L -3.498632 0.000701904 " transform="matrix(1.333333,0,0,1.333333,40.137499,180.960002)"/>
<path style=" stroke:none;fill-rule:nonzero;fill:rgb(0%,0%,0%);fill-opacity:1;" d="M 13.835938 177.171875 C 13.160156 177.171875 12.652344 177.503906 12.308594 178.171875 C 11.96875 178.835938 11.800781 179.839844 11.800781 181.175781 C 11.800781 182.507812 11.96875 183.507812 12.308594 184.171875 C 12.652344 184.839844 13.160156 185.171875 13.835938 185.171875 C 14.519531 185.171875 15.03125 184.839844 15.371094 184.171875 C 15.710938 183.507812 15.882812 182.507812 15.882812 181.175781 C 15.882812 179.839844 15.710938 178.835938 15.371094 178.171875 C 15.03125 177.503906 14.519531 177.171875 13.835938 177.171875 Z M 13.835938 176.128906 C 14.929688 176.128906 15.761719 176.5625 16.335938 177.421875 C 16.910156 178.285156 17.199219 179.535156 17.199219 181.175781 C 17.199219 182.8125 16.910156 184.0625 16.335938 184.921875 C 15.761719 185.785156 14.929688 186.214844 13.835938 186.214844 C 12.75 186.214844 11.917969 185.785156 11.339844 184.921875 C 10.765625 184.0625 10.480469 182.8125 10.480469 181.175781 C 10.480469 179.535156 10.765625 178.285156 11.339844 177.421875 C 11.917969 176.5625 12.75 176.128906 13.835938 176.128906 Z M 13.835938 176.128906 "/>
<path style=" stroke:none;fill-rule:nonzero;fill:rgb(0%,0%,0%);fill-opacity:1;" d="M 19.507812 184.371094 L 20.882812 184.371094 L 20.882812 186.027344 L 19.507812 186.027344 Z M 19.507812 184.371094 "/>
<path style=" stroke:none;fill-rule:nonzero;fill:rgb(0%,0%,0%);fill-opacity:1;" d="M 24.878906 184.917969 L 29.46875 184.917969 L 29.46875 186.027344 L 23.296875 186.027344 L 23.296875 184.917969 C 23.796875 184.402344 24.476562 183.710938 25.339844 182.839844 C 26.199219 181.96875 26.742188 181.40625 26.964844 181.15625 C 27.382812 180.683594 27.675781 180.28125 27.84375 179.953125 C 28.011719 179.628906 28.097656 179.304688 28.097656 178.988281 C 28.097656 178.472656 27.914062 178.050781 27.550781 177.726562 C 27.191406 177.398438 26.71875 177.234375 26.136719 177.234375 C 25.722656 177.234375 25.289062 177.308594 24.828125 177.449219 C 24.371094 177.59375 23.882812 177.8125 23.363281 178.101562 L 23.363281 176.773438 C 23.890625 176.5625 24.386719 176.402344 24.847656 176.292969 C 25.308594 176.183594 25.730469 176.128906 26.109375 176.128906 C 27.117188 176.128906 27.921875 176.382812 28.519531 176.886719 C 29.117188 177.390625 29.417969 178.0625 29.417969 178.902344 C 29.417969 179.300781 29.34375 179.683594 29.191406 180.039062 C 29.042969 180.398438 28.769531 180.820312 28.375 181.304688 C 28.265625 181.429688 27.921875 181.796875 27.339844 182.394531 C 26.757812 182.996094 25.9375 183.839844 24.878906 184.917969 Z M 24.878906 184.917969 "/>
<path style="fill:none;stroke-width:0.8;stroke-linecap:butt;stroke-linejoin:round;stroke:rgb(0%,0%,0%);stroke-opacity:1;stroke-miterlimit:4;" d="M -0.000585556 0.000465393 L -3.498632 0.000465393 " transform="matrix(1.333333,0,0,1.333333,40.137499,140.640004)"/>
<path style=" stroke:none;fill-rule:nonzero;fill:rgb(0%,0%,0%);fill-opacity:1;" d="M 13.835938 136.851562 C 13.160156 136.851562 12.652344 137.183594 12.308594 137.851562 C 11.96875 138.515625 11.800781 139.519531 11.800781 140.855469 C 11.800781 142.1875 11.96875 143.1875 12.308594 143.855469 C 12.652344 144.519531 13.160156 144.855469 13.835938 144.855469 C 14.519531 144.855469 15.03125 144.519531 15.371094 143.855469 C 15.710938 143.1875 15.882812 142.1875 15.882812 140.855469 C 15.882812 139.519531 15.710938 138.515625 15.371094 137.851562 C 15.03125 137.183594 14.519531 136.851562 13.835938 136.851562 Z M 13.835938 135.808594 C 14.929688 135.808594 15.761719 136.242188 16.335938 137.105469 C 16.910156 137.964844 17.199219 139.214844 17.199219 140.855469 C 17.199219 142.492188 16.910156 143.742188 16.335938 144.605469 C 15.761719 145.464844 14.929688 145.894531 13.835938 145.894531 C 12.75 145.894531 11.917969 145.464844 11.339844 144.605469 C 10.765625 143.742188 10.480469 142.492188 10.480469 140.855469 C 10.480469 139.214844 10.765625 137.964844 11.339844 137.105469 C 11.917969 136.242188 12.75 135.808594 13.835938 135.808594 Z M 13.835938 135.808594 "/>
<path style=" stroke:none;fill-rule:nonzero;fill:rgb(0%,0%,0%);fill-opacity:1;" d="M 19.507812 144.050781 L 20.882812 144.050781 L 20.882812 145.707031 L 19.507812 145.707031 Z M 19.507812 144.050781 "/>
<path style=" stroke:none;fill-rule:nonzero;fill:rgb(0%,0%,0%);fill-opacity:1;" d="M 27.359375 137.128906 L 24.039062 142.320312 L 27.359375 142.320312 Z M 27.015625 135.984375 L 28.667969 135.984375 L 28.667969 142.320312 L 30.058594 142.320312 L 30.058594 143.414062 L 28.667969 143.414062 L 28.667969 145.707031 L 27.359375 145.707031 L 27.359375 143.414062 L 22.972656 143.414062 L 22.972656 142.144531 Z M 27.015625 135.984375 "/>
<path style="fill:none;stroke-width:0.8;stroke-linecap:butt;stroke-linejoin:round;stroke:rgb(0%,0%,0%);stroke-opacity:1;stroke-miterlimit:4;" d="M -0.000585556 0.000236511 L -3.498632 0.000236511 " transform="matrix(1.333333,0,0,1.333333,40.137499,100.319997)"/>
<path style=" stroke:none;fill-rule:nonzero;fill:rgb(0%,0%,0%);fill-opacity:1;" d="M 13.835938 96.53125 C 13.160156 96.53125 12.652344 96.863281 12.308594 97.53125 C 11.96875 98.195312 11.800781 99.199219 11.800781 100.535156 C 11.800781 101.867188 11.96875 102.867188 12.308594 103.535156 C 12.652344 104.199219 13.160156 104.535156 13.835938 104.535156 C 14.519531 104.535156 15.03125 104.199219 15.371094 103.535156 C 15.710938 102.867188 15.882812 101.867188 15.882812 100.535156 C 15.882812 99.199219 15.710938 98.195312 15.371094 97.53125 C 15.03125 96.863281 14.519531 96.53125 13.835938 96.53125 Z M 13.835938 95.488281 C 14.929688 95.488281 15.761719 95.921875 16.335938 96.785156 C 16.910156 97.644531 17.199219 98.894531 17.199219 100.535156 C 17.199219 102.171875 16.910156 103.421875 16.335938 104.285156 C 15.761719 105.144531 14.929688 105.574219 13.835938 105.574219 C 12.75 105.574219 11.917969 105.144531 11.339844 104.285156 C 10.765625 103.421875 10.480469 102.171875 10.480469 100.535156 C 10.480469 98.894531 10.765625 97.644531 11.339844 96.785156 C 11.917969 95.921875 12.75 95.488281 13.835938 95.488281 Z M 13.835938 95.488281 "/>
<path style=" stroke:none;fill-rule:nonzero;fill:rgb(0%,0%,0%);fill-opacity:1;" d="M 19.507812 103.730469 L 20.882812 103.730469 L 20.882812 105.386719 L 19.507812 105.386719 Z M 19.507812 103.730469 "/>
<path style=" stroke:none;fill-rule:nonzero;fill:rgb(0%,0%,0%);fill-opacity:1;" d="M 26.722656 100.003906 C 26.132812 100.003906 25.664062 100.203125 25.320312 100.609375 C 24.976562 101.011719 24.800781 101.5625 24.800781 102.265625 C 24.800781 102.964844 24.976562 103.519531 25.320312 103.925781 C 25.664062 104.332031 26.132812 104.535156 26.722656 104.535156 C 27.3125 104.535156 27.78125 104.332031 28.125 103.925781 C 28.46875 103.519531 28.640625 102.964844 28.640625 102.265625 C 28.640625 101.5625 28.46875 101.011719 28.125 100.609375 C 27.78125 100.203125 27.3125 100.003906 26.722656 100.003906 Z M 29.332031 95.878906 L 29.332031 97.078125 C 29.003906 96.921875 28.671875 96.804688 28.332031 96.722656 C 27.996094 96.636719 27.664062 96.597656 27.332031 96.597656 C 26.464844 96.597656 25.800781 96.890625 25.34375 97.476562 C 24.886719 98.0625 24.625 98.945312 24.5625 100.132812 C 24.816406 99.753906 25.136719 99.464844 25.523438 99.261719 C 25.910156 99.0625 26.335938 98.960938 26.800781 98.960938 C 27.777344 98.960938 28.546875 99.257812 29.113281 99.851562 C 29.683594 100.441406 29.964844 101.246094 29.964844 102.265625 C 29.964844 103.265625 29.671875 104.066406 29.078125 104.671875 C 28.488281 105.273438 27.703125 105.574219 26.722656 105.574219 C 25.597656 105.574219 24.738281 105.144531 24.144531 104.285156 C 23.550781 103.421875 23.253906 102.171875 23.253906 100.535156 C 23.253906 99 23.617188 97.773438 24.347656 96.859375 C 25.074219 95.945312 26.054688 95.488281 27.28125 95.488281 C 27.613281 95.488281 27.945312 95.523438 28.28125 95.585938 C 28.617188 95.652344 28.96875 95.75 29.332031 95.878906 Z M 29.332031 95.878906 "/>
<path style="fill:none;stroke-width:0.8;stroke-linecap:butt;stroke-linejoin:round;stroke:rgb(0%,0%,0%);stroke-opacity:1;stroke-miterlimit:4;" d="M -0.000585556 0 L -3.498632 0 " transform="matrix(1.333333,0,0,1.333333,40.137499,60)"/>
<path style=" stroke:none;fill-rule:nonzero;fill:rgb(0%,0%,0%);fill-opacity:1;" d="M 13.835938 56.210938 C 13.160156 56.210938 12.652344 56.542969 12.308594 57.210938 C 11.96875 57.875 11.800781 58.878906 11.800781 60.214844 C 11.800781 61.546875 11.96875 62.546875 12.308594 63.214844 C 12.652344 63.878906 13.160156 64.214844 13.835938 64.214844 C 14.519531 64.214844 15.03125 63.878906 15.371094 63.214844 C 15.710938 62.546875 15.882812 61.546875 15.882812 60.214844 C 15.882812 58.878906 15.710938 57.875 15.371094 57.210938 C 15.03125 56.542969 14.519531 56.210938 13.835938 56.210938 Z M 13.835938 55.167969 C 14.929688 55.167969 15.761719 55.601562 16.335938 56.464844 C 16.910156 57.324219 17.199219 58.574219 17.199219 60.214844 C 17.199219 61.851562 16.910156 63.101562 16.335938 63.964844 C 15.761719 64.824219 14.929688 65.253906 13.835938 65.253906 C 12.75 65.253906 11.917969 64.824219 11.339844 63.964844 C 10.765625 63.101562 10.480469 61.851562 10.480469 60.214844 C 10.480469 58.574219 10.765625 57.324219 11.339844 56.464844 C 11.917969 55.601562 12.75 55.167969 13.835938 55.167969 Z M 13.835938 55.167969 "/>
<path style=" stroke:none;fill-rule:nonzero;fill:rgb(0%,0%,0%);fill-opacity:1;" d="M 19.507812 63.410156 L 20.882812 63.410156 L 20.882812 65.066406 L 19.507812 65.066406 Z M 19.507812 63.410156 "/>
<path style=" stroke:none;fill-rule:nonzero;fill:rgb(0%,0%,0%);fill-opacity:1;" d="M 26.558594 60.449219 C 25.933594 60.449219 25.441406 60.617188 25.082031 60.949219 C 24.726562 61.285156 24.546875 61.746094 24.546875 62.332031 C 24.546875 62.917969 24.726562 63.375 25.082031 63.710938 C 25.441406 64.046875 25.933594 64.214844 26.558594 64.214844 C 27.183594 64.214844 27.675781 64.046875 28.035156 63.710938 C 28.398438 63.371094 28.578125 62.914062 28.578125 62.332031 C 28.578125 61.746094 28.398438 61.285156 28.039062 60.949219 C 27.683594 60.617188 27.1875 60.449219 26.558594 60.449219 Z M 25.246094 59.890625 C 24.679688 59.75 24.242188 59.488281 23.925781 59.101562 C 23.613281 58.714844 23.453125 58.242188 23.453125 57.6875 C 23.453125 56.914062 23.730469 56.296875 24.285156 55.847656 C 24.839844 55.394531 25.597656 55.167969 26.558594 55.167969 C 27.527344 55.167969 28.285156 55.394531 28.839844 55.847656 C 29.390625 56.296875 29.664062 56.914062 29.664062 57.6875 C 29.664062 58.242188 29.507812 58.714844 29.191406 59.101562 C 28.878906 59.488281 28.441406 59.75 27.882812 59.890625 C 28.515625 60.039062 29.007812 60.328125 29.359375 60.757812 C 29.714844 61.1875 29.890625 61.710938 29.890625 62.332031 C 29.890625 63.273438 29.605469 63.996094 29.03125 64.5 C 28.453125 65.003906 27.632812 65.253906 26.558594 65.253906 C 25.488281 65.253906 24.664062 65.003906 24.089844 64.5 C 23.511719 63.996094 23.226562 63.273438 23.226562 62.332031 C 23.226562 61.710938 23.402344 61.1875 23.757812 60.757812 C 24.117188 60.328125 24.609375 60.039062 25.246094 59.890625 Z M 24.761719 57.8125 C 24.761719 58.316406 24.921875 58.707031 25.234375 58.992188 C 25.550781 59.273438 25.992188 59.414062 26.558594 59.414062 C 27.125 59.414062 27.566406 59.273438 27.882812 58.992188 C 28.203125 58.707031 28.363281 58.316406 28.363281 57.8125 C 28.363281 57.308594 28.203125 56.917969 27.882812 56.632812 C 27.566406 56.351562 27.125 56.210938 26.558594 56.210938 C 25.992188 56.210938 25.550781 56.351562 25.234375 56.632812 C 24.921875 56.917969 24.761719 57.308594 24.761719 57.8125 Z M 24.761719 57.8125 "/>
<path style="fill:none;stroke-width:0.8;stroke-linecap:butt;stroke-linejoin:round;stroke:rgb(0%,0%,0%);stroke-opacity:1;stroke-miterlimit:4;" d="M -0.000585556 -0.000234604 L -3.498632 -0.000234604 " transform="matrix(1.333333,0,0,1.333333,40.137499,19.68)"/>
<path style=" stroke:none;fill-rule:nonzero;fill:rgb(0%,0%,0%);fill-opacity:1;" d="M 11.253906 23.640625 L 13.402344 23.640625 L 13.402344 16.222656 L 11.066406 16.691406 L 11.066406 15.492188 L 13.390625 15.023438 L 14.703125 15.023438 L 14.703125 23.640625 L 16.851562 23.640625 L 16.851562 24.746094 L 11.253906 24.746094 Z M 11.253906 23.640625 "/>
<path style=" stroke:none;fill-rule:nonzero;fill:rgb(0%,0%,0%);fill-opacity:1;" d="M 19.507812 23.089844 L 20.882812 23.089844 L 20.882812 24.746094 L 19.507812 24.746094 Z M 19.507812 23.089844 "/>
<path style=" stroke:none;fill-rule:nonzero;fill:rgb(0%,0%,0%);fill-opacity:1;" d="M 26.558594 15.890625 C 25.882812 15.890625 25.375 16.226562 25.03125 16.890625 C 24.691406 17.558594 24.519531 18.558594 24.519531 19.894531 C 24.519531 21.226562 24.691406 22.226562 25.03125 22.894531 C 25.375 23.558594 25.882812 23.894531 26.558594 23.894531 C 27.242188 23.894531 27.75 23.558594 28.09375 22.894531 C 28.433594 22.226562 28.605469 21.226562 28.605469 19.894531 C 28.605469 18.558594 28.433594 17.558594 28.09375 16.890625 C 27.75 16.226562 27.242188 15.890625 26.558594 15.890625 Z M 26.558594 14.851562 C 27.648438 14.851562 28.480469 15.28125 29.058594 16.144531 C 29.632812 17.003906 29.917969 18.253906 29.917969 19.894531 C 29.917969 21.53125 29.632812 22.78125 29.058594 23.644531 C 28.480469 24.503906 27.648438 24.933594 26.558594 24.933594 C 25.46875 24.933594 24.636719 24.503906 24.0625 23.644531 C 23.488281 22.78125 23.199219 21.53125 23.199219 19.894531 C 23.199219 18.253906 23.488281 17.003906 24.0625 16.144531 C 24.636719 15.28125 25.46875 14.851562 26.558594 14.851562 Z M 26.558594 14.851562 "/>
<path style="fill:none;stroke-width:1.5;stroke-linecap:square;stroke-linejoin:round;stroke:rgb(12.156863%,46.666667%,70.588237%);stroke-opacity:1;stroke-miterlimit:4;" d="M 36.720703 159.316406 L 39.418945 157.473633 L 42.120117 155.223633 L 44.821289 152.513672 L 47.522461 149.291016 L 50.223633 145.49707 L 52.924805 141.09082 L 55.623047 136.037109 L 58.324219 130.31543 L 61.025391 123.919922 L 63.726562 116.871094 L 66.427734 109.212891 L 69.128906 101.009766 L 71.827148 92.364258 L 74.52832 83.393555 L 79.930664 65.112305 L 82.631836 56.165039 L 85.330078 47.616211 L 88.03125 39.667969 L 90.732422 32.525391 L 93.433594 26.384766 L 96.134766 21.413086 L 98.835938 17.753906 L 101.53418 15.512695 L 104.235352 14.759766 L 106.936523 15.512695 L 109.637695 17.753906 L 112.338867 21.413086 L 115.040039 26.384766 L 117.738281 32.525391 L 120.439453 39.667969 L 123.140625 47.616211 L 125.841797 56.165039 L 128.542969 65.112305 L 131.241211 74.25293 L 133.942383 83.393555 L 136.643555 92.364258 L 139.344727 101.009766 L 142.045898 109.212891 L 144.74707 116.871094 L 147.445312 123.919922 L 150.146484 130.31543 L 152.847656 136.037109 L 155.548828 141.09082 L 158.25 145.49707 L 160.951172 149.291016 L 163.649414 152.513672 L 166.350586 155.223633 L 169.051758 157.473633 " transform="matrix(1.333333,0,0,1.333333,0,0)"/>
<path style="fill:none;stroke-width:0.8;stroke-linecap:square;stroke-linejoin:miter;stroke:rgb(0%,0%,0%);stroke-opacity:1;stroke-miterlimit:4;" d="M 30.102539 173.519531 L 30.102539 7.201172 " transform="matrix(1.333333,0,0,1.333333,0,0)"/>
<path style="fill:none;stroke-width:0.8;stroke-linecap:square;stroke-linejoin:miter;stroke:rgb(0%,0%,0%);stroke-opacity:1;stroke-miterlimit:4;" d="M 175.666992 173.519531 L 175.666992 7.201172 " transform="matrix(1.333333,0,0,1.333333,0,0)"/>
<path style="fill:none;stroke-width:0.8;stroke-linecap:square;stroke-linejoin:miter;stroke:rgb(0%,0%,0%);stroke-opacity:1;stroke-miterlimit:4;" d="M 30.102539 173.519531 L 175.666992 173.519531 " transform="matrix(1.333333,0,0,1.333333,0,0)"/>
<path style="fill:none;stroke-width:0.8;stroke-linecap:square;stroke-linejoin:miter;stroke:rgb(0%,0%,0%);stroke-opacity:1;stroke-miterlimit:4;" d="M 30.102539 7.201172 L 175.666992 7.201172 " transform="matrix(1.333333,0,0,1.333333,0,0)"/>
<path style=" stroke:none;fill-rule:nonzero;fill:rgb(100%,100%,100%);fill-opacity:1;" d="M 273.042969 231.359375 L 467.128906 231.359375 L 467.128906 9.601562 L 273.042969 9.601562 Z M 273.042969 231.359375 "/>
<path style="fill:none;stroke-width:0.8;stroke-linecap:butt;stroke-linejoin:round;stroke:rgb(0%,0%,0%);stroke-opacity:1;stroke-miterlimit:4;" d="M -0.000869751 -0.000473022 L -0.000869751 3.500504 " transform="matrix(1.333333,0,0,1.333333,299.868347,231.360006)"/>
<path style=" stroke:none;fill-rule:nonzero;fill:rgb(0%,0%,0%);fill-opacity:1;" d="M 291.453125 246.089844 L 299.796875 246.089844 L 299.796875 247.199219 L 291.453125 247.199219 Z M 291.453125 246.089844 "/>
<path style=" stroke:none;fill-rule:nonzero;fill:rgb(0%,0%,0%);fill-opacity:1;" d="M 303.769531 249.71875 L 308.359375 249.71875 L 308.359375 250.824219 L 302.1875 250.824219 L 302.1875 249.71875 C 302.6875 249.203125 303.367188 248.507812 304.230469 247.640625 C 305.089844 246.769531 305.632812 246.207031 305.855469 245.953125 C 306.273438 245.480469 306.566406 245.082031 306.734375 244.753906 C 306.902344 244.425781 306.988281 244.105469 306.988281 243.785156 C 306.988281 243.269531 306.804688 242.847656 306.441406 242.523438 C 306.082031 242.199219 305.609375 242.035156 305.027344 242.035156 C 304.613281 242.035156 304.179688 242.105469 303.71875 242.25 C 303.261719 242.394531 302.773438 242.609375 302.253906 242.902344 L 302.253906 241.574219 C 302.78125 241.359375 303.277344 241.199219 303.738281 241.089844 C 304.199219 240.984375 304.621094 240.929688 305 240.929688 C 306.007812 240.929688 306.8125 241.179688 307.410156 241.683594 C 308.007812 242.1875 308.308594 242.859375 308.308594 243.703125 C 308.308594 244.101562 308.234375 244.480469 308.082031 244.839844 C 307.933594 245.195312 307.660156 245.617188 307.265625 246.105469 C 307.15625 246.230469 306.8125 246.59375 306.230469 247.195312 C 305.648438 247.796875 304.832031 248.636719 303.769531 249.71875 Z M 303.769531 249.71875 "/>
<path style="fill:none;stroke-width:0.8;stroke-linecap:butt;stroke-linejoin:round;stroke:rgb(0%,0%,0%);stroke-opacity:1;stroke-miterlimit:4;" d="M 0.000732422 -0.000473022 L 0.000732422 3.500504 " transform="matrix(1.333333,0,0,1.333333,371.885742,231.360006)"/>
<path style=" stroke:none;fill-rule:nonzero;fill:rgb(0%,0%,0%);fill-opacity:1;" d="M 371.882812 241.96875 C 371.207031 241.96875 370.695312 242.304688 370.355469 242.96875 C 370.015625 243.636719 369.84375 244.636719 369.84375 245.972656 C 369.84375 247.304688 370.015625 248.304688 370.355469 248.972656 C 370.695312 249.640625 371.207031 249.972656 371.882812 249.972656 C 372.5625 249.972656 373.074219 249.640625 373.414062 248.972656 C 373.757812 248.304688 373.925781 247.304688 373.925781 245.972656 C 373.925781 244.636719 373.757812 243.636719 373.414062 242.96875 C 373.074219 242.304688 372.5625 241.96875 371.882812 241.96875 Z M 371.882812 240.929688 C 372.972656 240.929688 373.804688 241.359375 374.378906 242.222656 C 374.953125 243.082031 375.242188 244.335938 375.242188 245.972656 C 375.242188 247.609375 374.953125 248.859375 374.378906 249.722656 C 373.804688 250.582031 372.972656 251.015625 371.882812 251.015625 C 370.792969 251.015625 369.960938 250.582031 369.386719 249.722656 C 368.8125 248.859375 368.523438 247.609375 368.523438 245.972656 C 368.523438 244.335938 368.8125 243.082031 369.386719 242.222656 C 369.960938 241.359375 370.792969 240.929688 371.882812 240.929688 Z M 371.882812 240.929688 "/>
<path style="fill:none;stroke-width:0.8;stroke-linecap:butt;stroke-linejoin:round;stroke:rgb(0%,0%,0%);stroke-opacity:1;stroke-miterlimit:4;" d="M -0.000640869 -0.000473022 L -0.000640869 3.500504 " transform="matrix(1.333333,0,0,1.333333,443.903198,231.360006)"/>
<path style=" stroke:none;fill-rule:nonzero;fill:rgb(0%,0%,0%);fill-opacity:1;" d="M 442.21875 249.71875 L 446.808594 249.71875 L 446.808594 250.824219 L 440.636719 250.824219 L 440.636719 249.71875 C 441.136719 249.203125 441.816406 248.507812 442.679688 247.640625 C 443.539062 246.769531 444.082031 246.207031 444.304688 245.953125 C 444.722656 245.480469 445.019531 245.082031 445.183594 244.753906 C 445.351562 244.425781 445.4375 244.105469 445.4375 243.785156 C 445.4375 243.269531 445.253906 242.847656 444.894531 242.523438 C 444.53125 242.199219 444.058594 242.035156 443.476562 242.035156 C 443.0625 242.035156 442.628906 242.105469 442.167969 242.25 C 441.710938 242.394531 441.222656 242.609375 440.703125 242.902344 L 440.703125 241.574219 C 441.230469 241.359375 441.726562 241.199219 442.1875 241.089844 C 442.648438 240.984375 443.070312 240.929688 443.449219 240.929688 C 444.457031 240.929688 445.261719 241.179688 445.859375 241.683594 C 446.457031 242.1875 446.757812 242.859375 446.757812 243.703125 C 446.757812 244.101562 446.683594 244.480469 446.53125 244.839844 C 446.382812 245.195312 446.113281 245.617188 445.714844 246.105469 C 445.605469 246.230469 445.261719 246.59375 444.679688 247.195312 C 444.101562 247.796875 443.28125 248.636719 442.21875 249.71875 Z M 442.21875 249.71875 "/>
<path style=" stroke:none;fill-rule:nonzero;fill:rgb(0%,0%,0%);fill-opacity:1;" d="M 349.941406 264.421875 L 349.941406 267.980469 L 352.054688 267.980469 C 352.761719 267.980469 353.285156 267.835938 353.625 267.542969 C 353.964844 267.25 354.136719 266.800781 354.136719 266.199219 C 354.136719 265.589844 353.964844 265.140625 353.625 264.855469 C 353.285156 264.566406 352.761719 264.421875 352.054688 264.421875 Z M 349.941406 260.421875 L 349.941406 263.351562 L 351.890625 263.351562 C 352.53125 263.351562 353.011719 263.230469 353.324219 262.992188 C 353.640625 262.75 353.796875 262.382812 353.796875 261.886719 C 353.796875 261.398438 353.640625 261.03125 353.324219 260.785156 C 353.011719 260.542969 352.53125 260.421875 351.890625 260.421875 Z M 348.628906 259.339844 L 351.988281 259.339844 C 352.992188 259.339844 353.761719 259.550781 354.304688 259.964844 C 354.847656 260.382812 355.121094 260.976562 355.121094 261.742188 C 355.121094 262.339844 354.980469 262.8125 354.703125 263.164062 C 354.425781 263.515625 354.015625 263.734375 353.476562 263.820312 C 354.125 263.960938 354.628906 264.25 354.988281 264.691406 C 355.34375 265.132812 355.523438 265.679688 355.523438 266.339844 C 355.523438 267.210938 355.230469 267.878906 354.636719 268.355469 C 354.046875 268.824219 353.207031 269.0625 352.117188 269.0625 L 348.628906 269.0625 Z M 348.628906 259.339844 "/>
<path style=" stroke:none;fill-rule:nonzero;fill:rgb(0%,0%,0%);fill-opacity:1;" d="M 360.546875 262.609375 C 359.90625 262.609375 359.398438 262.859375 359.023438 263.363281 C 358.652344 263.863281 358.464844 264.550781 358.464844 265.421875 C 358.464844 266.292969 358.648438 266.980469 359.019531 267.484375 C 359.394531 267.984375 359.902344 268.234375 360.546875 268.234375 C 361.1875 268.234375 361.691406 267.984375 362.066406 267.480469 C 362.4375 266.976562 362.625 266.289062 362.625 265.421875 C 362.625 264.558594 362.4375 263.875 362.066406 263.367188 C 361.691406 262.863281 361.1875 262.609375 360.546875 262.609375 Z M 360.546875 261.59375 C 361.589844 261.59375 362.40625 261.933594 363.003906 262.613281 C 363.597656 263.289062 363.894531 264.226562 363.894531 265.421875 C 363.894531 266.617188 363.597656 267.550781 363.003906 268.234375 C 362.40625 268.910156 361.589844 269.25 360.546875 269.25 C 359.503906 269.25 358.683594 268.910156 358.089844 268.234375 C 357.5 267.550781 357.203125 266.617188 357.203125 265.421875 C 357.203125 264.226562 357.5 263.289062 358.089844 262.613281 C 358.683594 261.933594 359.503906 261.59375 360.546875 261.59375 Z M 360.546875 261.59375 "/>
<path style=" stroke:none;fill-rule:nonzero;fill:rgb(0%,0%,0%);fill-opacity:1;" d="M 371.527344 261.769531 L 368.890625 265.316406 L 371.660156 269.0625 L 370.25 269.0625 L 368.125 266.199219 L 366.003906 269.0625 L 364.589844 269.0625 L 367.425781 265.246094 L 364.832031 261.769531 L 366.246094 261.769531 L 368.179688 264.367188 L 370.113281 261.769531 Z M 371.527344 261.769531 "/>
<path style=" stroke:none;fill-rule:nonzero;fill:rgb(0%,0%,0%);fill-opacity:1;" d="M 378.371094 262.050781 L 378.371094 263.171875 C 378.03125 262.984375 377.691406 262.84375 377.351562 262.75 C 377.011719 262.65625 376.667969 262.609375 376.320312 262.609375 C 375.542969 262.609375 374.9375 262.855469 374.507812 263.347656 C 374.078125 263.839844 373.863281 264.53125 373.863281 265.421875 C 373.863281 266.3125 374.078125 267.003906 374.507812 267.496094 C 374.9375 267.988281 375.542969 268.234375 376.320312 268.234375 C 376.667969 268.234375 377.011719 268.1875 377.351562 268.09375 C 377.691406 268.003906 378.03125 267.863281 378.371094 267.675781 L 378.371094 268.78125 C 378.035156 268.9375 377.6875 269.054688 377.328125 269.132812 C 376.972656 269.210938 376.59375 269.25 376.1875 269.25 C 375.089844 269.25 374.214844 268.90625 373.570312 268.214844 C 372.921875 267.527344 372.601562 266.59375 372.601562 265.421875 C 372.601562 264.234375 372.925781 263.300781 373.578125 262.617188 C 374.234375 261.9375 375.128906 261.59375 376.265625 261.59375 C 376.636719 261.59375 376.996094 261.632812 377.347656 261.710938 C 377.699219 261.785156 378.039062 261.898438 378.371094 262.050781 Z M 378.371094 262.050781 "/>
<path style=" stroke:none;fill-rule:nonzero;fill:rgb(0%,0%,0%);fill-opacity:1;" d="M 383.765625 265.398438 C 382.796875 265.398438 382.128906 265.507812 381.753906 265.730469 C 381.378906 265.949219 381.195312 266.328125 381.195312 266.863281 C 381.195312 267.285156 381.332031 267.625 381.613281 267.875 C 381.894531 268.125 382.277344 268.246094 382.757812 268.246094 C 383.421875 268.246094 383.953125 268.011719 384.355469 267.542969 C 384.757812 267.070312 384.957031 266.445312 384.957031 265.664062 L 384.957031 265.398438 Z M 386.15625 264.902344 L 386.15625 269.0625 L 384.957031 269.0625 L 384.957031 267.957031 C 384.683594 268.398438 384.34375 268.722656 383.933594 268.933594 C 383.527344 269.144531 383.027344 269.25 382.4375 269.25 C 381.691406 269.25 381.097656 269.042969 380.65625 268.621094 C 380.214844 268.203125 379.996094 267.640625 379.996094 266.9375 C 379.996094 266.121094 380.269531 265.5 380.820312 265.085938 C 381.367188 264.667969 382.1875 264.460938 383.277344 264.460938 L 384.957031 264.460938 L 384.957031 264.339844 C 384.957031 263.789062 384.777344 263.363281 384.414062 263.0625 C 384.050781 262.761719 383.542969 262.609375 382.886719 262.609375 C 382.472656 262.609375 382.066406 262.660156 381.667969 262.761719 C 381.273438 262.859375 380.894531 263.011719 380.53125 263.210938 L 380.53125 262.101562 C 380.96875 261.933594 381.394531 261.804688 381.804688 261.722656 C 382.21875 261.636719 382.621094 261.59375 383.011719 261.59375 C 384.066406 261.59375 384.855469 261.867188 385.375 262.417969 C 385.894531 262.960938 386.15625 263.789062 386.15625 264.902344 Z M 386.15625 264.902344 "/>
<path style=" stroke:none;fill-rule:nonzero;fill:rgb(0%,0%,0%);fill-opacity:1;" d="M 392.847656 262.890625 C 392.710938 262.8125 392.566406 262.753906 392.40625 262.71875 C 392.25 262.679688 392.074219 262.660156 391.886719 262.660156 C 391.207031 262.660156 390.6875 262.882812 390.324219 263.324219 C 389.960938 263.761719 389.78125 264.394531 389.78125 265.21875 L 389.78125 269.0625 L 388.578125 269.0625 L 388.578125 261.769531 L 389.78125 261.769531 L 389.78125 262.902344 C 390.035156 262.460938 390.363281 262.132812 390.765625 261.917969 C 391.167969 261.703125 391.660156 261.59375 392.238281 261.59375 C 392.320312 261.59375 392.410156 261.601562 392.511719 261.613281 C 392.609375 261.621094 392.71875 261.636719 392.839844 261.660156 Z M 392.847656 262.890625 "/>
<path style="fill:none;stroke-width:0.8;stroke-linecap:butt;stroke-linejoin:round;stroke:rgb(0%,0%,0%);stroke-opacity:1;stroke-miterlimit:4;" d="M 0.000839233 0.000930786 L -3.500137 0.000930786 " transform="matrix(1.333333,0,0,1.333333,273.04185,221.280009)"/>
<path style="fill:none;stroke-width:0.8;stroke-linecap:butt;stroke-linejoin:round;stroke:rgb(0%,0%,0%);stroke-opacity:1;stroke-miterlimit:4;" d="M 0.000839233 0.000701904 L -3.500137 0.000701904 " transform="matrix(1.333333,0,0,1.333333,273.04185,180.960002)"/>
<path style="fill:none;stroke-width:0.8;stroke-linecap:butt;stroke-linejoin:round;stroke:rgb(0%,0%,0%);stroke-opacity:1;stroke-miterlimit:4;" d="M 0.000839233 0.000465393 L -3.500137 0.000465393 " transform="matrix(1.333333,0,0,1.333333,273.04185,140.640004)"/>
<path style="fill:none;stroke-width:0.8;stroke-linecap:butt;stroke-linejoin:round;stroke:rgb(0%,0%,0%);stroke-opacity:1;stroke-miterlimit:4;" d="M 0.000839233 0.000236511 L -3.500137 0.000236511 " transform="matrix(1.333333,0,0,1.333333,273.04185,100.319997)"/>
<path style="fill:none;stroke-width:0.8;stroke-linecap:butt;stroke-linejoin:round;stroke:rgb(0%,0%,0%);stroke-opacity:1;stroke-miterlimit:4;" d="M 0.000839233 0 L -3.500137 0 " transform="matrix(1.333333,0,0,1.333333,273.04185,60)"/>
<path style="fill:none;stroke-width:0.8;stroke-linecap:butt;stroke-linejoin:round;stroke:rgb(0%,0%,0%);stroke-opacity:1;stroke-miterlimit:4;" d="M 0.000839233 -0.000234604 L -3.500137 -0.000234604 " transform="matrix(1.333333,0,0,1.333333,273.04185,19.68)"/>
<path style="fill:none;stroke-width:1.5;stroke-linecap:square;stroke-linejoin:round;stroke:rgb(12.156863%,46.666667%,70.588237%);stroke-opacity:1;stroke-miterlimit:4;" d="M 211.397461 165.960938 L 251.90918 165.960938 L 254.607422 14.759766 L 303.219727 14.759766 L 305.920898 165.960938 L 343.731445 165.960938 " transform="matrix(1.333333,0,0,1.333333,0,0)"/>
<path style="fill:none;stroke-width:0.8;stroke-linecap:square;stroke-linejoin:miter;stroke:rgb(0%,0%,0%);stroke-opacity:1;stroke-miterlimit:4;" d="M 204.782227 173.519531 L 204.782227 7.201172 " transform="matrix(1.333333,0,0,1.333333,0,0)"/>
<path style="fill:none;stroke-width:0.8;stroke-linecap:square;stroke-linejoin:miter;stroke:rgb(0%,0%,0%);stroke-opacity:1;stroke-miterlimit:4;" d="M 350.34668 173.519531 L 350.34668 7.201172 " transform="matrix(1.333333,0,0,1.333333,0,0)"/>
<path style="fill:none;stroke-width:0.8;stroke-linecap:square;stroke-linejoin:miter;stroke:rgb(0%,0%,0%);stroke-opacity:1;stroke-miterlimit:4;" d="M 204.782227 173.519531 L 350.34668 173.519531 " transform="matrix(1.333333,0,0,1.333333,0,0)"/>
<path style="fill:none;stroke-width:0.8;stroke-linecap:square;stroke-linejoin:miter;stroke:rgb(0%,0%,0%);stroke-opacity:1;stroke-miterlimit:4;" d="M 204.782227 7.201172 L 350.34668 7.201172 " transform="matrix(1.333333,0,0,1.333333,0,0)"/>
<path style=" stroke:none;fill-rule:nonzero;fill:rgb(100%,100%,100%);fill-opacity:1;" d="M 505.945312 231.359375 L 700.03125 231.359375 L 700.03125 9.601562 L 505.945312 9.601562 Z M 505.945312 231.359375 "/>
<path style="fill:none;stroke-width:0.8;stroke-linecap:butt;stroke-linejoin:round;stroke:rgb(0%,0%,0%);stroke-opacity:1;stroke-miterlimit:4;" d="M 0.000549316 -0.000473022 L 0.000549316 3.500504 " transform="matrix(1.333333,0,0,1.333333,532.772705,231.360006)"/>
<path style=" stroke:none;fill-rule:nonzero;fill:rgb(0%,0%,0%);fill-opacity:1;" d="M 524.355469 246.089844 L 532.703125 246.089844 L 532.703125 247.199219 L 524.355469 247.199219 Z M 524.355469 246.089844 "/>
<path style=" stroke:none;fill-rule:nonzero;fill:rgb(0%,0%,0%);fill-opacity:1;" d="M 536.675781 249.71875 L 541.265625 249.71875 L 541.265625 250.824219 L 535.09375 250.824219 L 535.09375 249.71875 C 535.59375 249.203125 536.273438 248.507812 537.132812 247.640625 C 537.996094 246.769531 538.539062 246.207031 538.757812 245.953125 C 539.179688 245.480469 539.472656 245.082031 539.640625 244.753906 C 539.808594 244.425781 539.890625 244.105469 539.890625 243.785156 C 539.890625 243.269531 539.710938 242.847656 539.347656 242.523438 C 538.984375 242.199219 538.511719 242.035156 537.929688 242.035156 C 537.519531 242.035156 537.082031 242.105469 536.625 242.25 C 536.167969 242.394531 535.679688 242.609375 535.15625 242.902344 L 535.15625 241.574219 C 535.6875 241.359375 536.183594 241.199219 536.640625 241.089844 C 537.101562 240.984375 537.523438 240.929688 537.90625 240.929688 C 538.914062 240.929688 539.714844 241.179688 540.3125 241.683594 C 540.914062 242.1875 541.210938 242.859375 541.210938 243.703125 C 541.210938 244.101562 541.136719 244.480469 540.988281 244.839844 C 540.839844 245.195312 540.566406 245.617188 540.171875 246.105469 C 540.0625 246.230469 539.71875 246.59375 539.136719 247.195312 C 538.554688 247.796875 537.734375 248.636719 536.675781 249.71875 Z M 536.675781 249.71875 "/>
<path style="fill:none;stroke-width:0.8;stroke-linecap:butt;stroke-linejoin:round;stroke:rgb(0%,0%,0%);stroke-opacity:1;stroke-miterlimit:4;" d="M -0.000793457 -0.000473022 L -0.000793457 3.500504 " transform="matrix(1.333333,0,0,1.333333,604.79012,231.360006)"/>
<path style=" stroke:none;fill-rule:nonzero;fill:rgb(0%,0%,0%);fill-opacity:1;" d="M 604.785156 241.96875 C 604.109375 241.96875 603.601562 242.304688 603.257812 242.96875 C 602.917969 243.636719 602.75 244.636719 602.75 245.972656 C 602.75 247.304688 602.917969 248.304688 603.257812 248.972656 C 603.601562 249.640625 604.109375 249.972656 604.785156 249.972656 C 605.46875 249.972656 605.980469 249.640625 606.320312 248.972656 C 606.660156 248.304688 606.832031 247.304688 606.832031 245.972656 C 606.832031 244.636719 606.660156 243.636719 606.320312 242.96875 C 605.980469 242.304688 605.46875 241.96875 604.785156 241.96875 Z M 604.785156 240.929688 C 605.875 240.929688 606.707031 241.359375 607.285156 242.222656 C 607.859375 243.082031 608.144531 244.335938 608.144531 245.972656 C 608.144531 247.609375 607.859375 248.859375 607.285156 249.722656 C 606.707031 250.582031 605.875 251.015625 604.785156 251.015625 C 603.695312 251.015625 602.863281 250.582031 602.289062 249.722656 C 601.714844 248.859375 601.425781 247.609375 601.425781 245.972656 C 601.425781 244.335938 601.714844 243.082031 602.289062 242.222656 C 602.863281 241.359375 603.695312 240.929688 604.785156 240.929688 Z M 604.785156 240.929688 "/>
<path style="fill:none;stroke-width:0.8;stroke-linecap:butt;stroke-linejoin:round;stroke:rgb(0%,0%,0%);stroke-opacity:1;stroke-miterlimit:4;" d="M 0.000793457 -0.000473022 L 0.000793457 3.500504 " transform="matrix(1.333333,0,0,1.333333,676.807536,231.360006)"/>
<path style=" stroke:none;fill-rule:nonzero;fill:rgb(0%,0%,0%);fill-opacity:1;" d="M 675.125 249.71875 L 679.714844 249.71875 L 679.714844 250.824219 L 673.542969 250.824219 L 673.542969 249.71875 C 674.042969 249.203125 674.722656 248.507812 675.582031 247.640625 C 676.445312 246.769531 676.988281 246.207031 677.207031 245.953125 C 677.628906 245.480469 677.921875 245.082031 678.089844 244.753906 C 678.257812 244.425781 678.339844 244.105469 678.339844 243.785156 C 678.339844 243.269531 678.160156 242.847656 677.796875 242.523438 C 677.433594 242.199219 676.960938 242.035156 676.378906 242.035156 C 675.96875 242.035156 675.53125 242.105469 675.074219 242.25 C 674.617188 242.394531 674.128906 242.609375 673.609375 242.902344 L 673.609375 241.574219 C 674.136719 241.359375 674.632812 241.199219 675.089844 241.089844 C 675.550781 240.984375 675.972656 240.929688 676.355469 240.929688 C 677.363281 240.929688 678.164062 241.179688 678.765625 241.683594 C 679.363281 242.1875 679.660156 242.859375 679.660156 243.703125 C 679.660156 244.101562 679.585938 244.480469 679.4375 244.839844 C 679.289062 245.195312 679.015625 245.617188 678.621094 246.105469 C 678.511719 246.230469 678.167969 246.59375 677.585938 247.195312 C 677.003906 247.796875 676.183594 248.636719 675.125 249.71875 Z M 675.125 249.71875 "/>
<path style=" stroke:none;fill-rule:nonzero;fill:rgb(0%,0%,0%);fill-opacity:1;" d="M 581.605469 260.089844 L 581.605469 261.476562 C 581.164062 261.0625 580.691406 260.757812 580.191406 260.554688 C 579.6875 260.347656 579.15625 260.246094 578.59375 260.246094 C 577.480469 260.246094 576.632812 260.585938 576.039062 261.265625 C 575.449219 261.945312 575.15625 262.925781 575.15625 264.210938 C 575.15625 265.492188 575.449219 266.472656 576.039062 267.152344 C 576.632812 267.832031 577.480469 268.171875 578.59375 268.171875 C 579.15625 268.171875 579.6875 268.066406 580.191406 267.863281 C 580.691406 267.660156 581.164062 267.351562 581.605469 266.9375 L 581.605469 268.3125 C 581.148438 268.625 580.660156 268.863281 580.144531 269.019531 C 579.632812 269.175781 579.089844 269.25 578.515625 269.25 C 577.042969 269.25 575.882812 268.800781 575.035156 267.902344 C 574.191406 267 573.769531 265.769531 573.769531 264.210938 C 573.769531 262.648438 574.191406 261.417969 575.035156 260.519531 C 575.882812 259.617188 577.042969 259.167969 578.515625 259.167969 C 579.097656 259.167969 579.644531 259.242188 580.15625 259.398438 C 580.671875 259.550781 581.15625 259.78125 581.605469 260.089844 Z M 581.605469 260.089844 "/>
<path style=" stroke:none;fill-rule:nonzero;fill:rgb(0%,0%,0%);fill-opacity:1;" d="M 586.410156 262.609375 C 585.769531 262.609375 585.261719 262.859375 584.886719 263.363281 C 584.515625 263.863281 584.328125 264.550781 584.328125 265.421875 C 584.328125 266.292969 584.511719 266.980469 584.882812 267.484375 C 585.257812 267.984375 585.765625 268.234375 586.410156 268.234375 C 587.050781 268.234375 587.554688 267.984375 587.925781 267.480469 C 588.300781 266.976562 588.488281 266.289062 588.488281 265.421875 C 588.488281 264.558594 588.300781 263.875 587.925781 263.367188 C 587.554688 262.863281 587.050781 262.609375 586.410156 262.609375 Z M 586.410156 261.59375 C 587.453125 261.59375 588.269531 261.933594 588.863281 262.613281 C 589.460938 263.289062 589.757812 264.226562 589.757812 265.421875 C 589.757812 266.617188 589.460938 267.550781 588.863281 268.234375 C 588.269531 268.910156 587.453125 269.25 586.410156 269.25 C 585.363281 269.25 584.546875 268.910156 583.953125 268.234375 C 583.359375 267.550781 583.066406 266.617188 583.066406 265.421875 C 583.066406 264.226562 583.359375 263.289062 583.953125 262.613281 C 584.546875 261.933594 585.363281 261.59375 586.410156 261.59375 Z M 586.410156 261.59375 "/>
<path style=" stroke:none;fill-rule:nonzero;fill:rgb(0%,0%,0%);fill-opacity:1;" d="M 597.804688 264.660156 L 597.804688 269.0625 L 596.609375 269.0625 L 596.609375 264.699219 C 596.609375 264.007812 596.472656 263.492188 596.203125 263.152344 C 595.933594 262.808594 595.53125 262.636719 594.992188 262.636719 C 594.347656 262.636719 593.835938 262.84375 593.460938 263.253906 C 593.089844 263.667969 592.902344 264.230469 592.902344 264.941406 L 592.902344 269.0625 L 591.699219 269.0625 L 591.699219 261.769531 L 592.902344 261.769531 L 592.902344 262.902344 C 593.1875 262.464844 593.527344 262.136719 593.914062 261.921875 C 594.304688 261.703125 594.75 261.59375 595.261719 261.59375 C 596.097656 261.59375 596.730469 261.855469 597.160156 262.371094 C 597.589844 262.890625 597.804688 263.652344 597.804688 264.660156 Z M 597.804688 264.660156 "/>
<path style=" stroke:none;fill-rule:nonzero;fill:rgb(0%,0%,0%);fill-opacity:1;" d="M 604.84375 261.984375 L 604.84375 263.117188 C 604.503906 262.945312 604.152344 262.816406 603.789062 262.730469 C 603.425781 262.640625 603.046875 262.597656 602.65625 262.597656 C 602.058594 262.597656 601.613281 262.6875 601.316406 262.871094 C 601.019531 263.050781 600.871094 263.324219 600.871094 263.691406 C 600.871094 263.96875 600.976562 264.1875 601.191406 264.34375 C 601.402344 264.503906 601.832031 264.65625 602.472656 264.796875 L 602.882812 264.890625 C 603.734375 265.070312 604.335938 265.328125 604.695312 265.660156 C 605.054688 265.992188 605.234375 266.457031 605.234375 267.050781 C 605.234375 267.726562 604.964844 268.265625 604.429688 268.660156 C 603.894531 269.054688 603.15625 269.25 602.21875 269.25 C 601.828125 269.25 601.421875 269.214844 601 269.136719 C 600.574219 269.0625 600.128906 268.945312 599.660156 268.796875 L 599.660156 267.558594 C 600.105469 267.789062 600.539062 267.960938 600.96875 268.078125 C 601.398438 268.191406 601.824219 268.246094 602.246094 268.246094 C 602.808594 268.246094 603.242188 268.152344 603.546875 267.957031 C 603.851562 267.765625 604.003906 267.492188 604.003906 267.140625 C 604.003906 266.816406 603.894531 266.566406 603.671875 266.394531 C 603.457031 266.21875 602.976562 266.050781 602.230469 265.890625 L 601.816406 265.792969 C 601.074219 265.636719 600.539062 265.398438 600.207031 265.074219 C 599.878906 264.75 599.710938 264.308594 599.710938 263.742188 C 599.710938 263.058594 599.957031 262.527344 600.441406 262.15625 C 600.929688 261.78125 601.617188 261.59375 602.511719 261.59375 C 602.953125 261.59375 603.371094 261.628906 603.761719 261.691406 C 604.152344 261.757812 604.511719 261.855469 604.84375 261.984375 Z M 604.84375 261.984375 "/>
<path style=" stroke:none;fill-rule:nonzero;fill:rgb(0%,0%,0%);fill-opacity:1;" d="M 608.324219 259.699219 L 608.324219 261.769531 L 610.792969 261.769531 L 610.792969 262.703125 L 608.324219 262.703125 L 608.324219 266.660156 C 608.324219 267.253906 608.40625 267.636719 608.570312 267.804688 C 608.730469 267.976562 609.0625 268.058594 609.5625 268.058594 L 610.792969 268.058594 L 610.792969 269.0625 L 609.5625 269.0625 C 608.636719 269.0625 608 268.890625 607.648438 268.546875 C 607.296875 268.199219 607.121094 267.570312 607.121094 266.660156 L 607.121094 262.703125 L 606.242188 262.703125 L 606.242188 261.769531 L 607.121094 261.769531 L 607.121094 259.699219 Z M 608.324219 259.699219 "/>
<path style=" stroke:none;fill-rule:nonzero;fill:rgb(0%,0%,0%);fill-opacity:1;" d="M 615.683594 265.398438 C 614.714844 265.398438 614.042969 265.507812 613.671875 265.730469 C 613.296875 265.949219 613.109375 266.328125 613.109375 266.863281 C 613.109375 267.285156 613.25 267.625 613.53125 267.875 C 613.8125 268.125 614.191406 268.246094 614.671875 268.246094 C 615.339844 268.246094 615.871094 268.011719 616.273438 267.542969 C 616.675781 267.070312 616.875 266.445312 616.875 265.664062 L 616.875 265.398438 Z M 618.074219 264.902344 L 618.074219 269.0625 L 616.875 269.0625 L 616.875 267.957031 C 616.601562 268.398438 616.261719 268.722656 615.851562 268.933594 C 615.445312 269.144531 614.945312 269.25 614.355469 269.25 C 613.609375 269.25 613.015625 269.042969 612.574219 268.621094 C 612.132812 268.203125 611.914062 267.640625 611.914062 266.9375 C 611.914062 266.121094 612.1875 265.5 612.734375 265.085938 C 613.285156 264.667969 614.105469 264.460938 615.195312 264.460938 L 616.875 264.460938 L 616.875 264.339844 C 616.875 263.789062 616.695312 263.363281 616.332031 263.0625 C 615.96875 262.761719 615.460938 262.609375 614.804688 262.609375 C 614.386719 262.609375 613.980469 262.660156 613.585938 262.761719 C 613.191406 262.859375 612.8125 263.011719 612.449219 263.210938 L 612.449219 262.101562 C 612.886719 261.933594 613.308594 261.804688 613.722656 261.722656 C 614.136719 261.636719 614.535156 261.59375 614.925781 261.59375 C 615.984375 261.59375 616.769531 261.867188 617.292969 262.417969 C 617.8125 262.960938 618.074219 263.789062 618.074219 264.902344 Z M 618.074219 264.902344 "/>
<path style=" stroke:none;fill-rule:nonzero;fill:rgb(0%,0%,0%);fill-opacity:1;" d="M 626.601562 264.660156 L 626.601562 269.0625 L 625.402344 269.0625 L 625.402344 264.699219 C 625.402344 264.007812 625.269531 263.492188 625 263.152344 C 624.730469 262.808594 624.328125 262.636719 623.789062 262.636719 C 623.140625 262.636719 622.632812 262.84375 622.257812 263.253906 C 621.882812 263.667969 621.699219 264.230469 621.699219 264.941406 L 621.699219 269.0625 L 620.492188 269.0625 L 620.492188 261.769531 L 621.699219 261.769531 L 621.699219 262.902344 C 621.984375 262.464844 622.324219 262.136719 622.710938 261.921875 C 623.097656 261.703125 623.546875 261.59375 624.054688 261.59375 C 624.894531 261.59375 625.527344 261.855469 625.957031 262.371094 C 626.386719 262.890625 626.601562 263.652344 626.601562 264.660156 Z M 626.601562 264.660156 "/>
<path style=" stroke:none;fill-rule:nonzero;fill:rgb(0%,0%,0%);fill-opacity:1;" d="M 630.175781 259.699219 L 630.175781 261.769531 L 632.640625 261.769531 L 632.640625 262.703125 L 630.175781 262.703125 L 630.175781 266.660156 C 630.175781 267.253906 630.257812 267.636719 630.417969 267.804688 C 630.582031 267.976562 630.914062 268.058594 631.414062 268.058594 L 632.640625 268.058594 L 632.640625 269.0625 L 631.414062 269.0625 C 630.488281 269.0625 629.847656 268.890625 629.496094 268.546875 C 629.148438 268.199219 628.972656 267.570312 628.972656 266.660156 L 628.972656 262.703125 L 628.089844 262.703125 L 628.089844 261.769531 L 628.972656 261.769531 L 628.972656 259.699219 Z M 630.175781 259.699219 "/>
<path style="fill:none;stroke-width:0.8;stroke-linecap:butt;stroke-linejoin:round;stroke:rgb(0%,0%,0%);stroke-opacity:1;stroke-miterlimit:4;" d="M -0.000671387 0.000930786 L -3.498718 0.000930786 " transform="matrix(1.333333,0,0,1.333333,505.946208,221.280009)"/>
<path style="fill:none;stroke-width:0.8;stroke-linecap:butt;stroke-linejoin:round;stroke:rgb(0%,0%,0%);stroke-opacity:1;stroke-miterlimit:4;" d="M -0.000671387 0.000701904 L -3.498718 0.000701904 " transform="matrix(1.333333,0,0,1.333333,505.946208,180.960002)"/>
<path style="fill:none;stroke-width:0.8;stroke-linecap:butt;stroke-linejoin:round;stroke:rgb(0%,0%,0%);stroke-opacity:1;stroke-miterlimit:4;" d="M -0.000671387 0.000465393 L -3.498718 0.000465393 " transform="matrix(1.333333,0,0,1.333333,505.946208,140.640004)"/>
<path style="fill:none;stroke-width:0.8;stroke-linecap:butt;stroke-linejoin:round;stroke:rgb(0%,0%,0%);stroke-opacity:1;stroke-miterlimit:4;" d="M -0.000671387 0.000236511 L -3.498718 0.000236511 " transform="matrix(1.333333,0,0,1.333333,505.946208,100.319997)"/>
<path style="fill:none;stroke-width:0.8;stroke-linecap:butt;stroke-linejoin:round;stroke:rgb(0%,0%,0%);stroke-opacity:1;stroke-miterlimit:4;" d="M -0.000671387 0 L -3.498718 0 " transform="matrix(1.333333,0,0,1.333333,505.946208,60)"/>
<path style="fill:none;stroke-width:0.8;stroke-linecap:butt;stroke-linejoin:round;stroke:rgb(0%,0%,0%);stroke-opacity:1;stroke-miterlimit:4;" d="M -0.000671387 -0.000234604 L -3.498718 -0.000234604 " transform="matrix(1.333333,0,0,1.333333,505.946208,19.68)"/>
<path style="fill:none;stroke-width:1.5;stroke-linecap:square;stroke-linejoin:round;stroke:rgb(12.156863%,46.666667%,70.588237%);stroke-opacity:1;stroke-miterlimit:4;" d="M 386.077148 14.759766 L 518.408203 14.759766 " transform="matrix(1.333333,0,0,1.333333,0,0)"/>
<path style="fill:none;stroke-width:0.8;stroke-linecap:square;stroke-linejoin:miter;stroke:rgb(0%,0%,0%);stroke-opacity:1;stroke-miterlimit:4;" d="M 379.458984 173.519531 L 379.458984 7.201172 " transform="matrix(1.333333,0,0,1.333333,0,0)"/>
<path style="fill:none;stroke-width:0.8;stroke-linecap:square;stroke-linejoin:miter;stroke:rgb(0%,0%,0%);stroke-opacity:1;stroke-miterlimit:4;" d="M 525.023438 173.519531 L 525.023438 7.201172 " transform="matrix(1.333333,0,0,1.333333,0,0)"/>
<path style="fill:none;stroke-width:0.8;stroke-linecap:square;stroke-linejoin:miter;stroke:rgb(0%,0%,0%);stroke-opacity:1;stroke-miterlimit:4;" d="M 379.458984 173.519531 L 525.023438 173.519531 " transform="matrix(1.333333,0,0,1.333333,0,0)"/>
<path style="fill:none;stroke-width:0.8;stroke-linecap:square;stroke-linejoin:miter;stroke:rgb(0%,0%,0%);stroke-opacity:1;stroke-miterlimit:4;" d="M 379.458984 7.201172 L 525.023438 7.201172 " transform="matrix(1.333333,0,0,1.333333,0,0)"/>
<path style=" stroke:none;fill-rule:nonzero;fill:rgb(100%,100%,100%);fill-opacity:1;" d="M 738.851562 231.359375 L 932.9375 231.359375 L 932.9375 9.601562 L 738.851562 9.601562 Z M 738.851562 231.359375 "/>
<path style="fill:none;stroke-width:0.8;stroke-linecap:butt;stroke-linejoin:round;stroke:rgb(0%,0%,0%);stroke-opacity:1;stroke-miterlimit:4;" d="M -0.000915527 -0.000473022 L -0.000915527 3.500504 " transform="matrix(1.333333,0,0,1.333333,765.677002,231.360006)"/>
<path style=" stroke:none;fill-rule:nonzero;fill:rgb(0%,0%,0%);fill-opacity:1;" d="M 757.261719 246.089844 L 765.605469 246.089844 L 765.605469 247.199219 L 757.261719 247.199219 Z M 757.261719 246.089844 "/>
<path style=" stroke:none;fill-rule:nonzero;fill:rgb(0%,0%,0%);fill-opacity:1;" d="M 769.578125 249.71875 L 774.167969 249.71875 L 774.167969 250.824219 L 767.996094 250.824219 L 767.996094 249.71875 C 768.496094 249.203125 769.175781 248.507812 770.039062 247.640625 C 770.898438 246.769531 771.441406 246.207031 771.664062 245.953125 C 772.082031 245.480469 772.378906 245.082031 772.542969 244.753906 C 772.710938 244.425781 772.796875 244.105469 772.796875 243.785156 C 772.796875 243.269531 772.613281 242.847656 772.253906 242.523438 C 771.890625 242.199219 771.417969 242.035156 770.835938 242.035156 C 770.421875 242.035156 769.988281 242.105469 769.527344 242.25 C 769.070312 242.394531 768.582031 242.609375 768.0625 242.902344 L 768.0625 241.574219 C 768.589844 241.359375 769.085938 241.199219 769.546875 241.089844 C 770.007812 240.984375 770.429688 240.929688 770.808594 240.929688 C 771.816406 240.929688 772.621094 241.179688 773.21875 241.683594 C 773.816406 242.1875 774.117188 242.859375 774.117188 243.703125 C 774.117188 244.101562 774.042969 244.480469 773.890625 244.839844 C 773.742188 245.195312 773.472656 245.617188 773.074219 246.105469 C 772.964844 246.230469 772.621094 246.59375 772.039062 247.195312 C 771.457031 247.796875 770.640625 248.636719 769.578125 249.71875 Z M 769.578125 249.71875 "/>
<path style="fill:none;stroke-width:0.8;stroke-linecap:butt;stroke-linejoin:round;stroke:rgb(0%,0%,0%);stroke-opacity:1;stroke-miterlimit:4;" d="M 0.000671387 -0.000473022 L 0.000671387 3.500504 " transform="matrix(1.333333,0,0,1.333333,837.694417,231.360006)"/>
<path style=" stroke:none;fill-rule:nonzero;fill:rgb(0%,0%,0%);fill-opacity:1;" d="M 837.691406 241.96875 C 837.015625 241.96875 836.503906 242.304688 836.164062 242.96875 C 835.824219 243.636719 835.652344 244.636719 835.652344 245.972656 C 835.652344 247.304688 835.824219 248.304688 836.164062 248.972656 C 836.503906 249.640625 837.015625 249.972656 837.691406 249.972656 C 838.371094 249.972656 838.882812 249.640625 839.222656 248.972656 C 839.566406 248.304688 839.734375 247.304688 839.734375 245.972656 C 839.734375 244.636719 839.566406 243.636719 839.222656 242.96875 C 838.882812 242.304688 838.371094 241.96875 837.691406 241.96875 Z M 837.691406 240.929688 C 838.78125 240.929688 839.613281 241.359375 840.1875 242.222656 C 840.761719 243.082031 841.050781 244.335938 841.050781 245.972656 C 841.050781 247.609375 840.761719 248.859375 840.1875 249.722656 C 839.613281 250.582031 838.78125 251.015625 837.691406 251.015625 C 836.601562 251.015625 835.769531 250.582031 835.195312 249.722656 C 834.621094 248.859375 834.332031 247.609375 834.332031 245.972656 C 834.332031 244.335938 834.621094 243.082031 835.195312 242.222656 C 835.769531 241.359375 836.601562 240.929688 837.691406 240.929688 Z M 837.691406 240.929688 "/>
<path style="fill:none;stroke-width:0.8;stroke-linecap:butt;stroke-linejoin:round;stroke:rgb(0%,0%,0%);stroke-opacity:1;stroke-miterlimit:4;" d="M -0.000732422 -0.000473022 L -0.000732422 3.500504 " transform="matrix(1.333333,0,0,1.333333,909.711914,231.360006)"/>
<path style=" stroke:none;fill-rule:nonzero;fill:rgb(0%,0%,0%);fill-opacity:1;" d="M 908.027344 249.71875 L 912.617188 249.71875 L 912.617188 250.824219 L 906.449219 250.824219 L 906.449219 249.71875 C 906.945312 249.203125 907.625 248.507812 908.488281 247.640625 C 909.347656 246.769531 909.890625 246.207031 910.113281 245.953125 C 910.53125 245.480469 910.828125 245.082031 910.992188 244.753906 C 911.160156 244.425781 911.246094 244.105469 911.246094 243.785156 C 911.246094 243.269531 911.0625 242.847656 910.703125 242.523438 C 910.339844 242.199219 909.867188 242.035156 909.285156 242.035156 C 908.871094 242.035156 908.4375 242.105469 907.980469 242.25 C 907.523438 242.394531 907.03125 242.609375 906.511719 242.902344 L 906.511719 241.574219 C 907.042969 241.359375 907.535156 241.199219 907.996094 241.089844 C 908.457031 240.984375 908.878906 240.929688 909.261719 240.929688 C 910.265625 240.929688 911.070312 241.179688 911.667969 241.683594 C 912.265625 242.1875 912.566406 242.859375 912.566406 243.703125 C 912.566406 244.101562 912.492188 244.480469 912.339844 244.839844 C 912.191406 245.195312 911.921875 245.617188 911.523438 246.105469 C 911.417969 246.230469 911.070312 246.59375 910.488281 247.195312 C 909.910156 247.796875 909.089844 248.636719 908.027344 249.71875 Z M 908.027344 249.71875 "/>
<path style=" stroke:none;fill-rule:nonzero;fill:rgb(0%,0%,0%);fill-opacity:1;" d="M 794.957031 259.339844 L 801.105469 259.339844 L 801.105469 260.449219 L 796.273438 260.449219 L 796.273438 263.328125 L 800.902344 263.328125 L 800.902344 264.433594 L 796.273438 264.433594 L 796.273438 267.957031 L 801.222656 267.957031 L 801.222656 269.0625 L 794.957031 269.0625 Z M 794.957031 259.339844 "/>
<path style=" stroke:none;fill-rule:nonzero;fill:rgb(0%,0%,0%);fill-opacity:1;" d="M 804.488281 267.96875 L 804.488281 271.835938 L 803.285156 271.835938 L 803.285156 261.769531 L 804.488281 261.769531 L 804.488281 262.875 C 804.742188 262.441406 805.058594 262.121094 805.445312 261.910156 C 805.828125 261.699219 806.289062 261.59375 806.820312 261.59375 C 807.707031 261.59375 808.425781 261.945312 808.980469 262.648438 C 809.53125 263.351562 809.808594 264.277344 809.808594 265.421875 C 809.808594 266.566406 809.53125 267.492188 808.980469 268.199219 C 808.425781 268.898438 807.707031 269.25 806.820312 269.25 C 806.289062 269.25 805.828125 269.144531 805.445312 268.933594 C 805.058594 268.722656 804.742188 268.402344 804.488281 267.96875 Z M 808.566406 265.421875 C 808.566406 264.542969 808.386719 263.851562 808.023438 263.347656 C 807.660156 262.847656 807.164062 262.597656 806.527344 262.597656 C 805.894531 262.597656 805.394531 262.847656 805.03125 263.347656 C 804.671875 263.851562 804.488281 264.542969 804.488281 265.421875 C 804.488281 266.304688 804.671875 266.992188 805.03125 267.496094 C 805.394531 267.996094 805.894531 268.246094 806.527344 268.246094 C 807.164062 268.246094 807.660156 267.996094 808.023438 267.496094 C 808.386719 266.992188 808.566406 266.304688 808.566406 265.421875 Z M 808.566406 265.421875 "/>
<path style=" stroke:none;fill-rule:nonzero;fill:rgb(0%,0%,0%);fill-opacity:1;" d="M 815.109375 265.398438 C 814.140625 265.398438 813.46875 265.507812 813.097656 265.730469 C 812.722656 265.949219 812.535156 266.328125 812.535156 266.863281 C 812.535156 267.285156 812.675781 267.625 812.957031 267.875 C 813.238281 268.125 813.617188 268.246094 814.097656 268.246094 C 814.765625 268.246094 815.296875 268.011719 815.699219 267.542969 C 816.101562 267.070312 816.300781 266.445312 816.300781 265.664062 L 816.300781 265.398438 Z M 817.5 264.902344 L 817.5 269.0625 L 816.300781 269.0625 L 816.300781 267.957031 C 816.027344 268.398438 815.6875 268.722656 815.277344 268.933594 C 814.871094 269.144531 814.371094 269.25 813.78125 269.25 C 813.035156 269.25 812.441406 269.042969 812 268.621094 C 811.558594 268.203125 811.339844 267.640625 811.339844 266.9375 C 811.339844 266.121094 811.613281 265.5 812.160156 265.085938 C 812.710938 264.667969 813.53125 264.460938 814.621094 264.460938 L 816.300781 264.460938 L 816.300781 264.339844 C 816.300781 263.789062 816.121094 263.363281 815.757812 263.0625 C 815.394531 262.761719 814.886719 262.609375 814.230469 262.609375 C 813.8125 262.609375 813.40625 262.660156 813.011719 262.761719 C 812.617188 262.859375 812.238281 263.011719 811.875 263.210938 L 811.875 262.101562 C 812.3125 261.933594 812.734375 261.804688 813.148438 261.722656 C 813.5625 261.636719 813.960938 261.59375 814.351562 261.59375 C 815.410156 261.59375 816.195312 261.867188 816.71875 262.417969 C 817.238281 262.960938 817.5 263.789062 817.5 264.902344 Z M 817.5 264.902344 "/>
<path style=" stroke:none;fill-rule:nonzero;fill:rgb(0%,0%,0%);fill-opacity:1;" d="M 826.027344 264.660156 L 826.027344 269.0625 L 824.828125 269.0625 L 824.828125 264.699219 C 824.828125 264.007812 824.695312 263.492188 824.425781 263.152344 C 824.15625 262.808594 823.753906 262.636719 823.214844 262.636719 C 822.566406 262.636719 822.058594 262.84375 821.683594 263.253906 C 821.308594 263.667969 821.125 264.230469 821.125 264.941406 L 821.125 269.0625 L 819.917969 269.0625 L 819.917969 261.769531 L 821.125 261.769531 L 821.125 262.902344 C 821.410156 262.464844 821.75 262.136719 822.136719 261.921875 C 822.523438 261.703125 822.972656 261.59375 823.480469 261.59375 C 824.320312 261.59375 824.953125 261.855469 825.382812 262.371094 C 825.8125 262.890625 826.027344 263.652344 826.027344 264.660156 Z M 826.027344 264.660156 "/>
<path style=" stroke:none;fill-rule:nonzero;fill:rgb(0%,0%,0%);fill-opacity:1;" d="M 834.652344 265.117188 L 834.652344 265.703125 L 829.144531 265.703125 C 829.199219 266.527344 829.445312 267.15625 829.890625 267.585938 C 830.335938 268.019531 830.953125 268.234375 831.75 268.234375 C 832.207031 268.234375 832.65625 268.179688 833.085938 268.066406 C 833.519531 267.953125 833.949219 267.785156 834.375 267.558594 L 834.375 268.691406 C 833.945312 268.875 833.503906 269.011719 833.050781 269.109375 C 832.601562 269.203125 832.140625 269.25 831.679688 269.25 C 830.515625 269.25 829.59375 268.914062 828.914062 268.238281 C 828.234375 267.558594 827.894531 266.644531 827.894531 265.488281 C 827.894531 264.292969 828.21875 263.347656 828.863281 262.648438 C 829.507812 261.945312 830.375 261.59375 831.46875 261.59375 C 832.449219 261.59375 833.226562 261.910156 833.796875 262.542969 C 834.367188 263.175781 834.652344 264.03125 834.652344 265.117188 Z M 833.457031 264.765625 C 833.445312 264.109375 833.261719 263.585938 832.90625 263.199219 C 832.546875 262.804688 832.074219 262.609375 831.480469 262.609375 C 830.8125 262.609375 830.28125 262.800781 829.878906 263.175781 C 829.476562 263.554688 829.246094 264.085938 829.183594 264.773438 Z M 833.457031 264.765625 "/>
<path style=" stroke:none;fill-rule:nonzero;fill:rgb(0%,0%,0%);fill-opacity:1;" d="M 841.867188 262.050781 L 841.867188 263.171875 C 841.527344 262.984375 841.1875 262.84375 840.847656 262.75 C 840.507812 262.65625 840.164062 262.609375 839.816406 262.609375 C 839.039062 262.609375 838.433594 262.855469 838.003906 263.347656 C 837.574219 263.839844 837.359375 264.53125 837.359375 265.421875 C 837.359375 266.3125 837.574219 267.003906 838.003906 267.496094 C 838.433594 267.988281 839.039062 268.234375 839.816406 268.234375 C 840.164062 268.234375 840.507812 268.1875 840.847656 268.09375 C 841.1875 268.003906 841.527344 267.863281 841.867188 267.675781 L 841.867188 268.78125 C 841.53125 268.9375 841.183594 269.054688 840.828125 269.132812 C 840.46875 269.210938 840.089844 269.25 839.683594 269.25 C 838.585938 269.25 837.714844 268.90625 837.066406 268.214844 C 836.421875 267.527344 836.097656 266.59375 836.097656 265.421875 C 836.097656 264.234375 836.425781 263.300781 837.078125 262.617188 C 837.730469 261.9375 838.628906 261.59375 839.765625 261.59375 C 840.132812 261.59375 840.492188 261.632812 840.84375 261.710938 C 841.195312 261.785156 841.535156 261.898438 841.867188 262.050781 Z M 841.867188 262.050781 "/>
<path style=" stroke:none;fill-rule:nonzero;fill:rgb(0%,0%,0%);fill-opacity:1;" d="M 850.011719 264.660156 L 850.011719 269.0625 L 848.8125 269.0625 L 848.8125 264.699219 C 848.8125 264.007812 848.679688 263.492188 848.410156 263.152344 C 848.140625 262.808594 847.738281 262.636719 847.199219 262.636719 C 846.550781 262.636719 846.042969 262.84375 845.667969 263.253906 C 845.292969 263.667969 845.109375 264.230469 845.109375 264.941406 L 845.109375 269.0625 L 843.902344 269.0625 L 843.902344 258.929688 L 845.109375 258.929688 L 845.109375 262.902344 C 845.394531 262.464844 845.734375 262.136719 846.121094 261.921875 C 846.507812 261.703125 846.957031 261.59375 847.464844 261.59375 C 848.304688 261.59375 848.9375 261.855469 849.367188 262.371094 C 849.796875 262.890625 850.011719 263.652344 850.011719 264.660156 Z M 850.011719 264.660156 "/>
<path style=" stroke:none;fill-rule:nonzero;fill:rgb(0%,0%,0%);fill-opacity:1;" d="M 852.398438 261.769531 L 853.597656 261.769531 L 853.597656 269.0625 L 852.398438 269.0625 Z M 852.398438 258.929688 L 853.597656 258.929688 L 853.597656 260.449219 L 852.398438 260.449219 Z M 852.398438 258.929688 "/>
<path style=" stroke:none;fill-rule:nonzero;fill:rgb(0%,0%,0%);fill-opacity:1;" d="M 856.058594 258.929688 L 857.261719 258.929688 L 857.261719 264.914062 L 860.835938 261.769531 L 862.367188 261.769531 L 858.5 265.179688 L 862.53125 269.0625 L 860.96875 269.0625 L 857.261719 265.5 L 857.261719 269.0625 L 856.058594 269.0625 Z M 856.058594 258.929688 "/>
<path style=" stroke:none;fill-rule:nonzero;fill:rgb(0%,0%,0%);fill-opacity:1;" d="M 866.167969 262.609375 C 865.527344 262.609375 865.019531 262.859375 864.644531 263.363281 C 864.269531 263.863281 864.085938 264.550781 864.085938 265.421875 C 864.085938 266.292969 864.269531 266.980469 864.640625 267.484375 C 865.011719 267.984375 865.523438 268.234375 866.167969 268.234375 C 866.804688 268.234375 867.3125 267.984375 867.683594 267.480469 C 868.058594 266.976562 868.246094 266.289062 868.246094 265.421875 C 868.246094 264.558594 868.058594 263.875 867.683594 263.367188 C 867.3125 262.863281 866.804688 262.609375 866.167969 262.609375 Z M 866.167969 261.59375 C 867.210938 261.59375 868.027344 261.933594 868.621094 262.613281 C 869.21875 263.289062 869.515625 264.226562 869.515625 265.421875 C 869.515625 266.617188 869.21875 267.550781 868.621094 268.234375 C 868.027344 268.910156 867.210938 269.25 866.167969 269.25 C 865.121094 269.25 864.300781 268.910156 863.710938 268.234375 C 863.117188 267.550781 862.820312 266.617188 862.820312 265.421875 C 862.820312 264.226562 863.117188 263.289062 863.710938 262.613281 C 864.300781 261.933594 865.121094 261.59375 866.167969 261.59375 Z M 866.167969 261.59375 "/>
<path style=" stroke:none;fill-rule:nonzero;fill:rgb(0%,0%,0%);fill-opacity:1;" d="M 870.640625 261.769531 L 871.910156 261.769531 L 874.191406 267.890625 L 876.46875 261.769531 L 877.738281 261.769531 L 875.003906 269.0625 L 873.375 269.0625 Z M 870.640625 261.769531 "/>
<path style="fill:none;stroke-width:0.8;stroke-linecap:butt;stroke-linejoin:round;stroke:rgb(0%,0%,0%);stroke-opacity:1;stroke-miterlimit:4;" d="M 0.000793457 0.000930786 L -3.500183 0.000930786 " transform="matrix(1.333333,0,0,1.333333,738.850505,221.280009)"/>
<path style="fill:none;stroke-width:0.8;stroke-linecap:butt;stroke-linejoin:round;stroke:rgb(0%,0%,0%);stroke-opacity:1;stroke-miterlimit:4;" d="M 0.000793457 0.000701904 L -3.500183 0.000701904 " transform="matrix(1.333333,0,0,1.333333,738.850505,180.960002)"/>
<path style="fill:none;stroke-width:0.8;stroke-linecap:butt;stroke-linejoin:round;stroke:rgb(0%,0%,0%);stroke-opacity:1;stroke-miterlimit:4;" d="M 0.000793457 0.000465393 L -3.500183 0.000465393 " transform="matrix(1.333333,0,0,1.333333,738.850505,140.640004)"/>
<path style="fill:none;stroke-width:0.8;stroke-linecap:butt;stroke-linejoin:round;stroke:rgb(0%,0%,0%);stroke-opacity:1;stroke-miterlimit:4;" d="M 0.000793457 0.000236511 L -3.500183 0.000236511 " transform="matrix(1.333333,0,0,1.333333,738.850505,100.319997)"/>
<path style="fill:none;stroke-width:0.8;stroke-linecap:butt;stroke-linejoin:round;stroke:rgb(0%,0%,0%);stroke-opacity:1;stroke-miterlimit:4;" d="M 0.000793457 0 L -3.500183 0 " transform="matrix(1.333333,0,0,1.333333,738.850505,60)"/>
<path style="fill:none;stroke-width:0.8;stroke-linecap:butt;stroke-linejoin:round;stroke:rgb(0%,0%,0%);stroke-opacity:1;stroke-miterlimit:4;" d="M 0.000793457 -0.000234604 L -3.500183 -0.000234604 " transform="matrix(1.333333,0,0,1.333333,738.850505,19.68)"/>
<path style="fill:none;stroke-width:1.5;stroke-linecap:square;stroke-linejoin:round;stroke:rgb(12.156863%,46.666667%,70.588237%);stroke-opacity:1;stroke-miterlimit:4;" d="M 560.753906 165.960938 L 601.265625 165.960938 L 603.963867 150.84082 L 614.768555 90.360352 L 617.466797 75.240234 L 628.271484 14.759766 L 630.972656 29.879883 L 633.670898 45 L 647.176758 120.600586 L 649.875 135.720703 L 655.277344 165.960938 L 693.087891 165.960938 " transform="matrix(1.333333,0,0,1.333333,0,0)"/>
<path style="fill:none;stroke-width:0.8;stroke-linecap:square;stroke-linejoin:miter;stroke:rgb(0%,0%,0%);stroke-opacity:1;stroke-miterlimit:4;" d="M 554.138672 173.519531 L 554.138672 7.201172 " transform="matrix(1.333333,0,0,1.333333,0,0)"/>
<path style="fill:none;stroke-width:0.8;stroke-linecap:square;stroke-linejoin:miter;stroke:rgb(0%,0%,0%);stroke-opacity:1;stroke-miterlimit:4;" d="M 699.703125 173.519531 L 699.703125 7.201172 " transform="matrix(1.333333,0,0,1.333333,0,0)"/>
<path style="fill:none;stroke-width:0.8;stroke-linecap:square;stroke-linejoin:miter;stroke:rgb(0%,0%,0%);stroke-opacity:1;stroke-miterlimit:4;" d="M 554.138672 173.519531 L 699.703125 173.519531 " transform="matrix(1.333333,0,0,1.333333,0,0)"/>
<path style="fill:none;stroke-width:0.8;stroke-linecap:square;stroke-linejoin:miter;stroke:rgb(0%,0%,0%);stroke-opacity:1;stroke-miterlimit:4;" d="M 554.138672 7.201172 L 699.703125 7.201172 " transform="matrix(1.333333,0,0,1.333333,0,0)"/>
</g>
</svg>
