<?xml version="1.0" encoding="UTF-8"?>
<svg xmlns="http://www.w3.org/2000/svg" xmlns:xlink="http://www.w3.org/1999/xlink" width="318.620829" height="244.474996" viewBox="0 0 318.620829 244.474996" version="1.1">
<defs>
<clipPath id="clip1">
  <path d="M 40.136719 9.601562 L 41 9.601562 L 41 194.398438 L 40.136719 194.398438 Z M 40.136719 9.601562 "/>
</clipPath>
<clipPath id="clip2">
  <path d="M 82 9.601562 L 85 9.601562 L 85 194.398438 L 82 194.398438 Z M 82 9.601562 "/>
</clipPath>
<clipPath id="clip3">
  <path d="M 126 9.601562 L 128 9.601562 L 128 194.398438 L 126 194.398438 Z M 126 9.601562 "/>
</clipPath>
<clipPath id="clip4">
  <path d="M 169 9.601562 L 172 9.601562 L 172 194.398438 L 169 194.398438 Z M 169 9.601562 "/>
</clipPath>
<clipPath id="clip5">
  <path d="M 212 9.601562 L 215 9.601562 L 215 194.398438 L 212 194.398438 Z M 212 9.601562 "/>
</clipPath>
<clipPath id="clip6">
  <path d="M 256 9.601562 L 258 9.601562 L 258 194.398438 L 256 194.398438 Z M 256 9.601562 "/>
</clipPath>
<clipPath id="clip7">
  <path d="M 299 9.601562 L 300.539062 9.601562 L 300.539062 194.398438 L 299 194.398438 Z M 299 9.601562 "/>
</clipPath>
<clipPath id="clip8">
  <path d="M 40.136719 158 L 300.539062 158 L 300.539062 161 L 40.136719 161 Z M 40.136719 158 "/>
</clipPath>
<clipPath id="clip9">
  <path d="M 40.136719 115 L 300.539062 115 L 300.539062 118 L 40.136719 118 Z M 40.136719 115 "/>
</clipPath>
<clipPath id="clip10">
  <path d="M 40.136719 72 L 300.539062 72 L 300.539062 75 L 40.136719 75 Z M 40.136719 72 "/>
</clipPath>
<clipPath id="clip11">
  <path d="M 40.136719 30 L 300.539062 30 L 300.539062 32 L 40.136719 32 Z M 40.136719 30 "/>
</clipPath>
<clipPath id="clip12">
  <path d="M 40.136719 16 L 300.539062 16 L 300.539062 181 L 40.136719 181 Z M 40.136719 16 "/>
</clipPath>
<clipPath id="clip13">
  <path d="M 40.136719 123 L 300.539062 123 L 300.539062 187 L 40.136719 187 Z M 40.136719 123 "/>
</clipPath>
<clipPath id="clip14">
  <path d="M 47 125 L 300.539062 125 L 300.539062 143 L 47 143 Z M 47 125 "/>
</clipPath>
<filter id="alpha" filterUnits="objectBoundingBox" x="0%" y="0%" width="100%" height="100%">
  <feColorMatrix type="matrix" in="SourceGraphic" values="0 0 0 0 1 0 0 0 0 1 0 0 0 0 1 0 0 0 1 0"/>
</filter>
<mask id="mask0">
  <g filter="url(#alpha)">
<rect x="0" y="0" width="318.620829" height="244.474996" style="fill:rgb(0%,0%,0%);fill-opacity:0.8;stroke:none;"/>
  </g>
</mask>
<clipPath id="clip15">
  <rect x="0" y="0" width="319" height="245"/>
</clipPath>
<g id="surface5" clip-path="url(#clip15)">
<path style="fill-rule:nonzero;fill:rgb(100%,100%,100%);fill-opacity:1;stroke-width:1;stroke-linecap:butt;stroke-linejoin:miter;stroke:rgb(80.000001%,80.000001%,80.000001%);stroke-opacity:1;stroke-miterlimit:4;" d="M 140.633789 59.235352 L 218.402344 59.235352 C 219.735352 59.235352 220.40332 58.567383 220.40332 57.234375 L 220.40332 14.200195 C 220.40332 12.867188 219.735352 12.199219 218.402344 12.199219 L 140.633789 12.199219 C 139.300781 12.199219 138.635742 12.867188 138.635742 14.200195 L 138.635742 57.234375 C 138.635742 58.567383 139.300781 59.235352 140.633789 59.235352 Z M 140.633789 59.235352 " transform="matrix(1.333333,0,0,1.333333,0,-0.000000000000014211)"/>
</g>
</defs>
<g id="surface1">
<path style=" stroke:none;fill-rule:nonzero;fill:rgb(100%,100%,100%);fill-opacity:1;" d="M 0 244.476562 L 318.621094 244.476562 L 318.621094 0 L 0 0 Z M 0 244.476562 "/>
<path style=" stroke:none;fill-rule:nonzero;fill:rgb(100%,100%,100%);fill-opacity:1;" d="M 40.136719 194.398438 L 300.539062 194.398438 L 300.539062 9.601562 L 40.136719 9.601562 Z M 40.136719 194.398438 "/>
<g clip-path="url(#clip1)" clip-rule="nonzero">
<path style="fill:none;stroke-width:0.8;stroke-linecap:square;stroke-linejoin:round;stroke:rgb(69.01961%,69.01961%,69.01961%);stroke-opacity:1;stroke-miterlimit:4;" d="M 30.102539 145.798828 L 30.102539 7.201172 " transform="matrix(1.333333,0,0,1.333333,0,-0.000000000000014211)"/>
</g>
<path style="fill:none;stroke-width:0.8;stroke-linecap:butt;stroke-linejoin:round;stroke:rgb(0%,0%,0%);stroke-opacity:1;stroke-miterlimit:4;" d="M -0.000585556 -0.00117493 L -0.000585556 3.499802 " transform="matrix(1.333333,0,0,1.333333,40.137499,194.400004)"/>
<path style=" stroke:none;fill-rule:nonzero;fill:rgb(0%,0%,0%);fill-opacity:1;" d="M 40.132812 205.011719 C 39.457031 205.011719 38.949219 205.34375 38.605469 206.011719 C 38.265625 206.675781 38.097656 207.675781 38.097656 209.015625 C 38.097656 210.347656 38.265625 211.347656 38.605469 212.011719 C 38.949219 212.679688 39.457031 213.011719 40.132812 213.011719 C 40.816406 213.011719 41.328125 212.679688 41.667969 212.011719 C 42.007812 211.347656 42.179688 210.347656 42.179688 209.015625 C 42.179688 207.675781 42.007812 206.675781 41.667969 206.011719 C 41.328125 205.34375 40.816406 205.011719 40.132812 205.011719 Z M 40.132812 203.96875 C 41.222656 203.96875 42.054688 204.398438 42.632812 205.261719 C 43.207031 206.125 43.492188 207.375 43.492188 209.015625 C 43.492188 210.652344 43.207031 211.898438 42.632812 212.761719 C 42.054688 213.625 41.222656 214.054688 40.132812 214.054688 C 39.042969 214.054688 38.210938 213.625 37.636719 212.761719 C 37.0625 211.898438 36.773438 210.652344 36.773438 209.015625 C 36.773438 207.375 37.0625 206.125 37.636719 205.261719 C 38.210938 204.398438 39.042969 203.96875 40.132812 203.96875 Z M 40.132812 203.96875 "/>
<g clip-path="url(#clip2)" clip-rule="nonzero">
<path style="fill:none;stroke-width:0.8;stroke-linecap:square;stroke-linejoin:round;stroke:rgb(69.01961%,69.01961%,69.01961%);stroke-opacity:1;stroke-miterlimit:4;" d="M 62.654297 145.798828 L 62.654297 7.201172 " transform="matrix(1.333333,0,0,1.333333,0,-0.000000000000014211)"/>
</g>
<path style="fill:none;stroke-width:0.8;stroke-linecap:butt;stroke-linejoin:round;stroke:rgb(0%,0%,0%);stroke-opacity:1;stroke-miterlimit:4;" d="M 0.00117111 -0.00117493 L 0.00117111 3.499802 " transform="matrix(1.333333,0,0,1.333333,83.537501,194.400004)"/>
<path style=" stroke:none;fill-rule:nonzero;fill:rgb(0%,0%,0%);fill-opacity:1;" d="M 80.734375 204.144531 L 85.898438 204.144531 L 85.898438 205.253906 L 81.941406 205.253906 L 81.941406 207.632812 C 82.128906 207.566406 82.320312 207.519531 82.511719 207.488281 C 82.703125 207.457031 82.894531 207.441406 83.085938 207.441406 C 84.171875 207.441406 85.027344 207.738281 85.664062 208.332031 C 86.296875 208.925781 86.613281 209.730469 86.613281 210.746094 C 86.613281 211.792969 86.289062 212.605469 85.636719 213.183594 C 84.984375 213.765625 84.066406 214.054688 82.882812 214.054688 C 82.476562 214.054688 82.058594 214.019531 81.636719 213.949219 C 81.214844 213.878906 80.777344 213.777344 80.324219 213.636719 L 80.324219 212.316406 C 80.714844 212.527344 81.117188 212.683594 81.535156 212.789062 C 81.953125 212.894531 82.390625 212.945312 82.855469 212.945312 C 83.609375 212.945312 84.203125 212.75 84.640625 212.355469 C 85.078125 211.960938 85.296875 211.421875 85.296875 210.746094 C 85.296875 210.070312 85.078125 209.535156 84.640625 209.140625 C 84.203125 208.742188 83.609375 208.546875 82.855469 208.546875 C 82.503906 208.546875 82.152344 208.585938 81.804688 208.664062 C 81.457031 208.742188 81.097656 208.863281 80.734375 209.027344 Z M 80.734375 204.144531 "/>
<g clip-path="url(#clip3)" clip-rule="nonzero">
<path style="fill:none;stroke-width:0.8;stroke-linecap:square;stroke-linejoin:round;stroke:rgb(69.01961%,69.01961%,69.01961%);stroke-opacity:1;stroke-miterlimit:4;" d="M 95.203125 145.798828 L 95.203125 7.201172 " transform="matrix(1.333333,0,0,1.333333,0,-0.000000000000014211)"/>
</g>
<path style="fill:none;stroke-width:0.8;stroke-linecap:butt;stroke-linejoin:round;stroke:rgb(0%,0%,0%);stroke-opacity:1;stroke-miterlimit:4;" d="M -0.000000000000014211 -0.00117493 L -0.000000000000014211 3.499802 " transform="matrix(1.333333,0,0,1.333333,126.9375,194.400004)"/>
<path style=" stroke:none;fill-rule:nonzero;fill:rgb(0%,0%,0%);fill-opacity:1;" d="M 120.109375 212.757812 L 122.257812 212.757812 L 122.257812 205.339844 L 119.917969 205.808594 L 119.917969 204.613281 L 122.242188 204.144531 L 123.558594 204.144531 L 123.558594 212.757812 L 125.707031 212.757812 L 125.707031 213.863281 L 120.109375 213.863281 Z M 120.109375 212.757812 "/>
<path style=" stroke:none;fill-rule:nonzero;fill:rgb(0%,0%,0%);fill-opacity:1;" d="M 131.175781 205.011719 C 130.5 205.011719 129.988281 205.34375 129.648438 206.011719 C 129.308594 206.675781 129.136719 207.675781 129.136719 209.015625 C 129.136719 210.347656 129.308594 211.347656 129.648438 212.011719 C 129.988281 212.679688 130.5 213.011719 131.175781 213.011719 C 131.855469 213.011719 132.367188 212.679688 132.707031 212.011719 C 133.050781 211.347656 133.21875 210.347656 133.21875 209.015625 C 133.21875 207.675781 133.050781 206.675781 132.707031 206.011719 C 132.367188 205.34375 131.855469 205.011719 131.175781 205.011719 Z M 131.175781 203.96875 C 132.265625 203.96875 133.097656 204.398438 133.671875 205.261719 C 134.246094 206.125 134.535156 207.375 134.535156 209.015625 C 134.535156 210.652344 134.246094 211.898438 133.671875 212.761719 C 133.097656 213.625 132.265625 214.054688 131.175781 214.054688 C 130.085938 214.054688 129.253906 213.625 128.679688 212.761719 C 128.105469 211.898438 127.816406 210.652344 127.816406 209.015625 C 127.816406 207.375 128.105469 206.125 128.679688 205.261719 C 129.253906 204.398438 130.085938 203.96875 131.175781 203.96875 Z M 131.175781 203.96875 "/>
<g clip-path="url(#clip4)" clip-rule="nonzero">
<path style="fill:none;stroke-width:0.8;stroke-linecap:square;stroke-linejoin:round;stroke:rgb(69.01961%,69.01961%,69.01961%);stroke-opacity:1;stroke-miterlimit:4;" d="M 127.751953 145.798828 L 127.751953 7.201172 " transform="matrix(1.333333,0,0,1.333333,0,-0.000000000000014211)"/>
</g>
<path style="fill:none;stroke-width:0.8;stroke-linecap:butt;stroke-linejoin:round;stroke:rgb(0%,0%,0%);stroke-opacity:1;stroke-miterlimit:4;" d="M -0.00117493 -0.00117493 L -0.00117493 3.499802 " transform="matrix(1.333333,0,0,1.333333,170.337504,194.400004)"/>
<path style=" stroke:none;fill-rule:nonzero;fill:rgb(0%,0%,0%);fill-opacity:1;" d="M 163.507812 212.757812 L 165.65625 212.757812 L 165.65625 205.339844 L 163.320312 205.808594 L 163.320312 204.613281 L 165.644531 204.144531 L 166.957031 204.144531 L 166.957031 212.757812 L 169.105469 212.757812 L 169.105469 213.863281 L 163.507812 213.863281 Z M 163.507812 212.757812 "/>
<path style=" stroke:none;fill-rule:nonzero;fill:rgb(0%,0%,0%);fill-opacity:1;" d="M 171.777344 204.144531 L 176.9375 204.144531 L 176.9375 205.253906 L 172.980469 205.253906 L 172.980469 207.632812 C 173.171875 207.566406 173.363281 207.519531 173.550781 207.488281 C 173.742188 207.457031 173.933594 207.441406 174.125 207.441406 C 175.210938 207.441406 176.070312 207.738281 176.703125 208.332031 C 177.339844 208.925781 177.65625 209.730469 177.65625 210.746094 C 177.65625 211.792969 177.332031 212.605469 176.679688 213.183594 C 176.027344 213.765625 175.109375 214.054688 173.925781 214.054688 C 173.515625 214.054688 173.101562 214.019531 172.675781 213.949219 C 172.253906 213.878906 171.816406 213.777344 171.367188 213.636719 L 171.367188 212.316406 C 171.757812 212.527344 172.160156 212.683594 172.578125 212.789062 C 172.992188 212.894531 173.433594 212.945312 173.898438 212.945312 C 174.648438 212.945312 175.242188 212.75 175.679688 212.355469 C 176.121094 211.960938 176.339844 211.421875 176.339844 210.746094 C 176.339844 210.070312 176.121094 209.535156 175.679688 209.140625 C 175.242188 208.742188 174.648438 208.546875 173.898438 208.546875 C 173.546875 208.546875 173.195312 208.585938 172.84375 208.664062 C 172.496094 208.742188 172.140625 208.863281 171.777344 209.027344 Z M 171.777344 204.144531 "/>
<g clip-path="url(#clip5)" clip-rule="nonzero">
<path style="fill:none;stroke-width:0.8;stroke-linecap:square;stroke-linejoin:round;stroke:rgb(69.01961%,69.01961%,69.01961%);stroke-opacity:1;stroke-miterlimit:4;" d="M 160.303711 145.798828 L 160.303711 7.201172 " transform="matrix(1.333333,0,0,1.333333,0,-0.000000000000014211)"/>
</g>
<path style="fill:none;stroke-width:0.8;stroke-linecap:butt;stroke-linejoin:round;stroke:rgb(0%,0%,0%);stroke-opacity:1;stroke-miterlimit:4;" d="M 0.000579834 -0.00117493 L 0.000579834 3.499802 " transform="matrix(1.333333,0,0,1.333333,213.737508,194.400004)"/>
<path style=" stroke:none;fill-rule:nonzero;fill:rgb(0%,0%,0%);fill-opacity:1;" d="M 207.8125 212.757812 L 212.402344 212.757812 L 212.402344 213.863281 L 206.230469 213.863281 L 206.230469 212.757812 C 206.730469 212.242188 207.410156 211.546875 208.269531 210.679688 C 209.132812 209.808594 209.675781 209.246094 209.894531 208.992188 C 210.316406 208.523438 210.609375 208.121094 210.777344 207.792969 C 210.945312 207.464844 211.027344 207.144531 211.027344 206.828125 C 211.027344 206.308594 210.847656 205.890625 210.484375 205.566406 C 210.121094 205.238281 209.652344 205.074219 209.070312 205.074219 C 208.65625 205.074219 208.222656 205.148438 207.761719 205.289062 C 207.304688 205.433594 206.816406 205.648438 206.296875 205.941406 L 206.296875 204.613281 C 206.824219 204.398438 207.320312 204.238281 207.777344 204.132812 C 208.242188 204.023438 208.660156 203.96875 209.042969 203.96875 C 210.050781 203.96875 210.851562 204.222656 211.453125 204.726562 C 212.050781 205.226562 212.351562 205.898438 212.351562 206.742188 C 212.351562 207.140625 212.273438 207.519531 212.125 207.878906 C 211.976562 208.234375 211.703125 208.65625 211.308594 209.144531 C 211.199219 209.269531 210.855469 209.632812 210.273438 210.234375 C 209.691406 210.835938 208.871094 211.679688 207.8125 212.757812 Z M 207.8125 212.757812 "/>
<path style=" stroke:none;fill-rule:nonzero;fill:rgb(0%,0%,0%);fill-opacity:1;" d="M 217.976562 205.011719 C 217.296875 205.011719 216.789062 205.34375 216.449219 206.011719 C 216.105469 206.675781 215.9375 207.675781 215.9375 209.015625 C 215.9375 210.347656 216.105469 211.347656 216.449219 212.011719 C 216.789062 212.679688 217.296875 213.011719 217.976562 213.011719 C 218.65625 213.011719 219.167969 212.679688 219.507812 212.011719 C 219.851562 211.347656 220.019531 210.347656 220.019531 209.015625 C 220.019531 207.675781 219.851562 206.675781 219.507812 206.011719 C 219.167969 205.34375 218.65625 205.011719 217.976562 205.011719 Z M 217.976562 203.96875 C 219.066406 203.96875 219.898438 204.398438 220.472656 205.261719 C 221.046875 206.125 221.335938 207.375 221.335938 209.015625 C 221.335938 210.652344 221.046875 211.898438 220.472656 212.761719 C 219.898438 213.625 219.066406 214.054688 217.976562 214.054688 C 216.886719 214.054688 216.054688 213.625 215.480469 212.761719 C 214.902344 211.898438 214.617188 210.652344 214.617188 209.015625 C 214.617188 207.375 214.902344 206.125 215.480469 205.261719 C 216.054688 204.398438 216.886719 203.96875 217.976562 203.96875 Z M 217.976562 203.96875 "/>
<g clip-path="url(#clip6)" clip-rule="nonzero">
<path style="fill:none;stroke-width:0.8;stroke-linecap:square;stroke-linejoin:round;stroke:rgb(69.01961%,69.01961%,69.01961%);stroke-opacity:1;stroke-miterlimit:4;" d="M 192.852539 145.798828 L 192.852539 7.201172 " transform="matrix(1.333333,0,0,1.333333,0,-0.000000000000014211)"/>
</g>
<path style="fill:none;stroke-width:0.8;stroke-linecap:butt;stroke-linejoin:round;stroke:rgb(0%,0%,0%);stroke-opacity:1;stroke-miterlimit:4;" d="M -0.000579834 -0.00117493 L -0.000579834 3.499802 " transform="matrix(1.333333,0,0,1.333333,257.137492,194.400004)"/>
<path style=" stroke:none;fill-rule:nonzero;fill:rgb(0%,0%,0%);fill-opacity:1;" d="M 251.210938 212.757812 L 255.800781 212.757812 L 255.800781 213.863281 L 249.632812 213.863281 L 249.632812 212.757812 C 250.128906 212.242188 250.808594 211.546875 251.671875 210.679688 C 252.535156 209.808594 253.074219 209.246094 253.296875 208.992188 C 253.714844 208.523438 254.011719 208.121094 254.175781 207.792969 C 254.34375 207.464844 254.429688 207.144531 254.429688 206.828125 C 254.429688 206.308594 254.246094 205.890625 253.886719 205.566406 C 253.523438 205.238281 253.050781 205.074219 252.46875 205.074219 C 252.054688 205.074219 251.621094 205.148438 251.164062 205.289062 C 250.707031 205.433594 250.214844 205.648438 249.695312 205.941406 L 249.695312 204.613281 C 250.226562 204.398438 250.71875 204.238281 251.179688 204.132812 C 251.640625 204.023438 252.0625 203.96875 252.445312 203.96875 C 253.449219 203.96875 254.253906 204.222656 254.851562 204.726562 C 255.449219 205.226562 255.75 205.898438 255.75 206.742188 C 255.75 207.140625 255.675781 207.519531 255.523438 207.878906 C 255.375 208.234375 255.105469 208.65625 254.707031 209.144531 C 254.601562 209.269531 254.253906 209.632812 253.671875 210.234375 C 253.09375 210.835938 252.273438 211.679688 251.210938 212.757812 Z M 251.210938 212.757812 "/>
<path style=" stroke:none;fill-rule:nonzero;fill:rgb(0%,0%,0%);fill-opacity:1;" d="M 258.578125 204.144531 L 263.738281 204.144531 L 263.738281 205.253906 L 259.78125 205.253906 L 259.78125 207.632812 C 259.972656 207.566406 260.160156 207.519531 260.351562 207.488281 C 260.542969 207.457031 260.734375 207.441406 260.925781 207.441406 C 262.011719 207.441406 262.871094 207.738281 263.503906 208.332031 C 264.136719 208.925781 264.457031 209.730469 264.457031 210.746094 C 264.457031 211.792969 264.128906 212.605469 263.480469 213.183594 C 262.828125 213.765625 261.910156 214.054688 260.726562 214.054688 C 260.316406 214.054688 259.902344 214.019531 259.476562 213.949219 C 259.054688 213.878906 258.617188 213.777344 258.167969 213.636719 L 258.167969 212.316406 C 258.558594 212.527344 258.960938 212.683594 259.375 212.789062 C 259.792969 212.894531 260.234375 212.945312 260.699219 212.945312 C 261.449219 212.945312 262.042969 212.75 262.480469 212.355469 C 262.917969 211.960938 263.140625 211.421875 263.140625 210.746094 C 263.140625 210.070312 262.917969 209.535156 262.480469 209.140625 C 262.042969 208.742188 261.449219 208.546875 260.699219 208.546875 C 260.347656 208.546875 259.996094 208.585938 259.644531 208.664062 C 259.296875 208.742188 258.941406 208.863281 258.578125 209.027344 Z M 258.578125 204.144531 "/>
<g clip-path="url(#clip7)" clip-rule="nonzero">
<path style="fill:none;stroke-width:0.8;stroke-linecap:square;stroke-linejoin:round;stroke:rgb(69.01961%,69.01961%,69.01961%);stroke-opacity:1;stroke-miterlimit:4;" d="M 225.404297 145.798828 L 225.404297 7.201172 " transform="matrix(1.333333,0,0,1.333333,0,-0.000000000000014211)"/>
</g>
<path style="fill:none;stroke-width:0.8;stroke-linecap:butt;stroke-linejoin:round;stroke:rgb(0%,0%,0%);stroke-opacity:1;stroke-miterlimit:4;" d="M 0.00117493 -0.00117493 L 0.00117493 3.499802 " transform="matrix(1.333333,0,0,1.333333,300.537496,194.400004)"/>
<path style=" stroke:none;fill-rule:nonzero;fill:rgb(0%,0%,0%);fill-opacity:1;" d="M 297.464844 208.621094 C 298.09375 208.757812 298.585938 209.039062 298.9375 209.464844 C 299.292969 209.890625 299.46875 210.414062 299.46875 211.039062 C 299.46875 211.996094 299.140625 212.742188 298.480469 213.265625 C 297.820312 213.792969 296.882812 214.054688 295.667969 214.054688 C 295.257812 214.054688 294.839844 214.015625 294.410156 213.933594 C 293.976562 213.851562 293.53125 213.730469 293.070312 213.570312 L 293.070312 212.300781 C 293.433594 212.515625 293.832031 212.675781 294.265625 212.785156 C 294.703125 212.890625 295.15625 212.945312 295.628906 212.945312 C 296.453125 212.945312 297.082031 212.785156 297.511719 212.457031 C 297.945312 212.132812 298.160156 211.660156 298.160156 211.039062 C 298.160156 210.464844 297.960938 210.019531 297.558594 209.695312 C 297.15625 209.371094 296.597656 209.210938 295.882812 209.210938 L 294.75 209.210938 L 294.75 208.128906 L 295.933594 208.128906 C 296.582031 208.128906 297.074219 208 297.417969 207.742188 C 297.761719 207.484375 297.933594 207.109375 297.933594 206.625 C 297.933594 206.125 297.757812 205.742188 297.402344 205.476562 C 297.050781 205.210938 296.542969 205.074219 295.882812 205.074219 C 295.523438 205.074219 295.136719 205.113281 294.722656 205.195312 C 294.308594 205.273438 293.855469 205.390625 293.363281 205.554688 L 293.363281 204.386719 C 293.863281 204.246094 294.332031 204.140625 294.765625 204.074219 C 295.203125 204.003906 295.613281 203.96875 296 203.96875 C 297 203.96875 297.789062 204.195312 298.367188 204.648438 C 298.949219 205.101562 299.242188 205.714844 299.242188 206.488281 C 299.242188 207.027344 299.085938 207.480469 298.777344 207.851562 C 298.472656 208.222656 298.03125 208.480469 297.464844 208.621094 Z M 297.464844 208.621094 "/>
<path style=" stroke:none;fill-rule:nonzero;fill:rgb(0%,0%,0%);fill-opacity:1;" d="M 304.773438 205.011719 C 304.097656 205.011719 303.589844 205.34375 303.246094 206.011719 C 302.90625 206.675781 302.738281 207.675781 302.738281 209.015625 C 302.738281 210.347656 302.90625 211.347656 303.246094 212.011719 C 303.589844 212.679688 304.097656 213.011719 304.773438 213.011719 C 305.457031 213.011719 305.96875 212.679688 306.308594 212.011719 C 306.648438 211.347656 306.820312 210.347656 306.820312 209.015625 C 306.820312 207.675781 306.648438 206.675781 306.308594 206.011719 C 305.96875 205.34375 305.457031 205.011719 304.773438 205.011719 Z M 304.773438 203.96875 C 305.863281 203.96875 306.699219 204.398438 307.273438 205.261719 C 307.847656 206.125 308.136719 207.375 308.136719 209.015625 C 308.136719 210.652344 307.847656 211.898438 307.273438 212.761719 C 306.699219 213.625 305.863281 214.054688 304.773438 214.054688 C 303.6875 214.054688 302.855469 213.625 302.277344 212.761719 C 301.703125 211.898438 301.417969 210.652344 301.417969 209.015625 C 301.417969 207.375 301.703125 206.125 302.277344 205.261719 C 302.855469 204.398438 303.6875 203.96875 304.773438 203.96875 Z M 304.773438 203.96875 "/>
<path style=" stroke:none;fill-rule:nonzero;fill:rgb(0%,0%,0%);fill-opacity:1;" d="M 157.527344 228.15625 L 157.527344 228.742188 L 152.019531 228.742188 C 152.070312 229.566406 152.320312 230.195312 152.765625 230.628906 C 153.210938 231.058594 153.828125 231.273438 154.621094 231.273438 C 155.082031 231.273438 155.527344 231.21875 155.960938 231.105469 C 156.390625 230.992188 156.820312 230.824219 157.246094 230.597656 L 157.246094 231.730469 C 156.816406 231.914062 156.375 232.050781 155.925781 232.148438 C 155.472656 232.242188 155.015625 232.292969 154.550781 232.292969 C 153.386719 232.292969 152.464844 231.953125 151.789062 231.277344 C 151.109375 230.597656 150.769531 229.683594 150.769531 228.527344 C 150.769531 227.335938 151.089844 226.386719 151.734375 225.6875 C 152.378906 224.984375 153.25 224.636719 154.34375 224.636719 C 155.324219 224.636719 156.101562 224.953125 156.671875 225.582031 C 157.242188 226.214844 157.527344 227.070312 157.527344 228.15625 Z M 156.328125 227.804688 C 156.320312 227.148438 156.136719 226.628906 155.777344 226.238281 C 155.421875 225.847656 154.945312 225.648438 154.355469 225.648438 C 153.6875 225.648438 153.152344 225.839844 152.753906 226.214844 C 152.351562 226.59375 152.121094 227.125 152.058594 227.8125 Z M 156.328125 227.804688 "/>
<path style=" stroke:none;fill-rule:nonzero;fill:rgb(0%,0%,0%);fill-opacity:1;" d="M 160.652344 231.007812 L 160.652344 234.875 L 159.445312 234.875 L 159.445312 224.808594 L 160.652344 224.808594 L 160.652344 225.917969 C 160.902344 225.484375 161.222656 225.160156 161.605469 224.953125 C 161.988281 224.742188 162.449219 224.636719 162.980469 224.636719 C 163.867188 224.636719 164.585938 224.988281 165.140625 225.691406 C 165.695312 226.390625 165.972656 227.316406 165.972656 228.460938 C 165.972656 229.609375 165.695312 230.535156 165.140625 231.238281 C 164.585938 231.941406 163.867188 232.292969 162.980469 232.292969 C 162.449219 232.292969 161.988281 232.1875 161.605469 231.976562 C 161.222656 231.765625 160.902344 231.441406 160.652344 231.007812 Z M 164.726562 228.460938 C 164.726562 227.582031 164.546875 226.890625 164.183594 226.390625 C 163.820312 225.886719 163.324219 225.636719 162.691406 225.636719 C 162.054688 225.636719 161.558594 225.886719 161.195312 226.390625 C 160.832031 226.890625 160.652344 227.582031 160.652344 228.460938 C 160.652344 229.34375 160.832031 230.035156 161.195312 230.535156 C 161.558594 231.035156 162.054688 231.289062 162.691406 231.289062 C 163.324219 231.289062 163.820312 231.035156 164.183594 230.535156 C 164.546875 230.035156 164.726562 229.34375 164.726562 228.460938 Z M 164.726562 228.460938 "/>
<path style=" stroke:none;fill-rule:nonzero;fill:rgb(0%,0%,0%);fill-opacity:1;" d="M 170.78125 225.648438 C 170.140625 225.648438 169.632812 225.902344 169.257812 226.402344 C 168.882812 226.902344 168.699219 227.589844 168.699219 228.460938 C 168.699219 229.335938 168.882812 230.023438 169.253906 230.523438 C 169.625 231.023438 170.136719 231.273438 170.78125 231.273438 C 171.421875 231.273438 171.925781 231.023438 172.296875 230.519531 C 172.671875 230.015625 172.859375 229.332031 172.859375 228.460938 C 172.859375 227.597656 172.671875 226.914062 172.296875 226.410156 C 171.925781 225.902344 171.421875 225.648438 170.78125 225.648438 Z M 170.78125 224.636719 C 171.824219 224.636719 172.640625 224.972656 173.234375 225.652344 C 173.832031 226.328125 174.128906 227.265625 174.128906 228.460938 C 174.128906 229.65625 173.832031 230.59375 173.234375 231.273438 C 172.640625 231.953125 171.824219 232.292969 170.78125 232.292969 C 169.734375 232.292969 168.914062 231.953125 168.324219 231.273438 C 167.730469 230.59375 167.433594 229.65625 167.433594 228.460938 C 167.433594 227.265625 167.730469 226.328125 168.324219 225.652344 C 168.914062 224.972656 169.734375 224.636719 170.78125 224.636719 Z M 170.78125 224.636719 "/>
<path style=" stroke:none;fill-rule:nonzero;fill:rgb(0%,0%,0%);fill-opacity:1;" d="M 181.363281 225.089844 L 181.363281 226.210938 C 181.023438 226.023438 180.683594 225.882812 180.34375 225.789062 C 180.003906 225.695312 179.660156 225.648438 179.3125 225.648438 C 178.535156 225.648438 177.929688 225.898438 177.5 226.390625 C 177.070312 226.882812 176.855469 227.570312 176.855469 228.460938 C 176.855469 229.351562 177.070312 230.042969 177.5 230.539062 C 177.929688 231.027344 178.535156 231.273438 179.3125 231.273438 C 179.660156 231.273438 180.003906 231.226562 180.34375 231.136719 C 180.683594 231.042969 181.023438 230.902344 181.363281 230.714844 L 181.363281 231.824219 C 181.027344 231.976562 180.679688 232.09375 180.320312 232.171875 C 179.964844 232.253906 179.585938 232.292969 179.179688 232.292969 C 178.082031 232.292969 177.207031 231.945312 176.5625 231.257812 C 175.914062 230.566406 175.59375 229.632812 175.59375 228.460938 C 175.59375 227.273438 175.917969 226.339844 176.570312 225.660156 C 177.226562 224.976562 178.121094 224.636719 179.257812 224.636719 C 179.628906 224.636719 179.988281 224.671875 180.339844 224.75 C 180.691406 224.824219 181.03125 224.9375 181.363281 225.089844 Z M 181.363281 225.089844 "/>
<path style=" stroke:none;fill-rule:nonzero;fill:rgb(0%,0%,0%);fill-opacity:1;" d="M 189.507812 227.699219 L 189.507812 232.101562 L 188.308594 232.101562 L 188.308594 227.738281 C 188.308594 227.050781 188.175781 226.535156 187.90625 226.191406 C 187.636719 225.847656 187.230469 225.675781 186.695312 225.675781 C 186.046875 225.675781 185.535156 225.882812 185.164062 226.296875 C 184.789062 226.707031 184.601562 227.269531 184.601562 227.980469 L 184.601562 232.101562 L 183.398438 232.101562 L 183.398438 221.972656 L 184.601562 221.972656 L 184.601562 225.945312 C 184.890625 225.503906 185.226562 225.175781 185.617188 224.960938 C 186.003906 224.742188 186.453125 224.636719 186.960938 224.636719 C 187.796875 224.636719 188.433594 224.894531 188.859375 225.414062 C 189.292969 225.929688 189.507812 226.691406 189.507812 227.699219 Z M 189.507812 227.699219 "/>
<g clip-path="url(#clip8)" clip-rule="nonzero">
<path style="fill:none;stroke-width:0.8;stroke-linecap:square;stroke-linejoin:round;stroke:rgb(69.01961%,69.01961%,69.01961%);stroke-opacity:1;stroke-miterlimit:4;" d="M 30.102539 119.463867 L 225.404297 119.463867 " transform="matrix(1.333333,0,0,1.333333,0,-0.000000000000014211)"/>
</g>
<path style="fill:none;stroke-width:0.8;stroke-linecap:butt;stroke-linejoin:round;stroke:rgb(0%,0%,0%);stroke-opacity:1;stroke-miterlimit:4;" d="M -0.000585556 0.000717163 L -3.498632 0.000717163 " transform="matrix(1.333333,0,0,1.333333,40.137499,159.2842)"/>
<path style=" stroke:none;fill-rule:nonzero;fill:rgb(0%,0%,0%);fill-opacity:1;" d="M 13.835938 155.496094 C 13.160156 155.496094 12.652344 155.828125 12.308594 156.496094 C 11.96875 157.160156 11.800781 158.164062 11.800781 159.5 C 11.800781 160.832031 11.96875 161.832031 12.308594 162.496094 C 12.652344 163.164062 13.160156 163.496094 13.835938 163.496094 C 14.519531 163.496094 15.03125 163.164062 15.371094 162.496094 C 15.710938 161.832031 15.882812 160.832031 15.882812 159.5 C 15.882812 158.164062 15.710938 157.160156 15.371094 156.496094 C 15.03125 155.828125 14.519531 155.496094 13.835938 155.496094 Z M 13.835938 154.453125 C 14.929688 154.453125 15.761719 154.886719 16.335938 155.746094 C 16.910156 156.609375 17.199219 157.859375 17.199219 159.5 C 17.199219 161.136719 16.910156 162.386719 16.335938 163.246094 C 15.761719 164.109375 14.929688 164.539062 13.835938 164.539062 C 12.75 164.539062 11.917969 164.109375 11.339844 163.246094 C 10.765625 162.386719 10.480469 161.136719 10.480469 159.5 C 10.480469 157.859375 10.765625 156.609375 11.339844 155.746094 C 11.917969 154.886719 12.75 154.453125 13.835938 154.453125 Z M 13.835938 154.453125 "/>
<path style=" stroke:none;fill-rule:nonzero;fill:rgb(0%,0%,0%);fill-opacity:1;" d="M 19.507812 162.695312 L 20.882812 162.695312 L 20.882812 164.351562 L 19.507812 164.351562 Z M 19.507812 162.695312 "/>
<path style=" stroke:none;fill-rule:nonzero;fill:rgb(0%,0%,0%);fill-opacity:1;" d="M 23.761719 154.628906 L 28.921875 154.628906 L 28.921875 155.738281 L 24.964844 155.738281 L 24.964844 158.117188 C 25.15625 158.054688 25.34375 158.003906 25.535156 157.972656 C 25.726562 157.941406 25.917969 157.925781 26.109375 157.925781 C 27.195312 157.925781 28.054688 158.222656 28.6875 158.816406 C 29.324219 159.410156 29.640625 160.214844 29.640625 161.230469 C 29.640625 162.277344 29.3125 163.089844 28.664062 163.671875 C 28.011719 164.25 27.09375 164.539062 25.910156 164.539062 C 25.5 164.539062 25.085938 164.503906 24.660156 164.433594 C 24.238281 164.367188 23.800781 164.261719 23.351562 164.121094 L 23.351562 162.800781 C 23.742188 163.011719 24.144531 163.171875 24.5625 163.273438 C 24.976562 163.378906 25.417969 163.429688 25.882812 163.429688 C 26.632812 163.429688 27.226562 163.234375 27.664062 162.839844 C 28.105469 162.445312 28.324219 161.910156 28.324219 161.230469 C 28.324219 160.554688 28.105469 160.019531 27.664062 159.625 C 27.226562 159.230469 26.632812 159.03125 25.882812 159.03125 C 25.53125 159.03125 25.179688 159.070312 24.828125 159.148438 C 24.480469 159.226562 24.125 159.347656 23.761719 159.511719 Z M 23.761719 154.628906 "/>
<g clip-path="url(#clip9)" clip-rule="nonzero">
<path style="fill:none;stroke-width:0.8;stroke-linecap:square;stroke-linejoin:round;stroke:rgb(69.01961%,69.01961%,69.01961%);stroke-opacity:1;stroke-miterlimit:4;" d="M 30.102539 87.357422 L 225.404297 87.357422 " transform="matrix(1.333333,0,0,1.333333,0,-0.000000000000014211)"/>
</g>
<path style="fill:none;stroke-width:0.8;stroke-linecap:butt;stroke-linejoin:round;stroke:rgb(0%,0%,0%);stroke-opacity:1;stroke-miterlimit:4;" d="M -0.000585556 0.00139618 L -3.498632 0.00139618 " transform="matrix(1.333333,0,0,1.333333,40.137499,116.474701)"/>
<path style=" stroke:none;fill-rule:nonzero;fill:rgb(0%,0%,0%);fill-opacity:1;" d="M 11.253906 120.433594 L 13.402344 120.433594 L 13.402344 113.015625 L 11.066406 113.484375 L 11.066406 112.289062 L 13.390625 111.820312 L 14.703125 111.820312 L 14.703125 120.433594 L 16.851562 120.433594 L 16.851562 121.539062 L 11.253906 121.539062 Z M 11.253906 120.433594 "/>
<path style=" stroke:none;fill-rule:nonzero;fill:rgb(0%,0%,0%);fill-opacity:1;" d="M 19.507812 119.886719 L 20.882812 119.886719 L 20.882812 121.539062 L 19.507812 121.539062 Z M 19.507812 119.886719 "/>
<path style=" stroke:none;fill-rule:nonzero;fill:rgb(0%,0%,0%);fill-opacity:1;" d="M 26.558594 112.6875 C 25.882812 112.6875 25.375 113.019531 25.03125 113.6875 C 24.691406 114.351562 24.519531 115.351562 24.519531 116.691406 C 24.519531 118.023438 24.691406 119.023438 25.03125 119.6875 C 25.375 120.355469 25.882812 120.6875 26.558594 120.6875 C 27.242188 120.6875 27.75 120.355469 28.09375 119.6875 C 28.433594 119.023438 28.605469 118.023438 28.605469 116.691406 C 28.605469 115.351562 28.433594 114.351562 28.09375 113.6875 C 27.75 113.019531 27.242188 112.6875 26.558594 112.6875 Z M 26.558594 111.644531 C 27.648438 111.644531 28.480469 112.074219 29.058594 112.9375 C 29.632812 113.800781 29.917969 115.050781 29.917969 116.691406 C 29.917969 118.328125 29.632812 119.574219 29.058594 120.4375 C 28.480469 121.300781 27.648438 121.730469 26.558594 121.730469 C 25.46875 121.730469 24.636719 121.300781 24.0625 120.4375 C 23.488281 119.574219 23.199219 118.328125 23.199219 116.691406 C 23.199219 115.050781 23.488281 113.800781 24.0625 112.9375 C 24.636719 112.074219 25.46875 111.644531 26.558594 111.644531 Z M 26.558594 111.644531 "/>
<g clip-path="url(#clip10)" clip-rule="nonzero">
<path style="fill:none;stroke-width:0.8;stroke-linecap:square;stroke-linejoin:round;stroke:rgb(69.01961%,69.01961%,69.01961%);stroke-opacity:1;stroke-miterlimit:4;" d="M 30.102539 55.248047 L 225.404297 55.248047 " transform="matrix(1.333333,0,0,1.333333,0,-0.000000000000014211)"/>
</g>
<path style="fill:none;stroke-width:0.8;stroke-linecap:butt;stroke-linejoin:round;stroke:rgb(0%,0%,0%);stroke-opacity:1;stroke-miterlimit:4;" d="M -0.000585556 -0.000858307 L -3.498632 -0.000858307 " transform="matrix(1.333333,0,0,1.333333,40.137499,73.665207)"/>
<path style=" stroke:none;fill-rule:nonzero;fill:rgb(0%,0%,0%);fill-opacity:1;" d="M 11.253906 77.625 L 13.402344 77.625 L 13.402344 70.207031 L 11.066406 70.675781 L 11.066406 69.480469 L 13.390625 69.011719 L 14.703125 69.011719 L 14.703125 77.625 L 16.851562 77.625 L 16.851562 78.730469 L 11.253906 78.730469 Z M 11.253906 77.625 "/>
<path style=" stroke:none;fill-rule:nonzero;fill:rgb(0%,0%,0%);fill-opacity:1;" d="M 19.507812 77.078125 L 20.882812 77.078125 L 20.882812 78.730469 L 19.507812 78.730469 Z M 19.507812 77.078125 "/>
<path style=" stroke:none;fill-rule:nonzero;fill:rgb(0%,0%,0%);fill-opacity:1;" d="M 23.761719 69.011719 L 28.921875 69.011719 L 28.921875 70.117188 L 24.964844 70.117188 L 24.964844 72.5 C 25.15625 72.433594 25.34375 72.386719 25.535156 72.355469 C 25.726562 72.320312 25.917969 72.304688 26.109375 72.304688 C 27.195312 72.304688 28.054688 72.601562 28.6875 73.199219 C 29.324219 73.792969 29.640625 74.597656 29.640625 75.613281 C 29.640625 76.65625 29.3125 77.472656 28.664062 78.050781 C 28.011719 78.628906 27.09375 78.921875 25.910156 78.921875 C 25.5 78.921875 25.085938 78.886719 24.660156 78.816406 C 24.238281 78.746094 23.800781 78.644531 23.351562 78.503906 L 23.351562 77.179688 C 23.742188 77.394531 24.144531 77.550781 24.5625 77.65625 C 24.976562 77.761719 25.417969 77.8125 25.882812 77.8125 C 26.632812 77.8125 27.226562 77.613281 27.664062 77.21875 C 28.105469 76.824219 28.324219 76.289062 28.324219 75.613281 C 28.324219 74.9375 28.105469 74.398438 27.664062 74.003906 C 27.226562 73.609375 26.632812 73.410156 25.882812 73.410156 C 25.53125 73.410156 25.179688 73.449219 24.828125 73.527344 C 24.480469 73.605469 24.125 73.726562 23.761719 73.894531 Z M 23.761719 69.011719 "/>
<g clip-path="url(#clip11)" clip-rule="nonzero">
<path style="fill:none;stroke-width:0.8;stroke-linecap:square;stroke-linejoin:round;stroke:rgb(69.01961%,69.01961%,69.01961%);stroke-opacity:1;stroke-miterlimit:4;" d="M 30.102539 23.141602 L 225.404297 23.141602 " transform="matrix(1.333333,0,0,1.333333,0,-0.000000000000014211)"/>
</g>
<path style="fill:none;stroke-width:0.8;stroke-linecap:butt;stroke-linejoin:round;stroke:rgb(0%,0%,0%);stroke-opacity:1;stroke-miterlimit:4;" d="M -0.000585556 -0.000183105 L -3.498632 -0.000183105 " transform="matrix(1.333333,0,0,1.333333,40.137499,30.855713)"/>
<path style=" stroke:none;fill-rule:nonzero;fill:rgb(0%,0%,0%);fill-opacity:1;" d="M 12.160156 34.816406 L 16.746094 34.816406 L 16.746094 35.921875 L 10.578125 35.921875 L 10.578125 34.816406 C 11.074219 34.296875 11.753906 33.605469 12.617188 32.734375 C 13.480469 31.863281 14.019531 31.304688 14.242188 31.050781 C 14.664062 30.578125 14.957031 30.179688 15.121094 29.851562 C 15.289062 29.523438 15.375 29.199219 15.375 28.882812 C 15.375 28.367188 15.195312 27.945312 14.832031 27.621094 C 14.46875 27.296875 13.996094 27.132812 13.414062 27.132812 C 13.003906 27.132812 12.566406 27.203125 12.109375 27.347656 C 11.652344 27.488281 11.164062 27.707031 10.640625 28 L 10.640625 26.667969 C 11.171875 26.457031 11.664062 26.296875 12.125 26.1875 C 12.585938 26.078125 13.007812 26.027344 13.390625 26.027344 C 14.398438 26.027344 15.199219 26.277344 15.796875 26.78125 C 16.398438 27.285156 16.695312 27.957031 16.695312 28.796875 C 16.695312 29.199219 16.621094 29.578125 16.472656 29.9375 C 16.320312 30.292969 16.050781 30.714844 15.652344 31.199219 C 15.546875 31.328125 15.199219 31.691406 14.617188 32.292969 C 14.039062 32.894531 13.21875 33.734375 12.160156 34.816406 Z M 12.160156 34.816406 "/>
<path style=" stroke:none;fill-rule:nonzero;fill:rgb(0%,0%,0%);fill-opacity:1;" d="M 19.507812 34.265625 L 20.882812 34.265625 L 20.882812 35.921875 L 19.507812 35.921875 Z M 19.507812 34.265625 "/>
<path style=" stroke:none;fill-rule:nonzero;fill:rgb(0%,0%,0%);fill-opacity:1;" d="M 26.558594 27.066406 C 25.882812 27.066406 25.375 27.402344 25.03125 28.066406 C 24.691406 28.734375 24.519531 29.734375 24.519531 31.070312 C 24.519531 32.402344 24.691406 33.402344 25.03125 34.070312 C 25.375 34.734375 25.882812 35.070312 26.558594 35.070312 C 27.242188 35.070312 27.75 34.734375 28.09375 34.070312 C 28.433594 33.402344 28.605469 32.402344 28.605469 31.070312 C 28.605469 29.734375 28.433594 28.734375 28.09375 28.066406 C 27.75 27.402344 27.242188 27.066406 26.558594 27.066406 Z M 26.558594 26.027344 C 27.648438 26.027344 28.480469 26.457031 29.058594 27.320312 C 29.632812 28.179688 29.917969 29.429688 29.917969 31.070312 C 29.917969 32.707031 29.632812 33.957031 29.058594 34.820312 C 28.480469 35.679688 27.648438 36.109375 26.558594 36.109375 C 25.46875 36.109375 24.636719 35.679688 24.0625 34.820312 C 23.488281 33.957031 23.199219 32.707031 23.199219 31.070312 C 23.199219 29.429688 23.488281 28.179688 24.0625 27.320312 C 24.636719 26.457031 25.46875 26.027344 26.558594 26.027344 Z M 26.558594 26.027344 "/>
<g clip-path="url(#clip12)" clip-rule="nonzero">
<path style="fill:none;stroke-width:1.5;stroke-linecap:square;stroke-linejoin:round;stroke:rgb(12.156863%,46.666667%,70.588237%);stroke-opacity:1;stroke-miterlimit:4;" d="M 31.461914 13.5 L 32.844727 36.213867 L 34.230469 52.655273 L 35.616211 63.527344 L 37.97168 103.78125 L 39.354492 104.255859 L 40.740234 105.928711 L 42.125977 107.0625 L 44.481445 116.405273 L 45.864258 116.542969 L 47.25 116.970703 L 48.635742 117.459961 L 50.991211 121.224609 L 52.376953 121.49707 L 53.759766 121.798828 L 55.145508 121.746094 L 57.500977 123.503906 L 58.886719 123.805664 L 60.269531 123.931641 L 61.655273 124.025391 L 64.010742 125.015625 L 65.396484 125.566406 L 66.779297 125.490234 L 68.165039 125.472656 L 70.520508 126.823242 L 71.90625 126.837891 L 73.291992 126.638672 L 74.674805 126.673828 L 77.030273 127.702148 L 78.416016 127.467773 L 79.801758 127.485352 L 81.18457 127.467773 L 83.540039 127.089844 L 84.925781 127.728516 L 86.311523 127.798828 L 87.697266 128.009766 L 90.049805 127.731445 L 91.435547 128.575195 L 92.821289 128.317383 L 94.207031 128.724609 L 96.55957 130.22168 L 97.945312 129.442383 L 99.331055 129.37793 L 100.716797 129.196289 L 103.069336 130.447266 L 104.455078 130.072266 L 105.84082 129.870117 L 107.226562 129.791016 L 109.579102 129.837891 L 110.964844 130.057617 L 112.350586 130.198242 L 113.736328 130.265625 L 116.091797 130.649414 L 117.474609 130.710937 L 118.860352 130.429687 L 120.246094 130.485352 L 122.601562 131.15332 L 123.984375 130.989258 L 125.370117 130.959961 L 126.755859 130.959961 L 129.111328 130.321289 L 130.49707 130.40625 L 131.879883 130.986328 L 133.265625 131.291016 L 135.621094 131.012695 L 137.006836 131.118164 L 138.389648 131.320312 L 139.775391 131.443359 L 142.130859 131.613281 L 143.516602 131.525391 L 144.899414 131.619141 L 146.285156 131.709961 L 148.640625 132.240234 L 150.026367 131.953125 L 151.412109 131.865234 L 152.794922 131.900391 L 155.150391 132.711914 L 156.536133 132.292969 L 157.921875 132.512695 L 159.304687 132.254883 L 161.660156 132.870117 L 163.045898 132.544922 L 164.431641 132.234375 L 165.814453 132.369141 L 168.169922 132.808594 L 169.555664 132.697266 L 170.941406 132.799805 L 172.327148 132.805664 L 174.679687 133.168945 L 176.06543 133.374023 L 177.451172 133.130859 L 178.836914 132.984375 L 181.189453 133.116211 L 182.575195 132.94043 L 183.960937 132.867187 L 185.34668 132.960937 L 187.699219 133.303711 L 189.084961 133.236328 L 190.470703 133.098633 L 191.856445 133.133789 L 194.211914 133.037109 L 195.594727 133.306641 L 196.980469 133.303711 L 198.366211 133.268555 L 200.72168 133.599609 L 202.104492 133.664062 L 203.490234 133.737305 L 204.875977 133.68457 L 207.231445 134.036133 L 208.614258 133.693359 L 210 133.749023 L 211.385742 133.696289 L 213.741211 134.452148 L 215.126953 134.094727 L 216.509766 134.030273 L 217.895508 133.962891 L 220.250977 133.599609 L 221.636719 133.869141 L 223.019531 133.980469 L 224.405273 133.913086 " transform="matrix(1.333333,0,0,1.333333,0,-0.000000000000014211)"/>
</g>
<g clip-path="url(#clip13)" clip-rule="nonzero">
<path style="fill:none;stroke-width:1.5;stroke-linecap:butt;stroke-linejoin:round;stroke:rgb(74.901962%,0%,74.901962%);stroke-opacity:1;stroke-dasharray:5.55,2.4;stroke-miterlimit:4;" d="M 31.461914 139.5 L 32.844727 131.003906 L 34.230469 125.033203 L 35.616211 120.981445 L 37.97168 105.761719 L 39.354492 105.615234 L 40.740234 104.897461 L 42.125977 104.378906 L 44.481445 100.564453 L 45.864258 100.353516 L 47.25 100.189453 L 48.635742 99.966797 L 50.991211 98.449219 L 52.376953 98.364258 L 53.759766 98.232422 L 55.145508 98.305664 L 57.500977 97.681641 L 58.886719 97.508789 L 60.269531 97.479492 L 61.655273 97.40625 L 64.010742 97.163086 L 65.396484 96.966797 L 66.779297 96.9375 L 68.165039 96.975586 L 70.520508 96.380859 L 71.90625 96.433594 L 73.291992 96.512695 L 74.674805 96.46582 L 77.030273 96.070312 L 78.416016 96.178711 L 79.801758 96.105469 L 81.18457 96.181641 L 83.540039 96.480469 L 84.925781 96.046875 L 86.311523 96.017578 L 87.697266 95.958984 L 90.049805 96.128906 L 91.435547 95.780273 L 92.821289 95.827148 L 94.207031 95.686523 L 96.55957 94.96582 L 97.945312 95.370117 L 100.716797 95.487305 L 103.069336 95.041992 L 104.455078 95.258789 L 105.84082 95.258789 L 107.226562 95.293945 L 109.579102 95.191406 L 110.964844 95.053711 L 112.350586 95.018555 L 113.736328 95.050781 L 116.091797 94.831055 L 117.474609 94.951172 L 118.860352 95.000977 L 120.246094 94.974609 L 122.601562 94.790039 L 123.984375 94.831055 L 125.370117 94.857422 L 126.755859 94.848633 L 129.111328 95.077148 L 130.49707 95.0625 L 131.879883 94.825195 L 133.265625 94.749023 L 135.621094 94.836914 L 137.006836 94.6875 L 138.389648 94.605469 L 139.775391 94.643555 L 142.130859 94.696289 L 143.516602 94.693359 L 144.899414 94.614258 L 146.285156 94.561523 L 148.640625 94.365234 L 150.026367 94.456055 L 151.412109 94.491211 L 152.794922 94.473633 L 155.150391 94.289062 L 156.536133 94.40332 L 157.921875 94.344727 L 159.304687 94.412109 L 161.660156 94.119141 L 163.045898 94.21875 L 164.431641 94.324219 L 165.814453 94.286133 L 168.169922 93.993164 L 169.555664 94.130859 L 170.941406 94.089844 L 172.327148 94.142578 L 174.679687 94.198242 L 176.06543 94.019531 L 177.451172 94.136719 L 178.836914 94.136719 L 181.189453 93.966797 L 182.575195 94.083984 L 183.960937 94.078125 L 185.34668 94.060547 L 187.699219 94.022461 L 189.084961 93.963867 L 190.470703 94.089844 L 191.856445 94.078125 L 194.211914 94.239258 L 195.594727 94.139648 L 196.980469 94.125 L 198.366211 94.12793 L 200.72168 93.773438 L 202.104492 93.849609 L 203.490234 93.829102 L 204.875977 93.864258 L 207.231445 93.796875 L 208.614258 93.908203 L 210 93.893555 L 211.385742 93.899414 L 213.741211 93.577148 L 215.126953 93.673828 L 216.509766 93.706055 L 217.895508 93.732422 L 220.250977 93.908203 L 221.636719 93.878906 L 223.019531 93.820312 L 224.405273 93.832031 " transform="matrix(1.333333,0,0,1.333333,0,-0.000000000000014211)"/>
</g>
<g clip-path="url(#clip14)" clip-rule="nonzero">
<path style="fill:none;stroke-width:1.5;stroke-linecap:butt;stroke-linejoin:round;stroke:rgb(0%,50.196081%,0%);stroke-opacity:1;stroke-dasharray:9.6,2.4,1.5,2.4;stroke-miterlimit:4;" d="M 36.612305 106.145508 L 43.12207 101.578125 L 49.631836 100.833984 L 56.144531 100.051758 L 62.654297 98.027344 L 69.164062 100.294922 L 75.673828 97.066406 L 82.183594 97.321289 L 88.693359 96.744141 L 95.203125 96.993164 L 101.712891 96.146484 L 108.222656 95.818359 L 114.732422 97.174805 L 121.242187 97.066406 L 127.751953 95.844727 L 134.261719 95.704102 L 140.774414 95.973633 L 147.28418 95.326172 L 153.793945 95.90918 L 160.303711 95.499023 L 166.813477 95.235352 L 173.323242 95.575195 L 179.833008 95.214844 L 186.342773 95.499023 L 192.852539 97.810547 L 199.362305 94.939453 L 205.87207 95.015625 L 212.381836 94.992188 L 218.894531 95.191406 L 225.404297 94.643555 " transform="matrix(1.333333,0,0,1.333333,0,-0.000000000000014211)"/>
</g>
<path style="fill:none;stroke-width:0.8;stroke-linecap:square;stroke-linejoin:miter;stroke:rgb(0%,0%,0%);stroke-opacity:1;stroke-miterlimit:4;" d="M 30.102539 145.798828 L 30.102539 7.201172 " transform="matrix(1.333333,0,0,1.333333,0,-0.000000000000014211)"/>
<path style="fill:none;stroke-width:0.8;stroke-linecap:square;stroke-linejoin:miter;stroke:rgb(0%,0%,0%);stroke-opacity:1;stroke-miterlimit:4;" d="M 225.404297 145.798828 L 225.404297 7.201172 " transform="matrix(1.333333,0,0,1.333333,0,-0.000000000000014211)"/>
<path style="fill:none;stroke-width:0.8;stroke-linecap:square;stroke-linejoin:miter;stroke:rgb(0%,0%,0%);stroke-opacity:1;stroke-miterlimit:4;" d="M 30.102539 145.798828 L 225.404297 145.798828 " transform="matrix(1.333333,0,0,1.333333,0,-0.000000000000014211)"/>
<path style="fill:none;stroke-width:0.8;stroke-linecap:square;stroke-linejoin:miter;stroke:rgb(0%,0%,0%);stroke-opacity:1;stroke-miterlimit:4;" d="M 30.102539 7.201172 L 225.404297 7.201172 " transform="matrix(1.333333,0,0,1.333333,0,-0.000000000000014211)"/>
<use xlink:href="#surface5" mask="url(#mask0)"/>
<path style="fill:none;stroke-width:1.5;stroke-linecap:square;stroke-linejoin:round;stroke:rgb(12.156863%,46.666667%,70.588237%);stroke-opacity:1;stroke-miterlimit:4;" d="M 142.634766 20.299805 L 162.635742 20.299805 " transform="matrix(1.333333,0,0,1.333333,0,-0.000000000000014211)"/>
<path style=" stroke:none;fill-rule:nonzero;fill:rgb(0%,0%,0%);fill-opacity:1;" d="M 229.953125 22.367188 L 229.953125 24.441406 L 232.421875 24.441406 L 232.421875 25.371094 L 229.953125 25.371094 L 229.953125 29.328125 C 229.953125 29.921875 230.035156 30.304688 230.199219 30.476562 C 230.359375 30.644531 230.691406 30.730469 231.191406 30.730469 L 232.421875 30.730469 L 232.421875 31.730469 L 231.191406 31.730469 C 230.265625 31.730469 229.628906 31.558594 229.277344 31.214844 C 228.925781 30.867188 228.75 30.242188 228.75 29.328125 L 228.75 25.371094 L 227.871094 25.371094 L 227.871094 24.441406 L 228.75 24.441406 L 228.75 22.367188 Z M 229.953125 22.367188 "/>
<path style=" stroke:none;fill-rule:nonzero;fill:rgb(0%,0%,0%);fill-opacity:1;" d="M 238.222656 25.558594 C 238.085938 25.480469 237.941406 25.421875 237.78125 25.386719 C 237.625 25.351562 237.449219 25.332031 237.257812 25.332031 C 236.582031 25.332031 236.0625 25.550781 235.699219 25.992188 C 235.335938 26.433594 235.15625 27.066406 235.15625 27.890625 L 235.15625 31.730469 L 233.949219 31.730469 L 233.949219 24.441406 L 235.15625 24.441406 L 235.15625 25.574219 C 235.40625 25.128906 235.734375 24.800781 236.136719 24.585938 C 236.542969 24.371094 237.035156 24.265625 237.609375 24.265625 C 237.691406 24.265625 237.785156 24.269531 237.882812 24.28125 C 237.984375 24.289062 238.09375 24.308594 238.214844 24.328125 Z M 238.222656 25.558594 "/>
<path style=" stroke:none;fill-rule:nonzero;fill:rgb(0%,0%,0%);fill-opacity:1;" d="M 242.792969 28.066406 C 241.824219 28.066406 241.152344 28.175781 240.78125 28.398438 C 240.40625 28.617188 240.21875 28.996094 240.21875 29.53125 C 240.21875 29.957031 240.359375 30.292969 240.640625 30.542969 C 240.921875 30.792969 241.300781 30.917969 241.78125 30.917969 C 242.449219 30.917969 242.980469 30.679688 243.382812 30.210938 C 243.785156 29.738281 243.984375 29.113281 243.984375 28.332031 L 243.984375 28.066406 Z M 245.183594 27.570312 L 245.183594 31.730469 L 243.984375 31.730469 L 243.984375 30.625 C 243.710938 31.066406 243.371094 31.394531 242.960938 31.605469 C 242.554688 31.816406 242.054688 31.921875 241.464844 31.921875 C 240.71875 31.921875 240.125 31.710938 239.683594 31.292969 C 239.242188 30.871094 239.023438 30.3125 239.023438 29.609375 C 239.023438 28.789062 239.296875 28.171875 239.84375 27.753906 C 240.394531 27.335938 241.214844 27.128906 242.304688 27.128906 L 243.984375 27.128906 L 243.984375 27.011719 C 243.984375 26.460938 243.804688 26.03125 243.441406 25.730469 C 243.078125 25.429688 242.570312 25.277344 241.914062 25.277344 C 241.496094 25.277344 241.089844 25.328125 240.695312 25.429688 C 240.300781 25.527344 239.921875 25.679688 239.558594 25.878906 L 239.558594 24.769531 C 239.996094 24.601562 240.421875 24.476562 240.832031 24.390625 C 241.246094 24.308594 241.644531 24.265625 242.035156 24.265625 C 243.09375 24.265625 243.878906 24.539062 244.402344 25.085938 C 244.921875 25.632812 245.183594 26.460938 245.183594 27.570312 Z M 245.183594 27.570312 "/>
<path style=" stroke:none;fill-rule:nonzero;fill:rgb(0%,0%,0%);fill-opacity:1;" d="M 247.648438 24.441406 L 248.847656 24.441406 L 248.847656 31.730469 L 247.648438 31.730469 Z M 247.648438 21.601562 L 248.847656 21.601562 L 248.847656 23.117188 L 247.648438 23.117188 Z M 247.648438 21.601562 "/>
<path style=" stroke:none;fill-rule:nonzero;fill:rgb(0%,0%,0%);fill-opacity:1;" d="M 257.414062 27.328125 L 257.414062 31.730469 L 256.21875 31.730469 L 256.21875 27.367188 C 256.21875 26.679688 256.082031 26.164062 255.8125 25.820312 C 255.542969 25.476562 255.140625 25.304688 254.601562 25.304688 C 253.957031 25.304688 253.445312 25.511719 253.070312 25.925781 C 252.699219 26.335938 252.511719 26.898438 252.511719 27.609375 L 252.511719 31.730469 L 251.308594 31.730469 L 251.308594 24.441406 L 252.511719 24.441406 L 252.511719 25.574219 C 252.800781 25.132812 253.136719 24.804688 253.523438 24.589844 C 253.914062 24.371094 254.363281 24.265625 254.871094 24.265625 C 255.707031 24.265625 256.339844 24.523438 256.769531 25.042969 C 257.199219 25.558594 257.414062 26.320312 257.414062 27.328125 Z M 257.414062 27.328125 "/>
<path style=" stroke:none;fill-rule:nonzero;fill:rgb(0%,0%,0%);fill-opacity:1;" d="M 264.042969 21.601562 L 265.238281 21.601562 L 265.238281 31.730469 L 264.042969 31.730469 Z M 264.042969 21.601562 "/>
<path style=" stroke:none;fill-rule:nonzero;fill:rgb(0%,0%,0%);fill-opacity:1;" d="M 270.570312 25.277344 C 269.929688 25.277344 269.421875 25.53125 269.046875 26.03125 C 268.675781 26.53125 268.488281 27.21875 268.488281 28.089844 C 268.488281 28.964844 268.671875 29.652344 269.042969 30.152344 C 269.417969 30.652344 269.925781 30.902344 270.570312 30.902344 C 271.210938 30.902344 271.714844 30.652344 272.089844 30.148438 C 272.460938 29.644531 272.648438 28.960938 272.648438 28.089844 C 272.648438 27.226562 272.460938 26.542969 272.089844 26.039062 C 271.714844 25.53125 271.210938 25.277344 270.570312 25.277344 Z M 270.570312 24.265625 C 271.613281 24.265625 272.429688 24.601562 273.027344 25.28125 C 273.621094 25.957031 273.917969 26.894531 273.917969 28.089844 C 273.917969 29.285156 273.621094 30.222656 273.027344 30.902344 C 272.429688 31.582031 271.613281 31.921875 270.570312 31.921875 C 269.527344 31.921875 268.707031 31.582031 268.113281 30.902344 C 267.523438 30.222656 267.226562 29.285156 267.226562 28.089844 C 267.226562 26.894531 267.523438 25.957031 268.113281 25.28125 C 268.707031 24.601562 269.527344 24.265625 270.570312 24.265625 Z M 270.570312 24.265625 "/>
<path style=" stroke:none;fill-rule:nonzero;fill:rgb(0%,0%,0%);fill-opacity:1;" d="M 280.550781 24.652344 L 280.550781 25.789062 C 280.214844 25.613281 279.863281 25.484375 279.496094 25.398438 C 279.132812 25.308594 278.757812 25.265625 278.363281 25.265625 C 277.769531 25.265625 277.324219 25.359375 277.027344 25.539062 C 276.730469 25.722656 276.582031 25.996094 276.582031 26.359375 C 276.582031 26.636719 276.6875 26.855469 276.898438 27.015625 C 277.113281 27.171875 277.539062 27.324219 278.183594 27.464844 L 278.59375 27.558594 C 279.445312 27.742188 280.046875 27.996094 280.40625 28.328125 C 280.765625 28.660156 280.945312 29.125 280.945312 29.71875 C 280.945312 30.398438 280.675781 30.933594 280.140625 31.328125 C 279.601562 31.722656 278.867188 31.921875 277.929688 31.921875 C 277.539062 31.921875 277.132812 31.882812 276.707031 31.804688 C 276.285156 31.730469 275.839844 31.617188 275.371094 31.464844 L 275.371094 30.226562 C 275.8125 30.457031 276.25 30.628906 276.679688 30.746094 C 277.109375 30.859375 277.535156 30.917969 277.957031 30.917969 C 278.519531 30.917969 278.953125 30.820312 279.257812 30.628906 C 279.558594 30.433594 279.710938 30.160156 279.710938 29.808594 C 279.710938 29.484375 279.601562 29.234375 279.382812 29.0625 C 279.164062 28.890625 278.683594 28.722656 277.941406 28.558594 L 277.523438 28.460938 C 276.785156 28.308594 276.246094 28.066406 275.917969 27.742188 C 275.585938 27.421875 275.421875 26.976562 275.421875 26.414062 C 275.421875 25.726562 275.664062 25.195312 276.152344 24.824219 C 276.636719 24.453125 277.328125 24.265625 278.222656 24.265625 C 278.664062 24.265625 279.082031 24.296875 279.472656 24.363281 C 279.863281 24.425781 280.222656 24.523438 280.550781 24.652344 Z M 280.550781 24.652344 "/>
<path style=" stroke:none;fill-rule:nonzero;fill:rgb(0%,0%,0%);fill-opacity:1;" d="M 287.5 24.652344 L 287.5 25.789062 C 287.160156 25.613281 286.808594 25.484375 286.445312 25.398438 C 286.082031 25.308594 285.703125 25.265625 285.3125 25.265625 C 284.714844 25.265625 284.269531 25.359375 283.972656 25.539062 C 283.675781 25.722656 283.527344 25.996094 283.527344 26.359375 C 283.527344 26.636719 283.632812 26.855469 283.847656 27.015625 C 284.058594 27.171875 284.488281 27.324219 285.128906 27.464844 L 285.539062 27.558594 C 286.390625 27.742188 286.996094 27.996094 287.351562 28.328125 C 287.710938 28.660156 287.890625 29.125 287.890625 29.71875 C 287.890625 30.398438 287.621094 30.933594 287.085938 31.328125 C 286.550781 31.722656 285.8125 31.921875 284.875 31.921875 C 284.484375 31.921875 284.078125 31.882812 283.65625 31.804688 C 283.230469 31.730469 282.785156 31.617188 282.316406 31.464844 L 282.316406 30.226562 C 282.761719 30.457031 283.195312 30.628906 283.625 30.746094 C 284.054688 30.859375 284.480469 30.917969 284.902344 30.917969 C 285.464844 30.917969 285.898438 30.820312 286.203125 30.628906 C 286.507812 30.433594 286.660156 30.160156 286.660156 29.808594 C 286.660156 29.484375 286.550781 29.234375 286.328125 29.0625 C 286.113281 28.890625 285.632812 28.722656 284.886719 28.558594 L 284.472656 28.460938 C 283.730469 28.308594 283.195312 28.066406 282.863281 27.742188 C 282.535156 27.421875 282.371094 26.976562 282.371094 26.414062 C 282.371094 25.726562 282.613281 25.195312 283.097656 24.824219 C 283.585938 24.453125 284.273438 24.265625 285.167969 24.265625 C 285.609375 24.265625 286.027344 24.296875 286.417969 24.363281 C 286.808594 24.425781 287.167969 24.523438 287.5 24.652344 Z M 287.5 24.652344 "/>
<path style="fill:none;stroke-width:1.5;stroke-linecap:butt;stroke-linejoin:round;stroke:rgb(74.901962%,0%,74.901962%);stroke-opacity:1;stroke-dasharray:5.55,2.4;stroke-miterlimit:4;" d="M 142.634766 34.977539 L 162.635742 34.977539 " transform="matrix(1.333333,0,0,1.333333,0,-0.000000000000014211)"/>
<path style=" stroke:none;fill-rule:nonzero;fill:rgb(0%,0%,0%);fill-opacity:1;" d="M 229.953125 41.941406 L 229.953125 44.011719 L 232.421875 44.011719 L 232.421875 44.941406 L 229.953125 44.941406 L 229.953125 48.898438 C 229.953125 49.496094 230.035156 49.875 230.199219 50.046875 C 230.359375 50.214844 230.691406 50.300781 231.191406 50.300781 L 232.421875 50.300781 L 232.421875 51.300781 L 231.191406 51.300781 C 230.265625 51.300781 229.628906 51.128906 229.277344 50.785156 C 228.925781 50.441406 228.75 49.8125 228.75 48.898438 L 228.75 44.941406 L 227.871094 44.941406 L 227.871094 44.011719 L 228.75 44.011719 L 228.75 41.941406 Z M 229.953125 41.941406 "/>
<path style=" stroke:none;fill-rule:nonzero;fill:rgb(0%,0%,0%);fill-opacity:1;" d="M 238.222656 45.128906 C 238.085938 45.050781 237.941406 44.996094 237.78125 44.957031 C 237.625 44.921875 237.449219 44.902344 237.257812 44.902344 C 236.582031 44.902344 236.0625 45.121094 235.699219 45.5625 C 235.335938 46.003906 235.15625 46.636719 235.15625 47.460938 L 235.15625 51.300781 L 233.949219 51.300781 L 233.949219 44.011719 L 235.15625 44.011719 L 235.15625 45.144531 C 235.40625 44.699219 235.734375 44.371094 236.136719 44.160156 C 236.542969 43.941406 237.035156 43.835938 237.609375 43.835938 C 237.691406 43.835938 237.785156 43.839844 237.882812 43.851562 C 237.984375 43.863281 238.09375 43.878906 238.214844 43.898438 Z M 238.222656 45.128906 "/>
<path style=" stroke:none;fill-rule:nonzero;fill:rgb(0%,0%,0%);fill-opacity:1;" d="M 242.792969 47.636719 C 241.824219 47.636719 241.152344 47.746094 240.78125 47.96875 C 240.40625 48.191406 240.21875 48.566406 240.21875 49.101562 C 240.21875 49.527344 240.359375 49.863281 240.640625 50.113281 C 240.921875 50.363281 241.300781 50.488281 241.78125 50.488281 C 242.449219 50.488281 242.980469 50.253906 243.382812 49.78125 C 243.785156 49.308594 243.984375 48.683594 243.984375 47.902344 L 243.984375 47.636719 Z M 245.183594 47.140625 L 245.183594 51.300781 L 243.984375 51.300781 L 243.984375 50.195312 C 243.710938 50.636719 243.371094 50.964844 242.960938 51.175781 C 242.554688 51.386719 242.054688 51.492188 241.464844 51.492188 C 240.71875 51.492188 240.125 51.28125 239.683594 50.863281 C 239.242188 50.441406 239.023438 49.882812 239.023438 49.179688 C 239.023438 48.359375 239.296875 47.742188 239.84375 47.324219 C 240.394531 46.910156 241.214844 46.699219 242.304688 46.699219 L 243.984375 46.699219 L 243.984375 46.582031 C 243.984375 46.03125 243.804688 45.601562 243.441406 45.300781 C 243.078125 45 242.570312 44.851562 241.914062 44.851562 C 241.496094 44.851562 241.089844 44.898438 240.695312 45 C 240.300781 45.101562 239.921875 45.25 239.558594 45.449219 L 239.558594 44.339844 C 239.996094 44.171875 240.421875 44.046875 240.832031 43.960938 C 241.246094 43.878906 241.644531 43.835938 242.035156 43.835938 C 243.09375 43.835938 243.878906 44.109375 244.402344 44.65625 C 244.921875 45.203125 245.183594 46.03125 245.183594 47.140625 Z M 245.183594 47.140625 "/>
<path style=" stroke:none;fill-rule:nonzero;fill:rgb(0%,0%,0%);fill-opacity:1;" d="M 247.648438 44.011719 L 248.847656 44.011719 L 248.847656 51.300781 L 247.648438 51.300781 Z M 247.648438 41.171875 L 248.847656 41.171875 L 248.847656 42.691406 L 247.648438 42.691406 Z M 247.648438 41.171875 "/>
<path style=" stroke:none;fill-rule:nonzero;fill:rgb(0%,0%,0%);fill-opacity:1;" d="M 257.414062 46.898438 L 257.414062 51.300781 L 256.21875 51.300781 L 256.21875 46.941406 C 256.21875 46.25 256.082031 45.734375 255.8125 45.390625 C 255.542969 45.046875 255.140625 44.878906 254.601562 44.878906 C 253.957031 44.878906 253.445312 45.082031 253.070312 45.496094 C 252.699219 45.90625 252.511719 46.46875 252.511719 47.179688 L 252.511719 51.300781 L 251.308594 51.300781 L 251.308594 44.011719 L 252.511719 44.011719 L 252.511719 45.144531 C 252.800781 44.703125 253.136719 44.378906 253.523438 44.160156 C 253.914062 43.945312 254.363281 43.835938 254.871094 43.835938 C 255.707031 43.835938 256.339844 44.09375 256.769531 44.613281 C 257.199219 45.128906 257.414062 45.894531 257.414062 46.898438 Z M 257.414062 46.898438 "/>
<path style=" stroke:none;fill-rule:nonzero;fill:rgb(0%,0%,0%);fill-opacity:1;" d="M 267.355469 47.636719 C 266.390625 47.636719 265.71875 47.746094 265.34375 47.96875 C 264.96875 48.191406 264.785156 48.566406 264.785156 49.101562 C 264.785156 49.527344 264.925781 49.863281 265.203125 50.113281 C 265.484375 50.363281 265.867188 50.488281 266.347656 50.488281 C 267.011719 50.488281 267.546875 50.253906 267.945312 49.78125 C 268.347656 49.308594 268.546875 48.683594 268.546875 47.902344 L 268.546875 47.636719 Z M 269.746094 47.140625 L 269.746094 51.300781 L 268.546875 51.300781 L 268.546875 50.195312 C 268.273438 50.636719 267.933594 50.964844 267.527344 51.175781 C 267.117188 51.386719 266.617188 51.492188 266.027344 51.492188 C 265.28125 51.492188 264.6875 51.28125 264.246094 50.863281 C 263.804688 50.441406 263.585938 49.882812 263.585938 49.179688 C 263.585938 48.359375 263.859375 47.742188 264.410156 47.324219 C 264.957031 46.910156 265.777344 46.699219 266.867188 46.699219 L 268.546875 46.699219 L 268.546875 46.582031 C 268.546875 46.03125 268.367188 45.601562 268.003906 45.300781 C 267.640625 45 267.132812 44.851562 266.476562 44.851562 C 266.0625 44.851562 265.65625 44.898438 265.257812 45 C 264.863281 45.101562 264.484375 45.25 264.121094 45.449219 L 264.121094 44.339844 C 264.558594 44.171875 264.984375 44.046875 265.394531 43.960938 C 265.808594 43.878906 266.210938 43.835938 266.601562 43.835938 C 267.65625 43.835938 268.445312 44.109375 268.964844 44.65625 C 269.484375 45.203125 269.746094 46.03125 269.746094 47.140625 Z M 269.746094 47.140625 "/>
<path style=" stroke:none;fill-rule:nonzero;fill:rgb(0%,0%,0%);fill-opacity:1;" d="M 277.460938 44.289062 L 277.460938 45.410156 C 277.121094 45.222656 276.78125 45.082031 276.441406 44.988281 C 276.101562 44.898438 275.757812 44.851562 275.410156 44.851562 C 274.632812 44.851562 274.027344 45.097656 273.597656 45.589844 C 273.167969 46.082031 272.953125 46.773438 272.953125 47.664062 C 272.953125 48.554688 273.167969 49.246094 273.597656 49.738281 C 274.027344 50.230469 274.632812 50.476562 275.410156 50.476562 C 275.757812 50.476562 276.101562 50.429688 276.441406 50.335938 C 276.78125 50.242188 277.121094 50.101562 277.460938 49.914062 L 277.460938 51.023438 C 277.125 51.179688 276.78125 51.296875 276.421875 51.371094 C 276.0625 51.453125 275.683594 51.492188 275.28125 51.492188 C 274.179688 51.492188 273.308594 51.148438 272.660156 50.457031 C 272.015625 49.765625 271.691406 48.835938 271.691406 47.664062 C 271.691406 46.472656 272.019531 45.539062 272.671875 44.859375 C 273.324219 44.175781 274.222656 43.835938 275.359375 43.835938 C 275.726562 43.835938 276.085938 43.875 276.4375 43.949219 C 276.789062 44.023438 277.128906 44.136719 277.460938 44.289062 Z M 277.460938 44.289062 "/>
<path style=" stroke:none;fill-rule:nonzero;fill:rgb(0%,0%,0%);fill-opacity:1;" d="M 284.792969 44.289062 L 284.792969 45.410156 C 284.453125 45.222656 284.113281 45.082031 283.773438 44.988281 C 283.433594 44.898438 283.089844 44.851562 282.742188 44.851562 C 281.964844 44.851562 281.359375 45.097656 280.929688 45.589844 C 280.5 46.082031 280.285156 46.773438 280.285156 47.664062 C 280.285156 48.554688 280.5 49.246094 280.929688 49.738281 C 281.359375 50.230469 281.964844 50.476562 282.742188 50.476562 C 283.089844 50.476562 283.433594 50.429688 283.773438 50.335938 C 284.113281 50.242188 284.453125 50.101562 284.792969 49.914062 L 284.792969 51.023438 C 284.457031 51.179688 284.109375 51.296875 283.75 51.371094 C 283.394531 51.453125 283.015625 51.492188 282.609375 51.492188 C 281.511719 51.492188 280.636719 51.148438 279.992188 50.457031 C 279.34375 49.765625 279.023438 48.835938 279.023438 47.664062 C 279.023438 46.472656 279.347656 45.539062 280 44.859375 C 280.65625 44.175781 281.550781 43.835938 282.6875 43.835938 C 283.058594 43.835938 283.417969 43.875 283.769531 43.949219 C 284.121094 44.023438 284.460938 44.136719 284.792969 44.289062 Z M 284.792969 44.289062 "/>
<path style="fill:none;stroke-width:1.5;stroke-linecap:butt;stroke-linejoin:round;stroke:rgb(0%,50.196081%,0%);stroke-opacity:1;stroke-dasharray:9.6,2.4,1.5,2.4;stroke-miterlimit:4;" d="M 142.634766 49.655273 L 162.635742 49.655273 " transform="matrix(1.333333,0,0,1.333333,0,-0.000000000000014211)"/>
<path style=" stroke:none;fill-rule:nonzero;fill:rgb(0%,0%,0%);fill-opacity:1;" d="M 229.953125 61.511719 L 229.953125 63.582031 L 232.421875 63.582031 L 232.421875 64.511719 L 229.953125 64.511719 L 229.953125 68.472656 C 229.953125 69.066406 230.035156 69.445312 230.199219 69.617188 C 230.359375 69.785156 230.691406 69.871094 231.191406 69.871094 L 232.421875 69.871094 L 232.421875 70.871094 L 231.191406 70.871094 C 230.265625 70.871094 229.628906 70.699219 229.277344 70.355469 C 228.925781 70.011719 228.75 69.382812 228.75 68.472656 L 228.75 64.511719 L 227.871094 64.511719 L 227.871094 63.582031 L 228.75 63.582031 L 228.75 61.511719 Z M 229.953125 61.511719 "/>
<path style=" stroke:none;fill-rule:nonzero;fill:rgb(0%,0%,0%);fill-opacity:1;" d="M 240.234375 66.925781 L 240.234375 67.511719 L 234.726562 67.511719 C 234.777344 68.335938 235.027344 68.964844 235.472656 69.398438 C 235.917969 69.828125 236.535156 70.046875 237.328125 70.046875 C 237.789062 70.046875 238.234375 69.988281 238.667969 69.878906 C 239.097656 69.765625 239.527344 69.59375 239.953125 69.367188 L 239.953125 70.503906 C 239.523438 70.683594 239.082031 70.824219 238.632812 70.917969 C 238.179688 71.015625 237.722656 71.0625 237.257812 71.0625 C 236.09375 71.0625 235.171875 70.722656 234.496094 70.046875 C 233.816406 69.371094 233.476562 68.453125 233.476562 67.296875 C 233.476562 66.105469 233.796875 65.160156 234.441406 64.457031 C 235.085938 63.757812 235.957031 63.40625 237.050781 63.40625 C 238.03125 63.40625 238.808594 63.722656 239.378906 64.355469 C 239.949219 64.984375 240.234375 65.84375 240.234375 66.925781 Z M 239.035156 66.574219 C 239.027344 65.921875 238.84375 65.398438 238.484375 65.007812 C 238.128906 64.617188 237.652344 64.421875 237.0625 64.421875 C 236.394531 64.421875 235.859375 64.609375 235.460938 64.988281 C 235.058594 65.367188 234.828125 65.898438 234.765625 66.582031 Z M 239.035156 66.574219 "/>
<path style=" stroke:none;fill-rule:nonzero;fill:rgb(0%,0%,0%);fill-opacity:1;" d="M 246.847656 63.796875 L 246.847656 64.929688 C 246.511719 64.753906 246.160156 64.625 245.792969 64.539062 C 245.429688 64.453125 245.050781 64.410156 244.660156 64.410156 C 244.066406 64.410156 243.621094 64.5 243.324219 64.679688 C 243.027344 64.863281 242.875 65.136719 242.875 65.503906 C 242.875 65.78125 242.984375 65.996094 243.195312 66.15625 C 243.40625 66.316406 243.835938 66.464844 244.480469 66.609375 L 244.890625 66.699219 C 245.738281 66.882812 246.34375 67.140625 246.703125 67.472656 C 247.058594 67.804688 247.238281 68.265625 247.238281 68.859375 C 247.238281 69.539062 246.972656 70.074219 246.433594 70.472656 C 245.898438 70.867188 245.164062 71.0625 244.226562 71.0625 C 243.835938 71.0625 243.425781 71.023438 243.003906 70.949219 C 242.582031 70.871094 242.132812 70.757812 241.667969 70.605469 L 241.667969 69.367188 C 242.109375 69.597656 242.546875 69.773438 242.976562 69.886719 C 243.402344 70 243.828125 70.058594 244.25 70.058594 C 244.816406 70.058594 245.25 69.960938 245.550781 69.769531 C 245.855469 69.574219 246.007812 69.304688 246.007812 68.953125 C 246.007812 68.628906 245.898438 68.378906 245.679688 68.203125 C 245.460938 68.03125 244.980469 67.863281 244.238281 67.703125 L 243.820312 67.605469 C 243.078125 67.449219 242.542969 67.210938 242.210938 66.886719 C 241.882812 66.5625 241.71875 66.117188 241.71875 65.554688 C 241.71875 64.867188 241.960938 64.339844 242.449219 63.964844 C 242.933594 63.59375 243.625 63.40625 244.519531 63.40625 C 244.960938 63.40625 245.375 63.4375 245.765625 63.503906 C 246.15625 63.566406 246.519531 63.664062 246.847656 63.796875 Z M 246.847656 63.796875 "/>
<path style=" stroke:none;fill-rule:nonzero;fill:rgb(0%,0%,0%);fill-opacity:1;" d="M 250.332031 61.511719 L 250.332031 63.582031 L 252.796875 63.582031 L 252.796875 64.511719 L 250.332031 64.511719 L 250.332031 68.472656 C 250.332031 69.066406 250.414062 69.445312 250.574219 69.617188 C 250.738281 69.785156 251.070312 69.871094 251.570312 69.871094 L 252.796875 69.871094 L 252.796875 70.871094 L 251.570312 70.871094 C 250.644531 70.871094 250.007812 70.699219 249.65625 70.355469 C 249.304688 70.011719 249.128906 69.382812 249.128906 68.472656 L 249.128906 64.511719 L 248.25 64.511719 L 248.25 63.582031 L 249.128906 63.582031 L 249.128906 61.511719 Z M 250.332031 61.511719 "/>
<path style=" stroke:none;fill-rule:nonzero;fill:rgb(0%,0%,0%);fill-opacity:1;" d="M 261.925781 67.207031 C 260.960938 67.207031 260.289062 67.320312 259.914062 67.539062 C 259.539062 67.761719 259.355469 68.136719 259.355469 68.671875 C 259.355469 69.097656 259.496094 69.433594 259.773438 69.683594 C 260.054688 69.933594 260.4375 70.058594 260.917969 70.058594 C 261.582031 70.058594 262.117188 69.824219 262.515625 69.351562 C 262.917969 68.882812 263.117188 68.253906 263.117188 67.476562 L 263.117188 67.207031 Z M 264.316406 66.710938 L 264.316406 70.871094 L 263.117188 70.871094 L 263.117188 69.765625 C 262.84375 70.207031 262.503906 70.535156 262.097656 70.746094 C 261.6875 70.957031 261.1875 71.0625 260.597656 71.0625 C 259.851562 71.0625 259.257812 70.851562 258.816406 70.433594 C 258.375 70.015625 258.15625 69.453125 258.15625 68.75 C 258.15625 67.929688 258.429688 67.3125 258.980469 66.894531 C 259.527344 66.480469 260.347656 66.269531 261.4375 66.269531 L 263.117188 66.269531 L 263.117188 66.152344 C 263.117188 65.601562 262.9375 65.175781 262.574219 64.871094 C 262.210938 64.570312 261.703125 64.421875 261.046875 64.421875 C 260.632812 64.421875 260.226562 64.472656 259.828125 64.570312 C 259.433594 64.671875 259.054688 64.820312 258.691406 65.019531 L 258.691406 63.914062 C 259.128906 63.742188 259.554688 63.617188 259.964844 63.535156 C 260.378906 63.449219 260.78125 63.40625 261.171875 63.40625 C 262.226562 63.40625 263.015625 63.679688 263.535156 64.226562 C 264.054688 64.773438 264.316406 65.601562 264.316406 66.710938 Z M 264.316406 66.710938 "/>
<path style=" stroke:none;fill-rule:nonzero;fill:rgb(0%,0%,0%);fill-opacity:1;" d="M 272.03125 63.859375 L 272.03125 64.980469 C 271.691406 64.792969 271.351562 64.652344 271.011719 64.558594 C 270.671875 64.46875 270.328125 64.421875 269.980469 64.421875 C 269.203125 64.421875 268.597656 64.667969 268.167969 65.160156 C 267.738281 65.652344 267.523438 66.34375 267.523438 67.234375 C 267.523438 68.125 267.738281 68.816406 268.167969 69.308594 C 268.597656 69.800781 269.203125 70.046875 269.980469 70.046875 C 270.328125 70.046875 270.671875 70 271.011719 69.90625 C 271.351562 69.8125 271.691406 69.671875 272.03125 69.484375 L 272.03125 70.59375 C 271.695312 70.75 271.351562 70.867188 270.992188 70.945312 C 270.632812 71.023438 270.253906 71.0625 269.851562 71.0625 C 268.75 71.0625 267.878906 70.71875 267.230469 70.027344 C 266.585938 69.335938 266.261719 68.40625 266.261719 67.234375 C 266.261719 66.042969 266.589844 65.109375 267.242188 64.429688 C 267.894531 63.746094 268.792969 63.40625 269.929688 63.40625 C 270.296875 63.40625 270.65625 63.445312 271.007812 63.519531 C 271.359375 63.597656 271.699219 63.710938 272.03125 63.859375 Z M 272.03125 63.859375 "/>
<path style=" stroke:none;fill-rule:nonzero;fill:rgb(0%,0%,0%);fill-opacity:1;" d="M 279.363281 63.859375 L 279.363281 64.980469 C 279.023438 64.792969 278.683594 64.652344 278.34375 64.558594 C 278.003906 64.46875 277.660156 64.421875 277.3125 64.421875 C 276.535156 64.421875 275.929688 64.667969 275.5 65.160156 C 275.070312 65.652344 274.855469 66.34375 274.855469 67.234375 C 274.855469 68.125 275.070312 68.816406 275.5 69.308594 C 275.929688 69.800781 276.535156 70.046875 277.3125 70.046875 C 277.660156 70.046875 278.003906 70 278.34375 69.90625 C 278.683594 69.8125 279.023438 69.671875 279.363281 69.484375 L 279.363281 70.59375 C 279.027344 70.75 278.679688 70.867188 278.320312 70.945312 C 277.964844 71.023438 277.585938 71.0625 277.179688 71.0625 C 276.082031 71.0625 275.207031 70.71875 274.5625 70.027344 C 273.914062 69.335938 273.59375 68.40625 273.59375 67.234375 C 273.59375 66.042969 273.917969 65.109375 274.570312 64.429688 C 275.226562 63.746094 276.121094 63.40625 277.257812 63.40625 C 277.628906 63.40625 277.988281 63.445312 278.339844 63.519531 C 278.691406 63.597656 279.03125 63.710938 279.363281 63.859375 Z M 279.363281 63.859375 "/>
</g>
</svg>
