<?xml version="1.0" encoding="UTF-8"?>
<svg xmlns="http://www.w3.org/2000/svg" xmlns:xlink="http://www.w3.org/1999/xlink" width="525.547933" height="281.434998" viewBox="0 0 525.547933 281.434998" version="1.1">
<defs>
<clipPath id="clip1">
  <path d="M 87 9.601562 L 89 9.601562 L 89 231.359375 L 87 231.359375 Z M 87 9.601562 "/>
</clipPath>
<clipPath id="clip2">
  <path d="M 168 9.601562 L 171 9.601562 L 171 231.359375 L 168 231.359375 Z M 168 9.601562 "/>
</clipPath>
<clipPath id="clip3">
  <path d="M 250 9.601562 L 252 9.601562 L 252 231.359375 L 250 231.359375 Z M 250 9.601562 "/>
</clipPath>
<clipPath id="clip4">
  <path d="M 331 9.601562 L 334 9.601562 L 334 231.359375 L 331 231.359375 Z M 331 9.601562 "/>
</clipPath>
<clipPath id="clip5">
  <path d="M 413 9.601562 L 415 9.601562 L 415 231.359375 L 413 231.359375 Z M 413 9.601562 "/>
</clipPath>
<clipPath id="clip6">
  <path d="M 494 9.601562 L 497 9.601562 L 497 231.359375 L 494 231.359375 Z M 494 9.601562 "/>
</clipPath>
<clipPath id="clip7">
  <path d="M 69.546875 204 L 515.949219 204 L 515.949219 206 L 69.546875 206 Z M 69.546875 204 "/>
</clipPath>
<clipPath id="clip8">
  <path d="M 69.546875 163 L 515.949219 163 L 515.949219 165 L 69.546875 165 Z M 69.546875 163 "/>
</clipPath>
<clipPath id="clip9">
  <path d="M 69.546875 122 L 515.949219 122 L 515.949219 125 L 69.546875 125 Z M 69.546875 122 "/>
</clipPath>
<clipPath id="clip10">
  <path d="M 69.546875 81 L 515.949219 81 L 515.949219 84 L 69.546875 84 Z M 69.546875 81 "/>
</clipPath>
<clipPath id="clip11">
  <path d="M 69.546875 40 L 515.949219 40 L 515.949219 43 L 69.546875 43 Z M 69.546875 40 "/>
</clipPath>
<filter id="alpha" filterUnits="objectBoundingBox" x="0%" y="0%" width="100%" height="100%">
  <feColorMatrix type="matrix" in="SourceGraphic" values="0 0 0 0 1 0 0 0 0 1 0 0 0 0 1 0 0 0 1 0"/>
</filter>
<mask id="mask0">
  <g filter="url(#alpha)">
<rect x="0" y="0" width="525.547933" height="281.434998" style="fill:rgb(0%,0%,0%);fill-opacity:0.8;stroke:none;"/>
  </g>
</mask>
<clipPath id="clip12">
  <rect x="0" y="0" width="526" height="282"/>
</clipPath>
<g id="surface5" clip-path="url(#clip12)">
<path style="fill-rule:nonzero;fill:rgb(100%,100%,100%);fill-opacity:1;stroke-width:1;stroke-linecap:butt;stroke-linejoin:miter;stroke:rgb(80.000001%,80.000001%,80.000001%);stroke-opacity:1;stroke-miterlimit:4;" d="M 59.162109 168.518555 L 169.470703 168.518555 C 170.803711 168.518555 171.47168 167.853516 171.47168 166.520508 L 171.47168 138.164062 C 171.47168 136.831055 170.803711 136.163086 169.470703 136.163086 L 59.162109 136.163086 C 57.826172 136.163086 57.161133 136.831055 57.161133 138.164062 L 57.161133 166.520508 C 57.161133 167.853516 57.826172 168.518555 59.162109 168.518555 Z M 59.162109 168.518555 " transform="matrix(1.333333,0,0,1.333333,0.000000000000056843,0)"/>
</g>
</defs>
<g id="surface1">
<path style=" stroke:none;fill-rule:nonzero;fill:rgb(100%,100%,100%);fill-opacity:1;" d="M 0 281.433594 L 525.546875 281.433594 L 525.546875 0 L 0 0 Z M 0 281.433594 "/>
<path style=" stroke:none;fill-rule:nonzero;fill:rgb(100%,100%,100%);fill-opacity:1;" d="M 69.546875 231.359375 L 515.949219 231.359375 L 515.949219 9.601562 L 69.546875 9.601562 Z M 69.546875 231.359375 "/>
<g clip-path="url(#clip1)" clip-rule="nonzero">
<path style="fill:none;stroke-width:0.8;stroke-linecap:square;stroke-linejoin:round;stroke:rgb(69.01961%,69.01961%,69.01961%);stroke-opacity:1;stroke-miterlimit:4;" d="M 65.850586 173.519531 L 65.850586 7.201172 " transform="matrix(1.333333,0,0,1.333333,0.000000000000056843,0)"/>
</g>
<path style="fill:none;stroke-width:0.8;stroke-linecap:butt;stroke-linejoin:round;stroke:rgb(0%,0%,0%);stroke-opacity:1;stroke-miterlimit:4;" d="M 0.000930786 -0.000473022 L 0.000930786 3.500504 " transform="matrix(1.333333,0,0,1.333333,87.79954,231.360006)"/>
<path style=" stroke:none;fill-rule:nonzero;fill:rgb(0%,0%,0%);fill-opacity:1;" d="M 87.796875 241.96875 C 87.117188 241.96875 86.609375 242.304688 86.269531 242.96875 C 85.929688 243.636719 85.757812 244.636719 85.757812 245.972656 C 85.757812 247.304688 85.929688 248.304688 86.269531 248.972656 C 86.609375 249.640625 87.117188 249.972656 87.796875 249.972656 C 88.476562 249.972656 88.988281 249.640625 89.328125 248.972656 C 89.671875 248.304688 89.839844 247.304688 89.839844 245.972656 C 89.839844 244.636719 89.671875 243.636719 89.328125 242.96875 C 88.988281 242.304688 88.476562 241.96875 87.796875 241.96875 Z M 87.796875 240.929688 C 88.886719 240.929688 89.71875 241.359375 90.292969 242.222656 C 90.867188 243.082031 91.15625 244.335938 91.15625 245.972656 C 91.15625 247.609375 90.867188 248.859375 90.292969 249.722656 C 89.71875 250.582031 88.886719 251.015625 87.796875 251.015625 C 86.707031 251.015625 85.875 250.582031 85.300781 249.722656 C 84.722656 248.859375 84.4375 247.609375 84.4375 245.972656 C 84.4375 244.335938 84.722656 243.082031 85.300781 242.222656 C 85.875 241.359375 86.707031 240.929688 87.796875 240.929688 Z M 87.796875 240.929688 "/>
<g clip-path="url(#clip2)" clip-rule="nonzero">
<path style="fill:none;stroke-width:0.8;stroke-linecap:square;stroke-linejoin:round;stroke:rgb(69.01961%,69.01961%,69.01961%);stroke-opacity:1;stroke-miterlimit:4;" d="M 127.02832 173.519531 L 127.02832 7.201172 " transform="matrix(1.333333,0,0,1.333333,0.000000000000056843,0)"/>
</g>
<path style="fill:none;stroke-width:0.8;stroke-linecap:butt;stroke-linejoin:round;stroke:rgb(0%,0%,0%);stroke-opacity:1;stroke-miterlimit:4;" d="M 0.0000457764 -0.000473022 L 0.0000457764 3.500504 " transform="matrix(1.333333,0,0,1.333333,169.371033,231.360006)"/>
<path style=" stroke:none;fill-rule:nonzero;fill:rgb(0%,0%,0%);fill-opacity:1;" d="M 159.203125 249.71875 L 163.792969 249.71875 L 163.792969 250.824219 L 157.625 250.824219 L 157.625 249.71875 C 158.121094 249.203125 158.800781 248.507812 159.664062 247.640625 C 160.523438 246.769531 161.066406 246.207031 161.289062 245.953125 C 161.707031 245.480469 162.003906 245.082031 162.167969 244.753906 C 162.335938 244.425781 162.421875 244.105469 162.421875 243.785156 C 162.421875 243.269531 162.238281 242.847656 161.878906 242.523438 C 161.515625 242.199219 161.042969 242.035156 160.460938 242.035156 C 160.046875 242.035156 159.613281 242.105469 159.15625 242.25 C 158.699219 242.394531 158.207031 242.609375 157.6875 242.902344 L 157.6875 241.574219 C 158.21875 241.359375 158.710938 241.199219 159.171875 241.089844 C 159.632812 240.984375 160.054688 240.929688 160.4375 240.929688 C 161.441406 240.929688 162.246094 241.179688 162.84375 241.683594 C 163.441406 242.1875 163.742188 242.859375 163.742188 243.703125 C 163.742188 244.101562 163.667969 244.480469 163.515625 244.839844 C 163.367188 245.195312 163.097656 245.617188 162.699219 246.105469 C 162.59375 246.230469 162.246094 246.59375 161.664062 247.195312 C 161.085938 247.796875 160.265625 248.636719 159.203125 249.71875 Z M 159.203125 249.71875 "/>
<path style=" stroke:none;fill-rule:nonzero;fill:rgb(0%,0%,0%);fill-opacity:1;" d="M 169.367188 241.96875 C 168.691406 241.96875 168.179688 242.304688 167.839844 242.96875 C 167.5 243.636719 167.328125 244.636719 167.328125 245.972656 C 167.328125 247.304688 167.5 248.304688 167.839844 248.972656 C 168.179688 249.640625 168.691406 249.972656 169.367188 249.972656 C 170.046875 249.972656 170.558594 249.640625 170.898438 248.972656 C 171.242188 248.304688 171.414062 247.304688 171.414062 245.972656 C 171.414062 244.636719 171.242188 243.636719 170.898438 242.96875 C 170.558594 242.304688 170.046875 241.96875 169.367188 241.96875 Z M 169.367188 240.929688 C 170.457031 240.929688 171.289062 241.359375 171.863281 242.222656 C 172.441406 243.082031 172.726562 244.335938 172.726562 245.972656 C 172.726562 247.609375 172.441406 248.859375 171.863281 249.722656 C 171.289062 250.582031 170.457031 251.015625 169.367188 251.015625 C 168.277344 251.015625 167.445312 250.582031 166.871094 249.722656 C 166.296875 248.859375 166.007812 247.609375 166.007812 245.972656 C 166.007812 244.335938 166.296875 243.082031 166.871094 242.222656 C 167.445312 241.359375 168.277344 240.929688 169.367188 240.929688 Z M 169.367188 240.929688 "/>
<path style=" stroke:none;fill-rule:nonzero;fill:rgb(0%,0%,0%);fill-opacity:1;" d="M 177.851562 241.96875 C 177.171875 241.96875 176.664062 242.304688 176.324219 242.96875 C 175.980469 243.636719 175.8125 244.636719 175.8125 245.972656 C 175.8125 247.304688 175.980469 248.304688 176.324219 248.972656 C 176.664062 249.640625 177.171875 249.972656 177.851562 249.972656 C 178.53125 249.972656 179.042969 249.640625 179.382812 248.972656 C 179.726562 248.304688 179.894531 247.304688 179.894531 245.972656 C 179.894531 244.636719 179.726562 243.636719 179.382812 242.96875 C 179.042969 242.304688 178.53125 241.96875 177.851562 241.96875 Z M 177.851562 240.929688 C 178.941406 240.929688 179.773438 241.359375 180.347656 242.222656 C 180.921875 243.082031 181.210938 244.335938 181.210938 245.972656 C 181.210938 247.609375 180.921875 248.859375 180.347656 249.722656 C 179.773438 250.582031 178.941406 251.015625 177.851562 251.015625 C 176.761719 251.015625 175.929688 250.582031 175.355469 249.722656 C 174.777344 248.859375 174.492188 247.609375 174.492188 245.972656 C 174.492188 244.335938 174.777344 243.082031 175.355469 242.222656 C 175.929688 241.359375 176.761719 240.929688 177.851562 240.929688 Z M 177.851562 240.929688 "/>
<g clip-path="url(#clip3)" clip-rule="nonzero">
<path style="fill:none;stroke-width:0.8;stroke-linecap:square;stroke-linejoin:round;stroke:rgb(69.01961%,69.01961%,69.01961%);stroke-opacity:1;stroke-miterlimit:4;" d="M 188.206055 173.519531 L 188.206055 7.201172 " transform="matrix(1.333333,0,0,1.333333,0.000000000000056843,0)"/>
</g>
<path style="fill:none;stroke-width:0.8;stroke-linecap:butt;stroke-linejoin:round;stroke:rgb(0%,0%,0%);stroke-opacity:1;stroke-miterlimit:4;" d="M -0.000839233 -0.000473022 L -0.000839233 3.500504 " transform="matrix(1.333333,0,0,1.333333,250.942525,231.360006)"/>
<path style=" stroke:none;fill-rule:nonzero;fill:rgb(0%,0%,0%);fill-opacity:1;" d="M 243.257812 242.25 L 239.9375 247.4375 L 243.257812 247.4375 Z M 242.910156 241.105469 L 244.566406 241.105469 L 244.566406 247.4375 L 245.953125 247.4375 L 245.953125 248.53125 L 244.566406 248.53125 L 244.566406 250.824219 L 243.257812 250.824219 L 243.257812 248.53125 L 238.871094 248.53125 L 238.871094 247.265625 Z M 242.910156 241.105469 "/>
<path style=" stroke:none;fill-rule:nonzero;fill:rgb(0%,0%,0%);fill-opacity:1;" d="M 250.9375 241.96875 C 250.261719 241.96875 249.753906 242.304688 249.410156 242.96875 C 249.070312 243.636719 248.902344 244.636719 248.902344 245.972656 C 248.902344 247.304688 249.070312 248.304688 249.410156 248.972656 C 249.753906 249.640625 250.261719 249.972656 250.9375 249.972656 C 251.621094 249.972656 252.132812 249.640625 252.472656 248.972656 C 252.8125 248.304688 252.984375 247.304688 252.984375 245.972656 C 252.984375 244.636719 252.8125 243.636719 252.472656 242.96875 C 252.132812 242.304688 251.621094 241.96875 250.9375 241.96875 Z M 250.9375 240.929688 C 252.027344 240.929688 252.859375 241.359375 253.4375 242.222656 C 254.011719 243.082031 254.296875 244.335938 254.296875 245.972656 C 254.296875 247.609375 254.011719 248.859375 253.4375 249.722656 C 252.859375 250.582031 252.027344 251.015625 250.9375 251.015625 C 249.847656 251.015625 249.015625 250.582031 248.441406 249.722656 C 247.867188 248.859375 247.578125 247.609375 247.578125 245.972656 C 247.578125 244.335938 247.867188 243.082031 248.441406 242.222656 C 249.015625 241.359375 249.847656 240.929688 250.9375 240.929688 Z M 250.9375 240.929688 "/>
<path style=" stroke:none;fill-rule:nonzero;fill:rgb(0%,0%,0%);fill-opacity:1;" d="M 259.421875 241.96875 C 258.746094 241.96875 258.234375 242.304688 257.894531 242.96875 C 257.554688 243.636719 257.382812 244.636719 257.382812 245.972656 C 257.382812 247.304688 257.554688 248.304688 257.894531 248.972656 C 258.234375 249.640625 258.746094 249.972656 259.421875 249.972656 C 260.101562 249.972656 260.613281 249.640625 260.953125 248.972656 C 261.296875 248.304688 261.46875 247.304688 261.46875 245.972656 C 261.46875 244.636719 261.296875 243.636719 260.953125 242.96875 C 260.613281 242.304688 260.101562 241.96875 259.421875 241.96875 Z M 259.421875 240.929688 C 260.511719 240.929688 261.34375 241.359375 261.917969 242.222656 C 262.492188 243.082031 262.78125 244.335938 262.78125 245.972656 C 262.78125 247.609375 262.492188 248.859375 261.917969 249.722656 C 261.34375 250.582031 260.511719 251.015625 259.421875 251.015625 C 258.332031 251.015625 257.5 250.582031 256.925781 249.722656 C 256.351562 248.859375 256.0625 247.609375 256.0625 245.972656 C 256.0625 244.335938 256.351562 243.082031 256.925781 242.222656 C 257.5 241.359375 258.332031 240.929688 259.421875 240.929688 Z M 259.421875 240.929688 "/>
<g clip-path="url(#clip4)" clip-rule="nonzero">
<path style="fill:none;stroke-width:0.8;stroke-linecap:square;stroke-linejoin:round;stroke:rgb(69.01961%,69.01961%,69.01961%);stroke-opacity:1;stroke-miterlimit:4;" d="M 249.386719 173.519531 L 249.386719 7.201172 " transform="matrix(1.333333,0,0,1.333333,0.000000000000056843,0)"/>
</g>
<path style="fill:none;stroke-width:0.8;stroke-linecap:butt;stroke-linejoin:round;stroke:rgb(0%,0%,0%);stroke-opacity:1;stroke-miterlimit:4;" d="M 0.00120544 -0.000473022 L 0.00120544 3.500504 " transform="matrix(1.333333,0,0,1.333333,332.514018,231.360006)"/>
<path style=" stroke:none;fill-rule:nonzero;fill:rgb(0%,0%,0%);fill-opacity:1;" d="M 324.191406 245.441406 C 323.601562 245.441406 323.132812 245.644531 322.785156 246.046875 C 322.441406 246.449219 322.269531 247.003906 322.269531 247.707031 C 322.269531 248.40625 322.441406 248.957031 322.785156 249.363281 C 323.132812 249.769531 323.601562 249.972656 324.191406 249.972656 C 324.78125 249.972656 325.25 249.769531 325.59375 249.363281 C 325.9375 248.957031 326.109375 248.40625 326.109375 247.707031 C 326.109375 247.003906 325.9375 246.449219 325.59375 246.046875 C 325.25 245.644531 324.78125 245.441406 324.191406 245.441406 Z M 326.800781 241.316406 L 326.800781 242.515625 C 326.472656 242.359375 326.136719 242.242188 325.800781 242.160156 C 325.464844 242.078125 325.132812 242.035156 324.800781 242.035156 C 323.933594 242.035156 323.269531 242.328125 322.8125 242.914062 C 322.355469 243.5 322.09375 244.386719 322.027344 245.570312 C 322.285156 245.191406 322.605469 244.902344 322.992188 244.703125 C 323.378906 244.5 323.804688 244.398438 324.269531 244.398438 C 325.246094 244.398438 326.015625 244.695312 326.582031 245.289062 C 327.148438 245.878906 327.433594 246.6875 327.433594 247.707031 C 327.433594 248.703125 327.136719 249.503906 326.546875 250.109375 C 325.957031 250.710938 325.171875 251.015625 324.191406 251.015625 C 323.066406 251.015625 322.207031 250.582031 321.613281 249.722656 C 321.015625 248.859375 320.71875 247.609375 320.71875 245.972656 C 320.71875 244.4375 321.085938 243.214844 321.8125 242.300781 C 322.542969 241.386719 323.523438 240.929688 324.75 240.929688 C 325.078125 240.929688 325.414062 240.960938 325.75 241.027344 C 326.085938 241.09375 326.4375 241.1875 326.800781 241.316406 Z M 326.800781 241.316406 "/>
<path style=" stroke:none;fill-rule:nonzero;fill:rgb(0%,0%,0%);fill-opacity:1;" d="M 332.507812 241.96875 C 331.832031 241.96875 331.324219 242.304688 330.984375 242.96875 C 330.640625 243.636719 330.472656 244.636719 330.472656 245.972656 C 330.472656 247.304688 330.640625 248.304688 330.984375 248.972656 C 331.324219 249.640625 331.832031 249.972656 332.507812 249.972656 C 333.191406 249.972656 333.703125 249.640625 334.042969 248.972656 C 334.382812 248.304688 334.554688 247.304688 334.554688 245.972656 C 334.554688 244.636719 334.382812 243.636719 334.042969 242.96875 C 333.703125 242.304688 333.191406 241.96875 332.507812 241.96875 Z M 332.507812 240.929688 C 333.601562 240.929688 334.433594 241.359375 335.007812 242.222656 C 335.582031 243.082031 335.871094 244.335938 335.871094 245.972656 C 335.871094 247.609375 335.582031 248.859375 335.007812 249.722656 C 334.433594 250.582031 333.601562 251.015625 332.507812 251.015625 C 331.421875 251.015625 330.589844 250.582031 330.015625 249.722656 C 329.4375 248.859375 329.152344 247.609375 329.152344 245.972656 C 329.152344 244.335938 329.4375 243.082031 330.015625 242.222656 C 330.589844 241.359375 331.421875 240.929688 332.507812 240.929688 Z M 332.507812 240.929688 "/>
<path style=" stroke:none;fill-rule:nonzero;fill:rgb(0%,0%,0%);fill-opacity:1;" d="M 340.992188 241.96875 C 340.316406 241.96875 339.808594 242.304688 339.464844 242.96875 C 339.125 243.636719 338.957031 244.636719 338.957031 245.972656 C 338.957031 247.304688 339.125 248.304688 339.464844 248.972656 C 339.808594 249.640625 340.316406 249.972656 340.992188 249.972656 C 341.675781 249.972656 342.1875 249.640625 342.527344 248.972656 C 342.867188 248.304688 343.039062 247.304688 343.039062 245.972656 C 343.039062 244.636719 342.867188 243.636719 342.527344 242.96875 C 342.1875 242.304688 341.675781 241.96875 340.992188 241.96875 Z M 340.992188 240.929688 C 342.082031 240.929688 342.914062 241.359375 343.492188 242.222656 C 344.066406 243.082031 344.351562 244.335938 344.351562 245.972656 C 344.351562 247.609375 344.066406 248.859375 343.492188 249.722656 C 342.914062 250.582031 342.082031 251.015625 340.992188 251.015625 C 339.902344 251.015625 339.070312 250.582031 338.496094 249.722656 C 337.921875 248.859375 337.632812 247.609375 337.632812 245.972656 C 337.632812 244.335938 337.921875 243.082031 338.496094 242.222656 C 339.070312 241.359375 339.902344 240.929688 340.992188 240.929688 Z M 340.992188 240.929688 "/>
<g clip-path="url(#clip5)" clip-rule="nonzero">
<path style="fill:none;stroke-width:0.8;stroke-linecap:square;stroke-linejoin:round;stroke:rgb(69.01961%,69.01961%,69.01961%);stroke-opacity:1;stroke-miterlimit:4;" d="M 310.564453 173.519531 L 310.564453 7.201172 " transform="matrix(1.333333,0,0,1.333333,0.000000000000056843,0)"/>
</g>
<path style="fill:none;stroke-width:0.8;stroke-linecap:butt;stroke-linejoin:round;stroke:rgb(0%,0%,0%);stroke-opacity:1;stroke-miterlimit:4;" d="M 0.000305176 -0.000473022 L 0.000305176 3.500504 " transform="matrix(1.333333,0,0,1.333333,414.085531,231.360006)"/>
<path style=" stroke:none;fill-rule:nonzero;fill:rgb(0%,0%,0%);fill-opacity:1;" d="M 405.597656 246.207031 C 404.972656 246.207031 404.480469 246.375 404.121094 246.710938 C 403.765625 247.042969 403.585938 247.503906 403.585938 248.089844 C 403.585938 248.675781 403.765625 249.136719 404.121094 249.46875 C 404.480469 249.804688 404.972656 249.972656 405.597656 249.972656 C 406.222656 249.972656 406.714844 249.804688 407.074219 249.46875 C 407.4375 249.128906 407.617188 248.671875 407.617188 248.089844 C 407.617188 247.503906 407.4375 247.042969 407.078125 246.710938 C 406.722656 246.375 406.230469 246.207031 405.597656 246.207031 Z M 404.285156 245.648438 C 403.71875 245.511719 403.28125 245.25 402.964844 244.863281 C 402.652344 244.472656 402.492188 244.003906 402.492188 243.449219 C 402.492188 242.671875 402.769531 242.058594 403.324219 241.605469 C 403.878906 241.15625 404.636719 240.929688 405.597656 240.929688 C 406.566406 240.929688 407.324219 241.15625 407.878906 241.605469 C 408.429688 242.058594 408.703125 242.671875 408.703125 243.449219 C 408.703125 244.003906 408.546875 244.472656 408.230469 244.863281 C 407.917969 245.25 407.480469 245.511719 406.921875 245.648438 C 407.554688 245.796875 408.046875 246.085938 408.398438 246.515625 C 408.753906 246.945312 408.929688 247.46875 408.929688 248.089844 C 408.929688 249.03125 408.644531 249.753906 408.070312 250.261719 C 407.492188 250.761719 406.671875 251.015625 405.597656 251.015625 C 404.527344 251.015625 403.703125 250.761719 403.128906 250.261719 C 402.550781 249.753906 402.265625 249.03125 402.265625 248.089844 C 402.265625 247.46875 402.441406 246.945312 402.796875 246.515625 C 403.15625 246.085938 403.648438 245.796875 404.285156 245.648438 Z M 403.800781 243.574219 C 403.800781 244.074219 403.960938 244.46875 404.273438 244.75 C 404.589844 245.03125 405.03125 245.171875 405.597656 245.171875 C 406.164062 245.171875 406.605469 245.03125 406.921875 244.75 C 407.242188 244.46875 407.402344 244.074219 407.402344 243.574219 C 407.402344 243.066406 407.242188 242.675781 406.921875 242.394531 C 406.605469 242.113281 406.164062 241.96875 405.597656 241.96875 C 405.03125 241.96875 404.589844 242.113281 404.273438 242.394531 C 403.960938 242.675781 403.800781 243.066406 403.800781 243.574219 Z M 403.800781 243.574219 "/>
<path style=" stroke:none;fill-rule:nonzero;fill:rgb(0%,0%,0%);fill-opacity:1;" d="M 414.082031 241.96875 C 413.40625 241.96875 412.894531 242.304688 412.554688 242.96875 C 412.214844 243.636719 412.042969 244.636719 412.042969 245.972656 C 412.042969 247.304688 412.214844 248.304688 412.554688 248.972656 C 412.894531 249.640625 413.40625 249.972656 414.082031 249.972656 C 414.761719 249.972656 415.273438 249.640625 415.613281 248.972656 C 415.957031 248.304688 416.125 247.304688 416.125 245.972656 C 416.125 244.636719 415.957031 243.636719 415.613281 242.96875 C 415.273438 242.304688 414.761719 241.96875 414.082031 241.96875 Z M 414.082031 240.929688 C 415.171875 240.929688 416.003906 241.359375 416.578125 242.222656 C 417.152344 243.082031 417.441406 244.335938 417.441406 245.972656 C 417.441406 247.609375 417.152344 248.859375 416.578125 249.722656 C 416.003906 250.582031 415.171875 251.015625 414.082031 251.015625 C 412.992188 251.015625 412.160156 250.582031 411.585938 249.722656 C 411.011719 248.859375 410.722656 247.609375 410.722656 245.972656 C 410.722656 244.335938 411.011719 243.082031 411.585938 242.222656 C 412.160156 241.359375 412.992188 240.929688 414.082031 240.929688 Z M 414.082031 240.929688 "/>
<path style=" stroke:none;fill-rule:nonzero;fill:rgb(0%,0%,0%);fill-opacity:1;" d="M 422.5625 241.96875 C 421.886719 241.96875 421.378906 242.304688 421.035156 242.96875 C 420.695312 243.636719 420.527344 244.636719 420.527344 245.972656 C 420.527344 247.304688 420.695312 248.304688 421.035156 248.972656 C 421.378906 249.640625 421.886719 249.972656 422.5625 249.972656 C 423.246094 249.972656 423.757812 249.640625 424.097656 248.972656 C 424.4375 248.304688 424.609375 247.304688 424.609375 245.972656 C 424.609375 244.636719 424.4375 243.636719 424.097656 242.96875 C 423.757812 242.304688 423.246094 241.96875 422.5625 241.96875 Z M 422.5625 240.929688 C 423.65625 240.929688 424.488281 241.359375 425.0625 242.222656 C 425.636719 243.082031 425.925781 244.335938 425.925781 245.972656 C 425.925781 247.609375 425.636719 248.859375 425.0625 249.722656 C 424.488281 250.582031 423.65625 251.015625 422.5625 251.015625 C 421.476562 251.015625 420.644531 250.582031 420.066406 249.722656 C 419.492188 248.859375 419.207031 247.609375 419.207031 245.972656 C 419.207031 244.335938 419.492188 243.082031 420.066406 242.222656 C 420.644531 241.359375 421.476562 240.929688 422.5625 240.929688 Z M 422.5625 240.929688 "/>
<g clip-path="url(#clip6)" clip-rule="nonzero">
<path style="fill:none;stroke-width:0.8;stroke-linecap:square;stroke-linejoin:round;stroke:rgb(69.01961%,69.01961%,69.01961%);stroke-opacity:1;stroke-miterlimit:4;" d="M 371.742188 173.519531 L 371.742188 7.201172 " transform="matrix(1.333333,0,0,1.333333,0.000000000000056843,0)"/>
</g>
<path style="fill:none;stroke-width:0.8;stroke-linecap:butt;stroke-linejoin:round;stroke:rgb(0%,0%,0%);stroke-opacity:1;stroke-miterlimit:4;" d="M -0.000579834 -0.000473022 L -0.000579834 3.500504 " transform="matrix(1.333333,0,0,1.333333,495.657023,231.360006)"/>
<path style=" stroke:none;fill-rule:nonzero;fill:rgb(0%,0%,0%);fill-opacity:1;" d="M 480.34375 249.71875 L 482.492188 249.71875 L 482.492188 242.300781 L 480.15625 242.769531 L 480.15625 241.574219 L 482.480469 241.105469 L 483.792969 241.105469 L 483.792969 249.71875 L 485.941406 249.71875 L 485.941406 250.824219 L 480.34375 250.824219 Z M 480.34375 249.71875 "/>
<path style=" stroke:none;fill-rule:nonzero;fill:rgb(0%,0%,0%);fill-opacity:1;" d="M 491.410156 241.96875 C 490.734375 241.96875 490.226562 242.304688 489.882812 242.96875 C 489.542969 243.636719 489.375 244.636719 489.375 245.972656 C 489.375 247.304688 489.542969 248.304688 489.882812 248.972656 C 490.226562 249.640625 490.734375 249.972656 491.410156 249.972656 C 492.09375 249.972656 492.605469 249.640625 492.945312 248.972656 C 493.285156 248.304688 493.457031 247.304688 493.457031 245.972656 C 493.457031 244.636719 493.285156 243.636719 492.945312 242.96875 C 492.605469 242.304688 492.09375 241.96875 491.410156 241.96875 Z M 491.410156 240.929688 C 492.5 240.929688 493.332031 241.359375 493.910156 242.222656 C 494.484375 243.082031 494.769531 244.335938 494.769531 245.972656 C 494.769531 247.609375 494.484375 248.859375 493.910156 249.722656 C 493.332031 250.582031 492.5 251.015625 491.410156 251.015625 C 490.320312 251.015625 489.488281 250.582031 488.914062 249.722656 C 488.339844 248.859375 488.050781 247.609375 488.050781 245.972656 C 488.050781 244.335938 488.339844 243.082031 488.914062 242.222656 C 489.488281 241.359375 490.320312 240.929688 491.410156 240.929688 Z M 491.410156 240.929688 "/>
<path style=" stroke:none;fill-rule:nonzero;fill:rgb(0%,0%,0%);fill-opacity:1;" d="M 499.894531 241.96875 C 499.21875 241.96875 498.707031 242.304688 498.367188 242.96875 C 498.027344 243.636719 497.855469 244.636719 497.855469 245.972656 C 497.855469 247.304688 498.027344 248.304688 498.367188 248.972656 C 498.707031 249.640625 499.21875 249.972656 499.894531 249.972656 C 500.574219 249.972656 501.085938 249.640625 501.425781 248.972656 C 501.769531 248.304688 501.941406 247.304688 501.941406 245.972656 C 501.941406 244.636719 501.769531 243.636719 501.425781 242.96875 C 501.085938 242.304688 500.574219 241.96875 499.894531 241.96875 Z M 499.894531 240.929688 C 500.984375 240.929688 501.816406 241.359375 502.390625 242.222656 C 502.96875 243.082031 503.253906 244.335938 503.253906 245.972656 C 503.253906 247.609375 502.96875 248.859375 502.390625 249.722656 C 501.816406 250.582031 500.984375 251.015625 499.894531 251.015625 C 498.804688 251.015625 497.972656 250.582031 497.398438 249.722656 C 496.824219 248.859375 496.535156 247.609375 496.535156 245.972656 C 496.535156 244.335938 496.824219 243.082031 497.398438 242.222656 C 497.972656 241.359375 498.804688 240.929688 499.894531 240.929688 Z M 499.894531 240.929688 "/>
<path style=" stroke:none;fill-rule:nonzero;fill:rgb(0%,0%,0%);fill-opacity:1;" d="M 508.378906 241.96875 C 507.699219 241.96875 507.191406 242.304688 506.851562 242.96875 C 506.507812 243.636719 506.339844 244.636719 506.339844 245.972656 C 506.339844 247.304688 506.507812 248.304688 506.851562 248.972656 C 507.191406 249.640625 507.699219 249.972656 508.378906 249.972656 C 509.058594 249.972656 509.570312 249.640625 509.910156 248.972656 C 510.253906 248.304688 510.421875 247.304688 510.421875 245.972656 C 510.421875 244.636719 510.253906 243.636719 509.910156 242.96875 C 509.570312 242.304688 509.058594 241.96875 508.378906 241.96875 Z M 508.378906 240.929688 C 509.46875 240.929688 510.300781 241.359375 510.875 242.222656 C 511.449219 243.082031 511.738281 244.335938 511.738281 245.972656 C 511.738281 247.609375 511.449219 248.859375 510.875 249.722656 C 510.300781 250.582031 509.46875 251.015625 508.378906 251.015625 C 507.289062 251.015625 506.457031 250.582031 505.882812 249.722656 C 505.304688 248.859375 505.019531 247.609375 505.019531 245.972656 C 505.019531 244.335938 505.304688 243.082031 505.882812 242.222656 C 506.457031 241.359375 507.289062 240.929688 508.378906 240.929688 Z M 508.378906 240.929688 "/>
<path style=" stroke:none;fill-rule:nonzero;fill:rgb(0%,0%,0%);fill-opacity:1;" d="M 280.128906 259.699219 L 280.128906 261.769531 L 282.59375 261.769531 L 282.59375 262.703125 L 280.128906 262.703125 L 280.128906 266.660156 C 280.128906 267.253906 280.210938 267.636719 280.371094 267.804688 C 280.535156 267.976562 280.867188 268.058594 281.367188 268.058594 L 282.59375 268.058594 L 282.59375 269.0625 L 281.367188 269.0625 C 280.441406 269.0625 279.800781 268.890625 279.449219 268.546875 C 279.101562 268.199219 278.925781 267.570312 278.925781 266.660156 L 278.925781 262.703125 L 278.042969 262.703125 L 278.042969 261.769531 L 278.925781 261.769531 L 278.925781 259.699219 Z M 280.128906 259.699219 "/>
<path style=" stroke:none;fill-rule:nonzero;fill:rgb(0%,0%,0%);fill-opacity:1;" d="M 284.171875 261.769531 L 285.367188 261.769531 L 285.367188 269.0625 L 284.171875 269.0625 Z M 284.171875 258.929688 L 285.367188 258.929688 L 285.367188 260.449219 L 284.171875 260.449219 Z M 284.171875 258.929688 "/>
<path style=" stroke:none;fill-rule:nonzero;fill:rgb(0%,0%,0%);fill-opacity:1;" d="M 293.550781 263.171875 C 293.851562 262.632812 294.210938 262.234375 294.628906 261.980469 C 295.042969 261.722656 295.535156 261.59375 296.097656 261.59375 C 296.859375 261.59375 297.445312 261.863281 297.855469 262.394531 C 298.269531 262.925781 298.476562 263.679688 298.476562 264.660156 L 298.476562 269.0625 L 297.269531 269.0625 L 297.269531 264.699219 C 297.269531 264 297.148438 263.484375 296.898438 263.144531 C 296.652344 262.804688 296.273438 262.636719 295.765625 262.636719 C 295.144531 262.636719 294.65625 262.84375 294.292969 263.253906 C 293.933594 263.667969 293.753906 264.230469 293.753906 264.941406 L 293.753906 269.0625 L 292.550781 269.0625 L 292.550781 264.699219 C 292.550781 263.996094 292.425781 263.476562 292.179688 263.140625 C 291.933594 262.804688 291.550781 262.636719 291.035156 262.636719 C 290.421875 262.636719 289.933594 262.84375 289.574219 263.257812 C 289.214844 263.671875 289.035156 264.234375 289.035156 264.941406 L 289.035156 269.0625 L 287.828125 269.0625 L 287.828125 261.769531 L 289.035156 261.769531 L 289.035156 262.902344 C 289.308594 262.457031 289.632812 262.125 290.015625 261.914062 C 290.398438 261.703125 290.851562 261.59375 291.378906 261.59375 C 291.90625 261.59375 292.359375 261.730469 292.730469 262 C 293.101562 262.269531 293.375 262.65625 293.550781 263.171875 Z M 293.550781 263.171875 "/>
<path style=" stroke:none;fill-rule:nonzero;fill:rgb(0%,0%,0%);fill-opacity:1;" d="M 307.101562 265.117188 L 307.101562 265.703125 L 301.59375 265.703125 C 301.644531 266.527344 301.894531 267.15625 302.339844 267.585938 C 302.78125 268.019531 303.402344 268.234375 304.195312 268.234375 C 304.65625 268.234375 305.101562 268.179688 305.535156 268.066406 C 305.964844 267.953125 306.394531 267.785156 306.820312 267.558594 L 306.820312 268.691406 C 306.390625 268.875 305.949219 269.011719 305.5 269.109375 C 305.046875 269.203125 304.589844 269.25 304.125 269.25 C 302.960938 269.25 302.039062 268.914062 301.359375 268.238281 C 300.683594 267.558594 300.34375 266.644531 300.34375 265.488281 C 300.34375 264.292969 300.664062 263.347656 301.308594 262.648438 C 301.953125 261.945312 302.824219 261.59375 303.917969 261.59375 C 304.898438 261.59375 305.671875 261.910156 306.246094 262.542969 C 306.816406 263.175781 307.101562 264.03125 307.101562 265.117188 Z M 305.902344 264.765625 C 305.894531 264.109375 305.710938 263.585938 305.351562 263.199219 C 304.996094 262.804688 304.519531 262.609375 303.929688 262.609375 C 303.261719 262.609375 302.726562 262.800781 302.324219 263.175781 C 301.925781 263.554688 301.691406 264.085938 301.632812 264.773438 Z M 305.902344 264.765625 "/>
<g clip-path="url(#clip7)" clip-rule="nonzero">
<path style="fill:none;stroke-width:0.8;stroke-linecap:square;stroke-linejoin:round;stroke:rgb(69.01961%,69.01961%,69.01961%);stroke-opacity:1;stroke-miterlimit:4;" d="M 52.160156 153.65625 L 386.961914 153.65625 " transform="matrix(1.333333,0,0,1.333333,0.000000000000056843,0)"/>
</g>
<path style="fill:none;stroke-width:0.8;stroke-linecap:butt;stroke-linejoin:round;stroke:rgb(0%,0%,0%);stroke-opacity:1;stroke-miterlimit:4;" d="M -0.000782013 -0.00125122 L -3.498829 -0.00125122 " transform="matrix(1.333333,0,0,1.333333,69.547918,204.876668)"/>
<path style=" stroke:none;fill-rule:nonzero;fill:rgb(0%,0%,0%);fill-opacity:1;" d="M 29.25 205.207031 L 37.597656 205.207031 L 37.597656 206.316406 L 29.25 206.316406 Z M 29.25 205.207031 "/>
<path style=" stroke:none;fill-rule:nonzero;fill:rgb(0%,0%,0%);fill-opacity:1;" d="M 40.664062 208.835938 L 42.8125 208.835938 L 42.8125 201.417969 L 40.472656 201.886719 L 40.472656 200.691406 L 42.800781 200.222656 L 44.113281 200.222656 L 44.113281 208.835938 L 46.261719 208.835938 L 46.261719 209.941406 L 40.664062 209.941406 Z M 40.664062 208.835938 "/>
<path style=" stroke:none;fill-rule:nonzero;fill:rgb(0%,0%,0%);fill-opacity:1;" d="M 48.917969 208.289062 L 50.292969 208.289062 L 50.292969 209.941406 L 48.917969 209.941406 Z M 48.917969 208.289062 "/>
<path style=" stroke:none;fill-rule:nonzero;fill:rgb(0%,0%,0%);fill-opacity:1;" d="M 55.96875 201.089844 C 55.292969 201.089844 54.78125 201.421875 54.441406 202.089844 C 54.101562 202.753906 53.929688 203.753906 53.929688 205.09375 C 53.929688 206.425781 54.101562 207.421875 54.441406 208.089844 C 54.78125 208.757812 55.292969 209.089844 55.96875 209.089844 C 56.648438 209.089844 57.160156 208.757812 57.5 208.089844 C 57.84375 207.421875 58.015625 206.425781 58.015625 205.09375 C 58.015625 203.753906 57.84375 202.753906 57.5 202.089844 C 57.160156 201.421875 56.648438 201.089844 55.96875 201.089844 Z M 55.96875 200.046875 C 57.058594 200.046875 57.890625 200.476562 58.464844 201.339844 C 59.042969 202.203125 59.328125 203.453125 59.328125 205.09375 C 59.328125 206.726562 59.042969 207.976562 58.464844 208.839844 C 57.890625 209.703125 57.058594 210.132812 55.96875 210.132812 C 54.878906 210.132812 54.046875 209.703125 53.472656 208.839844 C 52.898438 207.976562 52.609375 206.726562 52.609375 205.09375 C 52.609375 203.453125 52.898438 202.203125 53.472656 201.339844 C 54.046875 200.476562 54.878906 200.046875 55.96875 200.046875 Z M 55.96875 200.046875 "/>
<g clip-path="url(#clip8)" clip-rule="nonzero">
<path style="fill:none;stroke-width:0.8;stroke-linecap:square;stroke-linejoin:round;stroke:rgb(69.01961%,69.01961%,69.01961%);stroke-opacity:1;stroke-miterlimit:4;" d="M 52.160156 123.049805 L 386.961914 123.049805 " transform="matrix(1.333333,0,0,1.333333,0.000000000000056843,0)"/>
</g>
<path style="fill:none;stroke-width:0.8;stroke-linecap:butt;stroke-linejoin:round;stroke:rgb(0%,0%,0%);stroke-opacity:1;stroke-miterlimit:4;" d="M -0.000782013 0.00038147 L -3.498829 0.00038147 " transform="matrix(1.333333,0,0,1.333333,69.547918,164.065898)"/>
<path style=" stroke:none;fill-rule:nonzero;fill:rgb(0%,0%,0%);fill-opacity:1;" d="M 29.25 164.398438 L 37.597656 164.398438 L 37.597656 165.503906 L 29.25 165.503906 Z M 29.25 164.398438 "/>
<path style=" stroke:none;fill-rule:nonzero;fill:rgb(0%,0%,0%);fill-opacity:1;" d="M 43.246094 160.277344 C 42.570312 160.277344 42.0625 160.609375 41.71875 161.277344 C 41.378906 161.941406 41.210938 162.945312 41.210938 164.28125 C 41.210938 165.613281 41.378906 166.613281 41.71875 167.28125 C 42.0625 167.945312 42.570312 168.28125 43.246094 168.28125 C 43.929688 168.28125 44.441406 167.945312 44.78125 167.28125 C 45.121094 166.613281 45.292969 165.613281 45.292969 164.28125 C 45.292969 162.945312 45.121094 161.941406 44.78125 161.277344 C 44.441406 160.609375 43.929688 160.277344 43.246094 160.277344 Z M 43.246094 159.234375 C 44.335938 159.234375 45.167969 159.667969 45.746094 160.53125 C 46.320312 161.390625 46.605469 162.640625 46.605469 164.28125 C 46.605469 165.917969 46.320312 167.167969 45.746094 168.03125 C 45.167969 168.890625 44.335938 169.320312 43.246094 169.320312 C 42.15625 169.320312 41.324219 168.890625 40.75 168.03125 C 40.175781 167.167969 39.886719 165.917969 39.886719 164.28125 C 39.886719 162.640625 40.175781 161.390625 40.75 160.53125 C 41.324219 159.667969 42.15625 159.234375 43.246094 159.234375 Z M 43.246094 159.234375 "/>
<path style=" stroke:none;fill-rule:nonzero;fill:rgb(0%,0%,0%);fill-opacity:1;" d="M 48.917969 167.476562 L 50.292969 167.476562 L 50.292969 169.132812 L 48.917969 169.132812 Z M 48.917969 167.476562 "/>
<path style=" stroke:none;fill-rule:nonzero;fill:rgb(0%,0%,0%);fill-opacity:1;" d="M 53.171875 159.410156 L 58.332031 159.410156 L 58.332031 160.519531 L 54.375 160.519531 L 54.375 162.898438 C 54.566406 162.835938 54.753906 162.785156 54.945312 162.753906 C 55.136719 162.722656 55.328125 162.707031 55.519531 162.707031 C 56.605469 162.707031 57.464844 163.003906 58.097656 163.597656 C 58.730469 164.191406 59.050781 164.996094 59.050781 166.011719 C 59.050781 167.058594 58.722656 167.871094 58.074219 168.453125 C 57.421875 169.03125 56.503906 169.320312 55.316406 169.320312 C 54.910156 169.320312 54.492188 169.285156 54.070312 169.21875 C 53.648438 169.148438 53.210938 169.042969 52.761719 168.90625 L 52.761719 167.582031 C 53.148438 167.792969 53.554688 167.953125 53.96875 168.054688 C 54.386719 168.160156 54.828125 168.210938 55.292969 168.210938 C 56.042969 168.210938 56.636719 168.015625 57.074219 167.621094 C 57.511719 167.226562 57.734375 166.691406 57.734375 166.011719 C 57.734375 165.335938 57.511719 164.800781 57.074219 164.40625 C 56.636719 164.011719 56.042969 163.8125 55.292969 163.8125 C 54.941406 163.8125 54.589844 163.851562 54.238281 163.929688 C 53.890625 164.007812 53.535156 164.128906 53.171875 164.292969 Z M 53.171875 159.410156 "/>
<g clip-path="url(#clip9)" clip-rule="nonzero">
<path style="fill:none;stroke-width:0.8;stroke-linecap:square;stroke-linejoin:round;stroke:rgb(69.01961%,69.01961%,69.01961%);stroke-opacity:1;stroke-miterlimit:4;" d="M 52.160156 92.44043 L 386.961914 92.44043 " transform="matrix(1.333333,0,0,1.333333,0.000000000000056843,0)"/>
</g>
<path style="fill:none;stroke-width:0.8;stroke-linecap:butt;stroke-linejoin:round;stroke:rgb(0%,0%,0%);stroke-opacity:1;stroke-miterlimit:4;" d="M -0.000782013 -0.000915527 L -3.498829 -0.000915527 " transform="matrix(1.333333,0,0,1.333333,69.547918,123.255127)"/>
<path style=" stroke:none;fill-rule:nonzero;fill:rgb(0%,0%,0%);fill-opacity:1;" d="M 43.246094 119.464844 C 42.570312 119.464844 42.0625 119.800781 41.722656 120.464844 C 41.378906 121.132812 41.210938 122.132812 41.210938 123.472656 C 41.210938 124.800781 41.378906 125.800781 41.722656 126.46875 C 42.0625 127.136719 42.570312 127.46875 43.246094 127.46875 C 43.929688 127.46875 44.441406 127.136719 44.78125 126.46875 C 45.121094 125.800781 45.292969 124.800781 45.292969 123.472656 C 45.292969 122.132812 45.121094 121.132812 44.78125 120.464844 C 44.441406 119.800781 43.929688 119.464844 43.246094 119.464844 Z M 43.246094 118.425781 C 44.339844 118.425781 45.171875 118.855469 45.746094 119.71875 C 46.320312 120.578125 46.609375 121.832031 46.609375 123.472656 C 46.609375 125.105469 46.320312 126.355469 45.746094 127.21875 C 45.171875 128.078125 44.339844 128.511719 43.246094 128.511719 C 42.160156 128.511719 41.328125 128.078125 40.753906 127.21875 C 40.175781 126.355469 39.890625 125.105469 39.890625 123.472656 C 39.890625 121.832031 40.175781 120.578125 40.753906 119.71875 C 41.328125 118.855469 42.160156 118.425781 43.246094 118.425781 Z M 43.246094 118.425781 "/>
<path style=" stroke:none;fill-rule:nonzero;fill:rgb(0%,0%,0%);fill-opacity:1;" d="M 48.917969 126.667969 L 50.292969 126.667969 L 50.292969 128.320312 L 48.917969 128.320312 Z M 48.917969 126.667969 "/>
<path style=" stroke:none;fill-rule:nonzero;fill:rgb(0%,0%,0%);fill-opacity:1;" d="M 55.96875 119.464844 C 55.292969 119.464844 54.785156 119.800781 54.441406 120.464844 C 54.101562 121.132812 53.933594 122.132812 53.933594 123.472656 C 53.933594 124.800781 54.101562 125.800781 54.441406 126.46875 C 54.785156 127.136719 55.292969 127.46875 55.96875 127.46875 C 56.652344 127.46875 57.164062 127.136719 57.503906 126.46875 C 57.84375 125.800781 58.015625 124.800781 58.015625 123.472656 C 58.015625 122.132812 57.84375 121.132812 57.503906 120.464844 C 57.164062 119.800781 56.652344 119.464844 55.96875 119.464844 Z M 55.96875 118.425781 C 57.058594 118.425781 57.890625 118.855469 58.46875 119.71875 C 59.042969 120.578125 59.328125 121.832031 59.328125 123.472656 C 59.328125 125.105469 59.042969 126.355469 58.46875 127.21875 C 57.890625 128.078125 57.058594 128.511719 55.96875 128.511719 C 54.878906 128.511719 54.046875 128.078125 53.472656 127.21875 C 52.898438 126.355469 52.609375 125.105469 52.609375 123.472656 C 52.609375 121.832031 52.898438 120.578125 53.472656 119.71875 C 54.046875 118.855469 54.878906 118.425781 55.96875 118.425781 Z M 55.96875 118.425781 "/>
<g clip-path="url(#clip10)" clip-rule="nonzero">
<path style="fill:none;stroke-width:0.8;stroke-linecap:square;stroke-linejoin:round;stroke:rgb(69.01961%,69.01961%,69.01961%);stroke-opacity:1;stroke-miterlimit:4;" d="M 52.160156 61.833984 L 386.961914 61.833984 " transform="matrix(1.333333,0,0,1.333333,0.000000000000056843,0)"/>
</g>
<path style="fill:none;stroke-width:0.8;stroke-linecap:butt;stroke-linejoin:round;stroke:rgb(0%,0%,0%);stroke-opacity:1;stroke-miterlimit:4;" d="M -0.000782013 0.000709534 L -3.498829 0.000709534 " transform="matrix(1.333333,0,0,1.333333,69.547918,82.444366)"/>
<path style=" stroke:none;fill-rule:nonzero;fill:rgb(0%,0%,0%);fill-opacity:1;" d="M 43.246094 78.65625 C 42.570312 78.65625 42.0625 78.988281 41.722656 79.65625 C 41.378906 80.320312 41.210938 81.324219 41.210938 82.660156 C 41.210938 83.992188 41.378906 84.992188 41.722656 85.65625 C 42.0625 86.324219 42.570312 86.65625 43.246094 86.65625 C 43.929688 86.65625 44.441406 86.324219 44.78125 85.65625 C 45.121094 84.992188 45.292969 83.992188 45.292969 82.660156 C 45.292969 81.324219 45.121094 80.320312 44.78125 79.65625 C 44.441406 78.988281 43.929688 78.65625 43.246094 78.65625 Z M 43.246094 77.613281 C 44.339844 77.613281 45.171875 78.046875 45.746094 78.90625 C 46.320312 79.769531 46.609375 81.019531 46.609375 82.660156 C 46.609375 84.296875 46.320312 85.546875 45.746094 86.40625 C 45.171875 87.269531 44.339844 87.699219 43.246094 87.699219 C 42.160156 87.699219 41.328125 87.269531 40.753906 86.40625 C 40.175781 85.546875 39.890625 84.296875 39.890625 82.660156 C 39.890625 81.019531 40.175781 79.769531 40.753906 78.90625 C 41.328125 78.046875 42.160156 77.613281 43.246094 77.613281 Z M 43.246094 77.613281 "/>
<path style=" stroke:none;fill-rule:nonzero;fill:rgb(0%,0%,0%);fill-opacity:1;" d="M 48.917969 85.855469 L 50.292969 85.855469 L 50.292969 87.511719 L 48.917969 87.511719 Z M 48.917969 85.855469 "/>
<path style=" stroke:none;fill-rule:nonzero;fill:rgb(0%,0%,0%);fill-opacity:1;" d="M 53.171875 77.789062 L 58.332031 77.789062 L 58.332031 78.898438 L 54.375 78.898438 L 54.375 81.277344 C 54.566406 81.214844 54.757812 81.164062 54.945312 81.132812 C 55.136719 81.101562 55.328125 81.085938 55.519531 81.085938 C 56.605469 81.085938 57.464844 81.382812 58.097656 81.976562 C 58.734375 82.570312 59.050781 83.375 59.050781 84.390625 C 59.050781 85.4375 58.726562 86.25 58.074219 86.832031 C 57.421875 87.410156 56.503906 87.699219 55.320312 87.699219 C 54.910156 87.699219 54.496094 87.664062 54.070312 87.59375 C 53.648438 87.527344 53.210938 87.421875 52.761719 87.28125 L 52.761719 85.960938 C 53.152344 86.171875 53.554688 86.332031 53.972656 86.433594 C 54.386719 86.539062 54.828125 86.589844 55.292969 86.589844 C 56.042969 86.589844 56.636719 86.394531 57.074219 86 C 57.515625 85.605469 57.734375 85.070312 57.734375 84.390625 C 57.734375 83.714844 57.515625 83.179688 57.074219 82.785156 C 56.636719 82.390625 56.042969 82.191406 55.292969 82.191406 C 54.941406 82.191406 54.589844 82.230469 54.238281 82.308594 C 53.890625 82.386719 53.535156 82.507812 53.171875 82.671875 Z M 53.171875 77.789062 "/>
<g clip-path="url(#clip11)" clip-rule="nonzero">
<path style="fill:none;stroke-width:0.8;stroke-linecap:square;stroke-linejoin:round;stroke:rgb(69.01961%,69.01961%,69.01961%);stroke-opacity:1;stroke-miterlimit:4;" d="M 52.160156 31.224609 L 386.961914 31.224609 " transform="matrix(1.333333,0,0,1.333333,0.000000000000056843,0)"/>
</g>
<path style="fill:none;stroke-width:0.8;stroke-linecap:butt;stroke-linejoin:round;stroke:rgb(0%,0%,0%);stroke-opacity:1;stroke-miterlimit:4;" d="M -0.000782013 -0.000589371 L -3.498829 -0.000589371 " transform="matrix(1.333333,0,0,1.333333,69.547918,41.633598)"/>
<path style=" stroke:none;fill-rule:nonzero;fill:rgb(0%,0%,0%);fill-opacity:1;" d="M 40.664062 45.59375 L 42.8125 45.59375 L 42.8125 38.175781 L 40.476562 38.644531 L 40.476562 37.445312 L 42.800781 36.976562 L 44.113281 36.976562 L 44.113281 45.59375 L 46.261719 45.59375 L 46.261719 46.699219 L 40.664062 46.699219 Z M 40.664062 45.59375 "/>
<path style=" stroke:none;fill-rule:nonzero;fill:rgb(0%,0%,0%);fill-opacity:1;" d="M 48.917969 45.046875 L 50.292969 45.046875 L 50.292969 46.699219 L 48.917969 46.699219 Z M 48.917969 45.046875 "/>
<path style=" stroke:none;fill-rule:nonzero;fill:rgb(0%,0%,0%);fill-opacity:1;" d="M 55.96875 37.84375 C 55.292969 37.84375 54.785156 38.179688 54.441406 38.84375 C 54.101562 39.511719 53.933594 40.511719 53.933594 41.847656 C 53.933594 43.179688 54.101562 44.179688 54.441406 44.847656 C 54.785156 45.515625 55.292969 45.847656 55.96875 45.847656 C 56.652344 45.847656 57.164062 45.515625 57.503906 44.847656 C 57.84375 44.179688 58.015625 43.179688 58.015625 41.847656 C 58.015625 40.511719 57.84375 39.511719 57.503906 38.84375 C 57.164062 38.179688 56.652344 37.84375 55.96875 37.84375 Z M 55.96875 36.804688 C 57.058594 36.804688 57.890625 37.234375 58.46875 38.097656 C 59.042969 38.957031 59.328125 40.207031 59.328125 41.847656 C 59.328125 43.484375 59.042969 44.734375 58.46875 45.597656 C 57.890625 46.457031 57.058594 46.890625 55.96875 46.890625 C 54.878906 46.890625 54.046875 46.457031 53.472656 45.597656 C 52.898438 44.734375 52.609375 43.484375 52.609375 41.847656 C 52.609375 40.207031 52.898438 38.957031 53.472656 38.097656 C 54.046875 37.234375 54.878906 36.804688 55.96875 36.804688 Z M 55.96875 36.804688 "/>
<path style=" stroke:none;fill-rule:nonzero;fill:rgb(0%,0%,0%);fill-opacity:1;" d="M 12.441406 117.105469 L 15.988281 119.746094 L 19.730469 116.972656 L 19.730469 118.382812 L 16.867188 120.507812 L 19.730469 122.628906 L 19.730469 124.042969 L 15.917969 121.210938 L 12.441406 123.800781 L 12.441406 122.386719 L 15.039062 120.453125 L 12.441406 118.523438 Z M 12.441406 117.105469 "/>
<path style="fill:none;stroke-width:1.5;stroke-linecap:square;stroke-linejoin:round;stroke:rgb(12.156863%,46.666667%,70.588237%);stroke-opacity:1;stroke-miterlimit:4;" d="M 67.379883 86.261719 L 67.68457 98.830078 L 68.296875 89.507812 L 68.90918 99.360352 L 69.521484 88.224609 L 69.826172 90.84668 L 70.130859 82.59082 L 70.438477 81.580078 L 70.743164 73.001953 L 71.050781 77.173828 L 71.663086 89.370117 L 71.967773 83.645508 L 72.272461 81.673828 L 72.580078 75.433594 L 72.884766 73.904297 L 73.192383 75.975586 L 73.49707 63.298828 L 73.801758 77.121094 L 74.109375 78.111328 L 74.414062 78.530273 L 74.72168 86.208984 L 75.026367 74.173828 L 75.638672 61.886719 L 76.250977 67.552734 L 76.555664 64.230469 L 76.860352 68.765625 L 77.167969 75.290039 L 77.472656 67.450195 L 77.780273 71.443359 L 78.084961 69.026367 L 78.392578 58.945312 L 78.697266 75.498047 L 79.001953 60.577148 L 79.614258 76.385742 L 79.921875 82.060547 L 80.226562 72.442383 L 80.53125 73.037109 L 80.838867 60.345703 L 81.143555 54.755859 L 81.451172 60.925781 L 82.060547 47.455078 L 82.368164 53.267578 L 82.672852 56.381836 L 82.980469 62.235352 L 83.285156 59.039062 L 83.592773 58.075195 L 83.897461 58.628906 L 84.509766 67.491211 L 84.814453 68.419922 L 85.12207 62.041992 L 85.426758 64.924805 L 85.731445 59.229492 L 86.039062 66.896484 L 86.34375 63.597656 L 86.651367 55.743164 L 86.956055 55.989258 L 87.260742 51.401367 L 87.568359 50.326172 L 87.873047 59.8125 L 88.180664 51.694336 L 88.485352 50.581055 L 88.792969 40.731445 L 89.097656 52.842773 L 89.402344 54.612305 L 89.709961 50.510742 L 90.014648 56.258789 L 90.322266 55.734375 L 90.626953 46.294922 L 90.931641 52.166016 L 91.239258 41.182617 L 91.543945 46.792969 L 91.851562 48.424805 L 92.15625 46.675781 L 92.460937 55.256836 L 92.768555 42.342773 L 93.073242 45.612305 L 93.380859 53.786133 L 93.685547 51.606445 L 93.993164 52.901367 L 94.297852 43.388672 L 94.602539 49.514648 L 94.910156 49.930664 L 95.214844 40.242188 L 95.827148 42.310547 L 96.131836 38.920898 L 96.439453 40.420898 L 96.744141 39.665039 L 97.051758 40.543945 L 97.356445 38.466797 L 97.661133 27.202148 L 97.96875 28.242188 L 98.273437 24.401367 L 98.581055 42.134766 L 98.885742 34.350586 L 99.193359 34.485352 L 99.498047 40.787109 L 99.802734 41.299805 L 100.110352 53.950195 L 100.415039 46.321289 L 100.722656 47.759766 L 101.027344 41.408203 L 101.332031 43.192383 L 101.639648 41.62207 L 101.944336 42.137695 L 102.251953 23.625 L 102.556641 28.300781 L 102.861328 23.841797 L 103.168945 45.665039 L 103.473633 49.207031 L 104.085937 36.480469 L 104.393555 41.756836 L 104.698242 31.538086 L 105.310547 29.34668 L 105.615234 29.692383 L 105.922852 35.613281 L 106.227539 19.6875 L 106.532227 35.953125 L 106.839844 24.949219 L 107.144531 30.550781 L 107.452148 25.529297 L 107.756836 27.717773 L 108.061523 28.795898 L 108.369141 37.051758 L 108.673828 31.321289 L 108.981445 32.639648 L 109.286133 30.609375 L 109.59375 42.172852 L 109.898437 30.052734 L 110.203125 34.379883 L 110.510742 26.976562 L 110.81543 25.666992 L 111.123047 32.507812 L 111.427734 35.170898 L 112.040039 27.37207 L 112.344727 23.027344 L 112.652344 24.287109 L 112.957031 26.367188 L 113.261719 32.355469 L 113.569336 34.491211 L 113.874023 40.546875 L 114.181641 40.274414 L 114.486328 29.050781 L 114.793945 43.180664 L 115.098633 33.076172 L 115.40332 33.210938 L 115.710937 27.492188 L 116.015625 25.453125 L 116.323242 30.84082 L 116.62793 40.625977 L 116.932617 28.306641 L 117.240234 28.12793 L 117.544922 33.547852 L 117.852539 29.021484 L 118.157227 35.358398 L 118.461914 35.554688 L 118.769531 47.501953 L 119.381836 33.533203 L 119.686523 33.140625 L 119.994141 29.894531 L 120.298828 33.785156 L 120.603516 33.606445 L 120.911133 46.68457 L 121.21582 29.589844 L 121.523438 26.472656 L 121.828125 35.53125 L 122.132812 48.166992 L 122.44043 33.234375 L 122.745117 44.458008 L 123.052734 40.857422 L 123.357422 39.073242 L 123.662109 45.509766 L 123.969727 42.073242 L 124.274414 35.897461 L 124.582031 35.651367 L 124.886719 33.544922 L 125.194336 35.791992 L 125.499023 42.375 L 125.803711 44.264648 L 126.111328 39.673828 L 126.416016 48.272461 L 126.723633 28.271484 L 127.02832 45.770508 L 127.333008 42.635742 L 127.640625 45.254883 L 127.945312 42.896484 L 128.25293 44.862305 L 128.557617 35.994141 L 128.862305 43.766602 L 129.169922 43.602539 L 129.474609 36.029297 L 129.782227 40.119141 L 130.086914 46.095703 L 130.394531 48.94043 L 130.699219 49.529297 L 131.003906 32.188477 L 131.311523 49.21875 L 131.616211 37.628906 L 131.923828 52.201172 L 132.228516 51.714844 L 132.533203 34.992188 L 132.84082 48.108398 L 133.145508 47.270508 L 133.453125 41.818359 L 133.757812 52.148438 L 134.0625 40.959961 L 134.370117 39.829102 L 134.674805 47.516602 L 134.982422 42.46582 L 135.287109 48.008789 L 135.594727 37.338867 L 135.899414 54.773438 L 136.204102 50.176758 L 136.511719 58.851562 L 136.816406 52.959961 L 137.124023 61.086914 L 137.428711 50.71582 L 137.733398 52.567383 L 138.041016 53.264648 L 138.345703 53.633789 L 138.65332 47.994141 L 138.958008 55.03418 L 139.262695 56.900391 L 139.570312 51.585938 L 139.875 62.197266 L 140.182617 55.631836 L 140.794922 66.038086 L 141.711914 49.505859 L 142.016602 46.198242 L 142.324219 54.662109 L 142.628906 56.487305 L 142.933594 57.618164 L 143.241211 61.464844 L 143.545898 56.103516 L 143.853516 56.024414 L 144.158203 57.120117 L 144.462891 59.99707 L 144.770508 60.011719 L 145.075195 59.106445 L 145.6875 64.113281 L 145.992188 66.439453 L 146.299805 60.776367 L 146.604492 52.239258 L 146.912109 60.351562 L 147.216797 63.357422 L 147.524414 55.274414 L 147.829102 68.850586 L 148.133789 68.633789 L 148.441406 66.706055 L 148.746094 58.705078 L 149.053711 64.207031 L 149.358398 51.820312 L 149.663086 68.012695 L 149.970703 64.391602 L 150.275391 71.094727 L 150.583008 62.833008 L 150.887695 62.431641 L 151.192383 59.080078 L 151.804688 69.922852 L 152.112305 81.082031 L 152.416992 81.231445 L 152.724609 76.274414 L 153.029297 69.392578 L 153.333984 70.151367 L 153.641602 73.485352 L 153.946289 72.688477 L 154.253906 76.212891 L 154.863281 66.958008 L 155.170898 67.163086 L 155.475586 77.856445 L 155.783203 73.608398 L 156.087891 79.655273 L 156.392578 79.623047 L 156.700195 81.580078 L 157.004883 80.80957 L 157.3125 73.001953 L 157.617188 87.067383 L 157.924805 81.254883 L 158.229492 89.05957 L 158.53418 83.610352 L 158.841797 82.558594 L 159.146484 99.005859 L 159.454102 86.991211 L 160.063477 77.25293 L 160.675781 82.239258 L 160.983398 81.205078 L 161.592773 96.032227 L 161.900391 87.512695 L 162.205078 89.085938 L 162.512695 96.240234 L 162.817383 91.40918 L 163.125 92.657227 L 163.429688 97.898438 L 163.734375 87.366211 L 164.041992 98.545898 L 164.34668 79.734375 L 164.654297 93.169922 L 164.958984 90.331055 L 165.571289 104.396484 L 166.488281 115.523438 L 166.792969 113.34668 L 167.100586 105.457031 L 167.405273 108.902344 L 167.712891 104.390625 L 168.017578 114.577148 L 168.325195 110.525391 L 168.629883 117.386719 L 168.93457 110.619141 L 169.242188 112.880859 L 169.546875 103.081055 L 169.854492 97.620117 L 170.15918 107.841797 L 170.463867 106.306641 L 170.771484 116.208984 L 171.076172 109.154297 L 171.383789 113.686523 L 171.688477 107.317383 L 172.300781 117.782227 L 172.605469 124.813477 L 172.913086 125.765625 L 173.217773 116.326172 L 173.525391 102.210938 L 173.830078 104.833008 L 174.134766 99.84375 L 174.442383 108.673828 L 174.74707 110.332031 L 175.054688 102.855469 L 175.359375 100.951172 L 175.664062 104.727539 L 175.97168 105.577148 L 176.276367 107.085938 L 176.583984 101.126953 L 176.888672 120.128906 L 177.193359 111.665039 L 177.500977 127.87207 L 177.805664 126.650391 L 178.113281 126.524414 L 178.417969 130.21582 L 178.725586 116.724609 L 179.030273 122.387695 L 179.334961 113.885742 L 179.642578 117.035156 L 179.947266 111.46875 L 180.254883 121.456055 L 180.55957 111.852539 L 180.864258 122.709961 L 181.171875 118.880859 L 181.78418 134.797852 L 182.088867 134.431641 L 182.393555 145.637695 L 182.701172 140.888672 L 183.005859 130.479492 L 183.313477 126.662109 L 183.618164 133.886719 L 183.925781 133.734375 L 184.230469 143.891602 L 184.535156 123.984375 L 184.842773 131.941406 L 185.147461 135.785156 L 185.455078 134.745117 L 185.759766 138.208008 L 186.064453 138.758789 L 186.37207 127.857422 L 186.984375 134.428711 L 187.59375 146.774414 L 187.901367 146.750977 L 188.513672 135.776367 L 188.818359 135.574219 L 189.125977 131.81543 L 189.430664 143.592773 L 190.042969 135.445312 L 190.347656 139.716797 L 190.655273 137.53418 L 190.959961 128.370117 L 191.264648 123.972656 L 191.572266 122.173828 L 191.876953 138.477539 L 192.18457 142.069336 L 192.489258 141.943359 L 192.793945 140.935547 L 193.101562 143.115234 L 193.40625 139.649414 L 193.713867 144.237305 L 194.018555 139.705078 L 194.326172 152.449219 L 194.630859 146.671875 L 194.935547 146.179688 L 195.243164 146.390625 L 195.547852 136.904297 L 195.855469 134.244141 L 196.464844 119.979492 L 196.772461 138.890625 L 197.077148 142.886719 L 197.384766 143.041992 L 197.689453 154.306641 L 197.994141 142.101562 L 198.301758 150.93457 L 198.606445 138.626953 L 198.914062 151.335938 L 199.21875 146.490234 L 199.526367 153.19043 L 199.831055 147.155273 L 200.135742 154.347656 L 200.443359 157.666992 L 200.748047 146.443359 L 201.055664 157.444336 L 201.360352 141.275391 L 201.665039 148.054688 L 201.972656 140.25293 L 202.277344 145.412109 L 202.584961 147.509766 L 202.889648 155.349609 L 203.194336 150.958008 L 203.501953 151.420898 L 203.806641 150.729492 L 204.114258 142.245117 L 204.418945 138.788086 L 204.726562 150.788086 L 205.03125 142.485352 L 205.335938 139.420898 L 205.643555 145.951172 L 205.948242 143.589844 L 206.255859 160.693359 L 206.560547 159.392578 L 206.865234 164.399414 L 207.172852 154.163086 L 207.477539 155.780273 L 208.089844 129.448242 L 208.394531 141.37793 L 208.702148 141.017578 L 209.619141 165.960938 L 209.926758 155.370117 L 210.231445 161.276367 L 210.536133 153.254883 L 210.84375 154.069336 L 211.148438 164.551758 L 211.456055 157.482422 L 211.760742 162 L 212.06543 161.53418 L 212.373047 161.504883 L 212.985352 156.544922 L 213.290039 154.186523 L 213.594727 141.37793 L 213.902344 154.21875 L 214.207031 153.870117 L 214.819336 157.740234 L 215.124023 162.298828 L 215.736328 152.235352 L 216.043945 138.146484 L 216.348633 150.087891 L 216.65625 137.238281 L 217.265625 144.454102 L 217.573242 143.208984 L 217.87793 150.427734 L 218.185547 153.785156 L 218.794922 156.014648 L 219.407227 149.850586 L 219.714844 156.436523 L 220.019531 154.924805 L 220.324219 159.234375 L 220.631836 145.763672 L 220.936523 148.582031 L 221.244141 155.493164 L 221.548828 148.297852 L 221.856445 145.757812 L 222.161133 145.250977 L 222.46582 137.838867 L 222.773438 151.860352 L 223.078125 148.335938 L 223.385742 150.580078 L 223.69043 147.498047 L 223.995117 129.137695 L 224.302734 144.038086 L 224.607422 135.099609 L 224.915039 146.783203 L 225.219727 154.072266 L 225.524414 149.666016 L 225.832031 153.27832 L 226.136719 160.828125 L 226.444336 141.442383 L 226.749023 149.548828 L 227.056641 144.500977 L 227.361328 149.613281 L 227.666016 151.426758 L 227.973633 150.852539 L 228.27832 147.738281 L 228.585938 151.772461 L 228.890625 145.505859 L 229.195312 142.857422 L 229.50293 144.181641 L 229.807617 138.146484 L 230.115234 144.026367 L 230.419922 140.938477 L 231.336914 146.282227 L 231.644531 134.604492 L 231.949219 146.06543 L 232.256836 126.632812 L 232.561523 133.541016 L 232.866211 126.404297 L 233.173828 140.393555 L 233.478516 137.203125 L 233.786133 151.294922 L 234.09082 147.099609 L 234.395508 151.081055 L 234.703125 146.009766 L 235.007812 160.930664 L 235.31543 136.086914 L 235.620117 142.283203 L 235.924805 125.912109 L 236.232422 128.206055 L 236.537109 120.398438 L 236.844727 129.208008 L 237.149414 123.421875 L 237.457031 138.442383 L 237.761719 124.412109 L 238.066406 137.90625 L 238.374023 132.131836 L 238.678711 143.100586 L 238.986328 118.227539 L 239.291016 120.319336 L 239.595703 114.076172 L 239.90332 101.373047 L 240.208008 123.685547 L 240.515625 123.799805 L 240.820313 131.466797 L 241.125 130.696289 L 241.432617 127.763672 L 241.737305 132.084961 L 242.044922 123.155273 L 242.349609 127.362305 L 242.657227 110.988281 L 242.961914 119.62793 L 243.266602 109.420898 L 243.574219 117.717773 L 243.878906 108.260742 L 244.186523 108.987305 L 244.491211 111.512695 L 244.795898 115.022461 L 245.103516 122.314453 L 245.408203 124.12207 L 245.71582 124.350586 L 246.020508 123.799805 L 246.632813 104.033203 L 246.9375 102.914062 L 247.245117 101.033203 L 247.857422 113.349609 L 248.162109 119.786133 L 248.466797 108.272461 L 248.774414 119.733398 L 249.079102 114.919922 L 249.386719 119.030273 L 249.691406 117.541992 L 249.996094 106.450195 L 250.303711 107.414062 L 250.608398 107.431641 L 250.916016 106.420898 L 251.220703 104.326172 L 251.525391 113.361328 L 251.833008 96.969727 L 252.137695 108.37793 L 252.445313 97.795898 L 252.75 107.15918 L 253.057617 104.334961 L 253.362305 113.639648 L 253.666992 112.092773 L 253.974609 117.140625 L 254.279297 102.867188 L 254.586914 111.899414 L 254.891602 101.982422 L 255.196289 102.457031 L 255.503906 105.987305 L 255.808594 103.470703 L 256.116211 109.151367 L 256.420898 112.022461 L 256.725586 111.814453 L 257.033203 96.963867 L 257.337891 94.699219 L 257.645508 84.919922 L 257.950195 101.894531 L 258.257812 87.887695 L 258.5625 105.875977 L 258.867188 92.733398 L 259.174805 90.541992 L 259.479492 90.111328 L 259.787109 89.021484 L 260.091797 85.441406 L 260.396484 90.389648 L 260.704102 92.443359 L 261.316406 79.016602 L 261.621094 87.952148 L 261.925781 73.977539 L 262.233398 89.288086 L 262.538086 76.450195 L 262.845703 82.133789 L 263.150391 92.144531 L 263.458008 76.256836 L 263.762695 87.94043 L 264.067383 72.111328 L 264.375 93.055664 L 264.679688 85.010742 L 264.987305 99.263672 L 265.291992 98.72168 L 265.59668 101.425781 L 265.904297 92.270508 L 266.516602 85.558594 L 266.821289 83.542969 L 267.125977 75.237305 L 267.433594 59.545898 L 267.738281 62.956055 L 268.045898 74.90918 L 268.350586 78.919922 L 268.658203 92.43457 L 269.267578 77.671875 L 269.575195 63.389648 L 269.879883 57.023438 L 270.1875 54.131836 L 270.492188 63.404297 L 270.796875 55.168945 L 271.104492 66.541992 L 271.40918 60.011719 L 271.716797 68.516602 L 272.021484 67.918945 L 272.326172 61.250977 L 272.633789 65.540039 L 272.938477 74.34375 L 273.246094 74.112305 L 273.550781 63.547852 L 273.858398 63.65625 L 274.163086 57.064453 L 274.467773 58.007812 L 274.775391 50.771484 L 275.080078 58.582031 L 275.387695 53.094727 L 275.692383 51.512695 L 275.99707 61.12793 L 276.304688 60.462891 L 276.609375 53.499023 L 276.916992 62.730469 L 277.22168 54.18457 L 277.526367 60.193359 L 277.833984 74.882812 L 278.138672 66.395508 L 278.446289 82.801758 L 278.750977 66.108398 L 279.058594 67.432617 L 279.363281 55.927734 L 279.667969 57.606445 L 279.975586 60.626953 L 280.280273 60.814453 L 280.587891 60.536133 L 281.197266 47.847656 L 281.504883 53.856445 L 281.80957 41.991211 L 282.117188 49.678711 L 282.421875 44.786133 L 282.726562 42.808594 L 283.03418 46.3125 L 283.338867 45.735352 L 283.646484 57.489258 L 283.951172 46.836914 L 284.258789 49.713867 L 284.563477 44.566406 L 284.868164 46.160156 L 285.480469 41.967773 L 285.788086 48.351562 L 286.092773 50.610352 L 286.397461 63.398438 L 286.705078 58.066406 L 287.317383 43.057617 L 287.62207 45.046875 L 287.926758 45.073242 L 288.234375 45.462891 L 288.539063 39.260742 L 288.84668 57.829102 L 289.151367 46.959961 L 289.456055 60.243164 L 289.763672 38.226562 L 290.068359 56.958984 L 290.375977 47.232422 L 290.680664 45.544922 L 290.988281 47.783203 L 291.292969 24.530273 L 291.597656 41.707031 L 291.905273 35.844727 L 292.209961 43.740234 L 292.517578 29.279297 L 292.822266 36.665039 L 293.126953 27.430664 L 293.739258 42.023438 L 294.046875 43.447266 L 294.351563 42.398438 L 294.65625 48.676758 L 294.963867 31.529297 L 295.268555 34.933594 L 295.576172 23.777344 L 295.880859 38.689453 L 296.188477 36.978516 L 296.493164 44.050781 L 296.797852 40.022461 L 297.105469 41.194336 L 297.410156 39.1875 L 297.717773 44.762695 L 298.022461 27.275391 L 298.327148 48.09668 L 298.634766 39.919922 L 298.939453 49.245117 L 299.24707 37.083984 L 299.551758 43.02832 L 299.856445 38.833008 L 300.164063 24.082031 L 300.46875 23.103516 L 300.776367 18.641602 L 301.388672 45.216797 L 301.693359 34.570312 L 301.998047 35.041992 L 302.305664 16.945312 L 302.610352 28.435547 L 302.917969 14.759766 L 303.222656 16.579102 L 303.527344 32.668945 L 303.834961 15.626953 L 304.139648 33.152344 L 304.447266 25.538086 L 304.751953 33.521484 L 305.056641 32.311523 L 305.364258 36.527344 L 305.668945 24.65332 L 305.976563 35.72168 L 306.28125 29.827148 L 306.588867 20.012695 L 306.893555 35.124023 L 307.198242 36.492188 L 307.505859 39.802734 L 307.810547 28.505859 L 308.118164 28.529297 L 308.422852 21.990234 L 308.727539 40.300781 L 309.339844 30.155273 L 309.647461 30.37207 L 309.952148 22.130859 L 310.256836 22.180664 L 310.869141 25.520508 L 311.176758 29.985352 L 311.481445 25.180664 L 312.398438 46.995117 L 312.706055 38.34082 L 313.623047 52.532227 L 313.927734 46.432617 L 314.235352 55.998047 L 314.540039 33.811523 L 314.847656 31.130859 L 315.152344 32.827148 L 315.457031 29.091797 L 315.764648 32.302734 L 316.069336 39.744141 L 316.376953 41.563477 L 316.681641 38.692383 L 316.989258 50.188477 L 317.598633 29.824219 L 317.90625 32.361328 L 318.210938 23.970703 L 318.518555 40.03125 L 318.823242 38.405273 L 319.12793 42.495117 L 319.435547 40.151367 L 319.740234 40.643555 L 320.047852 34.916016 L 320.352539 36.864258 L 320.657227 42.867188 L 320.964844 40.854492 L 321.269531 49.892578 L 321.577148 48.389648 L 321.881836 47.90332 L 322.189453 32.868164 L 322.494141 35.490234 L 322.798828 25.415039 L 323.106445 39.351562 L 323.411133 40.511719 L 323.71875 31.526367 L 324.023438 44.352539 L 324.328125 37.87207 L 324.635742 42.354492 L 324.94043 36.852539 L 325.248047 46.587891 L 325.552734 44.179688 L 325.857422 47.882812 L 326.165039 53.563477 L 326.469727 39.893555 L 326.777344 38.888672 L 327.082031 37.204102 L 327.389648 39.84375 L 327.694336 39.304688 L 327.999023 41.944336 L 328.611328 55.327148 L 328.918945 51.073242 L 329.223633 60.864258 L 329.52832 48.249023 L 329.835938 44.390625 L 330.140625 43.725586 L 330.448242 37.983398 L 330.75293 50.165039 L 331.057617 44.598633 L 331.669922 47.039062 L 331.977539 50.129883 L 332.282227 49.391602 L 332.589844 50.34668 L 332.894531 45.56543 L 333.199219 47.296875 L 333.506836 59.478516 L 333.811523 53.135742 L 334.119141 52.432617 L 334.423828 47.707031 L 334.728516 49.614258 L 335.036133 45.726562 L 335.34082 57.407227 L 335.648438 54.667969 L 335.953125 64.239258 L 336.257813 54.498047 L 336.56543 52.511719 L 336.870117 42.079102 L 337.177734 53.961914 L 337.482422 52.450195 L 337.790039 49.816406 L 338.094727 58.324219 L 338.399414 44.926758 L 338.707031 63.125977 L 339.011719 61.438477 L 339.319336 59.050781 L 339.624023 62.208984 L 339.928711 70.59082 L 340.236328 66.084961 L 340.541016 65.499023 L 340.848633 66.46582 L 341.15332 65.478516 L 341.458008 66.295898 L 341.765625 78.65918 L 342.070313 72.949219 L 342.37793 84.896484 L 342.682617 72.492188 L 343.294922 69.439453 L 343.599609 66.082031 L 343.907227 73.505859 L 344.211914 73.230469 L 344.519531 84.796875 L 344.824219 84.996094 L 345.128906 81.524414 L 345.436523 72.114258 L 345.741211 81.28125 L 346.048828 72.527344 L 346.353516 72.37207 L 346.658203 71.124023 L 347.270508 75.169922 L 347.578125 70.277344 L 347.882813 76.959961 L 348.19043 70.672852 L 348.495117 79.643555 L 349.107422 88.274414 L 349.412109 93.495117 L 349.719727 80.789062 L 350.024414 91.710938 L 350.329102 82.3125 L 350.636719 94.368164 L 350.941406 81.436523 L 351.249023 96.348633 L 351.553711 99.339844 L 351.858398 93.755859 L 352.166016 104.841797 L 352.470703 105.27832 L 352.77832 95.329102 L 353.083008 90.682617 L 353.390625 89.150391 L 353.695313 79.350586 L 354 100.271484 L 354.307617 89.874023 L 354.612305 94.130859 L 354.919922 88.019531 L 355.224609 85.057617 L 355.529297 93.105469 L 355.836914 92.115234 L 356.141602 91.634766 L 356.449219 89.25293 L 356.753906 90.755859 L 357.058594 88.49707 L 357.670898 103.939453 L 357.978516 104.548828 L 358.283203 110.425781 L 358.587891 109.262695 L 358.895508 105.489258 L 359.507813 95.648438 L 359.8125 96.834961 L 360.120117 109.880859 L 360.424805 104.320312 L 360.729492 106.529297 L 361.037109 99.395508 L 361.341797 112.151367 L 361.649414 104.15332 L 361.954102 108.776367 L 362.258789 105.650391 L 362.566406 120.796875 L 362.871094 113.0625 L 363.178711 117.855469 L 363.483398 117.316406 L 363.788086 105.131836 L 364.095703 103.160156 L 364.400391 103.388672 L 365.012695 110.144531 L 365.625 125.211914 L 365.929688 118.555664 L 366.237305 119.106445 L 366.541992 117.263672 L 366.849609 108.196289 L 367.154297 106.980469 L 367.458984 113.589844 L 367.766602 101.425781 L 368.071289 115.461914 L 368.378906 108.571289 L 368.683594 114.946289 L 368.988281 112.177734 L 369.295898 115.004883 L 369.600586 116.499023 L 369.908203 118.576172 L 370.212891 122.390625 L 370.520508 109.836914 L 370.825195 121.839844 L 371.129883 121.224609 L 371.742188 132.117188 " transform="matrix(1.333333,0,0,1.333333,0.000000000000056843,0)"/>
<path style="fill:none;stroke-width:1.5;stroke-linecap:butt;stroke-linejoin:round;stroke:rgb(74.901962%,0%,74.901962%);stroke-opacity:1;stroke-dasharray:5.55,2.4;stroke-miterlimit:4;" d="M 250.916016 106.420898 L 251.220703 108.234375 L 251.525391 113.698242 L 251.833008 109.989258 L 252.137695 109.584961 L 252.445313 112.168945 L 252.75 111.27832 L 253.057617 110.783203 L 253.362305 111.911133 L 253.666992 111.893555 L 253.974609 111.665039 L 254.279297 112.166016 L 254.586914 112.356445 L 254.891602 112.335938 L 255.503906 112.807617 L 256.116211 113.077148 L 257.337891 113.730469 L 264.679688 117.175781 L 269.575195 119.15625 L 274.775391 121.016602 L 280.280273 122.745117 L 286.092773 124.333008 L 292.209961 125.780273 L 298.939453 127.139648 L 306.28125 128.387695 L 314.235352 129.509766 L 323.106445 130.529297 L 332.894531 131.425781 L 343.907227 132.208008 L 356.753906 132.890625 L 371.742188 133.458984 " transform="matrix(1.333333,0,0,1.333333,0.000000000000056843,0)"/>
<path style="fill:none;stroke-width:0.8;stroke-linecap:square;stroke-linejoin:miter;stroke:rgb(0%,0%,0%);stroke-opacity:1;stroke-miterlimit:4;" d="M 52.160156 173.519531 L 52.160156 7.201172 " transform="matrix(1.333333,0,0,1.333333,0.000000000000056843,0)"/>
<path style="fill:none;stroke-width:0.8;stroke-linecap:square;stroke-linejoin:miter;stroke:rgb(0%,0%,0%);stroke-opacity:1;stroke-miterlimit:4;" d="M 386.961914 173.519531 L 386.961914 7.201172 " transform="matrix(1.333333,0,0,1.333333,0.000000000000056843,0)"/>
<path style="fill:none;stroke-width:0.8;stroke-linecap:square;stroke-linejoin:miter;stroke:rgb(0%,0%,0%);stroke-opacity:1;stroke-miterlimit:4;" d="M 52.160156 173.519531 L 386.961914 173.519531 " transform="matrix(1.333333,0,0,1.333333,0.000000000000056843,0)"/>
<path style="fill:none;stroke-width:0.8;stroke-linecap:square;stroke-linejoin:miter;stroke:rgb(0%,0%,0%);stroke-opacity:1;stroke-miterlimit:4;" d="M 52.160156 7.201172 L 386.961914 7.201172 " transform="matrix(1.333333,0,0,1.333333,0.000000000000056843,0)"/>
<use xlink:href="#surface5" mask="url(#mask0)"/>
<path style="fill:none;stroke-width:1.5;stroke-linecap:square;stroke-linejoin:round;stroke:rgb(12.156863%,46.666667%,70.588237%);stroke-opacity:1;stroke-miterlimit:4;" d="M 61.160156 144.260742 L 81.161133 144.260742 " transform="matrix(1.333333,0,0,1.333333,0.000000000000056843,0)"/>
<path style=" stroke:none;fill-rule:nonzero;fill:rgb(0%,0%,0%);fill-opacity:1;" d="M 120.535156 195.910156 L 122.683594 195.910156 L 122.683594 188.492188 L 120.347656 188.960938 L 120.347656 187.765625 L 122.671875 187.296875 L 123.984375 187.296875 L 123.984375 195.910156 L 126.132812 195.910156 L 126.132812 197.015625 L 120.535156 197.015625 Z M 120.535156 195.910156 "/>
<path style=" stroke:none;fill-rule:nonzero;fill:rgb(0%,0%,0%);fill-opacity:1;" d="M 128.015625 192.832031 L 131.523438 192.832031 L 131.523438 193.898438 L 128.015625 193.898438 Z M 128.015625 192.832031 "/>
<path style=" stroke:none;fill-rule:nonzero;fill:rgb(0%,0%,0%);fill-opacity:1;" d="M 138.078125 189.9375 L 138.078125 191.074219 C 137.742188 190.898438 137.390625 190.769531 137.027344 190.683594 C 136.660156 190.59375 136.285156 190.550781 135.890625 190.550781 C 135.296875 190.550781 134.851562 190.644531 134.554688 190.824219 C 134.257812 191.007812 134.109375 191.28125 134.109375 191.644531 C 134.109375 191.921875 134.214844 192.140625 134.425781 192.300781 C 134.640625 192.457031 135.066406 192.609375 135.710938 192.75 L 136.121094 192.84375 C 136.972656 193.023438 137.574219 193.28125 137.933594 193.613281 C 138.292969 193.945312 138.472656 194.410156 138.472656 195.003906 C 138.472656 195.679688 138.203125 196.21875 137.667969 196.613281 C 137.132812 197.007812 136.394531 197.207031 135.457031 197.207031 C 135.066406 197.207031 134.660156 197.167969 134.234375 197.089844 C 133.8125 197.015625 133.367188 196.902344 132.898438 196.75 L 132.898438 195.511719 C 133.339844 195.742188 133.777344 195.914062 134.207031 196.03125 C 134.636719 196.144531 135.0625 196.203125 135.484375 196.203125 C 136.046875 196.203125 136.480469 196.105469 136.785156 195.910156 C 137.089844 195.71875 137.238281 195.445312 137.238281 195.09375 C 137.238281 194.769531 137.128906 194.519531 136.910156 194.347656 C 136.691406 194.175781 136.210938 194.007812 135.46875 193.84375 L 135.050781 193.746094 C 134.3125 193.59375 133.773438 193.351562 133.445312 193.027344 C 133.113281 192.707031 132.949219 192.261719 132.949219 191.699219 C 132.949219 191.011719 133.195312 190.480469 133.679688 190.109375 C 134.164062 189.738281 134.855469 189.550781 135.75 189.550781 C 136.191406 189.550781 136.609375 189.582031 137 189.648438 C 137.390625 189.710938 137.75 189.808594 138.078125 189.9375 Z M 138.078125 189.9375 "/>
<path style=" stroke:none;fill-rule:nonzero;fill:rgb(0%,0%,0%);fill-opacity:1;" d="M 141.5625 187.652344 L 141.5625 189.722656 L 144.03125 189.722656 L 144.03125 190.65625 L 141.5625 190.65625 L 141.5625 194.613281 C 141.5625 195.207031 141.644531 195.589844 141.808594 195.761719 C 141.96875 195.929688 142.300781 196.015625 142.800781 196.015625 L 144.03125 196.015625 L 144.03125 197.015625 L 142.800781 197.015625 C 141.875 197.015625 141.238281 196.84375 140.886719 196.5 C 140.535156 196.152344 140.359375 195.523438 140.359375 194.613281 L 140.359375 190.65625 L 139.480469 190.65625 L 139.480469 189.722656 L 140.359375 189.722656 L 140.359375 187.652344 Z M 141.5625 187.652344 "/>
<path style=" stroke:none;fill-rule:nonzero;fill:rgb(0%,0%,0%);fill-opacity:1;" d="M 151.84375 193.070312 L 151.84375 193.65625 L 146.335938 193.65625 C 146.386719 194.480469 146.636719 195.109375 147.082031 195.542969 C 147.527344 195.972656 148.144531 196.1875 148.941406 196.1875 C 149.398438 196.1875 149.84375 196.132812 150.277344 196.019531 C 150.710938 195.90625 151.136719 195.738281 151.566406 195.511719 L 151.566406 196.644531 C 151.132812 196.828125 150.691406 196.964844 150.242188 197.0625 C 149.789062 197.15625 149.332031 197.207031 148.867188 197.207031 C 147.703125 197.207031 146.785156 196.867188 146.105469 196.191406 C 145.425781 195.511719 145.085938 194.597656 145.085938 193.441406 C 145.085938 192.25 145.40625 191.300781 146.050781 190.601562 C 146.695312 189.898438 147.566406 189.550781 148.660156 189.550781 C 149.640625 189.550781 150.417969 189.867188 150.988281 190.496094 C 151.558594 191.128906 151.84375 191.984375 151.84375 193.070312 Z M 150.644531 192.71875 C 150.636719 192.0625 150.453125 191.542969 150.097656 191.152344 C 149.738281 190.761719 149.261719 190.5625 148.671875 190.5625 C 148.003906 190.5625 147.46875 190.753906 147.070312 191.128906 C 146.667969 191.507812 146.4375 192.039062 146.375 192.726562 Z M 150.644531 192.71875 "/>
<path style=" stroke:none;fill-rule:nonzero;fill:rgb(0%,0%,0%);fill-opacity:1;" d="M 154.96875 195.921875 L 154.96875 199.789062 L 153.761719 199.789062 L 153.761719 189.722656 L 154.96875 189.722656 L 154.96875 190.832031 C 155.21875 190.398438 155.539062 190.074219 155.921875 189.867188 C 156.304688 189.65625 156.765625 189.550781 157.300781 189.550781 C 158.183594 189.550781 158.90625 189.902344 159.457031 190.605469 C 160.011719 191.304688 160.289062 192.230469 160.289062 193.375 C 160.289062 194.523438 160.011719 195.449219 159.457031 196.152344 C 158.90625 196.855469 158.183594 197.207031 157.300781 197.207031 C 156.765625 197.207031 156.304688 197.101562 155.921875 196.890625 C 155.539062 196.679688 155.21875 196.355469 154.96875 195.921875 Z M 159.042969 193.375 C 159.042969 192.496094 158.863281 191.804688 158.5 191.304688 C 158.136719 190.800781 157.640625 190.550781 157.007812 190.550781 C 156.371094 190.550781 155.875 190.800781 155.511719 191.304688 C 155.148438 191.804688 154.96875 192.496094 154.96875 193.375 C 154.96875 194.257812 155.148438 194.949219 155.511719 195.449219 C 155.875 195.949219 156.371094 196.203125 157.007812 196.203125 C 157.640625 196.203125 158.136719 195.949219 158.5 195.449219 C 158.863281 194.949219 159.042969 194.257812 159.042969 193.375 Z M 159.042969 193.375 "/>
<path style=" stroke:none;fill-rule:nonzero;fill:rgb(0%,0%,0%);fill-opacity:1;" d="M 167.667969 195.921875 L 167.667969 199.789062 L 166.464844 199.789062 L 166.464844 189.722656 L 167.667969 189.722656 L 167.667969 190.832031 C 167.921875 190.398438 168.242188 190.074219 168.625 189.867188 C 169.007812 189.65625 169.46875 189.550781 170 189.550781 C 170.886719 189.550781 171.605469 189.902344 172.160156 190.605469 C 172.714844 191.304688 172.992188 192.230469 172.992188 193.375 C 172.992188 194.523438 172.714844 195.449219 172.160156 196.152344 C 171.605469 196.855469 170.886719 197.207031 170 197.207031 C 169.46875 197.207031 169.007812 197.101562 168.625 196.890625 C 168.242188 196.679688 167.921875 196.355469 167.667969 195.921875 Z M 171.746094 193.375 C 171.746094 192.496094 171.566406 191.804688 171.203125 191.304688 C 170.839844 190.800781 170.34375 190.550781 169.710938 190.550781 C 169.074219 190.550781 168.574219 190.800781 168.214844 191.304688 C 167.851562 191.804688 167.667969 192.496094 167.667969 193.375 C 167.667969 194.257812 167.851562 194.949219 168.214844 195.449219 C 168.574219 195.949219 169.074219 196.203125 169.710938 196.203125 C 170.34375 196.203125 170.839844 195.949219 171.203125 195.449219 C 171.566406 194.949219 171.746094 194.257812 171.746094 193.375 Z M 171.746094 193.375 "/>
<path style=" stroke:none;fill-rule:nonzero;fill:rgb(0%,0%,0%);fill-opacity:1;" d="M 179.199219 190.84375 C 179.066406 190.765625 178.917969 190.707031 178.761719 190.671875 C 178.601562 190.636719 178.425781 190.617188 178.238281 190.617188 C 177.558594 190.617188 177.039062 190.835938 176.675781 191.277344 C 176.3125 191.71875 176.132812 192.347656 176.132812 193.175781 L 176.132812 197.015625 L 174.929688 197.015625 L 174.929688 189.722656 L 176.132812 189.722656 L 176.132812 190.859375 C 176.386719 190.414062 176.714844 190.085938 177.117188 189.871094 C 177.519531 189.65625 178.011719 189.550781 178.589844 189.550781 C 178.671875 189.550781 178.761719 189.554688 178.863281 189.566406 C 178.960938 189.574219 179.074219 189.59375 179.195312 189.613281 Z M 179.199219 190.84375 "/>
<path style=" stroke:none;fill-rule:nonzero;fill:rgb(0%,0%,0%);fill-opacity:1;" d="M 186.394531 193.070312 L 186.394531 193.65625 L 180.886719 193.65625 C 180.9375 194.480469 181.1875 195.109375 181.632812 195.542969 C 182.074219 195.972656 182.695312 196.1875 183.488281 196.1875 C 183.949219 196.1875 184.394531 196.132812 184.828125 196.019531 C 185.257812 195.90625 185.6875 195.738281 186.113281 195.511719 L 186.113281 196.644531 C 185.683594 196.828125 185.242188 196.964844 184.792969 197.0625 C 184.339844 197.15625 183.882812 197.207031 183.417969 197.207031 C 182.253906 197.207031 181.332031 196.867188 180.65625 196.191406 C 179.976562 195.511719 179.636719 194.597656 179.636719 193.441406 C 179.636719 192.25 179.957031 191.300781 180.601562 190.601562 C 181.246094 189.898438 182.117188 189.550781 183.210938 189.550781 C 184.191406 189.550781 184.96875 189.867188 185.539062 190.496094 C 186.109375 191.128906 186.394531 191.984375 186.394531 193.070312 Z M 185.195312 192.71875 C 185.1875 192.0625 185.003906 191.542969 184.644531 191.152344 C 184.289062 190.761719 183.8125 190.5625 183.222656 190.5625 C 182.554688 190.5625 182.019531 190.753906 181.617188 191.128906 C 181.21875 191.507812 180.988281 192.039062 180.925781 192.726562 Z M 185.195312 192.71875 "/>
<path style=" stroke:none;fill-rule:nonzero;fill:rgb(0%,0%,0%);fill-opacity:1;" d="M 193.15625 190.832031 L 193.15625 186.886719 L 194.355469 186.886719 L 194.355469 197.015625 L 193.15625 197.015625 L 193.15625 195.921875 C 192.90625 196.355469 192.589844 196.679688 192.203125 196.890625 C 191.820312 197.101562 191.359375 197.207031 190.820312 197.207031 C 189.941406 197.207031 189.222656 196.855469 188.667969 196.152344 C 188.113281 195.449219 187.839844 194.523438 187.839844 193.375 C 187.839844 192.230469 188.113281 191.304688 188.667969 190.605469 C 189.222656 189.902344 189.941406 189.550781 190.820312 189.550781 C 191.359375 189.550781 191.820312 189.65625 192.203125 189.867188 C 192.589844 190.074219 192.90625 190.398438 193.15625 190.832031 Z M 189.078125 193.375 C 189.078125 194.257812 189.257812 194.949219 189.621094 195.449219 C 189.984375 195.949219 190.480469 196.203125 191.113281 196.203125 C 191.746094 196.203125 192.246094 195.949219 192.609375 195.449219 C 192.976562 194.949219 193.15625 194.257812 193.15625 193.375 C 193.15625 192.496094 192.976562 191.804688 192.609375 191.304688 C 192.246094 190.800781 191.746094 190.550781 191.113281 190.550781 C 190.480469 190.550781 189.984375 190.800781 189.621094 191.304688 C 189.257812 191.804688 189.078125 192.496094 189.078125 193.375 Z M 189.078125 193.375 "/>
<path style=" stroke:none;fill-rule:nonzero;fill:rgb(0%,0%,0%);fill-opacity:1;" d="M 201.472656 189.9375 L 201.472656 191.074219 C 201.132812 190.898438 200.78125 190.769531 200.417969 190.683594 C 200.054688 190.59375 199.675781 190.550781 199.285156 190.550781 C 198.6875 190.550781 198.242188 190.644531 197.945312 190.824219 C 197.648438 191.007812 197.5 191.28125 197.5 191.644531 C 197.5 191.921875 197.605469 192.140625 197.820312 192.300781 C 198.03125 192.457031 198.460938 192.609375 199.101562 192.75 L 199.511719 192.84375 C 200.363281 193.023438 200.96875 193.28125 201.324219 193.613281 C 201.683594 193.945312 201.863281 194.410156 201.863281 195.003906 C 201.863281 195.679688 201.59375 196.21875 201.058594 196.613281 C 200.523438 197.007812 199.785156 197.207031 198.847656 197.207031 C 198.457031 197.207031 198.050781 197.167969 197.628906 197.089844 C 197.203125 197.015625 196.757812 196.902344 196.289062 196.75 L 196.289062 195.511719 C 196.734375 195.742188 197.167969 195.914062 197.597656 196.03125 C 198.027344 196.144531 198.453125 196.203125 198.875 196.203125 C 199.4375 196.203125 199.871094 196.105469 200.175781 195.910156 C 200.480469 195.71875 200.632812 195.445312 200.632812 195.09375 C 200.632812 194.769531 200.523438 194.519531 200.300781 194.347656 C 200.085938 194.175781 199.605469 194.007812 198.859375 193.84375 L 198.445312 193.746094 C 197.703125 193.59375 197.167969 193.351562 196.835938 193.027344 C 196.507812 192.707031 196.34375 192.261719 196.34375 191.699219 C 196.34375 191.011719 196.585938 190.480469 197.070312 190.109375 C 197.558594 189.738281 198.246094 189.550781 199.140625 189.550781 C 199.582031 189.550781 200 189.582031 200.390625 189.648438 C 200.78125 189.710938 201.140625 189.808594 201.472656 189.9375 Z M 201.472656 189.9375 "/>
<path style="fill:none;stroke-width:1.5;stroke-linecap:butt;stroke-linejoin:round;stroke:rgb(74.901962%,0%,74.901962%);stroke-opacity:1;stroke-dasharray:5.55,2.4;stroke-miterlimit:4;" d="M 61.160156 158.941406 L 81.161133 158.941406 " transform="matrix(1.333333,0,0,1.333333,0.000000000000056843,0)"/>
<path style=" stroke:none;fill-rule:nonzero;fill:rgb(0%,0%,0%);fill-opacity:1;" d="M 125.816406 210.695312 C 126.113281 210.15625 126.472656 209.757812 126.890625 209.503906 C 127.304688 209.25 127.796875 209.121094 128.359375 209.121094 C 129.121094 209.121094 129.707031 209.386719 130.117188 209.917969 C 130.53125 210.449219 130.738281 211.203125 130.738281 212.183594 L 130.738281 216.585938 L 129.535156 216.585938 L 129.535156 212.222656 C 129.535156 211.527344 129.410156 211.007812 129.160156 210.671875 C 128.914062 210.332031 128.535156 210.160156 128.027344 210.160156 C 127.410156 210.160156 126.917969 210.367188 126.554688 210.78125 C 126.195312 211.191406 126.015625 211.753906 126.015625 212.464844 L 126.015625 216.585938 L 124.8125 216.585938 L 124.8125 212.222656 C 124.8125 211.523438 124.6875 211.003906 124.441406 210.667969 C 124.195312 210.332031 123.8125 210.160156 123.296875 210.160156 C 122.683594 210.160156 122.195312 210.367188 121.835938 210.78125 C 121.476562 211.195312 121.296875 211.757812 121.296875 212.464844 L 121.296875 216.585938 L 120.089844 216.585938 L 120.089844 209.296875 L 121.296875 209.296875 L 121.296875 210.429688 C 121.570312 209.980469 121.898438 209.652344 122.277344 209.4375 C 122.660156 209.226562 123.113281 209.121094 123.640625 209.121094 C 124.171875 209.121094 124.621094 209.253906 124.992188 209.523438 C 125.363281 209.792969 125.636719 210.183594 125.816406 210.695312 Z M 125.816406 210.695312 "/>
<path style=" stroke:none;fill-rule:nonzero;fill:rgb(0%,0%,0%);fill-opacity:1;" d="M 133.003906 213.710938 L 133.003906 209.296875 L 134.199219 209.296875 L 134.199219 213.664062 C 134.199219 214.355469 134.335938 214.871094 134.601562 215.21875 C 134.871094 215.5625 135.277344 215.734375 135.816406 215.734375 C 136.460938 215.734375 136.972656 215.527344 137.347656 215.117188 C 137.722656 214.703125 137.910156 214.140625 137.910156 213.429688 L 137.910156 209.296875 L 139.109375 209.296875 L 139.109375 216.585938 L 137.910156 216.585938 L 137.910156 215.464844 C 137.621094 215.910156 137.285156 216.238281 136.898438 216.453125 C 136.515625 216.667969 136.070312 216.777344 135.5625 216.777344 C 134.722656 216.777344 134.085938 216.515625 133.652344 215.996094 C 133.21875 215.472656 133.003906 214.710938 133.003906 213.710938 Z M 136.015625 209.121094 Z M 136.015625 209.121094 "/>
<path style=" stroke:none;fill-rule:nonzero;fill:rgb(0%,0%,0%);fill-opacity:1;" d="M 141.578125 206.457031 L 142.773438 206.457031 L 142.773438 216.585938 L 141.578125 216.585938 Z M 141.578125 206.457031 "/>
<path style=" stroke:none;fill-rule:nonzero;fill:rgb(0%,0%,0%);fill-opacity:1;" d="M 146.464844 207.222656 L 146.464844 209.296875 L 148.933594 209.296875 L 148.933594 210.226562 L 146.464844 210.226562 L 146.464844 214.183594 C 146.464844 214.78125 146.546875 215.160156 146.710938 215.332031 C 146.871094 215.5 147.203125 215.585938 147.703125 215.585938 L 148.933594 215.585938 L 148.933594 216.585938 L 147.703125 216.585938 C 146.777344 216.585938 146.140625 216.414062 145.789062 216.070312 C 145.4375 215.722656 145.261719 215.097656 145.261719 214.183594 L 145.261719 210.226562 L 144.382812 210.226562 L 144.382812 209.296875 L 145.261719 209.296875 L 145.261719 207.222656 Z M 146.464844 207.222656 "/>
<path style=" stroke:none;fill-rule:nonzero;fill:rgb(0%,0%,0%);fill-opacity:1;" d="M 150.507812 209.296875 L 151.707031 209.296875 L 151.707031 216.585938 L 150.507812 216.585938 Z M 150.507812 206.457031 L 151.707031 206.457031 L 151.707031 207.972656 L 150.507812 207.972656 Z M 150.507812 206.457031 "/>
<path style=" stroke:none;fill-rule:nonzero;fill:rgb(0%,0%,0%);fill-opacity:1;" d="M 158.859375 209.511719 L 158.859375 210.644531 C 158.523438 210.46875 158.171875 210.339844 157.808594 210.253906 C 157.441406 210.167969 157.066406 210.121094 156.671875 210.121094 C 156.078125 210.121094 155.632812 210.214844 155.335938 210.394531 C 155.039062 210.578125 154.890625 210.851562 154.890625 211.214844 C 154.890625 211.492188 154.996094 211.710938 155.207031 211.871094 C 155.421875 212.027344 155.847656 212.179688 156.492188 212.324219 L 156.902344 212.414062 C 157.753906 212.597656 158.355469 212.851562 158.714844 213.183594 C 159.074219 213.515625 159.253906 213.980469 159.253906 214.574219 C 159.253906 215.253906 158.984375 215.789062 158.449219 216.183594 C 157.914062 216.578125 157.175781 216.777344 156.238281 216.777344 C 155.847656 216.777344 155.441406 216.738281 155.015625 216.660156 C 154.59375 216.585938 154.148438 216.472656 153.679688 216.320312 L 153.679688 215.082031 C 154.121094 215.3125 154.558594 215.488281 154.988281 215.601562 C 155.417969 215.714844 155.84375 215.773438 156.265625 215.773438 C 156.828125 215.773438 157.261719 215.675781 157.566406 215.484375 C 157.871094 215.289062 158.019531 215.019531 158.019531 214.667969 C 158.019531 214.339844 157.910156 214.09375 157.691406 213.917969 C 157.472656 213.746094 156.992188 213.578125 156.25 213.417969 L 155.832031 213.316406 C 155.09375 213.164062 154.554688 212.921875 154.226562 212.597656 C 153.894531 212.277344 153.730469 211.832031 153.730469 211.269531 C 153.730469 210.582031 153.976562 210.054688 154.460938 209.679688 C 154.945312 209.308594 155.636719 209.121094 156.53125 209.121094 C 156.972656 209.121094 157.390625 209.152344 157.78125 209.21875 C 158.171875 209.28125 158.53125 209.378906 158.859375 209.511719 Z M 158.859375 209.511719 "/>
<path style=" stroke:none;fill-rule:nonzero;fill:rgb(0%,0%,0%);fill-opacity:1;" d="M 162.34375 207.222656 L 162.34375 209.296875 L 164.8125 209.296875 L 164.8125 210.226562 L 162.34375 210.226562 L 162.34375 214.183594 C 162.34375 214.78125 162.425781 215.160156 162.589844 215.332031 C 162.75 215.5 163.082031 215.585938 163.582031 215.585938 L 164.8125 215.585938 L 164.8125 216.585938 L 163.582031 216.585938 C 162.65625 216.585938 162.019531 216.414062 161.667969 216.070312 C 161.316406 215.722656 161.140625 215.097656 161.140625 214.183594 L 161.140625 210.226562 L 160.261719 210.226562 L 160.261719 209.296875 L 161.140625 209.296875 L 161.140625 207.222656 Z M 162.34375 207.222656 "/>
<path style=" stroke:none;fill-rule:nonzero;fill:rgb(0%,0%,0%);fill-opacity:1;" d="M 172.625 212.640625 L 172.625 213.226562 L 167.117188 213.226562 C 167.167969 214.050781 167.417969 214.679688 167.863281 215.113281 C 168.308594 215.542969 168.925781 215.761719 169.722656 215.761719 C 170.179688 215.761719 170.625 215.703125 171.058594 215.589844 C 171.492188 215.480469 171.917969 215.308594 172.347656 215.082031 L 172.347656 216.214844 C 171.914062 216.398438 171.472656 216.535156 171.023438 216.632812 C 170.570312 216.730469 170.113281 216.777344 169.648438 216.777344 C 168.484375 216.777344 167.566406 216.4375 166.886719 215.761719 C 166.207031 215.085938 165.867188 214.167969 165.867188 213.011719 C 165.867188 211.820312 166.1875 210.871094 166.832031 210.171875 C 167.476562 209.472656 168.347656 209.121094 169.441406 209.121094 C 170.421875 209.121094 171.199219 209.4375 171.769531 210.066406 C 172.339844 210.699219 172.625 211.554688 172.625 212.640625 Z M 171.425781 212.289062 C 171.417969 211.636719 171.234375 211.113281 170.878906 210.722656 C 170.519531 210.332031 170.042969 210.136719 169.453125 210.136719 C 168.785156 210.136719 168.25 210.324219 167.851562 210.703125 C 167.449219 211.078125 167.21875 211.613281 167.15625 212.296875 Z M 171.425781 212.289062 "/>
<path style=" stroke:none;fill-rule:nonzero;fill:rgb(0%,0%,0%);fill-opacity:1;" d="M 175.75 215.492188 L 175.75 219.359375 L 174.542969 219.359375 L 174.542969 209.296875 L 175.75 209.296875 L 175.75 210.402344 C 176 209.96875 176.320312 209.648438 176.703125 209.4375 C 177.085938 209.226562 177.546875 209.121094 178.082031 209.121094 C 178.964844 209.121094 179.6875 209.472656 180.238281 210.175781 C 180.792969 210.878906 181.070312 211.800781 181.070312 212.949219 C 181.070312 214.09375 180.792969 215.019531 180.238281 215.722656 C 179.6875 216.425781 178.964844 216.777344 178.082031 216.777344 C 177.546875 216.777344 177.085938 216.671875 176.703125 216.460938 C 176.320312 216.25 176 215.925781 175.75 215.492188 Z M 179.824219 212.949219 C 179.824219 212.066406 179.644531 211.375 179.28125 210.875 C 178.917969 210.375 178.421875 210.121094 177.789062 210.121094 C 177.152344 210.121094 176.65625 210.375 176.292969 210.875 C 175.929688 211.375 175.75 212.066406 175.75 212.949219 C 175.75 213.828125 175.929688 214.519531 176.292969 215.019531 C 176.65625 215.523438 177.152344 215.773438 177.789062 215.773438 C 178.421875 215.773438 178.917969 215.523438 179.28125 215.019531 C 179.644531 214.519531 179.824219 213.828125 179.824219 212.949219 Z M 179.824219 212.949219 "/>
<path style=" stroke:none;fill-rule:nonzero;fill:rgb(0%,0%,0%);fill-opacity:1;" d="M 188.449219 215.492188 L 188.449219 219.359375 L 187.246094 219.359375 L 187.246094 209.296875 L 188.449219 209.296875 L 188.449219 210.402344 C 188.703125 209.96875 189.023438 209.648438 189.40625 209.4375 C 189.789062 209.226562 190.25 209.121094 190.78125 209.121094 C 191.667969 209.121094 192.386719 209.472656 192.941406 210.175781 C 193.496094 210.878906 193.773438 211.800781 193.773438 212.949219 C 193.773438 214.09375 193.496094 215.019531 192.941406 215.722656 C 192.386719 216.425781 191.667969 216.777344 190.78125 216.777344 C 190.25 216.777344 189.789062 216.671875 189.40625 216.460938 C 189.023438 216.25 188.703125 215.925781 188.449219 215.492188 Z M 192.527344 212.949219 C 192.527344 212.066406 192.347656 211.375 191.984375 210.875 C 191.621094 210.375 191.125 210.121094 190.492188 210.121094 C 189.855469 210.121094 189.355469 210.375 188.996094 210.875 C 188.632812 211.375 188.449219 212.066406 188.449219 212.949219 C 188.449219 213.828125 188.632812 214.519531 188.996094 215.019531 C 189.355469 215.523438 189.855469 215.773438 190.492188 215.773438 C 191.125 215.773438 191.621094 215.523438 191.984375 215.019531 C 192.347656 214.519531 192.527344 213.828125 192.527344 212.949219 Z M 192.527344 212.949219 "/>
<path style=" stroke:none;fill-rule:nonzero;fill:rgb(0%,0%,0%);fill-opacity:1;" d="M 199.980469 210.414062 C 199.847656 210.335938 199.699219 210.28125 199.542969 210.242188 C 199.382812 210.207031 199.207031 210.1875 199.019531 210.1875 C 198.339844 210.1875 197.820312 210.40625 197.457031 210.847656 C 197.09375 211.289062 196.914062 211.921875 196.914062 212.746094 L 196.914062 216.585938 L 195.710938 216.585938 L 195.710938 209.296875 L 196.914062 209.296875 L 196.914062 210.429688 C 197.167969 209.984375 197.496094 209.65625 197.898438 209.441406 C 198.300781 209.226562 198.792969 209.121094 199.371094 209.121094 C 199.453125 209.121094 199.542969 209.125 199.644531 209.136719 C 199.742188 209.148438 199.855469 209.164062 199.976562 209.183594 Z M 199.980469 210.414062 "/>
<path style=" stroke:none;fill-rule:nonzero;fill:rgb(0%,0%,0%);fill-opacity:1;" d="M 207.175781 212.640625 L 207.175781 213.226562 L 201.667969 213.226562 C 201.71875 214.050781 201.96875 214.679688 202.414062 215.113281 C 202.855469 215.542969 203.476562 215.761719 204.269531 215.761719 C 204.730469 215.761719 205.175781 215.703125 205.609375 215.589844 C 206.039062 215.480469 206.46875 215.308594 206.894531 215.082031 L 206.894531 216.214844 C 206.464844 216.398438 206.023438 216.535156 205.574219 216.632812 C 205.121094 216.730469 204.664062 216.777344 204.199219 216.777344 C 203.035156 216.777344 202.113281 216.4375 201.4375 215.761719 C 200.757812 215.085938 200.417969 214.167969 200.417969 213.011719 C 200.417969 211.820312 200.738281 210.871094 201.382812 210.171875 C 202.027344 209.472656 202.898438 209.121094 203.992188 209.121094 C 204.972656 209.121094 205.75 209.4375 206.320312 210.066406 C 206.890625 210.699219 207.175781 211.554688 207.175781 212.640625 Z M 205.976562 212.289062 C 205.96875 211.636719 205.785156 211.113281 205.425781 210.722656 C 205.070312 210.332031 204.59375 210.136719 204.003906 210.136719 C 203.335938 210.136719 202.800781 210.324219 202.398438 210.703125 C 202 211.078125 201.769531 211.613281 201.707031 212.296875 Z M 205.976562 212.289062 "/>
<path style=" stroke:none;fill-rule:nonzero;fill:rgb(0%,0%,0%);fill-opacity:1;" d="M 213.9375 210.402344 L 213.9375 206.457031 L 215.136719 206.457031 L 215.136719 216.585938 L 213.9375 216.585938 L 213.9375 215.492188 C 213.6875 215.925781 213.371094 216.25 212.984375 216.460938 C 212.601562 216.671875 212.140625 216.777344 211.601562 216.777344 C 210.722656 216.777344 210.003906 216.425781 209.449219 215.722656 C 208.894531 215.019531 208.621094 214.09375 208.621094 212.949219 C 208.621094 211.800781 208.894531 210.878906 209.449219 210.175781 C 210.003906 209.472656 210.722656 209.121094 211.601562 209.121094 C 212.140625 209.121094 212.601562 209.226562 212.984375 209.4375 C 213.371094 209.648438 213.6875 209.96875 213.9375 210.402344 Z M 209.859375 212.949219 C 209.859375 213.828125 210.039062 214.519531 210.402344 215.019531 C 210.765625 215.523438 211.261719 215.773438 211.894531 215.773438 C 212.527344 215.773438 213.027344 215.523438 213.390625 215.019531 C 213.757812 214.519531 213.9375 213.828125 213.9375 212.949219 C 213.9375 212.066406 213.757812 211.375 213.390625 210.875 C 213.027344 210.375 212.527344 210.121094 211.894531 210.121094 C 211.261719 210.121094 210.765625 210.375 210.402344 210.875 C 210.039062 211.375 209.859375 212.066406 209.859375 212.949219 Z M 209.859375 212.949219 "/>
<path style=" stroke:none;fill-rule:nonzero;fill:rgb(0%,0%,0%);fill-opacity:1;" d="M 222.253906 209.511719 L 222.253906 210.644531 C 221.914062 210.46875 221.5625 210.339844 221.199219 210.253906 C 220.835938 210.167969 220.457031 210.121094 220.066406 210.121094 C 219.46875 210.121094 219.023438 210.214844 218.726562 210.394531 C 218.429688 210.578125 218.28125 210.851562 218.28125 211.214844 C 218.28125 211.492188 218.386719 211.710938 218.601562 211.871094 C 218.8125 212.027344 219.242188 212.179688 219.882812 212.324219 L 220.292969 212.414062 C 221.144531 212.597656 221.75 212.851562 222.105469 213.183594 C 222.464844 213.515625 222.644531 213.980469 222.644531 214.574219 C 222.644531 215.253906 222.375 215.789062 221.839844 216.183594 C 221.304688 216.578125 220.566406 216.777344 219.628906 216.777344 C 219.238281 216.777344 218.832031 216.738281 218.410156 216.660156 C 217.984375 216.585938 217.539062 216.472656 217.070312 216.320312 L 217.070312 215.082031 C 217.515625 215.3125 217.949219 215.488281 218.378906 215.601562 C 218.808594 215.714844 219.234375 215.773438 219.65625 215.773438 C 220.21875 215.773438 220.652344 215.675781 220.957031 215.484375 C 221.261719 215.289062 221.414062 215.019531 221.414062 214.667969 C 221.414062 214.339844 221.304688 214.09375 221.082031 213.917969 C 220.867188 213.746094 220.386719 213.578125 219.640625 213.417969 L 219.226562 213.316406 C 218.484375 213.164062 217.949219 212.921875 217.617188 212.597656 C 217.289062 212.277344 217.125 211.832031 217.125 211.269531 C 217.125 210.582031 217.367188 210.054688 217.851562 209.679688 C 218.339844 209.308594 219.027344 209.121094 219.921875 209.121094 C 220.363281 209.121094 220.78125 209.152344 221.171875 209.21875 C 221.5625 209.28125 221.921875 209.378906 222.253906 209.511719 Z M 222.253906 209.511719 "/>
</g>
</svg>
