<?xml version="1.0" encoding="UTF-8"?>
<svg xmlns="http://www.w3.org/2000/svg" xmlns:xlink="http://www.w3.org/1999/xlink" width="322.862508" height="244.474996" viewBox="0 0 322.862508 244.474996" version="1.1">
<defs>
<clipPath id="clip1">
  <path d="M 99 133 L 309.019531 133 L 309.019531 181 L 99 181 Z M 99 133 "/>
</clipPath>
<filter id="alpha" filterUnits="objectBoundingBox" x="0%" y="0%" width="100%" height="100%">
  <feColorMatrix type="matrix" in="SourceGraphic" values="0 0 0 0 1 0 0 0 0 1 0 0 0 0 1 0 0 0 1 0"/>
</filter>
<mask id="mask0">
  <g filter="url(#alpha)">
<rect x="0" y="0" width="322.862508" height="244.474996" style="fill:rgb(0%,0%,0%);fill-opacity:0.8;stroke:none;"/>
  </g>
</mask>
<clipPath id="clip2">
  <rect x="0" y="0" width="323" height="245"/>
</clipPath>
<g id="surface5" clip-path="url(#clip2)">
<path style="fill-rule:nonzero;fill:rgb(100%,100%,100%);fill-opacity:1;stroke-width:1;stroke-linecap:butt;stroke-linejoin:miter;stroke:rgb(80.000001%,80.000001%,80.000001%);stroke-opacity:1;stroke-miterlimit:4;" d="M 145.174805 45.111328 L 224.765625 45.111328 C 226.098633 45.111328 226.766602 44.446289 226.766602 43.113281 L 226.766602 14.200195 C 226.766602 12.867187 226.098633 12.199219 224.765625 12.199219 L 145.174805 12.199219 C 143.841797 12.199219 143.173828 12.867187 143.173828 14.200195 L 143.173828 43.113281 C 143.173828 44.446289 143.841797 45.111328 145.174805 45.111328 Z M 145.174805 45.111328 " transform="matrix(1.333333,0,0,1.333333,0,0.000000000000014211)"/>
</g>
</defs>
<g id="surface1">
<path style=" stroke:none;fill-rule:nonzero;fill:rgb(100%,100%,100%);fill-opacity:1;" d="M 0 244.476562 L 322.863281 244.476562 L 322.863281 0 L 0 0 Z M 0 244.476562 "/>
<path style=" stroke:none;fill-rule:nonzero;fill:rgb(100%,100%,100%);fill-opacity:1;" d="M 48.621094 194.398438 L 309.019531 194.398438 L 309.019531 9.601562 L 48.621094 9.601562 Z M 48.621094 194.398438 "/>
<path style="fill:none;stroke-width:0.8;stroke-linecap:butt;stroke-linejoin:round;stroke:rgb(0%,0%,0%);stroke-opacity:1;stroke-miterlimit:4;" d="M 0.00019455 -0.00117493 L 0.00019455 3.499802 " transform="matrix(1.333333,0,0,1.333333,48.620834,194.400004)"/>
<path style=" stroke:none;fill-rule:nonzero;fill:rgb(0%,0%,0%);fill-opacity:1;" d="M 48.617188 205.011719 C 47.941406 205.011719 47.429688 205.34375 47.089844 206.011719 C 46.75 206.675781 46.578125 207.675781 46.578125 209.015625 C 46.578125 210.347656 46.75 211.347656 47.089844 212.011719 C 47.429688 212.679688 47.941406 213.011719 48.617188 213.011719 C 49.296875 213.011719 49.808594 212.679688 50.148438 212.011719 C 50.492188 211.347656 50.664062 210.347656 50.664062 209.015625 C 50.664062 207.675781 50.492188 206.675781 50.148438 206.011719 C 49.808594 205.34375 49.296875 205.011719 48.617188 205.011719 Z M 48.617188 203.96875 C 49.707031 203.96875 50.539062 204.398438 51.113281 205.261719 C 51.691406 206.125 51.976562 207.375 51.976562 209.015625 C 51.976562 210.652344 51.691406 211.898438 51.113281 212.761719 C 50.539062 213.625 49.707031 214.054688 48.617188 214.054688 C 47.527344 214.054688 46.695312 213.625 46.121094 212.761719 C 45.546875 211.898438 45.257812 210.652344 45.257812 209.015625 C 45.257812 207.375 45.546875 206.125 46.121094 205.261719 C 46.695312 204.398438 47.527344 203.96875 48.617188 203.96875 Z M 48.617188 203.96875 "/>
<path style="fill:none;stroke-width:0.8;stroke-linecap:butt;stroke-linejoin:round;stroke:rgb(0%,0%,0%);stroke-opacity:1;stroke-miterlimit:4;" d="M -0.00121307 -0.00117493 L -0.00121307 3.499802 " transform="matrix(1.333333,0,0,1.333333,100.700836,194.400004)"/>
<path style=" stroke:none;fill-rule:nonzero;fill:rgb(0%,0%,0%);fill-opacity:1;" d="M 98.113281 212.757812 L 100.261719 212.757812 L 100.261719 205.339844 L 97.921875 205.808594 L 97.921875 204.613281 L 100.25 204.144531 L 101.5625 204.144531 L 101.5625 212.757812 L 103.710938 212.757812 L 103.710938 213.863281 L 98.113281 213.863281 Z M 98.113281 212.757812 "/>
<path style="fill:none;stroke-width:0.8;stroke-linecap:butt;stroke-linejoin:round;stroke:rgb(0%,0%,0%);stroke-opacity:1;stroke-miterlimit:4;" d="M 0.000312805 -0.00117493 L 0.000312805 3.499802 " transform="matrix(1.333333,0,0,1.333333,152.780833,194.400004)"/>
<path style=" stroke:none;fill-rule:nonzero;fill:rgb(0%,0%,0%);fill-opacity:1;" d="M 151.097656 212.757812 L 155.6875 212.757812 L 155.6875 213.863281 L 149.515625 213.863281 L 149.515625 212.757812 C 150.015625 212.242188 150.695312 211.546875 151.554688 210.679688 C 152.417969 209.808594 152.960938 209.246094 153.179688 208.992188 C 153.601562 208.523438 153.894531 208.121094 154.0625 207.792969 C 154.230469 207.464844 154.3125 207.144531 154.3125 206.828125 C 154.3125 206.308594 154.132812 205.890625 153.769531 205.566406 C 153.40625 205.238281 152.9375 205.074219 152.355469 205.074219 C 151.941406 205.074219 151.503906 205.148438 151.046875 205.289062 C 150.589844 205.433594 150.101562 205.648438 149.582031 205.941406 L 149.582031 204.613281 C 150.109375 204.398438 150.605469 204.238281 151.0625 204.132812 C 151.523438 204.023438 151.945312 203.96875 152.328125 203.96875 C 153.335938 203.96875 154.136719 204.222656 154.738281 204.726562 C 155.335938 205.226562 155.636719 205.898438 155.636719 206.742188 C 155.636719 207.140625 155.558594 207.519531 155.410156 207.878906 C 155.261719 208.234375 154.988281 208.65625 154.59375 209.144531 C 154.484375 209.269531 154.140625 209.632812 153.558594 210.234375 C 152.976562 210.835938 152.15625 211.679688 151.097656 212.757812 Z M 151.097656 212.757812 "/>
<path style="fill:none;stroke-width:0.8;stroke-linecap:butt;stroke-linejoin:round;stroke:rgb(0%,0%,0%);stroke-opacity:1;stroke-miterlimit:4;" d="M -0.00109863 -0.00117493 L -0.00109863 3.499802 " transform="matrix(1.333333,0,0,1.333333,204.86084,194.400004)"/>
<path style=" stroke:none;fill-rule:nonzero;fill:rgb(0%,0%,0%);fill-opacity:1;" d="M 206.03125 208.621094 C 206.660156 208.757812 207.148438 209.039062 207.503906 209.464844 C 207.855469 209.890625 208.035156 210.414062 208.035156 211.039062 C 208.035156 211.996094 207.703125 212.742188 207.042969 213.265625 C 206.382812 213.792969 205.445312 214.054688 204.230469 214.054688 C 203.824219 214.054688 203.40625 214.015625 202.972656 213.933594 C 202.542969 213.851562 202.09375 213.730469 201.636719 213.570312 L 201.636719 212.300781 C 202 212.515625 202.398438 212.675781 202.832031 212.785156 C 203.265625 212.890625 203.71875 212.945312 204.195312 212.945312 C 205.019531 212.945312 205.644531 212.785156 206.078125 212.457031 C 206.507812 212.132812 206.726562 211.660156 206.726562 211.039062 C 206.726562 210.464844 206.523438 210.019531 206.125 209.695312 C 205.722656 209.371094 205.164062 209.210938 204.449219 209.210938 L 203.316406 209.210938 L 203.316406 208.128906 L 204.5 208.128906 C 205.144531 208.128906 205.640625 208 205.984375 207.742188 C 206.328125 207.484375 206.5 207.109375 206.5 206.625 C 206.5 206.125 206.320312 205.742188 205.96875 205.476562 C 205.613281 205.210938 205.109375 205.074219 204.449219 205.074219 C 204.085938 205.074219 203.699219 205.113281 203.289062 205.195312 C 202.875 205.273438 202.421875 205.390625 201.925781 205.554688 L 201.925781 204.386719 C 202.425781 204.246094 202.894531 204.140625 203.332031 204.074219 C 203.769531 204.003906 204.179688 203.96875 204.566406 203.96875 C 205.5625 203.96875 206.351562 204.195312 206.933594 204.648438 C 207.515625 205.101562 207.808594 205.714844 207.808594 206.488281 C 207.808594 207.027344 207.652344 207.480469 207.34375 207.851562 C 207.035156 208.222656 206.597656 208.480469 206.03125 208.621094 Z M 206.03125 208.621094 "/>
<path style="fill:none;stroke-width:0.8;stroke-linecap:butt;stroke-linejoin:round;stroke:rgb(0%,0%,0%);stroke-opacity:1;stroke-miterlimit:4;" d="M 0.000427246 -0.00117493 L 0.000427246 3.499802 " transform="matrix(1.333333,0,0,1.333333,256.940837,194.400004)"/>
<path style=" stroke:none;fill-rule:nonzero;fill:rgb(0%,0%,0%);fill-opacity:1;" d="M 257.738281 205.289062 L 254.417969 210.480469 L 257.738281 210.480469 Z M 257.394531 204.144531 L 259.046875 204.144531 L 259.046875 210.480469 L 260.433594 210.480469 L 260.433594 211.574219 L 259.046875 211.574219 L 259.046875 213.863281 L 257.738281 213.863281 L 257.738281 211.574219 L 253.351562 211.574219 L 253.351562 210.304688 Z M 257.394531 204.144531 "/>
<path style="fill:none;stroke-width:0.8;stroke-linecap:butt;stroke-linejoin:round;stroke:rgb(0%,0%,0%);stroke-opacity:1;stroke-miterlimit:4;" d="M -0.000976562 -0.00117493 L -0.000976562 3.499802 " transform="matrix(1.333333,0,0,1.333333,309.020833,194.400004)"/>
<path style=" stroke:none;fill-rule:nonzero;fill:rgb(0%,0%,0%);fill-opacity:1;" d="M 306.21875 204.144531 L 311.382812 204.144531 L 311.382812 205.253906 L 307.421875 205.253906 L 307.421875 207.632812 C 307.613281 207.566406 307.804688 207.519531 307.992188 207.488281 C 308.183594 207.457031 308.378906 207.441406 308.570312 207.441406 C 309.652344 207.441406 310.511719 207.738281 311.144531 208.332031 C 311.78125 208.925781 312.097656 209.730469 312.097656 210.746094 C 312.097656 211.792969 311.773438 212.605469 311.121094 213.183594 C 310.46875 213.765625 309.550781 214.054688 308.367188 214.054688 C 307.957031 214.054688 307.542969 214.019531 307.117188 213.949219 C 306.695312 213.878906 306.257812 213.777344 305.808594 213.636719 L 305.808594 212.316406 C 306.199219 212.527344 306.601562 212.683594 307.019531 212.789062 C 307.433594 212.894531 307.875 212.945312 308.339844 212.945312 C 309.089844 212.945312 309.683594 212.75 310.121094 212.355469 C 310.5625 211.960938 310.78125 211.421875 310.78125 210.746094 C 310.78125 210.070312 310.5625 209.535156 310.121094 209.140625 C 309.683594 208.742188 309.089844 208.546875 308.339844 208.546875 C 307.988281 208.546875 307.636719 208.585938 307.289062 208.664062 C 306.9375 208.742188 306.582031 208.863281 306.21875 209.027344 Z M 306.21875 204.144531 "/>
<path style=" stroke:none;fill-rule:nonzero;fill:rgb(0%,0%,0%);fill-opacity:1;" d="M 166.011719 228.15625 L 166.011719 228.742188 L 160.503906 228.742188 C 160.554688 229.566406 160.804688 230.195312 161.246094 230.628906 C 161.691406 231.058594 162.3125 231.273438 163.105469 231.273438 C 163.566406 231.273438 164.011719 231.21875 164.445312 231.105469 C 164.875 230.992188 165.304688 230.824219 165.730469 230.597656 L 165.730469 231.730469 C 165.300781 231.914062 164.859375 232.050781 164.410156 232.148438 C 163.957031 232.242188 163.5 232.292969 163.035156 232.292969 C 161.871094 232.292969 160.949219 231.953125 160.269531 231.277344 C 159.589844 230.597656 159.253906 229.683594 159.253906 228.527344 C 159.253906 227.335938 159.574219 226.386719 160.21875 225.6875 C 160.863281 224.984375 161.734375 224.636719 162.828125 224.636719 C 163.808594 224.636719 164.582031 224.953125 165.152344 225.582031 C 165.726562 226.214844 166.011719 227.070312 166.011719 228.15625 Z M 164.8125 227.804688 C 164.804688 227.148438 164.621094 226.628906 164.261719 226.238281 C 163.902344 225.847656 163.429688 225.648438 162.839844 225.648438 C 162.171875 225.648438 161.636719 225.839844 161.234375 226.214844 C 160.835938 226.59375 160.601562 227.125 160.542969 227.8125 Z M 164.8125 227.804688 "/>
<path style=" stroke:none;fill-rule:nonzero;fill:rgb(0%,0%,0%);fill-opacity:1;" d="M 169.132812 231.007812 L 169.132812 234.875 L 167.929688 234.875 L 167.929688 224.808594 L 169.132812 224.808594 L 169.132812 225.917969 C 169.386719 225.484375 169.707031 225.160156 170.089844 224.953125 C 170.472656 224.742188 170.933594 224.636719 171.464844 224.636719 C 172.351562 224.636719 173.070312 224.988281 173.625 225.691406 C 174.179688 226.390625 174.457031 227.316406 174.457031 228.460938 C 174.457031 229.609375 174.179688 230.535156 173.625 231.238281 C 173.070312 231.941406 172.351562 232.292969 171.464844 232.292969 C 170.933594 232.292969 170.472656 232.1875 170.089844 231.976562 C 169.707031 231.765625 169.386719 231.441406 169.132812 231.007812 Z M 173.210938 228.460938 C 173.210938 227.582031 173.03125 226.890625 172.667969 226.390625 C 172.304688 225.886719 171.808594 225.636719 171.175781 225.636719 C 170.539062 225.636719 170.039062 225.886719 169.679688 226.390625 C 169.316406 226.890625 169.132812 227.582031 169.132812 228.460938 C 169.132812 229.34375 169.316406 230.035156 169.679688 230.535156 C 170.039062 231.035156 170.539062 231.289062 171.175781 231.289062 C 171.808594 231.289062 172.304688 231.035156 172.667969 230.535156 C 173.03125 230.035156 173.210938 229.34375 173.210938 228.460938 Z M 173.210938 228.460938 "/>
<path style=" stroke:none;fill-rule:nonzero;fill:rgb(0%,0%,0%);fill-opacity:1;" d="M 179.265625 225.648438 C 178.621094 225.648438 178.117188 225.902344 177.742188 226.402344 C 177.367188 226.902344 177.179688 227.589844 177.179688 228.460938 C 177.179688 229.335938 177.367188 230.023438 177.738281 230.523438 C 178.109375 231.023438 178.617188 231.273438 179.265625 231.273438 C 179.902344 231.273438 180.410156 231.023438 180.78125 230.519531 C 181.15625 230.015625 181.339844 229.332031 181.339844 228.460938 C 181.339844 227.597656 181.15625 226.914062 180.78125 226.410156 C 180.410156 225.902344 179.902344 225.648438 179.265625 225.648438 Z M 179.265625 224.636719 C 180.304688 224.636719 181.125 224.972656 181.71875 225.652344 C 182.316406 226.328125 182.613281 227.265625 182.613281 228.460938 C 182.613281 229.65625 182.316406 230.59375 181.71875 231.273438 C 181.125 231.953125 180.304688 232.292969 179.265625 232.292969 C 178.21875 232.292969 177.398438 231.953125 176.804688 231.273438 C 176.214844 230.59375 175.917969 229.65625 175.917969 228.460938 C 175.917969 227.265625 176.214844 226.328125 176.804688 225.652344 C 177.398438 224.972656 178.21875 224.636719 179.265625 224.636719 Z M 179.265625 224.636719 "/>
<path style=" stroke:none;fill-rule:nonzero;fill:rgb(0%,0%,0%);fill-opacity:1;" d="M 189.84375 225.089844 L 189.84375 226.210938 C 189.507812 226.023438 189.167969 225.882812 188.828125 225.789062 C 188.484375 225.695312 188.140625 225.648438 187.796875 225.648438 C 187.015625 225.648438 186.414062 225.898438 185.984375 226.390625 C 185.554688 226.882812 185.339844 227.570312 185.339844 228.460938 C 185.339844 229.351562 185.554688 230.042969 185.984375 230.539062 C 186.414062 231.027344 187.015625 231.273438 187.796875 231.273438 C 188.140625 231.273438 188.484375 231.226562 188.828125 231.136719 C 189.167969 231.042969 189.507812 230.902344 189.84375 230.714844 L 189.84375 231.824219 C 189.511719 231.976562 189.164062 232.09375 188.804688 232.171875 C 188.449219 232.253906 188.066406 232.292969 187.664062 232.292969 C 186.566406 232.292969 185.691406 231.945312 185.046875 231.257812 C 184.398438 230.566406 184.078125 229.632812 184.078125 228.460938 C 184.078125 227.273438 184.402344 226.339844 185.054688 225.660156 C 185.710938 224.976562 186.605469 224.636719 187.742188 224.636719 C 188.109375 224.636719 188.472656 224.671875 188.820312 224.75 C 189.171875 224.824219 189.515625 224.9375 189.84375 225.089844 Z M 189.84375 225.089844 "/>
<path style=" stroke:none;fill-rule:nonzero;fill:rgb(0%,0%,0%);fill-opacity:1;" d="M 197.992188 227.699219 L 197.992188 232.101562 L 196.792969 232.101562 L 196.792969 227.738281 C 196.792969 227.050781 196.65625 226.535156 196.386719 226.191406 C 196.117188 225.847656 195.714844 225.675781 195.179688 225.675781 C 194.53125 225.675781 194.019531 225.882812 193.648438 226.296875 C 193.273438 226.707031 193.085938 227.269531 193.085938 227.980469 L 193.085938 232.101562 L 191.882812 232.101562 L 191.882812 221.972656 L 193.085938 221.972656 L 193.085938 225.945312 C 193.375 225.503906 193.710938 225.175781 194.097656 224.960938 C 194.488281 224.742188 194.9375 224.636719 195.445312 224.636719 C 196.28125 224.636719 196.914062 224.894531 197.34375 225.414062 C 197.773438 225.929688 197.992188 226.691406 197.992188 227.699219 Z M 197.992188 227.699219 "/>
<path style="fill:none;stroke-width:0.8;stroke-linecap:butt;stroke-linejoin:round;stroke:rgb(0%,0%,0%);stroke-opacity:1;stroke-miterlimit:4;" d="M 0.00019455 -0.00111389 L -3.500782 -0.00111389 " transform="matrix(1.333333,0,0,1.333333,48.620834,183.970235)"/>
<path style=" stroke:none;fill-rule:nonzero;fill:rgb(0%,0%,0%);fill-opacity:1;" d="M 13.835938 180.183594 C 13.160156 180.183594 12.652344 180.515625 12.308594 181.183594 C 11.96875 181.847656 11.800781 182.847656 11.800781 184.1875 C 11.800781 185.519531 11.96875 186.515625 12.308594 187.183594 C 12.652344 187.851562 13.160156 188.183594 13.835938 188.183594 C 14.519531 188.183594 15.03125 187.851562 15.371094 187.183594 C 15.710938 186.515625 15.882812 185.519531 15.882812 184.1875 C 15.882812 182.847656 15.710938 181.847656 15.371094 181.183594 C 15.03125 180.515625 14.519531 180.183594 13.835938 180.183594 Z M 13.835938 179.140625 C 14.929688 179.140625 15.761719 179.570312 16.335938 180.433594 C 16.910156 181.292969 17.199219 182.546875 17.199219 184.1875 C 17.199219 185.820312 16.910156 187.070312 16.335938 187.933594 C 15.761719 188.792969 14.929688 189.226562 13.835938 189.226562 C 12.75 189.226562 11.917969 188.792969 11.339844 187.933594 C 10.765625 187.070312 10.480469 185.820312 10.480469 184.1875 C 10.480469 182.546875 10.765625 181.292969 11.339844 180.433594 C 11.917969 179.570312 12.75 179.140625 13.835938 179.140625 Z M 13.835938 179.140625 "/>
<path style=" stroke:none;fill-rule:nonzero;fill:rgb(0%,0%,0%);fill-opacity:1;" d="M 19.507812 187.382812 L 20.882812 187.382812 L 20.882812 189.035156 L 19.507812 189.035156 Z M 19.507812 187.382812 "/>
<path style=" stroke:none;fill-rule:nonzero;fill:rgb(0%,0%,0%);fill-opacity:1;" d="M 26.558594 180.183594 C 25.882812 180.183594 25.375 180.515625 25.03125 181.183594 C 24.691406 181.847656 24.519531 182.847656 24.519531 184.1875 C 24.519531 185.519531 24.691406 186.515625 25.03125 187.183594 C 25.375 187.851562 25.882812 188.183594 26.558594 188.183594 C 27.242188 188.183594 27.75 187.851562 28.09375 187.183594 C 28.433594 186.515625 28.605469 185.519531 28.605469 184.1875 C 28.605469 182.847656 28.433594 181.847656 28.09375 181.183594 C 27.75 180.515625 27.242188 180.183594 26.558594 180.183594 Z M 26.558594 179.140625 C 27.648438 179.140625 28.480469 179.570312 29.058594 180.433594 C 29.632812 181.292969 29.917969 182.546875 29.917969 184.1875 C 29.917969 185.820312 29.632812 187.070312 29.058594 187.933594 C 28.480469 188.792969 27.648438 189.226562 26.558594 189.226562 C 25.46875 189.226562 24.636719 188.792969 24.0625 187.933594 C 23.488281 187.070312 23.199219 185.820312 23.199219 184.1875 C 23.199219 182.546875 23.488281 181.292969 24.0625 180.433594 C 24.636719 179.570312 25.46875 179.140625 26.558594 179.140625 Z M 26.558594 179.140625 "/>
<path style=" stroke:none;fill-rule:nonzero;fill:rgb(0%,0%,0%);fill-opacity:1;" d="M 32.242188 179.316406 L 37.40625 179.316406 L 37.40625 180.421875 L 33.449219 180.421875 L 33.449219 182.804688 C 33.636719 182.738281 33.828125 182.691406 34.019531 182.660156 C 34.210938 182.625 34.402344 182.609375 34.59375 182.609375 C 35.679688 182.609375 36.539062 182.90625 37.171875 183.503906 C 37.804688 184.097656 38.125 184.902344 38.125 185.917969 C 38.125 186.964844 37.796875 187.777344 37.144531 188.355469 C 36.496094 188.9375 35.578125 189.226562 34.390625 189.226562 C 33.984375 189.226562 33.566406 189.191406 33.144531 189.121094 C 32.722656 189.050781 32.285156 188.949219 31.832031 188.808594 L 31.832031 187.484375 C 32.222656 187.699219 32.628906 187.855469 33.042969 187.960938 C 33.460938 188.066406 33.902344 188.117188 34.363281 188.117188 C 35.117188 188.117188 35.710938 187.917969 36.148438 187.527344 C 36.585938 187.132812 36.804688 186.59375 36.804688 185.917969 C 36.804688 185.242188 36.585938 184.707031 36.148438 184.3125 C 35.710938 183.914062 35.117188 183.71875 34.363281 183.71875 C 34.011719 183.71875 33.664062 183.757812 33.3125 183.832031 C 32.964844 183.910156 32.609375 184.03125 32.242188 184.199219 Z M 32.242188 179.316406 "/>
<path style="fill:none;stroke-width:0.8;stroke-linecap:butt;stroke-linejoin:round;stroke:rgb(0%,0%,0%);stroke-opacity:1;stroke-miterlimit:4;" d="M 0.00019455 -0.000968933 L -3.500782 -0.000968933 " transform="matrix(1.333333,0,0,1.333333,48.620834,150.481761)"/>
<path style=" stroke:none;fill-rule:nonzero;fill:rgb(0%,0%,0%);fill-opacity:1;" d="M 13.835938 146.691406 C 13.160156 146.691406 12.652344 147.027344 12.308594 147.691406 C 11.96875 148.359375 11.800781 149.359375 11.800781 150.699219 C 11.800781 152.03125 11.96875 153.027344 12.308594 153.695312 C 12.652344 154.363281 13.160156 154.695312 13.835938 154.695312 C 14.519531 154.695312 15.03125 154.363281 15.371094 153.695312 C 15.710938 153.027344 15.882812 152.03125 15.882812 150.699219 C 15.882812 149.359375 15.710938 148.359375 15.371094 147.691406 C 15.03125 147.027344 14.519531 146.691406 13.835938 146.691406 Z M 13.835938 145.652344 C 14.929688 145.652344 15.761719 146.082031 16.335938 146.945312 C 16.910156 147.804688 17.199219 149.058594 17.199219 150.699219 C 17.199219 152.332031 16.910156 153.582031 16.335938 154.445312 C 15.761719 155.304688 14.929688 155.738281 13.835938 155.738281 C 12.75 155.738281 11.917969 155.304688 11.339844 154.445312 C 10.765625 153.582031 10.480469 152.332031 10.480469 150.699219 C 10.480469 149.058594 10.765625 147.804688 11.339844 146.945312 C 11.917969 146.082031 12.75 145.652344 13.835938 145.652344 Z M 13.835938 145.652344 "/>
<path style=" stroke:none;fill-rule:nonzero;fill:rgb(0%,0%,0%);fill-opacity:1;" d="M 19.507812 153.894531 L 20.882812 153.894531 L 20.882812 155.546875 L 19.507812 155.546875 Z M 19.507812 153.894531 "/>
<path style=" stroke:none;fill-rule:nonzero;fill:rgb(0%,0%,0%);fill-opacity:1;" d="M 23.976562 154.441406 L 26.125 154.441406 L 26.125 147.023438 L 23.785156 147.492188 L 23.785156 146.296875 L 26.109375 145.828125 L 27.425781 145.828125 L 27.425781 154.441406 L 29.574219 154.441406 L 29.574219 155.546875 L 23.976562 155.546875 Z M 23.976562 154.441406 "/>
<path style=" stroke:none;fill-rule:nonzero;fill:rgb(0%,0%,0%);fill-opacity:1;" d="M 35.042969 146.691406 C 34.367188 146.691406 33.855469 147.027344 33.515625 147.691406 C 33.175781 148.359375 33.003906 149.359375 33.003906 150.699219 C 33.003906 152.03125 33.175781 153.027344 33.515625 153.695312 C 33.855469 154.363281 34.367188 154.695312 35.042969 154.695312 C 35.722656 154.695312 36.234375 154.363281 36.574219 153.695312 C 36.917969 153.027344 37.085938 152.03125 37.085938 150.699219 C 37.085938 149.359375 36.917969 148.359375 36.574219 147.691406 C 36.234375 147.027344 35.722656 146.691406 35.042969 146.691406 Z M 35.042969 145.652344 C 36.132812 145.652344 36.964844 146.082031 37.539062 146.945312 C 38.113281 147.804688 38.402344 149.058594 38.402344 150.699219 C 38.402344 152.332031 38.113281 153.582031 37.539062 154.445312 C 36.964844 155.304688 36.132812 155.738281 35.042969 155.738281 C 33.953125 155.738281 33.121094 155.304688 32.546875 154.445312 C 31.972656 153.582031 31.683594 152.332031 31.683594 150.699219 C 31.683594 149.058594 31.972656 147.804688 32.546875 146.945312 C 33.121094 146.082031 33.953125 145.652344 35.042969 145.652344 Z M 35.042969 145.652344 "/>
<path style="fill:none;stroke-width:0.8;stroke-linecap:butt;stroke-linejoin:round;stroke:rgb(0%,0%,0%);stroke-opacity:1;stroke-miterlimit:4;" d="M 0.00019455 -0.000808716 L -3.500782 -0.000808716 " transform="matrix(1.333333,0,0,1.333333,48.620834,116.993266)"/>
<path style=" stroke:none;fill-rule:nonzero;fill:rgb(0%,0%,0%);fill-opacity:1;" d="M 13.835938 113.203125 C 13.160156 113.203125 12.652344 113.539062 12.308594 114.203125 C 11.96875 114.871094 11.800781 115.871094 11.800781 117.207031 C 11.800781 118.539062 11.96875 119.539062 12.308594 120.207031 C 12.652344 120.875 13.160156 121.207031 13.835938 121.207031 C 14.519531 121.207031 15.03125 120.875 15.371094 120.207031 C 15.710938 119.539062 15.882812 118.539062 15.882812 117.207031 C 15.882812 115.871094 15.710938 114.871094 15.371094 114.203125 C 15.03125 113.539062 14.519531 113.203125 13.835938 113.203125 Z M 13.835938 112.164062 C 14.929688 112.164062 15.761719 112.59375 16.335938 113.457031 C 16.910156 114.316406 17.199219 115.570312 17.199219 117.207031 C 17.199219 118.84375 16.910156 120.09375 16.335938 120.957031 C 15.761719 121.816406 14.929688 122.25 13.835938 122.25 C 12.75 122.25 11.917969 121.816406 11.339844 120.957031 C 10.765625 120.09375 10.480469 118.84375 10.480469 117.207031 C 10.480469 115.570312 10.765625 114.316406 11.339844 113.457031 C 11.917969 112.59375 12.75 112.164062 13.835938 112.164062 Z M 13.835938 112.164062 "/>
<path style=" stroke:none;fill-rule:nonzero;fill:rgb(0%,0%,0%);fill-opacity:1;" d="M 19.507812 120.40625 L 20.882812 120.40625 L 20.882812 122.058594 L 19.507812 122.058594 Z M 19.507812 120.40625 "/>
<path style=" stroke:none;fill-rule:nonzero;fill:rgb(0%,0%,0%);fill-opacity:1;" d="M 23.976562 120.953125 L 26.125 120.953125 L 26.125 113.535156 L 23.785156 114.003906 L 23.785156 112.808594 L 26.109375 112.339844 L 27.425781 112.339844 L 27.425781 120.953125 L 29.574219 120.953125 L 29.574219 122.058594 L 23.976562 122.058594 Z M 23.976562 120.953125 "/>
<path style=" stroke:none;fill-rule:nonzero;fill:rgb(0%,0%,0%);fill-opacity:1;" d="M 32.242188 112.339844 L 37.40625 112.339844 L 37.40625 113.445312 L 33.449219 113.445312 L 33.449219 115.828125 C 33.636719 115.761719 33.828125 115.714844 34.019531 115.683594 C 34.210938 115.648438 34.402344 115.632812 34.59375 115.632812 C 35.679688 115.632812 36.539062 115.929688 37.171875 116.527344 C 37.804688 117.121094 38.125 117.925781 38.125 118.941406 C 38.125 119.984375 37.796875 120.800781 37.144531 121.378906 C 36.496094 121.957031 35.578125 122.25 34.390625 122.25 C 33.984375 122.25 33.566406 122.214844 33.144531 122.144531 C 32.722656 122.074219 32.285156 121.972656 31.832031 121.832031 L 31.832031 120.507812 C 32.222656 120.722656 32.628906 120.878906 33.042969 120.984375 C 33.460938 121.089844 33.902344 121.140625 34.363281 121.140625 C 35.117188 121.140625 35.710938 120.941406 36.148438 120.546875 C 36.585938 120.152344 36.804688 119.617188 36.804688 118.941406 C 36.804688 118.265625 36.585938 117.726562 36.148438 117.332031 C 35.710938 116.9375 35.117188 116.738281 34.363281 116.738281 C 34.011719 116.738281 33.664062 116.777344 33.3125 116.855469 C 32.964844 116.933594 32.609375 117.054688 32.242188 117.222656 Z M 32.242188 112.339844 "/>
<path style="fill:none;stroke-width:0.8;stroke-linecap:butt;stroke-linejoin:round;stroke:rgb(0%,0%,0%);stroke-opacity:1;stroke-miterlimit:4;" d="M 0.00019455 -0.000656128 L -3.500782 -0.000656128 " transform="matrix(1.333333,0,0,1.333333,48.620834,83.504781)"/>
<path style=" stroke:none;fill-rule:nonzero;fill:rgb(0%,0%,0%);fill-opacity:1;" d="M 13.835938 79.714844 C 13.160156 79.714844 12.652344 80.050781 12.308594 80.714844 C 11.96875 81.382812 11.800781 82.382812 11.800781 83.71875 C 11.800781 85.050781 11.96875 86.050781 12.308594 86.71875 C 12.652344 87.386719 13.160156 87.71875 13.835938 87.71875 C 14.519531 87.71875 15.03125 87.386719 15.371094 86.71875 C 15.710938 86.050781 15.882812 85.050781 15.882812 83.71875 C 15.882812 82.382812 15.710938 81.382812 15.371094 80.714844 C 15.03125 80.050781 14.519531 79.714844 13.835938 79.714844 Z M 13.835938 78.675781 C 14.929688 78.675781 15.761719 79.105469 16.335938 79.96875 C 16.910156 80.828125 17.199219 82.082031 17.199219 83.71875 C 17.199219 85.355469 16.910156 86.605469 16.335938 87.46875 C 15.761719 88.328125 14.929688 88.761719 13.835938 88.761719 C 12.75 88.761719 11.917969 88.328125 11.339844 87.46875 C 10.765625 86.605469 10.480469 85.355469 10.480469 83.71875 C 10.480469 82.082031 10.765625 80.828125 11.339844 79.96875 C 11.917969 79.105469 12.75 78.675781 13.835938 78.675781 Z M 13.835938 78.675781 "/>
<path style=" stroke:none;fill-rule:nonzero;fill:rgb(0%,0%,0%);fill-opacity:1;" d="M 19.507812 86.917969 L 20.882812 86.917969 L 20.882812 88.570312 L 19.507812 88.570312 Z M 19.507812 86.917969 "/>
<path style=" stroke:none;fill-rule:nonzero;fill:rgb(0%,0%,0%);fill-opacity:1;" d="M 24.878906 87.464844 L 29.46875 87.464844 L 29.46875 88.570312 L 23.296875 88.570312 L 23.296875 87.464844 C 23.796875 86.949219 24.476562 86.253906 25.339844 85.386719 C 26.199219 84.515625 26.742188 83.953125 26.964844 83.699219 C 27.382812 83.226562 27.675781 82.828125 27.84375 82.5 C 28.011719 82.171875 28.097656 81.847656 28.097656 81.53125 C 28.097656 81.015625 27.914062 80.59375 27.550781 80.269531 C 27.191406 79.945312 26.71875 79.78125 26.136719 79.78125 C 25.722656 79.78125 25.289062 79.851562 24.828125 79.996094 C 24.371094 80.136719 23.882812 80.355469 23.363281 80.648438 L 23.363281 79.316406 C 23.890625 79.105469 24.386719 78.945312 24.847656 78.835938 C 25.308594 78.730469 25.730469 78.675781 26.109375 78.675781 C 27.117188 78.675781 27.921875 78.925781 28.519531 79.429688 C 29.117188 79.933594 29.417969 80.605469 29.417969 81.449219 C 29.417969 81.847656 29.34375 82.226562 29.191406 82.585938 C 29.042969 82.941406 28.769531 83.363281 28.375 83.847656 C 28.265625 83.976562 27.921875 84.339844 27.339844 84.941406 C 26.757812 85.542969 25.9375 86.382812 24.878906 87.464844 Z M 24.878906 87.464844 "/>
<path style=" stroke:none;fill-rule:nonzero;fill:rgb(0%,0%,0%);fill-opacity:1;" d="M 35.042969 79.714844 C 34.367188 79.714844 33.855469 80.050781 33.515625 80.714844 C 33.175781 81.382812 33.003906 82.382812 33.003906 83.71875 C 33.003906 85.050781 33.175781 86.050781 33.515625 86.71875 C 33.855469 87.386719 34.367188 87.71875 35.042969 87.71875 C 35.722656 87.71875 36.234375 87.386719 36.574219 86.71875 C 36.917969 86.050781 37.085938 85.050781 37.085938 83.71875 C 37.085938 82.382812 36.917969 81.382812 36.574219 80.714844 C 36.234375 80.050781 35.722656 79.714844 35.042969 79.714844 Z M 35.042969 78.675781 C 36.132812 78.675781 36.964844 79.105469 37.539062 79.96875 C 38.113281 80.828125 38.402344 82.082031 38.402344 83.71875 C 38.402344 85.355469 38.113281 86.605469 37.539062 87.46875 C 36.964844 88.328125 36.132812 88.761719 35.042969 88.761719 C 33.953125 88.761719 33.121094 88.328125 32.546875 87.46875 C 31.972656 86.605469 31.683594 85.355469 31.683594 83.71875 C 31.683594 82.082031 31.972656 80.828125 32.546875 79.96875 C 33.121094 79.105469 33.953125 78.675781 35.042969 78.675781 Z M 35.042969 78.675781 "/>
<path style="fill:none;stroke-width:0.8;stroke-linecap:butt;stroke-linejoin:round;stroke:rgb(0%,0%,0%);stroke-opacity:1;stroke-miterlimit:4;" d="M 0.00019455 -0.00050354 L -3.500782 -0.00050354 " transform="matrix(1.333333,0,0,1.333333,48.620834,50.016296)"/>
<path style=" stroke:none;fill-rule:nonzero;fill:rgb(0%,0%,0%);fill-opacity:1;" d="M 13.835938 46.226562 C 13.160156 46.226562 12.652344 46.5625 12.308594 47.226562 C 11.96875 47.894531 11.800781 48.894531 11.800781 50.230469 C 11.800781 51.5625 11.96875 52.5625 12.308594 53.230469 C 12.652344 53.898438 13.160156 54.230469 13.835938 54.230469 C 14.519531 54.230469 15.03125 53.898438 15.371094 53.230469 C 15.710938 52.5625 15.882812 51.5625 15.882812 50.230469 C 15.882812 48.894531 15.710938 47.894531 15.371094 47.226562 C 15.03125 46.5625 14.519531 46.226562 13.835938 46.226562 Z M 13.835938 45.1875 C 14.929688 45.1875 15.761719 45.617188 16.335938 46.480469 C 16.910156 47.339844 17.199219 48.589844 17.199219 50.230469 C 17.199219 51.867188 16.910156 53.117188 16.335938 53.980469 C 15.761719 54.839844 14.929688 55.273438 13.835938 55.273438 C 12.75 55.273438 11.917969 54.839844 11.339844 53.980469 C 10.765625 53.117188 10.480469 51.867188 10.480469 50.230469 C 10.480469 48.589844 10.765625 47.339844 11.339844 46.480469 C 11.917969 45.617188 12.75 45.1875 13.835938 45.1875 Z M 13.835938 45.1875 "/>
<path style=" stroke:none;fill-rule:nonzero;fill:rgb(0%,0%,0%);fill-opacity:1;" d="M 19.507812 53.429688 L 20.882812 53.429688 L 20.882812 55.082031 L 19.507812 55.082031 Z M 19.507812 53.429688 "/>
<path style=" stroke:none;fill-rule:nonzero;fill:rgb(0%,0%,0%);fill-opacity:1;" d="M 24.878906 53.976562 L 29.46875 53.976562 L 29.46875 55.082031 L 23.296875 55.082031 L 23.296875 53.976562 C 23.796875 53.460938 24.476562 52.765625 25.339844 51.898438 C 26.199219 51.027344 26.742188 50.464844 26.964844 50.210938 C 27.382812 49.738281 27.675781 49.339844 27.84375 49.011719 C 28.011719 48.683594 28.097656 48.359375 28.097656 48.042969 C 28.097656 47.527344 27.914062 47.105469 27.550781 46.78125 C 27.191406 46.457031 26.71875 46.292969 26.136719 46.292969 C 25.722656 46.292969 25.289062 46.363281 24.828125 46.507812 C 24.371094 46.648438 23.882812 46.867188 23.363281 47.160156 L 23.363281 45.828125 C 23.890625 45.617188 24.386719 45.457031 24.847656 45.347656 C 25.308594 45.242188 25.730469 45.1875 26.109375 45.1875 C 27.117188 45.1875 27.921875 45.4375 28.519531 45.941406 C 29.117188 46.445312 29.417969 47.117188 29.417969 47.960938 C 29.417969 48.359375 29.34375 48.738281 29.191406 49.097656 C 29.042969 49.453125 28.769531 49.875 28.375 50.359375 C 28.265625 50.488281 27.921875 50.851562 27.339844 51.453125 C 26.757812 52.054688 25.9375 52.894531 24.878906 53.976562 Z M 24.878906 53.976562 "/>
<path style=" stroke:none;fill-rule:nonzero;fill:rgb(0%,0%,0%);fill-opacity:1;" d="M 32.242188 45.359375 L 37.40625 45.359375 L 37.40625 46.46875 L 33.449219 46.46875 L 33.449219 48.851562 C 33.636719 48.785156 33.828125 48.738281 34.019531 48.703125 C 34.210938 48.671875 34.402344 48.65625 34.59375 48.65625 C 35.679688 48.65625 36.539062 48.953125 37.171875 49.546875 C 37.804688 50.144531 38.125 50.949219 38.125 51.964844 C 38.125 53.007812 37.796875 53.820312 37.144531 54.402344 C 36.496094 54.980469 35.578125 55.273438 34.390625 55.273438 C 33.984375 55.273438 33.566406 55.238281 33.144531 55.167969 C 32.722656 55.097656 32.285156 54.992188 31.832031 54.855469 L 31.832031 53.53125 C 32.222656 53.746094 32.628906 53.902344 33.042969 54.007812 C 33.460938 54.109375 33.902344 54.164062 34.363281 54.164062 C 35.117188 54.164062 35.710938 53.964844 36.148438 53.570312 C 36.585938 53.175781 36.804688 52.640625 36.804688 51.964844 C 36.804688 51.285156 36.585938 50.75 36.148438 50.355469 C 35.710938 49.960938 35.117188 49.761719 34.363281 49.761719 C 34.011719 49.761719 33.664062 49.800781 33.3125 49.878906 C 32.964844 49.957031 32.609375 50.078125 32.242188 50.246094 Z M 32.242188 45.359375 "/>
<path style="fill:none;stroke-width:0.8;stroke-linecap:butt;stroke-linejoin:round;stroke:rgb(0%,0%,0%);stroke-opacity:1;stroke-miterlimit:4;" d="M 0.00019455 -0.000348091 L -3.500782 -0.000348091 " transform="matrix(1.333333,0,0,1.333333,48.620834,16.527808)"/>
<path style=" stroke:none;fill-rule:nonzero;fill:rgb(0%,0%,0%);fill-opacity:1;" d="M 13.835938 12.738281 C 13.160156 12.738281 12.652344 13.074219 12.308594 13.738281 C 11.96875 14.40625 11.800781 15.40625 11.800781 16.742188 C 11.800781 18.074219 11.96875 19.074219 12.308594 19.742188 C 12.652344 20.40625 13.160156 20.742188 13.835938 20.742188 C 14.519531 20.742188 15.03125 20.40625 15.371094 19.742188 C 15.710938 19.074219 15.882812 18.074219 15.882812 16.742188 C 15.882812 15.40625 15.710938 14.40625 15.371094 13.738281 C 15.03125 13.074219 14.519531 12.738281 13.835938 12.738281 Z M 13.835938 11.699219 C 14.929688 11.699219 15.761719 12.128906 16.335938 12.992188 C 16.910156 13.851562 17.199219 15.101562 17.199219 16.742188 C 17.199219 18.378906 16.910156 19.628906 16.335938 20.492188 C 15.761719 21.351562 14.929688 21.78125 13.835938 21.78125 C 12.75 21.78125 11.917969 21.351562 11.339844 20.492188 C 10.765625 19.628906 10.480469 18.378906 10.480469 16.742188 C 10.480469 15.101562 10.765625 13.851562 11.339844 12.992188 C 11.917969 12.128906 12.75 11.699219 13.835938 11.699219 Z M 13.835938 11.699219 "/>
<path style=" stroke:none;fill-rule:nonzero;fill:rgb(0%,0%,0%);fill-opacity:1;" d="M 19.507812 19.9375 L 20.882812 19.9375 L 20.882812 21.59375 L 19.507812 21.59375 Z M 19.507812 19.9375 "/>
<path style=" stroke:none;fill-rule:nonzero;fill:rgb(0%,0%,0%);fill-opacity:1;" d="M 27.730469 16.351562 C 28.359375 16.488281 28.851562 16.765625 29.203125 17.195312 C 29.558594 17.617188 29.734375 18.144531 29.734375 18.769531 C 29.734375 19.726562 29.40625 20.46875 28.746094 20.996094 C 28.085938 21.519531 27.148438 21.78125 25.933594 21.78125 C 25.527344 21.78125 25.109375 21.742188 24.675781 21.664062 C 24.242188 21.582031 23.796875 21.460938 23.339844 21.300781 L 23.339844 20.03125 C 23.703125 20.242188 24.101562 20.402344 24.535156 20.511719 C 24.96875 20.621094 25.421875 20.675781 25.894531 20.675781 C 26.71875 20.675781 27.347656 20.511719 27.78125 20.1875 C 28.210938 19.863281 28.425781 19.390625 28.425781 18.769531 C 28.425781 18.195312 28.226562 17.746094 27.824219 17.425781 C 27.425781 17.101562 26.867188 16.9375 26.152344 16.9375 L 25.015625 16.9375 L 25.015625 15.859375 L 26.203125 15.859375 C 26.847656 15.859375 27.34375 15.730469 27.6875 15.46875 C 28.027344 15.210938 28.199219 14.839844 28.199219 14.355469 C 28.199219 13.855469 28.023438 13.472656 27.667969 13.207031 C 27.316406 12.9375 26.808594 12.804688 26.152344 12.804688 C 25.789062 12.804688 25.402344 12.84375 24.988281 12.921875 C 24.578125 13 24.125 13.121094 23.628906 13.285156 L 23.628906 12.113281 C 24.128906 11.976562 24.597656 11.871094 25.035156 11.800781 C 25.46875 11.730469 25.882812 11.699219 26.265625 11.699219 C 27.265625 11.699219 28.054688 11.925781 28.636719 12.378906 C 29.21875 12.832031 29.507812 13.445312 29.507812 14.214844 C 29.507812 14.753906 29.355469 15.210938 29.046875 15.582031 C 28.738281 15.953125 28.300781 16.207031 27.730469 16.351562 Z M 27.730469 16.351562 "/>
<path style=" stroke:none;fill-rule:nonzero;fill:rgb(0%,0%,0%);fill-opacity:1;" d="M 35.042969 12.738281 C 34.367188 12.738281 33.855469 13.074219 33.515625 13.738281 C 33.175781 14.40625 33.003906 15.40625 33.003906 16.742188 C 33.003906 18.074219 33.175781 19.074219 33.515625 19.742188 C 33.855469 20.40625 34.367188 20.742188 35.042969 20.742188 C 35.722656 20.742188 36.234375 20.40625 36.574219 19.742188 C 36.917969 19.074219 37.085938 18.074219 37.085938 16.742188 C 37.085938 15.40625 36.917969 14.40625 36.574219 13.738281 C 36.234375 13.074219 35.722656 12.738281 35.042969 12.738281 Z M 35.042969 11.699219 C 36.132812 11.699219 36.964844 12.128906 37.539062 12.992188 C 38.113281 13.851562 38.402344 15.101562 38.402344 16.742188 C 38.402344 18.378906 38.113281 19.628906 37.539062 20.492188 C 36.964844 21.351562 36.132812 21.78125 35.042969 21.78125 C 33.953125 21.78125 33.121094 21.351562 32.546875 20.492188 C 31.972656 19.628906 31.683594 18.378906 31.683594 16.742188 C 31.683594 15.101562 31.972656 13.851562 32.546875 12.992188 C 33.121094 12.128906 33.953125 11.699219 35.042969 11.699219 Z M 35.042969 11.699219 "/>
<path style="fill:none;stroke-width:1.5;stroke-linecap:square;stroke-linejoin:round;stroke:rgb(12.156863%,46.666667%,70.588237%);stroke-opacity:1;stroke-miterlimit:4;" d="M 45.714844 13.5 L 45.717773 13.5 M 45.717773 13.5 " transform="matrix(1.333333,0,0,1.333333,0,0.000000000000014211)"/>
<path style="fill:none;stroke-width:1.5;stroke-linecap:square;stroke-linejoin:round;stroke:rgb(12.156863%,46.666667%,70.588237%);stroke-opacity:1;stroke-miterlimit:4;" d="M 45.717773 13.5 L 65.24707 97.289062 " transform="matrix(1.333333,0,0,1.333333,0,0.000000000000014211)"/>
<path style="fill:none;stroke-width:1.5;stroke-linecap:square;stroke-linejoin:round;stroke:rgb(12.156863%,46.666667%,70.588237%);stroke-opacity:1;stroke-miterlimit:4;" d="M 45.717773 13.5 L 65.24707 97.289062 " transform="matrix(1.333333,0,0,1.333333,0,0.000000000000014211)"/>
<path style="fill:none;stroke-width:1.5;stroke-linecap:square;stroke-linejoin:round;stroke:rgb(12.156863%,46.666667%,70.588237%);stroke-opacity:1;stroke-miterlimit:4;" d="M 45.717773 13.5 L 65.24707 97.289062 L 84.776367 125.15918 " transform="matrix(1.333333,0,0,1.333333,0,0.000000000000014211)"/>
<path style="fill:none;stroke-width:1.5;stroke-linecap:square;stroke-linejoin:round;stroke:rgb(12.156863%,46.666667%,70.588237%);stroke-opacity:1;stroke-miterlimit:4;" d="M 45.717773 13.5 L 65.24707 97.289062 L 84.776367 125.15918 L 104.305664 127.974609 " transform="matrix(1.333333,0,0,1.333333,0,0.000000000000014211)"/>
<path style="fill:none;stroke-width:1.5;stroke-linecap:square;stroke-linejoin:round;stroke:rgb(12.156863%,46.666667%,70.588237%);stroke-opacity:1;stroke-miterlimit:4;" d="M 45.717773 13.5 L 65.24707 97.289062 L 84.776367 125.15918 L 104.305664 127.974609 " transform="matrix(1.333333,0,0,1.333333,0,0.000000000000014211)"/>
<path style="fill:none;stroke-width:1.5;stroke-linecap:butt;stroke-linejoin:round;stroke:rgb(100%,49.803922%,5.490196%);stroke-opacity:1;stroke-dasharray:5.55,2.4;stroke-miterlimit:4;" d="M 75.524414 100.637695 L 114.585938 128.135742 " transform="matrix(1.333333,0,0,1.333333,0,0.000000000000014211)"/>
<path style="fill:none;stroke-width:1.5;stroke-linecap:square;stroke-linejoin:round;stroke:rgb(12.156863%,46.666667%,70.588237%);stroke-opacity:1;stroke-miterlimit:4;" d="M 45.717773 13.5 L 65.24707 97.289062 L 84.776367 125.15918 L 104.305664 127.974609 L 123.837891 135.290039 " transform="matrix(1.333333,0,0,1.333333,0,0.000000000000014211)"/>
<path style="fill:none;stroke-width:1.5;stroke-linecap:butt;stroke-linejoin:round;stroke:rgb(100%,49.803922%,5.490196%);stroke-opacity:1;stroke-dasharray:5.55,2.4;stroke-miterlimit:4;" d="M 75.524414 100.637695 L 114.585938 128.135742 " transform="matrix(1.333333,0,0,1.333333,0,0.000000000000014211)"/>
<path style="fill:none;stroke-width:1.5;stroke-linecap:square;stroke-linejoin:round;stroke:rgb(12.156863%,46.666667%,70.588237%);stroke-opacity:1;stroke-miterlimit:4;" d="M 45.717773 13.5 L 65.24707 97.289062 L 84.776367 125.15918 L 104.305664 127.974609 L 123.837891 135.290039 L 143.367188 135.597656 " transform="matrix(1.333333,0,0,1.333333,0,0.000000000000014211)"/>
<path style="fill:none;stroke-width:1.5;stroke-linecap:butt;stroke-linejoin:round;stroke:rgb(100%,49.803922%,5.490196%);stroke-opacity:1;stroke-dasharray:5.55,2.4;stroke-miterlimit:4;" d="M 75.524414 100.637695 L 114.585938 128.135742 " transform="matrix(1.333333,0,0,1.333333,0,0.000000000000014211)"/>
<path style="fill:none;stroke-width:1.5;stroke-linecap:square;stroke-linejoin:round;stroke:rgb(12.156863%,46.666667%,70.588237%);stroke-opacity:1;stroke-miterlimit:4;" d="M 45.717773 13.5 L 65.24707 97.289062 L 84.776367 125.15918 L 104.305664 127.974609 L 123.837891 135.290039 L 143.367188 135.597656 " transform="matrix(1.333333,0,0,1.333333,0,0.000000000000014211)"/>
<path style="fill:none;stroke-width:1.5;stroke-linecap:butt;stroke-linejoin:round;stroke:rgb(100%,49.803922%,5.490196%);stroke-opacity:1;stroke-dasharray:5.55,2.4;stroke-miterlimit:4;" d="M 75.524414 100.637695 L 114.585938 128.135742 L 153.644531 132.773438 " transform="matrix(1.333333,0,0,1.333333,0,0.000000000000014211)"/>
<path style="fill:none;stroke-width:1.5;stroke-linecap:square;stroke-linejoin:round;stroke:rgb(12.156863%,46.666667%,70.588237%);stroke-opacity:1;stroke-miterlimit:4;" d="M 45.717773 13.5 L 65.24707 97.289062 L 84.776367 125.15918 L 104.305664 127.974609 L 123.837891 135.290039 L 143.367188 135.597656 L 162.896484 137.367188 " transform="matrix(1.333333,0,0,1.333333,0,0.000000000000014211)"/>
<path style="fill:none;stroke-width:1.5;stroke-linecap:butt;stroke-linejoin:round;stroke:rgb(100%,49.803922%,5.490196%);stroke-opacity:1;stroke-dasharray:5.55,2.4;stroke-miterlimit:4;" d="M 75.524414 100.637695 L 114.585938 128.135742 L 153.644531 132.773438 " transform="matrix(1.333333,0,0,1.333333,0,0.000000000000014211)"/>
<path style="fill:none;stroke-width:1.5;stroke-linecap:square;stroke-linejoin:round;stroke:rgb(12.156863%,46.666667%,70.588237%);stroke-opacity:1;stroke-miterlimit:4;" d="M 45.717773 13.5 L 65.24707 97.289062 L 84.776367 125.15918 L 104.305664 127.974609 L 123.837891 135.290039 L 143.367188 135.597656 L 162.896484 137.367188 L 182.425781 137.557617 " transform="matrix(1.333333,0,0,1.333333,0,0.000000000000014211)"/>
<path style="fill:none;stroke-width:1.5;stroke-linecap:butt;stroke-linejoin:round;stroke:rgb(100%,49.803922%,5.490196%);stroke-opacity:1;stroke-dasharray:5.55,2.4;stroke-miterlimit:4;" d="M 75.524414 100.637695 L 114.585938 128.135742 L 153.644531 132.773438 " transform="matrix(1.333333,0,0,1.333333,0,0.000000000000014211)"/>
<path style="fill:none;stroke-width:1.5;stroke-linecap:square;stroke-linejoin:round;stroke:rgb(12.156863%,46.666667%,70.588237%);stroke-opacity:1;stroke-miterlimit:4;" d="M 45.717773 13.5 L 65.24707 97.289062 L 84.776367 125.15918 L 104.305664 127.974609 L 123.837891 135.290039 L 143.367188 135.597656 L 162.896484 137.367188 L 182.425781 137.557617 " transform="matrix(1.333333,0,0,1.333333,0,0.000000000000014211)"/>
<path style="fill:none;stroke-width:1.5;stroke-linecap:butt;stroke-linejoin:round;stroke:rgb(100%,49.803922%,5.490196%);stroke-opacity:1;stroke-dasharray:5.55,2.4;stroke-miterlimit:4;" d="M 75.524414 100.637695 L 114.585938 128.135742 L 153.644531 132.773438 L 192.706055 133.96875 " transform="matrix(1.333333,0,0,1.333333,0,0.000000000000014211)"/>
<path style="fill:none;stroke-width:1.5;stroke-linecap:square;stroke-linejoin:round;stroke:rgb(12.156863%,46.666667%,70.588237%);stroke-opacity:1;stroke-miterlimit:4;" d="M 45.717773 13.5 L 65.24707 97.289062 L 84.776367 125.15918 L 104.305664 127.974609 L 123.837891 135.290039 L 143.367188 135.597656 L 162.896484 137.367188 L 182.425781 137.557617 L 201.958008 139.5 " transform="matrix(1.333333,0,0,1.333333,0,0.000000000000014211)"/>
<path style="fill:none;stroke-width:1.5;stroke-linecap:butt;stroke-linejoin:round;stroke:rgb(100%,49.803922%,5.490196%);stroke-opacity:1;stroke-dasharray:5.55,2.4;stroke-miterlimit:4;" d="M 75.524414 100.637695 L 114.585938 128.135742 L 153.644531 132.773438 L 192.706055 133.96875 " transform="matrix(1.333333,0,0,1.333333,0,0.000000000000014211)"/>
<path style="fill:none;stroke-width:1.5;stroke-linecap:square;stroke-linejoin:round;stroke:rgb(12.156863%,46.666667%,70.588237%);stroke-opacity:1;stroke-miterlimit:4;" d="M 45.717773 13.5 L 65.24707 97.289062 L 84.776367 125.15918 L 104.305664 127.974609 L 123.837891 135.290039 L 143.367188 135.597656 L 162.896484 137.367188 L 182.425781 137.557617 L 201.958008 139.5 L 221.487305 136.095703 " transform="matrix(1.333333,0,0,1.333333,0,0.000000000000014211)"/>
<path style="fill:none;stroke-width:1.5;stroke-linecap:butt;stroke-linejoin:round;stroke:rgb(100%,49.803922%,5.490196%);stroke-opacity:1;stroke-dasharray:5.55,2.4;stroke-miterlimit:4;" d="M 75.524414 100.637695 L 114.585938 128.135742 L 153.644531 132.773438 L 192.706055 133.96875 " transform="matrix(1.333333,0,0,1.333333,0,0.000000000000014211)"/>
<path style="fill:none;stroke-width:1.5;stroke-linecap:square;stroke-linejoin:round;stroke:rgb(12.156863%,46.666667%,70.588237%);stroke-opacity:1;stroke-miterlimit:4;" d="M 45.717773 13.5 L 65.24707 97.289062 L 84.776367 125.15918 L 104.305664 127.974609 L 123.837891 135.290039 L 143.367188 135.597656 L 162.896484 137.367188 L 182.425781 137.557617 L 201.958008 139.5 L 221.487305 136.095703 " transform="matrix(1.333333,0,0,1.333333,0,0.000000000000014211)"/>
<g clip-path="url(#clip1)" clip-rule="nonzero">
<path style="fill:none;stroke-width:1.5;stroke-linecap:butt;stroke-linejoin:round;stroke:rgb(100%,49.803922%,5.490196%);stroke-opacity:1;stroke-dasharray:5.55,2.4;stroke-miterlimit:4;" d="M 75.524414 100.637695 L 114.585938 128.135742 L 153.644531 132.773438 L 192.706055 133.96875 L 231.764648 134.273438 " transform="matrix(1.333333,0,0,1.333333,0,0.000000000000014211)"/>
</g>
<path style="fill:none;stroke-width:0.8;stroke-linecap:square;stroke-linejoin:miter;stroke:rgb(0%,0%,0%);stroke-opacity:1;stroke-miterlimit:4;" d="M 36.46582 145.798828 L 36.46582 7.201172 " transform="matrix(1.333333,0,0,1.333333,0,0.000000000000014211)"/>
<path style="fill:none;stroke-width:0.8;stroke-linecap:square;stroke-linejoin:miter;stroke:rgb(0%,0%,0%);stroke-opacity:1;stroke-miterlimit:4;" d="M 231.764648 145.798828 L 231.764648 7.201172 " transform="matrix(1.333333,0,0,1.333333,0,0.000000000000014211)"/>
<path style="fill:none;stroke-width:0.8;stroke-linecap:square;stroke-linejoin:miter;stroke:rgb(0%,0%,0%);stroke-opacity:1;stroke-miterlimit:4;" d="M 36.46582 145.798828 L 231.764648 145.798828 " transform="matrix(1.333333,0,0,1.333333,0,0.000000000000014211)"/>
<path style="fill:none;stroke-width:0.8;stroke-linecap:square;stroke-linejoin:miter;stroke:rgb(0%,0%,0%);stroke-opacity:1;stroke-miterlimit:4;" d="M 36.46582 7.201172 L 231.764648 7.201172 " transform="matrix(1.333333,0,0,1.333333,0,0.000000000000014211)"/>
<use xlink:href="#surface5" mask="url(#mask0)"/>
<path style="fill:none;stroke-width:1.5;stroke-linecap:square;stroke-linejoin:round;stroke:rgb(12.156863%,46.666667%,70.588237%);stroke-opacity:1;stroke-miterlimit:4;" d="M 147.175781 20.299805 L 167.173828 20.299805 " transform="matrix(1.333333,0,0,1.333333,0,0.000000000000014211)"/>
<path style=" stroke:none;fill-rule:nonzero;fill:rgb(0%,0%,0%);fill-opacity:1;" d="M 236.007812 22.367188 L 236.007812 24.441406 L 238.476562 24.441406 L 238.476562 25.371094 L 236.007812 25.371094 L 236.007812 29.328125 C 236.007812 29.921875 236.089844 30.304688 236.253906 30.476562 C 236.414062 30.644531 236.746094 30.730469 237.246094 30.730469 L 238.476562 30.730469 L 238.476562 31.730469 L 237.246094 31.730469 C 236.320312 31.730469 235.683594 31.558594 235.332031 31.214844 C 234.980469 30.867188 234.804688 30.242188 234.804688 29.328125 L 234.804688 25.371094 L 233.925781 25.371094 L 233.925781 24.441406 L 234.804688 24.441406 L 234.804688 22.367188 Z M 236.007812 22.367188 "/>
<path style=" stroke:none;fill-rule:nonzero;fill:rgb(0%,0%,0%);fill-opacity:1;" d="M 244.277344 25.558594 C 244.140625 25.480469 243.996094 25.421875 243.835938 25.386719 C 243.679688 25.351562 243.503906 25.332031 243.3125 25.332031 C 242.636719 25.332031 242.117188 25.550781 241.753906 25.992188 C 241.390625 26.433594 241.210938 27.066406 241.210938 27.890625 L 241.210938 31.730469 L 240.003906 31.730469 L 240.003906 24.441406 L 241.210938 24.441406 L 241.210938 25.574219 C 241.460938 25.128906 241.789062 24.800781 242.191406 24.585938 C 242.597656 24.371094 243.085938 24.265625 243.664062 24.265625 C 243.746094 24.265625 243.839844 24.269531 243.9375 24.28125 C 244.039062 24.289062 244.148438 24.308594 244.269531 24.328125 Z M 244.277344 25.558594 "/>
<path style=" stroke:none;fill-rule:nonzero;fill:rgb(0%,0%,0%);fill-opacity:1;" d="M 248.847656 28.066406 C 247.878906 28.066406 247.207031 28.175781 246.835938 28.398438 C 246.460938 28.617188 246.273438 28.996094 246.273438 29.53125 C 246.273438 29.957031 246.414062 30.292969 246.695312 30.542969 C 246.976562 30.792969 247.355469 30.917969 247.835938 30.917969 C 248.503906 30.917969 249.035156 30.679688 249.4375 30.210938 C 249.839844 29.738281 250.039062 29.113281 250.039062 28.332031 L 250.039062 28.066406 Z M 251.238281 27.570312 L 251.238281 31.730469 L 250.039062 31.730469 L 250.039062 30.625 C 249.765625 31.066406 249.425781 31.394531 249.015625 31.605469 C 248.609375 31.816406 248.109375 31.921875 247.519531 31.921875 C 246.773438 31.921875 246.179688 31.710938 245.738281 31.292969 C 245.296875 30.871094 245.078125 30.3125 245.078125 29.609375 C 245.078125 28.789062 245.351562 28.171875 245.898438 27.753906 C 246.449219 27.335938 247.269531 27.128906 248.359375 27.128906 L 250.039062 27.128906 L 250.039062 27.011719 C 250.039062 26.460938 249.859375 26.03125 249.496094 25.730469 C 249.132812 25.429688 248.625 25.277344 247.96875 25.277344 C 247.550781 25.277344 247.144531 25.328125 246.75 25.429688 C 246.355469 25.527344 245.976562 25.679688 245.613281 25.878906 L 245.613281 24.769531 C 246.050781 24.601562 246.472656 24.476562 246.886719 24.390625 C 247.300781 24.308594 247.699219 24.265625 248.089844 24.265625 C 249.144531 24.265625 249.933594 24.539062 250.457031 25.085938 C 250.976562 25.632812 251.238281 26.460938 251.238281 27.570312 Z M 251.238281 27.570312 "/>
<path style=" stroke:none;fill-rule:nonzero;fill:rgb(0%,0%,0%);fill-opacity:1;" d="M 253.703125 24.441406 L 254.902344 24.441406 L 254.902344 31.730469 L 253.703125 31.730469 Z M 253.703125 21.601562 L 254.902344 21.601562 L 254.902344 23.117188 L 253.703125 23.117188 Z M 253.703125 21.601562 "/>
<path style=" stroke:none;fill-rule:nonzero;fill:rgb(0%,0%,0%);fill-opacity:1;" d="M 263.46875 27.328125 L 263.46875 31.730469 L 262.273438 31.730469 L 262.273438 27.367188 C 262.273438 26.679688 262.136719 26.164062 261.867188 25.820312 C 261.597656 25.476562 261.195312 25.304688 260.65625 25.304688 C 260.011719 25.304688 259.5 25.511719 259.125 25.925781 C 258.753906 26.335938 258.566406 26.898438 258.566406 27.609375 L 258.566406 31.730469 L 257.363281 31.730469 L 257.363281 24.441406 L 258.566406 24.441406 L 258.566406 25.574219 C 258.851562 25.132812 259.191406 24.804688 259.578125 24.589844 C 259.96875 24.371094 260.414062 24.265625 260.925781 24.265625 C 261.761719 24.265625 262.394531 24.523438 262.824219 25.042969 C 263.253906 25.558594 263.46875 26.320312 263.46875 27.328125 Z M 263.46875 27.328125 "/>
<path style=" stroke:none;fill-rule:nonzero;fill:rgb(0%,0%,0%);fill-opacity:1;" d="M 271.398438 33.945312 L 271.398438 34.875 L 264.46875 34.875 L 264.46875 33.945312 Z M 271.398438 33.945312 "/>
<path style=" stroke:none;fill-rule:nonzero;fill:rgb(0%,0%,0%);fill-opacity:1;" d="M 272.523438 21.601562 L 273.722656 21.601562 L 273.722656 31.730469 L 272.523438 31.730469 Z M 272.523438 21.601562 "/>
<path style=" stroke:none;fill-rule:nonzero;fill:rgb(0%,0%,0%);fill-opacity:1;" d="M 279.054688 25.277344 C 278.414062 25.277344 277.90625 25.53125 277.53125 26.03125 C 277.15625 26.53125 276.972656 27.21875 276.972656 28.089844 C 276.972656 28.964844 277.15625 29.652344 277.527344 30.152344 C 277.898438 30.652344 278.410156 30.902344 279.054688 30.902344 C 279.691406 30.902344 280.199219 30.652344 280.570312 30.148438 C 280.945312 29.644531 281.132812 28.960938 281.132812 28.089844 C 281.132812 27.226562 280.945312 26.542969 280.570312 26.039062 C 280.199219 25.53125 279.691406 25.277344 279.054688 25.277344 Z M 279.054688 24.265625 C 280.097656 24.265625 280.914062 24.601562 281.507812 25.28125 C 282.105469 25.957031 282.402344 26.894531 282.402344 28.089844 C 282.402344 29.285156 282.105469 30.222656 281.507812 30.902344 C 280.914062 31.582031 280.097656 31.921875 279.054688 31.921875 C 278.007812 31.921875 277.1875 31.582031 276.597656 30.902344 C 276.003906 30.222656 275.707031 29.285156 275.707031 28.089844 C 275.707031 26.894531 276.003906 25.957031 276.597656 25.28125 C 277.1875 24.601562 278.007812 24.265625 279.054688 24.265625 Z M 279.054688 24.265625 "/>
<path style=" stroke:none;fill-rule:nonzero;fill:rgb(0%,0%,0%);fill-opacity:1;" d="M 289.035156 24.652344 L 289.035156 25.789062 C 288.695312 25.613281 288.347656 25.484375 287.980469 25.398438 C 287.617188 25.308594 287.238281 25.265625 286.847656 25.265625 C 286.253906 25.265625 285.808594 25.359375 285.507812 25.539062 C 285.210938 25.722656 285.0625 25.996094 285.0625 26.359375 C 285.0625 26.636719 285.171875 26.855469 285.382812 27.015625 C 285.59375 27.171875 286.023438 27.324219 286.664062 27.464844 L 287.078125 27.558594 C 287.925781 27.742188 288.53125 27.996094 288.890625 28.328125 C 289.246094 28.660156 289.425781 29.125 289.425781 29.71875 C 289.425781 30.398438 289.160156 30.933594 288.621094 31.328125 C 288.085938 31.722656 287.347656 31.921875 286.410156 31.921875 C 286.019531 31.921875 285.613281 31.882812 285.191406 31.804688 C 284.765625 31.730469 284.320312 31.617188 283.851562 31.464844 L 283.851562 30.226562 C 284.296875 30.457031 284.734375 30.628906 285.160156 30.746094 C 285.589844 30.859375 286.015625 30.917969 286.4375 30.917969 C 287.003906 30.917969 287.4375 30.820312 287.738281 30.628906 C 288.042969 30.433594 288.195312 30.160156 288.195312 29.808594 C 288.195312 29.484375 288.085938 29.234375 287.867188 29.0625 C 287.648438 28.890625 287.167969 28.722656 286.425781 28.558594 L 286.007812 28.460938 C 285.265625 28.308594 284.730469 28.066406 284.398438 27.742188 C 284.070312 27.421875 283.90625 26.976562 283.90625 26.414062 C 283.90625 25.726562 284.148438 25.195312 284.632812 24.824219 C 285.121094 24.453125 285.8125 24.265625 286.707031 24.265625 C 287.148438 24.265625 287.5625 24.296875 287.953125 24.363281 C 288.34375 24.425781 288.707031 24.523438 289.035156 24.652344 Z M 289.035156 24.652344 "/>
<path style=" stroke:none;fill-rule:nonzero;fill:rgb(0%,0%,0%);fill-opacity:1;" d="M 295.980469 24.652344 L 295.980469 25.789062 C 295.644531 25.613281 295.292969 25.484375 294.925781 25.398438 C 294.5625 25.308594 294.183594 25.265625 293.792969 25.265625 C 293.199219 25.265625 292.753906 25.359375 292.457031 25.539062 C 292.160156 25.722656 292.011719 25.996094 292.011719 26.359375 C 292.011719 26.636719 292.117188 26.855469 292.328125 27.015625 C 292.542969 27.171875 292.96875 27.324219 293.613281 27.464844 L 294.023438 27.558594 C 294.871094 27.742188 295.476562 27.996094 295.835938 28.328125 C 296.195312 28.660156 296.371094 29.125 296.371094 29.71875 C 296.371094 30.398438 296.105469 30.933594 295.570312 31.328125 C 295.03125 31.722656 294.296875 31.921875 293.359375 31.921875 C 292.96875 31.921875 292.5625 31.882812 292.136719 31.804688 C 291.714844 31.730469 291.269531 31.617188 290.800781 31.464844 L 290.800781 30.226562 C 291.242188 30.457031 291.679688 30.628906 292.109375 30.746094 C 292.539062 30.859375 292.964844 30.917969 293.386719 30.917969 C 293.949219 30.917969 294.382812 30.820312 294.683594 30.628906 C 294.988281 30.433594 295.140625 30.160156 295.140625 29.808594 C 295.140625 29.484375 295.03125 29.234375 294.8125 29.0625 C 294.59375 28.890625 294.113281 28.722656 293.371094 28.558594 L 292.953125 28.460938 C 292.210938 28.308594 291.675781 28.066406 291.347656 27.742188 C 291.015625 27.421875 290.851562 26.976562 290.851562 26.414062 C 290.851562 25.726562 291.09375 25.195312 291.582031 24.824219 C 292.066406 24.453125 292.757812 24.265625 293.652344 24.265625 C 294.09375 24.265625 294.507812 24.296875 294.898438 24.363281 C 295.292969 24.425781 295.652344 24.523438 295.980469 24.652344 Z M 295.980469 24.652344 "/>
<path style="fill:none;stroke-width:1.5;stroke-linecap:butt;stroke-linejoin:round;stroke:rgb(100%,49.803922%,5.490196%);stroke-opacity:1;stroke-dasharray:5.55,2.4;stroke-miterlimit:4;" d="M 147.175781 35.255859 L 167.173828 35.255859 " transform="matrix(1.333333,0,0,1.333333,0,0.000000000000014211)"/>
<path style=" stroke:none;fill-rule:nonzero;fill:rgb(0%,0%,0%);fill-opacity:1;" d="M 233.964844 44.382812 L 235.234375 44.382812 L 237.511719 50.5 L 239.792969 44.382812 L 241.058594 44.382812 L 238.324219 51.671875 L 236.699219 51.671875 Z M 233.964844 44.382812 "/>
<path style=" stroke:none;fill-rule:nonzero;fill:rgb(0%,0%,0%);fill-opacity:1;" d="M 246.027344 48.007812 C 245.058594 48.007812 244.390625 48.117188 244.015625 48.339844 C 243.640625 48.558594 243.457031 48.9375 243.457031 49.472656 C 243.457031 49.898438 243.59375 50.234375 243.875 50.484375 C 244.15625 50.734375 244.539062 50.859375 245.019531 50.859375 C 245.683594 50.859375 246.214844 50.621094 246.617188 50.152344 C 247.019531 49.679688 247.21875 49.054688 247.21875 48.273438 L 247.21875 48.007812 Z M 248.417969 47.511719 L 248.417969 51.671875 L 247.21875 51.671875 L 247.21875 50.566406 C 246.945312 51.007812 246.605469 51.335938 246.195312 51.546875 C 245.789062 51.757812 245.289062 51.863281 244.699219 51.863281 C 243.953125 51.863281 243.359375 51.652344 242.917969 51.234375 C 242.476562 50.8125 242.257812 50.253906 242.257812 49.550781 C 242.257812 48.730469 242.53125 48.113281 243.082031 47.695312 C 243.628906 47.277344 244.449219 47.070312 245.539062 47.070312 L 247.21875 47.070312 L 247.21875 46.953125 C 247.21875 46.402344 247.039062 45.972656 246.675781 45.671875 C 246.3125 45.371094 245.804688 45.222656 245.148438 45.222656 C 244.730469 45.222656 244.324219 45.269531 243.929688 45.371094 C 243.535156 45.472656 243.15625 45.621094 242.792969 45.820312 L 242.792969 44.710938 C 243.230469 44.542969 243.65625 44.417969 244.066406 44.332031 C 244.480469 44.25 244.882812 44.207031 245.273438 44.207031 C 246.328125 44.207031 247.117188 44.480469 247.636719 45.027344 C 248.15625 45.574219 248.417969 46.402344 248.417969 47.511719 Z M 248.417969 47.511719 "/>
<path style=" stroke:none;fill-rule:nonzero;fill:rgb(0%,0%,0%);fill-opacity:1;" d="M 250.882812 41.542969 L 252.082031 41.542969 L 252.082031 51.671875 L 250.882812 51.671875 Z M 250.882812 41.542969 "/>
<path style=" stroke:none;fill-rule:nonzero;fill:rgb(0%,0%,0%);fill-opacity:1;" d="M 260.128906 53.886719 L 260.128906 54.816406 L 253.199219 54.816406 L 253.199219 53.886719 Z M 260.128906 53.886719 "/>
<path style=" stroke:none;fill-rule:nonzero;fill:rgb(0%,0%,0%);fill-opacity:1;" d="M 261.253906 41.542969 L 262.453125 41.542969 L 262.453125 51.671875 L 261.253906 51.671875 Z M 261.253906 41.542969 "/>
<path style=" stroke:none;fill-rule:nonzero;fill:rgb(0%,0%,0%);fill-opacity:1;" d="M 267.785156 45.222656 C 267.144531 45.222656 266.636719 45.472656 266.261719 45.972656 C 265.886719 46.472656 265.703125 47.160156 265.703125 48.035156 C 265.703125 48.90625 265.886719 49.59375 266.257812 50.09375 C 266.628906 50.59375 267.140625 50.847656 267.785156 50.847656 C 268.421875 50.847656 268.929688 50.59375 269.300781 50.089844 C 269.675781 49.585938 269.863281 48.902344 269.863281 48.035156 C 269.863281 47.167969 269.675781 46.484375 269.300781 45.980469 C 268.929688 45.472656 268.421875 45.222656 267.785156 45.222656 Z M 267.785156 44.207031 C 268.828125 44.207031 269.644531 44.546875 270.238281 45.222656 C 270.835938 45.898438 271.132812 46.835938 271.132812 48.035156 C 271.132812 49.226562 270.835938 50.164062 270.238281 50.84375 C 269.644531 51.523438 268.828125 51.863281 267.785156 51.863281 C 266.738281 51.863281 265.917969 51.523438 265.328125 50.84375 C 264.734375 50.164062 264.4375 49.226562 264.4375 48.035156 C 264.4375 46.835938 264.734375 45.898438 265.328125 45.222656 C 265.917969 44.546875 266.738281 44.207031 267.785156 44.207031 Z M 267.785156 44.207031 "/>
<path style=" stroke:none;fill-rule:nonzero;fill:rgb(0%,0%,0%);fill-opacity:1;" d="M 277.765625 44.597656 L 277.765625 45.730469 C 277.425781 45.554688 277.078125 45.425781 276.710938 45.339844 C 276.347656 45.253906 275.96875 45.207031 275.578125 45.207031 C 274.984375 45.207031 274.539062 45.300781 274.238281 45.480469 C 273.941406 45.664062 273.792969 45.9375 273.792969 46.300781 C 273.792969 46.578125 273.902344 46.796875 274.113281 46.957031 C 274.324219 47.113281 274.753906 47.265625 275.394531 47.410156 L 275.808594 47.5 C 276.65625 47.683594 277.261719 47.9375 277.621094 48.269531 C 277.976562 48.601562 278.15625 49.066406 278.15625 49.660156 C 278.15625 50.339844 277.890625 50.875 277.351562 51.269531 C 276.816406 51.664062 276.078125 51.863281 275.140625 51.863281 C 274.75 51.863281 274.34375 51.824219 273.921875 51.746094 C 273.496094 51.671875 273.050781 51.558594 272.582031 51.40625 L 272.582031 50.167969 C 273.027344 50.398438 273.464844 50.570312 273.890625 50.6875 C 274.320312 50.800781 274.746094 50.859375 275.167969 50.859375 C 275.734375 50.859375 276.167969 50.761719 276.46875 50.570312 C 276.773438 50.375 276.925781 50.101562 276.925781 49.753906 C 276.925781 49.425781 276.816406 49.179688 276.597656 49.003906 C 276.378906 48.832031 275.898438 48.664062 275.15625 48.503906 L 274.738281 48.402344 C 273.996094 48.25 273.460938 48.007812 273.128906 47.683594 C 272.800781 47.363281 272.636719 46.917969 272.636719 46.355469 C 272.636719 45.667969 272.878906 45.140625 273.363281 44.765625 C 273.851562 44.394531 274.542969 44.207031 275.4375 44.207031 C 275.878906 44.207031 276.292969 44.238281 276.683594 44.304688 C 277.074219 44.367188 277.4375 44.464844 277.765625 44.597656 Z M 277.765625 44.597656 "/>
<path style=" stroke:none;fill-rule:nonzero;fill:rgb(0%,0%,0%);fill-opacity:1;" d="M 284.710938 44.597656 L 284.710938 45.730469 C 284.375 45.554688 284.023438 45.425781 283.65625 45.339844 C 283.292969 45.253906 282.914062 45.207031 282.523438 45.207031 C 281.929688 45.207031 281.484375 45.300781 281.1875 45.480469 C 280.890625 45.664062 280.742188 45.9375 280.742188 46.300781 C 280.742188 46.578125 280.847656 46.796875 281.058594 46.957031 C 281.273438 47.113281 281.699219 47.265625 282.34375 47.410156 L 282.753906 47.5 C 283.601562 47.683594 284.207031 47.9375 284.566406 48.269531 C 284.925781 48.601562 285.101562 49.066406 285.101562 49.660156 C 285.101562 50.339844 284.835938 50.875 284.300781 51.269531 C 283.761719 51.664062 283.027344 51.863281 282.089844 51.863281 C 281.699219 51.863281 281.292969 51.824219 280.867188 51.746094 C 280.445312 51.671875 280 51.558594 279.53125 51.40625 L 279.53125 50.167969 C 279.972656 50.398438 280.410156 50.570312 280.839844 50.6875 C 281.269531 50.800781 281.695312 50.859375 282.117188 50.859375 C 282.679688 50.859375 283.113281 50.761719 283.414062 50.570312 C 283.71875 50.375 283.871094 50.101562 283.871094 49.753906 C 283.871094 49.425781 283.761719 49.179688 283.542969 49.003906 C 283.324219 48.832031 282.84375 48.664062 282.101562 48.503906 L 281.683594 48.402344 C 280.941406 48.25 280.40625 48.007812 280.078125 47.683594 C 279.746094 47.363281 279.582031 46.917969 279.582031 46.355469 C 279.582031 45.667969 279.824219 45.140625 280.3125 44.765625 C 280.796875 44.394531 281.488281 44.207031 282.382812 44.207031 C 282.824219 44.207031 283.238281 44.238281 283.628906 44.304688 C 284.023438 44.367188 284.382812 44.464844 284.710938 44.597656 Z M 284.710938 44.597656 "/>
</g>
</svg>
