<?xml version="1.0" encoding="UTF-8"?>
<svg xmlns="http://www.w3.org/2000/svg" xmlns:xlink="http://www.w3.org/1999/xlink" width="340.116231" height="249.140625" viewBox="0 0 340.116231 249.140625" version="1.1">
<defs>
<clipPath id="clip1">
  <path d="M 80 14.265625 L 83 14.265625 L 83 199.066406 L 80 199.066406 Z M 80 14.265625 "/>
</clipPath>
<clipPath id="clip2">
  <path d="M 162 14.265625 L 164 14.265625 L 164 199.066406 L 162 199.066406 Z M 162 14.265625 "/>
</clipPath>
<clipPath id="clip3">
  <path d="M 243 14.265625 L 246 14.265625 L 246 199.066406 L 243 199.066406 Z M 243 14.265625 "/>
</clipPath>
<clipPath id="clip4">
  <path d="M 325 14.265625 L 328 14.265625 L 328 199.066406 L 325 199.066406 Z M 325 14.265625 "/>
</clipPath>
<clipPath id="clip5">
  <path d="M 69.546875 173 L 329.949219 173 L 329.949219 176 L 69.546875 176 Z M 69.546875 173 "/>
</clipPath>
<clipPath id="clip6">
  <path d="M 69.546875 133 L 329.949219 133 L 329.949219 136 L 69.546875 136 Z M 69.546875 133 "/>
</clipPath>
<clipPath id="clip7">
  <path d="M 69.546875 93 L 329.949219 93 L 329.949219 96 L 69.546875 96 Z M 69.546875 93 "/>
</clipPath>
<clipPath id="clip8">
  <path d="M 69.546875 53 L 329.949219 53 L 329.949219 56 L 69.546875 56 Z M 69.546875 53 "/>
</clipPath>
<clipPath id="clip9">
  <path d="M 69.546875 14.265625 L 329.949219 14.265625 L 329.949219 16 L 69.546875 16 Z M 69.546875 14.265625 "/>
</clipPath>
<filter id="alpha" filterUnits="objectBoundingBox" x="0%" y="0%" width="100%" height="100%">
  <feColorMatrix type="matrix" in="SourceGraphic" values="0 0 0 0 1 0 0 0 0 1 0 0 0 0 1 0 0 0 1 0"/>
</filter>
<mask id="mask0">
  <g filter="url(#alpha)">
<rect x="0" y="0" width="340.116231" height="249.140625" style="fill:rgb(0%,0%,0%);fill-opacity:0.8;stroke:none;"/>
  </g>
</mask>
<clipPath id="clip10">
  <rect x="0" y="0" width="341" height="250"/>
</clipPath>
<g id="surface5" clip-path="url(#clip10)">
<path style="fill-rule:nonzero;fill:rgb(100%,100%,100%);fill-opacity:1;stroke-width:1;stroke-linecap:butt;stroke-linejoin:miter;stroke:rgb(80.000001%,80.000001%,80.000001%);stroke-opacity:1;stroke-miterlimit:4;" d="M 192.556641 144.298828 L 240.459961 144.298828 C 241.792969 144.298828 242.460938 143.633789 242.460938 142.297852 L 242.460938 84.585938 C 242.460938 83.25293 241.792969 82.587891 240.459961 82.587891 L 192.556641 82.587891 C 191.223633 82.587891 190.558594 83.25293 190.558594 84.585938 L 190.558594 142.297852 C 190.558594 143.633789 191.223633 144.298828 192.556641 144.298828 Z M 192.556641 144.298828 " transform="matrix(1.333333,0,0,1.333333,0,0)"/>
</g>
</defs>
<g id="surface1">
<path style=" stroke:none;fill-rule:nonzero;fill:rgb(100%,100%,100%);fill-opacity:1;" d="M 0 249.140625 L 340.117188 249.140625 L 340.117188 0 L 0 0 Z M 0 249.140625 "/>
<path style=" stroke:none;fill-rule:nonzero;fill:rgb(100%,100%,100%);fill-opacity:1;" d="M 69.546875 199.066406 L 329.949219 199.066406 L 329.949219 14.265625 L 69.546875 14.265625 Z M 69.546875 199.066406 "/>
<g clip-path="url(#clip1)" clip-rule="nonzero">
<path style="fill:none;stroke-width:0.8;stroke-linecap:square;stroke-linejoin:round;stroke:rgb(69.01961%,69.01961%,69.01961%);stroke-opacity:1;stroke-miterlimit:4;" d="M 61.037109 149.299805 L 61.037109 10.699219 " transform="matrix(1.333333,0,0,1.333333,0,0)"/>
</g>
<path style="fill:none;stroke-width:0.8;stroke-linecap:butt;stroke-linejoin:round;stroke:rgb(0%,0%,0%);stroke-opacity:1;stroke-miterlimit:4;" d="M -0.00110245 0.000579834 L -0.00110245 3.498627 " transform="matrix(1.333333,0,0,1.333333,81.384282,199.065633)"/>
<path style=" stroke:none;fill-rule:nonzero;fill:rgb(0%,0%,0%);fill-opacity:1;" d="M 72.96875 213.796875 L 81.316406 213.796875 L 81.316406 214.902344 L 72.96875 214.902344 Z M 72.96875 213.796875 "/>
<path style=" stroke:none;fill-rule:nonzero;fill:rgb(0%,0%,0%);fill-opacity:1;" d="M 85.285156 217.425781 L 89.875 217.425781 L 89.875 218.53125 L 83.707031 218.53125 L 83.707031 217.425781 C 84.203125 216.90625 84.882812 216.214844 85.746094 215.34375 C 86.605469 214.472656 87.148438 213.914062 87.371094 213.660156 C 87.789062 213.1875 88.085938 212.789062 88.25 212.460938 C 88.417969 212.132812 88.503906 211.808594 88.503906 211.492188 C 88.503906 210.976562 88.320312 210.554688 87.960938 210.230469 C 87.597656 209.902344 87.125 209.742188 86.542969 209.742188 C 86.128906 209.742188 85.695312 209.8125 85.238281 209.957031 C 84.78125 210.097656 84.289062 210.316406 83.769531 210.605469 L 83.769531 209.277344 C 84.300781 209.066406 84.792969 208.90625 85.253906 208.796875 C 85.714844 208.6875 86.136719 208.632812 86.519531 208.632812 C 87.523438 208.632812 88.328125 208.886719 88.925781 209.390625 C 89.523438 209.894531 89.824219 210.566406 89.824219 211.40625 C 89.824219 211.808594 89.75 212.1875 89.597656 212.542969 C 89.449219 212.902344 89.179688 213.324219 88.78125 213.808594 C 88.675781 213.9375 88.328125 214.300781 87.746094 214.902344 C 87.167969 215.503906 86.347656 216.34375 85.285156 217.425781 Z M 85.285156 217.425781 "/>
<g clip-path="url(#clip2)" clip-rule="nonzero">
<path style="fill:none;stroke-width:0.8;stroke-linecap:square;stroke-linejoin:round;stroke:rgb(69.01961%,69.01961%,69.01961%);stroke-opacity:1;stroke-miterlimit:4;" d="M 122.261719 149.299805 L 122.261719 10.699219 " transform="matrix(1.333333,0,0,1.333333,0,0)"/>
</g>
<path style="fill:none;stroke-width:0.8;stroke-linecap:butt;stroke-linejoin:round;stroke:rgb(0%,0%,0%);stroke-opacity:1;stroke-miterlimit:4;" d="M 0.000938416 0.000579834 L 0.000938416 3.498627 " transform="matrix(1.333333,0,0,1.333333,163.014374,199.065633)"/>
<path style=" stroke:none;fill-rule:nonzero;fill:rgb(0%,0%,0%);fill-opacity:1;" d="M 154.597656 213.796875 L 162.945312 213.796875 L 162.945312 214.902344 L 154.597656 214.902344 Z M 154.597656 213.796875 "/>
<path style=" stroke:none;fill-rule:nonzero;fill:rgb(0%,0%,0%);fill-opacity:1;" d="M 166.011719 217.425781 L 168.160156 217.425781 L 168.160156 210.007812 L 165.824219 210.476562 L 165.824219 209.277344 L 168.148438 208.808594 L 169.460938 208.808594 L 169.460938 217.425781 L 171.609375 217.425781 L 171.609375 218.53125 L 166.011719 218.53125 Z M 166.011719 217.425781 "/>
<g clip-path="url(#clip3)" clip-rule="nonzero">
<path style="fill:none;stroke-width:0.8;stroke-linecap:square;stroke-linejoin:round;stroke:rgb(69.01961%,69.01961%,69.01961%);stroke-opacity:1;stroke-miterlimit:4;" d="M 183.483398 149.299805 L 183.483398 10.699219 " transform="matrix(1.333333,0,0,1.333333,0,0)"/>
</g>
<path style="fill:none;stroke-width:0.8;stroke-linecap:butt;stroke-linejoin:round;stroke:rgb(0%,0%,0%);stroke-opacity:1;stroke-miterlimit:4;" d="M 0.0000457764 0.000579834 L 0.0000457764 3.498627 " transform="matrix(1.333333,0,0,1.333333,244.64447,199.065633)"/>
<path style=" stroke:none;fill-rule:nonzero;fill:rgb(0%,0%,0%);fill-opacity:1;" d="M 244.640625 209.675781 C 243.964844 209.675781 243.453125 210.007812 243.113281 210.675781 C 242.773438 211.339844 242.601562 212.34375 242.601562 213.679688 C 242.601562 215.011719 242.773438 216.011719 243.113281 216.679688 C 243.453125 217.34375 243.964844 217.679688 244.640625 217.679688 C 245.320312 217.679688 245.832031 217.34375 246.171875 216.679688 C 246.515625 216.011719 246.6875 215.011719 246.6875 213.679688 C 246.6875 212.34375 246.515625 211.339844 246.171875 210.675781 C 245.832031 210.007812 245.320312 209.675781 244.640625 209.675781 Z M 244.640625 208.632812 C 245.730469 208.632812 246.5625 209.066406 247.136719 209.929688 C 247.714844 210.789062 248 212.039062 248 213.679688 C 248 215.316406 247.714844 216.566406 247.136719 217.429688 C 246.5625 218.289062 245.730469 218.71875 244.640625 218.71875 C 243.550781 218.71875 242.71875 218.289062 242.144531 217.429688 C 241.570312 216.566406 241.28125 215.316406 241.28125 213.679688 C 241.28125 212.039062 241.570312 210.789062 242.144531 209.929688 C 242.71875 209.066406 243.550781 208.632812 244.640625 208.632812 Z M 244.640625 208.632812 "/>
<g clip-path="url(#clip4)" clip-rule="nonzero">
<path style="fill:none;stroke-width:0.8;stroke-linecap:square;stroke-linejoin:round;stroke:rgb(69.01961%,69.01961%,69.01961%);stroke-opacity:1;stroke-miterlimit:4;" d="M 244.705078 149.299805 L 244.705078 10.699219 " transform="matrix(1.333333,0,0,1.333333,0,0)"/>
</g>
<path style="fill:none;stroke-width:0.8;stroke-linecap:butt;stroke-linejoin:round;stroke:rgb(0%,0%,0%);stroke-opacity:1;stroke-miterlimit:4;" d="M -0.000839233 0.000579834 L -0.000839233 3.498627 " transform="matrix(1.333333,0,0,1.333333,326.274556,199.065633)"/>
<path style=" stroke:none;fill-rule:nonzero;fill:rgb(0%,0%,0%);fill-opacity:1;" d="M 323.6875 217.425781 L 325.835938 217.425781 L 325.835938 210.007812 L 323.496094 210.476562 L 323.496094 209.277344 L 325.824219 208.808594 L 327.136719 208.808594 L 327.136719 217.425781 L 329.285156 217.425781 L 329.285156 218.53125 L 323.6875 218.53125 Z M 323.6875 217.425781 "/>
<path style=" stroke:none;fill-rule:nonzero;fill:rgb(0%,0%,0%);fill-opacity:1;" d="M 203.121094 229.476562 L 200.484375 233.023438 L 203.257812 236.769531 L 201.84375 236.769531 L 199.722656 233.902344 L 197.601562 236.769531 L 196.183594 236.769531 L 199.019531 232.953125 L 196.425781 229.476562 L 197.839844 229.476562 L 199.773438 232.074219 L 201.707031 229.476562 Z M 203.121094 229.476562 "/>
<g clip-path="url(#clip5)" clip-rule="nonzero">
<path style="fill:none;stroke-width:0.8;stroke-linecap:square;stroke-linejoin:round;stroke:rgb(69.01961%,69.01961%,69.01961%);stroke-opacity:1;stroke-miterlimit:4;" d="M 52.160156 130.998047 L 247.461914 130.998047 " transform="matrix(1.333333,0,0,1.333333,0,0)"/>
</g>
<path style="fill:none;stroke-width:0.8;stroke-linecap:butt;stroke-linejoin:round;stroke:rgb(0%,0%,0%);stroke-opacity:1;stroke-miterlimit:4;" d="M -0.000782013 -0.00117493 L -3.498829 -0.00117493 " transform="matrix(1.333333,0,0,1.333333,69.547918,174.665629)"/>
<path style=" stroke:none;fill-rule:nonzero;fill:rgb(0%,0%,0%);fill-opacity:1;" d="M 29.25 174.996094 L 37.597656 174.996094 L 37.597656 176.105469 L 29.25 176.105469 Z M 29.25 174.996094 "/>
<path style=" stroke:none;fill-rule:nonzero;fill:rgb(0%,0%,0%);fill-opacity:1;" d="M 40.664062 178.625 L 42.8125 178.625 L 42.8125 171.207031 L 40.472656 171.675781 L 40.472656 170.480469 L 42.800781 170.011719 L 44.113281 170.011719 L 44.113281 178.625 L 46.261719 178.625 L 46.261719 179.730469 L 40.664062 179.730469 Z M 40.664062 178.625 "/>
<path style=" stroke:none;fill-rule:nonzero;fill:rgb(0%,0%,0%);fill-opacity:1;" d="M 48.917969 178.078125 L 50.292969 178.078125 L 50.292969 179.730469 L 48.917969 179.730469 Z M 48.917969 178.078125 "/>
<path style=" stroke:none;fill-rule:nonzero;fill:rgb(0%,0%,0%);fill-opacity:1;" d="M 55.96875 170.878906 C 55.292969 170.878906 54.78125 171.210938 54.441406 171.878906 C 54.101562 172.542969 53.929688 173.542969 53.929688 174.882812 C 53.929688 176.214844 54.101562 177.210938 54.441406 177.878906 C 54.78125 178.546875 55.292969 178.878906 55.96875 178.878906 C 56.648438 178.878906 57.160156 178.546875 57.5 177.878906 C 57.84375 177.210938 58.015625 176.214844 58.015625 174.882812 C 58.015625 173.542969 57.84375 172.542969 57.5 171.878906 C 57.160156 171.210938 56.648438 170.878906 55.96875 170.878906 Z M 55.96875 169.835938 C 57.058594 169.835938 57.890625 170.265625 58.464844 171.128906 C 59.042969 171.992188 59.328125 173.242188 59.328125 174.882812 C 59.328125 176.515625 59.042969 177.765625 58.464844 178.628906 C 57.890625 179.492188 57.058594 179.921875 55.96875 179.921875 C 54.878906 179.921875 54.046875 179.492188 53.472656 178.628906 C 52.898438 177.765625 52.609375 176.515625 52.609375 174.882812 C 52.609375 173.242188 52.898438 171.992188 53.472656 171.128906 C 54.046875 170.265625 54.878906 169.835938 55.96875 169.835938 Z M 55.96875 169.835938 "/>
<g clip-path="url(#clip6)" clip-rule="nonzero">
<path style="fill:none;stroke-width:0.8;stroke-linecap:square;stroke-linejoin:round;stroke:rgb(69.01961%,69.01961%,69.01961%);stroke-opacity:1;stroke-miterlimit:4;" d="M 52.160156 100.998047 L 247.461914 100.998047 " transform="matrix(1.333333,0,0,1.333333,0,0)"/>
</g>
<path style="fill:none;stroke-width:0.8;stroke-linecap:butt;stroke-linejoin:round;stroke:rgb(0%,0%,0%);stroke-opacity:1;stroke-miterlimit:4;" d="M -0.000782013 -0.00117493 L -3.498829 -0.00117493 " transform="matrix(1.333333,0,0,1.333333,69.547918,134.665629)"/>
<path style=" stroke:none;fill-rule:nonzero;fill:rgb(0%,0%,0%);fill-opacity:1;" d="M 29.25 134.996094 L 37.597656 134.996094 L 37.597656 136.105469 L 29.25 136.105469 Z M 29.25 134.996094 "/>
<path style=" stroke:none;fill-rule:nonzero;fill:rgb(0%,0%,0%);fill-opacity:1;" d="M 43.246094 130.878906 C 42.570312 130.878906 42.0625 131.210938 41.71875 131.878906 C 41.378906 132.542969 41.210938 133.542969 41.210938 134.882812 C 41.210938 136.214844 41.378906 137.210938 41.71875 137.878906 C 42.0625 138.546875 42.570312 138.878906 43.246094 138.878906 C 43.929688 138.878906 44.441406 138.546875 44.78125 137.878906 C 45.121094 137.210938 45.292969 136.214844 45.292969 134.882812 C 45.292969 133.542969 45.121094 132.542969 44.78125 131.878906 C 44.441406 131.210938 43.929688 130.878906 43.246094 130.878906 Z M 43.246094 129.835938 C 44.335938 129.835938 45.167969 130.265625 45.746094 131.128906 C 46.320312 131.992188 46.605469 133.242188 46.605469 134.882812 C 46.605469 136.515625 46.320312 137.765625 45.746094 138.628906 C 45.167969 139.492188 44.335938 139.921875 43.246094 139.921875 C 42.15625 139.921875 41.324219 139.492188 40.75 138.628906 C 40.175781 137.765625 39.886719 136.515625 39.886719 134.882812 C 39.886719 133.242188 40.175781 131.992188 40.75 131.128906 C 41.324219 130.265625 42.15625 129.835938 43.246094 129.835938 Z M 43.246094 129.835938 "/>
<path style=" stroke:none;fill-rule:nonzero;fill:rgb(0%,0%,0%);fill-opacity:1;" d="M 48.917969 138.078125 L 50.292969 138.078125 L 50.292969 139.730469 L 48.917969 139.730469 Z M 48.917969 138.078125 "/>
<path style=" stroke:none;fill-rule:nonzero;fill:rgb(0%,0%,0%);fill-opacity:1;" d="M 53.171875 130.011719 L 58.332031 130.011719 L 58.332031 131.117188 L 54.375 131.117188 L 54.375 133.5 C 54.566406 133.433594 54.753906 133.386719 54.945312 133.355469 C 55.136719 133.320312 55.328125 133.304688 55.519531 133.304688 C 56.605469 133.304688 57.464844 133.601562 58.097656 134.199219 C 58.730469 134.792969 59.050781 135.597656 59.050781 136.613281 C 59.050781 137.660156 58.722656 138.472656 58.074219 139.050781 C 57.421875 139.632812 56.503906 139.921875 55.316406 139.921875 C 54.910156 139.921875 54.492188 139.886719 54.070312 139.816406 C 53.648438 139.746094 53.210938 139.644531 52.761719 139.503906 L 52.761719 138.179688 C 53.148438 138.394531 53.554688 138.550781 53.96875 138.65625 C 54.386719 138.761719 54.828125 138.8125 55.292969 138.8125 C 56.042969 138.8125 56.636719 138.617188 57.074219 138.222656 C 57.511719 137.828125 57.734375 137.289062 57.734375 136.613281 C 57.734375 135.9375 57.511719 135.402344 57.074219 135.007812 C 56.636719 134.609375 56.042969 134.414062 55.292969 134.414062 C 54.941406 134.414062 54.589844 134.453125 54.238281 134.527344 C 53.890625 134.605469 53.535156 134.726562 53.171875 134.894531 Z M 53.171875 130.011719 "/>
<g clip-path="url(#clip7)" clip-rule="nonzero">
<path style="fill:none;stroke-width:0.8;stroke-linecap:square;stroke-linejoin:round;stroke:rgb(69.01961%,69.01961%,69.01961%);stroke-opacity:1;stroke-miterlimit:4;" d="M 52.160156 70.998047 L 247.461914 70.998047 " transform="matrix(1.333333,0,0,1.333333,0,0)"/>
</g>
<path style="fill:none;stroke-width:0.8;stroke-linecap:butt;stroke-linejoin:round;stroke:rgb(0%,0%,0%);stroke-opacity:1;stroke-miterlimit:4;" d="M -0.000782013 -0.00117493 L -3.498829 -0.00117493 " transform="matrix(1.333333,0,0,1.333333,69.547918,94.665629)"/>
<path style=" stroke:none;fill-rule:nonzero;fill:rgb(0%,0%,0%);fill-opacity:1;" d="M 43.246094 90.878906 C 42.570312 90.878906 42.0625 91.210938 41.722656 91.878906 C 41.378906 92.542969 41.210938 93.542969 41.210938 94.882812 C 41.210938 96.214844 41.378906 97.210938 41.722656 97.878906 C 42.0625 98.546875 42.570312 98.878906 43.246094 98.878906 C 43.929688 98.878906 44.441406 98.546875 44.78125 97.878906 C 45.121094 97.210938 45.292969 96.214844 45.292969 94.882812 C 45.292969 93.542969 45.121094 92.542969 44.78125 91.878906 C 44.441406 91.210938 43.929688 90.878906 43.246094 90.878906 Z M 43.246094 89.835938 C 44.339844 89.835938 45.171875 90.265625 45.746094 91.128906 C 46.320312 91.992188 46.609375 93.242188 46.609375 94.882812 C 46.609375 96.515625 46.320312 97.765625 45.746094 98.628906 C 45.171875 99.492188 44.339844 99.921875 43.246094 99.921875 C 42.160156 99.921875 41.328125 99.492188 40.753906 98.628906 C 40.175781 97.765625 39.890625 96.515625 39.890625 94.882812 C 39.890625 93.242188 40.175781 91.992188 40.753906 91.128906 C 41.328125 90.265625 42.160156 89.835938 43.246094 89.835938 Z M 43.246094 89.835938 "/>
<path style=" stroke:none;fill-rule:nonzero;fill:rgb(0%,0%,0%);fill-opacity:1;" d="M 48.917969 98.078125 L 50.292969 98.078125 L 50.292969 99.730469 L 48.917969 99.730469 Z M 48.917969 98.078125 "/>
<path style=" stroke:none;fill-rule:nonzero;fill:rgb(0%,0%,0%);fill-opacity:1;" d="M 55.96875 90.878906 C 55.292969 90.878906 54.785156 91.210938 54.441406 91.878906 C 54.101562 92.542969 53.933594 93.542969 53.933594 94.882812 C 53.933594 96.214844 54.101562 97.210938 54.441406 97.878906 C 54.785156 98.546875 55.292969 98.878906 55.96875 98.878906 C 56.652344 98.878906 57.164062 98.546875 57.503906 97.878906 C 57.84375 97.210938 58.015625 96.214844 58.015625 94.882812 C 58.015625 93.542969 57.84375 92.542969 57.503906 91.878906 C 57.164062 91.210938 56.652344 90.878906 55.96875 90.878906 Z M 55.96875 89.835938 C 57.058594 89.835938 57.890625 90.265625 58.46875 91.128906 C 59.042969 91.992188 59.328125 93.242188 59.328125 94.882812 C 59.328125 96.515625 59.042969 97.765625 58.46875 98.628906 C 57.890625 99.492188 57.058594 99.921875 55.96875 99.921875 C 54.878906 99.921875 54.046875 99.492188 53.472656 98.628906 C 52.898438 97.765625 52.609375 96.515625 52.609375 94.882812 C 52.609375 93.242188 52.898438 91.992188 53.472656 91.128906 C 54.046875 90.265625 54.878906 89.835938 55.96875 89.835938 Z M 55.96875 89.835938 "/>
<g clip-path="url(#clip8)" clip-rule="nonzero">
<path style="fill:none;stroke-width:0.8;stroke-linecap:square;stroke-linejoin:round;stroke:rgb(69.01961%,69.01961%,69.01961%);stroke-opacity:1;stroke-miterlimit:4;" d="M 52.160156 40.998047 L 247.461914 40.998047 " transform="matrix(1.333333,0,0,1.333333,0,0)"/>
</g>
<path style="fill:none;stroke-width:0.8;stroke-linecap:butt;stroke-linejoin:round;stroke:rgb(0%,0%,0%);stroke-opacity:1;stroke-miterlimit:4;" d="M -0.000782013 -0.00117111 L -3.498829 -0.00117111 " transform="matrix(1.333333,0,0,1.333333,69.547918,54.665624)"/>
<path style=" stroke:none;fill-rule:nonzero;fill:rgb(0%,0%,0%);fill-opacity:1;" d="M 43.246094 50.878906 C 42.570312 50.878906 42.0625 51.210938 41.722656 51.878906 C 41.378906 52.542969 41.210938 53.542969 41.210938 54.882812 C 41.210938 56.214844 41.378906 57.210938 41.722656 57.878906 C 42.0625 58.546875 42.570312 58.878906 43.246094 58.878906 C 43.929688 58.878906 44.441406 58.546875 44.78125 57.878906 C 45.121094 57.210938 45.292969 56.214844 45.292969 54.882812 C 45.292969 53.542969 45.121094 52.542969 44.78125 51.878906 C 44.441406 51.210938 43.929688 50.878906 43.246094 50.878906 Z M 43.246094 49.835938 C 44.339844 49.835938 45.171875 50.265625 45.746094 51.128906 C 46.320312 51.992188 46.609375 53.242188 46.609375 54.882812 C 46.609375 56.515625 46.320312 57.765625 45.746094 58.628906 C 45.171875 59.492188 44.339844 59.921875 43.246094 59.921875 C 42.160156 59.921875 41.328125 59.492188 40.753906 58.628906 C 40.175781 57.765625 39.890625 56.515625 39.890625 54.882812 C 39.890625 53.242188 40.175781 51.992188 40.753906 51.128906 C 41.328125 50.265625 42.160156 49.835938 43.246094 49.835938 Z M 43.246094 49.835938 "/>
<path style=" stroke:none;fill-rule:nonzero;fill:rgb(0%,0%,0%);fill-opacity:1;" d="M 48.917969 58.078125 L 50.292969 58.078125 L 50.292969 59.730469 L 48.917969 59.730469 Z M 48.917969 58.078125 "/>
<path style=" stroke:none;fill-rule:nonzero;fill:rgb(0%,0%,0%);fill-opacity:1;" d="M 53.171875 50.011719 L 58.332031 50.011719 L 58.332031 51.117188 L 54.375 51.117188 L 54.375 53.5 C 54.566406 53.433594 54.757812 53.386719 54.945312 53.355469 C 55.136719 53.320312 55.328125 53.304688 55.519531 53.304688 C 56.605469 53.304688 57.464844 53.601562 58.097656 54.199219 C 58.734375 54.792969 59.050781 55.597656 59.050781 56.613281 C 59.050781 57.660156 58.726562 58.472656 58.074219 59.050781 C 57.421875 59.632812 56.503906 59.921875 55.320312 59.921875 C 54.910156 59.921875 54.496094 59.886719 54.070312 59.816406 C 53.648438 59.746094 53.210938 59.644531 52.761719 59.503906 L 52.761719 58.179688 C 53.152344 58.394531 53.554688 58.550781 53.972656 58.65625 C 54.386719 58.761719 54.828125 58.8125 55.292969 58.8125 C 56.042969 58.8125 56.636719 58.617188 57.074219 58.222656 C 57.515625 57.828125 57.734375 57.289062 57.734375 56.613281 C 57.734375 55.9375 57.515625 55.402344 57.074219 55.007812 C 56.636719 54.609375 56.042969 54.414062 55.292969 54.414062 C 54.941406 54.414062 54.589844 54.453125 54.238281 54.527344 C 53.890625 54.605469 53.535156 54.726562 53.171875 54.894531 Z M 53.171875 50.011719 "/>
<g clip-path="url(#clip9)" clip-rule="nonzero">
<path style="fill:none;stroke-width:0.8;stroke-linecap:square;stroke-linejoin:round;stroke:rgb(69.01961%,69.01961%,69.01961%);stroke-opacity:1;stroke-miterlimit:4;" d="M 52.160156 10.998047 L 247.461914 10.998047 " transform="matrix(1.333333,0,0,1.333333,0,0)"/>
</g>
<path style="fill:none;stroke-width:0.8;stroke-linecap:butt;stroke-linejoin:round;stroke:rgb(0%,0%,0%);stroke-opacity:1;stroke-miterlimit:4;" d="M -0.000782013 -0.00117207 L -3.498829 -0.00117207 " transform="matrix(1.333333,0,0,1.333333,69.547918,14.665625)"/>
<path style=" stroke:none;fill-rule:nonzero;fill:rgb(0%,0%,0%);fill-opacity:1;" d="M 40.664062 18.625 L 42.8125 18.625 L 42.8125 11.207031 L 40.476562 11.675781 L 40.476562 10.480469 L 42.800781 10.011719 L 44.113281 10.011719 L 44.113281 18.625 L 46.261719 18.625 L 46.261719 19.730469 L 40.664062 19.730469 Z M 40.664062 18.625 "/>
<path style=" stroke:none;fill-rule:nonzero;fill:rgb(0%,0%,0%);fill-opacity:1;" d="M 48.917969 18.078125 L 50.292969 18.078125 L 50.292969 19.730469 L 48.917969 19.730469 Z M 48.917969 18.078125 "/>
<path style=" stroke:none;fill-rule:nonzero;fill:rgb(0%,0%,0%);fill-opacity:1;" d="M 55.96875 10.878906 C 55.292969 10.878906 54.785156 11.210938 54.441406 11.878906 C 54.101562 12.542969 53.933594 13.542969 53.933594 14.882812 C 53.933594 16.214844 54.101562 17.210938 54.441406 17.878906 C 54.785156 18.546875 55.292969 18.878906 55.96875 18.878906 C 56.652344 18.878906 57.164062 18.546875 57.503906 17.878906 C 57.84375 17.210938 58.015625 16.214844 58.015625 14.882812 C 58.015625 13.542969 57.84375 12.542969 57.503906 11.878906 C 57.164062 11.210938 56.652344 10.878906 55.96875 10.878906 Z M 55.96875 9.835938 C 57.058594 9.835938 57.890625 10.265625 58.46875 11.128906 C 59.042969 11.992188 59.328125 13.242188 59.328125 14.882812 C 59.328125 16.515625 59.042969 17.765625 58.46875 18.628906 C 57.890625 19.492188 57.058594 19.921875 55.96875 19.921875 C 54.878906 19.921875 54.046875 19.492188 53.472656 18.628906 C 52.898438 17.765625 52.609375 16.515625 52.609375 14.882812 C 52.609375 13.242188 52.898438 11.992188 53.472656 11.128906 C 54.046875 10.265625 54.878906 9.835938 55.96875 9.835938 Z M 55.96875 9.835938 "/>
<path style=" stroke:none;fill-rule:nonzero;fill:rgb(0%,0%,0%);fill-opacity:1;" d="M 20.410156 106.320312 C 21.277344 106.660156 21.84375 106.988281 22.105469 107.3125 C 22.371094 107.632812 22.503906 108.0625 22.503906 108.597656 L 22.503906 109.558594 L 21.503906 109.558594 L 21.503906 108.851562 C 21.503906 108.523438 21.421875 108.269531 21.265625 108.085938 C 21.109375 107.902344 20.742188 107.699219 20.160156 107.480469 L 19.613281 107.265625 L 12.441406 110.214844 L 12.441406 108.945312 L 18.140625 106.664062 L 12.441406 104.386719 L 12.441406 103.117188 Z M 20.410156 106.320312 "/>
<path style="fill:none;stroke-width:1.5;stroke-linecap:square;stroke-linejoin:round;stroke:rgb(12.156863%,46.666667%,70.588237%);stroke-opacity:1;stroke-miterlimit:4;" d="M 61.037109 70.998047 L 183.483398 70.998047 L 189.606445 64.998047 L 195.726562 58.998047 L 214.095703 40.998047 L 220.21582 34.998047 L 238.584961 16.998047 " transform="matrix(1.333333,0,0,1.333333,0,0)"/>
<path style="fill:none;stroke-width:1.5;stroke-linecap:butt;stroke-linejoin:round;stroke:rgb(74.901962%,0%,74.901962%);stroke-opacity:1;stroke-dasharray:5.55,2.4;stroke-miterlimit:4;" d="M 61.037109 94.998047 L 67.160156 93.799805 L 73.283203 92.598633 L 79.40625 91.400391 L 85.526367 90.199219 L 91.649414 88.998047 L 97.772461 87.799805 L 103.892578 86.598633 L 110.015625 85.400391 L 122.261719 82.998047 L 128.381836 81.799805 L 134.504883 80.598633 L 140.62793 79.400391 L 146.750977 78.199219 L 152.871094 76.998047 L 158.994141 75.799805 L 165.117188 74.598633 L 171.240234 73.400391 L 177.360352 72.199219 L 183.483398 70.998047 L 189.606445 64.998047 L 195.726562 58.998047 L 214.095703 40.998047 L 220.21582 34.998047 L 238.584961 16.998047 " transform="matrix(1.333333,0,0,1.333333,0,0)"/>
<path style="fill:none;stroke-width:1.5;stroke-linecap:butt;stroke-linejoin:round;stroke:rgb(0%,50.196081%,0%);stroke-opacity:1;stroke-dasharray:9.6,2.4,1.5,2.4;stroke-miterlimit:4;" d="M 61.037109 118.998047 L 79.40625 111.799805 L 85.526367 109.400391 L 91.649414 106.998047 L 97.772461 104.598633 L 103.892578 102.199219 L 116.138672 97.400391 L 122.261719 94.998047 L 128.381836 92.598633 L 146.750977 85.400391 L 152.871094 82.998047 L 171.240234 75.799805 L 177.360352 73.400391 L 183.483398 70.998047 L 189.606445 64.998047 L 195.726562 58.998047 L 214.095703 40.998047 L 220.21582 34.998047 L 238.584961 16.998047 " transform="matrix(1.333333,0,0,1.333333,0,0)"/>
<path style="fill:none;stroke-width:1.5;stroke-linecap:butt;stroke-linejoin:round;stroke:rgb(100%,0%,0%);stroke-opacity:1;stroke-dasharray:1.5,2.475;stroke-miterlimit:4;" d="M 61.037109 142.998047 L 67.160156 139.400391 L 79.40625 132.199219 L 85.526367 128.598633 L 91.649414 124.998047 L 97.772461 121.400391 L 103.892578 117.799805 L 122.261719 106.998047 L 128.381836 103.400391 L 146.750977 92.598633 L 152.871094 88.998047 L 158.994141 85.400391 L 171.240234 78.199219 L 177.360352 74.598633 L 183.483398 70.998047 L 189.606445 64.998047 L 195.726562 58.998047 L 214.095703 40.998047 L 220.21582 34.998047 L 238.584961 16.998047 " transform="matrix(1.333333,0,0,1.333333,0,0)"/>
<path style="fill:none;stroke-width:0.8;stroke-linecap:square;stroke-linejoin:miter;stroke:rgb(0%,0%,0%);stroke-opacity:1;stroke-miterlimit:4;" d="M 52.160156 149.299805 L 52.160156 10.699219 " transform="matrix(1.333333,0,0,1.333333,0,0)"/>
<path style="fill:none;stroke-width:0.8;stroke-linecap:square;stroke-linejoin:miter;stroke:rgb(0%,0%,0%);stroke-opacity:1;stroke-miterlimit:4;" d="M 247.461914 149.299805 L 247.461914 10.699219 " transform="matrix(1.333333,0,0,1.333333,0,0)"/>
<path style="fill:none;stroke-width:0.8;stroke-linecap:square;stroke-linejoin:miter;stroke:rgb(0%,0%,0%);stroke-opacity:1;stroke-miterlimit:4;" d="M 52.160156 149.299805 L 247.461914 149.299805 " transform="matrix(1.333333,0,0,1.333333,0,0)"/>
<path style="fill:none;stroke-width:0.8;stroke-linecap:square;stroke-linejoin:miter;stroke:rgb(0%,0%,0%);stroke-opacity:1;stroke-miterlimit:4;" d="M 52.160156 10.699219 L 247.461914 10.699219 " transform="matrix(1.333333,0,0,1.333333,0,0)"/>
<use xlink:href="#surface5" mask="url(#mask0)"/>
<path style="fill:none;stroke-width:1.5;stroke-linecap:square;stroke-linejoin:round;stroke:rgb(12.156863%,46.666667%,70.588237%);stroke-opacity:1;stroke-miterlimit:4;" d="M 194.557617 90.685547 L 214.558594 90.685547 " transform="matrix(1.333333,0,0,1.333333,0,0)"/>
<path style=" stroke:none;fill-rule:nonzero;fill:rgb(0%,0%,0%);fill-opacity:1;" d="M 300.980469 116.726562 C 300.304688 116.726562 299.796875 117.058594 299.453125 117.726562 C 299.113281 118.390625 298.945312 119.394531 298.945312 120.730469 C 298.945312 122.0625 299.113281 123.0625 299.453125 123.726562 C 299.796875 124.394531 300.304688 124.726562 300.980469 124.726562 C 301.664062 124.726562 302.175781 124.394531 302.515625 123.726562 C 302.855469 123.0625 303.027344 122.0625 303.027344 120.730469 C 303.027344 119.394531 302.855469 118.390625 302.515625 117.726562 C 302.175781 117.058594 301.664062 116.726562 300.980469 116.726562 Z M 300.980469 115.683594 C 302.070312 115.683594 302.902344 116.117188 303.480469 116.976562 C 304.054688 117.839844 304.339844 119.089844 304.339844 120.730469 C 304.339844 122.367188 304.054688 123.617188 303.480469 124.476562 C 302.902344 125.339844 302.070312 125.769531 300.980469 125.769531 C 299.890625 125.769531 299.058594 125.339844 298.484375 124.476562 C 297.910156 123.617188 297.621094 122.367188 297.621094 120.730469 C 297.621094 119.089844 297.910156 117.839844 298.484375 116.976562 C 299.058594 116.117188 299.890625 115.683594 300.980469 115.683594 Z M 300.980469 115.683594 "/>
<path style="fill:none;stroke-width:1.5;stroke-linecap:butt;stroke-linejoin:round;stroke:rgb(74.901962%,0%,74.901962%);stroke-opacity:1;stroke-dasharray:5.55,2.4;stroke-miterlimit:4;" d="M 194.557617 105.363281 L 214.558594 105.363281 " transform="matrix(1.333333,0,0,1.333333,0,0)"/>
<path style=" stroke:none;fill-rule:nonzero;fill:rgb(0%,0%,0%);fill-opacity:1;" d="M 300.980469 136.296875 C 300.304688 136.296875 299.796875 136.628906 299.453125 137.296875 C 299.113281 137.960938 298.945312 138.964844 298.945312 140.300781 C 298.945312 141.632812 299.113281 142.632812 299.453125 143.300781 C 299.796875 143.964844 300.304688 144.300781 300.980469 144.300781 C 301.664062 144.300781 302.175781 143.964844 302.515625 143.300781 C 302.855469 142.632812 303.027344 141.632812 303.027344 140.300781 C 303.027344 138.964844 302.855469 137.960938 302.515625 137.296875 C 302.175781 136.628906 301.664062 136.296875 300.980469 136.296875 Z M 300.980469 135.253906 C 302.070312 135.253906 302.902344 135.6875 303.480469 136.550781 C 304.054688 137.410156 304.339844 138.660156 304.339844 140.300781 C 304.339844 141.9375 304.054688 143.1875 303.480469 144.050781 C 302.902344 144.910156 302.070312 145.339844 300.980469 145.339844 C 299.890625 145.339844 299.058594 144.910156 298.484375 144.050781 C 297.910156 143.1875 297.621094 141.9375 297.621094 140.300781 C 297.621094 138.660156 297.910156 137.410156 298.484375 136.550781 C 299.058594 135.6875 299.890625 135.253906 300.980469 135.253906 Z M 300.980469 135.253906 "/>
<path style=" stroke:none;fill-rule:nonzero;fill:rgb(0%,0%,0%);fill-opacity:1;" d="M 306.652344 143.496094 L 308.027344 143.496094 L 308.027344 145.152344 L 306.652344 145.152344 Z M 306.652344 143.496094 "/>
<path style=" stroke:none;fill-rule:nonzero;fill:rgb(0%,0%,0%);fill-opacity:1;" d="M 312.023438 144.042969 L 316.613281 144.042969 L 316.613281 145.152344 L 310.441406 145.152344 L 310.441406 144.042969 C 310.941406 143.527344 311.621094 142.835938 312.480469 141.964844 C 313.34375 141.09375 313.886719 140.53125 314.105469 140.28125 C 314.527344 139.808594 314.820312 139.40625 314.988281 139.082031 C 315.15625 138.753906 315.238281 138.429688 315.238281 138.113281 C 315.238281 137.597656 315.058594 137.175781 314.695312 136.851562 C 314.332031 136.523438 313.863281 136.363281 313.28125 136.363281 C 312.867188 136.363281 312.433594 136.433594 311.972656 136.574219 C 311.515625 136.71875 311.027344 136.9375 310.507812 137.226562 L 310.507812 135.898438 C 311.035156 135.6875 311.53125 135.527344 311.988281 135.417969 C 312.453125 135.308594 312.871094 135.253906 313.253906 135.253906 C 314.261719 135.253906 315.0625 135.507812 315.664062 136.011719 C 316.261719 136.515625 316.5625 137.1875 316.5625 138.027344 C 316.5625 138.429688 316.484375 138.808594 316.335938 139.164062 C 316.1875 139.523438 315.914062 139.945312 315.519531 140.429688 C 315.410156 140.554688 315.066406 140.921875 314.484375 141.523438 C 313.902344 142.125 313.082031 142.964844 312.023438 144.042969 Z M 312.023438 144.042969 "/>
<path style="fill:none;stroke-width:1.5;stroke-linecap:butt;stroke-linejoin:round;stroke:rgb(0%,50.196081%,0%);stroke-opacity:1;stroke-dasharray:9.6,2.4,1.5,2.4;stroke-miterlimit:4;" d="M 194.557617 120.041016 L 214.558594 120.041016 " transform="matrix(1.333333,0,0,1.333333,0,0)"/>
<path style=" stroke:none;fill-rule:nonzero;fill:rgb(0%,0%,0%);fill-opacity:1;" d="M 300.980469 155.867188 C 300.304688 155.867188 299.796875 156.199219 299.453125 156.867188 C 299.113281 157.53125 298.945312 158.535156 298.945312 159.871094 C 298.945312 161.203125 299.113281 162.203125 299.453125 162.871094 C 299.796875 163.535156 300.304688 163.871094 300.980469 163.871094 C 301.664062 163.871094 302.175781 163.535156 302.515625 162.871094 C 302.855469 162.203125 303.027344 161.203125 303.027344 159.871094 C 303.027344 158.535156 302.855469 157.53125 302.515625 156.867188 C 302.175781 156.199219 301.664062 155.867188 300.980469 155.867188 Z M 300.980469 154.824219 C 302.070312 154.824219 302.902344 155.257812 303.480469 156.121094 C 304.054688 156.980469 304.339844 158.230469 304.339844 159.871094 C 304.339844 161.507812 304.054688 162.757812 303.480469 163.621094 C 302.902344 164.480469 302.070312 164.910156 300.980469 164.910156 C 299.890625 164.910156 299.058594 164.480469 298.484375 163.621094 C 297.910156 162.757812 297.621094 161.507812 297.621094 159.871094 C 297.621094 158.230469 297.910156 156.980469 298.484375 156.121094 C 299.058594 155.257812 299.890625 154.824219 300.980469 154.824219 Z M 300.980469 154.824219 "/>
<path style=" stroke:none;fill-rule:nonzero;fill:rgb(0%,0%,0%);fill-opacity:1;" d="M 306.652344 163.066406 L 308.027344 163.066406 L 308.027344 164.722656 L 306.652344 164.722656 Z M 306.652344 163.066406 "/>
<path style=" stroke:none;fill-rule:nonzero;fill:rgb(0%,0%,0%);fill-opacity:1;" d="M 314.503906 156.148438 L 311.183594 161.335938 L 314.503906 161.335938 Z M 314.160156 155 L 315.8125 155 L 315.8125 161.335938 L 317.199219 161.335938 L 317.199219 162.429688 L 315.8125 162.429688 L 315.8125 164.722656 L 314.503906 164.722656 L 314.503906 162.429688 L 310.117188 162.429688 L 310.117188 161.160156 Z M 314.160156 155 "/>
<path style="fill:none;stroke-width:1.5;stroke-linecap:butt;stroke-linejoin:round;stroke:rgb(100%,0%,0%);stroke-opacity:1;stroke-dasharray:1.5,2.475;stroke-miterlimit:4;" d="M 194.557617 134.71875 L 214.558594 134.71875 " transform="matrix(1.333333,0,0,1.333333,0,0)"/>
<path style=" stroke:none;fill-rule:nonzero;fill:rgb(0%,0%,0%);fill-opacity:1;" d="M 300.980469 175.4375 C 300.304688 175.4375 299.796875 175.773438 299.453125 176.4375 C 299.113281 177.105469 298.945312 178.105469 298.945312 179.441406 C 298.945312 180.773438 299.113281 181.773438 299.453125 182.441406 C 299.796875 183.105469 300.304688 183.441406 300.980469 183.441406 C 301.664062 183.441406 302.175781 183.105469 302.515625 182.441406 C 302.855469 181.773438 303.027344 180.773438 303.027344 179.441406 C 303.027344 178.105469 302.855469 177.105469 302.515625 176.4375 C 302.175781 175.773438 301.664062 175.4375 300.980469 175.4375 Z M 300.980469 174.398438 C 302.070312 174.398438 302.902344 174.828125 303.480469 175.691406 C 304.054688 176.550781 304.339844 177.800781 304.339844 179.441406 C 304.339844 181.078125 304.054688 182.328125 303.480469 183.191406 C 302.902344 184.050781 302.070312 184.480469 300.980469 184.480469 C 299.890625 184.480469 299.058594 184.050781 298.484375 183.191406 C 297.910156 182.328125 297.621094 181.078125 297.621094 179.441406 C 297.621094 177.800781 297.910156 176.550781 298.484375 175.691406 C 299.058594 174.828125 299.890625 174.398438 300.980469 174.398438 Z M 300.980469 174.398438 "/>
<path style=" stroke:none;fill-rule:nonzero;fill:rgb(0%,0%,0%);fill-opacity:1;" d="M 306.652344 182.636719 L 308.027344 182.636719 L 308.027344 184.292969 L 306.652344 184.292969 Z M 306.652344 182.636719 "/>
<path style=" stroke:none;fill-rule:nonzero;fill:rgb(0%,0%,0%);fill-opacity:1;" d="M 313.867188 178.910156 C 313.277344 178.910156 312.808594 179.113281 312.464844 179.515625 C 312.117188 179.917969 311.945312 180.472656 311.945312 181.175781 C 311.945312 181.871094 312.117188 182.425781 312.464844 182.832031 C 312.808594 183.238281 313.277344 183.441406 313.867188 183.441406 C 314.457031 183.441406 314.925781 183.238281 315.269531 182.832031 C 315.613281 182.425781 315.785156 181.871094 315.785156 181.175781 C 315.785156 180.472656 315.613281 179.917969 315.269531 179.515625 C 314.925781 179.113281 314.457031 178.910156 313.867188 178.910156 Z M 316.476562 174.785156 L 316.476562 175.984375 C 316.148438 175.828125 315.8125 175.710938 315.476562 175.628906 C 315.140625 175.542969 314.808594 175.503906 314.476562 175.503906 C 313.609375 175.503906 312.945312 175.796875 312.488281 176.382812 C 312.03125 176.96875 311.769531 177.855469 311.703125 179.039062 C 311.960938 178.660156 312.28125 178.371094 312.667969 178.167969 C 313.054688 177.96875 313.480469 177.867188 313.945312 177.867188 C 314.921875 177.867188 315.691406 178.164062 316.257812 178.757812 C 316.824219 179.347656 317.109375 180.15625 317.109375 181.175781 C 317.109375 182.171875 316.8125 182.972656 316.222656 183.578125 C 315.632812 184.179688 314.847656 184.480469 313.867188 184.480469 C 312.742188 184.480469 311.882812 184.050781 311.289062 183.191406 C 310.695312 182.328125 310.394531 181.078125 310.394531 179.441406 C 310.394531 177.90625 310.761719 176.679688 311.488281 175.769531 C 312.21875 174.855469 313.199219 174.398438 314.425781 174.398438 C 314.757812 174.398438 315.089844 174.429688 315.425781 174.496094 C 315.761719 174.558594 316.113281 174.65625 316.476562 174.785156 Z M 316.476562 174.785156 "/>
</g>
</svg>
