<?xml version="1.0" encoding="UTF-8"?>
<svg xmlns="http://www.w3.org/2000/svg" xmlns:xlink="http://www.w3.org/1999/xlink" width="323.430806" height="226.237508" viewBox="0 0 323.430806 226.237508" version="1.1">
<defs>
<clipPath id="clip1">
  <path d="M 59 9.601562 L 62 9.601562 L 62 194.398438 L 59 194.398438 Z M 59 9.601562 "/>
</clipPath>
<clipPath id="clip2">
  <path d="M 141 9.601562 L 143 9.601562 L 143 194.398438 L 141 194.398438 Z M 141 9.601562 "/>
</clipPath>
<clipPath id="clip3">
  <path d="M 222 9.601562 L 225 9.601562 L 225 194.398438 L 222 194.398438 Z M 222 9.601562 "/>
</clipPath>
<clipPath id="clip4">
  <path d="M 304 9.601562 L 307 9.601562 L 307 194.398438 L 304 194.398438 Z M 304 9.601562 "/>
</clipPath>
<clipPath id="clip5">
  <path d="M 48.621094 185 L 309.019531 185 L 309.019531 187 L 48.621094 187 Z M 48.621094 185 "/>
</clipPath>
<clipPath id="clip6">
  <path d="M 48.621094 151 L 309.019531 151 L 309.019531 154 L 48.621094 154 Z M 48.621094 151 "/>
</clipPath>
<clipPath id="clip7">
  <path d="M 48.621094 118 L 309.019531 118 L 309.019531 120 L 48.621094 120 Z M 48.621094 118 "/>
</clipPath>
<clipPath id="clip8">
  <path d="M 48.621094 84 L 309.019531 84 L 309.019531 86 L 48.621094 86 Z M 48.621094 84 "/>
</clipPath>
<clipPath id="clip9">
  <path d="M 48.621094 50 L 309.019531 50 L 309.019531 53 L 48.621094 53 Z M 48.621094 50 "/>
</clipPath>
<clipPath id="clip10">
  <path d="M 48.621094 17 L 309.019531 17 L 309.019531 19 L 48.621094 19 Z M 48.621094 17 "/>
</clipPath>
</defs>
<g id="surface1">
<path style=" stroke:none;fill-rule:nonzero;fill:rgb(100%,100%,100%);fill-opacity:1;" d="M 0 226.238281 L 323.429688 226.238281 L 323.429688 0 L 0 0 Z M 0 226.238281 "/>
<path style=" stroke:none;fill-rule:nonzero;fill:rgb(100%,100%,100%);fill-opacity:1;" d="M 48.621094 194.398438 L 309.019531 194.398438 L 309.019531 9.601562 L 48.621094 9.601562 Z M 48.621094 194.398438 "/>
<g clip-path="url(#clip1)" clip-rule="nonzero">
<path style="fill:none;stroke-width:0.8;stroke-linecap:square;stroke-linejoin:round;stroke:rgb(69.01961%,69.01961%,69.01961%);stroke-opacity:1;stroke-miterlimit:4;" d="M 45.342773 145.798828 L 45.342773 7.201172 " transform="matrix(1.333333,0,0,1.333333,0,0.000000000000014211)"/>
</g>
<path style="fill:none;stroke-width:0.8;stroke-linecap:butt;stroke-linejoin:round;stroke:rgb(0%,0%,0%);stroke-opacity:1;stroke-miterlimit:4;" d="M -0.000125885 -0.00117493 L -0.000125885 3.499802 " transform="matrix(1.333333,0,0,1.333333,60.457199,194.400004)"/>
<path style=" stroke:none;fill-rule:nonzero;fill:rgb(0%,0%,0%);fill-opacity:1;" d="M 60.453125 205.011719 C 59.777344 205.011719 59.269531 205.34375 58.925781 206.011719 C 58.585938 206.675781 58.414062 207.675781 58.414062 209.015625 C 58.414062 210.347656 58.585938 211.347656 58.925781 212.011719 C 59.269531 212.679688 59.777344 213.011719 60.453125 213.011719 C 61.136719 213.011719 61.644531 212.679688 61.988281 212.011719 C 62.328125 211.347656 62.5 210.347656 62.5 209.015625 C 62.5 207.675781 62.328125 206.675781 61.988281 206.011719 C 61.644531 205.34375 61.136719 205.011719 60.453125 205.011719 Z M 60.453125 203.96875 C 61.542969 203.96875 62.375 204.398438 62.949219 205.261719 C 63.527344 206.125 63.8125 207.375 63.8125 209.015625 C 63.8125 210.652344 63.527344 211.898438 62.949219 212.761719 C 62.375 213.625 61.542969 214.054688 60.453125 214.054688 C 59.363281 214.054688 58.53125 213.625 57.957031 212.761719 C 57.382812 211.898438 57.09375 210.652344 57.09375 209.015625 C 57.09375 207.375 57.382812 206.125 57.957031 205.261719 C 58.53125 204.398438 59.363281 203.96875 60.453125 203.96875 Z M 60.453125 203.96875 "/>
<g clip-path="url(#clip2)" clip-rule="nonzero">
<path style="fill:none;stroke-width:0.8;stroke-linecap:square;stroke-linejoin:round;stroke:rgb(69.01961%,69.01961%,69.01961%);stroke-opacity:1;stroke-miterlimit:4;" d="M 106.564453 145.798828 L 106.564453 7.201172 " transform="matrix(1.333333,0,0,1.333333,0,0.000000000000014211)"/>
</g>
<path style="fill:none;stroke-width:0.8;stroke-linecap:butt;stroke-linejoin:round;stroke:rgb(0%,0%,0%);stroke-opacity:1;stroke-miterlimit:4;" d="M -0.00101471 -0.00117493 L -0.00101471 3.499802 " transform="matrix(1.333333,0,0,1.333333,142.08729,194.400004)"/>
<path style=" stroke:none;fill-rule:nonzero;fill:rgb(0%,0%,0%);fill-opacity:1;" d="M 135.257812 212.757812 L 137.40625 212.757812 L 137.40625 205.339844 L 135.070312 205.808594 L 135.070312 204.613281 L 137.394531 204.144531 L 138.707031 204.144531 L 138.707031 212.757812 L 140.855469 212.757812 L 140.855469 213.863281 L 135.257812 213.863281 Z M 135.257812 212.757812 "/>
<path style=" stroke:none;fill-rule:nonzero;fill:rgb(0%,0%,0%);fill-opacity:1;" d="M 146.324219 205.011719 C 145.648438 205.011719 145.140625 205.34375 144.796875 206.011719 C 144.457031 206.675781 144.285156 207.675781 144.285156 209.015625 C 144.285156 210.347656 144.457031 211.347656 144.796875 212.011719 C 145.140625 212.679688 145.648438 213.011719 146.324219 213.011719 C 147.007812 213.011719 147.519531 212.679688 147.859375 212.011719 C 148.199219 211.347656 148.371094 210.347656 148.371094 209.015625 C 148.371094 207.675781 148.199219 206.675781 147.859375 206.011719 C 147.519531 205.34375 147.007812 205.011719 146.324219 205.011719 Z M 146.324219 203.96875 C 147.414062 203.96875 148.246094 204.398438 148.824219 205.261719 C 149.398438 206.125 149.683594 207.375 149.683594 209.015625 C 149.683594 210.652344 149.398438 211.898438 148.824219 212.761719 C 148.246094 213.625 147.414062 214.054688 146.324219 214.054688 C 145.234375 214.054688 144.402344 213.625 143.828125 212.761719 C 143.253906 211.898438 142.964844 210.652344 142.964844 209.015625 C 142.964844 207.375 143.253906 206.125 143.828125 205.261719 C 144.402344 204.398438 145.234375 203.96875 146.324219 203.96875 Z M 146.324219 203.96875 "/>
<g clip-path="url(#clip3)" clip-rule="nonzero">
<path style="fill:none;stroke-width:0.8;stroke-linecap:square;stroke-linejoin:round;stroke:rgb(69.01961%,69.01961%,69.01961%);stroke-opacity:1;stroke-miterlimit:4;" d="M 167.789062 145.798828 L 167.789062 7.201172 " transform="matrix(1.333333,0,0,1.333333,0,0.000000000000014211)"/>
</g>
<path style="fill:none;stroke-width:0.8;stroke-linecap:butt;stroke-linejoin:round;stroke:rgb(0%,0%,0%);stroke-opacity:1;stroke-miterlimit:4;" d="M 0.00102234 -0.00117493 L 0.00102234 3.499802 " transform="matrix(1.333333,0,0,1.333333,223.717387,194.400004)"/>
<path style=" stroke:none;fill-rule:nonzero;fill:rgb(0%,0%,0%);fill-opacity:1;" d="M 217.792969 212.757812 L 222.382812 212.757812 L 222.382812 213.863281 L 216.210938 213.863281 L 216.210938 212.757812 C 216.710938 212.242188 217.390625 211.546875 218.25 210.679688 C 219.113281 209.808594 219.65625 209.246094 219.875 208.992188 C 220.296875 208.523438 220.589844 208.121094 220.757812 207.792969 C 220.925781 207.464844 221.007812 207.144531 221.007812 206.828125 C 221.007812 206.308594 220.828125 205.890625 220.464844 205.566406 C 220.101562 205.238281 219.628906 205.074219 219.046875 205.074219 C 218.636719 205.074219 218.199219 205.148438 217.742188 205.289062 C 217.285156 205.433594 216.796875 205.648438 216.277344 205.941406 L 216.277344 204.613281 C 216.804688 204.398438 217.300781 204.238281 217.757812 204.132812 C 218.21875 204.023438 218.640625 203.96875 219.023438 203.96875 C 220.03125 203.96875 220.832031 204.222656 221.433594 204.726562 C 222.03125 205.226562 222.328125 205.898438 222.328125 206.742188 C 222.328125 207.140625 222.253906 207.519531 222.105469 207.878906 C 221.957031 208.234375 221.683594 208.65625 221.289062 209.144531 C 221.179688 209.269531 220.835938 209.632812 220.253906 210.234375 C 219.671875 210.835938 218.851562 211.679688 217.792969 212.757812 Z M 217.792969 212.757812 "/>
<path style=" stroke:none;fill-rule:nonzero;fill:rgb(0%,0%,0%);fill-opacity:1;" d="M 227.953125 205.011719 C 227.277344 205.011719 226.769531 205.34375 226.425781 206.011719 C 226.085938 206.675781 225.917969 207.675781 225.917969 209.015625 C 225.917969 210.347656 226.085938 211.347656 226.425781 212.011719 C 226.769531 212.679688 227.277344 213.011719 227.953125 213.011719 C 228.636719 213.011719 229.148438 212.679688 229.488281 212.011719 C 229.828125 211.347656 230 210.347656 230 209.015625 C 230 207.675781 229.828125 206.675781 229.488281 206.011719 C 229.148438 205.34375 228.636719 205.011719 227.953125 205.011719 Z M 227.953125 203.96875 C 229.042969 203.96875 229.878906 204.398438 230.453125 205.261719 C 231.027344 206.125 231.316406 207.375 231.316406 209.015625 C 231.316406 210.652344 231.027344 211.898438 230.453125 212.761719 C 229.878906 213.625 229.042969 214.054688 227.953125 214.054688 C 226.867188 214.054688 226.035156 213.625 225.457031 212.761719 C 224.882812 211.898438 224.597656 210.652344 224.597656 209.015625 C 224.597656 207.375 224.882812 206.125 225.457031 205.261719 C 226.035156 204.398438 226.867188 203.96875 227.953125 203.96875 Z M 227.953125 203.96875 "/>
<g clip-path="url(#clip4)" clip-rule="nonzero">
<path style="fill:none;stroke-width:0.8;stroke-linecap:square;stroke-linejoin:round;stroke:rgb(69.01961%,69.01961%,69.01961%);stroke-opacity:1;stroke-miterlimit:4;" d="M 229.010742 145.798828 L 229.010742 7.201172 " transform="matrix(1.333333,0,0,1.333333,0,0.000000000000014211)"/>
</g>
<path style="fill:none;stroke-width:0.8;stroke-linecap:butt;stroke-linejoin:round;stroke:rgb(0%,0%,0%);stroke-opacity:1;stroke-miterlimit:4;" d="M 0.000137329 -0.00117493 L 0.000137329 3.499802 " transform="matrix(1.333333,0,0,1.333333,305.347473,194.400004)"/>
<path style=" stroke:none;fill-rule:nonzero;fill:rgb(0%,0%,0%);fill-opacity:1;" d="M 302.273438 208.621094 C 302.902344 208.757812 303.394531 209.039062 303.746094 209.464844 C 304.101562 209.890625 304.277344 210.414062 304.277344 211.039062 C 304.277344 211.996094 303.949219 212.742188 303.289062 213.265625 C 302.628906 213.792969 301.691406 214.054688 300.476562 214.054688 C 300.070312 214.054688 299.648438 214.015625 299.21875 213.933594 C 298.785156 213.851562 298.339844 213.730469 297.878906 213.570312 L 297.878906 212.300781 C 298.246094 212.515625 298.644531 212.675781 299.078125 212.785156 C 299.511719 212.890625 299.964844 212.945312 300.4375 212.945312 C 301.261719 212.945312 301.890625 212.785156 302.324219 212.457031 C 302.753906 212.132812 302.96875 211.660156 302.96875 211.039062 C 302.96875 210.464844 302.769531 210.019531 302.367188 209.695312 C 301.96875 209.371094 301.410156 209.210938 300.691406 209.210938 L 299.558594 209.210938 L 299.558594 208.128906 L 300.746094 208.128906 C 301.390625 208.128906 301.886719 208 302.230469 207.742188 C 302.570312 207.484375 302.742188 207.109375 302.742188 206.625 C 302.742188 206.125 302.566406 205.742188 302.210938 205.476562 C 301.859375 205.210938 301.351562 205.074219 300.691406 205.074219 C 300.332031 205.074219 299.945312 205.113281 299.53125 205.195312 C 299.121094 205.273438 298.667969 205.390625 298.171875 205.554688 L 298.171875 204.386719 C 298.671875 204.246094 299.140625 204.140625 299.578125 204.074219 C 300.011719 204.003906 300.425781 203.96875 300.808594 203.96875 C 301.808594 203.96875 302.597656 204.195312 303.179688 204.648438 C 303.761719 205.101562 304.050781 205.714844 304.050781 206.488281 C 304.050781 207.027344 303.898438 207.480469 303.589844 207.851562 C 303.28125 208.222656 302.84375 208.480469 302.273438 208.621094 Z M 302.273438 208.621094 "/>
<path style=" stroke:none;fill-rule:nonzero;fill:rgb(0%,0%,0%);fill-opacity:1;" d="M 309.585938 205.011719 C 308.910156 205.011719 308.398438 205.34375 308.058594 206.011719 C 307.71875 206.675781 307.546875 207.675781 307.546875 209.015625 C 307.546875 210.347656 307.71875 211.347656 308.058594 212.011719 C 308.398438 212.679688 308.910156 213.011719 309.585938 213.011719 C 310.265625 213.011719 310.777344 212.679688 311.117188 212.011719 C 311.460938 211.347656 311.628906 210.347656 311.628906 209.015625 C 311.628906 207.675781 311.460938 206.675781 311.117188 206.011719 C 310.777344 205.34375 310.265625 205.011719 309.585938 205.011719 Z M 309.585938 203.96875 C 310.675781 203.96875 311.507812 204.398438 312.082031 205.261719 C 312.65625 206.125 312.945312 207.375 312.945312 209.015625 C 312.945312 210.652344 312.65625 211.898438 312.082031 212.761719 C 311.507812 213.625 310.675781 214.054688 309.585938 214.054688 C 308.496094 214.054688 307.664062 213.625 307.089844 212.761719 C 306.515625 211.898438 306.226562 210.652344 306.226562 209.015625 C 306.226562 207.375 306.515625 206.125 307.089844 205.261719 C 307.664062 204.398438 308.496094 203.96875 309.585938 203.96875 Z M 309.585938 203.96875 "/>
<g clip-path="url(#clip5)" clip-rule="nonzero">
<path style="fill:none;stroke-width:0.8;stroke-linecap:square;stroke-linejoin:round;stroke:rgb(69.01961%,69.01961%,69.01961%);stroke-opacity:1;stroke-miterlimit:4;" d="M 36.46582 139.5 L 231.764648 139.5 " transform="matrix(1.333333,0,0,1.333333,0,0.000000000000014211)"/>
</g>
<path style="fill:none;stroke-width:0.8;stroke-linecap:butt;stroke-linejoin:round;stroke:rgb(0%,0%,0%);stroke-opacity:1;stroke-miterlimit:4;" d="M 0.00019455 0 L -3.500782 0 " transform="matrix(1.333333,0,0,1.333333,48.620834,186)"/>
<path style=" stroke:none;fill-rule:nonzero;fill:rgb(0%,0%,0%);fill-opacity:1;" d="M 13.835938 182.210938 C 13.160156 182.210938 12.652344 182.542969 12.308594 183.210938 C 11.96875 183.875 11.800781 184.878906 11.800781 186.214844 C 11.800781 187.546875 11.96875 188.546875 12.308594 189.214844 C 12.652344 189.878906 13.160156 190.214844 13.835938 190.214844 C 14.519531 190.214844 15.03125 189.878906 15.371094 189.214844 C 15.710938 188.546875 15.882812 187.546875 15.882812 186.214844 C 15.882812 184.878906 15.710938 183.875 15.371094 183.210938 C 15.03125 182.542969 14.519531 182.210938 13.835938 182.210938 Z M 13.835938 181.167969 C 14.929688 181.167969 15.761719 181.601562 16.335938 182.464844 C 16.910156 183.324219 17.199219 184.574219 17.199219 186.214844 C 17.199219 187.851562 16.910156 189.101562 16.335938 189.964844 C 15.761719 190.824219 14.929688 191.253906 13.835938 191.253906 C 12.75 191.253906 11.917969 190.824219 11.339844 189.964844 C 10.765625 189.101562 10.480469 187.851562 10.480469 186.214844 C 10.480469 184.574219 10.765625 183.324219 11.339844 182.464844 C 11.917969 181.601562 12.75 181.167969 13.835938 181.167969 Z M 13.835938 181.167969 "/>
<path style=" stroke:none;fill-rule:nonzero;fill:rgb(0%,0%,0%);fill-opacity:1;" d="M 19.507812 189.410156 L 20.882812 189.410156 L 20.882812 191.066406 L 19.507812 191.066406 Z M 19.507812 189.410156 "/>
<path style=" stroke:none;fill-rule:nonzero;fill:rgb(0%,0%,0%);fill-opacity:1;" d="M 24.878906 189.960938 L 29.46875 189.960938 L 29.46875 191.066406 L 23.296875 191.066406 L 23.296875 189.960938 C 23.796875 189.441406 24.476562 188.75 25.339844 187.878906 C 26.199219 187.007812 26.742188 186.449219 26.964844 186.195312 C 27.382812 185.722656 27.675781 185.324219 27.84375 184.996094 C 28.011719 184.667969 28.097656 184.34375 28.097656 184.027344 C 28.097656 183.511719 27.914062 183.089844 27.550781 182.765625 C 27.191406 182.4375 26.71875 182.277344 26.136719 182.277344 C 25.722656 182.277344 25.289062 182.347656 24.828125 182.492188 C 24.371094 182.632812 23.882812 182.851562 23.363281 183.144531 L 23.363281 181.8125 C 23.890625 181.601562 24.386719 181.441406 24.847656 181.332031 C 25.308594 181.222656 25.730469 181.167969 26.109375 181.167969 C 27.117188 181.167969 27.921875 181.421875 28.519531 181.925781 C 29.117188 182.429688 29.417969 183.101562 29.417969 183.941406 C 29.417969 184.34375 29.34375 184.722656 29.191406 185.082031 C 29.042969 185.4375 28.769531 185.859375 28.375 186.34375 C 28.265625 186.472656 27.921875 186.835938 27.339844 187.4375 C 26.757812 188.039062 25.9375 188.878906 24.878906 189.960938 Z M 24.878906 189.960938 "/>
<path style=" stroke:none;fill-rule:nonzero;fill:rgb(0%,0%,0%);fill-opacity:1;" d="M 32.242188 181.34375 L 37.40625 181.34375 L 37.40625 182.453125 L 33.449219 182.453125 L 33.449219 184.835938 C 33.636719 184.769531 33.828125 184.71875 34.019531 184.6875 C 34.210938 184.65625 34.402344 184.640625 34.59375 184.640625 C 35.679688 184.640625 36.539062 184.9375 37.171875 185.53125 C 37.804688 186.125 38.125 186.929688 38.125 187.945312 C 38.125 188.992188 37.796875 189.804688 37.144531 190.386719 C 36.496094 190.964844 35.578125 191.253906 34.390625 191.253906 C 33.984375 191.253906 33.566406 191.21875 33.144531 191.152344 C 32.722656 191.082031 32.285156 190.976562 31.832031 190.839844 L 31.832031 189.515625 C 32.222656 189.726562 32.628906 189.886719 33.042969 189.992188 C 33.460938 190.09375 33.902344 190.148438 34.363281 190.148438 C 35.117188 190.148438 35.710938 189.949219 36.148438 189.554688 C 36.585938 189.160156 36.804688 188.625 36.804688 187.945312 C 36.804688 187.269531 36.585938 186.734375 36.148438 186.339844 C 35.710938 185.945312 35.117188 185.746094 34.363281 185.746094 C 34.011719 185.746094 33.664062 185.785156 33.3125 185.863281 C 32.964844 185.941406 32.609375 186.0625 32.242188 186.226562 Z M 32.242188 181.34375 "/>
<g clip-path="url(#clip6)" clip-rule="nonzero">
<path style="fill:none;stroke-width:0.8;stroke-linecap:square;stroke-linejoin:round;stroke:rgb(69.01961%,69.01961%,69.01961%);stroke-opacity:1;stroke-miterlimit:4;" d="M 36.46582 114.298828 L 231.764648 114.298828 " transform="matrix(1.333333,0,0,1.333333,0,0.000000000000014211)"/>
</g>
<path style="fill:none;stroke-width:0.8;stroke-linecap:butt;stroke-linejoin:round;stroke:rgb(0%,0%,0%);stroke-opacity:1;stroke-miterlimit:4;" d="M 0.00019455 -0.00117493 L -3.500782 -0.00117493 " transform="matrix(1.333333,0,0,1.333333,48.620834,152.400004)"/>
<path style=" stroke:none;fill-rule:nonzero;fill:rgb(0%,0%,0%);fill-opacity:1;" d="M 13.835938 148.613281 C 13.160156 148.613281 12.652344 148.945312 12.308594 149.613281 C 11.96875 150.277344 11.800781 151.277344 11.800781 152.617188 C 11.800781 153.949219 11.96875 154.945312 12.308594 155.613281 C 12.652344 156.28125 13.160156 156.613281 13.835938 156.613281 C 14.519531 156.613281 15.03125 156.28125 15.371094 155.613281 C 15.710938 154.945312 15.882812 153.949219 15.882812 152.617188 C 15.882812 151.277344 15.710938 150.277344 15.371094 149.613281 C 15.03125 148.945312 14.519531 148.613281 13.835938 148.613281 Z M 13.835938 147.570312 C 14.929688 147.570312 15.761719 148 16.335938 148.863281 C 16.910156 149.726562 17.199219 150.976562 17.199219 152.617188 C 17.199219 154.25 16.910156 155.5 16.335938 156.363281 C 15.761719 157.226562 14.929688 157.65625 13.835938 157.65625 C 12.75 157.65625 11.917969 157.226562 11.339844 156.363281 C 10.765625 155.5 10.480469 154.25 10.480469 152.617188 C 10.480469 150.976562 10.765625 149.726562 11.339844 148.863281 C 11.917969 148 12.75 147.570312 13.835938 147.570312 Z M 13.835938 147.570312 "/>
<path style=" stroke:none;fill-rule:nonzero;fill:rgb(0%,0%,0%);fill-opacity:1;" d="M 19.507812 155.8125 L 20.882812 155.8125 L 20.882812 157.464844 L 19.507812 157.464844 Z M 19.507812 155.8125 "/>
<path style=" stroke:none;fill-rule:nonzero;fill:rgb(0%,0%,0%);fill-opacity:1;" d="M 27.730469 152.222656 C 28.359375 152.359375 28.851562 152.640625 29.203125 153.066406 C 29.558594 153.492188 29.734375 154.015625 29.734375 154.640625 C 29.734375 155.597656 29.40625 156.339844 28.746094 156.867188 C 28.085938 157.394531 27.148438 157.65625 25.933594 157.65625 C 25.527344 157.65625 25.109375 157.613281 24.675781 157.535156 C 24.242188 157.453125 23.796875 157.332031 23.339844 157.171875 L 23.339844 155.902344 C 23.703125 156.117188 24.101562 156.277344 24.535156 156.382812 C 24.96875 156.492188 25.421875 156.546875 25.894531 156.546875 C 26.71875 156.546875 27.347656 156.382812 27.78125 156.058594 C 28.210938 155.734375 28.425781 155.261719 28.425781 154.640625 C 28.425781 154.066406 28.226562 153.617188 27.824219 153.296875 C 27.425781 152.972656 26.867188 152.8125 26.152344 152.8125 L 25.015625 152.8125 L 25.015625 151.730469 L 26.203125 151.730469 C 26.847656 151.730469 27.34375 151.601562 27.6875 151.34375 C 28.027344 151.085938 28.199219 150.710938 28.199219 150.226562 C 28.199219 149.726562 28.023438 149.34375 27.667969 149.078125 C 27.316406 148.808594 26.808594 148.675781 26.152344 148.675781 C 25.789062 148.675781 25.402344 148.714844 24.988281 148.792969 C 24.578125 148.871094 24.125 148.992188 23.628906 149.15625 L 23.628906 147.988281 C 24.128906 147.847656 24.597656 147.742188 25.035156 147.675781 C 25.46875 147.605469 25.882812 147.570312 26.265625 147.570312 C 27.265625 147.570312 28.054688 147.796875 28.636719 148.25 C 29.21875 148.703125 29.507812 149.316406 29.507812 150.089844 C 29.507812 150.628906 29.355469 151.082031 29.046875 151.453125 C 28.738281 151.824219 28.300781 152.082031 27.730469 152.222656 Z M 27.730469 152.222656 "/>
<path style=" stroke:none;fill-rule:nonzero;fill:rgb(0%,0%,0%);fill-opacity:1;" d="M 35.042969 148.613281 C 34.367188 148.613281 33.855469 148.945312 33.515625 149.613281 C 33.175781 150.277344 33.003906 151.277344 33.003906 152.617188 C 33.003906 153.949219 33.175781 154.945312 33.515625 155.613281 C 33.855469 156.28125 34.367188 156.613281 35.042969 156.613281 C 35.722656 156.613281 36.234375 156.28125 36.574219 155.613281 C 36.917969 154.945312 37.085938 153.949219 37.085938 152.617188 C 37.085938 151.277344 36.917969 150.277344 36.574219 149.613281 C 36.234375 148.945312 35.722656 148.613281 35.042969 148.613281 Z M 35.042969 147.570312 C 36.132812 147.570312 36.964844 148 37.539062 148.863281 C 38.113281 149.726562 38.402344 150.976562 38.402344 152.617188 C 38.402344 154.25 38.113281 155.5 37.539062 156.363281 C 36.964844 157.226562 36.132812 157.65625 35.042969 157.65625 C 33.953125 157.65625 33.121094 157.226562 32.546875 156.363281 C 31.972656 155.5 31.683594 154.25 31.683594 152.617188 C 31.683594 150.976562 31.972656 149.726562 32.546875 148.863281 C 33.121094 148 33.953125 147.570312 35.042969 147.570312 Z M 35.042969 147.570312 "/>
<g clip-path="url(#clip7)" clip-rule="nonzero">
<path style="fill:none;stroke-width:0.8;stroke-linecap:square;stroke-linejoin:round;stroke:rgb(69.01961%,69.01961%,69.01961%);stroke-opacity:1;stroke-miterlimit:4;" d="M 36.46582 89.100586 L 231.764648 89.100586 " transform="matrix(1.333333,0,0,1.333333,0,0.000000000000014211)"/>
</g>
<path style="fill:none;stroke-width:0.8;stroke-linecap:butt;stroke-linejoin:round;stroke:rgb(0%,0%,0%);stroke-opacity:1;stroke-miterlimit:4;" d="M 0.00019455 0.000587463 L -3.500782 0.000587463 " transform="matrix(1.333333,0,0,1.333333,48.620834,118.799998)"/>
<path style=" stroke:none;fill-rule:nonzero;fill:rgb(0%,0%,0%);fill-opacity:1;" d="M 13.835938 115.011719 C 13.160156 115.011719 12.652344 115.34375 12.308594 116.011719 C 11.96875 116.675781 11.800781 117.679688 11.800781 119.015625 C 11.800781 120.347656 11.96875 121.347656 12.308594 122.011719 C 12.652344 122.679688 13.160156 123.011719 13.835938 123.011719 C 14.519531 123.011719 15.03125 122.679688 15.371094 122.011719 C 15.710938 121.347656 15.882812 120.347656 15.882812 119.015625 C 15.882812 117.679688 15.710938 116.675781 15.371094 116.011719 C 15.03125 115.34375 14.519531 115.011719 13.835938 115.011719 Z M 13.835938 113.96875 C 14.929688 113.96875 15.761719 114.402344 16.335938 115.261719 C 16.910156 116.125 17.199219 117.375 17.199219 119.015625 C 17.199219 120.652344 16.910156 121.902344 16.335938 122.761719 C 15.761719 123.625 14.929688 124.054688 13.835938 124.054688 C 12.75 124.054688 11.917969 123.625 11.339844 122.761719 C 10.765625 121.902344 10.480469 120.652344 10.480469 119.015625 C 10.480469 117.375 10.765625 116.125 11.339844 115.261719 C 11.917969 114.402344 12.75 113.96875 13.835938 113.96875 Z M 13.835938 113.96875 "/>
<path style=" stroke:none;fill-rule:nonzero;fill:rgb(0%,0%,0%);fill-opacity:1;" d="M 19.507812 122.210938 L 20.882812 122.210938 L 20.882812 123.867188 L 19.507812 123.867188 Z M 19.507812 122.210938 "/>
<path style=" stroke:none;fill-rule:nonzero;fill:rgb(0%,0%,0%);fill-opacity:1;" d="M 27.730469 118.625 C 28.359375 118.757812 28.851562 119.039062 29.203125 119.464844 C 29.558594 119.890625 29.734375 120.414062 29.734375 121.039062 C 29.734375 122 29.40625 122.742188 28.746094 123.269531 C 28.085938 123.792969 27.148438 124.054688 25.933594 124.054688 C 25.527344 124.054688 25.109375 124.015625 24.675781 123.933594 C 24.242188 123.855469 23.796875 123.734375 23.339844 123.570312 L 23.339844 122.304688 C 23.703125 122.515625 24.101562 122.675781 24.535156 122.785156 C 24.96875 122.894531 25.421875 122.945312 25.894531 122.945312 C 26.71875 122.945312 27.347656 122.785156 27.78125 122.460938 C 28.210938 122.132812 28.425781 121.660156 28.425781 121.039062 C 28.425781 120.46875 28.226562 120.019531 27.824219 119.695312 C 27.425781 119.375 26.867188 119.210938 26.152344 119.210938 L 25.015625 119.210938 L 25.015625 118.128906 L 26.203125 118.128906 C 26.847656 118.128906 27.34375 118 27.6875 117.742188 C 28.027344 117.484375 28.199219 117.113281 28.199219 116.625 C 28.199219 116.128906 28.023438 115.746094 27.667969 115.476562 C 27.316406 115.210938 26.808594 115.074219 26.152344 115.074219 C 25.789062 115.074219 25.402344 115.117188 24.988281 115.195312 C 24.578125 115.273438 24.125 115.394531 23.628906 115.558594 L 23.628906 114.386719 C 24.128906 114.246094 24.597656 114.144531 25.035156 114.074219 C 25.46875 114.003906 25.882812 113.96875 26.265625 113.96875 C 27.265625 113.96875 28.054688 114.195312 28.636719 114.652344 C 29.21875 115.105469 29.507812 115.714844 29.507812 116.488281 C 29.507812 117.027344 29.355469 117.480469 29.046875 117.851562 C 28.738281 118.222656 28.300781 118.480469 27.730469 118.625 Z M 27.730469 118.625 "/>
<path style=" stroke:none;fill-rule:nonzero;fill:rgb(0%,0%,0%);fill-opacity:1;" d="M 32.242188 114.144531 L 37.40625 114.144531 L 37.40625 115.253906 L 33.449219 115.253906 L 33.449219 117.632812 C 33.636719 117.570312 33.828125 117.519531 34.019531 117.488281 C 34.210938 117.457031 34.402344 117.441406 34.59375 117.441406 C 35.679688 117.441406 36.539062 117.738281 37.171875 118.332031 C 37.804688 118.925781 38.125 119.730469 38.125 120.746094 C 38.125 121.792969 37.796875 122.605469 37.144531 123.1875 C 36.496094 123.765625 35.578125 124.054688 34.390625 124.054688 C 33.984375 124.054688 33.566406 124.019531 33.144531 123.949219 C 32.722656 123.882812 32.285156 123.777344 31.832031 123.636719 L 31.832031 122.316406 C 32.222656 122.527344 32.628906 122.6875 33.042969 122.789062 C 33.460938 122.894531 33.902344 122.945312 34.363281 122.945312 C 35.117188 122.945312 35.710938 122.75 36.148438 122.355469 C 36.585938 121.960938 36.804688 121.425781 36.804688 120.746094 C 36.804688 120.070312 36.585938 119.535156 36.148438 119.140625 C 35.710938 118.746094 35.117188 118.546875 34.363281 118.546875 C 34.011719 118.546875 33.664062 118.585938 33.3125 118.664062 C 32.964844 118.742188 32.609375 118.863281 32.242188 119.027344 Z M 32.242188 114.144531 "/>
<g clip-path="url(#clip8)" clip-rule="nonzero">
<path style="fill:none;stroke-width:0.8;stroke-linecap:square;stroke-linejoin:round;stroke:rgb(69.01961%,69.01961%,69.01961%);stroke-opacity:1;stroke-miterlimit:4;" d="M 36.46582 63.899414 L 231.764648 63.899414 " transform="matrix(1.333333,0,0,1.333333,0,0.000000000000014211)"/>
</g>
<path style="fill:none;stroke-width:0.8;stroke-linecap:butt;stroke-linejoin:round;stroke:rgb(0%,0%,0%);stroke-opacity:1;stroke-miterlimit:4;" d="M 0.00019455 -0.000587463 L -3.500782 -0.000587463 " transform="matrix(1.333333,0,0,1.333333,48.620834,85.200002)"/>
<path style=" stroke:none;fill-rule:nonzero;fill:rgb(0%,0%,0%);fill-opacity:1;" d="M 13.835938 81.410156 C 13.160156 81.410156 12.652344 81.746094 12.308594 82.410156 C 11.96875 83.078125 11.800781 84.078125 11.800781 85.414062 C 11.800781 86.746094 11.96875 87.746094 12.308594 88.414062 C 12.652344 89.082031 13.160156 89.414062 13.835938 89.414062 C 14.519531 89.414062 15.03125 89.082031 15.371094 88.414062 C 15.710938 87.746094 15.882812 86.746094 15.882812 85.414062 C 15.882812 84.078125 15.710938 83.078125 15.371094 82.410156 C 15.03125 81.746094 14.519531 81.410156 13.835938 81.410156 Z M 13.835938 80.371094 C 14.929688 80.371094 15.761719 80.800781 16.335938 81.664062 C 16.910156 82.523438 17.199219 83.773438 17.199219 85.414062 C 17.199219 87.050781 16.910156 88.300781 16.335938 89.164062 C 15.761719 90.023438 14.929688 90.457031 13.835938 90.457031 C 12.75 90.457031 11.917969 90.023438 11.339844 89.164062 C 10.765625 88.300781 10.480469 87.050781 10.480469 85.414062 C 10.480469 83.773438 10.765625 82.523438 11.339844 81.664062 C 11.917969 80.800781 12.75 80.371094 13.835938 80.371094 Z M 13.835938 80.371094 "/>
<path style=" stroke:none;fill-rule:nonzero;fill:rgb(0%,0%,0%);fill-opacity:1;" d="M 19.507812 88.613281 L 20.882812 88.613281 L 20.882812 90.265625 L 19.507812 90.265625 Z M 19.507812 88.613281 "/>
<path style=" stroke:none;fill-rule:nonzero;fill:rgb(0%,0%,0%);fill-opacity:1;" d="M 27.359375 81.691406 L 24.039062 86.878906 L 27.359375 86.878906 Z M 27.015625 80.542969 L 28.667969 80.542969 L 28.667969 86.878906 L 30.058594 86.878906 L 30.058594 87.972656 L 28.667969 87.972656 L 28.667969 90.265625 L 27.359375 90.265625 L 27.359375 87.972656 L 22.972656 87.972656 L 22.972656 86.707031 Z M 27.015625 80.542969 "/>
<path style=" stroke:none;fill-rule:nonzero;fill:rgb(0%,0%,0%);fill-opacity:1;" d="M 35.042969 81.410156 C 34.367188 81.410156 33.855469 81.746094 33.515625 82.410156 C 33.175781 83.078125 33.003906 84.078125 33.003906 85.414062 C 33.003906 86.746094 33.175781 87.746094 33.515625 88.414062 C 33.855469 89.082031 34.367188 89.414062 35.042969 89.414062 C 35.722656 89.414062 36.234375 89.082031 36.574219 88.414062 C 36.917969 87.746094 37.085938 86.746094 37.085938 85.414062 C 37.085938 84.078125 36.917969 83.078125 36.574219 82.410156 C 36.234375 81.746094 35.722656 81.410156 35.042969 81.410156 Z M 35.042969 80.371094 C 36.132812 80.371094 36.964844 80.800781 37.539062 81.664062 C 38.113281 82.523438 38.402344 83.773438 38.402344 85.414062 C 38.402344 87.050781 38.113281 88.300781 37.539062 89.164062 C 36.964844 90.023438 36.132812 90.457031 35.042969 90.457031 C 33.953125 90.457031 33.121094 90.023438 32.546875 89.164062 C 31.972656 88.300781 31.683594 87.050781 31.683594 85.414062 C 31.683594 83.773438 31.972656 82.523438 32.546875 81.664062 C 33.121094 80.800781 33.953125 80.371094 35.042969 80.371094 Z M 35.042969 80.371094 "/>
<g clip-path="url(#clip9)" clip-rule="nonzero">
<path style="fill:none;stroke-width:0.8;stroke-linecap:square;stroke-linejoin:round;stroke:rgb(69.01961%,69.01961%,69.01961%);stroke-opacity:1;stroke-miterlimit:4;" d="M 36.46582 38.701172 L 231.764648 38.701172 " transform="matrix(1.333333,0,0,1.333333,0,0.000000000000014211)"/>
</g>
<path style="fill:none;stroke-width:0.8;stroke-linecap:butt;stroke-linejoin:round;stroke:rgb(0%,0%,0%);stroke-opacity:1;stroke-miterlimit:4;" d="M 0.00019455 0.00117111 L -3.500782 0.00117111 " transform="matrix(1.333333,0,0,1.333333,48.620834,51.600001)"/>
<path style=" stroke:none;fill-rule:nonzero;fill:rgb(0%,0%,0%);fill-opacity:1;" d="M 13.835938 47.8125 C 13.160156 47.8125 12.652344 48.144531 12.308594 48.8125 C 11.96875 49.476562 11.800781 50.476562 11.800781 51.816406 C 11.800781 53.148438 11.96875 54.148438 12.308594 54.8125 C 12.652344 55.480469 13.160156 55.8125 13.835938 55.8125 C 14.519531 55.8125 15.03125 55.480469 15.371094 54.8125 C 15.710938 54.148438 15.882812 53.148438 15.882812 51.816406 C 15.882812 50.476562 15.710938 49.476562 15.371094 48.8125 C 15.03125 48.144531 14.519531 47.8125 13.835938 47.8125 Z M 13.835938 46.769531 C 14.929688 46.769531 15.761719 47.199219 16.335938 48.0625 C 16.910156 48.925781 17.199219 50.175781 17.199219 51.816406 C 17.199219 53.453125 16.910156 54.699219 16.335938 55.5625 C 15.761719 56.425781 14.929688 56.855469 13.835938 56.855469 C 12.75 56.855469 11.917969 56.425781 11.339844 55.5625 C 10.765625 54.699219 10.480469 53.453125 10.480469 51.816406 C 10.480469 50.175781 10.765625 48.925781 11.339844 48.0625 C 11.917969 47.199219 12.75 46.769531 13.835938 46.769531 Z M 13.835938 46.769531 "/>
<path style=" stroke:none;fill-rule:nonzero;fill:rgb(0%,0%,0%);fill-opacity:1;" d="M 19.507812 55.011719 L 20.882812 55.011719 L 20.882812 56.664062 L 19.507812 56.664062 Z M 19.507812 55.011719 "/>
<path style=" stroke:none;fill-rule:nonzero;fill:rgb(0%,0%,0%);fill-opacity:1;" d="M 27.359375 48.089844 L 24.039062 53.28125 L 27.359375 53.28125 Z M 27.015625 46.945312 L 28.667969 46.945312 L 28.667969 53.28125 L 30.058594 53.28125 L 30.058594 54.375 L 28.667969 54.375 L 28.667969 56.664062 L 27.359375 56.664062 L 27.359375 54.375 L 22.972656 54.375 L 22.972656 53.105469 Z M 27.015625 46.945312 "/>
<path style=" stroke:none;fill-rule:nonzero;fill:rgb(0%,0%,0%);fill-opacity:1;" d="M 32.242188 46.945312 L 37.40625 46.945312 L 37.40625 48.054688 L 33.449219 48.054688 L 33.449219 50.433594 C 33.636719 50.367188 33.828125 50.320312 34.019531 50.289062 C 34.210938 50.257812 34.402344 50.242188 34.59375 50.242188 C 35.679688 50.242188 36.539062 50.539062 37.171875 51.132812 C 37.804688 51.726562 38.125 52.53125 38.125 53.546875 C 38.125 54.59375 37.796875 55.40625 37.144531 55.988281 C 36.496094 56.566406 35.578125 56.855469 34.390625 56.855469 C 33.984375 56.855469 33.566406 56.820312 33.144531 56.75 C 32.722656 56.679688 32.285156 56.578125 31.832031 56.4375 L 31.832031 55.117188 C 32.222656 55.328125 32.628906 55.488281 33.042969 55.589844 C 33.460938 55.695312 33.902344 55.746094 34.363281 55.746094 C 35.117188 55.746094 35.710938 55.550781 36.148438 55.15625 C 36.585938 54.761719 36.804688 54.226562 36.804688 53.546875 C 36.804688 52.871094 36.585938 52.335938 36.148438 51.941406 C 35.710938 51.542969 35.117188 51.347656 34.363281 51.347656 C 34.011719 51.347656 33.664062 51.386719 33.3125 51.464844 C 32.964844 51.542969 32.609375 51.664062 32.242188 51.828125 Z M 32.242188 46.945312 "/>
<g clip-path="url(#clip10)" clip-rule="nonzero">
<path style="fill:none;stroke-width:0.8;stroke-linecap:square;stroke-linejoin:round;stroke:rgb(69.01961%,69.01961%,69.01961%);stroke-opacity:1;stroke-miterlimit:4;" d="M 36.46582 13.5 L 231.764648 13.5 " transform="matrix(1.333333,0,0,1.333333,0,0.000000000000014211)"/>
</g>
<path style="fill:none;stroke-width:0.8;stroke-linecap:butt;stroke-linejoin:round;stroke:rgb(0%,0%,0%);stroke-opacity:1;stroke-miterlimit:4;" d="M 0.00019455 -0.000000000000010658 L -3.500782 -0.000000000000010658 " transform="matrix(1.333333,0,0,1.333333,48.620834,18)"/>
<path style=" stroke:none;fill-rule:nonzero;fill:rgb(0%,0%,0%);fill-opacity:1;" d="M 13.835938 14.210938 C 13.160156 14.210938 12.652344 14.542969 12.308594 15.210938 C 11.96875 15.875 11.800781 16.878906 11.800781 18.214844 C 11.800781 19.546875 11.96875 20.546875 12.308594 21.214844 C 12.652344 21.878906 13.160156 22.214844 13.835938 22.214844 C 14.519531 22.214844 15.03125 21.878906 15.371094 21.214844 C 15.710938 20.546875 15.882812 19.546875 15.882812 18.214844 C 15.882812 16.878906 15.710938 15.875 15.371094 15.210938 C 15.03125 14.542969 14.519531 14.210938 13.835938 14.210938 Z M 13.835938 13.167969 C 14.929688 13.167969 15.761719 13.601562 16.335938 14.464844 C 16.910156 15.324219 17.199219 16.574219 17.199219 18.214844 C 17.199219 19.851562 16.910156 21.101562 16.335938 21.964844 C 15.761719 22.824219 14.929688 23.253906 13.835938 23.253906 C 12.75 23.253906 11.917969 22.824219 11.339844 21.964844 C 10.765625 21.101562 10.480469 19.851562 10.480469 18.214844 C 10.480469 16.574219 10.765625 15.324219 11.339844 14.464844 C 11.917969 13.601562 12.75 13.167969 13.835938 13.167969 Z M 13.835938 13.167969 "/>
<path style=" stroke:none;fill-rule:nonzero;fill:rgb(0%,0%,0%);fill-opacity:1;" d="M 19.507812 21.410156 L 20.882812 21.410156 L 20.882812 23.066406 L 19.507812 23.066406 Z M 19.507812 21.410156 "/>
<path style=" stroke:none;fill-rule:nonzero;fill:rgb(0%,0%,0%);fill-opacity:1;" d="M 23.761719 13.34375 L 28.921875 13.34375 L 28.921875 14.453125 L 24.964844 14.453125 L 24.964844 16.835938 C 25.15625 16.769531 25.34375 16.71875 25.535156 16.6875 C 25.726562 16.65625 25.917969 16.640625 26.109375 16.640625 C 27.195312 16.640625 28.054688 16.9375 28.6875 17.53125 C 29.324219 18.125 29.640625 18.929688 29.640625 19.945312 C 29.640625 20.992188 29.3125 21.804688 28.664062 22.386719 C 28.011719 22.964844 27.09375 23.253906 25.910156 23.253906 C 25.5 23.253906 25.085938 23.21875 24.660156 23.152344 C 24.238281 23.082031 23.800781 22.976562 23.351562 22.839844 L 23.351562 21.515625 C 23.742188 21.726562 24.144531 21.886719 24.5625 21.992188 C 24.976562 22.09375 25.417969 22.148438 25.882812 22.148438 C 26.632812 22.148438 27.226562 21.949219 27.664062 21.554688 C 28.105469 21.160156 28.324219 20.625 28.324219 19.945312 C 28.324219 19.269531 28.105469 18.734375 27.664062 18.339844 C 27.226562 17.945312 26.632812 17.746094 25.882812 17.746094 C 25.53125 17.746094 25.179688 17.785156 24.828125 17.863281 C 24.480469 17.941406 24.125 18.0625 23.761719 18.226562 Z M 23.761719 13.34375 "/>
<path style=" stroke:none;fill-rule:nonzero;fill:rgb(0%,0%,0%);fill-opacity:1;" d="M 35.042969 14.210938 C 34.367188 14.210938 33.855469 14.542969 33.515625 15.210938 C 33.175781 15.875 33.003906 16.878906 33.003906 18.214844 C 33.003906 19.546875 33.175781 20.546875 33.515625 21.214844 C 33.855469 21.878906 34.367188 22.214844 35.042969 22.214844 C 35.722656 22.214844 36.234375 21.878906 36.574219 21.214844 C 36.917969 20.546875 37.085938 19.546875 37.085938 18.214844 C 37.085938 16.878906 36.917969 15.875 36.574219 15.210938 C 36.234375 14.542969 35.722656 14.210938 35.042969 14.210938 Z M 35.042969 13.167969 C 36.132812 13.167969 36.964844 13.601562 37.539062 14.464844 C 38.113281 15.324219 38.402344 16.574219 38.402344 18.214844 C 38.402344 19.851562 38.113281 21.101562 37.539062 21.964844 C 36.964844 22.824219 36.132812 23.253906 35.042969 23.253906 C 33.953125 23.253906 33.121094 22.824219 32.546875 21.964844 C 31.972656 21.101562 31.683594 19.851562 31.683594 18.214844 C 31.683594 16.574219 31.972656 15.324219 32.546875 14.464844 C 33.121094 13.601562 33.953125 13.167969 35.042969 13.167969 Z M 35.042969 13.167969 "/>
<path style="fill:none;stroke-width:1.5;stroke-linecap:square;stroke-linejoin:round;stroke:rgb(12.156863%,46.666667%,70.588237%);stroke-opacity:1;stroke-miterlimit:4;" d="M 45.342773 13.5 L 131.053711 13.5 L 137.176758 139.5 L 222.887695 139.5 " transform="matrix(1.333333,0,0,1.333333,0,0.000000000000014211)"/>
<path style="fill:none;stroke-width:0.8;stroke-linecap:square;stroke-linejoin:miter;stroke:rgb(0%,0%,0%);stroke-opacity:1;stroke-miterlimit:4;" d="M 36.46582 145.798828 L 36.46582 7.201172 " transform="matrix(1.333333,0,0,1.333333,0,0.000000000000014211)"/>
<path style="fill:none;stroke-width:0.8;stroke-linecap:square;stroke-linejoin:miter;stroke:rgb(0%,0%,0%);stroke-opacity:1;stroke-miterlimit:4;" d="M 231.764648 145.798828 L 231.764648 7.201172 " transform="matrix(1.333333,0,0,1.333333,0,0.000000000000014211)"/>
<path style="fill:none;stroke-width:0.8;stroke-linecap:square;stroke-linejoin:miter;stroke:rgb(0%,0%,0%);stroke-opacity:1;stroke-miterlimit:4;" d="M 36.46582 145.798828 L 231.764648 145.798828 " transform="matrix(1.333333,0,0,1.333333,0,0.000000000000014211)"/>
<path style="fill:none;stroke-width:0.8;stroke-linecap:square;stroke-linejoin:miter;stroke:rgb(0%,0%,0%);stroke-opacity:1;stroke-miterlimit:4;" d="M 36.46582 7.201172 L 231.764648 7.201172 " transform="matrix(1.333333,0,0,1.333333,0,0.000000000000014211)"/>
</g>
</svg>
