<?xml version="1.0" encoding="UTF-8"?>
<svg xmlns="http://www.w3.org/2000/svg" xmlns:xlink="http://www.w3.org/1999/xlink" width="318.620829" height="249.540629" viewBox="0 0 318.620829 249.540629" version="1.1">
<defs>
<clipPath id="clip1">
  <path d="M 68 14.664062 L 70 14.664062 L 70 199.464844 L 68 199.464844 Z M 68 14.664062 "/>
</clipPath>
<clipPath id="clip2">
  <path d="M 126 14.664062 L 128 14.664062 L 128 199.464844 L 126 199.464844 Z M 126 14.664062 "/>
</clipPath>
<clipPath id="clip3">
  <path d="M 184 14.664062 L 186 14.664062 L 186 199.464844 L 184 199.464844 Z M 184 14.664062 "/>
</clipPath>
<clipPath id="clip4">
  <path d="M 241 14.664062 L 244 14.664062 L 244 199.464844 L 241 199.464844 Z M 241 14.664062 "/>
</clipPath>
<clipPath id="clip5">
  <path d="M 299 14.664062 L 300.539062 14.664062 L 300.539062 199.464844 L 299 199.464844 Z M 299 14.664062 "/>
</clipPath>
<clipPath id="clip6">
  <path d="M 40.136719 198 L 300.539062 198 L 300.539062 199.464844 L 40.136719 199.464844 Z M 40.136719 198 "/>
</clipPath>
<clipPath id="clip7">
  <path d="M 40.136719 161 L 300.539062 161 L 300.539062 164 L 40.136719 164 Z M 40.136719 161 "/>
</clipPath>
<clipPath id="clip8">
  <path d="M 40.136719 124 L 300.539062 124 L 300.539062 127 L 40.136719 127 Z M 40.136719 124 "/>
</clipPath>
<clipPath id="clip9">
  <path d="M 40.136719 87 L 300.539062 87 L 300.539062 90 L 40.136719 90 Z M 40.136719 87 "/>
</clipPath>
<clipPath id="clip10">
  <path d="M 40.136719 50 L 300.539062 50 L 300.539062 53 L 40.136719 53 Z M 40.136719 50 "/>
</clipPath>
<clipPath id="clip11">
  <path d="M 40.136719 14.664062 L 300.539062 14.664062 L 300.539062 16 L 40.136719 16 Z M 40.136719 14.664062 "/>
</clipPath>
<clipPath id="clip12">
  <path d="M 59 14.664062 L 300.539062 14.664062 L 300.539062 165 L 59 165 Z M 59 14.664062 "/>
</clipPath>
<clipPath id="clip13">
  <path d="M 40.136719 25 L 300.539062 25 L 300.539062 157 L 40.136719 157 Z M 40.136719 25 "/>
</clipPath>
<clipPath id="clip14">
  <path d="M 40.136719 44 L 300.539062 44 L 300.539062 108 L 40.136719 108 Z M 40.136719 44 "/>
</clipPath>
<filter id="alpha" filterUnits="objectBoundingBox" x="0%" y="0%" width="100%" height="100%">
  <feColorMatrix type="matrix" in="SourceGraphic" values="0 0 0 0 1 0 0 0 0 1 0 0 0 0 1 0 0 0 1 0"/>
</filter>
<mask id="mask0">
  <g filter="url(#alpha)">
<rect x="0" y="0" width="318.620829" height="249.540629" style="fill:rgb(0%,0%,0%);fill-opacity:0.8;stroke:none;"/>
  </g>
</mask>
<clipPath id="clip15">
  <rect x="0" y="0" width="319" height="250"/>
</clipPath>
<g id="surface5" clip-path="url(#clip15)">
<path style="fill-rule:nonzero;fill:rgb(100%,100%,100%);fill-opacity:1;stroke-width:1;stroke-linecap:butt;stroke-linejoin:miter;stroke:rgb(80.000001%,80.000001%,80.000001%);stroke-opacity:1;stroke-miterlimit:4;" d="M 37.104492 144.600586 L 114.873047 144.600586 C 116.206055 144.600586 116.871094 143.932617 116.871094 142.599609 L 116.871094 99.56543 C 116.871094 98.232422 116.206055 97.564453 114.873047 97.564453 L 37.104492 97.564453 C 35.768555 97.564453 35.103516 98.232422 35.103516 99.56543 L 35.103516 142.599609 C 35.103516 143.932617 35.768555 144.600586 37.104492 144.600586 Z M 37.104492 144.600586 " transform="matrix(1.333333,0,0,1.333333,0.000000000000028422,0)"/>
</g>
</defs>
<g id="surface1">
<path style=" stroke:none;fill-rule:nonzero;fill:rgb(100%,100%,100%);fill-opacity:1;" d="M 0 249.539062 L 318.621094 249.539062 L 318.621094 0 L 0 0 Z M 0 249.539062 "/>
<path style=" stroke:none;fill-rule:nonzero;fill:rgb(100%,100%,100%);fill-opacity:1;" d="M 40.136719 199.464844 L 300.539062 199.464844 L 300.539062 14.664062 L 40.136719 14.664062 Z M 40.136719 199.464844 "/>
<g clip-path="url(#clip1)" clip-rule="nonzero">
<path style="fill:none;stroke-width:0.8;stroke-linecap:square;stroke-linejoin:round;stroke:rgb(69.01961%,69.01961%,69.01961%);stroke-opacity:1;stroke-miterlimit:4;" d="M 51.802734 149.598633 L 51.802734 10.998047 " transform="matrix(1.333333,0,0,1.333333,0.000000000000028422,0)"/>
</g>
<path style="fill:none;stroke-width:0.8;stroke-linecap:butt;stroke-linejoin:round;stroke:rgb(0%,0%,0%);stroke-opacity:1;stroke-miterlimit:4;" d="M -0.000389099 -0.000579834 L -0.000389099 3.500397 " transform="matrix(1.333333,0,0,1.333333,69.070831,199.465617)"/>
<path style=" stroke:none;fill-rule:nonzero;fill:rgb(0%,0%,0%);fill-opacity:1;" d="M 67.386719 217.824219 L 71.976562 217.824219 L 71.976562 218.929688 L 65.804688 218.929688 L 65.804688 217.824219 C 66.304688 217.308594 66.984375 216.613281 67.847656 215.746094 C 68.707031 214.875 69.25 214.3125 69.472656 214.058594 C 69.890625 213.585938 70.183594 213.1875 70.351562 212.859375 C 70.519531 212.53125 70.605469 212.210938 70.605469 211.894531 C 70.605469 211.375 70.421875 210.957031 70.058594 210.628906 C 69.699219 210.304688 69.226562 210.140625 68.644531 210.140625 C 68.230469 210.140625 67.796875 210.210938 67.335938 210.355469 C 66.878906 210.5 66.390625 210.714844 65.871094 211.007812 L 65.871094 209.679688 C 66.398438 209.464844 66.894531 209.304688 67.355469 209.195312 C 67.816406 209.089844 68.238281 209.035156 68.617188 209.035156 C 69.625 209.035156 70.429688 209.285156 71.027344 209.789062 C 71.625 210.292969 71.925781 210.964844 71.925781 211.808594 C 71.925781 212.207031 71.851562 212.585938 71.699219 212.945312 C 71.550781 213.300781 71.277344 213.722656 70.882812 214.210938 C 70.773438 214.335938 70.429688 214.699219 69.847656 215.300781 C 69.265625 215.902344 68.445312 216.742188 67.386719 217.824219 Z M 67.386719 217.824219 "/>
<g clip-path="url(#clip2)" clip-rule="nonzero">
<path style="fill:none;stroke-width:0.8;stroke-linecap:square;stroke-linejoin:round;stroke:rgb(69.01961%,69.01961%,69.01961%);stroke-opacity:1;stroke-miterlimit:4;" d="M 95.203125 149.598633 L 95.203125 10.998047 " transform="matrix(1.333333,0,0,1.333333,0.000000000000028422,0)"/>
</g>
<path style="fill:none;stroke-width:0.8;stroke-linecap:butt;stroke-linejoin:round;stroke:rgb(0%,0%,0%);stroke-opacity:1;stroke-miterlimit:4;" d="M -0.000000000000028422 -0.000579834 L -0.000000000000028422 3.500397 " transform="matrix(1.333333,0,0,1.333333,126.9375,199.465617)"/>
<path style=" stroke:none;fill-rule:nonzero;fill:rgb(0%,0%,0%);fill-opacity:1;" d="M 127.734375 210.355469 L 124.414062 215.542969 L 127.734375 215.542969 Z M 127.390625 209.210938 L 129.042969 209.210938 L 129.042969 215.542969 L 130.429688 215.542969 L 130.429688 216.636719 L 129.042969 216.636719 L 129.042969 218.929688 L 127.734375 218.929688 L 127.734375 216.636719 L 123.347656 216.636719 L 123.347656 215.371094 Z M 127.390625 209.210938 "/>
<g clip-path="url(#clip3)" clip-rule="nonzero">
<path style="fill:none;stroke-width:0.8;stroke-linecap:square;stroke-linejoin:round;stroke:rgb(69.01961%,69.01961%,69.01961%);stroke-opacity:1;stroke-miterlimit:4;" d="M 138.603516 149.598633 L 138.603516 10.998047 " transform="matrix(1.333333,0,0,1.333333,0.000000000000028422,0)"/>
</g>
<path style="fill:none;stroke-width:0.8;stroke-linecap:butt;stroke-linejoin:round;stroke:rgb(0%,0%,0%);stroke-opacity:1;stroke-miterlimit:4;" d="M 0.000396729 -0.000579834 L 0.000396729 3.500397 " transform="matrix(1.333333,0,0,1.333333,184.804159,199.465617)"/>
<path style=" stroke:none;fill-rule:nonzero;fill:rgb(0%,0%,0%);fill-opacity:1;" d="M 184.964844 213.546875 C 184.375 213.546875 183.90625 213.75 183.558594 214.152344 C 183.214844 214.554688 183.042969 215.109375 183.042969 215.8125 C 183.042969 216.511719 183.214844 217.0625 183.558594 217.46875 C 183.90625 217.875 184.375 218.078125 184.964844 218.078125 C 185.554688 218.078125 186.023438 217.875 186.367188 217.46875 C 186.710938 217.0625 186.882812 216.511719 186.882812 215.8125 C 186.882812 215.109375 186.710938 214.554688 186.367188 214.152344 C 186.023438 213.75 185.554688 213.546875 184.964844 213.546875 Z M 187.574219 209.425781 L 187.574219 210.621094 C 187.246094 210.464844 186.910156 210.347656 186.574219 210.265625 C 186.238281 210.183594 185.90625 210.140625 185.574219 210.140625 C 184.707031 210.140625 184.042969 210.433594 183.585938 211.019531 C 183.128906 211.605469 182.867188 212.492188 182.800781 213.675781 C 183.058594 213.296875 183.378906 213.007812 183.765625 212.808594 C 184.152344 212.605469 184.578125 212.503906 185.042969 212.503906 C 186.019531 212.503906 186.789062 212.800781 187.355469 213.394531 C 187.921875 213.988281 188.207031 214.792969 188.207031 215.8125 C 188.207031 216.808594 187.910156 217.613281 187.320312 218.214844 C 186.730469 218.820312 185.945312 219.121094 184.964844 219.121094 C 183.839844 219.121094 182.980469 218.6875 182.386719 217.828125 C 181.789062 216.964844 181.492188 215.714844 181.492188 214.082031 C 181.492188 212.542969 181.859375 211.320312 182.585938 210.40625 C 183.316406 209.492188 184.296875 209.035156 185.523438 209.035156 C 185.851562 209.035156 186.1875 209.066406 186.523438 209.132812 C 186.859375 209.199219 187.210938 209.292969 187.574219 209.425781 Z M 187.574219 209.425781 "/>
<g clip-path="url(#clip4)" clip-rule="nonzero">
<path style="fill:none;stroke-width:0.8;stroke-linecap:square;stroke-linejoin:round;stroke:rgb(69.01961%,69.01961%,69.01961%);stroke-opacity:1;stroke-miterlimit:4;" d="M 182.003906 149.598633 L 182.003906 10.998047 " transform="matrix(1.333333,0,0,1.333333,0.000000000000028422,0)"/>
</g>
<path style="fill:none;stroke-width:0.8;stroke-linecap:butt;stroke-linejoin:round;stroke:rgb(0%,0%,0%);stroke-opacity:1;stroke-miterlimit:4;" d="M 0.000778198 -0.000579834 L 0.000778198 3.500397 " transform="matrix(1.333333,0,0,1.333333,242.670837,199.465617)"/>
<path style=" stroke:none;fill-rule:nonzero;fill:rgb(0%,0%,0%);fill-opacity:1;" d="M 242.667969 214.3125 C 242.042969 214.3125 241.550781 214.480469 241.191406 214.816406 C 240.835938 215.148438 240.65625 215.609375 240.65625 216.195312 C 240.65625 216.78125 240.835938 217.242188 241.191406 217.574219 C 241.550781 217.910156 242.042969 218.078125 242.667969 218.078125 C 243.292969 218.078125 243.785156 217.910156 244.144531 217.574219 C 244.503906 217.238281 244.683594 216.777344 244.683594 216.195312 C 244.683594 215.609375 244.507812 215.148438 244.148438 214.816406 C 243.789062 214.480469 243.296875 214.3125 242.667969 214.3125 Z M 241.351562 213.753906 C 240.789062 213.617188 240.347656 213.355469 240.035156 212.96875 C 239.71875 212.582031 239.5625 212.109375 239.5625 211.554688 C 239.5625 210.777344 239.839844 210.164062 240.390625 209.710938 C 240.945312 209.261719 241.703125 209.035156 242.667969 209.035156 C 243.632812 209.035156 244.394531 209.261719 244.945312 209.710938 C 245.496094 210.164062 245.773438 210.777344 245.773438 211.554688 C 245.773438 212.109375 245.617188 212.582031 245.300781 212.96875 C 244.984375 213.355469 244.550781 213.617188 243.988281 213.753906 C 244.621094 213.902344 245.117188 214.191406 245.46875 214.621094 C 245.824219 215.050781 246 215.574219 246 216.195312 C 246 217.136719 245.710938 217.863281 245.136719 218.367188 C 244.5625 218.867188 243.738281 219.121094 242.667969 219.121094 C 241.597656 219.121094 240.773438 218.867188 240.195312 218.367188 C 239.621094 217.863281 239.332031 217.136719 239.332031 216.195312 C 239.332031 215.574219 239.511719 215.050781 239.867188 214.621094 C 240.222656 214.191406 240.71875 213.902344 241.351562 213.753906 Z M 240.871094 211.679688 C 240.871094 212.179688 241.027344 212.574219 241.339844 212.855469 C 241.65625 213.136719 242.097656 213.277344 242.667969 213.277344 C 243.230469 213.277344 243.671875 213.136719 243.992188 212.855469 C 244.3125 212.574219 244.472656 212.179688 244.472656 211.679688 C 244.472656 211.175781 244.3125 210.78125 243.992188 210.5 C 243.671875 210.21875 243.230469 210.074219 242.667969 210.074219 C 242.097656 210.074219 241.65625 210.21875 241.339844 210.5 C 241.027344 210.78125 240.871094 211.175781 240.871094 211.679688 Z M 240.871094 211.679688 "/>
<g clip-path="url(#clip5)" clip-rule="nonzero">
<path style="fill:none;stroke-width:0.8;stroke-linecap:square;stroke-linejoin:round;stroke:rgb(69.01961%,69.01961%,69.01961%);stroke-opacity:1;stroke-miterlimit:4;" d="M 225.404297 149.598633 L 225.404297 10.998047 " transform="matrix(1.333333,0,0,1.333333,0.000000000000028422,0)"/>
</g>
<path style="fill:none;stroke-width:0.8;stroke-linecap:butt;stroke-linejoin:round;stroke:rgb(0%,0%,0%);stroke-opacity:1;stroke-miterlimit:4;" d="M 0.00117493 -0.000579834 L 0.00117493 3.500397 " transform="matrix(1.333333,0,0,1.333333,300.537496,199.465617)"/>
<path style=" stroke:none;fill-rule:nonzero;fill:rgb(0%,0%,0%);fill-opacity:1;" d="M 293.707031 217.824219 L 295.855469 217.824219 L 295.855469 210.40625 L 293.519531 210.875 L 293.519531 209.679688 L 295.84375 209.210938 L 297.160156 209.210938 L 297.160156 217.824219 L 299.304688 217.824219 L 299.304688 218.929688 L 293.707031 218.929688 Z M 293.707031 217.824219 "/>
<path style=" stroke:none;fill-rule:nonzero;fill:rgb(0%,0%,0%);fill-opacity:1;" d="M 304.773438 210.074219 C 304.097656 210.074219 303.589844 210.410156 303.246094 211.074219 C 302.90625 211.742188 302.738281 212.742188 302.738281 214.082031 C 302.738281 215.414062 302.90625 216.410156 303.246094 217.078125 C 303.589844 217.746094 304.097656 218.078125 304.773438 218.078125 C 305.457031 218.078125 305.96875 217.746094 306.308594 217.078125 C 306.648438 216.410156 306.820312 215.414062 306.820312 214.082031 C 306.820312 212.742188 306.648438 211.742188 306.308594 211.074219 C 305.96875 210.410156 305.457031 210.074219 304.773438 210.074219 Z M 304.773438 209.035156 C 305.863281 209.035156 306.699219 209.464844 307.273438 210.328125 C 307.847656 211.1875 308.136719 212.441406 308.136719 214.082031 C 308.136719 215.714844 307.847656 216.964844 307.273438 217.828125 C 306.699219 218.6875 305.863281 219.121094 304.773438 219.121094 C 303.6875 219.121094 302.855469 218.6875 302.277344 217.828125 C 301.703125 216.964844 301.417969 215.714844 301.417969 214.082031 C 301.417969 212.441406 301.703125 211.1875 302.277344 210.328125 C 302.855469 209.464844 303.6875 209.035156 304.773438 209.035156 Z M 304.773438 209.035156 "/>
<path style=" stroke:none;fill-rule:nonzero;fill:rgb(0%,0%,0%);fill-opacity:1;" d="M 157.527344 233.222656 L 157.527344 233.808594 L 152.019531 233.808594 C 152.070312 234.632812 152.320312 235.261719 152.765625 235.691406 C 153.210938 236.125 153.828125 236.339844 154.621094 236.339844 C 155.082031 236.339844 155.527344 236.285156 155.960938 236.171875 C 156.390625 236.058594 156.820312 235.890625 157.246094 235.664062 L 157.246094 236.796875 C 156.816406 236.980469 156.375 237.117188 155.925781 237.214844 C 155.472656 237.308594 155.015625 237.355469 154.550781 237.355469 C 153.386719 237.355469 152.464844 237.019531 151.789062 236.34375 C 151.109375 235.664062 150.769531 234.75 150.769531 233.59375 C 150.769531 232.398438 151.089844 231.453125 151.734375 230.753906 C 152.378906 230.050781 153.25 229.699219 154.34375 229.699219 C 155.324219 229.699219 156.101562 230.015625 156.671875 230.648438 C 157.242188 231.28125 157.527344 232.136719 157.527344 233.222656 Z M 156.328125 232.871094 C 156.320312 232.214844 156.136719 231.695312 155.777344 231.304688 C 155.421875 230.910156 154.945312 230.714844 154.355469 230.714844 C 153.6875 230.714844 153.152344 230.90625 152.753906 231.28125 C 152.351562 231.660156 152.121094 232.191406 152.058594 232.878906 Z M 156.328125 232.871094 "/>
<path style=" stroke:none;fill-rule:nonzero;fill:rgb(0%,0%,0%);fill-opacity:1;" d="M 160.652344 236.074219 L 160.652344 239.941406 L 159.445312 239.941406 L 159.445312 229.875 L 160.652344 229.875 L 160.652344 230.980469 C 160.902344 230.550781 161.222656 230.226562 161.605469 230.019531 C 161.988281 229.804688 162.449219 229.699219 162.980469 229.699219 C 163.867188 229.699219 164.585938 230.050781 165.140625 230.753906 C 165.695312 231.457031 165.972656 232.382812 165.972656 233.527344 C 165.972656 234.675781 165.695312 235.597656 165.140625 236.304688 C 164.585938 237.007812 163.867188 237.355469 162.980469 237.355469 C 162.449219 237.355469 161.988281 237.25 161.605469 237.039062 C 161.222656 236.828125 160.902344 236.507812 160.652344 236.074219 Z M 164.726562 233.527344 C 164.726562 232.648438 164.546875 231.957031 164.183594 231.457031 C 163.820312 230.953125 163.324219 230.703125 162.691406 230.703125 C 162.054688 230.703125 161.558594 230.953125 161.195312 231.457031 C 160.832031 231.957031 160.652344 232.648438 160.652344 233.527344 C 160.652344 234.410156 160.832031 235.101562 161.195312 235.601562 C 161.558594 236.101562 162.054688 236.351562 162.691406 236.351562 C 163.324219 236.351562 163.820312 236.101562 164.183594 235.601562 C 164.546875 235.101562 164.726562 234.410156 164.726562 233.527344 Z M 164.726562 233.527344 "/>
<path style=" stroke:none;fill-rule:nonzero;fill:rgb(0%,0%,0%);fill-opacity:1;" d="M 170.78125 230.714844 C 170.140625 230.714844 169.632812 230.964844 169.257812 231.46875 C 168.882812 231.96875 168.699219 232.65625 168.699219 233.527344 C 168.699219 234.398438 168.882812 235.085938 169.253906 235.589844 C 169.625 236.089844 170.136719 236.339844 170.78125 236.339844 C 171.421875 236.339844 171.925781 236.089844 172.296875 235.585938 C 172.671875 235.082031 172.859375 234.394531 172.859375 233.527344 C 172.859375 232.664062 172.671875 231.980469 172.296875 231.472656 C 171.925781 230.96875 171.421875 230.714844 170.78125 230.714844 Z M 170.78125 229.699219 C 171.824219 229.699219 172.640625 230.039062 173.234375 230.71875 C 173.832031 231.394531 174.128906 232.332031 174.128906 233.527344 C 174.128906 234.722656 173.832031 235.65625 173.234375 236.339844 C 172.640625 237.019531 171.824219 237.355469 170.78125 237.355469 C 169.734375 237.355469 168.914062 237.019531 168.324219 236.339844 C 167.730469 235.65625 167.433594 234.722656 167.433594 233.527344 C 167.433594 232.332031 167.730469 231.394531 168.324219 230.71875 C 168.914062 230.039062 169.734375 229.699219 170.78125 229.699219 Z M 170.78125 229.699219 "/>
<path style=" stroke:none;fill-rule:nonzero;fill:rgb(0%,0%,0%);fill-opacity:1;" d="M 181.363281 230.15625 L 181.363281 231.277344 C 181.023438 231.089844 180.683594 230.949219 180.34375 230.855469 C 180.003906 230.761719 179.660156 230.714844 179.3125 230.714844 C 178.535156 230.714844 177.929688 230.960938 177.5 231.457031 C 177.070312 231.945312 176.855469 232.636719 176.855469 233.527344 C 176.855469 234.417969 177.070312 235.109375 177.5 235.601562 C 177.929688 236.09375 178.535156 236.339844 179.3125 236.339844 C 179.660156 236.339844 180.003906 236.292969 180.34375 236.199219 C 180.683594 236.109375 181.023438 235.96875 181.363281 235.78125 L 181.363281 236.886719 C 181.027344 237.042969 180.679688 237.160156 180.320312 237.238281 C 179.964844 237.316406 179.585938 237.355469 179.179688 237.355469 C 178.082031 237.355469 177.207031 237.011719 176.5625 236.320312 C 175.914062 235.632812 175.59375 234.699219 175.59375 233.527344 C 175.59375 232.339844 175.917969 231.40625 176.570312 230.722656 C 177.226562 230.042969 178.121094 229.699219 179.257812 229.699219 C 179.628906 229.699219 179.988281 229.738281 180.339844 229.816406 C 180.691406 229.890625 181.03125 230.003906 181.363281 230.15625 Z M 181.363281 230.15625 "/>
<path style=" stroke:none;fill-rule:nonzero;fill:rgb(0%,0%,0%);fill-opacity:1;" d="M 189.507812 232.765625 L 189.507812 237.167969 L 188.308594 237.167969 L 188.308594 232.804688 C 188.308594 232.113281 188.175781 231.597656 187.90625 231.257812 C 187.636719 230.914062 187.230469 230.742188 186.695312 230.742188 C 186.046875 230.742188 185.535156 230.949219 185.164062 231.363281 C 184.789062 231.773438 184.601562 232.335938 184.601562 233.046875 L 184.601562 237.167969 L 183.398438 237.167969 L 183.398438 227.035156 L 184.601562 227.035156 L 184.601562 231.007812 C 184.890625 230.570312 185.226562 230.242188 185.617188 230.027344 C 186.003906 229.808594 186.453125 229.699219 186.960938 229.699219 C 187.796875 229.699219 188.433594 229.960938 188.859375 230.476562 C 189.292969 230.996094 189.507812 231.757812 189.507812 232.765625 Z M 189.507812 232.765625 "/>
<g clip-path="url(#clip6)" clip-rule="nonzero">
<path style="fill:none;stroke-width:0.8;stroke-linecap:square;stroke-linejoin:round;stroke:rgb(69.01961%,69.01961%,69.01961%);stroke-opacity:1;stroke-miterlimit:4;" d="M 30.102539 149.598633 L 225.404297 149.598633 " transform="matrix(1.333333,0,0,1.333333,0.000000000000028422,0)"/>
</g>
<path style="fill:none;stroke-width:0.8;stroke-linecap:butt;stroke-linejoin:round;stroke:rgb(0%,0%,0%);stroke-opacity:1;stroke-miterlimit:4;" d="M -0.000585556 -0.000579834 L -3.498632 -0.000579834 " transform="matrix(1.333333,0,0,1.333333,40.137499,199.465617)"/>
<path style=" stroke:none;fill-rule:nonzero;fill:rgb(0%,0%,0%);fill-opacity:1;" d="M 13.835938 195.675781 C 13.160156 195.675781 12.652344 196.011719 12.308594 196.675781 C 11.96875 197.34375 11.800781 198.34375 11.800781 199.679688 C 11.800781 201.011719 11.96875 202.011719 12.308594 202.679688 C 12.652344 203.347656 13.160156 203.679688 13.835938 203.679688 C 14.519531 203.679688 15.03125 203.347656 15.371094 202.679688 C 15.710938 202.011719 15.882812 201.011719 15.882812 199.679688 C 15.882812 198.34375 15.710938 197.34375 15.371094 196.675781 C 15.03125 196.011719 14.519531 195.675781 13.835938 195.675781 Z M 13.835938 194.636719 C 14.929688 194.636719 15.761719 195.066406 16.335938 195.929688 C 16.910156 196.789062 17.199219 198.039062 17.199219 199.679688 C 17.199219 201.316406 16.910156 202.566406 16.335938 203.429688 C 15.761719 204.289062 14.929688 204.722656 13.835938 204.722656 C 12.75 204.722656 11.917969 204.289062 11.339844 203.429688 C 10.765625 202.566406 10.480469 201.316406 10.480469 199.679688 C 10.480469 198.039062 10.765625 196.789062 11.339844 195.929688 C 11.917969 195.066406 12.75 194.636719 13.835938 194.636719 Z M 13.835938 194.636719 "/>
<path style=" stroke:none;fill-rule:nonzero;fill:rgb(0%,0%,0%);fill-opacity:1;" d="M 19.507812 202.878906 L 20.882812 202.878906 L 20.882812 204.53125 L 19.507812 204.53125 Z M 19.507812 202.878906 "/>
<path style=" stroke:none;fill-rule:nonzero;fill:rgb(0%,0%,0%);fill-opacity:1;" d="M 26.558594 195.675781 C 25.882812 195.675781 25.375 196.011719 25.03125 196.675781 C 24.691406 197.34375 24.519531 198.34375 24.519531 199.679688 C 24.519531 201.011719 24.691406 202.011719 25.03125 202.679688 C 25.375 203.347656 25.882812 203.679688 26.558594 203.679688 C 27.242188 203.679688 27.75 203.347656 28.09375 202.679688 C 28.433594 202.011719 28.605469 201.011719 28.605469 199.679688 C 28.605469 198.34375 28.433594 197.34375 28.09375 196.675781 C 27.75 196.011719 27.242188 195.675781 26.558594 195.675781 Z M 26.558594 194.636719 C 27.648438 194.636719 28.480469 195.066406 29.058594 195.929688 C 29.632812 196.789062 29.917969 198.039062 29.917969 199.679688 C 29.917969 201.316406 29.632812 202.566406 29.058594 203.429688 C 28.480469 204.289062 27.648438 204.722656 26.558594 204.722656 C 25.46875 204.722656 24.636719 204.289062 24.0625 203.429688 C 23.488281 202.566406 23.199219 201.316406 23.199219 199.679688 C 23.199219 198.039062 23.488281 196.789062 24.0625 195.929688 C 24.636719 195.066406 25.46875 194.636719 26.558594 194.636719 Z M 26.558594 194.636719 "/>
<g clip-path="url(#clip7)" clip-rule="nonzero">
<path style="fill:none;stroke-width:0.8;stroke-linecap:square;stroke-linejoin:round;stroke:rgb(69.01961%,69.01961%,69.01961%);stroke-opacity:1;stroke-miterlimit:4;" d="M 30.102539 121.87793 L 225.404297 121.87793 " transform="matrix(1.333333,0,0,1.333333,0.000000000000028422,0)"/>
</g>
<path style="fill:none;stroke-width:0.8;stroke-linecap:butt;stroke-linejoin:round;stroke:rgb(0%,0%,0%);stroke-opacity:1;stroke-miterlimit:4;" d="M -0.000585556 -0.00128937 L -3.498632 -0.00128937 " transform="matrix(1.333333,0,0,1.333333,40.137499,162.505625)"/>
<path style=" stroke:none;fill-rule:nonzero;fill:rgb(0%,0%,0%);fill-opacity:1;" d="M 13.835938 158.71875 C 13.160156 158.71875 12.652344 159.050781 12.308594 159.71875 C 11.96875 160.382812 11.800781 161.382812 11.800781 162.722656 C 11.800781 164.054688 11.96875 165.050781 12.308594 165.71875 C 12.652344 166.386719 13.160156 166.71875 13.835938 166.71875 C 14.519531 166.71875 15.03125 166.386719 15.371094 165.71875 C 15.710938 165.050781 15.882812 164.054688 15.882812 162.722656 C 15.882812 161.382812 15.710938 160.382812 15.371094 159.71875 C 15.03125 159.050781 14.519531 158.71875 13.835938 158.71875 Z M 13.835938 157.675781 C 14.929688 157.675781 15.761719 158.105469 16.335938 158.96875 C 16.910156 159.832031 17.199219 161.082031 17.199219 162.722656 C 17.199219 164.355469 16.910156 165.605469 16.335938 166.46875 C 15.761719 167.332031 14.929688 167.761719 13.835938 167.761719 C 12.75 167.761719 11.917969 167.332031 11.339844 166.46875 C 10.765625 165.605469 10.480469 164.355469 10.480469 162.722656 C 10.480469 161.082031 10.765625 159.832031 11.339844 158.96875 C 11.917969 158.105469 12.75 157.675781 13.835938 157.675781 Z M 13.835938 157.675781 "/>
<path style=" stroke:none;fill-rule:nonzero;fill:rgb(0%,0%,0%);fill-opacity:1;" d="M 19.507812 165.917969 L 20.882812 165.917969 L 20.882812 167.570312 L 19.507812 167.570312 Z M 19.507812 165.917969 "/>
<path style=" stroke:none;fill-rule:nonzero;fill:rgb(0%,0%,0%);fill-opacity:1;" d="M 24.878906 166.464844 L 29.46875 166.464844 L 29.46875 167.570312 L 23.296875 167.570312 L 23.296875 166.464844 C 23.796875 165.949219 24.476562 165.253906 25.339844 164.386719 C 26.199219 163.515625 26.742188 162.953125 26.964844 162.699219 C 27.382812 162.226562 27.675781 161.828125 27.84375 161.5 C 28.011719 161.171875 28.097656 160.851562 28.097656 160.535156 C 28.097656 160.015625 27.914062 159.597656 27.550781 159.269531 C 27.191406 158.945312 26.71875 158.78125 26.136719 158.78125 C 25.722656 158.78125 25.289062 158.851562 24.828125 158.996094 C 24.371094 159.140625 23.882812 159.355469 23.363281 159.648438 L 23.363281 158.320312 C 23.890625 158.105469 24.386719 157.945312 24.847656 157.839844 C 25.308594 157.730469 25.730469 157.675781 26.109375 157.675781 C 27.117188 157.675781 27.921875 157.925781 28.519531 158.433594 C 29.117188 158.933594 29.417969 159.605469 29.417969 160.449219 C 29.417969 160.847656 29.34375 161.226562 29.191406 161.585938 C 29.042969 161.941406 28.769531 162.363281 28.375 162.851562 C 28.265625 162.976562 27.921875 163.339844 27.339844 163.941406 C 26.757812 164.542969 25.9375 165.382812 24.878906 166.464844 Z M 24.878906 166.464844 "/>
<g clip-path="url(#clip8)" clip-rule="nonzero">
<path style="fill:none;stroke-width:0.8;stroke-linecap:square;stroke-linejoin:round;stroke:rgb(69.01961%,69.01961%,69.01961%);stroke-opacity:1;stroke-miterlimit:4;" d="M 30.102539 94.160156 L 225.404297 94.160156 " transform="matrix(1.333333,0,0,1.333333,0.000000000000028422,0)"/>
</g>
<path style="fill:none;stroke-width:0.8;stroke-linecap:butt;stroke-linejoin:round;stroke:rgb(0%,0%,0%);stroke-opacity:1;stroke-miterlimit:4;" d="M -0.000585556 0.000938416 L -3.498632 0.000938416 " transform="matrix(1.333333,0,0,1.333333,40.137499,125.545624)"/>
<path style=" stroke:none;fill-rule:nonzero;fill:rgb(0%,0%,0%);fill-opacity:1;" d="M 13.835938 121.757812 C 13.160156 121.757812 12.652344 122.089844 12.308594 122.757812 C 11.96875 123.421875 11.800781 124.421875 11.800781 125.761719 C 11.800781 127.09375 11.96875 128.09375 12.308594 128.757812 C 12.652344 129.425781 13.160156 129.757812 13.835938 129.757812 C 14.519531 129.757812 15.03125 129.425781 15.371094 128.757812 C 15.710938 128.09375 15.882812 127.09375 15.882812 125.761719 C 15.882812 124.421875 15.710938 123.421875 15.371094 122.757812 C 15.03125 122.089844 14.519531 121.757812 13.835938 121.757812 Z M 13.835938 120.714844 C 14.929688 120.714844 15.761719 121.148438 16.335938 122.007812 C 16.910156 122.871094 17.199219 124.121094 17.199219 125.761719 C 17.199219 127.398438 16.910156 128.648438 16.335938 129.507812 C 15.761719 130.371094 14.929688 130.800781 13.835938 130.800781 C 12.75 130.800781 11.917969 130.371094 11.339844 129.507812 C 10.765625 128.648438 10.480469 127.398438 10.480469 125.761719 C 10.480469 124.121094 10.765625 122.871094 11.339844 122.007812 C 11.917969 121.148438 12.75 120.714844 13.835938 120.714844 Z M 13.835938 120.714844 "/>
<path style=" stroke:none;fill-rule:nonzero;fill:rgb(0%,0%,0%);fill-opacity:1;" d="M 19.507812 128.957031 L 20.882812 128.957031 L 20.882812 130.609375 L 19.507812 130.609375 Z M 19.507812 128.957031 "/>
<path style=" stroke:none;fill-rule:nonzero;fill:rgb(0%,0%,0%);fill-opacity:1;" d="M 27.359375 122.035156 L 24.039062 127.226562 L 27.359375 127.226562 Z M 27.015625 120.890625 L 28.667969 120.890625 L 28.667969 127.226562 L 30.058594 127.226562 L 30.058594 128.320312 L 28.667969 128.320312 L 28.667969 130.609375 L 27.359375 130.609375 L 27.359375 128.320312 L 22.972656 128.320312 L 22.972656 127.050781 Z M 27.015625 120.890625 "/>
<g clip-path="url(#clip9)" clip-rule="nonzero">
<path style="fill:none;stroke-width:0.8;stroke-linecap:square;stroke-linejoin:round;stroke:rgb(69.01961%,69.01961%,69.01961%);stroke-opacity:1;stroke-miterlimit:4;" d="M 30.102539 66.439453 L 225.404297 66.439453 " transform="matrix(1.333333,0,0,1.333333,0.000000000000028422,0)"/>
</g>
<path style="fill:none;stroke-width:0.8;stroke-linecap:butt;stroke-linejoin:round;stroke:rgb(0%,0%,0%);stroke-opacity:1;stroke-miterlimit:4;" d="M -0.000585556 0.000236511 L -3.498632 0.000236511 " transform="matrix(1.333333,0,0,1.333333,40.137499,88.585622)"/>
<path style=" stroke:none;fill-rule:nonzero;fill:rgb(0%,0%,0%);fill-opacity:1;" d="M 13.835938 84.796875 C 13.160156 84.796875 12.652344 85.128906 12.308594 85.796875 C 11.96875 86.460938 11.800781 87.464844 11.800781 88.800781 C 11.800781 90.132812 11.96875 91.132812 12.308594 91.800781 C 12.652344 92.464844 13.160156 92.800781 13.835938 92.800781 C 14.519531 92.800781 15.03125 92.464844 15.371094 91.800781 C 15.710938 91.132812 15.882812 90.132812 15.882812 88.800781 C 15.882812 87.464844 15.710938 86.460938 15.371094 85.796875 C 15.03125 85.128906 14.519531 84.796875 13.835938 84.796875 Z M 13.835938 83.753906 C 14.929688 83.753906 15.761719 84.1875 16.335938 85.050781 C 16.910156 85.910156 17.199219 87.160156 17.199219 88.800781 C 17.199219 90.4375 16.910156 91.6875 16.335938 92.550781 C 15.761719 93.410156 14.929688 93.839844 13.835938 93.839844 C 12.75 93.839844 11.917969 93.410156 11.339844 92.550781 C 10.765625 91.6875 10.480469 90.4375 10.480469 88.800781 C 10.480469 87.160156 10.765625 85.910156 11.339844 85.050781 C 11.917969 84.1875 12.75 83.753906 13.835938 83.753906 Z M 13.835938 83.753906 "/>
<path style=" stroke:none;fill-rule:nonzero;fill:rgb(0%,0%,0%);fill-opacity:1;" d="M 19.507812 91.996094 L 20.882812 91.996094 L 20.882812 93.652344 L 19.507812 93.652344 Z M 19.507812 91.996094 "/>
<path style=" stroke:none;fill-rule:nonzero;fill:rgb(0%,0%,0%);fill-opacity:1;" d="M 26.722656 88.269531 C 26.132812 88.269531 25.664062 88.46875 25.320312 88.875 C 24.976562 89.277344 24.800781 89.828125 24.800781 90.53125 C 24.800781 91.230469 24.976562 91.785156 25.320312 92.191406 C 25.664062 92.597656 26.132812 92.800781 26.722656 92.800781 C 27.3125 92.800781 27.78125 92.597656 28.125 92.191406 C 28.46875 91.785156 28.640625 91.230469 28.640625 90.53125 C 28.640625 89.828125 28.46875 89.277344 28.125 88.875 C 27.78125 88.46875 27.3125 88.269531 26.722656 88.269531 Z M 29.332031 84.144531 L 29.332031 85.34375 C 29.003906 85.1875 28.671875 85.070312 28.332031 84.988281 C 27.996094 84.902344 27.664062 84.863281 27.332031 84.863281 C 26.464844 84.863281 25.800781 85.15625 25.34375 85.742188 C 24.886719 86.328125 24.625 87.210938 24.5625 88.398438 C 24.816406 88.019531 25.136719 87.730469 25.523438 87.527344 C 25.910156 87.328125 26.335938 87.226562 26.800781 87.226562 C 27.777344 87.226562 28.546875 87.523438 29.113281 88.117188 C 29.683594 88.707031 29.964844 89.511719 29.964844 90.53125 C 29.964844 91.53125 29.671875 92.332031 29.078125 92.9375 C 28.488281 93.539062 27.703125 93.839844 26.722656 93.839844 C 25.597656 93.839844 24.738281 93.410156 24.144531 92.550781 C 23.550781 91.6875 23.253906 90.4375 23.253906 88.800781 C 23.253906 87.265625 23.617188 86.039062 24.347656 85.125 C 25.074219 84.210938 26.054688 83.753906 27.28125 83.753906 C 27.613281 83.753906 27.945312 83.789062 28.28125 83.851562 C 28.617188 83.917969 28.96875 84.015625 29.332031 84.144531 Z M 29.332031 84.144531 "/>
<g clip-path="url(#clip10)" clip-rule="nonzero">
<path style="fill:none;stroke-width:0.8;stroke-linecap:square;stroke-linejoin:round;stroke:rgb(69.01961%,69.01961%,69.01961%);stroke-opacity:1;stroke-miterlimit:4;" d="M 30.102539 38.71875 L 225.404297 38.71875 " transform="matrix(1.333333,0,0,1.333333,0.000000000000028422,0)"/>
</g>
<path style="fill:none;stroke-width:0.8;stroke-linecap:butt;stroke-linejoin:round;stroke:rgb(0%,0%,0%);stroke-opacity:1;stroke-miterlimit:4;" d="M -0.000585556 -0.000469208 L -3.498632 -0.000469208 " transform="matrix(1.333333,0,0,1.333333,40.137499,51.625626)"/>
<path style=" stroke:none;fill-rule:nonzero;fill:rgb(0%,0%,0%);fill-opacity:1;" d="M 13.835938 47.835938 C 13.160156 47.835938 12.652344 48.171875 12.308594 48.835938 C 11.96875 49.503906 11.800781 50.503906 11.800781 51.839844 C 11.800781 53.171875 11.96875 54.171875 12.308594 54.839844 C 12.652344 55.503906 13.160156 55.839844 13.835938 55.839844 C 14.519531 55.839844 15.03125 55.503906 15.371094 54.839844 C 15.710938 54.171875 15.882812 53.171875 15.882812 51.839844 C 15.882812 50.503906 15.710938 49.503906 15.371094 48.835938 C 15.03125 48.171875 14.519531 47.835938 13.835938 47.835938 Z M 13.835938 46.796875 C 14.929688 46.796875 15.761719 47.226562 16.335938 48.089844 C 16.910156 48.949219 17.199219 50.199219 17.199219 51.839844 C 17.199219 53.476562 16.910156 54.726562 16.335938 55.589844 C 15.761719 56.449219 14.929688 56.878906 13.835938 56.878906 C 12.75 56.878906 11.917969 56.449219 11.339844 55.589844 C 10.765625 54.726562 10.480469 53.476562 10.480469 51.839844 C 10.480469 50.199219 10.765625 48.949219 11.339844 48.089844 C 11.917969 47.226562 12.75 46.796875 13.835938 46.796875 Z M 13.835938 46.796875 "/>
<path style=" stroke:none;fill-rule:nonzero;fill:rgb(0%,0%,0%);fill-opacity:1;" d="M 19.507812 55.035156 L 20.882812 55.035156 L 20.882812 56.691406 L 19.507812 56.691406 Z M 19.507812 55.035156 "/>
<path style=" stroke:none;fill-rule:nonzero;fill:rgb(0%,0%,0%);fill-opacity:1;" d="M 26.558594 52.074219 C 25.933594 52.074219 25.441406 52.242188 25.082031 52.578125 C 24.726562 52.910156 24.546875 53.371094 24.546875 53.957031 C 24.546875 54.542969 24.726562 55.003906 25.082031 55.335938 C 25.441406 55.671875 25.933594 55.839844 26.558594 55.839844 C 27.183594 55.839844 27.675781 55.671875 28.035156 55.335938 C 28.398438 54.996094 28.578125 54.539062 28.578125 53.957031 C 28.578125 53.371094 28.398438 52.910156 28.039062 52.578125 C 27.683594 52.242188 27.1875 52.074219 26.558594 52.074219 Z M 25.246094 51.515625 C 24.679688 51.378906 24.242188 51.113281 23.925781 50.730469 C 23.613281 50.339844 23.453125 49.871094 23.453125 49.3125 C 23.453125 48.539062 23.730469 47.925781 24.285156 47.472656 C 24.839844 47.019531 25.597656 46.796875 26.558594 46.796875 C 27.527344 46.796875 28.285156 47.019531 28.839844 47.472656 C 29.390625 47.925781 29.664062 48.539062 29.664062 49.3125 C 29.664062 49.871094 29.507812 50.339844 29.191406 50.730469 C 28.878906 51.113281 28.441406 51.378906 27.882812 51.515625 C 28.515625 51.664062 29.007812 51.953125 29.359375 52.382812 C 29.714844 52.8125 29.890625 53.335938 29.890625 53.957031 C 29.890625 54.898438 29.605469 55.621094 29.03125 56.125 C 28.453125 56.628906 27.632812 56.878906 26.558594 56.878906 C 25.488281 56.878906 24.664062 56.628906 24.089844 56.125 C 23.511719 55.621094 23.226562 54.898438 23.226562 53.957031 C 23.226562 53.335938 23.402344 52.8125 23.757812 52.382812 C 24.117188 51.953125 24.609375 51.664062 25.246094 51.515625 Z M 24.761719 49.4375 C 24.761719 49.941406 24.921875 50.335938 25.234375 50.617188 C 25.550781 50.898438 25.992188 51.039062 26.558594 51.039062 C 27.125 51.039062 27.566406 50.898438 27.882812 50.617188 C 28.203125 50.335938 28.363281 49.941406 28.363281 49.4375 C 28.363281 48.933594 28.203125 48.542969 27.882812 48.261719 C 27.566406 47.976562 27.125 47.835938 26.558594 47.835938 C 25.992188 47.835938 25.550781 47.976562 25.234375 48.261719 C 24.921875 48.542969 24.761719 48.933594 24.761719 49.4375 Z M 24.761719 49.4375 "/>
<g clip-path="url(#clip11)" clip-rule="nonzero">
<path style="fill:none;stroke-width:0.8;stroke-linecap:square;stroke-linejoin:round;stroke:rgb(69.01961%,69.01961%,69.01961%);stroke-opacity:1;stroke-miterlimit:4;" d="M 30.102539 10.998047 L 225.404297 10.998047 " transform="matrix(1.333333,0,0,1.333333,0.000000000000028422,0)"/>
</g>
<path style="fill:none;stroke-width:0.8;stroke-linecap:butt;stroke-linejoin:round;stroke:rgb(0%,0%,0%);stroke-opacity:1;stroke-miterlimit:4;" d="M -0.000585556 -0.00117207 L -3.498632 -0.00117207 " transform="matrix(1.333333,0,0,1.333333,40.137499,14.665625)"/>
<path style=" stroke:none;fill-rule:nonzero;fill:rgb(0%,0%,0%);fill-opacity:1;" d="M 11.253906 18.625 L 13.402344 18.625 L 13.402344 11.207031 L 11.066406 11.675781 L 11.066406 10.480469 L 13.390625 10.011719 L 14.703125 10.011719 L 14.703125 18.625 L 16.851562 18.625 L 16.851562 19.730469 L 11.253906 19.730469 Z M 11.253906 18.625 "/>
<path style=" stroke:none;fill-rule:nonzero;fill:rgb(0%,0%,0%);fill-opacity:1;" d="M 19.507812 18.078125 L 20.882812 18.078125 L 20.882812 19.730469 L 19.507812 19.730469 Z M 19.507812 18.078125 "/>
<path style=" stroke:none;fill-rule:nonzero;fill:rgb(0%,0%,0%);fill-opacity:1;" d="M 26.558594 10.878906 C 25.882812 10.878906 25.375 11.210938 25.03125 11.878906 C 24.691406 12.542969 24.519531 13.542969 24.519531 14.882812 C 24.519531 16.214844 24.691406 17.210938 25.03125 17.878906 C 25.375 18.546875 25.882812 18.878906 26.558594 18.878906 C 27.242188 18.878906 27.75 18.546875 28.09375 17.878906 C 28.433594 17.210938 28.605469 16.214844 28.605469 14.882812 C 28.605469 13.542969 28.433594 12.542969 28.09375 11.878906 C 27.75 11.210938 27.242188 10.878906 26.558594 10.878906 Z M 26.558594 9.835938 C 27.648438 9.835938 28.480469 10.265625 29.058594 11.128906 C 29.632812 11.992188 29.917969 13.242188 29.917969 14.882812 C 29.917969 16.515625 29.632812 17.765625 29.058594 18.628906 C 28.480469 19.492188 27.648438 19.921875 26.558594 19.921875 C 25.46875 19.921875 24.636719 19.492188 24.0625 18.628906 C 23.488281 17.765625 23.199219 16.515625 23.199219 14.882812 C 23.199219 13.242188 23.488281 11.992188 24.0625 11.128906 C 24.636719 10.265625 25.46875 9.835938 26.558594 9.835938 Z M 26.558594 9.835938 "/>
<g clip-path="url(#clip12)" clip-rule="nonzero">
<path style="fill:none;stroke-width:1.5;stroke-linecap:square;stroke-linejoin:round;stroke:rgb(12.156863%,46.666667%,70.588237%);stroke-opacity:1;stroke-miterlimit:4;" d="M 45.987305 -0.999023 L 47.375977 0.603516 L 51.691406 5.504883 L 51.802734 5.53418 L 56.121094 34.699219 L 60.439453 35.329102 L 64.757812 36.726562 L 69.073242 38.964844 L 73.391602 41.513672 L 73.50293 41.53125 L 77.821289 62.449219 L 82.139648 61.792969 L 86.458008 62.06543 L 90.773437 62.745117 L 95.091797 64.259766 L 95.203125 64.294922 L 99.521484 81.005859 L 103.839844 79.048828 L 108.155273 79.324219 L 112.473633 79.78418 L 116.791992 80.932617 L 116.90332 80.920898 L 121.22168 90.770508 L 125.540039 92.083008 L 129.855469 91.998047 L 134.173828 92.021484 L 138.492187 91.461914 L 138.603516 91.476562 L 142.921875 103.183594 L 147.240234 103.532227 L 151.555664 101.950195 L 155.874023 101.25 L 160.192383 100.798828 L 160.303711 100.790039 L 164.62207 109.954102 L 168.9375 109.289062 L 173.255859 108.099609 L 177.574219 108.18457 L 181.892578 108.140625 L 182.003906 108.140625 L 186.322266 115.883789 L 190.637695 115.259766 L 194.956055 114.741211 L 199.274414 114.454102 L 203.592773 113.841797 L 203.704102 113.865234 L 208.019531 122.648438 L 212.337891 121.640625 L 216.65625 120.949219 L 220.974609 120.1875 L 225.292969 119.745117 L 225.404297 119.730469 " transform="matrix(1.333333,0,0,1.333333,0.000000000000028422,0)"/>
</g>
<g clip-path="url(#clip13)" clip-rule="nonzero">
<path style="fill:none;stroke-width:1.5;stroke-linecap:butt;stroke-linejoin:round;stroke:rgb(74.901962%,0%,74.901962%);stroke-opacity:1;stroke-dasharray:5.55,2.4;stroke-miterlimit:4;" d="M 12.720703 116.393555 L 17.039062 107.314453 L 21.357422 101.742188 L 25.675781 97.154297 L 29.991211 93.123047 L 30.102539 93.087891 L 34.420898 71.373047 L 38.739258 68.4375 L 43.057617 66.644531 L 47.375977 64.646484 L 51.691406 62.838867 L 51.802734 62.827148 L 56.121094 52.341797 L 60.439453 51.972656 L 64.757812 51.146484 L 69.073242 50.43457 L 73.391602 49.494141 L 73.50293 49.488281 L 77.821289 41.956055 L 82.139648 42.164062 L 86.458008 41.929688 L 90.773437 41.657227 L 95.091797 41.036133 L 95.203125 41.018555 L 99.521484 34.473633 L 103.839844 35.487305 L 108.155273 35.367188 L 112.473633 35.337891 L 116.791992 34.921875 L 116.90332 34.927734 L 121.22168 32.030273 L 125.540039 31.294922 L 129.855469 31.21582 L 134.173828 31.12207 L 138.492187 31.321289 L 138.603516 31.306641 L 142.921875 27.032227 L 147.240234 26.970703 L 151.555664 27.462891 L 155.874023 27.796875 L 160.192383 27.9375 L 160.303711 27.943359 L 164.62207 24.325195 L 168.9375 24.805664 L 173.255859 25.371094 L 177.574219 25.359375 L 181.892578 25.423828 L 182.003906 25.420898 L 186.322266 22.813477 L 190.637695 23.068359 L 194.956055 23.173828 L 199.274414 23.329102 L 203.592773 23.463867 L 203.704102 23.455078 L 208.019531 20.106445 L 212.337891 20.680664 L 216.65625 21 L 220.974609 21.149414 L 225.292969 21.345703 L 225.404297 21.348633 " transform="matrix(1.333333,0,0,1.333333,0.000000000000028422,0)"/>
</g>
<g clip-path="url(#clip14)" clip-rule="nonzero">
<path style="fill:none;stroke-width:1.5;stroke-linecap:butt;stroke-linejoin:round;stroke:rgb(0%,50.196081%,0%);stroke-opacity:1;stroke-dasharray:9.6,2.4,1.5,2.4;stroke-miterlimit:4;" d="M 30.102539 80.106445 L 51.802734 70.333008 L 73.50293 57 L 95.203125 56.680664 L 116.90332 45.524414 L 138.603516 41.575195 L 160.303711 41.144531 L 182.003906 33.911133 L 203.704102 36.987305 L 225.404297 37.374023 " transform="matrix(1.333333,0,0,1.333333,0.000000000000028422,0)"/>
</g>
<path style="fill:none;stroke-width:0.8;stroke-linecap:square;stroke-linejoin:miter;stroke:rgb(0%,0%,0%);stroke-opacity:1;stroke-miterlimit:4;" d="M 30.102539 149.598633 L 30.102539 10.998047 " transform="matrix(1.333333,0,0,1.333333,0.000000000000028422,0)"/>
<path style="fill:none;stroke-width:0.8;stroke-linecap:square;stroke-linejoin:miter;stroke:rgb(0%,0%,0%);stroke-opacity:1;stroke-miterlimit:4;" d="M 225.404297 149.598633 L 225.404297 10.998047 " transform="matrix(1.333333,0,0,1.333333,0.000000000000028422,0)"/>
<path style="fill:none;stroke-width:0.8;stroke-linecap:square;stroke-linejoin:miter;stroke:rgb(0%,0%,0%);stroke-opacity:1;stroke-miterlimit:4;" d="M 30.102539 149.598633 L 225.404297 149.598633 " transform="matrix(1.333333,0,0,1.333333,0.000000000000028422,0)"/>
<path style="fill:none;stroke-width:0.8;stroke-linecap:square;stroke-linejoin:miter;stroke:rgb(0%,0%,0%);stroke-opacity:1;stroke-miterlimit:4;" d="M 30.102539 10.998047 L 225.404297 10.998047 " transform="matrix(1.333333,0,0,1.333333,0.000000000000028422,0)"/>
<use xlink:href="#surface5" mask="url(#mask0)"/>
<path style="fill:none;stroke-width:1.5;stroke-linecap:square;stroke-linejoin:round;stroke:rgb(12.156863%,46.666667%,70.588237%);stroke-opacity:1;stroke-miterlimit:4;" d="M 39.102539 105.662109 L 59.103516 105.662109 " transform="matrix(1.333333,0,0,1.333333,0.000000000000028422,0)"/>
<path style=" stroke:none;fill-rule:nonzero;fill:rgb(0%,0%,0%);fill-opacity:1;" d="M 91.914062 136.1875 L 91.914062 138.257812 L 94.378906 138.257812 L 94.378906 139.191406 L 91.914062 139.191406 L 91.914062 143.148438 C 91.914062 143.742188 91.992188 144.125 92.15625 144.292969 C 92.320312 144.464844 92.648438 144.550781 93.148438 144.550781 L 94.378906 144.550781 L 94.378906 145.550781 L 93.148438 145.550781 C 92.226562 145.550781 91.585938 145.378906 91.234375 145.035156 C 90.882812 144.6875 90.707031 144.058594 90.707031 143.148438 L 90.707031 139.191406 L 89.828125 139.191406 L 89.828125 138.257812 L 90.707031 138.257812 L 90.707031 136.1875 Z M 91.914062 136.1875 "/>
<path style=" stroke:none;fill-rule:nonzero;fill:rgb(0%,0%,0%);fill-opacity:1;" d="M 100.179688 139.378906 C 100.046875 139.300781 99.898438 139.242188 99.742188 139.207031 C 99.582031 139.167969 99.40625 139.152344 99.21875 139.152344 C 98.539062 139.152344 98.019531 139.371094 97.65625 139.8125 C 97.292969 140.25 97.113281 140.882812 97.113281 141.710938 L 97.113281 145.550781 L 95.910156 145.550781 L 95.910156 138.257812 L 97.113281 138.257812 L 97.113281 139.394531 C 97.367188 138.949219 97.695312 138.621094 98.097656 138.40625 C 98.5 138.191406 98.992188 138.085938 99.570312 138.085938 C 99.652344 138.085938 99.742188 138.089844 99.84375 138.101562 C 99.941406 138.109375 100.054688 138.125 100.171875 138.148438 Z M 100.179688 139.378906 "/>
<path style=" stroke:none;fill-rule:nonzero;fill:rgb(0%,0%,0%);fill-opacity:1;" d="M 104.75 141.886719 C 103.785156 141.886719 103.113281 141.996094 102.738281 142.21875 C 102.363281 142.4375 102.179688 142.816406 102.179688 143.351562 C 102.179688 143.777344 102.320312 144.113281 102.597656 144.363281 C 102.878906 144.613281 103.261719 144.738281 103.742188 144.738281 C 104.40625 144.738281 104.941406 144.5 105.339844 144.03125 C 105.742188 143.558594 105.941406 142.933594 105.941406 142.152344 L 105.941406 141.886719 Z M 107.140625 141.390625 L 107.140625 145.550781 L 105.941406 145.550781 L 105.941406 144.445312 C 105.667969 144.886719 105.328125 145.210938 104.921875 145.425781 C 104.511719 145.636719 104.011719 145.742188 103.421875 145.742188 C 102.675781 145.742188 102.082031 145.53125 101.640625 145.113281 C 101.199219 144.691406 100.980469 144.132812 100.980469 143.429688 C 100.980469 142.609375 101.253906 141.992188 101.804688 141.574219 C 102.351562 141.15625 103.171875 140.949219 104.261719 140.949219 L 105.941406 140.949219 L 105.941406 140.832031 C 105.941406 140.277344 105.761719 139.851562 105.398438 139.550781 C 105.035156 139.25 104.527344 139.097656 103.871094 139.097656 C 103.457031 139.097656 103.050781 139.148438 102.652344 139.25 C 102.257812 139.347656 101.878906 139.5 101.515625 139.699219 L 101.515625 138.589844 C 101.953125 138.421875 102.378906 138.292969 102.789062 138.210938 C 103.203125 138.125 103.605469 138.085938 103.996094 138.085938 C 105.050781 138.085938 105.839844 138.359375 106.359375 138.90625 C 106.878906 139.449219 107.140625 140.28125 107.140625 141.390625 Z M 107.140625 141.390625 "/>
<path style=" stroke:none;fill-rule:nonzero;fill:rgb(0%,0%,0%);fill-opacity:1;" d="M 109.605469 138.257812 L 110.804688 138.257812 L 110.804688 145.550781 L 109.605469 145.550781 Z M 109.605469 135.417969 L 110.804688 135.417969 L 110.804688 136.9375 L 109.605469 136.9375 Z M 109.605469 135.417969 "/>
<path style=" stroke:none;fill-rule:nonzero;fill:rgb(0%,0%,0%);fill-opacity:1;" d="M 119.375 141.148438 L 119.375 145.550781 L 118.175781 145.550781 L 118.175781 141.1875 C 118.175781 140.5 118.042969 139.980469 117.773438 139.640625 C 117.503906 139.296875 117.097656 139.125 116.5625 139.125 C 115.914062 139.125 115.402344 139.332031 115.03125 139.746094 C 114.65625 140.15625 114.46875 140.71875 114.46875 141.429688 L 114.46875 145.550781 L 113.265625 145.550781 L 113.265625 138.257812 L 114.46875 138.257812 L 114.46875 139.394531 C 114.757812 138.953125 115.09375 138.625 115.484375 138.410156 C 115.871094 138.191406 116.320312 138.085938 116.828125 138.085938 C 117.664062 138.085938 118.300781 138.34375 118.726562 138.863281 C 119.160156 139.378906 119.375 140.140625 119.375 141.148438 Z M 119.375 141.148438 "/>
<path style=" stroke:none;fill-rule:nonzero;fill:rgb(0%,0%,0%);fill-opacity:1;" d="M 126 135.417969 L 127.199219 135.417969 L 127.199219 145.550781 L 126 145.550781 Z M 126 135.417969 "/>
<path style=" stroke:none;fill-rule:nonzero;fill:rgb(0%,0%,0%);fill-opacity:1;" d="M 132.53125 139.097656 C 131.886719 139.097656 131.378906 139.351562 131.007812 139.851562 C 130.632812 140.351562 130.445312 141.039062 130.445312 141.910156 C 130.445312 142.785156 130.632812 143.46875 131.003906 143.972656 C 131.375 144.472656 131.882812 144.722656 132.53125 144.722656 C 133.167969 144.722656 133.675781 144.472656 134.046875 143.96875 C 134.421875 143.464844 134.605469 142.78125 134.605469 141.910156 C 134.605469 141.046875 134.421875 140.363281 134.046875 139.855469 C 133.675781 139.351562 133.167969 139.097656 132.53125 139.097656 Z M 132.53125 138.085938 C 133.570312 138.085938 134.390625 138.421875 134.984375 139.101562 C 135.578125 139.777344 135.878906 140.714844 135.878906 141.910156 C 135.878906 143.105469 135.578125 144.042969 134.984375 144.722656 C 134.390625 145.402344 133.570312 145.742188 132.53125 145.742188 C 131.484375 145.742188 130.664062 145.402344 130.070312 144.722656 C 129.480469 144.042969 129.183594 143.105469 129.183594 141.910156 C 129.183594 140.714844 129.480469 139.777344 130.070312 139.101562 C 130.664062 138.421875 131.484375 138.085938 132.53125 138.085938 Z M 132.53125 138.085938 "/>
<path style=" stroke:none;fill-rule:nonzero;fill:rgb(0%,0%,0%);fill-opacity:1;" d="M 142.511719 138.472656 L 142.511719 139.605469 C 142.171875 139.433594 141.820312 139.304688 141.457031 139.21875 C 141.09375 139.128906 140.714844 139.085938 140.324219 139.085938 C 139.726562 139.085938 139.28125 139.175781 138.984375 139.359375 C 138.6875 139.542969 138.539062 139.816406 138.539062 140.179688 C 138.539062 140.457031 138.644531 140.675781 138.859375 140.835938 C 139.070312 140.992188 139.5 141.144531 140.140625 141.285156 L 140.550781 141.378906 C 141.402344 141.558594 142.007812 141.816406 142.363281 142.148438 C 142.722656 142.480469 142.902344 142.945312 142.902344 143.539062 C 142.902344 144.214844 142.632812 144.753906 142.097656 145.148438 C 141.5625 145.542969 140.824219 145.742188 139.886719 145.742188 C 139.496094 145.742188 139.089844 145.703125 138.667969 145.625 C 138.242188 145.550781 137.796875 145.4375 137.328125 145.285156 L 137.328125 144.046875 C 137.773438 144.277344 138.207031 144.449219 138.636719 144.566406 C 139.066406 144.679688 139.492188 144.738281 139.914062 144.738281 C 140.476562 144.738281 140.910156 144.640625 141.214844 144.445312 C 141.519531 144.253906 141.671875 143.980469 141.671875 143.628906 C 141.671875 143.304688 141.5625 143.054688 141.339844 142.882812 C 141.125 142.707031 140.644531 142.542969 139.898438 142.378906 L 139.484375 142.28125 C 138.742188 142.125 138.207031 141.886719 137.875 141.5625 C 137.546875 141.238281 137.382812 140.796875 137.382812 140.230469 C 137.382812 139.546875 137.625 139.015625 138.109375 138.644531 C 138.597656 138.269531 139.285156 138.085938 140.179688 138.085938 C 140.621094 138.085938 141.039062 138.117188 141.429688 138.183594 C 141.820312 138.246094 142.179688 138.34375 142.511719 138.472656 Z M 142.511719 138.472656 "/>
<path style=" stroke:none;fill-rule:nonzero;fill:rgb(0%,0%,0%);fill-opacity:1;" d="M 149.457031 138.472656 L 149.457031 139.605469 C 149.121094 139.433594 148.769531 139.304688 148.402344 139.21875 C 148.039062 139.128906 147.660156 139.085938 147.269531 139.085938 C 146.675781 139.085938 146.230469 139.175781 145.933594 139.359375 C 145.636719 139.542969 145.484375 139.816406 145.484375 140.179688 C 145.484375 140.457031 145.59375 140.675781 145.804688 140.835938 C 146.015625 140.992188 146.445312 141.144531 147.089844 141.285156 L 147.5 141.378906 C 148.347656 141.558594 148.953125 141.816406 149.3125 142.148438 C 149.667969 142.480469 149.847656 142.945312 149.847656 143.539062 C 149.847656 144.214844 149.582031 144.753906 149.042969 145.148438 C 148.507812 145.542969 147.773438 145.742188 146.835938 145.742188 C 146.445312 145.742188 146.035156 145.703125 145.613281 145.625 C 145.191406 145.550781 144.742188 145.4375 144.277344 145.285156 L 144.277344 144.046875 C 144.71875 144.277344 145.15625 144.449219 145.585938 144.566406 C 146.011719 144.679688 146.4375 144.738281 146.859375 144.738281 C 147.425781 144.738281 147.859375 144.640625 148.160156 144.445312 C 148.464844 144.253906 148.617188 143.980469 148.617188 143.628906 C 148.617188 143.304688 148.507812 143.054688 148.289062 142.882812 C 148.070312 142.707031 147.589844 142.542969 146.847656 142.378906 L 146.429688 142.28125 C 145.6875 142.125 145.152344 141.886719 144.820312 141.5625 C 144.492188 141.238281 144.328125 140.796875 144.328125 140.230469 C 144.328125 139.546875 144.570312 139.015625 145.058594 138.644531 C 145.542969 138.269531 146.234375 138.085938 147.128906 138.085938 C 147.570312 138.085938 147.984375 138.117188 148.375 138.183594 C 148.765625 138.246094 149.128906 138.34375 149.457031 138.472656 Z M 149.457031 138.472656 "/>
<path style="fill:none;stroke-width:1.5;stroke-linecap:butt;stroke-linejoin:round;stroke:rgb(74.901962%,0%,74.901962%);stroke-opacity:1;stroke-dasharray:5.55,2.4;stroke-miterlimit:4;" d="M 39.102539 120.342773 L 59.103516 120.342773 " transform="matrix(1.333333,0,0,1.333333,0.000000000000028422,0)"/>
<path style=" stroke:none;fill-rule:nonzero;fill:rgb(0%,0%,0%);fill-opacity:1;" d="M 91.914062 155.757812 L 91.914062 157.832031 L 94.378906 157.832031 L 94.378906 158.761719 L 91.914062 158.761719 L 91.914062 162.71875 C 91.914062 163.3125 91.992188 163.695312 92.15625 163.867188 C 92.320312 164.035156 92.648438 164.121094 93.148438 164.121094 L 94.378906 164.121094 L 94.378906 165.121094 L 93.148438 165.121094 C 92.226562 165.121094 91.585938 164.949219 91.234375 164.605469 C 90.882812 164.257812 90.707031 163.632812 90.707031 162.71875 L 90.707031 158.761719 L 89.828125 158.761719 L 89.828125 157.832031 L 90.707031 157.832031 L 90.707031 155.757812 Z M 91.914062 155.757812 "/>
<path style=" stroke:none;fill-rule:nonzero;fill:rgb(0%,0%,0%);fill-opacity:1;" d="M 100.179688 158.949219 C 100.046875 158.871094 99.898438 158.8125 99.742188 158.777344 C 99.582031 158.742188 99.40625 158.722656 99.21875 158.722656 C 98.539062 158.722656 98.019531 158.941406 97.65625 159.382812 C 97.292969 159.824219 97.113281 160.457031 97.113281 161.28125 L 97.113281 165.121094 L 95.910156 165.121094 L 95.910156 157.832031 L 97.113281 157.832031 L 97.113281 158.964844 C 97.367188 158.519531 97.695312 158.191406 98.097656 157.976562 C 98.5 157.761719 98.992188 157.65625 99.570312 157.65625 C 99.652344 157.65625 99.742188 157.660156 99.84375 157.671875 C 99.941406 157.679688 100.054688 157.699219 100.171875 157.71875 Z M 100.179688 158.949219 "/>
<path style=" stroke:none;fill-rule:nonzero;fill:rgb(0%,0%,0%);fill-opacity:1;" d="M 104.75 161.457031 C 103.785156 161.457031 103.113281 161.566406 102.738281 161.789062 C 102.363281 162.007812 102.179688 162.386719 102.179688 162.921875 C 102.179688 163.347656 102.320312 163.683594 102.597656 163.933594 C 102.878906 164.183594 103.261719 164.308594 103.742188 164.308594 C 104.40625 164.308594 104.941406 164.070312 105.339844 163.601562 C 105.742188 163.128906 105.941406 162.503906 105.941406 161.722656 L 105.941406 161.457031 Z M 107.140625 160.960938 L 107.140625 165.121094 L 105.941406 165.121094 L 105.941406 164.015625 C 105.667969 164.457031 105.328125 164.785156 104.921875 164.996094 C 104.511719 165.207031 104.011719 165.3125 103.421875 165.3125 C 102.675781 165.3125 102.082031 165.101562 101.640625 164.683594 C 101.199219 164.261719 100.980469 163.703125 100.980469 163 C 100.980469 162.179688 101.253906 161.5625 101.804688 161.144531 C 102.351562 160.726562 103.171875 160.519531 104.261719 160.519531 L 105.941406 160.519531 L 105.941406 160.402344 C 105.941406 159.851562 105.761719 159.421875 105.398438 159.121094 C 105.035156 158.820312 104.527344 158.667969 103.871094 158.667969 C 103.457031 158.667969 103.050781 158.71875 102.652344 158.820312 C 102.257812 158.917969 101.878906 159.070312 101.515625 159.269531 L 101.515625 158.160156 C 101.953125 157.992188 102.378906 157.867188 102.789062 157.78125 C 103.203125 157.699219 103.605469 157.65625 103.996094 157.65625 C 105.050781 157.65625 105.839844 157.929688 106.359375 158.476562 C 106.878906 159.023438 107.140625 159.851562 107.140625 160.960938 Z M 107.140625 160.960938 "/>
<path style=" stroke:none;fill-rule:nonzero;fill:rgb(0%,0%,0%);fill-opacity:1;" d="M 109.605469 157.832031 L 110.804688 157.832031 L 110.804688 165.121094 L 109.605469 165.121094 Z M 109.605469 154.992188 L 110.804688 154.992188 L 110.804688 156.507812 L 109.605469 156.507812 Z M 109.605469 154.992188 "/>
<path style=" stroke:none;fill-rule:nonzero;fill:rgb(0%,0%,0%);fill-opacity:1;" d="M 119.375 160.71875 L 119.375 165.121094 L 118.175781 165.121094 L 118.175781 160.757812 C 118.175781 160.070312 118.042969 159.554688 117.773438 159.210938 C 117.503906 158.867188 117.097656 158.695312 116.5625 158.695312 C 115.914062 158.695312 115.402344 158.902344 115.03125 159.316406 C 114.65625 159.726562 114.46875 160.289062 114.46875 161 L 114.46875 165.121094 L 113.265625 165.121094 L 113.265625 157.832031 L 114.46875 157.832031 L 114.46875 158.964844 C 114.757812 158.523438 115.09375 158.195312 115.484375 157.980469 C 115.871094 157.761719 116.320312 157.65625 116.828125 157.65625 C 117.664062 157.65625 118.300781 157.914062 118.726562 158.433594 C 119.160156 158.949219 119.375 159.710938 119.375 160.71875 Z M 119.375 160.71875 "/>
<path style=" stroke:none;fill-rule:nonzero;fill:rgb(0%,0%,0%);fill-opacity:1;" d="M 129.316406 161.457031 C 128.347656 161.457031 127.675781 161.566406 127.300781 161.789062 C 126.929688 162.007812 126.742188 162.386719 126.742188 162.921875 C 126.742188 163.347656 126.882812 163.683594 127.164062 163.933594 C 127.445312 164.183594 127.824219 164.308594 128.304688 164.308594 C 128.96875 164.308594 129.503906 164.070312 129.90625 163.601562 C 130.304688 163.128906 130.507812 162.503906 130.507812 161.722656 L 130.507812 161.457031 Z M 131.703125 160.960938 L 131.703125 165.121094 L 130.507812 165.121094 L 130.507812 164.015625 C 130.234375 164.457031 129.890625 164.785156 129.484375 164.996094 C 129.074219 165.207031 128.578125 165.3125 127.984375 165.3125 C 127.238281 165.3125 126.644531 165.101562 126.203125 164.683594 C 125.765625 164.261719 125.542969 163.703125 125.542969 163 C 125.542969 162.179688 125.820312 161.5625 126.367188 161.144531 C 126.917969 160.726562 127.738281 160.519531 128.824219 160.519531 L 130.507812 160.519531 L 130.507812 160.402344 C 130.507812 159.851562 130.324219 159.421875 129.964844 159.121094 C 129.601562 158.820312 129.089844 158.667969 128.4375 158.667969 C 128.019531 158.667969 127.613281 158.71875 127.21875 158.820312 C 126.824219 158.917969 126.445312 159.070312 126.078125 159.269531 L 126.078125 158.160156 C 126.515625 157.992188 126.941406 157.867188 127.355469 157.78125 C 127.765625 157.699219 128.167969 157.65625 128.558594 157.65625 C 129.613281 157.65625 130.402344 157.929688 130.921875 158.476562 C 131.445312 159.023438 131.703125 159.851562 131.703125 160.960938 Z M 131.703125 160.960938 "/>
<path style=" stroke:none;fill-rule:nonzero;fill:rgb(0%,0%,0%);fill-opacity:1;" d="M 139.417969 158.109375 L 139.417969 159.230469 C 139.082031 159.042969 138.742188 158.902344 138.398438 158.808594 C 138.058594 158.714844 137.714844 158.667969 137.367188 158.667969 C 136.589844 158.667969 135.988281 158.917969 135.554688 159.410156 C 135.128906 159.902344 134.914062 160.59375 134.914062 161.480469 C 134.914062 162.371094 135.128906 163.0625 135.554688 163.558594 C 135.988281 164.050781 136.589844 164.292969 137.367188 164.292969 C 137.714844 164.292969 138.058594 164.25 138.398438 164.15625 C 138.742188 164.0625 139.082031 163.921875 139.417969 163.734375 L 139.417969 164.84375 C 139.085938 165 138.738281 165.113281 138.378906 165.191406 C 138.023438 165.273438 137.640625 165.3125 137.238281 165.3125 C 136.140625 165.3125 135.265625 164.964844 134.617188 164.277344 C 133.972656 163.585938 133.648438 162.65625 133.648438 161.480469 C 133.648438 160.292969 133.976562 159.359375 134.628906 158.679688 C 135.285156 157.996094 136.179688 157.65625 137.316406 157.65625 C 137.683594 157.65625 138.042969 157.695312 138.394531 157.769531 C 138.746094 157.84375 139.089844 157.957031 139.417969 158.109375 Z M 139.417969 158.109375 "/>
<path style=" stroke:none;fill-rule:nonzero;fill:rgb(0%,0%,0%);fill-opacity:1;" d="M 146.75 158.109375 L 146.75 159.230469 C 146.410156 159.042969 146.070312 158.902344 145.730469 158.808594 C 145.390625 158.714844 145.046875 158.667969 144.699219 158.667969 C 143.921875 158.667969 143.316406 158.917969 142.886719 159.410156 C 142.457031 159.902344 142.242188 160.59375 142.242188 161.480469 C 142.242188 162.371094 142.457031 163.0625 142.886719 163.558594 C 143.316406 164.050781 143.921875 164.292969 144.699219 164.292969 C 145.046875 164.292969 145.390625 164.25 145.730469 164.15625 C 146.070312 164.0625 146.410156 163.921875 146.75 163.734375 L 146.75 164.84375 C 146.414062 165 146.070312 165.113281 145.710938 165.191406 C 145.351562 165.273438 144.972656 165.3125 144.570312 165.3125 C 143.46875 165.3125 142.597656 164.964844 141.949219 164.277344 C 141.304688 163.585938 140.980469 162.65625 140.980469 161.480469 C 140.980469 160.292969 141.308594 159.359375 141.960938 158.679688 C 142.613281 157.996094 143.511719 157.65625 144.648438 157.65625 C 145.015625 157.65625 145.375 157.695312 145.726562 157.769531 C 146.078125 157.84375 146.417969 157.957031 146.75 158.109375 Z M 146.75 158.109375 "/>
<path style="fill:none;stroke-width:1.5;stroke-linecap:butt;stroke-linejoin:round;stroke:rgb(0%,50.196081%,0%);stroke-opacity:1;stroke-dasharray:9.6,2.4,1.5,2.4;stroke-miterlimit:4;" d="M 39.102539 135.020508 L 59.103516 135.020508 " transform="matrix(1.333333,0,0,1.333333,0.000000000000028422,0)"/>
<path style=" stroke:none;fill-rule:nonzero;fill:rgb(0%,0%,0%);fill-opacity:1;" d="M 91.914062 175.332031 L 91.914062 177.402344 L 94.378906 177.402344 L 94.378906 178.332031 L 91.914062 178.332031 L 91.914062 182.289062 C 91.914062 182.886719 91.992188 183.265625 92.15625 183.4375 C 92.320312 183.605469 92.648438 183.691406 93.148438 183.691406 L 94.378906 183.691406 L 94.378906 184.691406 L 93.148438 184.691406 C 92.226562 184.691406 91.585938 184.519531 91.234375 184.175781 C 90.882812 183.832031 90.707031 183.203125 90.707031 182.289062 L 90.707031 178.332031 L 89.828125 178.332031 L 89.828125 177.402344 L 90.707031 177.402344 L 90.707031 175.332031 Z M 91.914062 175.332031 "/>
<path style=" stroke:none;fill-rule:nonzero;fill:rgb(0%,0%,0%);fill-opacity:1;" d="M 102.191406 180.746094 L 102.191406 181.332031 L 96.683594 181.332031 C 96.738281 182.15625 96.984375 182.785156 97.429688 183.21875 C 97.875 183.648438 98.492188 183.867188 99.289062 183.867188 C 99.746094 183.867188 100.195312 183.808594 100.625 183.695312 C 101.058594 183.585938 101.488281 183.414062 101.914062 183.1875 L 101.914062 184.320312 C 101.484375 184.503906 101.042969 184.644531 100.589844 184.738281 C 100.140625 184.835938 99.679688 184.882812 99.21875 184.882812 C 98.054688 184.882812 97.132812 184.542969 96.453125 183.867188 C 95.773438 183.191406 95.433594 182.273438 95.433594 181.117188 C 95.433594 179.925781 95.757812 178.976562 96.402344 178.277344 C 97.046875 177.578125 97.914062 177.226562 99.007812 177.226562 C 99.988281 177.226562 100.765625 177.542969 101.335938 178.175781 C 101.90625 178.804688 102.191406 179.664062 102.191406 180.746094 Z M 100.996094 180.394531 C 100.984375 179.742188 100.804688 179.21875 100.445312 178.828125 C 100.085938 178.4375 99.613281 178.242188 99.023438 178.242188 C 98.355469 178.242188 97.820312 178.429688 97.417969 178.808594 C 97.015625 179.183594 96.785156 179.71875 96.722656 180.402344 Z M 100.996094 180.394531 "/>
<path style=" stroke:none;fill-rule:nonzero;fill:rgb(0%,0%,0%);fill-opacity:1;" d="M 108.804688 177.617188 L 108.804688 178.75 C 108.46875 178.574219 108.117188 178.445312 107.75 178.359375 C 107.386719 178.273438 107.011719 178.226562 106.617188 178.226562 C 106.023438 178.226562 105.578125 178.320312 105.28125 178.5 C 104.984375 178.683594 104.835938 178.957031 104.835938 179.320312 C 104.835938 179.601562 104.941406 179.816406 105.152344 179.976562 C 105.367188 180.132812 105.792969 180.285156 106.4375 180.429688 L 106.847656 180.519531 C 107.699219 180.703125 108.300781 180.957031 108.660156 181.289062 C 109.019531 181.621094 109.199219 182.085938 109.199219 182.679688 C 109.199219 183.359375 108.929688 183.894531 108.394531 184.289062 C 107.855469 184.683594 107.121094 184.882812 106.183594 184.882812 C 105.792969 184.882812 105.386719 184.84375 104.960938 184.769531 C 104.539062 184.691406 104.09375 184.578125 103.625 184.425781 L 103.625 183.1875 C 104.066406 183.417969 104.503906 183.59375 104.933594 183.707031 C 105.363281 183.820312 105.789062 183.878906 106.210938 183.878906 C 106.773438 183.878906 107.207031 183.78125 107.511719 183.589844 C 107.8125 183.394531 107.964844 183.125 107.964844 182.773438 C 107.964844 182.445312 107.855469 182.199219 107.636719 182.023438 C 107.417969 181.851562 106.9375 181.683594 106.195312 181.523438 L 105.777344 181.425781 C 105.039062 181.269531 104.5 181.027344 104.171875 180.707031 C 103.839844 180.382812 103.675781 179.9375 103.675781 179.375 C 103.675781 178.6875 103.917969 178.160156 104.40625 177.785156 C 104.890625 177.414062 105.582031 177.226562 106.476562 177.226562 C 106.917969 177.226562 107.335938 177.257812 107.726562 177.324219 C 108.117188 177.386719 108.476562 177.484375 108.804688 177.617188 Z M 108.804688 177.617188 "/>
<path style=" stroke:none;fill-rule:nonzero;fill:rgb(0%,0%,0%);fill-opacity:1;" d="M 112.289062 175.332031 L 112.289062 177.402344 L 114.757812 177.402344 L 114.757812 178.332031 L 112.289062 178.332031 L 112.289062 182.289062 C 112.289062 182.886719 112.371094 183.265625 112.535156 183.4375 C 112.695312 183.605469 113.027344 183.691406 113.527344 183.691406 L 114.757812 183.691406 L 114.757812 184.691406 L 113.527344 184.691406 C 112.601562 184.691406 111.964844 184.519531 111.613281 184.175781 C 111.261719 183.832031 111.085938 183.203125 111.085938 182.289062 L 111.085938 178.332031 L 110.207031 178.332031 L 110.207031 177.402344 L 111.085938 177.402344 L 111.085938 175.332031 Z M 112.289062 175.332031 "/>
<path style=" stroke:none;fill-rule:nonzero;fill:rgb(0%,0%,0%);fill-opacity:1;" d="M 123.886719 181.027344 C 122.917969 181.027344 122.246094 181.136719 121.871094 181.359375 C 121.5 181.582031 121.3125 181.957031 121.3125 182.492188 C 121.3125 182.917969 121.453125 183.253906 121.734375 183.503906 C 122.015625 183.753906 122.394531 183.878906 122.875 183.878906 C 123.539062 183.878906 124.074219 183.644531 124.476562 183.171875 C 124.875 182.699219 125.078125 182.074219 125.078125 181.292969 L 125.078125 181.027344 Z M 126.273438 180.53125 L 126.273438 184.691406 L 125.078125 184.691406 L 125.078125 183.585938 C 124.804688 184.027344 124.460938 184.355469 124.054688 184.566406 C 123.644531 184.777344 123.148438 184.882812 122.554688 184.882812 C 121.808594 184.882812 121.214844 184.671875 120.773438 184.253906 C 120.335938 183.832031 120.113281 183.273438 120.113281 182.570312 C 120.113281 181.75 120.390625 181.132812 120.9375 180.714844 C 121.488281 180.300781 122.308594 180.089844 123.394531 180.089844 L 125.078125 180.089844 L 125.078125 179.972656 C 125.078125 179.421875 124.894531 178.992188 124.535156 178.691406 C 124.171875 178.390625 123.660156 178.242188 123.007812 178.242188 C 122.589844 178.242188 122.183594 178.289062 121.789062 178.390625 C 121.394531 178.492188 121.015625 178.640625 120.648438 178.839844 L 120.648438 177.730469 C 121.085938 177.5625 121.511719 177.4375 121.925781 177.351562 C 122.335938 177.269531 122.738281 177.226562 123.128906 177.226562 C 124.183594 177.226562 124.972656 177.5 125.492188 178.046875 C 126.015625 178.59375 126.273438 179.421875 126.273438 180.53125 Z M 126.273438 180.53125 "/>
<path style=" stroke:none;fill-rule:nonzero;fill:rgb(0%,0%,0%);fill-opacity:1;" d="M 133.988281 177.679688 L 133.988281 178.800781 C 133.652344 178.613281 133.3125 178.472656 132.96875 178.378906 C 132.628906 178.289062 132.285156 178.242188 131.9375 178.242188 C 131.160156 178.242188 130.558594 178.488281 130.125 178.980469 C 129.699219 179.472656 129.484375 180.164062 129.484375 181.054688 C 129.484375 181.945312 129.699219 182.636719 130.125 183.128906 C 130.558594 183.621094 131.160156 183.867188 131.9375 183.867188 C 132.285156 183.867188 132.628906 183.820312 132.96875 183.726562 C 133.3125 183.632812 133.652344 183.492188 133.988281 183.304688 L 133.988281 184.414062 C 133.65625 184.570312 133.308594 184.6875 132.949219 184.761719 C 132.59375 184.84375 132.210938 184.882812 131.808594 184.882812 C 130.710938 184.882812 129.835938 184.539062 129.1875 183.847656 C 128.542969 183.15625 128.21875 182.226562 128.21875 181.054688 C 128.21875 179.863281 128.546875 178.929688 129.199219 178.25 C 129.855469 177.566406 130.75 177.226562 131.886719 177.226562 C 132.253906 177.226562 132.613281 177.265625 132.964844 177.339844 C 133.316406 177.414062 133.660156 177.527344 133.988281 177.679688 Z M 133.988281 177.679688 "/>
<path style=" stroke:none;fill-rule:nonzero;fill:rgb(0%,0%,0%);fill-opacity:1;" d="M 141.320312 177.679688 L 141.320312 178.800781 C 140.980469 178.613281 140.640625 178.472656 140.300781 178.378906 C 139.960938 178.289062 139.617188 178.242188 139.269531 178.242188 C 138.492188 178.242188 137.886719 178.488281 137.457031 178.980469 C 137.027344 179.472656 136.8125 180.164062 136.8125 181.054688 C 136.8125 181.945312 137.027344 182.636719 137.457031 183.128906 C 137.886719 183.621094 138.492188 183.867188 139.269531 183.867188 C 139.617188 183.867188 139.960938 183.820312 140.300781 183.726562 C 140.640625 183.632812 140.980469 183.492188 141.320312 183.304688 L 141.320312 184.414062 C 140.984375 184.570312 140.640625 184.6875 140.28125 184.761719 C 139.921875 184.84375 139.542969 184.882812 139.140625 184.882812 C 138.039062 184.882812 137.167969 184.539062 136.519531 183.847656 C 135.875 183.15625 135.550781 182.226562 135.550781 181.054688 C 135.550781 179.863281 135.878906 178.929688 136.53125 178.25 C 137.183594 177.566406 138.082031 177.226562 139.21875 177.226562 C 139.585938 177.226562 139.945312 177.265625 140.296875 177.339844 C 140.648438 177.414062 140.988281 177.527344 141.320312 177.679688 Z M 141.320312 177.679688 "/>
</g>
</svg>
