<?xml version="1.0" encoding="UTF-8"?>
<svg xmlns="http://www.w3.org/2000/svg" xmlns:xlink="http://www.w3.org/1999/xlink" width="336.858337" height="244.474996" viewBox="0 0 336.858337 244.474996" version="1.1">
<g id="surface1">
<path style=" stroke:none;fill-rule:nonzero;fill:rgb(100%,100%,100%);fill-opacity:1;" d="M 0 244.476562 L 336.859375 244.476562 L 336.859375 0 L 0 0 Z M 0 244.476562 "/>
<path style=" stroke:none;fill-rule:nonzero;fill:rgb(100%,100%,100%);fill-opacity:1;" d="M 66.859375 194.398438 L 327.257812 194.398438 L 327.257812 9.601562 L 66.859375 9.601562 Z M 66.859375 194.398438 "/>
<path style="fill:none;stroke-width:0.8;stroke-linecap:butt;stroke-linejoin:round;stroke:rgb(0%,0%,0%);stroke-opacity:1;stroke-miterlimit:4;" d="M 0.000461578 -0.00117493 L 0.000461578 3.499802 " transform="matrix(1.333333,0,0,1.333333,78.694697,194.400004)"/>
<path style=" stroke:none;fill-rule:nonzero;fill:rgb(0%,0%,0%);fill-opacity:1;" d="M 78.691406 205.011719 C 78.015625 205.011719 77.503906 205.34375 77.164062 206.011719 C 76.824219 206.675781 76.652344 207.675781 76.652344 209.015625 C 76.652344 210.347656 76.824219 211.347656 77.164062 212.011719 C 77.503906 212.679688 78.015625 213.011719 78.691406 213.011719 C 79.371094 213.011719 79.882812 212.679688 80.222656 212.011719 C 80.566406 211.347656 80.738281 210.347656 80.738281 209.015625 C 80.738281 207.675781 80.566406 206.675781 80.222656 206.011719 C 79.882812 205.34375 79.371094 205.011719 78.691406 205.011719 Z M 78.691406 203.96875 C 79.78125 203.96875 80.613281 204.398438 81.1875 205.261719 C 81.761719 206.125 82.050781 207.375 82.050781 209.015625 C 82.050781 210.652344 81.761719 211.898438 81.1875 212.761719 C 80.613281 213.625 79.78125 214.054688 78.691406 214.054688 C 77.601562 214.054688 76.769531 213.625 76.195312 212.761719 C 75.621094 211.898438 75.332031 210.652344 75.332031 209.015625 C 75.332031 207.375 75.621094 206.125 76.195312 205.261719 C 76.769531 204.398438 77.601562 203.96875 78.691406 203.96875 Z M 78.691406 203.96875 "/>
<path style="fill:none;stroke-width:0.8;stroke-linecap:butt;stroke-linejoin:round;stroke:rgb(0%,0%,0%);stroke-opacity:1;stroke-miterlimit:4;" d="M 0.00063324 -0.00117493 L 0.00063324 3.499802 " transform="matrix(1.333333,0,0,1.333333,140.991343,194.400004)"/>
<path style=" stroke:none;fill-rule:nonzero;fill:rgb(0%,0%,0%);fill-opacity:1;" d="M 138.1875 204.144531 L 143.351562 204.144531 L 143.351562 205.253906 L 139.394531 205.253906 L 139.394531 207.632812 C 139.582031 207.566406 139.773438 207.519531 139.964844 207.488281 C 140.15625 207.457031 140.347656 207.441406 140.539062 207.441406 C 141.625 207.441406 142.484375 207.738281 143.117188 208.332031 C 143.75 208.925781 144.070312 209.730469 144.070312 210.746094 C 144.070312 211.792969 143.742188 212.605469 143.089844 213.183594 C 142.441406 213.765625 141.523438 214.054688 140.335938 214.054688 C 139.929688 214.054688 139.511719 214.019531 139.089844 213.949219 C 138.667969 213.878906 138.230469 213.777344 137.777344 213.636719 L 137.777344 212.316406 C 138.167969 212.527344 138.574219 212.683594 138.988281 212.789062 C 139.40625 212.894531 139.847656 212.945312 140.308594 212.945312 C 141.0625 212.945312 141.65625 212.75 142.09375 212.355469 C 142.53125 211.960938 142.75 211.421875 142.75 210.746094 C 142.75 210.070312 142.53125 209.535156 142.09375 209.140625 C 141.65625 208.742188 141.0625 208.546875 140.308594 208.546875 C 139.957031 208.546875 139.609375 208.585938 139.257812 208.664062 C 138.910156 208.742188 138.554688 208.863281 138.1875 209.027344 Z M 138.1875 204.144531 "/>
<path style="fill:none;stroke-width:0.8;stroke-linecap:butt;stroke-linejoin:round;stroke:rgb(0%,0%,0%);stroke-opacity:1;stroke-miterlimit:4;" d="M 0.000793457 -0.00117493 L 0.000793457 3.499802 " transform="matrix(1.333333,0,0,1.333333,203.288005,194.400004)"/>
<path style=" stroke:none;fill-rule:nonzero;fill:rgb(0%,0%,0%);fill-opacity:1;" d="M 196.457031 212.757812 L 198.605469 212.757812 L 198.605469 205.339844 L 196.269531 205.808594 L 196.269531 204.613281 L 198.59375 204.144531 L 199.910156 204.144531 L 199.910156 212.757812 L 202.058594 212.757812 L 202.058594 213.863281 L 196.457031 213.863281 Z M 196.457031 212.757812 "/>
<path style=" stroke:none;fill-rule:nonzero;fill:rgb(0%,0%,0%);fill-opacity:1;" d="M 207.523438 205.011719 C 206.847656 205.011719 206.339844 205.34375 206 206.011719 C 205.65625 206.675781 205.488281 207.675781 205.488281 209.015625 C 205.488281 210.347656 205.65625 211.347656 206 212.011719 C 206.339844 212.679688 206.847656 213.011719 207.523438 213.011719 C 208.207031 213.011719 208.71875 212.679688 209.058594 212.011719 C 209.398438 211.347656 209.570312 210.347656 209.570312 209.015625 C 209.570312 207.675781 209.398438 206.675781 209.058594 206.011719 C 208.71875 205.34375 208.207031 205.011719 207.523438 205.011719 Z M 207.523438 203.96875 C 208.617188 203.96875 209.449219 204.398438 210.023438 205.261719 C 210.597656 206.125 210.886719 207.375 210.886719 209.015625 C 210.886719 210.652344 210.597656 211.898438 210.023438 212.761719 C 209.449219 213.625 208.617188 214.054688 207.523438 214.054688 C 206.4375 214.054688 205.605469 213.625 205.03125 212.761719 C 204.453125 211.898438 204.167969 210.652344 204.167969 209.015625 C 204.167969 207.375 204.453125 206.125 205.03125 205.261719 C 205.605469 204.398438 206.4375 203.96875 207.523438 203.96875 Z M 207.523438 203.96875 "/>
<path style="fill:none;stroke-width:0.8;stroke-linecap:butt;stroke-linejoin:round;stroke:rgb(0%,0%,0%);stroke-opacity:1;stroke-miterlimit:4;" d="M 0.000961304 -0.00117493 L 0.000961304 3.499802 " transform="matrix(1.333333,0,0,1.333333,265.584656,194.400004)"/>
<path style=" stroke:none;fill-rule:nonzero;fill:rgb(0%,0%,0%);fill-opacity:1;" d="M 258.753906 212.757812 L 260.902344 212.757812 L 260.902344 205.339844 L 258.566406 205.808594 L 258.566406 204.613281 L 260.890625 204.144531 L 262.207031 204.144531 L 262.207031 212.757812 L 264.351562 212.757812 L 264.351562 213.863281 L 258.753906 213.863281 Z M 258.753906 212.757812 "/>
<path style=" stroke:none;fill-rule:nonzero;fill:rgb(0%,0%,0%);fill-opacity:1;" d="M 267.023438 204.144531 L 272.1875 204.144531 L 272.1875 205.253906 L 268.226562 205.253906 L 268.226562 207.632812 C 268.417969 207.566406 268.609375 207.519531 268.800781 207.488281 C 268.992188 207.457031 269.183594 207.441406 269.375 207.441406 C 270.457031 207.441406 271.316406 207.738281 271.949219 208.332031 C 272.585938 208.925781 272.902344 209.730469 272.902344 210.746094 C 272.902344 211.792969 272.578125 212.605469 271.925781 213.183594 C 271.273438 213.765625 270.355469 214.054688 269.171875 214.054688 C 268.761719 214.054688 268.347656 214.019531 267.925781 213.949219 C 267.5 213.878906 267.066406 213.777344 266.613281 213.636719 L 266.613281 212.316406 C 267.003906 212.527344 267.40625 212.683594 267.824219 212.789062 C 268.242188 212.894531 268.679688 212.945312 269.144531 212.945312 C 269.894531 212.945312 270.492188 212.75 270.929688 212.355469 C 271.367188 211.960938 271.585938 211.421875 271.585938 210.746094 C 271.585938 210.070312 271.367188 209.535156 270.929688 209.140625 C 270.492188 208.742188 269.894531 208.546875 269.144531 208.546875 C 268.792969 208.546875 268.441406 208.585938 268.09375 208.664062 C 267.742188 208.742188 267.386719 208.863281 267.023438 209.027344 Z M 267.023438 204.144531 "/>
<path style=" stroke:none;fill-rule:nonzero;fill:rgb(0%,0%,0%);fill-opacity:1;" d="M 200.429688 224.808594 L 197.792969 228.359375 L 200.566406 232.101562 L 199.152344 232.101562 L 197.03125 229.238281 L 194.910156 232.101562 L 193.496094 232.101562 L 196.328125 228.289062 L 193.738281 224.808594 L 195.148438 224.808594 L 197.082031 227.410156 L 199.015625 224.808594 Z M 200.429688 224.808594 "/>
<path style="fill:none;stroke-width:0.8;stroke-linecap:butt;stroke-linejoin:round;stroke:rgb(0%,0%,0%);stroke-opacity:1;stroke-miterlimit:4;" d="M 0.000782013 0 L -3.500195 0 " transform="matrix(1.333333,0,0,1.333333,66.858332,186)"/>
<path style=" stroke:none;fill-rule:nonzero;fill:rgb(0%,0%,0%);fill-opacity:1;" d="M 32.074219 182.210938 C 31.398438 182.210938 30.890625 182.542969 30.546875 183.210938 C 30.207031 183.875 30.039062 184.878906 30.039062 186.214844 C 30.039062 187.546875 30.207031 188.546875 30.546875 189.214844 C 30.890625 189.878906 31.398438 190.214844 32.074219 190.214844 C 32.757812 190.214844 33.269531 189.878906 33.609375 189.214844 C 33.949219 188.546875 34.121094 187.546875 34.121094 186.214844 C 34.121094 184.878906 33.949219 183.875 33.609375 183.210938 C 33.269531 182.542969 32.757812 182.210938 32.074219 182.210938 Z M 32.074219 181.167969 C 33.164062 181.167969 33.996094 181.601562 34.574219 182.464844 C 35.148438 183.324219 35.433594 184.574219 35.433594 186.214844 C 35.433594 187.851562 35.148438 189.101562 34.574219 189.964844 C 33.996094 190.824219 33.164062 191.253906 32.074219 191.253906 C 30.984375 191.253906 30.152344 190.824219 29.578125 189.964844 C 29.003906 189.101562 28.714844 187.851562 28.714844 186.214844 C 28.714844 184.574219 29.003906 183.324219 29.578125 182.464844 C 30.152344 181.601562 30.984375 181.167969 32.074219 181.167969 Z M 32.074219 181.167969 "/>
<path style=" stroke:none;fill-rule:nonzero;fill:rgb(0%,0%,0%);fill-opacity:1;" d="M 37.746094 189.410156 L 39.121094 189.410156 L 39.121094 191.066406 L 37.746094 191.066406 Z M 37.746094 189.410156 "/>
<path style=" stroke:none;fill-rule:nonzero;fill:rgb(0%,0%,0%);fill-opacity:1;" d="M 44.796875 182.210938 C 44.121094 182.210938 43.609375 182.542969 43.269531 183.210938 C 42.929688 183.875 42.757812 184.878906 42.757812 186.214844 C 42.757812 187.546875 42.929688 188.546875 43.269531 189.214844 C 43.609375 189.878906 44.121094 190.214844 44.796875 190.214844 C 45.476562 190.214844 45.988281 189.878906 46.328125 189.214844 C 46.671875 188.546875 46.84375 187.546875 46.84375 186.214844 C 46.84375 184.878906 46.671875 183.875 46.328125 183.210938 C 45.988281 182.542969 45.476562 182.210938 44.796875 182.210938 Z M 44.796875 181.167969 C 45.886719 181.167969 46.71875 181.601562 47.292969 182.464844 C 47.871094 183.324219 48.15625 184.574219 48.15625 186.214844 C 48.15625 187.851562 47.871094 189.101562 47.292969 189.964844 C 46.71875 190.824219 45.886719 191.253906 44.796875 191.253906 C 43.707031 191.253906 42.875 190.824219 42.300781 189.964844 C 41.726562 189.101562 41.4375 187.851562 41.4375 186.214844 C 41.4375 184.574219 41.726562 183.324219 42.300781 182.464844 C 42.875 181.601562 43.707031 181.167969 44.796875 181.167969 Z M 44.796875 181.167969 "/>
<path style=" stroke:none;fill-rule:nonzero;fill:rgb(0%,0%,0%);fill-opacity:1;" d="M 53.28125 182.210938 C 52.601562 182.210938 52.09375 182.542969 51.753906 183.210938 C 51.410156 183.875 51.242188 184.878906 51.242188 186.214844 C 51.242188 187.546875 51.410156 188.546875 51.753906 189.214844 C 52.09375 189.878906 52.601562 190.214844 53.28125 190.214844 C 53.960938 190.214844 54.472656 189.878906 54.8125 189.214844 C 55.15625 188.546875 55.324219 187.546875 55.324219 186.214844 C 55.324219 184.878906 55.15625 183.875 54.8125 183.210938 C 54.472656 182.542969 53.960938 182.210938 53.28125 182.210938 Z M 53.28125 181.167969 C 54.371094 181.167969 55.203125 181.601562 55.777344 182.464844 C 56.351562 183.324219 56.640625 184.574219 56.640625 186.214844 C 56.640625 187.851562 56.351562 189.101562 55.777344 189.964844 C 55.203125 190.824219 54.371094 191.253906 53.28125 191.253906 C 52.191406 191.253906 51.359375 190.824219 50.785156 189.964844 C 50.207031 189.101562 49.921875 187.851562 49.921875 186.214844 C 49.921875 184.574219 50.207031 183.324219 50.785156 182.464844 C 51.359375 181.601562 52.191406 181.167969 53.28125 181.167969 Z M 53.28125 181.167969 "/>
<path style="fill:none;stroke-width:0.8;stroke-linecap:butt;stroke-linejoin:round;stroke:rgb(0%,0%,0%);stroke-opacity:1;stroke-miterlimit:4;" d="M 0.000782013 0.000793457 L -3.500195 0.000793457 " transform="matrix(1.333333,0,0,1.333333,66.858332,138.127848)"/>
<path style=" stroke:none;fill-rule:nonzero;fill:rgb(0%,0%,0%);fill-opacity:1;" d="M 32.074219 134.339844 C 31.398438 134.339844 30.890625 134.671875 30.546875 135.339844 C 30.207031 136.003906 30.039062 137.007812 30.039062 138.34375 C 30.039062 139.675781 30.207031 140.675781 30.546875 141.339844 C 30.890625 142.007812 31.398438 142.339844 32.074219 142.339844 C 32.757812 142.339844 33.269531 142.007812 33.609375 141.339844 C 33.949219 140.675781 34.121094 139.675781 34.121094 138.34375 C 34.121094 137.007812 33.949219 136.003906 33.609375 135.339844 C 33.269531 134.671875 32.757812 134.339844 32.074219 134.339844 Z M 32.074219 133.296875 C 33.164062 133.296875 33.996094 133.730469 34.574219 134.589844 C 35.148438 135.453125 35.433594 136.703125 35.433594 138.34375 C 35.433594 139.980469 35.148438 141.230469 34.574219 142.089844 C 33.996094 142.953125 33.164062 143.382812 32.074219 143.382812 C 30.984375 143.382812 30.152344 142.953125 29.578125 142.089844 C 29.003906 141.230469 28.714844 139.980469 28.714844 138.34375 C 28.714844 136.703125 29.003906 135.453125 29.578125 134.589844 C 30.152344 133.730469 30.984375 133.296875 32.074219 133.296875 Z M 32.074219 133.296875 "/>
<path style=" stroke:none;fill-rule:nonzero;fill:rgb(0%,0%,0%);fill-opacity:1;" d="M 37.746094 141.539062 L 39.121094 141.539062 L 39.121094 143.195312 L 37.746094 143.195312 Z M 37.746094 141.539062 "/>
<path style=" stroke:none;fill-rule:nonzero;fill:rgb(0%,0%,0%);fill-opacity:1;" d="M 44.796875 134.339844 C 44.121094 134.339844 43.609375 134.671875 43.269531 135.339844 C 42.929688 136.003906 42.757812 137.007812 42.757812 138.34375 C 42.757812 139.675781 42.929688 140.675781 43.269531 141.339844 C 43.609375 142.007812 44.121094 142.339844 44.796875 142.339844 C 45.476562 142.339844 45.988281 142.007812 46.328125 141.339844 C 46.671875 140.675781 46.84375 139.675781 46.84375 138.34375 C 46.84375 137.007812 46.671875 136.003906 46.328125 135.339844 C 45.988281 134.671875 45.476562 134.339844 44.796875 134.339844 Z M 44.796875 133.296875 C 45.886719 133.296875 46.71875 133.730469 47.292969 134.589844 C 47.871094 135.453125 48.15625 136.703125 48.15625 138.34375 C 48.15625 139.980469 47.871094 141.230469 47.292969 142.089844 C 46.71875 142.953125 45.886719 143.382812 44.796875 143.382812 C 43.707031 143.382812 42.875 142.953125 42.300781 142.089844 C 41.726562 141.230469 41.4375 139.980469 41.4375 138.34375 C 41.4375 136.703125 41.726562 135.453125 42.300781 134.589844 C 42.875 133.730469 43.707031 133.296875 44.796875 133.296875 Z M 44.796875 133.296875 "/>
<path style=" stroke:none;fill-rule:nonzero;fill:rgb(0%,0%,0%);fill-opacity:1;" d="M 50.480469 133.472656 L 55.644531 133.472656 L 55.644531 134.582031 L 51.6875 134.582031 L 51.6875 136.960938 C 51.875 136.898438 52.066406 136.847656 52.257812 136.816406 C 52.449219 136.785156 52.640625 136.769531 52.832031 136.769531 C 53.917969 136.769531 54.773438 137.066406 55.410156 137.660156 C 56.042969 138.253906 56.359375 139.058594 56.359375 140.074219 C 56.359375 141.121094 56.035156 141.933594 55.382812 142.515625 C 54.730469 143.09375 53.8125 143.382812 52.628906 143.382812 C 52.222656 143.382812 51.804688 143.347656 51.382812 143.277344 C 50.960938 143.210938 50.523438 143.105469 50.070312 142.964844 L 50.070312 141.644531 C 50.460938 141.855469 50.863281 142.015625 51.28125 142.117188 C 51.699219 142.222656 52.136719 142.273438 52.601562 142.273438 C 53.355469 142.273438 53.949219 142.078125 54.386719 141.683594 C 54.824219 141.289062 55.042969 140.753906 55.042969 140.074219 C 55.042969 139.398438 54.824219 138.863281 54.386719 138.46875 C 53.949219 138.074219 53.355469 137.875 52.601562 137.875 C 52.25 137.875 51.898438 137.914062 51.550781 137.992188 C 51.203125 138.070312 50.84375 138.191406 50.480469 138.355469 Z M 50.480469 133.472656 "/>
<path style="fill:none;stroke-width:0.8;stroke-linecap:butt;stroke-linejoin:round;stroke:rgb(0%,0%,0%);stroke-opacity:1;stroke-miterlimit:4;" d="M 0.000782013 -0.0013504 L -3.500195 -0.0013504 " transform="matrix(1.333333,0,0,1.333333,66.858332,90.255707)"/>
<path style=" stroke:none;fill-rule:nonzero;fill:rgb(0%,0%,0%);fill-opacity:1;" d="M 32.074219 86.46875 C 31.398438 86.46875 30.890625 86.800781 30.546875 87.46875 C 30.207031 88.132812 30.039062 89.132812 30.039062 90.472656 C 30.039062 91.804688 30.207031 92.800781 30.546875 93.46875 C 30.890625 94.136719 31.398438 94.46875 32.074219 94.46875 C 32.757812 94.46875 33.269531 94.136719 33.609375 93.46875 C 33.949219 92.800781 34.121094 91.804688 34.121094 90.472656 C 34.121094 89.132812 33.949219 88.132812 33.609375 87.46875 C 33.269531 86.800781 32.757812 86.46875 32.074219 86.46875 Z M 32.074219 85.425781 C 33.164062 85.425781 33.996094 85.855469 34.574219 86.71875 C 35.148438 87.582031 35.433594 88.832031 35.433594 90.472656 C 35.433594 92.109375 35.148438 93.355469 34.574219 94.21875 C 33.996094 95.082031 33.164062 95.511719 32.074219 95.511719 C 30.984375 95.511719 30.152344 95.082031 29.578125 94.21875 C 29.003906 93.355469 28.714844 92.109375 28.714844 90.472656 C 28.714844 88.832031 29.003906 87.582031 29.578125 86.71875 C 30.152344 85.855469 30.984375 85.425781 32.074219 85.425781 Z M 32.074219 85.425781 "/>
<path style=" stroke:none;fill-rule:nonzero;fill:rgb(0%,0%,0%);fill-opacity:1;" d="M 37.746094 93.667969 L 39.121094 93.667969 L 39.121094 95.320312 L 37.746094 95.320312 Z M 37.746094 93.667969 "/>
<path style=" stroke:none;fill-rule:nonzero;fill:rgb(0%,0%,0%);fill-opacity:1;" d="M 42.214844 94.214844 L 44.359375 94.214844 L 44.359375 86.796875 L 42.023438 87.265625 L 42.023438 86.070312 L 44.347656 85.601562 L 45.664062 85.601562 L 45.664062 94.214844 L 47.8125 94.214844 L 47.8125 95.320312 L 42.214844 95.320312 Z M 42.214844 94.214844 "/>
<path style=" stroke:none;fill-rule:nonzero;fill:rgb(0%,0%,0%);fill-opacity:1;" d="M 53.28125 86.46875 C 52.601562 86.46875 52.09375 86.800781 51.753906 87.46875 C 51.410156 88.132812 51.242188 89.132812 51.242188 90.472656 C 51.242188 91.804688 51.410156 92.800781 51.753906 93.46875 C 52.09375 94.136719 52.601562 94.46875 53.28125 94.46875 C 53.960938 94.46875 54.472656 94.136719 54.8125 93.46875 C 55.15625 92.800781 55.324219 91.804688 55.324219 90.472656 C 55.324219 89.132812 55.15625 88.132812 54.8125 87.46875 C 54.472656 86.800781 53.960938 86.46875 53.28125 86.46875 Z M 53.28125 85.425781 C 54.371094 85.425781 55.203125 85.855469 55.777344 86.71875 C 56.351562 87.582031 56.640625 88.832031 56.640625 90.472656 C 56.640625 92.109375 56.351562 93.355469 55.777344 94.21875 C 55.203125 95.082031 54.371094 95.511719 53.28125 95.511719 C 52.191406 95.511719 51.359375 95.082031 50.785156 94.21875 C 50.207031 93.355469 49.921875 92.109375 49.921875 90.472656 C 49.921875 88.832031 50.207031 87.582031 50.785156 86.71875 C 51.359375 85.855469 52.191406 85.425781 53.28125 85.425781 Z M 53.28125 85.425781 "/>
<path style="fill:none;stroke-width:0.8;stroke-linecap:butt;stroke-linejoin:round;stroke:rgb(0%,0%,0%);stroke-opacity:1;stroke-miterlimit:4;" d="M 0.000782013 -0.000556946 L -3.500195 -0.000556946 " transform="matrix(1.333333,0,0,1.333333,66.858332,42.383555)"/>
<path style=" stroke:none;fill-rule:nonzero;fill:rgb(0%,0%,0%);fill-opacity:1;" d="M 32.074219 38.59375 C 31.398438 38.59375 30.890625 38.929688 30.546875 39.59375 C 30.207031 40.261719 30.039062 41.261719 30.039062 42.597656 C 30.039062 43.929688 30.207031 44.929688 30.546875 45.597656 C 30.890625 46.265625 31.398438 46.597656 32.074219 46.597656 C 32.757812 46.597656 33.269531 46.265625 33.609375 45.597656 C 33.949219 44.929688 34.121094 43.929688 34.121094 42.597656 C 34.121094 41.261719 33.949219 40.261719 33.609375 39.59375 C 33.269531 38.929688 32.757812 38.59375 32.074219 38.59375 Z M 32.074219 37.554688 C 33.164062 37.554688 33.996094 37.984375 34.574219 38.847656 C 35.148438 39.707031 35.433594 40.957031 35.433594 42.597656 C 35.433594 44.234375 35.148438 45.484375 34.574219 46.347656 C 33.996094 47.207031 33.164062 47.640625 32.074219 47.640625 C 30.984375 47.640625 30.152344 47.207031 29.578125 46.347656 C 29.003906 45.484375 28.714844 44.234375 28.714844 42.597656 C 28.714844 40.957031 29.003906 39.707031 29.578125 38.847656 C 30.152344 37.984375 30.984375 37.554688 32.074219 37.554688 Z M 32.074219 37.554688 "/>
<path style=" stroke:none;fill-rule:nonzero;fill:rgb(0%,0%,0%);fill-opacity:1;" d="M 37.746094 45.796875 L 39.121094 45.796875 L 39.121094 47.449219 L 37.746094 47.449219 Z M 37.746094 45.796875 "/>
<path style=" stroke:none;fill-rule:nonzero;fill:rgb(0%,0%,0%);fill-opacity:1;" d="M 42.214844 46.34375 L 44.359375 46.34375 L 44.359375 38.925781 L 42.023438 39.394531 L 42.023438 38.195312 L 44.347656 37.726562 L 45.664062 37.726562 L 45.664062 46.34375 L 47.8125 46.34375 L 47.8125 47.449219 L 42.214844 47.449219 Z M 42.214844 46.34375 "/>
<path style=" stroke:none;fill-rule:nonzero;fill:rgb(0%,0%,0%);fill-opacity:1;" d="M 50.480469 37.726562 L 55.644531 37.726562 L 55.644531 38.835938 L 51.6875 38.835938 L 51.6875 41.21875 C 51.875 41.152344 52.066406 41.105469 52.257812 41.070312 C 52.449219 41.039062 52.640625 41.023438 52.832031 41.023438 C 53.917969 41.023438 54.773438 41.320312 55.410156 41.914062 C 56.042969 42.511719 56.359375 43.316406 56.359375 44.332031 C 56.359375 45.375 56.035156 46.191406 55.382812 46.769531 C 54.730469 47.347656 53.8125 47.640625 52.628906 47.640625 C 52.222656 47.640625 51.804688 47.605469 51.382812 47.535156 C 50.960938 47.464844 50.523438 47.359375 50.070312 47.222656 L 50.070312 45.898438 C 50.460938 46.113281 50.863281 46.269531 51.28125 46.375 C 51.699219 46.476562 52.136719 46.53125 52.601562 46.53125 C 53.355469 46.53125 53.949219 46.332031 54.386719 45.9375 C 54.824219 45.542969 55.042969 45.007812 55.042969 44.332031 C 55.042969 43.652344 54.824219 43.117188 54.386719 42.722656 C 53.949219 42.328125 53.355469 42.128906 52.601562 42.128906 C 52.25 42.128906 51.898438 42.167969 51.550781 42.246094 C 51.203125 42.324219 50.84375 42.445312 50.480469 42.613281 Z M 50.480469 37.726562 "/>
<path style=" stroke:none;fill-rule:nonzero;fill:rgb(0%,0%,0%);fill-opacity:1;" d="M 18.636719 118.53125 L 22.503906 118.53125 L 22.503906 119.734375 L 12.441406 119.734375 L 12.441406 118.53125 L 13.546875 118.53125 C 13.113281 118.277344 12.789062 117.960938 12.582031 117.578125 C 12.371094 117.191406 12.265625 116.734375 12.265625 116.199219 C 12.265625 115.3125 12.617188 114.59375 13.320312 114.042969 C 14.023438 113.488281 14.945312 113.210938 16.089844 113.210938 C 17.238281 113.210938 18.164062 113.488281 18.867188 114.042969 C 19.570312 114.59375 19.921875 115.3125 19.921875 116.199219 C 19.921875 116.734375 19.816406 117.191406 19.605469 117.578125 C 19.394531 117.960938 19.070312 118.277344 18.636719 118.53125 Z M 16.089844 114.453125 C 15.210938 114.453125 14.519531 114.636719 14.019531 114.996094 C 13.515625 115.359375 13.265625 115.859375 13.265625 116.492188 C 13.265625 117.125 13.515625 117.625 14.019531 117.988281 C 14.519531 118.351562 15.210938 118.53125 16.089844 118.53125 C 16.972656 118.53125 17.664062 118.351562 18.164062 117.988281 C 18.664062 117.625 18.917969 117.125 18.917969 116.492188 C 18.917969 115.859375 18.664062 115.359375 18.164062 114.996094 C 17.664062 114.636719 16.972656 114.453125 16.089844 114.453125 Z M 16.089844 114.453125 "/>
<path style=" stroke:none;fill-rule:nonzero;fill:rgb(0%,0%,0%);fill-opacity:1;" d="M 18.078125 111.058594 L 18.078125 109.683594 L 19.730469 109.683594 L 19.730469 111.058594 Z M 18.078125 111.058594 "/>
<path style=" stroke:none;fill-rule:nonzero;fill:rgb(0%,0%,0%);fill-opacity:1;" d="M 13.839844 101.3125 C 13.300781 101.011719 12.902344 100.652344 12.648438 100.234375 C 12.390625 99.820312 12.265625 99.328125 12.265625 98.765625 C 12.265625 98.003906 12.53125 97.417969 13.0625 97.007812 C 13.59375 96.59375 14.347656 96.386719 15.328125 96.386719 L 19.730469 96.386719 L 19.730469 97.59375 L 15.367188 97.59375 C 14.671875 97.59375 14.152344 97.714844 13.816406 97.964844 C 13.476562 98.210938 13.304688 98.589844 13.304688 99.097656 C 13.304688 99.71875 13.511719 100.207031 13.925781 100.570312 C 14.335938 100.929688 14.898438 101.109375 15.609375 101.109375 L 19.730469 101.109375 L 19.730469 102.3125 L 15.367188 102.3125 C 14.664062 102.3125 14.148438 102.4375 13.808594 102.683594 C 13.472656 102.929688 13.304688 103.3125 13.304688 103.828125 C 13.304688 104.441406 13.511719 104.929688 13.925781 105.289062 C 14.339844 105.648438 14.902344 105.828125 15.609375 105.828125 L 19.730469 105.828125 L 19.730469 107.035156 L 12.441406 107.035156 L 12.441406 105.828125 L 13.574219 105.828125 C 13.125 105.554688 12.796875 105.226562 12.582031 104.847656 C 12.371094 104.464844 12.265625 104.011719 12.265625 103.484375 C 12.265625 102.957031 12.398438 102.503906 12.667969 102.132812 C 12.9375 101.761719 13.328125 101.488281 13.839844 101.3125 Z M 13.839844 101.3125 "/>
<path style=" stroke:none;fill-rule:nonzero;fill:rgb(0%,0%,0%);fill-opacity:1;" d="M 18.078125 93.832031 L 18.078125 92.457031 L 19.730469 92.457031 L 19.730469 93.832031 Z M 18.078125 93.832031 "/>
<path style=" stroke:none;fill-rule:nonzero;fill:rgb(0%,0%,0%);fill-opacity:1;" d="M 9.601562 86.070312 L 10.597656 86.070312 L 10.597656 87.214844 C 10.597656 87.644531 10.683594 87.941406 10.859375 88.109375 C 11.03125 88.277344 11.34375 88.359375 11.796875 88.359375 L 12.441406 88.359375 L 12.441406 86.386719 L 13.371094 86.386719 L 13.371094 88.359375 L 19.730469 88.359375 L 19.730469 89.566406 L 13.371094 89.566406 L 13.371094 90.710938 L 12.441406 90.710938 L 12.441406 89.566406 L 11.929688 89.566406 C 11.121094 89.566406 10.527344 89.375 10.160156 89 C 9.785156 88.621094 9.601562 88.023438 9.601562 87.203125 Z M 9.601562 86.070312 "/>
<path style=" stroke:none;fill-rule:nonzero;fill:rgb(0%,0%,0%);fill-opacity:1;" d="M 18.078125 85.863281 L 18.078125 84.488281 L 19.730469 84.488281 L 19.730469 85.863281 Z M 18.078125 85.863281 "/>
<path style="fill:none;stroke-width:1.5;stroke-linecap:butt;stroke-linejoin:round;stroke:rgb(12.156863%,46.666667%,70.588237%);stroke-opacity:1;stroke-miterlimit:4;" d="M 59.021484 139.5 L 59.021484 134.660156 " transform="matrix(1.333333,0,0,1.333333,0,0.000000000000014211)"/>
<path style="fill:none;stroke-width:1.5;stroke-linecap:butt;stroke-linejoin:round;stroke:rgb(12.156863%,46.666667%,70.588237%);stroke-opacity:1;stroke-miterlimit:4;" d="M 68.364258 139.5 L 68.364258 115.306641 " transform="matrix(1.333333,0,0,1.333333,0,0.000000000000014211)"/>
<path style="fill:none;stroke-width:1.5;stroke-linecap:butt;stroke-linejoin:round;stroke:rgb(12.156863%,46.666667%,70.588237%);stroke-opacity:1;stroke-miterlimit:4;" d="M 77.709961 139.5 L 77.709961 79.019531 " transform="matrix(1.333333,0,0,1.333333,0,0.000000000000014211)"/>
<path style="fill:none;stroke-width:1.5;stroke-linecap:butt;stroke-linejoin:round;stroke:rgb(12.156863%,46.666667%,70.588237%);stroke-opacity:1;stroke-miterlimit:4;" d="M 87.055664 139.5 L 87.055664 38.701172 " transform="matrix(1.333333,0,0,1.333333,0,0.000000000000014211)"/>
<path style="fill:none;stroke-width:1.5;stroke-linecap:butt;stroke-linejoin:round;stroke:rgb(12.156863%,46.666667%,70.588237%);stroke-opacity:1;stroke-miterlimit:4;" d="M 96.398438 139.5 L 96.398438 13.5 " transform="matrix(1.333333,0,0,1.333333,0,0.000000000000014211)"/>
<path style="fill:none;stroke-width:1.5;stroke-linecap:butt;stroke-linejoin:round;stroke:rgb(12.156863%,46.666667%,70.588237%);stroke-opacity:1;stroke-miterlimit:4;" d="M 105.744141 139.5 L 105.744141 13.5 " transform="matrix(1.333333,0,0,1.333333,0,0.000000000000014211)"/>
<path style="fill:none;stroke-width:1.5;stroke-linecap:butt;stroke-linejoin:round;stroke:rgb(12.156863%,46.666667%,70.588237%);stroke-opacity:1;stroke-miterlimit:4;" d="M 115.086914 139.5 L 115.086914 34.5 " transform="matrix(1.333333,0,0,1.333333,0,0.000000000000014211)"/>
<path style="fill:none;stroke-width:1.5;stroke-linecap:butt;stroke-linejoin:round;stroke:rgb(12.156863%,46.666667%,70.588237%);stroke-opacity:1;stroke-miterlimit:4;" d="M 124.432617 139.5 L 124.432617 64.5 " transform="matrix(1.333333,0,0,1.333333,0,0.000000000000014211)"/>
<path style="fill:none;stroke-width:1.5;stroke-linecap:butt;stroke-linejoin:round;stroke:rgb(12.156863%,46.666667%,70.588237%);stroke-opacity:1;stroke-miterlimit:4;" d="M 133.77832 139.5 L 133.77832 92.625 " transform="matrix(1.333333,0,0,1.333333,0,0.000000000000014211)"/>
<path style="fill:none;stroke-width:1.5;stroke-linecap:butt;stroke-linejoin:round;stroke:rgb(12.156863%,46.666667%,70.588237%);stroke-opacity:1;stroke-miterlimit:4;" d="M 143.121094 139.5 L 143.121094 113.458008 " transform="matrix(1.333333,0,0,1.333333,0,0.000000000000014211)"/>
<path style="fill:none;stroke-width:1.5;stroke-linecap:butt;stroke-linejoin:round;stroke:rgb(12.156863%,46.666667%,70.588237%);stroke-opacity:1;stroke-miterlimit:4;" d="M 152.466797 139.5 L 152.466797 126.480469 " transform="matrix(1.333333,0,0,1.333333,0,0.000000000000014211)"/>
<path style="fill:none;stroke-width:1.5;stroke-linecap:butt;stroke-linejoin:round;stroke:rgb(12.156863%,46.666667%,70.588237%);stroke-opacity:1;stroke-miterlimit:4;" d="M 161.80957 139.5 L 161.80957 133.582031 " transform="matrix(1.333333,0,0,1.333333,0,0.000000000000014211)"/>
<path style="fill:none;stroke-width:1.5;stroke-linecap:butt;stroke-linejoin:round;stroke:rgb(12.156863%,46.666667%,70.588237%);stroke-opacity:1;stroke-miterlimit:4;" d="M 171.155273 139.5 L 171.155273 137.033203 " transform="matrix(1.333333,0,0,1.333333,0,0.000000000000014211)"/>
<path style="fill:none;stroke-width:1.5;stroke-linecap:butt;stroke-linejoin:round;stroke:rgb(12.156863%,46.666667%,70.588237%);stroke-opacity:1;stroke-miterlimit:4;" d="M 180.498047 139.5 L 180.498047 138.550781 " transform="matrix(1.333333,0,0,1.333333,0,0.000000000000014211)"/>
<path style="fill:none;stroke-width:1.5;stroke-linecap:butt;stroke-linejoin:round;stroke:rgb(12.156863%,46.666667%,70.588237%);stroke-opacity:1;stroke-miterlimit:4;" d="M 189.84375 139.5 L 189.84375 139.160156 " transform="matrix(1.333333,0,0,1.333333,0,0.000000000000014211)"/>
<path style="fill:none;stroke-width:1.5;stroke-linecap:butt;stroke-linejoin:round;stroke:rgb(12.156863%,46.666667%,70.588237%);stroke-opacity:1;stroke-miterlimit:4;" d="M 199.189453 139.5 L 199.189453 139.385742 " transform="matrix(1.333333,0,0,1.333333,0,0.000000000000014211)"/>
<path style="fill:none;stroke-width:1.5;stroke-linecap:butt;stroke-linejoin:round;stroke:rgb(12.156863%,46.666667%,70.588237%);stroke-opacity:1;stroke-miterlimit:4;" d="M 208.532227 139.5 L 208.532227 139.464844 " transform="matrix(1.333333,0,0,1.333333,0,0.000000000000014211)"/>
<path style="fill:none;stroke-width:1.5;stroke-linecap:butt;stroke-linejoin:round;stroke:rgb(12.156863%,46.666667%,70.588237%);stroke-opacity:1;stroke-miterlimit:4;" d="M 217.87793 139.5 L 217.87793 139.488281 " transform="matrix(1.333333,0,0,1.333333,0,0.000000000000014211)"/>
<path style="fill:none;stroke-width:1.5;stroke-linecap:butt;stroke-linejoin:round;stroke:rgb(12.156863%,46.666667%,70.588237%);stroke-opacity:1;stroke-miterlimit:4;" d="M 227.220703 139.5 L 227.220703 139.49707 " transform="matrix(1.333333,0,0,1.333333,0,0.000000000000014211)"/>
<path style="fill:none;stroke-width:1.5;stroke-linecap:butt;stroke-linejoin:round;stroke:rgb(12.156863%,46.666667%,70.588237%);stroke-opacity:1;stroke-miterlimit:4;" d="M 236.566406 139.5 L 236.566406 139.5 " transform="matrix(1.333333,0,0,1.333333,0,0.000000000000014211)"/>
<path style="fill-rule:nonzero;fill:rgb(12.156863%,46.666667%,70.588237%);fill-opacity:1;stroke-width:1;stroke-linecap:butt;stroke-linejoin:round;stroke:rgb(12.156863%,46.666667%,70.588237%);stroke-opacity:1;stroke-miterlimit:4;" d="M 0.000461578 2.99855 C 0.794407 2.99855 1.559055 2.685074 2.121555 2.122574 C 2.684055 1.560074 3.000462 0.795425 3.000462 -0.00144958 C 3.000462 -0.795395 2.684055 -1.560043 2.121555 -2.122543 C 1.559055 -2.685043 0.794407 -3.00145 0.000461578 -3.00145 C -0.796413 -3.00145 -1.558132 -2.685043 -2.120632 -2.122543 C -2.683132 -1.560043 -2.999538 -0.795395 -2.999538 -0.00144958 C -2.999538 0.795425 -2.683132 1.560074 -2.120632 2.122574 C -1.558132 2.685074 -0.796413 2.99855 0.000461578 2.99855 Z M 0.000461578 2.99855 " transform="matrix(1.333333,0,0,1.333333,78.694697,179.548808)"/>
<path style="fill-rule:nonzero;fill:rgb(12.156863%,46.666667%,70.588237%);fill-opacity:1;stroke-width:1;stroke-linecap:butt;stroke-linejoin:round;stroke:rgb(12.156863%,46.666667%,70.588237%);stroke-opacity:1;stroke-miterlimit:4;" d="M -0.00125885 2.998642 C 0.795616 2.998642 1.557335 2.685165 2.122765 2.122665 C 2.685265 1.560165 2.998741 0.795517 2.998741 -0.00135803 C 2.998741 -0.795303 2.685265 -1.559952 2.122765 -2.122452 C 1.557335 -2.684952 0.795616 -3.001358 -0.00125885 -3.001358 C -0.795204 -3.001358 -1.559853 -2.684952 -2.122353 -2.122452 C -2.684853 -1.559952 -3.001259 -0.795303 -3.001259 -0.00135803 C -3.001259 0.795517 -2.684853 1.560165 -2.122353 2.122665 C -1.559853 2.685165 -0.795204 2.998642 -0.00125885 2.998642 Z M -0.00125885 2.998642 " transform="matrix(1.333333,0,0,1.333333,91.154022,153.743998)"/>
<path style="fill-rule:nonzero;fill:rgb(12.156863%,46.666667%,70.588237%);fill-opacity:1;stroke-width:1;stroke-linecap:butt;stroke-linejoin:round;stroke:rgb(12.156863%,46.666667%,70.588237%);stroke-opacity:1;stroke-miterlimit:4;" d="M -0.0000534058 2.999527 C 0.796822 2.999527 1.55854 2.683121 2.12104 2.120621 C 2.68354 1.558121 2.999947 0.796402 2.999947 -0.000473022 C 2.999947 -0.794418 2.68354 -1.559067 2.12104 -2.121567 C 1.55854 -2.684067 0.796822 -3.000473 -0.0000534058 -3.000473 C -0.796928 -3.000473 -1.558647 -2.684067 -2.121147 -2.121567 C -2.683647 -1.559067 -3.000053 -0.794418 -3.000053 -0.000473022 C -3.000053 0.796402 -2.683647 1.558121 -2.121147 2.120621 C -1.558647 2.683121 -0.796928 2.999527 -0.0000534058 2.999527 Z M -0.0000534058 2.999527 " transform="matrix(1.333333,0,0,1.333333,103.613352,105.360006)"/>
<path style="fill-rule:nonzero;fill:rgb(12.156863%,46.666667%,70.588237%);fill-opacity:1;stroke-width:1;stroke-linecap:butt;stroke-linejoin:round;stroke:rgb(12.156863%,46.666667%,70.588237%);stroke-opacity:1;stroke-miterlimit:4;" d="M 0.00114441 3.001175 C 0.79509 3.001175 1.559738 2.684769 2.122238 2.122269 C 2.684738 1.559769 3.001144 0.79512 3.001144 0.00117493 C 3.001144 -0.7957 2.684738 -1.557419 2.122238 -2.119919 C 1.559738 -2.685349 0.79509 -2.998825 0.00114441 -2.998825 C -0.795731 -2.998825 -1.557449 -2.685349 -2.119949 -2.119919 C -2.682449 -1.557419 -2.998856 -0.7957 -2.998856 0.00117493 C -2.998856 0.79512 -2.682449 1.559769 -2.119949 2.122269 C -1.557449 2.684769 -0.795731 3.001175 0.00114441 3.001175 Z M 0.00114441 3.001175 " transform="matrix(1.333333,0,0,1.333333,116.072693,51.599996)"/>
<path style="fill-rule:nonzero;fill:rgb(12.156863%,46.666667%,70.588237%);fill-opacity:1;stroke-width:1;stroke-linecap:butt;stroke-linejoin:round;stroke:rgb(12.156863%,46.666667%,70.588237%);stroke-opacity:1;stroke-miterlimit:4;" d="M -0.000572205 3 C 0.796303 3 1.558022 2.683594 2.120522 2.121094 C 2.683022 1.558594 2.999428 0.796875 2.999428 -0.000000000000010658 C 2.999428 -0.796875 2.683022 -1.558594 2.120522 -2.121094 C 1.558022 -2.683594 0.796303 -3 -0.000572205 -3 C -0.794518 -3 -1.559166 -2.683594 -2.121666 -2.121094 C -2.684166 -1.558594 -3.000572 -0.796875 -3.000572 -0.000000000000010658 C -3.000572 0.796875 -2.684166 1.558594 -2.121666 2.121094 C -1.559166 2.683594 -0.794518 3 -0.000572205 3 Z M -0.000572205 3 " transform="matrix(1.333333,0,0,1.333333,128.532013,18)"/>
<path style="fill-rule:nonzero;fill:rgb(12.156863%,46.666667%,70.588237%);fill-opacity:1;stroke-width:1;stroke-linecap:butt;stroke-linejoin:round;stroke:rgb(12.156863%,46.666667%,70.588237%);stroke-opacity:1;stroke-miterlimit:4;" d="M 0.00063324 2.999989 C 0.794579 2.999989 1.559227 2.683582 2.121727 2.121082 C 2.684227 1.558582 3.000633 0.796864 3.000633 -0.0000114441 C 3.000633 -0.796886 2.684227 -1.558605 2.121727 -2.121105 C 1.559227 -2.683605 0.794579 -3.000011 0.00063324 -3.000011 C -0.796242 -3.000011 -1.557961 -2.683605 -2.120461 -2.121105 C -2.682961 -1.558605 -2.999367 -0.796886 -2.999367 -0.0000114441 C -2.999367 0.796864 -2.682961 1.558582 -2.120461 2.121082 C -1.557961 2.683582 -0.796242 2.999989 0.00063324 2.999989 Z M 0.00063324 2.999989 " transform="matrix(1.333333,0,0,1.333333,140.991343,18.000015)"/>
<path style="fill-rule:nonzero;fill:rgb(12.156863%,46.666667%,70.588237%);fill-opacity:1;stroke-width:1;stroke-linecap:butt;stroke-linejoin:round;stroke:rgb(12.156863%,46.666667%,70.588237%);stroke-opacity:1;stroke-miterlimit:4;" d="M -0.001091 2.999992 C 0.795784 2.999992 1.557503 2.683586 2.120003 2.121086 C 2.682503 1.558586 2.998909 0.796867 2.998909 -0.00000762939 C 2.998909 -0.796883 2.682503 -1.558601 2.120003 -2.121101 C 1.557503 -2.683601 0.795784 -3.000008 -0.001091 -3.000008 C -0.795036 -3.000008 -1.559685 -2.683601 -2.122185 -2.121101 C -2.684685 -1.558601 -3.001091 -0.796883 -3.001091 -0.00000762939 C -3.001091 0.796867 -2.684685 1.558586 -2.122185 2.121086 C -1.559685 2.683586 -0.795036 2.999992 -0.001091 2.999992 Z M -0.001091 2.999992 " transform="matrix(1.333333,0,0,1.333333,153.450673,46.00001)"/>
<path style="fill-rule:nonzero;fill:rgb(12.156863%,46.666667%,70.588237%);fill-opacity:1;stroke-width:1;stroke-linecap:butt;stroke-linejoin:round;stroke:rgb(12.156863%,46.666667%,70.588237%);stroke-opacity:1;stroke-miterlimit:4;" d="M 0.000114441 3 C 0.796989 3 1.558708 2.683594 2.121208 2.121094 C 2.683708 1.558594 3.000114 0.796875 3.000114 -0.000000000000014211 C 3.000114 -0.796875 2.683708 -1.558594 2.121208 -2.121094 C 1.558708 -2.683594 0.796989 -3 0.000114441 -3 C -0.796761 -3 -1.558479 -2.683594 -2.120979 -2.121094 C -2.683479 -1.558594 -2.999886 -0.796875 -2.999886 -0.000000000000014211 C -2.999886 0.796875 -2.683479 1.558594 -2.120979 2.121094 C -1.558479 2.683594 -0.796761 3 0.000114441 3 Z M 0.000114441 3 " transform="matrix(1.333333,0,0,1.333333,165.910004,86)"/>
<path style="fill-rule:nonzero;fill:rgb(12.156863%,46.666667%,70.588237%);fill-opacity:1;stroke-width:1;stroke-linecap:butt;stroke-linejoin:round;stroke:rgb(12.156863%,46.666667%,70.588237%);stroke-opacity:1;stroke-miterlimit:4;" d="M 0.00131226 3 C 0.795258 3 1.559906 2.683594 2.122406 2.121094 C 2.684906 1.558594 3.001312 0.796875 3.001312 -0.000000000000014211 C 3.001312 -0.796875 2.684906 -1.558594 2.122406 -2.121094 C 1.559906 -2.683594 0.795258 -3 0.00131226 -3 C -0.795563 -3 -1.557281 -2.683594 -2.122711 -2.121094 C -2.685211 -1.558594 -2.998688 -0.796875 -2.998688 -0.000000000000014211 C -2.998688 0.796875 -2.685211 1.558594 -2.122711 2.121094 C -1.557281 2.683594 -0.795563 3 0.00131226 3 Z M 0.00131226 3 " transform="matrix(1.333333,0,0,1.333333,178.369344,123.5)"/>
<path style="fill-rule:nonzero;fill:rgb(12.156863%,46.666667%,70.588237%);fill-opacity:1;stroke-width:1;stroke-linecap:butt;stroke-linejoin:round;stroke:rgb(12.156863%,46.666667%,70.588237%);stroke-opacity:1;stroke-miterlimit:4;" d="M -0.000411987 2.999672 C 0.796463 2.999672 1.558182 2.683266 2.120682 2.120766 C 2.683182 1.558266 2.999588 0.796547 2.999588 -0.000328064 C 2.999588 -0.794273 2.683182 -1.558922 2.120682 -2.121422 C 1.558182 -2.683922 0.796463 -3.000328 -0.000411987 -3.000328 C -0.794357 -3.000328 -1.559006 -2.683922 -2.121506 -2.121422 C -2.684006 -1.558922 -3.000412 -0.794273 -3.000412 -0.000328064 C -3.000412 0.796547 -2.684006 1.558266 -2.121506 2.120766 C -1.559006 2.683266 -0.794357 2.999672 -0.000411987 2.999672 Z M -0.000411987 2.999672 " transform="matrix(1.333333,0,0,1.333333,190.828674,151.277781)"/>
<path style="fill-rule:nonzero;fill:rgb(12.156863%,46.666667%,70.588237%);fill-opacity:1;stroke-width:1;stroke-linecap:butt;stroke-linejoin:round;stroke:rgb(12.156863%,46.666667%,70.588237%);stroke-opacity:1;stroke-miterlimit:4;" d="M 0.000793457 3.001305 C 0.794739 3.001305 1.559387 2.684898 2.121887 2.122398 C 2.684387 1.559898 3.000793 0.79525 3.000793 0.00130463 C 3.000793 -0.79557 2.684387 -1.557289 2.121887 -2.122719 C 1.559387 -2.685219 0.794739 -2.998695 0.000793457 -2.998695 C -0.796082 -2.998695 -1.5578 -2.685219 -2.1203 -2.122719 C -2.6828 -1.557289 -2.999207 -0.79557 -2.999207 0.00130463 C -2.999207 0.79525 -2.6828 1.559898 -2.1203 2.122398 C -1.5578 2.684898 -0.796082 3.001305 0.000793457 3.001305 Z M 0.000793457 3.001305 " transform="matrix(1.333333,0,0,1.333333,203.288005,168.638885)"/>
<path style="fill-rule:nonzero;fill:rgb(12.156863%,46.666667%,70.588237%);fill-opacity:1;stroke-width:1;stroke-linecap:butt;stroke-linejoin:round;stroke:rgb(12.156863%,46.666667%,70.588237%);stroke-opacity:1;stroke-miterlimit:4;" d="M -0.000930786 3.000595 C 0.795944 3.000595 1.557663 2.684189 2.120163 2.121689 C 2.682663 1.559189 2.999069 0.79454 2.999069 0.000595093 C 2.999069 -0.79628 2.682663 -1.557999 2.120163 -2.120499 C 1.557663 -2.682999 0.795944 -2.999405 -0.000930786 -2.999405 C -0.794876 -2.999405 -1.559525 -2.682999 -2.122025 -2.120499 C -2.684525 -1.557999 -3.000931 -0.79628 -3.000931 0.000595093 C -3.000931 0.79454 -2.684525 1.559189 -2.122025 2.121689 C -1.559525 2.684189 -0.794876 3.000595 -0.000930786 3.000595 Z M -0.000930786 3.000595 " transform="matrix(1.333333,0,0,1.333333,215.747335,178.108582)"/>
<path style="fill-rule:nonzero;fill:rgb(12.156863%,46.666667%,70.588237%);fill-opacity:1;stroke-width:1;stroke-linecap:butt;stroke-linejoin:round;stroke:rgb(12.156863%,46.666667%,70.588237%);stroke-opacity:1;stroke-miterlimit:4;" d="M 0.000274658 2.999268 C 0.79422 2.999268 1.558868 2.682861 2.121368 2.120361 C 2.683868 1.557861 3.000275 0.796143 3.000275 -0.000732422 C 3.000275 -0.794678 2.683868 -1.559326 2.121368 -2.121826 C 1.558868 -2.684326 0.79422 -3.000732 0.000274658 -3.000732 C -0.7966 -3.000732 -1.558319 -2.684326 -2.120819 -2.121826 C -2.683319 -1.559326 -2.999725 -0.794678 -2.999725 -0.000732422 C -2.999725 0.796143 -2.683319 1.557861 -2.120819 2.120361 C -1.558319 2.682861 -0.7966 2.999268 0.000274658 2.999268 Z M 0.000274658 2.999268 " transform="matrix(1.333333,0,0,1.333333,228.206665,182.711914)"/>
<path style="fill-rule:nonzero;fill:rgb(12.156863%,46.666667%,70.588237%);fill-opacity:1;stroke-width:1;stroke-linecap:butt;stroke-linejoin:round;stroke:rgb(12.156863%,46.666667%,70.588237%);stroke-opacity:1;stroke-miterlimit:4;" d="M -0.00144958 2.999268 C 0.795425 2.999268 1.560074 2.682861 2.122574 2.120361 C 2.685074 1.557861 2.99855 0.796143 2.99855 -0.000732422 C 2.99855 -0.794678 2.685074 -1.559326 2.122574 -2.121826 C 1.560074 -2.684326 0.795425 -3.000732 -0.00144958 -3.000732 C -0.795395 -3.000732 -1.560043 -2.684326 -2.122543 -2.121826 C -2.685043 -1.559326 -3.00145 -0.794678 -3.00145 -0.000732422 C -3.00145 0.796143 -2.685043 1.557861 -2.122543 2.120361 C -1.560043 2.682861 -0.795395 2.999268 -0.00144958 2.999268 Z M -0.00144958 2.999268 " transform="matrix(1.333333,0,0,1.333333,240.665995,184.735352)"/>
<path style="fill-rule:nonzero;fill:rgb(12.156863%,46.666667%,70.588237%);fill-opacity:1;stroke-width:1;stroke-linecap:butt;stroke-linejoin:round;stroke:rgb(12.156863%,46.666667%,70.588237%);stroke-opacity:1;stroke-miterlimit:4;" d="M -0.000244141 2.998901 C 0.796631 2.998901 1.55835 2.682495 2.12085 2.119995 C 2.68335 1.557495 2.999756 0.795776 2.999756 -0.00109863 C 2.999756 -0.795044 2.68335 -1.559692 2.12085 -2.122192 C 1.55835 -2.684692 0.796631 -3.001099 -0.000244141 -3.001099 C -0.794189 -3.001099 -1.558838 -2.684692 -2.121338 -2.122192 C -2.683838 -1.559692 -3.000244 -0.795044 -3.000244 -0.00109863 C -3.000244 0.795776 -2.683838 1.557495 -2.121338 2.119995 C -1.558838 2.682495 -0.794189 2.998901 -0.000244141 2.998901 Z M -0.000244141 2.998901 " transform="matrix(1.333333,0,0,1.333333,253.125326,185.54834)"/>
<path style="fill-rule:nonzero;fill:rgb(12.156863%,46.666667%,70.588237%);fill-opacity:1;stroke-width:1;stroke-linecap:butt;stroke-linejoin:round;stroke:rgb(12.156863%,46.666667%,70.588237%);stroke-opacity:1;stroke-miterlimit:4;" d="M 0.000961304 2.998657 C 0.794907 2.998657 1.559555 2.685181 2.122055 2.122681 C 2.684555 1.560181 3.000961 0.795532 3.000961 -0.00134277 C 3.000961 -0.795288 2.684555 -1.559937 2.122055 -2.122437 C 1.559555 -2.684937 0.794907 -3.001343 0.000961304 -3.001343 C -0.795914 -3.001343 -1.557632 -2.684937 -2.120132 -2.122437 C -2.682632 -1.559937 -2.999039 -0.795288 -2.999039 -0.00134277 C -2.999039 0.795532 -2.682632 1.560181 -2.120132 2.122681 C -1.557632 2.685181 -0.795914 2.998657 0.000961304 2.998657 Z M 0.000961304 2.998657 " transform="matrix(1.333333,0,0,1.333333,265.584656,185.849447)"/>
<path style="fill-rule:nonzero;fill:rgb(12.156863%,46.666667%,70.588237%);fill-opacity:1;stroke-width:1;stroke-linecap:butt;stroke-linejoin:round;stroke:rgb(12.156863%,46.666667%,70.588237%);stroke-opacity:1;stroke-miterlimit:4;" d="M -0.000762939 3.000137 C 0.796112 3.000137 1.557831 2.683731 2.120331 2.121231 C 2.682831 1.558731 2.999237 0.797012 2.999237 0.000137329 C 2.999237 -0.796738 2.682831 -1.558456 2.120331 -2.120956 C 1.557831 -2.683456 0.796112 -2.999863 -0.000762939 -2.999863 C -0.794708 -2.999863 -1.559357 -2.683456 -2.121857 -2.120956 C -2.684357 -1.558456 -3.000763 -0.796738 -3.000763 0.000137329 C -3.000763 0.797012 -2.684357 1.558731 -2.121857 2.121231 C -1.559357 2.683731 -0.794708 3.000137 -0.000762939 3.000137 Z M -0.000762939 3.000137 " transform="matrix(1.333333,0,0,1.333333,278.043986,185.952942)"/>
<path style="fill-rule:nonzero;fill:rgb(12.156863%,46.666667%,70.588237%);fill-opacity:1;stroke-width:1;stroke-linecap:butt;stroke-linejoin:round;stroke:rgb(12.156863%,46.666667%,70.588237%);stroke-opacity:1;stroke-miterlimit:4;" d="M 0.000442505 2.998657 C 0.794388 2.998657 1.559036 2.685181 2.121536 2.122681 C 2.684036 1.560181 3.000443 0.795532 3.000443 -0.00134277 C 3.000443 -0.795288 2.684036 -1.559937 2.121536 -2.122437 C 1.559036 -2.684937 0.794388 -3.001343 0.000442505 -3.001343 C -0.796432 -3.001343 -1.558151 -2.684937 -2.120651 -2.122437 C -2.683151 -1.559937 -2.999557 -0.795288 -2.999557 -0.00134277 C -2.999557 0.795532 -2.683151 1.560181 -2.120651 2.122681 C -1.558151 2.685181 -0.796432 2.998657 0.000442505 2.998657 Z M 0.000442505 2.998657 " transform="matrix(1.333333,0,0,1.333333,290.503316,185.986165)"/>
<path style="fill-rule:nonzero;fill:rgb(12.156863%,46.666667%,70.588237%);fill-opacity:1;stroke-width:1;stroke-linecap:butt;stroke-linejoin:round;stroke:rgb(12.156863%,46.666667%,70.588237%);stroke-opacity:1;stroke-miterlimit:4;" d="M -0.00128174 2.999954 C 0.795593 2.999954 1.557312 2.683548 2.122742 2.121048 C 2.685242 1.558548 2.998718 0.796829 2.998718 -0.0000457764 C 2.998718 -0.796921 2.685242 -1.55864 2.122742 -2.12114 C 1.557312 -2.68364 0.795593 -3.000046 -0.00128174 -3.000046 C -0.795227 -3.000046 -1.559875 -2.68364 -2.122375 -2.12114 C -2.684875 -1.55864 -3.001282 -0.796921 -3.001282 -0.0000457764 C -3.001282 0.796829 -2.684875 1.558548 -2.122375 2.121048 C -1.559875 2.683548 -0.795227 2.999954 -0.00128174 2.999954 Z M -0.00128174 2.999954 " transform="matrix(1.333333,0,0,1.333333,302.962646,185.996155)"/>
<path style="fill-rule:nonzero;fill:rgb(12.156863%,46.666667%,70.588237%);fill-opacity:1;stroke-width:1;stroke-linecap:butt;stroke-linejoin:round;stroke:rgb(12.156863%,46.666667%,70.588237%);stroke-opacity:1;stroke-miterlimit:4;" d="M -0.0000762939 3.000763 C 0.796799 3.000763 1.558517 2.684357 2.121017 2.121857 C 2.683517 1.559357 2.999924 0.794708 2.999924 0.000762939 C 2.999924 -0.796112 2.683517 -1.557831 2.121017 -2.120331 C 1.558517 -2.682831 0.796799 -2.999237 -0.0000762939 -2.999237 C -0.796951 -2.999237 -1.55867 -2.682831 -2.12117 -2.120331 C -2.68367 -1.557831 -3.000076 -0.796112 -3.000076 0.000762939 C -3.000076 0.794708 -2.68367 1.559357 -2.12117 2.121857 C -1.55867 2.684357 -0.796951 3.000763 -0.0000762939 3.000763 Z M -0.0000762939 3.000763 " transform="matrix(1.333333,0,0,1.333333,315.421977,185.998983)"/>
<path style="fill:none;stroke-width:1.5;stroke-linecap:square;stroke-linejoin:round;stroke:rgb(83.92157%,15.294118%,15.686275%);stroke-opacity:1;stroke-miterlimit:4;" d="M 59.021484 139.5 L 236.566406 139.5 " transform="matrix(1.333333,0,0,1.333333,0,0.000000000000014211)"/>
<path style="fill:none;stroke-width:0.8;stroke-linecap:square;stroke-linejoin:miter;stroke:rgb(0%,0%,0%);stroke-opacity:1;stroke-miterlimit:4;" d="M 50.144531 145.798828 L 50.144531 7.201172 " transform="matrix(1.333333,0,0,1.333333,0,0.000000000000014211)"/>
<path style="fill:none;stroke-width:0.8;stroke-linecap:square;stroke-linejoin:miter;stroke:rgb(0%,0%,0%);stroke-opacity:1;stroke-miterlimit:4;" d="M 245.443359 145.798828 L 245.443359 7.201172 " transform="matrix(1.333333,0,0,1.333333,0,0.000000000000014211)"/>
<path style="fill:none;stroke-width:0.8;stroke-linecap:square;stroke-linejoin:miter;stroke:rgb(0%,0%,0%);stroke-opacity:1;stroke-miterlimit:4;" d="M 50.144531 145.798828 L 245.443359 145.798828 " transform="matrix(1.333333,0,0,1.333333,0,0.000000000000014211)"/>
<path style="fill:none;stroke-width:0.8;stroke-linecap:square;stroke-linejoin:miter;stroke:rgb(0%,0%,0%);stroke-opacity:1;stroke-miterlimit:4;" d="M 50.144531 7.201172 L 245.443359 7.201172 " transform="matrix(1.333333,0,0,1.333333,0,0.000000000000014211)"/>
</g>
</svg>
