<?xml version="1.0" encoding="UTF-8"?>
<svg xmlns="http://www.w3.org/2000/svg" xmlns:xlink="http://www.w3.org/1999/xlink" width="328.375" height="244.474996" viewBox="0 0 328.375 244.474996" version="1.1">
<defs>
<clipPath id="clip1">
  <path d="M 93 9.601562 L 95 9.601562 L 95 194.398438 L 93 194.398438 Z M 93 9.601562 "/>
</clipPath>
<clipPath id="clip2">
  <path d="M 140 9.601562 L 143 9.601562 L 143 194.398438 L 140 194.398438 Z M 140 9.601562 "/>
</clipPath>
<clipPath id="clip3">
  <path d="M 187 9.601562 L 190 9.601562 L 190 194.398438 L 187 194.398438 Z M 187 9.601562 "/>
</clipPath>
<clipPath id="clip4">
  <path d="M 235 9.601562 L 237 9.601562 L 237 194.398438 L 235 194.398438 Z M 235 9.601562 "/>
</clipPath>
<clipPath id="clip5">
  <path d="M 282 9.601562 L 285 9.601562 L 285 194.398438 L 282 194.398438 Z M 282 9.601562 "/>
</clipPath>
<clipPath id="clip6">
  <path d="M 58.375 185 L 318.773438 185 L 318.773438 187 L 58.375 187 Z M 58.375 185 "/>
</clipPath>
<clipPath id="clip7">
  <path d="M 58.375 132 L 318.773438 132 L 318.773438 135 L 58.375 135 Z M 58.375 132 "/>
</clipPath>
<clipPath id="clip8">
  <path d="M 58.375 79 L 318.773438 79 L 318.773438 82 L 58.375 82 Z M 58.375 79 "/>
</clipPath>
<clipPath id="clip9">
  <path d="M 58.375 27 L 318.773438 27 L 318.773438 29 L 58.375 29 Z M 58.375 27 "/>
</clipPath>
</defs>
<g id="surface1">
<path style=" stroke:none;fill-rule:nonzero;fill:rgb(100%,100%,100%);fill-opacity:1;" d="M 0 244.476562 L 328.375 244.476562 L 328.375 0 L 0 0 Z M 0 244.476562 "/>
<path style=" stroke:none;fill-rule:nonzero;fill:rgb(100%,100%,100%);fill-opacity:1;" d="M 58.375 194.398438 L 318.773438 194.398438 L 318.773438 9.601562 L 58.375 9.601562 Z M 58.375 194.398438 "/>
<g clip-path="url(#clip1)" clip-rule="nonzero">
<path style="fill:none;stroke-width:0.8;stroke-linecap:square;stroke-linejoin:round;stroke:rgb(69.01961%,69.01961%,69.01961%);stroke-opacity:1;stroke-miterlimit:4;" d="M 70.429688 145.798828 L 70.429688 7.201172 " transform="matrix(1.333333,0,0,1.333333,0,0.000000000000014211)"/>
</g>
<path style="fill:none;stroke-width:0.8;stroke-linecap:butt;stroke-linejoin:round;stroke:rgb(0%,0%,0%);stroke-opacity:1;stroke-miterlimit:4;" d="M -0.00115204 -0.00117493 L -0.00115204 3.499802 " transform="matrix(1.333333,0,0,1.333333,93.907786,194.400004)"/>
<path style=" stroke:none;fill-rule:nonzero;fill:rgb(0%,0%,0%);fill-opacity:1;" d="M 85.492188 209.132812 L 93.839844 209.132812 L 93.839844 210.238281 L 85.492188 210.238281 Z M 85.492188 209.132812 "/>
<path style=" stroke:none;fill-rule:nonzero;fill:rgb(0%,0%,0%);fill-opacity:1;" d="M 100.292969 205.289062 L 96.96875 210.480469 L 100.292969 210.480469 Z M 99.945312 204.144531 L 101.597656 204.144531 L 101.597656 210.480469 L 102.988281 210.480469 L 102.988281 211.574219 L 101.597656 211.574219 L 101.597656 213.863281 L 100.292969 213.863281 L 100.292969 211.574219 L 95.902344 211.574219 L 95.902344 210.304688 Z M 99.945312 204.144531 "/>
<g clip-path="url(#clip2)" clip-rule="nonzero">
<path style="fill:none;stroke-width:0.8;stroke-linecap:square;stroke-linejoin:round;stroke:rgb(69.01961%,69.01961%,69.01961%);stroke-opacity:1;stroke-miterlimit:4;" d="M 105.975586 145.798828 L 105.975586 7.201172 " transform="matrix(1.333333,0,0,1.333333,0,0.000000000000014211)"/>
</g>
<path style="fill:none;stroke-width:0.8;stroke-linecap:butt;stroke-linejoin:round;stroke:rgb(0%,0%,0%);stroke-opacity:1;stroke-miterlimit:4;" d="M 0.000106812 -0.00117493 L 0.000106812 3.499802 " transform="matrix(1.333333,0,0,1.333333,141.300639,194.400004)"/>
<path style=" stroke:none;fill-rule:nonzero;fill:rgb(0%,0%,0%);fill-opacity:1;" d="M 132.886719 209.132812 L 141.230469 209.132812 L 141.230469 210.238281 L 132.886719 210.238281 Z M 132.886719 209.132812 "/>
<path style=" stroke:none;fill-rule:nonzero;fill:rgb(0%,0%,0%);fill-opacity:1;" d="M 145.203125 212.757812 L 149.792969 212.757812 L 149.792969 213.863281 L 143.621094 213.863281 L 143.621094 212.757812 C 144.121094 212.242188 144.800781 211.546875 145.660156 210.679688 C 146.523438 209.808594 147.066406 209.246094 147.285156 208.992188 C 147.707031 208.523438 148 208.121094 148.167969 207.792969 C 148.335938 207.464844 148.417969 207.144531 148.417969 206.828125 C 148.417969 206.308594 148.238281 205.890625 147.875 205.566406 C 147.511719 205.238281 147.039062 205.074219 146.457031 205.074219 C 146.046875 205.074219 145.609375 205.148438 145.152344 205.289062 C 144.695312 205.433594 144.207031 205.648438 143.6875 205.941406 L 143.6875 204.613281 C 144.214844 204.398438 144.710938 204.238281 145.167969 204.132812 C 145.628906 204.023438 146.050781 203.96875 146.433594 203.96875 C 147.441406 203.96875 148.242188 204.222656 148.84375 204.726562 C 149.441406 205.226562 149.738281 205.898438 149.738281 206.742188 C 149.738281 207.140625 149.664062 207.519531 149.515625 207.878906 C 149.367188 208.234375 149.09375 208.65625 148.699219 209.144531 C 148.589844 209.269531 148.246094 209.632812 147.664062 210.234375 C 147.082031 210.835938 146.261719 211.679688 145.203125 212.757812 Z M 145.203125 212.757812 "/>
<g clip-path="url(#clip3)" clip-rule="nonzero">
<path style="fill:none;stroke-width:0.8;stroke-linecap:square;stroke-linejoin:round;stroke:rgb(69.01961%,69.01961%,69.01961%);stroke-opacity:1;stroke-miterlimit:4;" d="M 141.521484 145.798828 L 141.521484 7.201172 " transform="matrix(1.333333,0,0,1.333333,0,0.000000000000014211)"/>
</g>
<path style="fill:none;stroke-width:0.8;stroke-linecap:butt;stroke-linejoin:round;stroke:rgb(0%,0%,0%);stroke-opacity:1;stroke-miterlimit:4;" d="M 0.00137329 -0.00117493 L 0.00137329 3.499802 " transform="matrix(1.333333,0,0,1.333333,188.693481,194.400004)"/>
<path style=" stroke:none;fill-rule:nonzero;fill:rgb(0%,0%,0%);fill-opacity:1;" d="M 188.6875 205.011719 C 188.011719 205.011719 187.503906 205.34375 187.164062 206.011719 C 186.820312 206.675781 186.652344 207.675781 186.652344 209.015625 C 186.652344 210.347656 186.820312 211.347656 187.164062 212.011719 C 187.503906 212.679688 188.011719 213.011719 188.6875 213.011719 C 189.371094 213.011719 189.882812 212.679688 190.222656 212.011719 C 190.5625 211.347656 190.734375 210.347656 190.734375 209.015625 C 190.734375 207.675781 190.5625 206.675781 190.222656 206.011719 C 189.882812 205.34375 189.371094 205.011719 188.6875 205.011719 Z M 188.6875 203.96875 C 189.78125 203.96875 190.613281 204.398438 191.1875 205.261719 C 191.761719 206.125 192.050781 207.375 192.050781 209.015625 C 192.050781 210.652344 191.761719 211.898438 191.1875 212.761719 C 190.613281 213.625 189.78125 214.054688 188.6875 214.054688 C 187.601562 214.054688 186.769531 213.625 186.195312 212.761719 C 185.617188 211.898438 185.332031 210.652344 185.332031 209.015625 C 185.332031 207.375 185.617188 206.125 186.195312 205.261719 C 186.769531 204.398438 187.601562 203.96875 188.6875 203.96875 Z M 188.6875 203.96875 "/>
<g clip-path="url(#clip4)" clip-rule="nonzero">
<path style="fill:none;stroke-width:0.8;stroke-linecap:square;stroke-linejoin:round;stroke:rgb(69.01961%,69.01961%,69.01961%);stroke-opacity:1;stroke-miterlimit:4;" d="M 177.064453 145.798828 L 177.064453 7.201172 " transform="matrix(1.333333,0,0,1.333333,0,0.000000000000014211)"/>
</g>
<path style="fill:none;stroke-width:0.8;stroke-linecap:butt;stroke-linejoin:round;stroke:rgb(0%,0%,0%);stroke-opacity:1;stroke-miterlimit:4;" d="M -0.000289917 -0.00117493 L -0.000289917 3.499802 " transform="matrix(1.333333,0,0,1.333333,236.086324,194.400004)"/>
<path style=" stroke:none;fill-rule:nonzero;fill:rgb(0%,0%,0%);fill-opacity:1;" d="M 234.402344 212.757812 L 238.992188 212.757812 L 238.992188 213.863281 L 232.820312 213.863281 L 232.820312 212.757812 C 233.320312 212.242188 234 211.546875 234.863281 210.679688 C 235.722656 209.808594 236.265625 209.246094 236.488281 208.992188 C 236.90625 208.523438 237.199219 208.121094 237.367188 207.792969 C 237.535156 207.464844 237.621094 207.144531 237.621094 206.828125 C 237.621094 206.308594 237.4375 205.890625 237.074219 205.566406 C 236.714844 205.238281 236.242188 205.074219 235.660156 205.074219 C 235.246094 205.074219 234.8125 205.148438 234.351562 205.289062 C 233.894531 205.433594 233.40625 205.648438 232.886719 205.941406 L 232.886719 204.613281 C 233.414062 204.398438 233.910156 204.238281 234.371094 204.132812 C 234.832031 204.023438 235.253906 203.96875 235.632812 203.96875 C 236.640625 203.96875 237.445312 204.222656 238.042969 204.726562 C 238.640625 205.226562 238.941406 205.898438 238.941406 206.742188 C 238.941406 207.140625 238.867188 207.519531 238.714844 207.878906 C 238.566406 208.234375 238.292969 208.65625 237.898438 209.144531 C 237.789062 209.269531 237.445312 209.632812 236.863281 210.234375 C 236.28125 210.835938 235.460938 211.679688 234.402344 212.757812 Z M 234.402344 212.757812 "/>
<g clip-path="url(#clip5)" clip-rule="nonzero">
<path style="fill:none;stroke-width:0.8;stroke-linecap:square;stroke-linejoin:round;stroke:rgb(69.01961%,69.01961%,69.01961%);stroke-opacity:1;stroke-miterlimit:4;" d="M 212.610352 145.798828 L 212.610352 7.201172 " transform="matrix(1.333333,0,0,1.333333,0,0.000000000000014211)"/>
</g>
<path style="fill:none;stroke-width:0.8;stroke-linecap:butt;stroke-linejoin:round;stroke:rgb(0%,0%,0%);stroke-opacity:1;stroke-miterlimit:4;" d="M 0.000961304 -0.00117493 L 0.000961304 3.499802 " transform="matrix(1.333333,0,0,1.333333,283.479187,194.400004)"/>
<path style=" stroke:none;fill-rule:nonzero;fill:rgb(0%,0%,0%);fill-opacity:1;" d="M 284.277344 205.289062 L 280.957031 210.480469 L 284.277344 210.480469 Z M 283.929688 204.144531 L 285.585938 204.144531 L 285.585938 210.480469 L 286.972656 210.480469 L 286.972656 211.574219 L 285.585938 211.574219 L 285.585938 213.863281 L 284.277344 213.863281 L 284.277344 211.574219 L 279.890625 211.574219 L 279.890625 210.304688 Z M 283.929688 204.144531 "/>
<path style=" stroke:none;fill-rule:nonzero;fill:rgb(0%,0%,0%);fill-opacity:1;" d="M 191.949219 224.808594 L 189.308594 228.359375 L 192.082031 232.101562 L 190.671875 232.101562 L 188.546875 229.238281 L 186.425781 232.101562 L 185.011719 232.101562 L 187.847656 228.289062 L 185.253906 224.808594 L 186.667969 224.808594 L 188.601562 227.410156 L 190.535156 224.808594 Z M 191.949219 224.808594 "/>
<g clip-path="url(#clip6)" clip-rule="nonzero">
<path style="fill:none;stroke-width:0.8;stroke-linecap:square;stroke-linejoin:round;stroke:rgb(69.01961%,69.01961%,69.01961%);stroke-opacity:1;stroke-miterlimit:4;" d="M 43.78125 139.541016 L 239.080078 139.541016 " transform="matrix(1.333333,0,0,1.333333,0,0.000000000000014211)"/>
</g>
<path style="fill:none;stroke-width:0.8;stroke-linecap:butt;stroke-linejoin:round;stroke:rgb(0%,0%,0%);stroke-opacity:1;stroke-miterlimit:4;" d="M 0 -0.00126648 L -3.500977 -0.00126648 " transform="matrix(1.333333,0,0,1.333333,58.375,186.056376)"/>
<path style=" stroke:none;fill-rule:nonzero;fill:rgb(0%,0%,0%);fill-opacity:1;" d="M 32.074219 182.269531 C 31.398438 182.269531 30.890625 182.601562 30.546875 183.269531 C 30.207031 183.933594 30.039062 184.933594 30.039062 186.273438 C 30.039062 187.605469 30.207031 188.601562 30.546875 189.269531 C 30.890625 189.9375 31.398438 190.269531 32.074219 190.269531 C 32.757812 190.269531 33.269531 189.9375 33.609375 189.269531 C 33.949219 188.601562 34.121094 187.605469 34.121094 186.273438 C 34.121094 184.933594 33.949219 183.933594 33.609375 183.269531 C 33.269531 182.601562 32.757812 182.269531 32.074219 182.269531 Z M 32.074219 181.226562 C 33.164062 181.226562 33.996094 181.65625 34.574219 182.519531 C 35.148438 183.382812 35.433594 184.632812 35.433594 186.273438 C 35.433594 187.90625 35.148438 189.15625 34.574219 190.019531 C 33.996094 190.882812 33.164062 191.3125 32.074219 191.3125 C 30.984375 191.3125 30.152344 190.882812 29.578125 190.019531 C 29.003906 189.15625 28.714844 187.90625 28.714844 186.273438 C 28.714844 184.632812 29.003906 183.382812 29.578125 182.519531 C 30.152344 181.65625 30.984375 181.226562 32.074219 181.226562 Z M 32.074219 181.226562 "/>
<path style=" stroke:none;fill-rule:nonzero;fill:rgb(0%,0%,0%);fill-opacity:1;" d="M 37.746094 189.46875 L 39.121094 189.46875 L 39.121094 191.121094 L 37.746094 191.121094 Z M 37.746094 189.46875 "/>
<path style=" stroke:none;fill-rule:nonzero;fill:rgb(0%,0%,0%);fill-opacity:1;" d="M 44.796875 182.269531 C 44.121094 182.269531 43.609375 182.601562 43.269531 183.269531 C 42.929688 183.933594 42.757812 184.933594 42.757812 186.273438 C 42.757812 187.605469 42.929688 188.601562 43.269531 189.269531 C 43.609375 189.9375 44.121094 190.269531 44.796875 190.269531 C 45.476562 190.269531 45.988281 189.9375 46.328125 189.269531 C 46.671875 188.601562 46.84375 187.605469 46.84375 186.273438 C 46.84375 184.933594 46.671875 183.933594 46.328125 183.269531 C 45.988281 182.601562 45.476562 182.269531 44.796875 182.269531 Z M 44.796875 181.226562 C 45.886719 181.226562 46.71875 181.65625 47.292969 182.519531 C 47.871094 183.382812 48.15625 184.632812 48.15625 186.273438 C 48.15625 187.90625 47.871094 189.15625 47.292969 190.019531 C 46.71875 190.882812 45.886719 191.3125 44.796875 191.3125 C 43.707031 191.3125 42.875 190.882812 42.300781 190.019531 C 41.726562 189.15625 41.4375 187.90625 41.4375 186.273438 C 41.4375 184.632812 41.726562 183.382812 42.300781 182.519531 C 42.875 181.65625 43.707031 181.226562 44.796875 181.226562 Z M 44.796875 181.226562 "/>
<g clip-path="url(#clip7)" clip-rule="nonzero">
<path style="fill:none;stroke-width:0.8;stroke-linecap:square;stroke-linejoin:round;stroke:rgb(69.01961%,69.01961%,69.01961%);stroke-opacity:1;stroke-miterlimit:4;" d="M 43.78125 100.051758 L 239.080078 100.051758 " transform="matrix(1.333333,0,0,1.333333,0,0.000000000000014211)"/>
</g>
<path style="fill:none;stroke-width:0.8;stroke-linecap:butt;stroke-linejoin:round;stroke:rgb(0%,0%,0%);stroke-opacity:1;stroke-miterlimit:4;" d="M 0 -0.00119019 L -3.500977 -0.00119019 " transform="matrix(1.333333,0,0,1.333333,58.375,133.403931)"/>
<path style=" stroke:none;fill-rule:nonzero;fill:rgb(0%,0%,0%);fill-opacity:1;" d="M 32.074219 129.617188 C 31.398438 129.617188 30.890625 129.949219 30.546875 130.617188 C 30.207031 131.28125 30.039062 132.28125 30.039062 133.621094 C 30.039062 134.953125 30.207031 135.949219 30.546875 136.617188 C 30.890625 137.285156 31.398438 137.617188 32.074219 137.617188 C 32.757812 137.617188 33.269531 137.285156 33.609375 136.617188 C 33.949219 135.949219 34.121094 134.953125 34.121094 133.621094 C 34.121094 132.28125 33.949219 131.28125 33.609375 130.617188 C 33.269531 129.949219 32.757812 129.617188 32.074219 129.617188 Z M 32.074219 128.574219 C 33.164062 128.574219 33.996094 129.003906 34.574219 129.867188 C 35.148438 130.730469 35.433594 131.980469 35.433594 133.621094 C 35.433594 135.253906 35.148438 136.503906 34.574219 137.367188 C 33.996094 138.230469 33.164062 138.660156 32.074219 138.660156 C 30.984375 138.660156 30.152344 138.230469 29.578125 137.367188 C 29.003906 136.503906 28.714844 135.253906 28.714844 133.621094 C 28.714844 131.980469 29.003906 130.730469 29.578125 129.867188 C 30.152344 129.003906 30.984375 128.574219 32.074219 128.574219 Z M 32.074219 128.574219 "/>
<path style=" stroke:none;fill-rule:nonzero;fill:rgb(0%,0%,0%);fill-opacity:1;" d="M 37.746094 136.816406 L 39.121094 136.816406 L 39.121094 138.46875 L 37.746094 138.46875 Z M 37.746094 136.816406 "/>
<path style=" stroke:none;fill-rule:nonzero;fill:rgb(0%,0%,0%);fill-opacity:1;" d="M 42.214844 137.363281 L 44.359375 137.363281 L 44.359375 129.945312 L 42.023438 130.414062 L 42.023438 129.21875 L 44.347656 128.75 L 45.664062 128.75 L 45.664062 137.363281 L 47.8125 137.363281 L 47.8125 138.46875 L 42.214844 138.46875 Z M 42.214844 137.363281 "/>
<g clip-path="url(#clip8)" clip-rule="nonzero">
<path style="fill:none;stroke-width:0.8;stroke-linecap:square;stroke-linejoin:round;stroke:rgb(69.01961%,69.01961%,69.01961%);stroke-opacity:1;stroke-miterlimit:4;" d="M 43.78125 60.5625 L 239.080078 60.5625 " transform="matrix(1.333333,0,0,1.333333,0,0.000000000000014211)"/>
</g>
<path style="fill:none;stroke-width:0.8;stroke-linecap:butt;stroke-linejoin:round;stroke:rgb(0%,0%,0%);stroke-opacity:1;stroke-miterlimit:4;" d="M 0 -0.00111389 L -3.500977 -0.00111389 " transform="matrix(1.333333,0,0,1.333333,58.375,80.751485)"/>
<path style=" stroke:none;fill-rule:nonzero;fill:rgb(0%,0%,0%);fill-opacity:1;" d="M 32.074219 76.964844 C 31.398438 76.964844 30.890625 77.296875 30.546875 77.964844 C 30.207031 78.628906 30.039062 79.628906 30.039062 80.96875 C 30.039062 82.300781 30.207031 83.296875 30.546875 83.964844 C 30.890625 84.632812 31.398438 84.964844 32.074219 84.964844 C 32.757812 84.964844 33.269531 84.632812 33.609375 83.964844 C 33.949219 83.296875 34.121094 82.300781 34.121094 80.96875 C 34.121094 79.628906 33.949219 78.628906 33.609375 77.964844 C 33.269531 77.296875 32.757812 76.964844 32.074219 76.964844 Z M 32.074219 75.921875 C 33.164062 75.921875 33.996094 76.351562 34.574219 77.214844 C 35.148438 78.074219 35.433594 79.328125 35.433594 80.96875 C 35.433594 82.601562 35.148438 83.851562 34.574219 84.714844 C 33.996094 85.574219 33.164062 86.007812 32.074219 86.007812 C 30.984375 86.007812 30.152344 85.574219 29.578125 84.714844 C 29.003906 83.851562 28.714844 82.601562 28.714844 80.96875 C 28.714844 79.328125 29.003906 78.074219 29.578125 77.214844 C 30.152344 76.351562 30.984375 75.921875 32.074219 75.921875 Z M 32.074219 75.921875 "/>
<path style=" stroke:none;fill-rule:nonzero;fill:rgb(0%,0%,0%);fill-opacity:1;" d="M 37.746094 84.164062 L 39.121094 84.164062 L 39.121094 85.816406 L 37.746094 85.816406 Z M 37.746094 84.164062 "/>
<path style=" stroke:none;fill-rule:nonzero;fill:rgb(0%,0%,0%);fill-opacity:1;" d="M 43.117188 84.710938 L 47.707031 84.710938 L 47.707031 85.816406 L 41.535156 85.816406 L 41.535156 84.710938 C 42.035156 84.195312 42.714844 83.5 43.574219 82.632812 C 44.4375 81.761719 44.980469 81.199219 45.199219 80.945312 C 45.621094 80.472656 45.914062 80.074219 46.082031 79.746094 C 46.25 79.417969 46.332031 79.097656 46.332031 78.78125 C 46.332031 78.261719 46.152344 77.84375 45.789062 77.515625 C 45.425781 77.191406 44.957031 77.027344 44.375 77.027344 C 43.960938 77.027344 43.527344 77.097656 43.066406 77.242188 C 42.609375 77.386719 42.121094 77.601562 41.601562 77.894531 L 41.601562 76.566406 C 42.128906 76.351562 42.625 76.191406 43.082031 76.082031 C 43.546875 75.976562 43.964844 75.921875 44.347656 75.921875 C 45.355469 75.921875 46.15625 76.171875 46.757812 76.675781 C 47.355469 77.179688 47.65625 77.851562 47.65625 78.695312 C 47.65625 79.09375 47.578125 79.472656 47.429688 79.832031 C 47.28125 80.1875 47.007812 80.609375 46.613281 81.097656 C 46.503906 81.222656 46.160156 81.585938 45.578125 82.1875 C 44.996094 82.789062 44.175781 83.628906 43.117188 84.710938 Z M 43.117188 84.710938 "/>
<g clip-path="url(#clip9)" clip-rule="nonzero">
<path style="fill:none;stroke-width:0.8;stroke-linecap:square;stroke-linejoin:round;stroke:rgb(69.01961%,69.01961%,69.01961%);stroke-opacity:1;stroke-miterlimit:4;" d="M 43.78125 21.073242 L 239.080078 21.073242 " transform="matrix(1.333333,0,0,1.333333,0,0.000000000000014211)"/>
</g>
<path style="fill:none;stroke-width:0.8;stroke-linecap:butt;stroke-linejoin:round;stroke:rgb(0%,0%,0%);stroke-opacity:1;stroke-miterlimit:4;" d="M 0 -0.00103951 L -3.500977 -0.00103951 " transform="matrix(1.333333,0,0,1.333333,58.375,28.099042)"/>
<path style=" stroke:none;fill-rule:nonzero;fill:rgb(0%,0%,0%);fill-opacity:1;" d="M 32.074219 24.308594 C 31.398438 24.308594 30.890625 24.644531 30.546875 25.308594 C 30.207031 25.976562 30.039062 26.976562 30.039062 28.316406 C 30.039062 29.648438 30.207031 30.644531 30.546875 31.3125 C 30.890625 31.980469 31.398438 32.3125 32.074219 32.3125 C 32.757812 32.3125 33.269531 31.980469 33.609375 31.3125 C 33.949219 30.644531 34.121094 29.648438 34.121094 28.316406 C 34.121094 26.976562 33.949219 25.976562 33.609375 25.308594 C 33.269531 24.644531 32.757812 24.308594 32.074219 24.308594 Z M 32.074219 23.269531 C 33.164062 23.269531 33.996094 23.699219 34.574219 24.5625 C 35.148438 25.421875 35.433594 26.675781 35.433594 28.316406 C 35.433594 29.949219 35.148438 31.199219 34.574219 32.0625 C 33.996094 32.921875 33.164062 33.355469 32.074219 33.355469 C 30.984375 33.355469 30.152344 32.921875 29.578125 32.0625 C 29.003906 31.199219 28.714844 29.949219 28.714844 28.316406 C 28.714844 26.675781 29.003906 25.421875 29.578125 24.5625 C 30.152344 23.699219 30.984375 23.269531 32.074219 23.269531 Z M 32.074219 23.269531 "/>
<path style=" stroke:none;fill-rule:nonzero;fill:rgb(0%,0%,0%);fill-opacity:1;" d="M 37.746094 31.511719 L 39.121094 31.511719 L 39.121094 33.164062 L 37.746094 33.164062 Z M 37.746094 31.511719 "/>
<path style=" stroke:none;fill-rule:nonzero;fill:rgb(0%,0%,0%);fill-opacity:1;" d="M 45.96875 27.921875 C 46.597656 28.058594 47.089844 28.339844 47.441406 28.765625 C 47.796875 29.191406 47.972656 29.714844 47.972656 30.339844 C 47.972656 31.296875 47.644531 32.039062 46.984375 32.566406 C 46.324219 33.089844 45.386719 33.355469 44.171875 33.355469 C 43.765625 33.355469 43.34375 33.3125 42.914062 33.234375 C 42.480469 33.152344 42.035156 33.03125 41.574219 32.871094 L 41.574219 31.601562 C 41.9375 31.816406 42.339844 31.976562 42.769531 32.082031 C 43.207031 32.191406 43.660156 32.246094 44.132812 32.246094 C 44.957031 32.246094 45.585938 32.082031 46.015625 31.757812 C 46.449219 31.433594 46.664062 30.960938 46.664062 30.339844 C 46.664062 29.765625 46.464844 29.316406 46.0625 28.996094 C 45.660156 28.671875 45.101562 28.511719 44.386719 28.511719 L 43.253906 28.511719 L 43.253906 27.429688 L 44.441406 27.429688 C 45.085938 27.429688 45.582031 27.300781 45.921875 27.042969 C 46.265625 26.785156 46.4375 26.410156 46.4375 25.925781 C 46.4375 25.425781 46.261719 25.042969 45.90625 24.777344 C 45.554688 24.507812 45.046875 24.375 44.386719 24.375 C 44.027344 24.375 43.640625 24.414062 43.226562 24.492188 C 42.816406 24.570312 42.363281 24.691406 41.867188 24.855469 L 41.867188 23.683594 C 42.367188 23.546875 42.835938 23.441406 43.269531 23.371094 C 43.707031 23.304688 44.117188 23.269531 44.503906 23.269531 C 45.503906 23.269531 46.292969 23.496094 46.875 23.949219 C 47.457031 24.402344 47.746094 25.015625 47.746094 25.789062 C 47.746094 26.328125 47.59375 26.78125 47.285156 27.152344 C 46.976562 27.523438 46.539062 27.78125 45.96875 27.921875 Z M 45.96875 27.921875 "/>
<path style=" stroke:none;fill-rule:nonzero;fill:rgb(0%,0%,0%);fill-opacity:1;" d="M 11.089844 124.722656 L 18.648438 124.722656 L 18.648438 123.132812 C 18.648438 121.789062 18.347656 120.808594 17.738281 120.1875 C 17.132812 119.5625 16.171875 119.253906 14.859375 119.253906 C 13.558594 119.253906 12.605469 119.5625 12 120.1875 C 11.394531 120.808594 11.089844 121.789062 11.089844 123.132812 Z M 10.011719 126.035156 L 10.011719 123.335938 C 10.011719 121.449219 10.402344 120.070312 11.183594 119.1875 C 11.96875 118.304688 13.195312 117.867188 14.859375 117.867188 C 16.535156 117.867188 17.769531 118.308594 18.554688 119.195312 C 19.339844 120.078125 19.730469 121.460938 19.730469 123.335938 L 19.730469 126.035156 Z M 10.011719 126.035156 "/>
<path style=" stroke:none;fill-rule:nonzero;fill:rgb(0%,0%,0%);fill-opacity:1;" d="M 15.785156 109.585938 L 16.371094 109.585938 L 16.371094 115.09375 C 17.195312 115.039062 17.824219 114.792969 18.257812 114.347656 C 18.6875 113.902344 18.902344 113.28125 18.902344 112.488281 C 18.902344 112.027344 18.847656 111.582031 18.734375 111.152344 C 18.621094 110.71875 18.453125 110.289062 18.226562 109.863281 L 19.359375 109.863281 C 19.542969 110.292969 19.679688 110.734375 19.777344 111.1875 C 19.871094 111.636719 19.921875 112.09375 19.921875 112.558594 C 19.921875 113.722656 19.582031 114.644531 18.90625 115.324219 C 18.226562 116.003906 17.3125 116.34375 16.15625 116.34375 C 14.964844 116.34375 14.015625 116.019531 13.316406 115.375 C 12.617188 114.730469 12.265625 113.863281 12.265625 112.765625 C 12.265625 111.785156 12.582031 111.011719 13.210938 110.441406 C 13.84375 109.871094 14.699219 109.585938 15.785156 109.585938 Z M 15.433594 110.78125 C 14.777344 110.789062 14.257812 110.972656 13.867188 111.332031 C 13.476562 111.691406 13.277344 112.164062 13.277344 112.753906 C 13.277344 113.421875 13.46875 113.957031 13.847656 114.359375 C 14.222656 114.761719 14.753906 114.992188 15.441406 115.054688 Z M 15.433594 110.78125 "/>
<path style=" stroke:none;fill-rule:nonzero;fill:rgb(0%,0%,0%);fill-opacity:1;" d="M 15.328125 101.554688 L 19.730469 101.554688 L 19.730469 102.753906 L 15.367188 102.753906 C 14.679688 102.753906 14.164062 102.886719 13.820312 103.15625 C 13.476562 103.425781 13.304688 103.832031 13.304688 104.367188 C 13.304688 105.015625 13.511719 105.527344 13.925781 105.898438 C 14.335938 106.273438 14.898438 106.460938 15.609375 106.460938 L 19.730469 106.460938 L 19.730469 107.664062 L 12.441406 107.664062 L 12.441406 106.460938 L 13.574219 106.460938 C 13.132812 106.171875 12.804688 105.835938 12.589844 105.449219 C 12.371094 105.058594 12.265625 104.609375 12.265625 104.101562 C 12.265625 103.265625 12.523438 102.632812 13.042969 102.203125 C 13.558594 101.769531 14.320312 101.554688 15.328125 101.554688 Z M 15.328125 101.554688 "/>
<path style=" stroke:none;fill-rule:nonzero;fill:rgb(0%,0%,0%);fill-opacity:1;" d="M 12.652344 94.519531 L 13.789062 94.519531 C 13.613281 94.859375 13.484375 95.207031 13.398438 95.574219 C 13.308594 95.9375 13.265625 96.316406 13.265625 96.707031 C 13.265625 97.300781 13.359375 97.746094 13.539062 98.046875 C 13.722656 98.34375 13.996094 98.492188 14.359375 98.492188 C 14.636719 98.492188 14.855469 98.382812 15.015625 98.171875 C 15.171875 97.960938 15.324219 97.53125 15.464844 96.890625 L 15.558594 96.476562 C 15.742188 95.628906 15.996094 95.023438 16.328125 94.664062 C 16.660156 94.308594 17.125 94.128906 17.71875 94.128906 C 18.398438 94.128906 18.933594 94.394531 19.328125 94.933594 C 19.722656 95.46875 19.921875 96.207031 19.921875 97.144531 C 19.921875 97.535156 19.882812 97.941406 19.804688 98.363281 C 19.730469 98.789062 19.617188 99.234375 19.464844 99.703125 L 18.226562 99.703125 C 18.457031 99.257812 18.628906 98.820312 18.746094 98.394531 C 18.859375 97.964844 18.917969 97.539062 18.917969 97.117188 C 18.917969 96.550781 18.820312 96.117188 18.628906 95.816406 C 18.433594 95.511719 18.160156 95.359375 17.808594 95.359375 C 17.484375 95.359375 17.234375 95.46875 17.0625 95.6875 C 16.890625 95.90625 16.722656 96.386719 16.558594 97.128906 L 16.460938 97.546875 C 16.308594 98.289062 16.066406 98.824219 15.742188 99.15625 C 15.421875 99.484375 14.976562 99.648438 14.414062 99.648438 C 13.726562 99.648438 13.195312 99.40625 12.824219 98.921875 C 12.453125 98.433594 12.265625 97.742188 12.265625 96.847656 C 12.265625 96.40625 12.296875 95.992188 12.363281 95.601562 C 12.425781 95.210938 12.523438 94.847656 12.652344 94.519531 Z M 12.652344 94.519531 "/>
<path style=" stroke:none;fill-rule:nonzero;fill:rgb(0%,0%,0%);fill-opacity:1;" d="M 12.441406 92.222656 L 12.441406 91.023438 L 19.730469 91.023438 L 19.730469 92.222656 Z M 9.601562 92.222656 L 9.601562 91.023438 L 11.117188 91.023438 L 11.117188 92.222656 Z M 9.601562 92.222656 "/>
<path style=" stroke:none;fill-rule:nonzero;fill:rgb(0%,0%,0%);fill-opacity:1;" d="M 10.367188 87.332031 L 12.441406 87.332031 L 12.441406 84.863281 L 13.371094 84.863281 L 13.371094 87.332031 L 17.328125 87.332031 C 17.921875 87.332031 18.304688 87.25 18.476562 87.085938 C 18.644531 86.925781 18.730469 86.59375 18.730469 86.09375 L 18.730469 84.863281 L 19.730469 84.863281 L 19.730469 86.09375 C 19.730469 87.019531 19.558594 87.65625 19.214844 88.007812 C 18.867188 88.359375 18.242188 88.535156 17.328125 88.535156 L 13.371094 88.535156 L 13.371094 89.414062 L 12.441406 89.414062 L 12.441406 88.535156 L 10.367188 88.535156 Z M 10.367188 87.332031 "/>
<path style=" stroke:none;fill-rule:nonzero;fill:rgb(0%,0%,0%);fill-opacity:1;" d="M 20.410156 80.253906 C 21.277344 80.59375 21.84375 80.921875 22.105469 81.246094 C 22.371094 81.566406 22.503906 81.996094 22.503906 82.53125 L 22.503906 83.492188 L 21.503906 83.492188 L 21.503906 82.785156 C 21.503906 82.457031 21.421875 82.203125 21.265625 82.019531 C 21.109375 81.835938 20.742188 81.636719 20.160156 81.414062 L 19.613281 81.199219 L 12.441406 84.148438 L 12.441406 82.878906 L 18.140625 80.597656 L 12.441406 78.320312 L 12.441406 77.050781 Z M 20.410156 80.253906 "/>
<path style="fill:none;stroke-width:1.5;stroke-linecap:square;stroke-linejoin:round;stroke:rgb(12.156863%,46.666667%,70.588237%);stroke-opacity:1;stroke-miterlimit:4;" d="M 52.658203 139.5 L 60.477539 139.318359 L 65.100586 138.999023 L 68.475586 138.541992 L 71.141602 137.964844 L 73.453125 137.244141 L 75.585938 136.338867 L 77.540039 135.251953 L 79.318359 134.003906 L 81.09375 132.46875 L 82.693359 130.795898 L 84.292969 128.821289 L 85.892578 126.500977 L 87.492188 123.808594 L 89.270508 120.345703 L 91.045898 116.352539 L 92.824219 111.805664 L 94.77832 106.157227 L 96.911133 99.237305 L 99.222656 90.908203 L 101.888672 80.390625 L 105.621094 64.628906 L 110.595703 43.696289 L 112.907227 34.907227 L 114.861328 28.318359 L 116.460938 23.668945 L 117.881836 20.185547 L 119.126953 17.695312 L 120.193359 16.001953 L 121.259766 14.733398 L 122.147461 14.012695 L 123.038086 13.602539 L 123.74707 13.5 L 124.458984 13.599609 L 125.170898 13.898437 L 126.058594 14.554687 L 126.946289 15.515625 L 128.012695 17.0625 L 129.079102 19.022461 L 130.324219 21.805664 L 131.745117 25.587891 L 133.344727 30.530273 L 135.298828 37.394531 L 137.610352 46.391602 L 141.342773 61.995117 L 145.962891 81.123047 L 148.628906 91.168945 L 150.761719 98.387695 L 152.71582 104.258789 L 154.494141 108.925781 L 156.09375 112.561523 L 157.693359 115.658203 L 159.114258 117.963867 L 160.535156 119.856445 L 161.958984 121.356445 L 163.201172 122.358398 L 164.446289 123.082031 L 165.691406 123.550781 L 166.933594 123.776367 L 168.178711 123.776367 L 169.423828 123.571289 L 170.844727 123.111328 L 172.444336 122.34375 L 174.219727 121.230469 L 176.352539 119.619141 L 179.375977 117.020508 L 184.708008 112.40625 L 187.016602 110.71875 L 188.973633 109.555664 L 190.749023 108.75293 L 192.348633 108.269531 L 193.948242 108.023437 L 195.547852 108.023437 L 197.147461 108.275391 L 198.74707 108.770508 L 200.34668 109.5 L 202.125 110.566406 L 204.079102 112.013672 L 206.387695 114.032227 L 209.232422 116.844727 L 214.743164 122.712891 L 218.651367 126.703125 L 221.671875 129.46582 L 224.337891 131.598633 L 226.828125 133.306641 L 229.31543 134.742188 L 230.203125 135.193359 " transform="matrix(1.333333,0,0,1.333333,0,0.000000000000014211)"/>
<path style="fill:none;stroke-width:0.8;stroke-linecap:square;stroke-linejoin:miter;stroke:rgb(0%,0%,0%);stroke-opacity:1;stroke-miterlimit:4;" d="M 43.78125 145.798828 L 43.78125 7.201172 " transform="matrix(1.333333,0,0,1.333333,0,0.000000000000014211)"/>
<path style="fill:none;stroke-width:0.8;stroke-linecap:square;stroke-linejoin:miter;stroke:rgb(0%,0%,0%);stroke-opacity:1;stroke-miterlimit:4;" d="M 239.080078 145.798828 L 239.080078 7.201172 " transform="matrix(1.333333,0,0,1.333333,0,0.000000000000014211)"/>
<path style="fill:none;stroke-width:0.8;stroke-linecap:square;stroke-linejoin:miter;stroke:rgb(0%,0%,0%);stroke-opacity:1;stroke-miterlimit:4;" d="M 43.78125 145.798828 L 239.080078 145.798828 " transform="matrix(1.333333,0,0,1.333333,0,0.000000000000014211)"/>
<path style="fill:none;stroke-width:0.8;stroke-linecap:square;stroke-linejoin:miter;stroke:rgb(0%,0%,0%);stroke-opacity:1;stroke-miterlimit:4;" d="M 43.78125 7.201172 L 239.080078 7.201172 " transform="matrix(1.333333,0,0,1.333333,0,0.000000000000014211)"/>
</g>
</svg>
