<?xml version="1.0" encoding="UTF-8"?>
<svg xmlns="http://www.w3.org/2000/svg" xmlns:xlink="http://www.w3.org/1999/xlink" width="330.637492" height="244.474996" viewBox="0 0 330.637492 244.474996" version="1.1">
<defs>
<clipPath id="clip1">
  <path d="M 71 9.601562 L 74 9.601562 L 74 194.398438 L 71 194.398438 Z M 71 9.601562 "/>
</clipPath>
<clipPath id="clip2">
  <path d="M 136 9.601562 L 138 9.601562 L 138 194.398438 L 136 194.398438 Z M 136 9.601562 "/>
</clipPath>
<clipPath id="clip3">
  <path d="M 201 9.601562 L 203 9.601562 L 203 194.398438 L 201 194.398438 Z M 201 9.601562 "/>
</clipPath>
<clipPath id="clip4">
  <path d="M 265 9.601562 L 268 9.601562 L 268 194.398438 L 265 194.398438 Z M 265 9.601562 "/>
</clipPath>
<clipPath id="clip5">
  <path d="M 60.636719 185 L 321.039062 185 L 321.039062 187 L 60.636719 187 Z M 60.636719 185 "/>
</clipPath>
<clipPath id="clip6">
  <path d="M 60.636719 135 L 321.039062 135 L 321.039062 137 L 60.636719 137 Z M 60.636719 135 "/>
</clipPath>
<clipPath id="clip7">
  <path d="M 60.636719 85 L 321.039062 85 L 321.039062 87 L 60.636719 87 Z M 60.636719 85 "/>
</clipPath>
<clipPath id="clip8">
  <path d="M 60.636719 34 L 321.039062 34 L 321.039062 37 L 60.636719 37 Z M 60.636719 34 "/>
</clipPath>
<clipPath id="clip9">
  <path d="M 60.636719 29 L 311 29 L 311 188 L 60.636719 188 Z M 60.636719 29 "/>
</clipPath>
</defs>
<g id="surface1">
<path style=" stroke:none;fill-rule:nonzero;fill:rgb(100%,100%,100%);fill-opacity:1;" d="M 0 244.476562 L 330.636719 244.476562 L 330.636719 0 L 0 0 Z M 0 244.476562 "/>
<path style=" stroke:none;fill-rule:nonzero;fill:rgb(100%,100%,100%);fill-opacity:1;" d="M 60.636719 194.398438 L 321.039062 194.398438 L 321.039062 9.601562 L 60.636719 9.601562 Z M 60.636719 194.398438 "/>
<g clip-path="url(#clip1)" clip-rule="nonzero">
<path style="fill:none;stroke-width:0.8;stroke-linecap:square;stroke-linejoin:round;stroke:rgb(69.01961%,69.01961%,69.01961%);stroke-opacity:1;stroke-miterlimit:4;" d="M 54.354492 145.798828 L 54.354492 7.201172 " transform="matrix(1.333333,0,0,1.333333,0,-0.000000000000014211)"/>
</g>
<path style="fill:none;stroke-width:0.8;stroke-linecap:butt;stroke-linejoin:round;stroke:rgb(0%,0%,0%);stroke-opacity:1;stroke-miterlimit:4;" d="M -0.000904083 -0.00117493 L -0.000904083 3.499802 " transform="matrix(1.333333,0,0,1.333333,72.473862,194.400004)"/>
<path style=" stroke:none;fill-rule:nonzero;fill:rgb(0%,0%,0%);fill-opacity:1;" d="M 62.394531 212.65625 L 64.542969 212.65625 L 64.542969 205.238281 L 62.207031 205.707031 L 62.207031 204.511719 L 64.53125 204.042969 L 65.84375 204.042969 L 65.84375 212.65625 L 67.992188 212.65625 L 67.992188 213.761719 L 62.394531 213.761719 Z M 62.394531 212.65625 "/>
<path style=" stroke:none;fill-rule:nonzero;fill:rgb(0%,0%,0%);fill-opacity:1;" d="M 73.460938 204.910156 C 72.785156 204.910156 72.277344 205.242188 71.933594 205.910156 C 71.59375 206.574219 71.421875 207.574219 71.421875 208.914062 C 71.421875 210.246094 71.59375 211.242188 71.933594 211.910156 C 72.277344 212.578125 72.785156 212.910156 73.460938 212.910156 C 74.144531 212.910156 74.652344 212.578125 74.996094 211.910156 C 75.335938 211.242188 75.507812 210.246094 75.507812 208.914062 C 75.507812 207.574219 75.335938 206.574219 74.996094 205.910156 C 74.652344 205.242188 74.144531 204.910156 73.460938 204.910156 Z M 73.460938 203.867188 C 74.550781 203.867188 75.382812 204.296875 75.960938 205.160156 C 76.535156 206.023438 76.820312 207.273438 76.820312 208.914062 C 76.820312 210.546875 76.535156 211.796875 75.960938 212.660156 C 75.382812 213.523438 74.550781 213.953125 73.460938 213.953125 C 72.371094 213.953125 71.539062 213.523438 70.964844 212.660156 C 70.390625 211.796875 70.101562 210.546875 70.101562 208.914062 C 70.101562 207.273438 70.390625 206.023438 70.964844 205.160156 C 71.539062 204.296875 72.371094 203.867188 73.460938 203.867188 Z M 73.460938 203.867188 "/>
<path style=" stroke:none;fill-rule:nonzero;fill:rgb(0%,0%,0%);fill-opacity:1;" d="M 80.800781 202.460938 C 80.328125 202.460938 79.972656 202.695312 79.730469 203.160156 C 79.492188 203.625 79.375 204.328125 79.375 205.261719 C 79.375 206.195312 79.492188 206.894531 79.730469 207.363281 C 79.972656 207.828125 80.328125 208.0625 80.800781 208.0625 C 81.277344 208.0625 81.636719 207.828125 81.875 207.363281 C 82.113281 206.894531 82.234375 206.195312 82.234375 205.261719 C 82.234375 204.328125 82.113281 203.625 81.875 203.160156 C 81.636719 202.695312 81.277344 202.460938 80.800781 202.460938 Z M 80.800781 201.730469 C 81.5625 201.730469 82.148438 202.03125 82.550781 202.636719 C 82.953125 203.238281 83.152344 204.113281 83.152344 205.261719 C 83.152344 206.410156 82.953125 207.28125 82.550781 207.886719 C 82.148438 208.488281 81.5625 208.792969 80.800781 208.792969 C 80.039062 208.792969 79.457031 208.488281 79.054688 207.886719 C 78.652344 207.28125 78.449219 206.410156 78.449219 205.261719 C 78.449219 204.113281 78.652344 203.238281 79.054688 202.636719 C 79.457031 202.03125 80.039062 201.730469 80.800781 201.730469 Z M 80.800781 201.730469 "/>
<g clip-path="url(#clip2)" clip-rule="nonzero">
<path style="fill:none;stroke-width:0.8;stroke-linecap:square;stroke-linejoin:round;stroke:rgb(69.01961%,69.01961%,69.01961%);stroke-opacity:1;stroke-miterlimit:4;" d="M 102.855469 145.798828 L 102.855469 7.201172 " transform="matrix(1.333333,0,0,1.333333,0,-0.000000000000014211)"/>
</g>
<path style="fill:none;stroke-width:0.8;stroke-linecap:butt;stroke-linejoin:round;stroke:rgb(0%,0%,0%);stroke-opacity:1;stroke-miterlimit:4;" d="M -0.000663757 -0.00117493 L -0.000663757 3.499802 " transform="matrix(1.333333,0,0,1.333333,137.14151,194.400004)"/>
<path style=" stroke:none;fill-rule:nonzero;fill:rgb(0%,0%,0%);fill-opacity:1;" d="M 127.0625 212.667969 L 129.210938 212.667969 L 129.210938 205.25 L 126.871094 205.71875 L 126.871094 204.519531 L 129.199219 204.050781 L 130.511719 204.050781 L 130.511719 212.667969 L 132.660156 212.667969 L 132.660156 213.773438 L 127.0625 213.773438 Z M 127.0625 212.667969 "/>
<path style=" stroke:none;fill-rule:nonzero;fill:rgb(0%,0%,0%);fill-opacity:1;" d="M 138.128906 204.917969 C 137.453125 204.917969 136.941406 205.253906 136.601562 205.917969 C 136.261719 206.585938 136.089844 207.585938 136.089844 208.921875 C 136.089844 210.253906 136.261719 211.253906 136.601562 211.921875 C 136.941406 212.589844 137.453125 212.921875 138.128906 212.921875 C 138.8125 212.921875 139.320312 212.589844 139.660156 211.921875 C 140.003906 211.253906 140.175781 210.253906 140.175781 208.921875 C 140.175781 207.585938 140.003906 206.585938 139.660156 205.917969 C 139.320312 205.253906 138.8125 204.917969 138.128906 204.917969 Z M 138.128906 203.878906 C 139.21875 203.878906 140.050781 204.308594 140.625 205.171875 C 141.203125 206.03125 141.488281 207.28125 141.488281 208.921875 C 141.488281 210.558594 141.203125 211.808594 140.625 212.671875 C 140.050781 213.53125 139.21875 213.964844 138.128906 213.964844 C 137.039062 213.964844 136.207031 213.53125 135.632812 212.671875 C 135.058594 211.808594 134.769531 210.558594 134.769531 208.921875 C 134.769531 207.28125 135.058594 206.03125 135.632812 205.171875 C 136.207031 204.308594 137.039062 203.878906 138.128906 203.878906 Z M 138.128906 203.878906 "/>
<path style=" stroke:none;fill-rule:nonzero;fill:rgb(0%,0%,0%);fill-opacity:1;" d="M 143.660156 207.894531 L 145.164062 207.894531 L 145.164062 202.703125 L 143.527344 203.03125 L 143.527344 202.191406 L 145.15625 201.863281 L 146.074219 201.863281 L 146.074219 207.894531 L 147.578125 207.894531 L 147.578125 208.667969 L 143.660156 208.667969 Z M 143.660156 207.894531 "/>
<g clip-path="url(#clip3)" clip-rule="nonzero">
<path style="fill:none;stroke-width:0.8;stroke-linecap:square;stroke-linejoin:round;stroke:rgb(69.01961%,69.01961%,69.01961%);stroke-opacity:1;stroke-miterlimit:4;" d="M 151.356445 145.798828 L 151.356445 7.201172 " transform="matrix(1.333333,0,0,1.333333,0,-0.000000000000014211)"/>
</g>
<path style="fill:none;stroke-width:0.8;stroke-linecap:butt;stroke-linejoin:round;stroke:rgb(0%,0%,0%);stroke-opacity:1;stroke-miterlimit:4;" d="M -0.000411987 -0.00117493 L -0.000411987 3.499802 " transform="matrix(1.333333,0,0,1.333333,201.809143,194.400004)"/>
<path style=" stroke:none;fill-rule:nonzero;fill:rgb(0%,0%,0%);fill-opacity:1;" d="M 191.730469 212.65625 L 193.878906 212.65625 L 193.878906 205.238281 L 191.539062 205.707031 L 191.539062 204.511719 L 193.867188 204.042969 L 195.179688 204.042969 L 195.179688 212.65625 L 197.328125 212.65625 L 197.328125 213.761719 L 191.730469 213.761719 Z M 191.730469 212.65625 "/>
<path style=" stroke:none;fill-rule:nonzero;fill:rgb(0%,0%,0%);fill-opacity:1;" d="M 202.796875 204.910156 C 202.121094 204.910156 201.609375 205.242188 201.269531 205.910156 C 200.929688 206.574219 200.757812 207.574219 200.757812 208.914062 C 200.757812 210.246094 200.929688 211.242188 201.269531 211.910156 C 201.609375 212.578125 202.121094 212.910156 202.796875 212.910156 C 203.476562 212.910156 203.988281 212.578125 204.328125 211.910156 C 204.671875 211.242188 204.84375 210.246094 204.84375 208.914062 C 204.84375 207.574219 204.671875 206.574219 204.328125 205.910156 C 203.988281 205.242188 203.476562 204.910156 202.796875 204.910156 Z M 202.796875 203.867188 C 203.886719 203.867188 204.71875 204.296875 205.292969 205.160156 C 205.871094 206.023438 206.15625 207.273438 206.15625 208.914062 C 206.15625 210.546875 205.871094 211.796875 205.292969 212.660156 C 204.71875 213.523438 203.886719 213.953125 202.796875 213.953125 C 201.707031 213.953125 200.875 213.523438 200.300781 212.660156 C 199.726562 211.796875 199.4375 210.546875 199.4375 208.914062 C 199.4375 207.273438 199.726562 206.023438 200.300781 205.160156 C 200.875 204.296875 201.707031 203.867188 202.796875 203.867188 Z M 202.796875 203.867188 "/>
<path style=" stroke:none;fill-rule:nonzero;fill:rgb(0%,0%,0%);fill-opacity:1;" d="M 208.960938 207.882812 L 212.171875 207.882812 L 212.171875 208.660156 L 207.851562 208.660156 L 207.851562 207.882812 C 208.203125 207.523438 208.679688 207.039062 209.28125 206.429688 C 209.886719 205.820312 210.265625 205.425781 210.417969 205.25 C 210.714844 204.917969 210.917969 204.636719 211.035156 204.410156 C 211.152344 204.179688 211.210938 203.953125 211.210938 203.730469 C 211.210938 203.371094 211.085938 203.074219 210.832031 202.847656 C 210.578125 202.621094 210.246094 202.503906 209.839844 202.503906 C 209.550781 202.503906 209.246094 202.554688 208.925781 202.65625 C 208.605469 202.757812 208.261719 202.90625 207.898438 203.113281 L 207.898438 202.183594 C 208.269531 202.03125 208.617188 201.921875 208.9375 201.84375 C 209.261719 201.769531 209.554688 201.730469 209.820312 201.730469 C 210.527344 201.730469 211.089844 201.90625 211.507812 202.261719 C 211.925781 202.613281 212.136719 203.082031 212.136719 203.671875 C 212.136719 203.953125 212.085938 204.21875 211.980469 204.46875 C 211.875 204.71875 211.683594 205.011719 211.40625 205.355469 C 211.332031 205.441406 211.089844 205.695312 210.683594 206.117188 C 210.277344 206.539062 209.703125 207.128906 208.960938 207.882812 Z M 208.960938 207.882812 "/>
<g clip-path="url(#clip4)" clip-rule="nonzero">
<path style="fill:none;stroke-width:0.8;stroke-linecap:square;stroke-linejoin:round;stroke:rgb(69.01961%,69.01961%,69.01961%);stroke-opacity:1;stroke-miterlimit:4;" d="M 199.857422 145.798828 L 199.857422 7.201172 " transform="matrix(1.333333,0,0,1.333333,0,-0.000000000000014211)"/>
</g>
<path style="fill:none;stroke-width:0.8;stroke-linecap:butt;stroke-linejoin:round;stroke:rgb(0%,0%,0%);stroke-opacity:1;stroke-miterlimit:4;" d="M -0.000167847 -0.00117493 L -0.000167847 3.499802 " transform="matrix(1.333333,0,0,1.333333,266.476786,194.400004)"/>
<path style=" stroke:none;fill-rule:nonzero;fill:rgb(0%,0%,0%);fill-opacity:1;" d="M 256.398438 212.65625 L 258.546875 212.65625 L 258.546875 205.238281 L 256.207031 205.707031 L 256.207031 204.511719 L 258.53125 204.042969 L 259.847656 204.042969 L 259.847656 212.65625 L 261.996094 212.65625 L 261.996094 213.761719 L 256.398438 213.761719 Z M 256.398438 212.65625 "/>
<path style=" stroke:none;fill-rule:nonzero;fill:rgb(0%,0%,0%);fill-opacity:1;" d="M 267.464844 204.910156 C 266.789062 204.910156 266.277344 205.242188 265.9375 205.910156 C 265.597656 206.574219 265.425781 207.574219 265.425781 208.914062 C 265.425781 210.246094 265.597656 211.242188 265.9375 211.910156 C 266.277344 212.578125 266.789062 212.910156 267.464844 212.910156 C 268.144531 212.910156 268.65625 212.578125 268.996094 211.910156 C 269.339844 211.242188 269.511719 210.246094 269.511719 208.914062 C 269.511719 207.574219 269.339844 206.574219 268.996094 205.910156 C 268.65625 205.242188 268.144531 204.910156 267.464844 204.910156 Z M 267.464844 203.867188 C 268.554688 203.867188 269.386719 204.296875 269.960938 205.160156 C 270.535156 206.023438 270.824219 207.273438 270.824219 208.914062 C 270.824219 210.546875 270.535156 211.796875 269.960938 212.660156 C 269.386719 213.523438 268.554688 213.953125 267.464844 213.953125 C 266.375 213.953125 265.542969 213.523438 264.96875 212.660156 C 264.394531 211.796875 264.105469 210.546875 264.105469 208.914062 C 264.105469 207.273438 264.394531 206.023438 264.96875 205.160156 C 265.542969 204.296875 266.375 203.867188 267.464844 203.867188 Z M 267.464844 203.867188 "/>
<path style=" stroke:none;fill-rule:nonzero;fill:rgb(0%,0%,0%);fill-opacity:1;" d="M 275.625 204.988281 C 276.066406 205.082031 276.410156 205.28125 276.65625 205.578125 C 276.902344 205.875 277.027344 206.242188 277.027344 206.679688 C 277.027344 207.351562 276.796875 207.871094 276.335938 208.238281 C 275.871094 208.605469 275.214844 208.792969 274.367188 208.792969 C 274.082031 208.792969 273.789062 208.761719 273.484375 208.707031 C 273.183594 208.648438 272.871094 208.566406 272.550781 208.453125 L 272.550781 207.566406 C 272.804688 207.714844 273.082031 207.824219 273.386719 207.902344 C 273.691406 207.976562 274.007812 208.015625 274.339844 208.015625 C 274.917969 208.015625 275.355469 207.902344 275.65625 207.675781 C 275.960938 207.445312 276.113281 207.117188 276.113281 206.679688 C 276.113281 206.28125 275.972656 205.964844 275.691406 205.738281 C 275.410156 205.515625 275.019531 205.402344 274.519531 205.402344 L 273.722656 205.402344 L 273.722656 204.644531 L 274.554688 204.644531 C 275.007812 204.644531 275.351562 204.554688 275.59375 204.371094 C 275.832031 204.191406 275.953125 203.929688 275.953125 203.589844 C 275.953125 203.242188 275.828125 202.972656 275.582031 202.785156 C 275.332031 202.597656 274.980469 202.503906 274.519531 202.503906 C 274.265625 202.503906 273.992188 202.535156 273.707031 202.589844 C 273.417969 202.644531 273.097656 202.726562 272.753906 202.84375 L 272.753906 202.023438 C 273.101562 201.925781 273.429688 201.851562 273.734375 201.804688 C 274.042969 201.753906 274.328125 201.730469 274.597656 201.730469 C 275.296875 201.730469 275.851562 201.890625 276.257812 202.207031 C 276.664062 202.523438 276.867188 202.953125 276.867188 203.496094 C 276.867188 203.871094 276.761719 204.191406 276.542969 204.449219 C 276.328125 204.710938 276.023438 204.890625 275.625 204.988281 Z M 275.625 204.988281 "/>
<path style="fill:none;stroke-width:0.6;stroke-linecap:butt;stroke-linejoin:round;stroke:rgb(0%,0%,0%);stroke-opacity:1;stroke-miterlimit:4;" d="M 0.000232697 -0.00117493 L 0.000232697 1.999802 " transform="matrix(1.333333,0,0,1.333333,62.456721,194.400004)"/>
<path style="fill:none;stroke-width:0.6;stroke-linecap:butt;stroke-linejoin:round;stroke:rgb(0%,0%,0%);stroke-opacity:1;stroke-miterlimit:4;" d="M 0.0000839233 -0.00117493 L 0.0000839233 1.999802 " transform="matrix(1.333333,0,0,1.333333,66.206919,194.400004)"/>
<path style="fill:none;stroke-width:0.6;stroke-linecap:butt;stroke-linejoin:round;stroke:rgb(0%,0%,0%);stroke-opacity:1;stroke-miterlimit:4;" d="M 0.000591278 -0.00117493 L 0.000591278 1.999802 " transform="matrix(1.333333,0,0,1.333333,69.514837,194.400004)"/>
<path style="fill:none;stroke-width:0.6;stroke-linecap:butt;stroke-linejoin:round;stroke:rgb(0%,0%,0%);stroke-opacity:1;stroke-miterlimit:4;" d="M 0.000480652 -0.00117493 L 0.000480652 1.999802 " transform="matrix(1.333333,0,0,1.333333,91.940765,194.400004)"/>
<path style="fill:none;stroke-width:0.6;stroke-linecap:butt;stroke-linejoin:round;stroke:rgb(0%,0%,0%);stroke-opacity:1;stroke-miterlimit:4;" d="M -0.0000305176 -0.00117493 L -0.0000305176 1.999802 " transform="matrix(1.333333,0,0,1.333333,103.328166,194.400004)"/>
<path style="fill:none;stroke-width:0.6;stroke-linecap:butt;stroke-linejoin:round;stroke:rgb(0%,0%,0%);stroke-opacity:1;stroke-miterlimit:4;" d="M -0.00106049 -0.00117493 L -0.00106049 1.999802 " transform="matrix(1.333333,0,0,1.333333,111.407664,194.400004)"/>
<path style="fill:none;stroke-width:0.6;stroke-linecap:butt;stroke-linejoin:round;stroke:rgb(0%,0%,0%);stroke-opacity:1;stroke-miterlimit:4;" d="M 0.00088501 -0.00117493 L 0.00088501 1.999802 " transform="matrix(1.333333,0,0,1.333333,117.674601,194.400004)"/>
<path style="fill:none;stroke-width:0.6;stroke-linecap:butt;stroke-linejoin:round;stroke:rgb(0%,0%,0%);stroke-opacity:1;stroke-miterlimit:4;" d="M 0.0013504 -0.00117493 L 0.0013504 1.999802 " transform="matrix(1.333333,0,0,1.333333,122.795074,194.400004)"/>
<path style="fill:none;stroke-width:0.6;stroke-linecap:butt;stroke-linejoin:round;stroke:rgb(0%,0%,0%);stroke-opacity:1;stroke-miterlimit:4;" d="M 0.000480652 -0.00117493 L 0.000480652 1.999802 " transform="matrix(1.333333,0,0,1.333333,127.124359,194.400004)"/>
<path style="fill:none;stroke-width:0.6;stroke-linecap:butt;stroke-linejoin:round;stroke:rgb(0%,0%,0%);stroke-opacity:1;stroke-miterlimit:4;" d="M 0.000328064 -0.00117493 L 0.000328064 1.999802 " transform="matrix(1.333333,0,0,1.333333,130.874563,194.400004)"/>
<path style="fill:none;stroke-width:0.6;stroke-linecap:butt;stroke-linejoin:round;stroke:rgb(0%,0%,0%);stroke-opacity:1;stroke-miterlimit:4;" d="M 0.000839233 -0.00117493 L 0.000839233 1.999802 " transform="matrix(1.333333,0,0,1.333333,134.182475,194.400004)"/>
<path style="fill:none;stroke-width:0.6;stroke-linecap:butt;stroke-linejoin:round;stroke:rgb(0%,0%,0%);stroke-opacity:1;stroke-miterlimit:4;" d="M 0.000724792 -0.00117493 L 0.000724792 1.999802 " transform="matrix(1.333333,0,0,1.333333,156.608409,194.400004)"/>
<path style="fill:none;stroke-width:0.6;stroke-linecap:butt;stroke-linejoin:round;stroke:rgb(0%,0%,0%);stroke-opacity:1;stroke-miterlimit:4;" d="M 0.000213623 -0.00117493 L 0.000213623 1.999802 " transform="matrix(1.333333,0,0,1.333333,167.995809,194.400004)"/>
<path style="fill:none;stroke-width:0.6;stroke-linecap:butt;stroke-linejoin:round;stroke:rgb(0%,0%,0%);stroke-opacity:1;stroke-miterlimit:4;" d="M -0.000808716 -0.00117493 L -0.000808716 1.999802 " transform="matrix(1.333333,0,0,1.333333,176.075297,194.400004)"/>
<path style="fill:none;stroke-width:0.6;stroke-linecap:butt;stroke-linejoin:round;stroke:rgb(0%,0%,0%);stroke-opacity:1;stroke-miterlimit:4;" d="M 0.00112915 -0.00117493 L 0.00112915 1.999802 " transform="matrix(1.333333,0,0,1.333333,182.342244,194.400004)"/>
<path style="fill:none;stroke-width:0.6;stroke-linecap:butt;stroke-linejoin:round;stroke:rgb(0%,0%,0%);stroke-opacity:1;stroke-miterlimit:4;" d="M -0.00132751 -0.00117493 L -0.00132751 1.999802 " transform="matrix(1.333333,0,0,1.333333,187.462708,194.400004)"/>
<path style="fill:none;stroke-width:0.6;stroke-linecap:butt;stroke-linejoin:round;stroke:rgb(0%,0%,0%);stroke-opacity:1;stroke-miterlimit:4;" d="M 0.000717163 -0.00117493 L 0.000717163 1.999802 " transform="matrix(1.333333,0,0,1.333333,191.792013,194.400004)"/>
<path style="fill:none;stroke-width:0.6;stroke-linecap:butt;stroke-linejoin:round;stroke:rgb(0%,0%,0%);stroke-opacity:1;stroke-miterlimit:4;" d="M 0.000564575 -0.00117493 L 0.000564575 1.999802 " transform="matrix(1.333333,0,0,1.333333,195.542216,194.400004)"/>
<path style="fill:none;stroke-width:0.6;stroke-linecap:butt;stroke-linejoin:round;stroke:rgb(0%,0%,0%);stroke-opacity:1;stroke-miterlimit:4;" d="M 0.00108337 -0.00117493 L 0.00108337 1.999802 " transform="matrix(1.333333,0,0,1.333333,198.850118,194.400004)"/>
<path style="fill:none;stroke-width:0.6;stroke-linecap:butt;stroke-linejoin:round;stroke:rgb(0%,0%,0%);stroke-opacity:1;stroke-miterlimit:4;" d="M 0.000976562 -0.00117493 L 0.000976562 1.999802 " transform="matrix(1.333333,0,0,1.333333,221.276042,194.400004)"/>
<path style="fill:none;stroke-width:0.6;stroke-linecap:butt;stroke-linejoin:round;stroke:rgb(0%,0%,0%);stroke-opacity:1;stroke-miterlimit:4;" d="M 0.000457764 -0.00117493 L 0.000457764 1.999802 " transform="matrix(1.333333,0,0,1.333333,232.663452,194.400004)"/>
<path style="fill:none;stroke-width:0.6;stroke-linecap:butt;stroke-linejoin:round;stroke:rgb(0%,0%,0%);stroke-opacity:1;stroke-miterlimit:4;" d="M -0.000564575 -0.00117493 L -0.000564575 1.999802 " transform="matrix(1.333333,0,0,1.333333,240.74294,194.400004)"/>
<path style="fill:none;stroke-width:0.6;stroke-linecap:butt;stroke-linejoin:round;stroke:rgb(0%,0%,0%);stroke-opacity:1;stroke-miterlimit:4;" d="M 0.00137329 -0.00117493 L 0.00137329 1.999802 " transform="matrix(1.333333,0,0,1.333333,247.009888,194.400004)"/>
<path style="fill:none;stroke-width:0.6;stroke-linecap:butt;stroke-linejoin:round;stroke:rgb(0%,0%,0%);stroke-opacity:1;stroke-miterlimit:4;" d="M -0.00108337 -0.00117493 L -0.00108337 1.999802 " transform="matrix(1.333333,0,0,1.333333,252.130351,194.400004)"/>
<path style="fill:none;stroke-width:0.6;stroke-linecap:butt;stroke-linejoin:round;stroke:rgb(0%,0%,0%);stroke-opacity:1;stroke-miterlimit:4;" d="M 0.000961304 -0.00117493 L 0.000961304 1.999802 " transform="matrix(1.333333,0,0,1.333333,256.459656,194.400004)"/>
<path style="fill:none;stroke-width:0.6;stroke-linecap:butt;stroke-linejoin:round;stroke:rgb(0%,0%,0%);stroke-opacity:1;stroke-miterlimit:4;" d="M 0.000808716 -0.00117493 L 0.000808716 1.999802 " transform="matrix(1.333333,0,0,1.333333,260.209859,194.400004)"/>
<path style="fill:none;stroke-width:0.6;stroke-linecap:butt;stroke-linejoin:round;stroke:rgb(0%,0%,0%);stroke-opacity:1;stroke-miterlimit:4;" d="M 0.00132751 -0.00117493 L 0.00132751 1.999802 " transform="matrix(1.333333,0,0,1.333333,263.517761,194.400004)"/>
<path style="fill:none;stroke-width:0.6;stroke-linecap:butt;stroke-linejoin:round;stroke:rgb(0%,0%,0%);stroke-opacity:1;stroke-miterlimit:4;" d="M 0.0012207 -0.00117493 L 0.0012207 1.999802 " transform="matrix(1.333333,0,0,1.333333,285.943685,194.400004)"/>
<path style="fill:none;stroke-width:0.6;stroke-linecap:butt;stroke-linejoin:round;stroke:rgb(0%,0%,0%);stroke-opacity:1;stroke-miterlimit:4;" d="M 0.000701904 -0.00117493 L 0.000701904 1.999802 " transform="matrix(1.333333,0,0,1.333333,297.331095,194.400004)"/>
<path style="fill:none;stroke-width:0.6;stroke-linecap:butt;stroke-linejoin:round;stroke:rgb(0%,0%,0%);stroke-opacity:1;stroke-miterlimit:4;" d="M -0.000320435 -0.00117493 L -0.000320435 1.999802 " transform="matrix(1.333333,0,0,1.333333,305.410583,194.400004)"/>
<path style="fill:none;stroke-width:0.6;stroke-linecap:butt;stroke-linejoin:round;stroke:rgb(0%,0%,0%);stroke-opacity:1;stroke-miterlimit:4;" d="M -0.00131226 -0.00117493 L -0.00131226 1.999802 " transform="matrix(1.333333,0,0,1.333333,311.677531,194.400004)"/>
<path style="fill:none;stroke-width:0.6;stroke-linecap:butt;stroke-linejoin:round;stroke:rgb(0%,0%,0%);stroke-opacity:1;stroke-miterlimit:4;" d="M -0.000839233 -0.00117493 L -0.000839233 1.999802 " transform="matrix(1.333333,0,0,1.333333,316.797994,194.400004)"/>
<path style=" stroke:none;fill-rule:nonzero;fill:rgb(0%,0%,0%);fill-opacity:1;" d="M 166.332031 222.738281 L 166.332031 224.808594 L 168.796875 224.808594 L 168.796875 225.742188 L 166.332031 225.742188 L 166.332031 229.699219 C 166.332031 230.292969 166.410156 230.675781 166.574219 230.847656 C 166.738281 231.015625 167.066406 231.101562 167.566406 231.101562 L 168.796875 231.101562 L 168.796875 232.101562 L 167.566406 232.101562 C 166.644531 232.101562 166.003906 231.929688 165.652344 231.585938 C 165.300781 231.238281 165.125 230.609375 165.125 229.699219 L 165.125 225.742188 L 164.246094 225.742188 L 164.246094 224.808594 L 165.125 224.808594 L 165.125 222.738281 Z M 166.332031 222.738281 "/>
<path style=" stroke:none;fill-rule:nonzero;fill:rgb(0%,0%,0%);fill-opacity:1;" d="M 173.199219 225.648438 C 172.554688 225.648438 172.046875 225.902344 171.675781 226.402344 C 171.300781 226.902344 171.113281 227.589844 171.113281 228.460938 C 171.113281 229.335938 171.300781 230.023438 171.671875 230.523438 C 172.042969 231.023438 172.550781 231.273438 173.199219 231.273438 C 173.835938 231.273438 174.34375 231.023438 174.714844 230.519531 C 175.089844 230.015625 175.273438 229.332031 175.273438 228.460938 C 175.273438 227.597656 175.089844 226.914062 174.714844 226.410156 C 174.34375 225.902344 173.835938 225.648438 173.199219 225.648438 Z M 173.199219 224.636719 C 174.238281 224.636719 175.058594 224.972656 175.652344 225.652344 C 176.246094 226.328125 176.546875 227.265625 176.546875 228.460938 C 176.546875 229.65625 176.246094 230.59375 175.652344 231.273438 C 175.058594 231.953125 174.238281 232.292969 173.199219 232.292969 C 172.152344 232.292969 171.332031 231.953125 170.738281 231.273438 C 170.148438 230.59375 169.851562 229.65625 169.851562 228.460938 C 169.851562 227.265625 170.148438 226.328125 170.738281 225.652344 C 171.332031 224.972656 172.152344 224.636719 173.199219 224.636719 Z M 173.199219 224.636719 "/>
<path style=" stroke:none;fill-rule:nonzero;fill:rgb(0%,0%,0%);fill-opacity:1;" d="M 178.484375 221.972656 L 179.6875 221.972656 L 179.6875 227.953125 L 183.261719 224.808594 L 184.792969 224.808594 L 180.925781 228.222656 L 184.957031 232.101562 L 183.394531 232.101562 L 179.6875 228.542969 L 179.6875 232.101562 L 178.484375 232.101562 Z M 178.484375 221.972656 "/>
<path style=" stroke:none;fill-rule:nonzero;fill:rgb(0%,0%,0%);fill-opacity:1;" d="M 192.003906 228.15625 L 192.003906 228.742188 L 186.496094 228.742188 C 186.550781 229.566406 186.796875 230.195312 187.242188 230.628906 C 187.6875 231.058594 188.308594 231.273438 189.101562 231.273438 C 189.5625 231.273438 190.007812 231.21875 190.4375 231.105469 C 190.871094 230.992188 191.300781 230.824219 191.726562 230.597656 L 191.726562 231.730469 C 191.296875 231.914062 190.855469 232.050781 190.402344 232.148438 C 189.953125 232.242188 189.496094 232.292969 189.03125 232.292969 C 187.867188 232.292969 186.945312 231.953125 186.265625 231.277344 C 185.585938 230.597656 185.246094 229.683594 185.246094 228.527344 C 185.246094 227.335938 185.570312 226.386719 186.214844 225.6875 C 186.859375 224.984375 187.726562 224.636719 188.824219 224.636719 C 189.804688 224.636719 190.578125 224.953125 191.148438 225.582031 C 191.71875 226.214844 192.003906 227.070312 192.003906 228.15625 Z M 190.808594 227.804688 C 190.800781 227.148438 190.617188 226.628906 190.257812 226.238281 C 189.898438 225.847656 189.425781 225.648438 188.835938 225.648438 C 188.167969 225.648438 187.632812 225.839844 187.230469 226.214844 C 186.828125 226.59375 186.597656 227.125 186.535156 227.8125 Z M 190.808594 227.804688 "/>
<path style=" stroke:none;fill-rule:nonzero;fill:rgb(0%,0%,0%);fill-opacity:1;" d="M 200.035156 227.699219 L 200.035156 232.101562 L 198.835938 232.101562 L 198.835938 227.738281 C 198.835938 227.050781 198.703125 226.535156 198.433594 226.191406 C 198.164062 225.847656 197.757812 225.675781 197.222656 225.675781 C 196.574219 225.675781 196.0625 225.882812 195.691406 226.296875 C 195.316406 226.707031 195.128906 227.269531 195.128906 227.980469 L 195.128906 232.101562 L 193.925781 232.101562 L 193.925781 224.808594 L 195.128906 224.808594 L 195.128906 225.945312 C 195.417969 225.503906 195.753906 225.175781 196.140625 224.960938 C 196.53125 224.742188 196.980469 224.636719 197.488281 224.636719 C 198.324219 224.636719 198.957031 224.894531 199.386719 225.414062 C 199.820312 225.929688 200.035156 226.691406 200.035156 227.699219 Z M 200.035156 227.699219 "/>
<path style=" stroke:none;fill-rule:nonzero;fill:rgb(0%,0%,0%);fill-opacity:1;" d="M 202.726562 230.449219 L 204.101562 230.449219 L 204.101562 232.101562 L 202.726562 232.101562 Z M 202.726562 225.207031 L 204.101562 225.207031 L 204.101562 226.859375 L 202.726562 226.859375 Z M 202.726562 225.207031 "/>
<path style=" stroke:none;fill-rule:nonzero;fill:rgb(0%,0%,0%);fill-opacity:1;" d="M 217.214844 224.808594 L 214.578125 228.359375 L 217.351562 232.101562 L 215.9375 232.101562 L 213.816406 229.238281 L 211.695312 232.101562 L 210.28125 232.101562 L 213.113281 228.289062 L 210.519531 224.808594 L 211.933594 224.808594 L 213.867188 227.410156 L 215.800781 224.808594 Z M 217.214844 224.808594 "/>
<g clip-path="url(#clip5)" clip-rule="nonzero">
<path style="fill:none;stroke-width:0.8;stroke-linecap:square;stroke-linejoin:round;stroke:rgb(69.01961%,69.01961%,69.01961%);stroke-opacity:1;stroke-miterlimit:4;" d="M 45.477539 139.5 L 240.779297 139.5 " transform="matrix(1.333333,0,0,1.333333,0,-0.000000000000014211)"/>
</g>
<path style="fill:none;stroke-width:0.8;stroke-linecap:butt;stroke-linejoin:round;stroke:rgb(0%,0%,0%);stroke-opacity:1;stroke-miterlimit:4;" d="M -0.000587463 -0.000000000000028422 L -3.498634 -0.000000000000028422 " transform="matrix(1.333333,0,0,1.333333,60.637502,186)"/>
<path style=" stroke:none;fill-rule:nonzero;fill:rgb(0%,0%,0%);fill-opacity:1;" d="M 29.492188 189.855469 L 31.640625 189.855469 L 31.640625 182.441406 L 29.300781 182.910156 L 29.300781 181.710938 L 31.628906 181.242188 L 32.941406 181.242188 L 32.941406 189.855469 L 35.089844 189.855469 L 35.089844 190.964844 L 29.492188 190.964844 Z M 29.492188 189.855469 "/>
<path style=" stroke:none;fill-rule:nonzero;fill:rgb(0%,0%,0%);fill-opacity:1;" d="M 40.558594 182.109375 C 39.882812 182.109375 39.371094 182.441406 39.03125 183.109375 C 38.691406 183.773438 38.519531 184.777344 38.519531 186.113281 C 38.519531 187.445312 38.691406 188.445312 39.03125 189.113281 C 39.371094 189.777344 39.882812 190.113281 40.558594 190.113281 C 41.238281 190.113281 41.75 189.777344 42.089844 189.113281 C 42.433594 188.445312 42.605469 187.445312 42.605469 186.113281 C 42.605469 184.777344 42.433594 183.773438 42.089844 183.109375 C 41.75 182.441406 41.238281 182.109375 40.558594 182.109375 Z M 40.558594 181.066406 C 41.648438 181.066406 42.480469 181.5 43.054688 182.363281 C 43.632812 183.222656 43.917969 184.472656 43.917969 186.113281 C 43.917969 187.75 43.632812 189 43.054688 189.863281 C 42.480469 190.722656 41.648438 191.152344 40.558594 191.152344 C 39.46875 191.152344 38.636719 190.722656 38.0625 189.863281 C 37.488281 189 37.199219 187.75 37.199219 186.113281 C 37.199219 184.472656 37.488281 183.222656 38.0625 182.363281 C 38.636719 181.5 39.46875 181.066406 40.558594 181.066406 Z M 40.558594 181.066406 "/>
<path style=" stroke:none;fill-rule:nonzero;fill:rgb(0%,0%,0%);fill-opacity:1;" d="M 47.898438 179.660156 C 47.425781 179.660156 47.066406 179.894531 46.828125 180.363281 C 46.589844 180.828125 46.472656 181.527344 46.472656 182.464844 C 46.472656 183.398438 46.589844 184.097656 46.828125 184.5625 C 47.066406 185.03125 47.425781 185.261719 47.898438 185.261719 C 48.375 185.261719 48.734375 185.03125 48.972656 184.5625 C 49.210938 184.097656 49.328125 183.398438 49.328125 182.464844 C 49.328125 181.527344 49.210938 180.828125 48.972656 180.363281 C 48.734375 179.894531 48.375 179.660156 47.898438 179.660156 Z M 47.898438 178.933594 C 48.660156 178.933594 49.242188 179.234375 49.644531 179.839844 C 50.046875 180.441406 50.25 181.316406 50.25 182.464844 C 50.25 183.609375 50.046875 184.484375 49.644531 185.089844 C 49.242188 185.691406 48.660156 185.992188 47.898438 185.992188 C 47.136719 185.992188 46.554688 185.691406 46.152344 185.089844 C 45.746094 184.484375 45.546875 183.609375 45.546875 182.464844 C 45.546875 181.316406 45.746094 180.441406 46.152344 179.839844 C 46.554688 179.234375 47.136719 178.933594 47.898438 178.933594 Z M 47.898438 178.933594 "/>
<g clip-path="url(#clip6)" clip-rule="nonzero">
<path style="fill:none;stroke-width:0.8;stroke-linecap:square;stroke-linejoin:round;stroke:rgb(69.01961%,69.01961%,69.01961%);stroke-opacity:1;stroke-miterlimit:4;" d="M 45.477539 101.935547 L 240.779297 101.935547 " transform="matrix(1.333333,0,0,1.333333,0,-0.000000000000014211)"/>
</g>
<path style="fill:none;stroke-width:0.8;stroke-linecap:butt;stroke-linejoin:round;stroke:rgb(0%,0%,0%);stroke-opacity:1;stroke-miterlimit:4;" d="M -0.000587463 -0.000732422 L -3.498634 -0.000732422 " transform="matrix(1.333333,0,0,1.333333,60.637502,135.915039)"/>
<path style=" stroke:none;fill-rule:nonzero;fill:rgb(0%,0%,0%);fill-opacity:1;" d="M 29.492188 139.78125 L 31.640625 139.78125 L 31.640625 132.367188 L 29.300781 132.835938 L 29.300781 131.636719 L 31.628906 131.167969 L 32.941406 131.167969 L 32.941406 139.78125 L 35.089844 139.78125 L 35.089844 140.890625 L 29.492188 140.890625 Z M 29.492188 139.78125 "/>
<path style=" stroke:none;fill-rule:nonzero;fill:rgb(0%,0%,0%);fill-opacity:1;" d="M 40.558594 132.035156 C 39.882812 132.035156 39.371094 132.367188 39.03125 133.035156 C 38.691406 133.699219 38.519531 134.703125 38.519531 136.039062 C 38.519531 137.371094 38.691406 138.371094 39.03125 139.039062 C 39.371094 139.703125 39.882812 140.039062 40.558594 140.039062 C 41.238281 140.039062 41.75 139.703125 42.089844 139.039062 C 42.433594 138.371094 42.605469 137.371094 42.605469 136.039062 C 42.605469 134.703125 42.433594 133.699219 42.089844 133.035156 C 41.75 132.367188 41.238281 132.035156 40.558594 132.035156 Z M 40.558594 130.992188 C 41.648438 130.992188 42.480469 131.425781 43.054688 132.289062 C 43.632812 133.148438 43.917969 134.398438 43.917969 136.039062 C 43.917969 137.675781 43.632812 138.925781 43.054688 139.789062 C 42.480469 140.648438 41.648438 141.078125 40.558594 141.078125 C 39.46875 141.078125 38.636719 140.648438 38.0625 139.789062 C 37.488281 138.925781 37.199219 137.675781 37.199219 136.039062 C 37.199219 134.398438 37.488281 133.148438 38.0625 132.289062 C 38.636719 131.425781 39.46875 130.992188 40.558594 130.992188 Z M 40.558594 130.992188 "/>
<path style=" stroke:none;fill-rule:nonzero;fill:rgb(0%,0%,0%);fill-opacity:1;" d="M 46.089844 135.011719 L 47.59375 135.011719 L 47.59375 129.820312 L 45.957031 130.148438 L 45.957031 129.308594 L 47.582031 128.980469 L 48.503906 128.980469 L 48.503906 135.011719 L 50.007812 135.011719 L 50.007812 135.785156 L 46.089844 135.785156 Z M 46.089844 135.011719 "/>
<g clip-path="url(#clip7)" clip-rule="nonzero">
<path style="fill:none;stroke-width:0.8;stroke-linecap:square;stroke-linejoin:round;stroke:rgb(69.01961%,69.01961%,69.01961%);stroke-opacity:1;stroke-miterlimit:4;" d="M 45.477539 64.374023 L 240.779297 64.374023 " transform="matrix(1.333333,0,0,1.333333,0,-0.000000000000014211)"/>
</g>
<path style="fill:none;stroke-width:0.8;stroke-linecap:butt;stroke-linejoin:round;stroke:rgb(0%,0%,0%);stroke-opacity:1;stroke-miterlimit:4;" d="M -0.000587463 0.00145721 L -3.498634 0.00145721 " transform="matrix(1.333333,0,0,1.333333,60.637502,85.830088)"/>
<path style=" stroke:none;fill-rule:nonzero;fill:rgb(0%,0%,0%);fill-opacity:1;" d="M 29.492188 89.6875 L 31.640625 89.6875 L 31.640625 82.269531 L 29.300781 82.738281 L 29.300781 81.542969 L 31.628906 81.074219 L 32.941406 81.074219 L 32.941406 89.6875 L 35.089844 89.6875 L 35.089844 90.792969 L 29.492188 90.792969 Z M 29.492188 89.6875 "/>
<path style=" stroke:none;fill-rule:nonzero;fill:rgb(0%,0%,0%);fill-opacity:1;" d="M 40.558594 81.941406 C 39.882812 81.941406 39.371094 82.273438 39.03125 82.941406 C 38.691406 83.605469 38.519531 84.605469 38.519531 85.945312 C 38.519531 87.277344 38.691406 88.273438 39.03125 88.941406 C 39.371094 89.609375 39.882812 89.941406 40.558594 89.941406 C 41.238281 89.941406 41.75 89.609375 42.089844 88.941406 C 42.433594 88.273438 42.605469 87.277344 42.605469 85.945312 C 42.605469 84.605469 42.433594 83.605469 42.089844 82.941406 C 41.75 82.273438 41.238281 81.941406 40.558594 81.941406 Z M 40.558594 80.898438 C 41.648438 80.898438 42.480469 81.328125 43.054688 82.191406 C 43.632812 83.050781 43.917969 84.304688 43.917969 85.945312 C 43.917969 87.578125 43.632812 88.828125 43.054688 89.691406 C 42.480469 90.550781 41.648438 90.984375 40.558594 90.984375 C 39.46875 90.984375 38.636719 90.550781 38.0625 89.691406 C 37.488281 88.828125 37.199219 87.578125 37.199219 85.945312 C 37.199219 84.304688 37.488281 83.050781 38.0625 82.191406 C 38.636719 81.328125 39.46875 80.898438 40.558594 80.898438 Z M 40.558594 80.898438 "/>
<path style=" stroke:none;fill-rule:nonzero;fill:rgb(0%,0%,0%);fill-opacity:1;" d="M 46.722656 84.914062 L 49.933594 84.914062 L 49.933594 85.691406 L 45.613281 85.691406 L 45.613281 84.914062 C 45.964844 84.554688 46.441406 84.066406 47.042969 83.460938 C 47.648438 82.851562 48.027344 82.457031 48.179688 82.28125 C 48.476562 81.949219 48.679688 81.667969 48.796875 81.441406 C 48.914062 81.210938 48.972656 80.984375 48.972656 80.761719 C 48.972656 80.402344 48.847656 80.105469 48.59375 79.878906 C 48.339844 79.652344 48.007812 79.535156 47.601562 79.535156 C 47.3125 79.535156 47.007812 79.585938 46.6875 79.6875 C 46.367188 79.785156 46.023438 79.9375 45.660156 80.144531 L 45.660156 79.214844 C 46.03125 79.0625 46.375 78.953125 46.699219 78.875 C 47.023438 78.800781 47.316406 78.761719 47.582031 78.761719 C 48.289062 78.761719 48.851562 78.9375 49.269531 79.292969 C 49.6875 79.644531 49.898438 80.113281 49.898438 80.703125 C 49.898438 80.984375 49.847656 81.25 49.742188 81.5 C 49.636719 81.75 49.445312 82.042969 49.167969 82.386719 C 49.09375 82.472656 48.851562 82.726562 48.445312 83.148438 C 48.039062 83.570312 47.464844 84.160156 46.722656 84.914062 Z M 46.722656 84.914062 "/>
<g clip-path="url(#clip8)" clip-rule="nonzero">
<path style="fill:none;stroke-width:0.8;stroke-linecap:square;stroke-linejoin:round;stroke:rgb(69.01961%,69.01961%,69.01961%);stroke-opacity:1;stroke-miterlimit:4;" d="M 45.477539 26.80957 L 240.779297 26.80957 " transform="matrix(1.333333,0,0,1.333333,0,-0.000000000000014211)"/>
</g>
<path style="fill:none;stroke-width:0.8;stroke-linecap:butt;stroke-linejoin:round;stroke:rgb(0%,0%,0%);stroke-opacity:1;stroke-miterlimit:4;" d="M -0.000587463 0.000724792 L -3.498634 0.000724792 " transform="matrix(1.333333,0,0,1.333333,60.637502,35.745127)"/>
<path style=" stroke:none;fill-rule:nonzero;fill:rgb(0%,0%,0%);fill-opacity:1;" d="M 29.492188 39.601562 L 31.640625 39.601562 L 31.640625 32.1875 L 29.300781 32.65625 L 29.300781 31.457031 L 31.628906 30.988281 L 32.941406 30.988281 L 32.941406 39.601562 L 35.089844 39.601562 L 35.089844 40.707031 L 29.492188 40.707031 Z M 29.492188 39.601562 "/>
<path style=" stroke:none;fill-rule:nonzero;fill:rgb(0%,0%,0%);fill-opacity:1;" d="M 40.558594 31.855469 C 39.882812 31.855469 39.371094 32.1875 39.03125 32.855469 C 38.691406 33.519531 38.519531 34.519531 38.519531 35.859375 C 38.519531 37.191406 38.691406 38.191406 39.03125 38.855469 C 39.371094 39.523438 39.882812 39.855469 40.558594 39.855469 C 41.238281 39.855469 41.75 39.523438 42.089844 38.855469 C 42.433594 38.191406 42.605469 37.191406 42.605469 35.859375 C 42.605469 34.519531 42.433594 33.519531 42.089844 32.855469 C 41.75 32.1875 41.238281 31.855469 40.558594 31.855469 Z M 40.558594 30.8125 C 41.648438 30.8125 42.480469 31.242188 43.054688 32.105469 C 43.632812 32.96875 43.917969 34.21875 43.917969 35.859375 C 43.917969 37.496094 43.632812 38.742188 43.054688 39.605469 C 42.480469 40.46875 41.648438 40.898438 40.558594 40.898438 C 39.46875 40.898438 38.636719 40.46875 38.0625 39.605469 C 37.488281 38.742188 37.199219 37.496094 37.199219 35.859375 C 37.199219 34.21875 37.488281 32.96875 38.0625 32.105469 C 38.636719 31.242188 39.46875 30.8125 40.558594 30.8125 Z M 40.558594 30.8125 "/>
<path style=" stroke:none;fill-rule:nonzero;fill:rgb(0%,0%,0%);fill-opacity:1;" d="M 48.71875 31.933594 C 49.160156 32.03125 49.503906 32.226562 49.75 32.523438 C 49.996094 32.820312 50.121094 33.191406 50.121094 33.628906 C 50.121094 34.296875 49.890625 34.816406 49.429688 35.1875 C 48.96875 35.554688 48.3125 35.738281 47.460938 35.738281 C 47.175781 35.738281 46.882812 35.710938 46.578125 35.652344 C 46.277344 35.597656 45.964844 35.511719 45.644531 35.398438 L 45.644531 34.511719 C 45.898438 34.660156 46.175781 34.773438 46.480469 34.847656 C 46.785156 34.921875 47.101562 34.960938 47.433594 34.960938 C 48.011719 34.960938 48.449219 34.847656 48.753906 34.621094 C 49.054688 34.394531 49.207031 34.0625 49.207031 33.628906 C 49.207031 33.226562 49.066406 32.910156 48.785156 32.6875 C 48.503906 32.460938 48.113281 32.347656 47.613281 32.347656 L 46.816406 32.347656 L 46.816406 31.589844 L 47.648438 31.589844 C 48.101562 31.589844 48.445312 31.5 48.6875 31.320312 C 48.925781 31.136719 49.046875 30.878906 49.046875 30.535156 C 49.046875 30.1875 48.921875 29.917969 48.675781 29.734375 C 48.429688 29.546875 48.074219 29.453125 47.613281 29.453125 C 47.359375 29.453125 47.089844 29.480469 46.800781 29.535156 C 46.511719 29.589844 46.191406 29.675781 45.847656 29.789062 L 45.847656 28.96875 C 46.195312 28.871094 46.523438 28.800781 46.828125 28.75 C 47.136719 28.703125 47.421875 28.675781 47.691406 28.675781 C 48.390625 28.675781 48.945312 28.835938 49.351562 29.152344 C 49.757812 29.472656 49.960938 29.898438 49.960938 30.441406 C 49.960938 30.816406 49.855469 31.136719 49.640625 31.394531 C 49.421875 31.65625 49.117188 31.835938 48.71875 31.933594 Z M 48.71875 31.933594 "/>
<path style="fill:none;stroke-width:0.6;stroke-linecap:butt;stroke-linejoin:round;stroke:rgb(0%,0%,0%);stroke-opacity:1;stroke-miterlimit:4;" d="M -0.000587463 -0.000335693 L -1.998634 -0.000335693 " transform="matrix(1.333333,0,0,1.333333,60.637502,193.75826)"/>
<path style="fill:none;stroke-width:0.6;stroke-linecap:butt;stroke-linejoin:round;stroke:rgb(0%,0%,0%);stroke-opacity:1;stroke-miterlimit:4;" d="M -0.000587463 0.001297 L -1.998634 0.001297 " transform="matrix(1.333333,0,0,1.333333,60.637502,190.853739)"/>
<path style="fill:none;stroke-width:0.6;stroke-linecap:butt;stroke-linejoin:round;stroke:rgb(0%,0%,0%);stroke-opacity:1;stroke-miterlimit:4;" d="M -0.000587463 0.000900269 L -1.998634 0.000900269 " transform="matrix(1.333333,0,0,1.333333,60.637502,188.291768)"/>
<path style="fill:none;stroke-width:0.6;stroke-linecap:butt;stroke-linejoin:round;stroke:rgb(0%,0%,0%);stroke-opacity:1;stroke-miterlimit:4;" d="M -0.000587463 -0.000793457 L -1.998634 -0.000793457 " transform="matrix(1.333333,0,0,1.333333,60.637502,170.922933)"/>
<path style="fill:none;stroke-width:0.6;stroke-linecap:butt;stroke-linejoin:round;stroke:rgb(0%,0%,0%);stroke-opacity:1;stroke-miterlimit:4;" d="M -0.000587463 -0.00138092 L -1.998634 -0.00138092 " transform="matrix(1.333333,0,0,1.333333,60.637502,162.103404)"/>
<path style="fill:none;stroke-width:0.6;stroke-linecap:butt;stroke-linejoin:round;stroke:rgb(0%,0%,0%);stroke-opacity:1;stroke-miterlimit:4;" d="M -0.000587463 0.0013504 L -1.998634 0.0013504 " transform="matrix(1.333333,0,0,1.333333,60.637502,155.845856)"/>
<path style="fill:none;stroke-width:0.6;stroke-linecap:butt;stroke-linejoin:round;stroke:rgb(0%,0%,0%);stroke-opacity:1;stroke-miterlimit:4;" d="M -0.000587463 0.0000534058 L -1.998634 0.0000534058 " transform="matrix(1.333333,0,0,1.333333,60.637502,150.992116)"/>
<path style="fill:none;stroke-width:0.6;stroke-linecap:butt;stroke-linejoin:round;stroke:rgb(0%,0%,0%);stroke-opacity:1;stroke-miterlimit:4;" d="M -0.000587463 0.000762939 L -1.998634 0.000762939 " transform="matrix(1.333333,0,0,1.333333,60.637502,147.026326)"/>
<path style="fill:none;stroke-width:0.6;stroke-linecap:butt;stroke-linejoin:round;stroke:rgb(0%,0%,0%);stroke-opacity:1;stroke-miterlimit:4;" d="M -0.000587463 -0.00106812 L -1.998634 -0.00106812 " transform="matrix(1.333333,0,0,1.333333,60.637502,143.673299)"/>
<path style="fill:none;stroke-width:0.6;stroke-linecap:butt;stroke-linejoin:round;stroke:rgb(0%,0%,0%);stroke-opacity:1;stroke-miterlimit:4;" d="M -0.000587463 0.000564575 L -1.998634 0.000564575 " transform="matrix(1.333333,0,0,1.333333,60.637502,140.768778)"/>
<path style="fill:none;stroke-width:0.6;stroke-linecap:butt;stroke-linejoin:round;stroke:rgb(0%,0%,0%);stroke-opacity:1;stroke-miterlimit:4;" d="M -0.000587463 0.000167847 L -1.998634 0.000167847 " transform="matrix(1.333333,0,0,1.333333,60.637502,138.206807)"/>
<path style="fill:none;stroke-width:0.6;stroke-linecap:butt;stroke-linejoin:round;stroke:rgb(0%,0%,0%);stroke-opacity:1;stroke-miterlimit:4;" d="M -0.000587463 0.00140381 L -1.998634 0.00140381 " transform="matrix(1.333333,0,0,1.333333,60.637502,120.837972)"/>
<path style="fill:none;stroke-width:0.6;stroke-linecap:butt;stroke-linejoin:round;stroke:rgb(0%,0%,0%);stroke-opacity:1;stroke-miterlimit:4;" d="M -0.000587463 0.000816345 L -1.998634 0.000816345 " transform="matrix(1.333333,0,0,1.333333,60.637502,112.018443)"/>
<path style="fill:none;stroke-width:0.6;stroke-linecap:butt;stroke-linejoin:round;stroke:rgb(0%,0%,0%);stroke-opacity:1;stroke-miterlimit:4;" d="M -0.000587463 0.000617981 L -1.998634 0.000617981 " transform="matrix(1.333333,0,0,1.333333,60.637502,105.760895)"/>
<path style="fill:none;stroke-width:0.6;stroke-linecap:butt;stroke-linejoin:round;stroke:rgb(0%,0%,0%);stroke-opacity:1;stroke-miterlimit:4;" d="M -0.000587463 -0.000679016 L -1.998634 -0.000679016 " transform="matrix(1.333333,0,0,1.333333,60.637502,100.907155)"/>
<path style="fill:none;stroke-width:0.6;stroke-linecap:butt;stroke-linejoin:round;stroke:rgb(0%,0%,0%);stroke-opacity:1;stroke-miterlimit:4;" d="M -0.000587463 0.0000228882 L -1.998634 0.0000228882 " transform="matrix(1.333333,0,0,1.333333,60.637502,96.941376)"/>
<path style="fill:none;stroke-width:0.6;stroke-linecap:butt;stroke-linejoin:round;stroke:rgb(0%,0%,0%);stroke-opacity:1;stroke-miterlimit:4;" d="M -0.000587463 0.00112152 L -1.998634 0.00112152 " transform="matrix(1.333333,0,0,1.333333,60.637502,93.588348)"/>
<path style="fill:none;stroke-width:0.6;stroke-linecap:butt;stroke-linejoin:round;stroke:rgb(0%,0%,0%);stroke-opacity:1;stroke-miterlimit:4;" d="M -0.000587463 -0.000167847 L -1.998634 -0.000167847 " transform="matrix(1.333333,0,0,1.333333,60.637502,90.683818)"/>
<path style="fill:none;stroke-width:0.6;stroke-linecap:butt;stroke-linejoin:round;stroke:rgb(0%,0%,0%);stroke-opacity:1;stroke-miterlimit:4;" d="M -0.000587463 -0.000564575 L -1.998634 -0.000564575 " transform="matrix(1.333333,0,0,1.333333,60.637502,88.121847)"/>
<path style="fill:none;stroke-width:0.6;stroke-linecap:butt;stroke-linejoin:round;stroke:rgb(0%,0%,0%);stroke-opacity:1;stroke-miterlimit:4;" d="M -0.000587463 0.000671387 L -1.998634 0.000671387 " transform="matrix(1.333333,0,0,1.333333,60.637502,70.753011)"/>
<path style="fill:none;stroke-width:0.6;stroke-linecap:butt;stroke-linejoin:round;stroke:rgb(0%,0%,0%);stroke-opacity:1;stroke-miterlimit:4;" d="M -0.000587463 0.0000801086 L -1.998634 0.0000801086 " transform="matrix(1.333333,0,0,1.333333,60.637502,61.933487)"/>
<path style="fill:none;stroke-width:0.6;stroke-linecap:butt;stroke-linejoin:round;stroke:rgb(0%,0%,0%);stroke-opacity:1;stroke-miterlimit:4;" d="M -0.000587463 -0.000118256 L -1.998634 -0.000118256 " transform="matrix(1.333333,0,0,1.333333,60.637502,55.675939)"/>
<path style="fill:none;stroke-width:0.6;stroke-linecap:butt;stroke-linejoin:round;stroke:rgb(0%,0%,0%);stroke-opacity:1;stroke-miterlimit:4;" d="M -0.000587463 -0.00141907 L -1.998634 -0.00141907 " transform="matrix(1.333333,0,0,1.333333,60.637502,50.822205)"/>
<path style="fill:none;stroke-width:0.6;stroke-linecap:butt;stroke-linejoin:round;stroke:rgb(0%,0%,0%);stroke-opacity:1;stroke-miterlimit:4;" d="M -0.000587463 -0.000709534 L -1.998634 -0.000709534 " transform="matrix(1.333333,0,0,1.333333,60.637502,46.856415)"/>
<path style="fill:none;stroke-width:0.6;stroke-linecap:butt;stroke-linejoin:round;stroke:rgb(0%,0%,0%);stroke-opacity:1;stroke-miterlimit:4;" d="M -0.000587463 0.000389099 L -1.998634 0.000389099 " transform="matrix(1.333333,0,0,1.333333,60.637502,43.503387)"/>
<path style="fill:none;stroke-width:0.6;stroke-linecap:butt;stroke-linejoin:round;stroke:rgb(0%,0%,0%);stroke-opacity:1;stroke-miterlimit:4;" d="M -0.000587463 -0.000904083 L -1.998634 -0.000904083 " transform="matrix(1.333333,0,0,1.333333,60.637502,40.598862)"/>
<path style="fill:none;stroke-width:0.6;stroke-linecap:butt;stroke-linejoin:round;stroke:rgb(0%,0%,0%);stroke-opacity:1;stroke-miterlimit:4;" d="M -0.000587463 -0.00130081 L -1.998634 -0.00130081 " transform="matrix(1.333333,0,0,1.333333,60.637502,38.036891)"/>
<path style="fill:none;stroke-width:0.6;stroke-linecap:butt;stroke-linejoin:round;stroke:rgb(0%,0%,0%);stroke-opacity:1;stroke-miterlimit:4;" d="M -0.000587463 -0.0000648499 L -1.998634 -0.0000648499 " transform="matrix(1.333333,0,0,1.333333,60.637502,20.668055)"/>
<path style="fill:none;stroke-width:0.6;stroke-linecap:butt;stroke-linejoin:round;stroke:rgb(0%,0%,0%);stroke-opacity:1;stroke-miterlimit:4;" d="M -0.000587463 -0.000656128 L -1.998634 -0.000656128 " transform="matrix(1.333333,0,0,1.333333,60.637502,11.848531)"/>
<path style=" stroke:none;fill-rule:nonzero;fill:rgb(0%,0%,0%);fill-opacity:1;" d="M 9.601562 147.742188 L 10.597656 147.742188 L 10.597656 148.886719 C 10.597656 149.316406 10.683594 149.617188 10.859375 149.785156 C 11.03125 149.949219 11.34375 150.035156 11.796875 150.035156 L 12.441406 150.035156 L 12.441406 148.058594 L 13.371094 148.058594 L 13.371094 150.035156 L 19.730469 150.035156 L 19.730469 151.238281 L 13.371094 151.238281 L 13.371094 152.382812 L 12.441406 152.382812 L 12.441406 151.238281 L 11.929688 151.238281 C 11.121094 151.238281 10.527344 151.046875 10.160156 150.671875 C 9.785156 150.292969 9.601562 149.695312 9.601562 148.875 Z M 9.601562 147.742188 "/>
<path style=" stroke:none;fill-rule:nonzero;fill:rgb(0%,0%,0%);fill-opacity:1;" d="M 13.558594 142.515625 C 13.480469 142.648438 13.421875 142.796875 13.386719 142.953125 C 13.351562 143.113281 13.332031 143.285156 13.332031 143.476562 C 13.332031 144.15625 13.550781 144.675781 13.992188 145.039062 C 14.433594 145.398438 15.066406 145.582031 15.890625 145.582031 L 19.730469 145.582031 L 19.730469 146.785156 L 12.441406 146.785156 L 12.441406 145.582031 L 13.574219 145.582031 C 13.128906 145.328125 12.800781 145 12.585938 144.597656 C 12.371094 144.195312 12.265625 143.703125 12.265625 143.125 C 12.265625 143.042969 12.269531 142.953125 12.28125 142.851562 C 12.289062 142.75 12.308594 142.640625 12.328125 142.519531 Z M 13.558594 142.515625 "/>
<path style=" stroke:none;fill-rule:nonzero;fill:rgb(0%,0%,0%);fill-opacity:1;" d="M 15.785156 135.320312 L 16.371094 135.320312 L 16.371094 140.828125 C 17.195312 140.777344 17.824219 140.527344 18.257812 140.082031 C 18.6875 139.636719 18.902344 139.019531 18.902344 138.222656 C 18.902344 137.765625 18.847656 137.320312 18.734375 136.886719 C 18.621094 136.453125 18.453125 136.027344 18.226562 135.597656 L 19.359375 135.597656 C 19.542969 136.03125 19.679688 136.472656 19.777344 136.921875 C 19.871094 137.375 19.921875 137.832031 19.921875 138.296875 C 19.921875 139.457031 19.582031 140.378906 18.90625 141.058594 C 18.226562 141.738281 17.3125 142.078125 16.15625 142.078125 C 14.964844 142.078125 14.015625 141.757812 13.316406 141.113281 C 12.617188 140.46875 12.265625 139.597656 12.265625 138.503906 C 12.265625 137.523438 12.582031 136.746094 13.210938 136.175781 C 13.84375 135.605469 14.699219 135.320312 15.785156 135.320312 Z M 15.433594 136.519531 C 14.777344 136.527344 14.257812 136.710938 13.867188 137.066406 C 13.476562 137.425781 13.277344 137.902344 13.277344 138.492188 C 13.277344 139.160156 13.46875 139.695312 13.847656 140.09375 C 14.222656 140.496094 14.753906 140.726562 15.441406 140.789062 Z M 15.433594 136.519531 "/>
<path style=" stroke:none;fill-rule:nonzero;fill:rgb(0%,0%,0%);fill-opacity:1;" d="M 16.089844 132.636719 C 16.972656 132.636719 17.664062 132.457031 18.164062 132.09375 C 18.664062 131.730469 18.917969 131.234375 18.917969 130.601562 C 18.917969 129.96875 18.664062 129.46875 18.164062 129.105469 C 17.664062 128.738281 16.972656 128.554688 16.089844 128.554688 C 15.210938 128.554688 14.519531 128.738281 14.019531 129.105469 C 13.515625 129.46875 13.265625 129.96875 13.265625 130.601562 C 13.265625 131.234375 13.515625 131.730469 14.019531 132.09375 C 14.519531 132.457031 15.210938 132.636719 16.089844 132.636719 Z M 18.636719 128.554688 C 19.070312 128.808594 19.394531 129.125 19.605469 129.511719 C 19.816406 129.894531 19.921875 130.355469 19.921875 130.894531 C 19.921875 131.773438 19.570312 132.492188 18.867188 133.046875 C 18.164062 133.597656 17.238281 133.875 16.089844 133.875 C 14.945312 133.875 14.023438 133.597656 13.320312 133.046875 C 12.617188 132.492188 12.265625 131.773438 12.265625 130.894531 C 12.265625 130.355469 12.371094 129.894531 12.582031 129.511719 C 12.789062 129.125 13.113281 128.808594 13.546875 128.554688 L 12.441406 128.554688 L 12.441406 127.359375 L 22.503906 127.359375 L 22.503906 128.554688 Z M 18.636719 128.554688 "/>
<path style=" stroke:none;fill-rule:nonzero;fill:rgb(0%,0%,0%);fill-opacity:1;" d="M 16.855469 125.015625 L 12.441406 125.015625 L 12.441406 123.816406 L 16.808594 123.816406 C 17.5 123.816406 18.015625 123.683594 18.363281 123.414062 C 18.707031 123.144531 18.878906 122.738281 18.878906 122.203125 C 18.878906 121.554688 18.671875 121.046875 18.261719 120.671875 C 17.847656 120.292969 17.285156 120.105469 16.574219 120.105469 L 12.441406 120.105469 L 12.441406 118.90625 L 19.730469 118.90625 L 19.730469 120.105469 L 18.609375 120.105469 C 19.054688 120.394531 19.382812 120.734375 19.597656 121.117188 C 19.8125 121.5 19.921875 121.945312 19.921875 122.457031 C 19.921875 123.292969 19.660156 123.929688 19.140625 124.363281 C 18.617188 124.796875 17.855469 125.015625 16.855469 125.015625 Z M 12.265625 122 Z M 12.265625 122 "/>
<path style=" stroke:none;fill-rule:nonzero;fill:rgb(0%,0%,0%);fill-opacity:1;" d="M 15.785156 110.203125 L 16.371094 110.203125 L 16.371094 115.710938 C 17.195312 115.660156 17.824219 115.410156 18.257812 114.964844 C 18.6875 114.519531 18.902344 113.902344 18.902344 113.105469 C 18.902344 112.648438 18.847656 112.203125 18.734375 111.769531 C 18.621094 111.335938 18.453125 110.910156 18.226562 110.480469 L 19.359375 110.480469 C 19.542969 110.914062 19.679688 111.355469 19.777344 111.804688 C 19.871094 112.257812 19.921875 112.714844 19.921875 113.179688 C 19.921875 114.339844 19.582031 115.261719 18.90625 115.941406 C 18.226562 116.621094 17.3125 116.960938 16.15625 116.960938 C 14.964844 116.960938 14.015625 116.640625 13.316406 115.996094 C 12.617188 115.351562 12.265625 114.480469 12.265625 113.386719 C 12.265625 112.40625 12.582031 111.628906 13.210938 111.058594 C 13.84375 110.488281 14.699219 110.203125 15.785156 110.203125 Z M 15.433594 111.402344 C 14.777344 111.410156 14.257812 111.59375 13.867188 111.949219 C 13.476562 112.308594 13.277344 112.785156 13.277344 113.375 C 13.277344 114.042969 13.46875 114.578125 13.847656 114.976562 C 14.222656 115.378906 14.753906 115.609375 15.441406 115.671875 Z M 15.433594 111.402344 "/>
<path style=" stroke:none;fill-rule:nonzero;fill:rgb(0%,0%,0%);fill-opacity:1;" d="M 15.328125 102.175781 L 19.730469 102.175781 L 19.730469 103.371094 L 15.367188 103.371094 C 14.679688 103.371094 14.164062 103.507812 13.820312 103.777344 C 13.476562 104.046875 13.304688 104.449219 13.304688 104.988281 C 13.304688 105.632812 13.511719 106.144531 13.925781 106.519531 C 14.335938 106.890625 14.898438 107.078125 15.609375 107.078125 L 19.730469 107.078125 L 19.730469 108.28125 L 12.441406 108.28125 L 12.441406 107.078125 L 13.574219 107.078125 C 13.132812 106.792969 12.804688 106.453125 12.589844 106.066406 C 12.371094 105.675781 12.265625 105.230469 12.265625 104.71875 C 12.265625 103.882812 12.523438 103.25 13.042969 102.820312 C 13.558594 102.390625 14.320312 102.175781 15.328125 102.175781 Z M 15.328125 102.175781 "/>
<path style=" stroke:none;fill-rule:nonzero;fill:rgb(0%,0%,0%);fill-opacity:1;" d="M 12.71875 94.539062 L 13.839844 94.539062 C 13.652344 94.878906 13.511719 95.21875 13.417969 95.558594 C 13.324219 95.898438 13.277344 96.242188 13.277344 96.589844 C 13.277344 97.367188 13.527344 97.972656 14.019531 98.402344 C 14.511719 98.832031 15.203125 99.046875 16.089844 99.046875 C 16.980469 99.046875 17.671875 98.832031 18.167969 98.402344 C 18.660156 97.972656 18.902344 97.367188 18.902344 96.589844 C 18.902344 96.242188 18.859375 95.898438 18.765625 95.558594 C 18.671875 95.21875 18.53125 94.878906 18.34375 94.539062 L 19.453125 94.539062 C 19.609375 94.875 19.722656 95.21875 19.800781 95.578125 C 19.882812 95.933594 19.921875 96.316406 19.921875 96.71875 C 19.921875 97.820312 19.574219 98.691406 18.886719 99.339844 C 18.195312 99.984375 17.265625 100.308594 16.089844 100.308594 C 14.902344 100.308594 13.96875 99.980469 13.289062 99.328125 C 12.605469 98.675781 12.265625 97.777344 12.265625 96.640625 C 12.265625 96.273438 12.304688 95.914062 12.378906 95.5625 C 12.453125 95.210938 12.566406 94.871094 12.71875 94.539062 Z M 12.71875 94.539062 "/>
<path style=" stroke:none;fill-rule:nonzero;fill:rgb(0%,0%,0%);fill-opacity:1;" d="M 20.410156 89.421875 C 21.277344 89.761719 21.84375 90.089844 22.105469 90.414062 C 22.371094 90.734375 22.503906 91.164062 22.503906 91.699219 L 22.503906 92.65625 L 21.503906 92.65625 L 21.503906 91.953125 C 21.503906 91.625 21.421875 91.371094 21.265625 91.1875 C 21.109375 91.003906 20.742188 90.800781 20.160156 90.582031 L 19.613281 90.367188 L 12.441406 93.3125 L 12.441406 92.046875 L 18.140625 89.765625 L 12.441406 87.488281 L 12.441406 86.21875 Z M 20.410156 89.421875 "/>
<path style=" stroke:none;fill-rule:nonzero;fill:rgb(0%,0%,0%);fill-opacity:1;" d="M 18.078125 85.226562 L 18.078125 83.851562 L 19.730469 83.851562 L 19.730469 85.226562 Z M 12.835938 85.226562 L 12.835938 83.851562 L 14.488281 83.851562 L 14.488281 85.226562 Z M 12.835938 85.226562 "/>
<path style=" stroke:none;fill-rule:nonzero;fill:rgb(0%,0%,0%);fill-opacity:1;" d="M 15.328125 70.738281 L 19.730469 70.738281 L 19.730469 71.9375 L 15.367188 71.9375 C 14.679688 71.9375 14.164062 72.070312 13.820312 72.339844 C 13.476562 72.609375 13.304688 73.015625 13.304688 73.550781 C 13.304688 74.199219 13.511719 74.710938 13.925781 75.082031 C 14.335938 75.457031 14.898438 75.644531 15.609375 75.644531 L 19.730469 75.644531 L 19.730469 76.847656 L 12.441406 76.847656 L 12.441406 75.644531 L 13.574219 75.644531 C 13.132812 75.355469 12.804688 75.019531 12.589844 74.628906 C 12.371094 74.242188 12.265625 73.792969 12.265625 73.285156 C 12.265625 72.449219 12.523438 71.8125 13.042969 71.386719 C 13.558594 70.953125 14.320312 70.738281 15.328125 70.738281 Z M 15.328125 70.738281 "/>
<path style=" stroke:none;fill-rule:nonzero;fill:rgb(0%,0%,0%);fill-opacity:1;" d="M 9.613281 65.472656 C 10.613281 66.054688 11.597656 66.488281 12.578125 66.769531 C 13.554688 67.050781 14.542969 67.191406 15.546875 67.191406 C 16.546875 67.191406 17.539062 67.050781 18.523438 66.765625 C 19.507812 66.480469 20.496094 66.050781 21.488281 65.472656 L 21.488281 66.515625 C 20.46875 67.164062 19.464844 67.652344 18.480469 67.976562 C 17.496094 68.300781 16.519531 68.460938 15.546875 68.460938 C 14.578125 68.460938 13.601562 68.300781 12.621094 67.980469 C 11.640625 67.65625 10.636719 67.167969 9.613281 66.515625 Z M 9.613281 65.472656 "/>
<path style=" stroke:none;fill-rule:nonzero;fill:rgb(0%,0%,0%);fill-opacity:1;" d="M 12.441406 57.085938 L 15.988281 59.722656 L 19.730469 56.953125 L 19.730469 58.363281 L 16.867188 60.488281 L 19.730469 62.609375 L 19.730469 64.023438 L 15.917969 61.1875 L 12.441406 63.78125 L 12.441406 62.367188 L 15.039062 60.433594 L 12.441406 58.5 Z M 12.441406 57.085938 "/>
<path style=" stroke:none;fill-rule:nonzero;fill:rgb(0%,0%,0%);fill-opacity:1;" d="M 9.613281 55.445312 L 9.613281 54.40625 C 10.636719 53.753906 11.640625 53.269531 12.621094 52.945312 C 13.601562 52.621094 14.578125 52.457031 15.546875 52.457031 C 16.519531 52.457031 17.496094 52.621094 18.480469 52.945312 C 19.464844 53.269531 20.46875 53.753906 21.488281 54.40625 L 21.488281 55.445312 C 20.496094 54.871094 19.507812 54.4375 18.523438 54.15625 C 17.539062 53.871094 16.546875 53.726562 15.546875 53.726562 C 14.542969 53.726562 13.554688 53.871094 12.578125 54.15625 C 11.597656 54.4375 10.613281 54.871094 9.613281 55.445312 Z M 9.613281 55.445312 "/>
<g clip-path="url(#clip9)" clip-rule="nonzero">
<path style="fill:none;stroke-width:1.5;stroke-linecap:square;stroke-linejoin:round;stroke:rgb(12.156863%,46.666667%,70.588237%);stroke-opacity:1;stroke-miterlimit:4;" d="M -0.999023 22.936523 L 54.354492 22.948242 L 68.956055 23.235352 L 77.496094 24.457031 L 83.554687 30.125977 L 88.256836 32.745117 L 92.097656 36.503906 L 95.34375 36.832031 L 98.15625 40.089844 L 102.855469 40.3125 L 104.862305 43.749023 L 106.696289 47.516602 L 108.383789 48.169922 L 111.395508 51.436523 L 112.754883 51.808594 L 114.032227 52.743164 L 115.236328 53.06543 L 116.375977 56.90918 L 117.457031 57.541992 L 118.485352 59.238281 L 119.463867 59.238281 L 120.401367 59.598633 L 121.297852 60.219727 L 122.15625 60.474609 L 122.982422 60.996094 L 123.776367 61.12793 L 125.282227 61.12793 L 126.688477 61.672852 L 127.356445 62.235352 L 128.003906 62.235352 L 128.633789 62.378906 L 129.243164 62.378906 L 129.837891 62.522461 L 130.415039 63.421875 L 130.974609 63.577148 L 131.522461 63.890625 L 132.055664 65.381836 L 133.083984 65.733398 L 133.579102 65.733398 L 134.06543 65.912109 L 134.537109 66.272461 L 136.330078 67.022461 L 137.173828 67.022461 L 137.583984 67.21582 L 137.985352 67.21582 L 138.37793 67.611328 L 139.142578 68.636719 L 139.517578 69.064453 L 139.883789 69.28418 L 140.595703 69.28418 L 141.955078 70.192383 L 142.605469 70.192383 L 142.921875 70.426758 L 143.232422 71.150391 L 143.540039 72.169922 L 144.436523 72.981445 L 144.726562 72.981445 L 145.013672 73.543945 L 145.576172 73.543945 L 145.851562 74.126953 L 146.124023 74.425781 L 146.390625 74.425781 L 147.685547 76.010742 L 148.901367 76.010742 L 149.138672 76.347656 L 149.370117 76.347656 L 149.601562 76.69043 L 149.827148 76.69043 L 150.052734 77.041992 L 150.714844 77.041992 L 150.931641 77.399414 L 151.145508 77.399414 L 151.567383 78.140625 L 151.980469 78.140625 L 152.182617 78.524414 L 152.384766 78.524414 L 152.783203 79.321289 L 153.363281 79.321289 L 153.744141 80.15625 L 153.931641 80.15625 L 154.116211 80.592773 L 154.842773 80.592773 L 155.021484 81.038086 L 155.888672 81.038086 L 156.055664 81.498047 L 156.720703 81.498047 L 156.881836 81.972656 L 157.678711 81.972656 L 157.833984 82.458984 L 158.141602 82.458984 L 158.293945 82.959961 L 158.891602 82.959961 L 159.038086 83.478516 L 159.328125 83.478516 L 159.47168 84.014648 L 159.755859 84.014648 L 159.896484 84.56543 L 160.037109 84.56543 L 160.177734 85.139648 L 160.857422 85.139648 L 160.992187 85.731445 L 161.519531 85.731445 L 161.648437 86.349609 L 162.410156 86.349609 L 162.533203 86.988281 L 162.902344 86.988281 L 163.022461 87.65332 L 163.50293 87.65332 L 163.620117 88.347656 L 164.200195 88.347656 L 164.314453 89.074219 L 165.424805 89.074219 L 165.638672 89.833008 L 166.374023 89.833008 L 166.579102 90.629883 L 167.674805 90.629883 L 167.868164 91.464844 L 168.717773 91.464844 L 168.902344 92.34668 L 169.174805 92.34668 L 169.353516 93.27832 L 169.97168 93.27832 L 170.144531 94.268555 L 171.483398 94.268555 L 171.644531 95.320312 L 172.432617 95.320312 L 172.587891 96.448242 L 173.490234 96.448242 L 173.636719 97.655273 L 175.256836 97.655273 L 175.391602 98.961914 L 176.375977 98.961914 L 176.504883 100.382812 L 178.338867 100.382812 L 178.456055 101.935547 L 180.451172 101.935547 L 180.609375 103.655273 L 182.419922 103.655273 L 182.563477 105.577148 L 185.258789 105.577148 L 185.384766 107.753906 L 188.52832 107.753906 L 188.671875 110.270508 L 191.671875 110.270508 L 191.794922 113.244141 L 195.755859 113.244141 L 195.881836 116.885742 L 200.724609 116.885742 L 200.844727 121.576172 L 207.213867 121.576172 L 207.331055 128.191406 L 216.28125 128.191406 L 216.398437 139.5 L 231.899414 139.5 " transform="matrix(1.333333,0,0,1.333333,0,-0.000000000000014211)"/>
</g>
<path style="fill:none;stroke-width:0.8;stroke-linecap:square;stroke-linejoin:miter;stroke:rgb(0%,0%,0%);stroke-opacity:1;stroke-miterlimit:4;" d="M 45.477539 145.798828 L 45.477539 7.201172 " transform="matrix(1.333333,0,0,1.333333,0,-0.000000000000014211)"/>
<path style="fill:none;stroke-width:0.8;stroke-linecap:square;stroke-linejoin:miter;stroke:rgb(0%,0%,0%);stroke-opacity:1;stroke-miterlimit:4;" d="M 240.779297 145.798828 L 240.779297 7.201172 " transform="matrix(1.333333,0,0,1.333333,0,-0.000000000000014211)"/>
<path style="fill:none;stroke-width:0.8;stroke-linecap:square;stroke-linejoin:miter;stroke:rgb(0%,0%,0%);stroke-opacity:1;stroke-miterlimit:4;" d="M 45.477539 145.798828 L 240.779297 145.798828 " transform="matrix(1.333333,0,0,1.333333,0,-0.000000000000014211)"/>
<path style="fill:none;stroke-width:0.8;stroke-linecap:square;stroke-linejoin:miter;stroke:rgb(0%,0%,0%);stroke-opacity:1;stroke-miterlimit:4;" d="M 45.477539 7.201172 L 240.779297 7.201172 " transform="matrix(1.333333,0,0,1.333333,0,-0.000000000000014211)"/>
</g>
</svg>
