<?xml version="1.0" encoding="UTF-8"?>
<svg xmlns="http://www.w3.org/2000/svg" xmlns:xlink="http://www.w3.org/1999/xlink" width="336.858337" height="244.474996" viewBox="0 0 336.858337 244.474996" version="1.1">
<g id="surface1">
<path style=" stroke:none;fill-rule:nonzero;fill:rgb(100%,100%,100%);fill-opacity:1;" d="M 0 244.476562 L 336.859375 244.476562 L 336.859375 0 L 0 0 Z M 0 244.476562 "/>
<path style=" stroke:none;fill-rule:nonzero;fill:rgb(100%,100%,100%);fill-opacity:1;" d="M 66.859375 194.398438 L 327.257812 194.398438 L 327.257812 9.601562 L 66.859375 9.601562 Z M 66.859375 194.398438 "/>
<path style="fill:none;stroke-width:0.8;stroke-linecap:butt;stroke-linejoin:round;stroke:rgb(0%,0%,0%);stroke-opacity:1;stroke-miterlimit:4;" d="M 0.000461578 -0.00117493 L 0.000461578 3.499802 " transform="matrix(1.333333,0,0,1.333333,78.694697,194.400004)"/>
<path style=" stroke:none;fill-rule:nonzero;fill:rgb(0%,0%,0%);fill-opacity:1;" d="M 76.105469 212.757812 L 78.253906 212.757812 L 78.253906 205.339844 L 75.917969 205.808594 L 75.917969 204.613281 L 78.242188 204.144531 L 79.558594 204.144531 L 79.558594 212.757812 L 81.707031 212.757812 L 81.707031 213.863281 L 76.105469 213.863281 Z M 76.105469 212.757812 "/>
<path style="fill:none;stroke-width:0.8;stroke-linecap:butt;stroke-linejoin:round;stroke:rgb(0%,0%,0%);stroke-opacity:1;stroke-miterlimit:4;" d="M -0.00113678 -0.00117493 L -0.00113678 3.499802 " transform="matrix(1.333333,0,0,1.333333,137.876516,194.400004)"/>
<path style=" stroke:none;fill-rule:nonzero;fill:rgb(0%,0%,0%);fill-opacity:1;" d="M 136.191406 212.757812 L 140.78125 212.757812 L 140.78125 213.863281 L 134.613281 213.863281 L 134.613281 212.757812 C 135.109375 212.242188 135.789062 211.546875 136.652344 210.679688 C 137.515625 209.808594 138.054688 209.246094 138.277344 208.992188 C 138.699219 208.523438 138.992188 208.121094 139.15625 207.792969 C 139.324219 207.464844 139.410156 207.144531 139.410156 206.828125 C 139.410156 206.308594 139.230469 205.890625 138.867188 205.566406 C 138.503906 205.238281 138.03125 205.074219 137.449219 205.074219 C 137.035156 205.074219 136.601562 205.148438 136.144531 205.289062 C 135.6875 205.433594 135.199219 205.648438 134.675781 205.941406 L 134.675781 204.613281 C 135.207031 204.398438 135.699219 204.238281 136.160156 204.132812 C 136.621094 204.023438 137.042969 203.96875 137.425781 203.96875 C 138.429688 203.96875 139.234375 204.222656 139.832031 204.726562 C 140.429688 205.226562 140.730469 205.898438 140.730469 206.742188 C 140.730469 207.140625 140.65625 207.519531 140.503906 207.878906 C 140.355469 208.234375 140.085938 208.65625 139.6875 209.144531 C 139.582031 209.269531 139.234375 209.632812 138.652344 210.234375 C 138.074219 210.835938 137.253906 211.679688 136.191406 212.757812 Z M 136.191406 212.757812 "/>
<path style="fill:none;stroke-width:0.8;stroke-linecap:butt;stroke-linejoin:round;stroke:rgb(0%,0%,0%);stroke-opacity:1;stroke-miterlimit:4;" d="M 0.000198364 -0.00117493 L 0.000198364 3.499802 " transform="matrix(1.333333,0,0,1.333333,197.058329,194.400004)"/>
<path style=" stroke:none;fill-rule:nonzero;fill:rgb(0%,0%,0%);fill-opacity:1;" d="M 198.226562 208.621094 C 198.855469 208.757812 199.347656 209.039062 199.699219 209.464844 C 200.054688 209.890625 200.230469 210.414062 200.230469 211.039062 C 200.230469 211.996094 199.902344 212.742188 199.242188 213.265625 C 198.582031 213.792969 197.644531 214.054688 196.429688 214.054688 C 196.023438 214.054688 195.601562 214.015625 195.171875 213.933594 C 194.738281 213.851562 194.292969 213.730469 193.832031 213.570312 L 193.832031 212.300781 C 194.195312 212.515625 194.597656 212.675781 195.027344 212.785156 C 195.464844 212.890625 195.917969 212.945312 196.390625 212.945312 C 197.214844 212.945312 197.84375 212.785156 198.273438 212.457031 C 198.707031 212.132812 198.921875 211.660156 198.921875 211.039062 C 198.921875 210.464844 198.722656 210.019531 198.320312 209.695312 C 197.917969 209.371094 197.359375 209.210938 196.644531 209.210938 L 195.511719 209.210938 L 195.511719 208.128906 L 196.699219 208.128906 C 197.34375 208.128906 197.839844 208 198.179688 207.742188 C 198.523438 207.484375 198.695312 207.109375 198.695312 206.625 C 198.695312 206.125 198.519531 205.742188 198.164062 205.476562 C 197.8125 205.210938 197.304688 205.074219 196.644531 205.074219 C 196.285156 205.074219 195.898438 205.113281 195.484375 205.195312 C 195.074219 205.273438 194.621094 205.390625 194.125 205.554688 L 194.125 204.386719 C 194.625 204.246094 195.09375 204.140625 195.527344 204.074219 C 195.964844 204.003906 196.375 203.96875 196.761719 203.96875 C 197.761719 203.96875 198.550781 204.195312 199.132812 204.648438 C 199.714844 205.101562 200.003906 205.714844 200.003906 206.488281 C 200.003906 207.027344 199.851562 207.480469 199.542969 207.851562 C 199.234375 208.222656 198.796875 208.480469 198.226562 208.621094 Z M 198.226562 208.621094 "/>
<path style="fill:none;stroke-width:0.8;stroke-linecap:butt;stroke-linejoin:round;stroke:rgb(0%,0%,0%);stroke-opacity:1;stroke-miterlimit:4;" d="M -0.00140381 -0.00117493 L -0.00140381 3.499802 " transform="matrix(1.333333,0,0,1.333333,256.240153,194.400004)"/>
<path style=" stroke:none;fill-rule:nonzero;fill:rgb(0%,0%,0%);fill-opacity:1;" d="M 257.039062 205.289062 L 253.71875 210.480469 L 257.039062 210.480469 Z M 256.691406 204.144531 L 258.347656 204.144531 L 258.347656 210.480469 L 259.734375 210.480469 L 259.734375 211.574219 L 258.347656 211.574219 L 258.347656 213.863281 L 257.039062 213.863281 L 257.039062 211.574219 L 252.652344 211.574219 L 252.652344 210.304688 Z M 256.691406 204.144531 "/>
<path style="fill:none;stroke-width:0.8;stroke-linecap:butt;stroke-linejoin:round;stroke:rgb(0%,0%,0%);stroke-opacity:1;stroke-miterlimit:4;" d="M -0.0000762939 -0.00117493 L -0.0000762939 3.499802 " transform="matrix(1.333333,0,0,1.333333,315.421977,194.400004)"/>
<path style=" stroke:none;fill-rule:nonzero;fill:rgb(0%,0%,0%);fill-opacity:1;" d="M 312.621094 204.144531 L 317.78125 204.144531 L 317.78125 205.253906 L 313.824219 205.253906 L 313.824219 207.632812 C 314.015625 207.566406 314.203125 207.519531 314.394531 207.488281 C 314.585938 207.457031 314.777344 207.441406 314.96875 207.441406 C 316.054688 207.441406 316.914062 207.738281 317.546875 208.332031 C 318.183594 208.925781 318.5 209.730469 318.5 210.746094 C 318.5 211.792969 318.171875 212.605469 317.523438 213.183594 C 316.871094 213.765625 315.953125 214.054688 314.769531 214.054688 C 314.359375 214.054688 313.945312 214.019531 313.519531 213.949219 C 313.097656 213.878906 312.660156 213.777344 312.210938 213.636719 L 312.210938 212.316406 C 312.601562 212.527344 313.003906 212.683594 313.417969 212.789062 C 313.835938 212.894531 314.277344 212.945312 314.742188 212.945312 C 315.492188 212.945312 316.085938 212.75 316.523438 212.355469 C 316.964844 211.960938 317.183594 211.421875 317.183594 210.746094 C 317.183594 210.070312 316.964844 209.535156 316.523438 209.140625 C 316.085938 208.742188 315.492188 208.546875 314.742188 208.546875 C 314.390625 208.546875 314.039062 208.585938 313.6875 208.664062 C 313.339844 208.742188 312.984375 208.863281 312.621094 209.027344 Z M 312.621094 204.144531 "/>
<path style=" stroke:none;fill-rule:nonzero;fill:rgb(0%,0%,0%);fill-opacity:1;" d="M 200.429688 224.808594 L 197.792969 228.359375 L 200.566406 232.101562 L 199.152344 232.101562 L 197.03125 229.238281 L 194.910156 232.101562 L 193.496094 232.101562 L 196.328125 228.289062 L 193.738281 224.808594 L 195.148438 224.808594 L 197.082031 227.410156 L 199.015625 224.808594 Z M 200.429688 224.808594 "/>
<path style="fill:none;stroke-width:0.8;stroke-linecap:butt;stroke-linejoin:round;stroke:rgb(0%,0%,0%);stroke-opacity:1;stroke-miterlimit:4;" d="M 0.000782013 0 L -3.500195 0 " transform="matrix(1.333333,0,0,1.333333,66.858332,186)"/>
<path style=" stroke:none;fill-rule:nonzero;fill:rgb(0%,0%,0%);fill-opacity:1;" d="M 32.074219 182.210938 C 31.398438 182.210938 30.890625 182.542969 30.546875 183.210938 C 30.207031 183.875 30.039062 184.878906 30.039062 186.214844 C 30.039062 187.546875 30.207031 188.546875 30.546875 189.214844 C 30.890625 189.878906 31.398438 190.214844 32.074219 190.214844 C 32.757812 190.214844 33.269531 189.878906 33.609375 189.214844 C 33.949219 188.546875 34.121094 187.546875 34.121094 186.214844 C 34.121094 184.878906 33.949219 183.875 33.609375 183.210938 C 33.269531 182.542969 32.757812 182.210938 32.074219 182.210938 Z M 32.074219 181.167969 C 33.164062 181.167969 33.996094 181.601562 34.574219 182.464844 C 35.148438 183.324219 35.433594 184.574219 35.433594 186.214844 C 35.433594 187.851562 35.148438 189.101562 34.574219 189.964844 C 33.996094 190.824219 33.164062 191.253906 32.074219 191.253906 C 30.984375 191.253906 30.152344 190.824219 29.578125 189.964844 C 29.003906 189.101562 28.714844 187.851562 28.714844 186.214844 C 28.714844 184.574219 29.003906 183.324219 29.578125 182.464844 C 30.152344 181.601562 30.984375 181.167969 32.074219 181.167969 Z M 32.074219 181.167969 "/>
<path style=" stroke:none;fill-rule:nonzero;fill:rgb(0%,0%,0%);fill-opacity:1;" d="M 37.746094 189.410156 L 39.121094 189.410156 L 39.121094 191.066406 L 37.746094 191.066406 Z M 37.746094 189.410156 "/>
<path style=" stroke:none;fill-rule:nonzero;fill:rgb(0%,0%,0%);fill-opacity:1;" d="M 44.796875 182.210938 C 44.121094 182.210938 43.609375 182.542969 43.269531 183.210938 C 42.929688 183.875 42.757812 184.878906 42.757812 186.214844 C 42.757812 187.546875 42.929688 188.546875 43.269531 189.214844 C 43.609375 189.878906 44.121094 190.214844 44.796875 190.214844 C 45.476562 190.214844 45.988281 189.878906 46.328125 189.214844 C 46.671875 188.546875 46.84375 187.546875 46.84375 186.214844 C 46.84375 184.878906 46.671875 183.875 46.328125 183.210938 C 45.988281 182.542969 45.476562 182.210938 44.796875 182.210938 Z M 44.796875 181.167969 C 45.886719 181.167969 46.71875 181.601562 47.292969 182.464844 C 47.871094 183.324219 48.15625 184.574219 48.15625 186.214844 C 48.15625 187.851562 47.871094 189.101562 47.292969 189.964844 C 46.71875 190.824219 45.886719 191.253906 44.796875 191.253906 C 43.707031 191.253906 42.875 190.824219 42.300781 189.964844 C 41.726562 189.101562 41.4375 187.851562 41.4375 186.214844 C 41.4375 184.574219 41.726562 183.324219 42.300781 182.464844 C 42.875 181.601562 43.707031 181.167969 44.796875 181.167969 Z M 44.796875 181.167969 "/>
<path style=" stroke:none;fill-rule:nonzero;fill:rgb(0%,0%,0%);fill-opacity:1;" d="M 53.28125 182.210938 C 52.601562 182.210938 52.09375 182.542969 51.753906 183.210938 C 51.410156 183.875 51.242188 184.878906 51.242188 186.214844 C 51.242188 187.546875 51.410156 188.546875 51.753906 189.214844 C 52.09375 189.878906 52.601562 190.214844 53.28125 190.214844 C 53.960938 190.214844 54.472656 189.878906 54.8125 189.214844 C 55.15625 188.546875 55.324219 187.546875 55.324219 186.214844 C 55.324219 184.878906 55.15625 183.875 54.8125 183.210938 C 54.472656 182.542969 53.960938 182.210938 53.28125 182.210938 Z M 53.28125 181.167969 C 54.371094 181.167969 55.203125 181.601562 55.777344 182.464844 C 56.351562 183.324219 56.640625 184.574219 56.640625 186.214844 C 56.640625 187.851562 56.351562 189.101562 55.777344 189.964844 C 55.203125 190.824219 54.371094 191.253906 53.28125 191.253906 C 52.191406 191.253906 51.359375 190.824219 50.785156 189.964844 C 50.207031 189.101562 49.921875 187.851562 49.921875 186.214844 C 49.921875 184.574219 50.207031 183.324219 50.785156 182.464844 C 51.359375 181.601562 52.191406 181.167969 53.28125 181.167969 Z M 53.28125 181.167969 "/>
<path style="fill:none;stroke-width:0.8;stroke-linecap:butt;stroke-linejoin:round;stroke:rgb(0%,0%,0%);stroke-opacity:1;stroke-miterlimit:4;" d="M 0.000782013 -0.000000000000014211 L -3.500195 -0.000000000000014211 " transform="matrix(1.333333,0,0,1.333333,66.858332,144)"/>
<path style=" stroke:none;fill-rule:nonzero;fill:rgb(0%,0%,0%);fill-opacity:1;" d="M 32.074219 140.210938 C 31.398438 140.210938 30.890625 140.542969 30.546875 141.210938 C 30.207031 141.875 30.039062 142.878906 30.039062 144.214844 C 30.039062 145.546875 30.207031 146.546875 30.546875 147.214844 C 30.890625 147.878906 31.398438 148.214844 32.074219 148.214844 C 32.757812 148.214844 33.269531 147.878906 33.609375 147.214844 C 33.949219 146.546875 34.121094 145.546875 34.121094 144.214844 C 34.121094 142.878906 33.949219 141.875 33.609375 141.210938 C 33.269531 140.542969 32.757812 140.210938 32.074219 140.210938 Z M 32.074219 139.167969 C 33.164062 139.167969 33.996094 139.601562 34.574219 140.464844 C 35.148438 141.324219 35.433594 142.574219 35.433594 144.214844 C 35.433594 145.851562 35.148438 147.101562 34.574219 147.964844 C 33.996094 148.824219 33.164062 149.253906 32.074219 149.253906 C 30.984375 149.253906 30.152344 148.824219 29.578125 147.964844 C 29.003906 147.101562 28.714844 145.851562 28.714844 144.214844 C 28.714844 142.574219 29.003906 141.324219 29.578125 140.464844 C 30.152344 139.601562 30.984375 139.167969 32.074219 139.167969 Z M 32.074219 139.167969 "/>
<path style=" stroke:none;fill-rule:nonzero;fill:rgb(0%,0%,0%);fill-opacity:1;" d="M 37.746094 147.410156 L 39.121094 147.410156 L 39.121094 149.066406 L 37.746094 149.066406 Z M 37.746094 147.410156 "/>
<path style=" stroke:none;fill-rule:nonzero;fill:rgb(0%,0%,0%);fill-opacity:1;" d="M 44.796875 140.210938 C 44.121094 140.210938 43.609375 140.542969 43.269531 141.210938 C 42.929688 141.875 42.757812 142.878906 42.757812 144.214844 C 42.757812 145.546875 42.929688 146.546875 43.269531 147.214844 C 43.609375 147.878906 44.121094 148.214844 44.796875 148.214844 C 45.476562 148.214844 45.988281 147.878906 46.328125 147.214844 C 46.671875 146.546875 46.84375 145.546875 46.84375 144.214844 C 46.84375 142.878906 46.671875 141.875 46.328125 141.210938 C 45.988281 140.542969 45.476562 140.210938 44.796875 140.210938 Z M 44.796875 139.167969 C 45.886719 139.167969 46.71875 139.601562 47.292969 140.464844 C 47.871094 141.324219 48.15625 142.574219 48.15625 144.214844 C 48.15625 145.851562 47.871094 147.101562 47.292969 147.964844 C 46.71875 148.824219 45.886719 149.253906 44.796875 149.253906 C 43.707031 149.253906 42.875 148.824219 42.300781 147.964844 C 41.726562 147.101562 41.4375 145.851562 41.4375 144.214844 C 41.4375 142.574219 41.726562 141.324219 42.300781 140.464844 C 42.875 139.601562 43.707031 139.167969 44.796875 139.167969 Z M 44.796875 139.167969 "/>
<path style=" stroke:none;fill-rule:nonzero;fill:rgb(0%,0%,0%);fill-opacity:1;" d="M 50.480469 139.34375 L 55.644531 139.34375 L 55.644531 140.453125 L 51.6875 140.453125 L 51.6875 142.835938 C 51.875 142.769531 52.066406 142.71875 52.257812 142.6875 C 52.449219 142.65625 52.640625 142.640625 52.832031 142.640625 C 53.917969 142.640625 54.773438 142.9375 55.410156 143.53125 C 56.042969 144.125 56.359375 144.929688 56.359375 145.945312 C 56.359375 146.992188 56.035156 147.804688 55.382812 148.386719 C 54.730469 148.964844 53.8125 149.253906 52.628906 149.253906 C 52.222656 149.253906 51.804688 149.21875 51.382812 149.152344 C 50.960938 149.082031 50.523438 148.976562 50.070312 148.839844 L 50.070312 147.515625 C 50.460938 147.726562 50.863281 147.886719 51.28125 147.992188 C 51.699219 148.09375 52.136719 148.148438 52.601562 148.148438 C 53.355469 148.148438 53.949219 147.949219 54.386719 147.554688 C 54.824219 147.160156 55.042969 146.625 55.042969 145.945312 C 55.042969 145.269531 54.824219 144.734375 54.386719 144.339844 C 53.949219 143.945312 53.355469 143.746094 52.601562 143.746094 C 52.25 143.746094 51.898438 143.785156 51.550781 143.863281 C 51.203125 143.941406 50.84375 144.0625 50.480469 144.226562 Z M 50.480469 139.34375 "/>
<path style="fill:none;stroke-width:0.8;stroke-linecap:butt;stroke-linejoin:round;stroke:rgb(0%,0%,0%);stroke-opacity:1;stroke-miterlimit:4;" d="M 0.000782013 -0.000000000000014211 L -3.500195 -0.000000000000014211 " transform="matrix(1.333333,0,0,1.333333,66.858332,102)"/>
<path style=" stroke:none;fill-rule:nonzero;fill:rgb(0%,0%,0%);fill-opacity:1;" d="M 32.074219 98.210938 C 31.398438 98.210938 30.890625 98.542969 30.546875 99.210938 C 30.207031 99.875 30.039062 100.878906 30.039062 102.214844 C 30.039062 103.546875 30.207031 104.546875 30.546875 105.214844 C 30.890625 105.878906 31.398438 106.214844 32.074219 106.214844 C 32.757812 106.214844 33.269531 105.878906 33.609375 105.214844 C 33.949219 104.546875 34.121094 103.546875 34.121094 102.214844 C 34.121094 100.878906 33.949219 99.875 33.609375 99.210938 C 33.269531 98.542969 32.757812 98.210938 32.074219 98.210938 Z M 32.074219 97.167969 C 33.164062 97.167969 33.996094 97.601562 34.574219 98.464844 C 35.148438 99.324219 35.433594 100.574219 35.433594 102.214844 C 35.433594 103.851562 35.148438 105.101562 34.574219 105.964844 C 33.996094 106.824219 33.164062 107.253906 32.074219 107.253906 C 30.984375 107.253906 30.152344 106.824219 29.578125 105.964844 C 29.003906 105.101562 28.714844 103.851562 28.714844 102.214844 C 28.714844 100.574219 29.003906 99.324219 29.578125 98.464844 C 30.152344 97.601562 30.984375 97.167969 32.074219 97.167969 Z M 32.074219 97.167969 "/>
<path style=" stroke:none;fill-rule:nonzero;fill:rgb(0%,0%,0%);fill-opacity:1;" d="M 37.746094 105.410156 L 39.121094 105.410156 L 39.121094 107.066406 L 37.746094 107.066406 Z M 37.746094 105.410156 "/>
<path style=" stroke:none;fill-rule:nonzero;fill:rgb(0%,0%,0%);fill-opacity:1;" d="M 42.214844 105.960938 L 44.359375 105.960938 L 44.359375 98.542969 L 42.023438 99.011719 L 42.023438 97.8125 L 44.347656 97.34375 L 45.664062 97.34375 L 45.664062 105.960938 L 47.8125 105.960938 L 47.8125 107.066406 L 42.214844 107.066406 Z M 42.214844 105.960938 "/>
<path style=" stroke:none;fill-rule:nonzero;fill:rgb(0%,0%,0%);fill-opacity:1;" d="M 53.28125 98.210938 C 52.601562 98.210938 52.09375 98.542969 51.753906 99.210938 C 51.410156 99.875 51.242188 100.878906 51.242188 102.214844 C 51.242188 103.546875 51.410156 104.546875 51.753906 105.214844 C 52.09375 105.878906 52.601562 106.214844 53.28125 106.214844 C 53.960938 106.214844 54.472656 105.878906 54.8125 105.214844 C 55.15625 104.546875 55.324219 103.546875 55.324219 102.214844 C 55.324219 100.878906 55.15625 99.875 54.8125 99.210938 C 54.472656 98.542969 53.960938 98.210938 53.28125 98.210938 Z M 53.28125 97.167969 C 54.371094 97.167969 55.203125 97.601562 55.777344 98.464844 C 56.351562 99.324219 56.640625 100.574219 56.640625 102.214844 C 56.640625 103.851562 56.351562 105.101562 55.777344 105.964844 C 55.203125 106.824219 54.371094 107.253906 53.28125 107.253906 C 52.191406 107.253906 51.359375 106.824219 50.785156 105.964844 C 50.207031 105.101562 49.921875 103.851562 49.921875 102.214844 C 49.921875 100.574219 50.207031 99.324219 50.785156 98.464844 C 51.359375 97.601562 52.191406 97.167969 53.28125 97.167969 Z M 53.28125 97.167969 "/>
<path style="fill:none;stroke-width:0.8;stroke-linecap:butt;stroke-linejoin:round;stroke:rgb(0%,0%,0%);stroke-opacity:1;stroke-miterlimit:4;" d="M 0.000782013 -0.000000000000014211 L -3.500195 -0.000000000000014211 " transform="matrix(1.333333,0,0,1.333333,66.858332,60)"/>
<path style=" stroke:none;fill-rule:nonzero;fill:rgb(0%,0%,0%);fill-opacity:1;" d="M 32.074219 56.210938 C 31.398438 56.210938 30.890625 56.542969 30.546875 57.210938 C 30.207031 57.875 30.039062 58.878906 30.039062 60.214844 C 30.039062 61.546875 30.207031 62.546875 30.546875 63.214844 C 30.890625 63.878906 31.398438 64.214844 32.074219 64.214844 C 32.757812 64.214844 33.269531 63.878906 33.609375 63.214844 C 33.949219 62.546875 34.121094 61.546875 34.121094 60.214844 C 34.121094 58.878906 33.949219 57.875 33.609375 57.210938 C 33.269531 56.542969 32.757812 56.210938 32.074219 56.210938 Z M 32.074219 55.167969 C 33.164062 55.167969 33.996094 55.601562 34.574219 56.464844 C 35.148438 57.324219 35.433594 58.574219 35.433594 60.214844 C 35.433594 61.851562 35.148438 63.101562 34.574219 63.964844 C 33.996094 64.824219 33.164062 65.253906 32.074219 65.253906 C 30.984375 65.253906 30.152344 64.824219 29.578125 63.964844 C 29.003906 63.101562 28.714844 61.851562 28.714844 60.214844 C 28.714844 58.574219 29.003906 57.324219 29.578125 56.464844 C 30.152344 55.601562 30.984375 55.167969 32.074219 55.167969 Z M 32.074219 55.167969 "/>
<path style=" stroke:none;fill-rule:nonzero;fill:rgb(0%,0%,0%);fill-opacity:1;" d="M 37.746094 63.410156 L 39.121094 63.410156 L 39.121094 65.066406 L 37.746094 65.066406 Z M 37.746094 63.410156 "/>
<path style=" stroke:none;fill-rule:nonzero;fill:rgb(0%,0%,0%);fill-opacity:1;" d="M 42.214844 63.960938 L 44.359375 63.960938 L 44.359375 56.542969 L 42.023438 57.011719 L 42.023438 55.8125 L 44.347656 55.34375 L 45.664062 55.34375 L 45.664062 63.960938 L 47.8125 63.960938 L 47.8125 65.066406 L 42.214844 65.066406 Z M 42.214844 63.960938 "/>
<path style=" stroke:none;fill-rule:nonzero;fill:rgb(0%,0%,0%);fill-opacity:1;" d="M 50.480469 55.34375 L 55.644531 55.34375 L 55.644531 56.453125 L 51.6875 56.453125 L 51.6875 58.835938 C 51.875 58.769531 52.066406 58.71875 52.257812 58.6875 C 52.449219 58.65625 52.640625 58.640625 52.832031 58.640625 C 53.917969 58.640625 54.773438 58.9375 55.410156 59.53125 C 56.042969 60.125 56.359375 60.929688 56.359375 61.945312 C 56.359375 62.992188 56.035156 63.804688 55.382812 64.386719 C 54.730469 64.964844 53.8125 65.253906 52.628906 65.253906 C 52.222656 65.253906 51.804688 65.21875 51.382812 65.152344 C 50.960938 65.082031 50.523438 64.976562 50.070312 64.839844 L 50.070312 63.515625 C 50.460938 63.726562 50.863281 63.886719 51.28125 63.992188 C 51.699219 64.09375 52.136719 64.148438 52.601562 64.148438 C 53.355469 64.148438 53.949219 63.949219 54.386719 63.554688 C 54.824219 63.160156 55.042969 62.625 55.042969 61.945312 C 55.042969 61.269531 54.824219 60.734375 54.386719 60.339844 C 53.949219 59.945312 53.355469 59.746094 52.601562 59.746094 C 52.25 59.746094 51.898438 59.785156 51.550781 59.863281 C 51.203125 59.941406 50.84375 60.0625 50.480469 60.226562 Z M 50.480469 55.34375 "/>
<path style="fill:none;stroke-width:0.8;stroke-linecap:butt;stroke-linejoin:round;stroke:rgb(0%,0%,0%);stroke-opacity:1;stroke-miterlimit:4;" d="M 0.000782013 -0.000000000000010658 L -3.500195 -0.000000000000010658 " transform="matrix(1.333333,0,0,1.333333,66.858332,18)"/>
<path style=" stroke:none;fill-rule:nonzero;fill:rgb(0%,0%,0%);fill-opacity:1;" d="M 32.074219 14.210938 C 31.398438 14.210938 30.890625 14.542969 30.546875 15.210938 C 30.207031 15.875 30.039062 16.878906 30.039062 18.214844 C 30.039062 19.546875 30.207031 20.546875 30.546875 21.214844 C 30.890625 21.878906 31.398438 22.214844 32.074219 22.214844 C 32.757812 22.214844 33.269531 21.878906 33.609375 21.214844 C 33.949219 20.546875 34.121094 19.546875 34.121094 18.214844 C 34.121094 16.878906 33.949219 15.875 33.609375 15.210938 C 33.269531 14.542969 32.757812 14.210938 32.074219 14.210938 Z M 32.074219 13.167969 C 33.164062 13.167969 33.996094 13.601562 34.574219 14.464844 C 35.148438 15.324219 35.433594 16.574219 35.433594 18.214844 C 35.433594 19.851562 35.148438 21.101562 34.574219 21.964844 C 33.996094 22.824219 33.164062 23.253906 32.074219 23.253906 C 30.984375 23.253906 30.152344 22.824219 29.578125 21.964844 C 29.003906 21.101562 28.714844 19.851562 28.714844 18.214844 C 28.714844 16.574219 29.003906 15.324219 29.578125 14.464844 C 30.152344 13.601562 30.984375 13.167969 32.074219 13.167969 Z M 32.074219 13.167969 "/>
<path style=" stroke:none;fill-rule:nonzero;fill:rgb(0%,0%,0%);fill-opacity:1;" d="M 37.746094 21.410156 L 39.121094 21.410156 L 39.121094 23.066406 L 37.746094 23.066406 Z M 37.746094 21.410156 "/>
<path style=" stroke:none;fill-rule:nonzero;fill:rgb(0%,0%,0%);fill-opacity:1;" d="M 43.117188 21.960938 L 47.707031 21.960938 L 47.707031 23.066406 L 41.535156 23.066406 L 41.535156 21.960938 C 42.035156 21.441406 42.714844 20.75 43.574219 19.878906 C 44.4375 19.007812 44.980469 18.449219 45.199219 18.195312 C 45.621094 17.722656 45.914062 17.324219 46.082031 16.996094 C 46.25 16.667969 46.332031 16.34375 46.332031 16.027344 C 46.332031 15.511719 46.152344 15.089844 45.789062 14.765625 C 45.425781 14.4375 44.957031 14.277344 44.375 14.277344 C 43.960938 14.277344 43.527344 14.347656 43.066406 14.492188 C 42.609375 14.632812 42.121094 14.851562 41.601562 15.144531 L 41.601562 13.8125 C 42.128906 13.601562 42.625 13.441406 43.082031 13.332031 C 43.546875 13.222656 43.964844 13.167969 44.347656 13.167969 C 45.355469 13.167969 46.15625 13.421875 46.757812 13.925781 C 47.355469 14.429688 47.65625 15.101562 47.65625 15.941406 C 47.65625 16.34375 47.578125 16.722656 47.429688 17.082031 C 47.28125 17.4375 47.007812 17.859375 46.613281 18.34375 C 46.503906 18.472656 46.160156 18.835938 45.578125 19.4375 C 44.996094 20.039062 44.175781 20.878906 43.117188 21.960938 Z M 43.117188 21.960938 "/>
<path style=" stroke:none;fill-rule:nonzero;fill:rgb(0%,0%,0%);fill-opacity:1;" d="M 53.28125 14.210938 C 52.601562 14.210938 52.09375 14.542969 51.753906 15.210938 C 51.410156 15.875 51.242188 16.878906 51.242188 18.214844 C 51.242188 19.546875 51.410156 20.546875 51.753906 21.214844 C 52.09375 21.878906 52.601562 22.214844 53.28125 22.214844 C 53.960938 22.214844 54.472656 21.878906 54.8125 21.214844 C 55.15625 20.546875 55.324219 19.546875 55.324219 18.214844 C 55.324219 16.878906 55.15625 15.875 54.8125 15.210938 C 54.472656 14.542969 53.960938 14.210938 53.28125 14.210938 Z M 53.28125 13.167969 C 54.371094 13.167969 55.203125 13.601562 55.777344 14.464844 C 56.351562 15.324219 56.640625 16.574219 56.640625 18.214844 C 56.640625 19.851562 56.351562 21.101562 55.777344 21.964844 C 55.203125 22.824219 54.371094 23.253906 53.28125 23.253906 C 52.191406 23.253906 51.359375 22.824219 50.785156 21.964844 C 50.207031 21.101562 49.921875 19.851562 49.921875 18.214844 C 49.921875 16.574219 50.207031 15.324219 50.785156 14.464844 C 51.359375 13.601562 52.191406 13.167969 53.28125 13.167969 Z M 53.28125 13.167969 "/>
<path style=" stroke:none;fill-rule:nonzero;fill:rgb(0%,0%,0%);fill-opacity:1;" d="M 18.636719 118.53125 L 22.503906 118.53125 L 22.503906 119.734375 L 12.441406 119.734375 L 12.441406 118.53125 L 13.546875 118.53125 C 13.113281 118.277344 12.789062 117.960938 12.582031 117.578125 C 12.371094 117.191406 12.265625 116.734375 12.265625 116.199219 C 12.265625 115.3125 12.617188 114.59375 13.320312 114.042969 C 14.023438 113.488281 14.945312 113.210938 16.089844 113.210938 C 17.238281 113.210938 18.164062 113.488281 18.867188 114.042969 C 19.570312 114.59375 19.921875 115.3125 19.921875 116.199219 C 19.921875 116.734375 19.816406 117.191406 19.605469 117.578125 C 19.394531 117.960938 19.070312 118.277344 18.636719 118.53125 Z M 16.089844 114.453125 C 15.210938 114.453125 14.519531 114.636719 14.019531 114.996094 C 13.515625 115.359375 13.265625 115.859375 13.265625 116.492188 C 13.265625 117.125 13.515625 117.625 14.019531 117.988281 C 14.519531 118.351562 15.210938 118.53125 16.089844 118.53125 C 16.972656 118.53125 17.664062 118.351562 18.164062 117.988281 C 18.664062 117.625 18.917969 117.125 18.917969 116.492188 C 18.917969 115.859375 18.664062 115.359375 18.164062 114.996094 C 17.664062 114.636719 16.972656 114.453125 16.089844 114.453125 Z M 16.089844 114.453125 "/>
<path style=" stroke:none;fill-rule:nonzero;fill:rgb(0%,0%,0%);fill-opacity:1;" d="M 18.078125 111.058594 L 18.078125 109.683594 L 19.730469 109.683594 L 19.730469 111.058594 Z M 18.078125 111.058594 "/>
<path style=" stroke:none;fill-rule:nonzero;fill:rgb(0%,0%,0%);fill-opacity:1;" d="M 13.839844 101.3125 C 13.300781 101.011719 12.902344 100.652344 12.648438 100.234375 C 12.390625 99.820312 12.265625 99.328125 12.265625 98.765625 C 12.265625 98.003906 12.53125 97.417969 13.0625 97.007812 C 13.59375 96.59375 14.347656 96.386719 15.328125 96.386719 L 19.730469 96.386719 L 19.730469 97.59375 L 15.367188 97.59375 C 14.671875 97.59375 14.152344 97.714844 13.816406 97.964844 C 13.476562 98.210938 13.304688 98.589844 13.304688 99.097656 C 13.304688 99.71875 13.511719 100.207031 13.925781 100.570312 C 14.335938 100.929688 14.898438 101.109375 15.609375 101.109375 L 19.730469 101.109375 L 19.730469 102.3125 L 15.367188 102.3125 C 14.664062 102.3125 14.148438 102.4375 13.808594 102.683594 C 13.472656 102.929688 13.304688 103.3125 13.304688 103.828125 C 13.304688 104.441406 13.511719 104.929688 13.925781 105.289062 C 14.339844 105.648438 14.902344 105.828125 15.609375 105.828125 L 19.730469 105.828125 L 19.730469 107.035156 L 12.441406 107.035156 L 12.441406 105.828125 L 13.574219 105.828125 C 13.125 105.554688 12.796875 105.226562 12.582031 104.847656 C 12.371094 104.464844 12.265625 104.011719 12.265625 103.484375 C 12.265625 102.957031 12.398438 102.503906 12.667969 102.132812 C 12.9375 101.761719 13.328125 101.488281 13.839844 101.3125 Z M 13.839844 101.3125 "/>
<path style=" stroke:none;fill-rule:nonzero;fill:rgb(0%,0%,0%);fill-opacity:1;" d="M 18.078125 93.832031 L 18.078125 92.457031 L 19.730469 92.457031 L 19.730469 93.832031 Z M 18.078125 93.832031 "/>
<path style=" stroke:none;fill-rule:nonzero;fill:rgb(0%,0%,0%);fill-opacity:1;" d="M 9.601562 86.070312 L 10.597656 86.070312 L 10.597656 87.214844 C 10.597656 87.644531 10.683594 87.941406 10.859375 88.109375 C 11.03125 88.277344 11.34375 88.359375 11.796875 88.359375 L 12.441406 88.359375 L 12.441406 86.386719 L 13.371094 86.386719 L 13.371094 88.359375 L 19.730469 88.359375 L 19.730469 89.566406 L 13.371094 89.566406 L 13.371094 90.710938 L 12.441406 90.710938 L 12.441406 89.566406 L 11.929688 89.566406 C 11.121094 89.566406 10.527344 89.375 10.160156 89 C 9.785156 88.621094 9.601562 88.023438 9.601562 87.203125 Z M 9.601562 86.070312 "/>
<path style=" stroke:none;fill-rule:nonzero;fill:rgb(0%,0%,0%);fill-opacity:1;" d="M 18.078125 85.863281 L 18.078125 84.488281 L 19.730469 84.488281 L 19.730469 85.863281 Z M 18.078125 85.863281 "/>
<path style="fill:none;stroke-width:1.5;stroke-linecap:butt;stroke-linejoin:round;stroke:rgb(12.156863%,46.666667%,70.588237%);stroke-opacity:1;stroke-miterlimit:4;" d="M 59.021484 139.5 L 59.021484 13.5 " transform="matrix(1.333333,0,0,1.333333,0,0.000000000000014211)"/>
<path style="fill:none;stroke-width:1.5;stroke-linecap:butt;stroke-linejoin:round;stroke:rgb(12.156863%,46.666667%,70.588237%);stroke-opacity:1;stroke-miterlimit:4;" d="M 103.40625 139.5 L 103.40625 13.5 " transform="matrix(1.333333,0,0,1.333333,0,0.000000000000014211)"/>
<path style="fill:none;stroke-width:1.5;stroke-linecap:butt;stroke-linejoin:round;stroke:rgb(12.156863%,46.666667%,70.588237%);stroke-opacity:1;stroke-miterlimit:4;" d="M 147.793945 139.5 L 147.793945 13.5 " transform="matrix(1.333333,0,0,1.333333,0,0.000000000000014211)"/>
<path style="fill:none;stroke-width:1.5;stroke-linecap:butt;stroke-linejoin:round;stroke:rgb(12.156863%,46.666667%,70.588237%);stroke-opacity:1;stroke-miterlimit:4;" d="M 192.178711 139.5 L 192.178711 13.5 " transform="matrix(1.333333,0,0,1.333333,0,0.000000000000014211)"/>
<path style="fill:none;stroke-width:1.5;stroke-linecap:butt;stroke-linejoin:round;stroke:rgb(12.156863%,46.666667%,70.588237%);stroke-opacity:1;stroke-miterlimit:4;" d="M 236.566406 139.5 L 236.566406 13.5 " transform="matrix(1.333333,0,0,1.333333,0,0.000000000000014211)"/>
<path style="fill-rule:nonzero;fill:rgb(12.156863%,46.666667%,70.588237%);fill-opacity:1;stroke-width:1;stroke-linecap:butt;stroke-linejoin:round;stroke:rgb(12.156863%,46.666667%,70.588237%);stroke-opacity:1;stroke-miterlimit:4;" d="M 0.000461578 3 C 0.794407 3 1.559055 2.683594 2.121555 2.121094 C 2.684055 1.558594 3.000462 0.796875 3.000462 -0.000000000000010658 C 3.000462 -0.796875 2.684055 -1.558594 2.121555 -2.121094 C 1.559055 -2.683594 0.794407 -3 0.000461578 -3 C -0.796413 -3 -1.558132 -2.683594 -2.120632 -2.121094 C -2.683132 -1.558594 -2.999538 -0.796875 -2.999538 -0.000000000000010658 C -2.999538 0.796875 -2.683132 1.558594 -2.120632 2.121094 C -1.558132 2.683594 -0.796413 3 0.000461578 3 Z M 0.000461578 3 " transform="matrix(1.333333,0,0,1.333333,78.694697,18)"/>
<path style="fill-rule:nonzero;fill:rgb(12.156863%,46.666667%,70.588237%);fill-opacity:1;stroke-width:1;stroke-linecap:butt;stroke-linejoin:round;stroke:rgb(12.156863%,46.666667%,70.588237%);stroke-opacity:1;stroke-miterlimit:4;" d="M -0.00113678 3 C 0.795738 3 1.557457 2.683594 2.119957 2.121094 C 2.682457 1.558594 2.998863 0.796875 2.998863 -0.000000000000010658 C 2.998863 -0.796875 2.682457 -1.558594 2.119957 -2.121094 C 1.557457 -2.683594 0.795738 -3 -0.00113678 -3 C -0.795082 -3 -1.559731 -2.683594 -2.122231 -2.121094 C -2.684731 -1.558594 -3.001137 -0.796875 -3.001137 -0.000000000000010658 C -3.001137 0.796875 -2.684731 1.558594 -2.122231 2.121094 C -1.559731 2.683594 -0.795082 3 -0.00113678 3 Z M -0.00113678 3 " transform="matrix(1.333333,0,0,1.333333,137.876516,18)"/>
<path style="fill-rule:nonzero;fill:rgb(12.156863%,46.666667%,70.588237%);fill-opacity:1;stroke-width:1;stroke-linecap:butt;stroke-linejoin:round;stroke:rgb(12.156863%,46.666667%,70.588237%);stroke-opacity:1;stroke-miterlimit:4;" d="M 0.000198364 3 C 0.797073 3 1.558792 2.683594 2.121292 2.121094 C 2.683792 1.558594 3.000198 0.796875 3.000198 -0.000000000000010658 C 3.000198 -0.796875 2.683792 -1.558594 2.121292 -2.121094 C 1.558792 -2.683594 0.797073 -3 0.000198364 -3 C -0.796677 -3 -1.558395 -2.683594 -2.120895 -2.121094 C -2.683395 -1.558594 -2.999802 -0.796875 -2.999802 -0.000000000000010658 C -2.999802 0.796875 -2.683395 1.558594 -2.120895 2.121094 C -1.558395 2.683594 -0.796677 3 0.000198364 3 Z M 0.000198364 3 " transform="matrix(1.333333,0,0,1.333333,197.058329,18)"/>
<path style="fill-rule:nonzero;fill:rgb(12.156863%,46.666667%,70.588237%);fill-opacity:1;stroke-width:1;stroke-linecap:butt;stroke-linejoin:round;stroke:rgb(12.156863%,46.666667%,70.588237%);stroke-opacity:1;stroke-miterlimit:4;" d="M -0.00140381 3 C 0.795471 3 1.56012 2.683594 2.12262 2.121094 C 2.68512 1.558594 2.998596 0.796875 2.998596 -0.000000000000010658 C 2.998596 -0.796875 2.68512 -1.558594 2.12262 -2.121094 C 1.56012 -2.683594 0.795471 -3 -0.00140381 -3 C -0.795349 -3 -1.559998 -2.683594 -2.122498 -2.121094 C -2.684998 -1.558594 -3.001404 -0.796875 -3.001404 -0.000000000000010658 C -3.001404 0.796875 -2.684998 1.558594 -2.122498 2.121094 C -1.559998 2.683594 -0.795349 3 -0.00140381 3 Z M -0.00140381 3 " transform="matrix(1.333333,0,0,1.333333,256.240153,18)"/>
<path style="fill-rule:nonzero;fill:rgb(12.156863%,46.666667%,70.588237%);fill-opacity:1;stroke-width:1;stroke-linecap:butt;stroke-linejoin:round;stroke:rgb(12.156863%,46.666667%,70.588237%);stroke-opacity:1;stroke-miterlimit:4;" d="M -0.0000762939 3 C 0.796799 3 1.558517 2.683594 2.121017 2.121094 C 2.683517 1.558594 2.999924 0.796875 2.999924 -0.000000000000010658 C 2.999924 -0.796875 2.683517 -1.558594 2.121017 -2.121094 C 1.558517 -2.683594 0.796799 -3 -0.0000762939 -3 C -0.796951 -3 -1.55867 -2.683594 -2.12117 -2.121094 C -2.68367 -1.558594 -3.000076 -0.796875 -3.000076 -0.000000000000010658 C -3.000076 0.796875 -2.68367 1.558594 -2.12117 2.121094 C -1.55867 2.683594 -0.796951 3 -0.0000762939 3 Z M -0.0000762939 3 " transform="matrix(1.333333,0,0,1.333333,315.421977,18)"/>
<path style="fill:none;stroke-width:1.5;stroke-linecap:square;stroke-linejoin:round;stroke:rgb(83.92157%,15.294118%,15.686275%);stroke-opacity:1;stroke-miterlimit:4;" d="M 59.021484 139.5 L 236.566406 139.5 " transform="matrix(1.333333,0,0,1.333333,0,0.000000000000014211)"/>
<path style="fill:none;stroke-width:0.8;stroke-linecap:square;stroke-linejoin:miter;stroke:rgb(0%,0%,0%);stroke-opacity:1;stroke-miterlimit:4;" d="M 50.144531 145.798828 L 50.144531 7.201172 " transform="matrix(1.333333,0,0,1.333333,0,0.000000000000014211)"/>
<path style="fill:none;stroke-width:0.8;stroke-linecap:square;stroke-linejoin:miter;stroke:rgb(0%,0%,0%);stroke-opacity:1;stroke-miterlimit:4;" d="M 245.443359 145.798828 L 245.443359 7.201172 " transform="matrix(1.333333,0,0,1.333333,0,0.000000000000014211)"/>
<path style="fill:none;stroke-width:0.8;stroke-linecap:square;stroke-linejoin:miter;stroke:rgb(0%,0%,0%);stroke-opacity:1;stroke-miterlimit:4;" d="M 50.144531 145.798828 L 245.443359 145.798828 " transform="matrix(1.333333,0,0,1.333333,0,0.000000000000014211)"/>
<path style="fill:none;stroke-width:0.8;stroke-linecap:square;stroke-linejoin:miter;stroke:rgb(0%,0%,0%);stroke-opacity:1;stroke-miterlimit:4;" d="M 50.144531 7.201172 L 245.443359 7.201172 " transform="matrix(1.333333,0,0,1.333333,0,0.000000000000014211)"/>
</g>
</svg>
