<?xml version="1.0" encoding="UTF-8"?>
<svg xmlns="http://www.w3.org/2000/svg" xmlns:xlink="http://www.w3.org/1999/xlink" width="311.615641" height="226.237508" viewBox="0 0 311.615641 226.237508" version="1.1">
<defs>
<clipPath id="clip1">
  <path d="M 51 9.601562 L 53 9.601562 L 53 194.398438 L 51 194.398438 Z M 51 9.601562 "/>
</clipPath>
<clipPath id="clip2">
  <path d="M 99 9.601562 L 102 9.601562 L 102 194.398438 L 99 194.398438 Z M 99 9.601562 "/>
</clipPath>
<clipPath id="clip3">
  <path d="M 147 9.601562 L 150 9.601562 L 150 194.398438 L 147 194.398438 Z M 147 9.601562 "/>
</clipPath>
<clipPath id="clip4">
  <path d="M 196 9.601562 L 198 9.601562 L 198 194.398438 L 196 194.398438 Z M 196 9.601562 "/>
</clipPath>
<clipPath id="clip5">
  <path d="M 244 9.601562 L 246 9.601562 L 246 194.398438 L 244 194.398438 Z M 244 9.601562 "/>
</clipPath>
<clipPath id="clip6">
  <path d="M 292 9.601562 L 295 9.601562 L 295 194.398438 L 292 194.398438 Z M 292 9.601562 "/>
</clipPath>
<clipPath id="clip7">
  <path d="M 40.136719 186 L 300.539062 186 L 300.539062 188 L 40.136719 188 Z M 40.136719 186 "/>
</clipPath>
<clipPath id="clip8">
  <path d="M 40.136719 139 L 300.539062 139 L 300.539062 141 L 40.136719 141 Z M 40.136719 139 "/>
</clipPath>
<clipPath id="clip9">
  <path d="M 40.136719 92 L 300.539062 92 L 300.539062 94 L 40.136719 94 Z M 40.136719 92 "/>
</clipPath>
<clipPath id="clip10">
  <path d="M 40.136719 45 L 300.539062 45 L 300.539062 47 L 40.136719 47 Z M 40.136719 45 "/>
</clipPath>
</defs>
<g id="surface1">
<path style=" stroke:none;fill-rule:nonzero;fill:rgb(100%,100%,100%);fill-opacity:1;" d="M 0 226.238281 L 311.617188 226.238281 L 311.617188 0 L 0 0 Z M 0 226.238281 "/>
<path style=" stroke:none;fill-rule:nonzero;fill:rgb(100%,100%,100%);fill-opacity:1;" d="M 40.136719 194.398438 L 300.539062 194.398438 L 300.539062 9.601562 L 40.136719 9.601562 Z M 40.136719 194.398438 "/>
<g clip-path="url(#clip1)" clip-rule="nonzero">
<path style="fill:none;stroke-width:0.8;stroke-linecap:square;stroke-linejoin:round;stroke:rgb(69.01961%,69.01961%,69.01961%);stroke-opacity:1;stroke-miterlimit:4;" d="M 38.979492 145.798828 L 38.979492 7.201172 " transform="matrix(1.333333,0,0,1.333333,0,-0.000000000000014211)"/>
</g>
<path style="fill:none;stroke-width:0.8;stroke-linecap:butt;stroke-linejoin:round;stroke:rgb(0%,0%,0%);stroke-opacity:1;stroke-miterlimit:4;" d="M -0.000904083 -0.00117493 L -0.000904083 3.499802 " transform="matrix(1.333333,0,0,1.333333,51.973862,194.400004)"/>
<path style=" stroke:none;fill-rule:nonzero;fill:rgb(0%,0%,0%);fill-opacity:1;" d="M 51.96875 205.011719 C 51.292969 205.011719 50.785156 205.34375 50.441406 206.011719 C 50.101562 206.675781 49.933594 207.675781 49.933594 209.015625 C 49.933594 210.347656 50.101562 211.347656 50.441406 212.011719 C 50.785156 212.679688 51.292969 213.011719 51.96875 213.011719 C 52.652344 213.011719 53.164062 212.679688 53.503906 212.011719 C 53.84375 211.347656 54.015625 210.347656 54.015625 209.015625 C 54.015625 207.675781 53.84375 206.675781 53.503906 206.011719 C 53.164062 205.34375 52.652344 205.011719 51.96875 205.011719 Z M 51.96875 203.96875 C 53.058594 203.96875 53.894531 204.398438 54.46875 205.261719 C 55.042969 206.125 55.332031 207.375 55.332031 209.015625 C 55.332031 210.652344 55.042969 211.898438 54.46875 212.761719 C 53.894531 213.625 53.058594 214.054688 51.96875 214.054688 C 50.878906 214.054688 50.050781 213.625 49.472656 212.761719 C 48.898438 211.898438 48.613281 210.652344 48.613281 209.015625 C 48.613281 207.375 48.898438 206.125 49.472656 205.261719 C 50.050781 204.398438 50.878906 203.96875 51.96875 203.96875 Z M 51.96875 203.96875 "/>
<g clip-path="url(#clip2)" clip-rule="nonzero">
<path style="fill:none;stroke-width:0.8;stroke-linecap:square;stroke-linejoin:round;stroke:rgb(69.01961%,69.01961%,69.01961%);stroke-opacity:1;stroke-miterlimit:4;" d="M 75.213867 145.798828 L 75.213867 7.201172 " transform="matrix(1.333333,0,0,1.333333,0,-0.000000000000014211)"/>
</g>
<path style="fill:none;stroke-width:0.8;stroke-linecap:butt;stroke-linejoin:round;stroke:rgb(0%,0%,0%);stroke-opacity:1;stroke-miterlimit:4;" d="M -0.000297546 -0.00117493 L -0.000297546 3.499802 " transform="matrix(1.333333,0,0,1.333333,100.285553,194.400004)"/>
<path style=" stroke:none;fill-rule:nonzero;fill:rgb(0%,0%,0%);fill-opacity:1;" d="M 93.457031 212.757812 L 95.605469 212.757812 L 95.605469 205.339844 L 93.265625 205.808594 L 93.265625 204.613281 L 95.59375 204.144531 L 96.90625 204.144531 L 96.90625 212.757812 L 99.054688 212.757812 L 99.054688 213.863281 L 93.457031 213.863281 Z M 93.457031 212.757812 "/>
<path style=" stroke:none;fill-rule:nonzero;fill:rgb(0%,0%,0%);fill-opacity:1;" d="M 104.523438 205.011719 C 103.847656 205.011719 103.335938 205.34375 102.996094 206.011719 C 102.65625 206.675781 102.484375 207.675781 102.484375 209.015625 C 102.484375 210.347656 102.65625 211.347656 102.996094 212.011719 C 103.335938 212.679688 103.847656 213.011719 104.523438 213.011719 C 105.203125 213.011719 105.714844 212.679688 106.054688 212.011719 C 106.398438 211.347656 106.570312 210.347656 106.570312 209.015625 C 106.570312 207.675781 106.398438 206.675781 106.054688 206.011719 C 105.714844 205.34375 105.203125 205.011719 104.523438 205.011719 Z M 104.523438 203.96875 C 105.613281 203.96875 106.445312 204.398438 107.019531 205.261719 C 107.597656 206.125 107.882812 207.375 107.882812 209.015625 C 107.882812 210.652344 107.597656 211.898438 107.019531 212.761719 C 106.445312 213.625 105.613281 214.054688 104.523438 214.054688 C 103.433594 214.054688 102.601562 213.625 102.027344 212.761719 C 101.453125 211.898438 101.164062 210.652344 101.164062 209.015625 C 101.164062 207.375 101.453125 206.125 102.027344 205.261719 C 102.601562 204.398438 103.433594 203.96875 104.523438 203.96875 Z M 104.523438 203.96875 "/>
<g clip-path="url(#clip3)" clip-rule="nonzero">
<path style="fill:none;stroke-width:0.8;stroke-linecap:square;stroke-linejoin:round;stroke:rgb(69.01961%,69.01961%,69.01961%);stroke-opacity:1;stroke-miterlimit:4;" d="M 111.448242 145.798828 L 111.448242 7.201172 " transform="matrix(1.333333,0,0,1.333333,0,-0.000000000000014211)"/>
</g>
<path style="fill:none;stroke-width:0.8;stroke-linecap:butt;stroke-linejoin:round;stroke:rgb(0%,0%,0%);stroke-opacity:1;stroke-miterlimit:4;" d="M 0.000312805 -0.00117493 L 0.000312805 3.499802 " transform="matrix(1.333333,0,0,1.333333,148.597239,194.400004)"/>
<path style=" stroke:none;fill-rule:nonzero;fill:rgb(0%,0%,0%);fill-opacity:1;" d="M 142.671875 212.757812 L 147.261719 212.757812 L 147.261719 213.863281 L 141.089844 213.863281 L 141.089844 212.757812 C 141.589844 212.242188 142.269531 211.546875 143.128906 210.679688 C 143.992188 209.808594 144.535156 209.246094 144.753906 208.992188 C 145.175781 208.523438 145.46875 208.121094 145.636719 207.792969 C 145.804688 207.464844 145.890625 207.144531 145.890625 206.828125 C 145.890625 206.308594 145.707031 205.890625 145.34375 205.566406 C 144.984375 205.238281 144.511719 205.074219 143.929688 205.074219 C 143.515625 205.074219 143.082031 205.148438 142.621094 205.289062 C 142.164062 205.433594 141.675781 205.648438 141.15625 205.941406 L 141.15625 204.613281 C 141.683594 204.398438 142.179688 204.238281 142.640625 204.132812 C 143.101562 204.023438 143.523438 203.96875 143.902344 203.96875 C 144.910156 203.96875 145.714844 204.222656 146.3125 204.726562 C 146.910156 205.226562 147.210938 205.898438 147.210938 206.742188 C 147.210938 207.140625 147.132812 207.519531 146.984375 207.878906 C 146.835938 208.234375 146.5625 208.65625 146.167969 209.144531 C 146.058594 209.269531 145.714844 209.632812 145.132812 210.234375 C 144.550781 210.835938 143.730469 211.679688 142.671875 212.757812 Z M 142.671875 212.757812 "/>
<path style=" stroke:none;fill-rule:nonzero;fill:rgb(0%,0%,0%);fill-opacity:1;" d="M 152.835938 205.011719 C 152.15625 205.011719 151.648438 205.34375 151.308594 206.011719 C 150.96875 206.675781 150.796875 207.675781 150.796875 209.015625 C 150.796875 210.347656 150.96875 211.347656 151.308594 212.011719 C 151.648438 212.679688 152.15625 213.011719 152.835938 213.011719 C 153.515625 213.011719 154.027344 212.679688 154.367188 212.011719 C 154.710938 211.347656 154.878906 210.347656 154.878906 209.015625 C 154.878906 207.675781 154.710938 206.675781 154.367188 206.011719 C 154.027344 205.34375 153.515625 205.011719 152.835938 205.011719 Z M 152.835938 203.96875 C 153.925781 203.96875 154.757812 204.398438 155.332031 205.261719 C 155.90625 206.125 156.195312 207.375 156.195312 209.015625 C 156.195312 210.652344 155.90625 211.898438 155.332031 212.761719 C 154.757812 213.625 153.925781 214.054688 152.835938 214.054688 C 151.746094 214.054688 150.914062 213.625 150.339844 212.761719 C 149.761719 211.898438 149.476562 210.652344 149.476562 209.015625 C 149.476562 207.375 149.761719 206.125 150.339844 205.261719 C 150.914062 204.398438 151.746094 203.96875 152.835938 203.96875 Z M 152.835938 203.96875 "/>
<g clip-path="url(#clip4)" clip-rule="nonzero">
<path style="fill:none;stroke-width:0.8;stroke-linecap:square;stroke-linejoin:round;stroke:rgb(69.01961%,69.01961%,69.01961%);stroke-opacity:1;stroke-miterlimit:4;" d="M 147.682617 145.798828 L 147.682617 7.201172 " transform="matrix(1.333333,0,0,1.333333,0,-0.000000000000014211)"/>
</g>
<path style="fill:none;stroke-width:0.8;stroke-linecap:butt;stroke-linejoin:round;stroke:rgb(0%,0%,0%);stroke-opacity:1;stroke-miterlimit:4;" d="M 0.000915527 -0.00117493 L 0.000915527 3.499802 " transform="matrix(1.333333,0,0,1.333333,196.908936,194.400004)"/>
<path style=" stroke:none;fill-rule:nonzero;fill:rgb(0%,0%,0%);fill-opacity:1;" d="M 193.835938 208.621094 C 194.464844 208.757812 194.957031 209.039062 195.308594 209.464844 C 195.664062 209.890625 195.839844 210.414062 195.839844 211.039062 C 195.839844 211.996094 195.511719 212.742188 194.851562 213.265625 C 194.191406 213.792969 193.253906 214.054688 192.039062 214.054688 C 191.632812 214.054688 191.210938 214.015625 190.78125 213.933594 C 190.347656 213.851562 189.902344 213.730469 189.441406 213.570312 L 189.441406 212.300781 C 189.804688 212.515625 190.203125 212.675781 190.636719 212.785156 C 191.074219 212.890625 191.527344 212.945312 192 212.945312 C 192.824219 212.945312 193.453125 212.785156 193.882812 212.457031 C 194.316406 212.132812 194.53125 211.660156 194.53125 211.039062 C 194.53125 210.464844 194.332031 210.019531 193.929688 209.695312 C 193.527344 209.371094 192.96875 209.210938 192.253906 209.210938 L 191.121094 209.210938 L 191.121094 208.128906 L 192.308594 208.128906 C 192.953125 208.128906 193.445312 208 193.789062 207.742188 C 194.132812 207.484375 194.304688 207.109375 194.304688 206.625 C 194.304688 206.125 194.128906 205.742188 193.773438 205.476562 C 193.421875 205.210938 192.914062 205.074219 192.253906 205.074219 C 191.894531 205.074219 191.507812 205.113281 191.09375 205.195312 C 190.683594 205.273438 190.226562 205.390625 189.734375 205.554688 L 189.734375 204.386719 C 190.234375 204.246094 190.703125 204.140625 191.136719 204.074219 C 191.574219 204.003906 191.984375 203.96875 192.371094 203.96875 C 193.371094 203.96875 194.160156 204.195312 194.738281 204.648438 C 195.320312 205.101562 195.613281 205.714844 195.613281 206.488281 C 195.613281 207.027344 195.457031 207.480469 195.152344 207.851562 C 194.84375 208.222656 194.402344 208.480469 193.835938 208.621094 Z M 193.835938 208.621094 "/>
<path style=" stroke:none;fill-rule:nonzero;fill:rgb(0%,0%,0%);fill-opacity:1;" d="M 201.144531 205.011719 C 200.46875 205.011719 199.960938 205.34375 199.617188 206.011719 C 199.277344 206.675781 199.109375 207.675781 199.109375 209.015625 C 199.109375 210.347656 199.277344 211.347656 199.617188 212.011719 C 199.960938 212.679688 200.46875 213.011719 201.144531 213.011719 C 201.828125 213.011719 202.339844 212.679688 202.679688 212.011719 C 203.019531 211.347656 203.191406 210.347656 203.191406 209.015625 C 203.191406 207.675781 203.019531 206.675781 202.679688 206.011719 C 202.339844 205.34375 201.828125 205.011719 201.144531 205.011719 Z M 201.144531 203.96875 C 202.238281 203.96875 203.070312 204.398438 203.644531 205.261719 C 204.21875 206.125 204.507812 207.375 204.507812 209.015625 C 204.507812 210.652344 204.21875 211.898438 203.644531 212.761719 C 203.070312 213.625 202.238281 214.054688 201.144531 214.054688 C 200.058594 214.054688 199.226562 213.625 198.648438 212.761719 C 198.074219 211.898438 197.789062 210.652344 197.789062 209.015625 C 197.789062 207.375 198.074219 206.125 198.648438 205.261719 C 199.226562 204.398438 200.058594 203.96875 201.144531 203.96875 Z M 201.144531 203.96875 "/>
<g clip-path="url(#clip5)" clip-rule="nonzero">
<path style="fill:none;stroke-width:0.8;stroke-linecap:square;stroke-linejoin:round;stroke:rgb(69.01961%,69.01961%,69.01961%);stroke-opacity:1;stroke-miterlimit:4;" d="M 183.914062 145.798828 L 183.914062 7.201172 " transform="matrix(1.333333,0,0,1.333333,0,-0.000000000000014211)"/>
</g>
<path style="fill:none;stroke-width:0.8;stroke-linecap:butt;stroke-linejoin:round;stroke:rgb(0%,0%,0%);stroke-opacity:1;stroke-miterlimit:4;" d="M -0.00140381 -0.00117493 L -0.00140381 3.499802 " transform="matrix(1.333333,0,0,1.333333,245.220622,194.400004)"/>
<path style=" stroke:none;fill-rule:nonzero;fill:rgb(0%,0%,0%);fill-opacity:1;" d="M 241.777344 205.289062 L 238.457031 210.480469 L 241.777344 210.480469 Z M 241.429688 204.144531 L 243.085938 204.144531 L 243.085938 210.480469 L 244.472656 210.480469 L 244.472656 211.574219 L 243.085938 211.574219 L 243.085938 213.863281 L 241.777344 213.863281 L 241.777344 211.574219 L 237.390625 211.574219 L 237.390625 210.304688 Z M 241.429688 204.144531 "/>
<path style=" stroke:none;fill-rule:nonzero;fill:rgb(0%,0%,0%);fill-opacity:1;" d="M 249.457031 205.011719 C 248.78125 205.011719 248.273438 205.34375 247.929688 206.011719 C 247.589844 206.675781 247.421875 207.675781 247.421875 209.015625 C 247.421875 210.347656 247.589844 211.347656 247.929688 212.011719 C 248.273438 212.679688 248.78125 213.011719 249.457031 213.011719 C 250.140625 213.011719 250.652344 212.679688 250.992188 212.011719 C 251.332031 211.347656 251.503906 210.347656 251.503906 209.015625 C 251.503906 207.675781 251.332031 206.675781 250.992188 206.011719 C 250.652344 205.34375 250.140625 205.011719 249.457031 205.011719 Z M 249.457031 203.96875 C 250.546875 203.96875 251.378906 204.398438 251.957031 205.261719 C 252.53125 206.125 252.816406 207.375 252.816406 209.015625 C 252.816406 210.652344 252.53125 211.898438 251.957031 212.761719 C 251.378906 213.625 250.546875 214.054688 249.457031 214.054688 C 248.367188 214.054688 247.535156 213.625 246.960938 212.761719 C 246.386719 211.898438 246.097656 210.652344 246.097656 209.015625 C 246.097656 207.375 246.386719 206.125 246.960938 205.261719 C 247.535156 204.398438 248.367188 203.96875 249.457031 203.96875 Z M 249.457031 203.96875 "/>
<g clip-path="url(#clip6)" clip-rule="nonzero">
<path style="fill:none;stroke-width:0.8;stroke-linecap:square;stroke-linejoin:round;stroke:rgb(69.01961%,69.01961%,69.01961%);stroke-opacity:1;stroke-miterlimit:4;" d="M 220.148437 145.798828 L 220.148437 7.201172 " transform="matrix(1.333333,0,0,1.333333,0,-0.000000000000014211)"/>
</g>
<path style="fill:none;stroke-width:0.8;stroke-linecap:butt;stroke-linejoin:round;stroke:rgb(0%,0%,0%);stroke-opacity:1;stroke-miterlimit:4;" d="M -0.000793457 -0.00117493 L -0.000793457 3.499802 " transform="matrix(1.333333,0,0,1.333333,293.532308,194.400004)"/>
<path style=" stroke:none;fill-rule:nonzero;fill:rgb(0%,0%,0%);fill-opacity:1;" d="M 286.488281 204.144531 L 291.652344 204.144531 L 291.652344 205.253906 L 287.691406 205.253906 L 287.691406 207.632812 C 287.882812 207.566406 288.074219 207.519531 288.261719 207.488281 C 288.457031 207.457031 288.648438 207.441406 288.839844 207.441406 C 289.921875 207.441406 290.78125 207.738281 291.414062 208.332031 C 292.050781 208.925781 292.367188 209.730469 292.367188 210.746094 C 292.367188 211.792969 292.042969 212.605469 291.390625 213.183594 C 290.738281 213.765625 289.820312 214.054688 288.636719 214.054688 C 288.226562 214.054688 287.8125 214.019531 287.386719 213.949219 C 286.964844 213.878906 286.53125 213.777344 286.078125 213.636719 L 286.078125 212.316406 C 286.46875 212.527344 286.871094 212.683594 287.289062 212.789062 C 287.707031 212.894531 288.144531 212.945312 288.609375 212.945312 C 289.359375 212.945312 289.957031 212.75 290.394531 212.355469 C 290.832031 211.960938 291.050781 211.421875 291.050781 210.746094 C 291.050781 210.070312 290.832031 209.535156 290.394531 209.140625 C 289.957031 208.742188 289.359375 208.546875 288.609375 208.546875 C 288.257812 208.546875 287.90625 208.585938 287.558594 208.664062 C 287.207031 208.742188 286.851562 208.863281 286.488281 209.027344 Z M 286.488281 204.144531 "/>
<path style=" stroke:none;fill-rule:nonzero;fill:rgb(0%,0%,0%);fill-opacity:1;" d="M 297.769531 205.011719 C 297.09375 205.011719 296.585938 205.34375 296.242188 206.011719 C 295.902344 206.675781 295.730469 207.675781 295.730469 209.015625 C 295.730469 210.347656 295.902344 211.347656 296.242188 212.011719 C 296.585938 212.679688 297.09375 213.011719 297.769531 213.011719 C 298.453125 213.011719 298.960938 212.679688 299.304688 212.011719 C 299.644531 211.347656 299.816406 210.347656 299.816406 209.015625 C 299.816406 207.675781 299.644531 206.675781 299.304688 206.011719 C 298.960938 205.34375 298.453125 205.011719 297.769531 205.011719 Z M 297.769531 203.96875 C 298.859375 203.96875 299.691406 204.398438 300.265625 205.261719 C 300.84375 206.125 301.128906 207.375 301.128906 209.015625 C 301.128906 210.652344 300.84375 211.898438 300.265625 212.761719 C 299.691406 213.625 298.859375 214.054688 297.769531 214.054688 C 296.679688 214.054688 295.847656 213.625 295.273438 212.761719 C 294.699219 211.898438 294.410156 210.652344 294.410156 209.015625 C 294.410156 207.375 294.699219 206.125 295.273438 205.261719 C 295.847656 204.398438 296.679688 203.96875 297.769531 203.96875 Z M 297.769531 203.96875 "/>
<g clip-path="url(#clip7)" clip-rule="nonzero">
<path style="fill:none;stroke-width:0.8;stroke-linecap:square;stroke-linejoin:round;stroke:rgb(69.01961%,69.01961%,69.01961%);stroke-opacity:1;stroke-miterlimit:4;" d="M 30.102539 140.226562 L 225.404297 140.226562 " transform="matrix(1.333333,0,0,1.333333,0,-0.000000000000014211)"/>
</g>
<path style="fill:none;stroke-width:0.8;stroke-linecap:butt;stroke-linejoin:round;stroke:rgb(0%,0%,0%);stroke-opacity:1;stroke-miterlimit:4;" d="M -0.000585556 0.00088501 L -3.498632 0.00088501 " transform="matrix(1.333333,0,0,1.333333,40.137499,186.96757)"/>
<path style=" stroke:none;fill-rule:nonzero;fill:rgb(0%,0%,0%);fill-opacity:1;" d="M 13.835938 183.179688 C 13.160156 183.179688 12.652344 183.511719 12.308594 184.179688 C 11.96875 184.84375 11.800781 185.84375 11.800781 187.183594 C 11.800781 188.515625 11.96875 189.515625 12.308594 190.179688 C 12.652344 190.847656 13.160156 191.179688 13.835938 191.179688 C 14.519531 191.179688 15.03125 190.847656 15.371094 190.179688 C 15.710938 189.515625 15.882812 188.515625 15.882812 187.183594 C 15.882812 185.84375 15.710938 184.84375 15.371094 184.179688 C 15.03125 183.511719 14.519531 183.179688 13.835938 183.179688 Z M 13.835938 182.136719 C 14.929688 182.136719 15.761719 182.570312 16.335938 183.429688 C 16.910156 184.292969 17.199219 185.542969 17.199219 187.183594 C 17.199219 188.820312 16.910156 190.070312 16.335938 190.929688 C 15.761719 191.792969 14.929688 192.222656 13.835938 192.222656 C 12.75 192.222656 11.917969 191.792969 11.339844 190.929688 C 10.765625 190.070312 10.480469 188.820312 10.480469 187.183594 C 10.480469 185.542969 10.765625 184.292969 11.339844 183.429688 C 11.917969 182.570312 12.75 182.136719 13.835938 182.136719 Z M 13.835938 182.136719 "/>
<path style=" stroke:none;fill-rule:nonzero;fill:rgb(0%,0%,0%);fill-opacity:1;" d="M 19.507812 190.378906 L 20.882812 190.378906 L 20.882812 192.03125 L 19.507812 192.03125 Z M 19.507812 190.378906 "/>
<path style=" stroke:none;fill-rule:nonzero;fill:rgb(0%,0%,0%);fill-opacity:1;" d="M 26.558594 183.179688 C 25.882812 183.179688 25.375 183.511719 25.03125 184.179688 C 24.691406 184.84375 24.519531 185.84375 24.519531 187.183594 C 24.519531 188.515625 24.691406 189.515625 25.03125 190.179688 C 25.375 190.847656 25.882812 191.179688 26.558594 191.179688 C 27.242188 191.179688 27.75 190.847656 28.09375 190.179688 C 28.433594 189.515625 28.605469 188.515625 28.605469 187.183594 C 28.605469 185.84375 28.433594 184.84375 28.09375 184.179688 C 27.75 183.511719 27.242188 183.179688 26.558594 183.179688 Z M 26.558594 182.136719 C 27.648438 182.136719 28.480469 182.570312 29.058594 183.429688 C 29.632812 184.292969 29.917969 185.542969 29.917969 187.183594 C 29.917969 188.820312 29.632812 190.070312 29.058594 190.929688 C 28.480469 191.792969 27.648438 192.222656 26.558594 192.222656 C 25.46875 192.222656 24.636719 191.792969 24.0625 190.929688 C 23.488281 190.070312 23.199219 188.820312 23.199219 187.183594 C 23.199219 185.542969 23.488281 184.292969 24.0625 183.429688 C 24.636719 182.570312 25.46875 182.136719 26.558594 182.136719 Z M 26.558594 182.136719 "/>
<g clip-path="url(#clip8)" clip-rule="nonzero">
<path style="fill:none;stroke-width:0.8;stroke-linecap:square;stroke-linejoin:round;stroke:rgb(69.01961%,69.01961%,69.01961%);stroke-opacity:1;stroke-miterlimit:4;" d="M 30.102539 105.023438 L 225.404297 105.023438 " transform="matrix(1.333333,0,0,1.333333,0,-0.000000000000014211)"/>
</g>
<path style="fill:none;stroke-width:0.8;stroke-linecap:butt;stroke-linejoin:round;stroke:rgb(0%,0%,0%);stroke-opacity:1;stroke-miterlimit:4;" d="M -0.000585556 -0.000663757 L -3.498632 -0.000663757 " transform="matrix(1.333333,0,0,1.333333,40.137499,140.032135)"/>
<path style=" stroke:none;fill-rule:nonzero;fill:rgb(0%,0%,0%);fill-opacity:1;" d="M 13.835938 136.242188 C 13.160156 136.242188 12.652344 136.578125 12.308594 137.242188 C 11.96875 137.910156 11.800781 138.910156 11.800781 140.246094 C 11.800781 141.578125 11.96875 142.578125 12.308594 143.246094 C 12.652344 143.914062 13.160156 144.246094 13.835938 144.246094 C 14.519531 144.246094 15.03125 143.914062 15.371094 143.246094 C 15.710938 142.578125 15.882812 141.578125 15.882812 140.246094 C 15.882812 138.910156 15.710938 137.910156 15.371094 137.242188 C 15.03125 136.578125 14.519531 136.242188 13.835938 136.242188 Z M 13.835938 135.203125 C 14.929688 135.203125 15.761719 135.632812 16.335938 136.496094 C 16.910156 137.355469 17.199219 138.609375 17.199219 140.246094 C 17.199219 141.882812 16.910156 143.132812 16.335938 143.996094 C 15.761719 144.855469 14.929688 145.289062 13.835938 145.289062 C 12.75 145.289062 11.917969 144.855469 11.339844 143.996094 C 10.765625 143.132812 10.480469 141.882812 10.480469 140.246094 C 10.480469 138.609375 10.765625 137.355469 11.339844 136.496094 C 11.917969 135.632812 12.75 135.203125 13.835938 135.203125 Z M 13.835938 135.203125 "/>
<path style=" stroke:none;fill-rule:nonzero;fill:rgb(0%,0%,0%);fill-opacity:1;" d="M 19.507812 143.445312 L 20.882812 143.445312 L 20.882812 145.097656 L 19.507812 145.097656 Z M 19.507812 143.445312 "/>
<path style=" stroke:none;fill-rule:nonzero;fill:rgb(0%,0%,0%);fill-opacity:1;" d="M 23.761719 135.375 L 28.921875 135.375 L 28.921875 136.484375 L 24.964844 136.484375 L 24.964844 138.867188 C 25.15625 138.800781 25.34375 138.753906 25.535156 138.71875 C 25.726562 138.6875 25.917969 138.671875 26.109375 138.671875 C 27.195312 138.671875 28.054688 138.96875 28.6875 139.5625 C 29.324219 140.160156 29.640625 140.964844 29.640625 141.980469 C 29.640625 143.023438 29.3125 143.839844 28.664062 144.417969 C 28.011719 144.996094 27.09375 145.289062 25.910156 145.289062 C 25.5 145.289062 25.085938 145.253906 24.660156 145.183594 C 24.238281 145.113281 23.800781 145.007812 23.351562 144.871094 L 23.351562 143.546875 C 23.742188 143.761719 24.144531 143.917969 24.5625 144.023438 C 24.976562 144.125 25.417969 144.179688 25.882812 144.179688 C 26.632812 144.179688 27.226562 143.980469 27.664062 143.585938 C 28.105469 143.191406 28.324219 142.65625 28.324219 141.980469 C 28.324219 141.300781 28.105469 140.765625 27.664062 140.371094 C 27.226562 139.976562 26.632812 139.777344 25.882812 139.777344 C 25.53125 139.777344 25.179688 139.816406 24.828125 139.894531 C 24.480469 139.972656 24.125 140.09375 23.761719 140.261719 Z M 23.761719 135.375 "/>
<g clip-path="url(#clip9)" clip-rule="nonzero">
<path style="fill:none;stroke-width:0.8;stroke-linecap:square;stroke-linejoin:round;stroke:rgb(69.01961%,69.01961%,69.01961%);stroke-opacity:1;stroke-miterlimit:4;" d="M 30.102539 69.823242 L 225.404297 69.823242 " transform="matrix(1.333333,0,0,1.333333,0,-0.000000000000014211)"/>
</g>
<path style="fill:none;stroke-width:0.8;stroke-linecap:butt;stroke-linejoin:round;stroke:rgb(0%,0%,0%);stroke-opacity:1;stroke-miterlimit:4;" d="M -0.000585556 0.000717163 L -3.498632 0.000717163 " transform="matrix(1.333333,0,0,1.333333,40.137499,93.0967)"/>
<path style=" stroke:none;fill-rule:nonzero;fill:rgb(0%,0%,0%);fill-opacity:1;" d="M 11.253906 97.054688 L 13.402344 97.054688 L 13.402344 89.640625 L 11.066406 90.109375 L 11.066406 88.910156 L 13.390625 88.441406 L 14.703125 88.441406 L 14.703125 97.054688 L 16.851562 97.054688 L 16.851562 98.164062 L 11.253906 98.164062 Z M 11.253906 97.054688 "/>
<path style=" stroke:none;fill-rule:nonzero;fill:rgb(0%,0%,0%);fill-opacity:1;" d="M 19.507812 96.507812 L 20.882812 96.507812 L 20.882812 98.164062 L 19.507812 98.164062 Z M 19.507812 96.507812 "/>
<path style=" stroke:none;fill-rule:nonzero;fill:rgb(0%,0%,0%);fill-opacity:1;" d="M 26.558594 89.308594 C 25.882812 89.308594 25.375 89.640625 25.03125 90.308594 C 24.691406 90.972656 24.519531 91.976562 24.519531 93.3125 C 24.519531 94.644531 24.691406 95.644531 25.03125 96.308594 C 25.375 96.976562 25.882812 97.308594 26.558594 97.308594 C 27.242188 97.308594 27.75 96.976562 28.09375 96.308594 C 28.433594 95.644531 28.605469 94.644531 28.605469 93.3125 C 28.605469 91.976562 28.433594 90.972656 28.09375 90.308594 C 27.75 89.640625 27.242188 89.308594 26.558594 89.308594 Z M 26.558594 88.265625 C 27.648438 88.265625 28.480469 88.699219 29.058594 89.558594 C 29.632812 90.421875 29.917969 91.671875 29.917969 93.3125 C 29.917969 94.949219 29.632812 96.199219 29.058594 97.058594 C 28.480469 97.921875 27.648438 98.351562 26.558594 98.351562 C 25.46875 98.351562 24.636719 97.921875 24.0625 97.058594 C 23.488281 96.199219 23.199219 94.949219 23.199219 93.3125 C 23.199219 91.671875 23.488281 90.421875 24.0625 89.558594 C 24.636719 88.699219 25.46875 88.265625 26.558594 88.265625 Z M 26.558594 88.265625 "/>
<g clip-path="url(#clip10)" clip-rule="nonzero">
<path style="fill:none;stroke-width:0.8;stroke-linecap:square;stroke-linejoin:round;stroke:rgb(69.01961%,69.01961%,69.01961%);stroke-opacity:1;stroke-miterlimit:4;" d="M 30.102539 34.620117 L 225.404297 34.620117 " transform="matrix(1.333333,0,0,1.333333,0,-0.000000000000014211)"/>
</g>
<path style="fill:none;stroke-width:0.8;stroke-linecap:butt;stroke-linejoin:round;stroke:rgb(0%,0%,0%);stroke-opacity:1;stroke-miterlimit:4;" d="M -0.000585556 -0.000831604 L -3.498632 -0.000831604 " transform="matrix(1.333333,0,0,1.333333,40.137499,46.161265)"/>
<path style=" stroke:none;fill-rule:nonzero;fill:rgb(0%,0%,0%);fill-opacity:1;" d="M 11.253906 50.121094 L 13.402344 50.121094 L 13.402344 42.703125 L 11.066406 43.171875 L 11.066406 41.976562 L 13.390625 41.507812 L 14.703125 41.507812 L 14.703125 50.121094 L 16.851562 50.121094 L 16.851562 51.226562 L 11.253906 51.226562 Z M 11.253906 50.121094 "/>
<path style=" stroke:none;fill-rule:nonzero;fill:rgb(0%,0%,0%);fill-opacity:1;" d="M 19.507812 49.574219 L 20.882812 49.574219 L 20.882812 51.226562 L 19.507812 51.226562 Z M 19.507812 49.574219 "/>
<path style=" stroke:none;fill-rule:nonzero;fill:rgb(0%,0%,0%);fill-opacity:1;" d="M 23.761719 41.507812 L 28.921875 41.507812 L 28.921875 42.613281 L 24.964844 42.613281 L 24.964844 44.996094 C 25.15625 44.929688 25.34375 44.882812 25.535156 44.851562 C 25.726562 44.816406 25.917969 44.800781 26.109375 44.800781 C 27.195312 44.800781 28.054688 45.097656 28.6875 45.695312 C 29.324219 46.289062 29.640625 47.09375 29.640625 48.109375 C 29.640625 49.152344 29.3125 49.96875 28.664062 50.546875 C 28.011719 51.125 27.09375 51.417969 25.910156 51.417969 C 25.5 51.417969 25.085938 51.382812 24.660156 51.3125 C 24.238281 51.242188 23.800781 51.140625 23.351562 51 L 23.351562 49.675781 C 23.742188 49.890625 24.144531 50.046875 24.5625 50.152344 C 24.976562 50.257812 25.417969 50.308594 25.882812 50.308594 C 26.632812 50.308594 27.226562 50.109375 27.664062 49.714844 C 28.105469 49.320312 28.324219 48.785156 28.324219 48.109375 C 28.324219 47.433594 28.105469 46.894531 27.664062 46.5 C 27.226562 46.105469 26.632812 45.90625 25.882812 45.90625 C 25.53125 45.90625 25.179688 45.945312 24.828125 46.023438 C 24.480469 46.101562 24.125 46.222656 23.761719 46.390625 Z M 23.761719 41.507812 "/>
<path style="fill:none;stroke-width:1.5;stroke-linecap:square;stroke-linejoin:round;stroke:rgb(12.156863%,46.666667%,70.588237%);stroke-opacity:1;stroke-miterlimit:4;" d="M 38.979492 13.5 L 42.603516 26.173828 L 46.227539 37.579102 L 49.851562 47.841797 L 53.472656 57.082031 L 57.09668 65.396484 L 60.720703 72.878906 L 64.344727 79.614258 L 67.96875 85.675781 L 71.589844 91.130859 L 75.213867 96.038086 L 78.837891 100.458984 L 82.461914 104.43457 L 86.083008 108.014648 L 89.707031 111.234375 L 93.331055 114.134766 L 96.955078 116.742188 L 100.579102 119.091797 L 104.200195 121.204102 L 107.824219 123.105469 L 111.448242 124.819336 L 115.072266 126.360352 L 118.693359 127.746094 L 122.317383 128.994141 L 125.941406 130.116211 L 129.56543 131.126953 L 133.189453 132.038086 L 136.810547 132.855469 L 140.43457 133.59375 L 144.058594 134.255859 L 147.682617 134.853516 L 151.303711 135.389648 L 154.927734 135.873047 L 158.551758 136.30957 L 162.175781 136.702148 L 165.799805 137.053711 L 169.420898 137.370117 L 173.044922 137.657227 L 176.668945 137.912109 L 180.292969 138.143555 L 183.914062 138.351562 L 187.538086 138.539062 L 191.162109 138.708984 L 194.786133 138.861328 L 198.410156 138.996094 L 202.03125 139.119141 L 205.655273 139.230469 L 209.279297 139.330078 L 212.90332 139.417969 L 216.524414 139.5 " transform="matrix(1.333333,0,0,1.333333,0,-0.000000000000014211)"/>
<path style="fill:none;stroke-width:0.8;stroke-linecap:square;stroke-linejoin:miter;stroke:rgb(0%,0%,0%);stroke-opacity:1;stroke-miterlimit:4;" d="M 30.102539 145.798828 L 30.102539 7.201172 " transform="matrix(1.333333,0,0,1.333333,0,-0.000000000000014211)"/>
<path style="fill:none;stroke-width:0.8;stroke-linecap:square;stroke-linejoin:miter;stroke:rgb(0%,0%,0%);stroke-opacity:1;stroke-miterlimit:4;" d="M 225.404297 145.798828 L 225.404297 7.201172 " transform="matrix(1.333333,0,0,1.333333,0,-0.000000000000014211)"/>
<path style="fill:none;stroke-width:0.8;stroke-linecap:square;stroke-linejoin:miter;stroke:rgb(0%,0%,0%);stroke-opacity:1;stroke-miterlimit:4;" d="M 30.102539 145.798828 L 225.404297 145.798828 " transform="matrix(1.333333,0,0,1.333333,0,-0.000000000000014211)"/>
<path style="fill:none;stroke-width:0.8;stroke-linecap:square;stroke-linejoin:miter;stroke:rgb(0%,0%,0%);stroke-opacity:1;stroke-miterlimit:4;" d="M 30.102539 7.201172 L 225.404297 7.201172 " transform="matrix(1.333333,0,0,1.333333,0,-0.000000000000014211)"/>
</g>
</svg>
