<?xml version="1.0" encoding="UTF-8"?>
<svg xmlns="http://www.w3.org/2000/svg" xmlns:xlink="http://www.w3.org/1999/xlink" width="339.547913" height="244.474996" viewBox="0 0 339.547913 244.474996" version="1.1">
<defs>
<clipPath id="clip1">
  <path d="M 79 9.601562 L 82 9.601562 L 82 194.398438 L 79 194.398438 Z M 79 9.601562 "/>
</clipPath>
<clipPath id="clip2">
  <path d="M 159 9.601562 L 161 9.601562 L 161 194.398438 L 159 194.398438 Z M 159 9.601562 "/>
</clipPath>
<clipPath id="clip3">
  <path d="M 238 9.601562 L 240 9.601562 L 240 194.398438 L 238 194.398438 Z M 238 9.601562 "/>
</clipPath>
<clipPath id="clip4">
  <path d="M 317 9.601562 L 319 9.601562 L 319 194.398438 L 317 194.398438 Z M 317 9.601562 "/>
</clipPath>
<clipPath id="clip5">
  <path d="M 69.546875 185 L 329.949219 185 L 329.949219 187 L 69.546875 187 Z M 69.546875 185 "/>
</clipPath>
<clipPath id="clip6">
  <path d="M 69.546875 143 L 329.949219 143 L 329.949219 145 L 69.546875 145 Z M 69.546875 143 "/>
</clipPath>
<clipPath id="clip7">
  <path d="M 69.546875 101 L 329.949219 101 L 329.949219 103 L 69.546875 103 Z M 69.546875 101 "/>
</clipPath>
<clipPath id="clip8">
  <path d="M 69.546875 59 L 329.949219 59 L 329.949219 61 L 69.546875 61 Z M 69.546875 59 "/>
</clipPath>
<clipPath id="clip9">
  <path d="M 69.546875 17 L 329.949219 17 L 329.949219 19 L 69.546875 19 Z M 69.546875 17 "/>
</clipPath>
</defs>
<g id="surface1">
<path style=" stroke:none;fill-rule:nonzero;fill:rgb(100%,100%,100%);fill-opacity:1;" d="M 0 244.476562 L 339.546875 244.476562 L 339.546875 0 L 0 0 Z M 0 244.476562 "/>
<path style=" stroke:none;fill-rule:nonzero;fill:rgb(100%,100%,100%);fill-opacity:1;" d="M 69.546875 194.398438 L 329.949219 194.398438 L 329.949219 9.601562 L 69.546875 9.601562 Z M 69.546875 194.398438 "/>
<g clip-path="url(#clip1)" clip-rule="nonzero">
<path style="fill:none;stroke-width:0.8;stroke-linecap:square;stroke-linejoin:round;stroke:rgb(69.01961%,69.01961%,69.01961%);stroke-opacity:1;stroke-miterlimit:4;" d="M 60.445312 145.798828 L 60.445312 7.201172 " transform="matrix(1.333333,0,0,1.333333,0,0.000000000000014211)"/>
</g>
<path style="fill:none;stroke-width:0.8;stroke-linecap:butt;stroke-linejoin:round;stroke:rgb(0%,0%,0%);stroke-opacity:1;stroke-miterlimit:4;" d="M 0.000900269 -0.00117493 L 0.000900269 3.499802 " transform="matrix(1.333333,0,0,1.333333,80.59255,194.400004)"/>
<path style=" stroke:none;fill-rule:nonzero;fill:rgb(0%,0%,0%);fill-opacity:1;" d="M 80.589844 205.011719 C 79.910156 205.011719 79.402344 205.34375 79.0625 206.011719 C 78.722656 206.675781 78.550781 207.675781 78.550781 209.015625 C 78.550781 210.347656 78.722656 211.347656 79.0625 212.011719 C 79.402344 212.679688 79.910156 213.011719 80.589844 213.011719 C 81.269531 213.011719 81.78125 212.679688 82.121094 212.011719 C 82.464844 211.347656 82.632812 210.347656 82.632812 209.015625 C 82.632812 207.675781 82.464844 206.675781 82.121094 206.011719 C 81.78125 205.34375 81.269531 205.011719 80.589844 205.011719 Z M 80.589844 203.96875 C 81.679688 203.96875 82.511719 204.398438 83.085938 205.261719 C 83.660156 206.125 83.949219 207.375 83.949219 209.015625 C 83.949219 210.652344 83.660156 211.898438 83.085938 212.761719 C 82.511719 213.625 81.679688 214.054688 80.589844 214.054688 C 79.5 214.054688 78.667969 213.625 78.09375 212.761719 C 77.515625 211.898438 77.230469 210.652344 77.230469 209.015625 C 77.230469 207.375 77.515625 206.125 78.09375 205.261719 C 78.667969 204.398438 79.5 203.96875 80.589844 203.96875 Z M 80.589844 203.96875 "/>
<g clip-path="url(#clip2)" clip-rule="nonzero">
<path style="fill:none;stroke-width:0.8;stroke-linecap:square;stroke-linejoin:round;stroke:rgb(69.01961%,69.01961%,69.01961%);stroke-opacity:1;stroke-miterlimit:4;" d="M 119.824219 145.798828 L 119.824219 7.201172 " transform="matrix(1.333333,0,0,1.333333,0,0.000000000000014211)"/>
</g>
<path style="fill:none;stroke-width:0.8;stroke-linecap:butt;stroke-linejoin:round;stroke:rgb(0%,0%,0%);stroke-opacity:1;stroke-miterlimit:4;" d="M 0.0000534058 -0.00117493 L 0.0000534058 3.499802 " transform="matrix(1.333333,0,0,1.333333,159.765554,194.400004)"/>
<path style=" stroke:none;fill-rule:nonzero;fill:rgb(0%,0%,0%);fill-opacity:1;" d="M 157.179688 212.757812 L 159.324219 212.757812 L 159.324219 205.339844 L 156.988281 205.808594 L 156.988281 204.613281 L 159.3125 204.144531 L 160.628906 204.144531 L 160.628906 212.757812 L 162.777344 212.757812 L 162.777344 213.863281 L 157.179688 213.863281 Z M 157.179688 212.757812 "/>
<g clip-path="url(#clip3)" clip-rule="nonzero">
<path style="fill:none;stroke-width:0.8;stroke-linecap:square;stroke-linejoin:round;stroke:rgb(69.01961%,69.01961%,69.01961%);stroke-opacity:1;stroke-miterlimit:4;" d="M 179.203125 145.798828 L 179.203125 7.201172 " transform="matrix(1.333333,0,0,1.333333,0,0.000000000000014211)"/>
</g>
<path style="fill:none;stroke-width:0.8;stroke-linecap:butt;stroke-linejoin:round;stroke:rgb(0%,0%,0%);stroke-opacity:1;stroke-miterlimit:4;" d="M -0.000793457 -0.00117493 L -0.000793457 3.499802 " transform="matrix(1.333333,0,0,1.333333,238.938558,194.400004)"/>
<path style=" stroke:none;fill-rule:nonzero;fill:rgb(0%,0%,0%);fill-opacity:1;" d="M 237.253906 212.757812 L 241.84375 212.757812 L 241.84375 213.863281 L 235.675781 213.863281 L 235.675781 212.757812 C 236.171875 212.242188 236.851562 211.546875 237.714844 210.679688 C 238.574219 209.808594 239.117188 209.246094 239.339844 208.992188 C 239.757812 208.523438 240.054688 208.121094 240.21875 207.792969 C 240.386719 207.464844 240.472656 207.144531 240.472656 206.828125 C 240.472656 206.308594 240.289062 205.890625 239.929688 205.566406 C 239.566406 205.238281 239.09375 205.074219 238.511719 205.074219 C 238.097656 205.074219 237.664062 205.148438 237.207031 205.289062 C 236.75 205.433594 236.257812 205.648438 235.738281 205.941406 L 235.738281 204.613281 C 236.269531 204.398438 236.761719 204.238281 237.222656 204.132812 C 237.683594 204.023438 238.105469 203.96875 238.488281 203.96875 C 239.492188 203.96875 240.296875 204.222656 240.894531 204.726562 C 241.492188 205.226562 241.792969 205.898438 241.792969 206.742188 C 241.792969 207.140625 241.71875 207.519531 241.566406 207.878906 C 241.417969 208.234375 241.148438 208.65625 240.75 209.144531 C 240.644531 209.269531 240.296875 209.632812 239.714844 210.234375 C 239.136719 210.835938 238.316406 211.679688 237.253906 212.757812 Z M 237.253906 212.757812 "/>
<g clip-path="url(#clip4)" clip-rule="nonzero">
<path style="fill:none;stroke-width:0.8;stroke-linecap:square;stroke-linejoin:round;stroke:rgb(69.01961%,69.01961%,69.01961%);stroke-opacity:1;stroke-miterlimit:4;" d="M 238.584961 145.798828 L 238.584961 7.201172 " transform="matrix(1.333333,0,0,1.333333,0,0.000000000000014211)"/>
</g>
<path style="fill:none;stroke-width:0.8;stroke-linecap:butt;stroke-linejoin:round;stroke:rgb(0%,0%,0%);stroke-opacity:1;stroke-miterlimit:4;" d="M 0.001297 -0.00117493 L 0.001297 3.499802 " transform="matrix(1.333333,0,0,1.333333,318.111552,194.400004)"/>
<path style=" stroke:none;fill-rule:nonzero;fill:rgb(0%,0%,0%);fill-opacity:1;" d="M 319.28125 208.621094 C 319.910156 208.757812 320.402344 209.039062 320.753906 209.464844 C 321.105469 209.890625 321.285156 210.414062 321.285156 211.039062 C 321.285156 211.996094 320.953125 212.742188 320.292969 213.265625 C 319.636719 213.792969 318.699219 214.054688 317.480469 214.054688 C 317.074219 214.054688 316.65625 214.015625 316.222656 213.933594 C 315.792969 213.851562 315.347656 213.730469 314.886719 213.570312 L 314.886719 212.300781 C 315.25 212.515625 315.648438 212.675781 316.082031 212.785156 C 316.515625 212.890625 316.972656 212.945312 317.445312 212.945312 C 318.269531 212.945312 318.894531 212.785156 319.328125 212.457031 C 319.761719 212.132812 319.976562 211.660156 319.976562 211.039062 C 319.976562 210.464844 319.777344 210.019531 319.375 209.695312 C 318.972656 209.371094 318.414062 209.210938 317.699219 209.210938 L 316.566406 209.210938 L 316.566406 208.128906 L 317.75 208.128906 C 318.398438 208.128906 318.890625 208 319.234375 207.742188 C 319.578125 207.484375 319.75 207.109375 319.75 206.625 C 319.75 206.125 319.570312 205.742188 319.21875 205.476562 C 318.863281 205.210938 318.359375 205.074219 317.699219 205.074219 C 317.339844 205.074219 316.949219 205.113281 316.539062 205.195312 C 316.125 205.273438 315.671875 205.390625 315.179688 205.554688 L 315.179688 204.386719 C 315.679688 204.246094 316.144531 204.140625 316.582031 204.074219 C 317.019531 204.003906 317.429688 203.96875 317.816406 203.96875 C 318.8125 203.96875 319.605469 204.195312 320.183594 204.648438 C 320.765625 205.101562 321.058594 205.714844 321.058594 206.488281 C 321.058594 207.027344 320.902344 207.480469 320.59375 207.851562 C 320.285156 208.222656 319.847656 208.480469 319.28125 208.621094 Z M 319.28125 208.621094 "/>
<path style=" stroke:none;fill-rule:nonzero;fill:rgb(0%,0%,0%);fill-opacity:1;" d="M 203.121094 224.808594 L 200.484375 228.359375 L 203.257812 232.101562 L 201.84375 232.101562 L 199.722656 229.238281 L 197.601562 232.101562 L 196.183594 232.101562 L 199.019531 228.289062 L 196.425781 224.808594 L 197.839844 224.808594 L 199.773438 227.410156 L 201.707031 224.808594 Z M 203.121094 224.808594 "/>
<g clip-path="url(#clip5)" clip-rule="nonzero">
<path style="fill:none;stroke-width:0.8;stroke-linecap:square;stroke-linejoin:round;stroke:rgb(69.01961%,69.01961%,69.01961%);stroke-opacity:1;stroke-miterlimit:4;" d="M 52.160156 139.543945 L 247.461914 139.543945 " transform="matrix(1.333333,0,0,1.333333,0,0.000000000000014211)"/>
</g>
<path style="fill:none;stroke-width:0.8;stroke-linecap:butt;stroke-linejoin:round;stroke:rgb(0%,0%,0%);stroke-opacity:1;stroke-miterlimit:4;" d="M -0.000782013 0.000228882 L -3.498829 0.000228882 " transform="matrix(1.333333,0,0,1.333333,69.547918,186.058289)"/>
<path style=" stroke:none;fill-rule:nonzero;fill:rgb(0%,0%,0%);fill-opacity:1;" d="M 29.25 186.390625 L 37.597656 186.390625 L 37.597656 187.496094 L 29.25 187.496094 Z M 29.25 186.390625 "/>
<path style=" stroke:none;fill-rule:nonzero;fill:rgb(0%,0%,0%);fill-opacity:1;" d="M 40.664062 190.019531 L 42.8125 190.019531 L 42.8125 182.601562 L 40.472656 183.070312 L 40.472656 181.871094 L 42.800781 181.402344 L 44.113281 181.402344 L 44.113281 190.019531 L 46.261719 190.019531 L 46.261719 191.125 L 40.664062 191.125 Z M 40.664062 190.019531 "/>
<path style=" stroke:none;fill-rule:nonzero;fill:rgb(0%,0%,0%);fill-opacity:1;" d="M 48.917969 189.46875 L 50.292969 189.46875 L 50.292969 191.125 L 48.917969 191.125 Z M 48.917969 189.46875 "/>
<path style=" stroke:none;fill-rule:nonzero;fill:rgb(0%,0%,0%);fill-opacity:1;" d="M 55.96875 182.269531 C 55.292969 182.269531 54.78125 182.601562 54.441406 183.269531 C 54.101562 183.933594 53.929688 184.9375 53.929688 186.273438 C 53.929688 187.605469 54.101562 188.605469 54.441406 189.273438 C 54.78125 189.9375 55.292969 190.273438 55.96875 190.273438 C 56.648438 190.273438 57.160156 189.9375 57.5 189.273438 C 57.84375 188.605469 58.015625 187.605469 58.015625 186.273438 C 58.015625 184.9375 57.84375 183.933594 57.5 183.269531 C 57.160156 182.601562 56.648438 182.269531 55.96875 182.269531 Z M 55.96875 181.226562 C 57.058594 181.226562 57.890625 181.660156 58.464844 182.523438 C 59.042969 183.382812 59.328125 184.632812 59.328125 186.273438 C 59.328125 187.910156 59.042969 189.160156 58.464844 190.023438 C 57.890625 190.882812 57.058594 191.3125 55.96875 191.3125 C 54.878906 191.3125 54.046875 190.882812 53.472656 190.023438 C 52.898438 189.160156 52.609375 187.910156 52.609375 186.273438 C 52.609375 184.632812 52.898438 183.382812 53.472656 182.523438 C 54.046875 181.660156 54.878906 181.226562 55.96875 181.226562 Z M 55.96875 181.226562 "/>
<g clip-path="url(#clip6)" clip-rule="nonzero">
<path style="fill:none;stroke-width:0.8;stroke-linecap:square;stroke-linejoin:round;stroke:rgb(69.01961%,69.01961%,69.01961%);stroke-opacity:1;stroke-miterlimit:4;" d="M 52.160156 108.032227 L 247.461914 108.032227 " transform="matrix(1.333333,0,0,1.333333,0,0.000000000000014211)"/>
</g>
<path style="fill:none;stroke-width:0.8;stroke-linecap:butt;stroke-linejoin:round;stroke:rgb(0%,0%,0%);stroke-opacity:1;stroke-miterlimit:4;" d="M -0.000782013 0.000183105 L -3.498829 0.000183105 " transform="matrix(1.333333,0,0,1.333333,69.547918,144.042725)"/>
<path style=" stroke:none;fill-rule:nonzero;fill:rgb(0%,0%,0%);fill-opacity:1;" d="M 29.25 144.375 L 37.597656 144.375 L 37.597656 145.480469 L 29.25 145.480469 Z M 29.25 144.375 "/>
<path style=" stroke:none;fill-rule:nonzero;fill:rgb(0%,0%,0%);fill-opacity:1;" d="M 43.246094 140.253906 C 42.570312 140.253906 42.0625 140.585938 41.71875 141.253906 C 41.378906 141.917969 41.210938 142.921875 41.210938 144.257812 C 41.210938 145.589844 41.378906 146.589844 41.71875 147.257812 C 42.0625 147.921875 42.570312 148.257812 43.246094 148.257812 C 43.929688 148.257812 44.441406 147.921875 44.78125 147.257812 C 45.121094 146.589844 45.292969 145.589844 45.292969 144.257812 C 45.292969 142.921875 45.121094 141.917969 44.78125 141.253906 C 44.441406 140.585938 43.929688 140.253906 43.246094 140.253906 Z M 43.246094 139.210938 C 44.335938 139.210938 45.167969 139.644531 45.746094 140.507812 C 46.320312 141.367188 46.605469 142.617188 46.605469 144.257812 C 46.605469 145.894531 46.320312 147.144531 45.746094 148.007812 C 45.167969 148.867188 44.335938 149.296875 43.246094 149.296875 C 42.15625 149.296875 41.324219 148.867188 40.75 148.007812 C 40.175781 147.144531 39.886719 145.894531 39.886719 144.257812 C 39.886719 142.617188 40.175781 141.367188 40.75 140.507812 C 41.324219 139.644531 42.15625 139.210938 43.246094 139.210938 Z M 43.246094 139.210938 "/>
<path style=" stroke:none;fill-rule:nonzero;fill:rgb(0%,0%,0%);fill-opacity:1;" d="M 48.917969 147.453125 L 50.292969 147.453125 L 50.292969 149.109375 L 48.917969 149.109375 Z M 48.917969 147.453125 "/>
<path style=" stroke:none;fill-rule:nonzero;fill:rgb(0%,0%,0%);fill-opacity:1;" d="M 53.171875 139.386719 L 58.332031 139.386719 L 58.332031 140.496094 L 54.375 140.496094 L 54.375 142.878906 C 54.566406 142.8125 54.753906 142.761719 54.945312 142.730469 C 55.136719 142.699219 55.328125 142.683594 55.519531 142.683594 C 56.605469 142.683594 57.464844 142.980469 58.097656 143.574219 C 58.730469 144.167969 59.050781 144.972656 59.050781 145.988281 C 59.050781 147.035156 58.722656 147.847656 58.074219 148.429688 C 57.421875 149.007812 56.503906 149.296875 55.316406 149.296875 C 54.910156 149.296875 54.492188 149.261719 54.070312 149.195312 C 53.648438 149.125 53.210938 149.019531 52.761719 148.882812 L 52.761719 147.558594 C 53.148438 147.769531 53.554688 147.929688 53.96875 148.035156 C 54.386719 148.136719 54.828125 148.191406 55.292969 148.191406 C 56.042969 148.191406 56.636719 147.992188 57.074219 147.597656 C 57.511719 147.203125 57.734375 146.667969 57.734375 145.988281 C 57.734375 145.3125 57.511719 144.777344 57.074219 144.382812 C 56.636719 143.988281 56.042969 143.789062 55.292969 143.789062 C 54.941406 143.789062 54.589844 143.828125 54.238281 143.90625 C 53.890625 143.984375 53.535156 144.105469 53.171875 144.269531 Z M 53.171875 139.386719 "/>
<g clip-path="url(#clip7)" clip-rule="nonzero">
<path style="fill:none;stroke-width:0.8;stroke-linecap:square;stroke-linejoin:round;stroke:rgb(69.01961%,69.01961%,69.01961%);stroke-opacity:1;stroke-miterlimit:4;" d="M 52.160156 76.520508 L 247.461914 76.520508 " transform="matrix(1.333333,0,0,1.333333,0,0.000000000000014211)"/>
</g>
<path style="fill:none;stroke-width:0.8;stroke-linecap:butt;stroke-linejoin:round;stroke:rgb(0%,0%,0%);stroke-opacity:1;stroke-miterlimit:4;" d="M -0.000782013 0.0001297 L -3.498829 0.0001297 " transform="matrix(1.333333,0,0,1.333333,69.547918,102.027171)"/>
<path style=" stroke:none;fill-rule:nonzero;fill:rgb(0%,0%,0%);fill-opacity:1;" d="M 43.246094 98.238281 C 42.570312 98.238281 42.0625 98.570312 41.722656 99.238281 C 41.378906 99.902344 41.210938 100.90625 41.210938 102.242188 C 41.210938 103.574219 41.378906 104.574219 41.722656 105.242188 C 42.0625 105.90625 42.570312 106.242188 43.246094 106.242188 C 43.929688 106.242188 44.441406 105.90625 44.78125 105.242188 C 45.121094 104.574219 45.292969 103.574219 45.292969 102.242188 C 45.292969 100.90625 45.121094 99.902344 44.78125 99.238281 C 44.441406 98.570312 43.929688 98.238281 43.246094 98.238281 Z M 43.246094 97.195312 C 44.339844 97.195312 45.171875 97.628906 45.746094 98.492188 C 46.320312 99.351562 46.609375 100.601562 46.609375 102.242188 C 46.609375 103.878906 46.320312 105.128906 45.746094 105.992188 C 45.171875 106.851562 44.339844 107.28125 43.246094 107.28125 C 42.160156 107.28125 41.328125 106.851562 40.753906 105.992188 C 40.175781 105.128906 39.890625 103.878906 39.890625 102.242188 C 39.890625 100.601562 40.175781 99.351562 40.753906 98.492188 C 41.328125 97.628906 42.160156 97.195312 43.246094 97.195312 Z M 43.246094 97.195312 "/>
<path style=" stroke:none;fill-rule:nonzero;fill:rgb(0%,0%,0%);fill-opacity:1;" d="M 48.917969 105.4375 L 50.292969 105.4375 L 50.292969 107.09375 L 48.917969 107.09375 Z M 48.917969 105.4375 "/>
<path style=" stroke:none;fill-rule:nonzero;fill:rgb(0%,0%,0%);fill-opacity:1;" d="M 55.96875 98.238281 C 55.292969 98.238281 54.785156 98.570312 54.441406 99.238281 C 54.101562 99.902344 53.933594 100.90625 53.933594 102.242188 C 53.933594 103.574219 54.101562 104.574219 54.441406 105.242188 C 54.785156 105.90625 55.292969 106.242188 55.96875 106.242188 C 56.652344 106.242188 57.164062 105.90625 57.503906 105.242188 C 57.84375 104.574219 58.015625 103.574219 58.015625 102.242188 C 58.015625 100.90625 57.84375 99.902344 57.503906 99.238281 C 57.164062 98.570312 56.652344 98.238281 55.96875 98.238281 Z M 55.96875 97.195312 C 57.058594 97.195312 57.890625 97.628906 58.46875 98.492188 C 59.042969 99.351562 59.328125 100.601562 59.328125 102.242188 C 59.328125 103.878906 59.042969 105.128906 58.46875 105.992188 C 57.890625 106.851562 57.058594 107.28125 55.96875 107.28125 C 54.878906 107.28125 54.046875 106.851562 53.472656 105.992188 C 52.898438 105.128906 52.609375 103.878906 52.609375 102.242188 C 52.609375 100.601562 52.898438 99.351562 53.472656 98.492188 C 54.046875 97.628906 54.878906 97.195312 55.96875 97.195312 Z M 55.96875 97.195312 "/>
<g clip-path="url(#clip8)" clip-rule="nonzero">
<path style="fill:none;stroke-width:0.8;stroke-linecap:square;stroke-linejoin:round;stroke:rgb(69.01961%,69.01961%,69.01961%);stroke-opacity:1;stroke-miterlimit:4;" d="M 52.160156 45.008789 L 247.461914 45.008789 " transform="matrix(1.333333,0,0,1.333333,0,0.000000000000014211)"/>
</g>
<path style="fill:none;stroke-width:0.8;stroke-linecap:butt;stroke-linejoin:round;stroke:rgb(0%,0%,0%);stroke-opacity:1;stroke-miterlimit:4;" d="M -0.000782013 0.0000801086 L -3.498829 0.0000801086 " transform="matrix(1.333333,0,0,1.333333,69.547918,60.011612)"/>
<path style=" stroke:none;fill-rule:nonzero;fill:rgb(0%,0%,0%);fill-opacity:1;" d="M 43.246094 56.222656 C 42.570312 56.222656 42.0625 56.554688 41.722656 57.222656 C 41.378906 57.886719 41.210938 58.890625 41.210938 60.226562 C 41.210938 61.558594 41.378906 62.558594 41.722656 63.226562 C 42.0625 63.890625 42.570312 64.226562 43.246094 64.226562 C 43.929688 64.226562 44.441406 63.890625 44.78125 63.226562 C 45.121094 62.558594 45.292969 61.558594 45.292969 60.226562 C 45.292969 58.890625 45.121094 57.886719 44.78125 57.222656 C 44.441406 56.554688 43.929688 56.222656 43.246094 56.222656 Z M 43.246094 55.179688 C 44.339844 55.179688 45.171875 55.613281 45.746094 56.476562 C 46.320312 57.335938 46.609375 58.585938 46.609375 60.226562 C 46.609375 61.863281 46.320312 63.113281 45.746094 63.976562 C 45.171875 64.835938 44.339844 65.265625 43.246094 65.265625 C 42.160156 65.265625 41.328125 64.835938 40.753906 63.976562 C 40.175781 63.113281 39.890625 61.863281 39.890625 60.226562 C 39.890625 58.585938 40.175781 57.335938 40.753906 56.476562 C 41.328125 55.613281 42.160156 55.179688 43.246094 55.179688 Z M 43.246094 55.179688 "/>
<path style=" stroke:none;fill-rule:nonzero;fill:rgb(0%,0%,0%);fill-opacity:1;" d="M 48.917969 63.421875 L 50.292969 63.421875 L 50.292969 65.078125 L 48.917969 65.078125 Z M 48.917969 63.421875 "/>
<path style=" stroke:none;fill-rule:nonzero;fill:rgb(0%,0%,0%);fill-opacity:1;" d="M 53.171875 55.355469 L 58.332031 55.355469 L 58.332031 56.464844 L 54.375 56.464844 L 54.375 58.847656 C 54.566406 58.78125 54.757812 58.730469 54.945312 58.699219 C 55.136719 58.667969 55.328125 58.652344 55.519531 58.652344 C 56.605469 58.652344 57.464844 58.949219 58.097656 59.542969 C 58.734375 60.136719 59.050781 60.941406 59.050781 61.957031 C 59.050781 63.003906 58.726562 63.816406 58.074219 64.398438 C 57.421875 64.976562 56.503906 65.265625 55.320312 65.265625 C 54.910156 65.265625 54.496094 65.230469 54.070312 65.164062 C 53.648438 65.09375 53.210938 64.988281 52.761719 64.851562 L 52.761719 63.527344 C 53.152344 63.738281 53.554688 63.898438 53.972656 64.003906 C 54.386719 64.105469 54.828125 64.160156 55.292969 64.160156 C 56.042969 64.160156 56.636719 63.960938 57.074219 63.566406 C 57.515625 63.171875 57.734375 62.636719 57.734375 61.957031 C 57.734375 61.28125 57.515625 60.746094 57.074219 60.351562 C 56.636719 59.957031 56.042969 59.757812 55.292969 59.757812 C 54.941406 59.757812 54.589844 59.796875 54.238281 59.875 C 53.890625 59.953125 53.535156 60.074219 53.171875 60.238281 Z M 53.171875 55.355469 "/>
<g clip-path="url(#clip9)" clip-rule="nonzero">
<path style="fill:none;stroke-width:0.8;stroke-linecap:square;stroke-linejoin:round;stroke:rgb(69.01961%,69.01961%,69.01961%);stroke-opacity:1;stroke-miterlimit:4;" d="M 52.160156 13.49707 L 247.461914 13.49707 " transform="matrix(1.333333,0,0,1.333333,0,0.000000000000014211)"/>
</g>
<path style="fill:none;stroke-width:0.8;stroke-linecap:butt;stroke-linejoin:round;stroke:rgb(0%,0%,0%);stroke-opacity:1;stroke-miterlimit:4;" d="M -0.000782013 0.0000305176 L -3.498829 0.0000305176 " transform="matrix(1.333333,0,0,1.333333,69.547918,17.996053)"/>
<path style=" stroke:none;fill-rule:nonzero;fill:rgb(0%,0%,0%);fill-opacity:1;" d="M 40.664062 21.957031 L 42.8125 21.957031 L 42.8125 14.539062 L 40.476562 15.007812 L 40.476562 13.808594 L 42.800781 13.339844 L 44.113281 13.339844 L 44.113281 21.957031 L 46.261719 21.957031 L 46.261719 23.0625 L 40.664062 23.0625 Z M 40.664062 21.957031 "/>
<path style=" stroke:none;fill-rule:nonzero;fill:rgb(0%,0%,0%);fill-opacity:1;" d="M 48.917969 21.40625 L 50.292969 21.40625 L 50.292969 23.0625 L 48.917969 23.0625 Z M 48.917969 21.40625 "/>
<path style=" stroke:none;fill-rule:nonzero;fill:rgb(0%,0%,0%);fill-opacity:1;" d="M 55.96875 14.207031 C 55.292969 14.207031 54.785156 14.539062 54.441406 15.207031 C 54.101562 15.871094 53.933594 16.875 53.933594 18.210938 C 53.933594 19.542969 54.101562 20.542969 54.441406 21.210938 C 54.785156 21.875 55.292969 22.210938 55.96875 22.210938 C 56.652344 22.210938 57.164062 21.875 57.503906 21.210938 C 57.84375 20.542969 58.015625 19.542969 58.015625 18.210938 C 58.015625 16.875 57.84375 15.871094 57.503906 15.207031 C 57.164062 14.539062 56.652344 14.207031 55.96875 14.207031 Z M 55.96875 13.164062 C 57.058594 13.164062 57.890625 13.597656 58.46875 14.460938 C 59.042969 15.320312 59.328125 16.570312 59.328125 18.210938 C 59.328125 19.847656 59.042969 21.097656 58.46875 21.960938 C 57.890625 22.820312 57.058594 23.25 55.96875 23.25 C 54.878906 23.25 54.046875 22.820312 53.472656 21.960938 C 52.898438 21.097656 52.609375 19.847656 52.609375 18.210938 C 52.609375 16.570312 52.898438 15.320312 53.472656 14.460938 C 54.046875 13.597656 54.878906 13.164062 55.96875 13.164062 Z M 55.96875 13.164062 "/>
<path style=" stroke:none;fill-rule:nonzero;fill:rgb(0%,0%,0%);fill-opacity:1;" d="M 9.601562 108.546875 L 10.597656 108.546875 L 10.597656 109.691406 C 10.597656 110.121094 10.683594 110.421875 10.859375 110.589844 C 11.03125 110.753906 11.34375 110.839844 11.796875 110.839844 L 12.441406 110.839844 L 12.441406 108.867188 L 13.371094 108.867188 L 13.371094 110.839844 L 19.730469 110.839844 L 19.730469 112.042969 L 13.371094 112.042969 L 13.371094 113.1875 L 12.441406 113.1875 L 12.441406 112.042969 L 11.929688 112.042969 C 11.121094 112.042969 10.527344 111.855469 10.160156 111.476562 C 9.785156 111.097656 9.601562 110.5 9.601562 109.679688 Z M 9.601562 108.546875 "/>
<path style=" stroke:none;fill-rule:nonzero;fill:rgb(0%,0%,0%);fill-opacity:1;" d="M 9.613281 104.667969 C 10.613281 105.246094 11.597656 105.679688 12.578125 105.964844 C 13.554688 106.246094 14.542969 106.386719 15.546875 106.386719 C 16.546875 106.386719 17.539062 106.242188 18.523438 105.960938 C 19.507812 105.675781 20.496094 105.242188 21.488281 104.667969 L 21.488281 105.710938 C 20.46875 106.359375 19.464844 106.847656 18.480469 107.167969 C 17.496094 107.492188 16.519531 107.65625 15.546875 107.65625 C 14.578125 107.65625 13.601562 107.496094 12.621094 107.171875 C 11.640625 106.851562 10.636719 106.363281 9.613281 105.710938 Z M 9.613281 104.667969 "/>
<path style=" stroke:none;fill-rule:nonzero;fill:rgb(0%,0%,0%);fill-opacity:1;" d="M 12.441406 96.28125 L 15.988281 98.917969 L 19.730469 96.144531 L 19.730469 97.558594 L 16.867188 99.679688 L 19.730469 101.800781 L 19.730469 103.214844 L 15.917969 100.382812 L 12.441406 102.972656 L 12.441406 101.5625 L 15.039062 99.628906 L 12.441406 97.695312 Z M 12.441406 96.28125 "/>
<path style=" stroke:none;fill-rule:nonzero;fill:rgb(0%,0%,0%);fill-opacity:1;" d="M 9.613281 94.640625 L 9.613281 93.597656 C 10.636719 92.949219 11.640625 92.460938 12.621094 92.136719 C 13.601562 91.8125 14.578125 91.652344 15.546875 91.652344 C 16.519531 91.652344 17.496094 91.8125 18.480469 92.136719 C 19.464844 92.460938 20.46875 92.949219 21.488281 93.597656 L 21.488281 94.640625 C 20.496094 94.0625 19.507812 93.632812 18.523438 93.347656 C 17.539062 93.0625 16.546875 92.921875 15.546875 92.921875 C 14.542969 92.921875 13.554688 93.0625 12.578125 93.347656 C 11.597656 93.632812 10.613281 94.0625 9.613281 94.640625 Z M 9.613281 94.640625 "/>
<path style="fill:none;stroke-width:1.5;stroke-linecap:square;stroke-linejoin:round;stroke:rgb(12.156863%,46.666667%,70.588237%);stroke-opacity:1;stroke-miterlimit:4;" d="M 61.037109 25.075195 L 62.226562 27.146484 L 63.413086 28.722656 L 64.599609 30.005859 L 66.383789 31.558594 L 68.165039 32.783203 L 69.946289 33.75293 L 72.319336 34.737305 L 74.695312 35.44043 L 77.071289 35.912109 L 79.447266 36.1875 L 82.415039 36.295898 L 85.382812 36.178711 L 88.353516 35.859375 L 91.916016 35.235352 L 95.478516 34.374023 L 99.041016 33.295898 L 103.198242 31.77832 L 107.355469 30.008789 L 111.509766 28.010742 L 116.261719 25.49707 L 123.386719 21.427734 L 129.919922 17.742187 L 133.482422 15.966797 L 136.450195 14.742187 L 138.826172 14.012695 L 140.607422 13.658203 L 142.388672 13.5 L 144.169922 13.584961 L 145.951172 13.948242 L 147.137695 14.373047 L 148.327148 14.956055 L 149.513672 15.717773 L 150.700195 16.675781 L 151.889648 17.844727 L 153.076172 19.242187 L 154.265625 20.891602 L 155.452148 22.807617 L 157.233398 26.223633 L 159.014648 30.348633 L 160.795898 35.235352 L 162.577148 40.936523 L 164.358398 47.478516 L 166.139648 54.870117 L 167.920898 63.09082 L 170.296875 75.210937 L 173.264648 91.743164 L 177.421875 115.21875 L 179.203125 124.21582 L 180.392578 129.436523 L 181.579102 133.795898 L 182.765625 137.077148 L 183.360352 138.243164 L 183.955078 139.051758 L 184.546875 139.479492 L 185.141602 139.5 L 185.736328 139.083984 L 186.328125 138.210938 L 186.922852 136.854492 L 187.517578 135.00293 L 188.112305 132.638672 L 189.298828 126.331055 L 190.485352 117.925781 L 191.674805 107.510742 L 192.861328 95.320312 L 194.642578 74.595703 L 197.610352 39.175781 L 198.799805 27.398437 L 199.986328 18.632812 L 200.581055 15.729492 L 201.175781 13.983398 L 201.767578 13.511719 L 202.362305 14.402344 L 202.957031 16.722656 L 203.548828 20.513672 L 204.143555 25.766602 L 204.738281 32.4375 L 205.924805 49.617187 L 207.706055 81.966797 L 209.487305 114.597656 L 210.673828 130.998047 L 211.268555 136.289062 L 211.863281 139.130859 L 212.458008 139.236328 L 213.049805 136.420898 L 213.644531 130.628906 L 214.239258 121.962891 L 214.831055 110.704102 L 216.020508 82.435547 L 217.801758 37.634766 L 218.393555 26.036133 L 218.988281 17.803711 L 219.583008 13.787109 L 220.174805 14.581055 L 220.769531 20.443359 L 221.364258 31.201172 L 221.956055 46.22168 L 224.332031 120.401367 L 224.926758 132.855469 L 225.521484 139.078125 L 226.113281 137.894531 L 226.708008 128.964844 L 227.302734 112.948242 L 228.489258 67.614258 L 229.083984 44.466797 L 229.675781 25.842773 L 230.270508 15.114258 L 230.865234 14.651367 L 231.457031 25.22168 L 232.051758 45.583008 L 233.833008 124.303711 L 234.427734 137.862305 L 235.019531 137.458008 L 235.614258 122.258789 L 236.208984 95.150391 L 237.395508 33.140625 L 237.990234 15.676758 L 238.584961 16.245117 " transform="matrix(1.333333,0,0,1.333333,0,0.000000000000014211)"/>
<path style="fill:none;stroke-width:0.8;stroke-linecap:square;stroke-linejoin:miter;stroke:rgb(0%,0%,0%);stroke-opacity:1;stroke-miterlimit:4;" d="M 52.160156 145.798828 L 52.160156 7.201172 " transform="matrix(1.333333,0,0,1.333333,0,0.000000000000014211)"/>
<path style="fill:none;stroke-width:0.8;stroke-linecap:square;stroke-linejoin:miter;stroke:rgb(0%,0%,0%);stroke-opacity:1;stroke-miterlimit:4;" d="M 247.461914 145.798828 L 247.461914 7.201172 " transform="matrix(1.333333,0,0,1.333333,0,0.000000000000014211)"/>
<path style="fill:none;stroke-width:0.8;stroke-linecap:square;stroke-linejoin:miter;stroke:rgb(0%,0%,0%);stroke-opacity:1;stroke-miterlimit:4;" d="M 52.160156 145.798828 L 247.461914 145.798828 " transform="matrix(1.333333,0,0,1.333333,0,0.000000000000014211)"/>
<path style="fill:none;stroke-width:0.8;stroke-linecap:square;stroke-linejoin:miter;stroke:rgb(0%,0%,0%);stroke-opacity:1;stroke-miterlimit:4;" d="M 52.160156 7.201172 L 247.461914 7.201172 " transform="matrix(1.333333,0,0,1.333333,0,0.000000000000014211)"/>
</g>
</svg>
