<?xml version="1.0" encoding="UTF-8"?>
<svg xmlns="http://www.w3.org/2000/svg" xmlns:xlink="http://www.w3.org/1999/xlink" width="542.514567" height="281.434998" viewBox="0 0 542.514567 281.434998" version="1.1">
<defs>
<clipPath id="clip1">
  <path d="M 157 9.601562 L 160 9.601562 L 160 231.359375 L 157 231.359375 Z M 157 9.601562 "/>
</clipPath>
<clipPath id="clip2">
  <path d="M 247 9.601562 L 249 9.601562 L 249 231.359375 L 247 231.359375 Z M 247 9.601562 "/>
</clipPath>
<clipPath id="clip3">
  <path d="M 336 9.601562 L 338 9.601562 L 338 231.359375 L 336 231.359375 Z M 336 9.601562 "/>
</clipPath>
<clipPath id="clip4">
  <path d="M 425 9.601562 L 428 9.601562 L 428 231.359375 L 425 231.359375 Z M 425 9.601562 "/>
</clipPath>
<clipPath id="clip5">
  <path d="M 515 9.601562 L 515.949219 9.601562 L 515.949219 231.359375 L 515 231.359375 Z M 515 9.601562 "/>
</clipPath>
<clipPath id="clip6">
  <path d="M 69.546875 196 L 515.949219 196 L 515.949219 199 L 69.546875 199 Z M 69.546875 196 "/>
</clipPath>
<clipPath id="clip7">
  <path d="M 69.546875 162 L 515.949219 162 L 515.949219 164 L 69.546875 164 Z M 69.546875 162 "/>
</clipPath>
<clipPath id="clip8">
  <path d="M 69.546875 127 L 515.949219 127 L 515.949219 129 L 69.546875 129 Z M 69.546875 127 "/>
</clipPath>
<clipPath id="clip9">
  <path d="M 69.546875 92 L 515.949219 92 L 515.949219 95 L 69.546875 95 Z M 69.546875 92 "/>
</clipPath>
<clipPath id="clip10">
  <path d="M 69.546875 57 L 515.949219 57 L 515.949219 60 L 69.546875 60 Z M 69.546875 57 "/>
</clipPath>
<clipPath id="clip11">
  <path d="M 69.546875 23 L 515.949219 23 L 515.949219 25 L 69.546875 25 Z M 69.546875 23 "/>
</clipPath>
<clipPath id="clip12">
  <path d="M 69.546875 18 L 515.949219 18 L 515.949219 223 L 69.546875 223 Z M 69.546875 18 "/>
</clipPath>
</defs>
<g id="surface1">
<path style=" stroke:none;fill-rule:nonzero;fill:rgb(100%,100%,100%);fill-opacity:1;" d="M 0 281.433594 L 542.515625 281.433594 L 542.515625 0 L 0 0 Z M 0 281.433594 "/>
<path style=" stroke:none;fill-rule:nonzero;fill:rgb(100%,100%,100%);fill-opacity:1;" d="M 69.546875 231.359375 L 515.949219 231.359375 L 515.949219 9.601562 L 69.546875 9.601562 Z M 69.546875 231.359375 "/>
<g clip-path="url(#clip1)" clip-rule="nonzero">
<path style="fill:none;stroke-width:0.8;stroke-linecap:square;stroke-linejoin:round;stroke:rgb(69.01961%,69.01961%,69.01961%);stroke-opacity:1;stroke-miterlimit:4;" d="M 118.851562 173.519531 L 118.851562 7.201172 " transform="matrix(1.333333,0,0,1.333333,0,0)"/>
</g>
<path style="fill:none;stroke-width:0.8;stroke-linecap:butt;stroke-linejoin:round;stroke:rgb(0%,0%,0%);stroke-opacity:1;stroke-miterlimit:4;" d="M -0.00126648 -0.000473022 L -0.00126648 3.500504 " transform="matrix(1.333333,0,0,1.333333,158.470439,231.360006)"/>
<path style=" stroke:none;fill-rule:nonzero;fill:rgb(0%,0%,0%);fill-opacity:1;" d="M 148.304688 249.71875 L 152.894531 249.71875 L 152.894531 250.824219 L 146.722656 250.824219 L 146.722656 249.71875 C 147.222656 249.203125 147.902344 248.507812 148.761719 247.640625 C 149.625 246.769531 150.167969 246.207031 150.386719 245.953125 C 150.808594 245.480469 151.101562 245.082031 151.269531 244.753906 C 151.4375 244.425781 151.519531 244.105469 151.519531 243.785156 C 151.519531 243.269531 151.339844 242.847656 150.976562 242.523438 C 150.613281 242.199219 150.140625 242.035156 149.558594 242.035156 C 149.148438 242.035156 148.710938 242.105469 148.253906 242.25 C 147.796875 242.394531 147.308594 242.609375 146.789062 242.902344 L 146.789062 241.574219 C 147.316406 241.359375 147.8125 241.199219 148.269531 241.089844 C 148.730469 240.984375 149.152344 240.929688 149.535156 240.929688 C 150.542969 240.929688 151.34375 241.179688 151.945312 241.683594 C 152.542969 242.1875 152.839844 242.859375 152.839844 243.703125 C 152.839844 244.101562 152.765625 244.480469 152.617188 244.839844 C 152.46875 245.195312 152.195312 245.617188 151.800781 246.105469 C 151.691406 246.230469 151.347656 246.59375 150.765625 247.195312 C 150.183594 247.796875 149.363281 248.636719 148.304688 249.71875 Z M 148.304688 249.71875 "/>
<path style=" stroke:none;fill-rule:nonzero;fill:rgb(0%,0%,0%);fill-opacity:1;" d="M 158.464844 241.96875 C 157.789062 241.96875 157.28125 242.304688 156.9375 242.96875 C 156.597656 243.636719 156.429688 244.636719 156.429688 245.972656 C 156.429688 247.304688 156.597656 248.304688 156.9375 248.972656 C 157.28125 249.640625 157.789062 249.972656 158.464844 249.972656 C 159.148438 249.972656 159.660156 249.640625 160 248.972656 C 160.339844 248.304688 160.511719 247.304688 160.511719 245.972656 C 160.511719 244.636719 160.339844 243.636719 160 242.96875 C 159.660156 242.304688 159.148438 241.96875 158.464844 241.96875 Z M 158.464844 240.929688 C 159.554688 240.929688 160.390625 241.359375 160.964844 242.222656 C 161.539062 243.082031 161.828125 244.335938 161.828125 245.972656 C 161.828125 247.609375 161.539062 248.859375 160.964844 249.722656 C 160.390625 250.582031 159.554688 251.015625 158.464844 251.015625 C 157.378906 251.015625 156.546875 250.582031 155.96875 249.722656 C 155.394531 248.859375 155.109375 247.609375 155.109375 245.972656 C 155.109375 244.335938 155.394531 243.082031 155.96875 242.222656 C 156.546875 241.359375 157.378906 240.929688 158.464844 240.929688 Z M 158.464844 240.929688 "/>
<path style=" stroke:none;fill-rule:nonzero;fill:rgb(0%,0%,0%);fill-opacity:1;" d="M 166.949219 241.96875 C 166.273438 241.96875 165.765625 242.304688 165.421875 242.96875 C 165.082031 243.636719 164.910156 244.636719 164.910156 245.972656 C 164.910156 247.304688 165.082031 248.304688 165.421875 248.972656 C 165.765625 249.640625 166.273438 249.972656 166.949219 249.972656 C 167.632812 249.972656 168.140625 249.640625 168.484375 248.972656 C 168.824219 248.304688 168.996094 247.304688 168.996094 245.972656 C 168.996094 244.636719 168.824219 243.636719 168.484375 242.96875 C 168.140625 242.304688 167.632812 241.96875 166.949219 241.96875 Z M 166.949219 240.929688 C 168.039062 240.929688 168.871094 241.359375 169.445312 242.222656 C 170.023438 243.082031 170.308594 244.335938 170.308594 245.972656 C 170.308594 247.609375 170.023438 248.859375 169.445312 249.722656 C 168.871094 250.582031 168.039062 251.015625 166.949219 251.015625 C 165.859375 251.015625 165.027344 250.582031 164.453125 249.722656 C 163.878906 248.859375 163.589844 247.609375 163.589844 245.972656 C 163.589844 244.335938 163.878906 243.082031 164.453125 242.222656 C 165.027344 241.359375 165.859375 240.929688 166.949219 240.929688 Z M 166.949219 240.929688 "/>
<g clip-path="url(#clip2)" clip-rule="nonzero">
<path style="fill:none;stroke-width:0.8;stroke-linecap:square;stroke-linejoin:round;stroke:rgb(69.01961%,69.01961%,69.01961%);stroke-opacity:1;stroke-miterlimit:4;" d="M 185.879883 173.519531 L 185.879883 7.201172 " transform="matrix(1.333333,0,0,1.333333,0,0)"/>
</g>
<path style="fill:none;stroke-width:0.8;stroke-linecap:butt;stroke-linejoin:round;stroke:rgb(0%,0%,0%);stroke-opacity:1;stroke-miterlimit:4;" d="M 0.0000305176 -0.000473022 L 0.0000305176 3.500504 " transform="matrix(1.333333,0,0,1.333333,247.839803,231.360006)"/>
<path style=" stroke:none;fill-rule:nonzero;fill:rgb(0%,0%,0%);fill-opacity:1;" d="M 240.15625 242.25 L 236.832031 247.4375 L 240.15625 247.4375 Z M 239.808594 241.105469 L 241.460938 241.105469 L 241.460938 247.4375 L 242.851562 247.4375 L 242.851562 248.53125 L 241.460938 248.53125 L 241.460938 250.824219 L 240.15625 250.824219 L 240.15625 248.53125 L 235.765625 248.53125 L 235.765625 247.265625 Z M 239.808594 241.105469 "/>
<path style=" stroke:none;fill-rule:nonzero;fill:rgb(0%,0%,0%);fill-opacity:1;" d="M 247.835938 241.96875 C 247.160156 241.96875 246.648438 242.304688 246.308594 242.96875 C 245.96875 243.636719 245.796875 244.636719 245.796875 245.972656 C 245.796875 247.304688 245.96875 248.304688 246.308594 248.972656 C 246.648438 249.640625 247.160156 249.972656 247.835938 249.972656 C 248.515625 249.972656 249.027344 249.640625 249.367188 248.972656 C 249.710938 248.304688 249.882812 247.304688 249.882812 245.972656 C 249.882812 244.636719 249.710938 243.636719 249.367188 242.96875 C 249.027344 242.304688 248.515625 241.96875 247.835938 241.96875 Z M 247.835938 240.929688 C 248.925781 240.929688 249.757812 241.359375 250.332031 242.222656 C 250.910156 243.082031 251.195312 244.335938 251.195312 245.972656 C 251.195312 247.609375 250.910156 248.859375 250.332031 249.722656 C 249.757812 250.582031 248.925781 251.015625 247.835938 251.015625 C 246.746094 251.015625 245.914062 250.582031 245.339844 249.722656 C 244.765625 248.859375 244.476562 247.609375 244.476562 245.972656 C 244.476562 244.335938 244.765625 243.082031 245.339844 242.222656 C 245.914062 241.359375 246.746094 240.929688 247.835938 240.929688 Z M 247.835938 240.929688 "/>
<path style=" stroke:none;fill-rule:nonzero;fill:rgb(0%,0%,0%);fill-opacity:1;" d="M 256.320312 241.96875 C 255.640625 241.96875 255.132812 242.304688 254.792969 242.96875 C 254.449219 243.636719 254.28125 244.636719 254.28125 245.972656 C 254.28125 247.304688 254.449219 248.304688 254.792969 248.972656 C 255.132812 249.640625 255.640625 249.972656 256.320312 249.972656 C 257 249.972656 257.511719 249.640625 257.851562 248.972656 C 258.195312 248.304688 258.363281 247.304688 258.363281 245.972656 C 258.363281 244.636719 258.195312 243.636719 257.851562 242.96875 C 257.511719 242.304688 257 241.96875 256.320312 241.96875 Z M 256.320312 240.929688 C 257.410156 240.929688 258.242188 241.359375 258.816406 242.222656 C 259.390625 243.082031 259.679688 244.335938 259.679688 245.972656 C 259.679688 247.609375 259.390625 248.859375 258.816406 249.722656 C 258.242188 250.582031 257.410156 251.015625 256.320312 251.015625 C 255.230469 251.015625 254.398438 250.582031 253.824219 249.722656 C 253.246094 248.859375 252.960938 247.609375 252.960938 245.972656 C 252.960938 244.335938 253.246094 243.082031 253.824219 242.222656 C 254.398438 241.359375 255.230469 240.929688 256.320312 240.929688 Z M 256.320312 240.929688 "/>
<g clip-path="url(#clip3)" clip-rule="nonzero">
<path style="fill:none;stroke-width:0.8;stroke-linecap:square;stroke-linejoin:round;stroke:rgb(69.01961%,69.01961%,69.01961%);stroke-opacity:1;stroke-miterlimit:4;" d="M 252.908203 173.519531 L 252.908203 7.201172 " transform="matrix(1.333333,0,0,1.333333,0,0)"/>
</g>
<path style="fill:none;stroke-width:0.8;stroke-linecap:butt;stroke-linejoin:round;stroke:rgb(0%,0%,0%);stroke-opacity:1;stroke-miterlimit:4;" d="M 0.00132751 -0.000473022 L 0.00132751 3.500504 " transform="matrix(1.333333,0,0,1.333333,337.209167,231.360006)"/>
<path style=" stroke:none;fill-rule:nonzero;fill:rgb(0%,0%,0%);fill-opacity:1;" d="M 328.886719 245.441406 C 328.296875 245.441406 327.828125 245.644531 327.480469 246.046875 C 327.136719 246.449219 326.964844 247.003906 326.964844 247.707031 C 326.964844 248.40625 327.136719 248.957031 327.480469 249.363281 C 327.828125 249.769531 328.296875 249.972656 328.886719 249.972656 C 329.476562 249.972656 329.945312 249.769531 330.289062 249.363281 C 330.632812 248.957031 330.804688 248.40625 330.804688 247.707031 C 330.804688 247.003906 330.632812 246.449219 330.289062 246.046875 C 329.945312 245.644531 329.476562 245.441406 328.886719 245.441406 Z M 331.496094 241.316406 L 331.496094 242.515625 C 331.167969 242.359375 330.832031 242.242188 330.496094 242.160156 C 330.160156 242.078125 329.828125 242.035156 329.496094 242.035156 C 328.628906 242.035156 327.964844 242.328125 327.507812 242.914062 C 327.050781 243.5 326.789062 244.386719 326.722656 245.570312 C 326.980469 245.191406 327.300781 244.902344 327.6875 244.703125 C 328.074219 244.5 328.5 244.398438 328.964844 244.398438 C 329.941406 244.398438 330.710938 244.695312 331.277344 245.289062 C 331.84375 245.878906 332.128906 246.6875 332.128906 247.707031 C 332.128906 248.703125 331.832031 249.503906 331.242188 250.109375 C 330.652344 250.710938 329.867188 251.015625 328.886719 251.015625 C 327.761719 251.015625 326.902344 250.582031 326.308594 249.722656 C 325.710938 248.859375 325.414062 247.609375 325.414062 245.972656 C 325.414062 244.4375 325.78125 243.214844 326.507812 242.300781 C 327.238281 241.386719 328.21875 240.929688 329.445312 240.929688 C 329.773438 240.929688 330.109375 240.960938 330.445312 241.027344 C 330.78125 241.09375 331.132812 241.1875 331.496094 241.316406 Z M 331.496094 241.316406 "/>
<path style=" stroke:none;fill-rule:nonzero;fill:rgb(0%,0%,0%);fill-opacity:1;" d="M 337.203125 241.96875 C 336.527344 241.96875 336.019531 242.304688 335.675781 242.96875 C 335.335938 243.636719 335.167969 244.636719 335.167969 245.972656 C 335.167969 247.304688 335.335938 248.304688 335.675781 248.972656 C 336.019531 249.640625 336.527344 249.972656 337.203125 249.972656 C 337.886719 249.972656 338.398438 249.640625 338.738281 248.972656 C 339.078125 248.304688 339.25 247.304688 339.25 245.972656 C 339.25 244.636719 339.078125 243.636719 338.738281 242.96875 C 338.398438 242.304688 337.886719 241.96875 337.203125 241.96875 Z M 337.203125 240.929688 C 338.296875 240.929688 339.128906 241.359375 339.703125 242.222656 C 340.277344 243.082031 340.566406 244.335938 340.566406 245.972656 C 340.566406 247.609375 340.277344 248.859375 339.703125 249.722656 C 339.128906 250.582031 338.296875 251.015625 337.203125 251.015625 C 336.117188 251.015625 335.285156 250.582031 334.707031 249.722656 C 334.132812 248.859375 333.847656 247.609375 333.847656 245.972656 C 333.847656 244.335938 334.132812 243.082031 334.707031 242.222656 C 335.285156 241.359375 336.117188 240.929688 337.203125 240.929688 Z M 337.203125 240.929688 "/>
<path style=" stroke:none;fill-rule:nonzero;fill:rgb(0%,0%,0%);fill-opacity:1;" d="M 345.6875 241.96875 C 345.011719 241.96875 344.503906 242.304688 344.160156 242.96875 C 343.820312 243.636719 343.648438 244.636719 343.648438 245.972656 C 343.648438 247.304688 343.820312 248.304688 344.160156 248.972656 C 344.503906 249.640625 345.011719 249.972656 345.6875 249.972656 C 346.371094 249.972656 346.882812 249.640625 347.222656 248.972656 C 347.5625 248.304688 347.734375 247.304688 347.734375 245.972656 C 347.734375 244.636719 347.5625 243.636719 347.222656 242.96875 C 346.882812 242.304688 346.371094 241.96875 345.6875 241.96875 Z M 345.6875 240.929688 C 346.777344 240.929688 347.609375 241.359375 348.1875 242.222656 C 348.761719 243.082031 349.046875 244.335938 349.046875 245.972656 C 349.046875 247.609375 348.761719 248.859375 348.1875 249.722656 C 347.609375 250.582031 346.777344 251.015625 345.6875 251.015625 C 344.597656 251.015625 343.765625 250.582031 343.191406 249.722656 C 342.617188 248.859375 342.328125 247.609375 342.328125 245.972656 C 342.328125 244.335938 342.617188 243.082031 343.191406 242.222656 C 343.765625 241.359375 344.597656 240.929688 345.6875 240.929688 Z M 345.6875 240.929688 "/>
<g clip-path="url(#clip4)" clip-rule="nonzero">
<path style="fill:none;stroke-width:0.8;stroke-linecap:square;stroke-linejoin:round;stroke:rgb(69.01961%,69.01961%,69.01961%);stroke-opacity:1;stroke-miterlimit:4;" d="M 319.933594 173.519531 L 319.933594 7.201172 " transform="matrix(1.333333,0,0,1.333333,0,0)"/>
</g>
<path style="fill:none;stroke-width:0.8;stroke-linecap:butt;stroke-linejoin:round;stroke:rgb(0%,0%,0%);stroke-opacity:1;stroke-miterlimit:4;" d="M -0.000305176 -0.000473022 L -0.000305176 3.500504 " transform="matrix(1.333333,0,0,1.333333,426.578532,231.360006)"/>
<path style=" stroke:none;fill-rule:nonzero;fill:rgb(0%,0%,0%);fill-opacity:1;" d="M 418.089844 246.207031 C 417.464844 246.207031 416.972656 246.375 416.617188 246.710938 C 416.257812 247.042969 416.082031 247.503906 416.082031 248.089844 C 416.082031 248.675781 416.257812 249.136719 416.617188 249.46875 C 416.972656 249.804688 417.464844 249.972656 418.089844 249.972656 C 418.714844 249.972656 419.207031 249.804688 419.566406 249.46875 C 419.929688 249.128906 420.109375 248.671875 420.109375 248.089844 C 420.109375 247.503906 419.929688 247.042969 419.574219 246.710938 C 419.214844 246.375 418.722656 246.207031 418.089844 246.207031 Z M 416.777344 245.648438 C 416.210938 245.511719 415.773438 245.25 415.457031 244.863281 C 415.144531 244.472656 414.988281 244.003906 414.988281 243.449219 C 414.988281 242.671875 415.261719 242.058594 415.816406 241.605469 C 416.371094 241.15625 417.128906 240.929688 418.089844 240.929688 C 419.058594 240.929688 419.820312 241.15625 420.371094 241.605469 C 420.921875 242.058594 421.199219 242.671875 421.199219 243.449219 C 421.199219 244.003906 421.039062 244.472656 420.722656 244.863281 C 420.410156 245.25 419.972656 245.511719 419.414062 245.648438 C 420.046875 245.796875 420.539062 246.085938 420.894531 246.515625 C 421.246094 246.945312 421.425781 247.46875 421.425781 248.089844 C 421.425781 249.03125 421.136719 249.753906 420.5625 250.261719 C 419.988281 250.761719 419.164062 251.015625 418.089844 251.015625 C 417.019531 251.015625 416.195312 250.761719 415.621094 250.261719 C 415.046875 249.753906 414.757812 249.03125 414.757812 248.089844 C 414.757812 247.46875 414.933594 246.945312 415.292969 246.515625 C 415.648438 246.085938 416.144531 245.796875 416.777344 245.648438 Z M 416.296875 243.574219 C 416.296875 244.074219 416.453125 244.46875 416.765625 244.75 C 417.082031 245.03125 417.523438 245.171875 418.089844 245.171875 C 418.65625 245.171875 419.097656 245.03125 419.417969 244.75 C 419.734375 244.46875 419.894531 244.074219 419.894531 243.574219 C 419.894531 243.066406 419.734375 242.675781 419.417969 242.394531 C 419.097656 242.113281 418.65625 241.96875 418.089844 241.96875 C 417.523438 241.96875 417.082031 242.113281 416.765625 242.394531 C 416.453125 242.675781 416.296875 243.066406 416.296875 243.574219 Z M 416.296875 243.574219 "/>
<path style=" stroke:none;fill-rule:nonzero;fill:rgb(0%,0%,0%);fill-opacity:1;" d="M 426.574219 241.96875 C 425.898438 241.96875 425.390625 242.304688 425.046875 242.96875 C 424.707031 243.636719 424.535156 244.636719 424.535156 245.972656 C 424.535156 247.304688 424.707031 248.304688 425.046875 248.972656 C 425.390625 249.640625 425.898438 249.972656 426.574219 249.972656 C 427.257812 249.972656 427.765625 249.640625 428.109375 248.972656 C 428.449219 248.304688 428.621094 247.304688 428.621094 245.972656 C 428.621094 244.636719 428.449219 243.636719 428.109375 242.96875 C 427.765625 242.304688 427.257812 241.96875 426.574219 241.96875 Z M 426.574219 240.929688 C 427.664062 240.929688 428.496094 241.359375 429.070312 242.222656 C 429.648438 243.082031 429.933594 244.335938 429.933594 245.972656 C 429.933594 247.609375 429.648438 248.859375 429.070312 249.722656 C 428.496094 250.582031 427.664062 251.015625 426.574219 251.015625 C 425.484375 251.015625 424.652344 250.582031 424.078125 249.722656 C 423.503906 248.859375 423.214844 247.609375 423.214844 245.972656 C 423.214844 244.335938 423.503906 243.082031 424.078125 242.222656 C 424.652344 241.359375 425.484375 240.929688 426.574219 240.929688 Z M 426.574219 240.929688 "/>
<path style=" stroke:none;fill-rule:nonzero;fill:rgb(0%,0%,0%);fill-opacity:1;" d="M 435.058594 241.96875 C 434.378906 241.96875 433.871094 242.304688 433.53125 242.96875 C 433.191406 243.636719 433.019531 244.636719 433.019531 245.972656 C 433.019531 247.304688 433.191406 248.304688 433.53125 248.972656 C 433.871094 249.640625 434.378906 249.972656 435.058594 249.972656 C 435.738281 249.972656 436.25 249.640625 436.589844 248.972656 C 436.933594 248.304688 437.101562 247.304688 437.101562 245.972656 C 437.101562 244.636719 436.933594 243.636719 436.589844 242.96875 C 436.25 242.304688 435.738281 241.96875 435.058594 241.96875 Z M 435.058594 240.929688 C 436.148438 240.929688 436.980469 241.359375 437.554688 242.222656 C 438.128906 243.082031 438.417969 244.335938 438.417969 245.972656 C 438.417969 247.609375 438.128906 248.859375 437.554688 249.722656 C 436.980469 250.582031 436.148438 251.015625 435.058594 251.015625 C 433.96875 251.015625 433.136719 250.582031 432.5625 249.722656 C 431.988281 248.859375 431.699219 247.609375 431.699219 245.972656 C 431.699219 244.335938 431.988281 243.082031 432.5625 242.222656 C 433.136719 241.359375 433.96875 240.929688 435.058594 240.929688 Z M 435.058594 240.929688 "/>
<g clip-path="url(#clip5)" clip-rule="nonzero">
<path style="fill:none;stroke-width:0.8;stroke-linecap:square;stroke-linejoin:round;stroke:rgb(69.01961%,69.01961%,69.01961%);stroke-opacity:1;stroke-miterlimit:4;" d="M 386.961914 173.519531 L 386.961914 7.201172 " transform="matrix(1.333333,0,0,1.333333,0,0)"/>
</g>
<path style="fill:none;stroke-width:0.8;stroke-linecap:butt;stroke-linejoin:round;stroke:rgb(0%,0%,0%);stroke-opacity:1;stroke-miterlimit:4;" d="M 0.000976562 -0.000473022 L 0.000976562 3.500504 " transform="matrix(1.333333,0,0,1.333333,515.947917,231.360006)"/>
<path style=" stroke:none;fill-rule:nonzero;fill:rgb(0%,0%,0%);fill-opacity:1;" d="M 500.636719 249.71875 L 502.785156 249.71875 L 502.785156 242.300781 L 500.445312 242.769531 L 500.445312 241.574219 L 502.769531 241.105469 L 504.085938 241.105469 L 504.085938 249.71875 L 506.234375 249.71875 L 506.234375 250.824219 L 500.636719 250.824219 Z M 500.636719 249.71875 "/>
<path style=" stroke:none;fill-rule:nonzero;fill:rgb(0%,0%,0%);fill-opacity:1;" d="M 511.703125 241.96875 C 511.027344 241.96875 510.515625 242.304688 510.175781 242.96875 C 509.835938 243.636719 509.664062 244.636719 509.664062 245.972656 C 509.664062 247.304688 509.835938 248.304688 510.175781 248.972656 C 510.515625 249.640625 511.027344 249.972656 511.703125 249.972656 C 512.382812 249.972656 512.894531 249.640625 513.234375 248.972656 C 513.578125 248.304688 513.746094 247.304688 513.746094 245.972656 C 513.746094 244.636719 513.578125 243.636719 513.234375 242.96875 C 512.894531 242.304688 512.382812 241.96875 511.703125 241.96875 Z M 511.703125 240.929688 C 512.792969 240.929688 513.625 241.359375 514.199219 242.222656 C 514.773438 243.082031 515.0625 244.335938 515.0625 245.972656 C 515.0625 247.609375 514.773438 248.859375 514.199219 249.722656 C 513.625 250.582031 512.792969 251.015625 511.703125 251.015625 C 510.613281 251.015625 509.78125 250.582031 509.207031 249.722656 C 508.632812 248.859375 508.34375 247.609375 508.34375 245.972656 C 508.34375 244.335938 508.632812 243.082031 509.207031 242.222656 C 509.78125 241.359375 510.613281 240.929688 511.703125 240.929688 Z M 511.703125 240.929688 "/>
<path style=" stroke:none;fill-rule:nonzero;fill:rgb(0%,0%,0%);fill-opacity:1;" d="M 520.183594 241.96875 C 519.507812 241.96875 519 242.304688 518.65625 242.96875 C 518.316406 243.636719 518.148438 244.636719 518.148438 245.972656 C 518.148438 247.304688 518.316406 248.304688 518.65625 248.972656 C 519 249.640625 519.507812 249.972656 520.183594 249.972656 C 520.867188 249.972656 521.378906 249.640625 521.71875 248.972656 C 522.058594 248.304688 522.230469 247.304688 522.230469 245.972656 C 522.230469 244.636719 522.058594 243.636719 521.71875 242.96875 C 521.378906 242.304688 520.867188 241.96875 520.183594 241.96875 Z M 520.183594 240.929688 C 521.273438 240.929688 522.109375 241.359375 522.683594 242.222656 C 523.257812 243.082031 523.546875 244.335938 523.546875 245.972656 C 523.546875 247.609375 523.257812 248.859375 522.683594 249.722656 C 522.109375 250.582031 521.273438 251.015625 520.183594 251.015625 C 519.097656 251.015625 518.265625 250.582031 517.6875 249.722656 C 517.113281 248.859375 516.828125 247.609375 516.828125 245.972656 C 516.828125 244.335938 517.113281 243.082031 517.6875 242.222656 C 518.265625 241.359375 519.097656 240.929688 520.183594 240.929688 Z M 520.183594 240.929688 "/>
<path style=" stroke:none;fill-rule:nonzero;fill:rgb(0%,0%,0%);fill-opacity:1;" d="M 528.667969 241.96875 C 527.992188 241.96875 527.484375 242.304688 527.140625 242.96875 C 526.800781 243.636719 526.628906 244.636719 526.628906 245.972656 C 526.628906 247.304688 526.800781 248.304688 527.140625 248.972656 C 527.484375 249.640625 527.992188 249.972656 528.667969 249.972656 C 529.351562 249.972656 529.859375 249.640625 530.203125 248.972656 C 530.542969 248.304688 530.714844 247.304688 530.714844 245.972656 C 530.714844 244.636719 530.542969 243.636719 530.203125 242.96875 C 529.859375 242.304688 529.351562 241.96875 528.667969 241.96875 Z M 528.667969 240.929688 C 529.757812 240.929688 530.589844 241.359375 531.164062 242.222656 C 531.742188 243.082031 532.027344 244.335938 532.027344 245.972656 C 532.027344 247.609375 531.742188 248.859375 531.164062 249.722656 C 530.589844 250.582031 529.757812 251.015625 528.667969 251.015625 C 527.578125 251.015625 526.746094 250.582031 526.171875 249.722656 C 525.597656 248.859375 525.308594 247.609375 525.308594 245.972656 C 525.308594 244.335938 525.597656 243.082031 526.171875 242.222656 C 526.746094 241.359375 527.578125 240.929688 528.667969 240.929688 Z M 528.667969 240.929688 "/>
<path style=" stroke:none;fill-rule:nonzero;fill:rgb(0%,0%,0%);fill-opacity:1;" d="M 280.128906 259.699219 L 280.128906 261.769531 L 282.59375 261.769531 L 282.59375 262.703125 L 280.128906 262.703125 L 280.128906 266.660156 C 280.128906 267.253906 280.210938 267.636719 280.371094 267.804688 C 280.535156 267.976562 280.867188 268.058594 281.367188 268.058594 L 282.59375 268.058594 L 282.59375 269.0625 L 281.367188 269.0625 C 280.441406 269.0625 279.800781 268.890625 279.449219 268.546875 C 279.101562 268.199219 278.925781 267.570312 278.925781 266.660156 L 278.925781 262.703125 L 278.042969 262.703125 L 278.042969 261.769531 L 278.925781 261.769531 L 278.925781 259.699219 Z M 280.128906 259.699219 "/>
<path style=" stroke:none;fill-rule:nonzero;fill:rgb(0%,0%,0%);fill-opacity:1;" d="M 284.171875 261.769531 L 285.367188 261.769531 L 285.367188 269.0625 L 284.171875 269.0625 Z M 284.171875 258.929688 L 285.367188 258.929688 L 285.367188 260.449219 L 284.171875 260.449219 Z M 284.171875 258.929688 "/>
<path style=" stroke:none;fill-rule:nonzero;fill:rgb(0%,0%,0%);fill-opacity:1;" d="M 293.550781 263.171875 C 293.851562 262.632812 294.210938 262.234375 294.628906 261.980469 C 295.042969 261.722656 295.535156 261.59375 296.097656 261.59375 C 296.859375 261.59375 297.445312 261.863281 297.855469 262.394531 C 298.269531 262.925781 298.476562 263.679688 298.476562 264.660156 L 298.476562 269.0625 L 297.269531 269.0625 L 297.269531 264.699219 C 297.269531 264 297.148438 263.484375 296.898438 263.144531 C 296.652344 262.804688 296.273438 262.636719 295.765625 262.636719 C 295.144531 262.636719 294.65625 262.84375 294.292969 263.253906 C 293.933594 263.667969 293.753906 264.230469 293.753906 264.941406 L 293.753906 269.0625 L 292.550781 269.0625 L 292.550781 264.699219 C 292.550781 263.996094 292.425781 263.476562 292.179688 263.140625 C 291.933594 262.804688 291.550781 262.636719 291.035156 262.636719 C 290.421875 262.636719 289.933594 262.84375 289.574219 263.257812 C 289.214844 263.671875 289.035156 264.234375 289.035156 264.941406 L 289.035156 269.0625 L 287.828125 269.0625 L 287.828125 261.769531 L 289.035156 261.769531 L 289.035156 262.902344 C 289.308594 262.457031 289.632812 262.125 290.015625 261.914062 C 290.398438 261.703125 290.851562 261.59375 291.378906 261.59375 C 291.90625 261.59375 292.359375 261.730469 292.730469 262 C 293.101562 262.269531 293.375 262.65625 293.550781 263.171875 Z M 293.550781 263.171875 "/>
<path style=" stroke:none;fill-rule:nonzero;fill:rgb(0%,0%,0%);fill-opacity:1;" d="M 307.101562 265.117188 L 307.101562 265.703125 L 301.59375 265.703125 C 301.644531 266.527344 301.894531 267.15625 302.339844 267.585938 C 302.78125 268.019531 303.402344 268.234375 304.195312 268.234375 C 304.65625 268.234375 305.101562 268.179688 305.535156 268.066406 C 305.964844 267.953125 306.394531 267.785156 306.820312 267.558594 L 306.820312 268.691406 C 306.390625 268.875 305.949219 269.011719 305.5 269.109375 C 305.046875 269.203125 304.589844 269.25 304.125 269.25 C 302.960938 269.25 302.039062 268.914062 301.359375 268.238281 C 300.683594 267.558594 300.34375 266.644531 300.34375 265.488281 C 300.34375 264.292969 300.664062 263.347656 301.308594 262.648438 C 301.953125 261.945312 302.824219 261.59375 303.917969 261.59375 C 304.898438 261.59375 305.671875 261.910156 306.246094 262.542969 C 306.816406 263.175781 307.101562 264.03125 307.101562 265.117188 Z M 305.902344 264.765625 C 305.894531 264.109375 305.710938 263.585938 305.351562 263.199219 C 304.996094 262.804688 304.519531 262.609375 303.929688 262.609375 C 303.261719 262.609375 302.726562 262.800781 302.324219 263.175781 C 301.925781 263.554688 301.691406 264.085938 301.632812 264.773438 Z M 305.902344 264.765625 "/>
<g clip-path="url(#clip6)" clip-rule="nonzero">
<path style="fill:none;stroke-width:0.8;stroke-linecap:square;stroke-linejoin:round;stroke:rgb(69.01961%,69.01961%,69.01961%);stroke-opacity:1;stroke-miterlimit:4;" d="M 52.160156 148.168945 L 386.961914 148.168945 " transform="matrix(1.333333,0,0,1.333333,0,0)"/>
</g>
<path style="fill:none;stroke-width:0.8;stroke-linecap:butt;stroke-linejoin:round;stroke:rgb(0%,0%,0%);stroke-opacity:1;stroke-miterlimit:4;" d="M -0.000782013 -0.000198364 L -3.498829 -0.000198364 " transform="matrix(1.333333,0,0,1.333333,69.547918,197.558858)"/>
<path style=" stroke:none;fill-rule:nonzero;fill:rgb(0%,0%,0%);fill-opacity:1;" d="M 29.25 197.890625 L 37.597656 197.890625 L 37.597656 198.996094 L 29.25 198.996094 Z M 29.25 197.890625 "/>
<path style=" stroke:none;fill-rule:nonzero;fill:rgb(0%,0%,0%);fill-opacity:1;" d="M 40.664062 201.519531 L 42.8125 201.519531 L 42.8125 194.101562 L 40.472656 194.570312 L 40.472656 193.371094 L 42.800781 192.902344 L 44.113281 192.902344 L 44.113281 201.519531 L 46.261719 201.519531 L 46.261719 202.625 L 40.664062 202.625 Z M 40.664062 201.519531 "/>
<path style=" stroke:none;fill-rule:nonzero;fill:rgb(0%,0%,0%);fill-opacity:1;" d="M 48.917969 200.96875 L 50.292969 200.96875 L 50.292969 202.625 L 48.917969 202.625 Z M 48.917969 200.96875 "/>
<path style=" stroke:none;fill-rule:nonzero;fill:rgb(0%,0%,0%);fill-opacity:1;" d="M 55.96875 193.769531 C 55.292969 193.769531 54.78125 194.105469 54.441406 194.769531 C 54.101562 195.4375 53.929688 196.4375 53.929688 197.773438 C 53.929688 199.105469 54.101562 200.105469 54.441406 200.773438 C 54.78125 201.4375 55.292969 201.773438 55.96875 201.773438 C 56.648438 201.773438 57.160156 201.4375 57.5 200.773438 C 57.84375 200.105469 58.015625 199.105469 58.015625 197.773438 C 58.015625 196.4375 57.84375 195.4375 57.5 194.769531 C 57.160156 194.105469 56.648438 193.769531 55.96875 193.769531 Z M 55.96875 192.730469 C 57.058594 192.730469 57.890625 193.160156 58.464844 194.023438 C 59.042969 194.882812 59.328125 196.132812 59.328125 197.773438 C 59.328125 199.410156 59.042969 200.660156 58.464844 201.523438 C 57.890625 202.382812 57.058594 202.8125 55.96875 202.8125 C 54.878906 202.8125 54.046875 202.382812 53.472656 201.523438 C 52.898438 200.660156 52.609375 199.410156 52.609375 197.773438 C 52.609375 196.132812 52.898438 194.882812 53.472656 194.023438 C 54.046875 193.160156 54.878906 192.730469 55.96875 192.730469 Z M 55.96875 192.730469 "/>
<g clip-path="url(#clip7)" clip-rule="nonzero">
<path style="fill:none;stroke-width:0.8;stroke-linecap:square;stroke-linejoin:round;stroke:rgb(69.01961%,69.01961%,69.01961%);stroke-opacity:1;stroke-miterlimit:4;" d="M 52.160156 122.132812 L 386.961914 122.132812 " transform="matrix(1.333333,0,0,1.333333,0,0)"/>
</g>
<path style="fill:none;stroke-width:0.8;stroke-linecap:butt;stroke-linejoin:round;stroke:rgb(0%,0%,0%);stroke-opacity:1;stroke-miterlimit:4;" d="M -0.000782013 -0.000549316 L -3.498829 -0.000549316 " transform="matrix(1.333333,0,0,1.333333,69.547918,162.844482)"/>
<path style=" stroke:none;fill-rule:nonzero;fill:rgb(0%,0%,0%);fill-opacity:1;" d="M 29.25 163.175781 L 37.597656 163.175781 L 37.597656 164.28125 L 29.25 164.28125 Z M 29.25 163.175781 "/>
<path style=" stroke:none;fill-rule:nonzero;fill:rgb(0%,0%,0%);fill-opacity:1;" d="M 43.246094 159.054688 C 42.570312 159.054688 42.0625 159.390625 41.71875 160.054688 C 41.378906 160.722656 41.210938 161.722656 41.210938 163.058594 C 41.210938 164.390625 41.378906 165.390625 41.71875 166.058594 C 42.0625 166.726562 42.570312 167.058594 43.246094 167.058594 C 43.929688 167.058594 44.441406 166.726562 44.78125 166.058594 C 45.121094 165.390625 45.292969 164.390625 45.292969 163.058594 C 45.292969 161.722656 45.121094 160.722656 44.78125 160.054688 C 44.441406 159.390625 43.929688 159.054688 43.246094 159.054688 Z M 43.246094 158.015625 C 44.335938 158.015625 45.167969 158.445312 45.746094 159.308594 C 46.320312 160.167969 46.605469 161.417969 46.605469 163.058594 C 46.605469 164.695312 46.320312 165.945312 45.746094 166.808594 C 45.167969 167.667969 44.335938 168.101562 43.246094 168.101562 C 42.15625 168.101562 41.324219 167.667969 40.75 166.808594 C 40.175781 165.945312 39.886719 164.695312 39.886719 163.058594 C 39.886719 161.417969 40.175781 160.167969 40.75 159.308594 C 41.324219 158.445312 42.15625 158.015625 43.246094 158.015625 Z M 43.246094 158.015625 "/>
<path style=" stroke:none;fill-rule:nonzero;fill:rgb(0%,0%,0%);fill-opacity:1;" d="M 48.917969 166.257812 L 50.292969 166.257812 L 50.292969 167.910156 L 48.917969 167.910156 Z M 48.917969 166.257812 "/>
<path style=" stroke:none;fill-rule:nonzero;fill:rgb(0%,0%,0%);fill-opacity:1;" d="M 53.171875 158.1875 L 58.332031 158.1875 L 58.332031 159.296875 L 54.375 159.296875 L 54.375 161.679688 C 54.566406 161.613281 54.753906 161.566406 54.945312 161.53125 C 55.136719 161.5 55.328125 161.484375 55.519531 161.484375 C 56.605469 161.484375 57.464844 161.78125 58.097656 162.375 C 58.730469 162.972656 59.050781 163.777344 59.050781 164.792969 C 59.050781 165.835938 58.722656 166.652344 58.074219 167.230469 C 57.421875 167.808594 56.503906 168.101562 55.316406 168.101562 C 54.910156 168.101562 54.492188 168.066406 54.070312 167.996094 C 53.648438 167.925781 53.210938 167.820312 52.761719 167.683594 L 52.761719 166.359375 C 53.148438 166.574219 53.554688 166.730469 53.96875 166.835938 C 54.386719 166.9375 54.828125 166.992188 55.292969 166.992188 C 56.042969 166.992188 56.636719 166.792969 57.074219 166.398438 C 57.511719 166.003906 57.734375 165.46875 57.734375 164.792969 C 57.734375 164.113281 57.511719 163.578125 57.074219 163.183594 C 56.636719 162.789062 56.042969 162.589844 55.292969 162.589844 C 54.941406 162.589844 54.589844 162.628906 54.238281 162.707031 C 53.890625 162.785156 53.535156 162.90625 53.171875 163.074219 Z M 53.171875 158.1875 "/>
<g clip-path="url(#clip8)" clip-rule="nonzero">
<path style="fill:none;stroke-width:0.8;stroke-linecap:square;stroke-linejoin:round;stroke:rgb(69.01961%,69.01961%,69.01961%);stroke-opacity:1;stroke-miterlimit:4;" d="M 52.160156 96.09668 L 386.961914 96.09668 " transform="matrix(1.333333,0,0,1.333333,0,0)"/>
</g>
<path style="fill:none;stroke-width:0.8;stroke-linecap:butt;stroke-linejoin:round;stroke:rgb(0%,0%,0%);stroke-opacity:1;stroke-miterlimit:4;" d="M -0.000782013 -0.000907898 L -3.498829 -0.000907898 " transform="matrix(1.333333,0,0,1.333333,69.547918,128.130117)"/>
<path style=" stroke:none;fill-rule:nonzero;fill:rgb(0%,0%,0%);fill-opacity:1;" d="M 43.246094 124.339844 C 42.570312 124.339844 42.0625 124.675781 41.722656 125.339844 C 41.378906 126.007812 41.210938 127.007812 41.210938 128.347656 C 41.210938 129.675781 41.378906 130.675781 41.722656 131.34375 C 42.0625 132.011719 42.570312 132.34375 43.246094 132.34375 C 43.929688 132.34375 44.441406 132.011719 44.78125 131.34375 C 45.121094 130.675781 45.292969 129.675781 45.292969 128.347656 C 45.292969 127.007812 45.121094 126.007812 44.78125 125.339844 C 44.441406 124.675781 43.929688 124.339844 43.246094 124.339844 Z M 43.246094 123.300781 C 44.339844 123.300781 45.171875 123.730469 45.746094 124.59375 C 46.320312 125.453125 46.609375 126.707031 46.609375 128.347656 C 46.609375 129.980469 46.320312 131.230469 45.746094 132.09375 C 45.171875 132.953125 44.339844 133.386719 43.246094 133.386719 C 42.160156 133.386719 41.328125 132.953125 40.753906 132.09375 C 40.175781 131.230469 39.890625 129.980469 39.890625 128.347656 C 39.890625 126.707031 40.175781 125.453125 40.753906 124.59375 C 41.328125 123.730469 42.160156 123.300781 43.246094 123.300781 Z M 43.246094 123.300781 "/>
<path style=" stroke:none;fill-rule:nonzero;fill:rgb(0%,0%,0%);fill-opacity:1;" d="M 48.917969 131.542969 L 50.292969 131.542969 L 50.292969 133.195312 L 48.917969 133.195312 Z M 48.917969 131.542969 "/>
<path style=" stroke:none;fill-rule:nonzero;fill:rgb(0%,0%,0%);fill-opacity:1;" d="M 55.96875 124.339844 C 55.292969 124.339844 54.785156 124.675781 54.441406 125.339844 C 54.101562 126.007812 53.933594 127.007812 53.933594 128.347656 C 53.933594 129.675781 54.101562 130.675781 54.441406 131.34375 C 54.785156 132.011719 55.292969 132.34375 55.96875 132.34375 C 56.652344 132.34375 57.164062 132.011719 57.503906 131.34375 C 57.84375 130.675781 58.015625 129.675781 58.015625 128.347656 C 58.015625 127.007812 57.84375 126.007812 57.503906 125.339844 C 57.164062 124.675781 56.652344 124.339844 55.96875 124.339844 Z M 55.96875 123.300781 C 57.058594 123.300781 57.890625 123.730469 58.46875 124.59375 C 59.042969 125.453125 59.328125 126.707031 59.328125 128.347656 C 59.328125 129.980469 59.042969 131.230469 58.46875 132.09375 C 57.890625 132.953125 57.058594 133.386719 55.96875 133.386719 C 54.878906 133.386719 54.046875 132.953125 53.472656 132.09375 C 52.898438 131.230469 52.609375 129.980469 52.609375 128.347656 C 52.609375 126.707031 52.898438 125.453125 53.472656 124.59375 C 54.046875 123.730469 54.878906 123.300781 55.96875 123.300781 Z M 55.96875 123.300781 "/>
<g clip-path="url(#clip9)" clip-rule="nonzero">
<path style="fill:none;stroke-width:0.8;stroke-linecap:square;stroke-linejoin:round;stroke:rgb(69.01961%,69.01961%,69.01961%);stroke-opacity:1;stroke-miterlimit:4;" d="M 52.160156 70.060547 L 386.961914 70.060547 " transform="matrix(1.333333,0,0,1.333333,0,0)"/>
</g>
<path style="fill:none;stroke-width:0.8;stroke-linecap:butt;stroke-linejoin:round;stroke:rgb(0%,0%,0%);stroke-opacity:1;stroke-miterlimit:4;" d="M -0.000782013 -0.00125885 L -3.498829 -0.00125885 " transform="matrix(1.333333,0,0,1.333333,69.547918,93.415741)"/>
<path style=" stroke:none;fill-rule:nonzero;fill:rgb(0%,0%,0%);fill-opacity:1;" d="M 43.246094 89.628906 C 42.570312 89.628906 42.0625 89.960938 41.722656 90.628906 C 41.378906 91.292969 41.210938 92.292969 41.210938 93.632812 C 41.210938 94.964844 41.378906 95.960938 41.722656 96.628906 C 42.0625 97.296875 42.570312 97.628906 43.246094 97.628906 C 43.929688 97.628906 44.441406 97.296875 44.78125 96.628906 C 45.121094 95.960938 45.292969 94.964844 45.292969 93.632812 C 45.292969 92.292969 45.121094 91.292969 44.78125 90.628906 C 44.441406 89.960938 43.929688 89.628906 43.246094 89.628906 Z M 43.246094 88.585938 C 44.339844 88.585938 45.171875 89.015625 45.746094 89.878906 C 46.320312 90.742188 46.609375 91.992188 46.609375 93.632812 C 46.609375 95.265625 46.320312 96.515625 45.746094 97.378906 C 45.171875 98.242188 44.339844 98.671875 43.246094 98.671875 C 42.160156 98.671875 41.328125 98.242188 40.753906 97.378906 C 40.175781 96.515625 39.890625 95.265625 39.890625 93.632812 C 39.890625 91.992188 40.175781 90.742188 40.753906 89.878906 C 41.328125 89.015625 42.160156 88.585938 43.246094 88.585938 Z M 43.246094 88.585938 "/>
<path style=" stroke:none;fill-rule:nonzero;fill:rgb(0%,0%,0%);fill-opacity:1;" d="M 48.917969 96.828125 L 50.292969 96.828125 L 50.292969 98.480469 L 48.917969 98.480469 Z M 48.917969 96.828125 "/>
<path style=" stroke:none;fill-rule:nonzero;fill:rgb(0%,0%,0%);fill-opacity:1;" d="M 53.171875 88.761719 L 58.332031 88.761719 L 58.332031 89.867188 L 54.375 89.867188 L 54.375 92.25 C 54.566406 92.183594 54.757812 92.136719 54.945312 92.105469 C 55.136719 92.074219 55.328125 92.054688 55.519531 92.054688 C 56.605469 92.054688 57.464844 92.355469 58.097656 92.949219 C 58.734375 93.542969 59.050781 94.347656 59.050781 95.363281 C 59.050781 96.410156 58.726562 97.222656 58.074219 97.800781 C 57.421875 98.382812 56.503906 98.671875 55.320312 98.671875 C 54.910156 98.671875 54.496094 98.636719 54.070312 98.566406 C 53.648438 98.496094 53.210938 98.394531 52.761719 98.253906 L 52.761719 96.929688 C 53.152344 97.144531 53.554688 97.300781 53.972656 97.40625 C 54.386719 97.511719 54.828125 97.5625 55.292969 97.5625 C 56.042969 97.5625 56.636719 97.367188 57.074219 96.972656 C 57.515625 96.578125 57.734375 96.039062 57.734375 95.363281 C 57.734375 94.6875 57.515625 94.152344 57.074219 93.757812 C 56.636719 93.359375 56.042969 93.164062 55.292969 93.164062 C 54.941406 93.164062 54.589844 93.203125 54.238281 93.277344 C 53.890625 93.355469 53.535156 93.480469 53.171875 93.644531 Z M 53.171875 88.761719 "/>
<g clip-path="url(#clip10)" clip-rule="nonzero">
<path style="fill:none;stroke-width:0.8;stroke-linecap:square;stroke-linejoin:round;stroke:rgb(69.01961%,69.01961%,69.01961%);stroke-opacity:1;stroke-miterlimit:4;" d="M 52.160156 44.027344 L 386.961914 44.027344 " transform="matrix(1.333333,0,0,1.333333,0,0)"/>
</g>
<path style="fill:none;stroke-width:0.8;stroke-linecap:butt;stroke-linejoin:round;stroke:rgb(0%,0%,0%);stroke-opacity:1;stroke-miterlimit:4;" d="M -0.000782013 0.00131226 L -3.498829 0.00131226 " transform="matrix(1.333333,0,0,1.333333,69.547918,58.701375)"/>
<path style=" stroke:none;fill-rule:nonzero;fill:rgb(0%,0%,0%);fill-opacity:1;" d="M 40.664062 62.660156 L 42.8125 62.660156 L 42.8125 55.242188 L 40.476562 55.710938 L 40.476562 54.515625 L 42.800781 54.046875 L 44.113281 54.046875 L 44.113281 62.660156 L 46.261719 62.660156 L 46.261719 63.765625 L 40.664062 63.765625 Z M 40.664062 62.660156 "/>
<path style=" stroke:none;fill-rule:nonzero;fill:rgb(0%,0%,0%);fill-opacity:1;" d="M 48.917969 62.113281 L 50.292969 62.113281 L 50.292969 63.765625 L 48.917969 63.765625 Z M 48.917969 62.113281 "/>
<path style=" stroke:none;fill-rule:nonzero;fill:rgb(0%,0%,0%);fill-opacity:1;" d="M 55.96875 54.914062 C 55.292969 54.914062 54.785156 55.246094 54.441406 55.914062 C 54.101562 56.578125 53.933594 57.578125 53.933594 58.917969 C 53.933594 60.25 54.101562 61.25 54.441406 61.914062 C 54.785156 62.582031 55.292969 62.914062 55.96875 62.914062 C 56.652344 62.914062 57.164062 62.582031 57.503906 61.914062 C 57.84375 61.25 58.015625 60.25 58.015625 58.917969 C 58.015625 57.578125 57.84375 56.578125 57.503906 55.914062 C 57.164062 55.246094 56.652344 54.914062 55.96875 54.914062 Z M 55.96875 53.871094 C 57.058594 53.871094 57.890625 54.300781 58.46875 55.164062 C 59.042969 56.027344 59.328125 57.277344 59.328125 58.917969 C 59.328125 60.554688 59.042969 61.800781 58.46875 62.664062 C 57.890625 63.527344 57.058594 63.957031 55.96875 63.957031 C 54.878906 63.957031 54.046875 63.527344 53.472656 62.664062 C 52.898438 61.800781 52.609375 60.554688 52.609375 58.917969 C 52.609375 57.277344 52.898438 56.027344 53.472656 55.164062 C 54.046875 54.300781 54.878906 53.871094 55.96875 53.871094 Z M 55.96875 53.871094 "/>
<g clip-path="url(#clip11)" clip-rule="nonzero">
<path style="fill:none;stroke-width:0.8;stroke-linecap:square;stroke-linejoin:round;stroke:rgb(69.01961%,69.01961%,69.01961%);stroke-opacity:1;stroke-miterlimit:4;" d="M 52.160156 17.991211 L 386.961914 17.991211 " transform="matrix(1.333333,0,0,1.333333,0,0)"/>
</g>
<path style="fill:none;stroke-width:0.8;stroke-linecap:butt;stroke-linejoin:round;stroke:rgb(0%,0%,0%);stroke-opacity:1;stroke-miterlimit:4;" d="M -0.000782013 0.000959396 L -3.498829 0.000959396 " transform="matrix(1.333333,0,0,1.333333,69.547918,23.987002)"/>
<path style=" stroke:none;fill-rule:nonzero;fill:rgb(0%,0%,0%);fill-opacity:1;" d="M 40.664062 27.945312 L 42.8125 27.945312 L 42.8125 20.53125 L 40.476562 21 L 40.476562 19.800781 L 42.800781 19.332031 L 44.113281 19.332031 L 44.113281 27.945312 L 46.261719 27.945312 L 46.261719 29.050781 L 40.664062 29.050781 Z M 40.664062 27.945312 "/>
<path style=" stroke:none;fill-rule:nonzero;fill:rgb(0%,0%,0%);fill-opacity:1;" d="M 48.917969 27.398438 L 50.292969 27.398438 L 50.292969 29.050781 L 48.917969 29.050781 Z M 48.917969 27.398438 "/>
<path style=" stroke:none;fill-rule:nonzero;fill:rgb(0%,0%,0%);fill-opacity:1;" d="M 53.171875 19.332031 L 58.332031 19.332031 L 58.332031 20.441406 L 54.375 20.441406 L 54.375 22.820312 C 54.566406 22.757812 54.757812 22.707031 54.945312 22.675781 C 55.136719 22.644531 55.328125 22.628906 55.519531 22.628906 C 56.605469 22.628906 57.464844 22.925781 58.097656 23.519531 C 58.734375 24.113281 59.050781 24.917969 59.050781 25.933594 C 59.050781 26.980469 58.726562 27.792969 58.074219 28.375 C 57.421875 28.953125 56.503906 29.242188 55.320312 29.242188 C 54.910156 29.242188 54.496094 29.207031 54.070312 29.136719 C 53.648438 29.070312 53.210938 28.964844 52.761719 28.824219 L 52.761719 27.503906 C 53.152344 27.714844 53.554688 27.875 53.972656 27.976562 C 54.386719 28.082031 54.828125 28.132812 55.292969 28.132812 C 56.042969 28.132812 56.636719 27.9375 57.074219 27.542969 C 57.515625 27.148438 57.734375 26.613281 57.734375 25.933594 C 57.734375 25.257812 57.515625 24.722656 57.074219 24.328125 C 56.636719 23.933594 56.042969 23.734375 55.292969 23.734375 C 54.941406 23.734375 54.589844 23.773438 54.238281 23.851562 C 53.890625 23.929688 53.535156 24.050781 53.171875 24.214844 Z M 53.171875 19.332031 "/>
<path style=" stroke:none;fill-rule:nonzero;fill:rgb(0%,0%,0%);fill-opacity:1;" d="M 12.441406 117.105469 L 15.988281 119.746094 L 19.730469 116.972656 L 19.730469 118.382812 L 16.867188 120.507812 L 19.730469 122.628906 L 19.730469 124.042969 L 15.917969 121.210938 L 12.441406 123.800781 L 12.441406 122.386719 L 15.039062 120.453125 L 12.441406 118.523438 Z M 12.441406 117.105469 "/>
<g clip-path="url(#clip12)" clip-rule="nonzero">
<path style="fill:none;stroke-width:1.5;stroke-linecap:square;stroke-linejoin:round;stroke:rgb(12.156863%,46.666667%,70.588237%);stroke-opacity:1;stroke-miterlimit:4;" d="M 52.160156 102.46582 L 52.49707 79.775391 L 52.831055 112.980469 L 53.501953 84.169922 L 54.172852 108.052734 L 54.506836 97.297852 L 54.84082 90.556641 L 55.177734 96.052734 L 55.511719 90.533203 L 55.848633 92.507812 L 56.182617 73.318359 L 56.516602 75.93457 L 57.1875 97.204102 L 58.192383 78.363281 L 58.529297 86.885742 L 58.863281 80.90625 L 59.200195 62.888672 L 59.53418 87.550781 L 59.868164 74.408203 L 60.205078 80.862305 L 60.539062 100.775391 L 61.209961 72.650391 L 61.543945 64.541016 L 61.880859 75.275391 L 62.214844 74.332031 L 62.548828 64.889648 L 62.885742 76.209961 L 63.219727 80.586914 L 63.556641 73.268555 L 63.890625 85.245117 L 64.224609 67.40625 L 64.561523 65.704102 L 64.895508 92.176758 L 65.232422 56.352539 L 65.566406 72.1875 L 65.900391 81.744141 L 66.237305 86.185547 L 66.571289 82.359375 L 66.908203 90.413086 L 67.242188 60.670898 L 67.576172 59.677734 L 67.913086 77.733398 L 68.583984 52.420898 L 69.251953 61.860352 L 69.588867 72.398438 L 69.922852 67.880859 L 70.256836 65.748047 L 70.59375 61.652344 L 70.927734 66.348633 L 71.264648 75.776367 L 71.598633 77.291016 L 71.932617 70.743164 L 72.269531 70.101562 L 72.603516 62.103516 L 72.94043 79.177734 L 73.274414 69.720703 L 73.608398 66.231445 L 73.945312 70.617188 L 74.279297 52.795898 L 74.616211 53.200195 L 74.950195 74.047852 L 75.621094 57.474609 L 75.955078 41.639648 L 76.291992 67.546875 L 76.959961 54.767578 L 77.296875 69.793945 L 77.967773 55.438477 L 78.301758 65.44043 L 78.635742 48.225586 L 78.972656 57.140625 L 79.306641 49.113281 L 79.640625 58.833984 L 79.977539 74.217773 L 80.311523 43.582031 L 80.648438 49.631836 L 80.982422 63.143555 L 81.316406 66.521484 L 81.65332 61.775391 L 81.987305 44.244141 L 82.324219 65.244141 L 82.658203 63.011719 L 82.992188 46.130859 L 83.329102 52.081055 L 83.663086 53.466797 L 84 49.87793 L 84.333984 49.678711 L 84.667969 45.398438 L 85.004883 54.099609 L 85.338867 57.005859 L 85.675781 41.607422 L 86.009766 31.804688 L 86.34375 29.598633 L 86.680664 60.732422 L 87.014648 42.383789 L 87.351562 44.841797 L 87.685547 45.351562 L 88.019531 46.939453 L 88.356445 65.794922 L 88.69043 55.77832 L 89.024414 62.270508 L 89.361328 48.09668 L 89.695312 48.820312 L 90.366211 61.930664 L 90.700195 40.168945 L 91.037109 34.092773 L 91.371094 17.692383 L 91.708008 61.69043 L 92.041992 64.804688 L 92.375977 49.426758 L 92.712891 45.612305 L 93.046875 59.81543 L 93.383789 43.283203 L 94.051758 36.515625 L 94.388672 47.586914 L 94.722656 47.399414 L 95.05957 25.895508 L 95.393555 51.855469 L 95.727539 32.449219 L 96.064453 48.436523 L 96.398438 36.216797 L 96.735352 33.319336 L 97.069336 37.892578 L 97.40332 54.026367 L 97.740234 41.938477 L 98.074219 39.073242 L 98.408203 40.880859 L 98.745117 55.12207 L 99.079102 39.166992 L 99.416016 54.345703 L 99.75 35.481445 L 100.083984 31.59668 L 100.420898 43.037109 L 100.754883 48.758789 L 101.091797 46.482422 L 101.759766 33.483398 L 102.09668 36.392578 L 102.430664 36.884766 L 102.767578 37.136719 L 103.101562 42.023438 L 103.435547 59.645508 L 104.106445 34.511719 L 104.443359 56.856445 L 104.777344 43.289062 L 105.111328 54.574219 L 105.448242 36.234375 L 105.782227 25.300781 L 106.453125 60.070312 L 106.787109 32.167969 L 107.458008 49.125 L 107.791992 38.373047 L 108.128906 38.53418 L 108.462891 42.688477 L 108.799805 66.079102 L 109.133789 47.62207 L 109.467773 44.692383 L 109.804688 50.973633 L 110.475586 30.793945 L 110.80957 45.550781 L 111.143555 75.615234 L 111.480469 33.474609 L 111.814453 26.510742 L 112.151367 50.794922 L 112.485352 59.797852 L 112.819336 37.192383 L 113.15625 62.050781 L 113.490234 45.5625 L 113.827148 45.826172 L 114.161133 59.850586 L 114.832031 47.771484 L 115.166016 47.824219 L 115.50293 40.535156 L 115.836914 44.651367 L 116.170898 51.316406 L 116.507812 49.898438 L 116.841797 57.196289 L 117.175781 61.12793 L 117.512695 28.570312 L 117.84668 60.981445 L 118.183594 47.115234 L 118.517578 55.054688 L 118.851562 58.977539 L 119.188477 54.178711 L 119.522461 36.908203 L 119.859375 60.00293 L 120.193359 58.529297 L 120.527344 42.339844 L 120.864258 43.631836 L 121.198242 52.5 L 121.535156 65.701172 L 121.869141 60.887695 L 122.203125 41.126953 L 122.540039 57.275391 L 122.874023 35.223633 L 123.210938 75.410156 L 123.544922 59.926758 L 123.878906 38.05957 L 124.21582 64.625977 L 124.549805 48.547852 L 124.886719 51.161133 L 125.220703 72.108398 L 125.554688 44.583984 L 125.891602 45.878906 L 126.225586 58.652344 L 126.55957 56.402344 L 126.896484 55.746094 L 127.230469 38.985352 L 127.567383 67.420898 L 127.901367 54.878906 L 128.235352 64.848633 L 128.572266 61.491211 L 128.90625 75.706055 L 129.243164 53.021484 L 129.577148 61.294922 L 129.911133 65.871094 L 130.248047 60.641602 L 130.582031 52.467773 L 130.918945 66.855469 L 131.25293 60.793945 L 131.586914 59.525391 L 131.923828 74.276367 L 132.257812 54.626953 L 132.594727 68.182617 L 132.928711 76.751953 L 133.262695 72.052734 L 133.599609 65.302734 L 133.933594 55.731445 L 134.270508 51.430664 L 134.604492 63.946289 L 134.938477 59.923828 L 135.275391 65.24707 L 135.609375 73.297852 L 135.943359 63.691406 L 136.280273 61.772461 L 136.614258 62.012695 L 136.951172 69.240234 L 137.285156 70.022461 L 137.619141 63.905273 L 137.956055 62.314453 L 138.626953 83.874023 L 138.960938 64.274414 L 139.294922 53.083008 L 139.631836 76.68457 L 139.96582 68.402344 L 140.302734 53.050781 L 140.636719 79.242188 L 141.641602 70.772461 L 141.978516 72.849609 L 142.3125 50.929688 L 142.646484 75.644531 L 142.983398 68.953125 L 143.317383 82.004883 L 143.651367 69.416016 L 143.988281 72.152344 L 144.322266 65.071289 L 144.65918 65.446289 L 144.993164 68.050781 L 145.327148 88.397461 L 145.664062 91.163086 L 146.334961 74.009766 L 146.668945 76.746094 L 147.00293 75.105469 L 147.339844 75.9375 L 147.673828 89.501953 L 148.010742 79.705078 L 148.344727 66.553711 L 148.678711 71.047852 L 149.015625 86.62793 L 149.349609 75.667969 L 149.686523 81.861328 L 150.020508 82.576172 L 150.354492 93.588867 L 150.691406 84.931641 L 151.025391 71.452148 L 151.362305 89.285156 L 151.696289 86.956055 L 152.030273 102.588867 L 152.367188 74.513672 L 152.701172 80.610352 L 153.035156 114.017578 L 153.37207 92.976562 L 153.706055 84.325195 L 154.042969 80.15918 L 154.376953 89.510742 L 155.047852 74.961914 L 155.381836 98.481445 L 155.71875 104.200195 L 156.052734 83.504883 L 156.723633 102.111328 L 157.057617 90.776367 L 157.394531 96.958008 L 157.728516 98.794922 L 158.0625 93.079102 L 158.399414 107.293945 L 158.733398 76.760742 L 159.070312 99.723633 L 159.404297 85.957031 L 159.738281 99.521484 L 160.075195 105.225586 L 160.40918 104.765625 L 160.746094 109.6875 L 161.080078 120.117188 L 161.414062 116.197266 L 161.750977 107.083008 L 162.084961 108.249023 L 162.418945 101.783203 L 162.755859 117.149414 L 163.089844 108.544922 L 163.426758 116.399414 L 163.760742 112.083984 L 164.094727 123.632812 L 164.431641 101.944336 L 164.765625 95.824219 L 165.102539 107.414062 L 165.436523 104.71582 L 165.770508 118.119141 L 166.107422 108.670898 L 166.441406 118.78125 L 166.77832 105.74707 L 167.112305 108.571289 L 167.446289 109.942383 L 167.783203 125.332031 L 168.117188 133.101562 L 168.788086 106.795898 L 169.12207 105.263672 L 169.458984 91.154297 L 169.792969 114.37207 L 170.129883 118.119141 L 170.463867 101.891602 L 170.797852 98.15625 L 171.134766 107.733398 L 171.46875 110.958984 L 171.802734 103.242188 L 172.139648 99.09375 L 172.473633 121.464844 L 172.810547 103.104492 L 173.144531 129.427734 L 173.478516 120.459961 L 173.81543 129.814453 L 174.149414 131.326172 L 174.486328 113.390625 L 174.820312 127.145508 L 175.154297 113.074219 L 175.491211 115.456055 L 175.825195 110.639648 L 176.162109 123.451172 L 176.496094 108.360352 L 176.830078 123.249023 L 177.166992 111.770508 L 177.500977 127.306641 L 177.837891 126.776367 L 178.171875 122.645508 L 178.505859 149.478516 L 178.842773 145.661133 L 179.176758 129.445312 L 179.513672 118.760742 L 179.847656 124.045898 L 180.518555 148.863281 L 180.852539 112.564453 L 181.186523 133.772461 L 181.857422 126.635742 L 182.194336 140.897461 L 182.52832 140.554688 L 182.862305 123.272461 L 183.199219 128.226562 L 183.533203 126.082031 L 184.204102 143.469727 L 184.538086 144.975586 L 185.208984 137.15918 L 185.545898 126.073242 L 185.879883 123.864258 L 186.213867 149.551758 L 186.550781 134.329102 L 186.884766 126.773438 L 187.22168 138.064453 L 187.555664 142.479492 L 187.889648 133.628906 L 188.226562 116.44043 L 188.560547 110.006836 L 188.897461 137.888672 L 189.231445 139.693359 L 189.56543 137.036133 L 189.902344 136.508789 L 190.236328 141.366211 L 190.570312 137.90332 L 190.907227 136.608398 L 191.241211 131.015625 L 191.578125 153.152344 L 191.912109 140.548828 L 192.246094 144.020508 L 192.583008 141.858398 L 192.916992 138.199219 L 193.253906 143.900391 L 193.587891 117.665039 L 193.921875 109.02832 L 194.258789 139.787109 L 194.592773 133.02832 L 194.929688 137.613281 L 195.263672 152.689453 L 195.597656 139.265625 L 195.93457 149.53418 L 196.268555 126.773438 L 196.605469 149.610352 L 196.939453 142.845703 L 197.273438 148.362305 L 197.610352 135.700195 L 197.944336 154.672852 L 198.28125 151.037109 L 198.615234 141.008789 L 198.949219 157.649414 L 199.286133 134.947266 L 199.620117 150.243164 L 199.954102 131.135742 L 200.961914 151.242188 L 201.295898 140.000977 L 201.629883 153.635742 L 201.966797 154.201172 L 202.300781 130.306641 L 202.637695 132.155273 L 202.97168 153.503906 L 203.305664 137.094727 L 203.642578 138.682617 L 203.976562 137.162109 L 204.313477 129.870117 L 204.647461 158.033203 L 204.981445 153.969727 L 205.318359 156.298828 L 205.652344 149.405273 L 205.989258 165.960938 L 206.323242 137.786133 L 206.657227 122.443359 L 206.994141 142.125 L 207.328125 128.276367 L 207.665039 138.301758 L 207.999023 155.361328 L 208.333008 160.207031 L 208.669922 150.706055 L 209.003906 161.833008 L 209.337891 139.488281 L 210.008789 161.387695 L 210.345703 146.630859 L 210.679688 158.586914 L 211.013672 156.439453 L 211.350586 152.446289 L 211.68457 152.888672 L 212.021484 161.944336 L 212.355469 148.584961 L 212.689453 127.740234 L 213.026367 154.151367 L 213.360352 148.541016 L 213.697266 145.640625 L 214.03125 148.21875 L 214.365234 161.838867 L 214.702148 158.185547 L 215.373047 132.975586 L 215.707031 153.94043 L 216.041016 127.59082 L 216.37793 139.171875 L 216.711914 139.274414 L 217.048828 135.389648 L 217.382812 145.804688 L 217.716797 145.347656 L 218.053711 149.238281 L 218.387695 156.243164 L 218.72168 149.279297 L 219.058594 139.192383 L 220.063477 161.217773 L 220.397461 132.216797 L 221.068359 153.503906 L 221.405273 143.194336 L 221.739258 147.626953 L 222.073242 140.033203 L 222.410156 128.847656 L 222.744141 146.680664 L 223.081055 140.396484 L 223.415039 156.758789 L 223.749023 144.685547 L 224.085938 124.708008 L 224.419922 142.860352 L 224.756836 119.542969 L 225.09082 148.77832 L 225.424805 149.100586 L 225.761719 134.499023 L 226.095703 154.470703 L 226.432617 162.014648 L 226.766602 133.453125 L 227.100586 148.212891 L 227.4375 134.211914 L 227.771484 146.592773 L 228.105469 148.722656 L 228.442383 143.730469 L 228.776367 143.036133 L 229.113281 151.333008 L 229.447266 140.396484 L 229.78125 141.339844 L 230.118164 140.027344 L 230.452148 133.464844 L 230.789062 143.317383 L 231.123047 132.990234 L 231.793945 144.331055 L 232.12793 139.291992 L 232.464844 131.900391 L 232.798828 151.666992 L 233.132812 120.899414 L 233.469727 133.602539 L 233.803711 120.65625 L 234.140625 133.693359 L 234.474609 126.875977 L 234.808594 154.306641 L 235.145508 141.451172 L 235.479492 138.697266 L 235.816406 143.270508 L 236.150391 165.451172 L 236.484375 129.679688 L 236.821289 146.865234 L 237.155273 123.369141 L 237.489258 130.722656 L 237.826172 115.869141 L 238.160156 122.835938 L 238.49707 122.387695 L 238.831055 143.088867 L 239.165039 112.787109 L 239.501953 132.93457 L 239.835938 133.886719 L 240.172852 147.243164 L 240.506836 112.397461 L 240.84082 135.943359 L 241.511719 90.84375 L 241.848633 123.711914 L 242.182617 117.969727 L 242.516602 133.291992 L 242.853516 127.5 L 243.1875 125.364258 L 243.524414 130.564453 L 243.858398 124.97168 L 244.192383 131.759766 L 244.529297 108.439453 L 244.863281 120.369141 L 245.200195 106.901367 L 245.53418 125.044922 L 245.868164 106.930664 L 246.205078 109.013672 L 246.539062 108.164062 L 246.873047 113.088867 L 247.209961 120.65332 L 247.543945 119.097656 L 247.880859 126.65332 L 248.214844 130.163086 L 248.548828 113.750977 L 248.885742 108.714844 L 249.219727 105.887695 L 249.556641 95.320312 L 249.890625 103.97168 L 250.224609 117.518555 L 250.561523 121.813477 L 250.895508 104.868164 L 251.232422 120.09375 L 251.566406 108.999023 L 251.900391 126.380859 L 252.237305 120.735352 L 252.571289 103.895508 L 252.908203 111.952148 L 253.242188 108.782227 L 253.576172 102.234375 L 254.24707 117.84375 L 254.583984 94.640625 L 254.917969 114.161133 L 255.251953 96.363281 L 255.588867 109.505859 L 255.922852 98.833008 L 256.256836 113.648438 L 256.59375 115.763672 L 256.927734 118.658203 L 257.264648 102.219727 L 257.598633 119.604492 L 257.932617 97.573242 L 258.269531 106.576172 L 258.603516 109.842773 L 258.94043 98.663086 L 259.274414 105.295898 L 259.608398 116.666016 L 259.945312 120.928711 L 260.279297 102.079102 L 260.616211 96.266602 L 260.950195 87 L 261.28418 102.580078 L 261.621094 84.416016 L 261.955078 120.166992 L 262.291992 90.205078 L 262.959961 99.143555 L 263.630859 81.588867 L 263.967773 97.057617 L 264.301758 101.976562 L 264.635742 87.064453 L 264.972656 84.386719 L 265.306641 90.676758 L 265.640625 78.339844 L 265.977539 101.680664 L 266.311523 68.047852 L 266.648438 89.25293 L 266.982422 100.016602 L 267.316406 81.360352 L 267.65332 92.876953 L 267.987305 69.788086 L 268.324219 101.71875 L 268.658203 79.224609 L 268.992188 100.289062 L 269.329102 100.458984 L 269.663086 111.955078 L 270 97.139648 L 270.333984 88.051758 L 270.667969 88.382812 L 271.004883 100.423828 L 271.338867 87.533203 L 271.675781 60.246094 L 272.34375 73.760742 L 272.680664 77.765625 L 273.014648 99.969727 L 273.351562 93.017578 L 273.685547 93.061523 L 274.019531 72.916992 L 274.356445 60.65625 L 274.69043 60.433594 L 275.024414 72.398438 L 275.361328 62.24707 L 275.695312 72.700195 L 276.032227 57.518555 L 276.366211 84.166992 L 276.700195 79.142578 L 277.037109 58.611328 L 277.371094 66.638672 L 277.708008 86.299805 L 278.041992 82.599609 L 278.375977 69.149414 L 278.712891 75.041016 L 279.046875 66.618164 L 279.717773 57.928711 L 280.051758 74.422852 L 280.388672 54.480469 L 280.722656 56.15332 L 281.05957 73.558594 L 281.393555 64.21582 L 281.727539 63.125977 L 282.064453 75.114258 L 282.398438 51.832031 L 282.735352 68.106445 L 283.069336 77.542969 L 283.40332 67.432617 L 283.740234 95.850586 L 284.074219 72.84082 L 284.408203 81.474609 L 284.745117 59.862305 L 285.079102 63.518555 L 285.416016 65.938477 L 285.75 70.579102 L 286.083984 72.360352 L 286.420898 61.391602 L 286.754883 59.683594 L 287.091797 64.795898 L 287.425781 45.410156 L 287.759766 63.981445 L 288.09668 55.192383 L 288.767578 49.048828 L 289.101562 52.962891 L 289.435547 71.393555 L 289.772461 54.228516 L 290.106445 60.826172 L 290.443359 51.791016 L 290.777344 57.5625 L 291.448242 52.133789 L 291.782227 50.100586 L 292.119141 50.402344 L 292.453125 77.302734 L 292.787109 73.453125 L 293.458008 46.6875 L 293.791992 56.103516 L 294.128906 60.902344 L 294.799805 41.411133 L 295.133789 67.239258 L 295.467773 58.198242 L 295.804688 73.371094 L 296.138672 39.74707 L 296.475586 70.376953 L 296.80957 48.624023 L 297.143555 68.408203 L 297.480469 62.267578 L 297.814453 24.509766 L 298.151367 54.571289 L 298.485352 45.430664 L 298.819336 57.137695 L 299.15625 40.810547 L 299.490234 53.012695 L 299.827148 29.165039 L 300.161133 44.419922 L 300.495117 53.080078 L 300.832031 47.25293 L 301.166016 53.4375 L 301.50293 65.012695 L 301.836914 45.225586 L 302.170898 48.155273 L 302.507812 26.62207 L 302.841797 48.448242 L 303.175781 46.063477 L 303.512695 58.936523 L 303.84668 44.750977 L 304.183594 48.275391 L 304.517578 58.807617 L 304.851562 55.798828 L 305.188477 26.34375 L 305.522461 60.820312 L 305.859375 50.496094 L 306.193359 62.674805 L 306.527344 39.19043 L 306.864258 58.801758 L 307.198242 54.799805 L 307.869141 35.402344 L 308.203125 14.762695 L 308.874023 61.705078 L 309.210938 49.324219 L 309.544922 46.054688 L 309.878906 30.322266 L 310.21582 50.244141 L 310.549805 14.759766 L 311.220703 46.992188 L 311.554688 22.004883 L 311.891602 49.883789 L 312.225586 27.93457 L 312.55957 46.464844 L 312.896484 49.5 L 313.230469 43.573242 L 313.567383 28.801758 L 313.901367 61.242188 L 314.572266 22.945312 L 314.90625 43.286133 L 315.243164 46.107422 L 315.577148 59.15625 L 316.248047 33.263672 L 316.582031 25.860352 L 316.918945 59.050781 L 317.25293 42.383789 L 317.586914 43.541016 L 317.923828 47.080078 L 318.257812 34.183594 L 318.594727 32.496094 L 318.928711 31.5 L 319.262695 40.379883 L 319.599609 46.271484 L 319.933594 29.422852 L 320.270508 36.117188 L 320.604492 50.876953 L 320.938477 60.706055 L 321.275391 42.375 L 321.609375 53.818359 L 321.943359 55.125 L 322.280273 54.19043 L 322.614258 59.481445 L 322.951172 77.791992 L 323.285156 37.977539 L 323.619141 46.675781 L 323.956055 46.016602 L 324.290039 32.838867 L 324.960938 54.166992 L 325.294922 43.863281 L 325.631836 45.430664 L 325.96582 68.932617 L 326.302734 49.291992 L 326.636719 46.03125 L 326.970703 41.329102 L 327.307617 27.706055 L 327.641602 53.563477 L 327.978516 44.651367 L 328.3125 52.754883 L 328.646484 53.490234 L 328.983398 52.959961 L 329.317383 40.678711 L 329.651367 48.553711 L 329.988281 52.151367 L 330.322266 44.756836 L 330.65918 57.908203 L 330.993164 59.915039 L 331.327148 64.341797 L 331.664062 48.228516 L 331.998047 43.31543 L 332.334961 27.087891 L 332.668945 59.463867 L 333.339844 36.685547 L 333.673828 59.118164 L 334.010742 46.485352 L 334.344727 51.544922 L 334.678711 46.250977 L 335.015625 57.556641 L 335.349609 43.400391 L 335.686523 60.418945 L 336.020508 71.144531 L 336.354492 47.695312 L 336.691406 48.082031 L 337.025391 47.71875 L 337.362305 52.078125 L 337.696289 45.073242 L 338.030273 47.891602 L 338.367188 58.306641 L 338.701172 59.288086 L 339.035156 57.360352 L 339.37207 76.148438 L 339.706055 57.263672 L 340.042969 59.238281 L 340.376953 49.069336 L 340.710938 42.861328 L 341.047852 64.420898 L 341.381836 52.467773 L 341.71875 55.195312 L 342.052734 52.886719 L 342.386719 56.499023 L 342.723633 63.084961 L 343.057617 63.867188 L 343.394531 45.553711 L 343.728516 52.699219 L 344.0625 72.319336 L 344.399414 60.996094 L 344.733398 62.789062 L 345.070312 57.591797 L 345.404297 57.673828 L 345.738281 52.013672 L 346.075195 62.683594 L 346.40918 56.90625 L 346.746094 78.445312 L 347.750977 45.011719 L 348.084961 64.136719 L 348.418945 57.568359 L 348.755859 65.789062 L 349.089844 64.265625 L 349.426758 40.640625 L 349.760742 80.24707 L 350.431641 59.279297 L 350.765625 68.264648 L 351.102539 80.446289 L 351.436523 70.03125 L 351.770508 73.760742 L 352.107422 74.733398 L 352.441406 68.056641 L 352.77832 70.807617 L 353.112305 80.238281 L 353.446289 75.445312 L 353.783203 98.516602 L 354.117188 75.887695 L 354.454102 78.685547 L 354.788086 75.369141 L 355.12207 73.567383 L 355.458984 75.439453 L 355.792969 68.223633 L 356.129883 93.351562 L 356.463867 96.342773 L 357.134766 74.068359 L 357.46875 93.354492 L 357.802734 77.170898 L 358.139648 77.364258 L 358.473633 75.172852 L 358.810547 81.026367 L 359.144531 78.867188 L 359.478516 75.793945 L 359.81543 85.696289 L 360.149414 72.064453 L 360.486328 80.648438 L 360.820312 81.149414 L 361.154297 98.068359 L 361.491211 99.143555 L 361.825195 79.048828 L 362.162109 97.180664 L 362.496094 88.68457 L 362.830078 97.992188 L 363.166992 73.549805 L 363.500977 108.407227 L 364.171875 87.547852 L 364.505859 111.624023 L 364.842773 108.788086 L 365.176758 100.042969 L 365.513672 102.726562 L 366.181641 75.550781 L 366.518555 107.460938 L 366.852539 91.086914 L 367.186523 105.37793 L 367.523438 87.313477 L 367.857422 84.899414 L 368.194336 98.707031 L 368.52832 94.321289 L 369.199219 95.71875 L 369.533203 94.02832 L 369.870117 84.688477 L 370.204102 97.21875 L 370.538086 104.736328 L 370.875 102.805664 L 371.208984 110.850586 L 371.545898 110.888672 L 371.879883 114.357422 L 372.213867 105.896484 L 372.550781 89.203125 L 372.884766 92.964844 L 373.22168 117.035156 L 373.555664 108.603516 L 373.889648 103.757812 L 374.226562 96.287109 L 374.560547 120.524414 L 374.897461 103.441406 L 375.231445 105.061523 L 375.56543 104.970703 L 375.902344 123.503906 L 376.236328 104.396484 L 376.570312 124.649414 L 376.907227 123.793945 L 377.241211 103.933594 L 377.578125 105.222656 L 377.912109 106.013672 L 378.246094 103.333008 L 378.583008 103.113281 L 378.916992 121.423828 L 379.253906 125.267578 L 379.587891 114.275391 L 379.921875 125.72168 L 380.258789 120.243164 L 380.592773 103.87207 L 380.929688 112.31543 L 381.263672 114.823242 L 381.597656 97.359375 L 381.93457 119.071289 L 382.268555 104.709961 L 382.605469 118.564453 L 382.939453 112.019531 L 383.273438 112.057617 L 383.610352 111.638672 L 383.944336 123.767578 L 384.28125 124.494141 L 384.615234 105.369141 L 384.949219 120.755859 L 385.286133 112.019531 L 385.620117 130.669922 L 385.954102 133.6875 L 386.291016 112.681641 L 386.625 128.575195 L 386.961914 107.232422 " transform="matrix(1.333333,0,0,1.333333,0,0)"/>
</g>
<path style="fill:none;stroke-width:0.8;stroke-linecap:square;stroke-linejoin:miter;stroke:rgb(0%,0%,0%);stroke-opacity:1;stroke-miterlimit:4;" d="M 52.160156 173.519531 L 52.160156 7.201172 " transform="matrix(1.333333,0,0,1.333333,0,0)"/>
<path style="fill:none;stroke-width:0.8;stroke-linecap:square;stroke-linejoin:miter;stroke:rgb(0%,0%,0%);stroke-opacity:1;stroke-miterlimit:4;" d="M 386.961914 173.519531 L 386.961914 7.201172 " transform="matrix(1.333333,0,0,1.333333,0,0)"/>
<path style="fill:none;stroke-width:0.8;stroke-linecap:square;stroke-linejoin:miter;stroke:rgb(0%,0%,0%);stroke-opacity:1;stroke-miterlimit:4;" d="M 52.160156 173.519531 L 386.961914 173.519531 " transform="matrix(1.333333,0,0,1.333333,0,0)"/>
<path style="fill:none;stroke-width:0.8;stroke-linecap:square;stroke-linejoin:miter;stroke:rgb(0%,0%,0%);stroke-opacity:1;stroke-miterlimit:4;" d="M 52.160156 7.201172 L 386.961914 7.201172 " transform="matrix(1.333333,0,0,1.333333,0,0)"/>
</g>
</svg>
