<?xml version="1.0" encoding="UTF-8"?>
<svg xmlns="http://www.w3.org/2000/svg" xmlns:xlink="http://www.w3.org/1999/xlink" width="339.547913" height="249.540629" viewBox="0 0 339.547913 249.540629" version="1.1">
<defs>
<clipPath id="clip1">
  <path d="M 123 14.664062 L 126 14.664062 L 126 199.464844 L 123 199.464844 Z M 123 14.664062 "/>
</clipPath>
<clipPath id="clip2">
  <path d="M 199 14.664062 L 201 14.664062 L 201 199.464844 L 199 199.464844 Z M 199 14.664062 "/>
</clipPath>
<clipPath id="clip3">
  <path d="M 274 14.664062 L 276 14.664062 L 276 199.464844 L 274 199.464844 Z M 274 14.664062 "/>
</clipPath>
<clipPath id="clip4">
  <path d="M 69.546875 198 L 329.949219 198 L 329.949219 199.464844 L 69.546875 199.464844 Z M 69.546875 198 "/>
</clipPath>
<clipPath id="clip5">
  <path d="M 69.546875 167 L 329.949219 167 L 329.949219 170 L 69.546875 170 Z M 69.546875 167 "/>
</clipPath>
<clipPath id="clip6">
  <path d="M 69.546875 137 L 329.949219 137 L 329.949219 139 L 69.546875 139 Z M 69.546875 137 "/>
</clipPath>
<clipPath id="clip7">
  <path d="M 69.546875 106 L 329.949219 106 L 329.949219 108 L 69.546875 108 Z M 69.546875 106 "/>
</clipPath>
<clipPath id="clip8">
  <path d="M 69.546875 75 L 329.949219 75 L 329.949219 78 L 69.546875 78 Z M 69.546875 75 "/>
</clipPath>
<clipPath id="clip9">
  <path d="M 69.546875 44 L 329.949219 44 L 329.949219 47 L 69.546875 47 Z M 69.546875 44 "/>
</clipPath>
<clipPath id="clip10">
  <path d="M 69.546875 14.664062 L 329.949219 14.664062 L 329.949219 16 L 69.546875 16 Z M 69.546875 14.664062 "/>
</clipPath>
<clipPath id="clip11">
  <path d="M 110 14.664062 L 268 14.664062 L 268 199.464844 L 110 199.464844 Z M 110 14.664062 "/>
</clipPath>
<clipPath id="clip12">
  <path d="M 197 14.664062 L 320 14.664062 L 320 82 L 197 82 Z M 197 14.664062 "/>
</clipPath>
</defs>
<g id="surface1">
<path style=" stroke:none;fill-rule:nonzero;fill:rgb(100%,100%,100%);fill-opacity:1;" d="M 0 249.539062 L 339.546875 249.539062 L 339.546875 0 L 0 0 Z M 0 249.539062 "/>
<path style=" stroke:none;fill-rule:nonzero;fill:rgb(100%,100%,100%);fill-opacity:1;" d="M 69.546875 199.464844 L 329.949219 199.464844 L 329.949219 14.664062 L 69.546875 14.664062 Z M 69.546875 199.464844 "/>
<g clip-path="url(#clip1)" clip-rule="nonzero">
<path style="fill:none;stroke-width:0.8;stroke-linecap:square;stroke-linejoin:round;stroke:rgb(69.01961%,69.01961%,69.01961%);stroke-opacity:1;stroke-miterlimit:4;" d="M 93.313477 149.598633 L 93.313477 10.998047 " transform="matrix(1.333333,0,0,1.333333,0,0)"/>
</g>
<path style="fill:none;stroke-width:0.8;stroke-linecap:butt;stroke-linejoin:round;stroke:rgb(0%,0%,0%);stroke-opacity:1;stroke-miterlimit:4;" d="M 0.000648499 -0.000579834 L 0.000648499 3.500397 " transform="matrix(1.333333,0,0,1.333333,124.417104,199.465617)"/>
<path style=" stroke:none;fill-rule:nonzero;fill:rgb(0%,0%,0%);fill-opacity:1;" d="M 116 214.195312 L 124.347656 214.195312 L 124.347656 215.304688 L 116 215.304688 Z M 116 214.195312 "/>
<path style=" stroke:none;fill-rule:nonzero;fill:rgb(0%,0%,0%);fill-opacity:1;" d="M 128.320312 217.824219 L 132.910156 217.824219 L 132.910156 218.929688 L 126.738281 218.929688 L 126.738281 217.824219 C 127.238281 217.308594 127.917969 216.613281 128.777344 215.746094 C 129.640625 214.875 130.183594 214.3125 130.402344 214.058594 C 130.824219 213.585938 131.117188 213.1875 131.285156 212.859375 C 131.453125 212.53125 131.535156 212.210938 131.535156 211.894531 C 131.535156 211.375 131.355469 210.957031 130.992188 210.628906 C 130.628906 210.304688 130.15625 210.140625 129.574219 210.140625 C 129.164062 210.140625 128.726562 210.210938 128.269531 210.355469 C 127.8125 210.5 127.324219 210.714844 126.800781 211.007812 L 126.800781 209.679688 C 127.332031 209.464844 127.824219 209.304688 128.285156 209.195312 C 128.746094 209.089844 129.167969 209.035156 129.550781 209.035156 C 130.558594 209.035156 131.359375 209.285156 131.957031 209.789062 C 132.558594 210.292969 132.855469 210.964844 132.855469 211.808594 C 132.855469 212.207031 132.78125 212.585938 132.632812 212.945312 C 132.484375 213.300781 132.210938 213.722656 131.816406 214.210938 C 131.707031 214.335938 131.363281 214.699219 130.78125 215.300781 C 130.199219 215.902344 129.378906 216.742188 128.320312 217.824219 Z M 128.320312 217.824219 "/>
<g clip-path="url(#clip2)" clip-rule="nonzero">
<path style="fill:none;stroke-width:0.8;stroke-linecap:square;stroke-linejoin:round;stroke:rgb(69.01961%,69.01961%,69.01961%);stroke-opacity:1;stroke-miterlimit:4;" d="M 149.856445 149.598633 L 149.856445 10.998047 " transform="matrix(1.333333,0,0,1.333333,0,0)"/>
</g>
<path style="fill:none;stroke-width:0.8;stroke-linecap:butt;stroke-linejoin:round;stroke:rgb(0%,0%,0%);stroke-opacity:1;stroke-miterlimit:4;" d="M 0.000473022 -0.000579834 L 0.000473022 3.500397 " transform="matrix(1.333333,0,0,1.333333,199.807963,199.465617)"/>
<path style=" stroke:none;fill-rule:nonzero;fill:rgb(0%,0%,0%);fill-opacity:1;" d="M 199.804688 210.074219 C 199.128906 210.074219 198.617188 210.410156 198.277344 211.074219 C 197.9375 211.742188 197.765625 212.742188 197.765625 214.082031 C 197.765625 215.414062 197.9375 216.410156 198.277344 217.078125 C 198.617188 217.746094 199.128906 218.078125 199.804688 218.078125 C 200.484375 218.078125 200.996094 217.746094 201.335938 217.078125 C 201.679688 216.410156 201.851562 215.414062 201.851562 214.082031 C 201.851562 212.742188 201.679688 211.742188 201.335938 211.074219 C 200.996094 210.410156 200.484375 210.074219 199.804688 210.074219 Z M 199.804688 209.035156 C 200.894531 209.035156 201.726562 209.464844 202.300781 210.328125 C 202.875 211.1875 203.164062 212.441406 203.164062 214.082031 C 203.164062 215.714844 202.875 216.964844 202.300781 217.828125 C 201.726562 218.6875 200.894531 219.121094 199.804688 219.121094 C 198.714844 219.121094 197.882812 218.6875 197.308594 217.828125 C 196.734375 216.964844 196.445312 215.714844 196.445312 214.082031 C 196.445312 212.441406 196.734375 211.1875 197.308594 210.328125 C 197.882812 209.464844 198.714844 209.035156 199.804688 209.035156 Z M 199.804688 209.035156 "/>
<g clip-path="url(#clip3)" clip-rule="nonzero">
<path style="fill:none;stroke-width:0.8;stroke-linecap:square;stroke-linejoin:round;stroke:rgb(69.01961%,69.01961%,69.01961%);stroke-opacity:1;stroke-miterlimit:4;" d="M 206.399414 149.598633 L 206.399414 10.998047 " transform="matrix(1.333333,0,0,1.333333,0,0)"/>
</g>
<path style="fill:none;stroke-width:0.8;stroke-linecap:butt;stroke-linejoin:round;stroke:rgb(0%,0%,0%);stroke-opacity:1;stroke-miterlimit:4;" d="M 0.000305176 -0.000579834 L 0.000305176 3.500397 " transform="matrix(1.333333,0,0,1.333333,275.198812,199.465617)"/>
<path style=" stroke:none;fill-rule:nonzero;fill:rgb(0%,0%,0%);fill-opacity:1;" d="M 273.515625 217.824219 L 278.105469 217.824219 L 278.105469 218.929688 L 271.933594 218.929688 L 271.933594 217.824219 C 272.433594 217.308594 273.113281 216.613281 273.972656 215.746094 C 274.835938 214.875 275.378906 214.3125 275.597656 214.058594 C 276.019531 213.585938 276.3125 213.1875 276.480469 212.859375 C 276.648438 212.53125 276.730469 212.210938 276.730469 211.894531 C 276.730469 211.375 276.550781 210.957031 276.1875 210.628906 C 275.824219 210.304688 275.355469 210.140625 274.773438 210.140625 C 274.359375 210.140625 273.921875 210.210938 273.464844 210.355469 C 273.007812 210.5 272.519531 210.714844 272 211.007812 L 272 209.679688 C 272.527344 209.464844 273.023438 209.304688 273.480469 209.195312 C 273.941406 209.089844 274.363281 209.035156 274.746094 209.035156 C 275.753906 209.035156 276.554688 209.285156 277.15625 209.789062 C 277.753906 210.292969 278.054688 210.964844 278.054688 211.808594 C 278.054688 212.207031 277.976562 212.585938 277.828125 212.945312 C 277.679688 213.300781 277.40625 213.722656 277.011719 214.210938 C 276.902344 214.335938 276.558594 214.699219 275.976562 215.300781 C 275.394531 215.902344 274.574219 216.742188 273.515625 217.824219 Z M 273.515625 217.824219 "/>
<path style=" stroke:none;fill-rule:nonzero;fill:rgb(0%,0%,0%);fill-opacity:1;" d="M 203.121094 229.875 L 200.484375 233.425781 L 203.257812 237.167969 L 201.84375 237.167969 L 199.722656 234.304688 L 197.601562 237.167969 L 196.183594 237.167969 L 199.019531 233.351562 L 196.425781 229.875 L 197.839844 229.875 L 199.773438 232.472656 L 201.707031 229.875 Z M 203.121094 229.875 "/>
<g clip-path="url(#clip4)" clip-rule="nonzero">
<path style="fill:none;stroke-width:0.8;stroke-linecap:square;stroke-linejoin:round;stroke:rgb(69.01961%,69.01961%,69.01961%);stroke-opacity:1;stroke-miterlimit:4;" d="M 52.160156 149.598633 L 247.461914 149.598633 " transform="matrix(1.333333,0,0,1.333333,0,0)"/>
</g>
<path style="fill:none;stroke-width:0.8;stroke-linecap:butt;stroke-linejoin:round;stroke:rgb(0%,0%,0%);stroke-opacity:1;stroke-miterlimit:4;" d="M -0.000782013 -0.000579834 L -3.498829 -0.000579834 " transform="matrix(1.333333,0,0,1.333333,69.547918,199.465617)"/>
<path style=" stroke:none;fill-rule:nonzero;fill:rgb(0%,0%,0%);fill-opacity:1;" d="M 29.25 199.796875 L 37.597656 199.796875 L 37.597656 200.902344 L 29.25 200.902344 Z M 29.25 199.796875 "/>
<path style=" stroke:none;fill-rule:nonzero;fill:rgb(0%,0%,0%);fill-opacity:1;" d="M 40.664062 203.425781 L 42.8125 203.425781 L 42.8125 196.007812 L 40.472656 196.476562 L 40.472656 195.277344 L 42.800781 194.808594 L 44.113281 194.808594 L 44.113281 203.425781 L 46.261719 203.425781 L 46.261719 204.53125 L 40.664062 204.53125 Z M 40.664062 203.425781 "/>
<path style=" stroke:none;fill-rule:nonzero;fill:rgb(0%,0%,0%);fill-opacity:1;" d="M 48.917969 202.878906 L 50.292969 202.878906 L 50.292969 204.53125 L 48.917969 204.53125 Z M 48.917969 202.878906 "/>
<path style=" stroke:none;fill-rule:nonzero;fill:rgb(0%,0%,0%);fill-opacity:1;" d="M 53.171875 194.808594 L 58.332031 194.808594 L 58.332031 195.917969 L 54.375 195.917969 L 54.375 198.300781 C 54.566406 198.234375 54.753906 198.1875 54.945312 198.152344 C 55.136719 198.121094 55.328125 198.105469 55.519531 198.105469 C 56.605469 198.105469 57.464844 198.402344 58.097656 198.996094 C 58.730469 199.59375 59.050781 200.398438 59.050781 201.414062 C 59.050781 202.457031 58.722656 203.273438 58.074219 203.851562 C 57.421875 204.429688 56.503906 204.722656 55.316406 204.722656 C 54.910156 204.722656 54.492188 204.6875 54.070312 204.617188 C 53.648438 204.546875 53.210938 204.441406 52.761719 204.304688 L 52.761719 202.980469 C 53.148438 203.195312 53.554688 203.351562 53.96875 203.457031 C 54.386719 203.558594 54.828125 203.613281 55.292969 203.613281 C 56.042969 203.613281 56.636719 203.414062 57.074219 203.019531 C 57.511719 202.625 57.734375 202.089844 57.734375 201.414062 C 57.734375 200.734375 57.511719 200.199219 57.074219 199.804688 C 56.636719 199.410156 56.042969 199.210938 55.292969 199.210938 C 54.941406 199.210938 54.589844 199.25 54.238281 199.328125 C 53.890625 199.40625 53.535156 199.527344 53.171875 199.695312 Z M 53.171875 194.808594 "/>
<g clip-path="url(#clip5)" clip-rule="nonzero">
<path style="fill:none;stroke-width:0.8;stroke-linecap:square;stroke-linejoin:round;stroke:rgb(69.01961%,69.01961%,69.01961%);stroke-opacity:1;stroke-miterlimit:4;" d="M 52.160156 126.498047 L 247.461914 126.498047 " transform="matrix(1.333333,0,0,1.333333,0,0)"/>
</g>
<path style="fill:none;stroke-width:0.8;stroke-linecap:butt;stroke-linejoin:round;stroke:rgb(0%,0%,0%);stroke-opacity:1;stroke-miterlimit:4;" d="M -0.000782013 -0.00117493 L -3.498829 -0.00117493 " transform="matrix(1.333333,0,0,1.333333,69.547918,168.665629)"/>
<path style=" stroke:none;fill-rule:nonzero;fill:rgb(0%,0%,0%);fill-opacity:1;" d="M 29.25 168.996094 L 37.597656 168.996094 L 37.597656 170.105469 L 29.25 170.105469 Z M 29.25 168.996094 "/>
<path style=" stroke:none;fill-rule:nonzero;fill:rgb(0%,0%,0%);fill-opacity:1;" d="M 40.664062 172.625 L 42.8125 172.625 L 42.8125 165.207031 L 40.472656 165.675781 L 40.472656 164.480469 L 42.800781 164.011719 L 44.113281 164.011719 L 44.113281 172.625 L 46.261719 172.625 L 46.261719 173.730469 L 40.664062 173.730469 Z M 40.664062 172.625 "/>
<path style=" stroke:none;fill-rule:nonzero;fill:rgb(0%,0%,0%);fill-opacity:1;" d="M 48.917969 172.078125 L 50.292969 172.078125 L 50.292969 173.730469 L 48.917969 173.730469 Z M 48.917969 172.078125 "/>
<path style=" stroke:none;fill-rule:nonzero;fill:rgb(0%,0%,0%);fill-opacity:1;" d="M 55.96875 164.878906 C 55.292969 164.878906 54.78125 165.210938 54.441406 165.878906 C 54.101562 166.542969 53.929688 167.542969 53.929688 168.882812 C 53.929688 170.214844 54.101562 171.210938 54.441406 171.878906 C 54.78125 172.546875 55.292969 172.878906 55.96875 172.878906 C 56.648438 172.878906 57.160156 172.546875 57.5 171.878906 C 57.84375 171.210938 58.015625 170.214844 58.015625 168.882812 C 58.015625 167.542969 57.84375 166.542969 57.5 165.878906 C 57.160156 165.210938 56.648438 164.878906 55.96875 164.878906 Z M 55.96875 163.835938 C 57.058594 163.835938 57.890625 164.265625 58.464844 165.128906 C 59.042969 165.992188 59.328125 167.242188 59.328125 168.882812 C 59.328125 170.515625 59.042969 171.765625 58.464844 172.628906 C 57.890625 173.492188 57.058594 173.921875 55.96875 173.921875 C 54.878906 173.921875 54.046875 173.492188 53.472656 172.628906 C 52.898438 171.765625 52.609375 170.515625 52.609375 168.882812 C 52.609375 167.242188 52.898438 165.992188 53.472656 165.128906 C 54.046875 164.265625 54.878906 163.835938 55.96875 163.835938 Z M 55.96875 163.835938 "/>
<g clip-path="url(#clip6)" clip-rule="nonzero">
<path style="fill:none;stroke-width:0.8;stroke-linecap:square;stroke-linejoin:round;stroke:rgb(69.01961%,69.01961%,69.01961%);stroke-opacity:1;stroke-miterlimit:4;" d="M 52.160156 103.400391 L 247.461914 103.400391 " transform="matrix(1.333333,0,0,1.333333,0,0)"/>
</g>
<path style="fill:none;stroke-width:0.8;stroke-linecap:butt;stroke-linejoin:round;stroke:rgb(0%,0%,0%);stroke-opacity:1;stroke-miterlimit:4;" d="M -0.000782013 0.00117493 L -3.498829 0.00117493 " transform="matrix(1.333333,0,0,1.333333,69.547918,137.865621)"/>
<path style=" stroke:none;fill-rule:nonzero;fill:rgb(0%,0%,0%);fill-opacity:1;" d="M 29.25 138.199219 L 37.597656 138.199219 L 37.597656 139.304688 L 29.25 139.304688 Z M 29.25 138.199219 "/>
<path style=" stroke:none;fill-rule:nonzero;fill:rgb(0%,0%,0%);fill-opacity:1;" d="M 43.246094 134.078125 C 42.570312 134.078125 42.0625 134.410156 41.71875 135.078125 C 41.378906 135.742188 41.210938 136.742188 41.210938 138.082031 C 41.210938 139.414062 41.378906 140.414062 41.71875 141.078125 C 42.0625 141.746094 42.570312 142.078125 43.246094 142.078125 C 43.929688 142.078125 44.441406 141.746094 44.78125 141.078125 C 45.121094 140.414062 45.292969 139.414062 45.292969 138.082031 C 45.292969 136.742188 45.121094 135.742188 44.78125 135.078125 C 44.441406 134.410156 43.929688 134.078125 43.246094 134.078125 Z M 43.246094 133.035156 C 44.335938 133.035156 45.167969 133.464844 45.746094 134.328125 C 46.320312 135.191406 46.605469 136.441406 46.605469 138.082031 C 46.605469 139.71875 46.320312 140.964844 45.746094 141.828125 C 45.167969 142.691406 44.335938 143.121094 43.246094 143.121094 C 42.15625 143.121094 41.324219 142.691406 40.75 141.828125 C 40.175781 140.964844 39.886719 139.71875 39.886719 138.082031 C 39.886719 136.441406 40.175781 135.191406 40.75 134.328125 C 41.324219 133.464844 42.15625 133.035156 43.246094 133.035156 Z M 43.246094 133.035156 "/>
<path style=" stroke:none;fill-rule:nonzero;fill:rgb(0%,0%,0%);fill-opacity:1;" d="M 48.917969 141.277344 L 50.292969 141.277344 L 50.292969 142.929688 L 48.917969 142.929688 Z M 48.917969 141.277344 "/>
<path style=" stroke:none;fill-rule:nonzero;fill:rgb(0%,0%,0%);fill-opacity:1;" d="M 53.171875 133.210938 L 58.332031 133.210938 L 58.332031 134.320312 L 54.375 134.320312 L 54.375 136.699219 C 54.566406 136.632812 54.753906 136.585938 54.945312 136.554688 C 55.136719 136.523438 55.328125 136.507812 55.519531 136.507812 C 56.605469 136.507812 57.464844 136.804688 58.097656 137.398438 C 58.730469 137.992188 59.050781 138.796875 59.050781 139.8125 C 59.050781 140.859375 58.722656 141.671875 58.074219 142.253906 C 57.421875 142.832031 56.503906 143.121094 55.316406 143.121094 C 54.910156 143.121094 54.492188 143.085938 54.070312 143.015625 C 53.648438 142.945312 53.210938 142.84375 52.761719 142.703125 L 52.761719 141.382812 C 53.148438 141.59375 53.554688 141.753906 53.96875 141.855469 C 54.386719 141.960938 54.828125 142.011719 55.292969 142.011719 C 56.042969 142.011719 56.636719 141.816406 57.074219 141.421875 C 57.511719 141.027344 57.734375 140.492188 57.734375 139.8125 C 57.734375 139.136719 57.511719 138.601562 57.074219 138.207031 C 56.636719 137.808594 56.042969 137.613281 55.292969 137.613281 C 54.941406 137.613281 54.589844 137.652344 54.238281 137.730469 C 53.890625 137.808594 53.535156 137.929688 53.171875 138.09375 Z M 53.171875 133.210938 "/>
<g clip-path="url(#clip7)" clip-rule="nonzero">
<path style="fill:none;stroke-width:0.8;stroke-linecap:square;stroke-linejoin:round;stroke:rgb(69.01961%,69.01961%,69.01961%);stroke-opacity:1;stroke-miterlimit:4;" d="M 52.160156 80.299805 L 247.461914 80.299805 " transform="matrix(1.333333,0,0,1.333333,0,0)"/>
</g>
<path style="fill:none;stroke-width:0.8;stroke-linecap:butt;stroke-linejoin:round;stroke:rgb(0%,0%,0%);stroke-opacity:1;stroke-miterlimit:4;" d="M -0.000782013 0.000587463 L -3.498829 0.000587463 " transform="matrix(1.333333,0,0,1.333333,69.547918,107.065623)"/>
<path style=" stroke:none;fill-rule:nonzero;fill:rgb(0%,0%,0%);fill-opacity:1;" d="M 43.246094 103.277344 C 42.570312 103.277344 42.0625 103.609375 41.722656 104.277344 C 41.378906 104.941406 41.210938 105.945312 41.210938 107.28125 C 41.210938 108.613281 41.378906 109.613281 41.722656 110.277344 C 42.0625 110.945312 42.570312 111.277344 43.246094 111.277344 C 43.929688 111.277344 44.441406 110.945312 44.78125 110.277344 C 45.121094 109.613281 45.292969 108.613281 45.292969 107.28125 C 45.292969 105.945312 45.121094 104.941406 44.78125 104.277344 C 44.441406 103.609375 43.929688 103.277344 43.246094 103.277344 Z M 43.246094 102.234375 C 44.339844 102.234375 45.171875 102.667969 45.746094 103.527344 C 46.320312 104.390625 46.609375 105.640625 46.609375 107.28125 C 46.609375 108.917969 46.320312 110.167969 45.746094 111.027344 C 45.171875 111.890625 44.339844 112.320312 43.246094 112.320312 C 42.160156 112.320312 41.328125 111.890625 40.753906 111.027344 C 40.175781 110.167969 39.890625 108.917969 39.890625 107.28125 C 39.890625 105.640625 40.175781 104.390625 40.753906 103.527344 C 41.328125 102.667969 42.160156 102.234375 43.246094 102.234375 Z M 43.246094 102.234375 "/>
<path style=" stroke:none;fill-rule:nonzero;fill:rgb(0%,0%,0%);fill-opacity:1;" d="M 48.917969 110.476562 L 50.292969 110.476562 L 50.292969 112.132812 L 48.917969 112.132812 Z M 48.917969 110.476562 "/>
<path style=" stroke:none;fill-rule:nonzero;fill:rgb(0%,0%,0%);fill-opacity:1;" d="M 55.96875 103.277344 C 55.292969 103.277344 54.785156 103.609375 54.441406 104.277344 C 54.101562 104.941406 53.933594 105.945312 53.933594 107.28125 C 53.933594 108.613281 54.101562 109.613281 54.441406 110.277344 C 54.785156 110.945312 55.292969 111.277344 55.96875 111.277344 C 56.652344 111.277344 57.164062 110.945312 57.503906 110.277344 C 57.84375 109.613281 58.015625 108.613281 58.015625 107.28125 C 58.015625 105.945312 57.84375 104.941406 57.503906 104.277344 C 57.164062 103.609375 56.652344 103.277344 55.96875 103.277344 Z M 55.96875 102.234375 C 57.058594 102.234375 57.890625 102.667969 58.46875 103.527344 C 59.042969 104.390625 59.328125 105.640625 59.328125 107.28125 C 59.328125 108.917969 59.042969 110.167969 58.46875 111.027344 C 57.890625 111.890625 57.058594 112.320312 55.96875 112.320312 C 54.878906 112.320312 54.046875 111.890625 53.472656 111.027344 C 52.898438 110.167969 52.609375 108.917969 52.609375 107.28125 C 52.609375 105.640625 52.898438 104.390625 53.472656 103.527344 C 54.046875 102.667969 54.878906 102.234375 55.96875 102.234375 Z M 55.96875 102.234375 "/>
<g clip-path="url(#clip8)" clip-rule="nonzero">
<path style="fill:none;stroke-width:0.8;stroke-linecap:square;stroke-linejoin:round;stroke:rgb(69.01961%,69.01961%,69.01961%);stroke-opacity:1;stroke-miterlimit:4;" d="M 52.160156 57.199219 L 247.461914 57.199219 " transform="matrix(1.333333,0,0,1.333333,0,0)"/>
</g>
<path style="fill:none;stroke-width:0.8;stroke-linecap:butt;stroke-linejoin:round;stroke:rgb(0%,0%,0%);stroke-opacity:1;stroke-miterlimit:4;" d="M -0.000782013 0 L -3.498829 0 " transform="matrix(1.333333,0,0,1.333333,69.547918,76.265625)"/>
<path style=" stroke:none;fill-rule:nonzero;fill:rgb(0%,0%,0%);fill-opacity:1;" d="M 43.246094 72.476562 C 42.570312 72.476562 42.0625 72.808594 41.722656 73.476562 C 41.378906 74.140625 41.210938 75.144531 41.210938 76.480469 C 41.210938 77.8125 41.378906 78.8125 41.722656 79.480469 C 42.0625 80.144531 42.570312 80.480469 43.246094 80.480469 C 43.929688 80.480469 44.441406 80.144531 44.78125 79.480469 C 45.121094 78.8125 45.292969 77.8125 45.292969 76.480469 C 45.292969 75.144531 45.121094 74.140625 44.78125 73.476562 C 44.441406 72.808594 43.929688 72.476562 43.246094 72.476562 Z M 43.246094 71.433594 C 44.339844 71.433594 45.171875 71.867188 45.746094 72.730469 C 46.320312 73.589844 46.609375 74.839844 46.609375 76.480469 C 46.609375 78.117188 46.320312 79.367188 45.746094 80.230469 C 45.171875 81.089844 44.339844 81.519531 43.246094 81.519531 C 42.160156 81.519531 41.328125 81.089844 40.753906 80.230469 C 40.175781 79.367188 39.890625 78.117188 39.890625 76.480469 C 39.890625 74.839844 40.175781 73.589844 40.753906 72.730469 C 41.328125 71.867188 42.160156 71.433594 43.246094 71.433594 Z M 43.246094 71.433594 "/>
<path style=" stroke:none;fill-rule:nonzero;fill:rgb(0%,0%,0%);fill-opacity:1;" d="M 48.917969 79.675781 L 50.292969 79.675781 L 50.292969 81.332031 L 48.917969 81.332031 Z M 48.917969 79.675781 "/>
<path style=" stroke:none;fill-rule:nonzero;fill:rgb(0%,0%,0%);fill-opacity:1;" d="M 53.171875 71.609375 L 58.332031 71.609375 L 58.332031 72.71875 L 54.375 72.71875 L 54.375 75.101562 C 54.566406 75.035156 54.757812 74.984375 54.945312 74.953125 C 55.136719 74.921875 55.328125 74.90625 55.519531 74.90625 C 56.605469 74.90625 57.464844 75.203125 58.097656 75.796875 C 58.734375 76.390625 59.050781 77.195312 59.050781 78.210938 C 59.050781 79.257812 58.726562 80.070312 58.074219 80.652344 C 57.421875 81.230469 56.503906 81.519531 55.320312 81.519531 C 54.910156 81.519531 54.496094 81.484375 54.070312 81.417969 C 53.648438 81.347656 53.210938 81.242188 52.761719 81.105469 L 52.761719 79.78125 C 53.152344 79.992188 53.554688 80.152344 53.972656 80.257812 C 54.386719 80.359375 54.828125 80.414062 55.292969 80.414062 C 56.042969 80.414062 56.636719 80.214844 57.074219 79.820312 C 57.515625 79.425781 57.734375 78.890625 57.734375 78.210938 C 57.734375 77.535156 57.515625 77 57.074219 76.605469 C 56.636719 76.210938 56.042969 76.011719 55.292969 76.011719 C 54.941406 76.011719 54.589844 76.050781 54.238281 76.128906 C 53.890625 76.207031 53.535156 76.328125 53.171875 76.492188 Z M 53.171875 71.609375 "/>
<g clip-path="url(#clip9)" clip-rule="nonzero">
<path style="fill:none;stroke-width:0.8;stroke-linecap:square;stroke-linejoin:round;stroke:rgb(69.01961%,69.01961%,69.01961%);stroke-opacity:1;stroke-miterlimit:4;" d="M 52.160156 34.098633 L 247.461914 34.098633 " transform="matrix(1.333333,0,0,1.333333,0,0)"/>
</g>
<path style="fill:none;stroke-width:0.8;stroke-linecap:butt;stroke-linejoin:round;stroke:rgb(0%,0%,0%);stroke-opacity:1;stroke-miterlimit:4;" d="M -0.000782013 -0.000587463 L -3.498829 -0.000587463 " transform="matrix(1.333333,0,0,1.333333,69.547918,45.465627)"/>
<path style=" stroke:none;fill-rule:nonzero;fill:rgb(0%,0%,0%);fill-opacity:1;" d="M 40.664062 49.425781 L 42.8125 49.425781 L 42.8125 42.007812 L 40.476562 42.476562 L 40.476562 41.277344 L 42.800781 40.808594 L 44.113281 40.808594 L 44.113281 49.425781 L 46.261719 49.425781 L 46.261719 50.53125 L 40.664062 50.53125 Z M 40.664062 49.425781 "/>
<path style=" stroke:none;fill-rule:nonzero;fill:rgb(0%,0%,0%);fill-opacity:1;" d="M 48.917969 48.878906 L 50.292969 48.878906 L 50.292969 50.53125 L 48.917969 50.53125 Z M 48.917969 48.878906 "/>
<path style=" stroke:none;fill-rule:nonzero;fill:rgb(0%,0%,0%);fill-opacity:1;" d="M 55.96875 41.675781 C 55.292969 41.675781 54.785156 42.011719 54.441406 42.675781 C 54.101562 43.34375 53.933594 44.34375 53.933594 45.679688 C 53.933594 47.011719 54.101562 48.011719 54.441406 48.679688 C 54.785156 49.347656 55.292969 49.679688 55.96875 49.679688 C 56.652344 49.679688 57.164062 49.347656 57.503906 48.679688 C 57.84375 48.011719 58.015625 47.011719 58.015625 45.679688 C 58.015625 44.34375 57.84375 43.34375 57.503906 42.675781 C 57.164062 42.011719 56.652344 41.675781 55.96875 41.675781 Z M 55.96875 40.636719 C 57.058594 40.636719 57.890625 41.066406 58.46875 41.929688 C 59.042969 42.789062 59.328125 44.039062 59.328125 45.679688 C 59.328125 47.316406 59.042969 48.566406 58.46875 49.429688 C 57.890625 50.289062 57.058594 50.722656 55.96875 50.722656 C 54.878906 50.722656 54.046875 50.289062 53.472656 49.429688 C 52.898438 48.566406 52.609375 47.316406 52.609375 45.679688 C 52.609375 44.039062 52.898438 42.789062 53.472656 41.929688 C 54.046875 41.066406 54.878906 40.636719 55.96875 40.636719 Z M 55.96875 40.636719 "/>
<g clip-path="url(#clip10)" clip-rule="nonzero">
<path style="fill:none;stroke-width:0.8;stroke-linecap:square;stroke-linejoin:round;stroke:rgb(69.01961%,69.01961%,69.01961%);stroke-opacity:1;stroke-miterlimit:4;" d="M 52.160156 10.998047 L 247.461914 10.998047 " transform="matrix(1.333333,0,0,1.333333,0,0)"/>
</g>
<path style="fill:none;stroke-width:0.8;stroke-linecap:butt;stroke-linejoin:round;stroke:rgb(0%,0%,0%);stroke-opacity:1;stroke-miterlimit:4;" d="M -0.000782013 -0.00117207 L -3.498829 -0.00117207 " transform="matrix(1.333333,0,0,1.333333,69.547918,14.665625)"/>
<path style=" stroke:none;fill-rule:nonzero;fill:rgb(0%,0%,0%);fill-opacity:1;" d="M 40.664062 18.625 L 42.8125 18.625 L 42.8125 11.207031 L 40.476562 11.675781 L 40.476562 10.480469 L 42.800781 10.011719 L 44.113281 10.011719 L 44.113281 18.625 L 46.261719 18.625 L 46.261719 19.730469 L 40.664062 19.730469 Z M 40.664062 18.625 "/>
<path style=" stroke:none;fill-rule:nonzero;fill:rgb(0%,0%,0%);fill-opacity:1;" d="M 48.917969 18.078125 L 50.292969 18.078125 L 50.292969 19.730469 L 48.917969 19.730469 Z M 48.917969 18.078125 "/>
<path style=" stroke:none;fill-rule:nonzero;fill:rgb(0%,0%,0%);fill-opacity:1;" d="M 53.171875 10.011719 L 58.332031 10.011719 L 58.332031 11.117188 L 54.375 11.117188 L 54.375 13.5 C 54.566406 13.433594 54.757812 13.386719 54.945312 13.355469 C 55.136719 13.320312 55.328125 13.304688 55.519531 13.304688 C 56.605469 13.304688 57.464844 13.601562 58.097656 14.199219 C 58.734375 14.792969 59.050781 15.597656 59.050781 16.613281 C 59.050781 17.660156 58.726562 18.472656 58.074219 19.050781 C 57.421875 19.632812 56.503906 19.921875 55.320312 19.921875 C 54.910156 19.921875 54.496094 19.886719 54.070312 19.816406 C 53.648438 19.746094 53.210938 19.644531 52.761719 19.503906 L 52.761719 18.179688 C 53.152344 18.394531 53.554688 18.550781 53.972656 18.65625 C 54.386719 18.761719 54.828125 18.8125 55.292969 18.8125 C 56.042969 18.8125 56.636719 18.617188 57.074219 18.222656 C 57.515625 17.828125 57.734375 17.289062 57.734375 16.613281 C 57.734375 15.9375 57.515625 15.402344 57.074219 15.007812 C 56.636719 14.609375 56.042969 14.414062 55.292969 14.414062 C 54.941406 14.414062 54.589844 14.453125 54.238281 14.527344 C 53.890625 14.605469 53.535156 14.726562 53.171875 14.894531 Z M 53.171875 10.011719 "/>
<path style=" stroke:none;fill-rule:nonzero;fill:rgb(0%,0%,0%);fill-opacity:1;" d="M 9.601562 113.613281 L 10.597656 113.613281 L 10.597656 114.757812 C 10.597656 115.1875 10.683594 115.484375 10.859375 115.652344 C 11.03125 115.820312 11.34375 115.902344 11.796875 115.902344 L 12.441406 115.902344 L 12.441406 113.929688 L 13.371094 113.929688 L 13.371094 115.902344 L 19.730469 115.902344 L 19.730469 117.109375 L 13.371094 117.109375 L 13.371094 118.253906 L 12.441406 118.253906 L 12.441406 117.109375 L 11.929688 117.109375 C 11.121094 117.109375 10.527344 116.917969 10.160156 116.542969 C 9.785156 116.164062 9.601562 115.566406 9.601562 114.746094 Z M 9.601562 113.613281 "/>
<path style=" stroke:none;fill-rule:nonzero;fill:rgb(0%,0%,0%);fill-opacity:1;" d="M 9.613281 109.734375 C 10.613281 110.3125 11.597656 110.746094 12.578125 111.027344 C 13.554688 111.3125 14.542969 111.453125 15.546875 111.453125 C 16.546875 111.453125 17.539062 111.308594 18.523438 111.023438 C 19.507812 110.738281 20.496094 110.308594 21.488281 109.734375 L 21.488281 110.773438 C 20.46875 111.425781 19.464844 111.910156 18.480469 112.234375 C 17.496094 112.558594 16.519531 112.71875 15.546875 112.71875 C 14.578125 112.71875 13.601562 112.558594 12.621094 112.238281 C 11.640625 111.917969 10.636719 111.429688 9.613281 110.773438 Z M 9.613281 109.734375 "/>
<path style=" stroke:none;fill-rule:nonzero;fill:rgb(0%,0%,0%);fill-opacity:1;" d="M 12.441406 101.347656 L 15.988281 103.984375 L 19.730469 101.210938 L 19.730469 102.621094 L 16.867188 104.746094 L 19.730469 106.867188 L 19.730469 108.28125 L 15.917969 105.449219 L 12.441406 108.039062 L 12.441406 106.628906 L 15.039062 104.695312 L 12.441406 102.761719 Z M 12.441406 101.347656 "/>
<path style=" stroke:none;fill-rule:nonzero;fill:rgb(0%,0%,0%);fill-opacity:1;" d="M 9.613281 99.707031 L 9.613281 98.664062 C 10.636719 98.011719 11.640625 97.527344 12.621094 97.203125 C 13.601562 96.878906 14.578125 96.71875 15.546875 96.71875 C 16.519531 96.71875 17.496094 96.878906 18.480469 97.203125 C 19.464844 97.527344 20.46875 98.011719 21.488281 98.664062 L 21.488281 99.707031 C 20.496094 99.128906 19.507812 98.699219 18.523438 98.414062 C 17.539062 98.128906 16.546875 97.988281 15.546875 97.988281 C 14.542969 97.988281 13.554688 98.128906 12.578125 98.414062 C 11.597656 98.699219 10.613281 99.128906 9.613281 99.707031 Z M 9.613281 99.707031 "/>
<path style="fill:none;stroke-width:1.5;stroke-linecap:square;stroke-linejoin:round;stroke:rgb(12.156863%,46.666667%,70.588237%);stroke-opacity:1;stroke-miterlimit:4;" d="M 61.037109 80.299805 L 69.518555 93.952148 L 74.041992 100.810547 L 77.71875 106.001953 L 81.111328 110.414062 L 84.219727 114.079102 L 87.046875 117.055664 L 89.592773 119.422852 L 92.135742 121.473633 L 94.397461 123.014648 L 96.65918 124.286133 L 98.639648 125.165039 L 100.617188 125.827148 L 102.597656 126.263672 L 104.575195 126.477539 L 106.555664 126.462891 L 108.533203 126.222656 L 110.513672 125.759766 L 112.491211 125.071289 L 114.47168 124.166016 L 116.733398 122.865234 L 118.995117 121.294922 L 121.256836 119.460938 L 123.799805 117.099609 L 126.345703 114.442383 L 129.172852 111.164062 L 132.28125 107.203125 L 135.673828 102.512695 L 139.631836 96.644531 L 144.439453 89.097656 L 162.249023 60.688477 L 166.207031 55.042969 L 169.599609 50.592773 L 172.710938 46.886719 L 175.538086 43.869141 L 178.081055 41.463867 L 180.626953 39.37207 L 182.888672 37.790039 L 185.150391 36.480469 L 187.412109 35.449219 L 189.392578 34.78418 L 191.370117 34.341797 L 193.350586 34.12207 L 195.328125 34.130859 L 197.308594 34.365234 L 199.286133 34.825195 L 201.266602 35.507812 L 203.244141 36.410156 L 205.505859 37.702148 L 207.767578 39.269531 L 210.029297 41.097656 L 212.575195 43.453125 L 215.118164 46.107422 L 217.945312 49.379883 L 221.056641 53.334961 L 224.449219 58.019531 L 228.407227 63.887695 L 233.211914 71.428711 L 238.584961 80.15332 " transform="matrix(1.333333,0,0,1.333333,0,0)"/>
<path style="fill:none;stroke-width:1.5;stroke-linecap:butt;stroke-linejoin:round;stroke:rgb(74.901962%,0%,74.901962%);stroke-opacity:1;stroke-dasharray:5.55,2.4;stroke-miterlimit:4;" d="M 61.037109 131.748047 L 238.584961 111.225586 " transform="matrix(1.333333,0,0,1.333333,0,0)"/>
<g clip-path="url(#clip11)" clip-rule="nonzero">
<path style="fill:none;stroke-width:1.5;stroke-linecap:butt;stroke-linejoin:round;stroke:rgb(0%,50.196081%,0%);stroke-opacity:1;stroke-dasharray:9.6,2.4,1.5,2.4;stroke-miterlimit:4;" d="M 83.853516 188.15625 L 199.605469 -0.999023 " transform="matrix(1.333333,0,0,1.333333,0,0)"/>
</g>
<g clip-path="url(#clip12)" clip-rule="nonzero">
<path style="fill:none;stroke-width:1.5;stroke-linecap:butt;stroke-linejoin:round;stroke:rgb(100%,0%,0%);stroke-opacity:1;stroke-dasharray:1.5,2.475;stroke-miterlimit:4;" d="M 148.623047 -0.999023 L 238.584961 60.175781 " transform="matrix(1.333333,0,0,1.333333,0,0)"/>
</g>
<path style="fill:none;stroke-width:0.8;stroke-linecap:square;stroke-linejoin:miter;stroke:rgb(0%,0%,0%);stroke-opacity:1;stroke-miterlimit:4;" d="M 52.160156 149.598633 L 52.160156 10.998047 " transform="matrix(1.333333,0,0,1.333333,0,0)"/>
<path style="fill:none;stroke-width:0.8;stroke-linecap:square;stroke-linejoin:miter;stroke:rgb(0%,0%,0%);stroke-opacity:1;stroke-miterlimit:4;" d="M 247.461914 149.598633 L 247.461914 10.998047 " transform="matrix(1.333333,0,0,1.333333,0,0)"/>
<path style="fill:none;stroke-width:0.8;stroke-linecap:square;stroke-linejoin:miter;stroke:rgb(0%,0%,0%);stroke-opacity:1;stroke-miterlimit:4;" d="M 52.160156 149.598633 L 247.461914 149.598633 " transform="matrix(1.333333,0,0,1.333333,0,0)"/>
<path style="fill:none;stroke-width:0.8;stroke-linecap:square;stroke-linejoin:miter;stroke:rgb(0%,0%,0%);stroke-opacity:1;stroke-miterlimit:4;" d="M 52.160156 10.998047 L 247.461914 10.998047 " transform="matrix(1.333333,0,0,1.333333,0,0)"/>
</g>
</svg>
