<?xml version="1.0" encoding="UTF-8"?>
<svg xmlns="http://www.w3.org/2000/svg" xmlns:xlink="http://www.w3.org/1999/xlink" width="357.66923" height="244.474996" viewBox="0 0 357.66923 244.474996" version="1.1">
<defs>
<clipPath id="clip1">
  <path d="M 89 9.601562 L 91 9.601562 L 91 194.398438 L 89 194.398438 Z M 89 9.601562 "/>
</clipPath>
<clipPath id="clip2">
  <path d="M 136 9.601562 L 139 9.601562 L 139 194.398438 L 136 194.398438 Z M 136 9.601562 "/>
</clipPath>
<clipPath id="clip3">
  <path d="M 184 9.601562 L 187 9.601562 L 187 194.398438 L 184 194.398438 Z M 184 9.601562 "/>
</clipPath>
<clipPath id="clip4">
  <path d="M 232 9.601562 L 235 9.601562 L 235 194.398438 L 232 194.398438 Z M 232 9.601562 "/>
</clipPath>
<clipPath id="clip5">
  <path d="M 280 9.601562 L 282 9.601562 L 282 194.398438 L 280 194.398438 Z M 280 9.601562 "/>
</clipPath>
<clipPath id="clip6">
  <path d="M 328 9.601562 L 330 9.601562 L 330 194.398438 L 328 194.398438 Z M 328 9.601562 "/>
</clipPath>
<clipPath id="clip7">
  <path d="M 78.03125 188 L 338.429688 188 L 338.429688 190 L 78.03125 190 Z M 78.03125 188 "/>
</clipPath>
<clipPath id="clip8">
  <path d="M 78.03125 148 L 338.429688 148 L 338.429688 151 L 78.03125 151 Z M 78.03125 148 "/>
</clipPath>
<clipPath id="clip9">
  <path d="M 78.03125 108 L 338.429688 108 L 338.429688 111 L 78.03125 111 Z M 78.03125 108 "/>
</clipPath>
<clipPath id="clip10">
  <path d="M 78.03125 69 L 338.429688 69 L 338.429688 71 L 78.03125 71 Z M 78.03125 69 "/>
</clipPath>
<clipPath id="clip11">
  <path d="M 78.03125 29 L 338.429688 29 L 338.429688 32 L 78.03125 32 Z M 78.03125 29 "/>
</clipPath>
</defs>
<g id="surface1">
<path style=" stroke:none;fill-rule:nonzero;fill:rgb(100%,100%,100%);fill-opacity:1;" d="M 0 244.476562 L 357.667969 244.476562 L 357.667969 0 L 0 0 Z M 0 244.476562 "/>
<path style=" stroke:none;fill-rule:nonzero;fill:rgb(100%,100%,100%);fill-opacity:1;" d="M 78.03125 194.398438 L 338.429688 194.398438 L 338.429688 9.601562 L 78.03125 9.601562 Z M 78.03125 194.398438 "/>
<g clip-path="url(#clip1)" clip-rule="nonzero">
<path style="fill:none;stroke-width:0.8;stroke-linecap:square;stroke-linejoin:round;stroke:rgb(69.01961%,69.01961%,69.01961%);stroke-opacity:1;stroke-miterlimit:4;" d="M 67.400391 145.798828 L 67.400391 7.201172 " transform="matrix(1.333333,0,0,1.333333,0,-0.000000000000014211)"/>
</g>
<path style="fill:none;stroke-width:0.8;stroke-linecap:butt;stroke-linejoin:round;stroke:rgb(0%,0%,0%);stroke-opacity:1;stroke-miterlimit:4;" d="M -0.000320435 -0.00117493 L -0.000320435 3.499802 " transform="matrix(1.333333,0,0,1.333333,89.867615,194.400004)"/>
<path style=" stroke:none;fill-rule:nonzero;fill:rgb(0%,0%,0%);fill-opacity:1;" d="M 73.339844 212.757812 L 77.929688 212.757812 L 77.929688 213.863281 L 71.757812 213.863281 L 71.757812 212.757812 C 72.257812 212.242188 72.9375 211.546875 73.800781 210.679688 C 74.660156 209.808594 75.203125 209.246094 75.425781 208.992188 C 75.84375 208.523438 76.136719 208.121094 76.304688 207.792969 C 76.472656 207.464844 76.558594 207.144531 76.558594 206.828125 C 76.558594 206.308594 76.375 205.890625 76.011719 205.566406 C 75.652344 205.238281 75.179688 205.074219 74.597656 205.074219 C 74.183594 205.074219 73.75 205.148438 73.289062 205.289062 C 72.832031 205.433594 72.34375 205.648438 71.824219 205.941406 L 71.824219 204.613281 C 72.351562 204.398438 72.847656 204.238281 73.308594 204.132812 C 73.769531 204.023438 74.191406 203.96875 74.570312 203.96875 C 75.578125 203.96875 76.382812 204.222656 76.980469 204.726562 C 77.578125 205.226562 77.878906 205.898438 77.878906 206.742188 C 77.878906 207.140625 77.804688 207.519531 77.652344 207.878906 C 77.503906 208.234375 77.230469 208.65625 76.835938 209.144531 C 76.726562 209.269531 76.382812 209.632812 75.800781 210.234375 C 75.21875 210.835938 74.398438 211.679688 73.339844 212.757812 Z M 73.339844 212.757812 "/>
<path style=" stroke:none;fill-rule:nonzero;fill:rgb(0%,0%,0%);fill-opacity:1;" d="M 80.691406 212.210938 L 82.066406 212.210938 L 82.066406 213.863281 L 80.691406 213.863281 Z M 80.691406 212.210938 "/>
<path style=" stroke:none;fill-rule:nonzero;fill:rgb(0%,0%,0%);fill-opacity:1;" d="M 87.742188 205.011719 C 87.066406 205.011719 86.554688 205.34375 86.214844 206.011719 C 85.875 206.675781 85.703125 207.675781 85.703125 209.015625 C 85.703125 210.347656 85.875 211.347656 86.214844 212.011719 C 86.554688 212.679688 87.066406 213.011719 87.742188 213.011719 C 88.421875 213.011719 88.933594 212.679688 89.273438 212.011719 C 89.617188 211.347656 89.785156 210.347656 89.785156 209.015625 C 89.785156 207.675781 89.617188 206.675781 89.273438 206.011719 C 88.933594 205.34375 88.421875 205.011719 87.742188 205.011719 Z M 87.742188 203.96875 C 88.832031 203.96875 89.664062 204.398438 90.238281 205.261719 C 90.8125 206.125 91.101562 207.375 91.101562 209.015625 C 91.101562 210.652344 90.8125 211.898438 90.238281 212.761719 C 89.664062 213.625 88.832031 214.054688 87.742188 214.054688 C 86.652344 214.054688 85.820312 213.625 85.246094 212.761719 C 84.671875 211.898438 84.382812 210.652344 84.382812 209.015625 C 84.382812 207.375 84.671875 206.125 85.246094 205.261719 C 85.820312 204.398438 86.652344 203.96875 87.742188 203.96875 Z M 87.742188 203.96875 "/>
<path style=" stroke:none;fill-rule:nonzero;fill:rgb(0%,0%,0%);fill-opacity:1;" d="M 96.222656 205.011719 C 95.546875 205.011719 95.039062 205.34375 94.695312 206.011719 C 94.355469 206.675781 94.1875 207.675781 94.1875 209.015625 C 94.1875 210.347656 94.355469 211.347656 94.695312 212.011719 C 95.039062 212.679688 95.546875 213.011719 96.222656 213.011719 C 96.90625 213.011719 97.417969 212.679688 97.757812 212.011719 C 98.097656 211.347656 98.269531 210.347656 98.269531 209.015625 C 98.269531 207.675781 98.097656 206.675781 97.757812 206.011719 C 97.417969 205.34375 96.90625 205.011719 96.222656 205.011719 Z M 96.222656 203.96875 C 97.3125 203.96875 98.148438 204.398438 98.722656 205.261719 C 99.296875 206.125 99.585938 207.375 99.585938 209.015625 C 99.585938 210.652344 99.296875 211.898438 98.722656 212.761719 C 98.148438 213.625 97.3125 214.054688 96.222656 214.054688 C 95.136719 214.054688 94.304688 213.625 93.726562 212.761719 C 93.152344 211.898438 92.867188 210.652344 92.867188 209.015625 C 92.867188 207.375 93.152344 206.125 93.726562 205.261719 C 94.304688 204.398438 95.136719 203.96875 96.222656 203.96875 Z M 96.222656 203.96875 "/>
<path style=" stroke:none;fill-rule:nonzero;fill:rgb(0%,0%,0%);fill-opacity:1;" d="M 104.707031 205.011719 C 104.03125 205.011719 103.523438 205.34375 103.179688 206.011719 C 102.839844 206.675781 102.667969 207.675781 102.667969 209.015625 C 102.667969 210.347656 102.839844 211.347656 103.179688 212.011719 C 103.523438 212.679688 104.03125 213.011719 104.707031 213.011719 C 105.390625 213.011719 105.898438 212.679688 106.242188 212.011719 C 106.582031 211.347656 106.753906 210.347656 106.753906 209.015625 C 106.753906 207.675781 106.582031 206.675781 106.242188 206.011719 C 105.898438 205.34375 105.390625 205.011719 104.707031 205.011719 Z M 104.707031 203.96875 C 105.796875 203.96875 106.628906 204.398438 107.207031 205.261719 C 107.78125 206.125 108.066406 207.375 108.066406 209.015625 C 108.066406 210.652344 107.78125 211.898438 107.207031 212.761719 C 106.628906 213.625 105.796875 214.054688 104.707031 214.054688 C 103.617188 214.054688 102.785156 213.625 102.210938 212.761719 C 101.636719 211.898438 101.347656 210.652344 101.347656 209.015625 C 101.347656 207.375 101.636719 206.125 102.210938 205.261719 C 102.785156 204.398438 103.617188 203.96875 104.707031 203.96875 Z M 104.707031 203.96875 "/>
<g clip-path="url(#clip2)" clip-rule="nonzero">
<path style="fill:none;stroke-width:0.8;stroke-linecap:square;stroke-linejoin:round;stroke:rgb(69.01961%,69.01961%,69.01961%);stroke-opacity:1;stroke-miterlimit:4;" d="M 103.268555 145.798828 L 103.268555 7.201172 " transform="matrix(1.333333,0,0,1.333333,0,-0.000000000000014211)"/>
</g>
<path style="fill:none;stroke-width:0.8;stroke-linecap:butt;stroke-linejoin:round;stroke:rgb(0%,0%,0%);stroke-opacity:1;stroke-miterlimit:4;" d="M 0.000411987 -0.00117493 L 0.000411987 3.499802 " transform="matrix(1.333333,0,0,1.333333,137.690857,194.400004)"/>
<path style=" stroke:none;fill-rule:nonzero;fill:rgb(0%,0%,0%);fill-opacity:1;" d="M 121.164062 212.757812 L 125.753906 212.757812 L 125.753906 213.863281 L 119.582031 213.863281 L 119.582031 212.757812 C 120.082031 212.242188 120.761719 211.546875 121.621094 210.679688 C 122.484375 209.808594 123.027344 209.246094 123.246094 208.992188 C 123.667969 208.523438 123.960938 208.121094 124.128906 207.792969 C 124.296875 207.464844 124.378906 207.144531 124.378906 206.828125 C 124.378906 206.308594 124.199219 205.890625 123.835938 205.566406 C 123.472656 205.238281 123.003906 205.074219 122.421875 205.074219 C 122.007812 205.074219 121.570312 205.148438 121.113281 205.289062 C 120.65625 205.433594 120.167969 205.648438 119.648438 205.941406 L 119.648438 204.613281 C 120.175781 204.398438 120.671875 204.238281 121.128906 204.132812 C 121.589844 204.023438 122.011719 203.96875 122.394531 203.96875 C 123.402344 203.96875 124.203125 204.222656 124.804688 204.726562 C 125.402344 205.226562 125.703125 205.898438 125.703125 206.742188 C 125.703125 207.140625 125.625 207.519531 125.476562 207.878906 C 125.328125 208.234375 125.054688 208.65625 124.660156 209.144531 C 124.550781 209.269531 124.207031 209.632812 123.625 210.234375 C 123.042969 210.835938 122.222656 211.679688 121.164062 212.757812 Z M 121.164062 212.757812 "/>
<path style=" stroke:none;fill-rule:nonzero;fill:rgb(0%,0%,0%);fill-opacity:1;" d="M 128.511719 212.210938 L 129.886719 212.210938 L 129.886719 213.863281 L 128.511719 213.863281 Z M 128.511719 212.210938 "/>
<path style=" stroke:none;fill-rule:nonzero;fill:rgb(0%,0%,0%);fill-opacity:1;" d="M 135.5625 205.011719 C 134.886719 205.011719 134.378906 205.34375 134.039062 206.011719 C 133.695312 206.675781 133.527344 207.675781 133.527344 209.015625 C 133.527344 210.347656 133.695312 211.347656 134.039062 212.011719 C 134.378906 212.679688 134.886719 213.011719 135.5625 213.011719 C 136.246094 213.011719 136.757812 212.679688 137.097656 212.011719 C 137.4375 211.347656 137.609375 210.347656 137.609375 209.015625 C 137.609375 207.675781 137.4375 206.675781 137.097656 206.011719 C 136.757812 205.34375 136.246094 205.011719 135.5625 205.011719 Z M 135.5625 203.96875 C 136.65625 203.96875 137.488281 204.398438 138.0625 205.261719 C 138.636719 206.125 138.925781 207.375 138.925781 209.015625 C 138.925781 210.652344 138.636719 211.898438 138.0625 212.761719 C 137.488281 213.625 136.65625 214.054688 135.5625 214.054688 C 134.476562 214.054688 133.644531 213.625 133.070312 212.761719 C 132.492188 211.898438 132.207031 210.652344 132.207031 209.015625 C 132.207031 207.375 132.492188 206.125 133.070312 205.261719 C 133.644531 204.398438 134.476562 203.96875 135.5625 203.96875 Z M 135.5625 203.96875 "/>
<path style=" stroke:none;fill-rule:nonzero;fill:rgb(0%,0%,0%);fill-opacity:1;" d="M 144.046875 205.011719 C 143.371094 205.011719 142.863281 205.34375 142.519531 206.011719 C 142.179688 206.675781 142.011719 207.675781 142.011719 209.015625 C 142.011719 210.347656 142.179688 211.347656 142.519531 212.011719 C 142.863281 212.679688 143.371094 213.011719 144.046875 213.011719 C 144.730469 213.011719 145.242188 212.679688 145.582031 212.011719 C 145.921875 211.347656 146.09375 210.347656 146.09375 209.015625 C 146.09375 207.675781 145.921875 206.675781 145.582031 206.011719 C 145.242188 205.34375 144.730469 205.011719 144.046875 205.011719 Z M 144.046875 203.96875 C 145.136719 203.96875 145.96875 204.398438 146.546875 205.261719 C 147.121094 206.125 147.40625 207.375 147.40625 209.015625 C 147.40625 210.652344 147.121094 211.898438 146.546875 212.761719 C 145.96875 213.625 145.136719 214.054688 144.046875 214.054688 C 142.957031 214.054688 142.125 213.625 141.550781 212.761719 C 140.976562 211.898438 140.6875 210.652344 140.6875 209.015625 C 140.6875 207.375 140.976562 206.125 141.550781 205.261719 C 142.125 204.398438 142.957031 203.96875 144.046875 203.96875 Z M 144.046875 203.96875 "/>
<path style=" stroke:none;fill-rule:nonzero;fill:rgb(0%,0%,0%);fill-opacity:1;" d="M 150.851562 212.757812 L 155.441406 212.757812 L 155.441406 213.863281 L 149.269531 213.863281 L 149.269531 212.757812 C 149.769531 212.242188 150.449219 211.546875 151.308594 210.679688 C 152.171875 209.808594 152.714844 209.246094 152.933594 208.992188 C 153.355469 208.523438 153.648438 208.121094 153.816406 207.792969 C 153.984375 207.464844 154.066406 207.144531 154.066406 206.828125 C 154.066406 206.308594 153.886719 205.890625 153.523438 205.566406 C 153.160156 205.238281 152.691406 205.074219 152.109375 205.074219 C 151.695312 205.074219 151.257812 205.148438 150.800781 205.289062 C 150.34375 205.433594 149.855469 205.648438 149.335938 205.941406 L 149.335938 204.613281 C 149.863281 204.398438 150.359375 204.238281 150.816406 204.132812 C 151.277344 204.023438 151.699219 203.96875 152.082031 203.96875 C 153.089844 203.96875 153.890625 204.222656 154.492188 204.726562 C 155.089844 205.226562 155.390625 205.898438 155.390625 206.742188 C 155.390625 207.140625 155.3125 207.519531 155.164062 207.878906 C 155.015625 208.234375 154.742188 208.65625 154.347656 209.144531 C 154.238281 209.269531 153.894531 209.632812 153.3125 210.234375 C 152.730469 210.835938 151.910156 211.679688 150.851562 212.757812 Z M 150.851562 212.757812 "/>
<g clip-path="url(#clip3)" clip-rule="nonzero">
<path style="fill:none;stroke-width:0.8;stroke-linecap:square;stroke-linejoin:round;stroke:rgb(69.01961%,69.01961%,69.01961%);stroke-opacity:1;stroke-miterlimit:4;" d="M 139.136719 145.798828 L 139.136719 7.201172 " transform="matrix(1.333333,0,0,1.333333,0,-0.000000000000014211)"/>
</g>
<path style="fill:none;stroke-width:0.8;stroke-linecap:butt;stroke-linejoin:round;stroke:rgb(0%,0%,0%);stroke-opacity:1;stroke-miterlimit:4;" d="M 0.00114441 -0.00117493 L 0.00114441 3.499802 " transform="matrix(1.333333,0,0,1.333333,185.514099,194.400004)"/>
<path style=" stroke:none;fill-rule:nonzero;fill:rgb(0%,0%,0%);fill-opacity:1;" d="M 168.988281 212.757812 L 173.578125 212.757812 L 173.578125 213.863281 L 167.40625 213.863281 L 167.40625 212.757812 C 167.90625 212.242188 168.585938 211.546875 169.445312 210.679688 C 170.308594 209.808594 170.847656 209.246094 171.070312 208.992188 C 171.492188 208.523438 171.785156 208.121094 171.953125 207.792969 C 172.121094 207.464844 172.203125 207.144531 172.203125 206.828125 C 172.203125 206.308594 172.023438 205.890625 171.660156 205.566406 C 171.296875 205.238281 170.824219 205.074219 170.242188 205.074219 C 169.832031 205.074219 169.394531 205.148438 168.9375 205.289062 C 168.480469 205.433594 167.992188 205.648438 167.46875 205.941406 L 167.46875 204.613281 C 168 204.398438 168.492188 204.238281 168.953125 204.132812 C 169.414062 204.023438 169.835938 203.96875 170.21875 203.96875 C 171.226562 203.96875 172.027344 204.222656 172.625 204.726562 C 173.226562 205.226562 173.523438 205.898438 173.523438 206.742188 C 173.523438 207.140625 173.449219 207.519531 173.300781 207.878906 C 173.152344 208.234375 172.878906 208.65625 172.484375 209.144531 C 172.375 209.269531 172.03125 209.632812 171.449219 210.234375 C 170.867188 210.835938 170.046875 211.679688 168.988281 212.757812 Z M 168.988281 212.757812 "/>
<path style=" stroke:none;fill-rule:nonzero;fill:rgb(0%,0%,0%);fill-opacity:1;" d="M 176.335938 212.210938 L 177.710938 212.210938 L 177.710938 213.863281 L 176.335938 213.863281 Z M 176.335938 212.210938 "/>
<path style=" stroke:none;fill-rule:nonzero;fill:rgb(0%,0%,0%);fill-opacity:1;" d="M 183.386719 205.011719 C 182.710938 205.011719 182.203125 205.34375 181.859375 206.011719 C 181.519531 206.675781 181.351562 207.675781 181.351562 209.015625 C 181.351562 210.347656 181.519531 211.347656 181.859375 212.011719 C 182.203125 212.679688 182.710938 213.011719 183.386719 213.011719 C 184.070312 213.011719 184.582031 212.679688 184.921875 212.011719 C 185.261719 211.347656 185.433594 210.347656 185.433594 209.015625 C 185.433594 207.675781 185.261719 206.675781 184.921875 206.011719 C 184.582031 205.34375 184.070312 205.011719 183.386719 205.011719 Z M 183.386719 203.96875 C 184.476562 203.96875 185.308594 204.398438 185.886719 205.261719 C 186.460938 206.125 186.746094 207.375 186.746094 209.015625 C 186.746094 210.652344 186.460938 211.898438 185.886719 212.761719 C 185.308594 213.625 184.476562 214.054688 183.386719 214.054688 C 182.296875 214.054688 181.464844 213.625 180.890625 212.761719 C 180.316406 211.898438 180.027344 210.652344 180.027344 209.015625 C 180.027344 207.375 180.316406 206.125 180.890625 205.261719 C 181.464844 204.398438 182.296875 203.96875 183.386719 203.96875 Z M 183.386719 203.96875 "/>
<path style=" stroke:none;fill-rule:nonzero;fill:rgb(0%,0%,0%);fill-opacity:1;" d="M 191.871094 205.011719 C 191.195312 205.011719 190.683594 205.34375 190.34375 206.011719 C 190.003906 206.675781 189.832031 207.675781 189.832031 209.015625 C 189.832031 210.347656 190.003906 211.347656 190.34375 212.011719 C 190.683594 212.679688 191.195312 213.011719 191.871094 213.011719 C 192.550781 213.011719 193.0625 212.679688 193.402344 212.011719 C 193.746094 211.347656 193.917969 210.347656 193.917969 209.015625 C 193.917969 207.675781 193.746094 206.675781 193.402344 206.011719 C 193.0625 205.34375 192.550781 205.011719 191.871094 205.011719 Z M 191.871094 203.96875 C 192.960938 203.96875 193.792969 204.398438 194.367188 205.261719 C 194.945312 206.125 195.230469 207.375 195.230469 209.015625 C 195.230469 210.652344 194.945312 211.898438 194.367188 212.761719 C 193.792969 213.625 192.960938 214.054688 191.871094 214.054688 C 190.78125 214.054688 189.949219 213.625 189.375 212.761719 C 188.800781 211.898438 188.511719 210.652344 188.511719 209.015625 C 188.511719 207.375 188.800781 206.125 189.375 205.261719 C 189.949219 204.398438 190.78125 203.96875 191.871094 203.96875 Z M 191.871094 203.96875 "/>
<path style=" stroke:none;fill-rule:nonzero;fill:rgb(0%,0%,0%);fill-opacity:1;" d="M 201.15625 205.289062 L 197.835938 210.480469 L 201.15625 210.480469 Z M 200.808594 204.144531 L 202.464844 204.144531 L 202.464844 210.480469 L 203.851562 210.480469 L 203.851562 211.574219 L 202.464844 211.574219 L 202.464844 213.863281 L 201.15625 213.863281 L 201.15625 211.574219 L 196.769531 211.574219 L 196.769531 210.304688 Z M 200.808594 204.144531 "/>
<g clip-path="url(#clip4)" clip-rule="nonzero">
<path style="fill:none;stroke-width:0.8;stroke-linecap:square;stroke-linejoin:round;stroke:rgb(69.01961%,69.01961%,69.01961%);stroke-opacity:1;stroke-miterlimit:4;" d="M 175.001953 145.798828 L 175.001953 7.201172 " transform="matrix(1.333333,0,0,1.333333,0,-0.000000000000014211)"/>
</g>
<path style="fill:none;stroke-width:0.8;stroke-linecap:butt;stroke-linejoin:round;stroke:rgb(0%,0%,0%);stroke-opacity:1;stroke-miterlimit:4;" d="M -0.00105286 -0.00117493 L -0.00105286 3.499802 " transform="matrix(1.333333,0,0,1.333333,233.337341,194.400004)"/>
<path style=" stroke:none;fill-rule:nonzero;fill:rgb(0%,0%,0%);fill-opacity:1;" d="M 216.808594 212.757812 L 221.398438 212.757812 L 221.398438 213.863281 L 215.230469 213.863281 L 215.230469 212.757812 C 215.726562 212.242188 216.40625 211.546875 217.269531 210.679688 C 218.132812 209.808594 218.671875 209.246094 218.894531 208.992188 C 219.3125 208.523438 219.609375 208.121094 219.773438 207.792969 C 219.941406 207.464844 220.027344 207.144531 220.027344 206.828125 C 220.027344 206.308594 219.84375 205.890625 219.484375 205.566406 C 219.121094 205.238281 218.648438 205.074219 218.066406 205.074219 C 217.652344 205.074219 217.21875 205.148438 216.761719 205.289062 C 216.304688 205.433594 215.8125 205.648438 215.292969 205.941406 L 215.292969 204.613281 C 215.824219 204.398438 216.316406 204.238281 216.777344 204.132812 C 217.238281 204.023438 217.660156 203.96875 218.042969 203.96875 C 219.046875 203.96875 219.851562 204.222656 220.449219 204.726562 C 221.046875 205.226562 221.347656 205.898438 221.347656 206.742188 C 221.347656 207.140625 221.273438 207.519531 221.121094 207.878906 C 220.972656 208.234375 220.703125 208.65625 220.304688 209.144531 C 220.199219 209.269531 219.851562 209.632812 219.269531 210.234375 C 218.691406 210.835938 217.871094 211.679688 216.808594 212.757812 Z M 216.808594 212.757812 "/>
<path style=" stroke:none;fill-rule:nonzero;fill:rgb(0%,0%,0%);fill-opacity:1;" d="M 224.160156 212.210938 L 225.535156 212.210938 L 225.535156 213.863281 L 224.160156 213.863281 Z M 224.160156 212.210938 "/>
<path style=" stroke:none;fill-rule:nonzero;fill:rgb(0%,0%,0%);fill-opacity:1;" d="M 231.210938 205.011719 C 230.535156 205.011719 230.023438 205.34375 229.683594 206.011719 C 229.34375 206.675781 229.171875 207.675781 229.171875 209.015625 C 229.171875 210.347656 229.34375 211.347656 229.683594 212.011719 C 230.023438 212.679688 230.535156 213.011719 231.210938 213.011719 C 231.894531 213.011719 232.402344 212.679688 232.742188 212.011719 C 233.085938 211.347656 233.257812 210.347656 233.257812 209.015625 C 233.257812 207.675781 233.085938 206.675781 232.742188 206.011719 C 232.402344 205.34375 231.894531 205.011719 231.210938 205.011719 Z M 231.210938 203.96875 C 232.300781 203.96875 233.132812 204.398438 233.707031 205.261719 C 234.285156 206.125 234.570312 207.375 234.570312 209.015625 C 234.570312 210.652344 234.285156 211.898438 233.707031 212.761719 C 233.132812 213.625 232.300781 214.054688 231.210938 214.054688 C 230.121094 214.054688 229.289062 213.625 228.714844 212.761719 C 228.140625 211.898438 227.851562 210.652344 227.851562 209.015625 C 227.851562 207.375 228.140625 206.125 228.714844 205.261719 C 229.289062 204.398438 230.121094 203.96875 231.210938 203.96875 Z M 231.210938 203.96875 "/>
<path style=" stroke:none;fill-rule:nonzero;fill:rgb(0%,0%,0%);fill-opacity:1;" d="M 239.695312 205.011719 C 239.015625 205.011719 238.507812 205.34375 238.167969 206.011719 C 237.828125 206.675781 237.65625 207.675781 237.65625 209.015625 C 237.65625 210.347656 237.828125 211.347656 238.167969 212.011719 C 238.507812 212.679688 239.015625 213.011719 239.695312 213.011719 C 240.375 213.011719 240.886719 212.679688 241.226562 212.011719 C 241.570312 211.347656 241.738281 210.347656 241.738281 209.015625 C 241.738281 207.675781 241.570312 206.675781 241.226562 206.011719 C 240.886719 205.34375 240.375 205.011719 239.695312 205.011719 Z M 239.695312 203.96875 C 240.785156 203.96875 241.617188 204.398438 242.191406 205.261719 C 242.765625 206.125 243.054688 207.375 243.054688 209.015625 C 243.054688 210.652344 242.765625 211.898438 242.191406 212.761719 C 241.617188 213.625 240.785156 214.054688 239.695312 214.054688 C 238.605469 214.054688 237.773438 213.625 237.199219 212.761719 C 236.621094 211.898438 236.335938 210.652344 236.335938 209.015625 C 236.335938 207.375 236.621094 206.125 237.199219 205.261719 C 237.773438 204.398438 238.605469 203.96875 239.695312 203.96875 Z M 239.695312 203.96875 "/>
<path style=" stroke:none;fill-rule:nonzero;fill:rgb(0%,0%,0%);fill-opacity:1;" d="M 248.339844 208.480469 C 247.75 208.480469 247.28125 208.683594 246.9375 209.085938 C 246.59375 209.492188 246.421875 210.042969 246.421875 210.746094 C 246.421875 211.445312 246.59375 211.996094 246.9375 212.402344 C 247.28125 212.808594 247.75 213.011719 248.339844 213.011719 C 248.933594 213.011719 249.398438 212.808594 249.742188 212.402344 C 250.089844 211.996094 250.261719 211.445312 250.261719 210.746094 C 250.261719 210.042969 250.089844 209.492188 249.742188 209.085938 C 249.398438 208.683594 248.933594 208.480469 248.339844 208.480469 Z M 250.953125 204.359375 L 250.953125 205.554688 C 250.621094 205.402344 250.289062 205.28125 249.953125 205.199219 C 249.617188 205.117188 249.28125 205.074219 248.953125 205.074219 C 248.082031 205.074219 247.421875 205.367188 246.960938 205.953125 C 246.503906 206.539062 246.246094 207.425781 246.179688 208.609375 C 246.433594 208.234375 246.753906 207.941406 247.140625 207.742188 C 247.527344 207.539062 247.953125 207.441406 248.417969 207.441406 C 249.394531 207.441406 250.167969 207.734375 250.734375 208.328125 C 251.300781 208.921875 251.582031 209.726562 251.582031 210.746094 C 251.582031 211.746094 251.289062 212.546875 250.699219 213.148438 C 250.109375 213.753906 249.320312 214.054688 248.339844 214.054688 C 247.214844 214.054688 246.355469 213.625 245.761719 212.761719 C 245.167969 211.898438 244.871094 210.652344 244.871094 209.015625 C 244.871094 207.476562 245.234375 206.253906 245.964844 205.339844 C 246.695312 204.425781 247.671875 203.96875 248.898438 203.96875 C 249.230469 203.96875 249.5625 204 249.898438 204.066406 C 250.234375 204.132812 250.585938 204.230469 250.953125 204.359375 Z M 250.953125 204.359375 "/>
<g clip-path="url(#clip5)" clip-rule="nonzero">
<path style="fill:none;stroke-width:0.8;stroke-linecap:square;stroke-linejoin:round;stroke:rgb(69.01961%,69.01961%,69.01961%);stroke-opacity:1;stroke-miterlimit:4;" d="M 210.870117 145.798828 L 210.870117 7.201172 " transform="matrix(1.333333,0,0,1.333333,0,-0.000000000000014211)"/>
</g>
<path style="fill:none;stroke-width:0.8;stroke-linecap:butt;stroke-linejoin:round;stroke:rgb(0%,0%,0%);stroke-opacity:1;stroke-miterlimit:4;" d="M -0.000320435 -0.00117493 L -0.000320435 3.499802 " transform="matrix(1.333333,0,0,1.333333,281.160583,194.400004)"/>
<path style=" stroke:none;fill-rule:nonzero;fill:rgb(0%,0%,0%);fill-opacity:1;" d="M 264.632812 212.757812 L 269.222656 212.757812 L 269.222656 213.863281 L 263.050781 213.863281 L 263.050781 212.757812 C 263.550781 212.242188 264.230469 211.546875 265.09375 210.679688 C 265.953125 209.808594 266.496094 209.246094 266.71875 208.992188 C 267.136719 208.523438 267.429688 208.121094 267.597656 207.792969 C 267.765625 207.464844 267.851562 207.144531 267.851562 206.828125 C 267.851562 206.308594 267.667969 205.890625 267.304688 205.566406 C 266.945312 205.238281 266.472656 205.074219 265.890625 205.074219 C 265.476562 205.074219 265.042969 205.148438 264.582031 205.289062 C 264.125 205.433594 263.636719 205.648438 263.117188 205.941406 L 263.117188 204.613281 C 263.644531 204.398438 264.140625 204.238281 264.601562 204.132812 C 265.0625 204.023438 265.484375 203.96875 265.863281 203.96875 C 266.871094 203.96875 267.675781 204.222656 268.273438 204.726562 C 268.871094 205.226562 269.171875 205.898438 269.171875 206.742188 C 269.171875 207.140625 269.097656 207.519531 268.945312 207.878906 C 268.796875 208.234375 268.523438 208.65625 268.128906 209.144531 C 268.019531 209.269531 267.675781 209.632812 267.09375 210.234375 C 266.511719 210.835938 265.691406 211.679688 264.632812 212.757812 Z M 264.632812 212.757812 "/>
<path style=" stroke:none;fill-rule:nonzero;fill:rgb(0%,0%,0%);fill-opacity:1;" d="M 271.984375 212.210938 L 273.359375 212.210938 L 273.359375 213.863281 L 271.984375 213.863281 Z M 271.984375 212.210938 "/>
<path style=" stroke:none;fill-rule:nonzero;fill:rgb(0%,0%,0%);fill-opacity:1;" d="M 279.035156 205.011719 C 278.359375 205.011719 277.847656 205.34375 277.507812 206.011719 C 277.167969 206.675781 276.996094 207.675781 276.996094 209.015625 C 276.996094 210.347656 277.167969 211.347656 277.507812 212.011719 C 277.847656 212.679688 278.359375 213.011719 279.035156 213.011719 C 279.714844 213.011719 280.226562 212.679688 280.566406 212.011719 C 280.910156 211.347656 281.078125 210.347656 281.078125 209.015625 C 281.078125 207.675781 280.910156 206.675781 280.566406 206.011719 C 280.226562 205.34375 279.714844 205.011719 279.035156 205.011719 Z M 279.035156 203.96875 C 280.125 203.96875 280.957031 204.398438 281.53125 205.261719 C 282.105469 206.125 282.394531 207.375 282.394531 209.015625 C 282.394531 210.652344 282.105469 211.898438 281.53125 212.761719 C 280.957031 213.625 280.125 214.054688 279.035156 214.054688 C 277.945312 214.054688 277.113281 213.625 276.539062 212.761719 C 275.964844 211.898438 275.675781 210.652344 275.675781 209.015625 C 275.675781 207.375 275.964844 206.125 276.539062 205.261719 C 277.113281 204.398438 277.945312 203.96875 279.035156 203.96875 Z M 279.035156 203.96875 "/>
<path style=" stroke:none;fill-rule:nonzero;fill:rgb(0%,0%,0%);fill-opacity:1;" d="M 287.515625 205.011719 C 286.839844 205.011719 286.332031 205.34375 285.988281 206.011719 C 285.648438 206.675781 285.480469 207.675781 285.480469 209.015625 C 285.480469 210.347656 285.648438 211.347656 285.988281 212.011719 C 286.332031 212.679688 286.839844 213.011719 287.515625 213.011719 C 288.199219 213.011719 288.710938 212.679688 289.050781 212.011719 C 289.390625 211.347656 289.5625 210.347656 289.5625 209.015625 C 289.5625 207.675781 289.390625 206.675781 289.050781 206.011719 C 288.710938 205.34375 288.199219 205.011719 287.515625 205.011719 Z M 287.515625 203.96875 C 288.605469 203.96875 289.441406 204.398438 290.015625 205.261719 C 290.589844 206.125 290.878906 207.375 290.878906 209.015625 C 290.878906 210.652344 290.589844 211.898438 290.015625 212.761719 C 289.441406 213.625 288.605469 214.054688 287.515625 214.054688 C 286.429688 214.054688 285.597656 213.625 285.019531 212.761719 C 284.445312 211.898438 284.160156 210.652344 284.160156 209.015625 C 284.160156 207.375 284.445312 206.125 285.019531 205.261719 C 285.597656 204.398438 286.429688 203.96875 287.515625 203.96875 Z M 287.515625 203.96875 "/>
<path style=" stroke:none;fill-rule:nonzero;fill:rgb(0%,0%,0%);fill-opacity:1;" d="M 296 209.246094 C 295.375 209.246094 294.882812 209.414062 294.523438 209.75 C 294.167969 210.085938 293.988281 210.542969 293.988281 211.128906 C 293.988281 211.714844 294.167969 212.175781 294.523438 212.511719 C 294.882812 212.84375 295.375 213.011719 296 213.011719 C 296.625 213.011719 297.117188 212.84375 297.476562 212.507812 C 297.839844 212.171875 298.019531 211.710938 298.019531 211.128906 C 298.019531 210.542969 297.839844 210.085938 297.480469 209.75 C 297.125 209.414062 296.628906 209.246094 296 209.246094 Z M 294.6875 208.691406 C 294.121094 208.550781 293.683594 208.289062 293.367188 207.902344 C 293.054688 207.515625 292.894531 207.042969 292.894531 206.488281 C 292.894531 205.710938 293.171875 205.097656 293.726562 204.644531 C 294.28125 204.195312 295.039062 203.96875 296 203.96875 C 296.96875 203.96875 297.726562 204.195312 298.28125 204.644531 C 298.832031 205.097656 299.105469 205.710938 299.105469 206.488281 C 299.105469 207.042969 298.949219 207.515625 298.632812 207.902344 C 298.320312 208.289062 297.882812 208.550781 297.324219 208.691406 C 297.957031 208.835938 298.449219 209.125 298.800781 209.554688 C 299.15625 209.984375 299.332031 210.507812 299.332031 211.128906 C 299.332031 212.070312 299.046875 212.796875 298.472656 213.300781 C 297.894531 213.804688 297.074219 214.054688 296 214.054688 C 294.929688 214.054688 294.105469 213.804688 293.53125 213.300781 C 292.953125 212.796875 292.667969 212.070312 292.667969 211.128906 C 292.667969 210.507812 292.84375 209.984375 293.199219 209.554688 C 293.558594 209.125 294.050781 208.835938 294.6875 208.691406 Z M 294.203125 206.613281 C 294.203125 207.117188 294.359375 207.507812 294.675781 207.789062 C 294.992188 208.070312 295.433594 208.210938 296 208.210938 C 296.566406 208.210938 297.007812 208.070312 297.324219 207.789062 C 297.644531 207.507812 297.804688 207.117188 297.804688 206.613281 C 297.804688 206.109375 297.644531 205.714844 297.324219 205.433594 C 297.007812 205.152344 296.566406 205.011719 296 205.011719 C 295.433594 205.011719 294.992188 205.152344 294.675781 205.433594 C 294.359375 205.714844 294.203125 206.109375 294.203125 206.613281 Z M 294.203125 206.613281 "/>
<g clip-path="url(#clip6)" clip-rule="nonzero">
<path style="fill:none;stroke-width:0.8;stroke-linecap:square;stroke-linejoin:round;stroke:rgb(69.01961%,69.01961%,69.01961%);stroke-opacity:1;stroke-miterlimit:4;" d="M 246.738281 145.798828 L 246.738281 7.201172 " transform="matrix(1.333333,0,0,1.333333,0,-0.000000000000014211)"/>
</g>
<path style="fill:none;stroke-width:0.8;stroke-linecap:butt;stroke-linejoin:round;stroke:rgb(0%,0%,0%);stroke-opacity:1;stroke-miterlimit:4;" d="M 0.000411987 -0.00117493 L 0.000411987 3.499802 " transform="matrix(1.333333,0,0,1.333333,328.983826,194.400004)"/>
<path style=" stroke:none;fill-rule:nonzero;fill:rgb(0%,0%,0%);fill-opacity:1;" d="M 312.457031 212.757812 L 317.046875 212.757812 L 317.046875 213.863281 L 310.875 213.863281 L 310.875 212.757812 C 311.375 212.242188 312.054688 211.546875 312.914062 210.679688 C 313.777344 209.808594 314.320312 209.246094 314.539062 208.992188 C 314.960938 208.523438 315.253906 208.121094 315.421875 207.792969 C 315.589844 207.464844 315.671875 207.144531 315.671875 206.828125 C 315.671875 206.308594 315.492188 205.890625 315.128906 205.566406 C 314.765625 205.238281 314.296875 205.074219 313.714844 205.074219 C 313.300781 205.074219 312.863281 205.148438 312.40625 205.289062 C 311.949219 205.433594 311.460938 205.648438 310.941406 205.941406 L 310.941406 204.613281 C 311.46875 204.398438 311.964844 204.238281 312.421875 204.132812 C 312.882812 204.023438 313.304688 203.96875 313.6875 203.96875 C 314.695312 203.96875 315.496094 204.222656 316.097656 204.726562 C 316.695312 205.226562 316.996094 205.898438 316.996094 206.742188 C 316.996094 207.140625 316.917969 207.519531 316.769531 207.878906 C 316.621094 208.234375 316.347656 208.65625 315.953125 209.144531 C 315.84375 209.269531 315.5 209.632812 314.917969 210.234375 C 314.335938 210.835938 313.515625 211.679688 312.457031 212.757812 Z M 312.457031 212.757812 "/>
<path style=" stroke:none;fill-rule:nonzero;fill:rgb(0%,0%,0%);fill-opacity:1;" d="M 319.804688 212.210938 L 321.179688 212.210938 L 321.179688 213.863281 L 319.804688 213.863281 Z M 319.804688 212.210938 "/>
<path style=" stroke:none;fill-rule:nonzero;fill:rgb(0%,0%,0%);fill-opacity:1;" d="M 326.855469 205.011719 C 326.179688 205.011719 325.671875 205.34375 325.332031 206.011719 C 324.988281 206.675781 324.820312 207.675781 324.820312 209.015625 C 324.820312 210.347656 324.988281 211.347656 325.332031 212.011719 C 325.671875 212.679688 326.179688 213.011719 326.855469 213.011719 C 327.539062 213.011719 328.050781 212.679688 328.390625 212.011719 C 328.730469 211.347656 328.902344 210.347656 328.902344 209.015625 C 328.902344 207.675781 328.730469 206.675781 328.390625 206.011719 C 328.050781 205.34375 327.539062 205.011719 326.855469 205.011719 Z M 326.855469 203.96875 C 327.949219 203.96875 328.78125 204.398438 329.355469 205.261719 C 329.929688 206.125 330.21875 207.375 330.21875 209.015625 C 330.21875 210.652344 329.929688 211.898438 329.355469 212.761719 C 328.78125 213.625 327.949219 214.054688 326.855469 214.054688 C 325.769531 214.054688 324.9375 213.625 324.363281 212.761719 C 323.785156 211.898438 323.5 210.652344 323.5 209.015625 C 323.5 207.375 323.785156 206.125 324.363281 205.261719 C 324.9375 204.398438 325.769531 203.96875 326.855469 203.96875 Z M 326.855469 203.96875 "/>
<path style=" stroke:none;fill-rule:nonzero;fill:rgb(0%,0%,0%);fill-opacity:1;" d="M 332.757812 212.757812 L 334.90625 212.757812 L 334.90625 205.339844 L 332.566406 205.808594 L 332.566406 204.613281 L 334.890625 204.144531 L 336.207031 204.144531 L 336.207031 212.757812 L 338.355469 212.757812 L 338.355469 213.863281 L 332.757812 213.863281 Z M 332.757812 212.757812 "/>
<path style=" stroke:none;fill-rule:nonzero;fill:rgb(0%,0%,0%);fill-opacity:1;" d="M 343.824219 205.011719 C 343.148438 205.011719 342.636719 205.34375 342.296875 206.011719 C 341.957031 206.675781 341.785156 207.675781 341.785156 209.015625 C 341.785156 210.347656 341.957031 211.347656 342.296875 212.011719 C 342.636719 212.679688 343.148438 213.011719 343.824219 213.011719 C 344.503906 213.011719 345.015625 212.679688 345.355469 212.011719 C 345.699219 211.347656 345.871094 210.347656 345.871094 209.015625 C 345.871094 207.675781 345.699219 206.675781 345.355469 206.011719 C 345.015625 205.34375 344.503906 205.011719 343.824219 205.011719 Z M 343.824219 203.96875 C 344.914062 203.96875 345.746094 204.398438 346.320312 205.261719 C 346.894531 206.125 347.183594 207.375 347.183594 209.015625 C 347.183594 210.652344 346.894531 211.898438 346.320312 212.761719 C 345.746094 213.625 344.914062 214.054688 343.824219 214.054688 C 342.734375 214.054688 341.902344 213.625 341.328125 212.761719 C 340.753906 211.898438 340.464844 210.652344 340.464844 209.015625 C 340.464844 207.375 340.753906 206.125 341.328125 205.261719 C 341.902344 204.398438 342.734375 203.96875 343.824219 203.96875 Z M 343.824219 203.96875 "/>
<path style=" stroke:none;fill-rule:nonzero;fill:rgb(0%,0%,0%);fill-opacity:1;" d="M 211.605469 224.808594 L 208.964844 228.359375 L 211.738281 232.101562 L 210.328125 232.101562 L 208.203125 229.238281 L 206.082031 232.101562 L 204.667969 232.101562 L 207.503906 228.289062 L 204.910156 224.808594 L 206.324219 224.808594 L 208.257812 227.410156 L 210.191406 224.808594 Z M 211.605469 224.808594 "/>
<g clip-path="url(#clip7)" clip-rule="nonzero">
<path style="fill:none;stroke-width:0.8;stroke-linecap:square;stroke-linejoin:round;stroke:rgb(69.01961%,69.01961%,69.01961%);stroke-opacity:1;stroke-miterlimit:4;" d="M 58.523437 141.591797 L 253.822266 141.591797 " transform="matrix(1.333333,0,0,1.333333,0,-0.000000000000014211)"/>
</g>
<path style="fill:none;stroke-width:0.8;stroke-linecap:butt;stroke-linejoin:round;stroke:rgb(0%,0%,0%);stroke-opacity:1;stroke-miterlimit:4;" d="M -0.000000000000007105 0.00115967 L -3.500977 0.00115967 " transform="matrix(1.333333,0,0,1.333333,78.03125,188.787516)"/>
<path style=" stroke:none;fill-rule:nonzero;fill:rgb(0%,0%,0%);fill-opacity:1;" d="M 29.25 189.121094 L 37.597656 189.121094 L 37.597656 190.226562 L 29.25 190.226562 Z M 29.25 189.121094 "/>
<path style=" stroke:none;fill-rule:nonzero;fill:rgb(0%,0%,0%);fill-opacity:1;" d="M 43.246094 185 C 42.570312 185 42.0625 185.332031 41.71875 186 C 41.378906 186.664062 41.210938 187.664062 41.210938 189.003906 C 41.210938 190.335938 41.378906 191.335938 41.71875 192 C 42.0625 192.667969 42.570312 193 43.246094 193 C 43.929688 193 44.441406 192.667969 44.78125 192 C 45.121094 191.335938 45.292969 190.335938 45.292969 189.003906 C 45.292969 187.664062 45.121094 186.664062 44.78125 186 C 44.441406 185.332031 43.929688 185 43.246094 185 Z M 43.246094 183.957031 C 44.335938 183.957031 45.167969 184.386719 45.746094 185.25 C 46.320312 186.113281 46.605469 187.363281 46.605469 189.003906 C 46.605469 190.640625 46.320312 191.886719 45.746094 192.75 C 45.167969 193.613281 44.335938 194.042969 43.246094 194.042969 C 42.15625 194.042969 41.324219 193.613281 40.75 192.75 C 40.175781 191.886719 39.886719 190.640625 39.886719 189.003906 C 39.886719 187.363281 40.175781 186.113281 40.75 185.25 C 41.324219 184.386719 42.15625 183.957031 43.246094 183.957031 Z M 43.246094 183.957031 "/>
<path style=" stroke:none;fill-rule:nonzero;fill:rgb(0%,0%,0%);fill-opacity:1;" d="M 48.917969 192.199219 L 50.292969 192.199219 L 50.292969 193.851562 L 48.917969 193.851562 Z M 48.917969 192.199219 "/>
<path style=" stroke:none;fill-rule:nonzero;fill:rgb(0%,0%,0%);fill-opacity:1;" d="M 55.96875 189.238281 C 55.34375 189.238281 54.851562 189.402344 54.492188 189.738281 C 54.136719 190.074219 53.957031 190.53125 53.957031 191.117188 C 53.957031 191.703125 54.136719 192.164062 54.492188 192.5 C 54.851562 192.832031 55.34375 193 55.96875 193 C 56.59375 193 57.085938 192.832031 57.445312 192.496094 C 57.804688 192.160156 57.988281 191.699219 57.988281 191.117188 C 57.988281 190.53125 57.808594 190.074219 57.449219 189.738281 C 57.09375 189.402344 56.597656 189.238281 55.96875 189.238281 Z M 54.652344 188.679688 C 54.089844 188.539062 53.648438 188.277344 53.335938 187.890625 C 53.019531 187.503906 52.863281 187.03125 52.863281 186.476562 C 52.863281 185.699219 53.140625 185.085938 53.691406 184.632812 C 54.246094 184.183594 55.003906 183.957031 55.96875 183.957031 C 56.9375 183.957031 57.695312 184.183594 58.246094 184.632812 C 58.796875 185.085938 59.074219 185.699219 59.074219 186.476562 C 59.074219 187.03125 58.917969 187.503906 58.601562 187.890625 C 58.289062 188.277344 57.851562 188.539062 57.292969 188.679688 C 57.925781 188.824219 58.417969 189.113281 58.769531 189.542969 C 59.125 189.972656 59.300781 190.5 59.300781 191.117188 C 59.300781 192.0625 59.015625 192.785156 58.4375 193.289062 C 57.863281 193.792969 57.039062 194.042969 55.96875 194.042969 C 54.898438 194.042969 54.074219 193.792969 53.496094 193.289062 C 52.921875 192.785156 52.636719 192.0625 52.636719 191.117188 C 52.636719 190.5 52.8125 189.972656 53.167969 189.542969 C 53.523438 189.113281 54.019531 188.824219 54.652344 188.679688 Z M 54.171875 186.601562 C 54.171875 187.105469 54.328125 187.496094 54.644531 187.777344 C 54.957031 188.058594 55.398438 188.199219 55.96875 188.199219 C 56.535156 188.199219 56.976562 188.058594 57.292969 187.777344 C 57.613281 187.496094 57.773438 187.105469 57.773438 186.601562 C 57.773438 186.097656 57.613281 185.703125 57.292969 185.421875 C 56.976562 185.140625 56.535156 185 55.96875 185 C 55.398438 185 54.957031 185.140625 54.644531 185.421875 C 54.328125 185.703125 54.171875 186.097656 54.171875 186.601562 Z M 54.171875 186.601562 "/>
<path style=" stroke:none;fill-rule:nonzero;fill:rgb(0%,0%,0%);fill-opacity:1;" d="M 64.453125 185 C 63.773438 185 63.265625 185.332031 62.925781 186 C 62.582031 186.664062 62.414062 187.664062 62.414062 189.003906 C 62.414062 190.335938 62.582031 191.335938 62.925781 192 C 63.265625 192.667969 63.773438 193 64.453125 193 C 65.132812 193 65.644531 192.667969 65.984375 192 C 66.328125 191.335938 66.496094 190.335938 66.496094 189.003906 C 66.496094 187.664062 66.328125 186.664062 65.984375 186 C 65.644531 185.332031 65.132812 185 64.453125 185 Z M 64.453125 183.957031 C 65.542969 183.957031 66.375 184.386719 66.949219 185.25 C 67.523438 186.113281 67.8125 187.363281 67.8125 189.003906 C 67.8125 190.640625 67.523438 191.886719 66.949219 192.75 C 66.375 193.613281 65.542969 194.042969 64.453125 194.042969 C 63.363281 194.042969 62.53125 193.613281 61.957031 192.75 C 61.378906 191.886719 61.09375 190.640625 61.09375 189.003906 C 61.09375 187.363281 61.378906 186.113281 61.957031 185.25 C 62.53125 184.386719 63.363281 183.957031 64.453125 183.957031 Z M 64.453125 183.957031 "/>
<g clip-path="url(#clip8)" clip-rule="nonzero">
<path style="fill:none;stroke-width:0.8;stroke-linecap:square;stroke-linejoin:round;stroke:rgb(69.01961%,69.01961%,69.01961%);stroke-opacity:1;stroke-miterlimit:4;" d="M 58.523437 111.9375 L 253.822266 111.9375 " transform="matrix(1.333333,0,0,1.333333,0,-0.000000000000014211)"/>
</g>
<path style="fill:none;stroke-width:0.8;stroke-linecap:butt;stroke-linejoin:round;stroke:rgb(0%,0%,0%);stroke-opacity:1;stroke-miterlimit:4;" d="M -0.000000000000007105 -0.000816345 L -3.500977 -0.000816345 " transform="matrix(1.333333,0,0,1.333333,78.03125,149.251088)"/>
<path style=" stroke:none;fill-rule:nonzero;fill:rgb(0%,0%,0%);fill-opacity:1;" d="M 29.25 149.582031 L 37.597656 149.582031 L 37.597656 150.691406 L 29.25 150.691406 Z M 29.25 149.582031 "/>
<path style=" stroke:none;fill-rule:nonzero;fill:rgb(0%,0%,0%);fill-opacity:1;" d="M 43.246094 145.460938 C 42.570312 145.460938 42.0625 145.796875 41.71875 146.460938 C 41.378906 147.128906 41.210938 148.128906 41.210938 149.464844 C 41.210938 150.796875 41.378906 151.796875 41.71875 152.464844 C 42.0625 153.132812 42.570312 153.464844 43.246094 153.464844 C 43.929688 153.464844 44.441406 153.132812 44.78125 152.464844 C 45.121094 151.796875 45.292969 150.796875 45.292969 149.464844 C 45.292969 148.128906 45.121094 147.128906 44.78125 146.460938 C 44.441406 145.796875 43.929688 145.460938 43.246094 145.460938 Z M 43.246094 144.421875 C 44.335938 144.421875 45.167969 144.851562 45.746094 145.714844 C 46.320312 146.574219 46.605469 147.828125 46.605469 149.464844 C 46.605469 151.101562 46.320312 152.351562 45.746094 153.214844 C 45.167969 154.074219 44.335938 154.507812 43.246094 154.507812 C 42.15625 154.507812 41.324219 154.074219 40.75 153.214844 C 40.175781 152.351562 39.886719 151.101562 39.886719 149.464844 C 39.886719 147.828125 40.175781 146.574219 40.75 145.714844 C 41.324219 144.851562 42.15625 144.421875 43.246094 144.421875 Z M 43.246094 144.421875 "/>
<path style=" stroke:none;fill-rule:nonzero;fill:rgb(0%,0%,0%);fill-opacity:1;" d="M 48.917969 152.664062 L 50.292969 152.664062 L 50.292969 154.316406 L 48.917969 154.316406 Z M 48.917969 152.664062 "/>
<path style=" stroke:none;fill-rule:nonzero;fill:rgb(0%,0%,0%);fill-opacity:1;" d="M 52.824219 144.597656 L 59.074219 144.597656 L 59.074219 145.15625 L 55.546875 154.316406 L 54.171875 154.316406 L 57.492188 145.703125 L 52.824219 145.703125 Z M 52.824219 144.597656 "/>
<path style=" stroke:none;fill-rule:nonzero;fill:rgb(0%,0%,0%);fill-opacity:1;" d="M 61.679688 154.113281 L 61.679688 152.917969 C 62.007812 153.074219 62.34375 153.191406 62.679688 153.273438 C 63.019531 153.355469 63.351562 153.398438 63.679688 153.398438 C 64.546875 153.398438 65.207031 153.105469 65.664062 152.523438 C 66.125 151.941406 66.386719 151.054688 66.453125 149.863281 C 66.199219 150.234375 65.878906 150.523438 65.492188 150.722656 C 65.105469 150.921875 64.679688 151.023438 64.210938 151.023438 C 63.238281 151.023438 62.46875 150.730469 61.902344 150.140625 C 61.335938 149.554688 61.054688 148.746094 61.054688 147.726562 C 61.054688 146.730469 61.347656 145.929688 61.9375 145.328125 C 62.527344 144.722656 63.316406 144.421875 64.296875 144.421875 C 65.421875 144.421875 66.277344 144.851562 66.871094 145.714844 C 67.464844 146.574219 67.757812 147.828125 67.757812 149.464844 C 67.757812 151 67.394531 152.222656 66.667969 153.136719 C 65.941406 154.050781 64.964844 154.507812 63.738281 154.507812 C 63.40625 154.507812 63.070312 154.472656 62.734375 154.410156 C 62.394531 154.34375 62.042969 154.246094 61.679688 154.113281 Z M 64.296875 149.992188 C 64.886719 149.992188 65.351562 149.792969 65.695312 149.390625 C 66.042969 148.984375 66.214844 148.429688 66.214844 147.726562 C 66.214844 147.027344 66.042969 146.476562 65.695312 146.070312 C 65.351562 145.664062 64.886719 145.460938 64.296875 145.460938 C 63.703125 145.460938 63.238281 145.664062 62.894531 146.070312 C 62.546875 146.476562 62.375 147.027344 62.375 147.726562 C 62.375 148.429688 62.546875 148.984375 62.894531 149.390625 C 63.238281 149.792969 63.703125 149.992188 64.296875 149.992188 Z M 64.296875 149.992188 "/>
<g clip-path="url(#clip9)" clip-rule="nonzero">
<path style="fill:none;stroke-width:0.8;stroke-linecap:square;stroke-linejoin:round;stroke:rgb(69.01961%,69.01961%,69.01961%);stroke-opacity:1;stroke-miterlimit:4;" d="M 58.523437 82.286133 L 253.822266 82.286133 " transform="matrix(1.333333,0,0,1.333333,0,-0.000000000000014211)"/>
</g>
<path style="fill:none;stroke-width:0.8;stroke-linecap:butt;stroke-linejoin:round;stroke:rgb(0%,0%,0%);stroke-opacity:1;stroke-miterlimit:4;" d="M -0.000000000000007105 0.000144958 L -3.500977 0.000144958 " transform="matrix(1.333333,0,0,1.333333,78.03125,109.71465)"/>
<path style=" stroke:none;fill-rule:nonzero;fill:rgb(0%,0%,0%);fill-opacity:1;" d="M 29.25 110.046875 L 37.597656 110.046875 L 37.597656 111.152344 L 29.25 111.152344 Z M 29.25 110.046875 "/>
<path style=" stroke:none;fill-rule:nonzero;fill:rgb(0%,0%,0%);fill-opacity:1;" d="M 43.246094 105.925781 C 42.570312 105.925781 42.0625 106.257812 41.71875 106.925781 C 41.378906 107.589844 41.210938 108.59375 41.210938 109.929688 C 41.210938 111.261719 41.378906 112.261719 41.71875 112.929688 C 42.0625 113.59375 42.570312 113.929688 43.246094 113.929688 C 43.929688 113.929688 44.441406 113.59375 44.78125 112.929688 C 45.121094 112.261719 45.292969 111.261719 45.292969 109.929688 C 45.292969 108.59375 45.121094 107.589844 44.78125 106.925781 C 44.441406 106.257812 43.929688 105.925781 43.246094 105.925781 Z M 43.246094 104.882812 C 44.335938 104.882812 45.167969 105.316406 45.746094 106.179688 C 46.320312 107.039062 46.605469 108.289062 46.605469 109.929688 C 46.605469 111.566406 46.320312 112.816406 45.746094 113.679688 C 45.167969 114.539062 44.335938 114.96875 43.246094 114.96875 C 42.15625 114.96875 41.324219 114.539062 40.75 113.679688 C 40.175781 112.816406 39.886719 111.566406 39.886719 109.929688 C 39.886719 108.289062 40.175781 107.039062 40.75 106.179688 C 41.324219 105.316406 42.15625 104.882812 43.246094 104.882812 Z M 43.246094 104.882812 "/>
<path style=" stroke:none;fill-rule:nonzero;fill:rgb(0%,0%,0%);fill-opacity:1;" d="M 48.917969 113.125 L 50.292969 113.125 L 50.292969 114.78125 L 48.917969 114.78125 Z M 48.917969 113.125 "/>
<path style=" stroke:none;fill-rule:nonzero;fill:rgb(0%,0%,0%);fill-opacity:1;" d="M 52.824219 105.058594 L 59.074219 105.058594 L 59.074219 105.621094 L 55.546875 114.78125 L 54.171875 114.78125 L 57.492188 106.167969 L 52.824219 106.167969 Z M 52.824219 105.058594 "/>
<path style=" stroke:none;fill-rule:nonzero;fill:rgb(0%,0%,0%);fill-opacity:1;" d="M 64.453125 110.164062 C 63.828125 110.164062 63.335938 110.332031 62.976562 110.664062 C 62.621094 111 62.441406 111.460938 62.441406 112.042969 C 62.441406 112.632812 62.621094 113.089844 62.976562 113.425781 C 63.335938 113.761719 63.828125 113.929688 64.453125 113.929688 C 65.078125 113.929688 65.570312 113.761719 65.929688 113.425781 C 66.289062 113.085938 66.46875 112.625 66.46875 112.042969 C 66.46875 111.460938 66.289062 111 65.933594 110.664062 C 65.574219 110.332031 65.082031 110.164062 64.453125 110.164062 Z M 63.136719 109.605469 C 62.574219 109.464844 62.132812 109.203125 61.816406 108.816406 C 61.503906 108.429688 61.347656 107.957031 61.347656 107.402344 C 61.347656 106.625 61.625 106.011719 62.175781 105.5625 C 62.730469 105.109375 63.488281 104.882812 64.453125 104.882812 C 65.417969 104.882812 66.179688 105.109375 66.730469 105.5625 C 67.28125 106.011719 67.558594 106.625 67.558594 107.402344 C 67.558594 107.957031 67.398438 108.429688 67.085938 108.816406 C 66.769531 109.203125 66.332031 109.464844 65.773438 109.605469 C 66.40625 109.753906 66.902344 110.042969 67.253906 110.472656 C 67.609375 110.902344 67.785156 111.425781 67.785156 112.042969 C 67.785156 112.988281 67.496094 113.710938 66.921875 114.214844 C 66.347656 114.71875 65.523438 114.96875 64.453125 114.96875 C 63.378906 114.96875 62.558594 114.71875 61.980469 114.214844 C 61.40625 113.710938 61.117188 112.988281 61.117188 112.042969 C 61.117188 111.425781 61.296875 110.902344 61.652344 110.472656 C 62.007812 110.042969 62.503906 109.753906 63.136719 109.605469 Z M 62.65625 107.527344 C 62.65625 108.03125 62.8125 108.421875 63.125 108.707031 C 63.441406 108.988281 63.882812 109.128906 64.453125 109.128906 C 65.015625 109.128906 65.457031 108.988281 65.777344 108.707031 C 66.097656 108.421875 66.253906 108.03125 66.253906 107.527344 C 66.253906 107.023438 66.097656 106.632812 65.777344 106.347656 C 65.457031 106.066406 65.015625 105.925781 64.453125 105.925781 C 63.882812 105.925781 63.441406 106.066406 63.125 106.347656 C 62.8125 106.632812 62.65625 107.023438 62.65625 107.527344 Z M 62.65625 107.527344 "/>
<g clip-path="url(#clip10)" clip-rule="nonzero">
<path style="fill:none;stroke-width:0.8;stroke-linecap:square;stroke-linejoin:round;stroke:rgb(69.01961%,69.01961%,69.01961%);stroke-opacity:1;stroke-miterlimit:4;" d="M 58.523437 52.634766 L 253.822266 52.634766 " transform="matrix(1.333333,0,0,1.333333,0,-0.000000000000014211)"/>
</g>
<path style="fill:none;stroke-width:0.8;stroke-linecap:butt;stroke-linejoin:round;stroke:rgb(0%,0%,0%);stroke-opacity:1;stroke-miterlimit:4;" d="M -0.000000000000007105 0.00110626 L -3.500977 0.00110626 " transform="matrix(1.333333,0,0,1.333333,78.03125,70.178212)"/>
<path style=" stroke:none;fill-rule:nonzero;fill:rgb(0%,0%,0%);fill-opacity:1;" d="M 29.25 70.511719 L 37.597656 70.511719 L 37.597656 71.617188 L 29.25 71.617188 Z M 29.25 70.511719 "/>
<path style=" stroke:none;fill-rule:nonzero;fill:rgb(0%,0%,0%);fill-opacity:1;" d="M 43.246094 66.390625 C 42.570312 66.390625 42.0625 66.722656 41.71875 67.390625 C 41.378906 68.054688 41.210938 69.054688 41.210938 70.394531 C 41.210938 71.726562 41.378906 72.726562 41.71875 73.390625 C 42.0625 74.058594 42.570312 74.390625 43.246094 74.390625 C 43.929688 74.390625 44.441406 74.058594 44.78125 73.390625 C 45.121094 72.726562 45.292969 71.726562 45.292969 70.394531 C 45.292969 69.054688 45.121094 68.054688 44.78125 67.390625 C 44.441406 66.722656 43.929688 66.390625 43.246094 66.390625 Z M 43.246094 65.347656 C 44.335938 65.347656 45.167969 65.777344 45.746094 66.640625 C 46.320312 67.503906 46.605469 68.753906 46.605469 70.394531 C 46.605469 72.03125 46.320312 73.277344 45.746094 74.140625 C 45.167969 75.003906 44.335938 75.433594 43.246094 75.433594 C 42.15625 75.433594 41.324219 75.003906 40.75 74.140625 C 40.175781 73.277344 39.886719 72.03125 39.886719 70.394531 C 39.886719 68.753906 40.175781 67.503906 40.75 66.640625 C 41.324219 65.777344 42.15625 65.347656 43.246094 65.347656 Z M 43.246094 65.347656 "/>
<path style=" stroke:none;fill-rule:nonzero;fill:rgb(0%,0%,0%);fill-opacity:1;" d="M 48.917969 73.589844 L 50.292969 73.589844 L 50.292969 75.242188 L 48.917969 75.242188 Z M 48.917969 73.589844 "/>
<path style=" stroke:none;fill-rule:nonzero;fill:rgb(0%,0%,0%);fill-opacity:1;" d="M 52.824219 65.523438 L 59.074219 65.523438 L 59.074219 66.082031 L 55.546875 75.242188 L 54.171875 75.242188 L 57.492188 66.632812 L 52.824219 66.632812 Z M 52.824219 65.523438 "/>
<path style=" stroke:none;fill-rule:nonzero;fill:rgb(0%,0%,0%);fill-opacity:1;" d="M 61.308594 65.523438 L 67.558594 65.523438 L 67.558594 66.082031 L 64.027344 75.242188 L 62.65625 75.242188 L 65.976562 66.632812 L 61.308594 66.632812 Z M 61.308594 65.523438 "/>
<g clip-path="url(#clip11)" clip-rule="nonzero">
<path style="fill:none;stroke-width:0.8;stroke-linecap:square;stroke-linejoin:round;stroke:rgb(69.01961%,69.01961%,69.01961%);stroke-opacity:1;stroke-miterlimit:4;" d="M 58.523437 22.980469 L 253.822266 22.980469 " transform="matrix(1.333333,0,0,1.333333,0,-0.000000000000014211)"/>
</g>
<path style="fill:none;stroke-width:0.8;stroke-linecap:butt;stroke-linejoin:round;stroke:rgb(0%,0%,0%);stroke-opacity:1;stroke-miterlimit:4;" d="M -0.000000000000007105 -0.000865936 L -3.500977 -0.000865936 " transform="matrix(1.333333,0,0,1.333333,78.03125,30.64178)"/>
<path style=" stroke:none;fill-rule:nonzero;fill:rgb(0%,0%,0%);fill-opacity:1;" d="M 29.25 30.972656 L 37.597656 30.972656 L 37.597656 32.082031 L 29.25 32.082031 Z M 29.25 30.972656 "/>
<path style=" stroke:none;fill-rule:nonzero;fill:rgb(0%,0%,0%);fill-opacity:1;" d="M 43.246094 26.851562 C 42.570312 26.851562 42.0625 27.1875 41.71875 27.851562 C 41.378906 28.519531 41.210938 29.519531 41.210938 30.855469 C 41.210938 32.1875 41.378906 33.1875 41.71875 33.855469 C 42.0625 34.523438 42.570312 34.855469 43.246094 34.855469 C 43.929688 34.855469 44.441406 34.523438 44.78125 33.855469 C 45.121094 33.1875 45.292969 32.1875 45.292969 30.855469 C 45.292969 29.519531 45.121094 28.519531 44.78125 27.851562 C 44.441406 27.1875 43.929688 26.851562 43.246094 26.851562 Z M 43.246094 25.8125 C 44.335938 25.8125 45.167969 26.242188 45.746094 27.105469 C 46.320312 27.964844 46.605469 29.21875 46.605469 30.855469 C 46.605469 32.492188 46.320312 33.742188 45.746094 34.605469 C 45.167969 35.464844 44.335938 35.898438 43.246094 35.898438 C 42.15625 35.898438 41.324219 35.464844 40.75 34.605469 C 40.175781 33.742188 39.886719 32.492188 39.886719 30.855469 C 39.886719 29.21875 40.175781 27.964844 40.75 27.105469 C 41.324219 26.242188 42.15625 25.8125 43.246094 25.8125 Z M 43.246094 25.8125 "/>
<path style=" stroke:none;fill-rule:nonzero;fill:rgb(0%,0%,0%);fill-opacity:1;" d="M 48.917969 34.054688 L 50.292969 34.054688 L 50.292969 35.707031 L 48.917969 35.707031 Z M 48.917969 34.054688 "/>
<path style=" stroke:none;fill-rule:nonzero;fill:rgb(0%,0%,0%);fill-opacity:1;" d="M 52.824219 25.988281 L 59.074219 25.988281 L 59.074219 26.546875 L 55.546875 35.707031 L 54.171875 35.707031 L 57.492188 27.09375 L 52.824219 27.09375 Z M 52.824219 25.988281 "/>
<path style=" stroke:none;fill-rule:nonzero;fill:rgb(0%,0%,0%);fill-opacity:1;" d="M 64.617188 30.324219 C 64.027344 30.324219 63.558594 30.527344 63.210938 30.929688 C 62.867188 31.332031 62.695312 31.886719 62.695312 32.589844 C 62.695312 33.289062 62.867188 33.839844 63.210938 34.246094 C 63.558594 34.652344 64.027344 34.855469 64.617188 34.855469 C 65.207031 34.855469 65.671875 34.652344 66.019531 34.246094 C 66.363281 33.839844 66.535156 33.289062 66.535156 32.589844 C 66.535156 31.886719 66.363281 31.332031 66.019531 30.929688 C 65.671875 30.527344 65.207031 30.324219 64.617188 30.324219 Z M 67.226562 26.199219 L 67.226562 27.398438 C 66.894531 27.242188 66.5625 27.125 66.226562 27.042969 C 65.890625 26.960938 65.558594 26.917969 65.226562 26.917969 C 64.359375 26.917969 63.695312 27.210938 63.238281 27.796875 C 62.78125 28.382812 62.519531 29.269531 62.453125 30.453125 C 62.707031 30.074219 63.03125 29.785156 63.414062 29.585938 C 63.804688 29.382812 64.230469 29.28125 64.691406 29.28125 C 65.667969 29.28125 66.441406 29.578125 67.007812 30.171875 C 67.574219 30.761719 67.859375 31.570312 67.859375 32.589844 C 67.859375 33.585938 67.5625 34.386719 66.972656 34.992188 C 66.382812 35.59375 65.597656 35.898438 64.617188 35.898438 C 63.492188 35.898438 62.632812 35.464844 62.035156 34.605469 C 61.441406 33.742188 61.144531 32.492188 61.144531 30.855469 C 61.144531 29.320312 61.507812 28.097656 62.238281 27.183594 C 62.96875 26.269531 63.945312 25.8125 65.175781 25.8125 C 65.503906 25.8125 65.839844 25.84375 66.175781 25.910156 C 66.511719 25.976562 66.859375 26.070312 67.226562 26.199219 Z M 67.226562 26.199219 "/>
<path style=" stroke:none;fill-rule:nonzero;fill:rgb(0%,0%,0%);fill-opacity:1;" d="M 9.601562 108.546875 L 10.597656 108.546875 L 10.597656 109.691406 C 10.597656 110.121094 10.683594 110.421875 10.859375 110.589844 C 11.03125 110.753906 11.34375 110.839844 11.796875 110.839844 L 12.441406 110.839844 L 12.441406 108.867188 L 13.371094 108.867188 L 13.371094 110.839844 L 19.730469 110.839844 L 19.730469 112.042969 L 13.371094 112.042969 L 13.371094 113.1875 L 12.441406 113.1875 L 12.441406 112.042969 L 11.929688 112.042969 C 11.121094 112.042969 10.527344 111.855469 10.160156 111.476562 C 9.785156 111.097656 9.601562 110.5 9.601562 109.679688 Z M 9.601562 108.546875 "/>
<path style=" stroke:none;fill-rule:nonzero;fill:rgb(0%,0%,0%);fill-opacity:1;" d="M 9.613281 104.667969 C 10.613281 105.246094 11.597656 105.679688 12.578125 105.964844 C 13.554688 106.246094 14.542969 106.386719 15.546875 106.386719 C 16.546875 106.386719 17.539062 106.242188 18.523438 105.960938 C 19.507812 105.675781 20.496094 105.242188 21.488281 104.667969 L 21.488281 105.710938 C 20.46875 106.359375 19.464844 106.847656 18.480469 107.167969 C 17.496094 107.492188 16.519531 107.65625 15.546875 107.65625 C 14.578125 107.65625 13.601562 107.496094 12.621094 107.171875 C 11.640625 106.851562 10.636719 106.363281 9.613281 105.710938 Z M 9.613281 104.667969 "/>
<path style=" stroke:none;fill-rule:nonzero;fill:rgb(0%,0%,0%);fill-opacity:1;" d="M 12.441406 96.28125 L 15.988281 98.917969 L 19.730469 96.144531 L 19.730469 97.558594 L 16.867188 99.679688 L 19.730469 101.800781 L 19.730469 103.214844 L 15.917969 100.382812 L 12.441406 102.972656 L 12.441406 101.5625 L 15.039062 99.628906 L 12.441406 97.695312 Z M 12.441406 96.28125 "/>
<path style=" stroke:none;fill-rule:nonzero;fill:rgb(0%,0%,0%);fill-opacity:1;" d="M 9.613281 94.640625 L 9.613281 93.597656 C 10.636719 92.949219 11.640625 92.460938 12.621094 92.136719 C 13.601562 91.8125 14.578125 91.652344 15.546875 91.652344 C 16.519531 91.652344 17.496094 91.8125 18.480469 92.136719 C 19.464844 92.460938 20.46875 92.949219 21.488281 93.597656 L 21.488281 94.640625 C 20.496094 94.0625 19.507812 93.632812 18.523438 93.347656 C 17.539062 93.0625 16.546875 92.921875 15.546875 92.921875 C 14.542969 92.921875 13.554688 93.0625 12.578125 93.347656 C 11.597656 93.632812 10.613281 94.0625 9.613281 94.640625 Z M 9.613281 94.640625 "/>
<path style="fill:none;stroke-width:1.5;stroke-linecap:square;stroke-linejoin:round;stroke:rgb(12.156863%,46.666667%,70.588237%);stroke-opacity:1;stroke-miterlimit:4;" d="M 67.400391 13.5 L 69.193359 14.80957 L 70.989258 16.125 L 72.779297 17.43457 L 74.575195 18.744141 L 76.368164 20.053711 L 78.164062 21.363281 L 79.954102 22.669922 L 81.74707 23.976563 L 83.537109 25.280273 L 85.333008 26.586914 L 87.125977 27.890625 L 88.921875 29.197266 L 90.711914 30.498047 L 92.507812 31.801758 L 96.09375 34.40332 L 97.886719 35.701172 L 99.682617 37.001953 L 101.472656 38.299805 L 103.268555 39.597656 L 105.061523 40.895508 L 106.857422 42.193359 L 108.647461 43.485352 L 110.44043 44.780273 L 112.230469 46.072266 L 114.026367 47.364258 L 115.819336 48.65625 L 117.615234 49.948242 L 119.405273 51.237305 L 121.201172 52.529297 L 122.994141 53.818359 L 124.790039 55.107422 L 126.580078 56.393555 L 128.375977 57.679688 L 130.168945 58.962891 L 131.964844 60.251953 L 133.754883 61.532227 L 135.550781 62.818359 L 137.34375 64.098633 L 139.133789 65.378906 L 140.926758 66.65918 L 142.722656 67.939453 L 144.512695 69.216797 L 146.308594 70.49707 L 148.101562 71.774414 L 149.897461 73.051758 L 151.6875 74.326172 L 153.483398 75.603516 L 155.276367 76.875 L 157.072266 78.149414 L 158.862305 79.420898 L 160.658203 80.695312 L 162.451172 81.963867 L 164.24707 83.235352 L 166.037109 84.503906 L 167.830078 85.769531 L 169.620117 87.035156 L 171.416016 88.303711 L 173.208984 89.569336 L 175.004883 90.834961 L 176.794922 92.097656 L 178.59082 93.363281 L 180.383789 94.623047 L 182.179687 95.888672 L 183.969727 97.145508 L 185.765625 98.408203 L 187.558594 99.665039 L 189.354492 100.924805 L 191.144531 102.181641 L 192.94043 103.438477 L 194.733398 104.695312 L 196.523437 105.946289 L 198.316406 107.200195 L 200.112305 108.454102 L 201.902344 109.705078 L 203.698242 110.958984 L 205.488281 112.209961 L 207.28418 113.460938 L 209.077148 114.706055 L 210.867187 115.954102 L 212.660156 117.199219 L 214.456055 118.447266 L 216.246094 119.692383 L 218.041992 120.9375 L 219.834961 122.179688 L 221.630859 123.424805 L 223.420898 124.664062 L 225.216797 125.90625 L 227.009766 127.145508 L 228.805664 128.387695 L 230.595703 129.624023 L 232.391602 130.863281 L 234.18457 132.099609 L 235.980469 133.335937 L 237.770508 134.569336 L 239.563477 135.802734 L 241.359375 137.036133 L 243.149414 138.266602 L 244.945312 139.5 " transform="matrix(1.333333,0,0,1.333333,0,-0.000000000000014211)"/>
<path style="fill:none;stroke-width:0.8;stroke-linecap:square;stroke-linejoin:miter;stroke:rgb(0%,0%,0%);stroke-opacity:1;stroke-miterlimit:4;" d="M 58.523437 145.798828 L 58.523437 7.201172 " transform="matrix(1.333333,0,0,1.333333,0,-0.000000000000014211)"/>
<path style="fill:none;stroke-width:0.8;stroke-linecap:square;stroke-linejoin:miter;stroke:rgb(0%,0%,0%);stroke-opacity:1;stroke-miterlimit:4;" d="M 253.822266 145.798828 L 253.822266 7.201172 " transform="matrix(1.333333,0,0,1.333333,0,-0.000000000000014211)"/>
<path style="fill:none;stroke-width:0.8;stroke-linecap:square;stroke-linejoin:miter;stroke:rgb(0%,0%,0%);stroke-opacity:1;stroke-miterlimit:4;" d="M 58.523437 145.798828 L 253.822266 145.798828 " transform="matrix(1.333333,0,0,1.333333,0,-0.000000000000014211)"/>
<path style="fill:none;stroke-width:0.8;stroke-linecap:square;stroke-linejoin:miter;stroke:rgb(0%,0%,0%);stroke-opacity:1;stroke-miterlimit:4;" d="M 58.523437 7.201172 L 253.822266 7.201172 " transform="matrix(1.333333,0,0,1.333333,0,-0.000000000000014211)"/>
</g>
</svg>
