<?xml version="1.0" encoding="UTF-8"?>
<svg xmlns="http://www.w3.org/2000/svg" xmlns:xlink="http://www.w3.org/1999/xlink" width="353.824992" height="244.474996" viewBox="0 0 353.824992 244.474996" version="1.1">
<defs>
<clipPath id="clip1">
  <path d="M 94 9.601562 L 97 9.601562 L 97 194.398438 L 94 194.398438 Z M 94 9.601562 "/>
</clipPath>
<clipPath id="clip2">
  <path d="M 142 9.601562 L 144 9.601562 L 144 194.398438 L 142 194.398438 Z M 142 9.601562 "/>
</clipPath>
<clipPath id="clip3">
  <path d="M 189 9.601562 L 192 9.601562 L 192 194.398438 L 189 194.398438 Z M 189 9.601562 "/>
</clipPath>
<clipPath id="clip4">
  <path d="M 237 9.601562 L 239 9.601562 L 239 194.398438 L 237 194.398438 Z M 237 9.601562 "/>
</clipPath>
<clipPath id="clip5">
  <path d="M 284 9.601562 L 286 9.601562 L 286 194.398438 L 284 194.398438 Z M 284 9.601562 "/>
</clipPath>
<clipPath id="clip6">
  <path d="M 331 9.601562 L 334 9.601562 L 334 194.398438 L 331 194.398438 Z M 331 9.601562 "/>
</clipPath>
<clipPath id="clip7">
  <path d="M 83.824219 185 L 344.226562 185 L 344.226562 187 L 83.824219 187 Z M 83.824219 185 "/>
</clipPath>
<clipPath id="clip8">
  <path d="M 83.824219 133 L 344.226562 133 L 344.226562 136 L 83.824219 136 Z M 83.824219 133 "/>
</clipPath>
<clipPath id="clip9">
  <path d="M 83.824219 82 L 344.226562 82 L 344.226562 85 L 83.824219 85 Z M 83.824219 82 "/>
</clipPath>
<clipPath id="clip10">
  <path d="M 83.824219 31 L 344.226562 31 L 344.226562 33 L 83.824219 33 Z M 83.824219 31 "/>
</clipPath>
</defs>
<g id="surface1">
<path style=" stroke:none;fill-rule:nonzero;fill:rgb(100%,100%,100%);fill-opacity:1;" d="M 0 244.476562 L 353.824219 244.476562 L 353.824219 0 L 0 0 Z M 0 244.476562 "/>
<path style=" stroke:none;fill-rule:nonzero;fill:rgb(100%,100%,100%);fill-opacity:1;" d="M 83.824219 194.398438 L 344.226562 194.398438 L 344.226562 9.601562 L 83.824219 9.601562 Z M 83.824219 194.398438 "/>
<g clip-path="url(#clip1)" clip-rule="nonzero">
<path style="fill:none;stroke-width:0.8;stroke-linecap:square;stroke-linejoin:round;stroke:rgb(69.01961%,69.01961%,69.01961%);stroke-opacity:1;stroke-miterlimit:4;" d="M 71.745117 145.798828 L 71.745117 7.201172 " transform="matrix(1.333333,0,0,1.333333,0,-0.000000000000014211)"/>
</g>
<path style="fill:none;stroke-width:0.8;stroke-linecap:butt;stroke-linejoin:round;stroke:rgb(0%,0%,0%);stroke-opacity:1;stroke-miterlimit:4;" d="M -0.000907898 -0.00117493 L -0.000907898 3.499802 " transform="matrix(1.333333,0,0,1.333333,95.661367,194.400004)"/>
<path style=" stroke:none;fill-rule:nonzero;fill:rgb(0%,0%,0%);fill-opacity:1;" d="M 89.296875 205.011719 C 88.621094 205.011719 88.113281 205.34375 87.769531 206.011719 C 87.429688 206.675781 87.257812 207.675781 87.257812 209.015625 C 87.257812 210.347656 87.429688 211.347656 87.769531 212.011719 C 88.113281 212.679688 88.621094 213.011719 89.296875 213.011719 C 89.980469 213.011719 90.488281 212.679688 90.832031 212.011719 C 91.171875 211.347656 91.34375 210.347656 91.34375 209.015625 C 91.34375 207.675781 91.171875 206.675781 90.832031 206.011719 C 90.488281 205.34375 89.980469 205.011719 89.296875 205.011719 Z M 89.296875 203.96875 C 90.386719 203.96875 91.21875 204.398438 91.792969 205.261719 C 92.371094 206.125 92.65625 207.375 92.65625 209.015625 C 92.65625 210.652344 92.371094 211.898438 91.792969 212.761719 C 91.21875 213.625 90.386719 214.054688 89.296875 214.054688 C 88.207031 214.054688 87.375 213.625 86.800781 212.761719 C 86.226562 211.898438 85.9375 210.652344 85.9375 209.015625 C 85.9375 207.375 86.226562 206.125 86.800781 205.261719 C 87.375 204.398438 88.207031 203.96875 89.296875 203.96875 Z M 89.296875 203.96875 "/>
<path style=" stroke:none;fill-rule:nonzero;fill:rgb(0%,0%,0%);fill-opacity:1;" d="M 94.96875 212.210938 L 96.34375 212.210938 L 96.34375 213.863281 L 94.96875 213.863281 Z M 94.96875 212.210938 "/>
<path style=" stroke:none;fill-rule:nonzero;fill:rgb(0%,0%,0%);fill-opacity:1;" d="M 102.019531 205.011719 C 101.339844 205.011719 100.832031 205.34375 100.492188 206.011719 C 100.152344 206.675781 99.980469 207.675781 99.980469 209.015625 C 99.980469 210.347656 100.152344 211.347656 100.492188 212.011719 C 100.832031 212.679688 101.339844 213.011719 102.019531 213.011719 C 102.699219 213.011719 103.210938 212.679688 103.550781 212.011719 C 103.894531 211.347656 104.0625 210.347656 104.0625 209.015625 C 104.0625 207.675781 103.894531 206.675781 103.550781 206.011719 C 103.210938 205.34375 102.699219 205.011719 102.019531 205.011719 Z M 102.019531 203.96875 C 103.109375 203.96875 103.941406 204.398438 104.515625 205.261719 C 105.089844 206.125 105.378906 207.375 105.378906 209.015625 C 105.378906 210.652344 105.089844 211.898438 104.515625 212.761719 C 103.941406 213.625 103.109375 214.054688 102.019531 214.054688 C 100.929688 214.054688 100.097656 213.625 99.523438 212.761719 C 98.949219 211.898438 98.660156 210.652344 98.660156 209.015625 C 98.660156 207.375 98.949219 206.125 99.523438 205.261719 C 100.097656 204.398438 100.929688 203.96875 102.019531 203.96875 Z M 102.019531 203.96875 "/>
<g clip-path="url(#clip2)" clip-rule="nonzero">
<path style="fill:none;stroke-width:0.8;stroke-linecap:square;stroke-linejoin:round;stroke:rgb(69.01961%,69.01961%,69.01961%);stroke-opacity:1;stroke-miterlimit:4;" d="M 107.291016 145.798828 L 107.291016 7.201172 " transform="matrix(1.333333,0,0,1.333333,0,-0.000000000000014211)"/>
</g>
<path style="fill:none;stroke-width:0.8;stroke-linecap:butt;stroke-linejoin:round;stroke:rgb(0%,0%,0%);stroke-opacity:1;stroke-miterlimit:4;" d="M 0.000358582 -0.00117493 L 0.000358582 3.499802 " transform="matrix(1.333333,0,0,1.333333,143.054209,194.400004)"/>
<path style=" stroke:none;fill-rule:nonzero;fill:rgb(0%,0%,0%);fill-opacity:1;" d="M 136.691406 205.011719 C 136.011719 205.011719 135.503906 205.34375 135.164062 206.011719 C 134.824219 206.675781 134.652344 207.675781 134.652344 209.015625 C 134.652344 210.347656 134.824219 211.347656 135.164062 212.011719 C 135.503906 212.679688 136.011719 213.011719 136.691406 213.011719 C 137.371094 213.011719 137.882812 212.679688 138.222656 212.011719 C 138.566406 211.347656 138.734375 210.347656 138.734375 209.015625 C 138.734375 207.675781 138.566406 206.675781 138.222656 206.011719 C 137.882812 205.34375 137.371094 205.011719 136.691406 205.011719 Z M 136.691406 203.96875 C 137.78125 203.96875 138.613281 204.398438 139.1875 205.261719 C 139.761719 206.125 140.050781 207.375 140.050781 209.015625 C 140.050781 210.652344 139.761719 211.898438 139.1875 212.761719 C 138.613281 213.625 137.78125 214.054688 136.691406 214.054688 C 135.601562 214.054688 134.769531 213.625 134.195312 212.761719 C 133.617188 211.898438 133.332031 210.652344 133.332031 209.015625 C 133.332031 207.375 133.617188 206.125 134.195312 205.261719 C 134.769531 204.398438 135.601562 203.96875 136.691406 203.96875 Z M 136.691406 203.96875 "/>
<path style=" stroke:none;fill-rule:nonzero;fill:rgb(0%,0%,0%);fill-opacity:1;" d="M 142.359375 212.210938 L 143.734375 212.210938 L 143.734375 213.863281 L 142.359375 213.863281 Z M 142.359375 212.210938 "/>
<path style=" stroke:none;fill-rule:nonzero;fill:rgb(0%,0%,0%);fill-opacity:1;" d="M 147.730469 212.757812 L 152.320312 212.757812 L 152.320312 213.863281 L 146.152344 213.863281 L 146.152344 212.757812 C 146.648438 212.242188 147.328125 211.546875 148.191406 210.679688 C 149.050781 209.808594 149.59375 209.246094 149.816406 208.992188 C 150.234375 208.523438 150.53125 208.121094 150.695312 207.792969 C 150.863281 207.464844 150.949219 207.144531 150.949219 206.828125 C 150.949219 206.308594 150.765625 205.890625 150.40625 205.566406 C 150.042969 205.238281 149.570312 205.074219 148.988281 205.074219 C 148.574219 205.074219 148.140625 205.148438 147.683594 205.289062 C 147.226562 205.433594 146.734375 205.648438 146.214844 205.941406 L 146.214844 204.613281 C 146.746094 204.398438 147.238281 204.238281 147.699219 204.132812 C 148.160156 204.023438 148.582031 203.96875 148.964844 203.96875 C 149.96875 203.96875 150.773438 204.222656 151.371094 204.726562 C 151.96875 205.226562 152.269531 205.898438 152.269531 206.742188 C 152.269531 207.140625 152.195312 207.519531 152.042969 207.878906 C 151.894531 208.234375 151.625 208.65625 151.226562 209.144531 C 151.121094 209.269531 150.773438 209.632812 150.191406 210.234375 C 149.613281 210.835938 148.792969 211.679688 147.730469 212.757812 Z M 147.730469 212.757812 "/>
<g clip-path="url(#clip3)" clip-rule="nonzero">
<path style="fill:none;stroke-width:0.8;stroke-linecap:square;stroke-linejoin:round;stroke:rgb(69.01961%,69.01961%,69.01961%);stroke-opacity:1;stroke-miterlimit:4;" d="M 142.833984 145.798828 L 142.833984 7.201172 " transform="matrix(1.333333,0,0,1.333333,0,-0.000000000000014211)"/>
</g>
<path style="fill:none;stroke-width:0.8;stroke-linecap:butt;stroke-linejoin:round;stroke:rgb(0%,0%,0%);stroke-opacity:1;stroke-miterlimit:4;" d="M -0.00131226 -0.00117493 L -0.00131226 3.499802 " transform="matrix(1.333333,0,0,1.333333,190.447062,194.400004)"/>
<path style=" stroke:none;fill-rule:nonzero;fill:rgb(0%,0%,0%);fill-opacity:1;" d="M 184.082031 205.011719 C 183.40625 205.011719 182.898438 205.34375 182.554688 206.011719 C 182.214844 206.675781 182.046875 207.675781 182.046875 209.015625 C 182.046875 210.347656 182.214844 211.347656 182.554688 212.011719 C 182.898438 212.679688 183.40625 213.011719 184.082031 213.011719 C 184.765625 213.011719 185.277344 212.679688 185.617188 212.011719 C 185.957031 211.347656 186.128906 210.347656 186.128906 209.015625 C 186.128906 207.675781 185.957031 206.675781 185.617188 206.011719 C 185.277344 205.34375 184.765625 205.011719 184.082031 205.011719 Z M 184.082031 203.96875 C 185.171875 203.96875 186.003906 204.398438 186.582031 205.261719 C 187.15625 206.125 187.441406 207.375 187.441406 209.015625 C 187.441406 210.652344 187.15625 211.898438 186.582031 212.761719 C 186.003906 213.625 185.171875 214.054688 184.082031 214.054688 C 182.992188 214.054688 182.160156 213.625 181.585938 212.761719 C 181.011719 211.898438 180.722656 210.652344 180.722656 209.015625 C 180.722656 207.375 181.011719 206.125 181.585938 205.261719 C 182.160156 204.398438 182.992188 203.96875 184.082031 203.96875 Z M 184.082031 203.96875 "/>
<path style=" stroke:none;fill-rule:nonzero;fill:rgb(0%,0%,0%);fill-opacity:1;" d="M 189.753906 212.210938 L 191.128906 212.210938 L 191.128906 213.863281 L 189.753906 213.863281 Z M 189.753906 212.210938 "/>
<path style=" stroke:none;fill-rule:nonzero;fill:rgb(0%,0%,0%);fill-opacity:1;" d="M 197.605469 205.289062 L 194.285156 210.480469 L 197.605469 210.480469 Z M 197.261719 204.144531 L 198.914062 204.144531 L 198.914062 210.480469 L 200.300781 210.480469 L 200.300781 211.574219 L 198.914062 211.574219 L 198.914062 213.863281 L 197.605469 213.863281 L 197.605469 211.574219 L 193.21875 211.574219 L 193.21875 210.304688 Z M 197.261719 204.144531 "/>
<g clip-path="url(#clip4)" clip-rule="nonzero">
<path style="fill:none;stroke-width:0.8;stroke-linecap:square;stroke-linejoin:round;stroke:rgb(69.01961%,69.01961%,69.01961%);stroke-opacity:1;stroke-miterlimit:4;" d="M 178.379883 145.798828 L 178.379883 7.201172 " transform="matrix(1.333333,0,0,1.333333,0,-0.000000000000014211)"/>
</g>
<path style="fill:none;stroke-width:0.8;stroke-linecap:butt;stroke-linejoin:round;stroke:rgb(0%,0%,0%);stroke-opacity:1;stroke-miterlimit:4;" d="M -0.0000457764 -0.00117493 L -0.0000457764 3.499802 " transform="matrix(1.333333,0,0,1.333333,237.839905,194.400004)"/>
<path style=" stroke:none;fill-rule:nonzero;fill:rgb(0%,0%,0%);fill-opacity:1;" d="M 231.476562 205.011719 C 230.800781 205.011719 230.289062 205.34375 229.949219 206.011719 C 229.609375 206.675781 229.4375 207.675781 229.4375 209.015625 C 229.4375 210.347656 229.609375 211.347656 229.949219 212.011719 C 230.289062 212.679688 230.800781 213.011719 231.476562 213.011719 C 232.15625 213.011719 232.667969 212.679688 233.007812 212.011719 C 233.351562 211.347656 233.519531 210.347656 233.519531 209.015625 C 233.519531 207.675781 233.351562 206.675781 233.007812 206.011719 C 232.667969 205.34375 232.15625 205.011719 231.476562 205.011719 Z M 231.476562 203.96875 C 232.566406 203.96875 233.398438 204.398438 233.972656 205.261719 C 234.546875 206.125 234.835938 207.375 234.835938 209.015625 C 234.835938 210.652344 234.546875 211.898438 233.972656 212.761719 C 233.398438 213.625 232.566406 214.054688 231.476562 214.054688 C 230.386719 214.054688 229.554688 213.625 228.980469 212.761719 C 228.40625 211.898438 228.117188 210.652344 228.117188 209.015625 C 228.117188 207.375 228.40625 206.125 228.980469 205.261719 C 229.554688 204.398438 230.386719 203.96875 231.476562 203.96875 Z M 231.476562 203.96875 "/>
<path style=" stroke:none;fill-rule:nonzero;fill:rgb(0%,0%,0%);fill-opacity:1;" d="M 237.144531 212.210938 L 238.519531 212.210938 L 238.519531 213.863281 L 237.144531 213.863281 Z M 237.144531 212.210938 "/>
<path style=" stroke:none;fill-rule:nonzero;fill:rgb(0%,0%,0%);fill-opacity:1;" d="M 244.359375 208.480469 C 243.769531 208.480469 243.304688 208.683594 242.957031 209.085938 C 242.613281 209.492188 242.441406 210.042969 242.441406 210.746094 C 242.441406 211.445312 242.613281 211.996094 242.957031 212.402344 C 243.304688 212.808594 243.769531 213.011719 244.359375 213.011719 C 244.953125 213.011719 245.417969 212.808594 245.761719 212.402344 C 246.109375 211.996094 246.28125 211.445312 246.28125 210.746094 C 246.28125 210.042969 246.109375 209.492188 245.761719 209.085938 C 245.417969 208.683594 244.953125 208.480469 244.359375 208.480469 Z M 246.972656 204.359375 L 246.972656 205.554688 C 246.640625 205.402344 246.308594 205.28125 245.972656 205.199219 C 245.636719 205.117188 245.300781 205.074219 244.972656 205.074219 C 244.105469 205.074219 243.441406 205.367188 242.980469 205.953125 C 242.523438 206.539062 242.265625 207.425781 242.199219 208.609375 C 242.453125 208.234375 242.773438 207.941406 243.160156 207.742188 C 243.546875 207.539062 243.972656 207.441406 244.4375 207.441406 C 245.414062 207.441406 246.1875 207.734375 246.753906 208.328125 C 247.320312 208.921875 247.601562 209.726562 247.601562 210.746094 C 247.601562 211.746094 247.308594 212.546875 246.71875 213.148438 C 246.128906 213.753906 245.34375 214.054688 244.359375 214.054688 C 243.234375 214.054688 242.375 213.625 241.78125 212.761719 C 241.1875 211.898438 240.890625 210.652344 240.890625 209.015625 C 240.890625 207.476562 241.253906 206.253906 241.984375 205.339844 C 242.714844 204.425781 243.691406 203.96875 244.917969 203.96875 C 245.25 203.96875 245.582031 204 245.917969 204.066406 C 246.253906 204.132812 246.605469 204.230469 246.972656 204.359375 Z M 246.972656 204.359375 "/>
<g clip-path="url(#clip5)" clip-rule="nonzero">
<path style="fill:none;stroke-width:0.8;stroke-linecap:square;stroke-linejoin:round;stroke:rgb(69.01961%,69.01961%,69.01961%);stroke-opacity:1;stroke-miterlimit:4;" d="M 213.925781 145.798828 L 213.925781 7.201172 " transform="matrix(1.333333,0,0,1.333333,0,-0.000000000000014211)"/>
</g>
<path style="fill:none;stroke-width:0.8;stroke-linecap:butt;stroke-linejoin:round;stroke:rgb(0%,0%,0%);stroke-opacity:1;stroke-miterlimit:4;" d="M 0.0012207 -0.00117493 L 0.0012207 3.499802 " transform="matrix(1.333333,0,0,1.333333,285.232747,194.400004)"/>
<path style=" stroke:none;fill-rule:nonzero;fill:rgb(0%,0%,0%);fill-opacity:1;" d="M 278.867188 205.011719 C 278.191406 205.011719 277.683594 205.34375 277.339844 206.011719 C 277 206.675781 276.832031 207.675781 276.832031 209.015625 C 276.832031 210.347656 277 211.347656 277.339844 212.011719 C 277.683594 212.679688 278.191406 213.011719 278.867188 213.011719 C 279.550781 213.011719 280.0625 212.679688 280.402344 212.011719 C 280.742188 211.347656 280.914062 210.347656 280.914062 209.015625 C 280.914062 207.675781 280.742188 206.675781 280.402344 206.011719 C 280.0625 205.34375 279.550781 205.011719 278.867188 205.011719 Z M 278.867188 203.96875 C 279.957031 203.96875 280.792969 204.398438 281.367188 205.261719 C 281.941406 206.125 282.230469 207.375 282.230469 209.015625 C 282.230469 210.652344 281.941406 211.898438 281.367188 212.761719 C 280.792969 213.625 279.957031 214.054688 278.867188 214.054688 C 277.777344 214.054688 276.949219 213.625 276.371094 212.761719 C 275.796875 211.898438 275.511719 210.652344 275.511719 209.015625 C 275.511719 207.375 275.796875 206.125 276.371094 205.261719 C 276.949219 204.398438 277.777344 203.96875 278.867188 203.96875 Z M 278.867188 203.96875 "/>
<path style=" stroke:none;fill-rule:nonzero;fill:rgb(0%,0%,0%);fill-opacity:1;" d="M 284.539062 212.210938 L 285.914062 212.210938 L 285.914062 213.863281 L 284.539062 213.863281 Z M 284.539062 212.210938 "/>
<path style=" stroke:none;fill-rule:nonzero;fill:rgb(0%,0%,0%);fill-opacity:1;" d="M 291.589844 209.246094 C 290.964844 209.246094 290.472656 209.414062 290.113281 209.75 C 289.757812 210.085938 289.578125 210.542969 289.578125 211.128906 C 289.578125 211.714844 289.757812 212.175781 290.113281 212.511719 C 290.472656 212.84375 290.964844 213.011719 291.589844 213.011719 C 292.214844 213.011719 292.707031 212.84375 293.066406 212.507812 C 293.425781 212.171875 293.609375 211.710938 293.609375 211.128906 C 293.609375 210.542969 293.429688 210.085938 293.070312 209.75 C 292.714844 209.414062 292.21875 209.246094 291.589844 209.246094 Z M 290.273438 208.691406 C 289.710938 208.550781 289.269531 208.289062 288.957031 207.902344 C 288.640625 207.515625 288.484375 207.042969 288.484375 206.488281 C 288.484375 205.710938 288.761719 205.097656 289.316406 204.644531 C 289.867188 204.195312 290.628906 203.96875 291.589844 203.96875 C 292.558594 203.96875 293.316406 204.195312 293.867188 204.644531 C 294.421875 205.097656 294.695312 205.710938 294.695312 206.488281 C 294.695312 207.042969 294.539062 207.515625 294.222656 207.902344 C 293.910156 208.289062 293.472656 208.550781 292.914062 208.691406 C 293.546875 208.835938 294.039062 209.125 294.390625 209.554688 C 294.746094 209.984375 294.921875 210.507812 294.921875 211.128906 C 294.921875 212.070312 294.636719 212.796875 294.058594 213.300781 C 293.484375 213.804688 292.660156 214.054688 291.589844 214.054688 C 290.519531 214.054688 289.695312 213.804688 289.117188 213.300781 C 288.542969 212.796875 288.257812 212.070312 288.257812 211.128906 C 288.257812 210.507812 288.433594 209.984375 288.789062 209.554688 C 289.144531 209.125 289.640625 208.835938 290.273438 208.691406 Z M 289.792969 206.613281 C 289.792969 207.117188 289.949219 207.507812 290.265625 207.789062 C 290.578125 208.070312 291.019531 208.210938 291.589844 208.210938 C 292.15625 208.210938 292.597656 208.070312 292.914062 207.789062 C 293.234375 207.507812 293.394531 207.117188 293.394531 206.613281 C 293.394531 206.109375 293.234375 205.714844 292.914062 205.433594 C 292.597656 205.152344 292.15625 205.011719 291.589844 205.011719 C 291.019531 205.011719 290.578125 205.152344 290.265625 205.433594 C 289.949219 205.714844 289.792969 206.109375 289.792969 206.613281 Z M 289.792969 206.613281 "/>
<g clip-path="url(#clip6)" clip-rule="nonzero">
<path style="fill:none;stroke-width:0.8;stroke-linecap:square;stroke-linejoin:round;stroke:rgb(69.01961%,69.01961%,69.01961%);stroke-opacity:1;stroke-miterlimit:4;" d="M 249.46875 145.798828 L 249.46875 7.201172 " transform="matrix(1.333333,0,0,1.333333,0,-0.000000000000014211)"/>
</g>
<path style="fill:none;stroke-width:0.8;stroke-linecap:butt;stroke-linejoin:round;stroke:rgb(0%,0%,0%);stroke-opacity:1;stroke-miterlimit:4;" d="M -0.000442505 -0.00117493 L -0.000442505 3.499802 " transform="matrix(1.333333,0,0,1.333333,332.62559,194.400004)"/>
<path style=" stroke:none;fill-rule:nonzero;fill:rgb(0%,0%,0%);fill-opacity:1;" d="M 323.675781 212.757812 L 325.824219 212.757812 L 325.824219 205.339844 L 323.488281 205.808594 L 323.488281 204.613281 L 325.8125 204.144531 L 327.128906 204.144531 L 327.128906 212.757812 L 329.277344 212.757812 L 329.277344 213.863281 L 323.675781 213.863281 Z M 323.675781 212.757812 "/>
<path style=" stroke:none;fill-rule:nonzero;fill:rgb(0%,0%,0%);fill-opacity:1;" d="M 331.929688 212.210938 L 333.304688 212.210938 L 333.304688 213.863281 L 331.929688 213.863281 Z M 331.929688 212.210938 "/>
<path style=" stroke:none;fill-rule:nonzero;fill:rgb(0%,0%,0%);fill-opacity:1;" d="M 338.980469 205.011719 C 338.304688 205.011719 337.796875 205.34375 337.457031 206.011719 C 337.113281 206.675781 336.945312 207.675781 336.945312 209.015625 C 336.945312 210.347656 337.113281 211.347656 337.457031 212.011719 C 337.796875 212.679688 338.304688 213.011719 338.980469 213.011719 C 339.664062 213.011719 340.175781 212.679688 340.515625 212.011719 C 340.855469 211.347656 341.027344 210.347656 341.027344 209.015625 C 341.027344 207.675781 340.855469 206.675781 340.515625 206.011719 C 340.175781 205.34375 339.664062 205.011719 338.980469 205.011719 Z M 338.980469 203.96875 C 340.074219 203.96875 340.90625 204.398438 341.480469 205.261719 C 342.054688 206.125 342.34375 207.375 342.34375 209.015625 C 342.34375 210.652344 342.054688 211.898438 341.480469 212.761719 C 340.90625 213.625 340.074219 214.054688 338.980469 214.054688 C 337.894531 214.054688 337.0625 213.625 336.488281 212.761719 C 335.910156 211.898438 335.625 210.652344 335.625 209.015625 C 335.625 207.375 335.910156 206.125 336.488281 205.261719 C 337.0625 204.398438 337.894531 203.96875 338.980469 203.96875 Z M 338.980469 203.96875 "/>
<path style=" stroke:none;fill-rule:nonzero;fill:rgb(0%,0%,0%);fill-opacity:1;" d="M 198.828125 222.738281 L 198.828125 224.808594 L 201.292969 224.808594 L 201.292969 225.742188 L 198.828125 225.742188 L 198.828125 229.699219 C 198.828125 230.292969 198.910156 230.675781 199.070312 230.847656 C 199.234375 231.015625 199.566406 231.101562 200.066406 231.101562 L 201.292969 231.101562 L 201.292969 232.101562 L 200.066406 232.101562 C 199.140625 232.101562 198.5 231.929688 198.148438 231.585938 C 197.796875 231.238281 197.621094 230.609375 197.621094 229.699219 L 197.621094 225.742188 L 196.742188 225.742188 L 196.742188 224.808594 L 197.621094 224.808594 L 197.621094 222.738281 Z M 198.828125 222.738281 "/>
<path style=" stroke:none;fill-rule:nonzero;fill:rgb(0%,0%,0%);fill-opacity:1;" d="M 208.933594 227.699219 L 208.933594 232.101562 L 207.734375 232.101562 L 207.734375 227.738281 C 207.734375 227.050781 207.597656 226.535156 207.328125 226.191406 C 207.058594 225.847656 206.65625 225.675781 206.121094 225.675781 C 205.472656 225.675781 204.960938 225.882812 204.589844 226.296875 C 204.214844 226.707031 204.027344 227.269531 204.027344 227.980469 L 204.027344 232.101562 L 202.824219 232.101562 L 202.824219 221.972656 L 204.027344 221.972656 L 204.027344 225.945312 C 204.316406 225.503906 204.652344 225.175781 205.039062 224.960938 C 205.429688 224.742188 205.878906 224.636719 206.386719 224.636719 C 207.222656 224.636719 207.855469 224.894531 208.285156 225.414062 C 208.714844 225.929688 208.933594 226.691406 208.933594 227.699219 Z M 208.933594 227.699219 "/>
<path style=" stroke:none;fill-rule:nonzero;fill:rgb(0%,0%,0%);fill-opacity:1;" d="M 217.558594 228.15625 L 217.558594 228.742188 L 212.050781 228.742188 C 212.101562 229.566406 212.351562 230.195312 212.796875 230.628906 C 213.238281 231.058594 213.859375 231.273438 214.652344 231.273438 C 215.113281 231.273438 215.558594 231.21875 215.992188 231.105469 C 216.421875 230.992188 216.851562 230.824219 217.277344 230.597656 L 217.277344 231.730469 C 216.847656 231.914062 216.40625 232.050781 215.957031 232.148438 C 215.503906 232.242188 215.046875 232.292969 214.582031 232.292969 C 213.417969 232.292969 212.496094 231.953125 211.816406 231.277344 C 211.140625 230.597656 210.800781 229.683594 210.800781 228.527344 C 210.800781 227.335938 211.121094 226.386719 211.765625 225.6875 C 212.410156 224.984375 213.28125 224.636719 214.375 224.636719 C 215.355469 224.636719 216.128906 224.953125 216.703125 225.582031 C 217.273438 226.214844 217.558594 227.070312 217.558594 228.15625 Z M 216.359375 227.804688 C 216.351562 227.148438 216.167969 226.628906 215.808594 226.238281 C 215.453125 225.847656 214.976562 225.648438 214.386719 225.648438 C 213.71875 225.648438 213.183594 225.839844 212.78125 226.214844 C 212.382812 226.59375 212.148438 227.125 212.089844 227.8125 Z M 216.359375 227.804688 "/>
<path style=" stroke:none;fill-rule:nonzero;fill:rgb(0%,0%,0%);fill-opacity:1;" d="M 220.707031 222.738281 L 220.707031 224.808594 L 223.175781 224.808594 L 223.175781 225.742188 L 220.707031 225.742188 L 220.707031 229.699219 C 220.707031 230.292969 220.789062 230.675781 220.953125 230.847656 C 221.113281 231.015625 221.445312 231.101562 221.945312 231.101562 L 223.175781 231.101562 L 223.175781 232.101562 L 221.945312 232.101562 C 221.019531 232.101562 220.382812 231.929688 220.03125 231.585938 C 219.679688 231.238281 219.503906 230.609375 219.503906 229.699219 L 219.503906 225.742188 L 218.625 225.742188 L 218.625 224.808594 L 219.503906 224.808594 L 219.503906 222.738281 Z M 220.707031 222.738281 "/>
<path style=" stroke:none;fill-rule:nonzero;fill:rgb(0%,0%,0%);fill-opacity:1;" d="M 228.066406 228.4375 C 227.097656 228.4375 226.425781 228.546875 226.054688 228.769531 C 225.679688 228.988281 225.492188 229.367188 225.492188 229.902344 C 225.492188 230.328125 225.632812 230.664062 225.914062 230.914062 C 226.195312 231.164062 226.574219 231.289062 227.054688 231.289062 C 227.71875 231.289062 228.253906 231.050781 228.65625 230.582031 C 229.054688 230.109375 229.257812 229.484375 229.257812 228.703125 L 229.257812 228.4375 Z M 230.457031 227.941406 L 230.457031 232.101562 L 229.257812 232.101562 L 229.257812 230.996094 C 228.984375 231.4375 228.644531 231.765625 228.234375 231.976562 C 227.824219 232.1875 227.328125 232.292969 226.738281 232.292969 C 225.992188 232.292969 225.398438 232.082031 224.957031 231.664062 C 224.515625 231.242188 224.292969 230.683594 224.292969 229.980469 C 224.292969 229.160156 224.570312 228.542969 225.117188 228.125 C 225.667969 227.707031 226.488281 227.5 227.574219 227.5 L 229.257812 227.5 L 229.257812 227.382812 C 229.257812 226.828125 229.074219 226.402344 228.714844 226.101562 C 228.351562 225.800781 227.84375 225.648438 227.1875 225.648438 C 226.769531 225.648438 226.363281 225.699219 225.96875 225.800781 C 225.574219 225.898438 225.195312 226.050781 224.832031 226.25 L 224.832031 225.140625 C 225.269531 224.972656 225.691406 224.847656 226.105469 224.761719 C 226.519531 224.679688 226.917969 224.636719 227.308594 224.636719 C 228.363281 224.636719 229.152344 224.910156 229.675781 225.457031 C 230.195312 226.003906 230.457031 226.832031 230.457031 227.941406 Z M 230.457031 227.941406 "/>
<g clip-path="url(#clip7)" clip-rule="nonzero">
<path style="fill:none;stroke-width:0.8;stroke-linecap:square;stroke-linejoin:round;stroke:rgb(69.01961%,69.01961%,69.01961%);stroke-opacity:1;stroke-miterlimit:4;" d="M 62.868164 139.5 L 258.169922 139.5 " transform="matrix(1.333333,0,0,1.333333,0,-0.000000000000014211)"/>
</g>
<path style="fill:none;stroke-width:0.8;stroke-linecap:butt;stroke-linejoin:round;stroke:rgb(0%,0%,0%);stroke-opacity:1;stroke-miterlimit:4;" d="M -0.000587463 -0.000000000000028422 L -3.498634 -0.000000000000028422 " transform="matrix(1.333333,0,0,1.333333,83.825002,186)"/>
<path style=" stroke:none;fill-rule:nonzero;fill:rgb(0%,0%,0%);fill-opacity:1;" d="M 32.074219 182.210938 C 31.398438 182.210938 30.890625 182.542969 30.546875 183.210938 C 30.207031 183.875 30.039062 184.878906 30.039062 186.214844 C 30.039062 187.546875 30.207031 188.546875 30.546875 189.214844 C 30.890625 189.878906 31.398438 190.214844 32.074219 190.214844 C 32.757812 190.214844 33.269531 189.878906 33.609375 189.214844 C 33.949219 188.546875 34.121094 187.546875 34.121094 186.214844 C 34.121094 184.878906 33.949219 183.875 33.609375 183.210938 C 33.269531 182.542969 32.757812 182.210938 32.074219 182.210938 Z M 32.074219 181.167969 C 33.164062 181.167969 33.996094 181.601562 34.574219 182.464844 C 35.148438 183.324219 35.433594 184.574219 35.433594 186.214844 C 35.433594 187.851562 35.148438 189.101562 34.574219 189.964844 C 33.996094 190.824219 33.164062 191.253906 32.074219 191.253906 C 30.984375 191.253906 30.152344 190.824219 29.578125 189.964844 C 29.003906 189.101562 28.714844 187.851562 28.714844 186.214844 C 28.714844 184.574219 29.003906 183.324219 29.578125 182.464844 C 30.152344 181.601562 30.984375 181.167969 32.074219 181.167969 Z M 32.074219 181.167969 "/>
<path style=" stroke:none;fill-rule:nonzero;fill:rgb(0%,0%,0%);fill-opacity:1;" d="M 37.746094 189.410156 L 39.121094 189.410156 L 39.121094 191.066406 L 37.746094 191.066406 Z M 37.746094 189.410156 "/>
<path style=" stroke:none;fill-rule:nonzero;fill:rgb(0%,0%,0%);fill-opacity:1;" d="M 44.796875 182.210938 C 44.121094 182.210938 43.609375 182.542969 43.269531 183.210938 C 42.929688 183.875 42.757812 184.878906 42.757812 186.214844 C 42.757812 187.546875 42.929688 188.546875 43.269531 189.214844 C 43.609375 189.878906 44.121094 190.214844 44.796875 190.214844 C 45.476562 190.214844 45.988281 189.878906 46.328125 189.214844 C 46.671875 188.546875 46.84375 187.546875 46.84375 186.214844 C 46.84375 184.878906 46.671875 183.875 46.328125 183.210938 C 45.988281 182.542969 45.476562 182.210938 44.796875 182.210938 Z M 44.796875 181.167969 C 45.886719 181.167969 46.71875 181.601562 47.292969 182.464844 C 47.871094 183.324219 48.15625 184.574219 48.15625 186.214844 C 48.15625 187.851562 47.871094 189.101562 47.292969 189.964844 C 46.71875 190.824219 45.886719 191.253906 44.796875 191.253906 C 43.707031 191.253906 42.875 190.824219 42.300781 189.964844 C 41.726562 189.101562 41.4375 187.851562 41.4375 186.214844 C 41.4375 184.574219 41.726562 183.324219 42.300781 182.464844 C 42.875 181.601562 43.707031 181.167969 44.796875 181.167969 Z M 44.796875 181.167969 "/>
<path style=" stroke:none;fill-rule:nonzero;fill:rgb(0%,0%,0%);fill-opacity:1;" d="M 53.28125 182.210938 C 52.601562 182.210938 52.09375 182.542969 51.753906 183.210938 C 51.410156 183.875 51.242188 184.878906 51.242188 186.214844 C 51.242188 187.546875 51.410156 188.546875 51.753906 189.214844 C 52.09375 189.878906 52.601562 190.214844 53.28125 190.214844 C 53.960938 190.214844 54.472656 189.878906 54.8125 189.214844 C 55.15625 188.546875 55.324219 187.546875 55.324219 186.214844 C 55.324219 184.878906 55.15625 183.875 54.8125 183.210938 C 54.472656 182.542969 53.960938 182.210938 53.28125 182.210938 Z M 53.28125 181.167969 C 54.371094 181.167969 55.203125 181.601562 55.777344 182.464844 C 56.351562 183.324219 56.640625 184.574219 56.640625 186.214844 C 56.640625 187.851562 56.351562 189.101562 55.777344 189.964844 C 55.203125 190.824219 54.371094 191.253906 53.28125 191.253906 C 52.191406 191.253906 51.359375 190.824219 50.785156 189.964844 C 50.207031 189.101562 49.921875 187.851562 49.921875 186.214844 C 49.921875 184.574219 50.207031 183.324219 50.785156 182.464844 C 51.359375 181.601562 52.191406 181.167969 53.28125 181.167969 Z M 53.28125 181.167969 "/>
<path style=" stroke:none;fill-rule:nonzero;fill:rgb(0%,0%,0%);fill-opacity:1;" d="M 61.761719 182.210938 C 61.085938 182.210938 60.578125 182.542969 60.234375 183.210938 C 59.894531 183.875 59.726562 184.878906 59.726562 186.214844 C 59.726562 187.546875 59.894531 188.546875 60.234375 189.214844 C 60.578125 189.878906 61.085938 190.214844 61.761719 190.214844 C 62.445312 190.214844 62.957031 189.878906 63.296875 189.214844 C 63.636719 188.546875 63.808594 187.546875 63.808594 186.214844 C 63.808594 184.878906 63.636719 183.875 63.296875 183.210938 C 62.957031 182.542969 62.445312 182.210938 61.761719 182.210938 Z M 61.761719 181.167969 C 62.851562 181.167969 63.683594 181.601562 64.261719 182.464844 C 64.835938 183.324219 65.121094 184.574219 65.121094 186.214844 C 65.121094 187.851562 64.835938 189.101562 64.261719 189.964844 C 63.683594 190.824219 62.851562 191.253906 61.761719 191.253906 C 60.671875 191.253906 59.839844 190.824219 59.265625 189.964844 C 58.691406 189.101562 58.402344 187.851562 58.402344 186.214844 C 58.402344 184.574219 58.691406 183.324219 59.265625 182.464844 C 59.839844 181.601562 60.671875 181.167969 61.761719 181.167969 Z M 61.761719 181.167969 "/>
<path style=" stroke:none;fill-rule:nonzero;fill:rgb(0%,0%,0%);fill-opacity:1;" d="M 70.246094 182.210938 C 69.570312 182.210938 69.058594 182.542969 68.71875 183.210938 C 68.378906 183.875 68.207031 184.878906 68.207031 186.214844 C 68.207031 187.546875 68.378906 188.546875 68.71875 189.214844 C 69.058594 189.878906 69.570312 190.214844 70.246094 190.214844 C 70.925781 190.214844 71.4375 189.878906 71.777344 189.214844 C 72.121094 188.546875 72.292969 187.546875 72.292969 186.214844 C 72.292969 184.878906 72.121094 183.875 71.777344 183.210938 C 71.4375 182.542969 70.925781 182.210938 70.246094 182.210938 Z M 70.246094 181.167969 C 71.335938 181.167969 72.167969 181.601562 72.742188 182.464844 C 73.320312 183.324219 73.605469 184.574219 73.605469 186.214844 C 73.605469 187.851562 73.320312 189.101562 72.742188 189.964844 C 72.167969 190.824219 71.335938 191.253906 70.246094 191.253906 C 69.15625 191.253906 68.324219 190.824219 67.75 189.964844 C 67.175781 189.101562 66.886719 187.851562 66.886719 186.214844 C 66.886719 184.574219 67.175781 183.324219 67.75 182.464844 C 68.324219 181.601562 69.15625 181.167969 70.246094 181.167969 Z M 70.246094 181.167969 "/>
<g clip-path="url(#clip8)" clip-rule="nonzero">
<path style="fill:none;stroke-width:0.8;stroke-linecap:square;stroke-linejoin:round;stroke:rgb(69.01961%,69.01961%,69.01961%);stroke-opacity:1;stroke-miterlimit:4;" d="M 62.868164 101.021484 L 258.169922 101.021484 " transform="matrix(1.333333,0,0,1.333333,0,-0.000000000000014211)"/>
</g>
<path style="fill:none;stroke-width:0.8;stroke-linecap:butt;stroke-linejoin:round;stroke:rgb(0%,0%,0%);stroke-opacity:1;stroke-miterlimit:4;" d="M -0.000587463 -0.000480652 L -3.498634 -0.000480652 " transform="matrix(1.333333,0,0,1.333333,83.825002,134.695953)"/>
<path style=" stroke:none;fill-rule:nonzero;fill:rgb(0%,0%,0%);fill-opacity:1;" d="M 32.074219 130.90625 C 31.398438 130.90625 30.890625 131.242188 30.546875 131.90625 C 30.207031 132.574219 30.039062 133.574219 30.039062 134.910156 C 30.039062 136.242188 30.207031 137.242188 30.546875 137.910156 C 30.890625 138.574219 31.398438 138.910156 32.074219 138.910156 C 32.757812 138.910156 33.269531 138.574219 33.609375 137.910156 C 33.949219 137.242188 34.121094 136.242188 34.121094 134.910156 C 34.121094 133.574219 33.949219 132.574219 33.609375 131.90625 C 33.269531 131.242188 32.757812 130.90625 32.074219 130.90625 Z M 32.074219 129.867188 C 33.164062 129.867188 33.996094 130.296875 34.574219 131.160156 C 35.148438 132.019531 35.433594 133.269531 35.433594 134.910156 C 35.433594 136.546875 35.148438 137.796875 34.574219 138.660156 C 33.996094 139.519531 33.164062 139.949219 32.074219 139.949219 C 30.984375 139.949219 30.152344 139.519531 29.578125 138.660156 C 29.003906 137.796875 28.714844 136.546875 28.714844 134.910156 C 28.714844 133.269531 29.003906 132.019531 29.578125 131.160156 C 30.152344 130.296875 30.984375 129.867188 32.074219 129.867188 Z M 32.074219 129.867188 "/>
<path style=" stroke:none;fill-rule:nonzero;fill:rgb(0%,0%,0%);fill-opacity:1;" d="M 37.746094 138.105469 L 39.121094 138.105469 L 39.121094 139.761719 L 37.746094 139.761719 Z M 37.746094 138.105469 "/>
<path style=" stroke:none;fill-rule:nonzero;fill:rgb(0%,0%,0%);fill-opacity:1;" d="M 44.796875 130.90625 C 44.121094 130.90625 43.609375 131.242188 43.269531 131.90625 C 42.929688 132.574219 42.757812 133.574219 42.757812 134.910156 C 42.757812 136.242188 42.929688 137.242188 43.269531 137.910156 C 43.609375 138.574219 44.121094 138.910156 44.796875 138.910156 C 45.476562 138.910156 45.988281 138.574219 46.328125 137.910156 C 46.671875 137.242188 46.84375 136.242188 46.84375 134.910156 C 46.84375 133.574219 46.671875 132.574219 46.328125 131.90625 C 45.988281 131.242188 45.476562 130.90625 44.796875 130.90625 Z M 44.796875 129.867188 C 45.886719 129.867188 46.71875 130.296875 47.292969 131.160156 C 47.871094 132.019531 48.15625 133.269531 48.15625 134.910156 C 48.15625 136.546875 47.871094 137.796875 47.292969 138.660156 C 46.71875 139.519531 45.886719 139.949219 44.796875 139.949219 C 43.707031 139.949219 42.875 139.519531 42.300781 138.660156 C 41.726562 137.796875 41.4375 136.546875 41.4375 134.910156 C 41.4375 133.269531 41.726562 132.019531 42.300781 131.160156 C 42.875 130.296875 43.707031 129.867188 44.796875 129.867188 Z M 44.796875 129.867188 "/>
<path style=" stroke:none;fill-rule:nonzero;fill:rgb(0%,0%,0%);fill-opacity:1;" d="M 53.28125 130.90625 C 52.601562 130.90625 52.09375 131.242188 51.753906 131.90625 C 51.410156 132.574219 51.242188 133.574219 51.242188 134.910156 C 51.242188 136.242188 51.410156 137.242188 51.753906 137.910156 C 52.09375 138.574219 52.601562 138.910156 53.28125 138.910156 C 53.960938 138.910156 54.472656 138.574219 54.8125 137.910156 C 55.15625 137.242188 55.324219 136.242188 55.324219 134.910156 C 55.324219 133.574219 55.15625 132.574219 54.8125 131.90625 C 54.472656 131.242188 53.960938 130.90625 53.28125 130.90625 Z M 53.28125 129.867188 C 54.371094 129.867188 55.203125 130.296875 55.777344 131.160156 C 56.351562 132.019531 56.640625 133.269531 56.640625 134.910156 C 56.640625 136.546875 56.351562 137.796875 55.777344 138.660156 C 55.203125 139.519531 54.371094 139.949219 53.28125 139.949219 C 52.191406 139.949219 51.359375 139.519531 50.785156 138.660156 C 50.207031 137.796875 49.921875 136.546875 49.921875 134.910156 C 49.921875 133.269531 50.207031 132.019531 50.785156 131.160156 C 51.359375 130.296875 52.191406 129.867188 53.28125 129.867188 Z M 53.28125 129.867188 "/>
<path style=" stroke:none;fill-rule:nonzero;fill:rgb(0%,0%,0%);fill-opacity:1;" d="M 61.761719 130.90625 C 61.085938 130.90625 60.578125 131.242188 60.234375 131.90625 C 59.894531 132.574219 59.726562 133.574219 59.726562 134.910156 C 59.726562 136.242188 59.894531 137.242188 60.234375 137.910156 C 60.578125 138.574219 61.085938 138.910156 61.761719 138.910156 C 62.445312 138.910156 62.957031 138.574219 63.296875 137.910156 C 63.636719 137.242188 63.808594 136.242188 63.808594 134.910156 C 63.808594 133.574219 63.636719 132.574219 63.296875 131.90625 C 62.957031 131.242188 62.445312 130.90625 61.761719 130.90625 Z M 61.761719 129.867188 C 62.851562 129.867188 63.683594 130.296875 64.261719 131.160156 C 64.835938 132.019531 65.121094 133.269531 65.121094 134.910156 C 65.121094 136.546875 64.835938 137.796875 64.261719 138.660156 C 63.683594 139.519531 62.851562 139.949219 61.761719 139.949219 C 60.671875 139.949219 59.839844 139.519531 59.265625 138.660156 C 58.691406 137.796875 58.402344 136.546875 58.402344 134.910156 C 58.402344 133.269531 58.691406 132.019531 59.265625 131.160156 C 59.839844 130.296875 60.671875 129.867188 61.761719 129.867188 Z M 61.761719 129.867188 "/>
<path style=" stroke:none;fill-rule:nonzero;fill:rgb(0%,0%,0%);fill-opacity:1;" d="M 67.664062 138.65625 L 69.808594 138.65625 L 69.808594 131.238281 L 67.472656 131.707031 L 67.472656 130.507812 L 69.796875 130.039062 L 71.113281 130.039062 L 71.113281 138.65625 L 73.261719 138.65625 L 73.261719 139.761719 L 67.664062 139.761719 Z M 67.664062 138.65625 "/>
<g clip-path="url(#clip9)" clip-rule="nonzero">
<path style="fill:none;stroke-width:0.8;stroke-linecap:square;stroke-linejoin:round;stroke:rgb(69.01961%,69.01961%,69.01961%);stroke-opacity:1;stroke-miterlimit:4;" d="M 62.868164 62.542969 L 258.169922 62.542969 " transform="matrix(1.333333,0,0,1.333333,0,-0.000000000000014211)"/>
</g>
<path style="fill:none;stroke-width:0.8;stroke-linecap:butt;stroke-linejoin:round;stroke:rgb(0%,0%,0%);stroke-opacity:1;stroke-miterlimit:4;" d="M -0.000587463 -0.000965118 L -3.498634 -0.000965118 " transform="matrix(1.333333,0,0,1.333333,83.825002,83.391912)"/>
<path style=" stroke:none;fill-rule:nonzero;fill:rgb(0%,0%,0%);fill-opacity:1;" d="M 32.074219 79.601562 C 31.398438 79.601562 30.890625 79.9375 30.546875 80.601562 C 30.207031 81.269531 30.039062 82.269531 30.039062 83.609375 C 30.039062 84.941406 30.207031 85.9375 30.546875 86.605469 C 30.890625 87.273438 31.398438 87.605469 32.074219 87.605469 C 32.757812 87.605469 33.269531 87.273438 33.609375 86.605469 C 33.949219 85.9375 34.121094 84.941406 34.121094 83.609375 C 34.121094 82.269531 33.949219 81.269531 33.609375 80.601562 C 33.269531 79.9375 32.757812 79.601562 32.074219 79.601562 Z M 32.074219 78.5625 C 33.164062 78.5625 33.996094 78.992188 34.574219 79.855469 C 35.148438 80.714844 35.433594 81.96875 35.433594 83.609375 C 35.433594 85.242188 35.148438 86.492188 34.574219 87.355469 C 33.996094 88.214844 33.164062 88.648438 32.074219 88.648438 C 30.984375 88.648438 30.152344 88.214844 29.578125 87.355469 C 29.003906 86.492188 28.714844 85.242188 28.714844 83.609375 C 28.714844 81.96875 29.003906 80.714844 29.578125 79.855469 C 30.152344 78.992188 30.984375 78.5625 32.074219 78.5625 Z M 32.074219 78.5625 "/>
<path style=" stroke:none;fill-rule:nonzero;fill:rgb(0%,0%,0%);fill-opacity:1;" d="M 37.746094 86.804688 L 39.121094 86.804688 L 39.121094 88.457031 L 37.746094 88.457031 Z M 37.746094 86.804688 "/>
<path style=" stroke:none;fill-rule:nonzero;fill:rgb(0%,0%,0%);fill-opacity:1;" d="M 44.796875 79.601562 C 44.121094 79.601562 43.609375 79.9375 43.269531 80.601562 C 42.929688 81.269531 42.757812 82.269531 42.757812 83.609375 C 42.757812 84.941406 42.929688 85.9375 43.269531 86.605469 C 43.609375 87.273438 44.121094 87.605469 44.796875 87.605469 C 45.476562 87.605469 45.988281 87.273438 46.328125 86.605469 C 46.671875 85.9375 46.84375 84.941406 46.84375 83.609375 C 46.84375 82.269531 46.671875 81.269531 46.328125 80.601562 C 45.988281 79.9375 45.476562 79.601562 44.796875 79.601562 Z M 44.796875 78.5625 C 45.886719 78.5625 46.71875 78.992188 47.292969 79.855469 C 47.871094 80.714844 48.15625 81.96875 48.15625 83.609375 C 48.15625 85.242188 47.871094 86.492188 47.292969 87.355469 C 46.71875 88.214844 45.886719 88.648438 44.796875 88.648438 C 43.707031 88.648438 42.875 88.214844 42.300781 87.355469 C 41.726562 86.492188 41.4375 85.242188 41.4375 83.609375 C 41.4375 81.96875 41.726562 80.714844 42.300781 79.855469 C 42.875 78.992188 43.707031 78.5625 44.796875 78.5625 Z M 44.796875 78.5625 "/>
<path style=" stroke:none;fill-rule:nonzero;fill:rgb(0%,0%,0%);fill-opacity:1;" d="M 53.28125 79.601562 C 52.601562 79.601562 52.09375 79.9375 51.753906 80.601562 C 51.410156 81.269531 51.242188 82.269531 51.242188 83.609375 C 51.242188 84.941406 51.410156 85.9375 51.753906 86.605469 C 52.09375 87.273438 52.601562 87.605469 53.28125 87.605469 C 53.960938 87.605469 54.472656 87.273438 54.8125 86.605469 C 55.15625 85.9375 55.324219 84.941406 55.324219 83.609375 C 55.324219 82.269531 55.15625 81.269531 54.8125 80.601562 C 54.472656 79.9375 53.960938 79.601562 53.28125 79.601562 Z M 53.28125 78.5625 C 54.371094 78.5625 55.203125 78.992188 55.777344 79.855469 C 56.351562 80.714844 56.640625 81.96875 56.640625 83.609375 C 56.640625 85.242188 56.351562 86.492188 55.777344 87.355469 C 55.203125 88.214844 54.371094 88.648438 53.28125 88.648438 C 52.191406 88.648438 51.359375 88.214844 50.785156 87.355469 C 50.207031 86.492188 49.921875 85.242188 49.921875 83.609375 C 49.921875 81.96875 50.207031 80.714844 50.785156 79.855469 C 51.359375 78.992188 52.191406 78.5625 53.28125 78.5625 Z M 53.28125 78.5625 "/>
<path style=" stroke:none;fill-rule:nonzero;fill:rgb(0%,0%,0%);fill-opacity:1;" d="M 61.761719 79.601562 C 61.085938 79.601562 60.578125 79.9375 60.234375 80.601562 C 59.894531 81.269531 59.726562 82.269531 59.726562 83.609375 C 59.726562 84.941406 59.894531 85.9375 60.234375 86.605469 C 60.578125 87.273438 61.085938 87.605469 61.761719 87.605469 C 62.445312 87.605469 62.957031 87.273438 63.296875 86.605469 C 63.636719 85.9375 63.808594 84.941406 63.808594 83.609375 C 63.808594 82.269531 63.636719 81.269531 63.296875 80.601562 C 62.957031 79.9375 62.445312 79.601562 61.761719 79.601562 Z M 61.761719 78.5625 C 62.851562 78.5625 63.683594 78.992188 64.261719 79.855469 C 64.835938 80.714844 65.121094 81.96875 65.121094 83.609375 C 65.121094 85.242188 64.835938 86.492188 64.261719 87.355469 C 63.683594 88.214844 62.851562 88.648438 61.761719 88.648438 C 60.671875 88.648438 59.839844 88.214844 59.265625 87.355469 C 58.691406 86.492188 58.402344 85.242188 58.402344 83.609375 C 58.402344 81.96875 58.691406 80.714844 59.265625 79.855469 C 59.839844 78.992188 60.671875 78.5625 61.761719 78.5625 Z M 61.761719 78.5625 "/>
<path style=" stroke:none;fill-rule:nonzero;fill:rgb(0%,0%,0%);fill-opacity:1;" d="M 68.566406 87.351562 L 73.15625 87.351562 L 73.15625 88.457031 L 66.984375 88.457031 L 66.984375 87.351562 C 67.484375 86.835938 68.164062 86.140625 69.023438 85.273438 C 69.886719 84.402344 70.429688 83.839844 70.648438 83.585938 C 71.070312 83.113281 71.363281 82.714844 71.53125 82.386719 C 71.699219 82.058594 71.78125 81.738281 71.78125 81.421875 C 71.78125 80.902344 71.601562 80.484375 71.238281 80.15625 C 70.875 79.832031 70.40625 79.667969 69.824219 79.667969 C 69.410156 79.667969 68.976562 79.738281 68.515625 79.882812 C 68.058594 80.027344 67.570312 80.242188 67.050781 80.535156 L 67.050781 79.207031 C 67.578125 78.992188 68.074219 78.832031 68.53125 78.722656 C 68.996094 78.617188 69.414062 78.5625 69.796875 78.5625 C 70.804688 78.5625 71.605469 78.8125 72.207031 79.316406 C 72.804688 79.820312 73.105469 80.492188 73.105469 81.335938 C 73.105469 81.734375 73.027344 82.113281 72.878906 82.472656 C 72.730469 82.828125 72.457031 83.25 72.0625 83.738281 C 71.953125 83.863281 71.609375 84.226562 71.027344 84.828125 C 70.445312 85.429688 69.625 86.269531 68.566406 87.351562 Z M 68.566406 87.351562 "/>
<g clip-path="url(#clip10)" clip-rule="nonzero">
<path style="fill:none;stroke-width:0.8;stroke-linecap:square;stroke-linejoin:round;stroke:rgb(69.01961%,69.01961%,69.01961%);stroke-opacity:1;stroke-miterlimit:4;" d="M 62.868164 24.064453 L 258.169922 24.064453 " transform="matrix(1.333333,0,0,1.333333,0,-0.000000000000014211)"/>
</g>
<path style="fill:none;stroke-width:0.8;stroke-linecap:butt;stroke-linejoin:round;stroke:rgb(0%,0%,0%);stroke-opacity:1;stroke-miterlimit:4;" d="M -0.000587463 -0.00144768 L -3.498634 -0.00144768 " transform="matrix(1.333333,0,0,1.333333,83.825002,32.087868)"/>
<path style=" stroke:none;fill-rule:nonzero;fill:rgb(0%,0%,0%);fill-opacity:1;" d="M 32.074219 28.300781 C 31.398438 28.300781 30.890625 28.632812 30.546875 29.300781 C 30.207031 29.964844 30.039062 30.964844 30.039062 32.304688 C 30.039062 33.636719 30.207031 34.632812 30.546875 35.300781 C 30.890625 35.96875 31.398438 36.300781 32.074219 36.300781 C 32.757812 36.300781 33.269531 35.96875 33.609375 35.300781 C 33.949219 34.632812 34.121094 33.636719 34.121094 32.304688 C 34.121094 30.964844 33.949219 29.964844 33.609375 29.300781 C 33.269531 28.632812 32.757812 28.300781 32.074219 28.300781 Z M 32.074219 27.257812 C 33.164062 27.257812 33.996094 27.6875 34.574219 28.550781 C 35.148438 29.414062 35.433594 30.664062 35.433594 32.304688 C 35.433594 33.941406 35.148438 35.1875 34.574219 36.050781 C 33.996094 36.914062 33.164062 37.34375 32.074219 37.34375 C 30.984375 37.34375 30.152344 36.914062 29.578125 36.050781 C 29.003906 35.1875 28.714844 33.941406 28.714844 32.304688 C 28.714844 30.664062 29.003906 29.414062 29.578125 28.550781 C 30.152344 27.6875 30.984375 27.257812 32.074219 27.257812 Z M 32.074219 27.257812 "/>
<path style=" stroke:none;fill-rule:nonzero;fill:rgb(0%,0%,0%);fill-opacity:1;" d="M 37.746094 35.5 L 39.121094 35.5 L 39.121094 37.152344 L 37.746094 37.152344 Z M 37.746094 35.5 "/>
<path style=" stroke:none;fill-rule:nonzero;fill:rgb(0%,0%,0%);fill-opacity:1;" d="M 44.796875 28.300781 C 44.121094 28.300781 43.609375 28.632812 43.269531 29.300781 C 42.929688 29.964844 42.757812 30.964844 42.757812 32.304688 C 42.757812 33.636719 42.929688 34.632812 43.269531 35.300781 C 43.609375 35.96875 44.121094 36.300781 44.796875 36.300781 C 45.476562 36.300781 45.988281 35.96875 46.328125 35.300781 C 46.671875 34.632812 46.84375 33.636719 46.84375 32.304688 C 46.84375 30.964844 46.671875 29.964844 46.328125 29.300781 C 45.988281 28.632812 45.476562 28.300781 44.796875 28.300781 Z M 44.796875 27.257812 C 45.886719 27.257812 46.71875 27.6875 47.292969 28.550781 C 47.871094 29.414062 48.15625 30.664062 48.15625 32.304688 C 48.15625 33.941406 47.871094 35.1875 47.292969 36.050781 C 46.71875 36.914062 45.886719 37.34375 44.796875 37.34375 C 43.707031 37.34375 42.875 36.914062 42.300781 36.050781 C 41.726562 35.1875 41.4375 33.941406 41.4375 32.304688 C 41.4375 30.664062 41.726562 29.414062 42.300781 28.550781 C 42.875 27.6875 43.707031 27.257812 44.796875 27.257812 Z M 44.796875 27.257812 "/>
<path style=" stroke:none;fill-rule:nonzero;fill:rgb(0%,0%,0%);fill-opacity:1;" d="M 53.28125 28.300781 C 52.601562 28.300781 52.09375 28.632812 51.753906 29.300781 C 51.410156 29.964844 51.242188 30.964844 51.242188 32.304688 C 51.242188 33.636719 51.410156 34.632812 51.753906 35.300781 C 52.09375 35.96875 52.601562 36.300781 53.28125 36.300781 C 53.960938 36.300781 54.472656 35.96875 54.8125 35.300781 C 55.15625 34.632812 55.324219 33.636719 55.324219 32.304688 C 55.324219 30.964844 55.15625 29.964844 54.8125 29.300781 C 54.472656 28.632812 53.960938 28.300781 53.28125 28.300781 Z M 53.28125 27.257812 C 54.371094 27.257812 55.203125 27.6875 55.777344 28.550781 C 56.351562 29.414062 56.640625 30.664062 56.640625 32.304688 C 56.640625 33.941406 56.351562 35.1875 55.777344 36.050781 C 55.203125 36.914062 54.371094 37.34375 53.28125 37.34375 C 52.191406 37.34375 51.359375 36.914062 50.785156 36.050781 C 50.207031 35.1875 49.921875 33.941406 49.921875 32.304688 C 49.921875 30.664062 50.207031 29.414062 50.785156 28.550781 C 51.359375 27.6875 52.191406 27.257812 53.28125 27.257812 Z M 53.28125 27.257812 "/>
<path style=" stroke:none;fill-rule:nonzero;fill:rgb(0%,0%,0%);fill-opacity:1;" d="M 61.761719 28.300781 C 61.085938 28.300781 60.578125 28.632812 60.234375 29.300781 C 59.894531 29.964844 59.726562 30.964844 59.726562 32.304688 C 59.726562 33.636719 59.894531 34.632812 60.234375 35.300781 C 60.578125 35.96875 61.085938 36.300781 61.761719 36.300781 C 62.445312 36.300781 62.957031 35.96875 63.296875 35.300781 C 63.636719 34.632812 63.808594 33.636719 63.808594 32.304688 C 63.808594 30.964844 63.636719 29.964844 63.296875 29.300781 C 62.957031 28.632812 62.445312 28.300781 61.761719 28.300781 Z M 61.761719 27.257812 C 62.851562 27.257812 63.683594 27.6875 64.261719 28.550781 C 64.835938 29.414062 65.121094 30.664062 65.121094 32.304688 C 65.121094 33.941406 64.835938 35.1875 64.261719 36.050781 C 63.683594 36.914062 62.851562 37.34375 61.761719 37.34375 C 60.671875 37.34375 59.839844 36.914062 59.265625 36.050781 C 58.691406 35.1875 58.402344 33.941406 58.402344 32.304688 C 58.402344 30.664062 58.691406 29.414062 59.265625 28.550781 C 59.839844 27.6875 60.671875 27.257812 61.761719 27.257812 Z M 61.761719 27.257812 "/>
<path style=" stroke:none;fill-rule:nonzero;fill:rgb(0%,0%,0%);fill-opacity:1;" d="M 71.417969 31.910156 C 72.046875 32.046875 72.539062 32.328125 72.890625 32.753906 C 73.246094 33.179688 73.421875 33.703125 73.421875 34.328125 C 73.421875 35.285156 73.09375 36.027344 72.433594 36.554688 C 71.773438 37.082031 70.835938 37.34375 69.621094 37.34375 C 69.214844 37.34375 68.792969 37.304688 68.363281 37.222656 C 67.929688 37.140625 67.484375 37.019531 67.023438 36.859375 L 67.023438 35.589844 C 67.386719 35.804688 67.789062 35.964844 68.21875 36.070312 C 68.65625 36.179688 69.109375 36.234375 69.582031 36.234375 C 70.40625 36.234375 71.035156 36.070312 71.464844 35.746094 C 71.898438 35.421875 72.113281 34.949219 72.113281 34.328125 C 72.113281 33.753906 71.914062 33.308594 71.511719 32.984375 C 71.109375 32.660156 70.550781 32.5 69.835938 32.5 L 68.703125 32.5 L 68.703125 31.417969 L 69.890625 31.417969 C 70.535156 31.417969 71.03125 31.289062 71.371094 31.03125 C 71.714844 30.773438 71.886719 30.398438 71.886719 29.914062 C 71.886719 29.414062 71.710938 29.03125 71.355469 28.765625 C 71.003906 28.496094 70.496094 28.363281 69.835938 28.363281 C 69.476562 28.363281 69.089844 28.402344 68.675781 28.484375 C 68.265625 28.558594 67.8125 28.679688 67.316406 28.84375 L 67.316406 27.675781 C 67.816406 27.535156 68.285156 27.429688 68.71875 27.363281 C 69.15625 27.292969 69.566406 27.257812 69.953125 27.257812 C 70.953125 27.257812 71.742188 27.484375 72.324219 27.9375 C 72.90625 28.390625 73.195312 29.003906 73.195312 29.777344 C 73.195312 30.316406 73.042969 30.769531 72.734375 31.140625 C 72.425781 31.511719 71.988281 31.769531 71.417969 31.910156 Z M 71.417969 31.910156 "/>
<path style=" stroke:none;fill-rule:nonzero;fill:rgb(0%,0%,0%);fill-opacity:1;" d="M 9.601562 132.488281 L 9.601562 131.289062 L 19.730469 131.289062 L 19.730469 132.488281 Z M 9.601562 132.488281 "/>
<path style=" stroke:none;fill-rule:nonzero;fill:rgb(0%,0%,0%);fill-opacity:1;" d="M 12.441406 128.785156 L 12.441406 127.585938 L 19.730469 127.585938 L 19.730469 128.785156 Z M 9.601562 128.785156 L 9.601562 127.585938 L 11.117188 127.585938 L 11.117188 128.785156 Z M 9.601562 128.785156 "/>
<path style=" stroke:none;fill-rule:nonzero;fill:rgb(0%,0%,0%);fill-opacity:1;" d="M 9.601562 125.125 L 9.601562 123.921875 L 15.582031 123.921875 L 12.441406 120.347656 L 12.441406 118.816406 L 15.851562 122.683594 L 19.730469 118.652344 L 19.730469 120.214844 L 16.171875 123.921875 L 19.730469 123.921875 L 19.730469 125.125 Z M 9.601562 125.125 "/>
<path style=" stroke:none;fill-rule:nonzero;fill:rgb(0%,0%,0%);fill-opacity:1;" d="M 15.785156 111.605469 L 16.371094 111.605469 L 16.371094 117.113281 C 17.195312 117.058594 17.824219 116.8125 18.257812 116.367188 C 18.6875 115.921875 18.902344 115.304688 18.902344 114.507812 C 18.902344 114.046875 18.847656 113.601562 18.734375 113.171875 C 18.621094 112.738281 18.453125 112.308594 18.226562 111.882812 L 19.359375 111.882812 C 19.542969 112.3125 19.679688 112.753906 19.777344 113.207031 C 19.871094 113.65625 19.921875 114.117188 19.921875 114.578125 C 19.921875 115.742188 19.582031 116.664062 18.90625 117.34375 C 18.226562 118.023438 17.3125 118.363281 16.15625 118.363281 C 14.964844 118.363281 14.015625 118.039062 13.316406 117.394531 C 12.617188 116.75 12.265625 115.882812 12.265625 114.789062 C 12.265625 113.808594 12.582031 113.03125 13.210938 112.460938 C 13.84375 111.890625 14.699219 111.605469 15.785156 111.605469 Z M 15.433594 112.800781 C 14.777344 112.808594 14.257812 112.992188 13.867188 113.351562 C 13.476562 113.710938 13.277344 114.183594 13.277344 114.773438 C 13.277344 115.441406 13.46875 115.976562 13.847656 116.378906 C 14.222656 116.78125 14.753906 117.011719 15.441406 117.074219 Z M 15.433594 112.800781 "/>
<path style=" stroke:none;fill-rule:nonzero;fill:rgb(0%,0%,0%);fill-opacity:1;" d="M 9.601562 109.636719 L 9.601562 108.441406 L 19.730469 108.441406 L 19.730469 109.636719 Z M 9.601562 109.636719 "/>
<path style=" stroke:none;fill-rule:nonzero;fill:rgb(0%,0%,0%);fill-opacity:1;" d="M 12.441406 105.933594 L 12.441406 104.734375 L 19.730469 104.734375 L 19.730469 105.933594 Z M 9.601562 105.933594 L 9.601562 104.734375 L 11.117188 104.734375 L 11.117188 105.933594 Z M 9.601562 105.933594 "/>
<path style=" stroke:none;fill-rule:nonzero;fill:rgb(0%,0%,0%);fill-opacity:1;" d="M 15.328125 96.167969 L 19.730469 96.167969 L 19.730469 97.363281 L 15.367188 97.363281 C 14.679688 97.363281 14.164062 97.5 13.820312 97.769531 C 13.476562 98.039062 13.304688 98.441406 13.304688 98.980469 C 13.304688 99.625 13.511719 100.136719 13.925781 100.511719 C 14.335938 100.882812 14.898438 101.070312 15.609375 101.070312 L 19.730469 101.070312 L 19.730469 102.277344 L 9.601562 102.277344 L 9.601562 101.070312 L 13.574219 101.070312 C 13.132812 100.785156 12.804688 100.445312 12.589844 100.058594 C 12.371094 99.671875 12.265625 99.222656 12.265625 98.714844 C 12.265625 97.875 12.523438 97.242188 13.042969 96.8125 C 13.558594 96.382812 14.320312 96.167969 15.328125 96.167969 Z M 15.328125 96.167969 "/>
<path style=" stroke:none;fill-rule:nonzero;fill:rgb(0%,0%,0%);fill-opacity:1;" d="M 13.277344 90.953125 C 13.277344 91.597656 13.53125 92.101562 14.03125 92.476562 C 14.53125 92.851562 15.21875 93.039062 16.089844 93.039062 C 16.964844 93.039062 17.652344 92.851562 18.152344 92.480469 C 18.652344 92.109375 18.902344 91.601562 18.902344 90.953125 C 18.902344 90.316406 18.652344 89.808594 18.148438 89.4375 C 17.644531 89.0625 16.960938 88.878906 16.089844 88.878906 C 15.226562 88.878906 14.542969 89.0625 14.039062 89.4375 C 13.53125 89.808594 13.277344 90.316406 13.277344 90.953125 Z M 12.265625 90.953125 C 12.265625 89.914062 12.601562 89.09375 13.28125 88.5 C 13.957031 87.902344 14.894531 87.605469 16.089844 87.605469 C 17.285156 87.605469 18.222656 87.902344 18.902344 88.5 C 19.582031 89.09375 19.921875 89.914062 19.921875 90.953125 C 19.921875 92 19.582031 92.820312 18.902344 93.414062 C 18.222656 94.003906 17.285156 94.300781 16.089844 94.300781 C 14.894531 94.300781 13.957031 94.003906 13.28125 93.414062 C 12.601562 92.820312 12.265625 92 12.265625 90.953125 Z M 12.265625 90.953125 "/>
<path style=" stroke:none;fill-rule:nonzero;fill:rgb(0%,0%,0%);fill-opacity:1;" d="M 13.277344 82.796875 C 13.277344 83.4375 13.53125 83.945312 14.03125 84.320312 C 14.53125 84.691406 15.21875 84.878906 16.089844 84.878906 C 16.964844 84.878906 17.652344 84.695312 18.152344 84.324219 C 18.652344 83.953125 18.902344 83.441406 18.902344 82.796875 C 18.902344 82.15625 18.652344 81.652344 18.148438 81.28125 C 17.644531 80.90625 16.960938 80.71875 16.089844 80.71875 C 15.226562 80.71875 14.542969 80.90625 14.039062 81.28125 C 13.53125 81.652344 13.277344 82.15625 13.277344 82.796875 Z M 12.265625 82.796875 C 12.265625 81.753906 12.601562 80.9375 13.28125 80.34375 C 13.957031 79.746094 14.894531 79.449219 16.089844 79.449219 C 17.285156 79.449219 18.222656 79.746094 18.902344 80.34375 C 19.582031 80.9375 19.921875 81.753906 19.921875 82.796875 C 19.921875 83.84375 19.582031 84.660156 18.902344 85.253906 C 18.222656 85.847656 17.285156 86.140625 16.089844 86.140625 C 14.894531 86.140625 13.957031 85.847656 13.28125 85.253906 C 12.601562 84.660156 12.265625 83.84375 12.265625 82.796875 Z M 12.265625 82.796875 "/>
<path style=" stroke:none;fill-rule:nonzero;fill:rgb(0%,0%,0%);fill-opacity:1;" d="M 13.546875 72.667969 L 9.601562 72.667969 L 9.601562 71.46875 L 19.730469 71.46875 L 19.730469 72.667969 L 18.636719 72.667969 C 19.070312 72.917969 19.394531 73.234375 19.605469 73.621094 C 19.816406 74.003906 19.921875 74.464844 19.921875 75.003906 C 19.921875 75.882812 19.570312 76.601562 18.867188 77.15625 C 18.164062 77.707031 17.238281 77.984375 16.089844 77.984375 C 14.945312 77.984375 14.023438 77.707031 13.320312 77.15625 C 12.617188 76.601562 12.265625 75.882812 12.265625 75.003906 C 12.265625 74.464844 12.371094 74.003906 12.582031 73.621094 C 12.789062 73.234375 13.113281 72.917969 13.546875 72.667969 Z M 16.089844 76.746094 C 16.972656 76.746094 17.664062 76.566406 18.164062 76.203125 C 18.664062 75.839844 18.917969 75.34375 18.917969 74.710938 C 18.917969 74.078125 18.664062 73.578125 18.164062 73.214844 C 17.664062 72.847656 16.972656 72.667969 16.089844 72.667969 C 15.210938 72.667969 14.519531 72.847656 14.019531 73.214844 C 13.515625 73.578125 13.265625 74.078125 13.265625 74.710938 C 13.265625 75.34375 13.515625 75.839844 14.019531 76.203125 C 14.519531 76.566406 15.210938 76.746094 16.089844 76.746094 Z M 16.089844 76.746094 "/>
<path style="fill:none;stroke-width:1.5;stroke-linecap:square;stroke-linejoin:round;stroke:rgb(12.156863%,46.666667%,70.588237%);stroke-opacity:1;stroke-miterlimit:4;" d="M 71.745117 139.5 L 108.711914 139.388672 L 114.755859 139.139648 L 119.021484 138.755859 L 122.575195 138.219727 L 125.595703 137.545898 L 128.261719 136.731445 L 130.749023 135.744141 L 133.060547 134.595703 L 135.37207 133.186523 L 137.504883 131.62207 L 139.637695 129.779297 L 141.767578 127.625977 L 143.900391 125.141602 L 146.033203 122.302734 L 148.166016 119.085938 L 150.298828 115.482422 L 152.610352 111.125977 L 154.921875 106.303711 L 157.40918 100.599609 L 160.075195 93.928711 L 163.095703 85.743164 L 166.649414 75.433594 L 172.335937 58.119141 L 177.313477 43.250977 L 180.158203 35.402344 L 182.466797 29.607422 L 184.599609 24.855469 L 186.37793 21.424805 L 187.977539 18.796875 L 189.398437 16.869141 L 190.643555 15.518555 L 191.885742 14.499023 L 192.952148 13.901367 L 194.018555 13.570313 L 194.90918 13.50293 L 195.796875 13.625977 L 196.68457 13.945313 L 197.750977 14.589844 L 198.817383 15.521484 L 199.883789 16.743164 L 201.128906 18.533203 L 202.374023 20.709961 L 203.794922 23.663086 L 205.394531 27.5625 L 207.169922 32.566406 L 209.126953 38.821289 L 211.259766 46.432617 L 213.74707 56.147461 L 217.300781 71.033203 L 223.699219 97.96875 L 226.365234 108.120117 L 228.498047 115.40332 L 230.452148 121.286133 L 232.230469 125.900391 L 233.830078 129.427734 L 235.250977 132.058594 L 236.671875 134.220703 L 237.916992 135.75 L 239.162109 136.957031 L 240.404297 137.874023 L 241.649414 138.539062 L 243.070312 139.03418 L 244.669922 139.338867 L 246.802734 139.482422 L 249.290039 139.5 " transform="matrix(1.333333,0,0,1.333333,0,-0.000000000000014211)"/>
<path style="fill:none;stroke-width:0.8;stroke-linecap:square;stroke-linejoin:miter;stroke:rgb(0%,0%,0%);stroke-opacity:1;stroke-miterlimit:4;" d="M 62.868164 145.798828 L 62.868164 7.201172 " transform="matrix(1.333333,0,0,1.333333,0,-0.000000000000014211)"/>
<path style="fill:none;stroke-width:0.8;stroke-linecap:square;stroke-linejoin:miter;stroke:rgb(0%,0%,0%);stroke-opacity:1;stroke-miterlimit:4;" d="M 258.169922 145.798828 L 258.169922 7.201172 " transform="matrix(1.333333,0,0,1.333333,0,-0.000000000000014211)"/>
<path style="fill:none;stroke-width:0.8;stroke-linecap:square;stroke-linejoin:miter;stroke:rgb(0%,0%,0%);stroke-opacity:1;stroke-miterlimit:4;" d="M 62.868164 145.798828 L 258.169922 145.798828 " transform="matrix(1.333333,0,0,1.333333,0,-0.000000000000014211)"/>
<path style="fill:none;stroke-width:0.8;stroke-linecap:square;stroke-linejoin:miter;stroke:rgb(0%,0%,0%);stroke-opacity:1;stroke-miterlimit:4;" d="M 62.868164 7.201172 L 258.169922 7.201172 " transform="matrix(1.333333,0,0,1.333333,0,-0.000000000000014211)"/>
</g>
</svg>
