<?xml version="1.0" encoding="UTF-8"?>
<svg xmlns="http://www.w3.org/2000/svg" xmlns:xlink="http://www.w3.org/1999/xlink" width="328.375" height="244.474996" viewBox="0 0 328.375 244.474996" version="1.1">
<defs>
<clipPath id="clip1">
  <path d="M 69 9.601562 L 71 9.601562 L 71 194.398438 L 69 194.398438 Z M 69 9.601562 "/>
</clipPath>
<clipPath id="clip2">
  <path d="M 128 9.601562 L 131 9.601562 L 131 194.398438 L 128 194.398438 Z M 128 9.601562 "/>
</clipPath>
<clipPath id="clip3">
  <path d="M 187 9.601562 L 190 9.601562 L 190 194.398438 L 187 194.398438 Z M 187 9.601562 "/>
</clipPath>
<clipPath id="clip4">
  <path d="M 247 9.601562 L 249 9.601562 L 249 194.398438 L 247 194.398438 Z M 247 9.601562 "/>
</clipPath>
<clipPath id="clip5">
  <path d="M 306 9.601562 L 308 9.601562 L 308 194.398438 L 306 194.398438 Z M 306 9.601562 "/>
</clipPath>
<clipPath id="clip6">
  <path d="M 58.375 185 L 318.773438 185 L 318.773438 187 L 58.375 187 Z M 58.375 185 "/>
</clipPath>
<clipPath id="clip7">
  <path d="M 58.375 151 L 318.773438 151 L 318.773438 154 L 58.375 154 Z M 58.375 151 "/>
</clipPath>
<clipPath id="clip8">
  <path d="M 58.375 117 L 318.773438 117 L 318.773438 120 L 58.375 120 Z M 58.375 117 "/>
</clipPath>
<clipPath id="clip9">
  <path d="M 58.375 84 L 318.773438 84 L 318.773438 86 L 58.375 86 Z M 58.375 84 "/>
</clipPath>
<clipPath id="clip10">
  <path d="M 58.375 50 L 318.773438 50 L 318.773438 53 L 58.375 53 Z M 58.375 50 "/>
</clipPath>
<clipPath id="clip11">
  <path d="M 58.375 16 L 318.773438 16 L 318.773438 19 L 58.375 19 Z M 58.375 16 "/>
</clipPath>
</defs>
<g id="surface1">
<path style=" stroke:none;fill-rule:nonzero;fill:rgb(100%,100%,100%);fill-opacity:1;" d="M 0 244.476562 L 328.375 244.476562 L 328.375 0 L 0 0 Z M 0 244.476562 "/>
<path style=" stroke:none;fill-rule:nonzero;fill:rgb(100%,100%,100%);fill-opacity:1;" d="M 58.375 194.398438 L 318.773438 194.398438 L 318.773438 9.601562 L 58.375 9.601562 Z M 58.375 194.398438 "/>
<g clip-path="url(#clip1)" clip-rule="nonzero">
<path style="fill:none;stroke-width:0.8;stroke-linecap:square;stroke-linejoin:round;stroke:rgb(69.01961%,69.01961%,69.01961%);stroke-opacity:1;stroke-miterlimit:4;" d="M 52.658203 145.798828 L 52.658203 7.201172 " transform="matrix(1.333333,0,0,1.333333,0,0.000000000000014211)"/>
</g>
<path style="fill:none;stroke-width:0.8;stroke-linecap:butt;stroke-linejoin:round;stroke:rgb(0%,0%,0%);stroke-opacity:1;stroke-miterlimit:4;" d="M -0.000320435 -0.00117493 L -0.000320435 3.499802 " transform="matrix(1.333333,0,0,1.333333,70.211365,194.400004)"/>
<path style=" stroke:none;fill-rule:nonzero;fill:rgb(0%,0%,0%);fill-opacity:1;" d="M 57.554688 209.132812 L 65.898438 209.132812 L 65.898438 210.238281 L 57.554688 210.238281 Z M 57.554688 209.132812 "/>
<path style=" stroke:none;fill-rule:nonzero;fill:rgb(0%,0%,0%);fill-opacity:1;" d="M 69.871094 212.757812 L 74.460938 212.757812 L 74.460938 213.863281 L 68.289062 213.863281 L 68.289062 212.757812 C 68.789062 212.242188 69.46875 211.546875 70.332031 210.679688 C 71.191406 209.808594 71.734375 209.246094 71.957031 208.992188 C 72.375 208.523438 72.667969 208.121094 72.835938 207.792969 C 73.003906 207.464844 73.089844 207.144531 73.089844 206.828125 C 73.089844 206.308594 72.90625 205.890625 72.542969 205.566406 C 72.183594 205.238281 71.710938 205.074219 71.128906 205.074219 C 70.714844 205.074219 70.28125 205.148438 69.820312 205.289062 C 69.363281 205.433594 68.875 205.648438 68.355469 205.941406 L 68.355469 204.613281 C 68.882812 204.398438 69.378906 204.238281 69.839844 204.132812 C 70.300781 204.023438 70.722656 203.96875 71.101562 203.96875 C 72.109375 203.96875 72.914062 204.222656 73.511719 204.726562 C 74.109375 205.226562 74.410156 205.898438 74.410156 206.742188 C 74.410156 207.140625 74.335938 207.519531 74.183594 207.878906 C 74.035156 208.234375 73.761719 208.65625 73.367188 209.144531 C 73.257812 209.269531 72.914062 209.632812 72.332031 210.234375 C 71.75 210.835938 70.929688 211.679688 69.871094 212.757812 Z M 69.871094 212.757812 "/>
<path style=" stroke:none;fill-rule:nonzero;fill:rgb(0%,0%,0%);fill-opacity:1;" d="M 80.035156 205.011719 C 79.359375 205.011719 78.847656 205.34375 78.507812 206.011719 C 78.167969 206.675781 77.996094 207.675781 77.996094 209.015625 C 77.996094 210.347656 78.167969 211.347656 78.507812 212.011719 C 78.847656 212.679688 79.359375 213.011719 80.035156 213.011719 C 80.714844 213.011719 81.226562 212.679688 81.566406 212.011719 C 81.910156 211.347656 82.078125 210.347656 82.078125 209.015625 C 82.078125 207.675781 81.910156 206.675781 81.566406 206.011719 C 81.226562 205.34375 80.714844 205.011719 80.035156 205.011719 Z M 80.035156 203.96875 C 81.125 203.96875 81.957031 204.398438 82.53125 205.261719 C 83.105469 206.125 83.394531 207.375 83.394531 209.015625 C 83.394531 210.652344 83.105469 211.898438 82.53125 212.761719 C 81.957031 213.625 81.125 214.054688 80.035156 214.054688 C 78.945312 214.054688 78.113281 213.625 77.539062 212.761719 C 76.964844 211.898438 76.675781 210.652344 76.675781 209.015625 C 76.675781 207.375 76.964844 206.125 77.539062 205.261719 C 78.113281 204.398438 78.945312 203.96875 80.035156 203.96875 Z M 80.035156 203.96875 "/>
<g clip-path="url(#clip2)" clip-rule="nonzero">
<path style="fill:none;stroke-width:0.8;stroke-linecap:square;stroke-linejoin:round;stroke:rgb(69.01961%,69.01961%,69.01961%);stroke-opacity:1;stroke-miterlimit:4;" d="M 97.054688 145.798828 L 97.054688 7.201172 " transform="matrix(1.333333,0,0,1.333333,0,0.000000000000014211)"/>
</g>
<path style="fill:none;stroke-width:0.8;stroke-linecap:butt;stroke-linejoin:round;stroke:rgb(0%,0%,0%);stroke-opacity:1;stroke-miterlimit:4;" d="M -0.001297 -0.00117493 L -0.001297 3.499802 " transform="matrix(1.333333,0,0,1.333333,129.407979,194.400004)"/>
<path style=" stroke:none;fill-rule:nonzero;fill:rgb(0%,0%,0%);fill-opacity:1;" d="M 116.75 209.132812 L 125.097656 209.132812 L 125.097656 210.238281 L 116.75 210.238281 Z M 116.75 209.132812 "/>
<path style=" stroke:none;fill-rule:nonzero;fill:rgb(0%,0%,0%);fill-opacity:1;" d="M 128.164062 212.757812 L 130.3125 212.757812 L 130.3125 205.339844 L 127.976562 205.808594 L 127.976562 204.613281 L 130.300781 204.144531 L 131.613281 204.144531 L 131.613281 212.757812 L 133.761719 212.757812 L 133.761719 213.863281 L 128.164062 213.863281 Z M 128.164062 212.757812 "/>
<path style=" stroke:none;fill-rule:nonzero;fill:rgb(0%,0%,0%);fill-opacity:1;" d="M 139.230469 205.011719 C 138.554688 205.011719 138.046875 205.34375 137.703125 206.011719 C 137.363281 206.675781 137.191406 207.675781 137.191406 209.015625 C 137.191406 210.347656 137.363281 211.347656 137.703125 212.011719 C 138.046875 212.679688 138.554688 213.011719 139.230469 213.011719 C 139.914062 213.011719 140.421875 212.679688 140.765625 212.011719 C 141.105469 211.347656 141.277344 210.347656 141.277344 209.015625 C 141.277344 207.675781 141.105469 206.675781 140.765625 206.011719 C 140.421875 205.34375 139.914062 205.011719 139.230469 205.011719 Z M 139.230469 203.96875 C 140.320312 203.96875 141.152344 204.398438 141.730469 205.261719 C 142.304688 206.125 142.589844 207.375 142.589844 209.015625 C 142.589844 210.652344 142.304688 211.898438 141.730469 212.761719 C 141.152344 213.625 140.320312 214.054688 139.230469 214.054688 C 138.140625 214.054688 137.308594 213.625 136.734375 212.761719 C 136.160156 211.898438 135.871094 210.652344 135.871094 209.015625 C 135.871094 207.375 136.160156 206.125 136.734375 205.261719 C 137.308594 204.398438 138.140625 203.96875 139.230469 203.96875 Z M 139.230469 203.96875 "/>
<g clip-path="url(#clip3)" clip-rule="nonzero">
<path style="fill:none;stroke-width:0.8;stroke-linecap:square;stroke-linejoin:round;stroke:rgb(69.01961%,69.01961%,69.01961%);stroke-opacity:1;stroke-miterlimit:4;" d="M 141.454102 145.798828 L 141.454102 7.201172 " transform="matrix(1.333333,0,0,1.333333,0,0.000000000000014211)"/>
</g>
<path style="fill:none;stroke-width:0.8;stroke-linecap:butt;stroke-linejoin:round;stroke:rgb(0%,0%,0%);stroke-opacity:1;stroke-miterlimit:4;" d="M 0.000656128 -0.00117493 L 0.000656128 3.499802 " transform="matrix(1.333333,0,0,1.333333,188.604594,194.400004)"/>
<path style=" stroke:none;fill-rule:nonzero;fill:rgb(0%,0%,0%);fill-opacity:1;" d="M 188.601562 205.011719 C 187.925781 205.011719 187.414062 205.34375 187.074219 206.011719 C 186.734375 206.675781 186.5625 207.675781 186.5625 209.015625 C 186.5625 210.347656 186.734375 211.347656 187.074219 212.011719 C 187.414062 212.679688 187.925781 213.011719 188.601562 213.011719 C 189.28125 213.011719 189.792969 212.679688 190.132812 212.011719 C 190.476562 211.347656 190.644531 210.347656 190.644531 209.015625 C 190.644531 207.675781 190.476562 206.675781 190.132812 206.011719 C 189.792969 205.34375 189.28125 205.011719 188.601562 205.011719 Z M 188.601562 203.96875 C 189.691406 203.96875 190.523438 204.398438 191.097656 205.261719 C 191.671875 206.125 191.960938 207.375 191.960938 209.015625 C 191.960938 210.652344 191.671875 211.898438 191.097656 212.761719 C 190.523438 213.625 189.691406 214.054688 188.601562 214.054688 C 187.511719 214.054688 186.679688 213.625 186.105469 212.761719 C 185.53125 211.898438 185.242188 210.652344 185.242188 209.015625 C 185.242188 207.375 185.53125 206.125 186.105469 205.261719 C 186.679688 204.398438 187.511719 203.96875 188.601562 203.96875 Z M 188.601562 203.96875 "/>
<g clip-path="url(#clip4)" clip-rule="nonzero">
<path style="fill:none;stroke-width:0.8;stroke-linecap:square;stroke-linejoin:round;stroke:rgb(69.01961%,69.01961%,69.01961%);stroke-opacity:1;stroke-miterlimit:4;" d="M 185.850586 145.798828 L 185.850586 7.201172 " transform="matrix(1.333333,0,0,1.333333,0,0.000000000000014211)"/>
</g>
<path style="fill:none;stroke-width:0.8;stroke-linecap:butt;stroke-linejoin:round;stroke:rgb(0%,0%,0%);stroke-opacity:1;stroke-miterlimit:4;" d="M -0.000320435 -0.00117493 L -0.000320435 3.499802 " transform="matrix(1.333333,0,0,1.333333,247.801208,194.400004)"/>
<path style=" stroke:none;fill-rule:nonzero;fill:rgb(0%,0%,0%);fill-opacity:1;" d="M 240.972656 212.757812 L 243.121094 212.757812 L 243.121094 205.339844 L 240.78125 205.808594 L 240.78125 204.613281 L 243.109375 204.144531 L 244.421875 204.144531 L 244.421875 212.757812 L 246.570312 212.757812 L 246.570312 213.863281 L 240.972656 213.863281 Z M 240.972656 212.757812 "/>
<path style=" stroke:none;fill-rule:nonzero;fill:rgb(0%,0%,0%);fill-opacity:1;" d="M 252.039062 205.011719 C 251.363281 205.011719 250.851562 205.34375 250.511719 206.011719 C 250.171875 206.675781 250 207.675781 250 209.015625 C 250 210.347656 250.171875 211.347656 250.511719 212.011719 C 250.851562 212.679688 251.363281 213.011719 252.039062 213.011719 C 252.71875 213.011719 253.230469 212.679688 253.570312 212.011719 C 253.914062 211.347656 254.085938 210.347656 254.085938 209.015625 C 254.085938 207.675781 253.914062 206.675781 253.570312 206.011719 C 253.230469 205.34375 252.71875 205.011719 252.039062 205.011719 Z M 252.039062 203.96875 C 253.128906 203.96875 253.960938 204.398438 254.535156 205.261719 C 255.113281 206.125 255.398438 207.375 255.398438 209.015625 C 255.398438 210.652344 255.113281 211.898438 254.535156 212.761719 C 253.960938 213.625 253.128906 214.054688 252.039062 214.054688 C 250.949219 214.054688 250.117188 213.625 249.542969 212.761719 C 248.96875 211.898438 248.679688 210.652344 248.679688 209.015625 C 248.679688 207.375 248.96875 206.125 249.542969 205.261719 C 250.117188 204.398438 250.949219 203.96875 252.039062 203.96875 Z M 252.039062 203.96875 "/>
<g clip-path="url(#clip5)" clip-rule="nonzero">
<path style="fill:none;stroke-width:0.8;stroke-linecap:square;stroke-linejoin:round;stroke:rgb(69.01961%,69.01961%,69.01961%);stroke-opacity:1;stroke-miterlimit:4;" d="M 230.24707 145.798828 L 230.24707 7.201172 " transform="matrix(1.333333,0,0,1.333333,0,0.000000000000014211)"/>
</g>
<path style="fill:none;stroke-width:0.8;stroke-linecap:butt;stroke-linejoin:round;stroke:rgb(0%,0%,0%);stroke-opacity:1;stroke-miterlimit:4;" d="M -0.00131226 -0.00117493 L -0.00131226 3.499802 " transform="matrix(1.333333,0,0,1.333333,306.997843,194.400004)"/>
<path style=" stroke:none;fill-rule:nonzero;fill:rgb(0%,0%,0%);fill-opacity:1;" d="M 301.074219 212.757812 L 305.664062 212.757812 L 305.664062 213.863281 L 299.492188 213.863281 L 299.492188 212.757812 C 299.988281 212.242188 300.671875 211.546875 301.53125 210.679688 C 302.394531 209.808594 302.933594 209.246094 303.15625 208.992188 C 303.578125 208.523438 303.871094 208.121094 304.039062 207.792969 C 304.207031 207.464844 304.289062 207.144531 304.289062 206.828125 C 304.289062 206.308594 304.109375 205.890625 303.746094 205.566406 C 303.382812 205.238281 302.910156 205.074219 302.328125 205.074219 C 301.917969 205.074219 301.480469 205.148438 301.023438 205.289062 C 300.566406 205.433594 300.078125 205.648438 299.554688 205.941406 L 299.554688 204.613281 C 300.085938 204.398438 300.578125 204.238281 301.039062 204.132812 C 301.5 204.023438 301.921875 203.96875 302.304688 203.96875 C 303.3125 203.96875 304.113281 204.222656 304.710938 204.726562 C 305.3125 205.226562 305.609375 205.898438 305.609375 206.742188 C 305.609375 207.140625 305.535156 207.519531 305.386719 207.878906 C 305.238281 208.234375 304.964844 208.65625 304.570312 209.144531 C 304.460938 209.269531 304.113281 209.632812 303.535156 210.234375 C 302.953125 210.835938 302.132812 211.679688 301.074219 212.757812 Z M 301.074219 212.757812 "/>
<path style=" stroke:none;fill-rule:nonzero;fill:rgb(0%,0%,0%);fill-opacity:1;" d="M 311.234375 205.011719 C 310.558594 205.011719 310.050781 205.34375 309.707031 206.011719 C 309.367188 206.675781 309.199219 207.675781 309.199219 209.015625 C 309.199219 210.347656 309.367188 211.347656 309.707031 212.011719 C 310.050781 212.679688 310.558594 213.011719 311.234375 213.011719 C 311.917969 213.011719 312.429688 212.679688 312.769531 212.011719 C 313.109375 211.347656 313.28125 210.347656 313.28125 209.015625 C 313.28125 207.675781 313.109375 206.675781 312.769531 206.011719 C 312.429688 205.34375 311.917969 205.011719 311.234375 205.011719 Z M 311.234375 203.96875 C 312.324219 203.96875 313.15625 204.398438 313.734375 205.261719 C 314.308594 206.125 314.59375 207.375 314.59375 209.015625 C 314.59375 210.652344 314.308594 211.898438 313.734375 212.761719 C 313.15625 213.625 312.324219 214.054688 311.234375 214.054688 C 310.144531 214.054688 309.3125 213.625 308.738281 212.761719 C 308.164062 211.898438 307.875 210.652344 307.875 209.015625 C 307.875 207.375 308.164062 206.125 308.738281 205.261719 C 309.3125 204.398438 310.144531 203.96875 311.234375 203.96875 Z M 311.234375 203.96875 "/>
<path style=" stroke:none;fill-rule:nonzero;fill:rgb(0%,0%,0%);fill-opacity:1;" d="M 191.949219 224.808594 L 189.308594 228.359375 L 192.082031 232.101562 L 190.671875 232.101562 L 188.546875 229.238281 L 186.425781 232.101562 L 185.011719 232.101562 L 187.847656 228.289062 L 185.253906 224.808594 L 186.667969 224.808594 L 188.601562 227.410156 L 190.535156 224.808594 Z M 191.949219 224.808594 "/>
<g clip-path="url(#clip6)" clip-rule="nonzero">
<path style="fill:none;stroke-width:0.8;stroke-linecap:square;stroke-linejoin:round;stroke:rgb(69.01961%,69.01961%,69.01961%);stroke-opacity:1;stroke-miterlimit:4;" d="M 43.78125 139.5 L 239.080078 139.5 " transform="matrix(1.333333,0,0,1.333333,0,0.000000000000014211)"/>
</g>
<path style="fill:none;stroke-width:0.8;stroke-linecap:butt;stroke-linejoin:round;stroke:rgb(0%,0%,0%);stroke-opacity:1;stroke-miterlimit:4;" d="M 0 0 L -3.500977 0 " transform="matrix(1.333333,0,0,1.333333,58.375,186)"/>
<path style=" stroke:none;fill-rule:nonzero;fill:rgb(0%,0%,0%);fill-opacity:1;" d="M 32.074219 182.210938 C 31.398438 182.210938 30.890625 182.542969 30.546875 183.210938 C 30.207031 183.875 30.039062 184.878906 30.039062 186.214844 C 30.039062 187.546875 30.207031 188.546875 30.546875 189.214844 C 30.890625 189.878906 31.398438 190.214844 32.074219 190.214844 C 32.757812 190.214844 33.269531 189.878906 33.609375 189.214844 C 33.949219 188.546875 34.121094 187.546875 34.121094 186.214844 C 34.121094 184.878906 33.949219 183.875 33.609375 183.210938 C 33.269531 182.542969 32.757812 182.210938 32.074219 182.210938 Z M 32.074219 181.167969 C 33.164062 181.167969 33.996094 181.601562 34.574219 182.464844 C 35.148438 183.324219 35.433594 184.574219 35.433594 186.214844 C 35.433594 187.851562 35.148438 189.101562 34.574219 189.964844 C 33.996094 190.824219 33.164062 191.253906 32.074219 191.253906 C 30.984375 191.253906 30.152344 190.824219 29.578125 189.964844 C 29.003906 189.101562 28.714844 187.851562 28.714844 186.214844 C 28.714844 184.574219 29.003906 183.324219 29.578125 182.464844 C 30.152344 181.601562 30.984375 181.167969 32.074219 181.167969 Z M 32.074219 181.167969 "/>
<path style=" stroke:none;fill-rule:nonzero;fill:rgb(0%,0%,0%);fill-opacity:1;" d="M 37.746094 189.410156 L 39.121094 189.410156 L 39.121094 191.066406 L 37.746094 191.066406 Z M 37.746094 189.410156 "/>
<path style=" stroke:none;fill-rule:nonzero;fill:rgb(0%,0%,0%);fill-opacity:1;" d="M 44.796875 182.210938 C 44.121094 182.210938 43.609375 182.542969 43.269531 183.210938 C 42.929688 183.875 42.757812 184.878906 42.757812 186.214844 C 42.757812 187.546875 42.929688 188.546875 43.269531 189.214844 C 43.609375 189.878906 44.121094 190.214844 44.796875 190.214844 C 45.476562 190.214844 45.988281 189.878906 46.328125 189.214844 C 46.671875 188.546875 46.84375 187.546875 46.84375 186.214844 C 46.84375 184.878906 46.671875 183.875 46.328125 183.210938 C 45.988281 182.542969 45.476562 182.210938 44.796875 182.210938 Z M 44.796875 181.167969 C 45.886719 181.167969 46.71875 181.601562 47.292969 182.464844 C 47.871094 183.324219 48.15625 184.574219 48.15625 186.214844 C 48.15625 187.851562 47.871094 189.101562 47.292969 189.964844 C 46.71875 190.824219 45.886719 191.253906 44.796875 191.253906 C 43.707031 191.253906 42.875 190.824219 42.300781 189.964844 C 41.726562 189.101562 41.4375 187.851562 41.4375 186.214844 C 41.4375 184.574219 41.726562 183.324219 42.300781 182.464844 C 42.875 181.601562 43.707031 181.167969 44.796875 181.167969 Z M 44.796875 181.167969 "/>
<g clip-path="url(#clip7)" clip-rule="nonzero">
<path style="fill:none;stroke-width:0.8;stroke-linecap:square;stroke-linejoin:round;stroke:rgb(69.01961%,69.01961%,69.01961%);stroke-opacity:1;stroke-miterlimit:4;" d="M 43.78125 114.237305 L 239.080078 114.237305 " transform="matrix(1.333333,0,0,1.333333,0,0.000000000000014211)"/>
</g>
<path style="fill:none;stroke-width:0.8;stroke-linecap:butt;stroke-linejoin:round;stroke:rgb(0%,0%,0%);stroke-opacity:1;stroke-miterlimit:4;" d="M 0 0.000305176 L -3.500977 0.000305176 " transform="matrix(1.333333,0,0,1.333333,58.375,152.315999)"/>
<path style=" stroke:none;fill-rule:nonzero;fill:rgb(0%,0%,0%);fill-opacity:1;" d="M 32.074219 148.527344 C 31.398438 148.527344 30.890625 148.859375 30.546875 149.527344 C 30.207031 150.191406 30.039062 151.195312 30.039062 152.53125 C 30.039062 153.863281 30.207031 154.863281 30.546875 155.53125 C 30.890625 156.195312 31.398438 156.53125 32.074219 156.53125 C 32.757812 156.53125 33.269531 156.195312 33.609375 155.53125 C 33.949219 154.863281 34.121094 153.863281 34.121094 152.53125 C 34.121094 151.195312 33.949219 150.191406 33.609375 149.527344 C 33.269531 148.859375 32.757812 148.527344 32.074219 148.527344 Z M 32.074219 147.484375 C 33.164062 147.484375 33.996094 147.917969 34.574219 148.78125 C 35.148438 149.640625 35.433594 150.890625 35.433594 152.53125 C 35.433594 154.167969 35.148438 155.417969 34.574219 156.28125 C 33.996094 157.140625 33.164062 157.570312 32.074219 157.570312 C 30.984375 157.570312 30.152344 157.140625 29.578125 156.28125 C 29.003906 155.417969 28.714844 154.167969 28.714844 152.53125 C 28.714844 150.890625 29.003906 149.640625 29.578125 148.78125 C 30.152344 147.917969 30.984375 147.484375 32.074219 147.484375 Z M 32.074219 147.484375 "/>
<path style=" stroke:none;fill-rule:nonzero;fill:rgb(0%,0%,0%);fill-opacity:1;" d="M 37.746094 155.726562 L 39.121094 155.726562 L 39.121094 157.382812 L 37.746094 157.382812 Z M 37.746094 155.726562 "/>
<path style=" stroke:none;fill-rule:nonzero;fill:rgb(0%,0%,0%);fill-opacity:1;" d="M 43.117188 156.273438 L 47.707031 156.273438 L 47.707031 157.382812 L 41.535156 157.382812 L 41.535156 156.273438 C 42.035156 155.757812 42.714844 155.066406 43.574219 154.195312 C 44.4375 153.324219 44.980469 152.761719 45.199219 152.511719 C 45.621094 152.039062 45.914062 151.636719 46.082031 151.3125 C 46.25 150.984375 46.332031 150.660156 46.332031 150.34375 C 46.332031 149.828125 46.152344 149.40625 45.789062 149.082031 C 45.425781 148.753906 44.957031 148.59375 44.375 148.59375 C 43.960938 148.59375 43.527344 148.664062 43.066406 148.804688 C 42.609375 148.949219 42.121094 149.167969 41.601562 149.457031 L 41.601562 148.128906 C 42.128906 147.917969 42.625 147.757812 43.082031 147.648438 C 43.546875 147.539062 43.964844 147.484375 44.347656 147.484375 C 45.355469 147.484375 46.15625 147.738281 46.757812 148.242188 C 47.355469 148.746094 47.65625 149.417969 47.65625 150.257812 C 47.65625 150.660156 47.578125 151.039062 47.429688 151.394531 C 47.28125 151.753906 47.007812 152.175781 46.613281 152.660156 C 46.503906 152.789062 46.160156 153.152344 45.578125 153.753906 C 44.996094 154.355469 44.175781 155.195312 43.117188 156.273438 Z M 43.117188 156.273438 "/>
<g clip-path="url(#clip8)" clip-rule="nonzero">
<path style="fill:none;stroke-width:0.8;stroke-linecap:square;stroke-linejoin:round;stroke:rgb(69.01961%,69.01961%,69.01961%);stroke-opacity:1;stroke-miterlimit:4;" d="M 43.78125 88.974609 L 239.080078 88.974609 " transform="matrix(1.333333,0,0,1.333333,0,0.000000000000014211)"/>
</g>
<path style="fill:none;stroke-width:0.8;stroke-linecap:butt;stroke-linejoin:round;stroke:rgb(0%,0%,0%);stroke-opacity:1;stroke-miterlimit:4;" d="M 0 0.000610352 L -3.500977 0.000610352 " transform="matrix(1.333333,0,0,1.333333,58.375,118.631999)"/>
<path style=" stroke:none;fill-rule:nonzero;fill:rgb(0%,0%,0%);fill-opacity:1;" d="M 32.074219 114.84375 C 31.398438 114.84375 30.890625 115.175781 30.546875 115.84375 C 30.207031 116.507812 30.039062 117.511719 30.039062 118.847656 C 30.039062 120.179688 30.207031 121.179688 30.546875 121.84375 C 30.890625 122.511719 31.398438 122.84375 32.074219 122.84375 C 32.757812 122.84375 33.269531 122.511719 33.609375 121.84375 C 33.949219 121.179688 34.121094 120.179688 34.121094 118.847656 C 34.121094 117.511719 33.949219 116.507812 33.609375 115.84375 C 33.269531 115.175781 32.757812 114.84375 32.074219 114.84375 Z M 32.074219 113.800781 C 33.164062 113.800781 33.996094 114.234375 34.574219 115.09375 C 35.148438 115.957031 35.433594 117.207031 35.433594 118.847656 C 35.433594 120.484375 35.148438 121.734375 34.574219 122.59375 C 33.996094 123.457031 33.164062 123.886719 32.074219 123.886719 C 30.984375 123.886719 30.152344 123.457031 29.578125 122.59375 C 29.003906 121.734375 28.714844 120.484375 28.714844 118.847656 C 28.714844 117.207031 29.003906 115.957031 29.578125 115.09375 C 30.152344 114.234375 30.984375 113.800781 32.074219 113.800781 Z M 32.074219 113.800781 "/>
<path style=" stroke:none;fill-rule:nonzero;fill:rgb(0%,0%,0%);fill-opacity:1;" d="M 37.746094 122.042969 L 39.121094 122.042969 L 39.121094 123.699219 L 37.746094 123.699219 Z M 37.746094 122.042969 "/>
<path style=" stroke:none;fill-rule:nonzero;fill:rgb(0%,0%,0%);fill-opacity:1;" d="M 45.597656 115.121094 L 42.277344 120.3125 L 45.597656 120.3125 Z M 45.253906 113.976562 L 46.90625 113.976562 L 46.90625 120.3125 L 48.292969 120.3125 L 48.292969 121.40625 L 46.90625 121.40625 L 46.90625 123.699219 L 45.597656 123.699219 L 45.597656 121.40625 L 41.210938 121.40625 L 41.210938 120.136719 Z M 45.253906 113.976562 "/>
<g clip-path="url(#clip9)" clip-rule="nonzero">
<path style="fill:none;stroke-width:0.8;stroke-linecap:square;stroke-linejoin:round;stroke:rgb(69.01961%,69.01961%,69.01961%);stroke-opacity:1;stroke-miterlimit:4;" d="M 43.78125 63.711914 L 239.080078 63.711914 " transform="matrix(1.333333,0,0,1.333333,0,0.000000000000014211)"/>
</g>
<path style="fill:none;stroke-width:0.8;stroke-linecap:butt;stroke-linejoin:round;stroke:rgb(0%,0%,0%);stroke-opacity:1;stroke-miterlimit:4;" d="M 0 0.000911713 L -3.500977 0.000911713 " transform="matrix(1.333333,0,0,1.333333,58.375,84.948003)"/>
<path style=" stroke:none;fill-rule:nonzero;fill:rgb(0%,0%,0%);fill-opacity:1;" d="M 32.074219 81.160156 C 31.398438 81.160156 30.890625 81.492188 30.546875 82.160156 C 30.207031 82.824219 30.039062 83.824219 30.039062 85.164062 C 30.039062 86.496094 30.207031 87.496094 30.546875 88.160156 C 30.890625 88.828125 31.398438 89.160156 32.074219 89.160156 C 32.757812 89.160156 33.269531 88.828125 33.609375 88.160156 C 33.949219 87.496094 34.121094 86.496094 34.121094 85.164062 C 34.121094 83.824219 33.949219 82.824219 33.609375 82.160156 C 33.269531 81.492188 32.757812 81.160156 32.074219 81.160156 Z M 32.074219 80.117188 C 33.164062 80.117188 33.996094 80.550781 34.574219 81.410156 C 35.148438 82.273438 35.433594 83.523438 35.433594 85.164062 C 35.433594 86.800781 35.148438 88.050781 34.574219 88.910156 C 33.996094 89.773438 33.164062 90.203125 32.074219 90.203125 C 30.984375 90.203125 30.152344 89.773438 29.578125 88.910156 C 29.003906 88.050781 28.714844 86.800781 28.714844 85.164062 C 28.714844 83.523438 29.003906 82.273438 29.578125 81.410156 C 30.152344 80.550781 30.984375 80.117188 32.074219 80.117188 Z M 32.074219 80.117188 "/>
<path style=" stroke:none;fill-rule:nonzero;fill:rgb(0%,0%,0%);fill-opacity:1;" d="M 37.746094 88.359375 L 39.121094 88.359375 L 39.121094 90.011719 L 37.746094 90.011719 Z M 37.746094 88.359375 "/>
<path style=" stroke:none;fill-rule:nonzero;fill:rgb(0%,0%,0%);fill-opacity:1;" d="M 44.960938 84.628906 C 44.371094 84.628906 43.902344 84.832031 43.558594 85.238281 C 43.210938 85.640625 43.039062 86.191406 43.039062 86.894531 C 43.039062 87.59375 43.210938 88.144531 43.558594 88.554688 C 43.902344 88.957031 44.371094 89.160156 44.960938 89.160156 C 45.550781 89.160156 46.019531 88.957031 46.363281 88.554688 C 46.707031 88.144531 46.878906 87.59375 46.878906 86.894531 C 46.878906 86.191406 46.707031 85.640625 46.363281 85.238281 C 46.019531 84.832031 45.550781 84.628906 44.960938 84.628906 Z M 47.570312 80.507812 L 47.570312 81.707031 C 47.242188 81.550781 46.90625 81.429688 46.570312 81.347656 C 46.234375 81.265625 45.902344 81.222656 45.570312 81.222656 C 44.703125 81.222656 44.039062 81.515625 43.582031 82.101562 C 43.125 82.6875 42.863281 83.574219 42.796875 84.757812 C 43.054688 84.382812 43.375 84.09375 43.761719 83.890625 C 44.148438 83.6875 44.574219 83.589844 45.039062 83.589844 C 46.015625 83.589844 46.785156 83.886719 47.351562 84.476562 C 47.917969 85.070312 48.203125 85.875 48.203125 86.894531 C 48.203125 87.894531 47.90625 88.695312 47.316406 89.300781 C 46.726562 89.902344 45.941406 90.203125 44.960938 90.203125 C 43.835938 90.203125 42.976562 89.773438 42.382812 88.910156 C 41.789062 88.050781 41.488281 86.800781 41.488281 85.164062 C 41.488281 83.628906 41.855469 82.402344 42.582031 81.488281 C 43.3125 80.574219 44.292969 80.117188 45.519531 80.117188 C 45.851562 80.117188 46.183594 80.152344 46.519531 80.214844 C 46.855469 80.28125 47.207031 80.378906 47.570312 80.507812 Z M 47.570312 80.507812 "/>
<g clip-path="url(#clip10)" clip-rule="nonzero">
<path style="fill:none;stroke-width:0.8;stroke-linecap:square;stroke-linejoin:round;stroke:rgb(69.01961%,69.01961%,69.01961%);stroke-opacity:1;stroke-miterlimit:4;" d="M 43.78125 38.449219 L 239.080078 38.449219 " transform="matrix(1.333333,0,0,1.333333,0,0.000000000000014211)"/>
</g>
<path style="fill:none;stroke-width:0.8;stroke-linecap:butt;stroke-linejoin:round;stroke:rgb(0%,0%,0%);stroke-opacity:1;stroke-miterlimit:4;" d="M 0 0.00121689 L -3.500977 0.00121689 " transform="matrix(1.333333,0,0,1.333333,58.375,51.264002)"/>
<path style=" stroke:none;fill-rule:nonzero;fill:rgb(0%,0%,0%);fill-opacity:1;" d="M 32.074219 47.476562 C 31.398438 47.476562 30.890625 47.808594 30.546875 48.476562 C 30.207031 49.140625 30.039062 50.140625 30.039062 51.480469 C 30.039062 52.8125 30.207031 53.8125 30.546875 54.476562 C 30.890625 55.144531 31.398438 55.476562 32.074219 55.476562 C 32.757812 55.476562 33.269531 55.144531 33.609375 54.476562 C 33.949219 53.8125 34.121094 52.8125 34.121094 51.480469 C 34.121094 50.140625 33.949219 49.140625 33.609375 48.476562 C 33.269531 47.808594 32.757812 47.476562 32.074219 47.476562 Z M 32.074219 46.433594 C 33.164062 46.433594 33.996094 46.863281 34.574219 47.726562 C 35.148438 48.589844 35.433594 49.839844 35.433594 51.480469 C 35.433594 53.117188 35.148438 54.363281 34.574219 55.226562 C 33.996094 56.089844 33.164062 56.519531 32.074219 56.519531 C 30.984375 56.519531 30.152344 56.089844 29.578125 55.226562 C 29.003906 54.363281 28.714844 53.117188 28.714844 51.480469 C 28.714844 49.839844 29.003906 48.589844 29.578125 47.726562 C 30.152344 46.863281 30.984375 46.433594 32.074219 46.433594 Z M 32.074219 46.433594 "/>
<path style=" stroke:none;fill-rule:nonzero;fill:rgb(0%,0%,0%);fill-opacity:1;" d="M 37.746094 54.675781 L 39.121094 54.675781 L 39.121094 56.328125 L 37.746094 56.328125 Z M 37.746094 54.675781 "/>
<path style=" stroke:none;fill-rule:nonzero;fill:rgb(0%,0%,0%);fill-opacity:1;" d="M 44.796875 51.714844 C 44.171875 51.714844 43.679688 51.878906 43.320312 52.214844 C 42.964844 52.550781 42.785156 53.007812 42.785156 53.59375 C 42.785156 54.179688 42.964844 54.640625 43.320312 54.976562 C 43.679688 55.308594 44.171875 55.476562 44.796875 55.476562 C 45.421875 55.476562 45.914062 55.308594 46.273438 54.972656 C 46.632812 54.636719 46.816406 54.175781 46.816406 53.59375 C 46.816406 53.007812 46.636719 52.550781 46.277344 52.214844 C 45.921875 51.878906 45.425781 51.714844 44.796875 51.714844 Z M 43.480469 51.15625 C 42.917969 51.015625 42.476562 50.753906 42.164062 50.367188 C 41.847656 49.980469 41.691406 49.507812 41.691406 48.953125 C 41.691406 48.175781 41.96875 47.5625 42.519531 47.109375 C 43.074219 46.660156 43.832031 46.433594 44.796875 46.433594 C 45.765625 46.433594 46.523438 46.660156 47.074219 47.109375 C 47.625 47.5625 47.902344 48.175781 47.902344 48.953125 C 47.902344 49.507812 47.746094 49.980469 47.429688 50.367188 C 47.117188 50.753906 46.679688 51.015625 46.121094 51.15625 C 46.753906 51.300781 47.246094 51.589844 47.597656 52.019531 C 47.953125 52.449219 48.128906 52.976562 48.128906 53.59375 C 48.128906 54.539062 47.84375 55.261719 47.265625 55.765625 C 46.691406 56.269531 45.867188 56.519531 44.796875 56.519531 C 43.726562 56.519531 42.902344 56.269531 42.324219 55.765625 C 41.75 55.261719 41.464844 54.539062 41.464844 53.59375 C 41.464844 52.976562 41.640625 52.449219 41.996094 52.019531 C 42.351562 51.589844 42.847656 51.300781 43.480469 51.15625 Z M 43 49.078125 C 43 49.582031 43.15625 49.972656 43.472656 50.253906 C 43.785156 50.535156 44.226562 50.675781 44.796875 50.675781 C 45.363281 50.675781 45.804688 50.535156 46.121094 50.253906 C 46.441406 49.972656 46.601562 49.582031 46.601562 49.078125 C 46.601562 48.574219 46.441406 48.179688 46.121094 47.898438 C 45.804688 47.617188 45.363281 47.476562 44.796875 47.476562 C 44.226562 47.476562 43.785156 47.617188 43.472656 47.898438 C 43.15625 48.179688 43 48.574219 43 49.078125 Z M 43 49.078125 "/>
<g clip-path="url(#clip11)" clip-rule="nonzero">
<path style="fill:none;stroke-width:0.8;stroke-linecap:square;stroke-linejoin:round;stroke:rgb(69.01961%,69.01961%,69.01961%);stroke-opacity:1;stroke-miterlimit:4;" d="M 43.78125 13.183594 L 239.080078 13.183594 " transform="matrix(1.333333,0,0,1.333333,0,0.000000000000014211)"/>
</g>
<path style="fill:none;stroke-width:0.8;stroke-linecap:butt;stroke-linejoin:round;stroke:rgb(0%,0%,0%);stroke-opacity:1;stroke-miterlimit:4;" d="M 0 -0.00140953 L -3.500977 -0.00140953 " transform="matrix(1.333333,0,0,1.333333,58.375,17.580004)"/>
<path style=" stroke:none;fill-rule:nonzero;fill:rgb(0%,0%,0%);fill-opacity:1;" d="M 29.492188 21.539062 L 31.640625 21.539062 L 31.640625 14.121094 L 29.300781 14.589844 L 29.300781 13.394531 L 31.628906 12.925781 L 32.941406 12.925781 L 32.941406 21.539062 L 35.089844 21.539062 L 35.089844 22.644531 L 29.492188 22.644531 Z M 29.492188 21.539062 "/>
<path style=" stroke:none;fill-rule:nonzero;fill:rgb(0%,0%,0%);fill-opacity:1;" d="M 37.746094 20.992188 L 39.121094 20.992188 L 39.121094 22.644531 L 37.746094 22.644531 Z M 37.746094 20.992188 "/>
<path style=" stroke:none;fill-rule:nonzero;fill:rgb(0%,0%,0%);fill-opacity:1;" d="M 44.796875 13.792969 C 44.121094 13.792969 43.609375 14.125 43.269531 14.792969 C 42.929688 15.457031 42.757812 16.457031 42.757812 17.796875 C 42.757812 19.128906 42.929688 20.125 43.269531 20.792969 C 43.609375 21.460938 44.121094 21.792969 44.796875 21.792969 C 45.476562 21.792969 45.988281 21.460938 46.328125 20.792969 C 46.671875 20.125 46.84375 19.128906 46.84375 17.796875 C 46.84375 16.457031 46.671875 15.457031 46.328125 14.792969 C 45.988281 14.125 45.476562 13.792969 44.796875 13.792969 Z M 44.796875 12.75 C 45.886719 12.75 46.71875 13.179688 47.292969 14.042969 C 47.871094 14.90625 48.15625 16.15625 48.15625 17.796875 C 48.15625 19.433594 47.871094 20.679688 47.292969 21.542969 C 46.71875 22.40625 45.886719 22.835938 44.796875 22.835938 C 43.707031 22.835938 42.875 22.40625 42.300781 21.542969 C 41.726562 20.679688 41.4375 19.433594 41.4375 17.796875 C 41.4375 16.15625 41.726562 14.90625 42.300781 14.042969 C 42.875 13.179688 43.707031 12.75 44.796875 12.75 Z M 44.796875 12.75 "/>
<path style=" stroke:none;fill-rule:nonzero;fill:rgb(0%,0%,0%);fill-opacity:1;" d="M 12.441406 133.050781 L 12.441406 131.855469 L 19.730469 131.855469 L 19.730469 133.050781 Z M 9.601562 133.050781 L 9.601562 131.855469 L 11.117188 131.855469 L 11.117188 133.050781 Z M 9.601562 133.050781 "/>
<path style=" stroke:none;fill-rule:nonzero;fill:rgb(0%,0%,0%);fill-opacity:1;" d="M 15.328125 123.285156 L 19.730469 123.285156 L 19.730469 124.484375 L 15.367188 124.484375 C 14.679688 124.484375 14.164062 124.617188 13.820312 124.886719 C 13.476562 125.15625 13.304688 125.558594 13.304688 126.097656 C 13.304688 126.746094 13.511719 127.253906 13.925781 127.628906 C 14.335938 128.003906 14.898438 128.1875 15.609375 128.1875 L 19.730469 128.1875 L 19.730469 129.394531 L 12.441406 129.394531 L 12.441406 128.1875 L 13.574219 128.1875 C 13.132812 127.902344 12.804688 127.5625 12.589844 127.175781 C 12.371094 126.789062 12.265625 126.339844 12.265625 125.832031 C 12.265625 124.992188 12.523438 124.359375 13.042969 123.929688 C 13.558594 123.5 14.320312 123.285156 15.328125 123.285156 Z M 15.328125 123.285156 "/>
<path style=" stroke:none;fill-rule:nonzero;fill:rgb(0%,0%,0%);fill-opacity:1;" d="M 10.367188 119.710938 L 12.441406 119.710938 L 12.441406 117.246094 L 13.371094 117.246094 L 13.371094 119.710938 L 17.328125 119.710938 C 17.921875 119.710938 18.304688 119.628906 18.476562 119.46875 C 18.644531 119.304688 18.730469 118.972656 18.730469 118.472656 L 18.730469 117.246094 L 19.730469 117.246094 L 19.730469 118.472656 C 19.730469 119.398438 19.558594 120.039062 19.214844 120.390625 C 18.867188 120.738281 18.242188 120.914062 17.328125 120.914062 L 13.371094 120.914062 L 13.371094 121.796875 L 12.441406 121.796875 L 12.441406 120.914062 L 10.367188 120.914062 Z M 10.367188 119.710938 "/>
<path style=" stroke:none;fill-rule:nonzero;fill:rgb(0%,0%,0%);fill-opacity:1;" d="M 15.785156 109.433594 L 16.371094 109.433594 L 16.371094 114.941406 C 17.195312 114.886719 17.824219 114.640625 18.257812 114.195312 C 18.6875 113.75 18.902344 113.128906 18.902344 112.335938 C 18.902344 111.875 18.847656 111.429688 18.734375 111 C 18.621094 110.566406 18.453125 110.136719 18.226562 109.710938 L 19.359375 109.710938 C 19.542969 110.140625 19.679688 110.582031 19.777344 111.035156 C 19.871094 111.484375 19.921875 111.941406 19.921875 112.40625 C 19.921875 113.570312 19.582031 114.492188 18.90625 115.171875 C 18.226562 115.851562 17.3125 116.191406 16.15625 116.191406 C 14.964844 116.191406 14.015625 115.867188 13.316406 115.222656 C 12.617188 114.578125 12.265625 113.710938 12.265625 112.613281 C 12.265625 111.632812 12.582031 110.859375 13.210938 110.289062 C 13.84375 109.71875 14.699219 109.433594 15.785156 109.433594 Z M 15.433594 110.628906 C 14.777344 110.636719 14.257812 110.820312 13.867188 111.179688 C 13.476562 111.539062 13.277344 112.011719 13.277344 112.601562 C 13.277344 113.269531 13.46875 113.804688 13.847656 114.207031 C 14.222656 114.609375 14.753906 114.839844 15.441406 114.902344 Z M 15.433594 110.628906 "/>
<path style=" stroke:none;fill-rule:nonzero;fill:rgb(0%,0%,0%);fill-opacity:1;" d="M 16 102.667969 C 15.132812 102.667969 14.460938 102.847656 13.984375 103.207031 C 13.503906 103.5625 13.265625 104.066406 13.265625 104.710938 C 13.265625 105.355469 13.503906 105.855469 13.984375 106.210938 C 14.460938 106.570312 15.132812 106.75 16 106.75 C 16.863281 106.75 17.535156 106.570312 18.011719 106.210938 C 18.492188 105.855469 18.730469 105.355469 18.730469 104.710938 C 18.730469 104.066406 18.492188 103.5625 18.011719 103.207031 C 17.535156 102.847656 16.863281 102.667969 16 102.667969 Z M 18.828125 101.46875 C 20.066406 101.46875 20.992188 101.746094 21.597656 102.296875 C 22.203125 102.847656 22.503906 103.691406 22.503906 104.828125 C 22.503906 105.25 22.472656 105.648438 22.410156 106.019531 C 22.347656 106.394531 22.25 106.757812 22.121094 107.109375 L 20.957031 107.109375 C 21.148438 106.757812 21.285156 106.410156 21.378906 106.066406 C 21.46875 105.722656 21.515625 105.375 21.515625 105.019531 C 21.515625 104.230469 21.308594 103.644531 20.898438 103.253906 C 20.492188 102.863281 19.871094 102.667969 19.042969 102.667969 L 18.449219 102.667969 C 18.878906 102.914062 19.199219 103.230469 19.414062 103.617188 C 19.625 104.003906 19.730469 104.46875 19.730469 105.003906 C 19.730469 105.898438 19.390625 106.617188 18.710938 107.167969 C 18.027344 107.714844 17.125 107.988281 16 107.988281 C 14.871094 107.988281 13.96875 107.714844 13.289062 107.167969 C 12.605469 106.617188 12.265625 105.898438 12.265625 105.003906 C 12.265625 104.46875 12.371094 104.003906 12.582031 103.617188 C 12.796875 103.230469 13.117188 102.914062 13.546875 102.667969 L 12.441406 102.667969 L 12.441406 101.46875 Z M 18.828125 101.46875 "/>
<path style=" stroke:none;fill-rule:nonzero;fill:rgb(0%,0%,0%);fill-opacity:1;" d="M 13.558594 94.777344 C 13.480469 94.914062 13.421875 95.058594 13.386719 95.21875 C 13.351562 95.375 13.332031 95.550781 13.332031 95.738281 C 13.332031 96.417969 13.550781 96.9375 13.992188 97.300781 C 14.433594 97.664062 15.066406 97.84375 15.890625 97.84375 L 19.730469 97.84375 L 19.730469 99.046875 L 12.441406 99.046875 L 12.441406 97.84375 L 13.574219 97.84375 C 13.128906 97.589844 12.800781 97.265625 12.585938 96.859375 C 12.371094 96.457031 12.265625 95.964844 12.265625 95.386719 C 12.265625 95.304688 12.269531 95.214844 12.28125 95.113281 C 12.289062 95.015625 12.308594 94.90625 12.328125 94.785156 Z M 13.558594 94.777344 "/>
<path style=" stroke:none;fill-rule:nonzero;fill:rgb(0%,0%,0%);fill-opacity:1;" d="M 16.066406 90.207031 C 16.066406 91.175781 16.175781 91.84375 16.398438 92.21875 C 16.617188 92.59375 16.996094 92.777344 17.53125 92.777344 C 17.957031 92.777344 18.292969 92.640625 18.542969 92.359375 C 18.792969 92.078125 18.917969 91.695312 18.917969 91.214844 C 18.917969 90.550781 18.679688 90.019531 18.210938 89.617188 C 17.738281 89.214844 17.113281 89.015625 16.332031 89.015625 L 16.066406 89.015625 Z M 15.570312 87.816406 L 19.730469 87.816406 L 19.730469 89.015625 L 18.625 89.015625 C 19.066406 89.289062 19.394531 89.628906 19.605469 90.039062 C 19.816406 90.445312 19.921875 90.945312 19.921875 91.535156 C 19.921875 92.28125 19.710938 92.875 19.292969 93.316406 C 18.871094 93.757812 18.3125 93.976562 17.609375 93.976562 C 16.789062 93.976562 16.171875 93.703125 15.753906 93.152344 C 15.335938 92.605469 15.128906 91.785156 15.128906 90.695312 L 15.128906 89.015625 L 15.011719 89.015625 C 14.460938 89.015625 14.03125 89.195312 13.730469 89.558594 C 13.429688 89.921875 13.277344 90.429688 13.277344 91.085938 C 13.277344 91.503906 13.328125 91.910156 13.429688 92.304688 C 13.527344 92.699219 13.679688 93.078125 13.878906 93.441406 L 12.769531 93.441406 C 12.601562 93.003906 12.476562 92.578125 12.390625 92.167969 C 12.308594 91.753906 12.265625 91.351562 12.265625 90.960938 C 12.265625 89.90625 12.539062 89.117188 13.085938 88.597656 C 13.632812 88.078125 14.460938 87.816406 15.570312 87.816406 Z M 15.570312 87.816406 "/>
<path style=" stroke:none;fill-rule:nonzero;fill:rgb(0%,0%,0%);fill-opacity:1;" d="M 15.328125 79.289062 L 19.730469 79.289062 L 19.730469 80.484375 L 15.367188 80.484375 C 14.679688 80.484375 14.164062 80.621094 13.820312 80.890625 C 13.476562 81.160156 13.304688 81.5625 13.304688 82.101562 C 13.304688 82.746094 13.511719 83.257812 13.925781 83.632812 C 14.335938 84.003906 14.898438 84.191406 15.609375 84.191406 L 19.730469 84.191406 L 19.730469 85.394531 L 12.441406 85.394531 L 12.441406 84.191406 L 13.574219 84.191406 C 13.132812 83.90625 12.804688 83.566406 12.589844 83.179688 C 12.371094 82.789062 12.265625 82.34375 12.265625 81.832031 C 12.265625 80.996094 12.523438 80.363281 13.042969 79.933594 C 13.558594 79.503906 14.320312 79.289062 15.328125 79.289062 Z M 15.328125 79.289062 "/>
<path style=" stroke:none;fill-rule:nonzero;fill:rgb(0%,0%,0%);fill-opacity:1;" d="M 13.546875 72.101562 L 9.601562 72.101562 L 9.601562 70.902344 L 19.730469 70.902344 L 19.730469 72.101562 L 18.636719 72.101562 C 19.070312 72.351562 19.394531 72.671875 19.605469 73.054688 C 19.816406 73.4375 19.921875 73.902344 19.921875 74.4375 C 19.921875 75.320312 19.570312 76.039062 18.867188 76.589844 C 18.164062 77.144531 17.238281 77.421875 16.089844 77.421875 C 14.945312 77.421875 14.023438 77.144531 13.320312 76.589844 C 12.617188 76.039062 12.265625 75.320312 12.265625 74.4375 C 12.265625 73.902344 12.371094 73.4375 12.582031 73.054688 C 12.789062 72.671875 13.113281 72.351562 13.546875 72.101562 Z M 16.089844 76.183594 C 16.972656 76.183594 17.664062 76 18.164062 75.640625 C 18.664062 75.277344 18.917969 74.777344 18.917969 74.144531 C 18.917969 73.511719 18.664062 73.011719 18.164062 72.648438 C 17.664062 72.285156 16.972656 72.101562 16.089844 72.101562 C 15.210938 72.101562 14.519531 72.285156 14.019531 72.648438 C 13.515625 73.011719 13.265625 73.511719 13.265625 74.144531 C 13.265625 74.777344 13.515625 75.277344 14.019531 75.640625 C 14.519531 76 15.210938 76.183594 16.089844 76.183594 Z M 16.089844 76.183594 "/>
<path style="fill:none;stroke-width:1.5;stroke-linecap:square;stroke-linejoin:round;stroke:rgb(12.156863%,46.666667%,70.588237%);stroke-opacity:1;stroke-miterlimit:4;" d="M 52.658203 13.5 L 77.255859 13.787109 L 90.884766 14.150391 L 99.676758 14.595703 L 105.84668 15.120117 L 110.419922 15.717773 L 113.970703 16.397461 L 116.856445 17.170898 L 119.208984 18.023437 L 121.207031 18.981445 L 122.938477 20.053711 L 124.450195 21.246094 L 125.824219 22.617187 L 127.069336 24.169922 L 128.223633 25.96875 L 129.333984 28.12793 L 130.353516 30.606445 L 131.332031 33.5625 L 132.263672 37.086914 L 133.195312 41.510742 L 134.083008 46.819336 L 134.970703 53.519531 L 135.858398 62.000977 L 136.746094 72.667969 L 137.724609 87.243164 L 139.054688 110.982422 L 140.208984 130.31543 L 140.786133 136.719727 L 141.1875 139.045898 L 141.410156 139.488281 L 141.541992 139.450195 L 141.720703 139.045898 L 141.987305 137.707031 L 142.341797 134.642578 L 142.875 127.766602 L 143.71875 113.425781 L 145.669922 79.579102 L 146.692383 65.982422 L 147.667969 55.860352 L 148.646484 48.035156 L 149.62207 41.988281 L 150.600586 37.274414 L 151.620117 33.413086 L 152.686523 30.251953 L 153.796875 27.65625 L 154.951172 25.517578 L 156.149414 23.750977 L 157.435547 22.233398 L 158.856445 20.90332 L 160.412109 19.751953 L 162.143555 18.74707 L 164.141602 17.844727 L 166.494141 17.036133 L 169.291992 16.318359 L 172.664062 15.691406 L 176.926758 15.131836 L 182.387695 14.654297 L 189.714844 14.244141 L 200.103516 13.904297 L 215.90918 13.631836 L 230.203125 13.5 " transform="matrix(1.333333,0,0,1.333333,0,0.000000000000014211)"/>
<path style="fill:none;stroke-width:0.8;stroke-linecap:square;stroke-linejoin:miter;stroke:rgb(0%,0%,0%);stroke-opacity:1;stroke-miterlimit:4;" d="M 43.78125 145.798828 L 43.78125 7.201172 " transform="matrix(1.333333,0,0,1.333333,0,0.000000000000014211)"/>
<path style="fill:none;stroke-width:0.8;stroke-linecap:square;stroke-linejoin:miter;stroke:rgb(0%,0%,0%);stroke-opacity:1;stroke-miterlimit:4;" d="M 239.080078 145.798828 L 239.080078 7.201172 " transform="matrix(1.333333,0,0,1.333333,0,0.000000000000014211)"/>
<path style="fill:none;stroke-width:0.8;stroke-linecap:square;stroke-linejoin:miter;stroke:rgb(0%,0%,0%);stroke-opacity:1;stroke-miterlimit:4;" d="M 43.78125 145.798828 L 239.080078 145.798828 " transform="matrix(1.333333,0,0,1.333333,0,0.000000000000014211)"/>
<path style="fill:none;stroke-width:0.8;stroke-linecap:square;stroke-linejoin:miter;stroke:rgb(0%,0%,0%);stroke-opacity:1;stroke-miterlimit:4;" d="M 43.78125 7.201172 L 239.080078 7.201172 " transform="matrix(1.333333,0,0,1.333333,0,0.000000000000014211)"/>
</g>
</svg>
