<?xml version="1.0" encoding="UTF-8"?>
<svg xmlns="http://www.w3.org/2000/svg" xmlns:xlink="http://www.w3.org/1999/xlink" width="318.93398" height="258.606242" viewBox="0 0 318.93398 258.606242" version="1.1">
<defs>
<clipPath id="clip1">
  <path d="M 56 23.730469 L 59 23.730469 L 59 208.53125 L 56 208.53125 Z M 56 23.730469 "/>
</clipPath>
<clipPath id="clip2">
  <path d="M 104 23.730469 L 107 23.730469 L 107 208.53125 L 104 208.53125 Z M 104 23.730469 "/>
</clipPath>
<clipPath id="clip3">
  <path d="M 152 23.730469 L 154 23.730469 L 154 208.53125 L 152 208.53125 Z M 152 23.730469 "/>
</clipPath>
<clipPath id="clip4">
  <path d="M 200 23.730469 L 202 23.730469 L 202 208.53125 L 200 208.53125 Z M 200 23.730469 "/>
</clipPath>
<clipPath id="clip5">
  <path d="M 248 23.730469 L 250 23.730469 L 250 208.53125 L 248 208.53125 Z M 248 23.730469 "/>
</clipPath>
<clipPath id="clip6">
  <path d="M 295 23.730469 L 298 23.730469 L 298 208.53125 L 295 208.53125 Z M 295 23.730469 "/>
</clipPath>
<clipPath id="clip7">
  <path d="M 45.652344 199 L 306.054688 199 L 306.054688 201 L 45.652344 201 Z M 45.652344 199 "/>
</clipPath>
<clipPath id="clip8">
  <path d="M 45.652344 156 L 306.054688 156 L 306.054688 158 L 45.652344 158 Z M 45.652344 156 "/>
</clipPath>
<clipPath id="clip9">
  <path d="M 45.652344 112 L 306.054688 112 L 306.054688 115 L 45.652344 115 Z M 45.652344 112 "/>
</clipPath>
<clipPath id="clip10">
  <path d="M 45.652344 69 L 306.054688 69 L 306.054688 72 L 45.652344 72 Z M 45.652344 69 "/>
</clipPath>
<clipPath id="clip11">
  <path d="M 45.652344 26 L 306.054688 26 L 306.054688 29 L 45.652344 29 Z M 45.652344 26 "/>
</clipPath>
</defs>
<g id="surface1">
<path style=" stroke:none;fill-rule:nonzero;fill:rgb(100%,100%,100%);fill-opacity:1;" d="M 0 258.605469 L 318.933594 258.605469 L 318.933594 0 L 0 0 Z M 0 258.605469 "/>
<path style=" stroke:none;fill-rule:nonzero;fill:rgb(100%,100%,100%);fill-opacity:1;" d="M 45.652344 208.53125 L 306.054688 208.53125 L 306.054688 23.730469 L 45.652344 23.730469 Z M 45.652344 208.53125 "/>
<g clip-path="url(#clip1)" clip-rule="nonzero">
<path style="fill:none;stroke-width:0.8;stroke-linecap:square;stroke-linejoin:round;stroke:rgb(69.01961%,69.01961%,69.01961%);stroke-opacity:1;stroke-miterlimit:4;" d="M 43.119141 156.398438 L 43.119141 17.797852 " transform="matrix(1.333333,0,0,1.333333,0,0.000000000000028422)"/>
</g>
<path style="fill:none;stroke-width:0.8;stroke-linecap:butt;stroke-linejoin:round;stroke:rgb(0%,0%,0%);stroke-opacity:1;stroke-miterlimit:4;" d="M 0.00124359 0.000000000000028422 L 0.00124359 3.500977 " transform="matrix(1.333333,0,0,1.333333,57.490529,208.53125)"/>
<path style=" stroke:none;fill-rule:nonzero;fill:rgb(0%,0%,0%);fill-opacity:1;" d="M 57.488281 219.140625 C 56.808594 219.140625 56.300781 219.476562 55.960938 220.140625 C 55.617188 220.808594 55.449219 221.808594 55.449219 223.144531 C 55.449219 224.476562 55.617188 225.476562 55.960938 226.144531 C 56.300781 226.808594 56.808594 227.144531 57.488281 227.144531 C 58.167969 227.144531 58.679688 226.808594 59.019531 226.144531 C 59.363281 225.476562 59.53125 224.476562 59.53125 223.144531 C 59.53125 221.808594 59.363281 220.808594 59.019531 220.140625 C 58.679688 219.476562 58.167969 219.140625 57.488281 219.140625 Z M 57.488281 218.101562 C 58.578125 218.101562 59.410156 218.53125 59.984375 219.394531 C 60.558594 220.253906 60.847656 221.503906 60.847656 223.144531 C 60.847656 224.78125 60.558594 226.03125 59.984375 226.894531 C 59.410156 227.753906 58.578125 228.183594 57.488281 228.183594 C 56.398438 228.183594 55.566406 227.753906 54.992188 226.894531 C 54.414062 226.03125 54.128906 224.78125 54.128906 223.144531 C 54.128906 221.503906 54.414062 220.253906 54.992188 219.394531 C 55.566406 218.53125 56.398438 218.101562 57.488281 218.101562 Z M 57.488281 218.101562 "/>
<g clip-path="url(#clip2)" clip-rule="nonzero">
<path style="fill:none;stroke-width:0.8;stroke-linecap:square;stroke-linejoin:round;stroke:rgb(69.01961%,69.01961%,69.01961%);stroke-opacity:1;stroke-miterlimit:4;" d="M 78.984375 156.398438 L 78.984375 17.797852 " transform="matrix(1.333333,0,0,1.333333,0,0.000000000000028422)"/>
</g>
<path style="fill:none;stroke-width:0.8;stroke-linecap:butt;stroke-linejoin:round;stroke:rgb(0%,0%,0%);stroke-opacity:1;stroke-miterlimit:4;" d="M -0.00128937 0.000000000000028422 L -0.00128937 3.500977 " transform="matrix(1.333333,0,0,1.333333,105.314219,208.53125)"/>
<path style=" stroke:none;fill-rule:nonzero;fill:rgb(0%,0%,0%);fill-opacity:1;" d="M 99.390625 226.890625 L 103.980469 226.890625 L 103.980469 227.996094 L 97.808594 227.996094 L 97.808594 226.890625 C 98.304688 226.371094 98.988281 225.679688 99.847656 224.808594 C 100.710938 223.941406 101.25 223.378906 101.472656 223.125 C 101.894531 222.652344 102.1875 222.253906 102.355469 221.925781 C 102.523438 221.597656 102.605469 221.273438 102.605469 220.957031 C 102.605469 220.441406 102.425781 220.019531 102.0625 219.695312 C 101.699219 219.371094 101.226562 219.207031 100.644531 219.207031 C 100.234375 219.207031 99.796875 219.277344 99.339844 219.421875 C 98.882812 219.5625 98.394531 219.78125 97.871094 220.074219 L 97.871094 218.742188 C 98.402344 218.53125 98.894531 218.371094 99.355469 218.261719 C 99.816406 218.152344 100.238281 218.101562 100.621094 218.101562 C 101.628906 218.101562 102.429688 218.351562 103.027344 218.855469 C 103.628906 219.359375 103.925781 220.03125 103.925781 220.871094 C 103.925781 221.273438 103.851562 221.652344 103.703125 222.011719 C 103.554688 222.367188 103.28125 222.789062 102.886719 223.273438 C 102.777344 223.402344 102.429688 223.765625 101.851562 224.367188 C 101.269531 224.96875 100.449219 225.808594 99.390625 226.890625 Z M 99.390625 226.890625 "/>
<path style=" stroke:none;fill-rule:nonzero;fill:rgb(0%,0%,0%);fill-opacity:1;" d="M 109.550781 219.140625 C 108.875 219.140625 108.367188 219.476562 108.023438 220.140625 C 107.683594 220.808594 107.515625 221.808594 107.515625 223.144531 C 107.515625 224.476562 107.683594 225.476562 108.023438 226.144531 C 108.367188 226.808594 108.875 227.144531 109.550781 227.144531 C 110.234375 227.144531 110.746094 226.808594 111.085938 226.144531 C 111.425781 225.476562 111.597656 224.476562 111.597656 223.144531 C 111.597656 221.808594 111.425781 220.808594 111.085938 220.140625 C 110.746094 219.476562 110.234375 219.140625 109.550781 219.140625 Z M 109.550781 218.101562 C 110.640625 218.101562 111.472656 218.53125 112.050781 219.394531 C 112.625 220.253906 112.910156 221.503906 112.910156 223.144531 C 112.910156 224.78125 112.625 226.03125 112.050781 226.894531 C 111.472656 227.753906 110.640625 228.183594 109.550781 228.183594 C 108.460938 228.183594 107.628906 227.753906 107.054688 226.894531 C 106.480469 226.03125 106.191406 224.78125 106.191406 223.144531 C 106.191406 221.503906 106.480469 220.253906 107.054688 219.394531 C 107.628906 218.53125 108.460938 218.101562 109.550781 218.101562 Z M 109.550781 218.101562 "/>
<g clip-path="url(#clip3)" clip-rule="nonzero">
<path style="fill:none;stroke-width:0.8;stroke-linecap:square;stroke-linejoin:round;stroke:rgb(69.01961%,69.01961%,69.01961%);stroke-opacity:1;stroke-miterlimit:4;" d="M 114.852539 156.398438 L 114.852539 17.797852 " transform="matrix(1.333333,0,0,1.333333,0,0.000000000000028422)"/>
</g>
<path style="fill:none;stroke-width:0.8;stroke-linecap:butt;stroke-linejoin:round;stroke:rgb(0%,0%,0%);stroke-opacity:1;stroke-miterlimit:4;" d="M -0.000892639 0.000000000000028422 L -0.000892639 3.500977 " transform="matrix(1.333333,0,0,1.333333,153.137909,208.53125)"/>
<path style=" stroke:none;fill-rule:nonzero;fill:rgb(0%,0%,0%);fill-opacity:1;" d="M 149.695312 219.421875 L 146.375 224.609375 L 149.695312 224.609375 Z M 149.347656 218.273438 L 151.003906 218.273438 L 151.003906 224.609375 L 152.390625 224.609375 L 152.390625 225.703125 L 151.003906 225.703125 L 151.003906 227.996094 L 149.695312 227.996094 L 149.695312 225.703125 L 145.308594 225.703125 L 145.308594 224.433594 Z M 149.347656 218.273438 "/>
<path style=" stroke:none;fill-rule:nonzero;fill:rgb(0%,0%,0%);fill-opacity:1;" d="M 157.375 219.140625 C 156.699219 219.140625 156.191406 219.476562 155.847656 220.140625 C 155.507812 220.808594 155.335938 221.808594 155.335938 223.144531 C 155.335938 224.476562 155.507812 225.476562 155.847656 226.144531 C 156.191406 226.808594 156.699219 227.144531 157.375 227.144531 C 158.058594 227.144531 158.566406 226.808594 158.910156 226.144531 C 159.25 225.476562 159.421875 224.476562 159.421875 223.144531 C 159.421875 221.808594 159.25 220.808594 158.910156 220.140625 C 158.566406 219.476562 158.058594 219.140625 157.375 219.140625 Z M 157.375 218.101562 C 158.464844 218.101562 159.296875 218.53125 159.875 219.394531 C 160.449219 220.253906 160.734375 221.503906 160.734375 223.144531 C 160.734375 224.78125 160.449219 226.03125 159.875 226.894531 C 159.296875 227.753906 158.464844 228.183594 157.375 228.183594 C 156.285156 228.183594 155.453125 227.753906 154.878906 226.894531 C 154.304688 226.03125 154.015625 224.78125 154.015625 223.144531 C 154.015625 221.503906 154.304688 220.253906 154.878906 219.394531 C 155.453125 218.53125 156.285156 218.101562 157.375 218.101562 Z M 157.375 218.101562 "/>
<g clip-path="url(#clip4)" clip-rule="nonzero">
<path style="fill:none;stroke-width:0.8;stroke-linecap:square;stroke-linejoin:round;stroke:rgb(69.01961%,69.01961%,69.01961%);stroke-opacity:1;stroke-miterlimit:4;" d="M 150.720703 156.398438 L 150.720703 17.797852 " transform="matrix(1.333333,0,0,1.333333,0,0.000000000000028422)"/>
</g>
<path style="fill:none;stroke-width:0.8;stroke-linecap:butt;stroke-linejoin:round;stroke:rgb(0%,0%,0%);stroke-opacity:1;stroke-miterlimit:4;" d="M -0.00050354 0.000000000000028422 L -0.00050354 3.500977 " transform="matrix(1.333333,0,0,1.333333,200.961609,208.53125)"/>
<path style=" stroke:none;fill-rule:nonzero;fill:rgb(0%,0%,0%);fill-opacity:1;" d="M 196.878906 222.613281 C 196.289062 222.613281 195.820312 222.816406 195.476562 223.21875 C 195.132812 223.621094 194.960938 224.175781 194.960938 224.878906 C 194.960938 225.574219 195.132812 226.128906 195.476562 226.535156 C 195.820312 226.941406 196.289062 227.144531 196.878906 227.144531 C 197.46875 227.144531 197.9375 226.941406 198.28125 226.535156 C 198.625 226.128906 198.800781 225.574219 198.800781 224.878906 C 198.800781 224.175781 198.625 223.621094 198.28125 223.21875 C 197.9375 222.816406 197.46875 222.613281 196.878906 222.613281 Z M 199.492188 218.488281 L 199.492188 219.6875 C 199.160156 219.53125 198.828125 219.414062 198.492188 219.332031 C 198.15625 219.246094 197.820312 219.207031 197.492188 219.207031 C 196.621094 219.207031 195.960938 219.5 195.5 220.085938 C 195.042969 220.671875 194.78125 221.558594 194.71875 222.742188 C 194.972656 222.363281 195.292969 222.074219 195.679688 221.871094 C 196.066406 221.671875 196.492188 221.570312 196.957031 221.570312 C 197.933594 221.570312 198.707031 221.867188 199.273438 222.460938 C 199.839844 223.050781 200.121094 223.859375 200.121094 224.878906 C 200.121094 225.875 199.828125 226.675781 199.238281 227.28125 C 198.644531 227.882812 197.859375 228.183594 196.878906 228.183594 C 195.753906 228.183594 194.894531 227.753906 194.300781 226.894531 C 193.707031 226.03125 193.410156 224.78125 193.410156 223.144531 C 193.410156 221.609375 193.773438 220.382812 194.503906 219.472656 C 195.234375 218.558594 196.210938 218.101562 197.4375 218.101562 C 197.769531 218.101562 198.101562 218.132812 198.4375 218.199219 C 198.773438 218.261719 199.125 218.359375 199.492188 218.488281 Z M 199.492188 218.488281 "/>
<path style=" stroke:none;fill-rule:nonzero;fill:rgb(0%,0%,0%);fill-opacity:1;" d="M 205.199219 219.140625 C 204.523438 219.140625 204.011719 219.476562 203.671875 220.140625 C 203.332031 220.808594 203.160156 221.808594 203.160156 223.144531 C 203.160156 224.476562 203.332031 225.476562 203.671875 226.144531 C 204.011719 226.808594 204.523438 227.144531 205.199219 227.144531 C 205.878906 227.144531 206.390625 226.808594 206.730469 226.144531 C 207.074219 225.476562 207.246094 224.476562 207.246094 223.144531 C 207.246094 221.808594 207.074219 220.808594 206.730469 220.140625 C 206.390625 219.476562 205.878906 219.140625 205.199219 219.140625 Z M 205.199219 218.101562 C 206.289062 218.101562 207.121094 218.53125 207.695312 219.394531 C 208.273438 220.253906 208.558594 221.503906 208.558594 223.144531 C 208.558594 224.78125 208.273438 226.03125 207.695312 226.894531 C 207.121094 227.753906 206.289062 228.183594 205.199219 228.183594 C 204.109375 228.183594 203.277344 227.753906 202.703125 226.894531 C 202.128906 226.03125 201.839844 224.78125 201.839844 223.144531 C 201.839844 221.503906 202.128906 220.253906 202.703125 219.394531 C 203.277344 218.53125 204.109375 218.101562 205.199219 218.101562 Z M 205.199219 218.101562 "/>
<g clip-path="url(#clip5)" clip-rule="nonzero">
<path style="fill:none;stroke-width:0.8;stroke-linecap:square;stroke-linejoin:round;stroke:rgb(69.01961%,69.01961%,69.01961%);stroke-opacity:1;stroke-miterlimit:4;" d="M 186.588867 156.398438 L 186.588867 17.797852 " transform="matrix(1.333333,0,0,1.333333,0,0.000000000000028422)"/>
</g>
<path style="fill:none;stroke-width:0.8;stroke-linecap:butt;stroke-linejoin:round;stroke:rgb(0%,0%,0%);stroke-opacity:1;stroke-miterlimit:4;" d="M -0.000106812 0.000000000000028422 L -0.000106812 3.500977 " transform="matrix(1.333333,0,0,1.333333,248.785299,208.53125)"/>
<path style=" stroke:none;fill-rule:nonzero;fill:rgb(0%,0%,0%);fill-opacity:1;" d="M 244.539062 223.378906 C 243.914062 223.378906 243.421875 223.546875 243.066406 223.882812 C 242.707031 224.214844 242.527344 224.675781 242.527344 225.261719 C 242.527344 225.847656 242.707031 226.308594 243.066406 226.640625 C 243.421875 226.976562 243.914062 227.144531 244.539062 227.144531 C 245.164062 227.144531 245.65625 226.976562 246.015625 226.640625 C 246.378906 226.300781 246.558594 225.84375 246.558594 225.261719 C 246.558594 224.675781 246.378906 224.214844 246.019531 223.882812 C 245.664062 223.546875 245.171875 223.378906 244.539062 223.378906 Z M 243.226562 222.820312 C 242.660156 222.683594 242.222656 222.417969 241.90625 222.035156 C 241.59375 221.644531 241.433594 221.175781 241.433594 220.617188 C 241.433594 219.84375 241.710938 219.226562 242.265625 218.777344 C 242.820312 218.324219 243.578125 218.101562 244.539062 218.101562 C 245.507812 218.101562 246.265625 218.324219 246.820312 218.777344 C 247.371094 219.226562 247.644531 219.84375 247.644531 220.617188 C 247.644531 221.175781 247.488281 221.644531 247.171875 222.035156 C 246.859375 222.417969 246.421875 222.683594 245.863281 222.820312 C 246.496094 222.96875 246.988281 223.257812 247.339844 223.6875 C 247.695312 224.117188 247.871094 224.640625 247.871094 225.261719 C 247.871094 226.203125 247.585938 226.925781 247.011719 227.429688 C 246.433594 227.933594 245.613281 228.183594 244.539062 228.183594 C 243.46875 228.183594 242.644531 227.933594 242.070312 227.429688 C 241.492188 226.925781 241.207031 226.203125 241.207031 225.261719 C 241.207031 224.640625 241.382812 224.117188 241.738281 223.6875 C 242.097656 223.257812 242.589844 222.96875 243.226562 222.820312 Z M 242.742188 220.742188 C 242.742188 221.246094 242.902344 221.640625 243.214844 221.921875 C 243.53125 222.203125 243.972656 222.34375 244.539062 222.34375 C 245.105469 222.34375 245.546875 222.203125 245.863281 221.921875 C 246.183594 221.640625 246.34375 221.246094 246.34375 220.742188 C 246.34375 220.238281 246.183594 219.847656 245.863281 219.566406 C 245.546875 219.28125 245.105469 219.140625 244.539062 219.140625 C 243.972656 219.140625 243.53125 219.28125 243.214844 219.566406 C 242.902344 219.847656 242.742188 220.238281 242.742188 220.742188 Z M 242.742188 220.742188 "/>
<path style=" stroke:none;fill-rule:nonzero;fill:rgb(0%,0%,0%);fill-opacity:1;" d="M 253.023438 219.140625 C 252.347656 219.140625 251.835938 219.476562 251.496094 220.140625 C 251.15625 220.808594 250.984375 221.808594 250.984375 223.144531 C 250.984375 224.476562 251.15625 225.476562 251.496094 226.144531 C 251.835938 226.808594 252.347656 227.144531 253.023438 227.144531 C 253.703125 227.144531 254.214844 226.808594 254.554688 226.144531 C 254.898438 225.476562 255.070312 224.476562 255.070312 223.144531 C 255.070312 221.808594 254.898438 220.808594 254.554688 220.140625 C 254.214844 219.476562 253.703125 219.140625 253.023438 219.140625 Z M 253.023438 218.101562 C 254.113281 218.101562 254.945312 218.53125 255.519531 219.394531 C 256.09375 220.253906 256.382812 221.503906 256.382812 223.144531 C 256.382812 224.78125 256.09375 226.03125 255.519531 226.894531 C 254.945312 227.753906 254.113281 228.183594 253.023438 228.183594 C 251.933594 228.183594 251.101562 227.753906 250.527344 226.894531 C 249.953125 226.03125 249.664062 224.78125 249.664062 223.144531 C 249.664062 221.503906 249.953125 220.253906 250.527344 219.394531 C 251.101562 218.53125 251.933594 218.101562 253.023438 218.101562 Z M 253.023438 218.101562 "/>
<g clip-path="url(#clip6)" clip-rule="nonzero">
<path style="fill:none;stroke-width:0.8;stroke-linecap:square;stroke-linejoin:round;stroke:rgb(69.01961%,69.01961%,69.01961%);stroke-opacity:1;stroke-miterlimit:4;" d="M 222.457031 156.398438 L 222.457031 17.797852 " transform="matrix(1.333333,0,0,1.333333,0,0.000000000000028422)"/>
</g>
<path style="fill:none;stroke-width:0.8;stroke-linecap:butt;stroke-linejoin:round;stroke:rgb(0%,0%,0%);stroke-opacity:1;stroke-miterlimit:4;" d="M 0.000289917 0.000000000000028422 L 0.000289917 3.500977 " transform="matrix(1.333333,0,0,1.333333,296.608988,208.53125)"/>
<path style=" stroke:none;fill-rule:nonzero;fill:rgb(0%,0%,0%);fill-opacity:1;" d="M 285.539062 226.890625 L 287.6875 226.890625 L 287.6875 219.472656 L 285.347656 219.941406 L 285.347656 218.742188 L 287.671875 218.273438 L 288.988281 218.273438 L 288.988281 226.890625 L 291.136719 226.890625 L 291.136719 227.996094 L 285.539062 227.996094 Z M 285.539062 226.890625 "/>
<path style=" stroke:none;fill-rule:nonzero;fill:rgb(0%,0%,0%);fill-opacity:1;" d="M 296.605469 219.140625 C 295.929688 219.140625 295.417969 219.476562 295.078125 220.140625 C 294.738281 220.808594 294.566406 221.808594 294.566406 223.144531 C 294.566406 224.476562 294.738281 225.476562 295.078125 226.144531 C 295.417969 226.808594 295.929688 227.144531 296.605469 227.144531 C 297.285156 227.144531 297.796875 226.808594 298.136719 226.144531 C 298.480469 225.476562 298.652344 224.476562 298.652344 223.144531 C 298.652344 221.808594 298.480469 220.808594 298.136719 220.140625 C 297.796875 219.476562 297.285156 219.140625 296.605469 219.140625 Z M 296.605469 218.101562 C 297.695312 218.101562 298.527344 218.53125 299.101562 219.394531 C 299.675781 220.253906 299.964844 221.503906 299.964844 223.144531 C 299.964844 224.78125 299.675781 226.03125 299.101562 226.894531 C 298.527344 227.753906 297.695312 228.183594 296.605469 228.183594 C 295.515625 228.183594 294.683594 227.753906 294.109375 226.894531 C 293.535156 226.03125 293.246094 224.78125 293.246094 223.144531 C 293.246094 221.503906 293.535156 220.253906 294.109375 219.394531 C 294.683594 218.53125 295.515625 218.101562 296.605469 218.101562 Z M 296.605469 218.101562 "/>
<path style=" stroke:none;fill-rule:nonzero;fill:rgb(0%,0%,0%);fill-opacity:1;" d="M 305.085938 219.140625 C 304.410156 219.140625 303.902344 219.476562 303.5625 220.140625 C 303.21875 220.808594 303.050781 221.808594 303.050781 223.144531 C 303.050781 224.476562 303.21875 225.476562 303.5625 226.144531 C 303.902344 226.808594 304.410156 227.144531 305.085938 227.144531 C 305.769531 227.144531 306.28125 226.808594 306.621094 226.144531 C 306.960938 225.476562 307.132812 224.476562 307.132812 223.144531 C 307.132812 221.808594 306.960938 220.808594 306.621094 220.140625 C 306.28125 219.476562 305.769531 219.140625 305.085938 219.140625 Z M 305.085938 218.101562 C 306.179688 218.101562 307.011719 218.53125 307.585938 219.394531 C 308.160156 220.253906 308.449219 221.503906 308.449219 223.144531 C 308.449219 224.78125 308.160156 226.03125 307.585938 226.894531 C 307.011719 227.753906 306.179688 228.183594 305.085938 228.183594 C 304 228.183594 303.167969 227.753906 302.59375 226.894531 C 302.015625 226.03125 301.730469 224.78125 301.730469 223.144531 C 301.730469 221.503906 302.015625 220.253906 302.59375 219.394531 C 303.167969 218.53125 304 218.101562 305.085938 218.101562 Z M 305.085938 218.101562 "/>
<path style=" stroke:none;fill-rule:nonzero;fill:rgb(0%,0%,0%);fill-opacity:1;" d="M 148.882812 236.511719 L 150.199219 236.511719 L 150.199219 246.234375 L 148.882812 246.234375 Z M 148.882812 236.511719 "/>
<path style=" stroke:none;fill-rule:nonzero;fill:rgb(0%,0%,0%);fill-opacity:1;" d="M 153.949219 236.871094 L 153.949219 238.941406 L 156.417969 238.941406 L 156.417969 239.871094 L 153.949219 239.871094 L 153.949219 243.832031 C 153.949219 244.425781 154.03125 244.808594 154.195312 244.976562 C 154.355469 245.148438 154.6875 245.230469 155.1875 245.230469 L 156.417969 245.230469 L 156.417969 246.234375 L 155.1875 246.234375 C 154.261719 246.234375 153.625 246.0625 153.273438 245.714844 C 152.921875 245.371094 152.746094 244.742188 152.746094 243.832031 L 152.746094 239.871094 L 151.867188 239.871094 L 151.867188 238.941406 L 152.746094 238.941406 L 152.746094 236.871094 Z M 153.949219 236.871094 "/>
<path style=" stroke:none;fill-rule:nonzero;fill:rgb(0%,0%,0%);fill-opacity:1;" d="M 164.230469 242.289062 L 164.230469 242.871094 L 158.722656 242.871094 C 158.773438 243.699219 159.023438 244.328125 159.46875 244.757812 C 159.910156 245.191406 160.53125 245.40625 161.324219 245.40625 C 161.785156 245.40625 162.230469 245.351562 162.664062 245.238281 C 163.09375 245.125 163.523438 244.957031 163.949219 244.730469 L 163.949219 245.863281 C 163.519531 246.042969 163.078125 246.183594 162.628906 246.277344 C 162.175781 246.375 161.71875 246.421875 161.253906 246.421875 C 160.089844 246.421875 159.167969 246.085938 158.492188 245.410156 C 157.8125 244.730469 157.472656 243.8125 157.472656 242.660156 C 157.472656 241.464844 157.792969 240.519531 158.4375 239.820312 C 159.082031 239.117188 159.953125 238.765625 161.046875 238.765625 C 162.027344 238.765625 162.804688 239.082031 163.375 239.714844 C 163.945312 240.34375 164.230469 241.203125 164.230469 242.289062 Z M 163.03125 241.933594 C 163.023438 241.28125 162.839844 240.757812 162.480469 240.367188 C 162.125 239.976562 161.648438 239.78125 161.058594 239.78125 C 160.390625 239.78125 159.855469 239.96875 159.453125 240.347656 C 159.054688 240.726562 158.824219 241.257812 158.761719 241.945312 Z M 163.03125 241.933594 "/>
<path style=" stroke:none;fill-rule:nonzero;fill:rgb(0%,0%,0%);fill-opacity:1;" d="M 170.421875 240.058594 C 170.285156 239.984375 170.140625 239.925781 169.980469 239.890625 C 169.824219 239.851562 169.648438 239.832031 169.457031 239.832031 C 168.78125 239.832031 168.261719 240.054688 167.898438 240.492188 C 167.535156 240.933594 167.355469 241.566406 167.355469 242.390625 L 167.355469 246.234375 L 166.148438 246.234375 L 166.148438 238.941406 L 167.355469 238.941406 L 167.355469 240.074219 C 167.605469 239.632812 167.933594 239.304688 168.335938 239.089844 C 168.742188 238.875 169.230469 238.765625 169.808594 238.765625 C 169.890625 238.765625 169.984375 238.773438 170.082031 238.785156 C 170.183594 238.792969 170.292969 238.808594 170.414062 238.832031 Z M 170.421875 240.058594 "/>
<path style=" stroke:none;fill-rule:nonzero;fill:rgb(0%,0%,0%);fill-opacity:1;" d="M 174.992188 242.570312 C 174.023438 242.570312 173.351562 242.679688 172.980469 242.898438 C 172.605469 243.121094 172.417969 243.5 172.417969 244.035156 C 172.417969 244.457031 172.558594 244.796875 172.839844 245.046875 C 173.121094 245.292969 173.5 245.417969 173.980469 245.417969 C 174.648438 245.417969 175.179688 245.183594 175.582031 244.710938 C 175.984375 244.242188 176.183594 243.617188 176.183594 242.835938 L 176.183594 242.570312 Z M 177.382812 242.074219 L 177.382812 246.234375 L 176.183594 246.234375 L 176.183594 245.128906 C 175.910156 245.570312 175.570312 245.894531 175.160156 246.105469 C 174.753906 246.316406 174.253906 246.421875 173.664062 246.421875 C 172.917969 246.421875 172.324219 246.214844 171.882812 245.792969 C 171.441406 245.375 171.222656 244.8125 171.222656 244.109375 C 171.222656 243.289062 171.496094 242.671875 172.042969 242.257812 C 172.59375 241.839844 173.414062 241.632812 174.503906 241.632812 L 176.183594 241.632812 L 176.183594 241.511719 C 176.183594 240.960938 176.003906 240.535156 175.640625 240.234375 C 175.277344 239.933594 174.769531 239.78125 174.113281 239.78125 C 173.695312 239.78125 173.289062 239.832031 172.894531 239.929688 C 172.5 240.03125 172.121094 240.179688 171.757812 240.382812 L 171.757812 239.273438 C 172.195312 239.101562 172.617188 238.976562 173.03125 238.894531 C 173.445312 238.808594 173.84375 238.765625 174.234375 238.765625 C 175.292969 238.765625 176.078125 239.039062 176.601562 239.585938 C 177.121094 240.132812 177.382812 240.960938 177.382812 242.074219 Z M 177.382812 242.074219 "/>
<path style=" stroke:none;fill-rule:nonzero;fill:rgb(0%,0%,0%);fill-opacity:1;" d="M 181.035156 236.871094 L 181.035156 238.941406 L 183.5 238.941406 L 183.5 239.871094 L 181.035156 239.871094 L 181.035156 243.832031 C 181.035156 244.425781 181.113281 244.808594 181.277344 244.976562 C 181.441406 245.148438 181.769531 245.230469 182.269531 245.230469 L 183.5 245.230469 L 183.5 246.234375 L 182.269531 246.234375 C 181.347656 246.234375 180.707031 246.0625 180.355469 245.714844 C 180.003906 245.371094 179.828125 244.742188 179.828125 243.832031 L 179.828125 239.871094 L 178.949219 239.871094 L 178.949219 238.941406 L 179.828125 238.941406 L 179.828125 236.871094 Z M 181.035156 236.871094 "/>
<path style=" stroke:none;fill-rule:nonzero;fill:rgb(0%,0%,0%);fill-opacity:1;" d="M 185.074219 238.941406 L 186.273438 238.941406 L 186.273438 246.234375 L 185.074219 246.234375 Z M 185.074219 236.101562 L 186.273438 236.101562 L 186.273438 237.621094 L 185.074219 237.621094 Z M 185.074219 236.101562 "/>
<path style=" stroke:none;fill-rule:nonzero;fill:rgb(0%,0%,0%);fill-opacity:1;" d="M 191.605469 239.78125 C 190.964844 239.78125 190.457031 240.03125 190.082031 240.535156 C 189.707031 241.035156 189.523438 241.722656 189.523438 242.59375 C 189.523438 243.464844 189.707031 244.152344 190.078125 244.652344 C 190.449219 245.15625 190.960938 245.40625 191.605469 245.40625 C 192.242188 245.40625 192.75 245.15625 193.121094 244.652344 C 193.496094 244.148438 193.683594 243.460938 193.683594 242.59375 C 193.683594 241.730469 193.496094 241.046875 193.121094 240.539062 C 192.75 240.035156 192.242188 239.78125 191.605469 239.78125 Z M 191.605469 238.765625 C 192.648438 238.765625 193.464844 239.105469 194.058594 239.785156 C 194.65625 240.460938 194.953125 241.398438 194.953125 242.59375 C 194.953125 243.785156 194.65625 244.722656 194.058594 245.402344 C 193.464844 246.082031 192.648438 246.421875 191.605469 246.421875 C 190.558594 246.421875 189.738281 246.082031 189.148438 245.402344 C 188.554688 244.722656 188.257812 243.785156 188.257812 242.59375 C 188.257812 241.398438 188.554688 240.460938 189.148438 239.785156 C 189.738281 239.105469 190.558594 238.765625 191.605469 238.765625 Z M 191.605469 238.765625 "/>
<path style=" stroke:none;fill-rule:nonzero;fill:rgb(0%,0%,0%);fill-opacity:1;" d="M 203 241.832031 L 203 246.234375 L 201.800781 246.234375 L 201.800781 241.871094 C 201.800781 241.179688 201.667969 240.664062 201.398438 240.324219 C 201.128906 239.980469 200.726562 239.808594 200.1875 239.808594 C 199.539062 239.808594 199.03125 240.015625 198.65625 240.425781 C 198.28125 240.839844 198.097656 241.398438 198.097656 242.113281 L 198.097656 246.234375 L 196.890625 246.234375 L 196.890625 238.941406 L 198.097656 238.941406 L 198.097656 240.074219 C 198.382812 239.636719 198.722656 239.308594 199.109375 239.089844 C 199.496094 238.875 199.945312 238.765625 200.453125 238.765625 C 201.292969 238.765625 201.925781 239.027344 202.355469 239.542969 C 202.785156 240.0625 203 240.824219 203 241.832031 Z M 203 241.832031 "/>
<g clip-path="url(#clip7)" clip-rule="nonzero">
<path style="fill:none;stroke-width:0.8;stroke-linecap:square;stroke-linejoin:round;stroke:rgb(69.01961%,69.01961%,69.01961%);stroke-opacity:1;stroke-miterlimit:4;" d="M 34.239258 150.099609 L 229.541016 150.099609 " transform="matrix(1.333333,0,0,1.333333,0,0.000000000000028422)"/>
</g>
<path style="fill:none;stroke-width:0.8;stroke-linecap:butt;stroke-linejoin:round;stroke:rgb(0%,0%,0%);stroke-opacity:1;stroke-miterlimit:4;" d="M -0.00136566 0.00117493 L -3.499413 0.00117493 " transform="matrix(1.333333,0,0,1.333333,45.654165,200.131246)"/>
<path style=" stroke:none;fill-rule:nonzero;fill:rgb(0%,0%,0%);fill-opacity:1;" d="M 32.074219 196.34375 C 31.398438 196.34375 30.890625 196.675781 30.546875 197.34375 C 30.207031 198.007812 30.039062 199.007812 30.039062 200.347656 C 30.039062 201.679688 30.207031 202.679688 30.546875 203.34375 C 30.890625 204.011719 31.398438 204.34375 32.074219 204.34375 C 32.757812 204.34375 33.269531 204.011719 33.609375 203.34375 C 33.949219 202.679688 34.121094 201.679688 34.121094 200.347656 C 34.121094 199.007812 33.949219 198.007812 33.609375 197.34375 C 33.269531 196.675781 32.757812 196.34375 32.074219 196.34375 Z M 32.074219 195.300781 C 33.164062 195.300781 33.996094 195.730469 34.574219 196.59375 C 35.148438 197.457031 35.433594 198.707031 35.433594 200.347656 C 35.433594 201.984375 35.148438 203.230469 34.574219 204.09375 C 33.996094 204.957031 33.164062 205.386719 32.074219 205.386719 C 30.984375 205.386719 30.152344 204.957031 29.578125 204.09375 C 29.003906 203.230469 28.714844 201.984375 28.714844 200.347656 C 28.714844 198.707031 29.003906 197.457031 29.578125 196.59375 C 30.152344 195.730469 30.984375 195.300781 32.074219 195.300781 Z M 32.074219 195.300781 "/>
<g clip-path="url(#clip8)" clip-rule="nonzero">
<path style="fill:none;stroke-width:0.8;stroke-linecap:square;stroke-linejoin:round;stroke:rgb(69.01961%,69.01961%,69.01961%);stroke-opacity:1;stroke-miterlimit:4;" d="M 34.239258 117.697266 L 229.541016 117.697266 " transform="matrix(1.333333,0,0,1.333333,0,0.000000000000028422)"/>
</g>
<path style="fill:none;stroke-width:0.8;stroke-linecap:butt;stroke-linejoin:round;stroke:rgb(0%,0%,0%);stroke-opacity:1;stroke-miterlimit:4;" d="M -0.00136566 0.000968933 L -3.499413 0.000968933 " transform="matrix(1.333333,0,0,1.333333,45.654165,156.928396)"/>
<path style=" stroke:none;fill-rule:nonzero;fill:rgb(0%,0%,0%);fill-opacity:1;" d="M 29.492188 160.886719 L 31.640625 160.886719 L 31.640625 153.472656 L 29.300781 153.941406 L 29.300781 152.742188 L 31.628906 152.273438 L 32.941406 152.273438 L 32.941406 160.886719 L 35.089844 160.886719 L 35.089844 161.992188 L 29.492188 161.992188 Z M 29.492188 160.886719 "/>
<g clip-path="url(#clip9)" clip-rule="nonzero">
<path style="fill:none;stroke-width:0.8;stroke-linecap:square;stroke-linejoin:round;stroke:rgb(69.01961%,69.01961%,69.01961%);stroke-opacity:1;stroke-miterlimit:4;" d="M 34.239258 85.294922 L 229.541016 85.294922 " transform="matrix(1.333333,0,0,1.333333,0,0.000000000000028422)"/>
</g>
<path style="fill:none;stroke-width:0.8;stroke-linecap:butt;stroke-linejoin:round;stroke:rgb(0%,0%,0%);stroke-opacity:1;stroke-miterlimit:4;" d="M -0.00136566 0.000762939 L -3.499413 0.000762939 " transform="matrix(1.333333,0,0,1.333333,45.654165,113.725545)"/>
<path style=" stroke:none;fill-rule:nonzero;fill:rgb(0%,0%,0%);fill-opacity:1;" d="M 30.394531 117.683594 L 34.984375 117.683594 L 34.984375 118.792969 L 28.816406 118.792969 L 28.816406 117.683594 C 29.3125 117.167969 29.992188 116.476562 30.855469 115.605469 C 31.714844 114.734375 32.257812 114.171875 32.480469 113.921875 C 32.898438 113.449219 33.195312 113.046875 33.359375 112.71875 C 33.527344 112.390625 33.613281 112.070312 33.613281 111.753906 C 33.613281 111.238281 33.429688 110.816406 33.070312 110.492188 C 32.707031 110.164062 32.234375 110 31.652344 110 C 31.238281 110 30.804688 110.074219 30.347656 110.214844 C 29.890625 110.359375 29.398438 110.578125 28.878906 110.867188 L 28.878906 109.539062 C 29.410156 109.328125 29.902344 109.167969 30.363281 109.058594 C 30.824219 108.949219 31.246094 108.894531 31.628906 108.894531 C 32.632812 108.894531 33.4375 109.148438 34.035156 109.652344 C 34.632812 110.15625 34.933594 110.828125 34.933594 111.667969 C 34.933594 112.066406 34.859375 112.449219 34.707031 112.804688 C 34.558594 113.164062 34.289062 113.585938 33.890625 114.070312 C 33.785156 114.195312 33.4375 114.5625 32.855469 115.160156 C 32.277344 115.761719 31.457031 116.605469 30.394531 117.683594 Z M 30.394531 117.683594 "/>
<g clip-path="url(#clip10)" clip-rule="nonzero">
<path style="fill:none;stroke-width:0.8;stroke-linecap:square;stroke-linejoin:round;stroke:rgb(69.01961%,69.01961%,69.01961%);stroke-opacity:1;stroke-miterlimit:4;" d="M 34.239258 52.892578 L 229.541016 52.892578 " transform="matrix(1.333333,0,0,1.333333,0,0.000000000000028422)"/>
</g>
<path style="fill:none;stroke-width:0.8;stroke-linecap:butt;stroke-linejoin:round;stroke:rgb(0%,0%,0%);stroke-opacity:1;stroke-miterlimit:4;" d="M -0.00136566 0.00056076 L -3.499413 0.00056076 " transform="matrix(1.333333,0,0,1.333333,45.654165,70.52269)"/>
<path style=" stroke:none;fill-rule:nonzero;fill:rgb(0%,0%,0%);fill-opacity:1;" d="M 33.246094 70.347656 C 33.878906 70.480469 34.367188 70.761719 34.722656 71.1875 C 35.074219 71.613281 35.253906 72.136719 35.253906 72.761719 C 35.253906 73.722656 34.921875 74.464844 34.261719 74.992188 C 33.601562 75.515625 32.664062 75.777344 31.449219 75.777344 C 31.042969 75.777344 30.625 75.738281 30.191406 75.65625 C 29.757812 75.578125 29.3125 75.457031 28.855469 75.292969 L 28.855469 74.027344 C 29.21875 74.238281 29.617188 74.398438 30.050781 74.507812 C 30.484375 74.617188 30.9375 74.667969 31.414062 74.667969 C 32.234375 74.667969 32.863281 74.507812 33.296875 74.183594 C 33.726562 73.855469 33.945312 73.382812 33.945312 72.761719 C 33.945312 72.191406 33.742188 71.742188 33.339844 71.417969 C 32.941406 71.097656 32.382812 70.933594 31.667969 70.933594 L 30.535156 70.933594 L 30.535156 69.851562 L 31.71875 69.851562 C 32.363281 69.851562 32.859375 69.722656 33.203125 69.464844 C 33.546875 69.207031 33.714844 68.835938 33.714844 68.347656 C 33.714844 67.851562 33.539062 67.46875 33.183594 67.199219 C 32.832031 66.933594 32.328125 66.796875 31.667969 66.796875 C 31.304688 66.796875 30.917969 66.839844 30.507812 66.917969 C 30.09375 66.996094 29.640625 67.117188 29.144531 67.28125 L 29.144531 66.109375 C 29.644531 65.96875 30.113281 65.867188 30.550781 65.796875 C 30.984375 65.726562 31.398438 65.691406 31.785156 65.691406 C 32.78125 65.691406 33.570312 65.917969 34.152344 66.375 C 34.734375 66.828125 35.023438 67.4375 35.023438 68.210938 C 35.023438 68.75 34.871094 69.203125 34.5625 69.574219 C 34.253906 69.945312 33.816406 70.203125 33.246094 70.347656 Z M 33.246094 70.347656 "/>
<g clip-path="url(#clip11)" clip-rule="nonzero">
<path style="fill:none;stroke-width:0.8;stroke-linecap:square;stroke-linejoin:round;stroke:rgb(69.01961%,69.01961%,69.01961%);stroke-opacity:1;stroke-miterlimit:4;" d="M 34.239258 20.490234 L 229.541016 20.490234 " transform="matrix(1.333333,0,0,1.333333,0,0.000000000000028422)"/>
</g>
<path style="fill:none;stroke-width:0.8;stroke-linecap:butt;stroke-linejoin:round;stroke:rgb(0%,0%,0%);stroke-opacity:1;stroke-miterlimit:4;" d="M -0.00136566 0.000354767 L -3.499413 0.000354767 " transform="matrix(1.333333,0,0,1.333333,45.654165,27.319839)"/>
<path style=" stroke:none;fill-rule:nonzero;fill:rgb(0%,0%,0%);fill-opacity:1;" d="M 32.878906 23.808594 L 29.554688 29 L 32.878906 29 Z M 32.53125 22.664062 L 34.183594 22.664062 L 34.183594 29 L 35.574219 29 L 35.574219 30.09375 L 34.183594 30.09375 L 34.183594 32.386719 L 32.878906 32.386719 L 32.878906 30.09375 L 28.488281 30.09375 L 28.488281 28.824219 Z M 32.53125 22.664062 "/>
<path style=" stroke:none;fill-rule:nonzero;fill:rgb(0%,0%,0%);fill-opacity:1;" d="M 19.730469 130.625 L 10.011719 134.335938 L 10.011719 132.960938 L 18.195312 129.882812 L 10.011719 126.796875 L 10.011719 125.429688 L 19.730469 129.132812 Z M 19.730469 130.625 "/>
<path style=" stroke:none;fill-rule:nonzero;fill:rgb(0%,0%,0%);fill-opacity:1;" d="M 16.066406 121.78125 C 16.066406 122.75 16.175781 123.417969 16.398438 123.792969 C 16.617188 124.167969 16.996094 124.355469 17.53125 124.355469 C 17.957031 124.355469 18.292969 124.214844 18.542969 123.933594 C 18.792969 123.652344 18.917969 123.273438 18.917969 122.792969 C 18.917969 122.125 18.679688 121.59375 18.210938 121.191406 C 17.738281 120.789062 17.113281 120.589844 16.332031 120.589844 L 16.066406 120.589844 Z M 15.570312 119.390625 L 19.730469 119.390625 L 19.730469 120.589844 L 18.625 120.589844 C 19.066406 120.863281 19.394531 121.203125 19.605469 121.613281 C 19.816406 122.019531 19.921875 122.519531 19.921875 123.109375 C 19.921875 123.855469 19.710938 124.449219 19.292969 124.890625 C 18.871094 125.332031 18.3125 125.550781 17.609375 125.550781 C 16.789062 125.550781 16.171875 125.277344 15.753906 124.730469 C 15.335938 124.179688 15.128906 123.359375 15.128906 122.269531 L 15.128906 120.589844 L 15.011719 120.589844 C 14.460938 120.589844 14.03125 120.769531 13.730469 121.132812 C 13.429688 121.496094 13.277344 122.003906 13.277344 122.660156 C 13.277344 123.078125 13.328125 123.484375 13.429688 123.878906 C 13.527344 124.273438 13.679688 124.652344 13.878906 125.015625 L 12.769531 125.015625 C 12.601562 124.578125 12.476562 124.152344 12.390625 123.742188 C 12.308594 123.328125 12.265625 122.925781 12.265625 122.539062 C 12.265625 121.480469 12.539062 120.695312 13.085938 120.171875 C 13.632812 119.652344 14.460938 119.390625 15.570312 119.390625 Z M 15.570312 119.390625 "/>
<path style=" stroke:none;fill-rule:nonzero;fill:rgb(0%,0%,0%);fill-opacity:1;" d="M 9.601562 116.925781 L 9.601562 115.726562 L 19.730469 115.726562 L 19.730469 116.925781 Z M 9.601562 116.925781 "/>
<path style=" stroke:none;fill-rule:nonzero;fill:rgb(0%,0%,0%);fill-opacity:1;" d="M 16.855469 113.34375 L 12.441406 113.34375 L 12.441406 112.144531 L 16.808594 112.144531 C 17.5 112.144531 18.015625 112.011719 18.363281 111.742188 C 18.707031 111.472656 18.878906 111.070312 18.878906 110.53125 C 18.878906 109.886719 18.671875 109.375 18.261719 109 C 17.847656 108.625 17.285156 108.433594 16.574219 108.433594 L 12.441406 108.433594 L 12.441406 107.238281 L 19.730469 107.238281 L 19.730469 108.433594 L 18.609375 108.433594 C 19.054688 108.726562 19.382812 109.0625 19.597656 109.449219 C 19.8125 109.832031 19.921875 110.277344 19.921875 110.785156 C 19.921875 111.621094 19.660156 112.257812 19.140625 112.695312 C 18.617188 113.125 17.855469 113.34375 16.855469 113.34375 Z M 12.265625 110.328125 Z M 12.265625 110.328125 "/>
<path style=" stroke:none;fill-rule:nonzero;fill:rgb(0%,0%,0%);fill-opacity:1;" d="M 15.785156 98.53125 L 16.371094 98.53125 L 16.371094 104.039062 C 17.195312 103.988281 17.824219 103.738281 18.257812 103.296875 C 18.6875 102.851562 18.902344 102.230469 18.902344 101.4375 C 18.902344 100.976562 18.847656 100.53125 18.734375 100.097656 C 18.621094 99.667969 18.453125 99.238281 18.226562 98.8125 L 19.359375 98.8125 C 19.542969 99.242188 19.679688 99.683594 19.777344 100.132812 C 19.871094 100.585938 19.921875 101.042969 19.921875 101.507812 C 19.921875 102.671875 19.582031 103.59375 18.90625 104.273438 C 18.226562 104.953125 17.3125 105.289062 16.15625 105.289062 C 14.964844 105.289062 14.015625 104.96875 13.316406 104.324219 C 12.617188 103.679688 12.265625 102.808594 12.265625 101.714844 C 12.265625 100.734375 12.582031 99.960938 13.210938 99.390625 C 13.84375 98.816406 14.699219 98.53125 15.785156 98.53125 Z M 15.433594 99.730469 C 14.777344 99.738281 14.257812 99.921875 13.867188 100.28125 C 13.476562 100.640625 13.277344 101.113281 13.277344 101.703125 C 13.277344 102.371094 13.46875 102.90625 13.847656 103.308594 C 14.222656 103.707031 14.753906 103.941406 15.441406 104 Z M 15.433594 99.730469 "/>
<path style=" stroke:none;fill-rule:nonzero;fill:rgb(0%,0%,0%);fill-opacity:1;" d="M 47.308594 18.625 L 49.457031 18.625 L 49.457031 11.207031 L 47.117188 11.675781 L 47.117188 10.480469 L 49.445312 10.011719 L 50.757812 10.011719 L 50.757812 18.625 L 52.90625 18.625 L 52.90625 19.730469 L 47.308594 19.730469 Z M 47.308594 18.625 "/>
<path style=" stroke:none;fill-rule:nonzero;fill:rgb(0%,0%,0%);fill-opacity:1;" d="M 61.632812 15.785156 L 61.632812 16.371094 L 56.121094 16.371094 C 56.175781 17.195312 56.425781 17.824219 56.867188 18.257812 C 57.3125 18.6875 57.933594 18.902344 58.726562 18.902344 C 59.1875 18.902344 59.632812 18.847656 60.0625 18.734375 C 60.496094 18.621094 60.925781 18.453125 61.351562 18.226562 L 61.351562 19.359375 C 60.921875 19.542969 60.480469 19.679688 60.027344 19.777344 C 59.578125 19.871094 59.121094 19.921875 58.65625 19.921875 C 57.492188 19.921875 56.570312 19.582031 55.890625 18.90625 C 55.210938 18.226562 54.871094 17.3125 54.871094 16.15625 C 54.871094 14.964844 55.195312 14.015625 55.839844 13.316406 C 56.484375 12.617188 57.351562 12.265625 58.449219 12.265625 C 59.429688 12.265625 60.203125 12.582031 60.773438 13.210938 C 61.34375 13.84375 61.632812 14.699219 61.632812 15.785156 Z M 60.433594 15.433594 C 60.425781 14.777344 60.242188 14.257812 59.882812 13.867188 C 59.523438 13.476562 59.050781 13.277344 58.460938 13.277344 C 57.792969 13.277344 57.257812 13.46875 56.855469 13.847656 C 56.453125 14.222656 56.222656 14.753906 56.164062 15.441406 Z M 60.433594 15.433594 "/>
<path style=" stroke:none;fill-rule:nonzero;fill:rgb(0%,0%,0%);fill-opacity:1;" d="M 67.75 14.488281 C 68.378906 14.625 68.871094 14.90625 69.222656 15.332031 C 69.578125 15.757812 69.753906 16.28125 69.753906 16.90625 C 69.753906 17.863281 69.425781 18.605469 68.765625 19.132812 C 68.105469 19.660156 67.167969 19.921875 65.953125 19.921875 C 65.546875 19.921875 65.125 19.878906 64.695312 19.800781 C 64.261719 19.71875 63.816406 19.597656 63.355469 19.4375 L 63.355469 18.167969 C 63.722656 18.382812 64.121094 18.542969 64.554688 18.648438 C 64.988281 18.757812 65.441406 18.8125 65.914062 18.8125 C 66.738281 18.8125 67.367188 18.648438 67.796875 18.324219 C 68.230469 18 68.445312 17.527344 68.445312 16.90625 C 68.445312 16.332031 68.246094 15.882812 67.84375 15.5625 C 67.441406 15.238281 66.886719 15.078125 66.167969 15.078125 L 65.035156 15.078125 L 65.035156 13.996094 L 66.222656 13.996094 C 66.867188 13.996094 67.363281 13.867188 67.703125 13.609375 C 68.046875 13.351562 68.21875 12.976562 68.21875 12.492188 C 68.21875 11.992188 68.042969 11.609375 67.6875 11.34375 C 67.335938 11.074219 66.828125 10.941406 66.167969 10.941406 C 65.808594 10.941406 65.421875 10.980469 65.007812 11.058594 C 64.597656 11.136719 64.144531 11.257812 63.648438 11.421875 L 63.648438 10.253906 C 64.148438 10.113281 64.617188 10.007812 65.054688 9.941406 C 65.488281 9.871094 65.898438 9.835938 66.285156 9.835938 C 67.285156 9.835938 68.074219 10.0625 68.65625 10.515625 C 69.238281 10.96875 69.527344 11.582031 69.527344 12.355469 C 69.527344 12.894531 69.375 13.347656 69.066406 13.71875 C 68.757812 14.089844 68.320312 14.347656 67.75 14.488281 Z M 67.75 14.488281 "/>
<path style=" stroke:none;fill-rule:nonzero;fill:rgb(0%,0%,0%);fill-opacity:1;" d="M 75.0625 15.113281 C 74.4375 15.113281 73.945312 15.28125 73.585938 15.617188 C 73.230469 15.953125 73.050781 16.410156 73.050781 16.996094 C 73.050781 17.582031 73.230469 18.042969 73.585938 18.378906 C 73.945312 18.710938 74.4375 18.878906 75.0625 18.878906 C 75.6875 18.878906 76.179688 18.710938 76.539062 18.375 C 76.898438 18.039062 77.078125 17.578125 77.078125 16.996094 C 77.078125 16.410156 76.902344 15.953125 76.542969 15.617188 C 76.183594 15.28125 75.691406 15.113281 75.0625 15.113281 Z M 73.746094 14.554688 C 73.183594 14.417969 72.742188 14.15625 72.425781 13.769531 C 72.113281 13.382812 71.957031 12.910156 71.957031 12.355469 C 71.957031 11.578125 72.234375 10.964844 72.785156 10.511719 C 73.339844 10.0625 74.097656 9.835938 75.0625 9.835938 C 76.027344 9.835938 76.789062 10.0625 77.339844 10.511719 C 77.890625 10.964844 78.167969 11.578125 78.167969 12.355469 C 78.167969 12.910156 78.007812 13.382812 77.695312 13.769531 C 77.378906 14.15625 76.945312 14.417969 76.382812 14.554688 C 77.015625 14.703125 77.511719 14.992188 77.863281 15.421875 C 78.21875 15.851562 78.394531 16.375 78.394531 16.996094 C 78.394531 17.9375 78.105469 18.664062 77.53125 19.167969 C 76.957031 19.667969 76.132812 19.921875 75.0625 19.921875 C 73.988281 19.921875 73.167969 19.667969 72.589844 19.167969 C 72.015625 18.664062 71.726562 17.9375 71.726562 16.996094 C 71.726562 16.375 71.90625 15.851562 72.261719 15.421875 C 72.617188 14.992188 73.113281 14.703125 73.746094 14.554688 Z M 73.265625 12.480469 C 73.265625 12.980469 73.421875 13.375 73.734375 13.65625 C 74.050781 13.9375 74.492188 14.078125 75.0625 14.078125 C 75.625 14.078125 76.066406 13.9375 76.386719 13.65625 C 76.707031 13.375 76.863281 12.980469 76.863281 12.480469 C 76.863281 11.976562 76.707031 11.582031 76.386719 11.300781 C 76.066406 11.019531 75.625 10.878906 75.0625 10.878906 C 74.492188 10.878906 74.050781 11.019531 73.734375 11.300781 C 73.421875 11.582031 73.265625 11.976562 73.265625 12.480469 Z M 73.265625 12.480469 "/>
<path style="fill:none;stroke-width:1.5;stroke-linecap:square;stroke-linejoin:round;stroke:rgb(12.156863%,46.666667%,70.588237%);stroke-opacity:1;stroke-miterlimit:4;" d="M 43.119141 150.099609 L 193.763672 150.099609 L 195.556641 150.09668 L 199.142578 150.09668 L 200.935547 150.09082 L 202.728516 150.082031 L 204.521484 150.058594 L 206.317383 150.00293 L 208.110352 149.862305 L 209.90332 149.519531 L 211.696289 148.681641 L 213.489258 146.619141 L 215.282227 141.56543 L 217.075195 129.161133 L 218.871094 98.736328 L 220.664062 24.099609 " transform="matrix(1.333333,0,0,1.333333,0,0.000000000000028422)"/>
<path style="fill:none;stroke-width:0.8;stroke-linecap:square;stroke-linejoin:miter;stroke:rgb(0%,0%,0%);stroke-opacity:1;stroke-miterlimit:4;" d="M 34.239258 156.398438 L 34.239258 17.797852 " transform="matrix(1.333333,0,0,1.333333,0,0.000000000000028422)"/>
<path style="fill:none;stroke-width:0.8;stroke-linecap:square;stroke-linejoin:miter;stroke:rgb(0%,0%,0%);stroke-opacity:1;stroke-miterlimit:4;" d="M 229.541016 156.398438 L 229.541016 17.797852 " transform="matrix(1.333333,0,0,1.333333,0,0.000000000000028422)"/>
<path style="fill:none;stroke-width:0.8;stroke-linecap:square;stroke-linejoin:miter;stroke:rgb(0%,0%,0%);stroke-opacity:1;stroke-miterlimit:4;" d="M 34.239258 156.398438 L 229.541016 156.398438 " transform="matrix(1.333333,0,0,1.333333,0,0.000000000000028422)"/>
<path style="fill:none;stroke-width:0.8;stroke-linecap:square;stroke-linejoin:miter;stroke:rgb(0%,0%,0%);stroke-opacity:1;stroke-miterlimit:4;" d="M 34.239258 17.797852 L 229.541016 17.797852 " transform="matrix(1.333333,0,0,1.333333,0,0.000000000000028422)"/>
</g>
</svg>
