<?xml version="1.0" encoding="UTF-8"?>
<svg xmlns="http://www.w3.org/2000/svg" xmlns:xlink="http://www.w3.org/1999/xlink" width="308.589579" height="228.137634" viewBox="0 0 308.589579 228.137634" version="1.1">
<g id="surface1">
<path style=" stroke:none;fill-rule:nonzero;fill:rgb(100%,100%,100%);fill-opacity:1;" d="M 0 228.136719 L 308.589844 228.136719 L 308.589844 0 L 0 0 Z M 0 228.136719 "/>
<path style=" stroke:none;fill-rule:nonzero;fill:rgb(100%,100%,100%);fill-opacity:1;" d="M 38.589844 196.300781 L 298.988281 196.300781 L 298.988281 11.5 L 38.589844 11.5 Z M 38.589844 196.300781 "/>
<path style="fill:none;stroke-width:0.8;stroke-linecap:butt;stroke-linejoin:round;stroke:rgb(0%,0%,0%);stroke-opacity:1;stroke-miterlimit:4;" d="M -0.000125885 0.000473022 L -0.000125885 3.50145 " transform="matrix(1.333333,0,0,1.333333,50.425949,196.300151)"/>
<path style=" stroke:none;fill-rule:nonzero;fill:rgb(0%,0%,0%);fill-opacity:1;" d="M 50.421875 206.910156 C 49.746094 206.910156 49.238281 207.242188 48.894531 207.910156 C 48.554688 208.574219 48.382812 209.578125 48.382812 210.914062 C 48.382812 212.246094 48.554688 213.246094 48.894531 213.914062 C 49.238281 214.578125 49.746094 214.914062 50.421875 214.914062 C 51.105469 214.914062 51.613281 214.578125 51.957031 213.914062 C 52.296875 213.246094 52.46875 212.246094 52.46875 210.914062 C 52.46875 209.578125 52.296875 208.574219 51.957031 207.910156 C 51.613281 207.242188 51.105469 206.910156 50.421875 206.910156 Z M 50.421875 205.867188 C 51.511719 205.867188 52.34375 206.300781 52.917969 207.164062 C 53.496094 208.023438 53.78125 209.273438 53.78125 210.914062 C 53.78125 212.550781 53.496094 213.800781 52.917969 214.664062 C 52.34375 215.523438 51.511719 215.953125 50.421875 215.953125 C 49.332031 215.953125 48.5 215.523438 47.925781 214.664062 C 47.351562 213.800781 47.0625 212.550781 47.0625 210.914062 C 47.0625 209.273438 47.351562 208.023438 47.925781 207.164062 C 48.5 206.300781 49.332031 205.867188 50.421875 205.867188 Z M 50.421875 205.867188 "/>
<path style="fill:none;stroke-width:0.8;stroke-linecap:butt;stroke-linejoin:round;stroke:rgb(0%,0%,0%);stroke-opacity:1;stroke-miterlimit:4;" d="M -0.00140381 0.000473022 L -0.00140381 3.50145 " transform="matrix(1.333333,0,0,1.333333,97.771403,196.300151)"/>
<path style=" stroke:none;fill-rule:nonzero;fill:rgb(0%,0%,0%);fill-opacity:1;" d="M 95.183594 214.660156 L 97.332031 214.660156 L 97.332031 207.242188 L 94.996094 207.710938 L 94.996094 206.511719 L 97.320312 206.042969 L 98.632812 206.042969 L 98.632812 214.660156 L 100.78125 214.660156 L 100.78125 215.765625 L 95.183594 215.765625 Z M 95.183594 214.660156 "/>
<path style="fill:none;stroke-width:0.8;stroke-linecap:butt;stroke-linejoin:round;stroke:rgb(0%,0%,0%);stroke-opacity:1;stroke-miterlimit:4;" d="M 0.00025177 0.000473022 L 0.00025177 3.50145 " transform="matrix(1.333333,0,0,1.333333,145.116852,196.300151)"/>
<path style=" stroke:none;fill-rule:nonzero;fill:rgb(0%,0%,0%);fill-opacity:1;" d="M 143.433594 214.660156 L 148.023438 214.660156 L 148.023438 215.765625 L 141.851562 215.765625 L 141.851562 214.660156 C 142.351562 214.140625 143.03125 213.449219 143.890625 212.578125 C 144.753906 211.707031 145.296875 211.148438 145.515625 210.894531 C 145.9375 210.421875 146.230469 210.023438 146.398438 209.695312 C 146.566406 209.367188 146.648438 209.042969 146.648438 208.726562 C 146.648438 208.210938 146.46875 207.789062 146.105469 207.464844 C 145.742188 207.136719 145.273438 206.976562 144.691406 206.976562 C 144.277344 206.976562 143.84375 207.046875 143.382812 207.191406 C 142.925781 207.332031 142.4375 207.550781 141.917969 207.84375 L 141.917969 206.511719 C 142.445312 206.300781 142.941406 206.140625 143.398438 206.03125 C 143.859375 205.921875 144.28125 205.867188 144.664062 205.867188 C 145.671875 205.867188 146.472656 206.121094 147.074219 206.625 C 147.671875 207.128906 147.972656 207.800781 147.972656 208.640625 C 147.972656 209.042969 147.894531 209.421875 147.746094 209.78125 C 147.597656 210.136719 147.324219 210.558594 146.929688 211.042969 C 146.820312 211.171875 146.476562 211.535156 145.894531 212.136719 C 145.3125 212.738281 144.492188 213.578125 143.433594 214.660156 Z M 143.433594 214.660156 "/>
<path style="fill:none;stroke-width:0.8;stroke-linecap:butt;stroke-linejoin:round;stroke:rgb(0%,0%,0%);stroke-opacity:1;stroke-miterlimit:4;" d="M -0.00102234 0.000473022 L -0.00102234 3.50145 " transform="matrix(1.333333,0,0,1.333333,192.462301,196.300151)"/>
<path style=" stroke:none;fill-rule:nonzero;fill:rgb(0%,0%,0%);fill-opacity:1;" d="M 193.632812 210.523438 C 194.261719 210.65625 194.75 210.9375 195.105469 211.363281 C 195.457031 211.789062 195.636719 212.316406 195.636719 212.941406 C 195.636719 213.898438 195.304688 214.640625 194.644531 215.167969 C 193.984375 215.691406 193.046875 215.953125 191.832031 215.953125 C 191.425781 215.953125 191.007812 215.914062 190.574219 215.832031 C 190.144531 215.753906 189.695312 215.632812 189.238281 215.472656 L 189.238281 214.203125 C 189.601562 214.414062 190 214.574219 190.433594 214.683594 C 190.867188 214.792969 191.320312 214.847656 191.796875 214.847656 C 192.621094 214.847656 193.246094 214.683594 193.679688 214.359375 C 194.109375 214.035156 194.328125 213.5625 194.328125 212.941406 C 194.328125 212.367188 194.125 211.917969 193.726562 211.597656 C 193.324219 211.273438 192.765625 211.109375 192.050781 211.109375 L 190.917969 211.109375 L 190.917969 210.03125 L 192.101562 210.03125 C 192.746094 210.03125 193.242188 209.898438 193.585938 209.640625 C 193.929688 209.382812 194.101562 209.011719 194.101562 208.523438 C 194.101562 208.027344 193.921875 207.644531 193.570312 207.378906 C 193.214844 207.109375 192.710938 206.976562 192.050781 206.976562 C 191.6875 206.976562 191.300781 207.015625 190.890625 207.09375 C 190.476562 207.171875 190.023438 207.292969 189.527344 207.457031 L 189.527344 206.285156 C 190.027344 206.148438 190.496094 206.042969 190.933594 205.972656 C 191.371094 205.902344 191.78125 205.867188 192.167969 205.867188 C 193.164062 205.867188 193.953125 206.097656 194.535156 206.550781 C 195.117188 207.003906 195.40625 207.617188 195.40625 208.386719 C 195.40625 208.925781 195.253906 209.382812 194.945312 209.753906 C 194.636719 210.125 194.199219 210.378906 193.632812 210.523438 Z M 193.632812 210.523438 "/>
<path style="fill:none;stroke-width:0.8;stroke-linecap:butt;stroke-linejoin:round;stroke:rgb(0%,0%,0%);stroke-opacity:1;stroke-miterlimit:4;" d="M 0.00062561 0.000473022 L 0.00062561 3.50145 " transform="matrix(1.333333,0,0,1.333333,239.80776,196.300151)"/>
<path style=" stroke:none;fill-rule:nonzero;fill:rgb(0%,0%,0%);fill-opacity:1;" d="M 240.605469 207.191406 L 237.285156 212.378906 L 240.605469 212.378906 Z M 240.261719 206.042969 L 241.914062 206.042969 L 241.914062 212.378906 L 243.300781 212.378906 L 243.300781 213.472656 L 241.914062 213.472656 L 241.914062 215.765625 L 240.605469 215.765625 L 240.605469 213.472656 L 236.21875 213.472656 L 236.21875 212.203125 Z M 240.261719 206.042969 "/>
<path style="fill:none;stroke-width:0.8;stroke-linecap:butt;stroke-linejoin:round;stroke:rgb(0%,0%,0%);stroke-opacity:1;stroke-miterlimit:4;" d="M -0.000656128 0.000473022 L -0.000656128 3.50145 " transform="matrix(1.333333,0,0,1.333333,287.153219,196.300151)"/>
<path style=" stroke:none;fill-rule:nonzero;fill:rgb(0%,0%,0%);fill-opacity:1;" d="M 284.351562 206.042969 L 289.511719 206.042969 L 289.511719 207.152344 L 285.554688 207.152344 L 285.554688 209.535156 C 285.746094 209.46875 285.9375 209.417969 286.125 209.386719 C 286.316406 209.355469 286.507812 209.339844 286.699219 209.339844 C 287.785156 209.339844 288.644531 209.636719 289.277344 210.230469 C 289.914062 210.824219 290.230469 211.628906 290.230469 212.644531 C 290.230469 213.691406 289.90625 214.503906 289.253906 215.085938 C 288.601562 215.664062 287.683594 215.953125 286.5 215.953125 C 286.089844 215.953125 285.675781 215.917969 285.25 215.851562 C 284.828125 215.78125 284.390625 215.675781 283.941406 215.539062 L 283.941406 214.214844 C 284.332031 214.425781 284.734375 214.585938 285.152344 214.691406 C 285.566406 214.792969 286.007812 214.847656 286.472656 214.847656 C 287.222656 214.847656 287.816406 214.648438 288.253906 214.253906 C 288.695312 213.859375 288.914062 213.324219 288.914062 212.644531 C 288.914062 211.96875 288.695312 211.433594 288.253906 211.039062 C 287.816406 210.644531 287.222656 210.445312 286.472656 210.445312 C 286.121094 210.445312 285.769531 210.484375 285.417969 210.5625 C 285.070312 210.640625 284.714844 210.761719 284.351562 210.925781 Z M 284.351562 206.042969 "/>
<path style="fill:none;stroke-width:0.8;stroke-linecap:butt;stroke-linejoin:round;stroke:rgb(0%,0%,0%);stroke-opacity:1;stroke-miterlimit:4;" d="M 0.00019455 0.000152588 L -3.500782 0.000152588 " transform="matrix(1.333333,0,0,1.333333,38.589584,159.18339)"/>
<path style=" stroke:none;fill-rule:nonzero;fill:rgb(0%,0%,0%);fill-opacity:1;" d="M 11.011719 159.515625 L 19.359375 159.515625 L 19.359375 160.621094 L 11.011719 160.621094 Z M 11.011719 159.515625 "/>
<path style=" stroke:none;fill-rule:nonzero;fill:rgb(0%,0%,0%);fill-opacity:1;" d="M 22.425781 163.144531 L 24.574219 163.144531 L 24.574219 155.726562 L 22.238281 156.195312 L 22.238281 154.996094 L 24.5625 154.527344 L 25.875 154.527344 L 25.875 163.144531 L 28.023438 163.144531 L 28.023438 164.25 L 22.425781 164.25 Z M 22.425781 163.144531 "/>
<path style="fill:none;stroke-width:0.8;stroke-linecap:butt;stroke-linejoin:round;stroke:rgb(0%,0%,0%);stroke-opacity:1;stroke-miterlimit:4;" d="M 0.00019455 0.000686646 L -3.500782 0.000686646 " transform="matrix(1.333333,0,0,1.333333,38.589584,111.010803)"/>
<path style=" stroke:none;fill-rule:nonzero;fill:rgb(0%,0%,0%);fill-opacity:1;" d="M 25.011719 107.222656 C 24.335938 107.222656 23.824219 107.554688 23.484375 108.222656 C 23.144531 108.886719 22.972656 109.890625 22.972656 111.226562 C 22.972656 112.558594 23.144531 113.558594 23.484375 114.222656 C 23.824219 114.890625 24.335938 115.222656 25.011719 115.222656 C 25.691406 115.222656 26.203125 114.890625 26.542969 114.222656 C 26.886719 113.558594 27.054688 112.558594 27.054688 111.226562 C 27.054688 109.890625 26.886719 108.886719 26.542969 108.222656 C 26.203125 107.554688 25.691406 107.222656 25.011719 107.222656 Z M 25.011719 106.179688 C 26.101562 106.179688 26.933594 106.613281 27.507812 107.472656 C 28.082031 108.335938 28.371094 109.585938 28.371094 111.226562 C 28.371094 112.863281 28.082031 114.113281 27.507812 114.972656 C 26.933594 115.835938 26.101562 116.265625 25.011719 116.265625 C 23.921875 116.265625 23.089844 115.835938 22.515625 114.972656 C 21.941406 114.113281 21.652344 112.863281 21.652344 111.226562 C 21.652344 109.585938 21.941406 108.335938 22.515625 107.472656 C 23.089844 106.613281 23.921875 106.179688 25.011719 106.179688 Z M 25.011719 106.179688 "/>
<path style="fill:none;stroke-width:0.8;stroke-linecap:butt;stroke-linejoin:round;stroke:rgb(0%,0%,0%);stroke-opacity:1;stroke-miterlimit:4;" d="M 0.00019455 0.00122452 L -3.500782 0.00122452 " transform="matrix(1.333333,0,0,1.333333,38.589584,62.838211)"/>
<path style=" stroke:none;fill-rule:nonzero;fill:rgb(0%,0%,0%);fill-opacity:1;" d="M 22.425781 66.796875 L 24.574219 66.796875 L 24.574219 59.382812 L 22.238281 59.851562 L 22.238281 58.652344 L 24.5625 58.183594 L 25.878906 58.183594 L 25.878906 66.796875 L 28.023438 66.796875 L 28.023438 67.902344 L 22.425781 67.902344 Z M 22.425781 66.796875 "/>
<path style="fill:none;stroke-width:0.8;stroke-linecap:butt;stroke-linejoin:round;stroke:rgb(0%,0%,0%);stroke-opacity:1;stroke-miterlimit:4;" d="M 0.00019455 -0.00117207 L -3.500782 -0.00117207 " transform="matrix(1.333333,0,0,1.333333,38.589584,14.665625)"/>
<path style=" stroke:none;fill-rule:nonzero;fill:rgb(0%,0%,0%);fill-opacity:1;" d="M 23.332031 18.625 L 27.921875 18.625 L 27.921875 19.730469 L 21.75 19.730469 L 21.75 18.625 C 22.25 18.109375 22.929688 17.414062 23.789062 16.546875 C 24.652344 15.675781 25.195312 15.113281 25.414062 14.859375 C 25.835938 14.386719 26.128906 13.988281 26.296875 13.660156 C 26.464844 13.332031 26.546875 13.011719 26.546875 12.695312 C 26.546875 12.175781 26.367188 11.757812 26.003906 11.429688 C 25.640625 11.105469 25.167969 10.941406 24.585938 10.941406 C 24.175781 10.941406 23.738281 11.011719 23.28125 11.15625 C 22.824219 11.300781 22.335938 11.515625 21.816406 11.808594 L 21.816406 10.480469 C 22.34375 10.265625 22.839844 10.105469 23.296875 9.996094 C 23.757812 9.890625 24.179688 9.835938 24.5625 9.835938 C 25.570312 9.835938 26.371094 10.085938 26.972656 10.589844 C 27.570312 11.09375 27.867188 11.765625 27.867188 12.609375 C 27.867188 13.007812 27.792969 13.386719 27.644531 13.746094 C 27.496094 14.101562 27.222656 14.523438 26.828125 15.011719 C 26.71875 15.136719 26.375 15.5 25.792969 16.101562 C 25.210938 16.703125 24.390625 17.542969 23.332031 18.625 Z M 23.332031 18.625 "/>
<path style="fill:none;stroke-width:1.5;stroke-linecap:square;stroke-linejoin:round;stroke:rgb(12.156863%,46.666667%,70.588237%);stroke-opacity:0.501961;stroke-miterlimit:4;" d="M 37.819336 46.136719 L 41.443359 53.654297 L 45.067383 60.00293 L 48.688477 64.936523 L 52.3125 68.282227 L 55.936523 69.996094 L 59.560547 70.142578 L 63.181641 68.917969 L 66.805664 66.624023 L 70.429687 63.647461 L 74.053711 60.433594 L 77.677734 57.439453 L 81.298828 55.095703 L 84.922852 53.780273 L 88.546875 53.765625 L 92.170898 55.21875 L 95.794922 58.177734 L 99.416016 62.545898 L 103.040039 68.121094 L 106.664062 74.601562 L 110.288086 81.615234 L 113.90918 88.763672 L 117.533203 95.633789 L 121.157227 101.850586 L 124.78125 107.083008 L 128.405273 111.082031 L 132.026367 113.674805 L 135.650391 114.776367 L 139.274414 114.395508 L 142.898437 112.605469 L 146.519531 109.541016 L 150.143555 105.380859 L 153.767578 100.338867 L 157.391602 94.623047 L 161.015625 88.458984 L 164.636719 82.048828 L 168.260742 75.591797 L 171.884766 69.257812 L 175.508789 63.216797 L 179.129883 57.612305 L 182.753906 52.579102 L 186.37793 48.243164 L 190.001953 44.71582 L 193.625977 42.084961 L 197.24707 40.423828 L 200.871094 39.770508 L 204.495117 40.130859 L 208.119141 41.478516 L 211.740234 43.734375 L 215.364258 46.792969 " transform="matrix(1.333333,0,0,1.333333,0.000000000000028422,0)"/>
<path style="fill:none;stroke-width:1.5;stroke-linecap:square;stroke-linejoin:round;stroke:rgb(100%,49.803922%,5.490196%);stroke-opacity:0.501961;stroke-miterlimit:4;" d="M 37.819336 49.50293 L 41.443359 47.586914 L 45.067383 45.94043 L 48.688477 44.53125 L 52.3125 43.300781 L 55.936523 42.164062 L 59.560547 41.044922 L 63.181641 39.884766 L 66.805664 38.657227 L 70.429687 37.379883 L 74.053711 36.125977 L 77.677734 35.012695 L 81.298828 34.201172 L 84.922852 33.881836 L 88.546875 34.250977 L 92.170898 35.487305 L 95.794922 37.740234 L 99.416016 41.106445 L 103.040039 45.618164 L 106.664062 51.237305 L 110.288086 57.855469 L 113.90918 65.288086 L 117.533203 73.306641 L 121.157227 81.624023 L 124.78125 89.932617 L 128.405273 97.916016 L 132.026367 105.260742 L 135.650391 111.688477 L 139.274414 116.961914 L 142.898437 120.908203 L 146.519531 123.427734 L 150.143555 124.50293 L 153.767578 124.204102 L 157.391602 122.680664 L 161.015625 120.152344 L 164.636719 116.891602 L 168.260742 113.200195 L 171.884766 109.379883 L 175.508789 105.711914 L 179.129883 102.433594 L 182.753906 99.714844 L 186.37793 97.652344 L 190.001953 96.272461 L 193.625977 95.53418 L 197.24707 95.349609 L 200.871094 95.598633 L 204.495117 96.155273 L 208.119141 96.899414 L 211.740234 97.734375 L 215.364258 98.578125 " transform="matrix(1.333333,0,0,1.333333,0.000000000000028422,0)"/>
<path style="fill:none;stroke-width:1.5;stroke-linecap:square;stroke-linejoin:round;stroke:rgb(17.254902%,62.7451%,17.254902%);stroke-opacity:0.501961;stroke-miterlimit:4;" d="M 37.819336 77.399414 L 41.443359 72.512695 L 45.067383 68.024414 L 48.688477 63.93457 L 52.3125 60.219727 L 55.936523 56.850586 L 59.560547 53.800781 L 63.181641 51.076172 L 66.805664 48.697266 L 70.429687 46.725586 L 74.053711 45.249023 L 77.677734 44.370117 L 81.298828 44.206055 L 84.922852 44.862305 L 88.546875 46.412109 L 92.170898 48.890625 L 95.794922 52.268555 L 99.416016 56.455078 L 103.040039 61.303711 L 106.664062 66.603516 L 110.288086 72.120117 L 113.90918 77.601562 L 117.533203 82.807617 L 121.157227 87.539062 L 124.78125 91.646484 L 128.405273 95.05957 L 132.026367 97.766602 L 135.650391 99.829102 L 139.274414 101.367188 L 142.898437 102.524414 L 146.519531 103.458984 L 150.143555 104.314453 L 153.767578 105.205078 L 157.391602 106.198242 L 161.015625 107.308594 L 164.636719 108.500977 L 168.260742 109.702148 L 171.884766 110.797852 L 175.508789 111.670898 L 179.129883 112.192383 L 182.753906 112.256836 L 186.37793 111.770508 L 190.001953 110.677734 L 193.625977 108.943359 L 197.24707 106.561523 L 200.871094 103.543945 L 204.495117 99.916992 L 208.119141 95.71582 L 211.740234 90.978516 L 215.364258 85.754883 " transform="matrix(1.333333,0,0,1.333333,0.000000000000028422,0)"/>
<path style="fill:none;stroke-width:1.5;stroke-linecap:square;stroke-linejoin:round;stroke:rgb(83.92157%,15.294118%,15.686275%);stroke-opacity:0.501961;stroke-miterlimit:4;" d="M 37.819336 66.251953 L 41.443359 65.598633 L 45.067383 65.015625 L 48.688477 64.453125 L 52.3125 63.864258 L 55.936523 63.202148 L 59.560547 62.44043 L 63.181641 61.558594 L 66.805664 60.547852 L 70.429687 59.425781 L 74.053711 58.212891 L 77.677734 56.953125 L 81.298828 55.705078 L 84.922852 54.530273 L 88.546875 53.516602 L 92.170898 52.746094 L 95.794922 52.3125 L 99.416016 52.297852 L 103.040039 52.790039 L 106.664062 53.850586 L 110.288086 55.535156 L 113.90918 57.861328 L 117.533203 60.832031 L 121.157227 64.420898 L 124.78125 68.569336 L 128.405273 73.201172 L 132.026367 78.219727 L 135.650391 83.522461 L 139.274414 88.992188 L 142.898437 94.523438 L 146.519531 100.016602 L 150.143555 105.375 L 153.767578 110.52832 L 157.391602 115.40625 L 161.015625 119.956055 L 164.636719 124.142578 L 168.260742 127.921875 L 171.884766 131.270508 L 175.508789 134.162109 L 179.129883 136.564453 L 182.753906 138.462891 L 186.37793 139.831055 L 190.001953 140.654297 L 193.625977 140.923828 L 197.24707 140.645508 L 200.871094 139.833984 L 204.495117 138.524414 L 208.119141 136.763672 L 211.740234 134.630859 L 215.364258 132.208008 " transform="matrix(1.333333,0,0,1.333333,0.000000000000028422,0)"/>
<path style="fill:none;stroke-width:1.5;stroke-linecap:square;stroke-linejoin:round;stroke:rgb(58.039218%,40.392157%,74.117649%);stroke-opacity:0.501961;stroke-miterlimit:4;" d="M 37.819336 92.748047 L 41.443359 90.638672 L 45.067383 88.256836 L 48.688477 85.705078 L 52.3125 83.074219 L 55.936523 80.422852 L 59.560547 77.765625 L 63.181641 75.105469 L 66.805664 72.407227 L 70.429687 69.635742 L 74.053711 66.755859 L 77.677734 63.738281 L 81.298828 60.580078 L 84.922852 57.28418 L 88.546875 53.882812 L 92.170898 50.408203 L 95.794922 46.904297 L 99.416016 43.400391 L 103.040039 39.931641 L 106.664062 36.524414 L 110.288086 33.199219 L 113.90918 29.976562 L 117.533203 26.891602 L 121.157227 23.991211 L 124.78125 21.333984 L 128.405273 19.001953 L 132.026367 17.094727 L 135.650391 15.711914 L 139.274414 14.958984 L 142.898437 14.923828 L 146.519531 15.679688 L 150.143555 17.261719 L 153.767578 19.675781 L 157.391602 22.889648 L 161.015625 26.844727 L 164.636719 31.441406 L 168.260742 36.577148 L 171.884766 42.123047 L 175.508789 47.958984 L 179.129883 53.961914 L 182.753906 60.017578 L 186.37793 66.029297 L 190.001953 71.90332 L 193.625977 77.572266 L 197.24707 82.96875 L 200.871094 88.042969 L 204.495117 92.759766 L 208.119141 97.089844 L 211.740234 101.015625 L 215.364258 104.53418 " transform="matrix(1.333333,0,0,1.333333,0.000000000000028422,0)"/>
<path style="fill:none;stroke-width:0.8;stroke-linecap:square;stroke-linejoin:miter;stroke:rgb(0%,0%,0%);stroke-opacity:1;stroke-miterlimit:4;" d="M 28.942383 147.225586 L 28.942383 8.625 " transform="matrix(1.333333,0,0,1.333333,0.000000000000028422,0)"/>
<path style="fill:none;stroke-width:0.8;stroke-linecap:square;stroke-linejoin:miter;stroke:rgb(0%,0%,0%);stroke-opacity:1;stroke-miterlimit:4;" d="M 224.241211 147.225586 L 224.241211 8.625 " transform="matrix(1.333333,0,0,1.333333,0.000000000000028422,0)"/>
<path style="fill:none;stroke-width:0.8;stroke-linecap:square;stroke-linejoin:miter;stroke:rgb(0%,0%,0%);stroke-opacity:1;stroke-miterlimit:4;" d="M 28.942383 147.225586 L 224.241211 147.225586 " transform="matrix(1.333333,0,0,1.333333,0.000000000000028422,0)"/>
<path style="fill:none;stroke-width:0.8;stroke-linecap:square;stroke-linejoin:miter;stroke:rgb(0%,0%,0%);stroke-opacity:1;stroke-miterlimit:4;" d="M 28.942383 8.625 L 224.241211 8.625 " transform="matrix(1.333333,0,0,1.333333,0.000000000000028422,0)"/>
</g>
</svg>
