<?xml version="1.0" encoding="UTF-8"?>
<svg xmlns="http://www.w3.org/2000/svg" xmlns:xlink="http://www.w3.org/1999/xlink" width="328.375" height="244.474996" viewBox="0 0 328.375 244.474996" version="1.1">
<g id="surface1">
<path style=" stroke:none;fill-rule:nonzero;fill:rgb(100%,100%,100%);fill-opacity:1;" d="M 0 244.476562 L 328.375 244.476562 L 328.375 0 L 0 0 Z M 0 244.476562 "/>
<path style=" stroke:none;fill-rule:nonzero;fill:rgb(100%,100%,100%);fill-opacity:1;" d="M 58.375 194.398438 L 318.773438 194.398438 L 318.773438 9.601562 L 58.375 9.601562 Z M 58.375 194.398438 "/>
<path style="fill:none;stroke-width:0.8;stroke-linecap:butt;stroke-linejoin:round;stroke:rgb(0%,0%,0%);stroke-opacity:1;stroke-miterlimit:4;" d="M -0.000320435 -0.00117493 L -0.000320435 3.499802 " transform="matrix(1.333333,0,0,1.333333,70.211365,194.400004)"/>
<path style=" stroke:none;fill-rule:nonzero;fill:rgb(0%,0%,0%);fill-opacity:1;" d="M 70.207031 205.011719 C 69.53125 205.011719 69.023438 205.34375 68.679688 206.011719 C 68.339844 206.675781 68.167969 207.675781 68.167969 209.015625 C 68.167969 210.347656 68.339844 211.347656 68.679688 212.011719 C 69.023438 212.679688 69.53125 213.011719 70.207031 213.011719 C 70.890625 213.011719 71.398438 212.679688 71.742188 212.011719 C 72.082031 211.347656 72.253906 210.347656 72.253906 209.015625 C 72.253906 207.675781 72.082031 206.675781 71.742188 206.011719 C 71.398438 205.34375 70.890625 205.011719 70.207031 205.011719 Z M 70.207031 203.96875 C 71.296875 203.96875 72.128906 204.398438 72.707031 205.261719 C 73.28125 206.125 73.566406 207.375 73.566406 209.015625 C 73.566406 210.652344 73.28125 211.898438 72.707031 212.761719 C 72.128906 213.625 71.296875 214.054688 70.207031 214.054688 C 69.117188 214.054688 68.285156 213.625 67.710938 212.761719 C 67.136719 211.898438 66.847656 210.652344 66.847656 209.015625 C 66.847656 207.375 67.136719 206.125 67.710938 205.261719 C 68.285156 204.398438 69.117188 203.96875 70.207031 203.96875 Z M 70.207031 203.96875 "/>
<path style="fill:none;stroke-width:0.8;stroke-linecap:butt;stroke-linejoin:round;stroke:rgb(0%,0%,0%);stroke-opacity:1;stroke-miterlimit:4;" d="M 0.00132751 -0.00117493 L 0.00132751 3.499802 " transform="matrix(1.333333,0,0,1.333333,117.556824,194.400004)"/>
<path style=" stroke:none;fill-rule:nonzero;fill:rgb(0%,0%,0%);fill-opacity:1;" d="M 115.875 212.757812 L 120.464844 212.757812 L 120.464844 213.863281 L 114.292969 213.863281 L 114.292969 212.757812 C 114.789062 212.242188 115.472656 211.546875 116.332031 210.679688 C 117.195312 209.808594 117.734375 209.246094 117.957031 208.992188 C 118.378906 208.523438 118.671875 208.121094 118.839844 207.792969 C 119.007812 207.464844 119.089844 207.144531 119.089844 206.828125 C 119.089844 206.308594 118.910156 205.890625 118.546875 205.566406 C 118.183594 205.238281 117.710938 205.074219 117.128906 205.074219 C 116.71875 205.074219 116.28125 205.148438 115.824219 205.289062 C 115.367188 205.433594 114.878906 205.648438 114.355469 205.941406 L 114.355469 204.613281 C 114.886719 204.398438 115.378906 204.238281 115.839844 204.132812 C 116.300781 204.023438 116.722656 203.96875 117.105469 203.96875 C 118.113281 203.96875 118.914062 204.222656 119.511719 204.726562 C 120.113281 205.226562 120.410156 205.898438 120.410156 206.742188 C 120.410156 207.140625 120.335938 207.519531 120.1875 207.878906 C 120.039062 208.234375 119.765625 208.65625 119.371094 209.144531 C 119.261719 209.269531 118.914062 209.632812 118.332031 210.234375 C 117.753906 210.835938 116.933594 211.679688 115.875 212.757812 Z M 115.875 212.757812 "/>
<path style="fill:none;stroke-width:0.8;stroke-linecap:butt;stroke-linejoin:round;stroke:rgb(0%,0%,0%);stroke-opacity:1;stroke-miterlimit:4;" d="M 0.0000534058 -0.00117493 L 0.0000534058 3.499802 " transform="matrix(1.333333,0,0,1.333333,164.902273,194.400004)"/>
<path style=" stroke:none;fill-rule:nonzero;fill:rgb(0%,0%,0%);fill-opacity:1;" d="M 165.699219 205.289062 L 162.378906 210.480469 L 165.699219 210.480469 Z M 165.355469 204.144531 L 167.007812 204.144531 L 167.007812 210.480469 L 168.394531 210.480469 L 168.394531 211.574219 L 167.007812 211.574219 L 167.007812 213.863281 L 165.699219 213.863281 L 165.699219 211.574219 L 161.3125 211.574219 L 161.3125 210.304688 Z M 165.355469 204.144531 "/>
<path style="fill:none;stroke-width:0.8;stroke-linecap:butt;stroke-linejoin:round;stroke:rgb(0%,0%,0%);stroke-opacity:1;stroke-miterlimit:4;" d="M -0.0012207 -0.00117493 L -0.0012207 3.499802 " transform="matrix(1.333333,0,0,1.333333,212.247721,194.400004)"/>
<path style=" stroke:none;fill-rule:nonzero;fill:rgb(0%,0%,0%);fill-opacity:1;" d="M 212.40625 208.480469 C 211.816406 208.480469 211.351562 208.683594 211.003906 209.085938 C 210.660156 209.492188 210.488281 210.042969 210.488281 210.746094 C 210.488281 211.445312 210.660156 211.996094 211.003906 212.402344 C 211.351562 212.808594 211.816406 213.011719 212.40625 213.011719 C 213 213.011719 213.464844 212.808594 213.808594 212.402344 C 214.15625 211.996094 214.328125 211.445312 214.328125 210.746094 C 214.328125 210.042969 214.15625 209.492188 213.808594 209.085938 C 213.464844 208.683594 213 208.480469 212.40625 208.480469 Z M 215.019531 204.359375 L 215.019531 205.554688 C 214.6875 205.402344 214.355469 205.28125 214.019531 205.199219 C 213.683594 205.117188 213.347656 205.074219 213.019531 205.074219 C 212.152344 205.074219 211.488281 205.367188 211.027344 205.953125 C 210.570312 206.539062 210.3125 207.425781 210.246094 208.609375 C 210.5 208.234375 210.820312 207.941406 211.207031 207.742188 C 211.59375 207.539062 212.019531 207.441406 212.484375 207.441406 C 213.460938 207.441406 214.234375 207.734375 214.800781 208.328125 C 215.367188 208.921875 215.648438 209.726562 215.648438 210.746094 C 215.648438 211.746094 215.355469 212.546875 214.765625 213.148438 C 214.175781 213.753906 213.390625 214.054688 212.40625 214.054688 C 211.28125 214.054688 210.421875 213.625 209.828125 212.761719 C 209.234375 211.898438 208.9375 210.652344 208.9375 209.015625 C 208.9375 207.476562 209.300781 206.253906 210.03125 205.339844 C 210.761719 204.425781 211.738281 203.96875 212.964844 203.96875 C 213.296875 203.96875 213.628906 204 213.964844 204.066406 C 214.300781 204.132812 214.652344 204.230469 215.019531 204.359375 Z M 215.019531 204.359375 "/>
<path style="fill:none;stroke-width:0.8;stroke-linecap:butt;stroke-linejoin:round;stroke:rgb(0%,0%,0%);stroke-opacity:1;stroke-miterlimit:4;" d="M 0.000427246 -0.00117493 L 0.000427246 3.499802 " transform="matrix(1.333333,0,0,1.333333,259.59318,194.400004)"/>
<path style=" stroke:none;fill-rule:nonzero;fill:rgb(0%,0%,0%);fill-opacity:1;" d="M 259.589844 209.246094 C 258.964844 209.246094 258.472656 209.414062 258.113281 209.75 C 257.757812 210.085938 257.578125 210.542969 257.578125 211.128906 C 257.578125 211.714844 257.757812 212.175781 258.113281 212.511719 C 258.472656 212.84375 258.964844 213.011719 259.589844 213.011719 C 260.214844 213.011719 260.707031 212.84375 261.066406 212.507812 C 261.425781 212.171875 261.609375 211.710938 261.609375 211.128906 C 261.609375 210.542969 261.429688 210.085938 261.070312 209.75 C 260.714844 209.414062 260.21875 209.246094 259.589844 209.246094 Z M 258.273438 208.691406 C 257.710938 208.550781 257.269531 208.289062 256.957031 207.902344 C 256.640625 207.515625 256.484375 207.042969 256.484375 206.488281 C 256.484375 205.710938 256.761719 205.097656 257.3125 204.644531 C 257.867188 204.195312 258.625 203.96875 259.589844 203.96875 C 260.558594 203.96875 261.316406 204.195312 261.867188 204.644531 C 262.417969 205.097656 262.695312 205.710938 262.695312 206.488281 C 262.695312 207.042969 262.539062 207.515625 262.222656 207.902344 C 261.910156 208.289062 261.472656 208.550781 260.910156 208.691406 C 261.546875 208.835938 262.039062 209.125 262.390625 209.554688 C 262.746094 209.984375 262.921875 210.507812 262.921875 211.128906 C 262.921875 212.070312 262.636719 212.796875 262.058594 213.300781 C 261.484375 213.804688 260.660156 214.054688 259.589844 214.054688 C 258.519531 214.054688 257.695312 213.804688 257.117188 213.300781 C 256.542969 212.796875 256.253906 212.070312 256.253906 211.128906 C 256.253906 210.507812 256.433594 209.984375 256.789062 209.554688 C 257.144531 209.125 257.640625 208.835938 258.273438 208.691406 Z M 257.792969 206.613281 C 257.792969 207.117188 257.949219 207.507812 258.265625 207.789062 C 258.578125 208.070312 259.019531 208.210938 259.589844 208.210938 C 260.15625 208.210938 260.597656 208.070312 260.914062 207.789062 C 261.234375 207.507812 261.394531 207.117188 261.394531 206.613281 C 261.394531 206.109375 261.234375 205.714844 260.914062 205.433594 C 260.597656 205.152344 260.15625 205.011719 259.589844 205.011719 C 259.019531 205.011719 258.578125 205.152344 258.265625 205.433594 C 257.949219 205.714844 257.792969 206.109375 257.792969 206.613281 Z M 257.792969 206.613281 "/>
<path style="fill:none;stroke-width:0.8;stroke-linecap:butt;stroke-linejoin:round;stroke:rgb(0%,0%,0%);stroke-opacity:1;stroke-miterlimit:4;" d="M -0.000854492 -0.00117493 L -0.000854492 3.499802 " transform="matrix(1.333333,0,0,1.333333,306.938639,194.400004)"/>
<path style=" stroke:none;fill-rule:nonzero;fill:rgb(0%,0%,0%);fill-opacity:1;" d="M 300.109375 212.757812 L 302.257812 212.757812 L 302.257812 205.339844 L 299.917969 205.808594 L 299.917969 204.613281 L 302.246094 204.144531 L 303.558594 204.144531 L 303.558594 212.757812 L 305.707031 212.757812 L 305.707031 213.863281 L 300.109375 213.863281 Z M 300.109375 212.757812 "/>
<path style=" stroke:none;fill-rule:nonzero;fill:rgb(0%,0%,0%);fill-opacity:1;" d="M 311.175781 205.011719 C 310.5 205.011719 309.992188 205.34375 309.648438 206.011719 C 309.308594 206.675781 309.136719 207.675781 309.136719 209.015625 C 309.136719 210.347656 309.308594 211.347656 309.648438 212.011719 C 309.992188 212.679688 310.5 213.011719 311.175781 213.011719 C 311.859375 213.011719 312.367188 212.679688 312.710938 212.011719 C 313.050781 211.347656 313.222656 210.347656 313.222656 209.015625 C 313.222656 207.675781 313.050781 206.675781 312.710938 206.011719 C 312.367188 205.34375 311.859375 205.011719 311.175781 205.011719 Z M 311.175781 203.96875 C 312.265625 203.96875 313.097656 204.398438 313.671875 205.261719 C 314.25 206.125 314.535156 207.375 314.535156 209.015625 C 314.535156 210.652344 314.25 211.898438 313.671875 212.761719 C 313.097656 213.625 312.265625 214.054688 311.175781 214.054688 C 310.085938 214.054688 309.253906 213.625 308.679688 212.761719 C 308.105469 211.898438 307.816406 210.652344 307.816406 209.015625 C 307.816406 207.375 308.105469 206.125 308.679688 205.261719 C 309.253906 204.398438 310.085938 203.96875 311.175781 203.96875 Z M 311.175781 203.96875 "/>
<path style=" stroke:none;fill-rule:nonzero;fill:rgb(0%,0%,0%);fill-opacity:1;" d="M 191.949219 224.808594 L 189.308594 228.359375 L 192.082031 232.101562 L 190.671875 232.101562 L 188.546875 229.238281 L 186.425781 232.101562 L 185.011719 232.101562 L 187.847656 228.289062 L 185.253906 224.808594 L 186.667969 224.808594 L 188.601562 227.410156 L 190.535156 224.808594 Z M 191.949219 224.808594 "/>
<path style="fill:none;stroke-width:0.8;stroke-linecap:butt;stroke-linejoin:round;stroke:rgb(0%,0%,0%);stroke-opacity:1;stroke-miterlimit:4;" d="M 0 0 L -3.500977 0 " transform="matrix(1.333333,0,0,1.333333,58.375,186)"/>
<path style=" stroke:none;fill-rule:nonzero;fill:rgb(0%,0%,0%);fill-opacity:1;" d="M 32.074219 182.210938 C 31.398438 182.210938 30.890625 182.542969 30.546875 183.210938 C 30.207031 183.875 30.039062 184.878906 30.039062 186.214844 C 30.039062 187.546875 30.207031 188.546875 30.546875 189.214844 C 30.890625 189.878906 31.398438 190.214844 32.074219 190.214844 C 32.757812 190.214844 33.269531 189.878906 33.609375 189.214844 C 33.949219 188.546875 34.121094 187.546875 34.121094 186.214844 C 34.121094 184.878906 33.949219 183.875 33.609375 183.210938 C 33.269531 182.542969 32.757812 182.210938 32.074219 182.210938 Z M 32.074219 181.167969 C 33.164062 181.167969 33.996094 181.601562 34.574219 182.464844 C 35.148438 183.324219 35.433594 184.574219 35.433594 186.214844 C 35.433594 187.851562 35.148438 189.101562 34.574219 189.964844 C 33.996094 190.824219 33.164062 191.253906 32.074219 191.253906 C 30.984375 191.253906 30.152344 190.824219 29.578125 189.964844 C 29.003906 189.101562 28.714844 187.851562 28.714844 186.214844 C 28.714844 184.574219 29.003906 183.324219 29.578125 182.464844 C 30.152344 181.601562 30.984375 181.167969 32.074219 181.167969 Z M 32.074219 181.167969 "/>
<path style=" stroke:none;fill-rule:nonzero;fill:rgb(0%,0%,0%);fill-opacity:1;" d="M 37.746094 189.410156 L 39.121094 189.410156 L 39.121094 191.066406 L 37.746094 191.066406 Z M 37.746094 189.410156 "/>
<path style=" stroke:none;fill-rule:nonzero;fill:rgb(0%,0%,0%);fill-opacity:1;" d="M 44.796875 182.210938 C 44.121094 182.210938 43.609375 182.542969 43.269531 183.210938 C 42.929688 183.875 42.757812 184.878906 42.757812 186.214844 C 42.757812 187.546875 42.929688 188.546875 43.269531 189.214844 C 43.609375 189.878906 44.121094 190.214844 44.796875 190.214844 C 45.476562 190.214844 45.988281 189.878906 46.328125 189.214844 C 46.671875 188.546875 46.84375 187.546875 46.84375 186.214844 C 46.84375 184.878906 46.671875 183.875 46.328125 183.210938 C 45.988281 182.542969 45.476562 182.210938 44.796875 182.210938 Z M 44.796875 181.167969 C 45.886719 181.167969 46.71875 181.601562 47.292969 182.464844 C 47.871094 183.324219 48.15625 184.574219 48.15625 186.214844 C 48.15625 187.851562 47.871094 189.101562 47.292969 189.964844 C 46.71875 190.824219 45.886719 191.253906 44.796875 191.253906 C 43.707031 191.253906 42.875 190.824219 42.300781 189.964844 C 41.726562 189.101562 41.4375 187.851562 41.4375 186.214844 C 41.4375 184.574219 41.726562 183.324219 42.300781 182.464844 C 42.875 181.601562 43.707031 181.167969 44.796875 181.167969 Z M 44.796875 181.167969 "/>
<path style="fill:none;stroke-width:0.8;stroke-linecap:butt;stroke-linejoin:round;stroke:rgb(0%,0%,0%);stroke-opacity:1;stroke-miterlimit:4;" d="M 0 -0.00135803 L -3.500977 -0.00135803 " transform="matrix(1.333333,0,0,1.333333,58.375,130.368998)"/>
<path style=" stroke:none;fill-rule:nonzero;fill:rgb(0%,0%,0%);fill-opacity:1;" d="M 32.074219 126.582031 C 31.398438 126.582031 30.890625 126.914062 30.546875 127.582031 C 30.207031 128.246094 30.039062 129.246094 30.039062 130.585938 C 30.039062 131.917969 30.207031 132.914062 30.546875 133.582031 C 30.890625 134.25 31.398438 134.582031 32.074219 134.582031 C 32.757812 134.582031 33.269531 134.25 33.609375 133.582031 C 33.949219 132.914062 34.121094 131.917969 34.121094 130.585938 C 34.121094 129.246094 33.949219 128.246094 33.609375 127.582031 C 33.269531 126.914062 32.757812 126.582031 32.074219 126.582031 Z M 32.074219 125.539062 C 33.164062 125.539062 33.996094 125.96875 34.574219 126.832031 C 35.148438 127.695312 35.433594 128.945312 35.433594 130.585938 C 35.433594 132.222656 35.148438 133.46875 34.574219 134.332031 C 33.996094 135.195312 33.164062 135.625 32.074219 135.625 C 30.984375 135.625 30.152344 135.195312 29.578125 134.332031 C 29.003906 133.46875 28.714844 132.222656 28.714844 130.585938 C 28.714844 128.945312 29.003906 127.695312 29.578125 126.832031 C 30.152344 125.96875 30.984375 125.539062 32.074219 125.539062 Z M 32.074219 125.539062 "/>
<path style=" stroke:none;fill-rule:nonzero;fill:rgb(0%,0%,0%);fill-opacity:1;" d="M 37.746094 133.78125 L 39.121094 133.78125 L 39.121094 135.433594 L 37.746094 135.433594 Z M 37.746094 133.78125 "/>
<path style=" stroke:none;fill-rule:nonzero;fill:rgb(0%,0%,0%);fill-opacity:1;" d="M 42.214844 134.328125 L 44.359375 134.328125 L 44.359375 126.910156 L 42.023438 127.378906 L 42.023438 126.183594 L 44.347656 125.714844 L 45.664062 125.714844 L 45.664062 134.328125 L 47.8125 134.328125 L 47.8125 135.433594 L 42.214844 135.433594 Z M 42.214844 134.328125 "/>
<path style="fill:none;stroke-width:0.8;stroke-linecap:butt;stroke-linejoin:round;stroke:rgb(0%,0%,0%);stroke-opacity:1;stroke-miterlimit:4;" d="M 0 0.000213623 L -3.500977 0.000213623 " transform="matrix(1.333333,0,0,1.333333,58.375,74.737996)"/>
<path style=" stroke:none;fill-rule:nonzero;fill:rgb(0%,0%,0%);fill-opacity:1;" d="M 32.074219 70.949219 C 31.398438 70.949219 30.890625 71.28125 30.546875 71.949219 C 30.207031 72.613281 30.039062 73.617188 30.039062 74.953125 C 30.039062 76.285156 30.207031 77.285156 30.546875 77.953125 C 30.890625 78.617188 31.398438 78.953125 32.074219 78.953125 C 32.757812 78.953125 33.269531 78.617188 33.609375 77.953125 C 33.949219 77.285156 34.121094 76.285156 34.121094 74.953125 C 34.121094 73.617188 33.949219 72.613281 33.609375 71.949219 C 33.269531 71.28125 32.757812 70.949219 32.074219 70.949219 Z M 32.074219 69.90625 C 33.164062 69.90625 33.996094 70.339844 34.574219 71.203125 C 35.148438 72.0625 35.433594 73.3125 35.433594 74.953125 C 35.433594 76.589844 35.148438 77.839844 34.574219 78.703125 C 33.996094 79.5625 33.164062 79.992188 32.074219 79.992188 C 30.984375 79.992188 30.152344 79.5625 29.578125 78.703125 C 29.003906 77.839844 28.714844 76.589844 28.714844 74.953125 C 28.714844 73.3125 29.003906 72.0625 29.578125 71.203125 C 30.152344 70.339844 30.984375 69.90625 32.074219 69.90625 Z M 32.074219 69.90625 "/>
<path style=" stroke:none;fill-rule:nonzero;fill:rgb(0%,0%,0%);fill-opacity:1;" d="M 37.746094 78.148438 L 39.121094 78.148438 L 39.121094 79.804688 L 37.746094 79.804688 Z M 37.746094 78.148438 "/>
<path style=" stroke:none;fill-rule:nonzero;fill:rgb(0%,0%,0%);fill-opacity:1;" d="M 43.117188 78.699219 L 47.707031 78.699219 L 47.707031 79.804688 L 41.535156 79.804688 L 41.535156 78.699219 C 42.035156 78.179688 42.714844 77.488281 43.574219 76.617188 C 44.4375 75.746094 44.980469 75.1875 45.199219 74.933594 C 45.621094 74.460938 45.914062 74.0625 46.082031 73.734375 C 46.25 73.40625 46.332031 73.082031 46.332031 72.765625 C 46.332031 72.25 46.152344 71.828125 45.789062 71.503906 C 45.425781 71.175781 44.957031 71.015625 44.375 71.015625 C 43.960938 71.015625 43.527344 71.085938 43.066406 71.230469 C 42.609375 71.371094 42.121094 71.589844 41.601562 71.878906 L 41.601562 70.550781 C 42.128906 70.339844 42.625 70.179688 43.082031 70.070312 C 43.546875 69.960938 43.964844 69.90625 44.347656 69.90625 C 45.355469 69.90625 46.15625 70.160156 46.757812 70.664062 C 47.355469 71.167969 47.65625 71.839844 47.65625 72.679688 C 47.65625 73.082031 47.578125 73.460938 47.429688 73.816406 C 47.28125 74.175781 47.007812 74.597656 46.613281 75.082031 C 46.503906 75.210938 46.160156 75.574219 45.578125 76.175781 C 44.996094 76.777344 44.175781 77.617188 43.117188 78.699219 Z M 43.117188 78.699219 "/>
<path style="fill:none;stroke-width:0.8;stroke-linecap:butt;stroke-linejoin:round;stroke:rgb(0%,0%,0%);stroke-opacity:1;stroke-miterlimit:4;" d="M 0 -0.0011425 L -3.500977 -0.0011425 " transform="matrix(1.333333,0,0,1.333333,58.375,19.106992)"/>
<path style=" stroke:none;fill-rule:nonzero;fill:rgb(0%,0%,0%);fill-opacity:1;" d="M 32.074219 15.320312 C 31.398438 15.320312 30.890625 15.652344 30.546875 16.320312 C 30.207031 16.984375 30.039062 17.984375 30.039062 19.324219 C 30.039062 20.65625 30.207031 21.652344 30.546875 22.320312 C 30.890625 22.988281 31.398438 23.320312 32.074219 23.320312 C 32.757812 23.320312 33.269531 22.988281 33.609375 22.320312 C 33.949219 21.652344 34.121094 20.65625 34.121094 19.324219 C 34.121094 17.984375 33.949219 16.984375 33.609375 16.320312 C 33.269531 15.652344 32.757812 15.320312 32.074219 15.320312 Z M 32.074219 14.277344 C 33.164062 14.277344 33.996094 14.707031 34.574219 15.570312 C 35.148438 16.433594 35.433594 17.683594 35.433594 19.324219 C 35.433594 20.957031 35.148438 22.207031 34.574219 23.070312 C 33.996094 23.933594 33.164062 24.363281 32.074219 24.363281 C 30.984375 24.363281 30.152344 23.933594 29.578125 23.070312 C 29.003906 22.207031 28.714844 20.957031 28.714844 19.324219 C 28.714844 17.683594 29.003906 16.433594 29.578125 15.570312 C 30.152344 14.707031 30.984375 14.277344 32.074219 14.277344 Z M 32.074219 14.277344 "/>
<path style=" stroke:none;fill-rule:nonzero;fill:rgb(0%,0%,0%);fill-opacity:1;" d="M 37.746094 22.519531 L 39.121094 22.519531 L 39.121094 24.171875 L 37.746094 24.171875 Z M 37.746094 22.519531 "/>
<path style=" stroke:none;fill-rule:nonzero;fill:rgb(0%,0%,0%);fill-opacity:1;" d="M 45.96875 18.929688 C 46.597656 19.066406 47.089844 19.347656 47.441406 19.773438 C 47.796875 20.199219 47.972656 20.722656 47.972656 21.347656 C 47.972656 22.304688 47.644531 23.046875 46.984375 23.574219 C 46.324219 24.101562 45.386719 24.363281 44.171875 24.363281 C 43.765625 24.363281 43.34375 24.320312 42.914062 24.242188 C 42.480469 24.160156 42.035156 24.039062 41.574219 23.878906 L 41.574219 22.609375 C 41.9375 22.824219 42.339844 22.984375 42.769531 23.089844 C 43.207031 23.199219 43.660156 23.253906 44.132812 23.253906 C 44.957031 23.253906 45.585938 23.089844 46.015625 22.765625 C 46.449219 22.441406 46.664062 21.96875 46.664062 21.347656 C 46.664062 20.773438 46.464844 20.324219 46.0625 20.003906 C 45.660156 19.679688 45.101562 19.519531 44.386719 19.519531 L 43.253906 19.519531 L 43.253906 18.4375 L 44.441406 18.4375 C 45.085938 18.4375 45.582031 18.308594 45.921875 18.050781 C 46.265625 17.792969 46.4375 17.417969 46.4375 16.933594 C 46.4375 16.433594 46.261719 16.050781 45.90625 15.785156 C 45.554688 15.515625 45.046875 15.382812 44.386719 15.382812 C 44.027344 15.382812 43.640625 15.421875 43.226562 15.5 C 42.816406 15.578125 42.363281 15.699219 41.867188 15.863281 L 41.867188 14.695312 C 42.367188 14.554688 42.835938 14.449219 43.269531 14.382812 C 43.707031 14.3125 44.117188 14.277344 44.503906 14.277344 C 45.503906 14.277344 46.292969 14.503906 46.875 14.957031 C 47.457031 15.410156 47.746094 16.023438 47.746094 16.796875 C 47.746094 17.335938 47.59375 17.789062 47.285156 18.160156 C 46.976562 18.53125 46.539062 18.789062 45.96875 18.929688 Z M 45.96875 18.929688 "/>
<path style=" stroke:none;fill-rule:nonzero;fill:rgb(0%,0%,0%);fill-opacity:1;" d="M 18.636719 118.53125 L 22.503906 118.53125 L 22.503906 119.734375 L 12.441406 119.734375 L 12.441406 118.53125 L 13.546875 118.53125 C 13.113281 118.277344 12.789062 117.960938 12.582031 117.578125 C 12.371094 117.191406 12.265625 116.734375 12.265625 116.199219 C 12.265625 115.3125 12.617188 114.59375 13.320312 114.042969 C 14.023438 113.488281 14.945312 113.210938 16.089844 113.210938 C 17.238281 113.210938 18.164062 113.488281 18.867188 114.042969 C 19.570312 114.59375 19.921875 115.3125 19.921875 116.199219 C 19.921875 116.734375 19.816406 117.191406 19.605469 117.578125 C 19.394531 117.960938 19.070312 118.277344 18.636719 118.53125 Z M 16.089844 114.453125 C 15.210938 114.453125 14.519531 114.636719 14.019531 114.996094 C 13.515625 115.359375 13.265625 115.859375 13.265625 116.492188 C 13.265625 117.125 13.515625 117.625 14.019531 117.988281 C 14.519531 118.351562 15.210938 118.53125 16.089844 118.53125 C 16.972656 118.53125 17.664062 118.351562 18.164062 117.988281 C 18.664062 117.625 18.917969 117.125 18.917969 116.492188 C 18.917969 115.859375 18.664062 115.359375 18.164062 114.996094 C 17.664062 114.636719 16.972656 114.453125 16.089844 114.453125 Z M 16.089844 114.453125 "/>
<path style=" stroke:none;fill-rule:nonzero;fill:rgb(0%,0%,0%);fill-opacity:1;" d="M 18.078125 111.058594 L 18.078125 109.683594 L 19.730469 109.683594 L 19.730469 111.058594 Z M 18.078125 111.058594 "/>
<path style=" stroke:none;fill-rule:nonzero;fill:rgb(0%,0%,0%);fill-opacity:1;" d="M 13.839844 101.3125 C 13.300781 101.011719 12.902344 100.652344 12.648438 100.234375 C 12.390625 99.820312 12.265625 99.328125 12.265625 98.765625 C 12.265625 98.003906 12.53125 97.417969 13.0625 97.007812 C 13.59375 96.59375 14.347656 96.386719 15.328125 96.386719 L 19.730469 96.386719 L 19.730469 97.59375 L 15.367188 97.59375 C 14.671875 97.59375 14.152344 97.714844 13.816406 97.964844 C 13.476562 98.210938 13.304688 98.589844 13.304688 99.097656 C 13.304688 99.71875 13.511719 100.207031 13.925781 100.570312 C 14.335938 100.929688 14.898438 101.109375 15.609375 101.109375 L 19.730469 101.109375 L 19.730469 102.3125 L 15.367188 102.3125 C 14.664062 102.3125 14.148438 102.4375 13.808594 102.683594 C 13.472656 102.929688 13.304688 103.3125 13.304688 103.828125 C 13.304688 104.441406 13.511719 104.929688 13.925781 105.289062 C 14.339844 105.648438 14.902344 105.828125 15.609375 105.828125 L 19.730469 105.828125 L 19.730469 107.035156 L 12.441406 107.035156 L 12.441406 105.828125 L 13.574219 105.828125 C 13.125 105.554688 12.796875 105.226562 12.582031 104.847656 C 12.371094 104.464844 12.265625 104.011719 12.265625 103.484375 C 12.265625 102.957031 12.398438 102.503906 12.667969 102.132812 C 12.9375 101.761719 13.328125 101.488281 13.839844 101.3125 Z M 13.839844 101.3125 "/>
<path style=" stroke:none;fill-rule:nonzero;fill:rgb(0%,0%,0%);fill-opacity:1;" d="M 18.078125 93.832031 L 18.078125 92.457031 L 19.730469 92.457031 L 19.730469 93.832031 Z M 18.078125 93.832031 "/>
<path style=" stroke:none;fill-rule:nonzero;fill:rgb(0%,0%,0%);fill-opacity:1;" d="M 9.601562 86.070312 L 10.597656 86.070312 L 10.597656 87.214844 C 10.597656 87.644531 10.683594 87.941406 10.859375 88.109375 C 11.03125 88.277344 11.34375 88.359375 11.796875 88.359375 L 12.441406 88.359375 L 12.441406 86.386719 L 13.371094 86.386719 L 13.371094 88.359375 L 19.730469 88.359375 L 19.730469 89.566406 L 13.371094 89.566406 L 13.371094 90.710938 L 12.441406 90.710938 L 12.441406 89.566406 L 11.929688 89.566406 C 11.121094 89.566406 10.527344 89.375 10.160156 89 C 9.785156 88.621094 9.601562 88.023438 9.601562 87.203125 Z M 9.601562 86.070312 "/>
<path style=" stroke:none;fill-rule:nonzero;fill:rgb(0%,0%,0%);fill-opacity:1;" d="M 18.078125 85.863281 L 18.078125 84.488281 L 19.730469 84.488281 L 19.730469 85.863281 Z M 18.078125 85.863281 "/>
<path style="fill:none;stroke-width:1.5;stroke-linecap:butt;stroke-linejoin:round;stroke:rgb(12.156863%,46.666667%,70.588237%);stroke-opacity:1;stroke-miterlimit:4;" d="M 52.658203 139.5 L 52.658203 94.699219 " transform="matrix(1.333333,0,0,1.333333,0,0.000000000000014211)"/>
<path style="fill:none;stroke-width:1.5;stroke-linecap:butt;stroke-linejoin:round;stroke:rgb(12.156863%,46.666667%,70.588237%);stroke-opacity:1;stroke-miterlimit:4;" d="M 70.412109 139.5 L 70.412109 27.500977 " transform="matrix(1.333333,0,0,1.333333,0,0.000000000000014211)"/>
<path style="fill:none;stroke-width:1.5;stroke-linecap:butt;stroke-linejoin:round;stroke:rgb(12.156863%,46.666667%,70.588237%);stroke-opacity:1;stroke-miterlimit:4;" d="M 88.168945 139.5 L 88.168945 13.5 " transform="matrix(1.333333,0,0,1.333333,0,0.000000000000014211)"/>
<path style="fill:none;stroke-width:1.5;stroke-linecap:butt;stroke-linejoin:round;stroke:rgb(12.156863%,46.666667%,70.588237%);stroke-opacity:1;stroke-miterlimit:4;" d="M 105.922852 139.5 L 105.922852 55.5 " transform="matrix(1.333333,0,0,1.333333,0,0.000000000000014211)"/>
<path style="fill:none;stroke-width:1.5;stroke-linecap:butt;stroke-linejoin:round;stroke:rgb(12.156863%,46.666667%,70.588237%);stroke-opacity:1;stroke-miterlimit:4;" d="M 123.676758 139.5 L 123.676758 102.75 " transform="matrix(1.333333,0,0,1.333333,0,0.000000000000014211)"/>
<path style="fill:none;stroke-width:1.5;stroke-linecap:butt;stroke-linejoin:round;stroke:rgb(12.156863%,46.666667%,70.588237%);stroke-opacity:1;stroke-miterlimit:4;" d="M 141.430664 139.5 L 141.430664 128.475586 " transform="matrix(1.333333,0,0,1.333333,0,0.000000000000014211)"/>
<path style="fill:none;stroke-width:1.5;stroke-linecap:butt;stroke-linejoin:round;stroke:rgb(12.156863%,46.666667%,70.588237%);stroke-opacity:1;stroke-miterlimit:4;" d="M 159.18457 139.5 L 159.18457 137.203125 " transform="matrix(1.333333,0,0,1.333333,0,0.000000000000014211)"/>
<path style="fill:none;stroke-width:1.5;stroke-linecap:butt;stroke-linejoin:round;stroke:rgb(12.156863%,46.666667%,70.588237%);stroke-opacity:1;stroke-miterlimit:4;" d="M 176.941406 139.5 L 176.941406 139.171875 " transform="matrix(1.333333,0,0,1.333333,0,0.000000000000014211)"/>
<path style="fill:none;stroke-width:1.5;stroke-linecap:butt;stroke-linejoin:round;stroke:rgb(12.156863%,46.666667%,70.588237%);stroke-opacity:1;stroke-miterlimit:4;" d="M 194.695312 139.5 L 194.695312 139.467773 " transform="matrix(1.333333,0,0,1.333333,0,0.000000000000014211)"/>
<path style="fill:none;stroke-width:1.5;stroke-linecap:butt;stroke-linejoin:round;stroke:rgb(12.156863%,46.666667%,70.588237%);stroke-opacity:1;stroke-miterlimit:4;" d="M 212.449219 139.5 L 212.449219 139.49707 " transform="matrix(1.333333,0,0,1.333333,0,0.000000000000014211)"/>
<path style="fill:none;stroke-width:1.5;stroke-linecap:butt;stroke-linejoin:round;stroke:rgb(12.156863%,46.666667%,70.588237%);stroke-opacity:1;stroke-miterlimit:4;" d="M 230.203125 139.5 L 230.203125 139.5 " transform="matrix(1.333333,0,0,1.333333,0,0.000000000000014211)"/>
<path style="fill-rule:nonzero;fill:rgb(12.156863%,46.666667%,70.588237%);fill-opacity:1;stroke-width:1;stroke-linecap:butt;stroke-linejoin:round;stroke:rgb(12.156863%,46.666667%,70.588237%);stroke-opacity:1;stroke-miterlimit:4;" d="M -0.000320435 2.999222 C 0.796555 2.999222 1.558273 2.682816 2.120773 2.120316 C 2.683273 1.557816 2.99968 0.796097 2.99968 -0.000778198 C 2.99968 -0.794724 2.683273 -1.559372 2.120773 -2.121872 C 1.558273 -2.684372 0.796555 -3.000778 -0.000320435 -3.000778 C -0.794266 -3.000778 -1.558914 -2.684372 -2.121414 -2.121872 C -2.683914 -1.559372 -3.00032 -0.794724 -3.00032 -0.000778198 C -3.00032 0.796097 -2.683914 1.557816 -2.121414 2.120316 C -1.558914 2.682816 -0.794266 2.999222 -0.000320435 2.999222 Z M -0.000320435 2.999222 " transform="matrix(1.333333,0,0,1.333333,70.211365,126.266663)"/>
<path style="fill-rule:nonzero;fill:rgb(12.156863%,46.666667%,70.588237%);fill-opacity:1;stroke-width:1;stroke-linecap:butt;stroke-linejoin:round;stroke:rgb(12.156863%,46.666667%,70.588237%);stroke-opacity:1;stroke-miterlimit:4;" d="M -0.000961304 3.000975 C 0.795914 3.000975 1.557632 2.684568 2.120132 2.122068 C 2.682632 1.559568 2.999039 0.79492 2.999039 0.000974655 C 2.999039 -0.7959 2.682632 -1.557619 2.120132 -2.120119 C 1.557632 -2.682619 0.795914 -2.999025 -0.000961304 -2.999025 C -0.794907 -2.999025 -1.559555 -2.682619 -2.122055 -2.120119 C -2.684555 -1.557619 -3.000961 -0.7959 -3.000961 0.000974655 C -3.000961 0.79492 -2.684555 1.559568 -2.122055 2.122068 C -1.559555 2.684568 -0.794907 3.000975 -0.000961304 3.000975 Z M -0.000961304 3.000975 " transform="matrix(1.333333,0,0,1.333333,93.884094,36.666669)"/>
<path style="fill-rule:nonzero;fill:rgb(12.156863%,46.666667%,70.588237%);fill-opacity:1;stroke-width:1;stroke-linecap:butt;stroke-linejoin:round;stroke:rgb(12.156863%,46.666667%,70.588237%);stroke-opacity:1;stroke-miterlimit:4;" d="M 0.00132751 3 C 0.795273 3 1.559921 2.683594 2.122421 2.121094 C 2.684921 1.558594 3.001328 0.796875 3.001328 -0.000000000000010658 C 3.001328 -0.796875 2.684921 -1.558594 2.122421 -2.121094 C 1.559921 -2.683594 0.795273 -3 0.00132751 -3 C -0.795547 -3 -1.560196 -2.683594 -2.122696 -2.121094 C -2.685196 -1.558594 -2.998672 -0.796875 -2.998672 -0.000000000000010658 C -2.998672 0.796875 -2.685196 1.558594 -2.122696 2.121094 C -1.560196 2.683594 -0.795547 3 0.00132751 3 Z M 0.00132751 3 " transform="matrix(1.333333,0,0,1.333333,117.556824,18)"/>
<path style="fill-rule:nonzero;fill:rgb(12.156863%,46.666667%,70.588237%);fill-opacity:1;stroke-width:1;stroke-linecap:butt;stroke-linejoin:round;stroke:rgb(12.156863%,46.666667%,70.588237%);stroke-opacity:1;stroke-miterlimit:4;" d="M 0.000694275 3.000004 C 0.79464 3.000004 1.559288 2.683598 2.121788 2.121098 C 2.684288 1.558598 3.000694 0.796879 3.000694 0.0000038147 C 3.000694 -0.796871 2.684288 -1.55859 2.121788 -2.12109 C 1.559288 -2.68359 0.79464 -2.999996 0.000694275 -2.999996 C -0.796181 -2.999996 -1.557899 -2.68359 -2.120399 -2.12109 C -2.682899 -1.55859 -2.999306 -0.796871 -2.999306 0.0000038147 C -2.999306 0.796879 -2.682899 1.558598 -2.120399 2.121098 C -1.557899 2.683598 -0.796181 3.000004 0.000694275 3.000004 Z M 0.000694275 3.000004 " transform="matrix(1.333333,0,0,1.333333,141.229543,73.999995)"/>
<path style="fill-rule:nonzero;fill:rgb(12.156863%,46.666667%,70.588237%);fill-opacity:1;stroke-width:1;stroke-linecap:butt;stroke-linejoin:round;stroke:rgb(12.156863%,46.666667%,70.588237%);stroke-opacity:1;stroke-miterlimit:4;" d="M 0.0000534058 3 C 0.796928 3 1.558647 2.683594 2.121147 2.121094 C 2.683647 1.558594 3.000053 0.796875 3.000053 -0.000000000000014211 C 3.000053 -0.796875 2.683647 -1.558594 2.121147 -2.121094 C 1.558647 -2.683594 0.796928 -3 0.0000534058 -3 C -0.796822 -3 -1.55854 -2.683594 -2.12104 -2.121094 C -2.68354 -1.558594 -2.999947 -0.796875 -2.999947 -0.000000000000014211 C -2.999947 0.796875 -2.68354 1.558594 -2.12104 2.121094 C -1.55854 2.683594 -0.796822 3 0.0000534058 3 Z M 0.0000534058 3 " transform="matrix(1.333333,0,0,1.333333,164.902273,137)"/>
<path style="fill-rule:nonzero;fill:rgb(12.156863%,46.666667%,70.588237%);fill-opacity:1;stroke-width:1;stroke-linecap:butt;stroke-linejoin:round;stroke:rgb(12.156863%,46.666667%,70.588237%);stroke-opacity:1;stroke-miterlimit:4;" d="M -0.000579834 3.00058 C 0.796295 3.00058 1.558014 2.684174 2.120514 2.121674 C 2.683014 1.559174 2.99942 0.794525 2.99942 0.000579834 C 2.99942 -0.796295 2.683014 -1.558014 2.120514 -2.120514 C 1.558014 -2.683014 0.796295 -2.99942 -0.000579834 -2.99942 C -0.794525 -2.99942 -1.559174 -2.683014 -2.121674 -2.120514 C -2.684174 -1.558014 -3.00058 -0.796295 -3.00058 0.000579834 C -3.00058 0.794525 -2.684174 1.559174 -2.121674 2.121674 C -1.559174 2.684174 -0.794525 3.00058 -0.000579834 3.00058 Z M -0.000579834 3.00058 " transform="matrix(1.333333,0,0,1.333333,188.574992,171.300008)"/>
<path style="fill-rule:nonzero;fill:rgb(12.156863%,46.666667%,70.588237%);fill-opacity:1;stroke-width:1;stroke-linecap:butt;stroke-linejoin:round;stroke:rgb(12.156863%,46.666667%,70.588237%);stroke-opacity:1;stroke-miterlimit:4;" d="M -0.0012207 3 C 0.795654 3 1.557373 2.683594 2.119873 2.121094 C 2.685303 1.558594 2.998779 0.796875 2.998779 0 C 2.998779 -0.796875 2.685303 -1.558594 2.119873 -2.121094 C 1.557373 -2.683594 0.795654 -3 -0.0012207 -3 C -0.795166 -3 -1.559814 -2.683594 -2.122314 -2.121094 C -2.684814 -1.558594 -3.001221 -0.796875 -3.001221 0 C -3.001221 0.796875 -2.684814 1.558594 -2.122314 2.121094 C -1.559814 2.683594 -0.795166 3 -0.0012207 3 Z M -0.0012207 3 " transform="matrix(1.333333,0,0,1.333333,212.247721,182.9375)"/>
<path style="fill-rule:nonzero;fill:rgb(12.156863%,46.666667%,70.588237%);fill-opacity:1;stroke-width:1;stroke-linecap:butt;stroke-linejoin:round;stroke:rgb(12.156863%,46.666667%,70.588237%);stroke-opacity:1;stroke-miterlimit:4;" d="M 0.00106812 3 C 0.795013 3 1.559662 2.683594 2.122162 2.121094 C 2.684662 1.558594 3.001068 0.796875 3.001068 0 C 3.001068 -0.796875 2.684662 -1.558594 2.122162 -2.121094 C 1.559662 -2.683594 0.795013 -3 0.00106812 -3 C -0.795807 -3 -1.557526 -2.683594 -2.120026 -2.121094 C -2.682526 -1.558594 -2.998932 -0.796875 -2.998932 0 C -2.998932 0.796875 -2.682526 1.558594 -2.120026 2.121094 C -1.557526 2.683594 -0.795807 3 0.00106812 3 Z M 0.00106812 3 " transform="matrix(1.333333,0,0,1.333333,235.920451,185.5625)"/>
<path style="fill-rule:nonzero;fill:rgb(12.156863%,46.666667%,70.588237%);fill-opacity:1;stroke-width:1;stroke-linecap:butt;stroke-linejoin:round;stroke:rgb(12.156863%,46.666667%,70.588237%);stroke-opacity:1;stroke-miterlimit:4;" d="M 0.000427246 3.001465 C 0.794373 3.001465 1.559021 2.685059 2.121521 2.122559 C 2.684021 1.560059 3.000427 0.79541 3.000427 0.00146484 C 3.000427 -0.79541 2.684021 -1.560059 2.121521 -2.122559 C 1.559021 -2.685059 0.794373 -2.998535 0.000427246 -2.998535 C -0.796448 -2.998535 -1.558167 -2.685059 -2.120667 -2.122559 C -2.683167 -1.560059 -2.999573 -0.79541 -2.999573 0.00146484 C -2.999573 0.79541 -2.683167 1.560059 -2.120667 2.122559 C -1.558167 2.685059 -0.796448 3.001465 0.000427246 3.001465 Z M 0.000427246 3.001465 " transform="matrix(1.333333,0,0,1.333333,259.59318,185.958984)"/>
<path style="fill-rule:nonzero;fill:rgb(12.156863%,46.666667%,70.588237%);fill-opacity:1;stroke-width:1;stroke-linecap:butt;stroke-linejoin:round;stroke:rgb(12.156863%,46.666667%,70.588237%);stroke-opacity:1;stroke-miterlimit:4;" d="M -0.000213623 2.998779 C 0.796661 2.998779 1.55838 2.685303 2.12088 2.119873 C 2.68338 1.557373 2.999786 0.795654 2.999786 -0.0012207 C 2.999786 -0.795166 2.68338 -1.559814 2.12088 -2.122314 C 1.55838 -2.684814 0.796661 -3.001221 -0.000213623 -3.001221 C -0.794159 -3.001221 -1.558807 -2.684814 -2.121307 -2.122314 C -2.683807 -1.559814 -3.000214 -0.795166 -3.000214 -0.0012207 C -3.000214 0.795654 -2.683807 1.557373 -2.121307 2.119873 C -1.558807 2.685303 -0.794159 2.998779 -0.000213623 2.998779 Z M -0.000213623 2.998779 " transform="matrix(1.333333,0,0,1.333333,283.26591,185.997721)"/>
<path style="fill-rule:nonzero;fill:rgb(12.156863%,46.666667%,70.588237%);fill-opacity:1;stroke-width:1;stroke-linecap:butt;stroke-linejoin:round;stroke:rgb(12.156863%,46.666667%,70.588237%);stroke-opacity:1;stroke-miterlimit:4;" d="M -0.000854492 3.000046 C 0.796021 3.000046 1.557739 2.68364 2.120239 2.12114 C 2.682739 1.55864 2.999146 0.796921 2.999146 0.0000457764 C 2.999146 -0.796829 2.682739 -1.558548 2.120239 -2.121048 C 1.557739 -2.683548 0.796021 -2.999954 -0.000854492 -2.999954 C -0.7948 -2.999954 -1.559448 -2.683548 -2.121948 -2.121048 C -2.684448 -1.558548 -3.000854 -0.796829 -3.000854 0.0000457764 C -3.000854 0.796921 -2.684448 1.55864 -2.121948 2.12114 C -1.559448 2.68364 -0.7948 3.000046 -0.000854492 3.000046 Z M -0.000854492 3.000046 " transform="matrix(1.333333,0,0,1.333333,306.938639,185.999939)"/>
<path style="fill:none;stroke-width:1.5;stroke-linecap:square;stroke-linejoin:round;stroke:rgb(83.92157%,15.294118%,15.686275%);stroke-opacity:1;stroke-miterlimit:4;" d="M 52.658203 139.5 L 230.203125 139.5 " transform="matrix(1.333333,0,0,1.333333,0,0.000000000000014211)"/>
<path style="fill:none;stroke-width:0.8;stroke-linecap:square;stroke-linejoin:miter;stroke:rgb(0%,0%,0%);stroke-opacity:1;stroke-miterlimit:4;" d="M 43.78125 145.798828 L 43.78125 7.201172 " transform="matrix(1.333333,0,0,1.333333,0,0.000000000000014211)"/>
<path style="fill:none;stroke-width:0.8;stroke-linecap:square;stroke-linejoin:miter;stroke:rgb(0%,0%,0%);stroke-opacity:1;stroke-miterlimit:4;" d="M 239.080078 145.798828 L 239.080078 7.201172 " transform="matrix(1.333333,0,0,1.333333,0,0.000000000000014211)"/>
<path style="fill:none;stroke-width:0.8;stroke-linecap:square;stroke-linejoin:miter;stroke:rgb(0%,0%,0%);stroke-opacity:1;stroke-miterlimit:4;" d="M 43.78125 145.798828 L 239.080078 145.798828 " transform="matrix(1.333333,0,0,1.333333,0,0.000000000000014211)"/>
<path style="fill:none;stroke-width:0.8;stroke-linecap:square;stroke-linejoin:miter;stroke:rgb(0%,0%,0%);stroke-opacity:1;stroke-miterlimit:4;" d="M 43.78125 7.201172 L 239.080078 7.201172 " transform="matrix(1.333333,0,0,1.333333,0,0.000000000000014211)"/>
</g>
</svg>
