<?xml version="1.0" encoding="UTF-8"?>
<svg xmlns="http://www.w3.org/2000/svg" xmlns:xlink="http://www.w3.org/1999/xlink" width="328.375" height="244.474996" viewBox="0 0 328.375 244.474996" version="1.1">
<defs>
<clipPath id="clip1">
  <path d="M 69 9.601562 L 71 9.601562 L 71 194.398438 L 69 194.398438 Z M 69 9.601562 "/>
</clipPath>
<clipPath id="clip2">
  <path d="M 128 9.601562 L 131 9.601562 L 131 194.398438 L 128 194.398438 Z M 128 9.601562 "/>
</clipPath>
<clipPath id="clip3">
  <path d="M 188 9.601562 L 190 9.601562 L 190 194.398438 L 188 194.398438 Z M 188 9.601562 "/>
</clipPath>
<clipPath id="clip4">
  <path d="M 247 9.601562 L 249 9.601562 L 249 194.398438 L 247 194.398438 Z M 247 9.601562 "/>
</clipPath>
<clipPath id="clip5">
  <path d="M 306 9.601562 L 309 9.601562 L 309 194.398438 L 306 194.398438 Z M 306 9.601562 "/>
</clipPath>
<clipPath id="clip6">
  <path d="M 58.375 185 L 318.773438 185 L 318.773438 187 L 58.375 187 Z M 58.375 185 "/>
</clipPath>
<clipPath id="clip7">
  <path d="M 58.375 151 L 318.773438 151 L 318.773438 154 L 58.375 154 Z M 58.375 151 "/>
</clipPath>
<clipPath id="clip8">
  <path d="M 58.375 118 L 318.773438 118 L 318.773438 120 L 58.375 120 Z M 58.375 118 "/>
</clipPath>
<clipPath id="clip9">
  <path d="M 58.375 84 L 318.773438 84 L 318.773438 86 L 58.375 86 Z M 58.375 84 "/>
</clipPath>
<clipPath id="clip10">
  <path d="M 58.375 50 L 318.773438 50 L 318.773438 53 L 58.375 53 Z M 58.375 50 "/>
</clipPath>
<clipPath id="clip11">
  <path d="M 58.375 17 L 318.773438 17 L 318.773438 19 L 58.375 19 Z M 58.375 17 "/>
</clipPath>
</defs>
<g id="surface1">
<path style=" stroke:none;fill-rule:nonzero;fill:rgb(100%,100%,100%);fill-opacity:1;" d="M 0 244.476562 L 328.375 244.476562 L 328.375 0 L 0 0 Z M 0 244.476562 "/>
<path style=" stroke:none;fill-rule:nonzero;fill:rgb(100%,100%,100%);fill-opacity:1;" d="M 58.375 194.398438 L 318.773438 194.398438 L 318.773438 9.601562 L 58.375 9.601562 Z M 58.375 194.398438 "/>
<g clip-path="url(#clip1)" clip-rule="nonzero">
<path style="fill:none;stroke-width:0.8;stroke-linecap:square;stroke-linejoin:round;stroke:rgb(69.01961%,69.01961%,69.01961%);stroke-opacity:1;stroke-miterlimit:4;" d="M 52.658203 145.798828 L 52.658203 7.201172 " transform="matrix(1.333333,0,0,1.333333,0,0.000000000000014211)"/>
</g>
<path style="fill:none;stroke-width:0.8;stroke-linecap:butt;stroke-linejoin:round;stroke:rgb(0%,0%,0%);stroke-opacity:1;stroke-miterlimit:4;" d="M -0.000320435 -0.00117493 L -0.000320435 3.499802 " transform="matrix(1.333333,0,0,1.333333,70.211365,194.400004)"/>
<path style=" stroke:none;fill-rule:nonzero;fill:rgb(0%,0%,0%);fill-opacity:1;" d="M 70.207031 205.011719 C 69.53125 205.011719 69.023438 205.34375 68.679688 206.011719 C 68.339844 206.675781 68.167969 207.675781 68.167969 209.015625 C 68.167969 210.347656 68.339844 211.347656 68.679688 212.011719 C 69.023438 212.679688 69.53125 213.011719 70.207031 213.011719 C 70.890625 213.011719 71.398438 212.679688 71.742188 212.011719 C 72.082031 211.347656 72.253906 210.347656 72.253906 209.015625 C 72.253906 207.675781 72.082031 206.675781 71.742188 206.011719 C 71.398438 205.34375 70.890625 205.011719 70.207031 205.011719 Z M 70.207031 203.96875 C 71.296875 203.96875 72.128906 204.398438 72.707031 205.261719 C 73.28125 206.125 73.566406 207.375 73.566406 209.015625 C 73.566406 210.652344 73.28125 211.898438 72.707031 212.761719 C 72.128906 213.625 71.296875 214.054688 70.207031 214.054688 C 69.117188 214.054688 68.285156 213.625 67.710938 212.761719 C 67.136719 211.898438 66.847656 210.652344 66.847656 209.015625 C 66.847656 207.375 67.136719 206.125 67.710938 205.261719 C 68.285156 204.398438 69.117188 203.96875 70.207031 203.96875 Z M 70.207031 203.96875 "/>
<g clip-path="url(#clip2)" clip-rule="nonzero">
<path style="fill:none;stroke-width:0.8;stroke-linecap:square;stroke-linejoin:round;stroke:rgb(69.01961%,69.01961%,69.01961%);stroke-opacity:1;stroke-miterlimit:4;" d="M 97.157227 145.798828 L 97.157227 7.201172 " transform="matrix(1.333333,0,0,1.333333,0,0.000000000000014211)"/>
</g>
<path style="fill:none;stroke-width:0.8;stroke-linecap:butt;stroke-linejoin:round;stroke:rgb(0%,0%,0%);stroke-opacity:1;stroke-miterlimit:4;" d="M 0.00109863 -0.00117493 L 0.00109863 3.499802 " transform="matrix(1.333333,0,0,1.333333,129.541504,194.400004)"/>
<path style=" stroke:none;fill-rule:nonzero;fill:rgb(0%,0%,0%);fill-opacity:1;" d="M 126.953125 212.757812 L 129.101562 212.757812 L 129.101562 205.339844 L 126.765625 205.808594 L 126.765625 204.613281 L 129.089844 204.144531 L 130.402344 204.144531 L 130.402344 212.757812 L 132.550781 212.757812 L 132.550781 213.863281 L 126.953125 213.863281 Z M 126.953125 212.757812 "/>
<g clip-path="url(#clip3)" clip-rule="nonzero">
<path style="fill:none;stroke-width:0.8;stroke-linecap:square;stroke-linejoin:round;stroke:rgb(69.01961%,69.01961%,69.01961%);stroke-opacity:1;stroke-miterlimit:4;" d="M 141.65332 145.798828 L 141.65332 7.201172 " transform="matrix(1.333333,0,0,1.333333,0,0.000000000000014211)"/>
</g>
<path style="fill:none;stroke-width:0.8;stroke-linecap:butt;stroke-linejoin:round;stroke:rgb(0%,0%,0%);stroke-opacity:1;stroke-miterlimit:4;" d="M -0.000411987 -0.00117493 L -0.000411987 3.499802 " transform="matrix(1.333333,0,0,1.333333,188.871643,194.400004)"/>
<path style=" stroke:none;fill-rule:nonzero;fill:rgb(0%,0%,0%);fill-opacity:1;" d="M 187.1875 212.757812 L 191.777344 212.757812 L 191.777344 213.863281 L 185.605469 213.863281 L 185.605469 212.757812 C 186.105469 212.242188 186.785156 211.546875 187.648438 210.679688 C 188.507812 209.808594 189.050781 209.246094 189.273438 208.992188 C 189.691406 208.523438 189.984375 208.121094 190.152344 207.792969 C 190.320312 207.464844 190.40625 207.144531 190.40625 206.828125 C 190.40625 206.308594 190.222656 205.890625 189.859375 205.566406 C 189.5 205.238281 189.027344 205.074219 188.445312 205.074219 C 188.03125 205.074219 187.597656 205.148438 187.136719 205.289062 C 186.679688 205.433594 186.191406 205.648438 185.671875 205.941406 L 185.671875 204.613281 C 186.199219 204.398438 186.695312 204.238281 187.15625 204.132812 C 187.617188 204.023438 188.039062 203.96875 188.417969 203.96875 C 189.425781 203.96875 190.230469 204.222656 190.828125 204.726562 C 191.425781 205.226562 191.726562 205.898438 191.726562 206.742188 C 191.726562 207.140625 191.652344 207.519531 191.5 207.878906 C 191.351562 208.234375 191.078125 208.65625 190.683594 209.144531 C 190.574219 209.269531 190.230469 209.632812 189.648438 210.234375 C 189.066406 210.835938 188.246094 211.679688 187.1875 212.757812 Z M 187.1875 212.757812 "/>
<g clip-path="url(#clip4)" clip-rule="nonzero">
<path style="fill:none;stroke-width:0.8;stroke-linecap:square;stroke-linejoin:round;stroke:rgb(69.01961%,69.01961%,69.01961%);stroke-opacity:1;stroke-miterlimit:4;" d="M 186.152344 145.798828 L 186.152344 7.201172 " transform="matrix(1.333333,0,0,1.333333,0,0.000000000000014211)"/>
</g>
<path style="fill:none;stroke-width:0.8;stroke-linecap:butt;stroke-linejoin:round;stroke:rgb(0%,0%,0%);stroke-opacity:1;stroke-miterlimit:4;" d="M 0.000991821 -0.00117493 L 0.000991821 3.499802 " transform="matrix(1.333333,0,0,1.333333,248.201803,194.400004)"/>
<path style=" stroke:none;fill-rule:nonzero;fill:rgb(0%,0%,0%);fill-opacity:1;" d="M 249.371094 208.621094 C 250 208.757812 250.492188 209.039062 250.84375 209.464844 C 251.199219 209.890625 251.375 210.414062 251.375 211.039062 C 251.375 211.996094 251.042969 212.742188 250.386719 213.265625 C 249.726562 213.792969 248.789062 214.054688 247.574219 214.054688 C 247.164062 214.054688 246.746094 214.015625 246.3125 213.933594 C 245.882812 213.851562 245.4375 213.730469 244.976562 213.570312 L 244.976562 212.300781 C 245.339844 212.515625 245.738281 212.675781 246.171875 212.785156 C 246.605469 212.890625 247.0625 212.945312 247.535156 212.945312 C 248.359375 212.945312 248.988281 212.785156 249.417969 212.457031 C 249.851562 212.132812 250.066406 211.660156 250.066406 211.039062 C 250.066406 210.464844 249.867188 210.019531 249.464844 209.695312 C 249.0625 209.371094 248.503906 209.210938 247.789062 209.210938 L 246.65625 209.210938 L 246.65625 208.128906 L 247.839844 208.128906 C 248.488281 208.128906 248.980469 208 249.324219 207.742188 C 249.667969 207.484375 249.839844 207.109375 249.839844 206.625 C 249.839844 206.125 249.664062 205.742188 249.308594 205.476562 C 248.957031 205.210938 248.449219 205.074219 247.789062 205.074219 C 247.429688 205.074219 247.042969 205.113281 246.628906 205.195312 C 246.214844 205.273438 245.761719 205.390625 245.269531 205.554688 L 245.269531 204.386719 C 245.769531 204.246094 246.238281 204.140625 246.671875 204.074219 C 247.109375 204.003906 247.519531 203.96875 247.90625 203.96875 C 248.90625 203.96875 249.695312 204.195312 250.273438 204.648438 C 250.855469 205.101562 251.148438 205.714844 251.148438 206.488281 C 251.148438 207.027344 250.992188 207.480469 250.683594 207.851562 C 250.375 208.222656 249.9375 208.480469 249.371094 208.621094 Z M 249.371094 208.621094 "/>
<g clip-path="url(#clip5)" clip-rule="nonzero">
<path style="fill:none;stroke-width:0.8;stroke-linecap:square;stroke-linejoin:round;stroke:rgb(69.01961%,69.01961%,69.01961%);stroke-opacity:1;stroke-miterlimit:4;" d="M 230.648438 145.798828 L 230.648438 7.201172 " transform="matrix(1.333333,0,0,1.333333,0,0.000000000000014211)"/>
</g>
<path style="fill:none;stroke-width:0.8;stroke-linecap:butt;stroke-linejoin:round;stroke:rgb(0%,0%,0%);stroke-opacity:1;stroke-miterlimit:4;" d="M -0.000518799 -0.00117493 L -0.000518799 3.499802 " transform="matrix(1.333333,0,0,1.333333,307.531942,194.400004)"/>
<path style=" stroke:none;fill-rule:nonzero;fill:rgb(0%,0%,0%);fill-opacity:1;" d="M 308.328125 205.289062 L 305.007812 210.480469 L 308.328125 210.480469 Z M 307.984375 204.144531 L 309.636719 204.144531 L 309.636719 210.480469 L 311.027344 210.480469 L 311.027344 211.574219 L 309.636719 211.574219 L 309.636719 213.863281 L 308.328125 213.863281 L 308.328125 211.574219 L 303.941406 211.574219 L 303.941406 210.304688 Z M 307.984375 204.144531 "/>
<path style=" stroke:none;fill-rule:nonzero;fill:rgb(0%,0%,0%);fill-opacity:1;" d="M 191.949219 224.808594 L 189.308594 228.359375 L 192.082031 232.101562 L 190.671875 232.101562 L 188.546875 229.238281 L 186.425781 232.101562 L 185.011719 232.101562 L 187.847656 228.289062 L 185.253906 224.808594 L 186.667969 224.808594 L 188.601562 227.410156 L 190.535156 224.808594 Z M 191.949219 224.808594 "/>
<g clip-path="url(#clip6)" clip-rule="nonzero">
<path style="fill:none;stroke-width:0.8;stroke-linecap:square;stroke-linejoin:round;stroke:rgb(69.01961%,69.01961%,69.01961%);stroke-opacity:1;stroke-miterlimit:4;" d="M 43.78125 139.5 L 239.080078 139.5 " transform="matrix(1.333333,0,0,1.333333,0,0.000000000000014211)"/>
</g>
<path style="fill:none;stroke-width:0.8;stroke-linecap:butt;stroke-linejoin:round;stroke:rgb(0%,0%,0%);stroke-opacity:1;stroke-miterlimit:4;" d="M 0 0 L -3.500977 0 " transform="matrix(1.333333,0,0,1.333333,58.375,186)"/>
<path style=" stroke:none;fill-rule:nonzero;fill:rgb(0%,0%,0%);fill-opacity:1;" d="M 32.074219 182.210938 C 31.398438 182.210938 30.890625 182.542969 30.546875 183.210938 C 30.207031 183.875 30.039062 184.878906 30.039062 186.214844 C 30.039062 187.546875 30.207031 188.546875 30.546875 189.214844 C 30.890625 189.878906 31.398438 190.214844 32.074219 190.214844 C 32.757812 190.214844 33.269531 189.878906 33.609375 189.214844 C 33.949219 188.546875 34.121094 187.546875 34.121094 186.214844 C 34.121094 184.878906 33.949219 183.875 33.609375 183.210938 C 33.269531 182.542969 32.757812 182.210938 32.074219 182.210938 Z M 32.074219 181.167969 C 33.164062 181.167969 33.996094 181.601562 34.574219 182.464844 C 35.148438 183.324219 35.433594 184.574219 35.433594 186.214844 C 35.433594 187.851562 35.148438 189.101562 34.574219 189.964844 C 33.996094 190.824219 33.164062 191.253906 32.074219 191.253906 C 30.984375 191.253906 30.152344 190.824219 29.578125 189.964844 C 29.003906 189.101562 28.714844 187.851562 28.714844 186.214844 C 28.714844 184.574219 29.003906 183.324219 29.578125 182.464844 C 30.152344 181.601562 30.984375 181.167969 32.074219 181.167969 Z M 32.074219 181.167969 "/>
<path style=" stroke:none;fill-rule:nonzero;fill:rgb(0%,0%,0%);fill-opacity:1;" d="M 37.746094 189.410156 L 39.121094 189.410156 L 39.121094 191.066406 L 37.746094 191.066406 Z M 37.746094 189.410156 "/>
<path style=" stroke:none;fill-rule:nonzero;fill:rgb(0%,0%,0%);fill-opacity:1;" d="M 44.796875 182.210938 C 44.121094 182.210938 43.609375 182.542969 43.269531 183.210938 C 42.929688 183.875 42.757812 184.878906 42.757812 186.214844 C 42.757812 187.546875 42.929688 188.546875 43.269531 189.214844 C 43.609375 189.878906 44.121094 190.214844 44.796875 190.214844 C 45.476562 190.214844 45.988281 189.878906 46.328125 189.214844 C 46.671875 188.546875 46.84375 187.546875 46.84375 186.214844 C 46.84375 184.878906 46.671875 183.875 46.328125 183.210938 C 45.988281 182.542969 45.476562 182.210938 44.796875 182.210938 Z M 44.796875 181.167969 C 45.886719 181.167969 46.71875 181.601562 47.292969 182.464844 C 47.871094 183.324219 48.15625 184.574219 48.15625 186.214844 C 48.15625 187.851562 47.871094 189.101562 47.292969 189.964844 C 46.71875 190.824219 45.886719 191.253906 44.796875 191.253906 C 43.707031 191.253906 42.875 190.824219 42.300781 189.964844 C 41.726562 189.101562 41.4375 187.851562 41.4375 186.214844 C 41.4375 184.574219 41.726562 183.324219 42.300781 182.464844 C 42.875 181.601562 43.707031 181.167969 44.796875 181.167969 Z M 44.796875 181.167969 "/>
<g clip-path="url(#clip7)" clip-rule="nonzero">
<path style="fill:none;stroke-width:0.8;stroke-linecap:square;stroke-linejoin:round;stroke:rgb(69.01961%,69.01961%,69.01961%);stroke-opacity:1;stroke-miterlimit:4;" d="M 43.78125 114.298828 L 239.080078 114.298828 " transform="matrix(1.333333,0,0,1.333333,0,0.000000000000014211)"/>
</g>
<path style="fill:none;stroke-width:0.8;stroke-linecap:butt;stroke-linejoin:round;stroke:rgb(0%,0%,0%);stroke-opacity:1;stroke-miterlimit:4;" d="M 0 -0.00117493 L -3.500977 -0.00117493 " transform="matrix(1.333333,0,0,1.333333,58.375,152.400004)"/>
<path style=" stroke:none;fill-rule:nonzero;fill:rgb(0%,0%,0%);fill-opacity:1;" d="M 32.074219 148.613281 C 31.398438 148.613281 30.890625 148.945312 30.546875 149.613281 C 30.207031 150.277344 30.039062 151.277344 30.039062 152.617188 C 30.039062 153.949219 30.207031 154.945312 30.546875 155.613281 C 30.890625 156.28125 31.398438 156.613281 32.074219 156.613281 C 32.757812 156.613281 33.269531 156.28125 33.609375 155.613281 C 33.949219 154.945312 34.121094 153.949219 34.121094 152.617188 C 34.121094 151.277344 33.949219 150.277344 33.609375 149.613281 C 33.269531 148.945312 32.757812 148.613281 32.074219 148.613281 Z M 32.074219 147.570312 C 33.164062 147.570312 33.996094 148 34.574219 148.863281 C 35.148438 149.726562 35.433594 150.976562 35.433594 152.617188 C 35.433594 154.25 35.148438 155.5 34.574219 156.363281 C 33.996094 157.226562 33.164062 157.65625 32.074219 157.65625 C 30.984375 157.65625 30.152344 157.226562 29.578125 156.363281 C 29.003906 155.5 28.714844 154.25 28.714844 152.617188 C 28.714844 150.976562 29.003906 149.726562 29.578125 148.863281 C 30.152344 148 30.984375 147.570312 32.074219 147.570312 Z M 32.074219 147.570312 "/>
<path style=" stroke:none;fill-rule:nonzero;fill:rgb(0%,0%,0%);fill-opacity:1;" d="M 37.746094 155.8125 L 39.121094 155.8125 L 39.121094 157.464844 L 37.746094 157.464844 Z M 37.746094 155.8125 "/>
<path style=" stroke:none;fill-rule:nonzero;fill:rgb(0%,0%,0%);fill-opacity:1;" d="M 43.117188 156.359375 L 47.707031 156.359375 L 47.707031 157.464844 L 41.535156 157.464844 L 41.535156 156.359375 C 42.035156 155.84375 42.714844 155.148438 43.574219 154.28125 C 44.4375 153.410156 44.980469 152.847656 45.199219 152.59375 C 45.621094 152.121094 45.914062 151.722656 46.082031 151.394531 C 46.25 151.066406 46.332031 150.746094 46.332031 150.429688 C 46.332031 149.910156 46.152344 149.492188 45.789062 149.164062 C 45.425781 148.839844 44.957031 148.675781 44.375 148.675781 C 43.960938 148.675781 43.527344 148.746094 43.066406 148.890625 C 42.609375 149.035156 42.121094 149.25 41.601562 149.542969 L 41.601562 148.214844 C 42.128906 148 42.625 147.839844 43.082031 147.730469 C 43.546875 147.625 43.964844 147.570312 44.347656 147.570312 C 45.355469 147.570312 46.15625 147.820312 46.757812 148.324219 C 47.355469 148.828125 47.65625 149.5 47.65625 150.34375 C 47.65625 150.742188 47.578125 151.121094 47.429688 151.480469 C 47.28125 151.835938 47.007812 152.257812 46.613281 152.746094 C 46.503906 152.871094 46.160156 153.234375 45.578125 153.835938 C 44.996094 154.4375 44.175781 155.277344 43.117188 156.359375 Z M 43.117188 156.359375 "/>
<g clip-path="url(#clip8)" clip-rule="nonzero">
<path style="fill:none;stroke-width:0.8;stroke-linecap:square;stroke-linejoin:round;stroke:rgb(69.01961%,69.01961%,69.01961%);stroke-opacity:1;stroke-miterlimit:4;" d="M 43.78125 89.100586 L 239.080078 89.100586 " transform="matrix(1.333333,0,0,1.333333,0,0.000000000000014211)"/>
</g>
<path style="fill:none;stroke-width:0.8;stroke-linecap:butt;stroke-linejoin:round;stroke:rgb(0%,0%,0%);stroke-opacity:1;stroke-miterlimit:4;" d="M 0 0.000587463 L -3.500977 0.000587463 " transform="matrix(1.333333,0,0,1.333333,58.375,118.799998)"/>
<path style=" stroke:none;fill-rule:nonzero;fill:rgb(0%,0%,0%);fill-opacity:1;" d="M 32.074219 115.011719 C 31.398438 115.011719 30.890625 115.34375 30.546875 116.011719 C 30.207031 116.675781 30.039062 117.679688 30.039062 119.015625 C 30.039062 120.347656 30.207031 121.347656 30.546875 122.011719 C 30.890625 122.679688 31.398438 123.011719 32.074219 123.011719 C 32.757812 123.011719 33.269531 122.679688 33.609375 122.011719 C 33.949219 121.347656 34.121094 120.347656 34.121094 119.015625 C 34.121094 117.679688 33.949219 116.675781 33.609375 116.011719 C 33.269531 115.34375 32.757812 115.011719 32.074219 115.011719 Z M 32.074219 113.96875 C 33.164062 113.96875 33.996094 114.402344 34.574219 115.261719 C 35.148438 116.125 35.433594 117.375 35.433594 119.015625 C 35.433594 120.652344 35.148438 121.902344 34.574219 122.761719 C 33.996094 123.625 33.164062 124.054688 32.074219 124.054688 C 30.984375 124.054688 30.152344 123.625 29.578125 122.761719 C 29.003906 121.902344 28.714844 120.652344 28.714844 119.015625 C 28.714844 117.375 29.003906 116.125 29.578125 115.261719 C 30.152344 114.402344 30.984375 113.96875 32.074219 113.96875 Z M 32.074219 113.96875 "/>
<path style=" stroke:none;fill-rule:nonzero;fill:rgb(0%,0%,0%);fill-opacity:1;" d="M 37.746094 122.210938 L 39.121094 122.210938 L 39.121094 123.867188 L 37.746094 123.867188 Z M 37.746094 122.210938 "/>
<path style=" stroke:none;fill-rule:nonzero;fill:rgb(0%,0%,0%);fill-opacity:1;" d="M 45.597656 115.289062 L 42.277344 120.480469 L 45.597656 120.480469 Z M 45.253906 114.144531 L 46.90625 114.144531 L 46.90625 120.480469 L 48.292969 120.480469 L 48.292969 121.574219 L 46.90625 121.574219 L 46.90625 123.867188 L 45.597656 123.867188 L 45.597656 121.574219 L 41.210938 121.574219 L 41.210938 120.304688 Z M 45.253906 114.144531 "/>
<g clip-path="url(#clip9)" clip-rule="nonzero">
<path style="fill:none;stroke-width:0.8;stroke-linecap:square;stroke-linejoin:round;stroke:rgb(69.01961%,69.01961%,69.01961%);stroke-opacity:1;stroke-miterlimit:4;" d="M 43.78125 63.899414 L 239.080078 63.899414 " transform="matrix(1.333333,0,0,1.333333,0,0.000000000000014211)"/>
</g>
<path style="fill:none;stroke-width:0.8;stroke-linecap:butt;stroke-linejoin:round;stroke:rgb(0%,0%,0%);stroke-opacity:1;stroke-miterlimit:4;" d="M 0 -0.000587463 L -3.500977 -0.000587463 " transform="matrix(1.333333,0,0,1.333333,58.375,85.200002)"/>
<path style=" stroke:none;fill-rule:nonzero;fill:rgb(0%,0%,0%);fill-opacity:1;" d="M 32.074219 81.410156 C 31.398438 81.410156 30.890625 81.746094 30.546875 82.410156 C 30.207031 83.078125 30.039062 84.078125 30.039062 85.414062 C 30.039062 86.746094 30.207031 87.746094 30.546875 88.414062 C 30.890625 89.082031 31.398438 89.414062 32.074219 89.414062 C 32.757812 89.414062 33.269531 89.082031 33.609375 88.414062 C 33.949219 87.746094 34.121094 86.746094 34.121094 85.414062 C 34.121094 84.078125 33.949219 83.078125 33.609375 82.410156 C 33.269531 81.746094 32.757812 81.410156 32.074219 81.410156 Z M 32.074219 80.371094 C 33.164062 80.371094 33.996094 80.800781 34.574219 81.664062 C 35.148438 82.523438 35.433594 83.773438 35.433594 85.414062 C 35.433594 87.050781 35.148438 88.300781 34.574219 89.164062 C 33.996094 90.023438 33.164062 90.457031 32.074219 90.457031 C 30.984375 90.457031 30.152344 90.023438 29.578125 89.164062 C 29.003906 88.300781 28.714844 87.050781 28.714844 85.414062 C 28.714844 83.773438 29.003906 82.523438 29.578125 81.664062 C 30.152344 80.800781 30.984375 80.371094 32.074219 80.371094 Z M 32.074219 80.371094 "/>
<path style=" stroke:none;fill-rule:nonzero;fill:rgb(0%,0%,0%);fill-opacity:1;" d="M 37.746094 88.613281 L 39.121094 88.613281 L 39.121094 90.265625 L 37.746094 90.265625 Z M 37.746094 88.613281 "/>
<path style=" stroke:none;fill-rule:nonzero;fill:rgb(0%,0%,0%);fill-opacity:1;" d="M 44.960938 84.882812 C 44.371094 84.882812 43.902344 85.085938 43.558594 85.488281 C 43.210938 85.890625 43.039062 86.445312 43.039062 87.148438 C 43.039062 87.84375 43.210938 88.398438 43.558594 88.804688 C 43.902344 89.210938 44.371094 89.414062 44.960938 89.414062 C 45.550781 89.414062 46.019531 89.210938 46.363281 88.804688 C 46.707031 88.398438 46.878906 87.84375 46.878906 87.148438 C 46.878906 86.445312 46.707031 85.890625 46.363281 85.488281 C 46.019531 85.085938 45.550781 84.882812 44.960938 84.882812 Z M 47.570312 80.757812 L 47.570312 81.957031 C 47.242188 81.800781 46.90625 81.683594 46.570312 81.601562 C 46.234375 81.519531 45.902344 81.476562 45.570312 81.476562 C 44.703125 81.476562 44.039062 81.769531 43.582031 82.355469 C 43.125 82.941406 42.863281 83.828125 42.796875 85.011719 C 43.054688 84.632812 43.375 84.34375 43.761719 84.144531 C 44.148438 83.941406 44.574219 83.839844 45.039062 83.839844 C 46.015625 83.839844 46.785156 84.136719 47.351562 84.730469 C 47.917969 85.320312 48.203125 86.128906 48.203125 87.148438 C 48.203125 88.144531 47.90625 88.945312 47.316406 89.550781 C 46.726562 90.152344 45.941406 90.457031 44.960938 90.457031 C 43.835938 90.457031 42.976562 90.023438 42.382812 89.164062 C 41.789062 88.300781 41.488281 87.050781 41.488281 85.414062 C 41.488281 83.878906 41.855469 82.65625 42.582031 81.742188 C 43.3125 80.828125 44.292969 80.371094 45.519531 80.371094 C 45.851562 80.371094 46.183594 80.402344 46.519531 80.46875 C 46.855469 80.53125 47.207031 80.628906 47.570312 80.757812 Z M 47.570312 80.757812 "/>
<g clip-path="url(#clip10)" clip-rule="nonzero">
<path style="fill:none;stroke-width:0.8;stroke-linecap:square;stroke-linejoin:round;stroke:rgb(69.01961%,69.01961%,69.01961%);stroke-opacity:1;stroke-miterlimit:4;" d="M 43.78125 38.701172 L 239.080078 38.701172 " transform="matrix(1.333333,0,0,1.333333,0,0.000000000000014211)"/>
</g>
<path style="fill:none;stroke-width:0.8;stroke-linecap:butt;stroke-linejoin:round;stroke:rgb(0%,0%,0%);stroke-opacity:1;stroke-miterlimit:4;" d="M 0 0.00117111 L -3.500977 0.00117111 " transform="matrix(1.333333,0,0,1.333333,58.375,51.600001)"/>
<path style=" stroke:none;fill-rule:nonzero;fill:rgb(0%,0%,0%);fill-opacity:1;" d="M 32.074219 47.8125 C 31.398438 47.8125 30.890625 48.144531 30.546875 48.8125 C 30.207031 49.476562 30.039062 50.476562 30.039062 51.816406 C 30.039062 53.148438 30.207031 54.148438 30.546875 54.8125 C 30.890625 55.480469 31.398438 55.8125 32.074219 55.8125 C 32.757812 55.8125 33.269531 55.480469 33.609375 54.8125 C 33.949219 54.148438 34.121094 53.148438 34.121094 51.816406 C 34.121094 50.476562 33.949219 49.476562 33.609375 48.8125 C 33.269531 48.144531 32.757812 47.8125 32.074219 47.8125 Z M 32.074219 46.769531 C 33.164062 46.769531 33.996094 47.199219 34.574219 48.0625 C 35.148438 48.925781 35.433594 50.175781 35.433594 51.816406 C 35.433594 53.453125 35.148438 54.699219 34.574219 55.5625 C 33.996094 56.425781 33.164062 56.855469 32.074219 56.855469 C 30.984375 56.855469 30.152344 56.425781 29.578125 55.5625 C 29.003906 54.699219 28.714844 53.453125 28.714844 51.816406 C 28.714844 50.175781 29.003906 48.925781 29.578125 48.0625 C 30.152344 47.199219 30.984375 46.769531 32.074219 46.769531 Z M 32.074219 46.769531 "/>
<path style=" stroke:none;fill-rule:nonzero;fill:rgb(0%,0%,0%);fill-opacity:1;" d="M 37.746094 55.011719 L 39.121094 55.011719 L 39.121094 56.664062 L 37.746094 56.664062 Z M 37.746094 55.011719 "/>
<path style=" stroke:none;fill-rule:nonzero;fill:rgb(0%,0%,0%);fill-opacity:1;" d="M 44.796875 52.050781 C 44.171875 52.050781 43.679688 52.214844 43.320312 52.550781 C 42.964844 52.886719 42.785156 53.34375 42.785156 53.929688 C 42.785156 54.515625 42.964844 54.976562 43.320312 55.3125 C 43.679688 55.644531 44.171875 55.8125 44.796875 55.8125 C 45.421875 55.8125 45.914062 55.644531 46.273438 55.308594 C 46.632812 54.972656 46.816406 54.511719 46.816406 53.929688 C 46.816406 53.34375 46.636719 52.886719 46.277344 52.550781 C 45.921875 52.214844 45.425781 52.050781 44.796875 52.050781 Z M 43.480469 51.492188 C 42.917969 51.351562 42.476562 51.089844 42.164062 50.703125 C 41.847656 50.316406 41.691406 49.84375 41.691406 49.289062 C 41.691406 48.511719 41.96875 47.898438 42.519531 47.445312 C 43.074219 46.996094 43.832031 46.769531 44.796875 46.769531 C 45.765625 46.769531 46.523438 46.996094 47.074219 47.445312 C 47.625 47.898438 47.902344 48.511719 47.902344 49.289062 C 47.902344 49.84375 47.746094 50.316406 47.429688 50.703125 C 47.117188 51.089844 46.679688 51.351562 46.121094 51.492188 C 46.753906 51.636719 47.246094 51.925781 47.597656 52.355469 C 47.953125 52.785156 48.128906 53.3125 48.128906 53.929688 C 48.128906 54.875 47.84375 55.597656 47.265625 56.101562 C 46.691406 56.605469 45.867188 56.855469 44.796875 56.855469 C 43.726562 56.855469 42.902344 56.605469 42.324219 56.101562 C 41.75 55.597656 41.464844 54.875 41.464844 53.929688 C 41.464844 53.3125 41.640625 52.785156 41.996094 52.355469 C 42.351562 51.925781 42.847656 51.636719 43.480469 51.492188 Z M 43 49.414062 C 43 49.917969 43.15625 50.308594 43.472656 50.589844 C 43.785156 50.871094 44.226562 51.011719 44.796875 51.011719 C 45.363281 51.011719 45.804688 50.871094 46.121094 50.589844 C 46.441406 50.308594 46.601562 49.917969 46.601562 49.414062 C 46.601562 48.910156 46.441406 48.515625 46.121094 48.234375 C 45.804688 47.953125 45.363281 47.8125 44.796875 47.8125 C 44.226562 47.8125 43.785156 47.953125 43.472656 48.234375 C 43.15625 48.515625 43 48.910156 43 49.414062 Z M 43 49.414062 "/>
<g clip-path="url(#clip11)" clip-rule="nonzero">
<path style="fill:none;stroke-width:0.8;stroke-linecap:square;stroke-linejoin:round;stroke:rgb(69.01961%,69.01961%,69.01961%);stroke-opacity:1;stroke-miterlimit:4;" d="M 43.78125 13.5 L 239.080078 13.5 " transform="matrix(1.333333,0,0,1.333333,0,0.000000000000014211)"/>
</g>
<path style="fill:none;stroke-width:0.8;stroke-linecap:butt;stroke-linejoin:round;stroke:rgb(0%,0%,0%);stroke-opacity:1;stroke-miterlimit:4;" d="M 0 -0.000000000000010658 L -3.500977 -0.000000000000010658 " transform="matrix(1.333333,0,0,1.333333,58.375,18)"/>
<path style=" stroke:none;fill-rule:nonzero;fill:rgb(0%,0%,0%);fill-opacity:1;" d="M 29.492188 21.960938 L 31.640625 21.960938 L 31.640625 14.542969 L 29.300781 15.011719 L 29.300781 13.8125 L 31.628906 13.34375 L 32.941406 13.34375 L 32.941406 21.960938 L 35.089844 21.960938 L 35.089844 23.066406 L 29.492188 23.066406 Z M 29.492188 21.960938 "/>
<path style=" stroke:none;fill-rule:nonzero;fill:rgb(0%,0%,0%);fill-opacity:1;" d="M 37.746094 21.410156 L 39.121094 21.410156 L 39.121094 23.066406 L 37.746094 23.066406 Z M 37.746094 21.410156 "/>
<path style=" stroke:none;fill-rule:nonzero;fill:rgb(0%,0%,0%);fill-opacity:1;" d="M 44.796875 14.210938 C 44.121094 14.210938 43.609375 14.542969 43.269531 15.210938 C 42.929688 15.875 42.757812 16.878906 42.757812 18.214844 C 42.757812 19.546875 42.929688 20.546875 43.269531 21.214844 C 43.609375 21.878906 44.121094 22.214844 44.796875 22.214844 C 45.476562 22.214844 45.988281 21.878906 46.328125 21.214844 C 46.671875 20.546875 46.84375 19.546875 46.84375 18.214844 C 46.84375 16.878906 46.671875 15.875 46.328125 15.210938 C 45.988281 14.542969 45.476562 14.210938 44.796875 14.210938 Z M 44.796875 13.167969 C 45.886719 13.167969 46.71875 13.601562 47.292969 14.464844 C 47.871094 15.324219 48.15625 16.574219 48.15625 18.214844 C 48.15625 19.851562 47.871094 21.101562 47.292969 21.964844 C 46.71875 22.824219 45.886719 23.253906 44.796875 23.253906 C 43.707031 23.253906 42.875 22.824219 42.300781 21.964844 C 41.726562 21.101562 41.4375 19.851562 41.4375 18.214844 C 41.4375 16.574219 41.726562 15.324219 42.300781 14.464844 C 42.875 13.601562 43.707031 13.167969 44.796875 13.167969 Z M 44.796875 13.167969 "/>
<path style=" stroke:none;fill-rule:nonzero;fill:rgb(0%,0%,0%);fill-opacity:1;" d="M 12.71875 111.613281 L 13.839844 111.613281 C 13.652344 111.953125 13.511719 112.292969 13.417969 112.632812 C 13.324219 112.972656 13.277344 113.316406 13.277344 113.664062 C 13.277344 114.441406 13.527344 115.046875 14.019531 115.476562 C 14.511719 115.90625 15.203125 116.121094 16.089844 116.121094 C 16.980469 116.121094 17.671875 115.90625 18.167969 115.476562 C 18.660156 115.046875 18.902344 114.441406 18.902344 113.664062 C 18.902344 113.316406 18.859375 112.972656 18.765625 112.632812 C 18.671875 112.292969 18.53125 111.953125 18.34375 111.613281 L 19.453125 111.613281 C 19.609375 111.949219 19.722656 112.292969 19.800781 112.652344 C 19.882812 113.011719 19.921875 113.390625 19.921875 113.792969 C 19.921875 114.894531 19.574219 115.765625 18.886719 116.414062 C 18.195312 117.058594 17.265625 117.382812 16.089844 117.382812 C 14.902344 117.382812 13.96875 117.054688 13.289062 116.402344 C 12.605469 115.75 12.265625 114.851562 12.265625 113.714844 C 12.265625 113.347656 12.304688 112.988281 12.378906 112.636719 C 12.453125 112.285156 12.566406 111.945312 12.71875 111.613281 Z M 12.71875 111.613281 "/>
<path style=" stroke:none;fill-rule:nonzero;fill:rgb(0%,0%,0%);fill-opacity:1;" d="M 18.078125 109.363281 L 18.078125 107.988281 L 19.730469 107.988281 L 19.730469 109.363281 Z M 18.078125 109.363281 "/>
<path style=" stroke:none;fill-rule:nonzero;fill:rgb(0%,0%,0%);fill-opacity:1;" d="M 13.546875 100.496094 L 9.601562 100.496094 L 9.601562 99.296875 L 19.730469 99.296875 L 19.730469 100.496094 L 18.636719 100.496094 C 19.070312 100.746094 19.394531 101.0625 19.605469 101.449219 C 19.816406 101.832031 19.921875 102.292969 19.921875 102.832031 C 19.921875 103.710938 19.570312 104.429688 18.867188 104.984375 C 18.164062 105.535156 17.238281 105.8125 16.089844 105.8125 C 14.945312 105.8125 14.023438 105.535156 13.320312 104.984375 C 12.617188 104.429688 12.265625 103.710938 12.265625 102.832031 C 12.265625 102.292969 12.371094 101.832031 12.582031 101.449219 C 12.789062 101.0625 13.113281 100.746094 13.546875 100.496094 Z M 16.089844 104.574219 C 16.972656 104.574219 17.664062 104.394531 18.164062 104.03125 C 18.664062 103.667969 18.917969 103.171875 18.917969 102.539062 C 18.917969 101.90625 18.664062 101.40625 18.164062 101.042969 C 17.664062 100.675781 16.972656 100.496094 16.089844 100.496094 C 15.210938 100.496094 14.519531 100.675781 14.019531 101.042969 C 13.515625 101.40625 13.265625 101.90625 13.265625 102.539062 C 13.265625 103.171875 13.515625 103.667969 14.019531 104.03125 C 14.519531 104.394531 15.210938 104.574219 16.089844 104.574219 Z M 16.089844 104.574219 "/>
<path style=" stroke:none;fill-rule:nonzero;fill:rgb(0%,0%,0%);fill-opacity:1;" d="M 18.078125 96.660156 L 18.078125 95.285156 L 19.730469 95.285156 L 19.730469 96.660156 Z M 18.078125 96.660156 "/>
<path style=" stroke:none;fill-rule:nonzero;fill:rgb(0%,0%,0%);fill-opacity:1;" d="M 9.601562 88.898438 L 10.597656 88.898438 L 10.597656 90.042969 C 10.597656 90.472656 10.683594 90.773438 10.859375 90.941406 C 11.03125 91.105469 11.34375 91.191406 11.796875 91.191406 L 12.441406 91.191406 L 12.441406 89.21875 L 13.371094 89.21875 L 13.371094 91.191406 L 19.730469 91.191406 L 19.730469 92.394531 L 13.371094 92.394531 L 13.371094 93.539062 L 12.441406 93.539062 L 12.441406 92.394531 L 11.929688 92.394531 C 11.121094 92.394531 10.527344 92.207031 10.160156 91.828125 C 9.785156 91.449219 9.601562 90.851562 9.601562 90.03125 Z M 9.601562 88.898438 "/>
<path style=" stroke:none;fill-rule:nonzero;fill:rgb(0%,0%,0%);fill-opacity:1;" d="M 18.078125 88.695312 L 18.078125 87.320312 L 19.730469 87.320312 L 19.730469 88.695312 Z M 18.078125 88.695312 "/>
<path style="fill:none;stroke-width:1.5;stroke-linecap:square;stroke-linejoin:round;stroke:rgb(12.156863%,46.666667%,70.588237%);stroke-opacity:1;stroke-miterlimit:4;" d="M 52.658203 139.5 L 97.157227 139.5 L 186.152344 13.5 L 230.203125 13.5 " transform="matrix(1.333333,0,0,1.333333,0,0.000000000000014211)"/>
<path style="fill:none;stroke-width:0.8;stroke-linecap:square;stroke-linejoin:miter;stroke:rgb(0%,0%,0%);stroke-opacity:1;stroke-miterlimit:4;" d="M 43.78125 145.798828 L 43.78125 7.201172 " transform="matrix(1.333333,0,0,1.333333,0,0.000000000000014211)"/>
<path style="fill:none;stroke-width:0.8;stroke-linecap:square;stroke-linejoin:miter;stroke:rgb(0%,0%,0%);stroke-opacity:1;stroke-miterlimit:4;" d="M 239.080078 145.798828 L 239.080078 7.201172 " transform="matrix(1.333333,0,0,1.333333,0,0.000000000000014211)"/>
<path style="fill:none;stroke-width:0.8;stroke-linecap:square;stroke-linejoin:miter;stroke:rgb(0%,0%,0%);stroke-opacity:1;stroke-miterlimit:4;" d="M 43.78125 145.798828 L 239.080078 145.798828 " transform="matrix(1.333333,0,0,1.333333,0,0.000000000000014211)"/>
<path style="fill:none;stroke-width:0.8;stroke-linecap:square;stroke-linejoin:miter;stroke:rgb(0%,0%,0%);stroke-opacity:1;stroke-miterlimit:4;" d="M 43.78125 7.201172 L 239.080078 7.201172 " transform="matrix(1.333333,0,0,1.333333,0,0.000000000000014211)"/>
</g>
</svg>
