<?xml version="1.0" encoding="UTF-8"?>
<svg xmlns="http://www.w3.org/2000/svg" xmlns:xlink="http://www.w3.org/1999/xlink" width="331.67922" height="244.474996" viewBox="0 0 331.67922 244.474996" version="1.1">
<defs>
<clipPath id="clip1">
  <path d="M 67 9.601562 L 69 9.601562 L 69 194.398438 L 67 194.398438 Z M 67 9.601562 "/>
</clipPath>
<clipPath id="clip2">
  <path d="M 115 9.601562 L 117 9.601562 L 117 194.398438 L 115 194.398438 Z M 115 9.601562 "/>
</clipPath>
<clipPath id="clip3">
  <path d="M 163 9.601562 L 166 9.601562 L 166 194.398438 L 163 194.398438 Z M 163 9.601562 "/>
</clipPath>
<clipPath id="clip4">
  <path d="M 211 9.601562 L 214 9.601562 L 214 194.398438 L 211 194.398438 Z M 211 9.601562 "/>
</clipPath>
<clipPath id="clip5">
  <path d="M 260 9.601562 L 262 9.601562 L 262 194.398438 L 260 194.398438 Z M 260 9.601562 "/>
</clipPath>
<clipPath id="clip6">
  <path d="M 308 9.601562 L 311 9.601562 L 311 194.398438 L 308 194.398438 Z M 308 9.601562 "/>
</clipPath>
<clipPath id="clip7">
  <path d="M 58.375 173 L 318.773438 173 L 318.773438 176 L 58.375 176 Z M 58.375 173 "/>
</clipPath>
<clipPath id="clip8">
  <path d="M 58.375 136 L 318.773438 136 L 318.773438 139 L 58.375 139 Z M 58.375 136 "/>
</clipPath>
<clipPath id="clip9">
  <path d="M 58.375 100 L 318.773438 100 L 318.773438 102 L 58.375 102 Z M 58.375 100 "/>
</clipPath>
<clipPath id="clip10">
  <path d="M 58.375 63 L 318.773438 63 L 318.773438 66 L 58.375 66 Z M 58.375 63 "/>
</clipPath>
<clipPath id="clip11">
  <path d="M 58.375 27 L 318.773438 27 L 318.773438 29 L 58.375 29 Z M 58.375 27 "/>
</clipPath>
</defs>
<g id="surface1">
<path style=" stroke:none;fill-rule:nonzero;fill:rgb(100%,100%,100%);fill-opacity:1;" d="M 0 244.476562 L 331.679688 244.476562 L 331.679688 0 L 0 0 Z M 0 244.476562 "/>
<path style=" stroke:none;fill-rule:nonzero;fill:rgb(100%,100%,100%);fill-opacity:1;" d="M 58.375 194.398438 L 318.773438 194.398438 L 318.773438 9.601562 L 58.375 9.601562 Z M 58.375 194.398438 "/>
<g clip-path="url(#clip1)" clip-rule="nonzero">
<path style="fill:none;stroke-width:0.8;stroke-linecap:square;stroke-linejoin:round;stroke:rgb(69.01961%,69.01961%,69.01961%);stroke-opacity:1;stroke-miterlimit:4;" d="M 50.847656 145.798828 L 50.847656 7.201172 " transform="matrix(1.333333,0,0,1.333333,0,0.000000000000014211)"/>
</g>
<path style="fill:none;stroke-width:0.8;stroke-linecap:butt;stroke-linejoin:round;stroke:rgb(0%,0%,0%);stroke-opacity:1;stroke-miterlimit:4;" d="M 0.000823975 -0.00117493 L 0.000823975 3.499802 " transform="matrix(1.333333,0,0,1.333333,67.795776,194.400004)"/>
<path style=" stroke:none;fill-rule:nonzero;fill:rgb(0%,0%,0%);fill-opacity:1;" d="M 67.792969 205.011719 C 67.113281 205.011719 66.605469 205.34375 66.265625 206.011719 C 65.925781 206.675781 65.753906 207.675781 65.753906 209.015625 C 65.753906 210.347656 65.925781 211.347656 66.265625 212.011719 C 66.605469 212.679688 67.113281 213.011719 67.792969 213.011719 C 68.472656 213.011719 68.984375 212.679688 69.324219 212.011719 C 69.667969 211.347656 69.835938 210.347656 69.835938 209.015625 C 69.835938 207.675781 69.667969 206.675781 69.324219 206.011719 C 68.984375 205.34375 68.472656 205.011719 67.792969 205.011719 Z M 67.792969 203.96875 C 68.882812 203.96875 69.714844 204.398438 70.289062 205.261719 C 70.863281 206.125 71.152344 207.375 71.152344 209.015625 C 71.152344 210.652344 70.863281 211.898438 70.289062 212.761719 C 69.714844 213.625 68.882812 214.054688 67.792969 214.054688 C 66.703125 214.054688 65.871094 213.625 65.296875 212.761719 C 64.722656 211.898438 64.433594 210.652344 64.433594 209.015625 C 64.433594 207.375 64.722656 206.125 65.296875 205.261719 C 65.871094 204.398438 66.703125 203.96875 67.792969 203.96875 Z M 67.792969 203.96875 "/>
<g clip-path="url(#clip2)" clip-rule="nonzero">
<path style="fill:none;stroke-width:0.8;stroke-linecap:square;stroke-linejoin:round;stroke:rgb(69.01961%,69.01961%,69.01961%);stroke-opacity:1;stroke-miterlimit:4;" d="M 87.082031 145.798828 L 87.082031 7.201172 " transform="matrix(1.333333,0,0,1.333333,0,0.000000000000014211)"/>
</g>
<path style="fill:none;stroke-width:0.8;stroke-linecap:butt;stroke-linejoin:round;stroke:rgb(0%,0%,0%);stroke-opacity:1;stroke-miterlimit:4;" d="M 0.0014267 -0.00117493 L 0.0014267 3.499802 " transform="matrix(1.333333,0,0,1.333333,116.107473,194.400004)"/>
<path style=" stroke:none;fill-rule:nonzero;fill:rgb(0%,0%,0%);fill-opacity:1;" d="M 110.183594 212.757812 L 114.773438 212.757812 L 114.773438 213.863281 L 108.601562 213.863281 L 108.601562 212.757812 C 109.101562 212.242188 109.78125 211.546875 110.640625 210.679688 C 111.503906 209.808594 112.046875 209.246094 112.265625 208.992188 C 112.6875 208.523438 112.980469 208.121094 113.148438 207.792969 C 113.316406 207.464844 113.398438 207.144531 113.398438 206.828125 C 113.398438 206.308594 113.21875 205.890625 112.855469 205.566406 C 112.492188 205.238281 112.019531 205.074219 111.4375 205.074219 C 111.027344 205.074219 110.589844 205.148438 110.132812 205.289062 C 109.675781 205.433594 109.1875 205.648438 108.664062 205.941406 L 108.664062 204.613281 C 109.195312 204.398438 109.6875 204.238281 110.148438 204.132812 C 110.609375 204.023438 111.03125 203.96875 111.414062 203.96875 C 112.421875 203.96875 113.222656 204.222656 113.820312 204.726562 C 114.421875 205.226562 114.71875 205.898438 114.71875 206.742188 C 114.71875 207.140625 114.644531 207.519531 114.496094 207.878906 C 114.347656 208.234375 114.074219 208.65625 113.679688 209.144531 C 113.570312 209.269531 113.226562 209.632812 112.644531 210.234375 C 112.0625 210.835938 111.242188 211.679688 110.183594 212.757812 Z M 110.183594 212.757812 "/>
<path style=" stroke:none;fill-rule:nonzero;fill:rgb(0%,0%,0%);fill-opacity:1;" d="M 120.34375 205.011719 C 119.667969 205.011719 119.160156 205.34375 118.816406 206.011719 C 118.476562 206.675781 118.308594 207.675781 118.308594 209.015625 C 118.308594 210.347656 118.476562 211.347656 118.816406 212.011719 C 119.160156 212.679688 119.667969 213.011719 120.34375 213.011719 C 121.027344 213.011719 121.539062 212.679688 121.878906 212.011719 C 122.21875 211.347656 122.390625 210.347656 122.390625 209.015625 C 122.390625 207.675781 122.21875 206.675781 121.878906 206.011719 C 121.539062 205.34375 121.027344 205.011719 120.34375 205.011719 Z M 120.34375 203.96875 C 121.433594 203.96875 122.269531 204.398438 122.84375 205.261719 C 123.417969 206.125 123.707031 207.375 123.707031 209.015625 C 123.707031 210.652344 123.417969 211.898438 122.84375 212.761719 C 122.269531 213.625 121.433594 214.054688 120.34375 214.054688 C 119.253906 214.054688 118.425781 213.625 117.847656 212.761719 C 117.273438 211.898438 116.988281 210.652344 116.988281 209.015625 C 116.988281 207.375 117.273438 206.125 117.847656 205.261719 C 118.425781 204.398438 119.253906 203.96875 120.34375 203.96875 Z M 120.34375 203.96875 "/>
<g clip-path="url(#clip3)" clip-rule="nonzero">
<path style="fill:none;stroke-width:0.8;stroke-linecap:square;stroke-linejoin:round;stroke:rgb(69.01961%,69.01961%,69.01961%);stroke-opacity:1;stroke-miterlimit:4;" d="M 123.313477 145.798828 L 123.313477 7.201172 " transform="matrix(1.333333,0,0,1.333333,0,0.000000000000014211)"/>
</g>
<path style="fill:none;stroke-width:0.8;stroke-linecap:butt;stroke-linejoin:round;stroke:rgb(0%,0%,0%);stroke-opacity:1;stroke-miterlimit:4;" d="M -0.000892639 -0.00117493 L -0.000892639 3.499802 " transform="matrix(1.333333,0,0,1.333333,164.419159,194.400004)"/>
<path style=" stroke:none;fill-rule:nonzero;fill:rgb(0%,0%,0%);fill-opacity:1;" d="M 160.976562 205.289062 L 157.65625 210.480469 L 160.976562 210.480469 Z M 160.628906 204.144531 L 162.285156 204.144531 L 162.285156 210.480469 L 163.671875 210.480469 L 163.671875 211.574219 L 162.285156 211.574219 L 162.285156 213.863281 L 160.976562 213.863281 L 160.976562 211.574219 L 156.589844 211.574219 L 156.589844 210.304688 Z M 160.628906 204.144531 "/>
<path style=" stroke:none;fill-rule:nonzero;fill:rgb(0%,0%,0%);fill-opacity:1;" d="M 168.65625 205.011719 C 167.980469 205.011719 167.472656 205.34375 167.128906 206.011719 C 166.789062 206.675781 166.617188 207.675781 166.617188 209.015625 C 166.617188 210.347656 166.789062 211.347656 167.128906 212.011719 C 167.472656 212.679688 167.980469 213.011719 168.65625 213.011719 C 169.339844 213.011719 169.847656 212.679688 170.191406 212.011719 C 170.53125 211.347656 170.703125 210.347656 170.703125 209.015625 C 170.703125 207.675781 170.53125 206.675781 170.191406 206.011719 C 169.847656 205.34375 169.339844 205.011719 168.65625 205.011719 Z M 168.65625 203.96875 C 169.746094 203.96875 170.578125 204.398438 171.15625 205.261719 C 171.730469 206.125 172.015625 207.375 172.015625 209.015625 C 172.015625 210.652344 171.730469 211.898438 171.15625 212.761719 C 170.578125 213.625 169.746094 214.054688 168.65625 214.054688 C 167.566406 214.054688 166.734375 213.625 166.160156 212.761719 C 165.585938 211.898438 165.296875 210.652344 165.296875 209.015625 C 165.296875 207.375 165.585938 206.125 166.160156 205.261719 C 166.734375 204.398438 167.566406 203.96875 168.65625 203.96875 Z M 168.65625 203.96875 "/>
<g clip-path="url(#clip4)" clip-rule="nonzero">
<path style="fill:none;stroke-width:0.8;stroke-linecap:square;stroke-linejoin:round;stroke:rgb(69.01961%,69.01961%,69.01961%);stroke-opacity:1;stroke-miterlimit:4;" d="M 159.547852 145.798828 L 159.547852 7.201172 " transform="matrix(1.333333,0,0,1.333333,0,0.000000000000014211)"/>
</g>
<path style="fill:none;stroke-width:0.8;stroke-linecap:butt;stroke-linejoin:round;stroke:rgb(0%,0%,0%);stroke-opacity:1;stroke-miterlimit:4;" d="M -0.000274658 -0.00117493 L -0.000274658 3.499802 " transform="matrix(1.333333,0,0,1.333333,212.730835,194.400004)"/>
<path style=" stroke:none;fill-rule:nonzero;fill:rgb(0%,0%,0%);fill-opacity:1;" d="M 208.648438 208.480469 C 208.058594 208.480469 207.589844 208.683594 207.246094 209.085938 C 206.902344 209.492188 206.730469 210.042969 206.730469 210.746094 C 206.730469 211.445312 206.902344 211.996094 207.246094 212.402344 C 207.589844 212.808594 208.058594 213.011719 208.648438 213.011719 C 209.238281 213.011719 209.707031 212.808594 210.050781 212.402344 C 210.394531 211.996094 210.566406 211.445312 210.566406 210.746094 C 210.566406 210.042969 210.394531 209.492188 210.050781 209.085938 C 209.707031 208.683594 209.238281 208.480469 208.648438 208.480469 Z M 211.261719 204.359375 L 211.261719 205.554688 C 210.929688 205.402344 210.597656 205.28125 210.261719 205.199219 C 209.925781 205.117188 209.589844 205.074219 209.261719 205.074219 C 208.390625 205.074219 207.730469 205.367188 207.269531 205.953125 C 206.8125 206.539062 206.550781 207.425781 206.488281 208.609375 C 206.742188 208.234375 207.0625 207.941406 207.449219 207.742188 C 207.835938 207.539062 208.261719 207.441406 208.726562 207.441406 C 209.703125 207.441406 210.472656 207.734375 211.042969 208.328125 C 211.609375 208.921875 211.890625 209.726562 211.890625 210.746094 C 211.890625 211.746094 211.597656 212.546875 211.003906 213.148438 C 210.414062 213.753906 209.628906 214.054688 208.648438 214.054688 C 207.523438 214.054688 206.664062 213.625 206.070312 212.761719 C 205.476562 211.898438 205.179688 210.652344 205.179688 209.015625 C 205.179688 207.476562 205.542969 206.253906 206.273438 205.339844 C 207 204.425781 207.980469 203.96875 209.207031 203.96875 C 209.539062 203.96875 209.871094 204 210.207031 204.066406 C 210.542969 204.132812 210.894531 204.230469 211.261719 204.359375 Z M 211.261719 204.359375 "/>
<path style=" stroke:none;fill-rule:nonzero;fill:rgb(0%,0%,0%);fill-opacity:1;" d="M 216.96875 205.011719 C 216.292969 205.011719 215.78125 205.34375 215.441406 206.011719 C 215.101562 206.675781 214.929688 207.675781 214.929688 209.015625 C 214.929688 210.347656 215.101562 211.347656 215.441406 212.011719 C 215.78125 212.679688 216.292969 213.011719 216.96875 213.011719 C 217.648438 213.011719 218.160156 212.679688 218.5 212.011719 C 218.84375 211.347656 219.015625 210.347656 219.015625 209.015625 C 219.015625 207.675781 218.84375 206.675781 218.5 206.011719 C 218.160156 205.34375 217.648438 205.011719 216.96875 205.011719 Z M 216.96875 203.96875 C 218.058594 203.96875 218.890625 204.398438 219.464844 205.261719 C 220.039062 206.125 220.328125 207.375 220.328125 209.015625 C 220.328125 210.652344 220.039062 211.898438 219.464844 212.761719 C 218.890625 213.625 218.058594 214.054688 216.96875 214.054688 C 215.878906 214.054688 215.046875 213.625 214.472656 212.761719 C 213.898438 211.898438 213.609375 210.652344 213.609375 209.015625 C 213.609375 207.375 213.898438 206.125 214.472656 205.261719 C 215.046875 204.398438 215.878906 203.96875 216.96875 203.96875 Z M 216.96875 203.96875 "/>
<g clip-path="url(#clip5)" clip-rule="nonzero">
<path style="fill:none;stroke-width:0.8;stroke-linecap:square;stroke-linejoin:round;stroke:rgb(69.01961%,69.01961%,69.01961%);stroke-opacity:1;stroke-miterlimit:4;" d="M 195.782227 145.798828 L 195.782227 7.201172 " transform="matrix(1.333333,0,0,1.333333,0,0.000000000000014211)"/>
</g>
<path style="fill:none;stroke-width:0.8;stroke-linecap:butt;stroke-linejoin:round;stroke:rgb(0%,0%,0%);stroke-opacity:1;stroke-miterlimit:4;" d="M 0.000320435 -0.00117493 L 0.000320435 3.499802 " transform="matrix(1.333333,0,0,1.333333,261.042542,194.400004)"/>
<path style=" stroke:none;fill-rule:nonzero;fill:rgb(0%,0%,0%);fill-opacity:1;" d="M 256.796875 209.246094 C 256.171875 209.246094 255.679688 209.414062 255.320312 209.75 C 254.964844 210.085938 254.785156 210.542969 254.785156 211.128906 C 254.785156 211.714844 254.964844 212.175781 255.320312 212.511719 C 255.679688 212.84375 256.171875 213.011719 256.796875 213.011719 C 257.421875 213.011719 257.914062 212.84375 258.273438 212.507812 C 258.636719 212.171875 258.816406 211.710938 258.816406 211.128906 C 258.816406 210.542969 258.636719 210.085938 258.277344 209.75 C 257.921875 209.414062 257.425781 209.246094 256.796875 209.246094 Z M 255.480469 208.691406 C 254.917969 208.550781 254.480469 208.289062 254.164062 207.902344 C 253.847656 207.515625 253.691406 207.042969 253.691406 206.488281 C 253.691406 205.710938 253.96875 205.097656 254.523438 204.644531 C 255.074219 204.195312 255.835938 203.96875 256.796875 203.96875 C 257.765625 203.96875 258.523438 204.195312 259.074219 204.644531 C 259.628906 205.097656 259.902344 205.710938 259.902344 206.488281 C 259.902344 207.042969 259.746094 207.515625 259.429688 207.902344 C 259.117188 208.289062 258.679688 208.550781 258.121094 208.691406 C 258.753906 208.835938 259.246094 209.125 259.597656 209.554688 C 259.953125 209.984375 260.128906 210.507812 260.128906 211.128906 C 260.128906 212.070312 259.84375 212.796875 259.265625 213.300781 C 258.691406 213.804688 257.867188 214.054688 256.796875 214.054688 C 255.726562 214.054688 254.902344 213.804688 254.324219 213.300781 C 253.75 212.796875 253.464844 212.070312 253.464844 211.128906 C 253.464844 210.507812 253.640625 209.984375 253.996094 209.554688 C 254.355469 209.125 254.847656 208.835938 255.480469 208.691406 Z M 255 206.613281 C 255 207.117188 255.15625 207.507812 255.472656 207.789062 C 255.785156 208.070312 256.230469 208.210938 256.796875 208.210938 C 257.363281 208.210938 257.804688 208.070312 258.121094 207.789062 C 258.441406 207.507812 258.601562 207.117188 258.601562 206.613281 C 258.601562 206.109375 258.441406 205.714844 258.121094 205.433594 C 257.804688 205.152344 257.363281 205.011719 256.796875 205.011719 C 256.230469 205.011719 255.785156 205.152344 255.472656 205.433594 C 255.15625 205.714844 255 206.109375 255 206.613281 Z M 255 206.613281 "/>
<path style=" stroke:none;fill-rule:nonzero;fill:rgb(0%,0%,0%);fill-opacity:1;" d="M 265.28125 205.011719 C 264.601562 205.011719 264.09375 205.34375 263.753906 206.011719 C 263.414062 206.675781 263.242188 207.675781 263.242188 209.015625 C 263.242188 210.347656 263.414062 211.347656 263.753906 212.011719 C 264.09375 212.679688 264.601562 213.011719 265.28125 213.011719 C 265.960938 213.011719 266.472656 212.679688 266.8125 212.011719 C 267.15625 211.347656 267.324219 210.347656 267.324219 209.015625 C 267.324219 207.675781 267.15625 206.675781 266.8125 206.011719 C 266.472656 205.34375 265.960938 205.011719 265.28125 205.011719 Z M 265.28125 203.96875 C 266.371094 203.96875 267.203125 204.398438 267.777344 205.261719 C 268.351562 206.125 268.640625 207.375 268.640625 209.015625 C 268.640625 210.652344 268.351562 211.898438 267.777344 212.761719 C 267.203125 213.625 266.371094 214.054688 265.28125 214.054688 C 264.191406 214.054688 263.359375 213.625 262.785156 212.761719 C 262.207031 211.898438 261.921875 210.652344 261.921875 209.015625 C 261.921875 207.375 262.207031 206.125 262.785156 205.261719 C 263.359375 204.398438 264.191406 203.96875 265.28125 203.96875 Z M 265.28125 203.96875 "/>
<g clip-path="url(#clip6)" clip-rule="nonzero">
<path style="fill:none;stroke-width:0.8;stroke-linecap:square;stroke-linejoin:round;stroke:rgb(69.01961%,69.01961%,69.01961%);stroke-opacity:1;stroke-miterlimit:4;" d="M 232.016602 145.798828 L 232.016602 7.201172 " transform="matrix(1.333333,0,0,1.333333,0,0.000000000000014211)"/>
</g>
<path style="fill:none;stroke-width:0.8;stroke-linecap:butt;stroke-linejoin:round;stroke:rgb(0%,0%,0%);stroke-opacity:1;stroke-miterlimit:4;" d="M 0.000930786 -0.00117493 L 0.000930786 3.499802 " transform="matrix(1.333333,0,0,1.333333,309.354228,194.400004)"/>
<path style=" stroke:none;fill-rule:nonzero;fill:rgb(0%,0%,0%);fill-opacity:1;" d="M 298.285156 212.757812 L 300.429688 212.757812 L 300.429688 205.339844 L 298.09375 205.808594 L 298.09375 204.613281 L 300.417969 204.144531 L 301.734375 204.144531 L 301.734375 212.757812 L 303.882812 212.757812 L 303.882812 213.863281 L 298.285156 213.863281 Z M 298.285156 212.757812 "/>
<path style=" stroke:none;fill-rule:nonzero;fill:rgb(0%,0%,0%);fill-opacity:1;" d="M 309.351562 205.011719 C 308.671875 205.011719 308.164062 205.34375 307.824219 206.011719 C 307.484375 206.675781 307.3125 207.675781 307.3125 209.015625 C 307.3125 210.347656 307.484375 211.347656 307.824219 212.011719 C 308.164062 212.679688 308.671875 213.011719 309.351562 213.011719 C 310.03125 213.011719 310.542969 212.679688 310.882812 212.011719 C 311.226562 211.347656 311.394531 210.347656 311.394531 209.015625 C 311.394531 207.675781 311.226562 206.675781 310.882812 206.011719 C 310.542969 205.34375 310.03125 205.011719 309.351562 205.011719 Z M 309.351562 203.96875 C 310.441406 203.96875 311.273438 204.398438 311.847656 205.261719 C 312.421875 206.125 312.710938 207.375 312.710938 209.015625 C 312.710938 210.652344 312.421875 211.898438 311.847656 212.761719 C 311.273438 213.625 310.441406 214.054688 309.351562 214.054688 C 308.261719 214.054688 307.429688 213.625 306.855469 212.761719 C 306.277344 211.898438 305.992188 210.652344 305.992188 209.015625 C 305.992188 207.375 306.277344 206.125 306.855469 205.261719 C 307.429688 204.398438 308.261719 203.96875 309.351562 203.96875 Z M 309.351562 203.96875 "/>
<path style=" stroke:none;fill-rule:nonzero;fill:rgb(0%,0%,0%);fill-opacity:1;" d="M 317.832031 205.011719 C 317.15625 205.011719 316.648438 205.34375 316.304688 206.011719 C 315.964844 206.675781 315.796875 207.675781 315.796875 209.015625 C 315.796875 210.347656 315.964844 211.347656 316.304688 212.011719 C 316.648438 212.679688 317.15625 213.011719 317.832031 213.011719 C 318.515625 213.011719 319.027344 212.679688 319.367188 212.011719 C 319.707031 211.347656 319.878906 210.347656 319.878906 209.015625 C 319.878906 207.675781 319.707031 206.675781 319.367188 206.011719 C 319.027344 205.34375 318.515625 205.011719 317.832031 205.011719 Z M 317.832031 203.96875 C 318.921875 203.96875 319.753906 204.398438 320.332031 205.261719 C 320.90625 206.125 321.191406 207.375 321.191406 209.015625 C 321.191406 210.652344 320.90625 211.898438 320.332031 212.761719 C 319.753906 213.625 318.921875 214.054688 317.832031 214.054688 C 316.742188 214.054688 315.910156 213.625 315.335938 212.761719 C 314.761719 211.898438 314.472656 210.652344 314.472656 209.015625 C 314.472656 207.375 314.761719 206.125 315.335938 205.261719 C 315.910156 204.398438 316.742188 203.96875 317.832031 203.96875 Z M 317.832031 203.96875 "/>
<path style=" stroke:none;fill-rule:nonzero;fill:rgb(0%,0%,0%);fill-opacity:1;" d="M 161.605469 222.382812 L 162.917969 222.382812 L 162.917969 232.101562 L 161.605469 232.101562 Z M 161.605469 222.382812 "/>
<path style=" stroke:none;fill-rule:nonzero;fill:rgb(0%,0%,0%);fill-opacity:1;" d="M 166.671875 222.738281 L 166.671875 224.808594 L 169.136719 224.808594 L 169.136719 225.742188 L 166.671875 225.742188 L 166.671875 229.699219 C 166.671875 230.292969 166.753906 230.675781 166.914062 230.847656 C 167.078125 231.015625 167.410156 231.101562 167.910156 231.101562 L 169.136719 231.101562 L 169.136719 232.101562 L 167.910156 232.101562 C 166.984375 232.101562 166.34375 231.929688 165.992188 231.585938 C 165.640625 231.238281 165.464844 230.609375 165.464844 229.699219 L 165.464844 225.742188 L 164.585938 225.742188 L 164.585938 224.808594 L 165.464844 224.808594 L 165.464844 222.738281 Z M 166.671875 222.738281 "/>
<path style=" stroke:none;fill-rule:nonzero;fill:rgb(0%,0%,0%);fill-opacity:1;" d="M 176.949219 228.15625 L 176.949219 228.742188 L 171.441406 228.742188 C 171.496094 229.566406 171.742188 230.195312 172.1875 230.628906 C 172.632812 231.058594 173.253906 231.273438 174.046875 231.273438 C 174.507812 231.273438 174.953125 231.21875 175.382812 231.105469 C 175.816406 230.992188 176.246094 230.824219 176.671875 230.597656 L 176.671875 231.730469 C 176.242188 231.914062 175.800781 232.050781 175.347656 232.148438 C 174.898438 232.242188 174.441406 232.292969 173.976562 232.292969 C 172.8125 232.292969 171.890625 231.953125 171.210938 231.277344 C 170.53125 230.597656 170.191406 229.683594 170.191406 228.527344 C 170.191406 227.335938 170.515625 226.386719 171.160156 225.6875 C 171.804688 224.984375 172.671875 224.636719 173.765625 224.636719 C 174.746094 224.636719 175.523438 224.953125 176.09375 225.582031 C 176.664062 226.214844 176.949219 227.070312 176.949219 228.15625 Z M 175.753906 227.804688 C 175.746094 227.148438 175.5625 226.628906 175.203125 226.238281 C 174.84375 225.847656 174.371094 225.648438 173.78125 225.648438 C 173.113281 225.648438 172.578125 225.839844 172.175781 226.214844 C 171.773438 226.59375 171.542969 227.125 171.480469 227.8125 Z M 175.753906 227.804688 "/>
<path style=" stroke:none;fill-rule:nonzero;fill:rgb(0%,0%,0%);fill-opacity:1;" d="M 183.140625 225.929688 C 183.007812 225.851562 182.859375 225.792969 182.703125 225.757812 C 182.542969 225.722656 182.371094 225.703125 182.179688 225.703125 C 181.5 225.703125 180.980469 225.921875 180.617188 226.363281 C 180.257812 226.804688 180.074219 227.433594 180.074219 228.261719 L 180.074219 232.101562 L 178.871094 232.101562 L 178.871094 224.808594 L 180.074219 224.808594 L 180.074219 225.945312 C 180.328125 225.5 180.65625 225.171875 181.058594 224.957031 C 181.460938 224.742188 181.953125 224.636719 182.53125 224.636719 C 182.613281 224.636719 182.703125 224.640625 182.804688 224.652344 C 182.902344 224.660156 183.015625 224.679688 183.136719 224.699219 Z M 183.140625 225.929688 "/>
<path style=" stroke:none;fill-rule:nonzero;fill:rgb(0%,0%,0%);fill-opacity:1;" d="M 187.710938 228.4375 C 186.746094 228.4375 186.074219 228.546875 185.699219 228.769531 C 185.328125 228.988281 185.140625 229.367188 185.140625 229.902344 C 185.140625 230.328125 185.28125 230.664062 185.5625 230.914062 C 185.839844 231.164062 186.222656 231.289062 186.703125 231.289062 C 187.367188 231.289062 187.902344 231.050781 188.300781 230.582031 C 188.703125 230.109375 188.90625 229.484375 188.90625 228.703125 L 188.90625 228.4375 Z M 190.101562 227.941406 L 190.101562 232.101562 L 188.90625 232.101562 L 188.90625 230.996094 C 188.628906 231.4375 188.289062 231.765625 187.882812 231.976562 C 187.472656 232.1875 186.972656 232.292969 186.382812 232.292969 C 185.636719 232.292969 185.042969 232.082031 184.601562 231.664062 C 184.160156 231.242188 183.941406 230.683594 183.941406 229.980469 C 183.941406 229.160156 184.214844 228.542969 184.765625 228.125 C 185.316406 227.707031 186.132812 227.5 187.222656 227.5 L 188.90625 227.5 L 188.90625 227.382812 C 188.90625 226.828125 188.722656 226.402344 188.359375 226.101562 C 188 225.800781 187.488281 225.648438 186.832031 225.648438 C 186.417969 225.648438 186.011719 225.699219 185.613281 225.800781 C 185.21875 225.898438 184.839844 226.050781 184.476562 226.25 L 184.476562 225.140625 C 184.914062 224.972656 185.339844 224.847656 185.753906 224.761719 C 186.164062 224.679688 186.566406 224.636719 186.957031 224.636719 C 188.011719 224.636719 188.800781 224.910156 189.320312 225.457031 C 189.84375 226.003906 190.101562 226.832031 190.101562 227.941406 Z M 190.101562 227.941406 "/>
<path style=" stroke:none;fill-rule:nonzero;fill:rgb(0%,0%,0%);fill-opacity:1;" d="M 193.753906 222.738281 L 193.753906 224.808594 L 196.222656 224.808594 L 196.222656 225.742188 L 193.753906 225.742188 L 193.753906 229.699219 C 193.753906 230.292969 193.835938 230.675781 193.996094 230.847656 C 194.160156 231.015625 194.492188 231.101562 194.992188 231.101562 L 196.222656 231.101562 L 196.222656 232.101562 L 194.992188 232.101562 C 194.066406 232.101562 193.429688 231.929688 193.078125 231.585938 C 192.726562 231.238281 192.550781 230.609375 192.550781 229.699219 L 192.550781 225.742188 L 191.671875 225.742188 L 191.671875 224.808594 L 192.550781 224.808594 L 192.550781 222.738281 Z M 193.753906 222.738281 "/>
<path style=" stroke:none;fill-rule:nonzero;fill:rgb(0%,0%,0%);fill-opacity:1;" d="M 197.796875 224.808594 L 198.996094 224.808594 L 198.996094 232.101562 L 197.796875 232.101562 Z M 197.796875 221.972656 L 198.996094 221.972656 L 198.996094 223.488281 L 197.796875 223.488281 Z M 197.796875 221.972656 "/>
<path style=" stroke:none;fill-rule:nonzero;fill:rgb(0%,0%,0%);fill-opacity:1;" d="M 204.324219 225.648438 C 203.683594 225.648438 203.175781 225.902344 202.804688 226.402344 C 202.429688 226.902344 202.242188 227.589844 202.242188 228.460938 C 202.242188 229.335938 202.429688 230.023438 202.800781 230.523438 C 203.171875 231.023438 203.679688 231.273438 204.324219 231.273438 C 204.964844 231.273438 205.46875 231.023438 205.84375 230.519531 C 206.214844 230.015625 206.402344 229.332031 206.402344 228.460938 C 206.402344 227.597656 206.214844 226.914062 205.84375 226.410156 C 205.46875 225.902344 204.964844 225.648438 204.324219 225.648438 Z M 204.324219 224.636719 C 205.367188 224.636719 206.1875 224.972656 206.78125 225.652344 C 207.375 226.328125 207.675781 227.265625 207.675781 228.460938 C 207.675781 229.65625 207.375 230.59375 206.78125 231.273438 C 206.1875 231.953125 205.367188 232.292969 204.324219 232.292969 C 203.28125 232.292969 202.460938 231.953125 201.867188 231.273438 C 201.277344 230.59375 200.980469 229.65625 200.980469 228.460938 C 200.980469 227.265625 201.277344 226.328125 201.867188 225.652344 C 202.460938 224.972656 203.28125 224.636719 204.324219 224.636719 Z M 204.324219 224.636719 "/>
<path style=" stroke:none;fill-rule:nonzero;fill:rgb(0%,0%,0%);fill-opacity:1;" d="M 215.722656 227.699219 L 215.722656 232.101562 L 214.523438 232.101562 L 214.523438 227.738281 C 214.523438 227.050781 214.386719 226.535156 214.117188 226.191406 C 213.847656 225.847656 213.445312 225.675781 212.910156 225.675781 C 212.261719 225.675781 211.75 225.882812 211.378906 226.296875 C 211.003906 226.707031 210.816406 227.269531 210.816406 227.980469 L 210.816406 232.101562 L 209.613281 232.101562 L 209.613281 224.808594 L 210.816406 224.808594 L 210.816406 225.945312 C 211.105469 225.503906 211.441406 225.175781 211.828125 224.960938 C 212.21875 224.742188 212.667969 224.636719 213.175781 224.636719 C 214.011719 224.636719 214.644531 224.894531 215.074219 225.414062 C 215.503906 225.929688 215.722656 226.691406 215.722656 227.699219 Z M 215.722656 227.699219 "/>
<g clip-path="url(#clip7)" clip-rule="nonzero">
<path style="fill:none;stroke-width:0.8;stroke-linecap:square;stroke-linejoin:round;stroke:rgb(69.01961%,69.01961%,69.01961%);stroke-opacity:1;stroke-miterlimit:4;" d="M 43.78125 130.751953 L 239.080078 130.751953 " transform="matrix(1.333333,0,0,1.333333,0,0.000000000000014211)"/>
</g>
<path style="fill:none;stroke-width:0.8;stroke-linecap:butt;stroke-linejoin:round;stroke:rgb(0%,0%,0%);stroke-opacity:1;stroke-miterlimit:4;" d="M 0 -0.00117493 L -3.500977 -0.00117493 " transform="matrix(1.333333,0,0,1.333333,58.375,174.337504)"/>
<path style=" stroke:none;fill-rule:nonzero;fill:rgb(0%,0%,0%);fill-opacity:1;" d="M 29.492188 178.296875 L 31.640625 178.296875 L 31.640625 170.878906 L 29.300781 171.347656 L 29.300781 170.152344 L 31.628906 169.683594 L 32.941406 169.683594 L 32.941406 178.296875 L 35.089844 178.296875 L 35.089844 179.402344 L 29.492188 179.402344 Z M 29.492188 178.296875 "/>
<path style=" stroke:none;fill-rule:nonzero;fill:rgb(0%,0%,0%);fill-opacity:1;" d="M 37.746094 177.75 L 39.121094 177.75 L 39.121094 179.402344 L 37.746094 179.402344 Z M 37.746094 177.75 "/>
<path style=" stroke:none;fill-rule:nonzero;fill:rgb(0%,0%,0%);fill-opacity:1;" d="M 44.960938 174.019531 C 44.371094 174.019531 43.902344 174.222656 43.558594 174.625 C 43.210938 175.027344 43.039062 175.582031 43.039062 176.285156 C 43.039062 176.984375 43.210938 177.535156 43.558594 177.941406 C 43.902344 178.347656 44.371094 178.550781 44.960938 178.550781 C 45.550781 178.550781 46.019531 178.347656 46.363281 177.941406 C 46.707031 177.535156 46.878906 176.984375 46.878906 176.285156 C 46.878906 175.582031 46.707031 175.027344 46.363281 174.625 C 46.019531 174.222656 45.550781 174.019531 44.960938 174.019531 Z M 47.570312 169.898438 L 47.570312 171.09375 C 47.242188 170.9375 46.90625 170.820312 46.570312 170.738281 C 46.234375 170.65625 45.902344 170.613281 45.570312 170.613281 C 44.703125 170.613281 44.039062 170.90625 43.582031 171.492188 C 43.125 172.078125 42.863281 172.964844 42.796875 174.148438 C 43.054688 173.769531 43.375 173.480469 43.761719 173.28125 C 44.148438 173.078125 44.574219 172.976562 45.039062 172.976562 C 46.015625 172.976562 46.785156 173.273438 47.351562 173.867188 C 47.917969 174.460938 48.203125 175.265625 48.203125 176.285156 C 48.203125 177.28125 47.90625 178.085938 47.316406 178.6875 C 46.726562 179.292969 45.941406 179.59375 44.960938 179.59375 C 43.835938 179.59375 42.976562 179.164062 42.382812 178.300781 C 41.789062 177.4375 41.488281 176.1875 41.488281 174.554688 C 41.488281 173.015625 41.855469 171.792969 42.582031 170.878906 C 43.3125 169.964844 44.292969 169.507812 45.519531 169.507812 C 45.851562 169.507812 46.183594 169.539062 46.519531 169.605469 C 46.855469 169.671875 47.207031 169.769531 47.570312 169.898438 Z M 47.570312 169.898438 "/>
<g clip-path="url(#clip8)" clip-rule="nonzero">
<path style="fill:none;stroke-width:0.8;stroke-linecap:square;stroke-linejoin:round;stroke:rgb(69.01961%,69.01961%,69.01961%);stroke-opacity:1;stroke-miterlimit:4;" d="M 43.78125 103.286133 L 239.080078 103.286133 " transform="matrix(1.333333,0,0,1.333333,0,0.000000000000014211)"/>
</g>
<path style="fill:none;stroke-width:0.8;stroke-linecap:butt;stroke-linejoin:round;stroke:rgb(0%,0%,0%);stroke-opacity:1;stroke-miterlimit:4;" d="M 0 -0.000328064 L -3.500977 -0.000328064 " transform="matrix(1.333333,0,0,1.333333,58.375,137.715281)"/>
<path style=" stroke:none;fill-rule:nonzero;fill:rgb(0%,0%,0%);fill-opacity:1;" d="M 29.492188 141.675781 L 31.640625 141.675781 L 31.640625 134.257812 L 29.300781 134.726562 L 29.300781 133.527344 L 31.628906 133.058594 L 32.941406 133.058594 L 32.941406 141.675781 L 35.089844 141.675781 L 35.089844 142.78125 L 29.492188 142.78125 Z M 29.492188 141.675781 "/>
<path style=" stroke:none;fill-rule:nonzero;fill:rgb(0%,0%,0%);fill-opacity:1;" d="M 37.746094 141.125 L 39.121094 141.125 L 39.121094 142.78125 L 37.746094 142.78125 Z M 37.746094 141.125 "/>
<path style=" stroke:none;fill-rule:nonzero;fill:rgb(0%,0%,0%);fill-opacity:1;" d="M 44.796875 138.164062 C 44.171875 138.164062 43.679688 138.332031 43.320312 138.667969 C 42.964844 139 42.785156 139.460938 42.785156 140.046875 C 42.785156 140.632812 42.964844 141.09375 43.320312 141.425781 C 43.679688 141.761719 44.171875 141.929688 44.796875 141.929688 C 45.421875 141.929688 45.914062 141.761719 46.273438 141.425781 C 46.632812 141.085938 46.816406 140.628906 46.816406 140.046875 C 46.816406 139.460938 46.636719 139 46.277344 138.667969 C 45.921875 138.332031 45.425781 138.164062 44.796875 138.164062 Z M 43.480469 137.605469 C 42.917969 137.46875 42.476562 137.203125 42.164062 136.820312 C 41.847656 136.429688 41.691406 135.960938 41.691406 135.402344 C 41.691406 134.628906 41.96875 134.011719 42.519531 133.5625 C 43.074219 133.109375 43.832031 132.886719 44.796875 132.886719 C 45.765625 132.886719 46.523438 133.109375 47.074219 133.5625 C 47.625 134.011719 47.902344 134.628906 47.902344 135.402344 C 47.902344 135.960938 47.746094 136.429688 47.429688 136.820312 C 47.117188 137.203125 46.679688 137.46875 46.121094 137.605469 C 46.753906 137.753906 47.246094 138.042969 47.597656 138.472656 C 47.953125 138.902344 48.128906 139.425781 48.128906 140.046875 C 48.128906 140.988281 47.84375 141.710938 47.265625 142.214844 C 46.691406 142.71875 45.867188 142.96875 44.796875 142.96875 C 43.726562 142.96875 42.902344 142.71875 42.324219 142.214844 C 41.75 141.710938 41.464844 140.988281 41.464844 140.046875 C 41.464844 139.425781 41.640625 138.902344 41.996094 138.472656 C 42.351562 138.042969 42.847656 137.753906 43.480469 137.605469 Z M 43 135.527344 C 43 136.03125 43.15625 136.425781 43.472656 136.707031 C 43.785156 136.988281 44.226562 137.128906 44.796875 137.128906 C 45.363281 137.128906 45.804688 136.988281 46.121094 136.707031 C 46.441406 136.425781 46.601562 136.03125 46.601562 135.527344 C 46.601562 135.023438 46.441406 134.632812 46.121094 134.351562 C 45.804688 134.066406 45.363281 133.925781 44.796875 133.925781 C 44.226562 133.925781 43.785156 134.066406 43.472656 134.351562 C 43.15625 134.632812 43 135.023438 43 135.527344 Z M 43 135.527344 "/>
<g clip-path="url(#clip9)" clip-rule="nonzero">
<path style="fill:none;stroke-width:0.8;stroke-linecap:square;stroke-linejoin:round;stroke:rgb(69.01961%,69.01961%,69.01961%);stroke-opacity:1;stroke-miterlimit:4;" d="M 43.78125 75.820312 L 239.080078 75.820312 " transform="matrix(1.333333,0,0,1.333333,0,0.000000000000014211)"/>
</g>
<path style="fill:none;stroke-width:0.8;stroke-linecap:butt;stroke-linejoin:round;stroke:rgb(0%,0%,0%);stroke-opacity:1;stroke-miterlimit:4;" d="M 0 0.000518799 L -3.500977 0.000518799 " transform="matrix(1.333333,0,0,1.333333,58.375,101.093058)"/>
<path style=" stroke:none;fill-rule:nonzero;fill:rgb(0%,0%,0%);fill-opacity:1;" d="M 30.394531 105.050781 L 34.984375 105.050781 L 34.984375 106.160156 L 28.816406 106.160156 L 28.816406 105.050781 C 29.3125 104.535156 29.992188 103.84375 30.855469 102.972656 C 31.714844 102.101562 32.257812 101.539062 32.480469 101.289062 C 32.898438 100.816406 33.195312 100.414062 33.359375 100.085938 C 33.527344 99.761719 33.613281 99.4375 33.613281 99.121094 C 33.613281 98.605469 33.429688 98.183594 33.070312 97.859375 C 32.707031 97.53125 32.234375 97.367188 31.652344 97.367188 C 31.238281 97.367188 30.804688 97.441406 30.347656 97.582031 C 29.890625 97.726562 29.398438 97.945312 28.878906 98.234375 L 28.878906 96.90625 C 29.410156 96.695312 29.902344 96.535156 30.363281 96.425781 C 30.824219 96.316406 31.246094 96.261719 31.628906 96.261719 C 32.632812 96.261719 33.4375 96.515625 34.035156 97.019531 C 34.632812 97.523438 34.933594 98.195312 34.933594 99.035156 C 34.933594 99.4375 34.859375 99.816406 34.707031 100.171875 C 34.558594 100.53125 34.289062 100.953125 33.890625 101.4375 C 33.785156 101.5625 33.4375 101.929688 32.855469 102.53125 C 32.277344 103.132812 31.457031 103.972656 30.394531 105.050781 Z M 30.394531 105.050781 "/>
<path style=" stroke:none;fill-rule:nonzero;fill:rgb(0%,0%,0%);fill-opacity:1;" d="M 37.746094 104.503906 L 39.121094 104.503906 L 39.121094 106.160156 L 37.746094 106.160156 Z M 37.746094 104.503906 "/>
<path style=" stroke:none;fill-rule:nonzero;fill:rgb(0%,0%,0%);fill-opacity:1;" d="M 44.796875 97.304688 C 44.121094 97.304688 43.609375 97.636719 43.269531 98.304688 C 42.929688 98.96875 42.757812 99.972656 42.757812 101.308594 C 42.757812 102.640625 42.929688 103.640625 43.269531 104.304688 C 43.609375 104.972656 44.121094 105.304688 44.796875 105.304688 C 45.476562 105.304688 45.988281 104.972656 46.328125 104.304688 C 46.671875 103.640625 46.84375 102.640625 46.84375 101.308594 C 46.84375 99.972656 46.671875 98.96875 46.328125 98.304688 C 45.988281 97.636719 45.476562 97.304688 44.796875 97.304688 Z M 44.796875 96.261719 C 45.886719 96.261719 46.71875 96.695312 47.292969 97.554688 C 47.871094 98.417969 48.15625 99.667969 48.15625 101.308594 C 48.15625 102.945312 47.871094 104.195312 47.292969 105.054688 C 46.71875 105.917969 45.886719 106.347656 44.796875 106.347656 C 43.707031 106.347656 42.875 105.917969 42.300781 105.054688 C 41.726562 104.195312 41.4375 102.945312 41.4375 101.308594 C 41.4375 99.667969 41.726562 98.417969 42.300781 97.554688 C 42.875 96.695312 43.707031 96.261719 44.796875 96.261719 Z M 44.796875 96.261719 "/>
<g clip-path="url(#clip10)" clip-rule="nonzero">
<path style="fill:none;stroke-width:0.8;stroke-linecap:square;stroke-linejoin:round;stroke:rgb(69.01961%,69.01961%,69.01961%);stroke-opacity:1;stroke-miterlimit:4;" d="M 43.78125 48.354492 L 239.080078 48.354492 " transform="matrix(1.333333,0,0,1.333333,0,0.000000000000014211)"/>
</g>
<path style="fill:none;stroke-width:0.8;stroke-linecap:butt;stroke-linejoin:round;stroke:rgb(0%,0%,0%);stroke-opacity:1;stroke-miterlimit:4;" d="M 0 0.00136185 L -3.500977 0.00136185 " transform="matrix(1.333333,0,0,1.333333,58.375,64.47084)"/>
<path style=" stroke:none;fill-rule:nonzero;fill:rgb(0%,0%,0%);fill-opacity:1;" d="M 30.394531 68.429688 L 34.984375 68.429688 L 34.984375 69.535156 L 28.816406 69.535156 L 28.816406 68.429688 C 29.3125 67.914062 29.992188 67.21875 30.855469 66.351562 C 31.714844 65.480469 32.257812 64.917969 32.480469 64.664062 C 32.898438 64.195312 33.195312 63.792969 33.359375 63.464844 C 33.527344 63.136719 33.613281 62.816406 33.613281 62.5 C 33.613281 61.980469 33.429688 61.5625 33.070312 61.238281 C 32.707031 60.910156 32.234375 60.746094 31.652344 60.746094 C 31.238281 60.746094 30.804688 60.820312 30.347656 60.960938 C 29.890625 61.105469 29.398438 61.320312 28.878906 61.613281 L 28.878906 60.285156 C 29.410156 60.070312 29.902344 59.910156 30.363281 59.804688 C 30.824219 59.695312 31.246094 59.640625 31.628906 59.640625 C 32.632812 59.640625 33.4375 59.894531 34.035156 60.398438 C 34.632812 60.898438 34.933594 61.570312 34.933594 62.414062 C 34.933594 62.8125 34.859375 63.191406 34.707031 63.550781 C 34.558594 63.90625 34.289062 64.328125 33.890625 64.816406 C 33.785156 64.941406 33.4375 65.304688 32.855469 65.90625 C 32.277344 66.507812 31.457031 67.351562 30.394531 68.429688 Z M 30.394531 68.429688 "/>
<path style=" stroke:none;fill-rule:nonzero;fill:rgb(0%,0%,0%);fill-opacity:1;" d="M 37.746094 67.882812 L 39.121094 67.882812 L 39.121094 69.535156 L 37.746094 69.535156 Z M 37.746094 67.882812 "/>
<path style=" stroke:none;fill-rule:nonzero;fill:rgb(0%,0%,0%);fill-opacity:1;" d="M 43.117188 68.429688 L 47.707031 68.429688 L 47.707031 69.535156 L 41.535156 69.535156 L 41.535156 68.429688 C 42.035156 67.914062 42.714844 67.21875 43.574219 66.351562 C 44.4375 65.480469 44.980469 64.917969 45.199219 64.664062 C 45.621094 64.195312 45.914062 63.792969 46.082031 63.464844 C 46.25 63.136719 46.332031 62.816406 46.332031 62.5 C 46.332031 61.980469 46.152344 61.5625 45.789062 61.238281 C 45.425781 60.910156 44.957031 60.746094 44.375 60.746094 C 43.960938 60.746094 43.527344 60.820312 43.066406 60.960938 C 42.609375 61.105469 42.121094 61.320312 41.601562 61.613281 L 41.601562 60.285156 C 42.128906 60.070312 42.625 59.910156 43.082031 59.804688 C 43.546875 59.695312 43.964844 59.640625 44.347656 59.640625 C 45.355469 59.640625 46.15625 59.894531 46.757812 60.398438 C 47.355469 60.898438 47.65625 61.570312 47.65625 62.414062 C 47.65625 62.8125 47.578125 63.191406 47.429688 63.550781 C 47.28125 63.90625 47.007812 64.328125 46.613281 64.816406 C 46.503906 64.941406 46.160156 65.304688 45.578125 65.90625 C 44.996094 66.507812 44.175781 67.351562 43.117188 68.429688 Z M 43.117188 68.429688 "/>
<g clip-path="url(#clip11)" clip-rule="nonzero">
<path style="fill:none;stroke-width:0.8;stroke-linecap:square;stroke-linejoin:round;stroke:rgb(69.01961%,69.01961%,69.01961%);stroke-opacity:1;stroke-miterlimit:4;" d="M 43.78125 20.885742 L 239.080078 20.885742 " transform="matrix(1.333333,0,0,1.333333,0,0.000000000000014211)"/>
</g>
<path style="fill:none;stroke-width:0.8;stroke-linecap:butt;stroke-linejoin:round;stroke:rgb(0%,0%,0%);stroke-opacity:1;stroke-miterlimit:4;" d="M 0 -0.000720978 L -3.500977 -0.000720978 " transform="matrix(1.333333,0,0,1.333333,58.375,27.848618)"/>
<path style=" stroke:none;fill-rule:nonzero;fill:rgb(0%,0%,0%);fill-opacity:1;" d="M 30.394531 31.808594 L 34.984375 31.808594 L 34.984375 32.914062 L 28.816406 32.914062 L 28.816406 31.808594 C 29.3125 31.292969 29.992188 30.597656 30.855469 29.730469 C 31.714844 28.859375 32.257812 28.296875 32.480469 28.042969 C 32.898438 27.570312 33.195312 27.171875 33.359375 26.84375 C 33.527344 26.515625 33.613281 26.195312 33.613281 25.875 C 33.613281 25.359375 33.429688 24.9375 33.070312 24.613281 C 32.707031 24.289062 32.234375 24.125 31.652344 24.125 C 31.238281 24.125 30.804688 24.195312 30.347656 24.339844 C 29.890625 24.480469 29.398438 24.699219 28.878906 24.992188 L 28.878906 23.664062 C 29.410156 23.449219 29.902344 23.289062 30.363281 23.179688 C 30.824219 23.074219 31.246094 23.019531 31.628906 23.019531 C 32.632812 23.019531 33.4375 23.269531 34.035156 23.773438 C 34.632812 24.277344 34.933594 24.949219 34.933594 25.792969 C 34.933594 26.191406 34.859375 26.570312 34.707031 26.929688 C 34.558594 27.285156 34.289062 27.707031 33.890625 28.195312 C 33.785156 28.320312 33.4375 28.683594 32.855469 29.285156 C 32.277344 29.886719 31.457031 30.726562 30.394531 31.808594 Z M 30.394531 31.808594 "/>
<path style=" stroke:none;fill-rule:nonzero;fill:rgb(0%,0%,0%);fill-opacity:1;" d="M 37.746094 31.261719 L 39.121094 31.261719 L 39.121094 32.914062 L 37.746094 32.914062 Z M 37.746094 31.261719 "/>
<path style=" stroke:none;fill-rule:nonzero;fill:rgb(0%,0%,0%);fill-opacity:1;" d="M 45.597656 24.339844 L 42.277344 29.527344 L 45.597656 29.527344 Z M 45.253906 23.195312 L 46.90625 23.195312 L 46.90625 29.527344 L 48.292969 29.527344 L 48.292969 30.621094 L 46.90625 30.621094 L 46.90625 32.914062 L 45.597656 32.914062 L 45.597656 30.621094 L 41.210938 30.621094 L 41.210938 29.355469 Z M 45.253906 23.195312 "/>
<path style=" stroke:none;fill-rule:nonzero;fill:rgb(0%,0%,0%);fill-opacity:1;" d="M 15.171875 113.195312 C 15.269531 112.910156 15.472656 112.636719 15.785156 112.371094 C 16.097656 112.105469 16.527344 111.835938 17.074219 111.566406 L 19.730469 110.230469 L 19.730469 111.644531 L 17.238281 112.886719 C 16.585938 113.210938 16.152344 113.523438 15.941406 113.824219 C 15.730469 114.125 15.621094 114.535156 15.621094 115.054688 L 15.621094 116.488281 L 19.730469 116.488281 L 19.730469 117.804688 L 10.011719 117.804688 L 10.011719 114.835938 C 10.011719 113.722656 10.242188 112.894531 10.707031 112.347656 C 11.171875 111.800781 11.871094 111.527344 12.808594 111.527344 C 13.421875 111.527344 13.929688 111.667969 14.335938 111.953125 C 14.738281 112.238281 15.015625 112.652344 15.171875 113.195312 Z M 11.089844 116.488281 L 14.542969 116.488281 L 14.542969 114.835938 C 14.542969 114.203125 14.394531 113.722656 14.101562 113.398438 C 13.808594 113.078125 13.378906 112.914062 12.808594 112.914062 C 12.242188 112.914062 11.8125 113.078125 11.523438 113.398438 C 11.234375 113.722656 11.089844 114.203125 11.089844 114.835938 Z M 11.089844 116.488281 "/>
<path style=" stroke:none;fill-rule:nonzero;fill:rgb(0%,0%,0%);fill-opacity:1;" d="M 16.066406 105.578125 C 16.066406 106.546875 16.175781 107.214844 16.398438 107.589844 C 16.617188 107.964844 16.996094 108.148438 17.53125 108.148438 C 17.957031 108.148438 18.292969 108.011719 18.542969 107.730469 C 18.792969 107.449219 18.917969 107.066406 18.917969 106.585938 C 18.917969 105.921875 18.679688 105.390625 18.210938 104.988281 C 17.738281 104.585938 17.113281 104.386719 16.332031 104.386719 L 16.066406 104.386719 Z M 15.570312 103.1875 L 19.730469 103.1875 L 19.730469 104.386719 L 18.625 104.386719 C 19.066406 104.660156 19.394531 105 19.605469 105.410156 C 19.816406 105.816406 19.921875 106.316406 19.921875 106.90625 C 19.921875 107.652344 19.710938 108.246094 19.292969 108.6875 C 18.871094 109.128906 18.3125 109.347656 17.609375 109.347656 C 16.789062 109.347656 16.171875 109.074219 15.753906 108.523438 C 15.335938 107.976562 15.128906 107.15625 15.128906 106.066406 L 15.128906 104.386719 L 15.011719 104.386719 C 14.460938 104.386719 14.03125 104.566406 13.730469 104.929688 C 13.429688 105.292969 13.277344 105.800781 13.277344 106.457031 C 13.277344 106.875 13.328125 107.28125 13.429688 107.675781 C 13.527344 108.070312 13.679688 108.449219 13.878906 108.8125 L 12.769531 108.8125 C 12.601562 108.375 12.476562 107.949219 12.390625 107.539062 C 12.308594 107.125 12.265625 106.722656 12.265625 106.332031 C 12.265625 105.277344 12.539062 104.488281 13.085938 103.96875 C 13.632812 103.449219 14.460938 103.1875 15.570312 103.1875 Z M 15.570312 103.1875 "/>
<path style=" stroke:none;fill-rule:nonzero;fill:rgb(0%,0%,0%);fill-opacity:1;" d="M 10.367188 99.535156 L 12.441406 99.535156 L 12.441406 97.070312 L 13.371094 97.070312 L 13.371094 99.535156 L 17.328125 99.535156 C 17.921875 99.535156 18.304688 99.453125 18.476562 99.292969 C 18.644531 99.128906 18.730469 98.796875 18.730469 98.296875 L 18.730469 97.070312 L 19.730469 97.070312 L 19.730469 98.296875 C 19.730469 99.222656 19.558594 99.863281 19.214844 100.214844 C 18.867188 100.5625 18.242188 100.738281 17.328125 100.738281 L 13.371094 100.738281 L 13.371094 101.621094 L 12.441406 101.621094 L 12.441406 100.738281 L 10.367188 100.738281 Z M 10.367188 99.535156 "/>
<path style=" stroke:none;fill-rule:nonzero;fill:rgb(0%,0%,0%);fill-opacity:1;" d="M 12.441406 95.492188 L 12.441406 94.296875 L 19.730469 94.296875 L 19.730469 95.492188 Z M 9.601562 95.492188 L 9.601562 94.296875 L 11.117188 94.296875 L 11.117188 95.492188 Z M 9.601562 95.492188 "/>
<path style=" stroke:none;fill-rule:nonzero;fill:rgb(0%,0%,0%);fill-opacity:1;" d="M 13.277344 88.964844 C 13.277344 89.605469 13.53125 90.113281 14.03125 90.488281 C 14.53125 90.859375 15.21875 91.046875 16.089844 91.046875 C 16.964844 91.046875 17.652344 90.863281 18.152344 90.492188 C 18.652344 90.117188 18.902344 89.609375 18.902344 88.964844 C 18.902344 88.324219 18.652344 87.820312 18.148438 87.449219 C 17.644531 87.074219 16.960938 86.886719 16.089844 86.886719 C 15.226562 86.886719 14.542969 87.074219 14.039062 87.449219 C 13.53125 87.820312 13.277344 88.324219 13.277344 88.964844 Z M 12.265625 88.964844 C 12.265625 87.921875 12.601562 87.105469 13.28125 86.511719 C 13.957031 85.914062 14.894531 85.617188 16.089844 85.617188 C 17.285156 85.617188 18.222656 85.914062 18.902344 86.511719 C 19.582031 87.105469 19.921875 87.921875 19.921875 88.964844 C 19.921875 90.011719 19.582031 90.828125 18.902344 91.421875 C 18.222656 92.015625 17.285156 92.308594 16.089844 92.308594 C 14.894531 92.308594 13.957031 92.015625 13.28125 91.421875 C 12.601562 90.828125 12.265625 90.011719 12.265625 88.964844 Z M 12.265625 88.964844 "/>
<path style="fill:none;stroke-width:1.5;stroke-linecap:square;stroke-linejoin:round;stroke:rgb(12.156863%,46.666667%,70.588237%);stroke-opacity:1;stroke-miterlimit:4;" d="M 52.658203 139.5 L 54.46875 107.8125 L 56.282227 78.442383 L 58.092773 27.553711 L 59.90625 28.699219 L 61.716797 13.672852 L 63.527344 14.704102 L 65.34082 15.084961 L 67.151367 13.5 L 68.964844 13.699219 L 70.775391 13.731445 L 72.585938 13.570312 L 74.399414 13.59082 L 76.209961 13.59082 L 78.023438 13.576172 L 230.203125 13.576172 " transform="matrix(1.333333,0,0,1.333333,0,0.000000000000014211)"/>
<path style="fill:none;stroke-width:0.8;stroke-linecap:square;stroke-linejoin:miter;stroke:rgb(0%,0%,0%);stroke-opacity:1;stroke-miterlimit:4;" d="M 43.78125 145.798828 L 43.78125 7.201172 " transform="matrix(1.333333,0,0,1.333333,0,0.000000000000014211)"/>
<path style="fill:none;stroke-width:0.8;stroke-linecap:square;stroke-linejoin:miter;stroke:rgb(0%,0%,0%);stroke-opacity:1;stroke-miterlimit:4;" d="M 239.080078 145.798828 L 239.080078 7.201172 " transform="matrix(1.333333,0,0,1.333333,0,0.000000000000014211)"/>
<path style="fill:none;stroke-width:0.8;stroke-linecap:square;stroke-linejoin:miter;stroke:rgb(0%,0%,0%);stroke-opacity:1;stroke-miterlimit:4;" d="M 43.78125 145.798828 L 239.080078 145.798828 " transform="matrix(1.333333,0,0,1.333333,0,0.000000000000014211)"/>
<path style="fill:none;stroke-width:0.8;stroke-linecap:square;stroke-linejoin:miter;stroke:rgb(0%,0%,0%);stroke-opacity:1;stroke-miterlimit:4;" d="M 43.78125 7.201172 L 239.080078 7.201172 " transform="matrix(1.333333,0,0,1.333333,0,0.000000000000014211)"/>
</g>
</svg>
