<?xml version="1.0" encoding="UTF-8"?>
<svg xmlns="http://www.w3.org/2000/svg" xmlns:xlink="http://www.w3.org/1999/xlink" width="348.2146" height="257.379171" viewBox="0 0 348.2146 257.379171" version="1.1">
<g id="surface1">
<path style=" stroke:none;fill-rule:nonzero;fill:rgb(100%,100%,100%);fill-opacity:1;" d="M 0 257.378906 L 348.214844 257.378906 L 348.214844 0 L 0 0 Z M 0 257.378906 "/>
<path style=" stroke:none;fill-rule:nonzero;fill:rgb(100%,100%,100%);fill-opacity:1;" d="M 78.214844 194.398438 L 338.613281 194.398438 L 338.613281 9.601562 L 78.214844 9.601562 Z M 78.214844 194.398438 "/>
<path style=" stroke:none;fill-rule:nonzero;fill:rgb(12.156863%,46.666667%,70.588237%);fill-opacity:0.25098;" d="M 90.050781 18 L 90.050781 186 L 94.882812 182.707031 L 99.714844 179.417969 L 104.542969 176.136719 L 109.375 172.863281 L 114.207031 169.597656 L 119.039062 166.339844 L 123.867188 163.097656 L 128.699219 159.867188 L 133.53125 156.652344 L 138.363281 153.457031 L 143.195312 150.285156 L 148.023438 147.136719 L 152.855469 144.027344 L 157.6875 140.957031 L 162.519531 137.9375 L 167.351562 134.984375 L 172.179688 132.121094 L 177.011719 129.367188 L 181.84375 126.765625 L 186.675781 124.367188 L 191.503906 122.246094 L 196.335938 120.492188 L 201.167969 119.226562 L 206 118.558594 L 210.832031 118.558594 L 215.660156 119.226562 L 220.492188 120.492188 L 225.324219 122.246094 L 230.15625 124.367188 L 234.984375 126.765625 L 239.816406 129.367188 L 244.648438 132.121094 L 249.480469 134.984375 L 254.3125 137.9375 L 259.140625 140.957031 L 263.972656 144.027344 L 268.804688 147.136719 L 273.636719 150.285156 L 278.464844 153.457031 L 283.296875 156.652344 L 288.128906 159.867188 L 292.960938 163.097656 L 297.792969 166.339844 L 302.621094 169.597656 L 307.453125 172.863281 L 312.285156 176.136719 L 317.117188 179.417969 L 321.945312 182.707031 L 326.777344 186 L 326.777344 18 L 321.945312 21.292969 L 317.117188 24.582031 L 312.285156 27.863281 L 307.453125 31.136719 L 302.621094 34.402344 L 297.792969 37.660156 L 292.960938 40.902344 L 288.128906 44.132812 L 283.296875 47.347656 L 278.464844 50.542969 L 273.636719 53.714844 L 268.804688 56.863281 L 263.972656 59.972656 L 259.140625 63.042969 L 254.3125 66.0625 L 249.480469 69.015625 L 244.648438 71.878906 L 239.816406 74.632812 L 234.984375 77.234375 L 230.15625 79.632812 L 225.324219 81.753906 L 220.492188 83.507812 L 215.660156 84.773438 L 210.832031 85.441406 L 206 85.441406 L 201.167969 84.773438 L 196.335938 83.507812 L 191.503906 81.753906 L 186.675781 79.632812 L 181.84375 77.234375 L 177.011719 74.632812 L 172.179688 71.878906 L 167.351562 69.015625 L 162.519531 66.0625 L 157.6875 63.042969 L 152.855469 59.972656 L 148.023438 56.863281 L 143.195312 53.714844 L 138.363281 50.542969 L 133.53125 47.347656 L 128.699219 44.132812 L 123.867188 40.902344 L 119.039062 37.660156 L 114.207031 34.402344 L 109.375 31.136719 L 104.542969 27.863281 L 99.714844 24.582031 L 94.882812 21.292969 Z M 90.050781 18 "/>
<path style="fill:none;stroke-width:0.8;stroke-linecap:butt;stroke-linejoin:round;stroke:rgb(0%,0%,0%);stroke-opacity:1;stroke-miterlimit:4;" d="M -0.000762939 -0.00117493 L -0.000762939 3.499802 " transform="matrix(1.333333,0,0,1.333333,113.723674,194.400004)"/>
<path style=" stroke:none;fill-rule:nonzero;fill:rgb(0%,0%,0%);fill-opacity:1;" d="M 105.308594 209.132812 L 113.652344 209.132812 L 113.652344 210.238281 L 105.308594 210.238281 Z M 105.308594 209.132812 "/>
<path style=" stroke:none;fill-rule:nonzero;fill:rgb(0%,0%,0%);fill-opacity:1;" d="M 120.105469 205.289062 L 116.785156 210.480469 L 120.105469 210.480469 Z M 119.761719 204.144531 L 121.414062 204.144531 L 121.414062 210.480469 L 122.804688 210.480469 L 122.804688 211.574219 L 121.414062 211.574219 L 121.414062 213.863281 L 120.105469 213.863281 L 120.105469 211.574219 L 115.71875 211.574219 L 115.71875 210.304688 Z M 119.761719 204.144531 "/>
<path style="fill:none;stroke-width:0.8;stroke-linecap:butt;stroke-linejoin:round;stroke:rgb(0%,0%,0%);stroke-opacity:1;stroke-miterlimit:4;" d="M 0.00088501 -0.00117493 L 0.00088501 3.499802 " transform="matrix(1.333333,0,0,1.333333,161.069132,194.400004)"/>
<path style=" stroke:none;fill-rule:nonzero;fill:rgb(0%,0%,0%);fill-opacity:1;" d="M 152.652344 209.132812 L 161 209.132812 L 161 210.238281 L 152.652344 210.238281 Z M 152.652344 209.132812 "/>
<path style=" stroke:none;fill-rule:nonzero;fill:rgb(0%,0%,0%);fill-opacity:1;" d="M 164.972656 212.757812 L 169.5625 212.757812 L 169.5625 213.863281 L 163.390625 213.863281 L 163.390625 212.757812 C 163.886719 212.242188 164.570312 211.546875 165.429688 210.679688 C 166.292969 209.808594 166.832031 209.246094 167.054688 208.992188 C 167.476562 208.523438 167.769531 208.121094 167.9375 207.792969 C 168.105469 207.464844 168.1875 207.144531 168.1875 206.828125 C 168.1875 206.308594 168.007812 205.890625 167.644531 205.566406 C 167.28125 205.238281 166.808594 205.074219 166.226562 205.074219 C 165.816406 205.074219 165.378906 205.148438 164.921875 205.289062 C 164.464844 205.433594 163.976562 205.648438 163.453125 205.941406 L 163.453125 204.613281 C 163.984375 204.398438 164.476562 204.238281 164.9375 204.132812 C 165.398438 204.023438 165.820312 203.96875 166.203125 203.96875 C 167.210938 203.96875 168.011719 204.222656 168.609375 204.726562 C 169.210938 205.226562 169.507812 205.898438 169.507812 206.742188 C 169.507812 207.140625 169.433594 207.519531 169.285156 207.878906 C 169.136719 208.234375 168.863281 208.65625 168.46875 209.144531 C 168.359375 209.269531 168.011719 209.632812 167.429688 210.234375 C 166.851562 210.835938 166.03125 211.679688 164.972656 212.757812 Z M 164.972656 212.757812 "/>
<path style="fill:none;stroke-width:0.8;stroke-linecap:butt;stroke-linejoin:round;stroke:rgb(0%,0%,0%);stroke-opacity:1;stroke-miterlimit:4;" d="M -0.000396729 -0.00117493 L -0.000396729 3.499802 " transform="matrix(1.333333,0,0,1.333333,208.414591,194.400004)"/>
<path style=" stroke:none;fill-rule:nonzero;fill:rgb(0%,0%,0%);fill-opacity:1;" d="M 208.410156 205.011719 C 207.734375 205.011719 207.226562 205.34375 206.882812 206.011719 C 206.542969 206.675781 206.371094 207.675781 206.371094 209.015625 C 206.371094 210.347656 206.542969 211.347656 206.882812 212.011719 C 207.226562 212.679688 207.734375 213.011719 208.410156 213.011719 C 209.09375 213.011719 209.601562 212.679688 209.945312 212.011719 C 210.285156 211.347656 210.457031 210.347656 210.457031 209.015625 C 210.457031 207.675781 210.285156 206.675781 209.945312 206.011719 C 209.601562 205.34375 209.09375 205.011719 208.410156 205.011719 Z M 208.410156 203.96875 C 209.5 203.96875 210.332031 204.398438 210.910156 205.261719 C 211.484375 206.125 211.769531 207.375 211.769531 209.015625 C 211.769531 210.652344 211.484375 211.898438 210.910156 212.761719 C 210.332031 213.625 209.5 214.054688 208.410156 214.054688 C 207.320312 214.054688 206.488281 213.625 205.914062 212.761719 C 205.339844 211.898438 205.050781 210.652344 205.050781 209.015625 C 205.050781 207.375 205.339844 206.125 205.914062 205.261719 C 206.488281 204.398438 207.320312 203.96875 208.410156 203.96875 Z M 208.410156 203.96875 "/>
<path style="fill:none;stroke-width:0.8;stroke-linecap:butt;stroke-linejoin:round;stroke:rgb(0%,0%,0%);stroke-opacity:1;stroke-miterlimit:4;" d="M 0.00126648 -0.00117493 L 0.00126648 3.499802 " transform="matrix(1.333333,0,0,1.333333,255.76003,194.400004)"/>
<path style=" stroke:none;fill-rule:nonzero;fill:rgb(0%,0%,0%);fill-opacity:1;" d="M 254.078125 212.757812 L 258.667969 212.757812 L 258.667969 213.863281 L 252.496094 213.863281 L 252.496094 212.757812 C 252.992188 212.242188 253.675781 211.546875 254.535156 210.679688 C 255.398438 209.808594 255.9375 209.246094 256.160156 208.992188 C 256.582031 208.523438 256.875 208.121094 257.042969 207.792969 C 257.210938 207.464844 257.292969 207.144531 257.292969 206.828125 C 257.292969 206.308594 257.113281 205.890625 256.75 205.566406 C 256.386719 205.238281 255.914062 205.074219 255.332031 205.074219 C 254.921875 205.074219 254.484375 205.148438 254.027344 205.289062 C 253.570312 205.433594 253.082031 205.648438 252.558594 205.941406 L 252.558594 204.613281 C 253.089844 204.398438 253.582031 204.238281 254.042969 204.132812 C 254.503906 204.023438 254.925781 203.96875 255.308594 203.96875 C 256.316406 203.96875 257.117188 204.222656 257.714844 204.726562 C 258.316406 205.226562 258.613281 205.898438 258.613281 206.742188 C 258.613281 207.140625 258.539062 207.519531 258.390625 207.878906 C 258.242188 208.234375 257.96875 208.65625 257.574219 209.144531 C 257.464844 209.269531 257.117188 209.632812 256.539062 210.234375 C 255.957031 210.835938 255.136719 211.679688 254.078125 212.757812 Z M 254.078125 212.757812 "/>
<path style="fill:none;stroke-width:0.8;stroke-linecap:butt;stroke-linejoin:round;stroke:rgb(0%,0%,0%);stroke-opacity:1;stroke-miterlimit:4;" d="M -0.0000152588 -0.00117493 L -0.0000152588 3.499802 " transform="matrix(1.333333,0,0,1.333333,303.105489,194.400004)"/>
<path style=" stroke:none;fill-rule:nonzero;fill:rgb(0%,0%,0%);fill-opacity:1;" d="M 303.902344 205.289062 L 300.582031 210.480469 L 303.902344 210.480469 Z M 303.558594 204.144531 L 305.210938 204.144531 L 305.210938 210.480469 L 306.597656 210.480469 L 306.597656 211.574219 L 305.210938 211.574219 L 305.210938 213.863281 L 303.902344 213.863281 L 303.902344 211.574219 L 299.515625 211.574219 L 299.515625 210.304688 Z M 303.558594 204.144531 "/>
<path style=" stroke:none;fill-rule:nonzero;fill:rgb(0%,0%,0%);fill-opacity:1;" d="M 215.160156 227.648438 L 209.886719 234.746094 L 215.429688 242.234375 L 212.605469 242.234375 L 208.359375 236.503906 L 204.117188 242.234375 L 201.289062 242.234375 L 206.957031 234.605469 L 201.773438 227.648438 L 204.597656 227.648438 L 208.464844 232.847656 L 212.332031 227.648438 Z M 215.160156 227.648438 "/>
<path style="fill:none;stroke-width:0.8;stroke-linecap:butt;stroke-linejoin:round;stroke:rgb(0%,0%,0%);stroke-opacity:1;stroke-miterlimit:4;" d="M 0.00019455 -0.00119019 L -3.500782 -0.00119019 " transform="matrix(1.333333,0,0,1.333333,78.214584,184.368774)"/>
<path style=" stroke:none;fill-rule:nonzero;fill:rgb(0%,0%,0%);fill-opacity:1;" d="M 42.152344 184.699219 L 50.5 184.699219 L 50.5 185.808594 L 42.152344 185.808594 Z M 42.152344 184.699219 "/>
<path style=" stroke:none;fill-rule:nonzero;fill:rgb(0%,0%,0%);fill-opacity:1;" d="M 53.566406 188.328125 L 55.714844 188.328125 L 55.714844 180.910156 L 53.378906 181.378906 L 53.378906 180.183594 L 55.703125 179.714844 L 57.019531 179.714844 L 57.019531 188.328125 L 59.164062 188.328125 L 59.164062 189.433594 L 53.566406 189.433594 Z M 53.566406 188.328125 "/>
<path style=" stroke:none;fill-rule:nonzero;fill:rgb(0%,0%,0%);fill-opacity:1;" d="M 64.632812 180.582031 C 63.957031 180.582031 63.449219 180.914062 63.105469 181.582031 C 62.765625 182.246094 62.597656 183.246094 62.597656 184.585938 C 62.597656 185.917969 62.765625 186.914062 63.105469 187.582031 C 63.449219 188.25 63.957031 188.582031 64.632812 188.582031 C 65.316406 188.582031 65.828125 188.25 66.167969 187.582031 C 66.507812 186.914062 66.679688 185.917969 66.679688 184.585938 C 66.679688 183.246094 66.507812 182.246094 66.167969 181.582031 C 65.828125 180.914062 65.316406 180.582031 64.632812 180.582031 Z M 64.632812 179.539062 C 65.722656 179.539062 66.558594 179.96875 67.132812 180.832031 C 67.707031 181.695312 67.996094 182.945312 67.996094 184.585938 C 67.996094 186.21875 67.707031 187.46875 67.132812 188.332031 C 66.558594 189.195312 65.722656 189.625 64.632812 189.625 C 63.546875 189.625 62.714844 189.195312 62.136719 188.332031 C 61.5625 187.46875 61.277344 186.21875 61.277344 184.585938 C 61.277344 182.945312 61.5625 181.695312 62.136719 180.832031 C 62.714844 179.96875 63.546875 179.539062 64.632812 179.539062 Z M 64.632812 179.539062 "/>
<path style="fill:none;stroke-width:0.8;stroke-linecap:butt;stroke-linejoin:round;stroke:rgb(0%,0%,0%);stroke-opacity:1;stroke-miterlimit:4;" d="M 0.00019455 -0.000595093 L -3.500782 -0.000595093 " transform="matrix(1.333333,0,0,1.333333,78.214584,143.184387)"/>
<path style=" stroke:none;fill-rule:nonzero;fill:rgb(0%,0%,0%);fill-opacity:1;" d="M 50.636719 143.515625 L 58.984375 143.515625 L 58.984375 144.621094 L 50.636719 144.621094 Z M 50.636719 143.515625 "/>
<path style=" stroke:none;fill-rule:nonzero;fill:rgb(0%,0%,0%);fill-opacity:1;" d="M 61.835938 138.527344 L 67 138.527344 L 67 139.636719 L 63.039062 139.636719 L 63.039062 142.019531 C 63.230469 141.953125 63.421875 141.90625 63.613281 141.871094 C 63.804688 141.839844 63.996094 141.824219 64.1875 141.824219 C 65.269531 141.824219 66.128906 142.121094 66.761719 142.714844 C 67.398438 143.3125 67.714844 144.117188 67.714844 145.132812 C 67.714844 146.175781 67.390625 146.992188 66.738281 147.570312 C 66.085938 148.148438 65.167969 148.441406 63.984375 148.441406 C 63.574219 148.441406 63.160156 148.40625 62.738281 148.335938 C 62.3125 148.265625 61.878906 148.160156 61.425781 148.023438 L 61.425781 146.699219 C 61.816406 146.914062 62.21875 147.070312 62.636719 147.175781 C 63.054688 147.277344 63.492188 147.332031 63.957031 147.332031 C 64.707031 147.332031 65.304688 147.132812 65.742188 146.738281 C 66.179688 146.34375 66.398438 145.808594 66.398438 145.132812 C 66.398438 144.453125 66.179688 143.917969 65.742188 143.523438 C 65.304688 143.128906 64.707031 142.929688 63.957031 142.929688 C 63.605469 142.929688 63.253906 142.96875 62.90625 143.046875 C 62.554688 143.125 62.199219 143.246094 61.835938 143.414062 Z M 61.835938 138.527344 "/>
<path style="fill:none;stroke-width:0.8;stroke-linecap:butt;stroke-linejoin:round;stroke:rgb(0%,0%,0%);stroke-opacity:1;stroke-miterlimit:4;" d="M 0.00019455 0 L -3.500782 0 " transform="matrix(1.333333,0,0,1.333333,78.214584,102)"/>
<path style=" stroke:none;fill-rule:nonzero;fill:rgb(0%,0%,0%);fill-opacity:1;" d="M 64.636719 98.210938 C 63.960938 98.210938 63.449219 98.542969 63.109375 99.210938 C 62.769531 99.875 62.597656 100.878906 62.597656 102.214844 C 62.597656 103.546875 62.769531 104.546875 63.109375 105.214844 C 63.449219 105.878906 63.960938 106.214844 64.636719 106.214844 C 65.316406 106.214844 65.828125 105.878906 66.167969 105.214844 C 66.511719 104.546875 66.679688 103.546875 66.679688 102.214844 C 66.679688 100.878906 66.511719 99.875 66.167969 99.210938 C 65.828125 98.542969 65.316406 98.210938 64.636719 98.210938 Z M 64.636719 97.167969 C 65.726562 97.167969 66.558594 97.601562 67.132812 98.464844 C 67.707031 99.324219 67.996094 100.574219 67.996094 102.214844 C 67.996094 103.851562 67.707031 105.101562 67.132812 105.964844 C 66.558594 106.824219 65.726562 107.253906 64.636719 107.253906 C 63.546875 107.253906 62.714844 106.824219 62.140625 105.964844 C 61.566406 105.101562 61.277344 103.851562 61.277344 102.214844 C 61.277344 100.574219 61.566406 99.324219 62.140625 98.464844 C 62.714844 97.601562 63.546875 97.167969 64.636719 97.167969 Z M 64.636719 97.167969 "/>
<path style="fill:none;stroke-width:0.8;stroke-linecap:butt;stroke-linejoin:round;stroke:rgb(0%,0%,0%);stroke-opacity:1;stroke-miterlimit:4;" d="M 0.00019455 0.000595093 L -3.500782 0.000595093 " transform="matrix(1.333333,0,0,1.333333,78.214584,60.815613)"/>
<path style=" stroke:none;fill-rule:nonzero;fill:rgb(0%,0%,0%);fill-opacity:1;" d="M 61.835938 56.160156 L 67 56.160156 L 67 57.269531 L 63.042969 57.269531 L 63.042969 59.648438 C 63.230469 59.585938 63.421875 59.535156 63.613281 59.503906 C 63.804688 59.472656 63.996094 59.457031 64.1875 59.457031 C 65.273438 59.457031 66.132812 59.753906 66.765625 60.347656 C 67.398438 60.941406 67.714844 61.746094 67.714844 62.761719 C 67.714844 63.808594 67.390625 64.621094 66.738281 65.203125 C 66.089844 65.78125 65.171875 66.070312 63.984375 66.070312 C 63.578125 66.070312 63.160156 66.035156 62.738281 65.964844 C 62.316406 65.898438 61.878906 65.792969 61.425781 65.652344 L 61.425781 64.332031 C 61.816406 64.542969 62.222656 64.703125 62.636719 64.804688 C 63.054688 64.910156 63.496094 64.960938 63.957031 64.960938 C 64.710938 64.960938 65.304688 64.765625 65.742188 64.371094 C 66.179688 63.976562 66.398438 63.441406 66.398438 62.761719 C 66.398438 62.085938 66.179688 61.550781 65.742188 61.15625 C 65.304688 60.761719 64.710938 60.5625 63.957031 60.5625 C 63.605469 60.5625 63.257812 60.601562 62.90625 60.679688 C 62.558594 60.757812 62.203125 60.878906 61.835938 61.042969 Z M 61.835938 56.160156 "/>
<path style="fill:none;stroke-width:0.8;stroke-linecap:butt;stroke-linejoin:round;stroke:rgb(0%,0%,0%);stroke-opacity:1;stroke-miterlimit:4;" d="M 0.00019455 0.00119209 L -3.500782 0.00119209 " transform="matrix(1.333333,0,0,1.333333,78.214584,19.631223)"/>
<path style=" stroke:none;fill-rule:nonzero;fill:rgb(0%,0%,0%);fill-opacity:1;" d="M 53.570312 23.589844 L 55.714844 23.589844 L 55.714844 16.175781 L 53.378906 16.644531 L 53.378906 15.445312 L 55.703125 14.976562 L 57.019531 14.976562 L 57.019531 23.589844 L 59.167969 23.589844 L 59.167969 24.695312 L 53.570312 24.695312 Z M 53.570312 23.589844 "/>
<path style=" stroke:none;fill-rule:nonzero;fill:rgb(0%,0%,0%);fill-opacity:1;" d="M 64.636719 15.84375 C 63.957031 15.84375 63.449219 16.175781 63.109375 16.84375 C 62.769531 17.507812 62.597656 18.507812 62.597656 19.847656 C 62.597656 21.179688 62.769531 22.179688 63.109375 22.84375 C 63.449219 23.511719 63.957031 23.84375 64.636719 23.84375 C 65.316406 23.84375 65.828125 23.511719 66.167969 22.84375 C 66.511719 22.179688 66.679688 21.179688 66.679688 19.847656 C 66.679688 18.507812 66.511719 17.507812 66.167969 16.84375 C 65.828125 16.175781 65.316406 15.84375 64.636719 15.84375 Z M 64.636719 14.800781 C 65.726562 14.800781 66.558594 15.230469 67.132812 16.09375 C 67.707031 16.957031 67.996094 18.207031 67.996094 19.847656 C 67.996094 21.484375 67.707031 22.730469 67.132812 23.59375 C 66.558594 24.457031 65.726562 24.886719 64.636719 24.886719 C 63.546875 24.886719 62.714844 24.457031 62.140625 23.59375 C 61.5625 22.730469 61.277344 21.484375 61.277344 19.847656 C 61.277344 18.207031 61.5625 16.957031 62.140625 16.09375 C 62.714844 15.230469 63.546875 14.800781 64.636719 14.800781 Z M 64.636719 14.800781 "/>
<path style=" stroke:none;fill-rule:nonzero;fill:rgb(0%,0%,0%);fill-opacity:1;" d="M 9.601562 115.09375 L 11.597656 115.09375 L 11.597656 117.386719 C 11.597656 118.242188 11.769531 118.839844 12.117188 119.175781 C 12.464844 119.511719 13.089844 119.675781 13.992188 119.675781 L 15.277344 119.675781 L 15.277344 115.730469 L 17.140625 115.730469 L 17.140625 119.675781 L 29.863281 119.675781 L 29.863281 122.085938 L 17.140625 122.085938 L 17.140625 124.378906 L 15.277344 124.378906 L 15.277344 122.085938 L 14.261719 122.085938 C 12.640625 122.085938 11.457031 121.707031 10.714844 120.953125 C 9.972656 120.195312 9.601562 119 9.601562 117.359375 Z M 9.601562 115.09375 "/>
<path style=" stroke:none;fill-rule:nonzero;fill:rgb(0%,0%,0%);fill-opacity:1;" d="M 9.628906 107.335938 C 11.625 108.496094 13.597656 109.359375 15.554688 109.925781 C 17.507812 110.492188 19.484375 110.773438 21.492188 110.773438 C 23.496094 110.773438 25.480469 110.488281 27.445312 109.917969 C 29.414062 109.347656 31.390625 108.488281 33.378906 107.335938 L 33.378906 109.417969 C 31.335938 110.71875 29.332031 111.691406 27.363281 112.339844 C 25.394531 112.984375 23.4375 113.308594 21.492188 113.308594 C 19.554688 113.308594 17.605469 112.988281 15.644531 112.347656 C 13.683594 111.703125 11.675781 110.726562 9.628906 109.417969 Z M 9.628906 107.335938 "/>
<path style=" stroke:none;fill-rule:nonzero;fill:rgb(0%,0%,0%);fill-opacity:1;" d="M 15.277344 90.558594 L 22.375 95.835938 L 29.863281 90.289062 L 29.863281 93.113281 L 24.132812 97.359375 L 29.863281 101.601562 L 29.863281 104.429688 L 22.234375 98.765625 L 15.277344 103.949219 L 15.277344 101.121094 L 20.476562 97.257812 L 15.277344 93.390625 Z M 15.277344 90.558594 "/>
<path style=" stroke:none;fill-rule:nonzero;fill:rgb(0%,0%,0%);fill-opacity:1;" d="M 9.628906 87.277344 L 9.628906 85.195312 C 11.675781 83.894531 13.683594 82.921875 15.644531 82.273438 C 17.605469 81.628906 19.554688 81.304688 21.492188 81.304688 C 23.4375 81.304688 25.394531 81.628906 27.363281 82.273438 C 29.332031 82.921875 31.335938 83.894531 33.378906 85.195312 L 33.378906 87.277344 C 31.390625 86.125 29.414062 85.265625 27.445312 84.695312 C 25.480469 84.125 23.496094 83.839844 21.492188 83.839844 C 19.484375 83.839844 17.507812 84.125 15.554688 84.695312 C 13.597656 85.265625 11.625 86.125 9.628906 87.277344 Z M 9.628906 87.277344 "/>
<path style="fill:none;stroke-width:4;stroke-linecap:square;stroke-linejoin:round;stroke:rgb(0%,0%,0%);stroke-opacity:1;stroke-miterlimit:4;" d="M 67.538086 76.5 L 245.083008 76.5 " transform="matrix(1.333333,0,0,1.333333,0,0)"/>
<path style="fill:none;stroke-width:1.5;stroke-linecap:square;stroke-linejoin:round;stroke:rgb(12.156863%,46.666667%,70.588237%);stroke-opacity:1;stroke-miterlimit:4;" d="M 67.538086 63.125977 L 74.786133 63.911133 L 78.407227 64.306641 L 85.655273 65.091797 L 89.279297 65.487305 L 92.900391 65.879883 L 100.148438 66.665039 L 103.772461 67.060547 L 107.396484 67.453125 L 111.017578 67.845703 L 114.641602 68.241211 L 121.889648 69.026367 L 125.513672 69.421875 L 129.134766 69.814453 L 132.758789 70.207031 L 136.382812 70.602539 L 140.006836 70.995117 L 143.62793 71.387695 L 147.251953 71.783203 L 154.5 72.568359 L 158.124023 72.963867 L 161.745117 73.356445 L 168.993164 74.141602 L 172.617188 74.537109 L 176.238281 74.929688 L 179.862305 75.322266 L 183.486328 75.717773 L 190.734375 76.50293 L 194.355469 76.898438 L 201.603516 77.683594 L 205.227539 78.079102 L 208.848633 78.47168 L 212.472656 78.864258 L 216.09668 79.259766 L 223.344727 80.044922 L 226.96582 80.44043 L 237.837891 81.618164 L 241.458984 82.013672 L 245.083008 82.40625 " transform="matrix(1.333333,0,0,1.333333,0,0)"/>
<path style="fill:none;stroke-width:1.5;stroke-linecap:square;stroke-linejoin:round;stroke:rgb(100%,49.803922%,5.490196%);stroke-opacity:1;stroke-miterlimit:4;" d="M 67.538086 123.008789 L 74.786133 119.727539 L 78.407227 118.086914 L 89.279297 113.165039 L 92.900391 111.524414 L 96.524414 109.883789 L 100.148438 108.240234 L 107.396484 104.958984 L 111.017578 103.318359 L 125.513672 96.755859 L 129.134766 95.115234 L 140.006836 90.193359 L 143.62793 88.552734 L 158.124023 81.990234 L 161.745117 80.349609 L 172.617188 75.427734 L 176.238281 73.787109 L 183.486328 70.505859 L 187.110352 68.862305 L 190.734375 67.22168 L 194.355469 65.581055 L 205.227539 60.65918 L 208.848633 59.018555 L 223.344727 52.456055 L 226.96582 50.81543 L 237.837891 45.893555 L 241.458984 44.25293 L 245.083008 42.612305 " transform="matrix(1.333333,0,0,1.333333,0,0)"/>
<path style="fill:none;stroke-width:1.5;stroke-linecap:square;stroke-linejoin:round;stroke:rgb(17.254902%,62.7451%,17.254902%);stroke-opacity:1;stroke-miterlimit:4;" d="M 67.538086 93.524414 L 74.786133 93.026367 L 78.407227 92.777344 L 89.279297 92.030273 L 92.900391 91.78418 L 107.396484 90.788086 L 111.017578 90.539062 L 114.641602 90.292969 L 125.513672 89.545898 L 129.134766 89.296875 L 136.382812 88.798828 L 140.006836 88.552734 L 143.62793 88.303711 L 158.124023 87.307617 L 161.745117 87.061523 L 172.617188 86.314453 L 176.238281 86.06543 L 183.486328 85.567383 L 187.110352 85.321289 L 190.734375 85.072266 L 194.355469 84.823242 L 205.227539 84.076172 L 208.848633 83.827148 L 212.472656 83.581055 L 223.344727 82.833984 L 226.96582 82.584961 L 230.589844 82.335938 L 234.213867 82.089844 L 237.837891 81.84082 L 241.458984 81.591797 L 245.083008 81.342773 " transform="matrix(1.333333,0,0,1.333333,0,0)"/>
<path style="fill:none;stroke-width:1.5;stroke-linecap:square;stroke-linejoin:round;stroke:rgb(83.92157%,15.294118%,15.686275%);stroke-opacity:1;stroke-miterlimit:4;" d="M 67.538086 120 L 71.162109 118.277344 L 74.786133 116.557617 L 78.407227 114.837891 L 82.03125 113.115234 L 89.279297 109.675781 L 92.900391 107.953125 L 100.148438 104.513672 L 103.772461 102.791016 L 107.396484 101.071289 L 111.017578 99.348633 L 118.265625 95.90918 L 121.889648 94.186523 L 125.513672 92.466797 L 129.134766 90.74707 L 132.758789 89.024414 L 140.006836 85.584961 L 143.62793 83.862305 L 150.875977 80.422852 L 154.5 78.700195 L 158.124023 76.980469 L 161.745117 75.260742 L 165.369141 73.538086 L 172.617188 70.098633 L 176.238281 68.375977 L 183.486328 64.936523 L 187.110352 63.213867 L 190.734375 61.494141 L 194.355469 59.774414 L 197.979492 58.051758 L 205.227539 54.612305 L 208.848633 52.889648 L 216.09668 49.450195 L 219.720703 47.727539 L 223.344727 46.007812 L 226.96582 44.288086 L 230.589844 42.56543 L 234.213867 40.845703 L 237.837891 39.123047 L 241.458984 37.40332 L 245.083008 35.683594 " transform="matrix(1.333333,0,0,1.333333,0,0)"/>
<path style="fill:none;stroke-width:1.5;stroke-linecap:square;stroke-linejoin:round;stroke:rgb(58.039218%,40.392157%,74.117649%);stroke-opacity:1;stroke-miterlimit:4;" d="M 67.538086 81.369141 L 74.786133 79.910156 L 78.407227 79.183594 L 85.655273 77.724609 L 89.279297 76.998047 L 92.900391 76.268555 L 96.524414 75.541992 L 103.772461 74.083008 L 107.396484 73.356445 L 111.017578 72.626953 L 114.641602 71.900391 L 121.889648 70.441406 L 125.513672 69.714844 L 129.134766 68.985352 L 132.758789 68.258789 L 140.006836 66.799805 L 143.62793 66.073242 L 147.251953 65.34375 L 150.875977 64.617188 L 158.124023 63.158203 L 161.745117 62.431641 L 165.369141 61.702148 L 168.993164 60.975586 L 172.617188 60.246094 L 176.238281 59.516602 L 179.862305 58.790039 L 183.486328 58.060547 L 187.110352 57.333984 L 190.734375 56.604492 L 194.355469 55.875 L 197.979492 55.148438 L 201.603516 54.418945 L 205.227539 53.692383 L 208.848633 52.962891 L 212.472656 52.233398 L 216.09668 51.506836 L 219.720703 50.777344 L 223.344727 50.050781 L 226.96582 49.321289 L 230.589844 48.591797 L 234.213867 47.865234 L 237.837891 47.135742 L 241.458984 46.40918 L 245.083008 45.679688 " transform="matrix(1.333333,0,0,1.333333,0,0)"/>
<path style="fill:none;stroke-width:1.5;stroke-linecap:square;stroke-linejoin:round;stroke:rgb(54.901963%,33.725491%,29.411766%);stroke-opacity:1;stroke-miterlimit:4;" d="M 67.538086 94.49707 L 74.786133 92.750977 L 78.407227 91.880859 L 85.655273 90.134766 L 89.279297 89.264648 L 92.900391 88.391602 L 96.524414 87.518555 L 100.148438 86.648438 L 107.396484 84.902344 L 111.017578 84.032227 L 118.265625 82.286133 L 121.889648 81.416016 L 125.513672 80.542969 L 129.134766 79.669922 L 132.758789 78.799805 L 140.006836 77.053711 L 143.62793 76.183594 L 150.875977 74.4375 L 154.5 73.567383 L 158.124023 72.694336 L 161.745117 71.821289 L 165.369141 70.951172 L 172.617188 69.205078 L 176.238281 68.332031 L 179.862305 67.461914 L 187.110352 65.71582 L 190.734375 64.845703 L 194.355469 63.972656 L 197.979492 63.099609 L 201.603516 62.229492 L 205.227539 61.356445 L 208.848633 60.483398 L 212.472656 59.613281 L 219.720703 57.867188 L 223.344727 56.99707 L 226.96582 56.124023 L 230.589844 55.250977 L 234.213867 54.380859 L 237.837891 53.507812 L 241.458984 52.634766 L 245.083008 51.764648 " transform="matrix(1.333333,0,0,1.333333,0,0)"/>
<path style="fill:none;stroke-width:1.5;stroke-linecap:square;stroke-linejoin:round;stroke:rgb(89.019608%,46.666667%,76.078433%);stroke-opacity:1;stroke-miterlimit:4;" d="M 67.538086 64.03418 L 71.162109 64.142578 L 74.786133 64.253906 L 78.407227 64.365234 L 89.279297 64.699219 L 92.900391 64.810547 L 107.396484 65.255859 L 111.017578 65.367188 L 114.641602 65.475586 L 125.513672 65.80957 L 129.134766 65.920898 L 140.006836 66.254883 L 143.62793 66.366211 L 154.5 66.700195 L 158.124023 66.808594 L 161.745117 66.919922 L 172.617188 67.253906 L 176.238281 67.365234 L 190.734375 67.810547 L 194.355469 67.921875 L 197.979492 68.033203 L 201.603516 68.141602 L 205.227539 68.25293 L 208.848633 68.364258 L 223.344727 68.80957 L 226.96582 68.920898 L 237.837891 69.254883 L 241.458984 69.366211 L 245.083008 69.474609 " transform="matrix(1.333333,0,0,1.333333,0,0)"/>
<path style="fill:none;stroke-width:1.5;stroke-linecap:square;stroke-linejoin:round;stroke:rgb(49.803922%,49.803922%,49.803922%);stroke-opacity:1;stroke-miterlimit:4;" d="M 67.538086 62.399414 L 74.786133 63.114258 L 78.407227 63.46875 L 89.279297 64.541016 L 92.900391 64.898438 L 100.148438 65.613281 L 103.772461 65.967773 L 107.396484 66.325195 L 111.017578 66.682617 L 125.513672 68.112305 L 129.134766 68.466797 L 140.006836 69.539062 L 143.62793 69.896484 L 150.875977 70.611328 L 154.5 70.96582 L 158.124023 71.323242 L 161.745117 71.680664 L 172.617188 72.75293 L 176.238281 73.110352 L 179.862305 73.464844 L 190.734375 74.537109 L 194.355469 74.894531 L 201.603516 75.609375 L 205.227539 75.963867 L 208.848633 76.321289 L 223.344727 77.750977 L 226.96582 78.108398 L 230.589844 78.462891 L 237.837891 79.177734 L 241.458984 79.535156 L 245.083008 79.892578 " transform="matrix(1.333333,0,0,1.333333,0,0)"/>
<path style="fill:none;stroke-width:1.5;stroke-linecap:square;stroke-linejoin:round;stroke:rgb(73.725492%,74.117649%,13.333334%);stroke-opacity:1;stroke-miterlimit:4;" d="M 67.538086 50.572266 L 71.162109 51.629883 L 74.786133 52.69043 L 78.407227 53.748047 L 89.279297 56.920898 L 92.900391 57.981445 L 103.772461 61.154297 L 107.396484 62.214844 L 111.017578 63.272461 L 121.889648 66.445312 L 125.513672 67.505859 L 129.134766 68.563477 L 136.382812 70.678711 L 140.006836 71.739258 L 143.62793 72.796875 L 150.875977 74.912109 L 154.5 75.972656 L 158.124023 77.030273 L 161.745117 78.087891 L 168.993164 80.203125 L 172.617188 81.263672 L 176.238281 82.321289 L 183.486328 84.436523 L 187.110352 85.49707 L 190.734375 86.554688 L 194.355469 87.612305 L 197.979492 88.669922 L 201.603516 89.730469 L 205.227539 90.788086 L 208.848633 91.845703 L 216.09668 93.960938 L 219.720703 95.021484 L 223.344727 96.079102 L 226.96582 97.136719 L 230.589844 98.194336 L 234.213867 99.254883 L 237.837891 100.3125 L 241.458984 101.370117 L 245.083008 102.427734 " transform="matrix(1.333333,0,0,1.333333,0,0)"/>
<path style="fill:none;stroke-width:1.5;stroke-linecap:square;stroke-linejoin:round;stroke:rgb(9.019608%,74.509805%,81.176472%);stroke-opacity:1;stroke-miterlimit:4;" d="M 67.538086 79.12793 L 74.786133 78.360352 L 78.407227 77.973633 L 82.03125 77.589844 L 85.655273 77.203125 L 89.279297 76.819336 L 92.900391 76.432617 L 96.524414 76.048828 L 100.148438 75.662109 L 107.396484 74.894531 L 111.017578 74.507812 L 114.641602 74.124023 L 118.265625 73.737305 L 121.889648 73.353516 L 125.513672 72.966797 L 129.134766 72.583008 L 132.758789 72.196289 L 140.006836 71.428711 L 143.62793 71.041992 L 147.251953 70.658203 L 150.875977 70.271484 L 154.5 69.887695 L 158.124023 69.500977 L 161.745117 69.117188 L 165.369141 68.730469 L 172.617188 67.962891 L 176.238281 67.576172 L 179.862305 67.192383 L 183.486328 66.805664 L 187.110352 66.421875 L 190.734375 66.035156 L 194.355469 65.651367 L 197.979492 65.264648 L 205.227539 64.49707 L 208.848633 64.110352 L 212.472656 63.726562 L 216.09668 63.339844 L 219.720703 62.956055 L 223.344727 62.569336 L 226.96582 62.185547 L 230.589844 61.798828 L 237.837891 61.03125 L 241.458984 60.644531 L 245.083008 60.260742 " transform="matrix(1.333333,0,0,1.333333,0,0)"/>
<path style="fill:none;stroke-width:0.8;stroke-linecap:square;stroke-linejoin:miter;stroke:rgb(0%,0%,0%);stroke-opacity:1;stroke-miterlimit:4;" d="M 58.661133 145.798828 L 58.661133 7.201172 " transform="matrix(1.333333,0,0,1.333333,0,0)"/>
<path style="fill:none;stroke-width:0.8;stroke-linecap:square;stroke-linejoin:miter;stroke:rgb(0%,0%,0%);stroke-opacity:1;stroke-miterlimit:4;" d="M 253.959961 145.798828 L 253.959961 7.201172 " transform="matrix(1.333333,0,0,1.333333,0,0)"/>
<path style="fill:none;stroke-width:0.8;stroke-linecap:square;stroke-linejoin:miter;stroke:rgb(0%,0%,0%);stroke-opacity:1;stroke-miterlimit:4;" d="M 58.661133 145.798828 L 253.959961 145.798828 " transform="matrix(1.333333,0,0,1.333333,0,0)"/>
<path style="fill:none;stroke-width:0.8;stroke-linecap:square;stroke-linejoin:miter;stroke:rgb(0%,0%,0%);stroke-opacity:1;stroke-miterlimit:4;" d="M 58.661133 7.201172 L 253.959961 7.201172 " transform="matrix(1.333333,0,0,1.333333,0,0)"/>
</g>
</svg>
