<?xml version="1.0" encoding="UTF-8"?>
<svg xmlns="http://www.w3.org/2000/svg" xmlns:xlink="http://www.w3.org/1999/xlink" width="298.597961" height="226.237508" viewBox="0 0 298.597961 226.237508" version="1.1">
<defs>
<filter id="alpha" filterUnits="objectBoundingBox" x="0%" y="0%" width="100%" height="100%">
  <feColorMatrix type="matrix" in="SourceGraphic" values="0 0 0 0 1 0 0 0 0 1 0 0 0 0 1 0 0 0 1 0"/>
</filter>
<mask id="mask0">
  <g filter="url(#alpha)">
<rect x="0" y="0" width="298.597961" height="226.237508" style="fill:rgb(0%,0%,0%);fill-opacity:0.8;stroke:none;"/>
  </g>
</mask>
<clipPath id="clip1">
  <rect x="0" y="0" width="299" height="227"/>
</clipPath>
<g id="surface5" clip-path="url(#clip1)">
<path style="fill-rule:nonzero;fill:rgb(100%,100%,100%);fill-opacity:1;stroke-width:1;stroke-linecap:butt;stroke-linejoin:miter;stroke:rgb(80.000001%,80.000001%,80.000001%);stroke-opacity:1;stroke-miterlimit:4;" d="M 114.495117 59.235352 L 208.863281 59.235352 C 210.196289 59.235352 210.861328 58.567383 210.861328 57.234375 L 210.861328 14.200195 C 210.861328 12.867187 210.196289 12.199219 208.863281 12.199219 L 114.495117 12.199219 C 113.15918 12.199219 112.494141 12.867187 112.494141 14.200195 L 112.494141 57.234375 C 112.494141 58.567383 113.15918 59.235352 114.495117 59.235352 Z M 114.495117 59.235352 " transform="matrix(1.333333,0,0,1.333333,0,0.000000000000014211)"/>
</g>
</defs>
<g id="surface1">
<path style=" stroke:none;fill-rule:nonzero;fill:rgb(100%,100%,100%);fill-opacity:1;" d="M 0 226.238281 L 298.597656 226.238281 L 298.597656 0 L 0 0 Z M 0 226.238281 "/>
<path style=" stroke:none;fill-rule:nonzero;fill:rgb(100%,100%,100%);fill-opacity:1;" d="M 27.417969 194.398438 L 287.816406 194.398438 L 287.816406 9.601562 L 27.417969 9.601562 Z M 27.417969 194.398438 "/>
<path style="fill:none;stroke-width:0.8;stroke-linecap:butt;stroke-linejoin:round;stroke:rgb(0%,0%,0%);stroke-opacity:1;stroke-miterlimit:4;" d="M -0.00113106 -0.00117493 L -0.00113106 3.499802 " transform="matrix(1.333333,0,0,1.333333,36.837446,194.400004)"/>
<path style=" stroke:none;fill-rule:nonzero;fill:rgb(0%,0%,0%);fill-opacity:1;" d="M 30.472656 205.011719 C 29.796875 205.011719 29.289062 205.34375 28.945312 206.011719 C 28.605469 206.675781 28.433594 207.675781 28.433594 209.015625 C 28.433594 210.347656 28.605469 211.347656 28.945312 212.011719 C 29.289062 212.679688 29.796875 213.011719 30.472656 213.011719 C 31.15625 213.011719 31.664062 212.679688 32.007812 212.011719 C 32.347656 211.347656 32.519531 210.347656 32.519531 209.015625 C 32.519531 207.675781 32.347656 206.675781 32.007812 206.011719 C 31.664062 205.34375 31.15625 205.011719 30.472656 205.011719 Z M 30.472656 203.96875 C 31.5625 203.96875 32.394531 204.398438 32.972656 205.261719 C 33.546875 206.125 33.832031 207.375 33.832031 209.015625 C 33.832031 210.652344 33.546875 211.898438 32.972656 212.761719 C 32.394531 213.625 31.5625 214.054688 30.472656 214.054688 C 29.382812 214.054688 28.550781 213.625 27.976562 212.761719 C 27.402344 211.898438 27.113281 210.652344 27.113281 209.015625 C 27.113281 207.375 27.402344 206.125 27.976562 205.261719 C 28.550781 204.398438 29.382812 203.96875 30.472656 203.96875 Z M 30.472656 203.96875 "/>
<path style=" stroke:none;fill-rule:nonzero;fill:rgb(0%,0%,0%);fill-opacity:1;" d="M 36.144531 212.210938 L 37.519531 212.210938 L 37.519531 213.863281 L 36.144531 213.863281 Z M 36.144531 212.210938 "/>
<path style=" stroke:none;fill-rule:nonzero;fill:rgb(0%,0%,0%);fill-opacity:1;" d="M 43.195312 205.011719 C 42.519531 205.011719 42.007812 205.34375 41.667969 206.011719 C 41.328125 206.675781 41.15625 207.675781 41.15625 209.015625 C 41.15625 210.347656 41.328125 211.347656 41.667969 212.011719 C 42.007812 212.679688 42.519531 213.011719 43.195312 213.011719 C 43.875 213.011719 44.386719 212.679688 44.726562 212.011719 C 45.070312 211.347656 45.238281 210.347656 45.238281 209.015625 C 45.238281 207.675781 45.070312 206.675781 44.726562 206.011719 C 44.386719 205.34375 43.875 205.011719 43.195312 205.011719 Z M 43.195312 203.96875 C 44.285156 203.96875 45.117188 204.398438 45.691406 205.261719 C 46.265625 206.125 46.554688 207.375 46.554688 209.015625 C 46.554688 210.652344 46.265625 211.898438 45.691406 212.761719 C 45.117188 213.625 44.285156 214.054688 43.195312 214.054688 C 42.105469 214.054688 41.273438 213.625 40.699219 212.761719 C 40.125 211.898438 39.835938 210.652344 39.835938 209.015625 C 39.835938 207.375 40.125 206.125 40.699219 205.261719 C 41.273438 204.398438 42.105469 203.96875 43.195312 203.96875 Z M 43.195312 203.96875 "/>
<path style="fill:none;stroke-width:0.8;stroke-linecap:butt;stroke-linejoin:round;stroke:rgb(0%,0%,0%);stroke-opacity:1;stroke-miterlimit:4;" d="M -0.000522614 -0.00117493 L -0.000522614 3.499802 " transform="matrix(1.333333,0,0,1.333333,85.149134,194.400004)"/>
<path style=" stroke:none;fill-rule:nonzero;fill:rgb(0%,0%,0%);fill-opacity:1;" d="M 78.785156 205.011719 C 78.109375 205.011719 77.597656 205.34375 77.257812 206.011719 C 76.917969 206.675781 76.746094 207.675781 76.746094 209.015625 C 76.746094 210.347656 76.917969 211.347656 77.257812 212.011719 C 77.597656 212.679688 78.109375 213.011719 78.785156 213.011719 C 79.464844 213.011719 79.976562 212.679688 80.316406 212.011719 C 80.660156 211.347656 80.832031 210.347656 80.832031 209.015625 C 80.832031 207.675781 80.660156 206.675781 80.316406 206.011719 C 79.976562 205.34375 79.464844 205.011719 78.785156 205.011719 Z M 78.785156 203.96875 C 79.875 203.96875 80.707031 204.398438 81.28125 205.261719 C 81.859375 206.125 82.144531 207.375 82.144531 209.015625 C 82.144531 210.652344 81.859375 211.898438 81.28125 212.761719 C 80.707031 213.625 79.875 214.054688 78.785156 214.054688 C 77.695312 214.054688 76.863281 213.625 76.289062 212.761719 C 75.714844 211.898438 75.425781 210.652344 75.425781 209.015625 C 75.425781 207.375 75.714844 206.125 76.289062 205.261719 C 76.863281 204.398438 77.695312 203.96875 78.785156 203.96875 Z M 78.785156 203.96875 "/>
<path style=" stroke:none;fill-rule:nonzero;fill:rgb(0%,0%,0%);fill-opacity:1;" d="M 84.457031 212.210938 L 85.832031 212.210938 L 85.832031 213.863281 L 84.457031 213.863281 Z M 84.457031 212.210938 "/>
<path style=" stroke:none;fill-rule:nonzero;fill:rgb(0%,0%,0%);fill-opacity:1;" d="M 89.828125 212.757812 L 94.417969 212.757812 L 94.417969 213.863281 L 88.246094 213.863281 L 88.246094 212.757812 C 88.742188 212.242188 89.425781 211.546875 90.285156 210.679688 C 91.148438 209.808594 91.6875 209.246094 91.910156 208.992188 C 92.332031 208.523438 92.625 208.121094 92.792969 207.792969 C 92.960938 207.464844 93.042969 207.144531 93.042969 206.828125 C 93.042969 206.308594 92.863281 205.890625 92.5 205.566406 C 92.136719 205.238281 91.664062 205.074219 91.082031 205.074219 C 90.671875 205.074219 90.234375 205.148438 89.777344 205.289062 C 89.320312 205.433594 88.832031 205.648438 88.308594 205.941406 L 88.308594 204.613281 C 88.839844 204.398438 89.332031 204.238281 89.792969 204.132812 C 90.253906 204.023438 90.675781 203.96875 91.058594 203.96875 C 92.066406 203.96875 92.867188 204.222656 93.464844 204.726562 C 94.066406 205.226562 94.363281 205.898438 94.363281 206.742188 C 94.363281 207.140625 94.289062 207.519531 94.140625 207.878906 C 93.992188 208.234375 93.71875 208.65625 93.324219 209.144531 C 93.214844 209.269531 92.867188 209.632812 92.289062 210.234375 C 91.707031 210.835938 90.886719 211.679688 89.828125 212.757812 Z M 89.828125 212.757812 "/>
<path style="fill:none;stroke-width:0.8;stroke-linecap:butt;stroke-linejoin:round;stroke:rgb(0%,0%,0%);stroke-opacity:1;stroke-miterlimit:4;" d="M 0.0000839233 -0.00117493 L 0.0000839233 3.499802 " transform="matrix(1.333333,0,0,1.333333,133.460826,194.400004)"/>
<path style=" stroke:none;fill-rule:nonzero;fill:rgb(0%,0%,0%);fill-opacity:1;" d="M 127.097656 205.011719 C 126.417969 205.011719 125.910156 205.34375 125.570312 206.011719 C 125.230469 206.675781 125.058594 207.675781 125.058594 209.015625 C 125.058594 210.347656 125.230469 211.347656 125.570312 212.011719 C 125.910156 212.679688 126.417969 213.011719 127.097656 213.011719 C 127.777344 213.011719 128.289062 212.679688 128.628906 212.011719 C 128.972656 211.347656 129.140625 210.347656 129.140625 209.015625 C 129.140625 207.675781 128.972656 206.675781 128.628906 206.011719 C 128.289062 205.34375 127.777344 205.011719 127.097656 205.011719 Z M 127.097656 203.96875 C 128.1875 203.96875 129.019531 204.398438 129.59375 205.261719 C 130.167969 206.125 130.457031 207.375 130.457031 209.015625 C 130.457031 210.652344 130.167969 211.898438 129.59375 212.761719 C 129.019531 213.625 128.1875 214.054688 127.097656 214.054688 C 126.007812 214.054688 125.175781 213.625 124.601562 212.761719 C 124.027344 211.898438 123.738281 210.652344 123.738281 209.015625 C 123.738281 207.375 124.027344 206.125 124.601562 205.261719 C 125.175781 204.398438 126.007812 203.96875 127.097656 203.96875 Z M 127.097656 203.96875 "/>
<path style=" stroke:none;fill-rule:nonzero;fill:rgb(0%,0%,0%);fill-opacity:1;" d="M 132.765625 212.210938 L 134.140625 212.210938 L 134.140625 213.863281 L 132.765625 213.863281 Z M 132.765625 212.210938 "/>
<path style=" stroke:none;fill-rule:nonzero;fill:rgb(0%,0%,0%);fill-opacity:1;" d="M 140.621094 205.289062 L 137.300781 210.480469 L 140.621094 210.480469 Z M 140.273438 204.144531 L 141.929688 204.144531 L 141.929688 210.480469 L 143.316406 210.480469 L 143.316406 211.574219 L 141.929688 211.574219 L 141.929688 213.863281 L 140.621094 213.863281 L 140.621094 211.574219 L 136.230469 211.574219 L 136.230469 210.304688 Z M 140.273438 204.144531 "/>
<path style="fill:none;stroke-width:0.8;stroke-linecap:butt;stroke-linejoin:round;stroke:rgb(0%,0%,0%);stroke-opacity:1;stroke-miterlimit:4;" d="M 0.000701904 -0.00117493 L 0.000701904 3.499802 " transform="matrix(1.333333,0,0,1.333333,181.772502,194.400004)"/>
<path style=" stroke:none;fill-rule:nonzero;fill:rgb(0%,0%,0%);fill-opacity:1;" d="M 175.40625 205.011719 C 174.730469 205.011719 174.222656 205.34375 173.878906 206.011719 C 173.539062 206.675781 173.371094 207.675781 173.371094 209.015625 C 173.371094 210.347656 173.539062 211.347656 173.878906 212.011719 C 174.222656 212.679688 174.730469 213.011719 175.40625 213.011719 C 176.089844 213.011719 176.601562 212.679688 176.941406 212.011719 C 177.28125 211.347656 177.453125 210.347656 177.453125 209.015625 C 177.453125 207.675781 177.28125 206.675781 176.941406 206.011719 C 176.601562 205.34375 176.089844 205.011719 175.40625 205.011719 Z M 175.40625 203.96875 C 176.5 203.96875 177.332031 204.398438 177.90625 205.261719 C 178.480469 206.125 178.769531 207.375 178.769531 209.015625 C 178.769531 210.652344 178.480469 211.898438 177.90625 212.761719 C 177.332031 213.625 176.5 214.054688 175.40625 214.054688 C 174.320312 214.054688 173.488281 213.625 172.910156 212.761719 C 172.335938 211.898438 172.050781 210.652344 172.050781 209.015625 C 172.050781 207.375 172.335938 206.125 172.910156 205.261719 C 173.488281 204.398438 174.320312 203.96875 175.40625 203.96875 Z M 175.40625 203.96875 "/>
<path style=" stroke:none;fill-rule:nonzero;fill:rgb(0%,0%,0%);fill-opacity:1;" d="M 181.078125 212.210938 L 182.453125 212.210938 L 182.453125 213.863281 L 181.078125 213.863281 Z M 181.078125 212.210938 "/>
<path style=" stroke:none;fill-rule:nonzero;fill:rgb(0%,0%,0%);fill-opacity:1;" d="M 188.292969 208.480469 C 187.703125 208.480469 187.234375 208.683594 186.890625 209.085938 C 186.546875 209.492188 186.371094 210.042969 186.371094 210.746094 C 186.371094 211.445312 186.546875 211.996094 186.890625 212.402344 C 187.234375 212.808594 187.703125 213.011719 188.292969 213.011719 C 188.882812 213.011719 189.351562 212.808594 189.695312 212.402344 C 190.039062 211.996094 190.210938 211.445312 190.210938 210.746094 C 190.210938 210.042969 190.039062 209.492188 189.695312 209.085938 C 189.351562 208.683594 188.882812 208.480469 188.292969 208.480469 Z M 190.902344 204.359375 L 190.902344 205.554688 C 190.574219 205.402344 190.242188 205.28125 189.902344 205.199219 C 189.566406 205.117188 189.234375 205.074219 188.902344 205.074219 C 188.035156 205.074219 187.371094 205.367188 186.914062 205.953125 C 186.457031 206.539062 186.195312 207.425781 186.132812 208.609375 C 186.386719 208.234375 186.707031 207.941406 187.09375 207.742188 C 187.480469 207.539062 187.90625 207.441406 188.371094 207.441406 C 189.347656 207.441406 190.117188 207.734375 190.683594 208.328125 C 191.253906 208.921875 191.535156 209.726562 191.535156 210.746094 C 191.535156 211.746094 191.242188 212.546875 190.648438 213.148438 C 190.058594 213.753906 189.273438 214.054688 188.292969 214.054688 C 187.167969 214.054688 186.308594 213.625 185.714844 212.761719 C 185.121094 211.898438 184.824219 210.652344 184.824219 209.015625 C 184.824219 207.476562 185.1875 206.253906 185.917969 205.339844 C 186.644531 204.425781 187.625 203.96875 188.851562 203.96875 C 189.183594 203.96875 189.515625 204 189.851562 204.066406 C 190.1875 204.132812 190.539062 204.230469 190.902344 204.359375 Z M 190.902344 204.359375 "/>
<path style="fill:none;stroke-width:0.8;stroke-linecap:butt;stroke-linejoin:round;stroke:rgb(0%,0%,0%);stroke-opacity:1;stroke-miterlimit:4;" d="M 0.00131226 -0.00117493 L 0.00131226 3.499802 " transform="matrix(1.333333,0,0,1.333333,230.084188,194.400004)"/>
<path style=" stroke:none;fill-rule:nonzero;fill:rgb(0%,0%,0%);fill-opacity:1;" d="M 223.71875 205.011719 C 223.042969 205.011719 222.535156 205.34375 222.191406 206.011719 C 221.851562 206.675781 221.683594 207.675781 221.683594 209.015625 C 221.683594 210.347656 221.851562 211.347656 222.191406 212.011719 C 222.535156 212.679688 223.042969 213.011719 223.71875 213.011719 C 224.402344 213.011719 224.914062 212.679688 225.253906 212.011719 C 225.59375 211.347656 225.765625 210.347656 225.765625 209.015625 C 225.765625 207.675781 225.59375 206.675781 225.253906 206.011719 C 224.914062 205.34375 224.402344 205.011719 223.71875 205.011719 Z M 223.71875 203.96875 C 224.808594 203.96875 225.640625 204.398438 226.21875 205.261719 C 226.792969 206.125 227.078125 207.375 227.078125 209.015625 C 227.078125 210.652344 226.792969 211.898438 226.21875 212.761719 C 225.640625 213.625 224.808594 214.054688 223.71875 214.054688 C 222.628906 214.054688 221.796875 213.625 221.222656 212.761719 C 220.648438 211.898438 220.359375 210.652344 220.359375 209.015625 C 220.359375 207.375 220.648438 206.125 221.222656 205.261719 C 221.796875 204.398438 222.628906 203.96875 223.71875 203.96875 Z M 223.71875 203.96875 "/>
<path style=" stroke:none;fill-rule:nonzero;fill:rgb(0%,0%,0%);fill-opacity:1;" d="M 229.390625 212.210938 L 230.765625 212.210938 L 230.765625 213.863281 L 229.390625 213.863281 Z M 229.390625 212.210938 "/>
<path style=" stroke:none;fill-rule:nonzero;fill:rgb(0%,0%,0%);fill-opacity:1;" d="M 236.441406 209.246094 C 235.816406 209.246094 235.324219 209.414062 234.964844 209.75 C 234.609375 210.085938 234.429688 210.542969 234.429688 211.128906 C 234.429688 211.714844 234.609375 212.175781 234.964844 212.511719 C 235.324219 212.84375 235.816406 213.011719 236.441406 213.011719 C 237.066406 213.011719 237.558594 212.84375 237.917969 212.507812 C 238.277344 212.171875 238.460938 211.710938 238.460938 211.128906 C 238.460938 210.542969 238.28125 210.085938 237.921875 209.75 C 237.566406 209.414062 237.070312 209.246094 236.441406 209.246094 Z M 235.125 208.691406 C 234.5625 208.550781 234.121094 208.289062 233.808594 207.902344 C 233.492188 207.515625 233.335938 207.042969 233.335938 206.488281 C 233.335938 205.710938 233.613281 205.097656 234.164062 204.644531 C 234.71875 204.195312 235.476562 203.96875 236.441406 203.96875 C 237.410156 203.96875 238.167969 204.195312 238.71875 204.644531 C 239.273438 205.097656 239.546875 205.710938 239.546875 206.488281 C 239.546875 207.042969 239.390625 207.515625 239.074219 207.902344 C 238.761719 208.289062 238.324219 208.550781 237.765625 208.691406 C 238.398438 208.835938 238.890625 209.125 239.242188 209.554688 C 239.597656 209.984375 239.773438 210.507812 239.773438 211.128906 C 239.773438 212.070312 239.488281 212.796875 238.910156 213.300781 C 238.335938 213.804688 237.511719 214.054688 236.441406 214.054688 C 235.371094 214.054688 234.546875 213.804688 233.96875 213.300781 C 233.394531 212.796875 233.109375 212.070312 233.109375 211.128906 C 233.109375 210.507812 233.285156 209.984375 233.640625 209.554688 C 233.996094 209.125 234.492188 208.835938 235.125 208.691406 Z M 234.644531 206.613281 C 234.644531 207.117188 234.800781 207.507812 235.117188 207.789062 C 235.429688 208.070312 235.871094 208.210938 236.441406 208.210938 C 237.007812 208.210938 237.449219 208.070312 237.765625 207.789062 C 238.085938 207.507812 238.246094 207.117188 238.246094 206.613281 C 238.246094 206.109375 238.085938 205.714844 237.765625 205.433594 C 237.449219 205.152344 237.007812 205.011719 236.441406 205.011719 C 235.871094 205.011719 235.429688 205.152344 235.117188 205.433594 C 234.800781 205.714844 234.644531 206.109375 234.644531 206.613281 Z M 234.644531 206.613281 "/>
<path style="fill:none;stroke-width:0.8;stroke-linecap:butt;stroke-linejoin:round;stroke:rgb(0%,0%,0%);stroke-opacity:1;stroke-miterlimit:4;" d="M -0.00102234 -0.00117493 L -0.00102234 3.499802 " transform="matrix(1.333333,0,0,1.333333,278.395894,194.400004)"/>
<path style=" stroke:none;fill-rule:nonzero;fill:rgb(0%,0%,0%);fill-opacity:1;" d="M 269.449219 212.757812 L 271.597656 212.757812 L 271.597656 205.339844 L 269.257812 205.808594 L 269.257812 204.613281 L 271.582031 204.144531 L 272.898438 204.144531 L 272.898438 212.757812 L 275.046875 212.757812 L 275.046875 213.863281 L 269.449219 213.863281 Z M 269.449219 212.757812 "/>
<path style=" stroke:none;fill-rule:nonzero;fill:rgb(0%,0%,0%);fill-opacity:1;" d="M 277.703125 212.210938 L 279.078125 212.210938 L 279.078125 213.863281 L 277.703125 213.863281 Z M 277.703125 212.210938 "/>
<path style=" stroke:none;fill-rule:nonzero;fill:rgb(0%,0%,0%);fill-opacity:1;" d="M 284.753906 205.011719 C 284.078125 205.011719 283.566406 205.34375 283.226562 206.011719 C 282.886719 206.675781 282.714844 207.675781 282.714844 209.015625 C 282.714844 210.347656 282.886719 211.347656 283.226562 212.011719 C 283.566406 212.679688 284.078125 213.011719 284.753906 213.011719 C 285.433594 213.011719 285.945312 212.679688 286.285156 212.011719 C 286.628906 211.347656 286.796875 210.347656 286.796875 209.015625 C 286.796875 207.675781 286.628906 206.675781 286.285156 206.011719 C 285.945312 205.34375 285.433594 205.011719 284.753906 205.011719 Z M 284.753906 203.96875 C 285.84375 203.96875 286.675781 204.398438 287.25 205.261719 C 287.824219 206.125 288.113281 207.375 288.113281 209.015625 C 288.113281 210.652344 287.824219 211.898438 287.25 212.761719 C 286.675781 213.625 285.84375 214.054688 284.753906 214.054688 C 283.664062 214.054688 282.832031 213.625 282.257812 212.761719 C 281.683594 211.898438 281.394531 210.652344 281.394531 209.015625 C 281.394531 207.375 281.683594 206.125 282.257812 205.261719 C 282.832031 204.398438 283.664062 203.96875 284.753906 203.96875 Z M 284.753906 203.96875 "/>
<path style="fill:none;stroke-width:0.8;stroke-linecap:butt;stroke-linejoin:round;stroke:rgb(0%,0%,0%);stroke-opacity:1;stroke-miterlimit:4;" d="M 0.000976562 0 L -3.5 0 " transform="matrix(1.333333,0,0,1.333333,27.416667,186)"/>
<path style=" stroke:none;fill-rule:nonzero;fill:rgb(0%,0%,0%);fill-opacity:1;" d="M 13.835938 182.210938 C 13.160156 182.210938 12.652344 182.542969 12.308594 183.210938 C 11.96875 183.875 11.800781 184.878906 11.800781 186.214844 C 11.800781 187.546875 11.96875 188.546875 12.308594 189.214844 C 12.652344 189.878906 13.160156 190.214844 13.835938 190.214844 C 14.519531 190.214844 15.03125 189.878906 15.371094 189.214844 C 15.710938 188.546875 15.882812 187.546875 15.882812 186.214844 C 15.882812 184.878906 15.710938 183.875 15.371094 183.210938 C 15.03125 182.542969 14.519531 182.210938 13.835938 182.210938 Z M 13.835938 181.167969 C 14.929688 181.167969 15.761719 181.601562 16.335938 182.464844 C 16.910156 183.324219 17.199219 184.574219 17.199219 186.214844 C 17.199219 187.851562 16.910156 189.101562 16.335938 189.964844 C 15.761719 190.824219 14.929688 191.253906 13.835938 191.253906 C 12.75 191.253906 11.917969 190.824219 11.339844 189.964844 C 10.765625 189.101562 10.480469 187.851562 10.480469 186.214844 C 10.480469 184.574219 10.765625 183.324219 11.339844 182.464844 C 11.917969 181.601562 12.75 181.167969 13.835938 181.167969 Z M 13.835938 181.167969 "/>
<path style="fill:none;stroke-width:0.8;stroke-linecap:butt;stroke-linejoin:round;stroke:rgb(0%,0%,0%);stroke-opacity:1;stroke-miterlimit:4;" d="M 0.000976562 0.000198364 L -3.5 0.000198364 " transform="matrix(1.333333,0,0,1.333333,27.416667,149.519267)"/>
<path style=" stroke:none;fill-rule:nonzero;fill:rgb(0%,0%,0%);fill-opacity:1;" d="M 11.253906 153.480469 L 13.402344 153.480469 L 13.402344 146.0625 L 11.066406 146.53125 L 11.066406 145.332031 L 13.390625 144.863281 L 14.703125 144.863281 L 14.703125 153.480469 L 16.851562 153.480469 L 16.851562 154.585938 L 11.253906 154.585938 Z M 11.253906 153.480469 "/>
<path style="fill:none;stroke-width:0.8;stroke-linecap:butt;stroke-linejoin:round;stroke:rgb(0%,0%,0%);stroke-opacity:1;stroke-miterlimit:4;" d="M 0.000976562 0.000404358 L -3.5 0.000404358 " transform="matrix(1.333333,0,0,1.333333,27.416667,113.038523)"/>
<path style=" stroke:none;fill-rule:nonzero;fill:rgb(0%,0%,0%);fill-opacity:1;" d="M 12.160156 116.996094 L 16.746094 116.996094 L 16.746094 118.105469 L 10.578125 118.105469 L 10.578125 116.996094 C 11.074219 116.480469 11.753906 115.789062 12.617188 114.917969 C 13.480469 114.046875 14.019531 113.484375 14.242188 113.234375 C 14.664062 112.761719 14.957031 112.359375 15.121094 112.035156 C 15.289062 111.707031 15.375 111.382812 15.375 111.066406 C 15.375 110.550781 15.195312 110.128906 14.832031 109.804688 C 14.46875 109.476562 13.996094 109.316406 13.414062 109.316406 C 13.003906 109.316406 12.566406 109.386719 12.109375 109.527344 C 11.652344 109.671875 11.164062 109.890625 10.640625 110.179688 L 10.640625 108.851562 C 11.171875 108.640625 11.664062 108.480469 12.125 108.371094 C 12.585938 108.261719 13.007812 108.207031 13.390625 108.207031 C 14.398438 108.207031 15.199219 108.460938 15.796875 108.964844 C 16.398438 109.46875 16.695312 110.140625 16.695312 110.980469 C 16.695312 111.382812 16.621094 111.761719 16.472656 112.117188 C 16.320312 112.476562 16.050781 112.898438 15.652344 113.382812 C 15.546875 113.507812 15.199219 113.875 14.617188 114.476562 C 14.039062 115.078125 13.21875 115.917969 12.160156 116.996094 Z M 12.160156 116.996094 "/>
<path style="fill:none;stroke-width:0.8;stroke-linecap:butt;stroke-linejoin:round;stroke:rgb(0%,0%,0%);stroke-opacity:1;stroke-miterlimit:4;" d="M 0.000976562 0.000602722 L -3.5 0.000602722 " transform="matrix(1.333333,0,0,1.333333,27.416667,76.55779)"/>
<path style=" stroke:none;fill-rule:nonzero;fill:rgb(0%,0%,0%);fill-opacity:1;" d="M 15.011719 76.382812 C 15.640625 76.515625 16.128906 76.796875 16.484375 77.222656 C 16.835938 77.648438 17.015625 78.171875 17.015625 78.796875 C 17.015625 79.757812 16.683594 80.5 16.023438 81.027344 C 15.367188 81.550781 14.429688 81.8125 13.210938 81.8125 C 12.804688 81.8125 12.386719 81.773438 11.953125 81.691406 C 11.523438 81.613281 11.078125 81.492188 10.617188 81.328125 L 10.617188 80.0625 C 10.980469 80.273438 11.378906 80.433594 11.8125 80.542969 C 12.246094 80.652344 12.703125 80.703125 13.175781 80.703125 C 14 80.703125 14.625 80.542969 15.058594 80.21875 C 15.492188 79.890625 15.707031 79.417969 15.707031 78.796875 C 15.707031 78.226562 15.503906 77.777344 15.105469 77.453125 C 14.703125 77.132812 14.144531 76.96875 13.429688 76.96875 L 12.296875 76.96875 L 12.296875 75.886719 L 13.480469 75.886719 C 14.128906 75.886719 14.621094 75.757812 14.964844 75.5 C 15.308594 75.242188 15.480469 74.871094 15.480469 74.382812 C 15.480469 73.886719 15.300781 73.503906 14.949219 73.234375 C 14.59375 72.96875 14.089844 72.832031 13.429688 72.832031 C 13.066406 72.832031 12.679688 72.875 12.269531 72.953125 C 11.855469 73.03125 11.402344 73.152344 10.910156 73.316406 L 10.910156 72.144531 C 11.410156 72.003906 11.875 71.902344 12.3125 71.832031 C 12.75 71.761719 13.160156 71.726562 13.546875 71.726562 C 14.542969 71.726562 15.335938 71.953125 15.914062 72.410156 C 16.496094 72.863281 16.789062 73.472656 16.789062 74.246094 C 16.789062 74.785156 16.632812 75.238281 16.324219 75.609375 C 16.015625 75.980469 15.578125 76.238281 15.011719 76.382812 Z M 15.011719 76.382812 "/>
<path style="fill:none;stroke-width:0.8;stroke-linecap:butt;stroke-linejoin:round;stroke:rgb(0%,0%,0%);stroke-opacity:1;stroke-miterlimit:4;" d="M 0.000976562 0.000801086 L -3.5 0.000801086 " transform="matrix(1.333333,0,0,1.333333,27.416667,40.077057)"/>
<path style=" stroke:none;fill-rule:nonzero;fill:rgb(0%,0%,0%);fill-opacity:1;" d="M 14.640625 36.566406 L 11.320312 41.757812 L 14.640625 41.757812 Z M 14.292969 35.421875 L 15.949219 35.421875 L 15.949219 41.757812 L 17.335938 41.757812 L 17.335938 42.851562 L 15.949219 42.851562 L 15.949219 45.144531 L 14.640625 45.144531 L 14.640625 42.851562 L 10.253906 42.851562 L 10.253906 41.582031 Z M 14.292969 35.421875 "/>
<path style="fill:none;stroke-width:1.5;stroke-linecap:square;stroke-linejoin:round;stroke:rgb(12.156863%,46.666667%,70.588237%);stroke-opacity:1;stroke-miterlimit:4;" d="M 29.44043 13.5 L 31.250977 32.463867 L 33.064453 43.558594 L 34.875 51.430664 L 36.685547 57.536133 L 38.499023 62.522461 L 40.30957 66.741211 L 42.123047 70.394531 L 43.933594 73.617187 L 45.744141 76.5 L 47.557617 79.107422 L 49.368164 81.489258 L 51.178711 83.677734 L 52.992188 85.705078 L 54.802734 87.594727 L 56.616211 89.358398 L 58.426758 91.019531 L 60.237305 92.581055 L 62.050781 94.060547 L 63.861328 95.463867 L 65.674805 96.799805 L 67.485352 98.071289 L 69.295898 99.290039 L 71.109375 100.453125 L 72.919922 101.569336 L 74.733398 102.644531 L 76.543945 103.675781 L 78.354492 104.671875 L 80.167969 105.629883 L 81.978516 106.558594 L 83.789062 107.455078 L 85.602539 108.325195 L 87.413086 109.166016 L 89.226562 109.983398 L 91.037109 110.777344 L 92.847656 111.547852 L 94.661133 112.297852 L 96.47168 113.027344 L 98.285156 113.736328 L 100.095703 114.430664 L 101.90625 115.104492 L 103.719727 115.763672 L 105.530273 116.408203 L 107.34375 117.038086 L 109.154297 117.65332 L 110.964844 118.253906 L 112.77832 118.842773 L 114.588867 119.416992 L 116.399414 119.982422 L 118.212891 120.536133 L 120.023438 121.078125 L 121.836914 121.608398 L 123.647461 122.129883 L 125.458008 122.639648 L 127.271484 123.143555 L 129.082031 123.635742 L 130.895508 124.119141 L 132.706055 124.59668 L 134.516602 125.0625 L 136.330078 125.522461 L 138.140625 125.976562 L 139.954102 126.421875 L 141.764648 126.858398 L 143.575195 127.289062 L 145.388672 127.713867 L 147.199219 128.129883 L 149.009766 128.542969 L 150.823242 128.947266 L 152.633789 129.348633 L 154.447266 129.741211 L 156.257812 130.12793 L 158.068359 130.511719 L 159.881836 130.889648 L 161.692383 131.261719 L 163.505859 131.62793 L 165.316406 131.991211 L 167.126953 132.348633 L 168.94043 132.703125 L 170.750977 133.051758 L 172.564453 133.394531 L 174.375 133.734375 L 176.185547 134.071289 L 177.999023 134.402344 L 179.80957 134.730469 L 181.623047 135.052734 L 183.433594 135.37207 L 185.244141 135.688477 L 187.057617 136.001953 L 188.868164 136.3125 L 190.678711 136.617188 L 192.492188 136.918945 L 194.302734 137.217773 L 196.116211 137.513672 L 197.926758 137.806641 L 199.737305 138.09668 L 201.550781 138.383789 L 203.361328 138.667969 L 205.174805 138.946289 L 206.985352 139.224609 " transform="matrix(1.333333,0,0,1.333333,0,0.000000000000014211)"/>
<path style="fill:none;stroke-width:1.5;stroke-linecap:butt;stroke-linejoin:round;stroke:rgb(100%,49.803922%,5.490196%);stroke-opacity:1;stroke-dasharray:5.55,2.4;stroke-miterlimit:4;" d="M 29.44043 14.759766 L 31.250977 34.605469 L 33.064453 46.435547 L 34.875 54.952148 L 36.685547 61.634766 L 38.499023 67.142578 L 40.30957 71.833008 L 42.123047 75.922852 L 43.933594 79.546875 L 45.744141 82.798828 L 47.557617 85.751953 L 49.368164 88.450195 L 51.178711 90.93457 L 52.992188 93.237305 L 54.802734 95.378906 L 56.616211 97.382812 L 58.426758 99.260742 L 60.237305 101.027344 L 62.050781 102.694336 L 63.861328 104.270508 L 65.674805 105.767578 L 67.485352 107.185547 L 69.295898 108.536133 L 71.109375 109.825195 L 72.919922 111.052734 L 74.733398 112.224609 L 76.543945 113.349609 L 78.354492 114.421875 L 80.167969 115.453125 L 81.978516 116.44043 L 83.789062 117.389648 L 85.602539 118.300781 L 87.413086 119.176758 L 89.226562 120.017578 L 91.037109 120.829102 L 92.847656 121.611328 L 94.661133 122.361328 L 96.47168 123.084961 L 98.285156 123.785156 L 100.095703 124.458984 L 101.90625 125.106445 L 103.719727 125.733398 L 105.530273 126.336914 L 107.34375 126.919922 L 109.154297 127.482422 L 110.964844 128.027344 L 112.77832 128.551758 L 114.588867 129.058594 L 116.399414 129.544922 L 118.212891 130.016602 L 120.023438 130.473633 L 121.836914 130.913086 L 123.647461 131.334961 L 125.458008 131.745117 L 127.271484 132.140625 L 129.082031 132.518555 L 130.895508 132.887695 L 132.706055 133.239258 L 134.516602 133.582031 L 136.330078 133.910156 L 138.140625 134.226562 L 139.954102 134.53125 L 141.764648 134.821289 L 143.575195 135.105469 L 145.388672 135.375 L 147.199219 135.635742 L 149.009766 135.884766 L 150.823242 136.12207 L 152.633789 136.353516 L 154.447266 136.573242 L 156.257812 136.78125 L 158.068359 136.983398 L 159.881836 137.173828 L 161.692383 137.358398 L 163.505859 137.53125 L 165.316406 137.698242 L 167.126953 137.856445 L 168.94043 138.005859 L 170.750977 138.146484 L 172.564453 138.27832 L 174.375 138.404297 L 176.185547 138.521484 L 177.999023 138.632812 L 179.80957 138.735352 L 181.623047 138.832031 L 183.433594 138.922852 L 185.244141 139.004883 L 187.057617 139.081055 L 188.868164 139.148438 L 190.678711 139.212891 L 192.492188 139.268555 L 194.302734 139.318359 L 196.116211 139.362305 L 197.926758 139.397461 L 199.737305 139.429688 L 201.550781 139.456055 L 203.361328 139.473633 L 205.174805 139.488281 L 206.985352 139.49707 " transform="matrix(1.333333,0,0,1.333333,0,0.000000000000014211)"/>
<path style="fill:none;stroke-width:1.5;stroke-linecap:butt;stroke-linejoin:round;stroke:rgb(17.254902%,62.7451%,17.254902%);stroke-opacity:1;stroke-dasharray:9.6,2.4,1.5,2.4;stroke-miterlimit:4;" d="M 29.44043 19.675781 L 31.250977 42.75 L 33.064453 57.111328 L 34.875 67.69043 L 36.685547 76.078125 L 38.499023 83.006836 L 40.30957 88.883789 L 42.123047 93.955078 L 43.933594 98.387695 L 45.744141 102.298828 L 47.557617 105.776367 L 49.368164 108.884766 L 51.178711 111.676758 L 52.992188 114.193359 L 54.802734 116.469727 L 56.616211 118.529297 L 58.426758 120.404297 L 60.237305 122.106445 L 62.050781 123.65625 L 63.861328 125.071289 L 65.674805 126.360352 L 67.485352 127.538086 L 69.295898 128.616211 L 71.109375 129.600586 L 72.919922 130.5 L 74.733398 131.320312 L 76.543945 132.073242 L 78.354492 132.761719 L 80.167969 133.388672 L 81.978516 133.962891 L 83.789062 134.487305 L 85.602539 134.967773 L 87.413086 135.404297 L 89.226562 135.802734 L 91.037109 136.166016 L 92.847656 136.5 L 94.661133 136.798828 L 96.47168 137.074219 L 98.285156 137.323242 L 100.095703 137.551758 L 101.90625 137.756836 L 103.719727 137.941406 L 105.530273 138.111328 L 107.34375 138.263672 L 109.154297 138.401367 L 110.964844 138.524414 L 112.77832 138.635742 L 114.588867 138.735352 L 116.399414 138.826172 L 118.212891 138.908203 L 120.023438 138.978516 L 121.836914 139.042969 L 123.647461 139.101562 L 125.458008 139.151367 L 127.271484 139.198242 L 129.082031 139.239258 L 130.895508 139.274414 L 132.706055 139.306641 L 134.516602 139.333008 L 136.330078 139.356445 L 138.140625 139.376953 L 139.954102 139.397461 L 143.575195 139.426758 L 145.388672 139.438477 L 149.009766 139.456055 L 150.823242 139.464844 L 152.633789 139.470703 L 154.447266 139.476562 L 156.257812 139.479492 L 158.068359 139.485352 L 159.881836 139.488281 L 161.692383 139.491211 L 163.505859 139.491211 L 165.316406 139.494141 L 167.126953 139.494141 L 168.94043 139.49707 L 172.564453 139.49707 L 174.375 139.5 L 206.985352 139.5 " transform="matrix(1.333333,0,0,1.333333,0,0.000000000000014211)"/>
<path style="fill:none;stroke-width:0.8;stroke-linecap:square;stroke-linejoin:miter;stroke:rgb(0%,0%,0%);stroke-opacity:1;stroke-miterlimit:4;" d="M 20.563477 145.798828 L 20.563477 7.201172 " transform="matrix(1.333333,0,0,1.333333,0,0.000000000000014211)"/>
<path style="fill:none;stroke-width:0.8;stroke-linecap:square;stroke-linejoin:miter;stroke:rgb(0%,0%,0%);stroke-opacity:1;stroke-miterlimit:4;" d="M 215.862305 145.798828 L 215.862305 7.201172 " transform="matrix(1.333333,0,0,1.333333,0,0.000000000000014211)"/>
<path style="fill:none;stroke-width:0.8;stroke-linecap:square;stroke-linejoin:miter;stroke:rgb(0%,0%,0%);stroke-opacity:1;stroke-miterlimit:4;" d="M 20.563477 145.798828 L 215.862305 145.798828 " transform="matrix(1.333333,0,0,1.333333,0,0.000000000000014211)"/>
<path style="fill:none;stroke-width:0.8;stroke-linecap:square;stroke-linejoin:miter;stroke:rgb(0%,0%,0%);stroke-opacity:1;stroke-miterlimit:4;" d="M 20.563477 7.201172 L 215.862305 7.201172 " transform="matrix(1.333333,0,0,1.333333,0,0.000000000000014211)"/>
<use xlink:href="#surface5" mask="url(#mask0)"/>
<path style="fill:none;stroke-width:1.5;stroke-linecap:square;stroke-linejoin:round;stroke:rgb(12.156863%,46.666667%,70.588237%);stroke-opacity:1;stroke-miterlimit:4;" d="M 116.493164 20.299805 L 136.494141 20.299805 " transform="matrix(1.333333,0,0,1.333333,0,0.000000000000014211)"/>
<path style=" stroke:none;fill-rule:nonzero;fill:rgb(0%,0%,0%);fill-opacity:1;" d="M 198.710938 28 C 198.710938 27.132812 198.535156 26.460938 198.175781 25.984375 C 197.816406 25.503906 197.316406 25.265625 196.667969 25.265625 C 196.027344 25.265625 195.527344 25.503906 195.167969 25.984375 C 194.808594 26.460938 194.632812 27.132812 194.632812 28 C 194.632812 28.863281 194.808594 29.535156 195.167969 30.011719 C 195.527344 30.492188 196.027344 30.730469 196.667969 30.730469 C 197.316406 30.730469 197.816406 30.492188 198.175781 30.011719 C 198.535156 29.535156 198.710938 28.863281 198.710938 28 Z M 199.910156 30.828125 C 199.910156 32.066406 199.632812 32.992188 199.082031 33.597656 C 198.535156 34.203125 197.691406 34.503906 196.550781 34.503906 C 196.132812 34.503906 195.734375 34.472656 195.359375 34.410156 C 194.988281 34.347656 194.625 34.25 194.273438 34.121094 L 194.273438 32.957031 C 194.625 33.148438 194.972656 33.285156 195.316406 33.378906 C 195.65625 33.46875 196.007812 33.515625 196.363281 33.515625 C 197.148438 33.515625 197.738281 33.308594 198.128906 32.898438 C 198.515625 32.492188 198.710938 31.871094 198.710938 31.042969 L 198.710938 30.449219 C 198.464844 30.878906 198.148438 31.199219 197.761719 31.414062 C 197.375 31.625 196.914062 31.730469 196.375 31.730469 C 195.480469 31.730469 194.761719 31.390625 194.214844 30.710938 C 193.667969 30.027344 193.394531 29.125 193.394531 28 C 193.394531 26.871094 193.667969 25.96875 194.214844 25.289062 C 194.761719 24.605469 195.480469 24.265625 196.375 24.265625 C 196.914062 24.265625 197.375 24.371094 197.761719 24.582031 C 198.148438 24.796875 198.464844 25.117188 198.710938 25.546875 L 198.710938 24.441406 L 199.910156 24.441406 Z M 199.910156 30.828125 "/>
<path style=" stroke:none;fill-rule:nonzero;fill:rgb(0%,0%,0%);fill-opacity:1;" d="M 205.691406 28.066406 C 204.726562 28.066406 204.054688 28.175781 203.679688 28.398438 C 203.304688 28.617188 203.121094 28.996094 203.121094 29.53125 C 203.121094 29.957031 203.261719 30.292969 203.539062 30.542969 C 203.820312 30.792969 204.203125 30.917969 204.683594 30.917969 C 205.347656 30.917969 205.882812 30.679688 206.28125 30.210938 C 206.683594 29.738281 206.882812 29.113281 206.882812 28.332031 L 206.882812 28.066406 Z M 208.082031 27.570312 L 208.082031 31.730469 L 206.882812 31.730469 L 206.882812 30.625 C 206.609375 31.066406 206.269531 31.394531 205.863281 31.605469 C 205.453125 31.816406 204.953125 31.921875 204.363281 31.921875 C 203.617188 31.921875 203.023438 31.710938 202.582031 31.292969 C 202.140625 30.871094 201.921875 30.3125 201.921875 29.609375 C 201.921875 28.789062 202.195312 28.171875 202.746094 27.753906 C 203.292969 27.335938 204.113281 27.128906 205.203125 27.128906 L 206.882812 27.128906 L 206.882812 27.011719 C 206.882812 26.460938 206.703125 26.03125 206.339844 25.730469 C 205.976562 25.429688 205.46875 25.277344 204.8125 25.277344 C 204.398438 25.277344 203.992188 25.328125 203.59375 25.429688 C 203.199219 25.527344 202.820312 25.679688 202.457031 25.878906 L 202.457031 24.769531 C 202.894531 24.601562 203.320312 24.476562 203.730469 24.390625 C 204.144531 24.308594 204.546875 24.265625 204.9375 24.265625 C 205.992188 24.265625 206.78125 24.539062 207.300781 25.085938 C 207.820312 25.632812 208.082031 26.460938 208.082031 27.570312 Z M 208.082031 27.570312 "/>
<path style=" stroke:none;fill-rule:nonzero;fill:rgb(0%,0%,0%);fill-opacity:1;" d="M 216.226562 25.839844 C 216.527344 25.300781 216.882812 24.902344 217.300781 24.648438 C 217.71875 24.390625 218.207031 24.265625 218.773438 24.265625 C 219.53125 24.265625 220.117188 24.53125 220.53125 25.0625 C 220.941406 25.59375 221.148438 26.347656 221.148438 27.328125 L 221.148438 31.730469 L 219.945312 31.730469 L 219.945312 27.367188 C 219.945312 26.671875 219.820312 26.152344 219.570312 25.816406 C 219.324219 25.476562 218.949219 25.304688 218.441406 25.304688 C 217.820312 25.304688 217.328125 25.511719 216.96875 25.925781 C 216.609375 26.335938 216.429688 26.898438 216.429688 27.609375 L 216.429688 31.730469 L 215.222656 31.730469 L 215.222656 27.367188 C 215.222656 26.664062 215.101562 26.148438 214.851562 25.808594 C 214.605469 25.472656 214.222656 25.304688 213.707031 25.304688 C 213.09375 25.304688 212.609375 25.511719 212.246094 25.925781 C 211.886719 26.339844 211.707031 26.902344 211.707031 27.609375 L 211.707031 31.730469 L 210.503906 31.730469 L 210.503906 24.441406 L 211.707031 24.441406 L 211.707031 25.574219 C 211.980469 25.125 212.308594 24.796875 212.691406 24.582031 C 213.074219 24.371094 213.527344 24.265625 214.050781 24.265625 C 214.582031 24.265625 215.03125 24.398438 215.402344 24.667969 C 215.773438 24.9375 216.046875 25.328125 216.226562 25.839844 Z M 216.226562 25.839844 "/>
<path style=" stroke:none;fill-rule:nonzero;fill:rgb(0%,0%,0%);fill-opacity:1;" d="M 229.214844 25.839844 C 229.515625 25.300781 229.871094 24.902344 230.289062 24.648438 C 230.707031 24.390625 231.195312 24.265625 231.761719 24.265625 C 232.519531 24.265625 233.105469 24.53125 233.519531 25.0625 C 233.929688 25.59375 234.136719 26.347656 234.136719 27.328125 L 234.136719 31.730469 L 232.933594 31.730469 L 232.933594 27.367188 C 232.933594 26.671875 232.808594 26.152344 232.558594 25.816406 C 232.3125 25.476562 231.9375 25.304688 231.429688 25.304688 C 230.808594 25.304688 230.316406 25.511719 229.957031 25.925781 C 229.597656 26.335938 229.417969 26.898438 229.417969 27.609375 L 229.417969 31.730469 L 228.210938 31.730469 L 228.210938 27.367188 C 228.210938 26.664062 228.089844 26.148438 227.839844 25.808594 C 227.59375 25.472656 227.210938 25.304688 226.695312 25.304688 C 226.082031 25.304688 225.597656 25.511719 225.234375 25.925781 C 224.875 26.339844 224.695312 26.902344 224.695312 27.609375 L 224.695312 31.730469 L 223.492188 31.730469 L 223.492188 24.441406 L 224.695312 24.441406 L 224.695312 25.574219 C 224.96875 25.125 225.296875 24.796875 225.679688 24.582031 C 226.0625 24.371094 226.515625 24.265625 227.039062 24.265625 C 227.570312 24.265625 228.019531 24.398438 228.390625 24.667969 C 228.761719 24.9375 229.035156 25.328125 229.214844 25.839844 Z M 229.214844 25.839844 "/>
<path style=" stroke:none;fill-rule:nonzero;fill:rgb(0%,0%,0%);fill-opacity:1;" d="M 239.839844 28.066406 C 238.871094 28.066406 238.199219 28.175781 237.828125 28.398438 C 237.453125 28.617188 237.265625 28.996094 237.265625 29.53125 C 237.265625 29.957031 237.40625 30.292969 237.6875 30.542969 C 237.96875 30.792969 238.347656 30.917969 238.828125 30.917969 C 239.496094 30.917969 240.027344 30.679688 240.429688 30.210938 C 240.832031 29.738281 241.03125 29.113281 241.03125 28.332031 L 241.03125 28.066406 Z M 242.230469 27.570312 L 242.230469 31.730469 L 241.03125 31.730469 L 241.03125 30.625 C 240.757812 31.066406 240.417969 31.394531 240.007812 31.605469 C 239.601562 31.816406 239.101562 31.921875 238.511719 31.921875 C 237.765625 31.921875 237.171875 31.710938 236.730469 31.292969 C 236.289062 30.871094 236.070312 30.3125 236.070312 29.609375 C 236.070312 28.789062 236.34375 28.171875 236.890625 27.753906 C 237.441406 27.335938 238.261719 27.128906 239.351562 27.128906 L 241.03125 27.128906 L 241.03125 27.011719 C 241.03125 26.460938 240.851562 26.03125 240.488281 25.730469 C 240.125 25.429688 239.617188 25.277344 238.960938 25.277344 C 238.542969 25.277344 238.136719 25.328125 237.742188 25.429688 C 237.347656 25.527344 236.96875 25.679688 236.605469 25.878906 L 236.605469 24.769531 C 237.042969 24.601562 237.46875 24.476562 237.878906 24.390625 C 238.292969 24.308594 238.691406 24.265625 239.082031 24.265625 C 240.140625 24.265625 240.925781 24.539062 241.449219 25.085938 C 241.96875 25.632812 242.230469 26.460938 242.230469 27.570312 Z M 242.230469 27.570312 "/>
<path style=" stroke:none;fill-rule:nonzero;fill:rgb(0%,0%,0%);fill-opacity:1;" d="M 244.851562 25.675781 L 253.199219 25.675781 L 253.199219 26.769531 L 244.851562 26.769531 Z M 244.851562 28.332031 L 253.199219 28.332031 L 253.199219 29.441406 L 244.851562 29.441406 Z M 244.851562 28.332031 "/>
<path style=" stroke:none;fill-rule:nonzero;fill:rgb(0%,0%,0%);fill-opacity:1;" d="M 258.847656 22.878906 C 258.171875 22.878906 257.664062 23.210938 257.320312 23.878906 C 256.980469 24.542969 256.8125 25.542969 256.8125 26.882812 C 256.8125 28.214844 256.980469 29.210938 257.320312 29.878906 C 257.664062 30.546875 258.171875 30.878906 258.847656 30.878906 C 259.53125 30.878906 260.042969 30.546875 260.382812 29.878906 C 260.722656 29.210938 260.894531 28.214844 260.894531 26.882812 C 260.894531 25.542969 260.722656 24.542969 260.382812 23.878906 C 260.042969 23.210938 259.53125 22.878906 258.847656 22.878906 Z M 258.847656 21.835938 C 259.9375 21.835938 260.773438 22.265625 261.347656 23.128906 C 261.921875 23.992188 262.210938 25.242188 262.210938 26.882812 C 262.210938 28.515625 261.921875 29.765625 261.347656 30.628906 C 260.773438 31.492188 259.9375 31.921875 258.847656 31.921875 C 257.761719 31.921875 256.929688 31.492188 256.351562 30.628906 C 255.777344 29.765625 255.492188 28.515625 255.492188 26.882812 C 255.492188 25.242188 255.777344 23.992188 256.351562 23.128906 C 256.929688 22.265625 257.761719 21.835938 258.847656 21.835938 Z M 258.847656 21.835938 "/>
<path style=" stroke:none;fill-rule:nonzero;fill:rgb(0%,0%,0%);fill-opacity:1;" d="M 264.519531 30.078125 L 265.894531 30.078125 L 265.894531 31.730469 L 264.519531 31.730469 Z M 264.519531 30.078125 "/>
<path style=" stroke:none;fill-rule:nonzero;fill:rgb(0%,0%,0%);fill-opacity:1;" d="M 271.570312 22.878906 C 270.894531 22.878906 270.386719 23.210938 270.042969 23.878906 C 269.703125 24.542969 269.53125 25.542969 269.53125 26.882812 C 269.53125 28.214844 269.703125 29.210938 270.042969 29.878906 C 270.386719 30.546875 270.894531 30.878906 271.570312 30.878906 C 272.253906 30.878906 272.761719 30.546875 273.105469 29.878906 C 273.445312 29.210938 273.617188 28.214844 273.617188 26.882812 C 273.617188 25.542969 273.445312 24.542969 273.105469 23.878906 C 272.761719 23.210938 272.253906 22.878906 271.570312 22.878906 Z M 271.570312 21.835938 C 272.660156 21.835938 273.492188 22.265625 274.066406 23.128906 C 274.644531 23.992188 274.929688 25.242188 274.929688 26.882812 C 274.929688 28.515625 274.644531 29.765625 274.066406 30.628906 C 273.492188 31.492188 272.660156 31.921875 271.570312 31.921875 C 270.480469 31.921875 269.648438 31.492188 269.074219 30.628906 C 268.5 29.765625 268.210938 28.515625 268.210938 26.882812 C 268.210938 25.242188 268.5 23.992188 269.074219 23.128906 C 269.648438 22.265625 270.480469 21.835938 271.570312 21.835938 Z M 271.570312 21.835938 "/>
<path style="fill:none;stroke-width:1.5;stroke-linecap:butt;stroke-linejoin:round;stroke:rgb(100%,49.803922%,5.490196%);stroke-opacity:1;stroke-dasharray:5.55,2.4;stroke-miterlimit:4;" d="M 116.493164 34.977539 L 136.494141 34.977539 " transform="matrix(1.333333,0,0,1.333333,0,0.000000000000014211)"/>
<path style=" stroke:none;fill-rule:nonzero;fill:rgb(0%,0%,0%);fill-opacity:1;" d="M 198.710938 47.570312 C 198.710938 46.703125 198.535156 46.03125 198.175781 45.554688 C 197.816406 45.078125 197.316406 44.835938 196.667969 44.835938 C 196.027344 44.835938 195.527344 45.078125 195.167969 45.554688 C 194.808594 46.03125 194.632812 46.703125 194.632812 47.570312 C 194.632812 48.433594 194.808594 49.105469 195.167969 49.582031 C 195.527344 50.0625 196.027344 50.300781 196.667969 50.300781 C 197.316406 50.300781 197.816406 50.0625 198.175781 49.582031 C 198.535156 49.105469 198.710938 48.433594 198.710938 47.570312 Z M 199.910156 50.398438 C 199.910156 51.636719 199.632812 52.5625 199.082031 53.167969 C 198.535156 53.773438 197.691406 54.074219 196.550781 54.074219 C 196.132812 54.074219 195.734375 54.042969 195.359375 53.980469 C 194.988281 53.917969 194.625 53.820312 194.273438 53.691406 L 194.273438 52.527344 C 194.625 52.71875 194.972656 52.859375 195.316406 52.949219 C 195.65625 53.039062 196.007812 53.085938 196.363281 53.085938 C 197.148438 53.085938 197.738281 52.878906 198.128906 52.472656 C 198.515625 52.0625 198.710938 51.441406 198.710938 50.613281 L 198.710938 50.019531 C 198.464844 50.449219 198.148438 50.769531 197.761719 50.984375 C 197.375 51.195312 196.914062 51.300781 196.375 51.300781 C 195.480469 51.300781 194.761719 50.960938 194.214844 50.28125 C 193.667969 49.597656 193.394531 48.695312 193.394531 47.570312 C 193.394531 46.441406 193.667969 45.539062 194.214844 44.859375 C 194.761719 44.175781 195.480469 43.835938 196.375 43.835938 C 196.914062 43.835938 197.375 43.941406 197.761719 44.152344 C 198.148438 44.367188 198.464844 44.6875 198.710938 45.117188 L 198.710938 44.011719 L 199.910156 44.011719 Z M 199.910156 50.398438 "/>
<path style=" stroke:none;fill-rule:nonzero;fill:rgb(0%,0%,0%);fill-opacity:1;" d="M 205.691406 47.636719 C 204.726562 47.636719 204.054688 47.746094 203.679688 47.96875 C 203.304688 48.191406 203.121094 48.566406 203.121094 49.101562 C 203.121094 49.527344 203.261719 49.863281 203.539062 50.113281 C 203.820312 50.363281 204.203125 50.488281 204.683594 50.488281 C 205.347656 50.488281 205.882812 50.253906 206.28125 49.78125 C 206.683594 49.308594 206.882812 48.683594 206.882812 47.902344 L 206.882812 47.636719 Z M 208.082031 47.140625 L 208.082031 51.300781 L 206.882812 51.300781 L 206.882812 50.195312 C 206.609375 50.636719 206.269531 50.964844 205.863281 51.175781 C 205.453125 51.386719 204.953125 51.492188 204.363281 51.492188 C 203.617188 51.492188 203.023438 51.28125 202.582031 50.863281 C 202.140625 50.441406 201.921875 49.882812 201.921875 49.179688 C 201.921875 48.359375 202.195312 47.742188 202.746094 47.324219 C 203.292969 46.910156 204.113281 46.699219 205.203125 46.699219 L 206.882812 46.699219 L 206.882812 46.582031 C 206.882812 46.03125 206.703125 45.601562 206.339844 45.300781 C 205.976562 45 205.46875 44.851562 204.8125 44.851562 C 204.398438 44.851562 203.992188 44.898438 203.59375 45 C 203.199219 45.101562 202.820312 45.25 202.457031 45.449219 L 202.457031 44.339844 C 202.894531 44.171875 203.320312 44.046875 203.730469 43.960938 C 204.144531 43.878906 204.546875 43.835938 204.9375 43.835938 C 205.992188 43.835938 206.78125 44.109375 207.300781 44.65625 C 207.820312 45.203125 208.082031 46.03125 208.082031 47.140625 Z M 208.082031 47.140625 "/>
<path style=" stroke:none;fill-rule:nonzero;fill:rgb(0%,0%,0%);fill-opacity:1;" d="M 216.226562 45.410156 C 216.527344 44.871094 216.882812 44.472656 217.300781 44.21875 C 217.71875 43.964844 218.207031 43.835938 218.773438 43.835938 C 219.53125 43.835938 220.117188 44.101562 220.53125 44.632812 C 220.941406 45.164062 221.148438 45.917969 221.148438 46.898438 L 221.148438 51.300781 L 219.945312 51.300781 L 219.945312 46.941406 C 219.945312 46.242188 219.820312 45.722656 219.570312 45.386719 C 219.324219 45.046875 218.949219 44.878906 218.441406 44.878906 C 217.820312 44.878906 217.328125 45.082031 216.96875 45.496094 C 216.609375 45.90625 216.429688 46.46875 216.429688 47.179688 L 216.429688 51.300781 L 215.222656 51.300781 L 215.222656 46.941406 C 215.222656 46.238281 215.101562 45.71875 214.851562 45.382812 C 214.605469 45.046875 214.222656 44.878906 213.707031 44.878906 C 213.09375 44.878906 212.609375 45.085938 212.246094 45.496094 C 211.886719 45.910156 211.707031 46.472656 211.707031 47.179688 L 211.707031 51.300781 L 210.503906 51.300781 L 210.503906 44.011719 L 211.707031 44.011719 L 211.707031 45.144531 C 211.980469 44.695312 212.308594 44.367188 212.691406 44.152344 C 213.074219 43.941406 213.527344 43.835938 214.050781 43.835938 C 214.582031 43.835938 215.03125 43.96875 215.402344 44.238281 C 215.773438 44.507812 216.046875 44.898438 216.226562 45.410156 Z M 216.226562 45.410156 "/>
<path style=" stroke:none;fill-rule:nonzero;fill:rgb(0%,0%,0%);fill-opacity:1;" d="M 229.214844 45.410156 C 229.515625 44.871094 229.871094 44.472656 230.289062 44.21875 C 230.707031 43.964844 231.195312 43.835938 231.761719 43.835938 C 232.519531 43.835938 233.105469 44.101562 233.519531 44.632812 C 233.929688 45.164062 234.136719 45.917969 234.136719 46.898438 L 234.136719 51.300781 L 232.933594 51.300781 L 232.933594 46.941406 C 232.933594 46.242188 232.808594 45.722656 232.558594 45.386719 C 232.3125 45.046875 231.9375 44.878906 231.429688 44.878906 C 230.808594 44.878906 230.316406 45.082031 229.957031 45.496094 C 229.597656 45.90625 229.417969 46.46875 229.417969 47.179688 L 229.417969 51.300781 L 228.210938 51.300781 L 228.210938 46.941406 C 228.210938 46.238281 228.089844 45.71875 227.839844 45.382812 C 227.59375 45.046875 227.210938 44.878906 226.695312 44.878906 C 226.082031 44.878906 225.597656 45.085938 225.234375 45.496094 C 224.875 45.910156 224.695312 46.472656 224.695312 47.179688 L 224.695312 51.300781 L 223.492188 51.300781 L 223.492188 44.011719 L 224.695312 44.011719 L 224.695312 45.144531 C 224.96875 44.695312 225.296875 44.367188 225.679688 44.152344 C 226.0625 43.941406 226.515625 43.835938 227.039062 43.835938 C 227.570312 43.835938 228.019531 43.96875 228.390625 44.238281 C 228.761719 44.507812 229.035156 44.898438 229.214844 45.410156 Z M 229.214844 45.410156 "/>
<path style=" stroke:none;fill-rule:nonzero;fill:rgb(0%,0%,0%);fill-opacity:1;" d="M 239.839844 47.636719 C 238.871094 47.636719 238.199219 47.746094 237.828125 47.96875 C 237.453125 48.191406 237.265625 48.566406 237.265625 49.101562 C 237.265625 49.527344 237.40625 49.863281 237.6875 50.113281 C 237.96875 50.363281 238.347656 50.488281 238.828125 50.488281 C 239.496094 50.488281 240.027344 50.253906 240.429688 49.78125 C 240.832031 49.308594 241.03125 48.683594 241.03125 47.902344 L 241.03125 47.636719 Z M 242.230469 47.140625 L 242.230469 51.300781 L 241.03125 51.300781 L 241.03125 50.195312 C 240.757812 50.636719 240.417969 50.964844 240.007812 51.175781 C 239.601562 51.386719 239.101562 51.492188 238.511719 51.492188 C 237.765625 51.492188 237.171875 51.28125 236.730469 50.863281 C 236.289062 50.441406 236.070312 49.882812 236.070312 49.179688 C 236.070312 48.359375 236.34375 47.742188 236.890625 47.324219 C 237.441406 46.910156 238.261719 46.699219 239.351562 46.699219 L 241.03125 46.699219 L 241.03125 46.582031 C 241.03125 46.03125 240.851562 45.601562 240.488281 45.300781 C 240.125 45 239.617188 44.851562 238.960938 44.851562 C 238.542969 44.851562 238.136719 44.898438 237.742188 45 C 237.347656 45.101562 236.96875 45.25 236.605469 45.449219 L 236.605469 44.339844 C 237.042969 44.171875 237.46875 44.046875 237.878906 43.960938 C 238.292969 43.878906 238.691406 43.835938 239.082031 43.835938 C 240.140625 43.835938 240.925781 44.109375 241.449219 44.65625 C 241.96875 45.203125 242.230469 46.03125 242.230469 47.140625 Z M 242.230469 47.140625 "/>
<path style=" stroke:none;fill-rule:nonzero;fill:rgb(0%,0%,0%);fill-opacity:1;" d="M 244.851562 45.246094 L 253.199219 45.246094 L 253.199219 46.339844 L 244.851562 46.339844 Z M 244.851562 47.902344 L 253.199219 47.902344 L 253.199219 49.011719 L 244.851562 49.011719 Z M 244.851562 47.902344 "/>
<path style=" stroke:none;fill-rule:nonzero;fill:rgb(0%,0%,0%);fill-opacity:1;" d="M 256.265625 50.195312 L 258.414062 50.195312 L 258.414062 42.777344 L 256.074219 43.246094 L 256.074219 42.050781 L 258.402344 41.582031 L 259.714844 41.582031 L 259.714844 50.195312 L 261.863281 50.195312 L 261.863281 51.300781 L 256.265625 51.300781 Z M 256.265625 50.195312 "/>
<path style=" stroke:none;fill-rule:nonzero;fill:rgb(0%,0%,0%);fill-opacity:1;" d="M 264.519531 49.648438 L 265.894531 49.648438 L 265.894531 51.300781 L 264.519531 51.300781 Z M 264.519531 49.648438 "/>
<path style=" stroke:none;fill-rule:nonzero;fill:rgb(0%,0%,0%);fill-opacity:1;" d="M 271.570312 42.449219 C 270.894531 42.449219 270.386719 42.78125 270.042969 43.449219 C 269.703125 44.113281 269.53125 45.113281 269.53125 46.453125 C 269.53125 47.785156 269.703125 48.785156 270.042969 49.449219 C 270.386719 50.117188 270.894531 50.449219 271.570312 50.449219 C 272.253906 50.449219 272.761719 50.117188 273.105469 49.449219 C 273.445312 48.785156 273.617188 47.785156 273.617188 46.453125 C 273.617188 45.113281 273.445312 44.113281 273.105469 43.449219 C 272.761719 42.78125 272.253906 42.449219 271.570312 42.449219 Z M 271.570312 41.40625 C 272.660156 41.40625 273.492188 41.835938 274.066406 42.699219 C 274.644531 43.5625 274.929688 44.8125 274.929688 46.453125 C 274.929688 48.089844 274.644531 49.335938 274.066406 50.199219 C 273.492188 51.0625 272.660156 51.492188 271.570312 51.492188 C 270.480469 51.492188 269.648438 51.0625 269.074219 50.199219 C 268.5 49.335938 268.210938 48.089844 268.210938 46.453125 C 268.210938 44.8125 268.5 43.5625 269.074219 42.699219 C 269.648438 41.835938 270.480469 41.40625 271.570312 41.40625 Z M 271.570312 41.40625 "/>
<path style="fill:none;stroke-width:1.5;stroke-linecap:butt;stroke-linejoin:round;stroke:rgb(17.254902%,62.7451%,17.254902%);stroke-opacity:1;stroke-dasharray:9.6,2.4,1.5,2.4;stroke-miterlimit:4;" d="M 116.493164 49.655273 L 136.494141 49.655273 " transform="matrix(1.333333,0,0,1.333333,0,0.000000000000014211)"/>
<path style=" stroke:none;fill-rule:nonzero;fill:rgb(0%,0%,0%);fill-opacity:1;" d="M 198.710938 67.140625 C 198.710938 66.273438 198.535156 65.601562 198.175781 65.125 C 197.816406 64.648438 197.316406 64.410156 196.667969 64.410156 C 196.027344 64.410156 195.527344 64.648438 195.167969 65.125 C 194.808594 65.601562 194.632812 66.273438 194.632812 67.140625 C 194.632812 68.003906 194.808594 68.675781 195.167969 69.152344 C 195.527344 69.632812 196.027344 69.871094 196.667969 69.871094 C 197.316406 69.871094 197.816406 69.632812 198.175781 69.152344 C 198.535156 68.675781 198.710938 68.003906 198.710938 67.140625 Z M 199.910156 69.96875 C 199.910156 71.210938 199.632812 72.132812 199.082031 72.738281 C 198.535156 73.34375 197.691406 73.644531 196.550781 73.644531 C 196.132812 73.644531 195.734375 73.613281 195.359375 73.550781 C 194.988281 73.488281 194.625 73.394531 194.273438 73.261719 L 194.273438 72.097656 C 194.625 72.289062 194.972656 72.429688 195.316406 72.519531 C 195.65625 72.609375 196.007812 72.65625 196.363281 72.65625 C 197.148438 72.65625 197.738281 72.453125 198.128906 72.042969 C 198.515625 71.632812 198.710938 71.011719 198.710938 70.183594 L 198.710938 69.589844 C 198.464844 70.019531 198.148438 70.339844 197.761719 70.554688 C 197.375 70.765625 196.914062 70.871094 196.375 70.871094 C 195.480469 70.871094 194.761719 70.53125 194.214844 69.851562 C 193.667969 69.171875 193.394531 68.265625 193.394531 67.140625 C 193.394531 66.015625 193.667969 65.109375 194.214844 64.429688 C 194.761719 63.746094 195.480469 63.40625 196.375 63.40625 C 196.914062 63.40625 197.375 63.511719 197.761719 63.726562 C 198.148438 63.9375 198.464844 64.257812 198.710938 64.6875 L 198.710938 63.582031 L 199.910156 63.582031 Z M 199.910156 69.96875 "/>
<path style=" stroke:none;fill-rule:nonzero;fill:rgb(0%,0%,0%);fill-opacity:1;" d="M 205.691406 67.207031 C 204.726562 67.207031 204.054688 67.320312 203.679688 67.539062 C 203.304688 67.761719 203.121094 68.136719 203.121094 68.671875 C 203.121094 69.097656 203.261719 69.433594 203.539062 69.683594 C 203.820312 69.933594 204.203125 70.058594 204.683594 70.058594 C 205.347656 70.058594 205.882812 69.824219 206.28125 69.351562 C 206.683594 68.882812 206.882812 68.253906 206.882812 67.476562 L 206.882812 67.207031 Z M 208.082031 66.710938 L 208.082031 70.871094 L 206.882812 70.871094 L 206.882812 69.765625 C 206.609375 70.207031 206.269531 70.535156 205.863281 70.746094 C 205.453125 70.957031 204.953125 71.0625 204.363281 71.0625 C 203.617188 71.0625 203.023438 70.851562 202.582031 70.433594 C 202.140625 70.015625 201.921875 69.453125 201.921875 68.75 C 201.921875 67.929688 202.195312 67.3125 202.746094 66.894531 C 203.292969 66.480469 204.113281 66.269531 205.203125 66.269531 L 206.882812 66.269531 L 206.882812 66.152344 C 206.882812 65.601562 206.703125 65.175781 206.339844 64.871094 C 205.976562 64.570312 205.46875 64.421875 204.8125 64.421875 C 204.398438 64.421875 203.992188 64.472656 203.59375 64.570312 C 203.199219 64.671875 202.820312 64.820312 202.457031 65.019531 L 202.457031 63.914062 C 202.894531 63.742188 203.320312 63.617188 203.730469 63.535156 C 204.144531 63.449219 204.546875 63.40625 204.9375 63.40625 C 205.992188 63.40625 206.78125 63.679688 207.300781 64.226562 C 207.820312 64.773438 208.082031 65.601562 208.082031 66.710938 Z M 208.082031 66.710938 "/>
<path style=" stroke:none;fill-rule:nonzero;fill:rgb(0%,0%,0%);fill-opacity:1;" d="M 216.226562 64.980469 C 216.527344 64.441406 216.882812 64.046875 217.300781 63.789062 C 217.71875 63.535156 218.207031 63.40625 218.773438 63.40625 C 219.53125 63.40625 220.117188 63.671875 220.53125 64.203125 C 220.941406 64.734375 221.148438 65.492188 221.148438 66.472656 L 221.148438 70.871094 L 219.945312 70.871094 L 219.945312 66.511719 C 219.945312 65.8125 219.820312 65.292969 219.570312 64.957031 C 219.324219 64.617188 218.949219 64.449219 218.441406 64.449219 C 217.820312 64.449219 217.328125 64.652344 216.96875 65.066406 C 216.609375 65.476562 216.429688 66.039062 216.429688 66.753906 L 216.429688 70.871094 L 215.222656 70.871094 L 215.222656 66.511719 C 215.222656 65.808594 215.101562 65.289062 214.851562 64.953125 C 214.605469 64.617188 214.222656 64.449219 213.707031 64.449219 C 213.09375 64.449219 212.609375 64.65625 212.246094 65.070312 C 211.886719 65.484375 211.707031 66.042969 211.707031 66.753906 L 211.707031 70.871094 L 210.503906 70.871094 L 210.503906 63.582031 L 211.707031 63.582031 L 211.707031 64.714844 C 211.980469 64.265625 212.308594 63.9375 212.691406 63.726562 C 213.074219 63.511719 213.527344 63.40625 214.050781 63.40625 C 214.582031 63.40625 215.03125 63.539062 215.402344 63.808594 C 215.773438 64.078125 216.046875 64.46875 216.226562 64.980469 Z M 216.226562 64.980469 "/>
<path style=" stroke:none;fill-rule:nonzero;fill:rgb(0%,0%,0%);fill-opacity:1;" d="M 229.214844 64.980469 C 229.515625 64.441406 229.871094 64.046875 230.289062 63.789062 C 230.707031 63.535156 231.195312 63.40625 231.761719 63.40625 C 232.519531 63.40625 233.105469 63.671875 233.519531 64.203125 C 233.929688 64.734375 234.136719 65.492188 234.136719 66.472656 L 234.136719 70.871094 L 232.933594 70.871094 L 232.933594 66.511719 C 232.933594 65.8125 232.808594 65.292969 232.558594 64.957031 C 232.3125 64.617188 231.9375 64.449219 231.429688 64.449219 C 230.808594 64.449219 230.316406 64.652344 229.957031 65.066406 C 229.597656 65.476562 229.417969 66.039062 229.417969 66.753906 L 229.417969 70.871094 L 228.210938 70.871094 L 228.210938 66.511719 C 228.210938 65.808594 228.089844 65.289062 227.839844 64.953125 C 227.59375 64.617188 227.210938 64.449219 226.695312 64.449219 C 226.082031 64.449219 225.597656 64.65625 225.234375 65.070312 C 224.875 65.484375 224.695312 66.042969 224.695312 66.753906 L 224.695312 70.871094 L 223.492188 70.871094 L 223.492188 63.582031 L 224.695312 63.582031 L 224.695312 64.714844 C 224.96875 64.265625 225.296875 63.9375 225.679688 63.726562 C 226.0625 63.511719 226.515625 63.40625 227.039062 63.40625 C 227.570312 63.40625 228.019531 63.539062 228.390625 63.808594 C 228.761719 64.078125 229.035156 64.46875 229.214844 64.980469 Z M 229.214844 64.980469 "/>
<path style=" stroke:none;fill-rule:nonzero;fill:rgb(0%,0%,0%);fill-opacity:1;" d="M 239.839844 67.207031 C 238.871094 67.207031 238.199219 67.320312 237.828125 67.539062 C 237.453125 67.761719 237.265625 68.136719 237.265625 68.671875 C 237.265625 69.097656 237.40625 69.433594 237.6875 69.683594 C 237.96875 69.933594 238.347656 70.058594 238.828125 70.058594 C 239.496094 70.058594 240.027344 69.824219 240.429688 69.351562 C 240.832031 68.882812 241.03125 68.253906 241.03125 67.476562 L 241.03125 67.207031 Z M 242.230469 66.710938 L 242.230469 70.871094 L 241.03125 70.871094 L 241.03125 69.765625 C 240.757812 70.207031 240.417969 70.535156 240.007812 70.746094 C 239.601562 70.957031 239.101562 71.0625 238.511719 71.0625 C 237.765625 71.0625 237.171875 70.851562 236.730469 70.433594 C 236.289062 70.015625 236.070312 69.453125 236.070312 68.75 C 236.070312 67.929688 236.34375 67.3125 236.890625 66.894531 C 237.441406 66.480469 238.261719 66.269531 239.351562 66.269531 L 241.03125 66.269531 L 241.03125 66.152344 C 241.03125 65.601562 240.851562 65.175781 240.488281 64.871094 C 240.125 64.570312 239.617188 64.421875 238.960938 64.421875 C 238.542969 64.421875 238.136719 64.472656 237.742188 64.570312 C 237.347656 64.671875 236.96875 64.820312 236.605469 65.019531 L 236.605469 63.914062 C 237.042969 63.742188 237.46875 63.617188 237.878906 63.535156 C 238.292969 63.449219 238.691406 63.40625 239.082031 63.40625 C 240.140625 63.40625 240.925781 63.679688 241.449219 64.226562 C 241.96875 64.773438 242.230469 65.601562 242.230469 66.710938 Z M 242.230469 66.710938 "/>
<path style=" stroke:none;fill-rule:nonzero;fill:rgb(0%,0%,0%);fill-opacity:1;" d="M 244.851562 64.820312 L 253.199219 64.820312 L 253.199219 65.914062 L 244.851562 65.914062 Z M 244.851562 67.476562 L 253.199219 67.476562 L 253.199219 68.582031 L 244.851562 68.582031 Z M 244.851562 67.476562 "/>
<path style=" stroke:none;fill-rule:nonzero;fill:rgb(0%,0%,0%);fill-opacity:1;" d="M 256.050781 61.152344 L 261.214844 61.152344 L 261.214844 62.261719 L 257.253906 62.261719 L 257.253906 64.640625 C 257.445312 64.578125 257.636719 64.527344 257.824219 64.496094 C 258.019531 64.464844 258.210938 64.449219 258.402344 64.449219 C 259.484375 64.449219 260.34375 64.746094 260.976562 65.339844 C 261.613281 65.933594 261.929688 66.738281 261.929688 67.753906 C 261.929688 68.800781 261.605469 69.613281 260.953125 70.195312 C 260.300781 70.773438 259.382812 71.0625 258.199219 71.0625 C 257.789062 71.0625 257.375 71.027344 256.949219 70.957031 C 256.527344 70.890625 256.09375 70.785156 255.640625 70.644531 L 255.640625 69.324219 C 256.03125 69.535156 256.433594 69.695312 256.851562 69.796875 C 257.269531 69.902344 257.707031 69.953125 258.171875 69.953125 C 258.921875 69.953125 259.519531 69.757812 259.957031 69.363281 C 260.394531 68.96875 260.613281 68.433594 260.613281 67.753906 C 260.613281 67.078125 260.394531 66.542969 259.957031 66.148438 C 259.519531 65.753906 258.921875 65.554688 258.171875 65.554688 C 257.820312 65.554688 257.46875 65.59375 257.121094 65.671875 C 256.769531 65.75 256.414062 65.871094 256.050781 66.035156 Z M 256.050781 61.152344 "/>
<path style=" stroke:none;fill-rule:nonzero;fill:rgb(0%,0%,0%);fill-opacity:1;" d="M 264.519531 69.21875 L 265.894531 69.21875 L 265.894531 70.871094 L 264.519531 70.871094 Z M 264.519531 69.21875 "/>
<path style=" stroke:none;fill-rule:nonzero;fill:rgb(0%,0%,0%);fill-opacity:1;" d="M 271.570312 62.019531 C 270.894531 62.019531 270.386719 62.351562 270.042969 63.019531 C 269.703125 63.683594 269.53125 64.683594 269.53125 66.023438 C 269.53125 67.355469 269.703125 68.355469 270.042969 69.019531 C 270.386719 69.6875 270.894531 70.019531 271.570312 70.019531 C 272.253906 70.019531 272.761719 69.6875 273.105469 69.019531 C 273.445312 68.355469 273.617188 67.355469 273.617188 66.023438 C 273.617188 64.683594 273.445312 63.683594 273.105469 63.019531 C 272.761719 62.351562 272.253906 62.019531 271.570312 62.019531 Z M 271.570312 60.976562 C 272.660156 60.976562 273.492188 61.410156 274.066406 62.269531 C 274.644531 63.132812 274.929688 64.382812 274.929688 66.023438 C 274.929688 67.660156 274.644531 68.910156 274.066406 69.769531 C 273.492188 70.632812 272.660156 71.0625 271.570312 71.0625 C 270.480469 71.0625 269.648438 70.632812 269.074219 69.769531 C 268.5 68.910156 268.210938 67.660156 268.210938 66.023438 C 268.210938 64.382812 268.5 63.132812 269.074219 62.269531 C 269.648438 61.410156 270.480469 60.976562 271.570312 60.976562 Z M 271.570312 60.976562 "/>
</g>
</svg>
