<?xml version="1.0" encoding="UTF-8"?>
<svg xmlns="http://www.w3.org/2000/svg" xmlns:xlink="http://www.w3.org/1999/xlink" width="323.430806" height="226.237508" viewBox="0 0 323.430806 226.237508" version="1.1">
<defs>
<clipPath id="clip1">
  <path d="M 59 9.601562 L 62 9.601562 L 62 194.398438 L 59 194.398438 Z M 59 9.601562 "/>
</clipPath>
<clipPath id="clip2">
  <path d="M 141 9.601562 L 143 9.601562 L 143 194.398438 L 141 194.398438 Z M 141 9.601562 "/>
</clipPath>
<clipPath id="clip3">
  <path d="M 222 9.601562 L 225 9.601562 L 225 194.398438 L 222 194.398438 Z M 222 9.601562 "/>
</clipPath>
<clipPath id="clip4">
  <path d="M 304 9.601562 L 307 9.601562 L 307 194.398438 L 304 194.398438 Z M 304 9.601562 "/>
</clipPath>
<clipPath id="clip5">
  <path d="M 48.621094 181 L 309.019531 181 L 309.019531 184 L 48.621094 184 Z M 48.621094 181 "/>
</clipPath>
<clipPath id="clip6">
  <path d="M 48.621094 140 L 309.019531 140 L 309.019531 143 L 48.621094 143 Z M 48.621094 140 "/>
</clipPath>
<clipPath id="clip7">
  <path d="M 48.621094 99 L 309.019531 99 L 309.019531 101 L 48.621094 101 Z M 48.621094 99 "/>
</clipPath>
<clipPath id="clip8">
  <path d="M 48.621094 58 L 309.019531 58 L 309.019531 60 L 48.621094 60 Z M 48.621094 58 "/>
</clipPath>
<clipPath id="clip9">
  <path d="M 48.621094 17 L 309.019531 17 L 309.019531 19 L 48.621094 19 Z M 48.621094 17 "/>
</clipPath>
</defs>
<g id="surface1">
<path style=" stroke:none;fill-rule:nonzero;fill:rgb(100%,100%,100%);fill-opacity:1;" d="M 0 226.238281 L 323.429688 226.238281 L 323.429688 0 L 0 0 Z M 0 226.238281 "/>
<path style=" stroke:none;fill-rule:nonzero;fill:rgb(100%,100%,100%);fill-opacity:1;" d="M 48.621094 194.398438 L 309.019531 194.398438 L 309.019531 9.601562 L 48.621094 9.601562 Z M 48.621094 194.398438 "/>
<g clip-path="url(#clip1)" clip-rule="nonzero">
<path style="fill:none;stroke-width:0.8;stroke-linecap:square;stroke-linejoin:round;stroke:rgb(69.01961%,69.01961%,69.01961%);stroke-opacity:1;stroke-miterlimit:4;" d="M 45.342773 145.798828 L 45.342773 7.201172 " transform="matrix(1.333333,0,0,1.333333,0,0.000000000000014211)"/>
</g>
<path style="fill:none;stroke-width:0.8;stroke-linecap:butt;stroke-linejoin:round;stroke:rgb(0%,0%,0%);stroke-opacity:1;stroke-miterlimit:4;" d="M -0.000125885 -0.00117493 L -0.000125885 3.499802 " transform="matrix(1.333333,0,0,1.333333,60.457199,194.400004)"/>
<path style=" stroke:none;fill-rule:nonzero;fill:rgb(0%,0%,0%);fill-opacity:1;" d="M 60.453125 205.011719 C 59.777344 205.011719 59.269531 205.34375 58.925781 206.011719 C 58.585938 206.675781 58.414062 207.675781 58.414062 209.015625 C 58.414062 210.347656 58.585938 211.347656 58.925781 212.011719 C 59.269531 212.679688 59.777344 213.011719 60.453125 213.011719 C 61.136719 213.011719 61.644531 212.679688 61.988281 212.011719 C 62.328125 211.347656 62.5 210.347656 62.5 209.015625 C 62.5 207.675781 62.328125 206.675781 61.988281 206.011719 C 61.644531 205.34375 61.136719 205.011719 60.453125 205.011719 Z M 60.453125 203.96875 C 61.542969 203.96875 62.375 204.398438 62.949219 205.261719 C 63.527344 206.125 63.8125 207.375 63.8125 209.015625 C 63.8125 210.652344 63.527344 211.898438 62.949219 212.761719 C 62.375 213.625 61.542969 214.054688 60.453125 214.054688 C 59.363281 214.054688 58.53125 213.625 57.957031 212.761719 C 57.382812 211.898438 57.09375 210.652344 57.09375 209.015625 C 57.09375 207.375 57.382812 206.125 57.957031 205.261719 C 58.53125 204.398438 59.363281 203.96875 60.453125 203.96875 Z M 60.453125 203.96875 "/>
<g clip-path="url(#clip2)" clip-rule="nonzero">
<path style="fill:none;stroke-width:0.8;stroke-linecap:square;stroke-linejoin:round;stroke:rgb(69.01961%,69.01961%,69.01961%);stroke-opacity:1;stroke-miterlimit:4;" d="M 106.564453 145.798828 L 106.564453 7.201172 " transform="matrix(1.333333,0,0,1.333333,0,0.000000000000014211)"/>
</g>
<path style="fill:none;stroke-width:0.8;stroke-linecap:butt;stroke-linejoin:round;stroke:rgb(0%,0%,0%);stroke-opacity:1;stroke-miterlimit:4;" d="M -0.00101471 -0.00117493 L -0.00101471 3.499802 " transform="matrix(1.333333,0,0,1.333333,142.08729,194.400004)"/>
<path style=" stroke:none;fill-rule:nonzero;fill:rgb(0%,0%,0%);fill-opacity:1;" d="M 135.257812 212.757812 L 137.40625 212.757812 L 137.40625 205.339844 L 135.070312 205.808594 L 135.070312 204.613281 L 137.394531 204.144531 L 138.707031 204.144531 L 138.707031 212.757812 L 140.855469 212.757812 L 140.855469 213.863281 L 135.257812 213.863281 Z M 135.257812 212.757812 "/>
<path style=" stroke:none;fill-rule:nonzero;fill:rgb(0%,0%,0%);fill-opacity:1;" d="M 146.324219 205.011719 C 145.648438 205.011719 145.140625 205.34375 144.796875 206.011719 C 144.457031 206.675781 144.285156 207.675781 144.285156 209.015625 C 144.285156 210.347656 144.457031 211.347656 144.796875 212.011719 C 145.140625 212.679688 145.648438 213.011719 146.324219 213.011719 C 147.007812 213.011719 147.519531 212.679688 147.859375 212.011719 C 148.199219 211.347656 148.371094 210.347656 148.371094 209.015625 C 148.371094 207.675781 148.199219 206.675781 147.859375 206.011719 C 147.519531 205.34375 147.007812 205.011719 146.324219 205.011719 Z M 146.324219 203.96875 C 147.414062 203.96875 148.246094 204.398438 148.824219 205.261719 C 149.398438 206.125 149.683594 207.375 149.683594 209.015625 C 149.683594 210.652344 149.398438 211.898438 148.824219 212.761719 C 148.246094 213.625 147.414062 214.054688 146.324219 214.054688 C 145.234375 214.054688 144.402344 213.625 143.828125 212.761719 C 143.253906 211.898438 142.964844 210.652344 142.964844 209.015625 C 142.964844 207.375 143.253906 206.125 143.828125 205.261719 C 144.402344 204.398438 145.234375 203.96875 146.324219 203.96875 Z M 146.324219 203.96875 "/>
<g clip-path="url(#clip3)" clip-rule="nonzero">
<path style="fill:none;stroke-width:0.8;stroke-linecap:square;stroke-linejoin:round;stroke:rgb(69.01961%,69.01961%,69.01961%);stroke-opacity:1;stroke-miterlimit:4;" d="M 167.789062 145.798828 L 167.789062 7.201172 " transform="matrix(1.333333,0,0,1.333333,0,0.000000000000014211)"/>
</g>
<path style="fill:none;stroke-width:0.8;stroke-linecap:butt;stroke-linejoin:round;stroke:rgb(0%,0%,0%);stroke-opacity:1;stroke-miterlimit:4;" d="M 0.00102234 -0.00117493 L 0.00102234 3.499802 " transform="matrix(1.333333,0,0,1.333333,223.717387,194.400004)"/>
<path style=" stroke:none;fill-rule:nonzero;fill:rgb(0%,0%,0%);fill-opacity:1;" d="M 217.792969 212.757812 L 222.382812 212.757812 L 222.382812 213.863281 L 216.210938 213.863281 L 216.210938 212.757812 C 216.710938 212.242188 217.390625 211.546875 218.25 210.679688 C 219.113281 209.808594 219.65625 209.246094 219.875 208.992188 C 220.296875 208.523438 220.589844 208.121094 220.757812 207.792969 C 220.925781 207.464844 221.007812 207.144531 221.007812 206.828125 C 221.007812 206.308594 220.828125 205.890625 220.464844 205.566406 C 220.101562 205.238281 219.628906 205.074219 219.046875 205.074219 C 218.636719 205.074219 218.199219 205.148438 217.742188 205.289062 C 217.285156 205.433594 216.796875 205.648438 216.277344 205.941406 L 216.277344 204.613281 C 216.804688 204.398438 217.300781 204.238281 217.757812 204.132812 C 218.21875 204.023438 218.640625 203.96875 219.023438 203.96875 C 220.03125 203.96875 220.832031 204.222656 221.433594 204.726562 C 222.03125 205.226562 222.328125 205.898438 222.328125 206.742188 C 222.328125 207.140625 222.253906 207.519531 222.105469 207.878906 C 221.957031 208.234375 221.683594 208.65625 221.289062 209.144531 C 221.179688 209.269531 220.835938 209.632812 220.253906 210.234375 C 219.671875 210.835938 218.851562 211.679688 217.792969 212.757812 Z M 217.792969 212.757812 "/>
<path style=" stroke:none;fill-rule:nonzero;fill:rgb(0%,0%,0%);fill-opacity:1;" d="M 227.953125 205.011719 C 227.277344 205.011719 226.769531 205.34375 226.425781 206.011719 C 226.085938 206.675781 225.917969 207.675781 225.917969 209.015625 C 225.917969 210.347656 226.085938 211.347656 226.425781 212.011719 C 226.769531 212.679688 227.277344 213.011719 227.953125 213.011719 C 228.636719 213.011719 229.148438 212.679688 229.488281 212.011719 C 229.828125 211.347656 230 210.347656 230 209.015625 C 230 207.675781 229.828125 206.675781 229.488281 206.011719 C 229.148438 205.34375 228.636719 205.011719 227.953125 205.011719 Z M 227.953125 203.96875 C 229.042969 203.96875 229.878906 204.398438 230.453125 205.261719 C 231.027344 206.125 231.316406 207.375 231.316406 209.015625 C 231.316406 210.652344 231.027344 211.898438 230.453125 212.761719 C 229.878906 213.625 229.042969 214.054688 227.953125 214.054688 C 226.867188 214.054688 226.035156 213.625 225.457031 212.761719 C 224.882812 211.898438 224.597656 210.652344 224.597656 209.015625 C 224.597656 207.375 224.882812 206.125 225.457031 205.261719 C 226.035156 204.398438 226.867188 203.96875 227.953125 203.96875 Z M 227.953125 203.96875 "/>
<g clip-path="url(#clip4)" clip-rule="nonzero">
<path style="fill:none;stroke-width:0.8;stroke-linecap:square;stroke-linejoin:round;stroke:rgb(69.01961%,69.01961%,69.01961%);stroke-opacity:1;stroke-miterlimit:4;" d="M 229.010742 145.798828 L 229.010742 7.201172 " transform="matrix(1.333333,0,0,1.333333,0,0.000000000000014211)"/>
</g>
<path style="fill:none;stroke-width:0.8;stroke-linecap:butt;stroke-linejoin:round;stroke:rgb(0%,0%,0%);stroke-opacity:1;stroke-miterlimit:4;" d="M 0.000137329 -0.00117493 L 0.000137329 3.499802 " transform="matrix(1.333333,0,0,1.333333,305.347473,194.400004)"/>
<path style=" stroke:none;fill-rule:nonzero;fill:rgb(0%,0%,0%);fill-opacity:1;" d="M 302.273438 208.621094 C 302.902344 208.757812 303.394531 209.039062 303.746094 209.464844 C 304.101562 209.890625 304.277344 210.414062 304.277344 211.039062 C 304.277344 211.996094 303.949219 212.742188 303.289062 213.265625 C 302.628906 213.792969 301.691406 214.054688 300.476562 214.054688 C 300.070312 214.054688 299.648438 214.015625 299.21875 213.933594 C 298.785156 213.851562 298.339844 213.730469 297.878906 213.570312 L 297.878906 212.300781 C 298.246094 212.515625 298.644531 212.675781 299.078125 212.785156 C 299.511719 212.890625 299.964844 212.945312 300.4375 212.945312 C 301.261719 212.945312 301.890625 212.785156 302.324219 212.457031 C 302.753906 212.132812 302.96875 211.660156 302.96875 211.039062 C 302.96875 210.464844 302.769531 210.019531 302.367188 209.695312 C 301.96875 209.371094 301.410156 209.210938 300.691406 209.210938 L 299.558594 209.210938 L 299.558594 208.128906 L 300.746094 208.128906 C 301.390625 208.128906 301.886719 208 302.230469 207.742188 C 302.570312 207.484375 302.742188 207.109375 302.742188 206.625 C 302.742188 206.125 302.566406 205.742188 302.210938 205.476562 C 301.859375 205.210938 301.351562 205.074219 300.691406 205.074219 C 300.332031 205.074219 299.945312 205.113281 299.53125 205.195312 C 299.121094 205.273438 298.667969 205.390625 298.171875 205.554688 L 298.171875 204.386719 C 298.671875 204.246094 299.140625 204.140625 299.578125 204.074219 C 300.011719 204.003906 300.425781 203.96875 300.808594 203.96875 C 301.808594 203.96875 302.597656 204.195312 303.179688 204.648438 C 303.761719 205.101562 304.050781 205.714844 304.050781 206.488281 C 304.050781 207.027344 303.898438 207.480469 303.589844 207.851562 C 303.28125 208.222656 302.84375 208.480469 302.273438 208.621094 Z M 302.273438 208.621094 "/>
<path style=" stroke:none;fill-rule:nonzero;fill:rgb(0%,0%,0%);fill-opacity:1;" d="M 309.585938 205.011719 C 308.910156 205.011719 308.398438 205.34375 308.058594 206.011719 C 307.71875 206.675781 307.546875 207.675781 307.546875 209.015625 C 307.546875 210.347656 307.71875 211.347656 308.058594 212.011719 C 308.398438 212.679688 308.910156 213.011719 309.585938 213.011719 C 310.265625 213.011719 310.777344 212.679688 311.117188 212.011719 C 311.460938 211.347656 311.628906 210.347656 311.628906 209.015625 C 311.628906 207.675781 311.460938 206.675781 311.117188 206.011719 C 310.777344 205.34375 310.265625 205.011719 309.585938 205.011719 Z M 309.585938 203.96875 C 310.675781 203.96875 311.507812 204.398438 312.082031 205.261719 C 312.65625 206.125 312.945312 207.375 312.945312 209.015625 C 312.945312 210.652344 312.65625 211.898438 312.082031 212.761719 C 311.507812 213.625 310.675781 214.054688 309.585938 214.054688 C 308.496094 214.054688 307.664062 213.625 307.089844 212.761719 C 306.515625 211.898438 306.226562 210.652344 306.226562 209.015625 C 306.226562 207.375 306.515625 206.125 307.089844 205.261719 C 307.664062 204.398438 308.496094 203.96875 309.585938 203.96875 Z M 309.585938 203.96875 "/>
<g clip-path="url(#clip5)" clip-rule="nonzero">
<path style="fill:none;stroke-width:0.8;stroke-linecap:square;stroke-linejoin:round;stroke:rgb(69.01961%,69.01961%,69.01961%);stroke-opacity:1;stroke-miterlimit:4;" d="M 36.46582 136.813477 L 231.764648 136.813477 " transform="matrix(1.333333,0,0,1.333333,0,0.000000000000014211)"/>
</g>
<path style="fill:none;stroke-width:0.8;stroke-linecap:butt;stroke-linejoin:round;stroke:rgb(0%,0%,0%);stroke-opacity:1;stroke-miterlimit:4;" d="M 0.00019455 -0.000473022 L -3.500782 -0.000473022 " transform="matrix(1.333333,0,0,1.333333,48.620834,182.418599)"/>
<path style=" stroke:none;fill-rule:nonzero;fill:rgb(0%,0%,0%);fill-opacity:1;" d="M 13.835938 178.628906 C 13.160156 178.628906 12.652344 178.964844 12.308594 179.628906 C 11.96875 180.296875 11.800781 181.296875 11.800781 182.632812 C 11.800781 183.964844 11.96875 184.964844 12.308594 185.632812 C 12.652344 186.296875 13.160156 186.632812 13.835938 186.632812 C 14.519531 186.632812 15.03125 186.296875 15.371094 185.632812 C 15.710938 184.964844 15.882812 183.964844 15.882812 182.632812 C 15.882812 181.296875 15.710938 180.296875 15.371094 179.628906 C 15.03125 178.964844 14.519531 178.628906 13.835938 178.628906 Z M 13.835938 177.589844 C 14.929688 177.589844 15.761719 178.019531 16.335938 178.882812 C 16.910156 179.742188 17.199219 180.992188 17.199219 182.632812 C 17.199219 184.269531 16.910156 185.519531 16.335938 186.382812 C 15.761719 187.242188 14.929688 187.671875 13.835938 187.671875 C 12.75 187.671875 11.917969 187.242188 11.339844 186.382812 C 10.765625 185.519531 10.480469 184.269531 10.480469 182.632812 C 10.480469 180.992188 10.765625 179.742188 11.339844 178.882812 C 11.917969 178.019531 12.75 177.589844 13.835938 177.589844 Z M 13.835938 177.589844 "/>
<path style=" stroke:none;fill-rule:nonzero;fill:rgb(0%,0%,0%);fill-opacity:1;" d="M 19.507812 185.828125 L 20.882812 185.828125 L 20.882812 187.484375 L 19.507812 187.484375 Z M 19.507812 185.828125 "/>
<path style=" stroke:none;fill-rule:nonzero;fill:rgb(0%,0%,0%);fill-opacity:1;" d="M 26.558594 178.628906 C 25.882812 178.628906 25.375 178.964844 25.03125 179.628906 C 24.691406 180.296875 24.519531 181.296875 24.519531 182.632812 C 24.519531 183.964844 24.691406 184.964844 25.03125 185.632812 C 25.375 186.296875 25.882812 186.632812 26.558594 186.632812 C 27.242188 186.632812 27.75 186.296875 28.09375 185.632812 C 28.433594 184.964844 28.605469 183.964844 28.605469 182.632812 C 28.605469 181.296875 28.433594 180.296875 28.09375 179.628906 C 27.75 178.964844 27.242188 178.628906 26.558594 178.628906 Z M 26.558594 177.589844 C 27.648438 177.589844 28.480469 178.019531 29.058594 178.882812 C 29.632812 179.742188 29.917969 180.992188 29.917969 182.632812 C 29.917969 184.269531 29.632812 185.519531 29.058594 186.382812 C 28.480469 187.242188 27.648438 187.671875 26.558594 187.671875 C 25.46875 187.671875 24.636719 187.242188 24.0625 186.382812 C 23.488281 185.519531 23.199219 184.269531 23.199219 182.632812 C 23.199219 180.992188 23.488281 179.742188 24.0625 178.882812 C 24.636719 178.019531 25.46875 177.589844 26.558594 177.589844 Z M 26.558594 177.589844 "/>
<path style=" stroke:none;fill-rule:nonzero;fill:rgb(0%,0%,0%);fill-opacity:1;" d="M 33.363281 186.378906 L 37.953125 186.378906 L 37.953125 187.484375 L 31.78125 187.484375 L 31.78125 186.378906 C 32.28125 185.859375 32.960938 185.167969 33.820312 184.296875 C 34.683594 183.429688 35.226562 182.867188 35.445312 182.613281 C 35.867188 182.140625 36.160156 181.742188 36.328125 181.414062 C 36.496094 181.085938 36.578125 180.761719 36.578125 180.445312 C 36.578125 179.929688 36.398438 179.507812 36.035156 179.183594 C 35.671875 178.859375 35.199219 178.695312 34.617188 178.695312 C 34.207031 178.695312 33.769531 178.765625 33.3125 178.910156 C 32.855469 179.050781 32.367188 179.269531 31.847656 179.5625 L 31.847656 178.230469 C 32.375 178.019531 32.871094 177.859375 33.328125 177.75 C 33.789062 177.640625 34.210938 177.589844 34.59375 177.589844 C 35.601562 177.589844 36.402344 177.839844 37.003906 178.34375 C 37.601562 178.847656 37.898438 179.519531 37.898438 180.359375 C 37.898438 180.761719 37.824219 181.140625 37.675781 181.5 C 37.527344 181.855469 37.253906 182.277344 36.859375 182.761719 C 36.75 182.890625 36.40625 183.253906 35.824219 183.855469 C 35.242188 184.457031 34.421875 185.296875 33.363281 186.378906 Z M 33.363281 186.378906 "/>
<g clip-path="url(#clip6)" clip-rule="nonzero">
<path style="fill:none;stroke-width:0.8;stroke-linecap:square;stroke-linejoin:round;stroke:rgb(69.01961%,69.01961%,69.01961%);stroke-opacity:1;stroke-miterlimit:4;" d="M 36.46582 105.984375 L 231.764648 105.984375 " transform="matrix(1.333333,0,0,1.333333,0,0.000000000000014211)"/>
</g>
<path style="fill:none;stroke-width:0.8;stroke-linecap:butt;stroke-linejoin:round;stroke:rgb(0%,0%,0%);stroke-opacity:1;stroke-miterlimit:4;" d="M 0.00019455 -0.00108337 L -3.500782 -0.00108337 " transform="matrix(1.333333,0,0,1.333333,48.620834,141.313944)"/>
<path style=" stroke:none;fill-rule:nonzero;fill:rgb(0%,0%,0%);fill-opacity:1;" d="M 13.835938 137.527344 C 13.160156 137.527344 12.652344 137.859375 12.308594 138.527344 C 11.96875 139.191406 11.800781 140.191406 11.800781 141.53125 C 11.800781 142.863281 11.96875 143.859375 12.308594 144.527344 C 12.652344 145.195312 13.160156 145.527344 13.835938 145.527344 C 14.519531 145.527344 15.03125 145.195312 15.371094 144.527344 C 15.710938 143.859375 15.882812 142.863281 15.882812 141.53125 C 15.882812 140.191406 15.710938 139.191406 15.371094 138.527344 C 15.03125 137.859375 14.519531 137.527344 13.835938 137.527344 Z M 13.835938 136.484375 C 14.929688 136.484375 15.761719 136.914062 16.335938 137.777344 C 16.910156 138.636719 17.199219 139.890625 17.199219 141.53125 C 17.199219 143.164062 16.910156 144.414062 16.335938 145.277344 C 15.761719 146.136719 14.929688 146.570312 13.835938 146.570312 C 12.75 146.570312 11.917969 146.136719 11.339844 145.277344 C 10.765625 144.414062 10.480469 143.164062 10.480469 141.53125 C 10.480469 139.890625 10.765625 138.636719 11.339844 137.777344 C 11.917969 136.914062 12.75 136.484375 13.835938 136.484375 Z M 13.835938 136.484375 "/>
<path style=" stroke:none;fill-rule:nonzero;fill:rgb(0%,0%,0%);fill-opacity:1;" d="M 19.507812 144.726562 L 20.882812 144.726562 L 20.882812 146.378906 L 19.507812 146.378906 Z M 19.507812 144.726562 "/>
<path style=" stroke:none;fill-rule:nonzero;fill:rgb(0%,0%,0%);fill-opacity:1;" d="M 26.558594 137.527344 C 25.882812 137.527344 25.375 137.859375 25.03125 138.527344 C 24.691406 139.191406 24.519531 140.191406 24.519531 141.53125 C 24.519531 142.863281 24.691406 143.859375 25.03125 144.527344 C 25.375 145.195312 25.882812 145.527344 26.558594 145.527344 C 27.242188 145.527344 27.75 145.195312 28.09375 144.527344 C 28.433594 143.859375 28.605469 142.863281 28.605469 141.53125 C 28.605469 140.191406 28.433594 139.191406 28.09375 138.527344 C 27.75 137.859375 27.242188 137.527344 26.558594 137.527344 Z M 26.558594 136.484375 C 27.648438 136.484375 28.480469 136.914062 29.058594 137.777344 C 29.632812 138.636719 29.917969 139.890625 29.917969 141.53125 C 29.917969 143.164062 29.632812 144.414062 29.058594 145.277344 C 28.480469 146.136719 27.648438 146.570312 26.558594 146.570312 C 25.46875 146.570312 24.636719 146.136719 24.0625 145.277344 C 23.488281 144.414062 23.199219 143.164062 23.199219 141.53125 C 23.199219 139.890625 23.488281 138.636719 24.0625 137.777344 C 24.636719 136.914062 25.46875 136.484375 26.558594 136.484375 Z M 26.558594 136.484375 "/>
<path style=" stroke:none;fill-rule:nonzero;fill:rgb(0%,0%,0%);fill-opacity:1;" d="M 35.84375 137.804688 L 32.523438 142.996094 L 35.84375 142.996094 Z M 35.5 136.660156 L 37.152344 136.660156 L 37.152344 142.996094 L 38.539062 142.996094 L 38.539062 144.089844 L 37.152344 144.089844 L 37.152344 146.378906 L 35.84375 146.378906 L 35.84375 144.089844 L 31.457031 144.089844 L 31.457031 142.820312 Z M 35.5 136.660156 "/>
<g clip-path="url(#clip7)" clip-rule="nonzero">
<path style="fill:none;stroke-width:0.8;stroke-linecap:square;stroke-linejoin:round;stroke:rgb(69.01961%,69.01961%,69.01961%);stroke-opacity:1;stroke-miterlimit:4;" d="M 36.46582 75.158203 L 231.764648 75.158203 " transform="matrix(1.333333,0,0,1.333333,0,0.000000000000014211)"/>
</g>
<path style="fill:none;stroke-width:0.8;stroke-linecap:butt;stroke-linejoin:round;stroke:rgb(0%,0%,0%);stroke-opacity:1;stroke-miterlimit:4;" d="M 0.00019455 0.00122833 L -3.500782 0.00122833 " transform="matrix(1.333333,0,0,1.333333,48.620834,100.2093)"/>
<path style=" stroke:none;fill-rule:nonzero;fill:rgb(0%,0%,0%);fill-opacity:1;" d="M 13.835938 96.421875 C 13.160156 96.421875 12.652344 96.753906 12.308594 97.421875 C 11.96875 98.085938 11.800781 99.085938 11.800781 100.425781 C 11.800781 101.757812 11.96875 102.757812 12.308594 103.421875 C 12.652344 104.089844 13.160156 104.421875 13.835938 104.421875 C 14.519531 104.421875 15.03125 104.089844 15.371094 103.421875 C 15.710938 102.757812 15.882812 101.757812 15.882812 100.425781 C 15.882812 99.085938 15.710938 98.085938 15.371094 97.421875 C 15.03125 96.753906 14.519531 96.421875 13.835938 96.421875 Z M 13.835938 95.378906 C 14.929688 95.378906 15.761719 95.808594 16.335938 96.671875 C 16.910156 97.535156 17.199219 98.785156 17.199219 100.425781 C 17.199219 102.0625 16.910156 103.308594 16.335938 104.171875 C 15.761719 105.035156 14.929688 105.464844 13.835938 105.464844 C 12.75 105.464844 11.917969 105.035156 11.339844 104.171875 C 10.765625 103.308594 10.480469 102.0625 10.480469 100.425781 C 10.480469 98.785156 10.765625 97.535156 11.339844 96.671875 C 11.917969 95.808594 12.75 95.378906 13.835938 95.378906 Z M 13.835938 95.378906 "/>
<path style=" stroke:none;fill-rule:nonzero;fill:rgb(0%,0%,0%);fill-opacity:1;" d="M 19.507812 103.621094 L 20.882812 103.621094 L 20.882812 105.273438 L 19.507812 105.273438 Z M 19.507812 103.621094 "/>
<path style=" stroke:none;fill-rule:nonzero;fill:rgb(0%,0%,0%);fill-opacity:1;" d="M 26.558594 96.421875 C 25.882812 96.421875 25.375 96.753906 25.03125 97.421875 C 24.691406 98.085938 24.519531 99.085938 24.519531 100.425781 C 24.519531 101.757812 24.691406 102.757812 25.03125 103.421875 C 25.375 104.089844 25.882812 104.421875 26.558594 104.421875 C 27.242188 104.421875 27.75 104.089844 28.09375 103.421875 C 28.433594 102.757812 28.605469 101.757812 28.605469 100.425781 C 28.605469 99.085938 28.433594 98.085938 28.09375 97.421875 C 27.75 96.753906 27.242188 96.421875 26.558594 96.421875 Z M 26.558594 95.378906 C 27.648438 95.378906 28.480469 95.808594 29.058594 96.671875 C 29.632812 97.535156 29.917969 98.785156 29.917969 100.425781 C 29.917969 102.0625 29.632812 103.308594 29.058594 104.171875 C 28.480469 105.035156 27.648438 105.464844 26.558594 105.464844 C 25.46875 105.464844 24.636719 105.035156 24.0625 104.171875 C 23.488281 103.308594 23.199219 102.0625 23.199219 100.425781 C 23.199219 98.785156 23.488281 97.535156 24.0625 96.671875 C 24.636719 95.808594 25.46875 95.378906 26.558594 95.378906 Z M 26.558594 95.378906 "/>
<path style=" stroke:none;fill-rule:nonzero;fill:rgb(0%,0%,0%);fill-opacity:1;" d="M 35.207031 99.890625 C 34.617188 99.890625 34.148438 100.09375 33.800781 100.496094 C 33.457031 100.902344 33.285156 101.453125 33.285156 102.15625 C 33.285156 102.855469 33.457031 103.40625 33.800781 103.816406 C 34.148438 104.21875 34.617188 104.421875 35.207031 104.421875 C 35.796875 104.421875 36.265625 104.21875 36.609375 103.816406 C 36.953125 103.40625 37.125 102.855469 37.125 102.15625 C 37.125 101.453125 36.953125 100.902344 36.609375 100.496094 C 36.265625 100.09375 35.796875 99.890625 35.207031 99.890625 Z M 37.816406 95.769531 L 37.816406 96.964844 C 37.488281 96.8125 37.152344 96.691406 36.816406 96.609375 C 36.480469 96.527344 36.148438 96.484375 35.816406 96.484375 C 34.949219 96.484375 34.285156 96.777344 33.828125 97.363281 C 33.371094 97.949219 33.109375 98.835938 33.042969 100.019531 C 33.300781 99.644531 33.621094 99.351562 34.007812 99.152344 C 34.394531 98.949219 34.820312 98.851562 35.285156 98.851562 C 36.261719 98.851562 37.03125 99.144531 37.597656 99.738281 C 38.164062 100.332031 38.449219 101.136719 38.449219 102.15625 C 38.449219 103.15625 38.152344 103.957031 37.5625 104.558594 C 36.972656 105.164062 36.1875 105.464844 35.207031 105.464844 C 34.082031 105.464844 33.222656 105.035156 32.628906 104.171875 C 32.03125 103.308594 31.734375 102.0625 31.734375 100.425781 C 31.734375 98.890625 32.101562 97.664062 32.828125 96.75 C 33.558594 95.835938 34.535156 95.378906 35.765625 95.378906 C 36.09375 95.378906 36.429688 95.410156 36.765625 95.476562 C 37.101562 95.542969 37.453125 95.640625 37.816406 95.769531 Z M 37.816406 95.769531 "/>
<g clip-path="url(#clip8)" clip-rule="nonzero">
<path style="fill:none;stroke-width:0.8;stroke-linecap:square;stroke-linejoin:round;stroke:rgb(69.01961%,69.01961%,69.01961%);stroke-opacity:1;stroke-miterlimit:4;" d="M 36.46582 44.329102 L 231.764648 44.329102 " transform="matrix(1.333333,0,0,1.333333,0,0.000000000000014211)"/>
</g>
<path style="fill:none;stroke-width:0.8;stroke-linecap:butt;stroke-linejoin:round;stroke:rgb(0%,0%,0%);stroke-opacity:1;stroke-miterlimit:4;" d="M 0.00019455 0.000614166 L -3.500782 0.000614166 " transform="matrix(1.333333,0,0,1.333333,48.620834,59.10465)"/>
<path style=" stroke:none;fill-rule:nonzero;fill:rgb(0%,0%,0%);fill-opacity:1;" d="M 13.835938 55.316406 C 13.160156 55.316406 12.652344 55.648438 12.308594 56.316406 C 11.96875 56.980469 11.800781 57.984375 11.800781 59.320312 C 11.800781 60.652344 11.96875 61.652344 12.308594 62.316406 C 12.652344 62.984375 13.160156 63.316406 13.835938 63.316406 C 14.519531 63.316406 15.03125 62.984375 15.371094 62.316406 C 15.710938 61.652344 15.882812 60.652344 15.882812 59.320312 C 15.882812 57.984375 15.710938 56.980469 15.371094 56.316406 C 15.03125 55.648438 14.519531 55.316406 13.835938 55.316406 Z M 13.835938 54.273438 C 14.929688 54.273438 15.761719 54.707031 16.335938 55.566406 C 16.910156 56.429688 17.199219 57.679688 17.199219 59.320312 C 17.199219 60.957031 16.910156 62.207031 16.335938 63.066406 C 15.761719 63.929688 14.929688 64.359375 13.835938 64.359375 C 12.75 64.359375 11.917969 63.929688 11.339844 63.066406 C 10.765625 62.207031 10.480469 60.957031 10.480469 59.320312 C 10.480469 57.679688 10.765625 56.429688 11.339844 55.566406 C 11.917969 54.707031 12.75 54.273438 13.835938 54.273438 Z M 13.835938 54.273438 "/>
<path style=" stroke:none;fill-rule:nonzero;fill:rgb(0%,0%,0%);fill-opacity:1;" d="M 19.507812 62.515625 L 20.882812 62.515625 L 20.882812 64.171875 L 19.507812 64.171875 Z M 19.507812 62.515625 "/>
<path style=" stroke:none;fill-rule:nonzero;fill:rgb(0%,0%,0%);fill-opacity:1;" d="M 26.558594 55.316406 C 25.882812 55.316406 25.375 55.648438 25.03125 56.316406 C 24.691406 56.980469 24.519531 57.984375 24.519531 59.320312 C 24.519531 60.652344 24.691406 61.652344 25.03125 62.316406 C 25.375 62.984375 25.882812 63.316406 26.558594 63.316406 C 27.242188 63.316406 27.75 62.984375 28.09375 62.316406 C 28.433594 61.652344 28.605469 60.652344 28.605469 59.320312 C 28.605469 57.984375 28.433594 56.980469 28.09375 56.316406 C 27.75 55.648438 27.242188 55.316406 26.558594 55.316406 Z M 26.558594 54.273438 C 27.648438 54.273438 28.480469 54.707031 29.058594 55.566406 C 29.632812 56.429688 29.917969 57.679688 29.917969 59.320312 C 29.917969 60.957031 29.632812 62.207031 29.058594 63.066406 C 28.480469 63.929688 27.648438 64.359375 26.558594 64.359375 C 25.46875 64.359375 24.636719 63.929688 24.0625 63.066406 C 23.488281 62.207031 23.199219 60.957031 23.199219 59.320312 C 23.199219 57.679688 23.488281 56.429688 24.0625 55.566406 C 24.636719 54.707031 25.46875 54.273438 26.558594 54.273438 Z M 26.558594 54.273438 "/>
<path style=" stroke:none;fill-rule:nonzero;fill:rgb(0%,0%,0%);fill-opacity:1;" d="M 35.042969 59.554688 C 34.417969 59.554688 33.925781 59.722656 33.566406 60.054688 C 33.210938 60.390625 33.03125 60.851562 33.03125 61.433594 C 33.03125 62.019531 33.210938 62.480469 33.566406 62.816406 C 33.925781 63.152344 34.417969 63.316406 35.042969 63.316406 C 35.667969 63.316406 36.160156 63.148438 36.519531 62.8125 C 36.878906 62.476562 37.0625 62.015625 37.0625 61.433594 C 37.0625 60.851562 36.882812 60.390625 36.523438 60.054688 C 36.167969 59.722656 35.671875 59.554688 35.042969 59.554688 Z M 33.726562 58.996094 C 33.164062 58.855469 32.722656 58.59375 32.410156 58.207031 C 32.09375 57.820312 31.9375 57.347656 31.9375 56.792969 C 31.9375 56.015625 32.214844 55.402344 32.765625 54.953125 C 33.320312 54.5 34.078125 54.273438 35.042969 54.273438 C 36.011719 54.273438 36.769531 54.5 37.320312 54.953125 C 37.871094 55.402344 38.148438 56.015625 38.148438 56.792969 C 38.148438 57.347656 37.992188 57.820312 37.675781 58.207031 C 37.363281 58.59375 36.925781 58.855469 36.363281 58.996094 C 37 59.140625 37.492188 59.429688 37.84375 59.863281 C 38.199219 60.292969 38.375 60.816406 38.375 61.433594 C 38.375 62.378906 38.085938 63.101562 37.511719 63.605469 C 36.9375 64.109375 36.113281 64.359375 35.042969 64.359375 C 33.972656 64.359375 33.148438 64.109375 32.570312 63.605469 C 31.996094 63.101562 31.707031 62.378906 31.707031 61.433594 C 31.707031 60.816406 31.886719 60.292969 32.242188 59.863281 C 32.597656 59.429688 33.09375 59.140625 33.726562 58.996094 Z M 33.246094 56.917969 C 33.246094 57.421875 33.402344 57.8125 33.71875 58.09375 C 34.03125 58.378906 34.472656 58.519531 35.042969 58.519531 C 35.605469 58.519531 36.050781 58.378906 36.367188 58.09375 C 36.6875 57.8125 36.847656 57.421875 36.847656 56.917969 C 36.847656 56.414062 36.6875 56.019531 36.367188 55.738281 C 36.050781 55.457031 35.605469 55.316406 35.042969 55.316406 C 34.472656 55.316406 34.03125 55.457031 33.71875 55.738281 C 33.402344 56.019531 33.246094 56.414062 33.246094 56.917969 Z M 33.246094 56.917969 "/>
<g clip-path="url(#clip9)" clip-rule="nonzero">
<path style="fill:none;stroke-width:0.8;stroke-linecap:square;stroke-linejoin:round;stroke:rgb(69.01961%,69.01961%,69.01961%);stroke-opacity:1;stroke-miterlimit:4;" d="M 36.46582 13.5 L 231.764648 13.5 " transform="matrix(1.333333,0,0,1.333333,0,0.000000000000014211)"/>
</g>
<path style="fill:none;stroke-width:0.8;stroke-linecap:butt;stroke-linejoin:round;stroke:rgb(0%,0%,0%);stroke-opacity:1;stroke-miterlimit:4;" d="M 0.00019455 -0.000000000000010658 L -3.500782 -0.000000000000010658 " transform="matrix(1.333333,0,0,1.333333,48.620834,18)"/>
<path style=" stroke:none;fill-rule:nonzero;fill:rgb(0%,0%,0%);fill-opacity:1;" d="M 13.835938 14.210938 C 13.160156 14.210938 12.652344 14.542969 12.308594 15.210938 C 11.96875 15.875 11.800781 16.878906 11.800781 18.214844 C 11.800781 19.546875 11.96875 20.546875 12.308594 21.214844 C 12.652344 21.878906 13.160156 22.214844 13.835938 22.214844 C 14.519531 22.214844 15.03125 21.878906 15.371094 21.214844 C 15.710938 20.546875 15.882812 19.546875 15.882812 18.214844 C 15.882812 16.878906 15.710938 15.875 15.371094 15.210938 C 15.03125 14.542969 14.519531 14.210938 13.835938 14.210938 Z M 13.835938 13.167969 C 14.929688 13.167969 15.761719 13.601562 16.335938 14.464844 C 16.910156 15.324219 17.199219 16.574219 17.199219 18.214844 C 17.199219 19.851562 16.910156 21.101562 16.335938 21.964844 C 15.761719 22.824219 14.929688 23.253906 13.835938 23.253906 C 12.75 23.253906 11.917969 22.824219 11.339844 21.964844 C 10.765625 21.101562 10.480469 19.851562 10.480469 18.214844 C 10.480469 16.574219 10.765625 15.324219 11.339844 14.464844 C 11.917969 13.601562 12.75 13.167969 13.835938 13.167969 Z M 13.835938 13.167969 "/>
<path style=" stroke:none;fill-rule:nonzero;fill:rgb(0%,0%,0%);fill-opacity:1;" d="M 19.507812 21.410156 L 20.882812 21.410156 L 20.882812 23.066406 L 19.507812 23.066406 Z M 19.507812 21.410156 "/>
<path style=" stroke:none;fill-rule:nonzero;fill:rgb(0%,0%,0%);fill-opacity:1;" d="M 23.976562 21.960938 L 26.125 21.960938 L 26.125 14.542969 L 23.785156 15.011719 L 23.785156 13.8125 L 26.109375 13.34375 L 27.425781 13.34375 L 27.425781 21.960938 L 29.574219 21.960938 L 29.574219 23.066406 L 23.976562 23.066406 Z M 23.976562 21.960938 "/>
<path style=" stroke:none;fill-rule:nonzero;fill:rgb(0%,0%,0%);fill-opacity:1;" d="M 35.042969 14.210938 C 34.367188 14.210938 33.855469 14.542969 33.515625 15.210938 C 33.175781 15.875 33.003906 16.878906 33.003906 18.214844 C 33.003906 19.546875 33.175781 20.546875 33.515625 21.214844 C 33.855469 21.878906 34.367188 22.214844 35.042969 22.214844 C 35.722656 22.214844 36.234375 21.878906 36.574219 21.214844 C 36.917969 20.546875 37.085938 19.546875 37.085938 18.214844 C 37.085938 16.878906 36.917969 15.875 36.574219 15.210938 C 36.234375 14.542969 35.722656 14.210938 35.042969 14.210938 Z M 35.042969 13.167969 C 36.132812 13.167969 36.964844 13.601562 37.539062 14.464844 C 38.113281 15.324219 38.402344 16.574219 38.402344 18.214844 C 38.402344 19.851562 38.113281 21.101562 37.539062 21.964844 C 36.964844 22.824219 36.132812 23.253906 35.042969 23.253906 C 33.953125 23.253906 33.121094 22.824219 32.546875 21.964844 C 31.972656 21.101562 31.683594 19.851562 31.683594 18.214844 C 31.683594 16.574219 31.972656 15.324219 32.546875 14.464844 C 33.121094 13.601562 33.953125 13.167969 35.042969 13.167969 Z M 35.042969 13.167969 "/>
<path style="fill:none;stroke-width:1.5;stroke-linecap:square;stroke-linejoin:round;stroke:rgb(12.156863%,46.666667%,70.588237%);stroke-opacity:1;stroke-miterlimit:4;" d="M 45.342773 13.5 L 51.46582 58.646484 L 57.588867 78.647461 L 63.708984 90.571289 L 69.832031 98.707031 L 75.955078 104.712891 L 82.075195 109.382812 L 88.198242 113.144531 L 94.321289 116.261719 L 100.444336 118.898437 L 106.564453 121.166016 L 112.6875 123.146484 L 118.810547 124.889648 L 124.933594 126.445312 L 131.053711 127.842773 L 137.176758 129.105469 L 143.299805 130.256836 L 149.419922 131.311523 L 155.542969 132.27832 L 161.666016 133.174805 L 167.789062 134.006836 L 173.90918 134.780273 L 180.032227 135.500977 L 186.155273 136.177734 L 192.27832 136.813477 L 198.398438 137.414062 L 204.521484 137.976562 L 210.644531 138.512695 L 216.764648 139.019531 L 222.887695 139.5 " transform="matrix(1.333333,0,0,1.333333,0,0.000000000000014211)"/>
<path style="fill:none;stroke-width:0.8;stroke-linecap:square;stroke-linejoin:miter;stroke:rgb(0%,0%,0%);stroke-opacity:1;stroke-miterlimit:4;" d="M 36.46582 145.798828 L 36.46582 7.201172 " transform="matrix(1.333333,0,0,1.333333,0,0.000000000000014211)"/>
<path style="fill:none;stroke-width:0.8;stroke-linecap:square;stroke-linejoin:miter;stroke:rgb(0%,0%,0%);stroke-opacity:1;stroke-miterlimit:4;" d="M 231.764648 145.798828 L 231.764648 7.201172 " transform="matrix(1.333333,0,0,1.333333,0,0.000000000000014211)"/>
<path style="fill:none;stroke-width:0.8;stroke-linecap:square;stroke-linejoin:miter;stroke:rgb(0%,0%,0%);stroke-opacity:1;stroke-miterlimit:4;" d="M 36.46582 145.798828 L 231.764648 145.798828 " transform="matrix(1.333333,0,0,1.333333,0,0.000000000000014211)"/>
<path style="fill:none;stroke-width:0.8;stroke-linecap:square;stroke-linejoin:miter;stroke:rgb(0%,0%,0%);stroke-opacity:1;stroke-miterlimit:4;" d="M 36.46582 7.201172 L 231.764648 7.201172 " transform="matrix(1.333333,0,0,1.333333,0,0.000000000000014211)"/>
</g>
</svg>
