<?xml version="1.0" encoding="UTF-8"?>
<svg xmlns="http://www.w3.org/2000/svg" xmlns:xlink="http://www.w3.org/1999/xlink" width="331.654826" height="244.474996" viewBox="0 0 331.654826 244.474996" version="1.1">
<defs>
<clipPath id="clip1">
  <path d="M 69 9.601562 L 71 9.601562 L 71 194.398438 L 69 194.398438 Z M 69 9.601562 "/>
</clipPath>
<clipPath id="clip2">
  <path d="M 117 9.601562 L 119 9.601562 L 119 194.398438 L 117 194.398438 Z M 117 9.601562 "/>
</clipPath>
<clipPath id="clip3">
  <path d="M 165 9.601562 L 167 9.601562 L 167 194.398438 L 165 194.398438 Z M 165 9.601562 "/>
</clipPath>
<clipPath id="clip4">
  <path d="M 212 9.601562 L 215 9.601562 L 215 194.398438 L 212 194.398438 Z M 212 9.601562 "/>
</clipPath>
<clipPath id="clip5">
  <path d="M 260 9.601562 L 263 9.601562 L 263 194.398438 L 260 194.398438 Z M 260 9.601562 "/>
</clipPath>
<clipPath id="clip6">
  <path d="M 308 9.601562 L 311 9.601562 L 311 194.398438 L 308 194.398438 Z M 308 9.601562 "/>
</clipPath>
<clipPath id="clip7">
  <path d="M 58.375 164 L 318.773438 164 L 318.773438 166 L 58.375 166 Z M 58.375 164 "/>
</clipPath>
<clipPath id="clip8">
  <path d="M 58.375 123 L 318.773438 123 L 318.773438 126 L 58.375 126 Z M 58.375 123 "/>
</clipPath>
<clipPath id="clip9">
  <path d="M 58.375 83 L 318.773438 83 L 318.773438 85 L 58.375 85 Z M 58.375 83 "/>
</clipPath>
<clipPath id="clip10">
  <path d="M 58.375 42 L 318.773438 42 L 318.773438 45 L 58.375 45 Z M 58.375 42 "/>
</clipPath>
</defs>
<g id="surface1">
<path style=" stroke:none;fill-rule:nonzero;fill:rgb(100%,100%,100%);fill-opacity:1;" d="M 0 244.476562 L 331.65625 244.476562 L 331.65625 0 L 0 0 Z M 0 244.476562 "/>
<path style=" stroke:none;fill-rule:nonzero;fill:rgb(100%,100%,100%);fill-opacity:1;" d="M 58.375 194.398438 L 318.773438 194.398438 L 318.773438 9.601562 L 58.375 9.601562 Z M 58.375 194.398438 "/>
<g clip-path="url(#clip1)" clip-rule="nonzero">
<path style="fill:none;stroke-width:0.8;stroke-linecap:square;stroke-linejoin:round;stroke:rgb(69.01961%,69.01961%,69.01961%);stroke-opacity:1;stroke-miterlimit:4;" d="M 52.658203 145.798828 L 52.658203 7.201172 " transform="matrix(1.333333,0,0,1.333333,0,-0.000000000000014211)"/>
</g>
<path style="fill:none;stroke-width:0.8;stroke-linecap:butt;stroke-linejoin:round;stroke:rgb(0%,0%,0%);stroke-opacity:1;stroke-miterlimit:4;" d="M -0.000320435 -0.00117493 L -0.000320435 3.499802 " transform="matrix(1.333333,0,0,1.333333,70.211365,194.400004)"/>
<path style=" stroke:none;fill-rule:nonzero;fill:rgb(0%,0%,0%);fill-opacity:1;" d="M 70.207031 205.011719 C 69.53125 205.011719 69.023438 205.34375 68.679688 206.011719 C 68.339844 206.675781 68.167969 207.675781 68.167969 209.015625 C 68.167969 210.347656 68.339844 211.347656 68.679688 212.011719 C 69.023438 212.679688 69.53125 213.011719 70.207031 213.011719 C 70.890625 213.011719 71.398438 212.679688 71.742188 212.011719 C 72.082031 211.347656 72.253906 210.347656 72.253906 209.015625 C 72.253906 207.675781 72.082031 206.675781 71.742188 206.011719 C 71.398438 205.34375 70.890625 205.011719 70.207031 205.011719 Z M 70.207031 203.96875 C 71.296875 203.96875 72.128906 204.398438 72.707031 205.261719 C 73.28125 206.125 73.566406 207.375 73.566406 209.015625 C 73.566406 210.652344 73.28125 211.898438 72.707031 212.761719 C 72.128906 213.625 71.296875 214.054688 70.207031 214.054688 C 69.117188 214.054688 68.285156 213.625 67.710938 212.761719 C 67.136719 211.898438 66.847656 210.652344 66.847656 209.015625 C 66.847656 207.375 67.136719 206.125 67.710938 205.261719 C 68.285156 204.398438 69.117188 203.96875 70.207031 203.96875 Z M 70.207031 203.96875 "/>
<g clip-path="url(#clip2)" clip-rule="nonzero">
<path style="fill:none;stroke-width:0.8;stroke-linecap:square;stroke-linejoin:round;stroke:rgb(69.01961%,69.01961%,69.01961%);stroke-opacity:1;stroke-miterlimit:4;" d="M 88.526367 145.798828 L 88.526367 7.201172 " transform="matrix(1.333333,0,0,1.333333,0,-0.000000000000014211)"/>
</g>
<path style="fill:none;stroke-width:0.8;stroke-linecap:butt;stroke-linejoin:round;stroke:rgb(0%,0%,0%);stroke-opacity:1;stroke-miterlimit:4;" d="M 0.0000762939 -0.00117493 L 0.0000762939 3.499802 " transform="matrix(1.333333,0,0,1.333333,118.035055,194.400004)"/>
<path style=" stroke:none;fill-rule:nonzero;fill:rgb(0%,0%,0%);fill-opacity:1;" d="M 112.109375 212.757812 L 116.699219 212.757812 L 116.699219 213.863281 L 110.527344 213.863281 L 110.527344 212.757812 C 111.027344 212.242188 111.707031 211.546875 112.570312 210.679688 C 113.429688 209.808594 113.972656 209.246094 114.195312 208.992188 C 114.613281 208.523438 114.90625 208.121094 115.074219 207.792969 C 115.242188 207.464844 115.328125 207.144531 115.328125 206.828125 C 115.328125 206.308594 115.144531 205.890625 114.78125 205.566406 C 114.421875 205.238281 113.949219 205.074219 113.367188 205.074219 C 112.953125 205.074219 112.519531 205.148438 112.058594 205.289062 C 111.601562 205.433594 111.113281 205.648438 110.59375 205.941406 L 110.59375 204.613281 C 111.121094 204.398438 111.617188 204.238281 112.078125 204.132812 C 112.539062 204.023438 112.960938 203.96875 113.339844 203.96875 C 114.347656 203.96875 115.152344 204.222656 115.75 204.726562 C 116.347656 205.226562 116.648438 205.898438 116.648438 206.742188 C 116.648438 207.140625 116.574219 207.519531 116.421875 207.878906 C 116.273438 208.234375 116 208.65625 115.605469 209.144531 C 115.496094 209.269531 115.152344 209.632812 114.570312 210.234375 C 113.988281 210.835938 113.167969 211.679688 112.109375 212.757812 Z M 112.109375 212.757812 "/>
<path style=" stroke:none;fill-rule:nonzero;fill:rgb(0%,0%,0%);fill-opacity:1;" d="M 122.273438 205.011719 C 121.597656 205.011719 121.085938 205.34375 120.746094 206.011719 C 120.40625 206.675781 120.234375 207.675781 120.234375 209.015625 C 120.234375 210.347656 120.40625 211.347656 120.746094 212.011719 C 121.085938 212.679688 121.597656 213.011719 122.273438 213.011719 C 122.953125 213.011719 123.464844 212.679688 123.804688 212.011719 C 124.148438 211.347656 124.316406 210.347656 124.316406 209.015625 C 124.316406 207.675781 124.148438 206.675781 123.804688 206.011719 C 123.464844 205.34375 122.953125 205.011719 122.273438 205.011719 Z M 122.273438 203.96875 C 123.363281 203.96875 124.195312 204.398438 124.769531 205.261719 C 125.34375 206.125 125.632812 207.375 125.632812 209.015625 C 125.632812 210.652344 125.34375 211.898438 124.769531 212.761719 C 124.195312 213.625 123.363281 214.054688 122.273438 214.054688 C 121.183594 214.054688 120.351562 213.625 119.777344 212.761719 C 119.203125 211.898438 118.914062 210.652344 118.914062 209.015625 C 118.914062 207.375 119.203125 206.125 119.777344 205.261719 C 120.351562 204.398438 121.183594 203.96875 122.273438 203.96875 Z M 122.273438 203.96875 "/>
<g clip-path="url(#clip3)" clip-rule="nonzero">
<path style="fill:none;stroke-width:0.8;stroke-linecap:square;stroke-linejoin:round;stroke:rgb(69.01961%,69.01961%,69.01961%);stroke-opacity:1;stroke-miterlimit:4;" d="M 124.394531 145.798828 L 124.394531 7.201172 " transform="matrix(1.333333,0,0,1.333333,0,-0.000000000000014211)"/>
</g>
<path style="fill:none;stroke-width:0.8;stroke-linecap:butt;stroke-linejoin:round;stroke:rgb(0%,0%,0%);stroke-opacity:1;stroke-miterlimit:4;" d="M 0.000473022 -0.00117493 L 0.000473022 3.499802 " transform="matrix(1.333333,0,0,1.333333,165.858744,194.400004)"/>
<path style=" stroke:none;fill-rule:nonzero;fill:rgb(0%,0%,0%);fill-opacity:1;" d="M 162.414062 205.289062 L 159.09375 210.480469 L 162.414062 210.480469 Z M 162.070312 204.144531 L 163.722656 204.144531 L 163.722656 210.480469 L 165.109375 210.480469 L 165.109375 211.574219 L 163.722656 211.574219 L 163.722656 213.863281 L 162.414062 213.863281 L 162.414062 211.574219 L 158.027344 211.574219 L 158.027344 210.304688 Z M 162.070312 204.144531 "/>
<path style=" stroke:none;fill-rule:nonzero;fill:rgb(0%,0%,0%);fill-opacity:1;" d="M 170.097656 205.011719 C 169.417969 205.011719 168.910156 205.34375 168.570312 206.011719 C 168.230469 206.675781 168.058594 207.675781 168.058594 209.015625 C 168.058594 210.347656 168.230469 211.347656 168.570312 212.011719 C 168.910156 212.679688 169.417969 213.011719 170.097656 213.011719 C 170.777344 213.011719 171.289062 212.679688 171.628906 212.011719 C 171.972656 211.347656 172.140625 210.347656 172.140625 209.015625 C 172.140625 207.675781 171.972656 206.675781 171.628906 206.011719 C 171.289062 205.34375 170.777344 205.011719 170.097656 205.011719 Z M 170.097656 203.96875 C 171.1875 203.96875 172.019531 204.398438 172.59375 205.261719 C 173.167969 206.125 173.457031 207.375 173.457031 209.015625 C 173.457031 210.652344 173.167969 211.898438 172.59375 212.761719 C 172.019531 213.625 171.1875 214.054688 170.097656 214.054688 C 169.007812 214.054688 168.175781 213.625 167.601562 212.761719 C 167.023438 211.898438 166.738281 210.652344 166.738281 209.015625 C 166.738281 207.375 167.023438 206.125 167.601562 205.261719 C 168.175781 204.398438 169.007812 203.96875 170.097656 203.96875 Z M 170.097656 203.96875 "/>
<g clip-path="url(#clip4)" clip-rule="nonzero">
<path style="fill:none;stroke-width:0.8;stroke-linecap:square;stroke-linejoin:round;stroke:rgb(69.01961%,69.01961%,69.01961%);stroke-opacity:1;stroke-miterlimit:4;" d="M 160.262695 145.798828 L 160.262695 7.201172 " transform="matrix(1.333333,0,0,1.333333,0,-0.000000000000014211)"/>
</g>
<path style="fill:none;stroke-width:0.8;stroke-linecap:butt;stroke-linejoin:round;stroke:rgb(0%,0%,0%);stroke-opacity:1;stroke-miterlimit:4;" d="M 0.000869751 -0.00117493 L 0.000869751 3.499802 " transform="matrix(1.333333,0,0,1.333333,213.682434,194.400004)"/>
<path style=" stroke:none;fill-rule:nonzero;fill:rgb(0%,0%,0%);fill-opacity:1;" d="M 209.601562 208.480469 C 209.011719 208.480469 208.542969 208.683594 208.195312 209.085938 C 207.851562 209.492188 207.679688 210.042969 207.679688 210.746094 C 207.679688 211.445312 207.851562 211.996094 208.195312 212.402344 C 208.542969 212.808594 209.011719 213.011719 209.601562 213.011719 C 210.191406 213.011719 210.660156 212.808594 211.003906 212.402344 C 211.347656 211.996094 211.519531 211.445312 211.519531 210.746094 C 211.519531 210.042969 211.347656 209.492188 211.003906 209.085938 C 210.660156 208.683594 210.191406 208.480469 209.601562 208.480469 Z M 212.210938 204.359375 L 212.210938 205.554688 C 211.882812 205.402344 211.546875 205.28125 211.210938 205.199219 C 210.875 205.117188 210.542969 205.074219 210.210938 205.074219 C 209.34375 205.074219 208.679688 205.367188 208.222656 205.953125 C 207.765625 206.539062 207.503906 207.425781 207.4375 208.609375 C 207.695312 208.234375 208.015625 207.941406 208.402344 207.742188 C 208.789062 207.539062 209.214844 207.441406 209.679688 207.441406 C 210.65625 207.441406 211.425781 207.734375 211.992188 208.328125 C 212.558594 208.921875 212.84375 209.726562 212.84375 210.746094 C 212.84375 211.746094 212.546875 212.546875 211.957031 213.148438 C 211.367188 213.753906 210.582031 214.054688 209.601562 214.054688 C 208.476562 214.054688 207.617188 213.625 207.023438 212.761719 C 206.425781 211.898438 206.128906 210.652344 206.128906 209.015625 C 206.128906 207.476562 206.496094 206.253906 207.222656 205.339844 C 207.953125 204.425781 208.933594 203.96875 210.160156 203.96875 C 210.488281 203.96875 210.824219 204 211.160156 204.066406 C 211.496094 204.132812 211.847656 204.230469 212.210938 204.359375 Z M 212.210938 204.359375 "/>
<path style=" stroke:none;fill-rule:nonzero;fill:rgb(0%,0%,0%);fill-opacity:1;" d="M 217.917969 205.011719 C 217.242188 205.011719 216.734375 205.34375 216.394531 206.011719 C 216.050781 206.675781 215.882812 207.675781 215.882812 209.015625 C 215.882812 210.347656 216.050781 211.347656 216.394531 212.011719 C 216.734375 212.679688 217.242188 213.011719 217.917969 213.011719 C 218.601562 213.011719 219.113281 212.679688 219.453125 212.011719 C 219.792969 211.347656 219.964844 210.347656 219.964844 209.015625 C 219.964844 207.675781 219.792969 206.675781 219.453125 206.011719 C 219.113281 205.34375 218.601562 205.011719 217.917969 205.011719 Z M 217.917969 203.96875 C 219.011719 203.96875 219.84375 204.398438 220.417969 205.261719 C 220.992188 206.125 221.28125 207.375 221.28125 209.015625 C 221.28125 210.652344 220.992188 211.898438 220.417969 212.761719 C 219.84375 213.625 219.011719 214.054688 217.917969 214.054688 C 216.832031 214.054688 216 213.625 215.425781 212.761719 C 214.847656 211.898438 214.5625 210.652344 214.5625 209.015625 C 214.5625 207.375 214.847656 206.125 215.425781 205.261719 C 216 204.398438 216.832031 203.96875 217.917969 203.96875 Z M 217.917969 203.96875 "/>
<g clip-path="url(#clip5)" clip-rule="nonzero">
<path style="fill:none;stroke-width:0.8;stroke-linecap:square;stroke-linejoin:round;stroke:rgb(69.01961%,69.01961%,69.01961%);stroke-opacity:1;stroke-miterlimit:4;" d="M 196.130859 145.798828 L 196.130859 7.201172 " transform="matrix(1.333333,0,0,1.333333,0,-0.000000000000014211)"/>
</g>
<path style="fill:none;stroke-width:0.8;stroke-linecap:butt;stroke-linejoin:round;stroke:rgb(0%,0%,0%);stroke-opacity:1;stroke-miterlimit:4;" d="M 0.00126648 -0.00117493 L 0.00126648 3.499802 " transform="matrix(1.333333,0,0,1.333333,261.506124,194.400004)"/>
<path style=" stroke:none;fill-rule:nonzero;fill:rgb(0%,0%,0%);fill-opacity:1;" d="M 257.261719 209.246094 C 256.636719 209.246094 256.144531 209.414062 255.785156 209.75 C 255.429688 210.085938 255.25 210.542969 255.25 211.128906 C 255.25 211.714844 255.429688 212.175781 255.785156 212.511719 C 256.144531 212.84375 256.636719 213.011719 257.261719 213.011719 C 257.886719 213.011719 258.378906 212.84375 258.738281 212.507812 C 259.097656 212.171875 259.277344 211.710938 259.277344 211.128906 C 259.277344 210.542969 259.101562 210.085938 258.742188 209.75 C 258.382812 209.414062 257.890625 209.246094 257.261719 209.246094 Z M 255.945312 208.691406 C 255.382812 208.550781 254.941406 208.289062 254.628906 207.902344 C 254.3125 207.515625 254.15625 207.042969 254.15625 206.488281 C 254.15625 205.710938 254.433594 205.097656 254.984375 204.644531 C 255.539062 204.195312 256.296875 203.96875 257.261719 203.96875 C 258.226562 203.96875 258.988281 204.195312 259.539062 204.644531 C 260.089844 205.097656 260.367188 205.710938 260.367188 206.488281 C 260.367188 207.042969 260.207031 207.515625 259.894531 207.902344 C 259.578125 208.289062 259.144531 208.550781 258.582031 208.691406 C 259.214844 208.835938 259.710938 209.125 260.0625 209.554688 C 260.417969 209.984375 260.59375 210.507812 260.59375 211.128906 C 260.59375 212.070312 260.304688 212.796875 259.730469 213.300781 C 259.15625 213.804688 258.332031 214.054688 257.261719 214.054688 C 256.191406 214.054688 255.367188 213.804688 254.789062 213.300781 C 254.214844 212.796875 253.925781 212.070312 253.925781 211.128906 C 253.925781 210.507812 254.105469 209.984375 254.460938 209.554688 C 254.816406 209.125 255.3125 208.835938 255.945312 208.691406 Z M 255.464844 206.613281 C 255.464844 207.117188 255.621094 207.507812 255.933594 207.789062 C 256.25 208.070312 256.691406 208.210938 257.261719 208.210938 C 257.824219 208.210938 258.265625 208.070312 258.585938 207.789062 C 258.90625 207.507812 259.066406 207.117188 259.066406 206.613281 C 259.066406 206.109375 258.90625 205.714844 258.585938 205.433594 C 258.265625 205.152344 257.824219 205.011719 257.261719 205.011719 C 256.691406 205.011719 256.25 205.152344 255.933594 205.433594 C 255.621094 205.714844 255.464844 206.109375 255.464844 206.613281 Z M 255.464844 206.613281 "/>
<path style=" stroke:none;fill-rule:nonzero;fill:rgb(0%,0%,0%);fill-opacity:1;" d="M 265.742188 205.011719 C 265.066406 205.011719 264.558594 205.34375 264.214844 206.011719 C 263.875 206.675781 263.707031 207.675781 263.707031 209.015625 C 263.707031 210.347656 263.875 211.347656 264.214844 212.011719 C 264.558594 212.679688 265.066406 213.011719 265.742188 213.011719 C 266.425781 213.011719 266.9375 212.679688 267.277344 212.011719 C 267.617188 211.347656 267.789062 210.347656 267.789062 209.015625 C 267.789062 207.675781 267.617188 206.675781 267.277344 206.011719 C 266.9375 205.34375 266.425781 205.011719 265.742188 205.011719 Z M 265.742188 203.96875 C 266.832031 203.96875 267.667969 204.398438 268.242188 205.261719 C 268.816406 206.125 269.105469 207.375 269.105469 209.015625 C 269.105469 210.652344 268.816406 211.898438 268.242188 212.761719 C 267.667969 213.625 266.832031 214.054688 265.742188 214.054688 C 264.65625 214.054688 263.824219 213.625 263.246094 212.761719 C 262.671875 211.898438 262.386719 210.652344 262.386719 209.015625 C 262.386719 207.375 262.671875 206.125 263.246094 205.261719 C 263.824219 204.398438 264.65625 203.96875 265.742188 203.96875 Z M 265.742188 203.96875 "/>
<g clip-path="url(#clip6)" clip-rule="nonzero">
<path style="fill:none;stroke-width:0.8;stroke-linecap:square;stroke-linejoin:round;stroke:rgb(69.01961%,69.01961%,69.01961%);stroke-opacity:1;stroke-miterlimit:4;" d="M 231.996094 145.798828 L 231.996094 7.201172 " transform="matrix(1.333333,0,0,1.333333,0,-0.000000000000014211)"/>
</g>
<path style="fill:none;stroke-width:0.8;stroke-linecap:butt;stroke-linejoin:round;stroke:rgb(0%,0%,0%);stroke-opacity:1;stroke-miterlimit:4;" d="M -0.00126648 -0.00117493 L -0.00126648 3.499802 " transform="matrix(1.333333,0,0,1.333333,309.329814,194.400004)"/>
<path style=" stroke:none;fill-rule:nonzero;fill:rgb(0%,0%,0%);fill-opacity:1;" d="M 298.257812 212.757812 L 300.40625 212.757812 L 300.40625 205.339844 L 298.070312 205.808594 L 298.070312 204.613281 L 300.394531 204.144531 L 301.710938 204.144531 L 301.710938 212.757812 L 303.855469 212.757812 L 303.855469 213.863281 L 298.257812 213.863281 Z M 298.257812 212.757812 "/>
<path style=" stroke:none;fill-rule:nonzero;fill:rgb(0%,0%,0%);fill-opacity:1;" d="M 309.324219 205.011719 C 308.648438 205.011719 308.140625 205.34375 307.796875 206.011719 C 307.457031 206.675781 307.289062 207.675781 307.289062 209.015625 C 307.289062 210.347656 307.457031 211.347656 307.796875 212.011719 C 308.140625 212.679688 308.648438 213.011719 309.324219 213.011719 C 310.007812 213.011719 310.519531 212.679688 310.859375 212.011719 C 311.199219 211.347656 311.371094 210.347656 311.371094 209.015625 C 311.371094 207.675781 311.199219 206.675781 310.859375 206.011719 C 310.519531 205.34375 310.007812 205.011719 309.324219 205.011719 Z M 309.324219 203.96875 C 310.414062 203.96875 311.25 204.398438 311.824219 205.261719 C 312.398438 206.125 312.6875 207.375 312.6875 209.015625 C 312.6875 210.652344 312.398438 211.898438 311.824219 212.761719 C 311.25 213.625 310.414062 214.054688 309.324219 214.054688 C 308.238281 214.054688 307.40625 213.625 306.828125 212.761719 C 306.253906 211.898438 305.96875 210.652344 305.96875 209.015625 C 305.96875 207.375 306.253906 206.125 306.828125 205.261719 C 307.40625 204.398438 308.238281 203.96875 309.324219 203.96875 Z M 309.324219 203.96875 "/>
<path style=" stroke:none;fill-rule:nonzero;fill:rgb(0%,0%,0%);fill-opacity:1;" d="M 317.808594 205.011719 C 317.132812 205.011719 316.625 205.34375 316.28125 206.011719 C 315.941406 206.675781 315.769531 207.675781 315.769531 209.015625 C 315.769531 210.347656 315.941406 211.347656 316.28125 212.011719 C 316.625 212.679688 317.132812 213.011719 317.808594 213.011719 C 318.492188 213.011719 319 212.679688 319.34375 212.011719 C 319.683594 211.347656 319.855469 210.347656 319.855469 209.015625 C 319.855469 207.675781 319.683594 206.675781 319.34375 206.011719 C 319 205.34375 318.492188 205.011719 317.808594 205.011719 Z M 317.808594 203.96875 C 318.898438 203.96875 319.730469 204.398438 320.304688 205.261719 C 320.882812 206.125 321.167969 207.375 321.167969 209.015625 C 321.167969 210.652344 320.882812 211.898438 320.304688 212.761719 C 319.730469 213.625 318.898438 214.054688 317.808594 214.054688 C 316.71875 214.054688 315.886719 213.625 315.3125 212.761719 C 314.738281 211.898438 314.449219 210.652344 314.449219 209.015625 C 314.449219 207.375 314.738281 206.125 315.3125 205.261719 C 315.886719 204.398438 316.71875 203.96875 317.808594 203.96875 Z M 317.808594 203.96875 "/>
<path style=" stroke:none;fill-rule:nonzero;fill:rgb(0%,0%,0%);fill-opacity:1;" d="M 161.605469 222.382812 L 162.917969 222.382812 L 162.917969 232.101562 L 161.605469 232.101562 Z M 161.605469 222.382812 "/>
<path style=" stroke:none;fill-rule:nonzero;fill:rgb(0%,0%,0%);fill-opacity:1;" d="M 166.671875 222.738281 L 166.671875 224.808594 L 169.136719 224.808594 L 169.136719 225.742188 L 166.671875 225.742188 L 166.671875 229.699219 C 166.671875 230.292969 166.753906 230.675781 166.914062 230.847656 C 167.078125 231.015625 167.410156 231.101562 167.910156 231.101562 L 169.136719 231.101562 L 169.136719 232.101562 L 167.910156 232.101562 C 166.984375 232.101562 166.34375 231.929688 165.992188 231.585938 C 165.640625 231.238281 165.464844 230.609375 165.464844 229.699219 L 165.464844 225.742188 L 164.585938 225.742188 L 164.585938 224.808594 L 165.464844 224.808594 L 165.464844 222.738281 Z M 166.671875 222.738281 "/>
<path style=" stroke:none;fill-rule:nonzero;fill:rgb(0%,0%,0%);fill-opacity:1;" d="M 176.949219 228.15625 L 176.949219 228.742188 L 171.441406 228.742188 C 171.496094 229.566406 171.742188 230.195312 172.1875 230.628906 C 172.632812 231.058594 173.253906 231.273438 174.046875 231.273438 C 174.507812 231.273438 174.953125 231.21875 175.382812 231.105469 C 175.816406 230.992188 176.246094 230.824219 176.671875 230.597656 L 176.671875 231.730469 C 176.242188 231.914062 175.800781 232.050781 175.347656 232.148438 C 174.898438 232.242188 174.441406 232.292969 173.976562 232.292969 C 172.8125 232.292969 171.890625 231.953125 171.210938 231.277344 C 170.53125 230.597656 170.191406 229.683594 170.191406 228.527344 C 170.191406 227.335938 170.515625 226.386719 171.160156 225.6875 C 171.804688 224.984375 172.671875 224.636719 173.765625 224.636719 C 174.746094 224.636719 175.523438 224.953125 176.09375 225.582031 C 176.664062 226.214844 176.949219 227.070312 176.949219 228.15625 Z M 175.753906 227.804688 C 175.746094 227.148438 175.5625 226.628906 175.203125 226.238281 C 174.84375 225.847656 174.371094 225.648438 173.78125 225.648438 C 173.113281 225.648438 172.578125 225.839844 172.175781 226.214844 C 171.773438 226.59375 171.542969 227.125 171.480469 227.8125 Z M 175.753906 227.804688 "/>
<path style=" stroke:none;fill-rule:nonzero;fill:rgb(0%,0%,0%);fill-opacity:1;" d="M 183.140625 225.929688 C 183.007812 225.851562 182.859375 225.792969 182.703125 225.757812 C 182.542969 225.722656 182.371094 225.703125 182.179688 225.703125 C 181.5 225.703125 180.980469 225.921875 180.617188 226.363281 C 180.257812 226.804688 180.074219 227.433594 180.074219 228.261719 L 180.074219 232.101562 L 178.871094 232.101562 L 178.871094 224.808594 L 180.074219 224.808594 L 180.074219 225.945312 C 180.328125 225.5 180.65625 225.171875 181.058594 224.957031 C 181.460938 224.742188 181.953125 224.636719 182.53125 224.636719 C 182.613281 224.636719 182.703125 224.640625 182.804688 224.652344 C 182.902344 224.660156 183.015625 224.679688 183.136719 224.699219 Z M 183.140625 225.929688 "/>
<path style=" stroke:none;fill-rule:nonzero;fill:rgb(0%,0%,0%);fill-opacity:1;" d="M 187.710938 228.4375 C 186.746094 228.4375 186.074219 228.546875 185.699219 228.769531 C 185.328125 228.988281 185.140625 229.367188 185.140625 229.902344 C 185.140625 230.328125 185.28125 230.664062 185.5625 230.914062 C 185.839844 231.164062 186.222656 231.289062 186.703125 231.289062 C 187.367188 231.289062 187.902344 231.050781 188.300781 230.582031 C 188.703125 230.109375 188.90625 229.484375 188.90625 228.703125 L 188.90625 228.4375 Z M 190.101562 227.941406 L 190.101562 232.101562 L 188.90625 232.101562 L 188.90625 230.996094 C 188.628906 231.4375 188.289062 231.765625 187.882812 231.976562 C 187.472656 232.1875 186.972656 232.292969 186.382812 232.292969 C 185.636719 232.292969 185.042969 232.082031 184.601562 231.664062 C 184.160156 231.242188 183.941406 230.683594 183.941406 229.980469 C 183.941406 229.160156 184.214844 228.542969 184.765625 228.125 C 185.316406 227.707031 186.132812 227.5 187.222656 227.5 L 188.90625 227.5 L 188.90625 227.382812 C 188.90625 226.828125 188.722656 226.402344 188.359375 226.101562 C 188 225.800781 187.488281 225.648438 186.832031 225.648438 C 186.417969 225.648438 186.011719 225.699219 185.613281 225.800781 C 185.21875 225.898438 184.839844 226.050781 184.476562 226.25 L 184.476562 225.140625 C 184.914062 224.972656 185.339844 224.847656 185.753906 224.761719 C 186.164062 224.679688 186.566406 224.636719 186.957031 224.636719 C 188.011719 224.636719 188.800781 224.910156 189.320312 225.457031 C 189.84375 226.003906 190.101562 226.832031 190.101562 227.941406 Z M 190.101562 227.941406 "/>
<path style=" stroke:none;fill-rule:nonzero;fill:rgb(0%,0%,0%);fill-opacity:1;" d="M 193.753906 222.738281 L 193.753906 224.808594 L 196.222656 224.808594 L 196.222656 225.742188 L 193.753906 225.742188 L 193.753906 229.699219 C 193.753906 230.292969 193.835938 230.675781 193.996094 230.847656 C 194.160156 231.015625 194.492188 231.101562 194.992188 231.101562 L 196.222656 231.101562 L 196.222656 232.101562 L 194.992188 232.101562 C 194.066406 232.101562 193.429688 231.929688 193.078125 231.585938 C 192.726562 231.238281 192.550781 230.609375 192.550781 229.699219 L 192.550781 225.742188 L 191.671875 225.742188 L 191.671875 224.808594 L 192.550781 224.808594 L 192.550781 222.738281 Z M 193.753906 222.738281 "/>
<path style=" stroke:none;fill-rule:nonzero;fill:rgb(0%,0%,0%);fill-opacity:1;" d="M 197.796875 224.808594 L 198.996094 224.808594 L 198.996094 232.101562 L 197.796875 232.101562 Z M 197.796875 221.972656 L 198.996094 221.972656 L 198.996094 223.488281 L 197.796875 223.488281 Z M 197.796875 221.972656 "/>
<path style=" stroke:none;fill-rule:nonzero;fill:rgb(0%,0%,0%);fill-opacity:1;" d="M 204.324219 225.648438 C 203.683594 225.648438 203.175781 225.902344 202.804688 226.402344 C 202.429688 226.902344 202.242188 227.589844 202.242188 228.460938 C 202.242188 229.335938 202.429688 230.023438 202.800781 230.523438 C 203.171875 231.023438 203.679688 231.273438 204.324219 231.273438 C 204.964844 231.273438 205.46875 231.023438 205.84375 230.519531 C 206.214844 230.015625 206.402344 229.332031 206.402344 228.460938 C 206.402344 227.597656 206.214844 226.914062 205.84375 226.410156 C 205.46875 225.902344 204.964844 225.648438 204.324219 225.648438 Z M 204.324219 224.636719 C 205.367188 224.636719 206.1875 224.972656 206.78125 225.652344 C 207.375 226.328125 207.675781 227.265625 207.675781 228.460938 C 207.675781 229.65625 207.375 230.59375 206.78125 231.273438 C 206.1875 231.953125 205.367188 232.292969 204.324219 232.292969 C 203.28125 232.292969 202.460938 231.953125 201.867188 231.273438 C 201.277344 230.59375 200.980469 229.65625 200.980469 228.460938 C 200.980469 227.265625 201.277344 226.328125 201.867188 225.652344 C 202.460938 224.972656 203.28125 224.636719 204.324219 224.636719 Z M 204.324219 224.636719 "/>
<path style=" stroke:none;fill-rule:nonzero;fill:rgb(0%,0%,0%);fill-opacity:1;" d="M 215.722656 227.699219 L 215.722656 232.101562 L 214.523438 232.101562 L 214.523438 227.738281 C 214.523438 227.050781 214.386719 226.535156 214.117188 226.191406 C 213.847656 225.847656 213.445312 225.675781 212.910156 225.675781 C 212.261719 225.675781 211.75 225.882812 211.378906 226.296875 C 211.003906 226.707031 210.816406 227.269531 210.816406 227.980469 L 210.816406 232.101562 L 209.613281 232.101562 L 209.613281 224.808594 L 210.816406 224.808594 L 210.816406 225.945312 C 211.105469 225.503906 211.441406 225.175781 211.828125 224.960938 C 212.21875 224.742188 212.667969 224.636719 213.175781 224.636719 C 214.011719 224.636719 214.644531 224.894531 215.074219 225.414062 C 215.503906 225.929688 215.722656 226.691406 215.722656 227.699219 Z M 215.722656 227.699219 "/>
<g clip-path="url(#clip7)" clip-rule="nonzero">
<path style="fill:none;stroke-width:0.8;stroke-linecap:square;stroke-linejoin:round;stroke:rgb(69.01961%,69.01961%,69.01961%);stroke-opacity:1;stroke-miterlimit:4;" d="M 43.78125 123.893555 L 239.080078 123.893555 " transform="matrix(1.333333,0,0,1.333333,0,-0.000000000000014211)"/>
</g>
<path style="fill:none;stroke-width:0.8;stroke-linecap:butt;stroke-linejoin:round;stroke:rgb(0%,0%,0%);stroke-opacity:1;stroke-miterlimit:4;" d="M -0.000000000000007105 -0.00138855 L -3.500977 -0.00138855 " transform="matrix(1.333333,0,0,1.333333,58.375,165.193258)"/>
<path style=" stroke:none;fill-rule:nonzero;fill:rgb(0%,0%,0%);fill-opacity:1;" d="M 30.394531 169.152344 L 34.984375 169.152344 L 34.984375 170.257812 L 28.816406 170.257812 L 28.816406 169.152344 C 29.3125 168.636719 29.992188 167.941406 30.855469 167.074219 C 31.714844 166.203125 32.257812 165.640625 32.480469 165.386719 C 32.898438 164.914062 33.195312 164.515625 33.359375 164.1875 C 33.527344 163.859375 33.613281 163.539062 33.613281 163.222656 C 33.613281 162.703125 33.429688 162.285156 33.070312 161.957031 C 32.707031 161.632812 32.234375 161.46875 31.652344 161.46875 C 31.238281 161.46875 30.804688 161.539062 30.347656 161.683594 C 29.890625 161.828125 29.398438 162.042969 28.878906 162.335938 L 28.878906 161.007812 C 29.410156 160.792969 29.902344 160.632812 30.363281 160.527344 C 30.824219 160.417969 31.246094 160.363281 31.628906 160.363281 C 32.632812 160.363281 33.4375 160.613281 34.035156 161.121094 C 34.632812 161.621094 34.933594 162.292969 34.933594 163.136719 C 34.933594 163.535156 34.859375 163.914062 34.707031 164.273438 C 34.558594 164.628906 34.289062 165.050781 33.890625 165.539062 C 33.785156 165.664062 33.4375 166.027344 32.855469 166.628906 C 32.277344 167.230469 31.457031 168.070312 30.394531 169.152344 Z M 30.394531 169.152344 "/>
<path style=" stroke:none;fill-rule:nonzero;fill:rgb(0%,0%,0%);fill-opacity:1;" d="M 37.746094 168.605469 L 39.121094 168.605469 L 39.121094 170.257812 L 37.746094 170.257812 Z M 37.746094 168.605469 "/>
<path style=" stroke:none;fill-rule:nonzero;fill:rgb(0%,0%,0%);fill-opacity:1;" d="M 42.214844 169.152344 L 44.359375 169.152344 L 44.359375 161.734375 L 42.023438 162.203125 L 42.023438 161.007812 L 44.347656 160.539062 L 45.664062 160.539062 L 45.664062 169.152344 L 47.8125 169.152344 L 47.8125 170.257812 L 42.214844 170.257812 Z M 42.214844 169.152344 "/>
<g clip-path="url(#clip8)" clip-rule="nonzero">
<path style="fill:none;stroke-width:0.8;stroke-linecap:square;stroke-linejoin:round;stroke:rgb(69.01961%,69.01961%,69.01961%);stroke-opacity:1;stroke-miterlimit:4;" d="M 43.78125 93.436523 L 239.080078 93.436523 " transform="matrix(1.333333,0,0,1.333333,0,-0.000000000000014211)"/>
</g>
<path style="fill:none;stroke-width:0.8;stroke-linecap:butt;stroke-linejoin:round;stroke:rgb(0%,0%,0%);stroke-opacity:1;stroke-miterlimit:4;" d="M -0.000000000000007105 0.000152588 L -3.500977 0.000152588 " transform="matrix(1.333333,0,0,1.333333,58.375,124.581828)"/>
<path style=" stroke:none;fill-rule:nonzero;fill:rgb(0%,0%,0%);fill-opacity:1;" d="M 30.394531 128.542969 L 34.984375 128.542969 L 34.984375 129.648438 L 28.816406 129.648438 L 28.816406 128.542969 C 29.3125 128.023438 29.992188 127.332031 30.855469 126.460938 C 31.714844 125.589844 32.257812 125.03125 32.480469 124.777344 C 32.898438 124.304688 33.195312 123.90625 33.359375 123.578125 C 33.527344 123.25 33.613281 122.925781 33.613281 122.609375 C 33.613281 122.09375 33.429688 121.671875 33.070312 121.347656 C 32.707031 121.019531 32.234375 120.859375 31.652344 120.859375 C 31.238281 120.859375 30.804688 120.929688 30.347656 121.074219 C 29.890625 121.214844 29.398438 121.433594 28.878906 121.722656 L 28.878906 120.394531 C 29.410156 120.183594 29.902344 120.023438 30.363281 119.914062 C 30.824219 119.804688 31.246094 119.75 31.628906 119.75 C 32.632812 119.75 33.4375 120.003906 34.035156 120.507812 C 34.632812 121.011719 34.933594 121.683594 34.933594 122.523438 C 34.933594 122.925781 34.859375 123.304688 34.707031 123.660156 C 34.558594 124.019531 34.289062 124.441406 33.890625 124.925781 C 33.785156 125.054688 33.4375 125.417969 32.855469 126.019531 C 32.277344 126.621094 31.457031 127.460938 30.394531 128.542969 Z M 30.394531 128.542969 "/>
<path style=" stroke:none;fill-rule:nonzero;fill:rgb(0%,0%,0%);fill-opacity:1;" d="M 37.746094 127.992188 L 39.121094 127.992188 L 39.121094 129.648438 L 37.746094 129.648438 Z M 37.746094 127.992188 "/>
<path style=" stroke:none;fill-rule:nonzero;fill:rgb(0%,0%,0%);fill-opacity:1;" d="M 43.117188 128.542969 L 47.707031 128.542969 L 47.707031 129.648438 L 41.535156 129.648438 L 41.535156 128.542969 C 42.035156 128.023438 42.714844 127.332031 43.574219 126.460938 C 44.4375 125.589844 44.980469 125.03125 45.199219 124.777344 C 45.621094 124.304688 45.914062 123.90625 46.082031 123.578125 C 46.25 123.25 46.332031 122.925781 46.332031 122.609375 C 46.332031 122.09375 46.152344 121.671875 45.789062 121.347656 C 45.425781 121.019531 44.957031 120.859375 44.375 120.859375 C 43.960938 120.859375 43.527344 120.929688 43.066406 121.074219 C 42.609375 121.214844 42.121094 121.433594 41.601562 121.722656 L 41.601562 120.394531 C 42.128906 120.183594 42.625 120.023438 43.082031 119.914062 C 43.546875 119.804688 43.964844 119.75 44.347656 119.75 C 45.355469 119.75 46.15625 120.003906 46.757812 120.507812 C 47.355469 121.011719 47.65625 121.683594 47.65625 122.523438 C 47.65625 122.925781 47.578125 123.304688 47.429688 123.660156 C 47.28125 124.019531 47.007812 124.441406 46.613281 124.925781 C 46.503906 125.054688 46.160156 125.417969 45.578125 126.019531 C 44.996094 126.621094 44.175781 127.460938 43.117188 128.542969 Z M 43.117188 128.542969 "/>
<g clip-path="url(#clip9)" clip-rule="nonzero">
<path style="fill:none;stroke-width:0.8;stroke-linecap:square;stroke-linejoin:round;stroke:rgb(69.01961%,69.01961%,69.01961%);stroke-opacity:1;stroke-miterlimit:4;" d="M 43.78125 62.976562 L 239.080078 62.976562 " transform="matrix(1.333333,0,0,1.333333,0,-0.000000000000014211)"/>
</g>
<path style="fill:none;stroke-width:0.8;stroke-linecap:butt;stroke-linejoin:round;stroke:rgb(0%,0%,0%);stroke-opacity:1;stroke-miterlimit:4;" d="M -0.000000000000007105 -0.00123215 L -3.500977 -0.00123215 " transform="matrix(1.333333,0,0,1.333333,58.375,83.970393)"/>
<path style=" stroke:none;fill-rule:nonzero;fill:rgb(0%,0%,0%);fill-opacity:1;" d="M 30.394531 87.929688 L 34.984375 87.929688 L 34.984375 89.035156 L 28.816406 89.035156 L 28.816406 87.929688 C 29.3125 87.414062 29.992188 86.71875 30.855469 85.851562 C 31.714844 84.980469 32.257812 84.417969 32.480469 84.164062 C 32.898438 83.691406 33.195312 83.292969 33.359375 82.964844 C 33.527344 82.636719 33.613281 82.316406 33.613281 82 C 33.613281 81.480469 33.429688 81.0625 33.070312 80.734375 C 32.707031 80.410156 32.234375 80.246094 31.652344 80.246094 C 31.238281 80.246094 30.804688 80.316406 30.347656 80.460938 C 29.890625 80.605469 29.398438 80.820312 28.878906 81.113281 L 28.878906 79.785156 C 29.410156 79.570312 29.902344 79.410156 30.363281 79.300781 C 30.824219 79.195312 31.246094 79.140625 31.628906 79.140625 C 32.632812 79.140625 33.4375 79.390625 34.035156 79.894531 C 34.632812 80.398438 34.933594 81.070312 34.933594 81.914062 C 34.933594 82.3125 34.859375 82.691406 34.707031 83.050781 C 34.558594 83.40625 34.289062 83.828125 33.890625 84.316406 C 33.785156 84.441406 33.4375 84.804688 32.855469 85.40625 C 32.277344 86.007812 31.457031 86.847656 30.394531 87.929688 Z M 30.394531 87.929688 "/>
<path style=" stroke:none;fill-rule:nonzero;fill:rgb(0%,0%,0%);fill-opacity:1;" d="M 37.746094 87.382812 L 39.121094 87.382812 L 39.121094 89.035156 L 37.746094 89.035156 Z M 37.746094 87.382812 "/>
<path style=" stroke:none;fill-rule:nonzero;fill:rgb(0%,0%,0%);fill-opacity:1;" d="M 45.96875 83.792969 C 46.597656 83.929688 47.089844 84.210938 47.441406 84.636719 C 47.796875 85.0625 47.972656 85.585938 47.972656 86.210938 C 47.972656 87.167969 47.644531 87.910156 46.984375 88.4375 C 46.324219 88.964844 45.386719 89.226562 44.171875 89.226562 C 43.765625 89.226562 43.34375 89.183594 42.914062 89.105469 C 42.480469 89.023438 42.035156 88.902344 41.574219 88.742188 L 41.574219 87.472656 C 41.9375 87.6875 42.339844 87.847656 42.769531 87.953125 C 43.207031 88.0625 43.660156 88.117188 44.132812 88.117188 C 44.957031 88.117188 45.585938 87.953125 46.015625 87.628906 C 46.449219 87.304688 46.664062 86.832031 46.664062 86.210938 C 46.664062 85.636719 46.464844 85.191406 46.0625 84.867188 C 45.660156 84.542969 45.101562 84.382812 44.386719 84.382812 L 43.253906 84.382812 L 43.253906 83.300781 L 44.441406 83.300781 C 45.085938 83.300781 45.582031 83.171875 45.921875 82.914062 C 46.265625 82.65625 46.4375 82.28125 46.4375 81.796875 C 46.4375 81.296875 46.261719 80.914062 45.90625 80.648438 C 45.554688 80.378906 45.046875 80.246094 44.386719 80.246094 C 44.027344 80.246094 43.640625 80.285156 43.226562 80.363281 C 42.816406 80.441406 42.363281 80.5625 41.867188 80.726562 L 41.867188 79.558594 C 42.367188 79.417969 42.835938 79.3125 43.269531 79.246094 C 43.707031 79.175781 44.117188 79.140625 44.503906 79.140625 C 45.503906 79.140625 46.292969 79.367188 46.875 79.820312 C 47.457031 80.273438 47.746094 80.886719 47.746094 81.660156 C 47.746094 82.199219 47.59375 82.652344 47.285156 83.023438 C 46.976562 83.394531 46.539062 83.652344 45.96875 83.792969 Z M 45.96875 83.792969 "/>
<g clip-path="url(#clip10)" clip-rule="nonzero">
<path style="fill:none;stroke-width:0.8;stroke-linecap:square;stroke-linejoin:round;stroke:rgb(69.01961%,69.01961%,69.01961%);stroke-opacity:1;stroke-miterlimit:4;" d="M 43.78125 32.519531 L 239.080078 32.519531 " transform="matrix(1.333333,0,0,1.333333,0,-0.000000000000014211)"/>
</g>
<path style="fill:none;stroke-width:0.8;stroke-linecap:butt;stroke-linejoin:round;stroke:rgb(0%,0%,0%);stroke-opacity:1;stroke-miterlimit:4;" d="M -0.000000000000007105 0.000312805 L -3.500977 0.000312805 " transform="matrix(1.333333,0,0,1.333333,58.375,43.358958)"/>
<path style=" stroke:none;fill-rule:nonzero;fill:rgb(0%,0%,0%);fill-opacity:1;" d="M 30.394531 47.316406 L 34.984375 47.316406 L 34.984375 48.425781 L 28.816406 48.425781 L 28.816406 47.316406 C 29.3125 46.800781 29.992188 46.109375 30.855469 45.238281 C 31.714844 44.367188 32.257812 43.804688 32.480469 43.554688 C 32.898438 43.082031 33.195312 42.679688 33.359375 42.355469 C 33.527344 42.027344 33.613281 41.703125 33.613281 41.386719 C 33.613281 40.871094 33.429688 40.449219 33.070312 40.125 C 32.707031 39.796875 32.234375 39.636719 31.652344 39.636719 C 31.238281 39.636719 30.804688 39.707031 30.347656 39.847656 C 29.890625 39.992188 29.398438 40.210938 28.878906 40.5 L 28.878906 39.171875 C 29.410156 38.960938 29.902344 38.800781 30.363281 38.691406 C 30.824219 38.582031 31.246094 38.527344 31.628906 38.527344 C 32.632812 38.527344 33.4375 38.78125 34.035156 39.285156 C 34.632812 39.789062 34.933594 40.460938 34.933594 41.300781 C 34.933594 41.703125 34.859375 42.082031 34.707031 42.4375 C 34.558594 42.796875 34.289062 43.21875 33.890625 43.703125 C 33.785156 43.832031 33.4375 44.195312 32.855469 44.796875 C 32.277344 45.398438 31.457031 46.238281 30.394531 47.316406 Z M 30.394531 47.316406 "/>
<path style=" stroke:none;fill-rule:nonzero;fill:rgb(0%,0%,0%);fill-opacity:1;" d="M 37.746094 46.769531 L 39.121094 46.769531 L 39.121094 48.425781 L 37.746094 48.425781 Z M 37.746094 46.769531 "/>
<path style=" stroke:none;fill-rule:nonzero;fill:rgb(0%,0%,0%);fill-opacity:1;" d="M 45.597656 39.847656 L 42.277344 45.039062 L 45.597656 45.039062 Z M 45.253906 38.703125 L 46.90625 38.703125 L 46.90625 45.039062 L 48.292969 45.039062 L 48.292969 46.132812 L 46.90625 46.132812 L 46.90625 48.425781 L 45.597656 48.425781 L 45.597656 46.132812 L 41.210938 46.132812 L 41.210938 44.863281 Z M 45.253906 38.703125 "/>
<path style=" stroke:none;fill-rule:nonzero;fill:rgb(0%,0%,0%);fill-opacity:1;" d="M 19.730469 116.492188 L 10.011719 120.203125 L 10.011719 118.832031 L 18.195312 115.75 L 10.011719 112.664062 L 10.011719 111.296875 L 19.730469 115.003906 Z M 19.730469 116.492188 "/>
<path style=" stroke:none;fill-rule:nonzero;fill:rgb(0%,0%,0%);fill-opacity:1;" d="M 16.066406 107.648438 C 16.066406 108.617188 16.175781 109.289062 16.398438 109.664062 C 16.617188 110.035156 16.996094 110.222656 17.53125 110.222656 C 17.957031 110.222656 18.292969 110.082031 18.542969 109.800781 C 18.792969 109.519531 18.917969 109.140625 18.917969 108.660156 C 18.917969 107.996094 18.679688 107.460938 18.210938 107.058594 C 17.738281 106.660156 17.113281 106.457031 16.332031 106.457031 L 16.066406 106.457031 Z M 15.570312 105.261719 L 19.730469 105.261719 L 19.730469 106.457031 L 18.625 106.457031 C 19.066406 106.730469 19.394531 107.074219 19.605469 107.480469 C 19.816406 107.890625 19.921875 108.386719 19.921875 108.980469 C 19.921875 109.726562 19.710938 110.320312 19.292969 110.761719 C 18.871094 111.199219 18.3125 111.421875 17.609375 111.421875 C 16.789062 111.421875 16.171875 111.144531 15.753906 110.597656 C 15.335938 110.046875 15.128906 109.226562 15.128906 108.140625 L 15.128906 106.457031 L 15.011719 106.457031 C 14.460938 106.457031 14.03125 106.640625 13.730469 107 C 13.429688 107.363281 13.277344 107.875 13.277344 108.527344 C 13.277344 108.945312 13.328125 109.351562 13.429688 109.746094 C 13.527344 110.140625 13.679688 110.519531 13.878906 110.886719 L 12.769531 110.886719 C 12.601562 110.449219 12.476562 110.023438 12.390625 109.609375 C 12.308594 109.199219 12.265625 108.796875 12.265625 108.40625 C 12.265625 107.351562 12.539062 106.5625 13.085938 106.042969 C 13.632812 105.519531 14.460938 105.261719 15.570312 105.261719 Z M 15.570312 105.261719 "/>
<path style=" stroke:none;fill-rule:nonzero;fill:rgb(0%,0%,0%);fill-opacity:1;" d="M 9.601562 102.792969 L 9.601562 101.597656 L 19.730469 101.597656 L 19.730469 102.792969 Z M 9.601562 102.792969 "/>
<path style=" stroke:none;fill-rule:nonzero;fill:rgb(0%,0%,0%);fill-opacity:1;" d="M 16.855469 99.210938 L 12.441406 99.210938 L 12.441406 98.015625 L 16.808594 98.015625 C 17.5 98.015625 18.015625 97.878906 18.363281 97.613281 C 18.707031 97.34375 18.878906 96.9375 18.878906 96.398438 C 18.878906 95.753906 18.671875 95.242188 18.261719 94.867188 C 17.847656 94.492188 17.285156 94.304688 16.574219 94.304688 L 12.441406 94.304688 L 12.441406 93.105469 L 19.730469 93.105469 L 19.730469 94.304688 L 18.609375 94.304688 C 19.054688 94.59375 19.382812 94.933594 19.597656 95.316406 C 19.8125 95.699219 19.921875 96.144531 19.921875 96.652344 C 19.921875 97.492188 19.660156 98.128906 19.140625 98.5625 C 18.617188 98.996094 17.855469 99.210938 16.855469 99.210938 Z M 12.265625 96.199219 Z M 12.265625 96.199219 "/>
<path style=" stroke:none;fill-rule:nonzero;fill:rgb(0%,0%,0%);fill-opacity:1;" d="M 15.785156 84.402344 L 16.371094 84.402344 L 16.371094 89.910156 C 17.195312 89.855469 17.824219 89.609375 18.257812 89.164062 C 18.6875 88.71875 18.902344 88.101562 18.902344 87.304688 C 18.902344 86.847656 18.847656 86.398438 18.734375 85.96875 C 18.621094 85.535156 18.453125 85.105469 18.226562 84.679688 L 19.359375 84.679688 C 19.542969 85.109375 19.679688 85.550781 19.777344 86.003906 C 19.871094 86.453125 19.921875 86.914062 19.921875 87.375 C 19.921875 88.539062 19.582031 89.460938 18.90625 90.140625 C 18.226562 90.820312 17.3125 91.160156 16.15625 91.160156 C 14.964844 91.160156 14.015625 90.835938 13.316406 90.191406 C 12.617188 89.546875 12.265625 88.679688 12.265625 87.585938 C 12.265625 86.605469 12.582031 85.828125 13.210938 85.257812 C 13.84375 84.6875 14.699219 84.402344 15.785156 84.402344 Z M 15.433594 85.597656 C 14.777344 85.609375 14.257812 85.789062 13.867188 86.148438 C 13.476562 86.507812 13.277344 86.980469 13.277344 87.570312 C 13.277344 88.238281 13.46875 88.773438 13.847656 89.175781 C 14.222656 89.578125 14.753906 89.808594 15.441406 89.871094 Z M 15.433594 85.597656 "/>
<path style="fill:none;stroke-width:1.5;stroke-linecap:square;stroke-linejoin:round;stroke:rgb(12.156863%,46.666667%,70.588237%);stroke-opacity:1;stroke-miterlimit:4;" d="M 52.658203 62.036133 L 54.451172 13.5 L 56.244141 139.5 L 58.040039 126.741211 L 59.833008 121.921875 L 61.625977 132.93457 L 63.418945 129.984375 L 65.211914 129.553711 L 67.004883 130.608398 L 68.797852 130.306641 L 70.59375 130.268555 L 72.386719 130.371094 L 74.179687 130.341797 L 75.972656 130.338867 L 77.765625 130.347656 L 79.558594 130.344727 L 81.351562 130.344727 L 83.147461 130.347656 L 84.94043 130.344727 L 86.733398 130.344727 L 88.526367 130.347656 L 230.203125 130.347656 " transform="matrix(1.333333,0,0,1.333333,0,-0.000000000000014211)"/>
<path style="fill:none;stroke-width:0.8;stroke-linecap:square;stroke-linejoin:miter;stroke:rgb(0%,0%,0%);stroke-opacity:1;stroke-miterlimit:4;" d="M 43.78125 145.798828 L 43.78125 7.201172 " transform="matrix(1.333333,0,0,1.333333,0,-0.000000000000014211)"/>
<path style="fill:none;stroke-width:0.8;stroke-linecap:square;stroke-linejoin:miter;stroke:rgb(0%,0%,0%);stroke-opacity:1;stroke-miterlimit:4;" d="M 239.080078 145.798828 L 239.080078 7.201172 " transform="matrix(1.333333,0,0,1.333333,0,-0.000000000000014211)"/>
<path style="fill:none;stroke-width:0.8;stroke-linecap:square;stroke-linejoin:miter;stroke:rgb(0%,0%,0%);stroke-opacity:1;stroke-miterlimit:4;" d="M 43.78125 145.798828 L 239.080078 145.798828 " transform="matrix(1.333333,0,0,1.333333,0,-0.000000000000014211)"/>
<path style="fill:none;stroke-width:0.8;stroke-linecap:square;stroke-linejoin:miter;stroke:rgb(0%,0%,0%);stroke-opacity:1;stroke-miterlimit:4;" d="M 43.78125 7.201172 L 239.080078 7.201172 " transform="matrix(1.333333,0,0,1.333333,0,-0.000000000000014211)"/>
</g>
</svg>
