<?xml version="1.0" encoding="UTF-8"?>
<svg xmlns="http://www.w3.org/2000/svg" xmlns:xlink="http://www.w3.org/1999/xlink" width="328.375" height="244.474996" viewBox="0 0 328.375 244.474996" version="1.1">
<defs>
<clipPath id="clip1">
  <path d="M 108 9.601562 L 111 9.601562 L 111 194.398438 L 108 194.398438 Z M 108 9.601562 "/>
</clipPath>
<clipPath id="clip2">
  <path d="M 188 9.601562 L 190 9.601562 L 190 194.398438 L 188 194.398438 Z M 188 9.601562 "/>
</clipPath>
<clipPath id="clip3">
  <path d="M 267 9.601562 L 269 9.601562 L 269 194.398438 L 267 194.398438 Z M 267 9.601562 "/>
</clipPath>
<clipPath id="clip4">
  <path d="M 58.375 187 L 318.773438 187 L 318.773438 189 L 58.375 189 Z M 58.375 187 "/>
</clipPath>
<clipPath id="clip5">
  <path d="M 58.375 144 L 318.773438 144 L 318.773438 147 L 58.375 147 Z M 58.375 144 "/>
</clipPath>
<clipPath id="clip6">
  <path d="M 58.375 101 L 318.773438 101 L 318.773438 104 L 58.375 104 Z M 58.375 101 "/>
</clipPath>
<clipPath id="clip7">
  <path d="M 58.375 59 L 318.773438 59 L 318.773438 61 L 58.375 61 Z M 58.375 59 "/>
</clipPath>
<clipPath id="clip8">
  <path d="M 58.375 16 L 318.773438 16 L 318.773438 19 L 58.375 19 Z M 58.375 16 "/>
</clipPath>
</defs>
<g id="surface1">
<path style=" stroke:none;fill-rule:nonzero;fill:rgb(100%,100%,100%);fill-opacity:1;" d="M 0 244.476562 L 328.375 244.476562 L 328.375 0 L 0 0 Z M 0 244.476562 "/>
<path style=" stroke:none;fill-rule:nonzero;fill:rgb(100%,100%,100%);fill-opacity:1;" d="M 58.375 194.398438 L 318.773438 194.398438 L 318.773438 9.601562 L 58.375 9.601562 Z M 58.375 194.398438 "/>
<g clip-path="url(#clip1)" clip-rule="nonzero">
<path style="fill:none;stroke-width:0.8;stroke-linecap:square;stroke-linejoin:round;stroke:rgb(69.01961%,69.01961%,69.01961%);stroke-opacity:1;stroke-miterlimit:4;" d="M 82.297852 145.798828 L 82.297852 7.201172 " transform="matrix(1.333333,0,0,1.333333,0,0.000000000000014211)"/>
</g>
<path style="fill:none;stroke-width:0.8;stroke-linecap:butt;stroke-linejoin:round;stroke:rgb(0%,0%,0%);stroke-opacity:1;stroke-miterlimit:4;" d="M -0.000984192 -0.00117493 L -0.000984192 3.499802 " transform="matrix(1.333333,0,0,1.333333,109.731781,194.400004)"/>
<path style=" stroke:none;fill-rule:nonzero;fill:rgb(0%,0%,0%);fill-opacity:1;" d="M 101.316406 209.132812 L 109.660156 209.132812 L 109.660156 210.238281 L 101.316406 210.238281 Z M 101.316406 209.132812 "/>
<path style=" stroke:none;fill-rule:nonzero;fill:rgb(0%,0%,0%);fill-opacity:1;" d="M 113.632812 212.757812 L 118.222656 212.757812 L 118.222656 213.863281 L 112.050781 213.863281 L 112.050781 212.757812 C 112.550781 212.242188 113.230469 211.546875 114.09375 210.679688 C 114.953125 209.808594 115.496094 209.246094 115.71875 208.992188 C 116.136719 208.523438 116.433594 208.121094 116.597656 207.792969 C 116.765625 207.464844 116.851562 207.144531 116.851562 206.828125 C 116.851562 206.308594 116.667969 205.890625 116.308594 205.566406 C 115.945312 205.238281 115.472656 205.074219 114.890625 205.074219 C 114.476562 205.074219 114.042969 205.148438 113.582031 205.289062 C 113.125 205.433594 112.636719 205.648438 112.117188 205.941406 L 112.117188 204.613281 C 112.644531 204.398438 113.140625 204.238281 113.601562 204.132812 C 114.0625 204.023438 114.484375 203.96875 114.863281 203.96875 C 115.871094 203.96875 116.675781 204.222656 117.273438 204.726562 C 117.871094 205.226562 118.171875 205.898438 118.171875 206.742188 C 118.171875 207.140625 118.097656 207.519531 117.945312 207.878906 C 117.796875 208.234375 117.527344 208.65625 117.128906 209.144531 C 117.019531 209.269531 116.675781 209.632812 116.09375 210.234375 C 115.515625 210.835938 114.695312 211.679688 113.632812 212.757812 Z M 113.632812 212.757812 "/>
<g clip-path="url(#clip2)" clip-rule="nonzero">
<path style="fill:none;stroke-width:0.8;stroke-linecap:square;stroke-linejoin:round;stroke:rgb(69.01961%,69.01961%,69.01961%);stroke-opacity:1;stroke-miterlimit:4;" d="M 141.580078 145.798828 L 141.580078 7.201172 " transform="matrix(1.333333,0,0,1.333333,0,0.000000000000014211)"/>
</g>
<path style="fill:none;stroke-width:0.8;stroke-linecap:butt;stroke-linejoin:round;stroke:rgb(0%,0%,0%);stroke-opacity:1;stroke-miterlimit:4;" d="M 0.00062561 -0.00117493 L 0.00062561 3.499802 " transform="matrix(1.333333,0,0,1.333333,188.772603,194.400004)"/>
<path style=" stroke:none;fill-rule:nonzero;fill:rgb(0%,0%,0%);fill-opacity:1;" d="M 188.769531 205.011719 C 188.09375 205.011719 187.582031 205.34375 187.242188 206.011719 C 186.902344 206.675781 186.730469 207.675781 186.730469 209.015625 C 186.730469 210.347656 186.902344 211.347656 187.242188 212.011719 C 187.582031 212.679688 188.09375 213.011719 188.769531 213.011719 C 189.449219 213.011719 189.960938 212.679688 190.300781 212.011719 C 190.644531 211.347656 190.8125 210.347656 190.8125 209.015625 C 190.8125 207.675781 190.644531 206.675781 190.300781 206.011719 C 189.960938 205.34375 189.449219 205.011719 188.769531 205.011719 Z M 188.769531 203.96875 C 189.859375 203.96875 190.691406 204.398438 191.265625 205.261719 C 191.839844 206.125 192.128906 207.375 192.128906 209.015625 C 192.128906 210.652344 191.839844 211.898438 191.265625 212.761719 C 190.691406 213.625 189.859375 214.054688 188.769531 214.054688 C 187.679688 214.054688 186.847656 213.625 186.273438 212.761719 C 185.699219 211.898438 185.410156 210.652344 185.410156 209.015625 C 185.410156 207.375 185.699219 206.125 186.273438 205.261719 C 186.847656 204.398438 187.679688 203.96875 188.769531 203.96875 Z M 188.769531 203.96875 "/>
<g clip-path="url(#clip3)" clip-rule="nonzero">
<path style="fill:none;stroke-width:0.8;stroke-linecap:square;stroke-linejoin:round;stroke:rgb(69.01961%,69.01961%,69.01961%);stroke-opacity:1;stroke-miterlimit:4;" d="M 200.859375 145.798828 L 200.859375 7.201172 " transform="matrix(1.333333,0,0,1.333333,0,0.000000000000014211)"/>
</g>
<path style="fill:none;stroke-width:0.8;stroke-linecap:butt;stroke-linejoin:round;stroke:rgb(0%,0%,0%);stroke-opacity:1;stroke-miterlimit:4;" d="M -0.000701904 -0.00117493 L -0.000701904 3.499802 " transform="matrix(1.333333,0,0,1.333333,267.813436,194.400004)"/>
<path style=" stroke:none;fill-rule:nonzero;fill:rgb(0%,0%,0%);fill-opacity:1;" d="M 266.128906 212.757812 L 270.71875 212.757812 L 270.71875 213.863281 L 264.550781 213.863281 L 264.550781 212.757812 C 265.046875 212.242188 265.726562 211.546875 266.589844 210.679688 C 267.449219 209.808594 267.992188 209.246094 268.214844 208.992188 C 268.632812 208.523438 268.929688 208.121094 269.09375 207.792969 C 269.261719 207.464844 269.347656 207.144531 269.347656 206.828125 C 269.347656 206.308594 269.164062 205.890625 268.804688 205.566406 C 268.441406 205.238281 267.96875 205.074219 267.386719 205.074219 C 266.972656 205.074219 266.539062 205.148438 266.082031 205.289062 C 265.625 205.433594 265.132812 205.648438 264.613281 205.941406 L 264.613281 204.613281 C 265.144531 204.398438 265.636719 204.238281 266.097656 204.132812 C 266.558594 204.023438 266.980469 203.96875 267.363281 203.96875 C 268.367188 203.96875 269.171875 204.222656 269.769531 204.726562 C 270.367188 205.226562 270.667969 205.898438 270.667969 206.742188 C 270.667969 207.140625 270.59375 207.519531 270.441406 207.878906 C 270.292969 208.234375 270.023438 208.65625 269.625 209.144531 C 269.519531 209.269531 269.171875 209.632812 268.589844 210.234375 C 268.011719 210.835938 267.191406 211.679688 266.128906 212.757812 Z M 266.128906 212.757812 "/>
<path style=" stroke:none;fill-rule:nonzero;fill:rgb(0%,0%,0%);fill-opacity:1;" d="M 191.949219 224.808594 L 189.308594 228.359375 L 192.082031 232.101562 L 190.671875 232.101562 L 188.546875 229.238281 L 186.425781 232.101562 L 185.011719 232.101562 L 187.847656 228.289062 L 185.253906 224.808594 L 186.667969 224.808594 L 188.601562 227.410156 L 190.535156 224.808594 Z M 191.949219 224.808594 "/>
<g clip-path="url(#clip4)" clip-rule="nonzero">
<path style="fill:none;stroke-width:0.8;stroke-linecap:square;stroke-linejoin:round;stroke:rgb(69.01961%,69.01961%,69.01961%);stroke-opacity:1;stroke-miterlimit:4;" d="M 43.78125 140.915039 L 239.080078 140.915039 " transform="matrix(1.333333,0,0,1.333333,0,0.000000000000014211)"/>
</g>
<path style="fill:none;stroke-width:0.8;stroke-linecap:butt;stroke-linejoin:round;stroke:rgb(0%,0%,0%);stroke-opacity:1;stroke-miterlimit:4;" d="M 0 -0.000411987 L -3.500977 -0.000411987 " transform="matrix(1.333333,0,0,1.333333,58.375,187.887268)"/>
<path style=" stroke:none;fill-rule:nonzero;fill:rgb(0%,0%,0%);fill-opacity:1;" d="M 32.074219 184.097656 C 31.398438 184.097656 30.890625 184.433594 30.546875 185.097656 C 30.207031 185.765625 30.039062 186.765625 30.039062 188.101562 C 30.039062 189.433594 30.207031 190.433594 30.546875 191.101562 C 30.890625 191.765625 31.398438 192.101562 32.074219 192.101562 C 32.757812 192.101562 33.269531 191.765625 33.609375 191.101562 C 33.949219 190.433594 34.121094 189.433594 34.121094 188.101562 C 34.121094 186.765625 33.949219 185.765625 33.609375 185.097656 C 33.269531 184.433594 32.757812 184.097656 32.074219 184.097656 Z M 32.074219 183.058594 C 33.164062 183.058594 33.996094 183.488281 34.574219 184.351562 C 35.148438 185.210938 35.433594 186.460938 35.433594 188.101562 C 35.433594 189.738281 35.148438 190.988281 34.574219 191.851562 C 33.996094 192.710938 33.164062 193.140625 32.074219 193.140625 C 30.984375 193.140625 30.152344 192.710938 29.578125 191.851562 C 29.003906 190.988281 28.714844 189.738281 28.714844 188.101562 C 28.714844 186.460938 29.003906 185.210938 29.578125 184.351562 C 30.152344 183.488281 30.984375 183.058594 32.074219 183.058594 Z M 32.074219 183.058594 "/>
<path style=" stroke:none;fill-rule:nonzero;fill:rgb(0%,0%,0%);fill-opacity:1;" d="M 37.746094 191.296875 L 39.121094 191.296875 L 39.121094 192.953125 L 37.746094 192.953125 Z M 37.746094 191.296875 "/>
<path style=" stroke:none;fill-rule:nonzero;fill:rgb(0%,0%,0%);fill-opacity:1;" d="M 44.796875 184.097656 C 44.121094 184.097656 43.609375 184.433594 43.269531 185.097656 C 42.929688 185.765625 42.757812 186.765625 42.757812 188.101562 C 42.757812 189.433594 42.929688 190.433594 43.269531 191.101562 C 43.609375 191.765625 44.121094 192.101562 44.796875 192.101562 C 45.476562 192.101562 45.988281 191.765625 46.328125 191.101562 C 46.671875 190.433594 46.84375 189.433594 46.84375 188.101562 C 46.84375 186.765625 46.671875 185.765625 46.328125 185.097656 C 45.988281 184.433594 45.476562 184.097656 44.796875 184.097656 Z M 44.796875 183.058594 C 45.886719 183.058594 46.71875 183.488281 47.292969 184.351562 C 47.871094 185.210938 48.15625 186.460938 48.15625 188.101562 C 48.15625 189.738281 47.871094 190.988281 47.292969 191.851562 C 46.71875 192.710938 45.886719 193.140625 44.796875 193.140625 C 43.707031 193.140625 42.875 192.710938 42.300781 191.851562 C 41.726562 190.988281 41.4375 189.738281 41.4375 188.101562 C 41.4375 186.460938 41.726562 185.210938 42.300781 184.351562 C 42.875 183.488281 43.707031 183.058594 44.796875 183.058594 Z M 44.796875 183.058594 "/>
<g clip-path="url(#clip5)" clip-rule="nonzero">
<path style="fill:none;stroke-width:0.8;stroke-linecap:square;stroke-linejoin:round;stroke:rgb(69.01961%,69.01961%,69.01961%);stroke-opacity:1;stroke-miterlimit:4;" d="M 43.78125 108.978516 L 239.080078 108.978516 " transform="matrix(1.333333,0,0,1.333333,0,0.000000000000014211)"/>
</g>
<path style="fill:none;stroke-width:0.8;stroke-linecap:butt;stroke-linejoin:round;stroke:rgb(0%,0%,0%);stroke-opacity:1;stroke-miterlimit:4;" d="M 0 0.00137329 L -3.500977 0.00137329 " transform="matrix(1.333333,0,0,1.333333,58.375,145.302856)"/>
<path style=" stroke:none;fill-rule:nonzero;fill:rgb(0%,0%,0%);fill-opacity:1;" d="M 32.074219 141.515625 C 31.398438 141.515625 30.890625 141.847656 30.546875 142.515625 C 30.207031 143.179688 30.039062 144.179688 30.039062 145.519531 C 30.039062 146.851562 30.207031 147.851562 30.546875 148.515625 C 30.890625 149.183594 31.398438 149.515625 32.074219 149.515625 C 32.757812 149.515625 33.269531 149.183594 33.609375 148.515625 C 33.949219 147.851562 34.121094 146.851562 34.121094 145.519531 C 34.121094 144.179688 33.949219 143.179688 33.609375 142.515625 C 33.269531 141.847656 32.757812 141.515625 32.074219 141.515625 Z M 32.074219 140.472656 C 33.164062 140.472656 33.996094 140.902344 34.574219 141.765625 C 35.148438 142.628906 35.433594 143.878906 35.433594 145.519531 C 35.433594 147.15625 35.148438 148.402344 34.574219 149.265625 C 33.996094 150.128906 33.164062 150.558594 32.074219 150.558594 C 30.984375 150.558594 30.152344 150.128906 29.578125 149.265625 C 29.003906 148.402344 28.714844 147.15625 28.714844 145.519531 C 28.714844 143.878906 29.003906 142.628906 29.578125 141.765625 C 30.152344 140.902344 30.984375 140.472656 32.074219 140.472656 Z M 32.074219 140.472656 "/>
<path style=" stroke:none;fill-rule:nonzero;fill:rgb(0%,0%,0%);fill-opacity:1;" d="M 37.746094 148.714844 L 39.121094 148.714844 L 39.121094 150.367188 L 37.746094 150.367188 Z M 37.746094 148.714844 "/>
<path style=" stroke:none;fill-rule:nonzero;fill:rgb(0%,0%,0%);fill-opacity:1;" d="M 42.214844 149.261719 L 44.359375 149.261719 L 44.359375 141.84375 L 42.023438 142.3125 L 42.023438 141.117188 L 44.347656 140.648438 L 45.664062 140.648438 L 45.664062 149.261719 L 47.8125 149.261719 L 47.8125 150.367188 L 42.214844 150.367188 Z M 42.214844 149.261719 "/>
<g clip-path="url(#clip6)" clip-rule="nonzero">
<path style="fill:none;stroke-width:0.8;stroke-linecap:square;stroke-linejoin:round;stroke:rgb(69.01961%,69.01961%,69.01961%);stroke-opacity:1;stroke-miterlimit:4;" d="M 43.78125 77.039062 L 239.080078 77.039062 " transform="matrix(1.333333,0,0,1.333333,0,0.000000000000014211)"/>
</g>
<path style="fill:none;stroke-width:0.8;stroke-linecap:butt;stroke-linejoin:round;stroke:rgb(0%,0%,0%);stroke-opacity:1;stroke-miterlimit:4;" d="M 0 0.000244141 L -3.500977 0.000244141 " transform="matrix(1.333333,0,0,1.333333,58.375,102.718424)"/>
<path style=" stroke:none;fill-rule:nonzero;fill:rgb(0%,0%,0%);fill-opacity:1;" d="M 32.074219 98.929688 C 31.398438 98.929688 30.890625 99.261719 30.546875 99.929688 C 30.207031 100.59375 30.039062 101.597656 30.039062 102.933594 C 30.039062 104.265625 30.207031 105.265625 30.546875 105.933594 C 30.890625 106.597656 31.398438 106.933594 32.074219 106.933594 C 32.757812 106.933594 33.269531 106.597656 33.609375 105.933594 C 33.949219 105.265625 34.121094 104.265625 34.121094 102.933594 C 34.121094 101.597656 33.949219 100.59375 33.609375 99.929688 C 33.269531 99.261719 32.757812 98.929688 32.074219 98.929688 Z M 32.074219 97.886719 C 33.164062 97.886719 33.996094 98.320312 34.574219 99.183594 C 35.148438 100.042969 35.433594 101.292969 35.433594 102.933594 C 35.433594 104.570312 35.148438 105.820312 34.574219 106.683594 C 33.996094 107.542969 33.164062 107.972656 32.074219 107.972656 C 30.984375 107.972656 30.152344 107.542969 29.578125 106.683594 C 29.003906 105.820312 28.714844 104.570312 28.714844 102.933594 C 28.714844 101.292969 29.003906 100.042969 29.578125 99.183594 C 30.152344 98.320312 30.984375 97.886719 32.074219 97.886719 Z M 32.074219 97.886719 "/>
<path style=" stroke:none;fill-rule:nonzero;fill:rgb(0%,0%,0%);fill-opacity:1;" d="M 37.746094 106.128906 L 39.121094 106.128906 L 39.121094 107.785156 L 37.746094 107.785156 Z M 37.746094 106.128906 "/>
<path style=" stroke:none;fill-rule:nonzero;fill:rgb(0%,0%,0%);fill-opacity:1;" d="M 43.117188 106.679688 L 47.707031 106.679688 L 47.707031 107.785156 L 41.535156 107.785156 L 41.535156 106.679688 C 42.035156 106.160156 42.714844 105.46875 43.574219 104.597656 C 44.4375 103.726562 44.980469 103.164062 45.199219 102.914062 C 45.621094 102.441406 45.914062 102.039062 46.082031 101.714844 C 46.25 101.386719 46.332031 101.0625 46.332031 100.746094 C 46.332031 100.230469 46.152344 99.808594 45.789062 99.484375 C 45.425781 99.15625 44.957031 98.996094 44.375 98.996094 C 43.960938 98.996094 43.527344 99.066406 43.066406 99.210938 C 42.609375 99.351562 42.121094 99.570312 41.601562 99.859375 L 41.601562 98.53125 C 42.128906 98.320312 42.625 98.160156 43.082031 98.050781 C 43.546875 97.941406 43.964844 97.886719 44.347656 97.886719 C 45.355469 97.886719 46.15625 98.140625 46.757812 98.644531 C 47.355469 99.148438 47.65625 99.820312 47.65625 100.660156 C 47.65625 101.0625 47.578125 101.441406 47.429688 101.796875 C 47.28125 102.15625 47.007812 102.578125 46.613281 103.0625 C 46.503906 103.191406 46.160156 103.554688 45.578125 104.15625 C 44.996094 104.757812 44.175781 105.597656 43.117188 106.679688 Z M 43.117188 106.679688 "/>
<g clip-path="url(#clip7)" clip-rule="nonzero">
<path style="fill:none;stroke-width:0.8;stroke-linecap:square;stroke-linejoin:round;stroke:rgb(69.01961%,69.01961%,69.01961%);stroke-opacity:1;stroke-miterlimit:4;" d="M 43.78125 45.099609 L 239.080078 45.099609 " transform="matrix(1.333333,0,0,1.333333,0,0.000000000000014211)"/>
</g>
<path style="fill:none;stroke-width:0.8;stroke-linecap:butt;stroke-linejoin:round;stroke:rgb(0%,0%,0%);stroke-opacity:1;stroke-miterlimit:4;" d="M 0 -0.000896454 L -3.500977 -0.000896454 " transform="matrix(1.333333,0,0,1.333333,58.375,60.134008)"/>
<path style=" stroke:none;fill-rule:nonzero;fill:rgb(0%,0%,0%);fill-opacity:1;" d="M 32.074219 56.34375 C 31.398438 56.34375 30.890625 56.679688 30.546875 57.34375 C 30.207031 58.011719 30.039062 59.011719 30.039062 60.351562 C 30.039062 61.679688 30.207031 62.679688 30.546875 63.347656 C 30.890625 64.015625 31.398438 64.347656 32.074219 64.347656 C 32.757812 64.347656 33.269531 64.015625 33.609375 63.347656 C 33.949219 62.679688 34.121094 61.679688 34.121094 60.351562 C 34.121094 59.011719 33.949219 58.011719 33.609375 57.34375 C 33.269531 56.679688 32.757812 56.34375 32.074219 56.34375 Z M 32.074219 55.304688 C 33.164062 55.304688 33.996094 55.734375 34.574219 56.597656 C 35.148438 57.457031 35.433594 58.710938 35.433594 60.351562 C 35.433594 61.984375 35.148438 63.234375 34.574219 64.097656 C 33.996094 64.957031 33.164062 65.390625 32.074219 65.390625 C 30.984375 65.390625 30.152344 64.957031 29.578125 64.097656 C 29.003906 63.234375 28.714844 61.984375 28.714844 60.351562 C 28.714844 58.710938 29.003906 57.457031 29.578125 56.597656 C 30.152344 55.734375 30.984375 55.304688 32.074219 55.304688 Z M 32.074219 55.304688 "/>
<path style=" stroke:none;fill-rule:nonzero;fill:rgb(0%,0%,0%);fill-opacity:1;" d="M 37.746094 63.546875 L 39.121094 63.546875 L 39.121094 65.199219 L 37.746094 65.199219 Z M 37.746094 63.546875 "/>
<path style=" stroke:none;fill-rule:nonzero;fill:rgb(0%,0%,0%);fill-opacity:1;" d="M 45.96875 59.957031 C 46.597656 60.09375 47.089844 60.375 47.441406 60.800781 C 47.796875 61.226562 47.972656 61.75 47.972656 62.375 C 47.972656 63.332031 47.644531 64.074219 46.984375 64.601562 C 46.324219 65.125 45.386719 65.390625 44.171875 65.390625 C 43.765625 65.390625 43.34375 65.347656 42.914062 65.269531 C 42.480469 65.1875 42.035156 65.066406 41.574219 64.90625 L 41.574219 63.636719 C 41.9375 63.851562 42.339844 64.011719 42.769531 64.117188 C 43.207031 64.226562 43.660156 64.28125 44.132812 64.28125 C 44.957031 64.28125 45.585938 64.117188 46.015625 63.792969 C 46.449219 63.46875 46.664062 62.996094 46.664062 62.375 C 46.664062 61.800781 46.464844 61.351562 46.0625 61.03125 C 45.660156 60.707031 45.101562 60.546875 44.386719 60.546875 L 43.253906 60.546875 L 43.253906 59.464844 L 44.441406 59.464844 C 45.085938 59.464844 45.582031 59.335938 45.921875 59.078125 C 46.265625 58.820312 46.4375 58.445312 46.4375 57.960938 C 46.4375 57.460938 46.261719 57.078125 45.90625 56.8125 C 45.554688 56.542969 45.046875 56.410156 44.386719 56.410156 C 44.027344 56.410156 43.640625 56.449219 43.226562 56.527344 C 42.816406 56.605469 42.363281 56.726562 41.867188 56.890625 L 41.867188 55.71875 C 42.367188 55.582031 42.835938 55.476562 43.269531 55.40625 C 43.707031 55.339844 44.117188 55.304688 44.503906 55.304688 C 45.503906 55.304688 46.292969 55.53125 46.875 55.984375 C 47.457031 56.4375 47.746094 57.050781 47.746094 57.824219 C 47.746094 58.363281 47.59375 58.816406 47.285156 59.1875 C 46.976562 59.558594 46.539062 59.816406 45.96875 59.957031 Z M 45.96875 59.957031 "/>
<g clip-path="url(#clip8)" clip-rule="nonzero">
<path style="fill:none;stroke-width:0.8;stroke-linecap:square;stroke-linejoin:round;stroke:rgb(69.01961%,69.01961%,69.01961%);stroke-opacity:1;stroke-miterlimit:4;" d="M 43.78125 13.163086 L 239.080078 13.163086 " transform="matrix(1.333333,0,0,1.333333,0,0.000000000000014211)"/>
</g>
<path style="fill:none;stroke-width:0.8;stroke-linecap:butt;stroke-linejoin:round;stroke:rgb(0%,0%,0%);stroke-opacity:1;stroke-miterlimit:4;" d="M 0 0.000900269 L -3.500977 0.000900269 " transform="matrix(1.333333,0,0,1.333333,58.375,17.549581)"/>
<path style=" stroke:none;fill-rule:nonzero;fill:rgb(0%,0%,0%);fill-opacity:1;" d="M 32.074219 13.761719 C 31.398438 13.761719 30.890625 14.09375 30.546875 14.761719 C 30.207031 15.425781 30.039062 16.425781 30.039062 17.765625 C 30.039062 19.097656 30.207031 20.097656 30.546875 20.761719 C 30.890625 21.429688 31.398438 21.761719 32.074219 21.761719 C 32.757812 21.761719 33.269531 21.429688 33.609375 20.761719 C 33.949219 20.097656 34.121094 19.097656 34.121094 17.765625 C 34.121094 16.425781 33.949219 15.425781 33.609375 14.761719 C 33.269531 14.09375 32.757812 13.761719 32.074219 13.761719 Z M 32.074219 12.71875 C 33.164062 12.71875 33.996094 13.152344 34.574219 14.011719 C 35.148438 14.875 35.433594 16.125 35.433594 17.765625 C 35.433594 19.402344 35.148438 20.652344 34.574219 21.511719 C 33.996094 22.375 33.164062 22.804688 32.074219 22.804688 C 30.984375 22.804688 30.152344 22.375 29.578125 21.511719 C 29.003906 20.652344 28.714844 19.402344 28.714844 17.765625 C 28.714844 16.125 29.003906 14.875 29.578125 14.011719 C 30.152344 13.152344 30.984375 12.71875 32.074219 12.71875 Z M 32.074219 12.71875 "/>
<path style=" stroke:none;fill-rule:nonzero;fill:rgb(0%,0%,0%);fill-opacity:1;" d="M 37.746094 20.960938 L 39.121094 20.960938 L 39.121094 22.613281 L 37.746094 22.613281 Z M 37.746094 20.960938 "/>
<path style=" stroke:none;fill-rule:nonzero;fill:rgb(0%,0%,0%);fill-opacity:1;" d="M 45.597656 14.039062 L 42.277344 19.230469 L 45.597656 19.230469 Z M 45.253906 12.894531 L 46.90625 12.894531 L 46.90625 19.230469 L 48.292969 19.230469 L 48.292969 20.324219 L 46.90625 20.324219 L 46.90625 22.613281 L 45.597656 22.613281 L 45.597656 20.324219 L 41.210938 20.324219 L 41.210938 19.054688 Z M 45.253906 12.894531 "/>
<path style=" stroke:none;fill-rule:nonzero;fill:rgb(0%,0%,0%);fill-opacity:1;" d="M 18.636719 116.269531 L 22.503906 116.269531 L 22.503906 117.472656 L 12.441406 117.472656 L 12.441406 116.269531 L 13.546875 116.269531 C 13.113281 116.015625 12.789062 115.699219 12.582031 115.316406 C 12.371094 114.929688 12.265625 114.472656 12.265625 113.9375 C 12.265625 113.050781 12.617188 112.332031 13.320312 111.78125 C 14.023438 111.226562 14.945312 110.949219 16.089844 110.949219 C 17.238281 110.949219 18.164062 111.226562 18.867188 111.78125 C 19.570312 112.332031 19.921875 113.050781 19.921875 113.9375 C 19.921875 114.472656 19.816406 114.929688 19.605469 115.316406 C 19.394531 115.699219 19.070312 116.015625 18.636719 116.269531 Z M 16.089844 112.191406 C 15.210938 112.191406 14.519531 112.375 14.019531 112.738281 C 13.515625 113.097656 13.265625 113.597656 13.265625 114.230469 C 13.265625 114.863281 13.515625 115.363281 14.019531 115.726562 C 14.519531 116.089844 15.210938 116.269531 16.089844 116.269531 C 16.972656 116.269531 17.664062 116.089844 18.164062 115.726562 C 18.664062 115.363281 18.917969 114.863281 18.917969 114.230469 C 18.917969 113.597656 18.664062 113.097656 18.164062 112.738281 C 17.664062 112.375 16.972656 112.191406 16.089844 112.191406 Z M 16.089844 112.191406 "/>
<path style=" stroke:none;fill-rule:nonzero;fill:rgb(0%,0%,0%);fill-opacity:1;" d="M 18.078125 108.796875 L 18.078125 107.421875 L 19.730469 107.421875 L 19.730469 108.796875 Z M 18.078125 108.796875 "/>
<path style=" stroke:none;fill-rule:nonzero;fill:rgb(0%,0%,0%);fill-opacity:1;" d="M 13.546875 99.929688 L 9.601562 99.929688 L 9.601562 98.730469 L 19.730469 98.730469 L 19.730469 99.929688 L 18.636719 99.929688 C 19.070312 100.179688 19.394531 100.496094 19.605469 100.882812 C 19.816406 101.265625 19.921875 101.726562 19.921875 102.265625 C 19.921875 103.144531 19.570312 103.863281 18.867188 104.417969 C 18.164062 104.972656 17.238281 105.246094 16.089844 105.246094 C 14.945312 105.246094 14.023438 104.972656 13.320312 104.417969 C 12.617188 103.863281 12.265625 103.144531 12.265625 102.265625 C 12.265625 101.726562 12.371094 101.265625 12.582031 100.882812 C 12.789062 100.496094 13.113281 100.179688 13.546875 99.929688 Z M 16.089844 104.007812 C 16.972656 104.007812 17.664062 103.828125 18.164062 103.464844 C 18.664062 103.101562 18.917969 102.605469 18.917969 101.972656 C 18.917969 101.339844 18.664062 100.839844 18.164062 100.476562 C 17.664062 100.109375 16.972656 99.929688 16.089844 99.929688 C 15.210938 99.929688 14.519531 100.109375 14.019531 100.476562 C 13.515625 100.839844 13.265625 101.339844 13.265625 101.972656 C 13.265625 102.605469 13.515625 103.101562 14.019531 103.464844 C 14.519531 103.828125 15.210938 104.007812 16.089844 104.007812 Z M 16.089844 104.007812 "/>
<path style=" stroke:none;fill-rule:nonzero;fill:rgb(0%,0%,0%);fill-opacity:1;" d="M 18.078125 96.09375 L 18.078125 94.71875 L 19.730469 94.71875 L 19.730469 96.09375 Z M 18.078125 96.09375 "/>
<path style=" stroke:none;fill-rule:nonzero;fill:rgb(0%,0%,0%);fill-opacity:1;" d="M 9.601562 88.332031 L 10.597656 88.332031 L 10.597656 89.480469 C 10.597656 89.90625 10.683594 90.207031 10.859375 90.375 C 11.03125 90.542969 11.34375 90.625 11.796875 90.625 L 12.441406 90.625 L 12.441406 88.652344 L 13.371094 88.652344 L 13.371094 90.625 L 19.730469 90.625 L 19.730469 91.828125 L 13.371094 91.828125 L 13.371094 92.972656 L 12.441406 92.972656 L 12.441406 91.828125 L 11.929688 91.828125 C 11.121094 91.828125 10.527344 91.640625 10.160156 91.261719 C 9.785156 90.882812 9.601562 90.285156 9.601562 89.464844 Z M 9.601562 88.332031 "/>
<path style=" stroke:none;fill-rule:nonzero;fill:rgb(0%,0%,0%);fill-opacity:1;" d="M 18.078125 88.128906 L 18.078125 86.753906 L 19.730469 86.753906 L 19.730469 88.128906 Z M 18.078125 88.128906 "/>
<path style="fill:none;stroke-width:1.5;stroke-linecap:square;stroke-linejoin:round;stroke:rgb(12.156863%,46.666667%,70.588237%);stroke-opacity:1;stroke-miterlimit:4;" d="M 52.658203 139.5 L 56.510742 138.84375 L 60.067383 138.011719 L 63.328125 137.009766 L 66.292969 135.855469 L 68.961914 134.581055 L 71.62793 133.048828 L 74.000977 131.443359 L 76.371094 129.585938 L 78.741211 127.447266 L 81.114258 125.009766 L 83.484375 122.25 L 85.854492 119.150391 L 88.227539 115.699219 L 90.597656 111.887695 L 93.266602 107.165039 L 95.932617 101.991211 L 98.897461 95.736328 L 102.158203 88.300781 L 106.010742 78.896484 L 111.345703 65.179687 L 118.458984 46.918945 L 122.015625 38.4375 L 124.68457 32.604492 L 127.054688 27.914062 L 129.131836 24.257812 L 131.206055 21.070312 L 132.984375 18.74707 L 134.762695 16.825195 L 136.245117 15.547852 L 137.727539 14.572266 L 139.207031 13.907227 L 140.393555 13.602539 L 141.580078 13.5 L 142.763672 13.602539 L 143.950195 13.907227 L 145.136719 14.414062 L 146.619141 15.328125 L 148.101562 16.546875 L 149.581055 18.061523 L 151.359375 20.25293 L 153.140625 22.831055 L 155.214844 26.291016 L 157.289062 30.196289 L 159.65918 35.129883 L 162.328125 41.185547 L 165.588867 49.133789 L 170.62793 62.088867 L 178.037109 81.114258 L 181.889648 90.380859 L 185.150391 97.664062 L 188.115234 103.763672 L 190.78125 108.791016 L 193.450195 113.361328 L 196.116211 117.47168 L 198.489258 120.744141 L 200.859375 123.670898 L 203.232422 126.269531 L 205.602539 128.551758 L 207.972656 130.546875 L 210.345703 132.275391 L 213.011719 133.933594 L 215.680664 135.316406 L 218.34668 136.461914 L 221.311523 137.496094 L 224.572266 138.386719 L 228.128906 139.12207 L 230.203125 139.456055 " transform="matrix(1.333333,0,0,1.333333,0,0.000000000000014211)"/>
<path style="fill:none;stroke-width:0.8;stroke-linecap:square;stroke-linejoin:miter;stroke:rgb(0%,0%,0%);stroke-opacity:1;stroke-miterlimit:4;" d="M 43.78125 145.798828 L 43.78125 7.201172 " transform="matrix(1.333333,0,0,1.333333,0,0.000000000000014211)"/>
<path style="fill:none;stroke-width:0.8;stroke-linecap:square;stroke-linejoin:miter;stroke:rgb(0%,0%,0%);stroke-opacity:1;stroke-miterlimit:4;" d="M 239.080078 145.798828 L 239.080078 7.201172 " transform="matrix(1.333333,0,0,1.333333,0,0.000000000000014211)"/>
<path style="fill:none;stroke-width:0.8;stroke-linecap:square;stroke-linejoin:miter;stroke:rgb(0%,0%,0%);stroke-opacity:1;stroke-miterlimit:4;" d="M 43.78125 145.798828 L 239.080078 145.798828 " transform="matrix(1.333333,0,0,1.333333,0,0.000000000000014211)"/>
<path style="fill:none;stroke-width:0.8;stroke-linecap:square;stroke-linejoin:miter;stroke:rgb(0%,0%,0%);stroke-opacity:1;stroke-miterlimit:4;" d="M 43.78125 7.201172 L 239.080078 7.201172 " transform="matrix(1.333333,0,0,1.333333,0,0.000000000000014211)"/>
</g>
</svg>
