<?xml version="1.0" encoding="UTF-8"?>
<svg xmlns="http://www.w3.org/2000/svg" xmlns:xlink="http://www.w3.org/1999/xlink" width="330.637492" height="244.474996" viewBox="0 0 330.637492 244.474996" version="1.1">
<defs>
<clipPath id="clip1">
  <path d="M 71 9.601562 L 74 9.601562 L 74 194.398438 L 71 194.398438 Z M 71 9.601562 "/>
</clipPath>
<clipPath id="clip2">
  <path d="M 124 9.601562 L 127 9.601562 L 127 194.398438 L 124 194.398438 Z M 124 9.601562 "/>
</clipPath>
<clipPath id="clip3">
  <path d="M 177 9.601562 L 180 9.601562 L 180 194.398438 L 177 194.398438 Z M 177 9.601562 "/>
</clipPath>
<clipPath id="clip4">
  <path d="M 230 9.601562 L 232 9.601562 L 232 194.398438 L 230 194.398438 Z M 230 9.601562 "/>
</clipPath>
<clipPath id="clip5">
  <path d="M 283 9.601562 L 285 9.601562 L 285 194.398438 L 283 194.398438 Z M 283 9.601562 "/>
</clipPath>
<clipPath id="clip6">
  <path d="M 60.636719 185 L 321.039062 185 L 321.039062 187 L 60.636719 187 Z M 60.636719 185 "/>
</clipPath>
<clipPath id="clip7">
  <path d="M 60.636719 135 L 321.039062 135 L 321.039062 137 L 60.636719 137 Z M 60.636719 135 "/>
</clipPath>
<clipPath id="clip8">
  <path d="M 60.636719 85 L 321.039062 85 L 321.039062 87 L 60.636719 87 Z M 60.636719 85 "/>
</clipPath>
<clipPath id="clip9">
  <path d="M 60.636719 34 L 321.039062 34 L 321.039062 37 L 60.636719 37 Z M 60.636719 34 "/>
</clipPath>
<clipPath id="clip10">
  <path d="M 60.636719 29 L 268 29 L 268 188 L 60.636719 188 Z M 60.636719 29 "/>
</clipPath>
<clipPath id="clip11">
  <path d="M 60.636719 73 L 302 73 L 302 187 L 60.636719 187 Z M 60.636719 73 "/>
</clipPath>
<clipPath id="clip12">
  <path d="M 60.636719 110 L 311 110 L 311 187 L 60.636719 187 Z M 60.636719 110 "/>
</clipPath>
<filter id="alpha" filterUnits="objectBoundingBox" x="0%" y="0%" width="100%" height="100%">
  <feColorMatrix type="matrix" in="SourceGraphic" values="0 0 0 0 1 0 0 0 0 1 0 0 0 0 1 0 0 0 1 0"/>
</filter>
<mask id="mask0">
  <g filter="url(#alpha)">
<rect x="0" y="0" width="330.637492" height="244.474996" style="fill:rgb(0%,0%,0%);fill-opacity:0.8;stroke:none;"/>
  </g>
</mask>
<clipPath id="clip13">
  <rect x="0" y="0" width="331" height="245"/>
</clipPath>
<g id="surface5" clip-path="url(#clip13)">
<path style="fill-rule:nonzero;fill:rgb(100%,100%,100%);fill-opacity:1;stroke-width:1;stroke-linecap:butt;stroke-linejoin:miter;stroke:rgb(80.000001%,80.000001%,80.000001%);stroke-opacity:1;stroke-miterlimit:4;" d="M 159.996094 59.235352 L 233.777344 59.235352 C 235.110352 59.235352 235.77832 58.567383 235.77832 57.234375 L 235.77832 14.200195 C 235.77832 12.867188 235.110352 12.199219 233.777344 12.199219 L 159.996094 12.199219 C 158.663086 12.199219 157.998047 12.867188 157.998047 14.200195 L 157.998047 57.234375 C 157.998047 58.567383 158.663086 59.235352 159.996094 59.235352 Z M 159.996094 59.235352 " transform="matrix(1.333333,0,0,1.333333,0,-0.000000000000014211)"/>
</g>
</defs>
<g id="surface1">
<path style=" stroke:none;fill-rule:nonzero;fill:rgb(100%,100%,100%);fill-opacity:1;" d="M 0 244.476562 L 330.636719 244.476562 L 330.636719 0 L 0 0 Z M 0 244.476562 "/>
<path style=" stroke:none;fill-rule:nonzero;fill:rgb(100%,100%,100%);fill-opacity:1;" d="M 60.636719 194.398438 L 321.039062 194.398438 L 321.039062 9.601562 L 60.636719 9.601562 Z M 60.636719 194.398438 "/>
<g clip-path="url(#clip1)" clip-rule="nonzero">
<path style="fill:none;stroke-width:0.8;stroke-linecap:square;stroke-linejoin:round;stroke:rgb(69.01961%,69.01961%,69.01961%);stroke-opacity:1;stroke-miterlimit:4;" d="M 54.354492 145.798828 L 54.354492 7.201172 " transform="matrix(1.333333,0,0,1.333333,0,-0.000000000000014211)"/>
</g>
<path style="fill:none;stroke-width:0.8;stroke-linecap:butt;stroke-linejoin:round;stroke:rgb(0%,0%,0%);stroke-opacity:1;stroke-miterlimit:4;" d="M -0.000904083 -0.00117493 L -0.000904083 3.499802 " transform="matrix(1.333333,0,0,1.333333,72.473862,194.400004)"/>
<path style=" stroke:none;fill-rule:nonzero;fill:rgb(0%,0%,0%);fill-opacity:1;" d="M 62.394531 212.65625 L 64.542969 212.65625 L 64.542969 205.238281 L 62.207031 205.707031 L 62.207031 204.511719 L 64.53125 204.042969 L 65.84375 204.042969 L 65.84375 212.65625 L 67.992188 212.65625 L 67.992188 213.761719 L 62.394531 213.761719 Z M 62.394531 212.65625 "/>
<path style=" stroke:none;fill-rule:nonzero;fill:rgb(0%,0%,0%);fill-opacity:1;" d="M 73.460938 204.910156 C 72.785156 204.910156 72.277344 205.242188 71.933594 205.910156 C 71.59375 206.574219 71.421875 207.574219 71.421875 208.914062 C 71.421875 210.246094 71.59375 211.242188 71.933594 211.910156 C 72.277344 212.578125 72.785156 212.910156 73.460938 212.910156 C 74.144531 212.910156 74.652344 212.578125 74.996094 211.910156 C 75.335938 211.242188 75.507812 210.246094 75.507812 208.914062 C 75.507812 207.574219 75.335938 206.574219 74.996094 205.910156 C 74.652344 205.242188 74.144531 204.910156 73.460938 204.910156 Z M 73.460938 203.867188 C 74.550781 203.867188 75.382812 204.296875 75.960938 205.160156 C 76.535156 206.023438 76.820312 207.273438 76.820312 208.914062 C 76.820312 210.546875 76.535156 211.796875 75.960938 212.660156 C 75.382812 213.523438 74.550781 213.953125 73.460938 213.953125 C 72.371094 213.953125 71.539062 213.523438 70.964844 212.660156 C 70.390625 211.796875 70.101562 210.546875 70.101562 208.914062 C 70.101562 207.273438 70.390625 206.023438 70.964844 205.160156 C 71.539062 204.296875 72.371094 203.867188 73.460938 203.867188 Z M 73.460938 203.867188 "/>
<path style=" stroke:none;fill-rule:nonzero;fill:rgb(0%,0%,0%);fill-opacity:1;" d="M 80.800781 202.460938 C 80.328125 202.460938 79.972656 202.695312 79.730469 203.160156 C 79.492188 203.625 79.375 204.328125 79.375 205.261719 C 79.375 206.195312 79.492188 206.894531 79.730469 207.363281 C 79.972656 207.828125 80.328125 208.0625 80.800781 208.0625 C 81.277344 208.0625 81.636719 207.828125 81.875 207.363281 C 82.113281 206.894531 82.234375 206.195312 82.234375 205.261719 C 82.234375 204.328125 82.113281 203.625 81.875 203.160156 C 81.636719 202.695312 81.277344 202.460938 80.800781 202.460938 Z M 80.800781 201.730469 C 81.5625 201.730469 82.148438 202.03125 82.550781 202.636719 C 82.953125 203.238281 83.152344 204.113281 83.152344 205.261719 C 83.152344 206.410156 82.953125 207.28125 82.550781 207.886719 C 82.148438 208.488281 81.5625 208.792969 80.800781 208.792969 C 80.039062 208.792969 79.457031 208.488281 79.054688 207.886719 C 78.652344 207.28125 78.449219 206.410156 78.449219 205.261719 C 78.449219 204.113281 78.652344 203.238281 79.054688 202.636719 C 79.457031 202.03125 80.039062 201.730469 80.800781 201.730469 Z M 80.800781 201.730469 "/>
<g clip-path="url(#clip2)" clip-rule="nonzero">
<path style="fill:none;stroke-width:0.8;stroke-linecap:square;stroke-linejoin:round;stroke:rgb(69.01961%,69.01961%,69.01961%);stroke-opacity:1;stroke-miterlimit:4;" d="M 94.02832 145.798828 L 94.02832 7.201172 " transform="matrix(1.333333,0,0,1.333333,0,-0.000000000000014211)"/>
</g>
<path style="fill:none;stroke-width:0.8;stroke-linecap:butt;stroke-linejoin:round;stroke:rgb(0%,0%,0%);stroke-opacity:1;stroke-miterlimit:4;" d="M 0.00146484 -0.00117493 L 0.00146484 3.499802 " transform="matrix(1.333333,0,0,1.333333,125.369141,194.400004)"/>
<path style=" stroke:none;fill-rule:nonzero;fill:rgb(0%,0%,0%);fill-opacity:1;" d="M 115.289062 212.667969 L 117.4375 212.667969 L 117.4375 205.25 L 115.101562 205.71875 L 115.101562 204.519531 L 117.425781 204.050781 L 118.738281 204.050781 L 118.738281 212.667969 L 120.886719 212.667969 L 120.886719 213.773438 L 115.289062 213.773438 Z M 115.289062 212.667969 "/>
<path style=" stroke:none;fill-rule:nonzero;fill:rgb(0%,0%,0%);fill-opacity:1;" d="M 126.355469 204.917969 C 125.679688 204.917969 125.171875 205.253906 124.828125 205.917969 C 124.488281 206.585938 124.320312 207.585938 124.320312 208.921875 C 124.320312 210.253906 124.488281 211.253906 124.828125 211.921875 C 125.171875 212.589844 125.679688 212.921875 126.355469 212.921875 C 127.039062 212.921875 127.550781 212.589844 127.890625 211.921875 C 128.230469 211.253906 128.402344 210.253906 128.402344 208.921875 C 128.402344 207.585938 128.230469 206.585938 127.890625 205.917969 C 127.550781 205.253906 127.039062 204.917969 126.355469 204.917969 Z M 126.355469 203.878906 C 127.445312 203.878906 128.28125 204.308594 128.855469 205.171875 C 129.429688 206.03125 129.71875 207.28125 129.71875 208.921875 C 129.71875 210.558594 129.429688 211.808594 128.855469 212.671875 C 128.28125 213.53125 127.445312 213.964844 126.355469 213.964844 C 125.265625 213.964844 124.4375 213.53125 123.859375 212.671875 C 123.285156 211.808594 123 210.558594 123 208.921875 C 123 207.28125 123.285156 206.03125 123.859375 205.171875 C 124.4375 204.308594 125.265625 203.878906 126.355469 203.878906 Z M 126.355469 203.878906 "/>
<path style=" stroke:none;fill-rule:nonzero;fill:rgb(0%,0%,0%);fill-opacity:1;" d="M 131.886719 207.894531 L 133.390625 207.894531 L 133.390625 202.703125 L 131.753906 203.03125 L 131.753906 202.191406 L 133.382812 201.863281 L 134.300781 201.863281 L 134.300781 207.894531 L 135.804688 207.894531 L 135.804688 208.667969 L 131.886719 208.667969 Z M 131.886719 207.894531 "/>
<g clip-path="url(#clip3)" clip-rule="nonzero">
<path style="fill:none;stroke-width:0.8;stroke-linecap:square;stroke-linejoin:round;stroke:rgb(69.01961%,69.01961%,69.01961%);stroke-opacity:1;stroke-miterlimit:4;" d="M 133.699219 145.798828 L 133.699219 7.201172 " transform="matrix(1.333333,0,0,1.333333,0,-0.000000000000014211)"/>
</g>
<path style="fill:none;stroke-width:0.8;stroke-linecap:butt;stroke-linejoin:round;stroke:rgb(0%,0%,0%);stroke-opacity:1;stroke-miterlimit:4;" d="M 0.000900269 -0.00117493 L 0.000900269 3.499802 " transform="matrix(1.333333,0,0,1.333333,178.264425,194.400004)"/>
<path style=" stroke:none;fill-rule:nonzero;fill:rgb(0%,0%,0%);fill-opacity:1;" d="M 168.183594 212.65625 L 170.332031 212.65625 L 170.332031 205.238281 L 167.996094 205.707031 L 167.996094 204.511719 L 170.320312 204.042969 L 171.636719 204.042969 L 171.636719 212.65625 L 173.78125 212.65625 L 173.78125 213.761719 L 168.183594 213.761719 Z M 168.183594 212.65625 "/>
<path style=" stroke:none;fill-rule:nonzero;fill:rgb(0%,0%,0%);fill-opacity:1;" d="M 179.25 204.910156 C 178.574219 204.910156 178.066406 205.242188 177.722656 205.910156 C 177.382812 206.574219 177.214844 207.574219 177.214844 208.914062 C 177.214844 210.246094 177.382812 211.242188 177.722656 211.910156 C 178.066406 212.578125 178.574219 212.910156 179.25 212.910156 C 179.933594 212.910156 180.445312 212.578125 180.785156 211.910156 C 181.125 211.242188 181.296875 210.246094 181.296875 208.914062 C 181.296875 207.574219 181.125 206.574219 180.785156 205.910156 C 180.445312 205.242188 179.933594 204.910156 179.25 204.910156 Z M 179.25 203.867188 C 180.34375 203.867188 181.175781 204.296875 181.75 205.160156 C 182.324219 206.023438 182.613281 207.273438 182.613281 208.914062 C 182.613281 210.546875 182.324219 211.796875 181.75 212.660156 C 181.175781 213.523438 180.34375 213.953125 179.25 213.953125 C 178.164062 213.953125 177.332031 213.523438 176.753906 212.660156 C 176.179688 211.796875 175.894531 210.546875 175.894531 208.914062 C 175.894531 207.273438 176.179688 206.023438 176.753906 205.160156 C 177.332031 204.296875 178.164062 203.867188 179.25 203.867188 Z M 179.25 203.867188 "/>
<path style=" stroke:none;fill-rule:nonzero;fill:rgb(0%,0%,0%);fill-opacity:1;" d="M 185.414062 207.882812 L 188.628906 207.882812 L 188.628906 208.660156 L 184.308594 208.660156 L 184.308594 207.882812 C 184.65625 207.523438 185.132812 207.039062 185.738281 206.429688 C 186.339844 205.820312 186.71875 205.425781 186.875 205.25 C 187.167969 204.917969 187.375 204.636719 187.492188 204.410156 C 187.609375 204.179688 187.667969 203.953125 187.667969 203.730469 C 187.667969 203.371094 187.539062 203.074219 187.285156 202.847656 C 187.03125 202.621094 186.703125 202.503906 186.296875 202.503906 C 186.007812 202.503906 185.703125 202.554688 185.378906 202.65625 C 185.0625 202.757812 184.71875 202.90625 184.355469 203.113281 L 184.355469 202.183594 C 184.722656 202.03125 185.070312 201.921875 185.390625 201.84375 C 185.714844 201.769531 186.011719 201.730469 186.277344 201.730469 C 186.980469 201.730469 187.542969 201.90625 187.964844 202.261719 C 188.382812 202.613281 188.59375 203.082031 188.59375 203.671875 C 188.59375 203.953125 188.539062 204.21875 188.433594 204.46875 C 188.332031 204.71875 188.140625 205.011719 187.863281 205.355469 C 187.785156 205.441406 187.546875 205.695312 187.136719 206.117188 C 186.730469 206.539062 186.15625 207.128906 185.414062 207.882812 Z M 185.414062 207.882812 "/>
<g clip-path="url(#clip4)" clip-rule="nonzero">
<path style="fill:none;stroke-width:0.8;stroke-linecap:square;stroke-linejoin:round;stroke:rgb(69.01961%,69.01961%,69.01961%);stroke-opacity:1;stroke-miterlimit:4;" d="M 173.370117 145.798828 L 173.370117 7.201172 " transform="matrix(1.333333,0,0,1.333333,0,-0.000000000000014211)"/>
</g>
<path style="fill:none;stroke-width:0.8;stroke-linecap:butt;stroke-linejoin:round;stroke:rgb(0%,0%,0%);stroke-opacity:1;stroke-miterlimit:4;" d="M 0.000335693 -0.00117493 L 0.000335693 3.499802 " transform="matrix(1.333333,0,0,1.333333,231.159709,194.400004)"/>
<path style=" stroke:none;fill-rule:nonzero;fill:rgb(0%,0%,0%);fill-opacity:1;" d="M 221.082031 212.65625 L 223.226562 212.65625 L 223.226562 205.238281 L 220.890625 205.707031 L 220.890625 204.511719 L 223.214844 204.042969 L 224.53125 204.042969 L 224.53125 212.65625 L 226.679688 212.65625 L 226.679688 213.761719 L 221.082031 213.761719 Z M 221.082031 212.65625 "/>
<path style=" stroke:none;fill-rule:nonzero;fill:rgb(0%,0%,0%);fill-opacity:1;" d="M 232.148438 204.910156 C 231.46875 204.910156 230.960938 205.242188 230.621094 205.910156 C 230.28125 206.574219 230.109375 207.574219 230.109375 208.914062 C 230.109375 210.246094 230.28125 211.242188 230.621094 211.910156 C 230.960938 212.578125 231.46875 212.910156 232.148438 212.910156 C 232.828125 212.910156 233.339844 212.578125 233.679688 211.910156 C 234.023438 211.242188 234.191406 210.246094 234.191406 208.914062 C 234.191406 207.574219 234.023438 206.574219 233.679688 205.910156 C 233.339844 205.242188 232.828125 204.910156 232.148438 204.910156 Z M 232.148438 203.867188 C 233.238281 203.867188 234.070312 204.296875 234.644531 205.160156 C 235.21875 206.023438 235.507812 207.273438 235.507812 208.914062 C 235.507812 210.546875 235.21875 211.796875 234.644531 212.660156 C 234.070312 213.523438 233.238281 213.953125 232.148438 213.953125 C 231.058594 213.953125 230.226562 213.523438 229.652344 212.660156 C 229.074219 211.796875 228.789062 210.546875 228.789062 208.914062 C 228.789062 207.273438 229.074219 206.023438 229.652344 205.160156 C 230.226562 204.296875 231.058594 203.867188 232.148438 203.867188 Z M 232.148438 203.867188 "/>
<path style=" stroke:none;fill-rule:nonzero;fill:rgb(0%,0%,0%);fill-opacity:1;" d="M 240.308594 204.988281 C 240.746094 205.082031 241.089844 205.28125 241.339844 205.578125 C 241.585938 205.875 241.710938 206.242188 241.710938 206.679688 C 241.710938 207.351562 241.480469 207.871094 241.019531 208.238281 C 240.554688 208.605469 239.898438 208.792969 239.050781 208.792969 C 238.765625 208.792969 238.46875 208.761719 238.167969 208.707031 C 237.867188 208.648438 237.554688 208.566406 237.230469 208.453125 L 237.230469 207.566406 C 237.488281 207.714844 237.765625 207.824219 238.070312 207.902344 C 238.375 207.976562 238.691406 208.015625 239.023438 208.015625 C 239.597656 208.015625 240.039062 207.902344 240.339844 207.675781 C 240.644531 207.445312 240.792969 207.117188 240.792969 206.679688 C 240.792969 206.28125 240.652344 205.964844 240.371094 205.738281 C 240.09375 205.515625 239.703125 205.402344 239.199219 205.402344 L 238.40625 205.402344 L 238.40625 204.644531 L 239.238281 204.644531 C 239.6875 204.644531 240.035156 204.554688 240.273438 204.371094 C 240.515625 204.191406 240.636719 203.929688 240.636719 203.589844 C 240.636719 203.242188 240.511719 202.972656 240.261719 202.785156 C 240.015625 202.597656 239.664062 202.503906 239.199219 202.503906 C 238.949219 202.503906 238.675781 202.535156 238.386719 202.589844 C 238.097656 202.644531 237.78125 202.726562 237.4375 202.84375 L 237.4375 202.023438 C 237.785156 201.925781 238.113281 201.851562 238.417969 201.804688 C 238.722656 201.753906 239.011719 201.730469 239.28125 201.730469 C 239.980469 201.730469 240.535156 201.890625 240.941406 202.207031 C 241.347656 202.523438 241.550781 202.953125 241.550781 203.496094 C 241.550781 203.871094 241.445312 204.191406 241.226562 204.449219 C 241.011719 204.710938 240.703125 204.890625 240.308594 204.988281 Z M 240.308594 204.988281 "/>
<g clip-path="url(#clip5)" clip-rule="nonzero">
<path style="fill:none;stroke-width:0.8;stroke-linecap:square;stroke-linejoin:round;stroke:rgb(69.01961%,69.01961%,69.01961%);stroke-opacity:1;stroke-miterlimit:4;" d="M 213.041016 145.798828 L 213.041016 7.201172 " transform="matrix(1.333333,0,0,1.333333,0,-0.000000000000014211)"/>
</g>
<path style="fill:none;stroke-width:0.8;stroke-linecap:butt;stroke-linejoin:round;stroke:rgb(0%,0%,0%);stroke-opacity:1;stroke-miterlimit:4;" d="M -0.000213623 -0.00117493 L -0.000213623 3.499802 " transform="matrix(1.333333,0,0,1.333333,284.054972,194.400004)"/>
<path style=" stroke:none;fill-rule:nonzero;fill:rgb(0%,0%,0%);fill-opacity:1;" d="M 273.976562 212.667969 L 276.125 212.667969 L 276.125 205.25 L 273.785156 205.71875 L 273.785156 204.519531 L 276.109375 204.050781 L 277.425781 204.050781 L 277.425781 212.667969 L 279.574219 212.667969 L 279.574219 213.773438 L 273.976562 213.773438 Z M 273.976562 212.667969 "/>
<path style=" stroke:none;fill-rule:nonzero;fill:rgb(0%,0%,0%);fill-opacity:1;" d="M 285.042969 204.917969 C 284.367188 204.917969 283.855469 205.253906 283.515625 205.917969 C 283.175781 206.585938 283.003906 207.585938 283.003906 208.921875 C 283.003906 210.253906 283.175781 211.253906 283.515625 211.921875 C 283.855469 212.589844 284.367188 212.921875 285.042969 212.921875 C 285.722656 212.921875 286.234375 212.589844 286.574219 211.921875 C 286.917969 211.253906 287.089844 210.253906 287.089844 208.921875 C 287.089844 207.585938 286.917969 206.585938 286.574219 205.917969 C 286.234375 205.253906 285.722656 204.917969 285.042969 204.917969 Z M 285.042969 203.878906 C 286.132812 203.878906 286.964844 204.308594 287.539062 205.171875 C 288.113281 206.03125 288.402344 207.28125 288.402344 208.921875 C 288.402344 210.558594 288.113281 211.808594 287.539062 212.671875 C 286.964844 213.53125 286.132812 213.964844 285.042969 213.964844 C 283.953125 213.964844 283.121094 213.53125 282.546875 212.671875 C 281.972656 211.808594 281.683594 210.558594 281.683594 208.921875 C 281.683594 207.28125 281.972656 206.03125 282.546875 205.171875 C 283.121094 204.308594 283.953125 203.878906 285.042969 203.878906 Z M 285.042969 203.878906 "/>
<path style=" stroke:none;fill-rule:nonzero;fill:rgb(0%,0%,0%);fill-opacity:1;" d="M 292.941406 202.667969 L 290.617188 206.300781 L 292.941406 206.300781 Z M 292.699219 201.863281 L 293.859375 201.863281 L 293.859375 206.300781 L 294.832031 206.300781 L 294.832031 207.066406 L 293.859375 207.066406 L 293.859375 208.667969 L 292.941406 208.667969 L 292.941406 207.066406 L 289.871094 207.066406 L 289.871094 206.175781 Z M 292.699219 201.863281 "/>
<path style="fill:none;stroke-width:0.6;stroke-linecap:butt;stroke-linejoin:round;stroke:rgb(0%,0%,0%);stroke-opacity:1;stroke-miterlimit:4;" d="M -0.000621796 -0.00117493 L -0.000621796 1.999802 " transform="matrix(1.333333,0,0,1.333333,60.73911,194.400004)"/>
<path style="fill:none;stroke-width:0.6;stroke-linecap:butt;stroke-linejoin:round;stroke:rgb(0%,0%,0%);stroke-opacity:1;stroke-miterlimit:4;" d="M 0.000724792 -0.00117493 L 0.000724792 1.999802 " transform="matrix(1.333333,0,0,1.333333,64.280284,194.400004)"/>
<path style="fill:none;stroke-width:0.6;stroke-linecap:butt;stroke-linejoin:round;stroke:rgb(0%,0%,0%);stroke-opacity:1;stroke-miterlimit:4;" d="M -0.0000953674 -0.00117493 L -0.0000953674 1.999802 " transform="matrix(1.333333,0,0,1.333333,67.347783,194.400004)"/>
<path style="fill:none;stroke-width:0.6;stroke-linecap:butt;stroke-linejoin:round;stroke:rgb(0%,0%,0%);stroke-opacity:1;stroke-miterlimit:4;" d="M 0.00088501 -0.00117493 L 0.00088501 1.999802 " transform="matrix(1.333333,0,0,1.333333,70.053507,194.400004)"/>
<path style="fill:none;stroke-width:0.6;stroke-linecap:butt;stroke-linejoin:round;stroke:rgb(0%,0%,0%);stroke-opacity:1;stroke-miterlimit:4;" d="M 0.00112915 -0.00117493 L 0.00112915 1.999802 " transform="matrix(1.333333,0,0,1.333333,88.396932,194.400004)"/>
<path style="fill:none;stroke-width:0.6;stroke-linecap:butt;stroke-linejoin:round;stroke:rgb(0%,0%,0%);stroke-opacity:1;stroke-miterlimit:4;" d="M -0.000289917 -0.00117493 L -0.000289917 1.999802 " transform="matrix(1.333333,0,0,1.333333,97.711324,194.400004)"/>
<path style="fill:none;stroke-width:0.6;stroke-linecap:butt;stroke-linejoin:round;stroke:rgb(0%,0%,0%);stroke-opacity:1;stroke-miterlimit:4;" d="M 0.000236511 -0.00117493 L 0.000236511 1.999802 " transform="matrix(1.333333,0,0,1.333333,104.319997,194.400004)"/>
<path style="fill:none;stroke-width:0.6;stroke-linecap:butt;stroke-linejoin:round;stroke:rgb(0%,0%,0%);stroke-opacity:1;stroke-miterlimit:4;" d="M -0.000572205 -0.00117493 L -0.000572205 1.999802 " transform="matrix(1.333333,0,0,1.333333,109.446075,194.400004)"/>
<path style="fill:none;stroke-width:0.6;stroke-linecap:butt;stroke-linejoin:round;stroke:rgb(0%,0%,0%);stroke-opacity:1;stroke-miterlimit:4;" d="M -0.00118256 -0.00117493 L -0.00118256 1.999802 " transform="matrix(1.333333,0,0,1.333333,113.634389,194.400004)"/>
<path style="fill:none;stroke-width:0.6;stroke-linecap:butt;stroke-linejoin:round;stroke:rgb(0%,0%,0%);stroke-opacity:1;stroke-miterlimit:4;" d="M 0.000167847 -0.00117493 L 0.000167847 1.999802 " transform="matrix(1.333333,0,0,1.333333,117.175557,194.400004)"/>
<path style="fill:none;stroke-width:0.6;stroke-linecap:butt;stroke-linejoin:round;stroke:rgb(0%,0%,0%);stroke-opacity:1;stroke-miterlimit:4;" d="M -0.000656128 -0.00117493 L -0.000656128 1.999802 " transform="matrix(1.333333,0,0,1.333333,120.243062,194.400004)"/>
<path style="fill:none;stroke-width:0.6;stroke-linecap:butt;stroke-linejoin:round;stroke:rgb(0%,0%,0%);stroke-opacity:1;stroke-miterlimit:4;" d="M 0.000320435 -0.00117493 L 0.000320435 1.999802 " transform="matrix(1.333333,0,0,1.333333,122.948792,194.400004)"/>
<path style="fill:none;stroke-width:0.6;stroke-linecap:butt;stroke-linejoin:round;stroke:rgb(0%,0%,0%);stroke-opacity:1;stroke-miterlimit:4;" d="M 0.000572205 -0.00117493 L 0.000572205 1.999802 " transform="matrix(1.333333,0,0,1.333333,141.292206,194.400004)"/>
<path style="fill:none;stroke-width:0.6;stroke-linecap:butt;stroke-linejoin:round;stroke:rgb(0%,0%,0%);stroke-opacity:1;stroke-miterlimit:4;" d="M -0.000854492 -0.00117493 L -0.000854492 1.999802 " transform="matrix(1.333333,0,0,1.333333,150.606608,194.400004)"/>
<path style="fill:none;stroke-width:0.6;stroke-linecap:butt;stroke-linejoin:round;stroke:rgb(0%,0%,0%);stroke-opacity:1;stroke-miterlimit:4;" d="M -0.000320435 -0.00117493 L -0.000320435 1.999802 " transform="matrix(1.333333,0,0,1.333333,157.215271,194.400004)"/>
<path style="fill:none;stroke-width:0.6;stroke-linecap:butt;stroke-linejoin:round;stroke:rgb(0%,0%,0%);stroke-opacity:1;stroke-miterlimit:4;" d="M -0.00113678 -0.00117493 L -0.00113678 1.999802 " transform="matrix(1.333333,0,0,1.333333,162.341359,194.400004)"/>
<path style="fill:none;stroke-width:0.6;stroke-linecap:butt;stroke-linejoin:round;stroke:rgb(0%,0%,0%);stroke-opacity:1;stroke-miterlimit:4;" d="M 0.00118256 -0.00117493 L 0.00118256 1.999802 " transform="matrix(1.333333,0,0,1.333333,166.529673,194.400004)"/>
<path style="fill:none;stroke-width:0.6;stroke-linecap:butt;stroke-linejoin:round;stroke:rgb(0%,0%,0%);stroke-opacity:1;stroke-miterlimit:4;" d="M -0.000396729 -0.00117493 L -0.000396729 1.999802 " transform="matrix(1.333333,0,0,1.333333,170.070841,194.400004)"/>
<path style="fill:none;stroke-width:0.6;stroke-linecap:butt;stroke-linejoin:round;stroke:rgb(0%,0%,0%);stroke-opacity:1;stroke-miterlimit:4;" d="M -0.0012207 -0.00117493 L -0.0012207 1.999802 " transform="matrix(1.333333,0,0,1.333333,173.138346,194.400004)"/>
<path style="fill:none;stroke-width:0.6;stroke-linecap:butt;stroke-linejoin:round;stroke:rgb(0%,0%,0%);stroke-opacity:1;stroke-miterlimit:4;" d="M -0.000228882 -0.00117493 L -0.000228882 1.999802 " transform="matrix(1.333333,0,0,1.333333,175.844055,194.400004)"/>
<path style="fill:none;stroke-width:0.6;stroke-linecap:butt;stroke-linejoin:round;stroke:rgb(0%,0%,0%);stroke-opacity:1;stroke-miterlimit:4;" d="M 0.0000152588 -0.00117493 L 0.0000152588 1.999802 " transform="matrix(1.333333,0,0,1.333333,194.18748,194.400004)"/>
<path style="fill:none;stroke-width:0.6;stroke-linecap:butt;stroke-linejoin:round;stroke:rgb(0%,0%,0%);stroke-opacity:1;stroke-miterlimit:4;" d="M -0.00141907 -0.00117493 L -0.00141907 1.999802 " transform="matrix(1.333333,0,0,1.333333,203.501892,194.400004)"/>
<path style="fill:none;stroke-width:0.6;stroke-linecap:butt;stroke-linejoin:round;stroke:rgb(0%,0%,0%);stroke-opacity:1;stroke-miterlimit:4;" d="M -0.00088501 -0.00117493 L -0.00088501 1.999802 " transform="matrix(1.333333,0,0,1.333333,210.110555,194.400004)"/>
<path style="fill:none;stroke-width:0.6;stroke-linecap:butt;stroke-linejoin:round;stroke:rgb(0%,0%,0%);stroke-opacity:1;stroke-miterlimit:4;" d="M 0.00123596 -0.00117493 L 0.00123596 1.999802 " transform="matrix(1.333333,0,0,1.333333,215.236633,194.400004)"/>
<path style="fill:none;stroke-width:0.6;stroke-linecap:butt;stroke-linejoin:round;stroke:rgb(0%,0%,0%);stroke-opacity:1;stroke-miterlimit:4;" d="M 0.00062561 -0.00117493 L 0.00062561 1.999802 " transform="matrix(1.333333,0,0,1.333333,219.424947,194.400004)"/>
<path style="fill:none;stroke-width:0.6;stroke-linecap:butt;stroke-linejoin:round;stroke:rgb(0%,0%,0%);stroke-opacity:1;stroke-miterlimit:4;" d="M -0.000961304 -0.00117493 L -0.000961304 1.999802 " transform="matrix(1.333333,0,0,1.333333,222.966125,194.400004)"/>
<path style="fill:none;stroke-width:0.6;stroke-linecap:butt;stroke-linejoin:round;stroke:rgb(0%,0%,0%);stroke-opacity:1;stroke-miterlimit:4;" d="M 0.00115967 -0.00117493 L 0.00115967 1.999802 " transform="matrix(1.333333,0,0,1.333333,226.03361,194.400004)"/>
<path style="fill:none;stroke-width:0.6;stroke-linecap:butt;stroke-linejoin:round;stroke:rgb(0%,0%,0%);stroke-opacity:1;stroke-miterlimit:4;" d="M -0.000793457 -0.00117493 L -0.000793457 1.999802 " transform="matrix(1.333333,0,0,1.333333,228.739339,194.400004)"/>
<path style="fill:none;stroke-width:0.6;stroke-linecap:butt;stroke-linejoin:round;stroke:rgb(0%,0%,0%);stroke-opacity:1;stroke-miterlimit:4;" d="M -0.000549316 -0.00117493 L -0.000549316 1.999802 " transform="matrix(1.333333,0,0,1.333333,247.082764,194.400004)"/>
<path style="fill:none;stroke-width:0.6;stroke-linecap:butt;stroke-linejoin:round;stroke:rgb(0%,0%,0%);stroke-opacity:1;stroke-miterlimit:4;" d="M 0.000961304 -0.00117493 L 0.000961304 1.999802 " transform="matrix(1.333333,0,0,1.333333,256.397156,194.400004)"/>
<path style="fill:none;stroke-width:0.6;stroke-linecap:butt;stroke-linejoin:round;stroke:rgb(0%,0%,0%);stroke-opacity:1;stroke-miterlimit:4;" d="M -0.00144958 -0.00117493 L -0.00144958 1.999802 " transform="matrix(1.333333,0,0,1.333333,263.005839,194.400004)"/>
<path style="fill:none;stroke-width:0.6;stroke-linecap:butt;stroke-linejoin:round;stroke:rgb(0%,0%,0%);stroke-opacity:1;stroke-miterlimit:4;" d="M 0.000671387 -0.00117493 L 0.000671387 1.999802 " transform="matrix(1.333333,0,0,1.333333,268.131917,194.400004)"/>
<path style="fill:none;stroke-width:0.6;stroke-linecap:butt;stroke-linejoin:round;stroke:rgb(0%,0%,0%);stroke-opacity:1;stroke-miterlimit:4;" d="M 0.0000610352 -0.00117493 L 0.0000610352 1.999802 " transform="matrix(1.333333,0,0,1.333333,272.320231,194.400004)"/>
<path style="fill:none;stroke-width:0.6;stroke-linecap:butt;stroke-linejoin:round;stroke:rgb(0%,0%,0%);stroke-opacity:1;stroke-miterlimit:4;" d="M 0.00141907 -0.00117493 L 0.00141907 1.999802 " transform="matrix(1.333333,0,0,1.333333,275.861389,194.400004)"/>
<path style="fill:none;stroke-width:0.6;stroke-linecap:butt;stroke-linejoin:round;stroke:rgb(0%,0%,0%);stroke-opacity:1;stroke-miterlimit:4;" d="M 0.000595093 -0.00117493 L 0.000595093 1.999802 " transform="matrix(1.333333,0,0,1.333333,278.928894,194.400004)"/>
<path style="fill:none;stroke-width:0.6;stroke-linecap:butt;stroke-linejoin:round;stroke:rgb(0%,0%,0%);stroke-opacity:1;stroke-miterlimit:4;" d="M -0.00135803 -0.00117493 L -0.00135803 1.999802 " transform="matrix(1.333333,0,0,1.333333,281.634623,194.400004)"/>
<path style="fill:none;stroke-width:0.6;stroke-linecap:butt;stroke-linejoin:round;stroke:rgb(0%,0%,0%);stroke-opacity:1;stroke-miterlimit:4;" d="M -0.00111389 -0.00117493 L -0.00111389 1.999802 " transform="matrix(1.333333,0,0,1.333333,299.978048,194.400004)"/>
<path style="fill:none;stroke-width:0.6;stroke-linecap:butt;stroke-linejoin:round;stroke:rgb(0%,0%,0%);stroke-opacity:1;stroke-miterlimit:4;" d="M 0.000396729 -0.00117493 L 0.000396729 1.999802 " transform="matrix(1.333333,0,0,1.333333,309.29244,194.400004)"/>
<path style="fill:none;stroke-width:0.6;stroke-linecap:butt;stroke-linejoin:round;stroke:rgb(0%,0%,0%);stroke-opacity:1;stroke-miterlimit:4;" d="M 0.000930786 -0.00117493 L 0.000930786 1.999802 " transform="matrix(1.333333,0,0,1.333333,315.901103,194.400004)"/>
<path style="fill:none;stroke-width:0.6;stroke-linecap:butt;stroke-linejoin:round;stroke:rgb(0%,0%,0%);stroke-opacity:1;stroke-miterlimit:4;" d="M 0.000106812 -0.00117493 L 0.000106812 1.999802 " transform="matrix(1.333333,0,0,1.333333,321.027201,194.400004)"/>
<path style=" stroke:none;fill-rule:nonzero;fill:rgb(0%,0%,0%);fill-opacity:1;" d="M 166.332031 222.738281 L 166.332031 224.808594 L 168.796875 224.808594 L 168.796875 225.742188 L 166.332031 225.742188 L 166.332031 229.699219 C 166.332031 230.292969 166.410156 230.675781 166.574219 230.847656 C 166.738281 231.015625 167.066406 231.101562 167.566406 231.101562 L 168.796875 231.101562 L 168.796875 232.101562 L 167.566406 232.101562 C 166.644531 232.101562 166.003906 231.929688 165.652344 231.585938 C 165.300781 231.238281 165.125 230.609375 165.125 229.699219 L 165.125 225.742188 L 164.246094 225.742188 L 164.246094 224.808594 L 165.125 224.808594 L 165.125 222.738281 Z M 166.332031 222.738281 "/>
<path style=" stroke:none;fill-rule:nonzero;fill:rgb(0%,0%,0%);fill-opacity:1;" d="M 173.199219 225.648438 C 172.554688 225.648438 172.046875 225.902344 171.675781 226.402344 C 171.300781 226.902344 171.113281 227.589844 171.113281 228.460938 C 171.113281 229.335938 171.300781 230.023438 171.671875 230.523438 C 172.042969 231.023438 172.550781 231.273438 173.199219 231.273438 C 173.835938 231.273438 174.34375 231.023438 174.714844 230.519531 C 175.089844 230.015625 175.273438 229.332031 175.273438 228.460938 C 175.273438 227.597656 175.089844 226.914062 174.714844 226.410156 C 174.34375 225.902344 173.835938 225.648438 173.199219 225.648438 Z M 173.199219 224.636719 C 174.238281 224.636719 175.058594 224.972656 175.652344 225.652344 C 176.246094 226.328125 176.546875 227.265625 176.546875 228.460938 C 176.546875 229.65625 176.246094 230.59375 175.652344 231.273438 C 175.058594 231.953125 174.238281 232.292969 173.199219 232.292969 C 172.152344 232.292969 171.332031 231.953125 170.738281 231.273438 C 170.148438 230.59375 169.851562 229.65625 169.851562 228.460938 C 169.851562 227.265625 170.148438 226.328125 170.738281 225.652344 C 171.332031 224.972656 172.152344 224.636719 173.199219 224.636719 Z M 173.199219 224.636719 "/>
<path style=" stroke:none;fill-rule:nonzero;fill:rgb(0%,0%,0%);fill-opacity:1;" d="M 178.484375 221.972656 L 179.6875 221.972656 L 179.6875 227.953125 L 183.261719 224.808594 L 184.792969 224.808594 L 180.925781 228.222656 L 184.957031 232.101562 L 183.394531 232.101562 L 179.6875 228.542969 L 179.6875 232.101562 L 178.484375 232.101562 Z M 178.484375 221.972656 "/>
<path style=" stroke:none;fill-rule:nonzero;fill:rgb(0%,0%,0%);fill-opacity:1;" d="M 192.003906 228.15625 L 192.003906 228.742188 L 186.496094 228.742188 C 186.550781 229.566406 186.796875 230.195312 187.242188 230.628906 C 187.6875 231.058594 188.308594 231.273438 189.101562 231.273438 C 189.5625 231.273438 190.007812 231.21875 190.4375 231.105469 C 190.871094 230.992188 191.300781 230.824219 191.726562 230.597656 L 191.726562 231.730469 C 191.296875 231.914062 190.855469 232.050781 190.402344 232.148438 C 189.953125 232.242188 189.496094 232.292969 189.03125 232.292969 C 187.867188 232.292969 186.945312 231.953125 186.265625 231.277344 C 185.585938 230.597656 185.246094 229.683594 185.246094 228.527344 C 185.246094 227.335938 185.570312 226.386719 186.214844 225.6875 C 186.859375 224.984375 187.726562 224.636719 188.824219 224.636719 C 189.804688 224.636719 190.578125 224.953125 191.148438 225.582031 C 191.71875 226.214844 192.003906 227.070312 192.003906 228.15625 Z M 190.808594 227.804688 C 190.800781 227.148438 190.617188 226.628906 190.257812 226.238281 C 189.898438 225.847656 189.425781 225.648438 188.835938 225.648438 C 188.167969 225.648438 187.632812 225.839844 187.230469 226.214844 C 186.828125 226.59375 186.597656 227.125 186.535156 227.8125 Z M 190.808594 227.804688 "/>
<path style=" stroke:none;fill-rule:nonzero;fill:rgb(0%,0%,0%);fill-opacity:1;" d="M 200.035156 227.699219 L 200.035156 232.101562 L 198.835938 232.101562 L 198.835938 227.738281 C 198.835938 227.050781 198.703125 226.535156 198.433594 226.191406 C 198.164062 225.847656 197.757812 225.675781 197.222656 225.675781 C 196.574219 225.675781 196.0625 225.882812 195.691406 226.296875 C 195.316406 226.707031 195.128906 227.269531 195.128906 227.980469 L 195.128906 232.101562 L 193.925781 232.101562 L 193.925781 224.808594 L 195.128906 224.808594 L 195.128906 225.945312 C 195.417969 225.503906 195.753906 225.175781 196.140625 224.960938 C 196.53125 224.742188 196.980469 224.636719 197.488281 224.636719 C 198.324219 224.636719 198.957031 224.894531 199.386719 225.414062 C 199.820312 225.929688 200.035156 226.691406 200.035156 227.699219 Z M 200.035156 227.699219 "/>
<path style=" stroke:none;fill-rule:nonzero;fill:rgb(0%,0%,0%);fill-opacity:1;" d="M 202.726562 230.449219 L 204.101562 230.449219 L 204.101562 232.101562 L 202.726562 232.101562 Z M 202.726562 225.207031 L 204.101562 225.207031 L 204.101562 226.859375 L 202.726562 226.859375 Z M 202.726562 225.207031 "/>
<path style=" stroke:none;fill-rule:nonzero;fill:rgb(0%,0%,0%);fill-opacity:1;" d="M 217.214844 224.808594 L 214.578125 228.359375 L 217.351562 232.101562 L 215.9375 232.101562 L 213.816406 229.238281 L 211.695312 232.101562 L 210.28125 232.101562 L 213.113281 228.289062 L 210.519531 224.808594 L 211.933594 224.808594 L 213.867188 227.410156 L 215.800781 224.808594 Z M 217.214844 224.808594 "/>
<g clip-path="url(#clip6)" clip-rule="nonzero">
<path style="fill:none;stroke-width:0.8;stroke-linecap:square;stroke-linejoin:round;stroke:rgb(69.01961%,69.01961%,69.01961%);stroke-opacity:1;stroke-miterlimit:4;" d="M 45.477539 139.5 L 240.779297 139.5 " transform="matrix(1.333333,0,0,1.333333,0,-0.000000000000014211)"/>
</g>
<path style="fill:none;stroke-width:0.8;stroke-linecap:butt;stroke-linejoin:round;stroke:rgb(0%,0%,0%);stroke-opacity:1;stroke-miterlimit:4;" d="M -0.000587463 -0.000000000000028422 L -3.498634 -0.000000000000028422 " transform="matrix(1.333333,0,0,1.333333,60.637502,186)"/>
<path style=" stroke:none;fill-rule:nonzero;fill:rgb(0%,0%,0%);fill-opacity:1;" d="M 29.492188 189.855469 L 31.640625 189.855469 L 31.640625 182.441406 L 29.300781 182.910156 L 29.300781 181.710938 L 31.628906 181.242188 L 32.941406 181.242188 L 32.941406 189.855469 L 35.089844 189.855469 L 35.089844 190.964844 L 29.492188 190.964844 Z M 29.492188 189.855469 "/>
<path style=" stroke:none;fill-rule:nonzero;fill:rgb(0%,0%,0%);fill-opacity:1;" d="M 40.558594 182.109375 C 39.882812 182.109375 39.371094 182.441406 39.03125 183.109375 C 38.691406 183.773438 38.519531 184.777344 38.519531 186.113281 C 38.519531 187.445312 38.691406 188.445312 39.03125 189.113281 C 39.371094 189.777344 39.882812 190.113281 40.558594 190.113281 C 41.238281 190.113281 41.75 189.777344 42.089844 189.113281 C 42.433594 188.445312 42.605469 187.445312 42.605469 186.113281 C 42.605469 184.777344 42.433594 183.773438 42.089844 183.109375 C 41.75 182.441406 41.238281 182.109375 40.558594 182.109375 Z M 40.558594 181.066406 C 41.648438 181.066406 42.480469 181.5 43.054688 182.363281 C 43.632812 183.222656 43.917969 184.472656 43.917969 186.113281 C 43.917969 187.75 43.632812 189 43.054688 189.863281 C 42.480469 190.722656 41.648438 191.152344 40.558594 191.152344 C 39.46875 191.152344 38.636719 190.722656 38.0625 189.863281 C 37.488281 189 37.199219 187.75 37.199219 186.113281 C 37.199219 184.472656 37.488281 183.222656 38.0625 182.363281 C 38.636719 181.5 39.46875 181.066406 40.558594 181.066406 Z M 40.558594 181.066406 "/>
<path style=" stroke:none;fill-rule:nonzero;fill:rgb(0%,0%,0%);fill-opacity:1;" d="M 47.898438 179.660156 C 47.425781 179.660156 47.066406 179.894531 46.828125 180.363281 C 46.589844 180.828125 46.472656 181.527344 46.472656 182.464844 C 46.472656 183.398438 46.589844 184.097656 46.828125 184.5625 C 47.066406 185.03125 47.425781 185.261719 47.898438 185.261719 C 48.375 185.261719 48.734375 185.03125 48.972656 184.5625 C 49.210938 184.097656 49.328125 183.398438 49.328125 182.464844 C 49.328125 181.527344 49.210938 180.828125 48.972656 180.363281 C 48.734375 179.894531 48.375 179.660156 47.898438 179.660156 Z M 47.898438 178.933594 C 48.660156 178.933594 49.242188 179.234375 49.644531 179.839844 C 50.046875 180.441406 50.25 181.316406 50.25 182.464844 C 50.25 183.609375 50.046875 184.484375 49.644531 185.089844 C 49.242188 185.691406 48.660156 185.992188 47.898438 185.992188 C 47.136719 185.992188 46.554688 185.691406 46.152344 185.089844 C 45.746094 184.484375 45.546875 183.609375 45.546875 182.464844 C 45.546875 181.316406 45.746094 180.441406 46.152344 179.839844 C 46.554688 179.234375 47.136719 178.933594 47.898438 178.933594 Z M 47.898438 178.933594 "/>
<g clip-path="url(#clip7)" clip-rule="nonzero">
<path style="fill:none;stroke-width:0.8;stroke-linecap:square;stroke-linejoin:round;stroke:rgb(69.01961%,69.01961%,69.01961%);stroke-opacity:1;stroke-miterlimit:4;" d="M 45.477539 101.935547 L 240.779297 101.935547 " transform="matrix(1.333333,0,0,1.333333,0,-0.000000000000014211)"/>
</g>
<path style="fill:none;stroke-width:0.8;stroke-linecap:butt;stroke-linejoin:round;stroke:rgb(0%,0%,0%);stroke-opacity:1;stroke-miterlimit:4;" d="M -0.000587463 -0.000732422 L -3.498634 -0.000732422 " transform="matrix(1.333333,0,0,1.333333,60.637502,135.915039)"/>
<path style=" stroke:none;fill-rule:nonzero;fill:rgb(0%,0%,0%);fill-opacity:1;" d="M 29.492188 139.78125 L 31.640625 139.78125 L 31.640625 132.367188 L 29.300781 132.835938 L 29.300781 131.636719 L 31.628906 131.167969 L 32.941406 131.167969 L 32.941406 139.78125 L 35.089844 139.78125 L 35.089844 140.890625 L 29.492188 140.890625 Z M 29.492188 139.78125 "/>
<path style=" stroke:none;fill-rule:nonzero;fill:rgb(0%,0%,0%);fill-opacity:1;" d="M 40.558594 132.035156 C 39.882812 132.035156 39.371094 132.367188 39.03125 133.035156 C 38.691406 133.699219 38.519531 134.703125 38.519531 136.039062 C 38.519531 137.371094 38.691406 138.371094 39.03125 139.039062 C 39.371094 139.703125 39.882812 140.039062 40.558594 140.039062 C 41.238281 140.039062 41.75 139.703125 42.089844 139.039062 C 42.433594 138.371094 42.605469 137.371094 42.605469 136.039062 C 42.605469 134.703125 42.433594 133.699219 42.089844 133.035156 C 41.75 132.367188 41.238281 132.035156 40.558594 132.035156 Z M 40.558594 130.992188 C 41.648438 130.992188 42.480469 131.425781 43.054688 132.289062 C 43.632812 133.148438 43.917969 134.398438 43.917969 136.039062 C 43.917969 137.675781 43.632812 138.925781 43.054688 139.789062 C 42.480469 140.648438 41.648438 141.078125 40.558594 141.078125 C 39.46875 141.078125 38.636719 140.648438 38.0625 139.789062 C 37.488281 138.925781 37.199219 137.675781 37.199219 136.039062 C 37.199219 134.398438 37.488281 133.148438 38.0625 132.289062 C 38.636719 131.425781 39.46875 130.992188 40.558594 130.992188 Z M 40.558594 130.992188 "/>
<path style=" stroke:none;fill-rule:nonzero;fill:rgb(0%,0%,0%);fill-opacity:1;" d="M 46.089844 135.011719 L 47.59375 135.011719 L 47.59375 129.820312 L 45.957031 130.148438 L 45.957031 129.308594 L 47.582031 128.980469 L 48.503906 128.980469 L 48.503906 135.011719 L 50.007812 135.011719 L 50.007812 135.785156 L 46.089844 135.785156 Z M 46.089844 135.011719 "/>
<g clip-path="url(#clip8)" clip-rule="nonzero">
<path style="fill:none;stroke-width:0.8;stroke-linecap:square;stroke-linejoin:round;stroke:rgb(69.01961%,69.01961%,69.01961%);stroke-opacity:1;stroke-miterlimit:4;" d="M 45.477539 64.374023 L 240.779297 64.374023 " transform="matrix(1.333333,0,0,1.333333,0,-0.000000000000014211)"/>
</g>
<path style="fill:none;stroke-width:0.8;stroke-linecap:butt;stroke-linejoin:round;stroke:rgb(0%,0%,0%);stroke-opacity:1;stroke-miterlimit:4;" d="M -0.000587463 0.00145721 L -3.498634 0.00145721 " transform="matrix(1.333333,0,0,1.333333,60.637502,85.830088)"/>
<path style=" stroke:none;fill-rule:nonzero;fill:rgb(0%,0%,0%);fill-opacity:1;" d="M 29.492188 89.6875 L 31.640625 89.6875 L 31.640625 82.269531 L 29.300781 82.738281 L 29.300781 81.542969 L 31.628906 81.074219 L 32.941406 81.074219 L 32.941406 89.6875 L 35.089844 89.6875 L 35.089844 90.792969 L 29.492188 90.792969 Z M 29.492188 89.6875 "/>
<path style=" stroke:none;fill-rule:nonzero;fill:rgb(0%,0%,0%);fill-opacity:1;" d="M 40.558594 81.941406 C 39.882812 81.941406 39.371094 82.273438 39.03125 82.941406 C 38.691406 83.605469 38.519531 84.605469 38.519531 85.945312 C 38.519531 87.277344 38.691406 88.273438 39.03125 88.941406 C 39.371094 89.609375 39.882812 89.941406 40.558594 89.941406 C 41.238281 89.941406 41.75 89.609375 42.089844 88.941406 C 42.433594 88.273438 42.605469 87.277344 42.605469 85.945312 C 42.605469 84.605469 42.433594 83.605469 42.089844 82.941406 C 41.75 82.273438 41.238281 81.941406 40.558594 81.941406 Z M 40.558594 80.898438 C 41.648438 80.898438 42.480469 81.328125 43.054688 82.191406 C 43.632812 83.050781 43.917969 84.304688 43.917969 85.945312 C 43.917969 87.578125 43.632812 88.828125 43.054688 89.691406 C 42.480469 90.550781 41.648438 90.984375 40.558594 90.984375 C 39.46875 90.984375 38.636719 90.550781 38.0625 89.691406 C 37.488281 88.828125 37.199219 87.578125 37.199219 85.945312 C 37.199219 84.304688 37.488281 83.050781 38.0625 82.191406 C 38.636719 81.328125 39.46875 80.898438 40.558594 80.898438 Z M 40.558594 80.898438 "/>
<path style=" stroke:none;fill-rule:nonzero;fill:rgb(0%,0%,0%);fill-opacity:1;" d="M 46.722656 84.914062 L 49.933594 84.914062 L 49.933594 85.691406 L 45.613281 85.691406 L 45.613281 84.914062 C 45.964844 84.554688 46.441406 84.066406 47.042969 83.460938 C 47.648438 82.851562 48.027344 82.457031 48.179688 82.28125 C 48.476562 81.949219 48.679688 81.667969 48.796875 81.441406 C 48.914062 81.210938 48.972656 80.984375 48.972656 80.761719 C 48.972656 80.402344 48.847656 80.105469 48.59375 79.878906 C 48.339844 79.652344 48.007812 79.535156 47.601562 79.535156 C 47.3125 79.535156 47.007812 79.585938 46.6875 79.6875 C 46.367188 79.785156 46.023438 79.9375 45.660156 80.144531 L 45.660156 79.214844 C 46.03125 79.0625 46.375 78.953125 46.699219 78.875 C 47.023438 78.800781 47.316406 78.761719 47.582031 78.761719 C 48.289062 78.761719 48.851562 78.9375 49.269531 79.292969 C 49.6875 79.644531 49.898438 80.113281 49.898438 80.703125 C 49.898438 80.984375 49.847656 81.25 49.742188 81.5 C 49.636719 81.75 49.445312 82.042969 49.167969 82.386719 C 49.09375 82.472656 48.851562 82.726562 48.445312 83.148438 C 48.039062 83.570312 47.464844 84.160156 46.722656 84.914062 Z M 46.722656 84.914062 "/>
<g clip-path="url(#clip9)" clip-rule="nonzero">
<path style="fill:none;stroke-width:0.8;stroke-linecap:square;stroke-linejoin:round;stroke:rgb(69.01961%,69.01961%,69.01961%);stroke-opacity:1;stroke-miterlimit:4;" d="M 45.477539 26.80957 L 240.779297 26.80957 " transform="matrix(1.333333,0,0,1.333333,0,-0.000000000000014211)"/>
</g>
<path style="fill:none;stroke-width:0.8;stroke-linecap:butt;stroke-linejoin:round;stroke:rgb(0%,0%,0%);stroke-opacity:1;stroke-miterlimit:4;" d="M -0.000587463 0.000724792 L -3.498634 0.000724792 " transform="matrix(1.333333,0,0,1.333333,60.637502,35.745127)"/>
<path style=" stroke:none;fill-rule:nonzero;fill:rgb(0%,0%,0%);fill-opacity:1;" d="M 29.492188 39.601562 L 31.640625 39.601562 L 31.640625 32.1875 L 29.300781 32.65625 L 29.300781 31.457031 L 31.628906 30.988281 L 32.941406 30.988281 L 32.941406 39.601562 L 35.089844 39.601562 L 35.089844 40.707031 L 29.492188 40.707031 Z M 29.492188 39.601562 "/>
<path style=" stroke:none;fill-rule:nonzero;fill:rgb(0%,0%,0%);fill-opacity:1;" d="M 40.558594 31.855469 C 39.882812 31.855469 39.371094 32.1875 39.03125 32.855469 C 38.691406 33.519531 38.519531 34.519531 38.519531 35.859375 C 38.519531 37.191406 38.691406 38.191406 39.03125 38.855469 C 39.371094 39.523438 39.882812 39.855469 40.558594 39.855469 C 41.238281 39.855469 41.75 39.523438 42.089844 38.855469 C 42.433594 38.191406 42.605469 37.191406 42.605469 35.859375 C 42.605469 34.519531 42.433594 33.519531 42.089844 32.855469 C 41.75 32.1875 41.238281 31.855469 40.558594 31.855469 Z M 40.558594 30.8125 C 41.648438 30.8125 42.480469 31.242188 43.054688 32.105469 C 43.632812 32.96875 43.917969 34.21875 43.917969 35.859375 C 43.917969 37.496094 43.632812 38.742188 43.054688 39.605469 C 42.480469 40.46875 41.648438 40.898438 40.558594 40.898438 C 39.46875 40.898438 38.636719 40.46875 38.0625 39.605469 C 37.488281 38.742188 37.199219 37.496094 37.199219 35.859375 C 37.199219 34.21875 37.488281 32.96875 38.0625 32.105469 C 38.636719 31.242188 39.46875 30.8125 40.558594 30.8125 Z M 40.558594 30.8125 "/>
<path style=" stroke:none;fill-rule:nonzero;fill:rgb(0%,0%,0%);fill-opacity:1;" d="M 48.71875 31.933594 C 49.160156 32.03125 49.503906 32.226562 49.75 32.523438 C 49.996094 32.820312 50.121094 33.191406 50.121094 33.628906 C 50.121094 34.296875 49.890625 34.816406 49.429688 35.1875 C 48.96875 35.554688 48.3125 35.738281 47.460938 35.738281 C 47.175781 35.738281 46.882812 35.710938 46.578125 35.652344 C 46.277344 35.597656 45.964844 35.511719 45.644531 35.398438 L 45.644531 34.511719 C 45.898438 34.660156 46.175781 34.773438 46.480469 34.847656 C 46.785156 34.921875 47.101562 34.960938 47.433594 34.960938 C 48.011719 34.960938 48.449219 34.847656 48.753906 34.621094 C 49.054688 34.394531 49.207031 34.0625 49.207031 33.628906 C 49.207031 33.226562 49.066406 32.910156 48.785156 32.6875 C 48.503906 32.460938 48.113281 32.347656 47.613281 32.347656 L 46.816406 32.347656 L 46.816406 31.589844 L 47.648438 31.589844 C 48.101562 31.589844 48.445312 31.5 48.6875 31.320312 C 48.925781 31.136719 49.046875 30.878906 49.046875 30.535156 C 49.046875 30.1875 48.921875 29.917969 48.675781 29.734375 C 48.429688 29.546875 48.074219 29.453125 47.613281 29.453125 C 47.359375 29.453125 47.089844 29.480469 46.800781 29.535156 C 46.511719 29.589844 46.191406 29.675781 45.847656 29.789062 L 45.847656 28.96875 C 46.195312 28.871094 46.523438 28.800781 46.828125 28.75 C 47.136719 28.703125 47.421875 28.675781 47.691406 28.675781 C 48.390625 28.675781 48.945312 28.835938 49.351562 29.152344 C 49.757812 29.472656 49.960938 29.898438 49.960938 30.441406 C 49.960938 30.816406 49.855469 31.136719 49.640625 31.394531 C 49.421875 31.65625 49.117188 31.835938 48.71875 31.933594 Z M 48.71875 31.933594 "/>
<path style="fill:none;stroke-width:0.6;stroke-linecap:butt;stroke-linejoin:round;stroke:rgb(0%,0%,0%);stroke-opacity:1;stroke-miterlimit:4;" d="M -0.000587463 -0.000335693 L -1.998634 -0.000335693 " transform="matrix(1.333333,0,0,1.333333,60.637502,193.75826)"/>
<path style="fill:none;stroke-width:0.6;stroke-linecap:butt;stroke-linejoin:round;stroke:rgb(0%,0%,0%);stroke-opacity:1;stroke-miterlimit:4;" d="M -0.000587463 0.001297 L -1.998634 0.001297 " transform="matrix(1.333333,0,0,1.333333,60.637502,190.853739)"/>
<path style="fill:none;stroke-width:0.6;stroke-linecap:butt;stroke-linejoin:round;stroke:rgb(0%,0%,0%);stroke-opacity:1;stroke-miterlimit:4;" d="M -0.000587463 0.000900269 L -1.998634 0.000900269 " transform="matrix(1.333333,0,0,1.333333,60.637502,188.291768)"/>
<path style="fill:none;stroke-width:0.6;stroke-linecap:butt;stroke-linejoin:round;stroke:rgb(0%,0%,0%);stroke-opacity:1;stroke-miterlimit:4;" d="M -0.000587463 -0.000793457 L -1.998634 -0.000793457 " transform="matrix(1.333333,0,0,1.333333,60.637502,170.922933)"/>
<path style="fill:none;stroke-width:0.6;stroke-linecap:butt;stroke-linejoin:round;stroke:rgb(0%,0%,0%);stroke-opacity:1;stroke-miterlimit:4;" d="M -0.000587463 -0.00138092 L -1.998634 -0.00138092 " transform="matrix(1.333333,0,0,1.333333,60.637502,162.103404)"/>
<path style="fill:none;stroke-width:0.6;stroke-linecap:butt;stroke-linejoin:round;stroke:rgb(0%,0%,0%);stroke-opacity:1;stroke-miterlimit:4;" d="M -0.000587463 0.0013504 L -1.998634 0.0013504 " transform="matrix(1.333333,0,0,1.333333,60.637502,155.845856)"/>
<path style="fill:none;stroke-width:0.6;stroke-linecap:butt;stroke-linejoin:round;stroke:rgb(0%,0%,0%);stroke-opacity:1;stroke-miterlimit:4;" d="M -0.000587463 0.0000534058 L -1.998634 0.0000534058 " transform="matrix(1.333333,0,0,1.333333,60.637502,150.992116)"/>
<path style="fill:none;stroke-width:0.6;stroke-linecap:butt;stroke-linejoin:round;stroke:rgb(0%,0%,0%);stroke-opacity:1;stroke-miterlimit:4;" d="M -0.000587463 0.000762939 L -1.998634 0.000762939 " transform="matrix(1.333333,0,0,1.333333,60.637502,147.026326)"/>
<path style="fill:none;stroke-width:0.6;stroke-linecap:butt;stroke-linejoin:round;stroke:rgb(0%,0%,0%);stroke-opacity:1;stroke-miterlimit:4;" d="M -0.000587463 -0.00106812 L -1.998634 -0.00106812 " transform="matrix(1.333333,0,0,1.333333,60.637502,143.673299)"/>
<path style="fill:none;stroke-width:0.6;stroke-linecap:butt;stroke-linejoin:round;stroke:rgb(0%,0%,0%);stroke-opacity:1;stroke-miterlimit:4;" d="M -0.000587463 0.000564575 L -1.998634 0.000564575 " transform="matrix(1.333333,0,0,1.333333,60.637502,140.768778)"/>
<path style="fill:none;stroke-width:0.6;stroke-linecap:butt;stroke-linejoin:round;stroke:rgb(0%,0%,0%);stroke-opacity:1;stroke-miterlimit:4;" d="M -0.000587463 0.000167847 L -1.998634 0.000167847 " transform="matrix(1.333333,0,0,1.333333,60.637502,138.206807)"/>
<path style="fill:none;stroke-width:0.6;stroke-linecap:butt;stroke-linejoin:round;stroke:rgb(0%,0%,0%);stroke-opacity:1;stroke-miterlimit:4;" d="M -0.000587463 0.00140381 L -1.998634 0.00140381 " transform="matrix(1.333333,0,0,1.333333,60.637502,120.837972)"/>
<path style="fill:none;stroke-width:0.6;stroke-linecap:butt;stroke-linejoin:round;stroke:rgb(0%,0%,0%);stroke-opacity:1;stroke-miterlimit:4;" d="M -0.000587463 0.000816345 L -1.998634 0.000816345 " transform="matrix(1.333333,0,0,1.333333,60.637502,112.018443)"/>
<path style="fill:none;stroke-width:0.6;stroke-linecap:butt;stroke-linejoin:round;stroke:rgb(0%,0%,0%);stroke-opacity:1;stroke-miterlimit:4;" d="M -0.000587463 0.000617981 L -1.998634 0.000617981 " transform="matrix(1.333333,0,0,1.333333,60.637502,105.760895)"/>
<path style="fill:none;stroke-width:0.6;stroke-linecap:butt;stroke-linejoin:round;stroke:rgb(0%,0%,0%);stroke-opacity:1;stroke-miterlimit:4;" d="M -0.000587463 -0.000679016 L -1.998634 -0.000679016 " transform="matrix(1.333333,0,0,1.333333,60.637502,100.907155)"/>
<path style="fill:none;stroke-width:0.6;stroke-linecap:butt;stroke-linejoin:round;stroke:rgb(0%,0%,0%);stroke-opacity:1;stroke-miterlimit:4;" d="M -0.000587463 0.0000228882 L -1.998634 0.0000228882 " transform="matrix(1.333333,0,0,1.333333,60.637502,96.941376)"/>
<path style="fill:none;stroke-width:0.6;stroke-linecap:butt;stroke-linejoin:round;stroke:rgb(0%,0%,0%);stroke-opacity:1;stroke-miterlimit:4;" d="M -0.000587463 0.00112152 L -1.998634 0.00112152 " transform="matrix(1.333333,0,0,1.333333,60.637502,93.588348)"/>
<path style="fill:none;stroke-width:0.6;stroke-linecap:butt;stroke-linejoin:round;stroke:rgb(0%,0%,0%);stroke-opacity:1;stroke-miterlimit:4;" d="M -0.000587463 -0.000167847 L -1.998634 -0.000167847 " transform="matrix(1.333333,0,0,1.333333,60.637502,90.683818)"/>
<path style="fill:none;stroke-width:0.6;stroke-linecap:butt;stroke-linejoin:round;stroke:rgb(0%,0%,0%);stroke-opacity:1;stroke-miterlimit:4;" d="M -0.000587463 -0.000564575 L -1.998634 -0.000564575 " transform="matrix(1.333333,0,0,1.333333,60.637502,88.121847)"/>
<path style="fill:none;stroke-width:0.6;stroke-linecap:butt;stroke-linejoin:round;stroke:rgb(0%,0%,0%);stroke-opacity:1;stroke-miterlimit:4;" d="M -0.000587463 0.000671387 L -1.998634 0.000671387 " transform="matrix(1.333333,0,0,1.333333,60.637502,70.753011)"/>
<path style="fill:none;stroke-width:0.6;stroke-linecap:butt;stroke-linejoin:round;stroke:rgb(0%,0%,0%);stroke-opacity:1;stroke-miterlimit:4;" d="M -0.000587463 0.0000801086 L -1.998634 0.0000801086 " transform="matrix(1.333333,0,0,1.333333,60.637502,61.933487)"/>
<path style="fill:none;stroke-width:0.6;stroke-linecap:butt;stroke-linejoin:round;stroke:rgb(0%,0%,0%);stroke-opacity:1;stroke-miterlimit:4;" d="M -0.000587463 -0.000118256 L -1.998634 -0.000118256 " transform="matrix(1.333333,0,0,1.333333,60.637502,55.675939)"/>
<path style="fill:none;stroke-width:0.6;stroke-linecap:butt;stroke-linejoin:round;stroke:rgb(0%,0%,0%);stroke-opacity:1;stroke-miterlimit:4;" d="M -0.000587463 -0.00141907 L -1.998634 -0.00141907 " transform="matrix(1.333333,0,0,1.333333,60.637502,50.822205)"/>
<path style="fill:none;stroke-width:0.6;stroke-linecap:butt;stroke-linejoin:round;stroke:rgb(0%,0%,0%);stroke-opacity:1;stroke-miterlimit:4;" d="M -0.000587463 -0.000709534 L -1.998634 -0.000709534 " transform="matrix(1.333333,0,0,1.333333,60.637502,46.856415)"/>
<path style="fill:none;stroke-width:0.6;stroke-linecap:butt;stroke-linejoin:round;stroke:rgb(0%,0%,0%);stroke-opacity:1;stroke-miterlimit:4;" d="M -0.000587463 0.000389099 L -1.998634 0.000389099 " transform="matrix(1.333333,0,0,1.333333,60.637502,43.503387)"/>
<path style="fill:none;stroke-width:0.6;stroke-linecap:butt;stroke-linejoin:round;stroke:rgb(0%,0%,0%);stroke-opacity:1;stroke-miterlimit:4;" d="M -0.000587463 -0.000904083 L -1.998634 -0.000904083 " transform="matrix(1.333333,0,0,1.333333,60.637502,40.598862)"/>
<path style="fill:none;stroke-width:0.6;stroke-linecap:butt;stroke-linejoin:round;stroke:rgb(0%,0%,0%);stroke-opacity:1;stroke-miterlimit:4;" d="M -0.000587463 -0.00130081 L -1.998634 -0.00130081 " transform="matrix(1.333333,0,0,1.333333,60.637502,38.036891)"/>
<path style="fill:none;stroke-width:0.6;stroke-linecap:butt;stroke-linejoin:round;stroke:rgb(0%,0%,0%);stroke-opacity:1;stroke-miterlimit:4;" d="M -0.000587463 -0.0000648499 L -1.998634 -0.0000648499 " transform="matrix(1.333333,0,0,1.333333,60.637502,20.668055)"/>
<path style="fill:none;stroke-width:0.6;stroke-linecap:butt;stroke-linejoin:round;stroke:rgb(0%,0%,0%);stroke-opacity:1;stroke-miterlimit:4;" d="M -0.000587463 -0.000656128 L -1.998634 -0.000656128 " transform="matrix(1.333333,0,0,1.333333,60.637502,11.848531)"/>
<path style=" stroke:none;fill-rule:nonzero;fill:rgb(0%,0%,0%);fill-opacity:1;" d="M 9.601562 147.742188 L 10.597656 147.742188 L 10.597656 148.886719 C 10.597656 149.316406 10.683594 149.617188 10.859375 149.785156 C 11.03125 149.949219 11.34375 150.035156 11.796875 150.035156 L 12.441406 150.035156 L 12.441406 148.058594 L 13.371094 148.058594 L 13.371094 150.035156 L 19.730469 150.035156 L 19.730469 151.238281 L 13.371094 151.238281 L 13.371094 152.382812 L 12.441406 152.382812 L 12.441406 151.238281 L 11.929688 151.238281 C 11.121094 151.238281 10.527344 151.046875 10.160156 150.671875 C 9.785156 150.292969 9.601562 149.695312 9.601562 148.875 Z M 9.601562 147.742188 "/>
<path style=" stroke:none;fill-rule:nonzero;fill:rgb(0%,0%,0%);fill-opacity:1;" d="M 13.558594 142.515625 C 13.480469 142.648438 13.421875 142.796875 13.386719 142.953125 C 13.351562 143.113281 13.332031 143.285156 13.332031 143.476562 C 13.332031 144.15625 13.550781 144.675781 13.992188 145.039062 C 14.433594 145.398438 15.066406 145.582031 15.890625 145.582031 L 19.730469 145.582031 L 19.730469 146.785156 L 12.441406 146.785156 L 12.441406 145.582031 L 13.574219 145.582031 C 13.128906 145.328125 12.800781 145 12.585938 144.597656 C 12.371094 144.195312 12.265625 143.703125 12.265625 143.125 C 12.265625 143.042969 12.269531 142.953125 12.28125 142.851562 C 12.289062 142.75 12.308594 142.640625 12.328125 142.519531 Z M 13.558594 142.515625 "/>
<path style=" stroke:none;fill-rule:nonzero;fill:rgb(0%,0%,0%);fill-opacity:1;" d="M 15.785156 135.320312 L 16.371094 135.320312 L 16.371094 140.828125 C 17.195312 140.777344 17.824219 140.527344 18.257812 140.082031 C 18.6875 139.636719 18.902344 139.019531 18.902344 138.222656 C 18.902344 137.765625 18.847656 137.320312 18.734375 136.886719 C 18.621094 136.453125 18.453125 136.027344 18.226562 135.597656 L 19.359375 135.597656 C 19.542969 136.03125 19.679688 136.472656 19.777344 136.921875 C 19.871094 137.375 19.921875 137.832031 19.921875 138.296875 C 19.921875 139.457031 19.582031 140.378906 18.90625 141.058594 C 18.226562 141.738281 17.3125 142.078125 16.15625 142.078125 C 14.964844 142.078125 14.015625 141.757812 13.316406 141.113281 C 12.617188 140.46875 12.265625 139.597656 12.265625 138.503906 C 12.265625 137.523438 12.582031 136.746094 13.210938 136.175781 C 13.84375 135.605469 14.699219 135.320312 15.785156 135.320312 Z M 15.433594 136.519531 C 14.777344 136.527344 14.257812 136.710938 13.867188 137.066406 C 13.476562 137.425781 13.277344 137.902344 13.277344 138.492188 C 13.277344 139.160156 13.46875 139.695312 13.847656 140.09375 C 14.222656 140.496094 14.753906 140.726562 15.441406 140.789062 Z M 15.433594 136.519531 "/>
<path style=" stroke:none;fill-rule:nonzero;fill:rgb(0%,0%,0%);fill-opacity:1;" d="M 16.089844 132.636719 C 16.972656 132.636719 17.664062 132.457031 18.164062 132.09375 C 18.664062 131.730469 18.917969 131.234375 18.917969 130.601562 C 18.917969 129.96875 18.664062 129.46875 18.164062 129.105469 C 17.664062 128.738281 16.972656 128.554688 16.089844 128.554688 C 15.210938 128.554688 14.519531 128.738281 14.019531 129.105469 C 13.515625 129.46875 13.265625 129.96875 13.265625 130.601562 C 13.265625 131.234375 13.515625 131.730469 14.019531 132.09375 C 14.519531 132.457031 15.210938 132.636719 16.089844 132.636719 Z M 18.636719 128.554688 C 19.070312 128.808594 19.394531 129.125 19.605469 129.511719 C 19.816406 129.894531 19.921875 130.355469 19.921875 130.894531 C 19.921875 131.773438 19.570312 132.492188 18.867188 133.046875 C 18.164062 133.597656 17.238281 133.875 16.089844 133.875 C 14.945312 133.875 14.023438 133.597656 13.320312 133.046875 C 12.617188 132.492188 12.265625 131.773438 12.265625 130.894531 C 12.265625 130.355469 12.371094 129.894531 12.582031 129.511719 C 12.789062 129.125 13.113281 128.808594 13.546875 128.554688 L 12.441406 128.554688 L 12.441406 127.359375 L 22.503906 127.359375 L 22.503906 128.554688 Z M 18.636719 128.554688 "/>
<path style=" stroke:none;fill-rule:nonzero;fill:rgb(0%,0%,0%);fill-opacity:1;" d="M 16.855469 125.015625 L 12.441406 125.015625 L 12.441406 123.816406 L 16.808594 123.816406 C 17.5 123.816406 18.015625 123.683594 18.363281 123.414062 C 18.707031 123.144531 18.878906 122.738281 18.878906 122.203125 C 18.878906 121.554688 18.671875 121.046875 18.261719 120.671875 C 17.847656 120.292969 17.285156 120.105469 16.574219 120.105469 L 12.441406 120.105469 L 12.441406 118.90625 L 19.730469 118.90625 L 19.730469 120.105469 L 18.609375 120.105469 C 19.054688 120.394531 19.382812 120.734375 19.597656 121.117188 C 19.8125 121.5 19.921875 121.945312 19.921875 122.457031 C 19.921875 123.292969 19.660156 123.929688 19.140625 124.363281 C 18.617188 124.796875 17.855469 125.015625 16.855469 125.015625 Z M 12.265625 122 Z M 12.265625 122 "/>
<path style=" stroke:none;fill-rule:nonzero;fill:rgb(0%,0%,0%);fill-opacity:1;" d="M 15.785156 110.203125 L 16.371094 110.203125 L 16.371094 115.710938 C 17.195312 115.660156 17.824219 115.410156 18.257812 114.964844 C 18.6875 114.519531 18.902344 113.902344 18.902344 113.105469 C 18.902344 112.648438 18.847656 112.203125 18.734375 111.769531 C 18.621094 111.335938 18.453125 110.910156 18.226562 110.480469 L 19.359375 110.480469 C 19.542969 110.914062 19.679688 111.355469 19.777344 111.804688 C 19.871094 112.257812 19.921875 112.714844 19.921875 113.179688 C 19.921875 114.339844 19.582031 115.261719 18.90625 115.941406 C 18.226562 116.621094 17.3125 116.960938 16.15625 116.960938 C 14.964844 116.960938 14.015625 116.640625 13.316406 115.996094 C 12.617188 115.351562 12.265625 114.480469 12.265625 113.386719 C 12.265625 112.40625 12.582031 111.628906 13.210938 111.058594 C 13.84375 110.488281 14.699219 110.203125 15.785156 110.203125 Z M 15.433594 111.402344 C 14.777344 111.410156 14.257812 111.59375 13.867188 111.949219 C 13.476562 112.308594 13.277344 112.785156 13.277344 113.375 C 13.277344 114.042969 13.46875 114.578125 13.847656 114.976562 C 14.222656 115.378906 14.753906 115.609375 15.441406 115.671875 Z M 15.433594 111.402344 "/>
<path style=" stroke:none;fill-rule:nonzero;fill:rgb(0%,0%,0%);fill-opacity:1;" d="M 15.328125 102.175781 L 19.730469 102.175781 L 19.730469 103.371094 L 15.367188 103.371094 C 14.679688 103.371094 14.164062 103.507812 13.820312 103.777344 C 13.476562 104.046875 13.304688 104.449219 13.304688 104.988281 C 13.304688 105.632812 13.511719 106.144531 13.925781 106.519531 C 14.335938 106.890625 14.898438 107.078125 15.609375 107.078125 L 19.730469 107.078125 L 19.730469 108.28125 L 12.441406 108.28125 L 12.441406 107.078125 L 13.574219 107.078125 C 13.132812 106.792969 12.804688 106.453125 12.589844 106.066406 C 12.371094 105.675781 12.265625 105.230469 12.265625 104.71875 C 12.265625 103.882812 12.523438 103.25 13.042969 102.820312 C 13.558594 102.390625 14.320312 102.175781 15.328125 102.175781 Z M 15.328125 102.175781 "/>
<path style=" stroke:none;fill-rule:nonzero;fill:rgb(0%,0%,0%);fill-opacity:1;" d="M 12.71875 94.539062 L 13.839844 94.539062 C 13.652344 94.878906 13.511719 95.21875 13.417969 95.558594 C 13.324219 95.898438 13.277344 96.242188 13.277344 96.589844 C 13.277344 97.367188 13.527344 97.972656 14.019531 98.402344 C 14.511719 98.832031 15.203125 99.046875 16.089844 99.046875 C 16.980469 99.046875 17.671875 98.832031 18.167969 98.402344 C 18.660156 97.972656 18.902344 97.367188 18.902344 96.589844 C 18.902344 96.242188 18.859375 95.898438 18.765625 95.558594 C 18.671875 95.21875 18.53125 94.878906 18.34375 94.539062 L 19.453125 94.539062 C 19.609375 94.875 19.722656 95.21875 19.800781 95.578125 C 19.882812 95.933594 19.921875 96.316406 19.921875 96.71875 C 19.921875 97.820312 19.574219 98.691406 18.886719 99.339844 C 18.195312 99.984375 17.265625 100.308594 16.089844 100.308594 C 14.902344 100.308594 13.96875 99.980469 13.289062 99.328125 C 12.605469 98.675781 12.265625 97.777344 12.265625 96.640625 C 12.265625 96.273438 12.304688 95.914062 12.378906 95.5625 C 12.453125 95.210938 12.566406 94.871094 12.71875 94.539062 Z M 12.71875 94.539062 "/>
<path style=" stroke:none;fill-rule:nonzero;fill:rgb(0%,0%,0%);fill-opacity:1;" d="M 20.410156 89.421875 C 21.277344 89.761719 21.84375 90.089844 22.105469 90.414062 C 22.371094 90.734375 22.503906 91.164062 22.503906 91.699219 L 22.503906 92.65625 L 21.503906 92.65625 L 21.503906 91.953125 C 21.503906 91.625 21.421875 91.371094 21.265625 91.1875 C 21.109375 91.003906 20.742188 90.800781 20.160156 90.582031 L 19.613281 90.367188 L 12.441406 93.3125 L 12.441406 92.046875 L 18.140625 89.765625 L 12.441406 87.488281 L 12.441406 86.21875 Z M 20.410156 89.421875 "/>
<path style=" stroke:none;fill-rule:nonzero;fill:rgb(0%,0%,0%);fill-opacity:1;" d="M 18.078125 85.226562 L 18.078125 83.851562 L 19.730469 83.851562 L 19.730469 85.226562 Z M 12.835938 85.226562 L 12.835938 83.851562 L 14.488281 83.851562 L 14.488281 85.226562 Z M 12.835938 85.226562 "/>
<path style=" stroke:none;fill-rule:nonzero;fill:rgb(0%,0%,0%);fill-opacity:1;" d="M 15.328125 70.738281 L 19.730469 70.738281 L 19.730469 71.9375 L 15.367188 71.9375 C 14.679688 71.9375 14.164062 72.070312 13.820312 72.339844 C 13.476562 72.609375 13.304688 73.015625 13.304688 73.550781 C 13.304688 74.199219 13.511719 74.710938 13.925781 75.082031 C 14.335938 75.457031 14.898438 75.644531 15.609375 75.644531 L 19.730469 75.644531 L 19.730469 76.847656 L 12.441406 76.847656 L 12.441406 75.644531 L 13.574219 75.644531 C 13.132812 75.355469 12.804688 75.019531 12.589844 74.628906 C 12.371094 74.242188 12.265625 73.792969 12.265625 73.285156 C 12.265625 72.449219 12.523438 71.8125 13.042969 71.386719 C 13.558594 70.953125 14.320312 70.738281 15.328125 70.738281 Z M 15.328125 70.738281 "/>
<path style=" stroke:none;fill-rule:nonzero;fill:rgb(0%,0%,0%);fill-opacity:1;" d="M 9.613281 65.472656 C 10.613281 66.054688 11.597656 66.488281 12.578125 66.769531 C 13.554688 67.050781 14.542969 67.191406 15.546875 67.191406 C 16.546875 67.191406 17.539062 67.050781 18.523438 66.765625 C 19.507812 66.480469 20.496094 66.050781 21.488281 65.472656 L 21.488281 66.515625 C 20.46875 67.164062 19.464844 67.652344 18.480469 67.976562 C 17.496094 68.300781 16.519531 68.460938 15.546875 68.460938 C 14.578125 68.460938 13.601562 68.300781 12.621094 67.980469 C 11.640625 67.65625 10.636719 67.167969 9.613281 66.515625 Z M 9.613281 65.472656 "/>
<path style=" stroke:none;fill-rule:nonzero;fill:rgb(0%,0%,0%);fill-opacity:1;" d="M 12.441406 57.085938 L 15.988281 59.722656 L 19.730469 56.953125 L 19.730469 58.363281 L 16.867188 60.488281 L 19.730469 62.609375 L 19.730469 64.023438 L 15.917969 61.1875 L 12.441406 63.78125 L 12.441406 62.367188 L 15.039062 60.433594 L 12.441406 58.5 Z M 12.441406 57.085938 "/>
<path style=" stroke:none;fill-rule:nonzero;fill:rgb(0%,0%,0%);fill-opacity:1;" d="M 9.613281 55.445312 L 9.613281 54.40625 C 10.636719 53.753906 11.640625 53.269531 12.621094 52.945312 C 13.601562 52.621094 14.578125 52.457031 15.546875 52.457031 C 16.519531 52.457031 17.496094 52.621094 18.480469 52.945312 C 19.464844 53.269531 20.46875 53.753906 21.488281 54.40625 L 21.488281 55.445312 C 20.496094 54.871094 19.507812 54.4375 18.523438 54.15625 C 17.539062 53.871094 16.546875 53.726562 15.546875 53.726562 C 14.542969 53.726562 13.554688 53.871094 12.578125 54.15625 C 11.597656 54.4375 10.613281 54.871094 9.613281 55.445312 Z M 9.613281 55.445312 "/>
<g clip-path="url(#clip10)" clip-rule="nonzero">
<path style="fill:none;stroke-width:1.5;stroke-linecap:square;stroke-linejoin:round;stroke:rgb(12.156863%,46.666667%,70.588237%);stroke-opacity:1;stroke-miterlimit:4;" d="M -0.999023 22.933594 L 54.354492 22.948242 L 66.298828 23.235352 L 73.283203 24.457031 L 78.240234 30.125977 L 82.083984 32.745117 L 85.224609 36.503906 L 87.881836 36.832031 L 90.181641 40.089844 L 94.02832 40.3125 L 95.668945 43.749023 L 97.168945 47.516602 L 98.545898 48.169922 L 101.012695 51.436523 L 102.125977 51.808594 L 103.168945 52.743164 L 104.15332 53.06543 L 105.084961 56.90918 L 105.969727 57.541992 L 106.810547 59.238281 L 107.610352 59.238281 L 108.37793 59.598633 L 109.110352 60.219727 L 109.813477 60.474609 L 110.490234 60.996094 L 111.140625 61.12793 L 112.371094 61.12793 L 113.519531 61.672852 L 114.067383 62.235352 L 114.597656 62.235352 L 115.110352 62.378906 L 115.611328 62.378906 L 116.094727 62.522461 L 116.569336 63.421875 L 117.026367 63.577148 L 117.474609 63.890625 L 117.911133 65.381836 L 118.751953 65.733398 L 119.15625 65.733398 L 119.554687 65.912109 L 119.941406 66.272461 L 121.40918 67.022461 L 122.097656 67.022461 L 122.431641 67.21582 L 122.759766 67.21582 L 123.082031 67.611328 L 123.708984 68.636719 L 124.013672 69.064453 L 124.3125 69.28418 L 124.898437 69.28418 L 126.008789 70.192383 L 126.539062 70.192383 L 126.799805 70.426758 L 127.552734 72.436523 L 128.039062 72.981445 L 128.276367 72.981445 L 128.510742 73.543945 L 128.970703 73.543945 L 129.418945 74.425781 L 129.635742 74.425781 L 130.898437 76.010742 L 131.689453 76.010742 L 131.882812 76.347656 L 132.073242 76.347656 L 132.260742 76.69043 L 132.448242 76.69043 L 132.632812 77.041992 L 133.174805 77.041992 L 133.350586 77.399414 L 133.526367 77.399414 L 133.869141 78.140625 L 134.208984 78.140625 L 134.373047 78.524414 L 134.540039 78.524414 L 134.865234 79.321289 L 135.339844 79.321289 L 135.650391 80.15625 L 135.802734 80.15625 L 135.955078 80.592773 L 136.549805 80.592773 L 136.696289 81.038086 L 137.405273 81.038086 L 137.542969 81.498047 L 138.084961 81.498047 L 138.219727 81.972656 L 138.870117 81.972656 L 138.996094 82.458984 L 139.248047 82.458984 L 139.371094 82.959961 L 139.860352 82.959961 L 139.980469 83.478516 L 140.217773 83.478516 L 140.334961 84.014648 L 140.569336 84.014648 L 140.683594 84.56543 L 140.797852 84.56543 L 141.026367 85.139648 L 141.46875 85.139648 L 141.688477 85.731445 L 142.010742 85.731445 L 142.22168 86.349609 L 142.740234 86.349609 L 142.942383 86.988281 L 143.141602 86.988281 L 143.34082 87.65332 L 143.633789 87.65332 L 143.824219 88.347656 L 144.205078 88.347656 L 144.389648 89.074219 L 145.204102 89.074219 L 145.379883 89.833008 L 145.980469 89.833008 L 146.150391 90.629883 L 147.046875 90.629883 L 147.205078 91.464844 L 147.899414 91.464844 L 148.048828 92.34668 L 148.271484 92.34668 L 148.417969 93.27832 L 148.924805 93.27832 L 149.06543 94.268555 L 150.161133 94.268555 L 150.292969 95.320312 L 150.9375 95.320312 L 151.063477 96.448242 L 151.801758 96.448242 L 151.921875 97.655273 L 153.246094 97.655273 L 153.413086 98.961914 L 154.163086 98.961914 L 154.321289 100.382812 L 155.768555 100.382812 L 155.90918 101.935547 L 157.49707 101.935547 L 157.625977 103.655273 L 159.108398 103.655273 L 159.225586 105.577148 L 161.428711 105.577148 L 161.563477 107.753906 L 164.103516 107.753906 L 164.220703 110.270508 L 166.675781 110.270508 L 166.801758 113.244141 L 170.012695 113.244141 L 170.138672 116.885742 L 174.079102 116.885742 L 174.193359 121.576172 L 179.387695 121.576172 L 179.507812 128.191406 L 186.805664 128.191406 L 186.922852 139.5 L 199.579102 139.5 " transform="matrix(1.333333,0,0,1.333333,0,-0.000000000000014211)"/>
</g>
<g clip-path="url(#clip11)" clip-rule="nonzero">
<path style="fill:none;stroke-width:1.5;stroke-linecap:butt;stroke-linejoin:round;stroke:rgb(74.901962%,0%,74.901962%);stroke-opacity:1;stroke-dasharray:5.55,2.4;stroke-miterlimit:4;" d="M -0.999023 55.798828 L 54.354492 55.813477 L 73.283203 62.522461 L 78.240234 62.967773 L 82.083984 64.048828 L 85.224609 64.535156 L 87.881836 67.022461 L 90.181641 68.425781 L 92.211914 69.506836 L 94.02832 70.664062 L 95.668945 70.907227 L 97.168945 72.169922 L 98.545898 72.436523 L 99.823242 72.436523 L 101.012695 72.706055 L 102.125977 75.357422 L 103.168945 75.357422 L 104.15332 76.010742 L 105.084961 76.010742 L 105.969727 76.69043 L 106.810547 76.69043 L 108.37793 77.399414 L 109.813477 77.399414 L 110.490234 77.765625 L 111.140625 77.765625 L 111.767578 78.916992 L 112.371094 79.321289 L 112.954102 79.321289 L 113.519531 79.734375 L 115.110352 79.734375 L 115.611328 80.592773 L 116.094727 81.038086 L 117.026367 81.038086 L 117.474609 81.972656 L 118.335937 81.972656 L 118.751953 82.959961 L 119.15625 82.959961 L 119.941406 84.014648 L 121.051758 84.014648 L 121.754883 85.139648 L 122.431641 85.139648 L 122.759766 85.731445 L 123.708984 85.731445 L 124.013672 86.349609 L 124.608398 86.349609 L 124.898437 86.988281 L 125.460937 86.988281 L 125.739258 87.65332 L 126.539062 87.65332 L 126.799805 88.347656 L 127.552734 88.347656 L 127.798828 89.074219 L 129.635742 89.074219 L 129.852539 89.833008 L 130.898437 89.833008 L 131.100586 90.629883 L 131.496094 90.629883 L 131.689453 91.464844 L 133.174805 91.464844 L 133.350586 92.34668 L 134.540039 92.34668 L 134.701172 93.27832 L 135.181641 93.27832 L 135.339844 94.268555 L 137.542969 94.268555 L 137.680664 95.320312 L 139.980469 95.320312 L 140.100586 96.448242 L 141.796875 96.448242 L 142.010742 97.655273 L 143.537109 97.655273 L 143.730469 98.961914 L 145.291992 98.961914 L 145.467773 100.382812 L 147.439453 100.382812 L 147.591797 101.935547 L 150.489258 101.935547 L 150.618164 103.655273 L 152.853516 103.655273 L 152.967773 105.577148 L 156.099609 105.577148 L 156.240234 107.753906 L 159.457031 107.753906 L 159.574219 110.270508 L 163.224609 110.270508 L 163.350586 113.244141 L 167.830078 113.244141 L 167.947266 116.885742 L 174.128906 116.885742 L 174.243164 121.576172 L 182.206055 121.576172 L 182.317383 128.191406 L 195.477539 128.191406 L 195.591797 139.5 L 225.181641 139.5 " transform="matrix(1.333333,0,0,1.333333,0,-0.000000000000014211)"/>
</g>
<g clip-path="url(#clip12)" clip-rule="nonzero">
<path style="fill:none;stroke-width:1.5;stroke-linecap:butt;stroke-linejoin:round;stroke:rgb(0%,50.196081%,0%);stroke-opacity:1;stroke-dasharray:9.6,2.4,1.5,2.4;stroke-miterlimit:4;" d="M -0.999023 83.99707 L 54.354492 84.014648 L 66.298828 87.65332 L 73.283203 94.268555 L 78.240234 95.320312 L 82.083984 95.320312 L 85.224609 96.448242 L 87.881836 96.448242 L 90.181641 97.655273 L 92.211914 97.655273 L 94.02832 98.961914 L 98.545898 98.961914 L 99.823242 100.382812 L 105.969727 100.382812 L 106.810547 101.935547 L 109.813477 101.935547 L 110.490234 103.655273 L 114.067383 103.655273 L 114.597656 105.577148 L 121.051758 105.577148 L 121.40918 107.753906 L 126.275391 107.753906 L 126.539062 110.270508 L 132.632812 110.270508 L 132.814453 113.244141 L 140.569336 113.244141 L 140.683594 116.885742 L 148.271484 116.885742 L 148.417969 121.576172 L 160.652344 121.576172 L 160.795898 128.191406 L 181.787109 128.191406 L 181.904297 139.5 L 231.899414 139.5 " transform="matrix(1.333333,0,0,1.333333,0,-0.000000000000014211)"/>
</g>
<path style="fill:none;stroke-width:0.8;stroke-linecap:square;stroke-linejoin:miter;stroke:rgb(0%,0%,0%);stroke-opacity:1;stroke-miterlimit:4;" d="M 45.477539 145.798828 L 45.477539 7.201172 " transform="matrix(1.333333,0,0,1.333333,0,-0.000000000000014211)"/>
<path style="fill:none;stroke-width:0.8;stroke-linecap:square;stroke-linejoin:miter;stroke:rgb(0%,0%,0%);stroke-opacity:1;stroke-miterlimit:4;" d="M 240.779297 145.798828 L 240.779297 7.201172 " transform="matrix(1.333333,0,0,1.333333,0,-0.000000000000014211)"/>
<path style="fill:none;stroke-width:0.8;stroke-linecap:square;stroke-linejoin:miter;stroke:rgb(0%,0%,0%);stroke-opacity:1;stroke-miterlimit:4;" d="M 45.477539 145.798828 L 240.779297 145.798828 " transform="matrix(1.333333,0,0,1.333333,0,-0.000000000000014211)"/>
<path style="fill:none;stroke-width:0.8;stroke-linecap:square;stroke-linejoin:miter;stroke:rgb(0%,0%,0%);stroke-opacity:1;stroke-miterlimit:4;" d="M 45.477539 7.201172 L 240.779297 7.201172 " transform="matrix(1.333333,0,0,1.333333,0,-0.000000000000014211)"/>
<use xlink:href="#surface5" mask="url(#mask0)"/>
<path style="fill:none;stroke-width:1.5;stroke-linecap:square;stroke-linejoin:round;stroke:rgb(12.156863%,46.666667%,70.588237%);stroke-opacity:1;stroke-miterlimit:4;" d="M 161.99707 20.299805 L 181.998047 20.299805 " transform="matrix(1.333333,0,0,1.333333,0,-0.000000000000014211)"/>
<path style=" stroke:none;fill-rule:nonzero;fill:rgb(0%,0%,0%);fill-opacity:1;" d="M 254.460938 28.855469 L 254.460938 24.441406 L 255.660156 24.441406 L 255.660156 28.808594 C 255.660156 29.5 255.792969 30.015625 256.0625 30.363281 C 256.332031 30.707031 256.734375 30.878906 257.273438 30.878906 C 257.921875 30.878906 258.429688 30.671875 258.804688 30.261719 C 259.183594 29.847656 259.371094 29.285156 259.371094 28.574219 L 259.371094 24.441406 L 260.570312 24.441406 L 260.570312 31.730469 L 259.371094 31.730469 L 259.371094 30.609375 C 259.082031 31.054688 258.742188 31.382812 258.359375 31.597656 C 257.976562 31.8125 257.527344 31.921875 257.019531 31.921875 C 256.183594 31.921875 255.546875 31.660156 255.113281 31.140625 C 254.679688 30.617188 254.460938 29.855469 254.460938 28.855469 Z M 257.476562 24.265625 Z M 257.476562 24.265625 "/>
<path style=" stroke:none;fill-rule:nonzero;fill:rgb(0%,0%,0%);fill-opacity:1;" d="M 269.097656 27.328125 L 269.097656 31.730469 L 267.902344 31.730469 L 267.902344 27.367188 C 267.902344 26.679688 267.765625 26.164062 267.496094 25.820312 C 267.226562 25.476562 266.824219 25.304688 266.285156 25.304688 C 265.640625 25.304688 265.128906 25.511719 264.753906 25.925781 C 264.382812 26.335938 264.195312 26.898438 264.195312 27.609375 L 264.195312 31.730469 L 262.988281 31.730469 L 262.988281 24.441406 L 264.195312 24.441406 L 264.195312 25.574219 C 264.480469 25.132812 264.820312 24.804688 265.207031 24.589844 C 265.59375 24.371094 266.042969 24.265625 266.550781 24.265625 C 267.390625 24.265625 268.023438 24.523438 268.453125 25.042969 C 268.882812 25.558594 269.097656 26.320312 269.097656 27.328125 Z M 269.097656 27.328125 "/>
<path style=" stroke:none;fill-rule:nonzero;fill:rgb(0%,0%,0%);fill-opacity:1;" d="M 271.488281 24.441406 L 272.683594 24.441406 L 272.683594 31.730469 L 271.488281 31.730469 Z M 271.488281 21.601562 L 272.683594 21.601562 L 272.683594 23.117188 L 271.488281 23.117188 Z M 271.488281 21.601562 "/>
<path style=" stroke:none;fill-rule:nonzero;fill:rgb(0%,0%,0%);fill-opacity:1;" d="M 279.988281 28 C 279.988281 27.132812 279.808594 26.460938 279.453125 25.984375 C 279.09375 25.503906 278.59375 25.265625 277.945312 25.265625 C 277.304688 25.265625 276.804688 25.503906 276.445312 25.984375 C 276.085938 26.460938 275.90625 27.132812 275.90625 28 C 275.90625 28.863281 276.085938 29.535156 276.445312 30.011719 C 276.804688 30.492188 277.304688 30.730469 277.945312 30.730469 C 278.59375 30.730469 279.09375 30.492188 279.453125 30.011719 C 279.808594 29.535156 279.988281 28.863281 279.988281 28 Z M 281.1875 30.828125 C 281.1875 32.066406 280.910156 32.992188 280.359375 33.597656 C 279.808594 34.203125 278.964844 34.503906 277.828125 34.503906 C 277.40625 34.503906 277.011719 34.472656 276.636719 34.410156 C 276.261719 34.347656 275.902344 34.25 275.550781 34.121094 L 275.550781 32.957031 C 275.902344 33.148438 276.246094 33.285156 276.589844 33.378906 C 276.933594 33.46875 277.285156 33.515625 277.640625 33.515625 C 278.425781 33.515625 279.011719 33.308594 279.402344 32.898438 C 279.792969 32.492188 279.988281 31.871094 279.988281 31.042969 L 279.988281 30.449219 C 279.742188 30.878906 279.425781 31.199219 279.039062 31.414062 C 278.652344 31.625 278.191406 31.730469 277.652344 31.730469 C 276.757812 31.730469 276.039062 31.390625 275.492188 30.710938 C 274.945312 30.027344 274.671875 29.125 274.671875 28 C 274.671875 26.871094 274.945312 25.96875 275.492188 25.289062 C 276.039062 24.605469 276.757812 24.265625 277.652344 24.265625 C 278.191406 24.265625 278.652344 24.371094 279.039062 24.582031 C 279.425781 24.796875 279.742188 25.117188 279.988281 25.546875 L 279.988281 24.441406 L 281.1875 24.441406 Z M 281.1875 30.828125 "/>
<path style=" stroke:none;fill-rule:nonzero;fill:rgb(0%,0%,0%);fill-opacity:1;" d="M 287.878906 25.558594 C 287.746094 25.480469 287.597656 25.421875 287.441406 25.386719 C 287.28125 25.351562 287.105469 25.332031 286.917969 25.332031 C 286.238281 25.332031 285.71875 25.550781 285.355469 25.992188 C 284.992188 26.433594 284.8125 27.066406 284.8125 27.890625 L 284.8125 31.730469 L 283.609375 31.730469 L 283.609375 24.441406 L 284.8125 24.441406 L 284.8125 25.574219 C 285.066406 25.128906 285.394531 24.800781 285.796875 24.585938 C 286.199219 24.371094 286.691406 24.265625 287.269531 24.265625 C 287.351562 24.265625 287.441406 24.269531 287.542969 24.28125 C 287.640625 24.289062 287.753906 24.308594 287.875 24.328125 Z M 287.878906 25.558594 "/>
<path style=" stroke:none;fill-rule:nonzero;fill:rgb(0%,0%,0%);fill-opacity:1;" d="M 292.449219 28.066406 C 291.484375 28.066406 290.8125 28.175781 290.4375 28.398438 C 290.066406 28.617188 289.878906 28.996094 289.878906 29.53125 C 289.878906 29.957031 290.019531 30.292969 290.296875 30.542969 C 290.578125 30.792969 290.960938 30.917969 291.441406 30.917969 C 292.105469 30.917969 292.640625 30.679688 293.039062 30.210938 C 293.441406 29.738281 293.640625 29.113281 293.640625 28.332031 L 293.640625 28.066406 Z M 294.839844 27.570312 L 294.839844 31.730469 L 293.640625 31.730469 L 293.640625 30.625 C 293.367188 31.066406 293.027344 31.394531 292.621094 31.605469 C 292.210938 31.816406 291.710938 31.921875 291.121094 31.921875 C 290.375 31.921875 289.78125 31.710938 289.339844 31.292969 C 288.898438 30.871094 288.679688 30.3125 288.679688 29.609375 C 288.679688 28.789062 288.953125 28.171875 289.503906 27.753906 C 290.054688 27.335938 290.871094 27.128906 291.960938 27.128906 L 293.640625 27.128906 L 293.640625 27.011719 C 293.640625 26.460938 293.460938 26.03125 293.097656 25.730469 C 292.734375 25.429688 292.226562 25.277344 291.570312 25.277344 C 291.15625 25.277344 290.75 25.328125 290.351562 25.429688 C 289.957031 25.527344 289.578125 25.679688 289.214844 25.878906 L 289.214844 24.769531 C 289.652344 24.601562 290.078125 24.476562 290.492188 24.390625 C 290.902344 24.308594 291.304688 24.265625 291.695312 24.265625 C 292.75 24.265625 293.539062 24.539062 294.058594 25.085938 C 294.578125 25.632812 294.839844 26.460938 294.839844 27.570312 Z M 294.839844 27.570312 "/>
<path style=" stroke:none;fill-rule:nonzero;fill:rgb(0%,0%,0%);fill-opacity:1;" d="M 302.984375 25.839844 C 303.285156 25.300781 303.640625 24.902344 304.058594 24.648438 C 304.476562 24.390625 304.964844 24.265625 305.53125 24.265625 C 306.289062 24.265625 306.875 24.53125 307.289062 25.0625 C 307.699219 25.59375 307.90625 26.347656 307.90625 27.328125 L 307.90625 31.730469 L 306.703125 31.730469 L 306.703125 27.367188 C 306.703125 26.671875 306.578125 26.152344 306.328125 25.816406 C 306.082031 25.476562 305.707031 25.304688 305.199219 25.304688 C 304.578125 25.304688 304.085938 25.511719 303.726562 25.925781 C 303.367188 26.335938 303.1875 26.898438 303.1875 27.609375 L 303.1875 31.730469 L 301.980469 31.730469 L 301.980469 27.367188 C 301.980469 26.664062 301.859375 26.148438 301.609375 25.808594 C 301.363281 25.472656 300.980469 25.304688 300.464844 25.304688 C 299.851562 25.304688 299.367188 25.511719 299.003906 25.925781 C 298.644531 26.339844 298.464844 26.902344 298.464844 27.609375 L 298.464844 31.730469 L 297.261719 31.730469 L 297.261719 24.441406 L 298.464844 24.441406 L 298.464844 25.574219 C 298.738281 25.125 299.066406 24.796875 299.449219 24.582031 C 299.832031 24.371094 300.285156 24.265625 300.808594 24.265625 C 301.339844 24.265625 301.789062 24.398438 302.160156 24.667969 C 302.53125 24.9375 302.804688 25.328125 302.984375 25.839844 Z M 302.984375 25.839844 "/>
<path style="fill:none;stroke-width:1.5;stroke-linecap:butt;stroke-linejoin:round;stroke:rgb(74.901962%,0%,74.901962%);stroke-opacity:1;stroke-dasharray:5.55,2.4;stroke-miterlimit:4;" d="M 161.99707 34.977539 L 181.998047 34.977539 " transform="matrix(1.333333,0,0,1.333333,0,-0.000000000000014211)"/>
<path style=" stroke:none;fill-rule:nonzero;fill:rgb(0%,0%,0%);fill-opacity:1;" d="M 259.820312 47.664062 C 259.820312 46.78125 259.640625 46.089844 259.277344 45.589844 C 258.914062 45.089844 258.417969 44.835938 257.785156 44.835938 C 257.148438 44.835938 256.648438 45.089844 256.289062 45.589844 C 255.925781 46.089844 255.742188 46.78125 255.742188 47.664062 C 255.742188 48.542969 255.925781 49.234375 256.289062 49.734375 C 256.648438 50.238281 257.148438 50.488281 257.785156 50.488281 C 258.417969 50.488281 258.914062 50.238281 259.277344 49.734375 C 259.640625 49.234375 259.820312 48.542969 259.820312 47.664062 Z M 255.742188 45.117188 C 255.996094 44.683594 256.316406 44.363281 256.699219 44.152344 C 257.082031 43.941406 257.542969 43.835938 258.074219 43.835938 C 258.960938 43.835938 259.679688 44.1875 260.234375 44.890625 C 260.789062 45.59375 261.066406 46.515625 261.066406 47.664062 C 261.066406 48.808594 260.789062 49.734375 260.234375 50.4375 C 259.679688 51.140625 258.960938 51.492188 258.074219 51.492188 C 257.542969 51.492188 257.082031 51.386719 256.699219 51.175781 C 256.316406 50.964844 255.996094 50.640625 255.742188 50.207031 L 255.742188 51.300781 L 254.539062 51.300781 L 254.539062 41.171875 L 255.742188 41.171875 Z M 255.742188 45.117188 "/>
<path style=" stroke:none;fill-rule:nonzero;fill:rgb(0%,0%,0%);fill-opacity:1;" d="M 263.050781 44.011719 L 264.246094 44.011719 L 264.246094 51.300781 L 263.050781 51.300781 Z M 263.050781 41.171875 L 264.246094 41.171875 L 264.246094 42.691406 L 263.050781 42.691406 Z M 263.050781 41.171875 "/>
<path style=" stroke:none;fill-rule:nonzero;fill:rgb(0%,0%,0%);fill-opacity:1;" d="M 271.550781 47.570312 C 271.550781 46.703125 271.371094 46.03125 271.015625 45.554688 C 270.65625 45.078125 270.15625 44.835938 269.507812 44.835938 C 268.867188 44.835938 268.367188 45.078125 268.007812 45.554688 C 267.648438 46.03125 267.46875 46.703125 267.46875 47.570312 C 267.46875 48.433594 267.648438 49.105469 268.007812 49.582031 C 268.367188 50.0625 268.867188 50.300781 269.507812 50.300781 C 270.15625 50.300781 270.65625 50.0625 271.015625 49.582031 C 271.371094 49.105469 271.550781 48.433594 271.550781 47.570312 Z M 272.75 50.398438 C 272.75 51.636719 272.472656 52.5625 271.921875 53.167969 C 271.371094 53.773438 270.527344 54.074219 269.390625 54.074219 C 268.96875 54.074219 268.574219 54.042969 268.199219 53.980469 C 267.824219 53.917969 267.464844 53.820312 267.113281 53.691406 L 267.113281 52.527344 C 267.464844 52.71875 267.808594 52.859375 268.152344 52.949219 C 268.496094 53.039062 268.847656 53.085938 269.203125 53.085938 C 269.988281 53.085938 270.574219 52.878906 270.964844 52.472656 C 271.355469 52.0625 271.550781 51.441406 271.550781 50.613281 L 271.550781 50.019531 C 271.304688 50.449219 270.988281 50.769531 270.601562 50.984375 C 270.214844 51.195312 269.753906 51.300781 269.214844 51.300781 C 268.320312 51.300781 267.601562 50.960938 267.054688 50.28125 C 266.507812 49.597656 266.234375 48.695312 266.234375 47.570312 C 266.234375 46.441406 266.507812 45.539062 267.054688 44.859375 C 267.601562 44.175781 268.320312 43.835938 269.214844 43.835938 C 269.753906 43.835938 270.214844 43.941406 270.601562 44.152344 C 270.988281 44.367188 271.304688 44.6875 271.550781 45.117188 L 271.550781 44.011719 L 272.75 44.011719 Z M 272.75 50.398438 "/>
<path style=" stroke:none;fill-rule:nonzero;fill:rgb(0%,0%,0%);fill-opacity:1;" d="M 279.441406 45.128906 C 279.308594 45.050781 279.160156 44.996094 279.003906 44.957031 C 278.84375 44.921875 278.667969 44.902344 278.480469 44.902344 C 277.800781 44.902344 277.28125 45.121094 276.917969 45.5625 C 276.554688 46.003906 276.375 46.636719 276.375 47.460938 L 276.375 51.300781 L 275.171875 51.300781 L 275.171875 44.011719 L 276.375 44.011719 L 276.375 45.144531 C 276.628906 44.699219 276.957031 44.371094 277.359375 44.160156 C 277.761719 43.941406 278.253906 43.835938 278.832031 43.835938 C 278.914062 43.835938 279.003906 43.839844 279.105469 43.851562 C 279.203125 43.863281 279.316406 43.878906 279.4375 43.898438 Z M 279.441406 45.128906 "/>
<path style=" stroke:none;fill-rule:nonzero;fill:rgb(0%,0%,0%);fill-opacity:1;" d="M 284.011719 47.636719 C 283.046875 47.636719 282.375 47.746094 282 47.96875 C 281.628906 48.191406 281.441406 48.566406 281.441406 49.101562 C 281.441406 49.527344 281.582031 49.863281 281.859375 50.113281 C 282.140625 50.363281 282.523438 50.488281 283.003906 50.488281 C 283.667969 50.488281 284.203125 50.253906 284.601562 49.78125 C 285.003906 49.308594 285.203125 48.683594 285.203125 47.902344 L 285.203125 47.636719 Z M 286.402344 47.140625 L 286.402344 51.300781 L 285.203125 51.300781 L 285.203125 50.195312 C 284.929688 50.636719 284.589844 50.964844 284.183594 51.175781 C 283.773438 51.386719 283.273438 51.492188 282.683594 51.492188 C 281.9375 51.492188 281.34375 51.28125 280.902344 50.863281 C 280.460938 50.441406 280.242188 49.882812 280.242188 49.179688 C 280.242188 48.359375 280.515625 47.742188 281.066406 47.324219 C 281.617188 46.910156 282.433594 46.699219 283.523438 46.699219 L 285.203125 46.699219 L 285.203125 46.582031 C 285.203125 46.03125 285.023438 45.601562 284.660156 45.300781 C 284.296875 45 283.789062 44.851562 283.132812 44.851562 C 282.71875 44.851562 282.3125 44.898438 281.914062 45 C 281.519531 45.101562 281.140625 45.25 280.777344 45.449219 L 280.777344 44.339844 C 281.214844 44.171875 281.640625 44.046875 282.054688 43.960938 C 282.464844 43.878906 282.867188 43.835938 283.257812 43.835938 C 284.3125 43.835938 285.101562 44.109375 285.621094 44.65625 C 286.140625 45.203125 286.402344 46.03125 286.402344 47.140625 Z M 286.402344 47.140625 "/>
<path style=" stroke:none;fill-rule:nonzero;fill:rgb(0%,0%,0%);fill-opacity:1;" d="M 294.546875 45.410156 C 294.847656 44.871094 295.203125 44.472656 295.621094 44.21875 C 296.039062 43.964844 296.527344 43.835938 297.09375 43.835938 C 297.851562 43.835938 298.4375 44.101562 298.851562 44.632812 C 299.261719 45.164062 299.46875 45.917969 299.46875 46.898438 L 299.46875 51.300781 L 298.265625 51.300781 L 298.265625 46.941406 C 298.265625 46.242188 298.140625 45.722656 297.890625 45.386719 C 297.644531 45.046875 297.269531 44.878906 296.761719 44.878906 C 296.140625 44.878906 295.648438 45.082031 295.289062 45.496094 C 294.929688 45.90625 294.75 46.46875 294.75 47.179688 L 294.75 51.300781 L 293.542969 51.300781 L 293.542969 46.941406 C 293.542969 46.238281 293.421875 45.71875 293.171875 45.382812 C 292.925781 45.046875 292.542969 44.878906 292.027344 44.878906 C 291.414062 44.878906 290.929688 45.085938 290.566406 45.496094 C 290.207031 45.910156 290.027344 46.472656 290.027344 47.179688 L 290.027344 51.300781 L 288.824219 51.300781 L 288.824219 44.011719 L 290.027344 44.011719 L 290.027344 45.144531 C 290.300781 44.695312 290.628906 44.367188 291.011719 44.152344 C 291.394531 43.941406 291.847656 43.835938 292.371094 43.835938 C 292.902344 43.835938 293.351562 43.96875 293.722656 44.238281 C 294.09375 44.507812 294.367188 44.898438 294.546875 45.410156 Z M 294.546875 45.410156 "/>
<path style="fill:none;stroke-width:1.5;stroke-linecap:butt;stroke-linejoin:round;stroke:rgb(0%,50.196081%,0%);stroke-opacity:1;stroke-dasharray:9.6,2.4,1.5,2.4;stroke-miterlimit:4;" d="M 161.99707 49.655273 L 181.998047 49.655273 " transform="matrix(1.333333,0,0,1.333333,0,-0.000000000000014211)"/>
<path style=" stroke:none;fill-rule:nonzero;fill:rgb(0%,0%,0%);fill-opacity:1;" d="M 255.769531 61.511719 L 255.769531 63.582031 L 258.238281 63.582031 L 258.238281 64.511719 L 255.769531 64.511719 L 255.769531 68.472656 C 255.769531 69.066406 255.851562 69.445312 256.015625 69.617188 C 256.175781 69.785156 256.507812 69.871094 257.007812 69.871094 L 258.238281 69.871094 L 258.238281 70.871094 L 257.007812 70.871094 C 256.082031 70.871094 255.445312 70.699219 255.09375 70.355469 C 254.742188 70.011719 254.566406 69.382812 254.566406 68.472656 L 254.566406 64.511719 L 253.6875 64.511719 L 253.6875 63.582031 L 254.566406 63.582031 L 254.566406 61.511719 Z M 255.769531 61.511719 "/>
<path style=" stroke:none;fill-rule:nonzero;fill:rgb(0%,0%,0%);fill-opacity:1;" d="M 264.039062 64.699219 C 263.902344 64.621094 263.757812 64.566406 263.597656 64.527344 C 263.441406 64.492188 263.265625 64.472656 263.074219 64.472656 C 262.398438 64.472656 261.878906 64.691406 261.515625 65.132812 C 261.152344 65.574219 260.972656 66.207031 260.972656 67.03125 L 260.972656 70.871094 L 259.765625 70.871094 L 259.765625 63.582031 L 260.972656 63.582031 L 260.972656 64.714844 C 261.222656 64.273438 261.550781 63.941406 261.953125 63.730469 C 262.359375 63.515625 262.851562 63.40625 263.429688 63.40625 C 263.511719 63.40625 263.601562 63.410156 263.699219 63.421875 C 263.800781 63.433594 263.910156 63.449219 264.03125 63.472656 Z M 264.039062 64.699219 "/>
<path style=" stroke:none;fill-rule:nonzero;fill:rgb(0%,0%,0%);fill-opacity:1;" d="M 265.296875 63.582031 L 266.492188 63.582031 L 266.492188 70.871094 L 265.296875 70.871094 Z M 265.296875 60.742188 L 266.492188 60.742188 L 266.492188 62.261719 L 265.296875 62.261719 Z M 265.296875 60.742188 "/>
<path style=" stroke:none;fill-rule:nonzero;fill:rgb(0%,0%,0%);fill-opacity:1;" d="M 273.796875 67.140625 C 273.796875 66.273438 273.617188 65.601562 273.261719 65.125 C 272.902344 64.648438 272.402344 64.410156 271.753906 64.410156 C 271.113281 64.410156 270.613281 64.648438 270.253906 65.125 C 269.894531 65.601562 269.714844 66.273438 269.714844 67.140625 C 269.714844 68.003906 269.894531 68.675781 270.253906 69.152344 C 270.613281 69.632812 271.113281 69.871094 271.753906 69.871094 C 272.402344 69.871094 272.902344 69.632812 273.261719 69.152344 C 273.617188 68.675781 273.796875 68.003906 273.796875 67.140625 Z M 274.996094 69.96875 C 274.996094 71.210938 274.71875 72.132812 274.167969 72.738281 C 273.617188 73.34375 272.773438 73.644531 271.636719 73.644531 C 271.214844 73.644531 270.820312 73.613281 270.445312 73.550781 C 270.070312 73.488281 269.710938 73.394531 269.359375 73.261719 L 269.359375 72.097656 C 269.710938 72.289062 270.054688 72.429688 270.398438 72.519531 C 270.742188 72.609375 271.09375 72.65625 271.449219 72.65625 C 272.234375 72.65625 272.820312 72.453125 273.210938 72.042969 C 273.601562 71.632812 273.796875 71.011719 273.796875 70.183594 L 273.796875 69.589844 C 273.550781 70.019531 273.234375 70.339844 272.847656 70.554688 C 272.460938 70.765625 272 70.871094 271.460938 70.871094 C 270.566406 70.871094 269.847656 70.53125 269.300781 69.851562 C 268.753906 69.171875 268.480469 68.265625 268.480469 67.140625 C 268.480469 66.015625 268.753906 65.109375 269.300781 64.429688 C 269.847656 63.746094 270.566406 63.40625 271.460938 63.40625 C 272 63.40625 272.460938 63.511719 272.847656 63.726562 C 273.234375 63.9375 273.550781 64.257812 273.796875 64.6875 L 273.796875 63.582031 L 274.996094 63.582031 Z M 274.996094 69.96875 "/>
<path style=" stroke:none;fill-rule:nonzero;fill:rgb(0%,0%,0%);fill-opacity:1;" d="M 281.6875 64.699219 C 281.554688 64.621094 281.40625 64.566406 281.25 64.527344 C 281.089844 64.492188 280.914062 64.472656 280.726562 64.472656 C 280.046875 64.472656 279.527344 64.691406 279.164062 65.132812 C 278.800781 65.574219 278.621094 66.207031 278.621094 67.03125 L 278.621094 70.871094 L 277.417969 70.871094 L 277.417969 63.582031 L 278.621094 63.582031 L 278.621094 64.714844 C 278.875 64.273438 279.203125 63.941406 279.605469 63.730469 C 280.007812 63.515625 280.5 63.40625 281.078125 63.40625 C 281.160156 63.40625 281.25 63.410156 281.351562 63.421875 C 281.449219 63.433594 281.5625 63.449219 281.683594 63.472656 Z M 281.6875 64.699219 "/>
<path style=" stroke:none;fill-rule:nonzero;fill:rgb(0%,0%,0%);fill-opacity:1;" d="M 286.257812 67.207031 C 285.292969 67.207031 284.621094 67.320312 284.246094 67.539062 C 283.875 67.761719 283.6875 68.136719 283.6875 68.671875 C 283.6875 69.097656 283.828125 69.433594 284.105469 69.683594 C 284.386719 69.933594 284.769531 70.058594 285.25 70.058594 C 285.914062 70.058594 286.449219 69.824219 286.847656 69.351562 C 287.25 68.882812 287.449219 68.253906 287.449219 67.476562 L 287.449219 67.207031 Z M 288.648438 66.710938 L 288.648438 70.871094 L 287.449219 70.871094 L 287.449219 69.765625 C 287.175781 70.207031 286.835938 70.535156 286.429688 70.746094 C 286.019531 70.957031 285.519531 71.0625 284.929688 71.0625 C 284.183594 71.0625 283.589844 70.851562 283.148438 70.433594 C 282.707031 70.015625 282.488281 69.453125 282.488281 68.75 C 282.488281 67.929688 282.761719 67.3125 283.3125 66.894531 C 283.863281 66.480469 284.679688 66.269531 285.769531 66.269531 L 287.449219 66.269531 L 287.449219 66.152344 C 287.449219 65.601562 287.269531 65.175781 286.90625 64.871094 C 286.542969 64.570312 286.035156 64.421875 285.378906 64.421875 C 284.964844 64.421875 284.558594 64.472656 284.160156 64.570312 C 283.765625 64.671875 283.386719 64.820312 283.023438 65.019531 L 283.023438 63.914062 C 283.460938 63.742188 283.886719 63.617188 284.300781 63.535156 C 284.710938 63.449219 285.113281 63.40625 285.503906 63.40625 C 286.558594 63.40625 287.347656 63.679688 287.867188 64.226562 C 288.386719 64.773438 288.648438 65.601562 288.648438 66.710938 Z M 288.648438 66.710938 "/>
<path style=" stroke:none;fill-rule:nonzero;fill:rgb(0%,0%,0%);fill-opacity:1;" d="M 296.792969 64.980469 C 297.09375 64.441406 297.449219 64.046875 297.867188 63.789062 C 298.285156 63.535156 298.773438 63.40625 299.339844 63.40625 C 300.097656 63.40625 300.683594 63.671875 301.097656 64.203125 C 301.507812 64.734375 301.714844 65.492188 301.714844 66.472656 L 301.714844 70.871094 L 300.511719 70.871094 L 300.511719 66.511719 C 300.511719 65.8125 300.386719 65.292969 300.136719 64.957031 C 299.890625 64.617188 299.515625 64.449219 299.007812 64.449219 C 298.386719 64.449219 297.894531 64.652344 297.535156 65.066406 C 297.175781 65.476562 296.996094 66.039062 296.996094 66.753906 L 296.996094 70.871094 L 295.789062 70.871094 L 295.789062 66.511719 C 295.789062 65.808594 295.667969 65.289062 295.417969 64.953125 C 295.171875 64.617188 294.789062 64.449219 294.273438 64.449219 C 293.660156 64.449219 293.175781 64.65625 292.8125 65.070312 C 292.453125 65.484375 292.273438 66.042969 292.273438 66.753906 L 292.273438 70.871094 L 291.070312 70.871094 L 291.070312 63.582031 L 292.273438 63.582031 L 292.273438 64.714844 C 292.546875 64.265625 292.875 63.9375 293.257812 63.726562 C 293.640625 63.511719 294.09375 63.40625 294.617188 63.40625 C 295.148438 63.40625 295.597656 63.539062 295.96875 63.808594 C 296.339844 64.078125 296.613281 64.46875 296.792969 64.980469 Z M 296.792969 64.980469 "/>
</g>
</svg>
