<?xml version="1.0" encoding="UTF-8"?>
<svg xmlns="http://www.w3.org/2000/svg" xmlns:xlink="http://www.w3.org/1999/xlink" width="310.137492" height="226.237508" viewBox="0 0 310.137492 226.237508" version="1.1">
<g id="surface1">
<path style=" stroke:none;fill-rule:nonzero;fill:rgb(100%,100%,100%);fill-opacity:1;" d="M 0 226.238281 L 310.136719 226.238281 L 310.136719 0 L 0 0 Z M 0 226.238281 "/>
<path style=" stroke:none;fill-rule:nonzero;fill:rgb(100%,100%,100%);fill-opacity:1;" d="M 40.136719 194.398438 L 300.539062 194.398438 L 300.539062 9.601562 L 40.136719 9.601562 Z M 40.136719 194.398438 "/>
<path style=" stroke:none;fill-rule:nonzero;fill:rgb(12.156863%,46.666667%,70.588237%);fill-opacity:1;" d="M 123.0625 186 L 123.0625 84.109375 L 123.300781 83.09375 L 123.535156 82.074219 L 123.773438 81.054688 L 124.011719 80.039062 L 124.246094 79.019531 L 124.484375 78.003906 L 124.722656 76.992188 L 124.957031 75.976562 L 125.195312 74.964844 L 125.433594 73.957031 L 125.667969 72.949219 L 126.144531 70.941406 L 126.378906 69.941406 L 126.617188 68.945312 L 126.855469 67.953125 L 127.089844 66.964844 L 127.328125 65.976562 L 127.566406 64.996094 L 127.800781 64.015625 L 128.039062 63.042969 L 128.277344 62.074219 L 128.511719 61.109375 L 128.988281 59.195312 L 129.222656 58.25 L 129.460938 57.304688 L 129.699219 56.371094 L 129.933594 55.441406 L 130.171875 54.515625 L 130.410156 53.597656 L 130.644531 52.6875 L 130.882812 51.785156 L 131.121094 50.890625 L 131.355469 50.003906 L 131.59375 49.121094 L 131.832031 48.25 L 132.066406 47.386719 L 132.304688 46.53125 L 132.542969 45.683594 L 132.777344 44.847656 L 133.015625 44.019531 L 133.253906 43.199219 L 133.488281 42.390625 L 133.726562 41.59375 L 133.964844 40.804688 L 134.199219 40.023438 L 134.4375 39.253906 L 134.675781 38.5 L 134.910156 37.75 L 135.148438 37.015625 L 135.386719 36.292969 L 135.621094 35.578125 L 135.859375 34.878906 L 136.097656 34.1875 L 136.332031 33.511719 L 136.570312 32.847656 L 136.808594 32.195312 L 137.042969 31.554688 L 137.28125 30.925781 L 137.519531 30.3125 L 137.753906 29.710938 L 137.992188 29.125 L 138.230469 28.550781 L 138.464844 27.992188 L 138.703125 27.445312 L 138.941406 26.914062 L 139.175781 26.394531 L 139.414062 25.890625 L 139.652344 25.402344 L 139.886719 24.925781 L 140.125 24.46875 L 140.363281 24.023438 L 140.597656 23.59375 L 140.835938 23.175781 L 141.074219 22.777344 L 141.308594 22.394531 L 141.546875 22.023438 L 141.785156 21.671875 L 142.019531 21.335938 L 142.257812 21.011719 L 142.496094 20.707031 L 142.730469 20.417969 L 142.96875 20.144531 L 143.207031 19.886719 L 143.441406 19.644531 L 143.679688 19.417969 L 143.914062 19.210938 L 144.152344 19.019531 L 144.390625 18.84375 L 144.625 18.683594 L 144.863281 18.539062 L 145.101562 18.414062 L 145.335938 18.304688 L 145.574219 18.210938 L 145.8125 18.136719 L 146.046875 18.078125 L 146.285156 18.035156 L 146.523438 18.007812 L 146.757812 18 L 146.996094 18.007812 L 147.234375 18.03125 L 147.46875 18.074219 L 147.707031 18.132812 L 147.945312 18.207031 L 148.179688 18.296875 L 148.417969 18.40625 L 148.65625 18.53125 L 148.890625 18.671875 L 149.128906 18.832031 L 149.367188 19.003906 L 149.601562 19.195312 L 149.839844 19.402344 L 150.078125 19.628906 L 150.3125 19.867188 L 150.550781 20.125 L 150.789062 20.398438 L 151.023438 20.683594 L 151.261719 20.988281 L 151.5 21.308594 L 151.734375 21.644531 L 151.972656 21.996094 L 152.210938 22.363281 L 152.445312 22.746094 L 152.683594 23.144531 L 152.921875 23.558594 L 153.15625 23.988281 L 153.394531 24.429688 L 153.632812 24.886719 L 153.867188 25.359375 L 154.105469 25.847656 L 154.34375 26.351562 L 154.578125 26.867188 L 154.816406 27.398438 L 155.054688 27.941406 L 155.289062 28.5 L 155.527344 29.070312 L 155.765625 29.65625 L 156 30.253906 L 156.238281 30.863281 L 156.476562 31.488281 L 156.710938 32.125 L 156.949219 32.777344 L 157.1875 33.4375 L 157.421875 34.113281 L 157.660156 34.800781 L 157.898438 35.496094 L 158.132812 36.207031 L 158.371094 36.929688 L 158.609375 37.660156 L 158.84375 38.40625 L 159.082031 39.160156 L 159.320312 39.921875 L 159.554688 40.699219 L 159.792969 41.484375 L 160.03125 42.28125 L 160.265625 43.085938 L 160.503906 43.898438 L 160.742188 44.722656 L 160.976562 45.558594 L 161.214844 46.398438 L 161.453125 47.25 L 161.6875 48.109375 L 161.925781 48.976562 L 162.164062 49.851562 L 162.398438 50.734375 L 162.636719 51.621094 L 162.875 52.519531 L 163.109375 53.425781 L 163.347656 54.335938 L 163.585938 55.253906 L 163.820312 56.175781 L 164.058594 57.105469 L 164.292969 58.042969 L 164.53125 58.984375 L 164.769531 59.929688 L 165.003906 60.882812 L 165.242188 61.839844 L 165.480469 62.800781 L 165.714844 63.765625 L 165.953125 64.734375 L 166.191406 65.710938 L 166.425781 66.6875 L 166.664062 67.667969 L 166.902344 68.652344 L 167.136719 69.640625 L 167.375 70.628906 L 167.613281 71.621094 L 167.847656 72.617188 L 168.085938 73.613281 L 168.324219 74.613281 L 168.558594 75.613281 L 168.796875 76.613281 L 169.035156 77.617188 L 169.269531 78.621094 L 169.746094 80.628906 L 169.980469 81.632812 L 170.21875 82.640625 L 170.457031 83.644531 L 170.691406 84.648438 L 171.167969 86.65625 L 171.402344 87.660156 L 171.878906 89.660156 L 172.113281 90.65625 L 172.589844 92.648438 L 172.824219 93.640625 L 173.300781 95.617188 L 173.535156 96.601562 L 174.011719 98.5625 L 174.246094 99.535156 L 174.484375 100.507812 L 174.722656 101.476562 L 174.957031 102.4375 L 175.195312 103.398438 L 175.433594 104.355469 L 175.667969 105.304688 L 175.90625 106.253906 L 176.144531 107.195312 L 176.378906 108.132812 L 176.617188 109.066406 L 176.855469 109.992188 L 177.089844 110.914062 L 177.328125 111.832031 L 177.566406 112.742188 L 177.800781 113.648438 L 178.039062 114.546875 L 178.277344 115.441406 L 178.511719 116.332031 L 178.75 117.210938 L 178.988281 118.085938 L 179.222656 118.957031 L 179.460938 119.820312 L 179.699219 120.675781 L 179.933594 121.523438 L 180.171875 122.363281 L 180.410156 123.199219 L 180.644531 124.027344 L 180.882812 124.847656 L 181.121094 125.664062 L 181.355469 126.46875 L 181.59375 127.265625 L 181.832031 128.058594 L 182.066406 128.84375 L 182.304688 129.617188 L 182.542969 130.386719 L 182.777344 131.144531 L 183.015625 131.898438 L 183.253906 132.640625 L 183.488281 133.378906 L 183.726562 134.105469 L 183.964844 134.828125 L 184.199219 135.539062 L 184.4375 136.242188 L 184.675781 136.9375 L 184.910156 137.621094 L 185.148438 138.300781 L 185.382812 138.96875 L 185.621094 139.632812 L 185.859375 140.285156 L 186.09375 140.925781 L 186.332031 141.5625 L 186.570312 142.1875 L 186.804688 142.808594 L 187.042969 143.414062 L 187.28125 144.015625 L 187.515625 144.609375 L 187.753906 145.191406 L 187.992188 145.765625 L 188.226562 146.328125 L 188.464844 146.886719 L 188.703125 147.433594 L 188.9375 147.972656 L 189.175781 148.5 L 189.414062 149.019531 L 189.648438 149.53125 L 189.886719 150.035156 L 190.125 150.53125 L 190.359375 151.015625 L 190.597656 151.492188 L 190.835938 151.960938 L 191.070312 152.417969 L 191.308594 152.867188 L 191.546875 153.308594 L 191.78125 153.742188 L 192.019531 154.164062 L 192.257812 154.578125 L 192.492188 154.984375 L 192.730469 155.382812 L 192.96875 155.769531 L 193.203125 156.148438 L 193.441406 156.519531 L 193.679688 156.882812 L 193.914062 157.238281 L 194.152344 157.582031 L 194.390625 157.917969 L 194.625 158.246094 L 194.863281 158.566406 L 195.101562 158.878906 L 195.335938 159.179688 L 195.574219 159.476562 L 195.8125 159.761719 L 196.046875 160.039062 L 196.285156 160.308594 L 196.523438 160.570312 L 196.757812 160.824219 L 196.996094 161.070312 L 197.234375 161.308594 L 197.46875 161.539062 L 197.707031 161.761719 L 197.945312 161.972656 L 198.179688 162.179688 L 198.417969 162.378906 L 198.65625 162.570312 L 198.890625 162.75 L 199.128906 162.925781 L 199.367188 163.09375 L 199.601562 163.253906 L 199.839844 163.40625 L 200.078125 163.554688 L 200.3125 163.691406 L 200.550781 163.820312 L 200.789062 163.945312 L 201.023438 164.0625 L 201.261719 164.171875 L 201.5 164.273438 L 201.734375 164.371094 L 201.972656 164.457031 L 202.210938 164.539062 L 202.445312 164.617188 L 202.683594 164.683594 L 202.921875 164.746094 L 203.15625 164.800781 L 203.394531 164.851562 L 203.632812 164.894531 L 203.867188 164.929688 L 204.105469 164.960938 L 204.34375 164.984375 L 204.578125 165 L 204.816406 165.011719 L 205.054688 165.019531 L 205.289062 165.019531 L 205.527344 165.015625 L 205.761719 165.003906 L 206 164.984375 L 206.238281 164.960938 L 206.472656 164.933594 L 206.710938 164.898438 L 206.949219 164.859375 L 207.183594 164.816406 L 207.421875 164.765625 L 207.660156 164.710938 L 207.894531 164.652344 L 208.132812 164.589844 L 208.371094 164.519531 L 208.605469 164.445312 L 208.84375 164.367188 L 209.082031 164.28125 L 209.316406 164.191406 L 209.554688 164.101562 L 209.792969 164.003906 L 210.027344 163.902344 L 210.265625 163.796875 L 210.503906 163.6875 L 210.738281 163.570312 L 210.976562 163.453125 L 211.214844 163.332031 L 211.449219 163.207031 L 211.6875 163.078125 L 211.925781 162.945312 L 212.160156 162.808594 L 212.398438 162.667969 L 212.636719 162.523438 L 212.871094 162.375 L 213.109375 162.226562 L 213.347656 162.070312 L 213.582031 161.914062 L 214.058594 161.59375 L 214.292969 161.425781 L 214.769531 161.089844 L 215.003906 160.914062 L 215.242188 160.738281 L 215.480469 160.558594 L 215.714844 160.378906 L 216.191406 160.011719 L 216.425781 159.824219 L 216.664062 159.636719 L 216.902344 159.445312 L 217.136719 159.25 L 217.613281 158.859375 L 217.847656 158.660156 L 218.324219 158.261719 L 218.558594 158.058594 L 219.035156 157.652344 L 219.269531 157.445312 L 219.746094 157.03125 L 219.980469 156.824219 L 220.457031 156.402344 L 220.691406 156.195312 L 221.167969 155.773438 L 221.402344 155.558594 L 221.878906 155.136719 L 222.113281 154.925781 L 222.351562 154.710938 L 222.589844 154.5 L 222.824219 154.289062 L 223.300781 153.867188 L 223.535156 153.65625 L 224.011719 153.234375 L 224.246094 153.027344 L 224.484375 152.816406 L 224.722656 152.609375 L 224.957031 152.402344 L 225.195312 152.199219 L 225.433594 151.992188 L 225.667969 151.789062 L 225.90625 151.585938 L 226.144531 151.386719 L 226.378906 151.1875 L 226.617188 150.988281 L 226.851562 150.792969 L 227.328125 150.402344 L 227.5625 150.210938 L 227.800781 150.019531 L 228.039062 149.832031 L 228.273438 149.644531 L 228.75 149.277344 L 228.984375 149.097656 L 229.460938 148.746094 L 229.695312 148.570312 L 229.933594 148.398438 L 230.171875 148.230469 L 230.40625 148.0625 L 230.644531 147.902344 L 230.882812 147.738281 L 231.117188 147.582031 L 231.355469 147.425781 L 231.59375 147.273438 L 231.828125 147.121094 L 232.304688 146.832031 L 232.539062 146.6875 L 233.015625 146.414062 L 233.25 146.285156 L 233.488281 146.15625 L 233.726562 146.03125 L 233.960938 145.90625 L 234.4375 145.671875 L 234.671875 145.558594 L 235.148438 145.347656 L 235.382812 145.246094 L 235.621094 145.148438 L 235.859375 145.054688 L 236.09375 144.960938 L 236.332031 144.875 L 236.570312 144.792969 L 236.804688 144.710938 L 237.042969 144.636719 L 237.28125 144.566406 L 237.515625 144.496094 L 237.992188 144.371094 L 238.226562 144.316406 L 238.464844 144.261719 L 238.703125 144.214844 L 238.9375 144.167969 L 239.175781 144.128906 L 239.414062 144.09375 L 239.648438 144.058594 L 239.886719 144.03125 L 240.125 144.007812 L 240.359375 143.988281 L 240.835938 143.957031 L 241.070312 143.949219 L 241.308594 143.945312 L 241.308594 186 Z M 123.0625 186 "/>
<path style="fill:none;stroke-width:0.8;stroke-linecap:butt;stroke-linejoin:round;stroke:rgb(0%,0%,0%);stroke-opacity:1;stroke-miterlimit:4;" d="M 0.00119019 -0.00117493 L 0.00119019 3.499802 " transform="matrix(1.333333,0,0,1.333333,75.670288,194.400004)"/>
<path style=" stroke:none;fill-rule:nonzero;fill:rgb(0%,0%,0%);fill-opacity:1;" d="M 67.253906 209.132812 L 75.601562 209.132812 L 75.601562 210.238281 L 67.253906 210.238281 Z M 67.253906 209.132812 "/>
<path style=" stroke:none;fill-rule:nonzero;fill:rgb(0%,0%,0%);fill-opacity:1;" d="M 82.054688 205.289062 L 78.734375 210.480469 L 82.054688 210.480469 Z M 81.707031 204.144531 L 83.363281 204.144531 L 83.363281 210.480469 L 84.75 210.480469 L 84.75 211.574219 L 83.363281 211.574219 L 83.363281 213.863281 L 82.054688 213.863281 L 82.054688 211.574219 L 77.667969 211.574219 L 77.667969 210.304688 Z M 81.707031 204.144531 "/>
<path style="fill:none;stroke-width:0.8;stroke-linecap:butt;stroke-linejoin:round;stroke:rgb(0%,0%,0%);stroke-opacity:1;stroke-miterlimit:4;" d="M -0.000480652 -0.00117493 L -0.000480652 3.499802 " transform="matrix(1.333333,0,0,1.333333,123.063141,194.400004)"/>
<path style=" stroke:none;fill-rule:nonzero;fill:rgb(0%,0%,0%);fill-opacity:1;" d="M 114.648438 209.132812 L 122.992188 209.132812 L 122.992188 210.238281 L 114.648438 210.238281 Z M 114.648438 209.132812 "/>
<path style=" stroke:none;fill-rule:nonzero;fill:rgb(0%,0%,0%);fill-opacity:1;" d="M 126.964844 212.757812 L 131.554688 212.757812 L 131.554688 213.863281 L 125.382812 213.863281 L 125.382812 212.757812 C 125.882812 212.242188 126.5625 211.546875 127.421875 210.679688 C 128.285156 209.808594 128.828125 209.246094 129.046875 208.992188 C 129.46875 208.523438 129.761719 208.121094 129.929688 207.792969 C 130.097656 207.464844 130.183594 207.144531 130.183594 206.828125 C 130.183594 206.308594 130 205.890625 129.636719 205.566406 C 129.277344 205.238281 128.804688 205.074219 128.222656 205.074219 C 127.808594 205.074219 127.375 205.148438 126.914062 205.289062 C 126.457031 205.433594 125.96875 205.648438 125.449219 205.941406 L 125.449219 204.613281 C 125.976562 204.398438 126.472656 204.238281 126.933594 204.132812 C 127.394531 204.023438 127.816406 203.96875 128.195312 203.96875 C 129.203125 203.96875 130.007812 204.222656 130.605469 204.726562 C 131.203125 205.226562 131.503906 205.898438 131.503906 206.742188 C 131.503906 207.140625 131.425781 207.519531 131.277344 207.878906 C 131.128906 208.234375 130.855469 208.65625 130.460938 209.144531 C 130.351562 209.269531 130.007812 209.632812 129.425781 210.234375 C 128.84375 210.835938 128.023438 211.679688 126.964844 212.757812 Z M 126.964844 212.757812 "/>
<path style="fill:none;stroke-width:0.8;stroke-linecap:butt;stroke-linejoin:round;stroke:rgb(0%,0%,0%);stroke-opacity:1;stroke-miterlimit:4;" d="M 0.000785828 -0.00117493 L 0.000785828 3.499802 " transform="matrix(1.333333,0,0,1.333333,170.455983,194.400004)"/>
<path style=" stroke:none;fill-rule:nonzero;fill:rgb(0%,0%,0%);fill-opacity:1;" d="M 170.453125 205.011719 C 169.777344 205.011719 169.265625 205.34375 168.925781 206.011719 C 168.585938 206.675781 168.414062 207.675781 168.414062 209.015625 C 168.414062 210.347656 168.585938 211.347656 168.925781 212.011719 C 169.265625 212.679688 169.777344 213.011719 170.453125 213.011719 C 171.132812 213.011719 171.644531 212.679688 171.984375 212.011719 C 172.328125 211.347656 172.496094 210.347656 172.496094 209.015625 C 172.496094 207.675781 172.328125 206.675781 171.984375 206.011719 C 171.644531 205.34375 171.132812 205.011719 170.453125 205.011719 Z M 170.453125 203.96875 C 171.542969 203.96875 172.375 204.398438 172.949219 205.261719 C 173.523438 206.125 173.8125 207.375 173.8125 209.015625 C 173.8125 210.652344 173.523438 211.898438 172.949219 212.761719 C 172.375 213.625 171.542969 214.054688 170.453125 214.054688 C 169.363281 214.054688 168.53125 213.625 167.957031 212.761719 C 167.382812 211.898438 167.09375 210.652344 167.09375 209.015625 C 167.09375 207.375 167.382812 206.125 167.957031 205.261719 C 168.53125 204.398438 169.363281 203.96875 170.453125 203.96875 Z M 170.453125 203.96875 "/>
<path style="fill:none;stroke-width:0.8;stroke-linecap:butt;stroke-linejoin:round;stroke:rgb(0%,0%,0%);stroke-opacity:1;stroke-miterlimit:4;" d="M -0.00088501 -0.00117493 L -0.00088501 3.499802 " transform="matrix(1.333333,0,0,1.333333,217.848836,194.400004)"/>
<path style=" stroke:none;fill-rule:nonzero;fill:rgb(0%,0%,0%);fill-opacity:1;" d="M 216.164062 212.757812 L 220.753906 212.757812 L 220.753906 213.863281 L 214.585938 213.863281 L 214.585938 212.757812 C 215.082031 212.242188 215.761719 211.546875 216.625 210.679688 C 217.484375 209.808594 218.027344 209.246094 218.25 208.992188 C 218.667969 208.523438 218.964844 208.121094 219.128906 207.792969 C 219.296875 207.464844 219.382812 207.144531 219.382812 206.828125 C 219.382812 206.308594 219.199219 205.890625 218.839844 205.566406 C 218.476562 205.238281 218.003906 205.074219 217.421875 205.074219 C 217.007812 205.074219 216.574219 205.148438 216.117188 205.289062 C 215.660156 205.433594 215.167969 205.648438 214.648438 205.941406 L 214.648438 204.613281 C 215.179688 204.398438 215.671875 204.238281 216.132812 204.132812 C 216.59375 204.023438 217.015625 203.96875 217.398438 203.96875 C 218.402344 203.96875 219.207031 204.222656 219.804688 204.726562 C 220.402344 205.226562 220.703125 205.898438 220.703125 206.742188 C 220.703125 207.140625 220.628906 207.519531 220.476562 207.878906 C 220.328125 208.234375 220.058594 208.65625 219.660156 209.144531 C 219.554688 209.269531 219.207031 209.632812 218.625 210.234375 C 218.046875 210.835938 217.226562 211.679688 216.164062 212.757812 Z M 216.164062 212.757812 "/>
<path style="fill:none;stroke-width:0.8;stroke-linecap:butt;stroke-linejoin:round;stroke:rgb(0%,0%,0%);stroke-opacity:1;stroke-miterlimit:4;" d="M 0.00038147 -0.00117493 L 0.00038147 3.499802 " transform="matrix(1.333333,0,0,1.333333,265.241679,194.400004)"/>
<path style=" stroke:none;fill-rule:nonzero;fill:rgb(0%,0%,0%);fill-opacity:1;" d="M 266.039062 205.289062 L 262.71875 210.480469 L 266.039062 210.480469 Z M 265.695312 204.144531 L 267.347656 204.144531 L 267.347656 210.480469 L 268.734375 210.480469 L 268.734375 211.574219 L 267.347656 211.574219 L 267.347656 213.863281 L 266.039062 213.863281 L 266.039062 211.574219 L 261.652344 211.574219 L 261.652344 210.304688 Z M 265.695312 204.144531 "/>
<path style="fill:none;stroke-width:0.8;stroke-linecap:butt;stroke-linejoin:round;stroke:rgb(0%,0%,0%);stroke-opacity:1;stroke-miterlimit:4;" d="M -0.000585556 -0.000000000000028422 L -3.498632 -0.000000000000028422 " transform="matrix(1.333333,0,0,1.333333,40.137499,186)"/>
<path style=" stroke:none;fill-rule:nonzero;fill:rgb(0%,0%,0%);fill-opacity:1;" d="M 13.835938 182.210938 C 13.160156 182.210938 12.652344 182.542969 12.308594 183.210938 C 11.96875 183.875 11.800781 184.878906 11.800781 186.214844 C 11.800781 187.546875 11.96875 188.546875 12.308594 189.214844 C 12.652344 189.878906 13.160156 190.214844 13.835938 190.214844 C 14.519531 190.214844 15.03125 189.878906 15.371094 189.214844 C 15.710938 188.546875 15.882812 187.546875 15.882812 186.214844 C 15.882812 184.878906 15.710938 183.875 15.371094 183.210938 C 15.03125 182.542969 14.519531 182.210938 13.835938 182.210938 Z M 13.835938 181.167969 C 14.929688 181.167969 15.761719 181.601562 16.335938 182.464844 C 16.910156 183.324219 17.199219 184.574219 17.199219 186.214844 C 17.199219 187.851562 16.910156 189.101562 16.335938 189.964844 C 15.761719 190.824219 14.929688 191.253906 13.835938 191.253906 C 12.75 191.253906 11.917969 190.824219 11.339844 189.964844 C 10.765625 189.101562 10.480469 187.851562 10.480469 186.214844 C 10.480469 184.574219 10.765625 183.324219 11.339844 182.464844 C 11.917969 181.601562 12.75 181.167969 13.835938 181.167969 Z M 13.835938 181.167969 "/>
<path style=" stroke:none;fill-rule:nonzero;fill:rgb(0%,0%,0%);fill-opacity:1;" d="M 19.507812 189.410156 L 20.882812 189.410156 L 20.882812 191.066406 L 19.507812 191.066406 Z M 19.507812 189.410156 "/>
<path style=" stroke:none;fill-rule:nonzero;fill:rgb(0%,0%,0%);fill-opacity:1;" d="M 26.558594 182.210938 C 25.882812 182.210938 25.375 182.542969 25.03125 183.210938 C 24.691406 183.875 24.519531 184.878906 24.519531 186.214844 C 24.519531 187.546875 24.691406 188.546875 25.03125 189.214844 C 25.375 189.878906 25.882812 190.214844 26.558594 190.214844 C 27.242188 190.214844 27.75 189.878906 28.09375 189.214844 C 28.433594 188.546875 28.605469 187.546875 28.605469 186.214844 C 28.605469 184.878906 28.433594 183.875 28.09375 183.210938 C 27.75 182.542969 27.242188 182.210938 26.558594 182.210938 Z M 26.558594 181.167969 C 27.648438 181.167969 28.480469 181.601562 29.058594 182.464844 C 29.632812 183.324219 29.917969 184.574219 29.917969 186.214844 C 29.917969 187.851562 29.632812 189.101562 29.058594 189.964844 C 28.480469 190.824219 27.648438 191.253906 26.558594 191.253906 C 25.46875 191.253906 24.636719 190.824219 24.0625 189.964844 C 23.488281 189.101562 23.199219 187.851562 23.199219 186.214844 C 23.199219 184.574219 23.488281 183.324219 24.0625 182.464844 C 24.636719 181.601562 25.46875 181.167969 26.558594 181.167969 Z M 26.558594 181.167969 "/>
<path style="fill:none;stroke-width:0.8;stroke-linecap:butt;stroke-linejoin:round;stroke:rgb(0%,0%,0%);stroke-opacity:1;stroke-miterlimit:4;" d="M -0.000585556 -0.00144958 L -3.498632 -0.00144958 " transform="matrix(1.333333,0,0,1.333333,40.137499,133.365214)"/>
<path style=" stroke:none;fill-rule:nonzero;fill:rgb(0%,0%,0%);fill-opacity:1;" d="M 13.835938 129.578125 C 13.160156 129.578125 12.652344 129.910156 12.308594 130.578125 C 11.96875 131.242188 11.800781 132.242188 11.800781 133.582031 C 11.800781 134.914062 11.96875 135.910156 12.308594 136.578125 C 12.652344 137.246094 13.160156 137.578125 13.835938 137.578125 C 14.519531 137.578125 15.03125 137.246094 15.371094 136.578125 C 15.710938 135.910156 15.882812 134.914062 15.882812 133.582031 C 15.882812 132.242188 15.710938 131.242188 15.371094 130.578125 C 15.03125 129.910156 14.519531 129.578125 13.835938 129.578125 Z M 13.835938 128.535156 C 14.929688 128.535156 15.761719 128.964844 16.335938 129.828125 C 16.910156 130.691406 17.199219 131.941406 17.199219 133.582031 C 17.199219 135.21875 16.910156 136.464844 16.335938 137.328125 C 15.761719 138.191406 14.929688 138.621094 13.835938 138.621094 C 12.75 138.621094 11.917969 138.191406 11.339844 137.328125 C 10.765625 136.464844 10.480469 135.21875 10.480469 133.582031 C 10.480469 131.941406 10.765625 130.691406 11.339844 129.828125 C 11.917969 128.964844 12.75 128.535156 13.835938 128.535156 Z M 13.835938 128.535156 "/>
<path style=" stroke:none;fill-rule:nonzero;fill:rgb(0%,0%,0%);fill-opacity:1;" d="M 19.507812 136.777344 L 20.882812 136.777344 L 20.882812 138.429688 L 19.507812 138.429688 Z M 19.507812 136.777344 "/>
<path style=" stroke:none;fill-rule:nonzero;fill:rgb(0%,0%,0%);fill-opacity:1;" d="M 23.976562 137.324219 L 26.125 137.324219 L 26.125 129.90625 L 23.785156 130.375 L 23.785156 129.179688 L 26.109375 128.710938 L 27.425781 128.710938 L 27.425781 137.324219 L 29.574219 137.324219 L 29.574219 138.429688 L 23.976562 138.429688 Z M 23.976562 137.324219 "/>
<path style="fill:none;stroke-width:0.8;stroke-linecap:butt;stroke-linejoin:round;stroke:rgb(0%,0%,0%);stroke-opacity:1;stroke-miterlimit:4;" d="M -0.000585556 0.0000228882 L -3.498632 0.0000228882 " transform="matrix(1.333333,0,0,1.333333,40.137499,80.730438)"/>
<path style=" stroke:none;fill-rule:nonzero;fill:rgb(0%,0%,0%);fill-opacity:1;" d="M 13.835938 76.941406 C 13.160156 76.941406 12.652344 77.273438 12.308594 77.941406 C 11.96875 78.605469 11.800781 79.609375 11.800781 80.945312 C 11.800781 82.277344 11.96875 83.277344 12.308594 83.945312 C 12.652344 84.609375 13.160156 84.945312 13.835938 84.945312 C 14.519531 84.945312 15.03125 84.609375 15.371094 83.945312 C 15.710938 83.277344 15.882812 82.277344 15.882812 80.945312 C 15.882812 79.609375 15.710938 78.605469 15.371094 77.941406 C 15.03125 77.273438 14.519531 76.941406 13.835938 76.941406 Z M 13.835938 75.898438 C 14.929688 75.898438 15.761719 76.332031 16.335938 77.195312 C 16.910156 78.054688 17.199219 79.304688 17.199219 80.945312 C 17.199219 82.582031 16.910156 83.832031 16.335938 84.695312 C 15.761719 85.554688 14.929688 85.984375 13.835938 85.984375 C 12.75 85.984375 11.917969 85.554688 11.339844 84.695312 C 10.765625 83.832031 10.480469 82.582031 10.480469 80.945312 C 10.480469 79.304688 10.765625 78.054688 11.339844 77.195312 C 11.917969 76.332031 12.75 75.898438 13.835938 75.898438 Z M 13.835938 75.898438 "/>
<path style=" stroke:none;fill-rule:nonzero;fill:rgb(0%,0%,0%);fill-opacity:1;" d="M 19.507812 84.140625 L 20.882812 84.140625 L 20.882812 85.796875 L 19.507812 85.796875 Z M 19.507812 84.140625 "/>
<path style=" stroke:none;fill-rule:nonzero;fill:rgb(0%,0%,0%);fill-opacity:1;" d="M 24.878906 84.691406 L 29.46875 84.691406 L 29.46875 85.796875 L 23.296875 85.796875 L 23.296875 84.691406 C 23.796875 84.171875 24.476562 83.480469 25.339844 82.609375 C 26.199219 81.738281 26.742188 81.179688 26.964844 80.925781 C 27.382812 80.453125 27.675781 80.054688 27.84375 79.726562 C 28.011719 79.398438 28.097656 79.074219 28.097656 78.757812 C 28.097656 78.242188 27.914062 77.820312 27.550781 77.496094 C 27.191406 77.167969 26.71875 77.007812 26.136719 77.007812 C 25.722656 77.007812 25.289062 77.078125 24.828125 77.222656 C 24.371094 77.363281 23.882812 77.582031 23.363281 77.875 L 23.363281 76.542969 C 23.890625 76.332031 24.386719 76.171875 24.847656 76.0625 C 25.308594 75.953125 25.730469 75.898438 26.109375 75.898438 C 27.117188 75.898438 27.921875 76.152344 28.519531 76.65625 C 29.117188 77.160156 29.417969 77.832031 29.417969 78.671875 C 29.417969 79.074219 29.34375 79.453125 29.191406 79.8125 C 29.042969 80.167969 28.769531 80.589844 28.375 81.074219 C 28.265625 81.203125 27.921875 81.566406 27.339844 82.167969 C 26.757812 82.769531 25.9375 83.609375 24.878906 84.691406 Z M 24.878906 84.691406 "/>
<path style="fill:none;stroke-width:0.8;stroke-linecap:butt;stroke-linejoin:round;stroke:rgb(0%,0%,0%);stroke-opacity:1;stroke-miterlimit:4;" d="M -0.000585556 -0.0014286 L -3.498632 -0.0014286 " transform="matrix(1.333333,0,0,1.333333,40.137499,28.095655)"/>
<path style=" stroke:none;fill-rule:nonzero;fill:rgb(0%,0%,0%);fill-opacity:1;" d="M 13.835938 24.308594 C 13.160156 24.308594 12.652344 24.640625 12.308594 25.308594 C 11.96875 25.972656 11.800781 26.972656 11.800781 28.3125 C 11.800781 29.644531 11.96875 30.640625 12.308594 31.308594 C 12.652344 31.976562 13.160156 32.308594 13.835938 32.308594 C 14.519531 32.308594 15.03125 31.976562 15.371094 31.308594 C 15.710938 30.640625 15.882812 29.644531 15.882812 28.3125 C 15.882812 26.972656 15.710938 25.972656 15.371094 25.308594 C 15.03125 24.640625 14.519531 24.308594 13.835938 24.308594 Z M 13.835938 23.265625 C 14.929688 23.265625 15.761719 23.695312 16.335938 24.558594 C 16.910156 25.421875 17.199219 26.671875 17.199219 28.3125 C 17.199219 29.949219 16.910156 31.195312 16.335938 32.058594 C 15.761719 32.921875 14.929688 33.351562 13.835938 33.351562 C 12.75 33.351562 11.917969 32.921875 11.339844 32.058594 C 10.765625 31.195312 10.480469 29.949219 10.480469 28.3125 C 10.480469 26.671875 10.765625 25.421875 11.339844 24.558594 C 11.917969 23.695312 12.75 23.265625 13.835938 23.265625 Z M 13.835938 23.265625 "/>
<path style=" stroke:none;fill-rule:nonzero;fill:rgb(0%,0%,0%);fill-opacity:1;" d="M 19.507812 31.507812 L 20.882812 31.507812 L 20.882812 33.160156 L 19.507812 33.160156 Z M 19.507812 31.507812 "/>
<path style=" stroke:none;fill-rule:nonzero;fill:rgb(0%,0%,0%);fill-opacity:1;" d="M 27.730469 27.917969 C 28.359375 28.054688 28.851562 28.335938 29.203125 28.761719 C 29.558594 29.1875 29.734375 29.710938 29.734375 30.335938 C 29.734375 31.292969 29.40625 32.035156 28.746094 32.5625 C 28.085938 33.089844 27.148438 33.351562 25.933594 33.351562 C 25.527344 33.351562 25.109375 33.3125 24.675781 33.230469 C 24.242188 33.148438 23.796875 33.027344 23.339844 32.867188 L 23.339844 31.597656 C 23.703125 31.8125 24.101562 31.972656 24.535156 32.078125 C 24.96875 32.1875 25.421875 32.242188 25.894531 32.242188 C 26.71875 32.242188 27.347656 32.078125 27.78125 31.753906 C 28.210938 31.429688 28.425781 30.957031 28.425781 30.335938 C 28.425781 29.761719 28.226562 29.316406 27.824219 28.992188 C 27.425781 28.667969 26.867188 28.507812 26.152344 28.507812 L 25.015625 28.507812 L 25.015625 27.425781 L 26.203125 27.425781 C 26.847656 27.425781 27.34375 27.296875 27.6875 27.039062 C 28.027344 26.78125 28.199219 26.40625 28.199219 25.921875 C 28.199219 25.421875 28.023438 25.039062 27.667969 24.773438 C 27.316406 24.503906 26.808594 24.371094 26.152344 24.371094 C 25.789062 24.371094 25.402344 24.410156 24.988281 24.492188 C 24.578125 24.566406 24.125 24.6875 23.628906 24.851562 L 23.628906 23.683594 C 24.128906 23.542969 24.597656 23.4375 25.035156 23.371094 C 25.46875 23.300781 25.882812 23.265625 26.265625 23.265625 C 27.265625 23.265625 28.054688 23.492188 28.636719 23.945312 C 29.21875 24.398438 29.507812 25.011719 29.507812 25.785156 C 29.507812 26.324219 29.355469 26.777344 29.046875 27.148438 C 28.738281 27.519531 28.300781 27.777344 27.730469 27.917969 Z M 27.730469 27.917969 "/>
<path style="fill:none;stroke-width:1.5;stroke-linecap:square;stroke-linejoin:round;stroke:rgb(0%,0%,0%);stroke-opacity:1;stroke-miterlimit:4;" d="M 38.979492 139.458984 L 46.798828 139.277344 L 51.421875 138.955078 L 54.796875 138.500977 L 57.462891 137.923828 L 59.774414 137.203125 L 61.907227 136.297852 L 63.861328 135.210937 L 65.639648 133.96582 L 67.415039 132.427734 L 69.014648 130.757812 L 70.614258 128.780273 L 72.213867 126.462891 L 73.813477 123.773438 L 75.591797 120.310547 L 77.367187 116.317383 L 79.145508 111.773438 L 81.099609 106.12793 L 83.232422 99.208008 L 85.543945 90.881836 L 88.209961 80.370117 L 91.942383 64.611328 L 96.916992 43.6875 L 99.228516 34.898438 L 101.182617 28.3125 L 102.782227 23.666016 L 104.206055 20.185547 L 105.448242 17.695313 L 106.514648 16.001953 L 107.581055 14.733398 L 108.46875 14.012695 L 109.359375 13.602539 L 110.068359 13.5 L 110.780273 13.599609 L 111.492187 13.898438 L 112.379883 14.551758 L 113.267578 15.512695 L 114.333984 17.05957 L 115.400391 19.019531 L 116.645508 21.802734 L 118.066406 25.584961 L 119.666016 30.524414 L 121.623047 37.388672 L 123.931641 46.379883 L 127.664062 61.980469 L 132.28418 81.099609 L 134.950195 91.142578 L 137.083008 98.358398 L 139.037109 104.226562 L 140.81543 108.893555 L 142.415039 112.526367 L 144.014648 115.623047 L 145.435547 117.928711 L 146.859375 119.821289 L 148.280273 121.321289 L 149.525391 122.320312 L 150.767578 123.046875 L 152.012695 123.512695 L 153.257812 123.738281 L 154.5 123.738281 L 155.745117 123.533203 L 157.166016 123.076172 L 158.765625 122.308594 L 160.543945 121.195312 L 162.676758 119.583984 L 165.697266 116.988281 L 171.029297 112.374023 L 173.337891 110.686523 L 175.294922 109.523438 L 177.070312 108.720703 L 178.669922 108.237305 L 180.269531 107.991211 L 181.869141 107.991211 L 183.46875 108.243164 L 185.068359 108.738281 L 186.667969 109.467773 L 188.446289 110.53418 L 190.400391 111.981445 L 192.711914 113.99707 L 195.553711 116.80957 L 201.064453 122.677734 L 204.972656 126.665039 L 207.996094 129.427734 L 210.662109 131.557617 L 213.149414 133.265625 L 215.636719 134.701172 L 216.524414 135.152344 " transform="matrix(1.333333,0,0,1.333333,0,-0.000000000000014211)"/>
<path style="fill:none;stroke-width:0.8;stroke-linecap:square;stroke-linejoin:miter;stroke:rgb(0%,0%,0%);stroke-opacity:1;stroke-miterlimit:4;" d="M 30.102539 145.798828 L 30.102539 7.201172 " transform="matrix(1.333333,0,0,1.333333,0,-0.000000000000014211)"/>
<path style="fill:none;stroke-width:0.8;stroke-linecap:square;stroke-linejoin:miter;stroke:rgb(0%,0%,0%);stroke-opacity:1;stroke-miterlimit:4;" d="M 225.404297 145.798828 L 225.404297 7.201172 " transform="matrix(1.333333,0,0,1.333333,0,-0.000000000000014211)"/>
<path style="fill:none;stroke-width:0.8;stroke-linecap:square;stroke-linejoin:miter;stroke:rgb(0%,0%,0%);stroke-opacity:1;stroke-miterlimit:4;" d="M 30.102539 145.798828 L 225.404297 145.798828 " transform="matrix(1.333333,0,0,1.333333,0,-0.000000000000014211)"/>
<path style="fill:none;stroke-width:0.8;stroke-linecap:square;stroke-linejoin:miter;stroke:rgb(0%,0%,0%);stroke-opacity:1;stroke-miterlimit:4;" d="M 30.102539 7.201172 L 225.404297 7.201172 " transform="matrix(1.333333,0,0,1.333333,0,-0.000000000000014211)"/>
</g>
</svg>
