<?xml version="1.0" encoding="UTF-8"?>
<svg xmlns="http://www.w3.org/2000/svg" xmlns:xlink="http://www.w3.org/1999/xlink" width="339.731242" height="257.379171" viewBox="0 0 339.731242 257.379171" version="1.1">
<g id="surface1">
<path style=" stroke:none;fill-rule:nonzero;fill:rgb(100%,100%,100%);fill-opacity:1;" d="M 0 257.378906 L 339.730469 257.378906 L 339.730469 0 L 0 0 Z M 0 257.378906 "/>
<path style=" stroke:none;fill-rule:nonzero;fill:rgb(100%,100%,100%);fill-opacity:1;" d="M 69.730469 194.398438 L 330.132812 194.398438 L 330.132812 9.601562 L 69.730469 9.601562 Z M 69.730469 194.398438 "/>
<path style="fill-rule:nonzero;fill:rgb(12.156863%,46.666667%,70.588237%);fill-opacity:1;stroke-width:1;stroke-linecap:butt;stroke-linejoin:round;stroke:rgb(12.156863%,46.666667%,70.588237%);stroke-opacity:1;stroke-miterlimit:4;" d="M -0.000904083 2.998962 C 0.795971 2.998962 1.55769 2.682556 2.12019 2.120056 C 2.68269 1.557556 2.999096 0.795837 2.999096 -0.0010376 C 2.999096 -0.794983 2.68269 -1.559631 2.12019 -2.122131 C 1.55769 -2.684631 0.795971 -3.001038 -0.000904083 -3.001038 C -0.794849 -3.001038 -1.559498 -2.684631 -2.121998 -2.122131 C -2.684498 -1.559631 -3.000904 -0.794983 -3.000904 -0.0010376 C -3.000904 0.795837 -2.684498 1.557556 -2.121998 2.120056 C -1.559498 2.682556 -0.794849 2.998962 -0.000904083 2.998962 Z M -0.000904083 2.998962 " transform="matrix(1.333333,0,0,1.333333,81.567612,94.181071)"/>
<path style="fill-rule:nonzero;fill:rgb(12.156863%,46.666667%,70.588237%);fill-opacity:1;stroke-width:1;stroke-linecap:butt;stroke-linejoin:round;stroke:rgb(12.156863%,46.666667%,70.588237%);stroke-opacity:1;stroke-miterlimit:4;" d="M -0.000259399 2.99942 C 0.796616 2.99942 1.558334 2.683014 2.120834 2.120514 C 2.683334 1.558014 2.999741 0.796295 2.999741 -0.000579834 C 2.999741 -0.794525 2.683334 -1.559174 2.120834 -2.121674 C 1.558334 -2.684174 0.796616 -3.00058 -0.000259399 -3.00058 C -0.794205 -3.00058 -1.558853 -2.684174 -2.121353 -2.121674 C -2.683853 -1.559174 -3.000259 -0.794525 -3.000259 -0.000579834 C -3.000259 0.796295 -2.683853 1.558014 -2.121353 2.120514 C -1.558853 2.683014 -0.794205 2.99942 -0.000259399 2.99942 Z M -0.000259399 2.99942 " transform="matrix(1.333333,0,0,1.333333,86.398783,76.551554)"/>
<path style="fill-rule:nonzero;fill:rgb(12.156863%,46.666667%,70.588237%);fill-opacity:1;stroke-width:1;stroke-linecap:butt;stroke-linejoin:round;stroke:rgb(12.156863%,46.666667%,70.588237%);stroke-opacity:1;stroke-miterlimit:4;" d="M 0.000389099 2.999146 C 0.794334 2.999146 1.558983 2.682739 2.121483 2.120239 C 2.683983 1.557739 3.000389 0.796021 3.000389 -0.000854492 C 3.000389 -0.7948 2.683983 -1.559448 2.121483 -2.121948 C 1.558983 -2.684448 0.794334 -3.000854 0.000389099 -3.000854 C -0.796486 -3.000854 -1.558205 -2.684448 -2.120705 -2.121948 C -2.683205 -1.559448 -2.999611 -0.7948 -2.999611 -0.000854492 C -2.999611 0.796021 -2.683205 1.557739 -2.120705 2.120239 C -1.558205 2.682739 -0.796486 2.999146 0.000389099 2.999146 Z M 0.000389099 2.999146 " transform="matrix(1.333333,0,0,1.333333,91.22995,76.399577)"/>
<path style="fill-rule:nonzero;fill:rgb(12.156863%,46.666667%,70.588237%);fill-opacity:1;stroke-width:1;stroke-linecap:butt;stroke-linejoin:round;stroke:rgb(12.156863%,46.666667%,70.588237%);stroke-opacity:1;stroke-miterlimit:4;" d="M 0.0010376 2.999077 C 0.794983 2.999077 1.559631 2.682671 2.122131 2.120171 C 2.684631 1.557671 3.001038 0.795952 3.001038 -0.000923157 C 3.001038 -0.794868 2.684631 -1.559517 2.122131 -2.122017 C 1.559631 -2.684517 0.794983 -3.000923 0.0010376 -3.000923 C -0.795837 -3.000923 -1.557556 -2.684517 -2.120056 -2.122017 C -2.682556 -1.559517 -2.998962 -0.794868 -2.998962 -0.000923157 C -2.998962 0.795952 -2.682556 1.557671 -2.120056 2.120171 C -1.557556 2.682671 -0.795837 2.999077 0.0010376 2.999077 Z M 0.0010376 2.999077 " transform="matrix(1.333333,0,0,1.333333,96.061117,57.622325)"/>
<path style="fill-rule:nonzero;fill:rgb(12.156863%,46.666667%,70.588237%);fill-opacity:1;stroke-width:1;stroke-linecap:butt;stroke-linejoin:round;stroke:rgb(12.156863%,46.666667%,70.588237%);stroke-opacity:1;stroke-miterlimit:4;" d="M -0.00125122 2.999409 C 0.795624 2.999409 1.557343 2.683002 2.122772 2.120502 C 2.685272 1.558002 2.998749 0.796284 2.998749 -0.000591278 C 2.998749 -0.794537 2.685272 -1.559185 2.122772 -2.121685 C 1.557343 -2.684185 0.795624 -3.000591 -0.00125122 -3.000591 C -0.795197 -3.000591 -1.559845 -2.684185 -2.122345 -2.121685 C -2.684845 -1.559185 -3.001251 -0.794537 -3.001251 -0.000591278 C -3.001251 0.796284 -2.684845 1.558002 -2.122345 2.120502 C -1.559845 2.683002 -0.795197 2.999409 -0.00125122 2.999409 Z M -0.00125122 2.999409 " transform="matrix(1.333333,0,0,1.333333,100.892293,58.172663)"/>
<path style="fill-rule:nonzero;fill:rgb(12.156863%,46.666667%,70.588237%);fill-opacity:1;stroke-width:1;stroke-linecap:butt;stroke-linejoin:round;stroke:rgb(12.156863%,46.666667%,70.588237%);stroke-opacity:1;stroke-miterlimit:4;" d="M -0.000602722 2.999826 C 0.796272 2.999826 1.557991 2.68342 2.120491 2.12092 C 2.682991 1.55842 2.999397 0.796701 2.999397 -0.000173569 C 2.999397 -0.797049 2.682991 -1.558767 2.120491 -2.121267 C 1.557991 -2.683767 0.796272 -3.000174 -0.000602722 -3.000174 C -0.794548 -3.000174 -1.559196 -2.683767 -2.121696 -2.121267 C -2.684196 -1.558767 -3.000603 -0.797049 -3.000603 -0.000173569 C -3.000603 0.796701 -2.684196 1.55842 -2.121696 2.12092 C -1.559196 2.68342 -0.794548 2.999826 -0.000602722 2.999826 Z M -0.000602722 2.999826 " transform="matrix(1.333333,0,0,1.333333,105.72346,38.320544)"/>
<path style="fill-rule:nonzero;fill:rgb(12.156863%,46.666667%,70.588237%);fill-opacity:1;stroke-width:1;stroke-linecap:butt;stroke-linejoin:round;stroke:rgb(12.156863%,46.666667%,70.588237%);stroke-opacity:1;stroke-miterlimit:4;" d="M 0.0000457764 3.000565 C 0.796921 3.000565 1.55864 2.684158 2.12114 2.121658 C 2.68364 1.559158 3.000046 0.79451 3.000046 0.000564575 C 3.000046 -0.79631 2.68364 -1.558029 2.12114 -2.120529 C 1.55864 -2.683029 0.796921 -2.999435 0.0000457764 -2.999435 C -0.796829 -2.999435 -1.558548 -2.683029 -2.121048 -2.120529 C -2.683548 -1.558029 -2.999954 -0.79631 -2.999954 0.000564575 C -2.999954 0.79451 -2.683548 1.559158 -2.121048 2.121658 C -1.558548 2.684158 -0.796829 3.000565 0.0000457764 3.000565 Z M 0.0000457764 3.000565 " transform="matrix(1.333333,0,0,1.333333,110.554626,50.116435)"/>
<path style="fill-rule:nonzero;fill:rgb(12.156863%,46.666667%,70.588237%);fill-opacity:1;stroke-width:1;stroke-linecap:butt;stroke-linejoin:round;stroke:rgb(12.156863%,46.666667%,70.588237%);stroke-opacity:1;stroke-miterlimit:4;" d="M 0.000694275 2.99959 C 0.79464 2.99959 1.559288 2.683184 2.121788 2.120684 C 2.684288 1.558184 3.000694 0.796465 3.000694 -0.00041008 C 3.000694 -0.794355 2.684288 -1.559004 2.121788 -2.121504 C 1.559288 -2.684004 0.79464 -3.00041 0.000694275 -3.00041 C -0.796181 -3.00041 -1.557899 -2.684004 -2.120399 -2.121504 C -2.682899 -1.559004 -2.999306 -0.794355 -2.999306 -0.00041008 C -2.999306 0.796465 -2.682899 1.558184 -2.120399 2.120684 C -1.557899 2.683184 -0.796181 2.99959 0.000694275 2.99959 Z M 0.000694275 2.99959 " transform="matrix(1.333333,0,0,1.333333,115.385793,42.133359)"/>
<path style="fill-rule:nonzero;fill:rgb(12.156863%,46.666667%,70.588237%);fill-opacity:1;stroke-width:1;stroke-linecap:butt;stroke-linejoin:round;stroke:rgb(12.156863%,46.666667%,70.588237%);stroke-opacity:1;stroke-miterlimit:4;" d="M 0.00134277 3.000862 C 0.795288 3.000862 1.559937 2.684456 2.122437 2.121956 C 2.684937 1.559456 3.001343 0.794807 3.001343 0.000862122 C 3.001343 -0.796013 2.684937 -1.557732 2.122437 -2.120232 C 1.559937 -2.682732 0.795288 -2.999138 0.00134277 -2.999138 C -0.795532 -2.999138 -1.560181 -2.682732 -2.122681 -2.120232 C -2.685181 -1.557732 -2.998657 -0.796013 -2.998657 0.000862122 C -2.998657 0.794807 -2.685181 1.559456 -2.122681 2.121956 C -1.560181 2.684456 -0.795532 3.000862 0.00134277 3.000862 Z M 0.00134277 3.000862 " transform="matrix(1.333333,0,0,1.333333,120.21696,55.600413)"/>
<path style="fill-rule:nonzero;fill:rgb(12.156863%,46.666667%,70.588237%);fill-opacity:1;stroke-width:1;stroke-linecap:butt;stroke-linejoin:round;stroke:rgb(12.156863%,46.666667%,70.588237%);stroke-opacity:1;stroke-miterlimit:4;" d="M -0.000946045 2.998615 C 0.795929 2.998615 1.557648 2.685139 2.120148 2.122639 C 2.682648 1.560139 2.999054 0.79549 2.999054 -0.00138474 C 2.999054 -0.79533 2.682648 -1.559978 2.120148 -2.122478 C 1.557648 -2.684978 0.795929 -3.001385 -0.000946045 -3.001385 C -0.794891 -3.001385 -1.55954 -2.684978 -2.12204 -2.122478 C -2.68454 -1.559978 -3.000946 -0.79533 -3.000946 -0.00138474 C -3.000946 0.79549 -2.68454 1.560139 -2.12204 2.122639 C -1.55954 2.685139 -0.794891 2.998615 -0.000946045 2.998615 Z M -0.000946045 2.998615 " transform="matrix(1.333333,0,0,1.333333,125.048136,85.283096)"/>
<path style="fill-rule:nonzero;fill:rgb(12.156863%,46.666667%,70.588237%);fill-opacity:1;stroke-width:1;stroke-linecap:butt;stroke-linejoin:round;stroke:rgb(12.156863%,46.666667%,70.588237%);stroke-opacity:1;stroke-miterlimit:4;" d="M -0.000297546 3.001404 C 0.796577 3.001404 1.558296 2.684998 2.120796 2.122498 C 2.683296 1.559998 2.999702 0.795349 2.999702 0.00140381 C 2.999702 -0.795471 2.683296 -1.56012 2.120796 -2.12262 C 1.558296 -2.68512 0.796577 -2.998596 -0.000297546 -2.998596 C -0.794243 -2.998596 -1.558891 -2.68512 -2.121391 -2.12262 C -2.683891 -1.56012 -3.000298 -0.795471 -3.000298 0.00140381 C -3.000298 0.795349 -2.683891 1.559998 -2.121391 2.122498 C -1.558891 2.684998 -0.794243 3.001404 -0.000297546 3.001404 Z M -0.000297546 3.001404 " transform="matrix(1.333333,0,0,1.333333,129.879303,62.662191)"/>
<path style="fill-rule:nonzero;fill:rgb(12.156863%,46.666667%,70.588237%);fill-opacity:1;stroke-width:1;stroke-linecap:butt;stroke-linejoin:round;stroke:rgb(12.156863%,46.666667%,70.588237%);stroke-opacity:1;stroke-miterlimit:4;" d="M 0.000350952 3.000309 C 0.794296 3.000309 1.558945 2.683903 2.121445 2.121403 C 2.683945 1.558903 3.000351 0.794254 3.000351 0.00030899 C 3.000351 -0.796566 2.683945 -1.558285 2.121445 -2.120785 C 1.558945 -2.683285 0.794296 -2.999691 0.000350952 -2.999691 C -0.796524 -2.999691 -1.558243 -2.683285 -2.120743 -2.120785 C -2.683243 -1.558285 -2.999649 -0.796566 -2.999649 0.00030899 C -2.999649 0.794254 -2.683243 1.558903 -2.120743 2.121403 C -1.558243 2.683903 -0.796524 3.000309 0.000350952 3.000309 Z M 0.000350952 3.000309 " transform="matrix(1.333333,0,0,1.333333,134.71047,81.292557)"/>
<path style="fill-rule:nonzero;fill:rgb(12.156863%,46.666667%,70.588237%);fill-opacity:1;stroke-width:1;stroke-linecap:butt;stroke-linejoin:round;stroke:rgb(12.156863%,46.666667%,70.588237%);stroke-opacity:1;stroke-miterlimit:4;" d="M 0.000999451 2.998859 C 0.794945 2.998859 1.559593 2.682453 2.122093 2.119953 C 2.684593 1.557453 3.000999 0.795734 3.000999 -0.00114059 C 3.000999 -0.795086 2.684593 -1.559734 2.122093 -2.122234 C 1.559593 -2.684734 0.794945 -3.001141 0.000999451 -3.001141 C -0.795876 -3.001141 -1.557594 -2.684734 -2.120094 -2.122234 C -2.682594 -1.559734 -2.999001 -0.795086 -2.999001 -0.00114059 C -2.999001 0.795734 -2.682594 1.557453 -2.120094 2.119953 C -1.557594 2.682453 -0.795876 2.998859 0.000999451 2.998859 Z M 0.000999451 2.998859 " transform="matrix(1.333333,0,0,1.333333,139.541636,67.399958)"/>
<path style="fill-rule:nonzero;fill:rgb(12.156863%,46.666667%,70.588237%);fill-opacity:1;stroke-width:1;stroke-linecap:butt;stroke-linejoin:round;stroke:rgb(12.156863%,46.666667%,70.588237%);stroke-opacity:1;stroke-miterlimit:4;" d="M -0.00128937 3.000565 C 0.795586 3.000565 1.557304 2.684158 2.122734 2.121658 C 2.685234 1.559158 2.998711 0.79451 2.998711 0.000564575 C 2.998711 -0.79631 2.685234 -1.558029 2.122734 -2.120529 C 1.557304 -2.683029 0.795586 -2.999435 -0.00128937 -2.999435 C -0.795235 -2.999435 -1.559883 -2.683029 -2.122383 -2.120529 C -2.684883 -1.558029 -3.001289 -0.79631 -3.001289 0.000564575 C -3.001289 0.79451 -2.684883 1.559158 -2.122383 2.121658 C -1.559883 2.684158 -0.795235 3.000565 -0.00128937 3.000565 Z M -0.00128937 3.000565 " transform="matrix(1.333333,0,0,1.333333,144.372813,69.69456)"/>
<path style="fill-rule:nonzero;fill:rgb(12.156863%,46.666667%,70.588237%);fill-opacity:1;stroke-width:1;stroke-linecap:butt;stroke-linejoin:round;stroke:rgb(12.156863%,46.666667%,70.588237%);stroke-opacity:1;stroke-miterlimit:4;" d="M -0.000640869 2.999222 C 0.796234 2.999222 1.557953 2.682816 2.120453 2.120316 C 2.682953 1.557816 2.999359 0.796097 2.999359 -0.000778198 C 2.999359 -0.794724 2.682953 -1.559372 2.120453 -2.121872 C 1.557953 -2.684372 0.796234 -3.000778 -0.000640869 -3.000778 C -0.794586 -3.000778 -1.559235 -2.684372 -2.121735 -2.121872 C -2.684235 -1.559372 -3.000641 -0.794724 -3.000641 -0.000778198 C -3.000641 0.796097 -2.684235 1.557816 -2.121735 2.120316 C -1.559235 2.682816 -0.794586 2.999222 -0.000640869 2.999222 Z M -0.000640869 2.999222 " transform="matrix(1.333333,0,0,1.333333,149.203979,60.825256)"/>
<path style="fill-rule:nonzero;fill:rgb(12.156863%,46.666667%,70.588237%);fill-opacity:1;stroke-width:1;stroke-linecap:butt;stroke-linejoin:round;stroke:rgb(12.156863%,46.666667%,70.588237%);stroke-opacity:1;stroke-miterlimit:4;" d="M 0.00000762939 2.998711 C 0.796883 2.998711 1.558601 2.685234 2.121101 2.122734 C 2.683601 1.557304 3.000008 0.795586 3.000008 -0.00128937 C 3.000008 -0.795235 2.683601 -1.559883 2.121101 -2.122383 C 1.558601 -2.684883 0.796883 -3.001289 0.00000762939 -3.001289 C -0.796867 -3.001289 -1.558586 -2.684883 -2.121086 -2.122383 C -2.683586 -1.559883 -2.999992 -0.795235 -2.999992 -0.00128937 C -2.999992 0.795586 -2.683586 1.557304 -2.121086 2.122734 C -1.558586 2.685234 -0.796867 2.998711 0.00000762939 2.998711 Z M 0.00000762939 2.998711 " transform="matrix(1.333333,0,0,1.333333,154.035146,54.353282)"/>
<path style="fill-rule:nonzero;fill:rgb(12.156863%,46.666667%,70.588237%);fill-opacity:1;stroke-width:1;stroke-linecap:butt;stroke-linejoin:round;stroke:rgb(12.156863%,46.666667%,70.588237%);stroke-opacity:1;stroke-miterlimit:4;" d="M 0.000656128 3.000437 C 0.794601 3.000437 1.55925 2.684031 2.12175 2.121531 C 2.68425 1.559031 3.000656 0.794382 3.000656 0.000436783 C 3.000656 -0.796438 2.68425 -1.558157 2.12175 -2.120657 C 1.55925 -2.683157 0.794601 -2.999563 0.000656128 -2.999563 C -0.796219 -2.999563 -1.557938 -2.683157 -2.120438 -2.120657 C -2.682938 -1.558157 -2.999344 -0.796438 -2.999344 0.000436783 C -2.999344 0.794382 -2.682938 1.559031 -2.120438 2.121531 C -1.557938 2.684031 -0.796219 3.000437 0.000656128 3.000437 Z M 0.000656128 3.000437 " transform="matrix(1.333333,0,0,1.333333,158.866313,25.183011)"/>
<path style="fill-rule:nonzero;fill:rgb(12.156863%,46.666667%,70.588237%);fill-opacity:1;stroke-width:1;stroke-linecap:butt;stroke-linejoin:round;stroke:rgb(12.156863%,46.666667%,70.588237%);stroke-opacity:1;stroke-miterlimit:4;" d="M 0.00130463 2.999445 C 0.79525 2.999445 1.559898 2.683039 2.122398 2.120539 C 2.684898 1.558039 3.001305 0.79632 3.001305 -0.000555038 C 3.001305 -0.7945 2.684898 -1.559149 2.122398 -2.121649 C 1.559898 -2.684149 0.79525 -3.000555 0.00130463 -3.000555 C -0.79557 -3.000555 -1.557289 -2.684149 -2.122719 -2.121649 C -2.685219 -1.559149 -2.998695 -0.7945 -2.998695 -0.000555038 C -2.998695 0.79632 -2.685219 1.558039 -2.122719 2.120539 C -1.557289 2.683039 -0.79557 2.999445 0.00130463 2.999445 Z M 0.00130463 2.999445 " transform="matrix(1.333333,0,0,1.333333,163.697479,25.539803)"/>
<path style="fill-rule:nonzero;fill:rgb(12.156863%,46.666667%,70.588237%);fill-opacity:1;stroke-width:1;stroke-linecap:butt;stroke-linejoin:round;stroke:rgb(12.156863%,46.666667%,70.588237%);stroke-opacity:1;stroke-miterlimit:4;" d="M -0.000984192 2.998959 C 0.795891 2.998959 1.55761 2.682552 2.12011 2.120052 C 2.68261 1.557552 2.999016 0.795834 2.999016 -0.00104141 C 2.999016 -0.794987 2.68261 -1.559635 2.12011 -2.122135 C 1.55761 -2.684635 0.795891 -3.001041 -0.000984192 -3.001041 C -0.79493 -3.001041 -1.559578 -2.684635 -2.122078 -2.122135 C -2.684578 -1.559635 -3.000984 -0.794987 -3.000984 -0.00104141 C -3.000984 0.795834 -2.684578 1.557552 -2.122078 2.120052 C -1.559578 2.682552 -0.79493 2.998959 -0.000984192 2.998959 Z M -0.000984192 2.998959 " transform="matrix(1.333333,0,0,1.333333,168.528656,28.642014)"/>
<path style="fill-rule:nonzero;fill:rgb(12.156863%,46.666667%,70.588237%);fill-opacity:1;stroke-width:1;stroke-linecap:butt;stroke-linejoin:round;stroke:rgb(12.156863%,46.666667%,70.588237%);stroke-opacity:1;stroke-miterlimit:4;" d="M -0.000335693 3.00017 C 0.796539 3.00017 1.558258 2.683764 2.120758 2.121264 C 2.683258 1.558764 2.999664 0.797045 2.999664 0.000169754 C 2.999664 -0.796705 2.683258 -1.558424 2.120758 -2.120924 C 1.558258 -2.683424 0.796539 -2.99983 -0.000335693 -2.99983 C -0.794281 -2.99983 -1.558929 -2.683424 -2.121429 -2.120924 C -2.683929 -1.558424 -3.000336 -0.796705 -3.000336 0.000169754 C -3.000336 0.797045 -2.683929 1.558764 -2.121429 2.121264 C -1.558929 2.683764 -0.794281 3.00017 -0.000335693 3.00017 Z M -0.000335693 3.00017 " transform="matrix(1.333333,0,0,1.333333,173.359823,28.230242)"/>
<path style="fill-rule:nonzero;fill:rgb(12.156863%,46.666667%,70.588237%);fill-opacity:1;stroke-width:1;stroke-linecap:butt;stroke-linejoin:round;stroke:rgb(12.156863%,46.666667%,70.588237%);stroke-opacity:1;stroke-miterlimit:4;" d="M 0.000305176 3.000923 C 0.79425 3.000923 1.558899 2.684517 2.121399 2.122017 C 2.683899 1.559517 3.000305 0.794868 3.000305 0.000923157 C 3.000305 -0.795952 2.683899 -1.557671 2.121399 -2.120171 C 1.558899 -2.682671 0.79425 -2.999077 0.000305176 -2.999077 C -0.79657 -2.999077 -1.558289 -2.682671 -2.120789 -2.120171 C -2.683289 -1.557671 -2.999695 -0.795952 -2.999695 0.000923157 C -2.999695 0.794868 -2.683289 1.559517 -2.120789 2.122017 C -1.558289 2.684517 -0.79657 3.000923 0.000305176 3.000923 Z M 0.000305176 3.000923 " transform="matrix(1.333333,0,0,1.333333,178.190999,42.717519)"/>
<path style="fill-rule:nonzero;fill:rgb(12.156863%,46.666667%,70.588237%);fill-opacity:1;stroke-width:1;stroke-linecap:butt;stroke-linejoin:round;stroke:rgb(12.156863%,46.666667%,70.588237%);stroke-opacity:1;stroke-miterlimit:4;" d="M 0.000961304 3 C 0.794907 3 1.559555 2.683594 2.122055 2.121094 C 2.684555 1.558594 3.000961 0.796875 3.000961 0 C 3.000961 -0.796875 2.684555 -1.558594 2.122055 -2.121094 C 1.559555 -2.683594 0.794907 -3 0.000961304 -3 C -0.795914 -3 -1.557632 -2.683594 -2.120132 -2.121094 C -2.682632 -1.558594 -2.999039 -0.796875 -2.999039 0 C -2.999039 0.796875 -2.682632 1.558594 -2.120132 2.121094 C -1.557632 2.683594 -0.795914 3 0.000961304 3 Z M 0.000961304 3 " transform="matrix(1.333333,0,0,1.333333,183.022156,18)"/>
<path style="fill-rule:nonzero;fill:rgb(12.156863%,46.666667%,70.588237%);fill-opacity:1;stroke-width:1;stroke-linecap:butt;stroke-linejoin:round;stroke:rgb(12.156863%,46.666667%,70.588237%);stroke-opacity:1;stroke-miterlimit:4;" d="M -0.00132751 2.999886 C 0.795547 2.999886 1.560196 2.683479 2.122696 2.120979 C 2.685196 1.558479 2.998672 0.796761 2.998672 -0.000114441 C 2.998672 -0.796989 2.685196 -1.558708 2.122696 -2.121208 C 1.560196 -2.683708 0.795547 -3.000114 -0.00132751 -3.000114 C -0.795273 -3.000114 -1.559921 -2.683708 -2.122421 -2.121208 C -2.684921 -1.558708 -3.001328 -0.796989 -3.001328 -0.000114441 C -3.001328 0.796761 -2.684921 1.558479 -2.122421 2.120979 C -1.559921 2.683479 -0.795273 2.999886 -0.00132751 2.999886 Z M -0.00132751 2.999886 " transform="matrix(1.333333,0,0,1.333333,187.853333,50.414215)"/>
<path style="fill-rule:nonzero;fill:rgb(12.156863%,46.666667%,70.588237%);fill-opacity:1;stroke-width:1;stroke-linecap:butt;stroke-linejoin:round;stroke:rgb(12.156863%,46.666667%,70.588237%);stroke-opacity:1;stroke-miterlimit:4;" d="M -0.000671387 3.000328 C 0.796204 3.000328 1.557922 2.683922 2.120422 2.121422 C 2.682922 1.558922 2.999329 0.794273 2.999329 0.000328064 C 2.999329 -0.796547 2.682922 -1.558266 2.120422 -2.120766 C 1.557922 -2.683266 0.796204 -2.999672 -0.000671387 -2.999672 C -0.794617 -2.999672 -1.559265 -2.683266 -2.121765 -2.120766 C -2.684265 -1.558266 -3.000671 -0.796547 -3.000671 0.000328064 C -3.000671 0.794273 -2.684265 1.558922 -2.121765 2.121422 C -1.559265 2.683922 -0.794617 3.000328 -0.000671387 3.000328 Z M -0.000671387 3.000328 " transform="matrix(1.333333,0,0,1.333333,192.684489,49.218313)"/>
<path style="fill-rule:nonzero;fill:rgb(12.156863%,46.666667%,70.588237%);fill-opacity:1;stroke-width:1;stroke-linecap:butt;stroke-linejoin:round;stroke:rgb(12.156863%,46.666667%,70.588237%);stroke-opacity:1;stroke-miterlimit:4;" d="M -0.0000305176 2.998665 C 0.796844 2.998665 1.558563 2.685188 2.121063 2.122688 C 2.683563 1.560188 2.999969 0.79554 2.999969 -0.00133514 C 2.999969 -0.79528 2.683563 -1.559929 2.121063 -2.122429 C 1.558563 -2.684929 0.796844 -3.001335 -0.0000305176 -3.001335 C -0.796906 -3.001335 -1.558624 -2.684929 -2.121124 -2.122429 C -2.683624 -1.559929 -3.000031 -0.79528 -3.000031 -0.00133514 C -3.000031 0.79554 -2.683624 1.560188 -2.121124 2.122688 C -1.558624 2.685188 -0.796906 2.998665 -0.0000305176 2.998665 Z M -0.0000305176 2.998665 " transform="matrix(1.333333,0,0,1.333333,197.515666,79.353343)"/>
<path style="fill-rule:nonzero;fill:rgb(12.156863%,46.666667%,70.588237%);fill-opacity:1;stroke-width:1;stroke-linecap:butt;stroke-linejoin:round;stroke:rgb(12.156863%,46.666667%,70.588237%);stroke-opacity:1;stroke-miterlimit:4;" d="M 0.000610352 3.001415 C 0.794556 3.001415 1.559204 2.685009 2.121704 2.122509 C 2.684204 1.560009 3.00061 0.795361 3.00061 0.00141525 C 3.00061 -0.79546 2.684204 -1.560108 2.121704 -2.122608 C 1.559204 -2.685108 0.794556 -2.998585 0.000610352 -2.998585 C -0.796265 -2.998585 -1.557983 -2.685108 -2.120483 -2.122608 C -2.682983 -1.560108 -2.99939 -0.79546 -2.99939 0.00141525 C -2.99939 0.795361 -2.682983 1.560009 -2.120483 2.122509 C -1.557983 2.685009 -0.796265 3.001415 0.000610352 3.001415 Z M 0.000610352 3.001415 " transform="matrix(1.333333,0,0,1.333333,202.346842,69.603582)"/>
<path style="fill-rule:nonzero;fill:rgb(12.156863%,46.666667%,70.588237%);fill-opacity:1;stroke-width:1;stroke-linecap:butt;stroke-linejoin:round;stroke:rgb(12.156863%,46.666667%,70.588237%);stroke-opacity:1;stroke-miterlimit:4;" d="M 0.00126648 2.998924 C 0.795212 2.998924 1.55986 2.682518 2.12236 2.120018 C 2.68486 1.557518 3.001266 0.795799 3.001266 -0.00107574 C 3.001266 -0.795021 2.68486 -1.559669 2.12236 -2.122169 C 1.55986 -2.684669 0.795212 -3.001076 0.00126648 -3.001076 C -0.795609 -3.001076 -1.557327 -2.684669 -2.122757 -2.122169 C -2.685257 -1.559669 -2.998734 -0.795021 -2.998734 -0.00107574 C -2.998734 0.795799 -2.685257 1.557518 -2.122757 2.120018 C -1.557327 2.682518 -0.795609 2.998924 0.00126648 2.998924 Z M 0.00126648 2.998924 " transform="matrix(1.333333,0,0,1.333333,207.177999,94.407684)"/>
<path style="fill-rule:nonzero;fill:rgb(12.156863%,46.666667%,70.588237%);fill-opacity:1;stroke-width:1;stroke-linecap:butt;stroke-linejoin:round;stroke:rgb(12.156863%,46.666667%,70.588237%);stroke-opacity:1;stroke-miterlimit:4;" d="M -0.00102234 2.999207 C 0.795853 2.999207 1.557571 2.6828 2.120071 2.1203 C 2.682571 1.5578 2.998978 0.796082 2.998978 -0.000793457 C 2.998978 -0.794739 2.682571 -1.559387 2.120071 -2.121887 C 1.557571 -2.684387 0.795853 -3.000793 -0.00102234 -3.000793 C -0.794968 -3.000793 -1.559616 -2.684387 -2.122116 -2.121887 C -2.684616 -1.559387 -3.001022 -0.794739 -3.001022 -0.000793457 C -3.001022 0.796082 -2.684616 1.5578 -2.122116 2.1203 C -1.559616 2.6828 -0.794968 2.999207 -0.00102234 2.999207 Z M -0.00102234 2.999207 " transform="matrix(1.333333,0,0,1.333333,212.009176,96.954183)"/>
<path style="fill-rule:nonzero;fill:rgb(12.156863%,46.666667%,70.588237%);fill-opacity:1;stroke-width:1;stroke-linecap:butt;stroke-linejoin:round;stroke:rgb(12.156863%,46.666667%,70.588237%);stroke-opacity:1;stroke-miterlimit:4;" d="M -0.000366211 3.001366 C 0.796509 3.001366 1.558228 2.684959 2.120728 2.122459 C 2.683228 1.559959 2.999634 0.795311 2.999634 0.00136566 C 2.999634 -0.795509 2.683228 -1.560158 2.120728 -2.122658 C 1.558228 -2.685158 0.796509 -2.998634 -0.000366211 -2.998634 C -0.794312 -2.998634 -1.55896 -2.685158 -2.12146 -2.122658 C -2.68396 -1.560158 -3.000366 -0.795509 -3.000366 0.00136566 C -3.000366 0.795311 -2.68396 1.559959 -2.12146 2.122459 C -1.55896 2.684959 -0.794312 3.001366 -0.000366211 3.001366 Z M -0.000366211 3.001366 " transform="matrix(1.333333,0,0,1.333333,216.840332,129.04896)"/>
<path style="fill-rule:nonzero;fill:rgb(12.156863%,46.666667%,70.588237%);fill-opacity:1;stroke-width:1;stroke-linecap:butt;stroke-linejoin:round;stroke:rgb(12.156863%,46.666667%,70.588237%);stroke-opacity:1;stroke-miterlimit:4;" d="M 0.000274658 3.000816 C 0.79422 3.000816 1.558868 2.68441 2.121368 2.12191 C 2.683868 1.55941 3.000275 0.794762 3.000275 0.000816345 C 3.000275 -0.796059 2.683868 -1.557777 2.121368 -2.120277 C 1.558868 -2.682777 0.79422 -2.999184 0.000274658 -2.999184 C -0.7966 -2.999184 -1.558319 -2.682777 -2.120819 -2.120277 C -2.683319 -1.557777 -2.999725 -0.796059 -2.999725 0.000816345 C -2.999725 0.794762 -2.683319 1.55941 -2.120819 2.12191 C -1.558319 2.68441 -0.7966 3.000816 0.000274658 3.000816 Z M 0.000274658 3.000816 " transform="matrix(1.333333,0,0,1.333333,221.671509,127.350474)"/>
<path style="fill-rule:nonzero;fill:rgb(12.156863%,46.666667%,70.588237%);fill-opacity:1;stroke-width:1;stroke-linecap:butt;stroke-linejoin:round;stroke:rgb(12.156863%,46.666667%,70.588237%);stroke-opacity:1;stroke-miterlimit:4;" d="M 0.000915527 2.999252 C 0.794861 2.999252 1.559509 2.682846 2.122009 2.120346 C 2.684509 1.557846 3.000916 0.796127 3.000916 -0.000747681 C 3.000916 -0.794693 2.684509 -1.559341 2.122009 -2.121841 C 1.559509 -2.684341 0.794861 -3.000748 0.000915527 -3.000748 C -0.795959 -3.000748 -1.557678 -2.684341 -2.120178 -2.121841 C -2.682678 -1.559341 -2.999084 -0.794693 -2.999084 -0.000747681 C -2.999084 0.796127 -2.682678 1.557846 -2.120178 2.120346 C -1.557678 2.682846 -0.795959 2.999252 0.000915527 2.999252 Z M 0.000915527 2.999252 " transform="matrix(1.333333,0,0,1.333333,226.502686,101.922872)"/>
<path style="fill-rule:nonzero;fill:rgb(12.156863%,46.666667%,70.588237%);fill-opacity:1;stroke-width:1;stroke-linecap:butt;stroke-linejoin:round;stroke:rgb(12.156863%,46.666667%,70.588237%);stroke-opacity:1;stroke-miterlimit:4;" d="M -0.00135803 2.999847 C 0.795517 2.999847 1.560165 2.683441 2.122665 2.120941 C 2.685165 1.558441 2.998642 0.796722 2.998642 -0.000152588 C 2.998642 -0.797028 2.685165 -1.558746 2.122665 -2.121246 C 1.560165 -2.683746 0.795517 -3.000153 -0.00135803 -3.000153 C -0.795303 -3.000153 -1.559952 -2.683746 -2.122452 -2.121246 C -2.684952 -1.558746 -3.001358 -0.797028 -3.001358 -0.000152588 C -3.001358 0.796722 -2.684952 1.558441 -2.122452 2.120941 C -1.559952 2.683441 -0.795303 2.999847 -0.00135803 2.999847 Z M -0.00135803 2.999847 " transform="matrix(1.333333,0,0,1.333333,231.333842,91.937703)"/>
<path style="fill-rule:nonzero;fill:rgb(12.156863%,46.666667%,70.588237%);fill-opacity:1;stroke-width:1;stroke-linecap:butt;stroke-linejoin:round;stroke:rgb(12.156863%,46.666667%,70.588237%);stroke-opacity:1;stroke-miterlimit:4;" d="M -0.000717163 2.998833 C 0.796158 2.998833 1.557877 2.685356 2.120377 2.119926 C 2.682877 1.557426 2.999283 0.795708 2.999283 -0.0011673 C 2.999283 -0.795113 2.682877 -1.559761 2.120377 -2.122261 C 1.557877 -2.684761 0.796158 -3.001167 -0.000717163 -3.001167 C -0.794662 -3.001167 -1.559311 -2.684761 -2.121811 -2.122261 C -2.684311 -1.559761 -3.000717 -0.795113 -3.000717 -0.0011673 C -3.000717 0.795708 -2.684311 1.557426 -2.121811 2.119926 C -1.559311 2.685356 -0.794662 2.998833 -0.000717163 2.998833 Z M -0.000717163 2.998833 " transform="matrix(1.333333,0,0,1.333333,236.165019,94.259369)"/>
<path style="fill-rule:nonzero;fill:rgb(12.156863%,46.666667%,70.588237%);fill-opacity:1;stroke-width:1;stroke-linecap:butt;stroke-linejoin:round;stroke:rgb(12.156863%,46.666667%,70.588237%);stroke-opacity:1;stroke-miterlimit:4;" d="M -0.0000762939 2.999542 C 0.796799 2.999542 1.558517 2.683136 2.121017 2.120636 C 2.683517 1.558136 2.999924 0.796417 2.999924 -0.000457764 C 2.999924 -0.794403 2.683517 -1.559052 2.121017 -2.121552 C 1.558517 -2.684052 0.796799 -3.000458 -0.0000762939 -3.000458 C -0.796951 -3.000458 -1.55867 -2.684052 -2.12117 -2.121552 C -2.68367 -1.559052 -3.000076 -0.794403 -3.000076 -0.000457764 C -3.000076 0.796417 -2.68367 1.558136 -2.12117 2.120636 C -1.55867 2.683136 -0.796951 2.999542 -0.0000762939 2.999542 Z M -0.0000762939 2.999542 " transform="matrix(1.333333,0,0,1.333333,240.996195,81.53186)"/>
<path style="fill-rule:nonzero;fill:rgb(12.156863%,46.666667%,70.588237%);fill-opacity:1;stroke-width:1;stroke-linecap:butt;stroke-linejoin:round;stroke:rgb(12.156863%,46.666667%,70.588237%);stroke-opacity:1;stroke-miterlimit:4;" d="M 0.000579834 2.99939 C 0.794525 2.99939 1.559174 2.682983 2.121674 2.120483 C 2.684174 1.557983 3.00058 0.796265 3.00058 -0.000610352 C 3.00058 -0.794556 2.684174 -1.559204 2.121674 -2.121704 C 1.559174 -2.684204 0.794525 -3.00061 0.000579834 -3.00061 C -0.796295 -3.00061 -1.558014 -2.684204 -2.120514 -2.121704 C -2.683014 -1.559204 -2.99942 -0.794556 -2.99942 -0.000610352 C -2.99942 0.796265 -2.683014 1.557983 -2.120514 2.120483 C -1.558014 2.682983 -0.796295 2.99939 0.000579834 2.99939 Z M 0.000579834 2.99939 " transform="matrix(1.333333,0,0,1.333333,245.827352,81.707845)"/>
<path style="fill-rule:nonzero;fill:rgb(12.156863%,46.666667%,70.588237%);fill-opacity:1;stroke-width:1;stroke-linecap:butt;stroke-linejoin:round;stroke:rgb(12.156863%,46.666667%,70.588237%);stroke-opacity:1;stroke-miterlimit:4;" d="M 0.0012207 2.998566 C 0.795166 2.998566 1.559814 2.685089 2.122314 2.122589 C 2.684814 1.560089 3.001221 0.795441 3.001221 -0.00143433 C 3.001221 -0.79538 2.684814 -1.560028 2.122314 -2.122528 C 1.559814 -2.685028 0.795166 -3.001434 0.0012207 -3.001434 C -0.795654 -3.001434 -1.557373 -2.685028 -2.119873 -2.122528 C -2.685303 -1.560028 -2.998779 -0.79538 -2.998779 -0.00143433 C -2.998779 0.795441 -2.685303 1.560089 -2.119873 2.122589 C -1.557373 2.685089 -0.795654 2.998566 0.0012207 2.998566 Z M 0.0012207 2.998566 " transform="matrix(1.333333,0,0,1.333333,250.658529,109.240194)"/>
<path style="fill-rule:nonzero;fill:rgb(12.156863%,46.666667%,70.588237%);fill-opacity:1;stroke-width:1;stroke-linecap:butt;stroke-linejoin:round;stroke:rgb(12.156863%,46.666667%,70.588237%);stroke-opacity:1;stroke-miterlimit:4;" d="M -0.00105286 2.998974 C 0.795822 2.998974 1.557541 2.682568 2.120041 2.120068 C 2.682541 1.557568 2.998947 0.795849 2.998947 -0.00102615 C 2.998947 -0.794971 2.682541 -1.55962 2.120041 -2.12212 C 1.557541 -2.68462 0.795822 -3.001026 -0.00105286 -3.001026 C -0.794998 -3.001026 -1.559647 -2.68462 -2.122147 -2.12212 C -2.684647 -1.55962 -3.001053 -0.794971 -3.001053 -0.00102615 C -3.001053 0.795849 -2.684647 1.557568 -2.122147 2.120068 C -1.559647 2.682568 -0.794998 2.998974 -0.00105286 2.998974 Z M -0.00105286 2.998974 " transform="matrix(1.333333,0,0,1.333333,255.489685,82.645899)"/>
<path style="fill-rule:nonzero;fill:rgb(12.156863%,46.666667%,70.588237%);fill-opacity:1;stroke-width:1;stroke-linecap:butt;stroke-linejoin:round;stroke:rgb(12.156863%,46.666667%,70.588237%);stroke-opacity:1;stroke-miterlimit:4;" d="M -0.000411987 3.000244 C 0.796463 3.000244 1.558182 2.683838 2.120682 2.121338 C 2.683182 1.558838 2.999588 0.794189 2.999588 0.000244141 C 2.999588 -0.796631 2.683182 -1.55835 2.120682 -2.12085 C 1.558182 -2.68335 0.796463 -2.999756 -0.000411987 -2.999756 C -0.794357 -2.999756 -1.559006 -2.68335 -2.121506 -2.12085 C -2.684006 -1.55835 -3.000412 -0.796631 -3.000412 0.000244141 C -3.000412 0.794189 -2.684006 1.558838 -2.121506 2.121338 C -1.559006 2.683838 -0.794357 3.000244 -0.000411987 3.000244 Z M -0.000411987 3.000244 " transform="matrix(1.333333,0,0,1.333333,260.320862,120.749674)"/>
<path style="fill-rule:nonzero;fill:rgb(12.156863%,46.666667%,70.588237%);fill-opacity:1;stroke-width:1;stroke-linecap:butt;stroke-linejoin:round;stroke:rgb(12.156863%,46.666667%,70.588237%);stroke-opacity:1;stroke-miterlimit:4;" d="M 0.000228882 3.000587 C 0.794174 3.000587 1.558823 2.684181 2.121323 2.121681 C 2.683823 1.559181 3.000229 0.794533 3.000229 0.000587463 C 3.000229 -0.796288 2.683823 -1.558006 2.121323 -2.120506 C 1.558823 -2.683006 0.794174 -2.999413 0.000228882 -2.999413 C -0.796646 -2.999413 -1.558365 -2.683006 -2.120865 -2.120506 C -2.683365 -1.558006 -2.999771 -0.796288 -2.999771 0.000587463 C -2.999771 0.794533 -2.683365 1.559181 -2.120865 2.121681 C -1.558365 2.684181 -0.796646 3.000587 0.000228882 3.000587 Z M 0.000228882 3.000587 " transform="matrix(1.333333,0,0,1.333333,265.152039,127.733592)"/>
<path style="fill-rule:nonzero;fill:rgb(12.156863%,46.666667%,70.588237%);fill-opacity:1;stroke-width:1;stroke-linecap:butt;stroke-linejoin:round;stroke:rgb(12.156863%,46.666667%,70.588237%);stroke-opacity:1;stroke-miterlimit:4;" d="M 0.00088501 2.998695 C 0.79483 2.998695 1.559479 2.685219 2.121979 2.122719 C 2.684479 1.557289 3.000885 0.79557 3.000885 -0.00130463 C 3.000885 -0.79525 2.684479 -1.559898 2.121979 -2.122398 C 1.559479 -2.684898 0.79483 -3.001305 0.00088501 -3.001305 C -0.79599 -3.001305 -1.557709 -2.684898 -2.120209 -2.122398 C -2.682709 -1.559898 -2.999115 -0.79525 -2.999115 -0.00130463 C -2.999115 0.79557 -2.682709 1.557289 -2.120209 2.122719 C -1.557709 2.685219 -0.79599 2.998695 0.00088501 2.998695 Z M 0.00088501 2.998695 " transform="matrix(1.333333,0,0,1.333333,269.983195,136.204865)"/>
<path style="fill-rule:nonzero;fill:rgb(12.156863%,46.666667%,70.588237%);fill-opacity:1;stroke-width:1;stroke-linecap:butt;stroke-linejoin:round;stroke:rgb(12.156863%,46.666667%,70.588237%);stroke-opacity:1;stroke-miterlimit:4;" d="M -0.00140381 3.001305 C 0.795471 3.001305 1.56012 2.684898 2.12262 2.122398 C 2.68512 1.559898 2.998596 0.79525 2.998596 0.00130463 C 2.998596 -0.79557 2.68512 -1.557289 2.12262 -2.122719 C 1.56012 -2.685219 0.795471 -2.998695 -0.00140381 -2.998695 C -0.795349 -2.998695 -1.559998 -2.685219 -2.122498 -2.122719 C -2.684998 -1.557289 -3.001404 -0.79557 -3.001404 0.00130463 C -3.001404 0.79525 -2.684998 1.559898 -2.122498 2.122398 C -1.559998 2.684898 -0.795349 3.001305 -0.00140381 3.001305 Z M -0.00140381 3.001305 " transform="matrix(1.333333,0,0,1.333333,274.814372,137.220917)"/>
<path style="fill-rule:nonzero;fill:rgb(12.156863%,46.666667%,70.588237%);fill-opacity:1;stroke-width:1;stroke-linecap:butt;stroke-linejoin:round;stroke:rgb(12.156863%,46.666667%,70.588237%);stroke-opacity:1;stroke-miterlimit:4;" d="M -0.000747681 2.998665 C 0.796127 2.998665 1.557846 2.685188 2.120346 2.122688 C 2.682846 1.560188 2.999252 0.79554 2.999252 -0.00133514 C 2.999252 -0.79528 2.682846 -1.559929 2.120346 -2.122429 C 1.557846 -2.684929 0.796127 -3.001335 -0.000747681 -3.001335 C -0.794693 -3.001335 -1.559341 -2.684929 -2.121841 -2.122429 C -2.684341 -1.559929 -3.000748 -0.79528 -3.000748 -0.00133514 C -3.000748 0.79554 -2.684341 1.560188 -2.121841 2.122688 C -1.559341 2.685188 -0.794693 2.998665 -0.000747681 2.998665 Z M -0.000747681 2.998665 " transform="matrix(1.333333,0,0,1.333333,279.645528,163.087718)"/>
<path style="fill-rule:nonzero;fill:rgb(12.156863%,46.666667%,70.588237%);fill-opacity:1;stroke-width:1;stroke-linecap:butt;stroke-linejoin:round;stroke:rgb(12.156863%,46.666667%,70.588237%);stroke-opacity:1;stroke-miterlimit:4;" d="M -0.000106812 2.999023 C 0.796768 2.999023 1.558487 2.682617 2.120987 2.120117 C 2.683487 1.557617 2.999893 0.795898 2.999893 -0.000976562 C 2.999893 -0.794922 2.683487 -1.55957 2.120987 -2.12207 C 1.558487 -2.68457 0.796768 -3.000977 -0.000106812 -3.000977 C -0.796982 -3.000977 -1.558701 -2.68457 -2.121201 -2.12207 C -2.683701 -1.55957 -3.000107 -0.794922 -3.000107 -0.000976562 C -3.000107 0.795898 -2.683701 1.557617 -2.121201 2.120117 C -1.558701 2.682617 -0.796982 2.999023 -0.000106812 2.999023 Z M -0.000106812 2.999023 " transform="matrix(1.333333,0,0,1.333333,284.476705,174.391927)"/>
<path style="fill-rule:nonzero;fill:rgb(12.156863%,46.666667%,70.588237%);fill-opacity:1;stroke-width:1;stroke-linecap:butt;stroke-linejoin:round;stroke:rgb(12.156863%,46.666667%,70.588237%);stroke-opacity:1;stroke-miterlimit:4;" d="M 0.000534058 3 C 0.794479 3 1.559128 2.683594 2.121628 2.121094 C 2.684128 1.558594 3.000534 0.796875 3.000534 0 C 3.000534 -0.796875 2.684128 -1.558594 2.121628 -2.121094 C 1.559128 -2.683594 0.794479 -3 0.000534058 -3 C -0.796341 -3 -1.55806 -2.683594 -2.12056 -2.121094 C -2.68306 -1.558594 -2.999466 -0.796875 -2.999466 0 C -2.999466 0.796875 -2.68306 1.558594 -2.12056 2.121094 C -1.55806 2.683594 -0.796341 3 0.000534058 3 Z M 0.000534058 3 " transform="matrix(1.333333,0,0,1.333333,289.307882,186)"/>
<path style="fill-rule:nonzero;fill:rgb(12.156863%,46.666667%,70.588237%);fill-opacity:1;stroke-width:1;stroke-linecap:butt;stroke-linejoin:round;stroke:rgb(12.156863%,46.666667%,70.588237%);stroke-opacity:1;stroke-miterlimit:4;" d="M 0.00119019 3.000237 C 0.795135 3.000237 1.559784 2.68383 2.122284 2.12133 C 2.684784 1.55883 3.00119 0.794182 3.00119 0.000236511 C 3.00119 -0.796638 2.684784 -1.558357 2.122284 -2.120857 C 1.559784 -2.683357 0.795135 -2.999763 0.00119019 -2.999763 C -0.795685 -2.999763 -1.557404 -2.683357 -2.119904 -2.120857 C -2.685333 -1.558357 -2.99881 -0.796638 -2.99881 0.000236511 C -2.99881 0.794182 -2.685333 1.55883 -2.119904 2.12133 C -1.557404 2.68383 -0.795685 3.000237 0.00119019 3.000237 Z M 0.00119019 3.000237 " transform="matrix(1.333333,0,0,1.333333,294.139038,150.741872)"/>
<path style="fill-rule:nonzero;fill:rgb(12.156863%,46.666667%,70.588237%);fill-opacity:1;stroke-width:1;stroke-linecap:butt;stroke-linejoin:round;stroke:rgb(12.156863%,46.666667%,70.588237%);stroke-opacity:1;stroke-miterlimit:4;" d="M -0.00109863 3.00145 C 0.795776 3.00145 1.557495 2.685043 2.119995 2.122543 C 2.682495 1.560043 2.998901 0.795395 2.998901 0.00144958 C 2.998901 -0.795425 2.682495 -1.560074 2.119995 -2.122574 C 1.557495 -2.685074 0.795776 -2.99855 -0.00109863 -2.99855 C -0.795044 -2.99855 -1.559692 -2.685074 -2.122192 -2.122574 C -2.684692 -1.560074 -3.001099 -0.795425 -3.001099 0.00144958 C -3.001099 0.795395 -2.684692 1.560043 -2.122192 2.122543 C -1.559692 2.685043 -0.795044 3.00145 -0.00109863 3.00145 Z M -0.00109863 3.00145 " transform="matrix(1.333333,0,0,1.333333,298.970215,156.033223)"/>
<path style="fill-rule:nonzero;fill:rgb(12.156863%,46.666667%,70.588237%);fill-opacity:1;stroke-width:1;stroke-linecap:butt;stroke-linejoin:round;stroke:rgb(12.156863%,46.666667%,70.588237%);stroke-opacity:1;stroke-miterlimit:4;" d="M -0.000442505 2.999901 C 0.796432 2.999901 1.558151 2.683495 2.120651 2.120995 C 2.683151 1.558495 2.999557 0.796776 2.999557 -0.0000991821 C 2.999557 -0.796974 2.683151 -1.558693 2.120651 -2.121193 C 1.558151 -2.683693 0.796432 -3.000099 -0.000442505 -3.000099 C -0.794388 -3.000099 -1.559036 -2.683693 -2.121536 -2.121193 C -2.684036 -1.558693 -3.000443 -0.796974 -3.000443 -0.0000991821 C -3.000443 0.796776 -2.684036 1.558495 -2.121536 2.120995 C -1.559036 2.683495 -0.794388 2.999901 -0.000442505 2.999901 Z M -0.000442505 2.999901 " transform="matrix(1.333333,0,0,1.333333,303.801371,143.328257)"/>
<path style="fill-rule:nonzero;fill:rgb(12.156863%,46.666667%,70.588237%);fill-opacity:1;stroke-width:1;stroke-linecap:butt;stroke-linejoin:round;stroke:rgb(12.156863%,46.666667%,70.588237%);stroke-opacity:1;stroke-miterlimit:4;" d="M 0.000198364 2.998962 C 0.797073 2.998962 1.558792 2.682556 2.121292 2.120056 C 2.683792 1.557556 3.000198 0.795837 3.000198 -0.0010376 C 3.000198 -0.794983 2.683792 -1.559631 2.121292 -2.122131 C 1.558792 -2.684631 0.797073 -3.001038 0.000198364 -3.001038 C -0.796677 -3.001038 -1.558395 -2.684631 -2.120895 -2.122131 C -2.683395 -1.559631 -2.999802 -0.794983 -2.999802 -0.0010376 C -2.999802 0.795837 -2.683395 1.557556 -2.120895 2.120056 C -1.558395 2.682556 -0.796677 2.998962 0.000198364 2.998962 Z M 0.000198364 2.998962 " transform="matrix(1.333333,0,0,1.333333,308.632548,126.81779)"/>
<path style="fill-rule:nonzero;fill:rgb(12.156863%,46.666667%,70.588237%);fill-opacity:1;stroke-width:1;stroke-linecap:butt;stroke-linejoin:round;stroke:rgb(12.156863%,46.666667%,70.588237%);stroke-opacity:1;stroke-miterlimit:4;" d="M 0.000839233 2.998657 C 0.794785 2.998657 1.559433 2.685181 2.121933 2.122681 C 2.684433 1.560181 3.000839 0.795532 3.000839 -0.00134277 C 3.000839 -0.795288 2.684433 -1.559937 2.121933 -2.122437 C 1.559433 -2.684937 0.794785 -3.001343 0.000839233 -3.001343 C -0.796036 -3.001343 -1.557755 -2.684937 -2.120255 -2.122437 C -2.682755 -1.559937 -2.999161 -0.795288 -2.999161 -0.00134277 C -2.999161 0.795532 -2.682755 1.560181 -2.120255 2.122681 C -1.557755 2.685181 -0.796036 2.998657 0.000839233 2.998657 Z M 0.000839233 2.998657 " transform="matrix(1.333333,0,0,1.333333,313.463725,135.048665)"/>
<path style="fill-rule:nonzero;fill:rgb(12.156863%,46.666667%,70.588237%);fill-opacity:1;stroke-width:1;stroke-linecap:butt;stroke-linejoin:round;stroke:rgb(12.156863%,46.666667%,70.588237%);stroke-opacity:1;stroke-miterlimit:4;" d="M -0.00143433 2.999298 C 0.795441 2.999298 1.560089 2.682892 2.122589 2.120392 C 2.685089 1.557892 2.998566 0.796173 2.998566 -0.000701904 C 2.998566 -0.794647 2.685089 -1.559296 2.122589 -2.121796 C 1.560089 -2.684296 0.795441 -3.000702 -0.00143433 -3.000702 C -0.79538 -3.000702 -1.560028 -2.684296 -2.122528 -2.121796 C -2.685028 -1.559296 -3.001434 -0.794647 -3.001434 -0.000701904 C -3.001434 0.796173 -2.685028 1.557892 -2.122528 2.120392 C -1.560028 2.682892 -0.79538 2.999298 -0.00143433 2.999298 Z M -0.00143433 2.999298 " transform="matrix(1.333333,0,0,1.333333,318.294881,115.000936)"/>
<path style="fill:none;stroke-width:0.8;stroke-linecap:butt;stroke-linejoin:round;stroke:rgb(0%,0%,0%);stroke-opacity:1;stroke-miterlimit:4;" d="M -0.000904083 -0.00117493 L -0.000904083 3.499802 " transform="matrix(1.333333,0,0,1.333333,81.567612,194.400004)"/>
<path style=" stroke:none;fill-rule:nonzero;fill:rgb(0%,0%,0%);fill-opacity:1;" d="M 81.5625 205.011719 C 80.886719 205.011719 80.378906 205.34375 80.035156 206.011719 C 79.695312 206.675781 79.527344 207.675781 79.527344 209.015625 C 79.527344 210.347656 79.695312 211.347656 80.035156 212.011719 C 80.378906 212.679688 80.886719 213.011719 81.5625 213.011719 C 82.246094 213.011719 82.757812 212.679688 83.097656 212.011719 C 83.4375 211.347656 83.609375 210.347656 83.609375 209.015625 C 83.609375 207.675781 83.4375 206.675781 83.097656 206.011719 C 82.757812 205.34375 82.246094 205.011719 81.5625 205.011719 Z M 81.5625 203.96875 C 82.652344 203.96875 83.488281 204.398438 84.0625 205.261719 C 84.636719 206.125 84.925781 207.375 84.925781 209.015625 C 84.925781 210.652344 84.636719 211.898438 84.0625 212.761719 C 83.488281 213.625 82.652344 214.054688 81.5625 214.054688 C 80.472656 214.054688 79.644531 213.625 79.066406 212.761719 C 78.492188 211.898438 78.207031 210.652344 78.207031 209.015625 C 78.207031 207.375 78.492188 206.125 79.066406 205.261719 C 79.644531 204.398438 80.472656 203.96875 81.5625 203.96875 Z M 81.5625 203.96875 "/>
<path style="fill:none;stroke-width:0.8;stroke-linecap:butt;stroke-linejoin:round;stroke:rgb(0%,0%,0%);stroke-opacity:1;stroke-miterlimit:4;" d="M 0.000747681 -0.00117493 L 0.000747681 3.499802 " transform="matrix(1.333333,0,0,1.333333,128.913066,194.400004)"/>
<path style=" stroke:none;fill-rule:nonzero;fill:rgb(0%,0%,0%);fill-opacity:1;" d="M 126.324219 212.757812 L 128.472656 212.757812 L 128.472656 205.339844 L 126.136719 205.808594 L 126.136719 204.613281 L 128.460938 204.144531 L 129.777344 204.144531 L 129.777344 212.757812 L 131.921875 212.757812 L 131.921875 213.863281 L 126.324219 213.863281 Z M 126.324219 212.757812 "/>
<path style="fill:none;stroke-width:0.8;stroke-linecap:butt;stroke-linejoin:round;stroke:rgb(0%,0%,0%);stroke-opacity:1;stroke-miterlimit:4;" d="M -0.000534058 -0.00117493 L -0.000534058 3.499802 " transform="matrix(1.333333,0,0,1.333333,176.258525,194.400004)"/>
<path style=" stroke:none;fill-rule:nonzero;fill:rgb(0%,0%,0%);fill-opacity:1;" d="M 174.574219 212.757812 L 179.164062 212.757812 L 179.164062 213.863281 L 172.992188 213.863281 L 172.992188 212.757812 C 173.492188 212.242188 174.171875 211.546875 175.035156 210.679688 C 175.894531 209.808594 176.4375 209.246094 176.660156 208.992188 C 177.078125 208.523438 177.375 208.121094 177.539062 207.792969 C 177.707031 207.464844 177.792969 207.144531 177.792969 206.828125 C 177.792969 206.308594 177.609375 205.890625 177.25 205.566406 C 176.886719 205.238281 176.414062 205.074219 175.832031 205.074219 C 175.417969 205.074219 174.984375 205.148438 174.523438 205.289062 C 174.066406 205.433594 173.578125 205.648438 173.058594 205.941406 L 173.058594 204.613281 C 173.585938 204.398438 174.082031 204.238281 174.542969 204.132812 C 175.003906 204.023438 175.425781 203.96875 175.804688 203.96875 C 176.8125 203.96875 177.617188 204.222656 178.214844 204.726562 C 178.8125 205.226562 179.113281 205.898438 179.113281 206.742188 C 179.113281 207.140625 179.039062 207.519531 178.886719 207.878906 C 178.738281 208.234375 178.46875 208.65625 178.070312 209.144531 C 177.960938 209.269531 177.617188 209.632812 177.035156 210.234375 C 176.453125 210.835938 175.636719 211.679688 174.574219 212.757812 Z M 174.574219 212.757812 "/>
<path style="fill:none;stroke-width:0.8;stroke-linecap:butt;stroke-linejoin:round;stroke:rgb(0%,0%,0%);stroke-opacity:1;stroke-miterlimit:4;" d="M 0.00111389 -0.00117493 L 0.00111389 3.499802 " transform="matrix(1.333333,0,0,1.333333,223.603984,194.400004)"/>
<path style=" stroke:none;fill-rule:nonzero;fill:rgb(0%,0%,0%);fill-opacity:1;" d="M 224.773438 208.621094 C 225.402344 208.757812 225.894531 209.039062 226.246094 209.464844 C 226.601562 209.890625 226.777344 210.414062 226.777344 211.039062 C 226.777344 211.996094 226.445312 212.742188 225.789062 213.265625 C 225.128906 213.792969 224.191406 214.054688 222.976562 214.054688 C 222.566406 214.054688 222.148438 214.015625 221.714844 213.933594 C 221.285156 213.851562 220.839844 213.730469 220.378906 213.570312 L 220.378906 212.300781 C 220.742188 212.515625 221.140625 212.675781 221.574219 212.785156 C 222.007812 212.890625 222.464844 212.945312 222.9375 212.945312 C 223.761719 212.945312 224.390625 212.785156 224.820312 212.457031 C 225.253906 212.132812 225.46875 211.660156 225.46875 211.039062 C 225.46875 210.464844 225.269531 210.019531 224.867188 209.695312 C 224.464844 209.371094 223.90625 209.210938 223.191406 209.210938 L 222.058594 209.210938 L 222.058594 208.128906 L 223.242188 208.128906 C 223.890625 208.128906 224.382812 208 224.726562 207.742188 C 225.070312 207.484375 225.242188 207.109375 225.242188 206.625 C 225.242188 206.125 225.0625 205.742188 224.710938 205.476562 C 224.359375 205.210938 223.851562 205.074219 223.191406 205.074219 C 222.832031 205.074219 222.445312 205.113281 222.03125 205.195312 C 221.617188 205.273438 221.164062 205.390625 220.671875 205.554688 L 220.671875 204.386719 C 221.171875 204.246094 221.640625 204.140625 222.074219 204.074219 C 222.511719 204.003906 222.921875 203.96875 223.308594 203.96875 C 224.308594 203.96875 225.097656 204.195312 225.675781 204.648438 C 226.257812 205.101562 226.550781 205.714844 226.550781 206.488281 C 226.550781 207.027344 226.394531 207.480469 226.085938 207.851562 C 225.777344 208.222656 225.339844 208.480469 224.773438 208.621094 Z M 224.773438 208.621094 "/>
<path style="fill:none;stroke-width:0.8;stroke-linecap:butt;stroke-linejoin:round;stroke:rgb(0%,0%,0%);stroke-opacity:1;stroke-miterlimit:4;" d="M -0.000152588 -0.00117493 L -0.000152588 3.499802 " transform="matrix(1.333333,0,0,1.333333,270.949422,194.400004)"/>
<path style=" stroke:none;fill-rule:nonzero;fill:rgb(0%,0%,0%);fill-opacity:1;" d="M 271.746094 205.289062 L 268.425781 210.480469 L 271.746094 210.480469 Z M 271.402344 204.144531 L 273.054688 204.144531 L 273.054688 210.480469 L 274.441406 210.480469 L 274.441406 211.574219 L 273.054688 211.574219 L 273.054688 213.863281 L 271.746094 213.863281 L 271.746094 211.574219 L 267.359375 211.574219 L 267.359375 210.304688 Z M 271.402344 204.144531 "/>
<path style="fill:none;stroke-width:0.8;stroke-linecap:butt;stroke-linejoin:round;stroke:rgb(0%,0%,0%);stroke-opacity:1;stroke-miterlimit:4;" d="M -0.00143433 -0.00117493 L -0.00143433 3.499802 " transform="matrix(1.333333,0,0,1.333333,318.294881,194.400004)"/>
<path style=" stroke:none;fill-rule:nonzero;fill:rgb(0%,0%,0%);fill-opacity:1;" d="M 315.492188 204.144531 L 320.65625 204.144531 L 320.65625 205.253906 L 316.695312 205.253906 L 316.695312 207.632812 C 316.886719 207.566406 317.078125 207.519531 317.269531 207.488281 C 317.460938 207.457031 317.652344 207.441406 317.84375 207.441406 C 318.925781 207.441406 319.785156 207.738281 320.417969 208.332031 C 321.054688 208.925781 321.371094 209.730469 321.371094 210.746094 C 321.371094 211.792969 321.046875 212.605469 320.394531 213.183594 C 319.742188 213.765625 318.824219 214.054688 317.640625 214.054688 C 317.230469 214.054688 316.816406 214.019531 316.394531 213.949219 C 315.96875 213.878906 315.535156 213.777344 315.082031 213.636719 L 315.082031 212.316406 C 315.472656 212.527344 315.875 212.683594 316.292969 212.789062 C 316.710938 212.894531 317.148438 212.945312 317.613281 212.945312 C 318.363281 212.945312 318.960938 212.75 319.398438 212.355469 C 319.835938 211.960938 320.054688 211.421875 320.054688 210.746094 C 320.054688 210.070312 319.835938 209.535156 319.398438 209.140625 C 318.960938 208.742188 318.363281 208.546875 317.613281 208.546875 C 317.261719 208.546875 316.910156 208.585938 316.5625 208.664062 C 316.214844 208.742188 315.855469 208.863281 315.492188 209.027344 Z M 315.492188 204.144531 "/>
<path style=" stroke:none;fill-rule:nonzero;fill:rgb(0%,0%,0%);fill-opacity:1;" d="M 206.675781 227.648438 L 201.402344 234.746094 L 206.949219 242.234375 L 204.121094 242.234375 L 199.878906 236.503906 L 195.636719 242.234375 L 192.804688 242.234375 L 198.472656 234.605469 L 193.289062 227.648438 L 196.113281 227.648438 L 199.980469 232.847656 L 203.847656 227.648438 Z M 206.675781 227.648438 "/>
<path style="fill:none;stroke-width:0.8;stroke-linecap:butt;stroke-linejoin:round;stroke:rgb(0%,0%,0%);stroke-opacity:1;stroke-miterlimit:4;" d="M -0.000587463 0.000991821 L -3.498634 0.000991821 " transform="matrix(1.333333,0,0,1.333333,69.731252,190.365865)"/>
<path style=" stroke:none;fill-rule:nonzero;fill:rgb(0%,0%,0%);fill-opacity:1;" d="M 42.152344 190.699219 L 50.5 190.699219 L 50.5 191.804688 L 42.152344 191.804688 Z M 42.152344 190.699219 "/>
<path style=" stroke:none;fill-rule:nonzero;fill:rgb(0%,0%,0%);fill-opacity:1;" d="M 54.472656 194.324219 L 59.0625 194.324219 L 59.0625 195.429688 L 52.890625 195.429688 L 52.890625 194.324219 C 53.390625 193.808594 54.070312 193.117188 54.929688 192.246094 C 55.792969 191.375 56.335938 190.8125 56.554688 190.5625 C 56.976562 190.089844 57.269531 189.6875 57.4375 189.359375 C 57.605469 189.03125 57.6875 188.710938 57.6875 188.394531 C 57.6875 187.878906 57.507812 187.457031 57.144531 187.132812 C 56.78125 186.804688 56.308594 186.640625 55.726562 186.640625 C 55.316406 186.640625 54.878906 186.714844 54.421875 186.855469 C 53.964844 187 53.476562 187.21875 52.957031 187.507812 L 52.957031 186.179688 C 53.484375 185.96875 53.980469 185.804688 54.4375 185.699219 C 54.898438 185.589844 55.320312 185.535156 55.703125 185.535156 C 56.710938 185.535156 57.511719 185.789062 58.113281 186.292969 C 58.710938 186.792969 59.007812 187.46875 59.007812 188.308594 C 59.007812 188.707031 58.933594 189.085938 58.785156 189.445312 C 58.636719 189.804688 58.363281 190.222656 57.96875 190.710938 C 57.859375 190.835938 57.515625 191.199219 56.933594 191.800781 C 56.351562 192.402344 55.53125 193.246094 54.472656 194.324219 Z M 54.472656 194.324219 "/>
<path style="fill:none;stroke-width:0.8;stroke-linecap:butt;stroke-linejoin:round;stroke:rgb(0%,0%,0%);stroke-opacity:1;stroke-miterlimit:4;" d="M -0.000587463 -0.000305176 L -3.498634 -0.000305176 " transform="matrix(1.333333,0,0,1.333333,69.731252,142.234782)"/>
<path style=" stroke:none;fill-rule:nonzero;fill:rgb(0%,0%,0%);fill-opacity:1;" d="M 42.152344 142.566406 L 50.5 142.566406 L 50.5 143.671875 L 42.152344 143.671875 Z M 42.152344 142.566406 "/>
<path style=" stroke:none;fill-rule:nonzero;fill:rgb(0%,0%,0%);fill-opacity:1;" d="M 53.566406 146.195312 L 55.714844 146.195312 L 55.714844 138.777344 L 53.378906 139.246094 L 53.378906 138.046875 L 55.703125 137.578125 L 57.019531 137.578125 L 57.019531 146.195312 L 59.164062 146.195312 L 59.164062 147.300781 L 53.566406 147.300781 Z M 53.566406 146.195312 "/>
<path style="fill:none;stroke-width:0.8;stroke-linecap:butt;stroke-linejoin:round;stroke:rgb(0%,0%,0%);stroke-opacity:1;stroke-miterlimit:4;" d="M -0.000587463 0.00133514 L -3.498634 0.00133514 " transform="matrix(1.333333,0,0,1.333333,69.731252,94.103689)"/>
<path style=" stroke:none;fill-rule:nonzero;fill:rgb(0%,0%,0%);fill-opacity:1;" d="M 56.152344 90.316406 C 55.476562 90.316406 54.964844 90.648438 54.625 91.316406 C 54.285156 91.980469 54.113281 92.980469 54.113281 94.320312 C 54.113281 95.652344 54.285156 96.652344 54.625 97.316406 C 54.964844 97.984375 55.476562 98.316406 56.152344 98.316406 C 56.835938 98.316406 57.34375 97.984375 57.683594 97.316406 C 58.027344 96.652344 58.199219 95.652344 58.199219 94.320312 C 58.199219 92.980469 58.027344 91.980469 57.683594 91.316406 C 57.34375 90.648438 56.835938 90.316406 56.152344 90.316406 Z M 56.152344 89.273438 C 57.242188 89.273438 58.074219 89.703125 58.648438 90.566406 C 59.226562 91.429688 59.511719 92.679688 59.511719 94.320312 C 59.511719 95.957031 59.226562 97.203125 58.648438 98.066406 C 58.074219 98.929688 57.242188 99.359375 56.152344 99.359375 C 55.0625 99.359375 54.230469 98.929688 53.65625 98.066406 C 53.082031 97.203125 52.792969 95.957031 52.792969 94.320312 C 52.792969 92.679688 53.082031 91.429688 53.65625 90.566406 C 54.230469 89.703125 55.0625 89.273438 56.152344 89.273438 Z M 56.152344 89.273438 "/>
<path style="fill:none;stroke-width:0.8;stroke-linecap:butt;stroke-linejoin:round;stroke:rgb(0%,0%,0%);stroke-opacity:1;stroke-miterlimit:4;" d="M -0.000587463 0.0000419617 L -3.498634 0.0000419617 " transform="matrix(1.333333,0,0,1.333333,69.731252,45.9726)"/>
<path style=" stroke:none;fill-rule:nonzero;fill:rgb(0%,0%,0%);fill-opacity:1;" d="M 53.570312 49.933594 L 55.714844 49.933594 L 55.714844 42.515625 L 53.378906 42.984375 L 53.378906 41.785156 L 55.703125 41.316406 L 57.019531 41.316406 L 57.019531 49.933594 L 59.167969 49.933594 L 59.167969 51.039062 L 53.570312 51.039062 Z M 53.570312 49.933594 "/>
<path style=" stroke:none;fill-rule:nonzero;fill:rgb(0%,0%,0%);fill-opacity:1;" d="M 12.203125 191.761719 C 12.203125 193.671875 12.917969 195.191406 14.339844 196.316406 C 15.765625 197.4375 17.703125 197.996094 20.164062 197.996094 C 22.609375 197.996094 24.546875 197.4375 25.972656 196.316406 C 27.394531 195.191406 28.105469 193.671875 28.105469 191.761719 C 28.105469 189.851562 27.394531 188.339844 25.972656 187.222656 C 24.546875 186.105469 22.609375 185.546875 20.164062 185.546875 C 17.703125 185.546875 15.765625 186.105469 14.339844 187.222656 C 12.917969 188.339844 12.203125 189.851562 12.203125 191.761719 Z M 10.070312 191.761719 C 10.070312 189.035156 10.984375 186.859375 12.8125 185.226562 C 14.640625 183.59375 17.089844 182.777344 20.164062 182.777344 C 23.226562 182.777344 25.671875 183.59375 27.5 185.226562 C 29.328125 186.859375 30.242188 189.035156 30.242188 191.761719 C 30.242188 194.492188 29.332031 196.679688 27.507812 198.320312 C 25.683594 199.953125 23.234375 200.773438 20.164062 200.773438 C 17.089844 200.773438 14.640625 199.953125 12.8125 198.320312 C 10.984375 196.679688 10.070312 194.492188 10.070312 191.761719 Z M 10.070312 191.761719 "/>
<path style=" stroke:none;fill-rule:nonzero;fill:rgb(0%,0%,0%);fill-opacity:1;" d="M 22.582031 168.296875 C 20.820312 168.296875 19.441406 168.660156 18.4375 169.382812 C 17.433594 170.109375 16.933594 171.105469 16.933594 172.371094 C 16.933594 173.640625 17.433594 174.636719 18.4375 175.363281 C 19.441406 176.085938 20.820312 176.449219 22.582031 176.449219 C 24.34375 176.449219 25.726562 176.085938 26.730469 175.363281 C 27.730469 174.636719 28.234375 173.640625 28.234375 172.371094 C 28.234375 171.105469 27.730469 170.109375 26.730469 169.382812 C 25.726562 168.660156 24.34375 168.296875 22.582031 168.296875 Z M 17.492188 176.449219 C 16.625 175.945312 15.980469 175.308594 15.5625 174.542969 C 15.140625 173.773438 14.929688 172.855469 14.929688 171.789062 C 14.929688 170.015625 15.632812 168.578125 17.039062 167.472656 C 18.441406 166.363281 20.292969 165.808594 22.582031 165.808594 C 24.875 165.808594 26.726562 166.363281 28.132812 167.472656 C 29.539062 168.578125 30.242188 170.015625 30.242188 171.789062 C 30.242188 172.855469 30.03125 173.773438 29.609375 174.542969 C 29.1875 175.308594 28.542969 175.945312 27.675781 176.449219 L 29.863281 176.449219 L 29.863281 178.859375 L 9.601562 178.859375 L 9.601562 176.449219 Z M 17.492188 176.449219 "/>
<path style=" stroke:none;fill-rule:nonzero;fill:rgb(0%,0%,0%);fill-opacity:1;" d="M 15.707031 152.542969 L 17.976562 152.542969 C 17.628906 153.21875 17.367188 153.921875 17.195312 154.652344 C 17.019531 155.378906 16.933594 156.136719 16.933594 156.917969 C 16.933594 158.109375 17.117188 159 17.480469 159.59375 C 17.84375 160.1875 18.390625 160.484375 19.121094 160.484375 C 19.675781 160.484375 20.113281 160.273438 20.429688 159.847656 C 20.746094 159.421875 21.046875 158.566406 21.332031 157.28125 L 21.515625 156.460938 C 21.878906 154.761719 22.394531 153.550781 23.058594 152.835938 C 23.722656 152.117188 24.648438 151.761719 25.835938 151.761719 C 27.191406 151.761719 28.265625 152.296875 29.058594 153.367188 C 29.847656 154.441406 30.242188 155.914062 30.242188 157.789062 C 30.242188 158.570312 30.164062 159.382812 30.011719 160.230469 C 29.859375 161.078125 29.632812 161.96875 29.328125 162.90625 L 26.855469 162.90625 C 27.316406 162.019531 27.660156 161.148438 27.890625 160.289062 C 28.121094 159.429688 28.234375 158.578125 28.234375 157.734375 C 28.234375 156.609375 28.039062 155.742188 27.652344 155.136719 C 27.269531 154.527344 26.722656 154.222656 26.019531 154.222656 C 25.371094 154.222656 24.871094 154.441406 24.523438 154.882812 C 24.179688 155.316406 23.84375 156.277344 23.519531 157.765625 L 23.324219 158.597656 C 23.015625 160.082031 22.535156 161.152344 21.886719 161.816406 C 21.242188 162.472656 20.351562 162.800781 19.226562 162.800781 C 17.851562 162.800781 16.792969 162.316406 16.050781 161.34375 C 15.304688 160.371094 14.929688 158.992188 14.929688 157.203125 C 14.929688 156.320312 14.996094 155.488281 15.125 154.707031 C 15.253906 153.921875 15.445312 153.203125 15.707031 152.542969 Z M 15.707031 152.542969 "/>
<path style=" stroke:none;fill-rule:nonzero;fill:rgb(0%,0%,0%);fill-opacity:1;" d="M 21.972656 135.472656 L 23.140625 135.472656 L 23.140625 146.488281 C 24.792969 146.382812 26.046875 145.886719 26.914062 144.996094 C 27.777344 144.109375 28.207031 142.867188 28.207031 141.28125 C 28.207031 140.359375 28.097656 139.46875 27.871094 138.605469 C 27.644531 137.742188 27.308594 136.882812 26.855469 136.03125 L 29.121094 136.03125 C 29.484375 136.890625 29.761719 137.773438 29.953125 138.675781 C 30.144531 139.578125 30.242188 140.492188 30.242188 141.421875 C 30.242188 143.75 29.566406 145.59375 28.210938 146.949219 C 26.855469 148.308594 25.023438 148.988281 22.710938 148.988281 C 20.328125 148.988281 18.433594 148.34375 17.035156 147.054688 C 15.628906 145.765625 14.929688 144.027344 14.929688 141.839844 C 14.929688 139.875 15.5625 138.324219 16.824219 137.183594 C 18.085938 136.042969 19.800781 135.472656 21.972656 135.472656 Z M 21.265625 137.867188 C 19.957031 137.882812 18.914062 138.25 18.132812 138.96875 C 17.351562 139.683594 16.957031 140.632812 16.957031 141.8125 C 16.957031 143.148438 17.335938 144.21875 18.089844 145.019531 C 18.847656 145.824219 19.910156 146.285156 21.285156 146.410156 Z M 21.265625 137.867188 "/>
<path style=" stroke:none;fill-rule:nonzero;fill:rgb(0%,0%,0%);fill-opacity:1;" d="M 17.515625 123.089844 C 17.359375 123.359375 17.246094 123.652344 17.175781 123.96875 C 17.101562 124.285156 17.0625 124.632812 17.0625 125.015625 C 17.0625 126.371094 17.503906 127.410156 18.382812 128.136719 C 19.265625 128.859375 20.527344 129.222656 22.179688 129.222656 L 29.863281 129.222656 L 29.863281 131.632812 L 15.277344 131.632812 L 15.277344 129.222656 L 17.546875 129.222656 C 16.660156 128.71875 16.003906 128.0625 15.574219 127.257812 C 15.144531 126.449219 14.929688 125.464844 14.929688 124.3125 C 14.929688 124.148438 14.941406 123.964844 14.960938 123.765625 C 14.980469 123.566406 15.015625 123.34375 15.058594 123.101562 Z M 17.515625 123.089844 "/>
<path style=" stroke:none;fill-rule:nonzero;fill:rgb(0%,0%,0%);fill-opacity:1;" d="M 15.277344 122.292969 L 15.277344 119.753906 L 27.515625 115.199219 L 15.277344 110.640625 L 15.277344 108.101562 L 29.863281 113.574219 L 29.863281 116.828125 Z M 15.277344 122.292969 "/>
<path style=" stroke:none;fill-rule:nonzero;fill:rgb(0%,0%,0%);fill-opacity:1;" d="M 22.535156 98.167969 C 22.535156 100.101562 22.753906 101.445312 23.195312 102.191406 C 23.636719 102.9375 24.394531 103.3125 25.460938 103.3125 C 26.3125 103.3125 26.988281 103.03125 27.488281 102.46875 C 27.984375 101.910156 28.234375 101.148438 28.234375 100.1875 C 28.234375 98.855469 27.761719 97.789062 26.820312 96.988281 C 25.878906 96.183594 24.628906 95.78125 23.066406 95.78125 L 22.535156 95.78125 Z M 21.542969 93.386719 L 29.863281 93.386719 L 29.863281 95.78125 L 27.648438 95.78125 C 28.535156 96.328125 29.1875 97.011719 29.609375 97.828125 C 30.03125 98.644531 30.242188 99.644531 30.242188 100.824219 C 30.242188 102.316406 29.820312 103.503906 28.984375 104.386719 C 28.144531 105.265625 27.023438 105.707031 25.617188 105.707031 C 23.976562 105.707031 22.742188 105.160156 21.910156 104.0625 C 21.074219 102.960938 20.660156 101.324219 20.660156 99.144531 L 20.660156 95.78125 L 20.421875 95.78125 C 19.316406 95.78125 18.464844 96.144531 17.863281 96.871094 C 17.257812 97.59375 16.957031 98.613281 16.957031 99.925781 C 16.957031 100.757812 17.058594 101.570312 17.257812 102.363281 C 17.457031 103.152344 17.757812 103.910156 18.160156 104.636719 L 15.941406 104.636719 C 15.601562 103.761719 15.351562 102.910156 15.183594 102.085938 C 15.015625 101.261719 14.929688 100.460938 14.929688 99.679688 C 14.929688 97.566406 15.476562 95.992188 16.570312 94.949219 C 17.664062 93.90625 19.320312 93.386719 21.542969 93.386719 Z M 21.542969 93.386719 "/>
<path style=" stroke:none;fill-rule:nonzero;fill:rgb(0%,0%,0%);fill-opacity:1;" d="M 11.136719 86.082031 L 15.277344 86.082031 L 15.277344 81.148438 L 17.140625 81.148438 L 17.140625 86.082031 L 25.058594 86.082031 C 26.246094 86.082031 27.011719 85.921875 27.351562 85.597656 C 27.6875 85.269531 27.859375 84.609375 27.859375 83.609375 L 27.859375 81.148438 L 29.863281 81.148438 L 29.863281 83.609375 C 29.863281 85.457031 29.519531 86.734375 28.828125 87.4375 C 28.136719 88.140625 26.878906 88.492188 25.058594 88.492188 L 17.140625 88.492188 L 17.140625 90.25 L 15.277344 90.25 L 15.277344 88.492188 L 11.136719 88.492188 Z M 11.136719 86.082031 "/>
<path style=" stroke:none;fill-rule:nonzero;fill:rgb(0%,0%,0%);fill-opacity:1;" d="M 15.277344 78 L 15.277344 75.601562 L 29.863281 75.601562 L 29.863281 78 Z M 9.601562 78 L 9.601562 75.601562 L 12.636719 75.601562 L 12.636719 78 Z M 9.601562 78 "/>
<path style=" stroke:none;fill-rule:nonzero;fill:rgb(0%,0%,0%);fill-opacity:1;" d="M 16.957031 64.941406 C 16.957031 66.222656 17.460938 67.238281 18.460938 67.984375 C 19.464844 68.734375 20.839844 69.105469 22.582031 69.105469 C 24.328125 69.105469 25.703125 68.734375 26.703125 67.992188 C 27.707031 67.25 28.207031 66.230469 28.207031 64.941406 C 28.207031 63.660156 27.707031 62.652344 26.699219 61.90625 C 25.691406 61.160156 24.320312 60.785156 22.582031 60.785156 C 20.855469 60.785156 19.484375 61.160156 18.476562 61.90625 C 17.464844 62.652344 16.957031 63.660156 16.957031 64.941406 Z M 14.929688 64.941406 C 14.929688 62.855469 15.605469 61.21875 16.960938 60.03125 C 18.316406 58.839844 20.1875 58.242188 22.582031 58.242188 C 24.96875 58.242188 26.84375 58.839844 28.203125 60.03125 C 29.5625 61.21875 30.242188 62.855469 30.242188 64.941406 C 30.242188 67.03125 29.5625 68.671875 28.203125 69.855469 C 26.84375 71.039062 24.96875 71.632812 22.582031 71.632812 C 20.1875 71.632812 18.316406 71.039062 16.960938 69.855469 C 15.605469 68.671875 14.929688 67.03125 14.929688 64.941406 Z M 14.929688 64.941406 "/>
<path style=" stroke:none;fill-rule:nonzero;fill:rgb(0%,0%,0%);fill-opacity:1;" d="M 21.058594 42.148438 L 29.863281 42.148438 L 29.863281 44.546875 L 21.136719 44.546875 C 19.757812 44.546875 18.726562 44.816406 18.042969 45.355469 C 17.355469 45.890625 17.011719 46.699219 17.011719 47.773438 C 17.011719 49.070312 17.425781 50.089844 18.25 50.835938 C 19.070312 51.585938 20.195312 51.957031 21.621094 51.957031 L 29.863281 51.957031 L 29.863281 54.367188 L 15.277344 54.367188 L 15.277344 51.957031 L 17.546875 51.957031 C 16.667969 51.382812 16.011719 50.707031 15.578125 49.933594 C 15.144531 49.15625 14.929688 48.257812 14.929688 47.242188 C 14.929688 45.566406 15.445312 44.300781 16.484375 43.441406 C 17.519531 42.578125 19.042969 42.148438 21.058594 42.148438 Z M 21.058594 42.148438 "/>
<path style=" stroke:none;fill-rule:nonzero;fill:rgb(0%,0%,0%);fill-opacity:1;" d="M 15.707031 28.078125 L 17.976562 28.078125 C 17.628906 28.753906 17.367188 29.457031 17.195312 30.1875 C 17.019531 30.914062 16.933594 31.667969 16.933594 32.453125 C 16.933594 33.640625 17.117188 34.53125 17.480469 35.128906 C 17.84375 35.722656 18.390625 36.019531 19.121094 36.019531 C 19.675781 36.019531 20.113281 35.808594 20.429688 35.382812 C 20.746094 34.957031 21.046875 34.101562 21.332031 32.816406 L 21.515625 31.996094 C 21.878906 30.292969 22.394531 29.085938 23.058594 28.371094 C 23.722656 27.652344 24.648438 27.292969 25.835938 27.292969 C 27.191406 27.292969 28.265625 27.832031 29.058594 28.902344 C 29.847656 29.976562 30.242188 31.449219 30.242188 33.324219 C 30.242188 34.105469 30.164062 34.917969 30.011719 35.765625 C 29.859375 36.613281 29.632812 37.503906 29.328125 38.441406 L 26.855469 38.441406 C 27.316406 37.554688 27.660156 36.683594 27.890625 35.824219 C 28.121094 34.964844 28.234375 34.113281 28.234375 33.269531 C 28.234375 32.140625 28.039062 31.273438 27.652344 30.667969 C 27.269531 30.0625 26.722656 29.757812 26.019531 29.757812 C 25.371094 29.757812 24.871094 29.976562 24.523438 30.414062 C 24.179688 30.851562 23.84375 31.8125 23.519531 33.296875 L 23.324219 34.132812 C 23.015625 35.613281 22.535156 36.6875 21.886719 37.347656 C 21.242188 38.007812 20.351562 38.335938 19.226562 38.335938 C 17.851562 38.335938 16.792969 37.851562 16.050781 36.878906 C 15.304688 35.90625 14.929688 34.523438 14.929688 32.734375 C 14.929688 31.851562 14.996094 31.019531 15.125 30.238281 C 15.253906 29.457031 15.445312 28.734375 15.707031 28.078125 Z M 15.707031 28.078125 "/>
<path style=" stroke:none;fill-rule:nonzero;fill:rgb(0%,0%,0%);fill-opacity:1;" d="M 31.214844 8.9375 C 32.953125 9.613281 34.085938 10.273438 34.613281 10.917969 C 35.144531 11.558594 35.410156 12.417969 35.410156 13.492188 L 35.410156 15.40625 L 33.402344 15.40625 L 33.402344 14 C 33.402344 13.339844 33.246094 12.828125 32.933594 12.464844 C 32.621094 12.097656 31.882812 11.695312 30.722656 11.253906 L 29.628906 10.824219 L 15.277344 16.71875 L 15.277344 14.183594 L 26.683594 9.625 L 15.277344 5.066406 L 15.277344 2.527344 Z M 31.214844 8.9375 "/>
<path style="fill:none;stroke-width:1.5;stroke-linecap:square;stroke-linejoin:round;stroke:rgb(12.156863%,46.666667%,70.588237%);stroke-opacity:1;stroke-miterlimit:4;" d="M 61.174805 70.579102 L 65.446289 57.896484 L 67.579102 52.180664 L 69.360352 47.953125 L 71.138672 44.317383 L 72.5625 41.894531 L 73.983398 39.93457 L 75.052734 38.780273 L 76.119141 37.895508 L 77.185547 37.286133 L 78.254883 36.94043 L 79.321289 36.858398 L 80.387695 37.022461 L 81.457031 37.420898 L 82.523437 38.033203 L 83.947266 39.143555 L 85.371094 40.543945 L 87.149414 42.600586 L 90.351562 46.751953 L 93.199219 50.364258 L 94.977539 52.327148 L 96.401367 53.633789 L 97.822266 54.647461 L 98.891602 55.192383 L 99.958008 55.529297 L 101.024414 55.652344 L 102.09375 55.546875 L 103.160156 55.21582 L 104.226562 54.65332 L 105.295898 53.862305 L 106.719727 52.464844 L 108.140625 50.701172 L 109.564453 48.603516 L 111.342773 45.588867 L 113.835937 40.831055 L 120.594727 27.47168 L 122.373047 24.550781 L 123.796875 22.570312 L 125.220703 20.970703 L 126.287109 20.050781 L 127.353516 19.385742 L 128.422852 18.993164 L 129.489258 18.881836 L 130.558594 19.060547 L 131.625 19.529297 L 132.691406 20.285156 L 133.760742 21.328125 L 134.827148 22.646484 L 136.250977 24.814453 L 137.671875 27.410156 L 139.453125 31.189453 L 141.585937 36.351562 L 144.433594 43.930664 L 149.771484 58.341797 L 151.904297 63.492188 L 153.685547 67.280273 L 155.463867 70.505859 L 156.887695 72.638672 L 158.308594 74.34082 L 159.37793 75.328125 L 160.444336 76.069336 L 161.510742 76.567383 L 162.580078 76.825195 L 163.646484 76.854492 L 164.712891 76.669922 L 165.782227 76.289062 L 167.206055 75.506836 L 168.626953 74.463867 L 170.408203 72.887695 L 173.964844 69.331055 L 176.455078 67.004883 L 178.233398 65.663086 L 179.657227 64.87793 L 180.726562 64.491211 L 181.792969 64.303711 L 182.859375 64.327148 L 183.928711 64.582031 L 184.995117 65.071289 L 186.061523 65.80957 L 187.130859 66.791016 L 188.197266 68.024414 L 189.621094 70.042969 L 191.044922 72.47168 L 192.823242 76.040039 L 194.601562 80.112305 L 197.091797 86.460938 L 205.631836 109.098633 L 207.410156 112.989258 L 209.188477 116.305664 L 210.612305 118.479492 L 212.036133 120.18457 L 213.102539 121.136719 L 214.171875 121.804688 L 215.238281 122.182617 L 216.304687 122.267578 L 217.374023 122.068359 L 218.44043 121.59082 L 219.506836 120.84375 L 220.576172 119.844727 L 221.99707 118.151367 L 223.420898 116.091797 L 225.199219 113.088867 L 227.334961 109.03418 L 234.808594 94.350586 L 236.586914 91.49707 L 238.010742 89.557617 L 238.719727 88.716797 " transform="matrix(1.333333,0,0,1.333333,0.000000000000028422,0)"/>
<path style="fill:none;stroke-width:0.8;stroke-linecap:square;stroke-linejoin:miter;stroke:rgb(0%,0%,0%);stroke-opacity:1;stroke-miterlimit:4;" d="M 52.297852 145.798828 L 52.297852 7.201172 " transform="matrix(1.333333,0,0,1.333333,0.000000000000028422,0)"/>
<path style="fill:none;stroke-width:0.8;stroke-linecap:square;stroke-linejoin:miter;stroke:rgb(0%,0%,0%);stroke-opacity:1;stroke-miterlimit:4;" d="M 247.599609 145.798828 L 247.599609 7.201172 " transform="matrix(1.333333,0,0,1.333333,0.000000000000028422,0)"/>
<path style="fill:none;stroke-width:0.8;stroke-linecap:square;stroke-linejoin:miter;stroke:rgb(0%,0%,0%);stroke-opacity:1;stroke-miterlimit:4;" d="M 52.297852 145.798828 L 247.599609 145.798828 " transform="matrix(1.333333,0,0,1.333333,0.000000000000028422,0)"/>
<path style="fill:none;stroke-width:0.8;stroke-linecap:square;stroke-linejoin:miter;stroke:rgb(0%,0%,0%);stroke-opacity:1;stroke-miterlimit:4;" d="M 52.297852 7.201172 L 247.599609 7.201172 " transform="matrix(1.333333,0,0,1.333333,0.000000000000028422,0)"/>
</g>
</svg>
