<?xml version="1.0" encoding="UTF-8"?>
<svg xmlns="http://www.w3.org/2000/svg" xmlns:xlink="http://www.w3.org/1999/xlink" width="308.589579" height="226.237508" viewBox="0 0 308.589579 226.237508" version="1.1">
<g id="surface1">
<path style=" stroke:none;fill-rule:nonzero;fill:rgb(100%,100%,100%);fill-opacity:1;" d="M 0 226.238281 L 308.589844 226.238281 L 308.589844 0 L 0 0 Z M 0 226.238281 "/>
<path style=" stroke:none;fill-rule:nonzero;fill:rgb(100%,100%,100%);fill-opacity:1;" d="M 38.589844 194.398438 L 298.988281 194.398438 L 298.988281 9.601562 L 38.589844 9.601562 Z M 38.589844 194.398438 "/>
<path style=" stroke:none;fill-rule:nonzero;fill:rgb(12.156863%,46.666667%,70.588237%);fill-opacity:0.25098;" d="M 50.425781 23.695312 L 50.425781 141.796875 L 287.152344 141.796875 L 287.152344 23.695312 Z M 50.425781 23.695312 "/>
<path style="fill:none;stroke-width:0.8;stroke-linecap:butt;stroke-linejoin:round;stroke:rgb(0%,0%,0%);stroke-opacity:1;stroke-miterlimit:4;" d="M -0.000125885 -0.00117493 L -0.000125885 3.499802 " transform="matrix(1.333333,0,0,1.333333,50.425949,194.400004)"/>
<path style=" stroke:none;fill-rule:nonzero;fill:rgb(0%,0%,0%);fill-opacity:1;" d="M 50.421875 205.011719 C 49.746094 205.011719 49.238281 205.34375 48.894531 206.011719 C 48.554688 206.675781 48.382812 207.675781 48.382812 209.015625 C 48.382812 210.347656 48.554688 211.347656 48.894531 212.011719 C 49.238281 212.679688 49.746094 213.011719 50.421875 213.011719 C 51.105469 213.011719 51.613281 212.679688 51.957031 212.011719 C 52.296875 211.347656 52.46875 210.347656 52.46875 209.015625 C 52.46875 207.675781 52.296875 206.675781 51.957031 206.011719 C 51.613281 205.34375 51.105469 205.011719 50.421875 205.011719 Z M 50.421875 203.96875 C 51.511719 203.96875 52.34375 204.398438 52.917969 205.261719 C 53.496094 206.125 53.78125 207.375 53.78125 209.015625 C 53.78125 210.652344 53.496094 211.898438 52.917969 212.761719 C 52.34375 213.625 51.511719 214.054688 50.421875 214.054688 C 49.332031 214.054688 48.5 213.625 47.925781 212.761719 C 47.351562 211.898438 47.0625 210.652344 47.0625 209.015625 C 47.0625 207.375 47.351562 206.125 47.925781 205.261719 C 48.5 204.398438 49.332031 203.96875 50.421875 203.96875 Z M 50.421875 203.96875 "/>
<path style="fill:none;stroke-width:0.8;stroke-linecap:butt;stroke-linejoin:round;stroke:rgb(0%,0%,0%);stroke-opacity:1;stroke-miterlimit:4;" d="M -0.00140381 -0.00117493 L -0.00140381 3.499802 " transform="matrix(1.333333,0,0,1.333333,97.771403,194.400004)"/>
<path style=" stroke:none;fill-rule:nonzero;fill:rgb(0%,0%,0%);fill-opacity:1;" d="M 95.183594 212.757812 L 97.332031 212.757812 L 97.332031 205.339844 L 94.996094 205.808594 L 94.996094 204.613281 L 97.320312 204.144531 L 98.632812 204.144531 L 98.632812 212.757812 L 100.78125 212.757812 L 100.78125 213.863281 L 95.183594 213.863281 Z M 95.183594 212.757812 "/>
<path style="fill:none;stroke-width:0.8;stroke-linecap:butt;stroke-linejoin:round;stroke:rgb(0%,0%,0%);stroke-opacity:1;stroke-miterlimit:4;" d="M 0.00025177 -0.00117493 L 0.00025177 3.499802 " transform="matrix(1.333333,0,0,1.333333,145.116852,194.400004)"/>
<path style=" stroke:none;fill-rule:nonzero;fill:rgb(0%,0%,0%);fill-opacity:1;" d="M 143.433594 212.757812 L 148.023438 212.757812 L 148.023438 213.863281 L 141.851562 213.863281 L 141.851562 212.757812 C 142.351562 212.242188 143.03125 211.546875 143.890625 210.679688 C 144.753906 209.808594 145.296875 209.246094 145.515625 208.992188 C 145.9375 208.523438 146.230469 208.121094 146.398438 207.792969 C 146.566406 207.464844 146.648438 207.144531 146.648438 206.828125 C 146.648438 206.308594 146.46875 205.890625 146.105469 205.566406 C 145.742188 205.238281 145.273438 205.074219 144.691406 205.074219 C 144.277344 205.074219 143.84375 205.148438 143.382812 205.289062 C 142.925781 205.433594 142.4375 205.648438 141.917969 205.941406 L 141.917969 204.613281 C 142.445312 204.398438 142.941406 204.238281 143.398438 204.132812 C 143.859375 204.023438 144.28125 203.96875 144.664062 203.96875 C 145.671875 203.96875 146.472656 204.222656 147.074219 204.726562 C 147.671875 205.226562 147.972656 205.898438 147.972656 206.742188 C 147.972656 207.140625 147.894531 207.519531 147.746094 207.878906 C 147.597656 208.234375 147.324219 208.65625 146.929688 209.144531 C 146.820312 209.269531 146.476562 209.632812 145.894531 210.234375 C 145.3125 210.835938 144.492188 211.679688 143.433594 212.757812 Z M 143.433594 212.757812 "/>
<path style="fill:none;stroke-width:0.8;stroke-linecap:butt;stroke-linejoin:round;stroke:rgb(0%,0%,0%);stroke-opacity:1;stroke-miterlimit:4;" d="M -0.00102234 -0.00117493 L -0.00102234 3.499802 " transform="matrix(1.333333,0,0,1.333333,192.462301,194.400004)"/>
<path style=" stroke:none;fill-rule:nonzero;fill:rgb(0%,0%,0%);fill-opacity:1;" d="M 193.632812 208.621094 C 194.261719 208.757812 194.75 209.039062 195.105469 209.464844 C 195.457031 209.890625 195.636719 210.414062 195.636719 211.039062 C 195.636719 211.996094 195.304688 212.742188 194.644531 213.265625 C 193.984375 213.792969 193.046875 214.054688 191.832031 214.054688 C 191.425781 214.054688 191.007812 214.015625 190.574219 213.933594 C 190.144531 213.851562 189.695312 213.730469 189.238281 213.570312 L 189.238281 212.300781 C 189.601562 212.515625 190 212.675781 190.433594 212.785156 C 190.867188 212.890625 191.320312 212.945312 191.796875 212.945312 C 192.621094 212.945312 193.246094 212.785156 193.679688 212.457031 C 194.109375 212.132812 194.328125 211.660156 194.328125 211.039062 C 194.328125 210.464844 194.125 210.019531 193.726562 209.695312 C 193.324219 209.371094 192.765625 209.210938 192.050781 209.210938 L 190.917969 209.210938 L 190.917969 208.128906 L 192.101562 208.128906 C 192.746094 208.128906 193.242188 208 193.585938 207.742188 C 193.929688 207.484375 194.101562 207.109375 194.101562 206.625 C 194.101562 206.125 193.921875 205.742188 193.570312 205.476562 C 193.214844 205.210938 192.710938 205.074219 192.050781 205.074219 C 191.6875 205.074219 191.300781 205.113281 190.890625 205.195312 C 190.476562 205.273438 190.023438 205.390625 189.527344 205.554688 L 189.527344 204.386719 C 190.027344 204.246094 190.496094 204.140625 190.933594 204.074219 C 191.371094 204.003906 191.78125 203.96875 192.167969 203.96875 C 193.164062 203.96875 193.953125 204.195312 194.535156 204.648438 C 195.117188 205.101562 195.40625 205.714844 195.40625 206.488281 C 195.40625 207.027344 195.253906 207.480469 194.945312 207.851562 C 194.636719 208.222656 194.199219 208.480469 193.632812 208.621094 Z M 193.632812 208.621094 "/>
<path style="fill:none;stroke-width:0.8;stroke-linecap:butt;stroke-linejoin:round;stroke:rgb(0%,0%,0%);stroke-opacity:1;stroke-miterlimit:4;" d="M 0.00062561 -0.00117493 L 0.00062561 3.499802 " transform="matrix(1.333333,0,0,1.333333,239.80776,194.400004)"/>
<path style=" stroke:none;fill-rule:nonzero;fill:rgb(0%,0%,0%);fill-opacity:1;" d="M 240.605469 205.289062 L 237.285156 210.480469 L 240.605469 210.480469 Z M 240.261719 204.144531 L 241.914062 204.144531 L 241.914062 210.480469 L 243.300781 210.480469 L 243.300781 211.574219 L 241.914062 211.574219 L 241.914062 213.863281 L 240.605469 213.863281 L 240.605469 211.574219 L 236.21875 211.574219 L 236.21875 210.304688 Z M 240.261719 204.144531 "/>
<path style="fill:none;stroke-width:0.8;stroke-linecap:butt;stroke-linejoin:round;stroke:rgb(0%,0%,0%);stroke-opacity:1;stroke-miterlimit:4;" d="M -0.000656128 -0.00117493 L -0.000656128 3.499802 " transform="matrix(1.333333,0,0,1.333333,287.153219,194.400004)"/>
<path style=" stroke:none;fill-rule:nonzero;fill:rgb(0%,0%,0%);fill-opacity:1;" d="M 284.351562 204.144531 L 289.511719 204.144531 L 289.511719 205.253906 L 285.554688 205.253906 L 285.554688 207.632812 C 285.746094 207.566406 285.9375 207.519531 286.125 207.488281 C 286.316406 207.457031 286.507812 207.441406 286.699219 207.441406 C 287.785156 207.441406 288.644531 207.738281 289.277344 208.332031 C 289.914062 208.925781 290.230469 209.730469 290.230469 210.746094 C 290.230469 211.792969 289.90625 212.605469 289.253906 213.183594 C 288.601562 213.765625 287.683594 214.054688 286.5 214.054688 C 286.089844 214.054688 285.675781 214.019531 285.25 213.949219 C 284.828125 213.878906 284.390625 213.777344 283.941406 213.636719 L 283.941406 212.316406 C 284.332031 212.527344 284.734375 212.683594 285.152344 212.789062 C 285.566406 212.894531 286.007812 212.945312 286.472656 212.945312 C 287.222656 212.945312 287.816406 212.75 288.253906 212.355469 C 288.695312 211.960938 288.914062 211.421875 288.914062 210.746094 C 288.914062 210.070312 288.695312 209.535156 288.253906 209.140625 C 287.816406 208.742188 287.222656 208.546875 286.472656 208.546875 C 286.121094 208.546875 285.769531 208.585938 285.417969 208.664062 C 285.070312 208.742188 284.714844 208.863281 284.351562 209.027344 Z M 284.351562 204.144531 "/>
<path style="fill:none;stroke-width:0.8;stroke-linecap:butt;stroke-linejoin:round;stroke:rgb(0%,0%,0%);stroke-opacity:1;stroke-miterlimit:4;" d="M 0.00019455 -0.00115967 L -3.500782 -0.00115967 " transform="matrix(1.333333,0,0,1.333333,38.589584,141.798421)"/>
<path style=" stroke:none;fill-rule:nonzero;fill:rgb(0%,0%,0%);fill-opacity:1;" d="M 11.011719 142.128906 L 19.359375 142.128906 L 19.359375 143.238281 L 11.011719 143.238281 Z M 11.011719 142.128906 "/>
<path style=" stroke:none;fill-rule:nonzero;fill:rgb(0%,0%,0%);fill-opacity:1;" d="M 23.332031 145.757812 L 27.917969 145.757812 L 27.917969 146.863281 L 21.75 146.863281 L 21.75 145.757812 C 22.246094 145.242188 22.925781 144.546875 23.789062 143.679688 C 24.652344 142.808594 25.191406 142.246094 25.414062 141.992188 C 25.835938 141.519531 26.128906 141.121094 26.292969 140.792969 C 26.460938 140.464844 26.546875 140.144531 26.546875 139.828125 C 26.546875 139.308594 26.367188 138.890625 26.003906 138.5625 C 25.640625 138.238281 25.167969 138.074219 24.585938 138.074219 C 24.175781 138.074219 23.738281 138.144531 23.28125 138.289062 C 22.824219 138.433594 22.335938 138.648438 21.8125 138.941406 L 21.8125 137.613281 C 22.34375 137.398438 22.835938 137.238281 23.296875 137.128906 C 23.757812 137.023438 24.179688 136.96875 24.5625 136.96875 C 25.570312 136.96875 26.371094 137.21875 26.96875 137.722656 C 27.570312 138.226562 27.867188 138.898438 27.867188 139.742188 C 27.867188 140.140625 27.792969 140.519531 27.644531 140.878906 C 27.492188 141.234375 27.222656 141.65625 26.824219 142.144531 C 26.71875 142.269531 26.371094 142.632812 25.789062 143.234375 C 25.210938 143.835938 24.390625 144.675781 23.332031 145.757812 Z M 23.332031 145.757812 "/>
<path style="fill:none;stroke-width:0.8;stroke-linecap:butt;stroke-linejoin:round;stroke:rgb(0%,0%,0%);stroke-opacity:1;stroke-miterlimit:4;" d="M 0.00019455 -0.00094223 L -3.500782 -0.00094223 " transform="matrix(1.333333,0,0,1.333333,38.589584,82.74735)"/>
<path style=" stroke:none;fill-rule:nonzero;fill:rgb(0%,0%,0%);fill-opacity:1;" d="M 25.011719 78.957031 C 24.335938 78.957031 23.824219 79.292969 23.484375 79.957031 C 23.144531 80.625 22.972656 81.625 22.972656 82.964844 C 22.972656 84.296875 23.144531 85.292969 23.484375 85.960938 C 23.824219 86.628906 24.335938 86.960938 25.011719 86.960938 C 25.691406 86.960938 26.203125 86.628906 26.542969 85.960938 C 26.886719 85.292969 27.054688 84.296875 27.054688 82.964844 C 27.054688 81.625 26.886719 80.625 26.542969 79.957031 C 26.203125 79.292969 25.691406 78.957031 25.011719 78.957031 Z M 25.011719 77.917969 C 26.101562 77.917969 26.933594 78.347656 27.507812 79.210938 C 28.082031 80.070312 28.371094 81.324219 28.371094 82.964844 C 28.371094 84.597656 28.082031 85.847656 27.507812 86.710938 C 26.933594 87.570312 26.101562 88.003906 25.011719 88.003906 C 23.921875 88.003906 23.089844 87.570312 22.515625 86.710938 C 21.941406 85.847656 21.652344 84.597656 21.652344 82.964844 C 21.652344 81.324219 21.941406 80.070312 22.515625 79.210938 C 23.089844 78.347656 23.921875 77.917969 25.011719 77.917969 Z M 25.011719 77.917969 "/>
<path style="fill:none;stroke-width:0.8;stroke-linecap:butt;stroke-linejoin:round;stroke:rgb(0%,0%,0%);stroke-opacity:1;stroke-miterlimit:4;" d="M 0.00019455 -0.000720978 L -3.500782 -0.000720978 " transform="matrix(1.333333,0,0,1.333333,38.589584,23.696274)"/>
<path style=" stroke:none;fill-rule:nonzero;fill:rgb(0%,0%,0%);fill-opacity:1;" d="M 23.332031 27.65625 L 27.921875 27.65625 L 27.921875 28.761719 L 21.75 28.761719 L 21.75 27.65625 C 22.25 27.140625 22.929688 26.445312 23.789062 25.578125 C 24.652344 24.707031 25.195312 24.144531 25.414062 23.890625 C 25.835938 23.417969 26.128906 23.019531 26.296875 22.691406 C 26.464844 22.363281 26.546875 22.042969 26.546875 21.722656 C 26.546875 21.207031 26.367188 20.785156 26.003906 20.460938 C 25.640625 20.136719 25.167969 19.972656 24.585938 19.972656 C 24.175781 19.972656 23.738281 20.042969 23.28125 20.1875 C 22.824219 20.328125 22.335938 20.546875 21.816406 20.839844 L 21.816406 19.511719 C 22.34375 19.296875 22.839844 19.136719 23.296875 19.027344 C 23.757812 18.921875 24.179688 18.867188 24.5625 18.867188 C 25.570312 18.867188 26.371094 19.117188 26.972656 19.621094 C 27.570312 20.125 27.867188 20.796875 27.867188 21.640625 C 27.867188 22.039062 27.792969 22.417969 27.644531 22.777344 C 27.496094 23.132812 27.222656 23.554688 26.828125 24.042969 C 26.71875 24.167969 26.375 24.53125 25.792969 25.132812 C 25.210938 25.734375 24.390625 26.574219 23.332031 27.65625 Z M 23.332031 27.65625 "/>
<path style="fill:none;stroke-width:1.5;stroke-linecap:square;stroke-linejoin:round;stroke:rgb(0%,0%,0%);stroke-opacity:0.501961;stroke-miterlimit:4;" d="M 37.819336 91.116211 L 38.885742 92.214844 L 39.955078 93.020508 L 41.021484 93.530273 L 42.087891 93.74707 L 43.157227 93.688477 L 44.223633 93.37207 L 45.290039 92.824219 L 46.713867 91.775391 L 48.137695 90.433594 L 49.916016 88.461914 L 53.475586 84.070312 L 56.677734 80.235352 L 59.167969 77.604492 L 61.303711 75.65625 L 63.436523 73.977539 L 65.926758 72.290039 L 70.552734 69.509766 L 73.754883 67.464844 L 76.245117 65.619141 L 78.735352 63.492188 L 81.94043 60.424805 L 85.851562 56.692383 L 87.632812 55.274414 L 89.053711 54.380859 L 90.477539 53.765625 L 91.546875 53.522461 L 92.613281 53.487305 L 93.679687 53.671875 L 94.749023 54.087891 L 95.81543 54.741211 L 96.881836 55.634766 L 98.305664 57.18457 L 99.729492 59.126953 L 101.15332 61.420898 L 102.931641 64.708008 L 105.421875 69.884766 L 112.538086 85.233398 L 114.316406 88.485352 L 116.094727 91.277344 L 117.518555 93.137695 L 118.942383 94.652344 L 120.366211 95.818359 L 121.790039 96.667969 L 123.210937 97.239258 L 124.992187 97.669922 L 129.972656 98.630859 L 131.396484 99.272461 L 132.462891 99.969727 L 133.529297 100.883789 L 134.598633 102.038086 L 136.019531 103.974609 L 137.443359 106.368164 L 138.867187 109.186523 L 140.645508 113.223633 L 143.135742 119.496094 L 146.695312 128.501953 L 148.473633 132.442383 L 149.897461 135.09668 L 150.963867 136.725586 L 152.033203 138.00293 L 153.099609 138.902344 L 153.811523 139.280273 L 154.523437 139.473633 L 155.235352 139.479492 L 155.947266 139.300781 L 156.65625 138.931641 L 157.368164 138.375 L 158.4375 137.200195 L 159.503906 135.621094 L 160.570312 133.661133 L 161.994141 130.491211 L 163.417969 126.75 L 165.196289 121.391602 L 167.332031 114.18457 L 170.53418 102.46582 L 174.802734 86.894531 L 176.938477 79.822266 L 178.716797 74.537109 L 180.495117 69.908203 L 181.918945 66.720703 L 183.342773 64.010742 L 184.766602 61.775391 L 186.19043 60.005859 L 187.611328 58.672852 L 188.680664 57.94043 L 189.74707 57.418945 L 190.813477 57.084961 L 192.237305 56.90332 L 193.661133 56.967773 L 195.439453 57.325195 L 197.575195 58.022461 L 201.489258 59.630859 L 205.757812 61.303711 L 208.959961 62.329102 L 212.519531 63.234375 L 215.364258 63.799805 " transform="matrix(1.333333,0,0,1.333333,0,-0.000000000000014211)"/>
<path style="fill:none;stroke-width:1.5;stroke-linecap:square;stroke-linejoin:round;stroke:rgb(0%,0%,0%);stroke-opacity:0.501961;stroke-miterlimit:4;" d="M 37.819336 58.207031 L 40.666992 54.758789 L 43.511719 51.366211 L 45.290039 49.576172 L 46.713867 48.439453 L 48.137695 47.619141 L 49.204102 47.226562 L 50.273437 47.033203 L 51.339844 47.039062 L 52.40625 47.235352 L 53.830078 47.768555 L 55.253906 48.574219 L 57.032227 49.883789 L 59.522461 52.057617 L 63.436523 55.514648 L 65.572266 57.067383 L 67.350586 58.075195 L 69.128906 58.798828 L 70.910156 59.264648 L 73.042969 59.575195 L 76.957031 60.055664 L 78.735352 60.547852 L 80.15918 61.183594 L 81.583008 62.088867 L 83.006836 63.301758 L 84.430664 64.828125 L 85.851562 66.65625 L 87.632812 69.313477 L 90.123047 73.517578 L 94.391602 80.838867 L 96.169922 83.446289 L 97.59375 85.180664 L 99.017578 86.53418 L 100.083984 87.272461 L 101.15332 87.761719 L 102.219727 87.996094 L 103.286133 87.972656 L 104.355469 87.697266 L 105.421875 87.181641 L 106.488281 86.44043 L 107.912109 85.12207 L 109.335937 83.466797 L 111.114258 80.99707 L 112.892578 78.146484 L 115.02832 74.320312 L 117.518555 69.383789 L 120.366211 63.193359 L 123.210937 56.455078 L 126.770508 47.393555 L 133.174805 30.899414 L 135.310547 26.033203 L 137.088867 22.464844 L 138.867187 19.432617 L 140.291016 17.44043 L 141.714844 15.849609 L 142.78125 14.929688 L 143.847656 14.238281 L 144.916992 13.77832 L 145.983398 13.538086 L 147.049805 13.514648 L 148.119141 13.696289 L 149.185547 14.071289 L 150.609375 14.853516 L 152.033203 15.925781 L 153.454102 17.255859 L 155.235352 19.21875 L 157.368164 21.905273 L 164.841797 31.658203 L 166.620117 33.46582 L 168.043945 34.640625 L 169.467773 35.548828 L 170.888672 36.178711 L 172.3125 36.539062 L 173.736328 36.65332 L 175.514648 36.518555 L 178.004883 36.017578 L 180.852539 35.460938 L 182.276367 35.378906 L 183.697266 35.52832 L 184.766602 35.827148 L 185.833008 36.310547 L 186.899414 36.993164 L 188.323242 38.220703 L 189.74707 39.802734 L 191.170898 41.707031 L 192.949219 44.4375 L 198.641602 53.522461 L 200.06543 55.21582 L 201.131836 56.170898 L 202.201172 56.80957 L 202.913086 57.043945 L 203.62207 57.111328 L 204.333984 57.011719 L 205.045898 56.739258 L 205.757812 56.291016 L 206.824219 55.300781 L 207.893555 53.941406 L 208.959961 52.242188 L 210.383789 49.511719 L 212.162109 45.533203 L 215.364258 37.637695 " transform="matrix(1.333333,0,0,1.333333,0,-0.000000000000014211)"/>
<path style="fill:none;stroke-width:1.5;stroke-linecap:square;stroke-linejoin:round;stroke:rgb(0%,0%,0%);stroke-opacity:0.501961;stroke-miterlimit:4;" d="M 37.819336 25.209961 L 39.243164 27.430664 L 40.666992 30.102539 L 42.445312 33.93457 L 44.935547 39.870117 L 50.273437 52.763672 L 52.40625 57.354492 L 54.541992 61.397461 L 56.320312 64.289062 L 58.101562 66.714844 L 59.522461 68.305664 L 60.946289 69.577148 L 62.370117 70.532227 L 63.793945 71.170898 L 65.214844 71.499023 L 66.638672 71.52832 L 68.0625 71.285156 L 69.486328 70.790039 L 71.264648 69.875977 L 73.400391 68.458008 L 80.871094 63.087891 L 82.649414 62.220703 L 84.073242 61.731445 L 85.49707 61.441406 L 86.920898 61.353516 L 88.344727 61.461914 L 89.765625 61.754883 L 91.546875 62.364258 L 93.325195 63.202148 L 95.458008 64.435547 L 99.37207 67.02832 L 102.219727 68.797852 L 103.998047 69.667969 L 105.421875 70.148438 L 106.845703 70.388672 L 107.912109 70.379883 L 108.978516 70.195312 L 110.047852 69.820312 L 111.114258 69.249023 L 112.183594 68.475586 L 113.604492 67.139648 L 115.02832 65.466797 L 116.806641 62.967773 L 118.942383 59.490234 L 122.144531 53.742188 L 126.058594 46.766602 L 128.548828 42.758789 L 130.68457 39.700195 L 132.817383 36.993164 L 134.953125 34.611328 L 137.088867 32.522461 L 139.224609 30.697266 L 141.357422 29.150391 L 143.135742 28.098633 L 144.916992 27.301758 L 146.337891 26.874023 L 147.761719 26.657227 L 149.185547 26.668945 L 150.609375 26.920898 L 152.033203 27.407227 L 153.454102 28.125 L 155.235352 29.311523 L 157.368164 31.063477 L 164.484375 37.256836 L 165.908203 38.121094 L 167.332031 38.750977 L 168.755859 39.114258 L 170.176758 39.210938 L 171.600586 39.052734 L 173.024414 38.666016 L 174.802734 37.945312 L 179.428711 35.865234 L 180.852539 35.52832 L 181.918945 35.472656 L 182.988281 35.625 L 184.054687 36.020508 L 185.121094 36.679688 L 186.19043 37.625977 L 187.256836 38.865234 L 188.323242 40.40332 L 189.74707 42.905273 L 191.170898 45.887695 L 192.949219 50.197266 L 195.084961 55.983398 L 201.489258 73.790039 L 203.267578 77.90918 L 204.691406 80.730469 L 206.115234 83.074219 L 207.536133 84.914062 L 208.605469 85.957031 L 209.671875 86.71875 L 210.738281 87.205078 L 211.807617 87.436523 L 212.874023 87.424805 L 213.94043 87.193359 L 215.009766 86.771484 L 215.364258 86.589844 " transform="matrix(1.333333,0,0,1.333333,0,-0.000000000000014211)"/>
<path style="fill:none;stroke-width:1.5;stroke-linecap:square;stroke-linejoin:round;stroke:rgb(0%,0%,0%);stroke-opacity:0.501961;stroke-miterlimit:4;" d="M 37.819336 106.672852 L 39.243164 103.672852 L 41.021484 99.319336 L 42.799805 94.31543 L 44.935547 87.550781 L 47.425781 78.858398 L 55.608398 49.467773 L 57.744141 42.875977 L 59.522461 37.995117 L 61.303711 33.720703 L 63.082031 30.082031 L 64.505859 27.638672 L 65.926758 25.608398 L 67.350586 23.99707 L 68.419922 23.0625 L 69.486328 22.368164 L 70.552734 21.914063 L 71.62207 21.700195 L 72.688477 21.723633 L 73.754883 21.990234 L 74.824219 22.494141 L 75.890625 23.223633 L 77.314453 24.541992 L 78.735352 26.217773 L 80.516602 28.754883 L 82.649414 32.299805 L 85.49707 37.532227 L 91.189453 48.061523 L 94.749023 54.079102 L 101.507812 65.323242 L 109.69043 79.461914 L 111.114258 81.339844 L 112.183594 82.479492 L 113.25 83.34375 L 114.316406 83.891602 L 115.02832 84.064453 L 115.740234 84.076172 L 116.452148 83.917969 L 117.164062 83.583984 L 117.875977 83.071289 L 118.942383 81.969727 L 120.008789 80.466797 L 121.078125 78.577148 L 122.499023 75.498047 L 123.922852 71.853516 L 125.704102 66.670898 L 128.548828 57.541992 L 131.750977 47.384766 L 133.529297 42.407227 L 134.953125 38.994141 L 136.376953 36.205078 L 137.443359 34.573242 L 138.512695 33.363281 L 139.579102 32.583984 L 140.291016 32.305664 L 141.00293 32.217773 L 141.714844 32.314453 L 142.426758 32.592773 L 143.493164 33.331055 L 144.55957 34.417969 L 145.628906 35.8125 L 147.049805 38.068359 L 148.831055 41.34082 L 154.87793 52.895508 L 156.65625 55.59668 L 158.080078 57.37793 L 159.503906 58.816406 L 160.927734 59.938477 L 162.351562 60.791016 L 164.129883 61.59375 L 168.398437 63.360352 L 169.822266 64.233398 L 171.246094 65.384766 L 172.669922 66.875977 L 174.09082 68.745117 L 175.514648 71.012695 L 176.938477 73.666992 L 178.716797 77.481445 L 180.852539 82.634766 L 187.611328 99.577148 L 189.035156 102.483398 L 190.458984 104.915039 L 191.525391 106.379883 L 192.594727 107.501953 L 193.661133 108.260742 L 194.373047 108.55957 L 195.084961 108.688477 L 195.796875 108.650391 L 196.508789 108.442383 L 197.575195 107.824219 L 198.641602 106.848633 L 199.710937 105.539062 L 200.777344 103.916016 L 202.201172 101.323242 L 203.979492 97.505859 L 206.115234 92.305664 L 210.383789 81.043945 L 213.231445 73.866211 L 215.364258 69.120117 " transform="matrix(1.333333,0,0,1.333333,0,-0.000000000000014211)"/>
<path style="fill:none;stroke-width:1.5;stroke-linecap:square;stroke-linejoin:round;stroke:rgb(0%,0%,0%);stroke-opacity:0.501961;stroke-miterlimit:4;" d="M 37.819336 74.308594 L 40.666992 72.486328 L 44.223633 69.93457 L 47.783203 67.110352 L 50.985352 64.268555 L 53.830078 61.412109 L 56.320312 58.599609 L 58.810547 55.450195 L 61.303711 51.931641 L 64.148437 47.478516 L 68.0625 40.836914 L 71.62207 34.892578 L 73.754883 31.78125 L 75.178711 30.055664 L 76.602539 28.702148 L 77.668945 27.975586 L 78.735352 27.533203 L 79.804687 27.398438 L 80.516602 27.492188 L 81.228516 27.738281 L 82.294922 28.40332 L 83.361328 29.425781 L 84.430664 30.808594 L 85.49707 32.548828 L 86.920898 35.390625 L 88.344727 38.783203 L 90.123047 43.681641 L 92.255859 50.267578 L 99.37207 72.993164 L 101.15332 77.771484 L 102.931641 81.884766 L 104.355469 84.644531 L 105.776367 86.915039 L 107.200195 88.702148 L 108.269531 89.736328 L 109.335937 90.521484 L 110.402344 91.075195 L 111.47168 91.415039 L 112.538086 91.564453 L 113.961914 91.505859 L 115.385742 91.201172 L 117.164062 90.556641 L 119.296875 89.525391 L 128.90625 84.55957 L 133.529297 82.40918 L 135.310547 81.360352 L 137.088867 80.044922 L 138.512695 78.735352 L 139.933594 77.15918 L 141.357422 75.292969 L 143.135742 72.533203 L 144.916992 69.336914 L 147.049805 65.036133 L 153.099609 52.438477 L 154.87793 49.426758 L 156.301758 47.484375 L 157.368164 46.347656 L 158.4375 45.509766 L 159.503906 44.985352 L 160.570312 44.774414 L 161.639648 44.879883 L 162.706055 45.28125 L 163.772461 45.960938 L 164.841797 46.889648 L 166.265625 48.448242 L 168.043945 50.771484 L 173.378906 58.098633 L 174.802734 59.642578 L 176.226562 60.855469 L 177.292969 61.526367 L 178.362305 61.977539 L 179.428711 62.217773 L 180.495117 62.25 L 181.564453 62.097656 L 182.988281 61.649414 L 184.766602 60.796875 L 191.170898 57.348633 L 192.949219 56.750977 L 195.084961 56.270508 L 198.641602 55.529297 L 200.06543 54.996094 L 201.489258 54.1875 L 202.555664 53.34375 L 203.62207 52.268555 L 204.691406 50.935547 L 206.115234 48.738281 L 207.536133 46.063477 L 208.959961 42.94043 L 210.738281 38.501953 L 213.231445 31.628906 L 215.364258 25.558594 " transform="matrix(1.333333,0,0,1.333333,0,-0.000000000000014211)"/>
<path style="fill:none;stroke-width:2;stroke-linecap:square;stroke-linejoin:round;stroke:rgb(12.156863%,46.666667%,70.588237%);stroke-opacity:1;stroke-miterlimit:4;" d="M 37.819336 62.05957 L 215.364258 62.05957 " transform="matrix(1.333333,0,0,1.333333,0,-0.000000000000014211)"/>
<path style="fill:none;stroke-width:0.8;stroke-linecap:square;stroke-linejoin:miter;stroke:rgb(0%,0%,0%);stroke-opacity:1;stroke-miterlimit:4;" d="M 28.942383 145.798828 L 28.942383 7.201172 " transform="matrix(1.333333,0,0,1.333333,0,-0.000000000000014211)"/>
<path style="fill:none;stroke-width:0.8;stroke-linecap:square;stroke-linejoin:miter;stroke:rgb(0%,0%,0%);stroke-opacity:1;stroke-miterlimit:4;" d="M 224.241211 145.798828 L 224.241211 7.201172 " transform="matrix(1.333333,0,0,1.333333,0,-0.000000000000014211)"/>
<path style="fill:none;stroke-width:0.8;stroke-linecap:square;stroke-linejoin:miter;stroke:rgb(0%,0%,0%);stroke-opacity:1;stroke-miterlimit:4;" d="M 28.942383 145.798828 L 224.241211 145.798828 " transform="matrix(1.333333,0,0,1.333333,0,-0.000000000000014211)"/>
<path style="fill:none;stroke-width:0.8;stroke-linecap:square;stroke-linejoin:miter;stroke:rgb(0%,0%,0%);stroke-opacity:1;stroke-miterlimit:4;" d="M 28.942383 7.201172 L 224.241211 7.201172 " transform="matrix(1.333333,0,0,1.333333,0,-0.000000000000014211)"/>
</g>
</svg>
