<?xml version="1.0" encoding="UTF-8"?>
<svg xmlns="http://www.w3.org/2000/svg" xmlns:xlink="http://www.w3.org/1999/xlink" width="332.616659" height="264.632507" viewBox="0 0 332.616659 264.632507" version="1.1">
<g id="surface1">
<path style=" stroke:none;fill-rule:nonzero;fill:rgb(100%,100%,100%);fill-opacity:1;" d="M 0 264.632812 L 332.617188 264.632812 L 332.617188 0 L 0 0 Z M 0 264.632812 "/>
<path style=" stroke:none;fill-rule:nonzero;fill:rgb(100%,100%,100%);fill-opacity:1;" d="M 58.375 214.558594 L 318.773438 214.558594 L 318.773438 29.757812 L 58.375 29.757812 Z M 58.375 214.558594 "/>
<path style="fill:none;stroke-width:0.8;stroke-linecap:butt;stroke-linejoin:round;stroke:rgb(0%,0%,0%);stroke-opacity:1;stroke-miterlimit:4;" d="M 0 0.000823975 L 0 3.498871 " transform="matrix(1.333333,0,0,1.333333,58.375,214.557495)"/>
<path style=" stroke:none;fill-rule:nonzero;fill:rgb(0%,0%,0%);fill-opacity:1;" d="M 49.960938 229.289062 L 58.304688 229.289062 L 58.304688 230.394531 L 49.960938 230.394531 Z M 49.960938 229.289062 "/>
<path style=" stroke:none;fill-rule:nonzero;fill:rgb(0%,0%,0%);fill-opacity:1;" d="M 64.757812 225.445312 L 61.4375 230.636719 L 64.757812 230.636719 Z M 64.414062 224.300781 L 66.066406 224.300781 L 66.066406 230.636719 L 67.453125 230.636719 L 67.453125 231.730469 L 66.066406 231.730469 L 66.066406 234.023438 L 64.757812 234.023438 L 64.757812 231.730469 L 60.371094 231.730469 L 60.371094 230.460938 Z M 64.414062 224.300781 "/>
<path style="fill:none;stroke-width:0.8;stroke-linecap:butt;stroke-linejoin:round;stroke:rgb(0%,0%,0%);stroke-opacity:1;stroke-miterlimit:4;" d="M 0.00117493 0.000823975 L 0.00117493 3.498871 " transform="matrix(1.333333,0,0,1.333333,123.474996,214.557495)"/>
<path style=" stroke:none;fill-rule:nonzero;fill:rgb(0%,0%,0%);fill-opacity:1;" d="M 115.058594 229.289062 L 123.40625 229.289062 L 123.40625 230.394531 L 115.058594 230.394531 Z M 115.058594 229.289062 "/>
<path style=" stroke:none;fill-rule:nonzero;fill:rgb(0%,0%,0%);fill-opacity:1;" d="M 127.378906 232.914062 L 131.964844 232.914062 L 131.964844 234.023438 L 125.796875 234.023438 L 125.796875 232.914062 C 126.292969 232.398438 126.972656 231.707031 127.835938 230.835938 C 128.699219 229.964844 129.238281 229.402344 129.460938 229.152344 C 129.882812 228.679688 130.175781 228.277344 130.339844 227.953125 C 130.507812 227.625 130.59375 227.300781 130.59375 226.984375 C 130.59375 226.46875 130.414062 226.046875 130.050781 225.722656 C 129.6875 225.394531 129.214844 225.234375 128.632812 225.234375 C 128.222656 225.234375 127.785156 225.304688 127.328125 225.445312 C 126.871094 225.589844 126.382812 225.808594 125.859375 226.097656 L 125.859375 224.769531 C 126.390625 224.558594 126.882812 224.398438 127.34375 224.289062 C 127.804688 224.179688 128.226562 224.125 128.609375 224.125 C 129.617188 224.125 130.417969 224.378906 131.015625 224.882812 C 131.617188 225.386719 131.914062 226.058594 131.914062 226.898438 C 131.914062 227.300781 131.839844 227.679688 131.691406 228.035156 C 131.539062 228.394531 131.269531 228.816406 130.871094 229.300781 C 130.765625 229.425781 130.417969 229.792969 129.835938 230.394531 C 129.257812 230.996094 128.4375 231.835938 127.378906 232.914062 Z M 127.378906 232.914062 "/>
<path style="fill:none;stroke-width:0.8;stroke-linecap:butt;stroke-linejoin:round;stroke:rgb(0%,0%,0%);stroke-opacity:1;stroke-miterlimit:4;" d="M -0.000579834 0.000823975 L -0.000579834 3.498871 " transform="matrix(1.333333,0,0,1.333333,188.574992,214.557495)"/>
<path style=" stroke:none;fill-rule:nonzero;fill:rgb(0%,0%,0%);fill-opacity:1;" d="M 188.570312 225.167969 C 187.894531 225.167969 187.386719 225.5 187.042969 226.167969 C 186.703125 226.832031 186.535156 227.835938 186.535156 229.171875 C 186.535156 230.503906 186.703125 231.503906 187.042969 232.171875 C 187.386719 232.835938 187.894531 233.171875 188.570312 233.171875 C 189.253906 233.171875 189.765625 232.835938 190.105469 232.171875 C 190.445312 231.503906 190.617188 230.503906 190.617188 229.171875 C 190.617188 227.835938 190.445312 226.832031 190.105469 226.167969 C 189.765625 225.5 189.253906 225.167969 188.570312 225.167969 Z M 188.570312 224.125 C 189.660156 224.125 190.492188 224.558594 191.070312 225.421875 C 191.644531 226.28125 191.929688 227.53125 191.929688 229.171875 C 191.929688 230.808594 191.644531 232.058594 191.070312 232.921875 C 190.492188 233.78125 189.660156 234.210938 188.570312 234.210938 C 187.480469 234.210938 186.648438 233.78125 186.074219 232.921875 C 185.5 232.058594 185.210938 230.808594 185.210938 229.171875 C 185.210938 227.53125 185.5 226.28125 186.074219 225.421875 C 186.648438 224.558594 187.480469 224.125 188.570312 224.125 Z M 188.570312 224.125 "/>
<path style="fill:none;stroke-width:0.8;stroke-linecap:butt;stroke-linejoin:round;stroke:rgb(0%,0%,0%);stroke-opacity:1;stroke-miterlimit:4;" d="M 0.000579834 0.000823975 L 0.000579834 3.498871 " transform="matrix(1.333333,0,0,1.333333,253.675008,214.557495)"/>
<path style=" stroke:none;fill-rule:nonzero;fill:rgb(0%,0%,0%);fill-opacity:1;" d="M 251.992188 232.914062 L 256.582031 232.914062 L 256.582031 234.023438 L 250.410156 234.023438 L 250.410156 232.914062 C 250.910156 232.398438 251.589844 231.707031 252.449219 230.835938 C 253.3125 229.964844 253.855469 229.402344 254.074219 229.152344 C 254.496094 228.679688 254.789062 228.277344 254.957031 227.953125 C 255.125 227.625 255.207031 227.300781 255.207031 226.984375 C 255.207031 226.46875 255.027344 226.046875 254.664062 225.722656 C 254.300781 225.394531 253.828125 225.234375 253.246094 225.234375 C 252.835938 225.234375 252.398438 225.304688 251.941406 225.445312 C 251.484375 225.589844 250.996094 225.808594 250.476562 226.097656 L 250.476562 224.769531 C 251.003906 224.558594 251.5 224.398438 251.957031 224.289062 C 252.417969 224.179688 252.839844 224.125 253.222656 224.125 C 254.230469 224.125 255.03125 224.378906 255.632812 224.882812 C 256.230469 225.386719 256.527344 226.058594 256.527344 226.898438 C 256.527344 227.300781 256.453125 227.679688 256.304688 228.035156 C 256.15625 228.394531 255.882812 228.816406 255.488281 229.300781 C 255.378906 229.425781 255.035156 229.792969 254.453125 230.394531 C 253.871094 230.996094 253.050781 231.835938 251.992188 232.914062 Z M 251.992188 232.914062 "/>
<path style="fill:none;stroke-width:0.8;stroke-linecap:butt;stroke-linejoin:round;stroke:rgb(0%,0%,0%);stroke-opacity:1;stroke-miterlimit:4;" d="M -0.00117493 0.000823975 L -0.00117493 3.498871 " transform="matrix(1.333333,0,0,1.333333,318.775004,214.557495)"/>
<path style=" stroke:none;fill-rule:nonzero;fill:rgb(0%,0%,0%);fill-opacity:1;" d="M 319.574219 225.445312 L 316.253906 230.636719 L 319.574219 230.636719 Z M 319.226562 224.300781 L 320.882812 224.300781 L 320.882812 230.636719 L 322.269531 230.636719 L 322.269531 231.730469 L 320.882812 231.730469 L 320.882812 234.023438 L 319.574219 234.023438 L 319.574219 231.730469 L 315.183594 231.730469 L 315.183594 230.460938 Z M 319.226562 224.300781 "/>
<path style=" stroke:none;fill-rule:nonzero;fill:rgb(0%,0%,0%);fill-opacity:1;" d="M 191.949219 244.96875 L 189.308594 248.515625 L 192.082031 252.257812 L 190.671875 252.257812 L 188.546875 249.394531 L 186.425781 252.257812 L 185.011719 252.257812 L 187.847656 248.445312 L 185.253906 244.96875 L 186.667969 244.96875 L 188.601562 247.566406 L 190.535156 244.96875 Z M 191.949219 244.96875 "/>
<path style="fill:none;stroke-width:0.8;stroke-linecap:butt;stroke-linejoin:round;stroke:rgb(0%,0%,0%);stroke-opacity:1;stroke-miterlimit:4;" d="M 0 -0.000930786 L -3.500977 -0.000930786 " transform="matrix(1.333333,0,0,1.333333,58.375,206.157491)"/>
<path style=" stroke:none;fill-rule:nonzero;fill:rgb(0%,0%,0%);fill-opacity:1;" d="M 32.074219 202.367188 C 31.398438 202.367188 30.890625 202.703125 30.546875 203.367188 C 30.207031 204.035156 30.039062 205.035156 30.039062 206.375 C 30.039062 207.703125 30.207031 208.703125 30.546875 209.371094 C 30.890625 210.039062 31.398438 210.371094 32.074219 210.371094 C 32.757812 210.371094 33.269531 210.039062 33.609375 209.371094 C 33.949219 208.703125 34.121094 207.703125 34.121094 206.375 C 34.121094 205.035156 33.949219 204.035156 33.609375 203.367188 C 33.269531 202.703125 32.757812 202.367188 32.074219 202.367188 Z M 32.074219 201.328125 C 33.164062 201.328125 33.996094 201.757812 34.574219 202.621094 C 35.148438 203.480469 35.433594 204.734375 35.433594 206.375 C 35.433594 208.007812 35.148438 209.257812 34.574219 210.121094 C 33.996094 210.980469 33.164062 211.414062 32.074219 211.414062 C 30.984375 211.414062 30.152344 210.980469 29.578125 210.121094 C 29.003906 209.257812 28.714844 208.007812 28.714844 206.375 C 28.714844 204.734375 29.003906 203.480469 29.578125 202.621094 C 30.152344 201.757812 30.984375 201.328125 32.074219 201.328125 Z M 32.074219 201.328125 "/>
<path style=" stroke:none;fill-rule:nonzero;fill:rgb(0%,0%,0%);fill-opacity:1;" d="M 37.746094 209.570312 L 39.121094 209.570312 L 39.121094 211.222656 L 37.746094 211.222656 Z M 37.746094 209.570312 "/>
<path style=" stroke:none;fill-rule:nonzero;fill:rgb(0%,0%,0%);fill-opacity:1;" d="M 44.796875 202.367188 C 44.121094 202.367188 43.609375 202.703125 43.269531 203.367188 C 42.929688 204.035156 42.757812 205.035156 42.757812 206.375 C 42.757812 207.703125 42.929688 208.703125 43.269531 209.371094 C 43.609375 210.039062 44.121094 210.371094 44.796875 210.371094 C 45.476562 210.371094 45.988281 210.039062 46.328125 209.371094 C 46.671875 208.703125 46.84375 207.703125 46.84375 206.375 C 46.84375 205.035156 46.671875 204.035156 46.328125 203.367188 C 45.988281 202.703125 45.476562 202.367188 44.796875 202.367188 Z M 44.796875 201.328125 C 45.886719 201.328125 46.71875 201.757812 47.292969 202.621094 C 47.871094 203.480469 48.15625 204.734375 48.15625 206.375 C 48.15625 208.007812 47.871094 209.257812 47.292969 210.121094 C 46.71875 210.980469 45.886719 211.414062 44.796875 211.414062 C 43.707031 211.414062 42.875 210.980469 42.300781 210.121094 C 41.726562 209.257812 41.4375 208.007812 41.4375 206.375 C 41.4375 204.734375 41.726562 203.480469 42.300781 202.621094 C 42.875 201.757812 43.707031 201.328125 44.796875 201.328125 Z M 44.796875 201.328125 "/>
<path style="fill:none;stroke-width:0.8;stroke-linecap:butt;stroke-linejoin:round;stroke:rgb(0%,0%,0%);stroke-opacity:1;stroke-miterlimit:4;" d="M 0 0.000038147 L -3.500977 0.000038147 " transform="matrix(1.333333,0,0,1.333333,58.375,168.824168)"/>
<path style=" stroke:none;fill-rule:nonzero;fill:rgb(0%,0%,0%);fill-opacity:1;" d="M 32.074219 165.035156 C 31.398438 165.035156 30.890625 165.367188 30.546875 166.035156 C 30.207031 166.699219 30.039062 167.703125 30.039062 169.039062 C 30.039062 170.371094 30.207031 171.371094 30.546875 172.039062 C 30.890625 172.703125 31.398438 173.039062 32.074219 173.039062 C 32.757812 173.039062 33.269531 172.703125 33.609375 172.039062 C 33.949219 171.371094 34.121094 170.371094 34.121094 169.039062 C 34.121094 167.703125 33.949219 166.699219 33.609375 166.035156 C 33.269531 165.367188 32.757812 165.035156 32.074219 165.035156 Z M 32.074219 163.992188 C 33.164062 163.992188 33.996094 164.425781 34.574219 165.289062 C 35.148438 166.148438 35.433594 167.398438 35.433594 169.039062 C 35.433594 170.675781 35.148438 171.925781 34.574219 172.789062 C 33.996094 173.648438 33.164062 174.078125 32.074219 174.078125 C 30.984375 174.078125 30.152344 173.648438 29.578125 172.789062 C 29.003906 171.925781 28.714844 170.675781 28.714844 169.039062 C 28.714844 167.398438 29.003906 166.148438 29.578125 165.289062 C 30.152344 164.425781 30.984375 163.992188 32.074219 163.992188 Z M 32.074219 163.992188 "/>
<path style=" stroke:none;fill-rule:nonzero;fill:rgb(0%,0%,0%);fill-opacity:1;" d="M 37.746094 172.234375 L 39.121094 172.234375 L 39.121094 173.890625 L 37.746094 173.890625 Z M 37.746094 172.234375 "/>
<path style=" stroke:none;fill-rule:nonzero;fill:rgb(0%,0%,0%);fill-opacity:1;" d="M 43.117188 172.785156 L 47.707031 172.785156 L 47.707031 173.890625 L 41.535156 173.890625 L 41.535156 172.785156 C 42.035156 172.265625 42.714844 171.574219 43.574219 170.703125 C 44.4375 169.832031 44.980469 169.273438 45.199219 169.019531 C 45.621094 168.546875 45.914062 168.148438 46.082031 167.820312 C 46.25 167.492188 46.332031 167.167969 46.332031 166.851562 C 46.332031 166.335938 46.152344 165.914062 45.789062 165.589844 C 45.425781 165.261719 44.957031 165.101562 44.375 165.101562 C 43.960938 165.101562 43.527344 165.171875 43.066406 165.316406 C 42.609375 165.457031 42.121094 165.675781 41.601562 165.96875 L 41.601562 164.636719 C 42.128906 164.425781 42.625 164.265625 43.082031 164.15625 C 43.546875 164.046875 43.964844 163.992188 44.347656 163.992188 C 45.355469 163.992188 46.15625 164.246094 46.757812 164.75 C 47.355469 165.253906 47.65625 165.925781 47.65625 166.765625 C 47.65625 167.167969 47.578125 167.546875 47.429688 167.90625 C 47.28125 168.261719 47.007812 168.683594 46.613281 169.167969 C 46.503906 169.296875 46.160156 169.660156 45.578125 170.261719 C 44.996094 170.863281 44.175781 171.703125 43.117188 172.785156 Z M 43.117188 172.785156 "/>
<path style="fill:none;stroke-width:0.8;stroke-linecap:butt;stroke-linejoin:round;stroke:rgb(0%,0%,0%);stroke-opacity:1;stroke-miterlimit:4;" d="M 0 0.00101471 L -3.500977 0.00101471 " transform="matrix(1.333333,0,0,1.333333,58.375,131.490835)"/>
<path style=" stroke:none;fill-rule:nonzero;fill:rgb(0%,0%,0%);fill-opacity:1;" d="M 32.074219 127.703125 C 31.398438 127.703125 30.890625 128.035156 30.546875 128.703125 C 30.207031 129.367188 30.039062 130.367188 30.039062 131.707031 C 30.039062 133.039062 30.207031 134.039062 30.546875 134.703125 C 30.890625 135.371094 31.398438 135.703125 32.074219 135.703125 C 32.757812 135.703125 33.269531 135.371094 33.609375 134.703125 C 33.949219 134.039062 34.121094 133.039062 34.121094 131.707031 C 34.121094 130.367188 33.949219 129.367188 33.609375 128.703125 C 33.269531 128.035156 32.757812 127.703125 32.074219 127.703125 Z M 32.074219 126.660156 C 33.164062 126.660156 33.996094 127.09375 34.574219 127.953125 C 35.148438 128.816406 35.433594 130.066406 35.433594 131.707031 C 35.433594 133.34375 35.148438 134.59375 34.574219 135.453125 C 33.996094 136.316406 33.164062 136.746094 32.074219 136.746094 C 30.984375 136.746094 30.152344 136.316406 29.578125 135.453125 C 29.003906 134.59375 28.714844 133.34375 28.714844 131.707031 C 28.714844 130.066406 29.003906 128.816406 29.578125 127.953125 C 30.152344 127.09375 30.984375 126.660156 32.074219 126.660156 Z M 32.074219 126.660156 "/>
<path style=" stroke:none;fill-rule:nonzero;fill:rgb(0%,0%,0%);fill-opacity:1;" d="M 37.746094 134.902344 L 39.121094 134.902344 L 39.121094 136.554688 L 37.746094 136.554688 Z M 37.746094 134.902344 "/>
<path style=" stroke:none;fill-rule:nonzero;fill:rgb(0%,0%,0%);fill-opacity:1;" d="M 45.597656 127.980469 L 42.277344 133.171875 L 45.597656 133.171875 Z M 45.253906 126.835938 L 46.90625 126.835938 L 46.90625 133.171875 L 48.292969 133.171875 L 48.292969 134.265625 L 46.90625 134.265625 L 46.90625 136.554688 L 45.597656 136.554688 L 45.597656 134.265625 L 41.210938 134.265625 L 41.210938 132.996094 Z M 45.253906 126.835938 "/>
<path style="fill:none;stroke-width:0.8;stroke-linecap:butt;stroke-linejoin:round;stroke:rgb(0%,0%,0%);stroke-opacity:1;stroke-miterlimit:4;" d="M 0 -0.000938416 L -3.500977 -0.000938416 " transform="matrix(1.333333,0,0,1.333333,58.375,94.157501)"/>
<path style=" stroke:none;fill-rule:nonzero;fill:rgb(0%,0%,0%);fill-opacity:1;" d="M 32.074219 90.367188 C 31.398438 90.367188 30.890625 90.703125 30.546875 91.367188 C 30.207031 92.035156 30.039062 93.035156 30.039062 94.375 C 30.039062 95.703125 30.207031 96.703125 30.546875 97.371094 C 30.890625 98.039062 31.398438 98.371094 32.074219 98.371094 C 32.757812 98.371094 33.269531 98.039062 33.609375 97.371094 C 33.949219 96.703125 34.121094 95.703125 34.121094 94.375 C 34.121094 93.035156 33.949219 92.035156 33.609375 91.367188 C 33.269531 90.703125 32.757812 90.367188 32.074219 90.367188 Z M 32.074219 89.328125 C 33.164062 89.328125 33.996094 89.757812 34.574219 90.621094 C 35.148438 91.480469 35.433594 92.734375 35.433594 94.375 C 35.433594 96.007812 35.148438 97.257812 34.574219 98.121094 C 33.996094 98.980469 33.164062 99.414062 32.074219 99.414062 C 30.984375 99.414062 30.152344 98.980469 29.578125 98.121094 C 29.003906 97.257812 28.714844 96.007812 28.714844 94.375 C 28.714844 92.734375 29.003906 91.480469 29.578125 90.621094 C 30.152344 89.757812 30.984375 89.328125 32.074219 89.328125 Z M 32.074219 89.328125 "/>
<path style=" stroke:none;fill-rule:nonzero;fill:rgb(0%,0%,0%);fill-opacity:1;" d="M 37.746094 97.570312 L 39.121094 97.570312 L 39.121094 99.222656 L 37.746094 99.222656 Z M 37.746094 97.570312 "/>
<path style=" stroke:none;fill-rule:nonzero;fill:rgb(0%,0%,0%);fill-opacity:1;" d="M 44.960938 93.839844 C 44.371094 93.839844 43.902344 94.042969 43.558594 94.445312 C 43.210938 94.847656 43.039062 95.402344 43.039062 96.105469 C 43.039062 96.804688 43.210938 97.355469 43.558594 97.761719 C 43.902344 98.167969 44.371094 98.371094 44.960938 98.371094 C 45.550781 98.371094 46.019531 98.167969 46.363281 97.761719 C 46.707031 97.355469 46.878906 96.804688 46.878906 96.105469 C 46.878906 95.402344 46.707031 94.847656 46.363281 94.445312 C 46.019531 94.042969 45.550781 93.839844 44.960938 93.839844 Z M 47.570312 89.71875 L 47.570312 90.914062 C 47.242188 90.757812 46.90625 90.640625 46.570312 90.558594 C 46.234375 90.476562 45.902344 90.433594 45.570312 90.433594 C 44.703125 90.433594 44.039062 90.726562 43.582031 91.3125 C 43.125 91.898438 42.863281 92.785156 42.796875 93.96875 C 43.054688 93.589844 43.375 93.300781 43.761719 93.101562 C 44.148438 92.898438 44.574219 92.796875 45.039062 92.796875 C 46.015625 92.796875 46.785156 93.09375 47.351562 93.6875 C 47.917969 94.28125 48.203125 95.085938 48.203125 96.105469 C 48.203125 97.101562 47.90625 97.90625 47.316406 98.507812 C 46.726562 99.109375 45.941406 99.414062 44.960938 99.414062 C 43.835938 99.414062 42.976562 98.980469 42.382812 98.121094 C 41.789062 97.257812 41.488281 96.007812 41.488281 94.375 C 41.488281 92.835938 41.855469 91.613281 42.582031 90.699219 C 43.3125 89.785156 44.292969 89.328125 45.519531 89.328125 C 45.851562 89.328125 46.183594 89.359375 46.519531 89.425781 C 46.855469 89.492188 47.207031 89.585938 47.570312 89.71875 Z M 47.570312 89.71875 "/>
<path style="fill:none;stroke-width:0.8;stroke-linecap:butt;stroke-linejoin:round;stroke:rgb(0%,0%,0%);stroke-opacity:1;stroke-miterlimit:4;" d="M 0 0.0000419617 L -3.500977 0.0000419617 " transform="matrix(1.333333,0,0,1.333333,58.375,56.824163)"/>
<path style=" stroke:none;fill-rule:nonzero;fill:rgb(0%,0%,0%);fill-opacity:1;" d="M 32.074219 53.035156 C 31.398438 53.035156 30.890625 53.367188 30.546875 54.035156 C 30.207031 54.699219 30.039062 55.703125 30.039062 57.039062 C 30.039062 58.371094 30.207031 59.371094 30.546875 60.039062 C 30.890625 60.703125 31.398438 61.039062 32.074219 61.039062 C 32.757812 61.039062 33.269531 60.703125 33.609375 60.039062 C 33.949219 59.371094 34.121094 58.371094 34.121094 57.039062 C 34.121094 55.703125 33.949219 54.699219 33.609375 54.035156 C 33.269531 53.367188 32.757812 53.035156 32.074219 53.035156 Z M 32.074219 51.992188 C 33.164062 51.992188 33.996094 52.425781 34.574219 53.289062 C 35.148438 54.148438 35.433594 55.398438 35.433594 57.039062 C 35.433594 58.675781 35.148438 59.925781 34.574219 60.789062 C 33.996094 61.648438 33.164062 62.078125 32.074219 62.078125 C 30.984375 62.078125 30.152344 61.648438 29.578125 60.789062 C 29.003906 59.925781 28.714844 58.675781 28.714844 57.039062 C 28.714844 55.398438 29.003906 54.148438 29.578125 53.289062 C 30.152344 52.425781 30.984375 51.992188 32.074219 51.992188 Z M 32.074219 51.992188 "/>
<path style=" stroke:none;fill-rule:nonzero;fill:rgb(0%,0%,0%);fill-opacity:1;" d="M 37.746094 60.234375 L 39.121094 60.234375 L 39.121094 61.890625 L 37.746094 61.890625 Z M 37.746094 60.234375 "/>
<path style=" stroke:none;fill-rule:nonzero;fill:rgb(0%,0%,0%);fill-opacity:1;" d="M 44.796875 57.273438 C 44.171875 57.273438 43.679688 57.441406 43.320312 57.773438 C 42.964844 58.109375 42.785156 58.570312 42.785156 59.15625 C 42.785156 59.742188 42.964844 60.199219 43.320312 60.535156 C 43.679688 60.871094 44.171875 61.039062 44.796875 61.039062 C 45.421875 61.039062 45.914062 60.871094 46.273438 60.535156 C 46.632812 60.195312 46.816406 59.734375 46.816406 59.15625 C 46.816406 58.570312 46.636719 58.109375 46.277344 57.773438 C 45.921875 57.441406 45.425781 57.273438 44.796875 57.273438 Z M 43.480469 56.714844 C 42.917969 56.574219 42.476562 56.3125 42.164062 55.925781 C 41.847656 55.539062 41.691406 55.066406 41.691406 54.511719 C 41.691406 53.734375 41.96875 53.121094 42.519531 52.671875 C 43.074219 52.21875 43.832031 51.992188 44.796875 51.992188 C 45.765625 51.992188 46.523438 52.21875 47.074219 52.671875 C 47.625 53.121094 47.902344 53.734375 47.902344 54.511719 C 47.902344 55.066406 47.746094 55.539062 47.429688 55.925781 C 47.117188 56.3125 46.679688 56.574219 46.121094 56.714844 C 46.753906 56.863281 47.246094 57.152344 47.597656 57.582031 C 47.953125 58.011719 48.128906 58.535156 48.128906 59.15625 C 48.128906 60.097656 47.84375 60.820312 47.265625 61.324219 C 46.691406 61.828125 45.867188 62.078125 44.796875 62.078125 C 43.726562 62.078125 42.902344 61.828125 42.324219 61.324219 C 41.75 60.820312 41.464844 60.097656 41.464844 59.15625 C 41.464844 58.535156 41.640625 58.011719 41.996094 57.582031 C 42.351562 57.152344 42.847656 56.863281 43.480469 56.714844 Z M 43 54.636719 C 43 55.140625 43.15625 55.53125 43.472656 55.816406 C 43.785156 56.097656 44.226562 56.238281 44.796875 56.238281 C 45.363281 56.238281 45.804688 56.097656 46.121094 55.816406 C 46.441406 55.53125 46.601562 55.140625 46.601562 54.636719 C 46.601562 54.132812 46.441406 53.742188 46.121094 53.457031 C 45.804688 53.175781 45.363281 53.035156 44.796875 53.035156 C 44.226562 53.035156 43.785156 53.175781 43.472656 53.457031 C 43.15625 53.742188 43 54.132812 43 54.636719 Z M 43 54.636719 "/>
<path style=" stroke:none;fill-rule:nonzero;fill:rgb(0%,0%,0%);fill-opacity:1;" d="M 18.636719 138.6875 L 22.503906 138.6875 L 22.503906 139.894531 L 12.441406 139.894531 L 12.441406 138.6875 L 13.546875 138.6875 C 13.113281 138.4375 12.789062 138.117188 12.582031 137.734375 C 12.371094 137.351562 12.265625 136.890625 12.265625 136.359375 C 12.265625 135.472656 12.617188 134.75 13.320312 134.199219 C 14.023438 133.644531 14.945312 133.367188 16.089844 133.367188 C 17.238281 133.367188 18.164062 133.644531 18.867188 134.199219 C 19.570312 134.75 19.921875 135.472656 19.921875 136.359375 C 19.921875 136.890625 19.816406 137.351562 19.605469 137.734375 C 19.394531 138.117188 19.070312 138.4375 18.636719 138.6875 Z M 16.089844 134.613281 C 15.210938 134.613281 14.519531 134.792969 14.019531 135.15625 C 13.515625 135.519531 13.265625 136.015625 13.265625 136.648438 C 13.265625 137.285156 13.515625 137.78125 14.019531 138.144531 C 14.519531 138.507812 15.210938 138.6875 16.089844 138.6875 C 16.972656 138.6875 17.664062 138.507812 18.164062 138.144531 C 18.664062 137.78125 18.917969 137.285156 18.917969 136.648438 C 18.917969 136.015625 18.664062 135.519531 18.164062 135.15625 C 17.664062 134.792969 16.972656 134.613281 16.089844 134.613281 Z M 16.089844 134.613281 "/>
<path style=" stroke:none;fill-rule:nonzero;fill:rgb(0%,0%,0%);fill-opacity:1;" d="M 18.078125 131.214844 L 18.078125 129.839844 L 19.730469 129.839844 L 19.730469 131.214844 Z M 18.078125 131.214844 "/>
<path style=" stroke:none;fill-rule:nonzero;fill:rgb(0%,0%,0%);fill-opacity:1;" d="M 13.839844 121.46875 C 13.300781 121.167969 12.902344 120.808594 12.648438 120.394531 C 12.390625 119.976562 12.265625 119.484375 12.265625 118.921875 C 12.265625 118.164062 12.53125 117.578125 13.0625 117.164062 C 13.59375 116.75 14.347656 116.546875 15.328125 116.546875 L 19.730469 116.546875 L 19.730469 117.75 L 15.367188 117.75 C 14.671875 117.75 14.152344 117.875 13.816406 118.121094 C 13.476562 118.371094 13.304688 118.746094 13.304688 119.253906 C 13.304688 119.875 13.511719 120.367188 13.925781 120.726562 C 14.335938 121.085938 14.898438 121.265625 15.609375 121.265625 L 19.730469 121.265625 L 19.730469 122.46875 L 15.367188 122.46875 C 14.664062 122.46875 14.148438 122.59375 13.808594 122.839844 C 13.472656 123.089844 13.304688 123.46875 13.304688 123.988281 C 13.304688 124.597656 13.511719 125.085938 13.925781 125.449219 C 14.339844 125.808594 14.902344 125.988281 15.609375 125.988281 L 19.730469 125.988281 L 19.730469 127.191406 L 12.441406 127.191406 L 12.441406 125.988281 L 13.574219 125.988281 C 13.125 125.714844 12.796875 125.386719 12.582031 125.003906 C 12.371094 124.621094 12.265625 124.167969 12.265625 123.644531 C 12.265625 123.113281 12.398438 122.660156 12.667969 122.292969 C 12.9375 121.921875 13.328125 121.644531 13.839844 121.46875 Z M 13.839844 121.46875 "/>
<path style=" stroke:none;fill-rule:nonzero;fill:rgb(0%,0%,0%);fill-opacity:1;" d="M 18.078125 113.988281 L 18.078125 112.613281 L 19.730469 112.613281 L 19.730469 113.988281 Z M 18.078125 113.988281 "/>
<path style=" stroke:none;fill-rule:nonzero;fill:rgb(0%,0%,0%);fill-opacity:1;" d="M 9.601562 106.226562 L 10.597656 106.226562 L 10.597656 107.371094 C 10.597656 107.800781 10.683594 108.101562 10.859375 108.269531 C 11.03125 108.433594 11.34375 108.519531 11.796875 108.519531 L 12.441406 108.519531 L 12.441406 106.546875 L 13.371094 106.546875 L 13.371094 108.519531 L 19.730469 108.519531 L 19.730469 109.722656 L 13.371094 109.722656 L 13.371094 110.867188 L 12.441406 110.867188 L 12.441406 109.722656 L 11.929688 109.722656 C 11.121094 109.722656 10.527344 109.535156 10.160156 109.15625 C 9.785156 108.777344 9.601562 108.179688 9.601562 107.359375 Z M 9.601562 106.226562 "/>
<path style=" stroke:none;fill-rule:nonzero;fill:rgb(0%,0%,0%);fill-opacity:1;" d="M 18.078125 106.023438 L 18.078125 104.648438 L 19.730469 104.648438 L 19.730469 106.023438 Z M 18.078125 106.023438 "/>
<path style="fill:none;stroke-width:1.5;stroke-linecap:butt;stroke-linejoin:round;stroke:rgb(12.156863%,46.666667%,70.588237%);stroke-opacity:1;stroke-miterlimit:4;" d="M 92.607422 154.617188 L 92.607422 147.618164 " transform="matrix(1.333333,0,0,1.333333,0,0)"/>
<path style="fill:none;stroke-width:1.5;stroke-linecap:butt;stroke-linejoin:round;stroke:rgb(12.156863%,46.666667%,70.588237%);stroke-opacity:1;stroke-miterlimit:4;" d="M 141.430664 154.617188 L 141.430664 28.617188 " transform="matrix(1.333333,0,0,1.333333,0,0)"/>
<path style="fill:none;stroke-width:1.5;stroke-linecap:butt;stroke-linejoin:round;stroke:rgb(12.156863%,46.666667%,70.588237%);stroke-opacity:1;stroke-miterlimit:4;" d="M 190.256836 154.617188 L 190.256836 147.618164 " transform="matrix(1.333333,0,0,1.333333,0,0)"/>
<path style="fill-rule:nonzero;fill:rgb(12.156863%,46.666667%,70.588237%);fill-opacity:1;stroke-width:1;stroke-linecap:butt;stroke-linejoin:round;stroke:rgb(12.156863%,46.666667%,70.588237%);stroke-opacity:1;stroke-miterlimit:4;" d="M 0.00117493 3.000046 C 0.79512 3.000046 1.559769 2.68364 2.122269 2.12114 C 2.684769 1.55864 3.001175 0.796921 3.001175 0.0000457764 C 3.001175 -0.796829 2.684769 -1.558548 2.122269 -2.121048 C 1.559769 -2.683548 0.79512 -2.999954 0.00117493 -2.999954 C -0.7957 -2.999954 -1.557419 -2.683548 -2.119919 -2.121048 C -2.685349 -1.558548 -2.998825 -0.796829 -2.998825 0.0000457764 C -2.998825 0.796921 -2.685349 1.55864 -2.119919 2.12114 C -1.557419 2.68364 -0.7957 3.000046 0.00117493 3.000046 Z M 0.00117493 3.000046 " transform="matrix(1.333333,0,0,1.333333,123.474996,196.824158)"/>
<path style="fill-rule:nonzero;fill:rgb(12.156863%,46.666667%,70.588237%);fill-opacity:1;stroke-width:1;stroke-linecap:butt;stroke-linejoin:round;stroke:rgb(12.156863%,46.666667%,70.588237%);stroke-opacity:1;stroke-miterlimit:4;" d="M -0.000579834 2.999062 C 0.796295 2.999062 1.558014 2.682655 2.120514 2.120155 C 2.683014 1.557655 2.99942 0.795937 2.99942 -0.000938416 C 2.99942 -0.794884 2.683014 -1.559532 2.120514 -2.122032 C 1.558014 -2.684532 0.796295 -3.000938 -0.000579834 -3.000938 C -0.794525 -3.000938 -1.559174 -2.684532 -2.121674 -2.122032 C -2.684174 -1.559532 -3.00058 -0.794884 -3.00058 -0.000938416 C -3.00058 0.795937 -2.684174 1.557655 -2.121674 2.120155 C -1.559174 2.682655 -0.794525 2.999062 -0.000579834 2.999062 Z M -0.000579834 2.999062 " transform="matrix(1.333333,0,0,1.333333,188.574992,38.157501)"/>
<path style="fill-rule:nonzero;fill:rgb(12.156863%,46.666667%,70.588237%);fill-opacity:1;stroke-width:1;stroke-linecap:butt;stroke-linejoin:round;stroke:rgb(12.156863%,46.666667%,70.588237%);stroke-opacity:1;stroke-miterlimit:4;" d="M 0.000579834 3.000046 C 0.794525 3.000046 1.559174 2.68364 2.121674 2.12114 C 2.684174 1.55864 3.00058 0.796921 3.00058 0.0000457764 C 3.00058 -0.796829 2.684174 -1.558548 2.121674 -2.121048 C 1.559174 -2.683548 0.794525 -2.999954 0.000579834 -2.999954 C -0.796295 -2.999954 -1.558014 -2.683548 -2.120514 -2.121048 C -2.683014 -1.558548 -2.99942 -0.796829 -2.99942 0.0000457764 C -2.99942 0.796921 -2.683014 1.55864 -2.120514 2.12114 C -1.558014 2.68364 -0.796295 3.000046 0.000579834 3.000046 Z M 0.000579834 3.000046 " transform="matrix(1.333333,0,0,1.333333,253.675008,196.824158)"/>
<path style="fill:none;stroke-width:1.5;stroke-linecap:square;stroke-linejoin:round;stroke:rgb(83.92157%,15.294118%,15.686275%);stroke-opacity:1;stroke-miterlimit:4;" d="M 92.607422 154.617188 L 190.256836 154.617188 " transform="matrix(1.333333,0,0,1.333333,0,0)"/>
<path style="fill:none;stroke-width:4;stroke-linecap:butt;stroke-linejoin:round;stroke:rgb(0%,0%,0%);stroke-opacity:1;stroke-miterlimit:4;" d="M 110.551758 84.618164 L 172.30957 84.618164 " transform="matrix(1.333333,0,0,1.333333,0,0)"/>
<path style="fill:none;stroke-width:1;stroke-linecap:butt;stroke-linejoin:round;stroke:rgb(0%,0%,0%);stroke-opacity:1;stroke-miterlimit:4;" d="M 110.551758 80.416992 L 110.551758 88.819336 " transform="matrix(1.333333,0,0,1.333333,0,0)"/>
<path style="fill:none;stroke-width:1;stroke-linecap:butt;stroke-linejoin:round;stroke:rgb(0%,0%,0%);stroke-opacity:1;stroke-miterlimit:4;" d="M 172.30957 80.416992 L 172.30957 88.819336 " transform="matrix(1.333333,0,0,1.333333,0,0)"/>
<path style="fill:none;stroke-width:0.8;stroke-linecap:square;stroke-linejoin:miter;stroke:rgb(0%,0%,0%);stroke-opacity:1;stroke-miterlimit:4;" d="M 43.78125 160.918945 L 43.78125 22.318359 " transform="matrix(1.333333,0,0,1.333333,0,0)"/>
<path style="fill:none;stroke-width:0.8;stroke-linecap:square;stroke-linejoin:miter;stroke:rgb(0%,0%,0%);stroke-opacity:1;stroke-miterlimit:4;" d="M 239.080078 160.918945 L 239.080078 22.318359 " transform="matrix(1.333333,0,0,1.333333,0,0)"/>
<path style="fill:none;stroke-width:0.8;stroke-linecap:square;stroke-linejoin:miter;stroke:rgb(0%,0%,0%);stroke-opacity:1;stroke-miterlimit:4;" d="M 43.78125 160.918945 L 239.080078 160.918945 " transform="matrix(1.333333,0,0,1.333333,0,0)"/>
<path style="fill:none;stroke-width:0.8;stroke-linecap:square;stroke-linejoin:miter;stroke:rgb(0%,0%,0%);stroke-opacity:1;stroke-miterlimit:4;" d="M 43.78125 22.318359 L 239.080078 22.318359 " transform="matrix(1.333333,0,0,1.333333,0,0)"/>
<path style=" stroke:none;fill-rule:nonzero;fill:rgb(0%,0%,0%);fill-opacity:1;" d="M 151.703125 20.445312 L 151.703125 25.085938 L 150.257812 25.085938 L 150.257812 13.007812 L 151.703125 13.007812 L 151.703125 14.335938 C 152.003906 13.816406 152.386719 13.429688 152.847656 13.175781 C 153.308594 12.925781 153.859375 12.796875 154.5 12.796875 C 155.5625 12.796875 156.425781 13.21875 157.089844 14.0625 C 157.753906 14.90625 158.085938 16.015625 158.085938 17.390625 C 158.085938 18.765625 157.753906 19.875 157.089844 20.71875 C 156.425781 21.5625 155.5625 21.984375 154.5 21.984375 C 153.859375 21.984375 153.308594 21.859375 152.847656 21.605469 C 152.386719 21.351562 152.003906 20.964844 151.703125 20.445312 Z M 156.59375 17.390625 C 156.59375 16.332031 156.378906 15.503906 155.941406 14.902344 C 155.507812 14.300781 154.910156 14 154.148438 14 C 153.386719 14 152.789062 14.300781 152.355469 14.902344 C 151.921875 15.503906 151.703125 16.332031 151.703125 17.390625 C 151.703125 18.445312 151.921875 19.277344 152.355469 19.878906 C 152.789062 20.480469 153.386719 20.78125 154.148438 20.78125 C 154.910156 20.78125 155.507812 20.480469 155.941406 19.878906 C 156.378906 19.277344 156.59375 18.445312 156.59375 17.390625 Z M 156.59375 17.390625 "/>
<path style=" stroke:none;fill-rule:nonzero;fill:rgb(0%,0%,0%);fill-opacity:1;" d="M 165.742188 14.492188 L 175.757812 14.492188 L 175.757812 15.804688 L 165.742188 15.804688 Z M 165.742188 17.679688 L 175.757812 17.679688 L 175.757812 19.007812 L 165.742188 19.007812 Z M 165.742188 17.679688 "/>
<path style=" stroke:none;fill-rule:nonzero;fill:rgb(0%,0%,0%);fill-opacity:1;" d="M 187.625 11.132812 C 186.8125 11.132812 186.203125 11.53125 185.792969 12.332031 C 185.382812 13.128906 185.179688 14.332031 185.179688 15.9375 C 185.179688 17.535156 185.382812 18.734375 185.792969 19.535156 C 186.203125 20.335938 186.8125 20.734375 187.625 20.734375 C 188.441406 20.734375 189.054688 20.335938 189.464844 19.535156 C 189.875 18.734375 190.078125 17.535156 190.078125 15.9375 C 190.078125 14.332031 189.875 13.128906 189.464844 12.332031 C 189.054688 11.53125 188.441406 11.132812 187.625 11.132812 Z M 187.625 9.882812 C 188.933594 9.882812 189.933594 10.398438 190.621094 11.433594 C 191.3125 12.46875 191.65625 13.96875 191.65625 15.9375 C 191.65625 17.902344 191.3125 19.398438 190.621094 20.433594 C 189.933594 21.46875 188.933594 21.984375 187.625 21.984375 C 186.316406 21.984375 185.320312 21.46875 184.628906 20.433594 C 183.9375 19.398438 183.59375 17.902344 183.59375 15.9375 C 183.59375 13.96875 183.9375 12.46875 184.628906 11.433594 C 185.320312 10.398438 186.316406 9.882812 187.625 9.882812 Z M 187.625 9.882812 "/>
<path style=" stroke:none;fill-rule:nonzero;fill:rgb(0%,0%,0%);fill-opacity:1;" d="M 194.429688 19.773438 L 196.078125 19.773438 L 196.078125 21.757812 L 194.429688 21.757812 Z M 194.429688 19.773438 "/>
<path style=" stroke:none;fill-rule:nonzero;fill:rgb(0%,0%,0%);fill-opacity:1;" d="M 202.890625 11.132812 C 202.078125 11.132812 201.46875 11.53125 201.058594 12.332031 C 200.648438 13.128906 200.445312 14.332031 200.445312 15.9375 C 200.445312 17.535156 200.648438 18.734375 201.058594 19.535156 C 201.46875 20.335938 202.078125 20.734375 202.890625 20.734375 C 203.707031 20.734375 204.320312 20.335938 204.730469 19.535156 C 205.140625 18.734375 205.34375 17.535156 205.34375 15.9375 C 205.34375 14.332031 205.140625 13.128906 204.730469 12.332031 C 204.320312 11.53125 203.707031 11.132812 202.890625 11.132812 Z M 202.890625 9.882812 C 204.199219 9.882812 205.199219 10.398438 205.886719 11.433594 C 206.578125 12.46875 206.921875 13.96875 206.921875 15.9375 C 206.921875 17.902344 206.578125 19.398438 205.886719 20.433594 C 205.199219 21.46875 204.199219 21.984375 202.890625 21.984375 C 201.582031 21.984375 200.585938 21.46875 199.894531 20.433594 C 199.203125 19.398438 198.859375 17.902344 198.859375 15.9375 C 198.859375 13.96875 199.203125 12.46875 199.894531 11.433594 C 200.585938 10.398438 201.582031 9.882812 202.890625 9.882812 Z M 202.890625 9.882812 "/>
<path style=" stroke:none;fill-rule:nonzero;fill:rgb(0%,0%,0%);fill-opacity:1;" d="M 209.710938 10.09375 L 215.90625 10.09375 L 215.90625 11.421875 L 211.15625 11.421875 L 211.15625 14.28125 C 211.386719 14.203125 211.613281 14.144531 211.84375 14.105469 C 212.070312 14.066406 212.300781 14.046875 212.53125 14.046875 C 213.832031 14.046875 214.863281 14.402344 215.625 15.117188 C 216.386719 15.832031 216.765625 16.796875 216.765625 18.015625 C 216.765625 19.269531 216.375 20.246094 215.59375 20.941406 C 214.8125 21.636719 213.710938 21.984375 212.289062 21.984375 C 211.800781 21.984375 211.300781 21.941406 210.792969 21.859375 C 210.285156 21.777344 209.761719 21.652344 209.21875 21.484375 L 209.21875 19.898438 C 209.6875 20.152344 210.171875 20.34375 210.671875 20.46875 C 211.171875 20.59375 211.699219 20.65625 212.257812 20.65625 C 213.160156 20.65625 213.871094 20.417969 214.398438 19.945312 C 214.925781 19.472656 215.1875 18.828125 215.1875 18.015625 C 215.1875 17.203125 214.925781 16.5625 214.398438 16.085938 C 213.871094 15.613281 213.160156 15.375 212.257812 15.375 C 211.835938 15.375 211.414062 15.421875 210.996094 15.515625 C 210.578125 15.609375 210.148438 15.753906 209.710938 15.953125 Z M 209.710938 10.09375 "/>
<path style=" stroke:none;fill-rule:nonzero;fill:rgb(0%,0%,0%);fill-opacity:1;" d="M 223.25 11.132812 C 222.4375 11.132812 221.828125 11.53125 221.417969 12.332031 C 221.007812 13.128906 220.804688 14.332031 220.804688 15.9375 C 220.804688 17.535156 221.007812 18.734375 221.417969 19.535156 C 221.828125 20.335938 222.4375 20.734375 223.25 20.734375 C 224.066406 20.734375 224.679688 20.335938 225.089844 19.535156 C 225.5 18.734375 225.703125 17.535156 225.703125 15.9375 C 225.703125 14.332031 225.5 13.128906 225.089844 12.332031 C 224.679688 11.53125 224.066406 11.132812 223.25 11.132812 Z M 223.25 9.882812 C 224.558594 9.882812 225.558594 10.398438 226.246094 11.433594 C 226.9375 12.46875 227.28125 13.96875 227.28125 15.9375 C 227.28125 17.902344 226.9375 19.398438 226.246094 20.433594 C 225.558594 21.46875 224.558594 21.984375 223.25 21.984375 C 221.941406 21.984375 220.945312 21.46875 220.253906 20.433594 C 219.5625 19.398438 219.21875 17.902344 219.21875 15.9375 C 219.21875 13.96875 219.5625 12.46875 220.253906 11.433594 C 220.945312 10.398438 221.941406 9.882812 223.25 9.882812 Z M 223.25 9.882812 "/>
</g>
</svg>
