<?xml version="1.0" encoding="UTF-8"?>
<svg xmlns="http://www.w3.org/2000/svg" xmlns:xlink="http://www.w3.org/1999/xlink" width="310.137492" height="226.237508" viewBox="0 0 310.137492 226.237508" version="1.1">
<defs>
<filter id="alpha" filterUnits="objectBoundingBox" x="0%" y="0%" width="100%" height="100%">
  <feColorMatrix type="matrix" in="SourceGraphic" values="0 0 0 0 1 0 0 0 0 1 0 0 0 0 1 0 0 0 1 0"/>
</filter>
<mask id="mask0">
  <g filter="url(#alpha)">
<rect x="0" y="0" width="310.137492" height="226.237508" style="fill:rgb(0%,0%,0%);fill-opacity:0.8;stroke:none;"/>
  </g>
</mask>
<clipPath id="clip1">
  <rect x="0" y="0" width="311" height="227"/>
</clipPath>
<g id="surface5" clip-path="url(#clip1)">
<path style="fill-rule:nonzero;fill:rgb(100%,100%,100%);fill-opacity:1;stroke-width:1;stroke-linecap:butt;stroke-linejoin:miter;stroke:rgb(80.000001%,80.000001%,80.000001%);stroke-opacity:1;stroke-miterlimit:4;" d="M 81.328125 59.235352 L 174.178711 59.235352 C 175.511719 59.235352 176.176758 58.567383 176.176758 57.234375 L 176.176758 14.200195 C 176.176758 12.867188 175.511719 12.199219 174.178711 12.199219 L 81.328125 12.199219 C 79.995117 12.199219 79.327148 12.867188 79.327148 14.200195 L 79.327148 57.234375 C 79.327148 58.567383 79.995117 59.235352 81.328125 59.235352 Z M 81.328125 59.235352 " transform="matrix(1.333333,0,0,1.333333,0,-0.000000000000014211)"/>
</g>
</defs>
<g id="surface1">
<path style=" stroke:none;fill-rule:nonzero;fill:rgb(100%,100%,100%);fill-opacity:1;" d="M 0 226.238281 L 310.136719 226.238281 L 310.136719 0 L 0 0 Z M 0 226.238281 "/>
<path style=" stroke:none;fill-rule:nonzero;fill:rgb(100%,100%,100%);fill-opacity:1;" d="M 40.136719 194.398438 L 300.539062 194.398438 L 300.539062 9.601562 L 40.136719 9.601562 Z M 40.136719 194.398438 "/>
<path style="fill:none;stroke-width:0.8;stroke-linecap:butt;stroke-linejoin:round;stroke:rgb(0%,0%,0%);stroke-opacity:1;stroke-miterlimit:4;" d="M -0.000904083 -0.00117493 L -0.000904083 3.499802 " transform="matrix(1.333333,0,0,1.333333,51.973862,194.400004)"/>
<path style=" stroke:none;fill-rule:nonzero;fill:rgb(0%,0%,0%);fill-opacity:1;" d="M 43.558594 209.132812 L 51.902344 209.132812 L 51.902344 210.238281 L 43.558594 210.238281 Z M 43.558594 209.132812 "/>
<path style=" stroke:none;fill-rule:nonzero;fill:rgb(0%,0%,0%);fill-opacity:1;" d="M 55.875 212.757812 L 60.464844 212.757812 L 60.464844 213.863281 L 54.292969 213.863281 L 54.292969 212.757812 C 54.792969 212.242188 55.472656 211.546875 56.335938 210.679688 C 57.195312 209.808594 57.738281 209.246094 57.960938 208.992188 C 58.378906 208.523438 58.675781 208.121094 58.839844 207.792969 C 59.007812 207.464844 59.09375 207.144531 59.09375 206.828125 C 59.09375 206.308594 58.910156 205.890625 58.550781 205.566406 C 58.1875 205.238281 57.714844 205.074219 57.132812 205.074219 C 56.71875 205.074219 56.285156 205.148438 55.824219 205.289062 C 55.367188 205.433594 54.878906 205.648438 54.359375 205.941406 L 54.359375 204.613281 C 54.886719 204.398438 55.382812 204.238281 55.84375 204.132812 C 56.304688 204.023438 56.726562 203.96875 57.105469 203.96875 C 58.113281 203.96875 58.917969 204.222656 59.515625 204.726562 C 60.113281 205.226562 60.414062 205.898438 60.414062 206.742188 C 60.414062 207.140625 60.339844 207.519531 60.1875 207.878906 C 60.039062 208.234375 59.769531 208.65625 59.371094 209.144531 C 59.261719 209.269531 58.917969 209.632812 58.335938 210.234375 C 57.753906 210.835938 56.9375 211.679688 55.875 212.757812 Z M 55.875 212.757812 "/>
<path style="fill:none;stroke-width:0.8;stroke-linecap:butt;stroke-linejoin:round;stroke:rgb(0%,0%,0%);stroke-opacity:1;stroke-miterlimit:4;" d="M -0.000968933 -0.00117493 L -0.000968933 3.499802 " transform="matrix(1.333333,0,0,1.333333,112.673167,194.400004)"/>
<path style=" stroke:none;fill-rule:nonzero;fill:rgb(0%,0%,0%);fill-opacity:1;" d="M 104.257812 209.132812 L 112.601562 209.132812 L 112.601562 210.238281 L 104.257812 210.238281 Z M 104.257812 209.132812 "/>
<path style=" stroke:none;fill-rule:nonzero;fill:rgb(0%,0%,0%);fill-opacity:1;" d="M 115.671875 212.757812 L 117.820312 212.757812 L 117.820312 205.339844 L 115.480469 205.808594 L 115.480469 204.613281 L 117.804688 204.144531 L 119.121094 204.144531 L 119.121094 212.757812 L 121.269531 212.757812 L 121.269531 213.863281 L 115.671875 213.863281 Z M 115.671875 212.757812 "/>
<path style="fill:none;stroke-width:0.8;stroke-linecap:butt;stroke-linejoin:round;stroke:rgb(0%,0%,0%);stroke-opacity:1;stroke-miterlimit:4;" d="M -0.00102234 -0.00117493 L -0.00102234 3.499802 " transform="matrix(1.333333,0,0,1.333333,173.372457,194.400004)"/>
<path style=" stroke:none;fill-rule:nonzero;fill:rgb(0%,0%,0%);fill-opacity:1;" d="M 173.367188 205.011719 C 172.691406 205.011719 172.183594 205.34375 171.839844 206.011719 C 171.5 206.675781 171.332031 207.675781 171.332031 209.015625 C 171.332031 210.347656 171.5 211.347656 171.839844 212.011719 C 172.183594 212.679688 172.691406 213.011719 173.367188 213.011719 C 174.050781 213.011719 174.5625 212.679688 174.902344 212.011719 C 175.242188 211.347656 175.414062 210.347656 175.414062 209.015625 C 175.414062 207.675781 175.242188 206.675781 174.902344 206.011719 C 174.5625 205.34375 174.050781 205.011719 173.367188 205.011719 Z M 173.367188 203.96875 C 174.457031 203.96875 175.292969 204.398438 175.867188 205.261719 C 176.441406 206.125 176.730469 207.375 176.730469 209.015625 C 176.730469 210.652344 176.441406 211.898438 175.867188 212.761719 C 175.292969 213.625 174.457031 214.054688 173.367188 214.054688 C 172.28125 214.054688 171.449219 213.625 170.871094 212.761719 C 170.296875 211.898438 170.011719 210.652344 170.011719 209.015625 C 170.011719 207.375 170.296875 206.125 170.871094 205.261719 C 171.449219 204.398438 172.28125 203.96875 173.367188 203.96875 Z M 173.367188 203.96875 "/>
<path style="fill:none;stroke-width:0.8;stroke-linecap:butt;stroke-linejoin:round;stroke:rgb(0%,0%,0%);stroke-opacity:1;stroke-miterlimit:4;" d="M -0.00108337 -0.00117493 L -0.00108337 3.499802 " transform="matrix(1.333333,0,0,1.333333,234.071757,194.400004)"/>
<path style=" stroke:none;fill-rule:nonzero;fill:rgb(0%,0%,0%);fill-opacity:1;" d="M 231.484375 212.757812 L 233.632812 212.757812 L 233.632812 205.339844 L 231.292969 205.808594 L 231.292969 204.613281 L 233.621094 204.144531 L 234.933594 204.144531 L 234.933594 212.757812 L 237.082031 212.757812 L 237.082031 213.863281 L 231.484375 213.863281 Z M 231.484375 212.757812 "/>
<path style="fill:none;stroke-width:0.8;stroke-linecap:butt;stroke-linejoin:round;stroke:rgb(0%,0%,0%);stroke-opacity:1;stroke-miterlimit:4;" d="M -0.00115967 -0.00117493 L -0.00115967 3.499802 " transform="matrix(1.333333,0,0,1.333333,294.771077,194.400004)"/>
<path style=" stroke:none;fill-rule:nonzero;fill:rgb(0%,0%,0%);fill-opacity:1;" d="M 293.085938 212.757812 L 297.675781 212.757812 L 297.675781 213.863281 L 291.507812 213.863281 L 291.507812 212.757812 C 292.003906 212.242188 292.683594 211.546875 293.546875 210.679688 C 294.410156 209.808594 294.949219 209.246094 295.171875 208.992188 C 295.59375 208.523438 295.886719 208.121094 296.050781 207.792969 C 296.21875 207.464844 296.304688 207.144531 296.304688 206.828125 C 296.304688 206.308594 296.125 205.890625 295.761719 205.566406 C 295.398438 205.238281 294.925781 205.074219 294.34375 205.074219 C 293.929688 205.074219 293.496094 205.148438 293.039062 205.289062 C 292.582031 205.433594 292.09375 205.648438 291.570312 205.941406 L 291.570312 204.613281 C 292.101562 204.398438 292.59375 204.238281 293.054688 204.132812 C 293.515625 204.023438 293.9375 203.96875 294.320312 203.96875 C 295.324219 203.96875 296.128906 204.222656 296.726562 204.726562 C 297.324219 205.226562 297.625 205.898438 297.625 206.742188 C 297.625 207.140625 297.550781 207.519531 297.398438 207.878906 C 297.25 208.234375 296.980469 208.65625 296.582031 209.144531 C 296.476562 209.269531 296.128906 209.632812 295.546875 210.234375 C 294.96875 210.835938 294.148438 211.679688 293.085938 212.757812 Z M 293.085938 212.757812 "/>
<path style="fill:none;stroke-width:0.8;stroke-linecap:butt;stroke-linejoin:round;stroke:rgb(0%,0%,0%);stroke-opacity:1;stroke-miterlimit:4;" d="M -0.000585556 -0.000000000000028422 L -3.498632 -0.000000000000028422 " transform="matrix(1.333333,0,0,1.333333,40.137499,186)"/>
<path style=" stroke:none;fill-rule:nonzero;fill:rgb(0%,0%,0%);fill-opacity:1;" d="M 13.835938 182.210938 C 13.160156 182.210938 12.652344 182.542969 12.308594 183.210938 C 11.96875 183.875 11.800781 184.878906 11.800781 186.214844 C 11.800781 187.546875 11.96875 188.546875 12.308594 189.214844 C 12.652344 189.878906 13.160156 190.214844 13.835938 190.214844 C 14.519531 190.214844 15.03125 189.878906 15.371094 189.214844 C 15.710938 188.546875 15.882812 187.546875 15.882812 186.214844 C 15.882812 184.878906 15.710938 183.875 15.371094 183.210938 C 15.03125 182.542969 14.519531 182.210938 13.835938 182.210938 Z M 13.835938 181.167969 C 14.929688 181.167969 15.761719 181.601562 16.335938 182.464844 C 16.910156 183.324219 17.199219 184.574219 17.199219 186.214844 C 17.199219 187.851562 16.910156 189.101562 16.335938 189.964844 C 15.761719 190.824219 14.929688 191.253906 13.835938 191.253906 C 12.75 191.253906 11.917969 190.824219 11.339844 189.964844 C 10.765625 189.101562 10.480469 187.851562 10.480469 186.214844 C 10.480469 184.574219 10.765625 183.324219 11.339844 182.464844 C 11.917969 181.601562 12.75 181.167969 13.835938 181.167969 Z M 13.835938 181.167969 "/>
<path style=" stroke:none;fill-rule:nonzero;fill:rgb(0%,0%,0%);fill-opacity:1;" d="M 19.507812 189.410156 L 20.882812 189.410156 L 20.882812 191.066406 L 19.507812 191.066406 Z M 19.507812 189.410156 "/>
<path style=" stroke:none;fill-rule:nonzero;fill:rgb(0%,0%,0%);fill-opacity:1;" d="M 26.558594 182.210938 C 25.882812 182.210938 25.375 182.542969 25.03125 183.210938 C 24.691406 183.875 24.519531 184.878906 24.519531 186.214844 C 24.519531 187.546875 24.691406 188.546875 25.03125 189.214844 C 25.375 189.878906 25.882812 190.214844 26.558594 190.214844 C 27.242188 190.214844 27.75 189.878906 28.09375 189.214844 C 28.433594 188.546875 28.605469 187.546875 28.605469 186.214844 C 28.605469 184.878906 28.433594 183.875 28.09375 183.210938 C 27.75 182.542969 27.242188 182.210938 26.558594 182.210938 Z M 26.558594 181.167969 C 27.648438 181.167969 28.480469 181.601562 29.058594 182.464844 C 29.632812 183.324219 29.917969 184.574219 29.917969 186.214844 C 29.917969 187.851562 29.632812 189.101562 29.058594 189.964844 C 28.480469 190.824219 27.648438 191.253906 26.558594 191.253906 C 25.46875 191.253906 24.636719 190.824219 24.0625 189.964844 C 23.488281 189.101562 23.199219 187.851562 23.199219 186.214844 C 23.199219 184.574219 23.488281 183.324219 24.0625 182.464844 C 24.636719 181.601562 25.46875 181.167969 26.558594 181.167969 Z M 26.558594 181.167969 "/>
<path style="fill:none;stroke-width:0.8;stroke-linecap:butt;stroke-linejoin:round;stroke:rgb(0%,0%,0%);stroke-opacity:1;stroke-miterlimit:4;" d="M -0.000585556 -0.000152588 L -3.498632 -0.000152588 " transform="matrix(1.333333,0,0,1.333333,40.137499,143.894735)"/>
<path style=" stroke:none;fill-rule:nonzero;fill:rgb(0%,0%,0%);fill-opacity:1;" d="M 13.835938 140.105469 C 13.160156 140.105469 12.652344 140.441406 12.308594 141.105469 C 11.96875 141.769531 11.800781 142.773438 11.800781 144.109375 C 11.800781 145.441406 11.96875 146.441406 12.308594 147.109375 C 12.652344 147.773438 13.160156 148.109375 13.835938 148.109375 C 14.519531 148.109375 15.03125 147.773438 15.371094 147.109375 C 15.710938 146.441406 15.882812 145.441406 15.882812 144.109375 C 15.882812 142.773438 15.710938 141.769531 15.371094 141.105469 C 15.03125 140.441406 14.519531 140.105469 13.835938 140.105469 Z M 13.835938 139.066406 C 14.929688 139.066406 15.761719 139.496094 16.335938 140.359375 C 16.910156 141.21875 17.199219 142.46875 17.199219 144.109375 C 17.199219 145.746094 16.910156 146.996094 16.335938 147.859375 C 15.761719 148.71875 14.929688 149.148438 13.835938 149.148438 C 12.75 149.148438 11.917969 148.71875 11.339844 147.859375 C 10.765625 146.996094 10.480469 145.746094 10.480469 144.109375 C 10.480469 142.46875 10.765625 141.21875 11.339844 140.359375 C 11.917969 139.496094 12.75 139.066406 13.835938 139.066406 Z M 13.835938 139.066406 "/>
<path style=" stroke:none;fill-rule:nonzero;fill:rgb(0%,0%,0%);fill-opacity:1;" d="M 19.507812 147.304688 L 20.882812 147.304688 L 20.882812 148.960938 L 19.507812 148.960938 Z M 19.507812 147.304688 "/>
<path style=" stroke:none;fill-rule:nonzero;fill:rgb(0%,0%,0%);fill-opacity:1;" d="M 23.761719 139.238281 L 28.921875 139.238281 L 28.921875 140.347656 L 24.964844 140.347656 L 24.964844 142.730469 C 25.15625 142.664062 25.34375 142.613281 25.535156 142.582031 C 25.726562 142.550781 25.917969 142.535156 26.109375 142.535156 C 27.195312 142.535156 28.054688 142.832031 28.6875 143.425781 C 29.324219 144.019531 29.640625 144.828125 29.640625 145.839844 C 29.640625 146.886719 29.3125 147.699219 28.664062 148.28125 C 28.011719 148.859375 27.09375 149.148438 25.910156 149.148438 C 25.5 149.148438 25.085938 149.113281 24.660156 149.046875 C 24.238281 148.976562 23.800781 148.871094 23.351562 148.734375 L 23.351562 147.410156 C 23.742188 147.621094 24.144531 147.78125 24.5625 147.886719 C 24.976562 147.988281 25.417969 148.042969 25.882812 148.042969 C 26.632812 148.042969 27.226562 147.84375 27.664062 147.449219 C 28.105469 147.054688 28.324219 146.519531 28.324219 145.839844 C 28.324219 145.164062 28.105469 144.628906 27.664062 144.234375 C 27.226562 143.839844 26.632812 143.640625 25.882812 143.640625 C 25.53125 143.640625 25.179688 143.679688 24.828125 143.757812 C 24.480469 143.835938 24.125 143.957031 23.761719 144.121094 Z M 23.761719 139.238281 "/>
<path style="fill:none;stroke-width:0.8;stroke-linecap:butt;stroke-linejoin:round;stroke:rgb(0%,0%,0%);stroke-opacity:1;stroke-miterlimit:4;" d="M -0.000585556 -0.000305176 L -3.498632 -0.000305176 " transform="matrix(1.333333,0,0,1.333333,40.137499,101.789469)"/>
<path style=" stroke:none;fill-rule:nonzero;fill:rgb(0%,0%,0%);fill-opacity:1;" d="M 11.253906 105.75 L 13.402344 105.75 L 13.402344 98.332031 L 11.066406 98.800781 L 11.066406 97.601562 L 13.390625 97.132812 L 14.703125 97.132812 L 14.703125 105.75 L 16.851562 105.75 L 16.851562 106.855469 L 11.253906 106.855469 Z M 11.253906 105.75 "/>
<path style=" stroke:none;fill-rule:nonzero;fill:rgb(0%,0%,0%);fill-opacity:1;" d="M 19.507812 105.199219 L 20.882812 105.199219 L 20.882812 106.855469 L 19.507812 106.855469 Z M 19.507812 105.199219 "/>
<path style=" stroke:none;fill-rule:nonzero;fill:rgb(0%,0%,0%);fill-opacity:1;" d="M 26.558594 98 C 25.882812 98 25.375 98.335938 25.03125 99 C 24.691406 99.667969 24.519531 100.667969 24.519531 102.003906 C 24.519531 103.335938 24.691406 104.335938 25.03125 105.003906 C 25.375 105.667969 25.882812 106.003906 26.558594 106.003906 C 27.242188 106.003906 27.75 105.667969 28.09375 105.003906 C 28.433594 104.335938 28.605469 103.335938 28.605469 102.003906 C 28.605469 100.667969 28.433594 99.667969 28.09375 99 C 27.75 98.335938 27.242188 98 26.558594 98 Z M 26.558594 96.960938 C 27.648438 96.960938 28.480469 97.390625 29.058594 98.253906 C 29.632812 99.113281 29.917969 100.363281 29.917969 102.003906 C 29.917969 103.640625 29.632812 104.890625 29.058594 105.753906 C 28.480469 106.613281 27.648438 107.042969 26.558594 107.042969 C 25.46875 107.042969 24.636719 106.613281 24.0625 105.753906 C 23.488281 104.890625 23.199219 103.640625 23.199219 102.003906 C 23.199219 100.363281 23.488281 99.113281 24.0625 98.253906 C 24.636719 97.390625 25.46875 96.960938 26.558594 96.960938 Z M 26.558594 96.960938 "/>
<path style="fill:none;stroke-width:0.8;stroke-linecap:butt;stroke-linejoin:round;stroke:rgb(0%,0%,0%);stroke-opacity:1;stroke-miterlimit:4;" d="M -0.000585556 -0.000461578 L -3.498632 -0.000461578 " transform="matrix(1.333333,0,0,1.333333,40.137499,59.684209)"/>
<path style=" stroke:none;fill-rule:nonzero;fill:rgb(0%,0%,0%);fill-opacity:1;" d="M 11.253906 63.644531 L 13.402344 63.644531 L 13.402344 56.226562 L 11.066406 56.695312 L 11.066406 55.496094 L 13.390625 55.027344 L 14.703125 55.027344 L 14.703125 63.644531 L 16.851562 63.644531 L 16.851562 64.75 L 11.253906 64.75 Z M 11.253906 63.644531 "/>
<path style=" stroke:none;fill-rule:nonzero;fill:rgb(0%,0%,0%);fill-opacity:1;" d="M 19.507812 63.09375 L 20.882812 63.09375 L 20.882812 64.75 L 19.507812 64.75 Z M 19.507812 63.09375 "/>
<path style=" stroke:none;fill-rule:nonzero;fill:rgb(0%,0%,0%);fill-opacity:1;" d="M 23.761719 55.027344 L 28.921875 55.027344 L 28.921875 56.136719 L 24.964844 56.136719 L 24.964844 58.519531 C 25.15625 58.453125 25.34375 58.40625 25.535156 58.371094 C 25.726562 58.339844 25.917969 58.324219 26.109375 58.324219 C 27.195312 58.324219 28.054688 58.621094 28.6875 59.214844 C 29.324219 59.8125 29.640625 60.617188 29.640625 61.632812 C 29.640625 62.675781 29.3125 63.488281 28.664062 64.070312 C 28.011719 64.648438 27.09375 64.9375 25.910156 64.9375 C 25.5 64.9375 25.085938 64.90625 24.660156 64.835938 C 24.238281 64.765625 23.800781 64.660156 23.351562 64.523438 L 23.351562 63.199219 C 23.742188 63.414062 24.144531 63.570312 24.5625 63.675781 C 24.976562 63.777344 25.417969 63.832031 25.882812 63.832031 C 26.632812 63.832031 27.226562 63.632812 27.664062 63.238281 C 28.105469 62.84375 28.324219 62.308594 28.324219 61.632812 C 28.324219 60.953125 28.105469 60.417969 27.664062 60.023438 C 27.226562 59.628906 26.632812 59.429688 25.882812 59.429688 C 25.53125 59.429688 25.179688 59.46875 24.828125 59.546875 C 24.480469 59.625 24.125 59.746094 23.761719 59.914062 Z M 23.761719 55.027344 "/>
<path style="fill:none;stroke-width:0.8;stroke-linecap:butt;stroke-linejoin:round;stroke:rgb(0%,0%,0%);stroke-opacity:1;stroke-miterlimit:4;" d="M -0.000585556 -0.000617027 L -3.498632 -0.000617027 " transform="matrix(1.333333,0,0,1.333333,40.137499,17.578948)"/>
<path style=" stroke:none;fill-rule:nonzero;fill:rgb(0%,0%,0%);fill-opacity:1;" d="M 12.160156 21.539062 L 16.746094 21.539062 L 16.746094 22.644531 L 10.578125 22.644531 L 10.578125 21.539062 C 11.074219 21.023438 11.753906 20.328125 12.617188 19.460938 C 13.480469 18.589844 14.019531 18.027344 14.242188 17.773438 C 14.664062 17.300781 14.957031 16.902344 15.121094 16.574219 C 15.289062 16.246094 15.375 15.921875 15.375 15.605469 C 15.375 15.089844 15.195312 14.667969 14.832031 14.34375 C 14.46875 14.019531 13.996094 13.855469 13.414062 13.855469 C 13.003906 13.855469 12.566406 13.925781 12.109375 14.070312 C 11.652344 14.210938 11.164062 14.429688 10.640625 14.722656 L 10.640625 13.390625 C 11.171875 13.179688 11.664062 13.019531 12.125 12.910156 C 12.585938 12.804688 13.007812 12.75 13.390625 12.75 C 14.398438 12.75 15.199219 13 15.796875 13.503906 C 16.398438 14.007812 16.695312 14.679688 16.695312 15.523438 C 16.695312 15.921875 16.621094 16.300781 16.472656 16.660156 C 16.320312 17.015625 16.050781 17.4375 15.652344 17.921875 C 15.546875 18.050781 15.199219 18.414062 14.617188 19.015625 C 14.039062 19.617188 13.21875 20.457031 12.160156 21.539062 Z M 12.160156 21.539062 "/>
<path style=" stroke:none;fill-rule:nonzero;fill:rgb(0%,0%,0%);fill-opacity:1;" d="M 19.507812 20.992188 L 20.882812 20.992188 L 20.882812 22.644531 L 19.507812 22.644531 Z M 19.507812 20.992188 "/>
<path style=" stroke:none;fill-rule:nonzero;fill:rgb(0%,0%,0%);fill-opacity:1;" d="M 26.558594 13.789062 C 25.882812 13.789062 25.375 14.125 25.03125 14.789062 C 24.691406 15.457031 24.519531 16.457031 24.519531 17.792969 C 24.519531 19.125 24.691406 20.125 25.03125 20.792969 C 25.375 21.460938 25.882812 21.792969 26.558594 21.792969 C 27.242188 21.792969 27.75 21.460938 28.09375 20.792969 C 28.433594 20.125 28.605469 19.125 28.605469 17.792969 C 28.605469 16.457031 28.433594 15.457031 28.09375 14.789062 C 27.75 14.125 27.242188 13.789062 26.558594 13.789062 Z M 26.558594 12.75 C 27.648438 12.75 28.480469 13.179688 29.058594 14.042969 C 29.632812 14.902344 29.917969 16.152344 29.917969 17.792969 C 29.917969 19.429688 29.632812 20.679688 29.058594 21.542969 C 28.480469 22.402344 27.648438 22.835938 26.558594 22.835938 C 25.46875 22.835938 24.636719 22.402344 24.0625 21.542969 C 23.488281 20.679688 23.199219 19.429688 23.199219 17.792969 C 23.199219 16.152344 23.488281 14.902344 24.0625 14.042969 C 24.636719 13.179688 25.46875 12.75 26.558594 12.75 Z M 26.558594 12.75 "/>
<path style="fill:none;stroke-width:1.5;stroke-linecap:square;stroke-linejoin:round;stroke:rgb(12.156863%,46.666667%,70.588237%);stroke-opacity:1;stroke-miterlimit:4;" d="M 38.979492 13.5 L 48.084961 26.132813 L 52.637695 32.446289 L 70.848633 57.711914 L 75.401367 64.025391 L 79.951172 70.341797 L 89.056641 82.974609 L 93.609375 89.288086 L 111.820312 114.553711 L 116.373047 120.867188 L 120.925781 127.183594 L 125.475586 133.5 L 130.02832 139.5 L 134.581055 133.5 L 143.686523 120.867188 L 148.239258 114.553711 L 166.450195 89.288086 L 171 82.974609 L 184.658203 64.025391 L 189.210937 57.711914 L 207.421875 32.446289 L 211.974609 26.132813 L 216.524414 19.816406 " transform="matrix(1.333333,0,0,1.333333,0,-0.000000000000014211)"/>
<path style="fill:none;stroke-width:1.5;stroke-linecap:butt;stroke-linejoin:round;stroke:rgb(100%,49.803922%,5.490196%);stroke-opacity:1;stroke-dasharray:5.55,2.4;stroke-miterlimit:4;" d="M 38.979492 44.762695 L 52.637695 63.711914 L 57.19043 70.025391 L 70.848633 88.974609 L 75.401367 95.288086 L 79.951172 101.604492 L 84.503906 107.920898 L 89.056641 113.920898 L 93.609375 119.288086 L 98.162109 124.025391 L 102.714844 128.132812 L 107.267578 131.604492 L 111.820312 134.446289 L 116.373047 136.658203 L 120.925781 138.237305 L 125.475586 139.183594 L 130.02832 139.5 L 134.581055 139.183594 L 139.133789 138.237305 L 143.686523 136.658203 L 148.239258 134.446289 L 152.791992 131.604492 L 157.344727 128.132812 L 161.897461 124.025391 L 166.450195 119.288086 L 171 113.920898 L 175.552734 107.920898 L 184.658203 95.288086 L 189.210937 88.974609 L 202.869141 70.025391 L 207.421875 63.711914 L 211.974609 57.395508 L 216.524414 51.079102 " transform="matrix(1.333333,0,0,1.333333,0,-0.000000000000014211)"/>
<path style="fill:none;stroke-width:1.5;stroke-linecap:butt;stroke-linejoin:round;stroke:rgb(17.254902%,62.7451%,17.254902%);stroke-opacity:1;stroke-dasharray:9.6,2.4,1.5,2.4;stroke-miterlimit:4;" d="M 38.979492 107.920898 L 43.532227 111 L 48.084961 113.920898 L 52.637695 116.683594 L 57.19043 119.288086 L 61.743164 121.737305 L 66.295898 124.025391 L 70.848633 126.158203 L 75.401367 128.132812 L 79.951172 129.946289 L 84.503906 131.604492 L 89.056641 133.104492 L 93.609375 134.446289 L 98.162109 135.632812 L 102.714844 136.658203 L 107.267578 137.525391 L 111.820312 138.237305 L 116.373047 138.788086 L 120.925781 139.183594 L 125.475586 139.420898 L 130.02832 139.5 L 134.581055 139.420898 L 139.133789 139.183594 L 143.686523 138.788086 L 148.239258 138.237305 L 152.791992 137.525391 L 157.344727 136.658203 L 161.897461 135.632812 L 166.450195 134.446289 L 171 133.104492 L 175.552734 131.604492 L 180.105469 129.946289 L 184.658203 128.132812 L 189.210937 126.158203 L 193.763672 124.025391 L 198.316406 121.737305 L 202.869141 119.288086 L 207.421875 116.683594 L 211.974609 113.920898 L 216.524414 111 " transform="matrix(1.333333,0,0,1.333333,0,-0.000000000000014211)"/>
<path style="fill:none;stroke-width:0.8;stroke-linecap:square;stroke-linejoin:miter;stroke:rgb(0%,0%,0%);stroke-opacity:1;stroke-miterlimit:4;" d="M 30.102539 145.798828 L 30.102539 7.201172 " transform="matrix(1.333333,0,0,1.333333,0,-0.000000000000014211)"/>
<path style="fill:none;stroke-width:0.8;stroke-linecap:square;stroke-linejoin:miter;stroke:rgb(0%,0%,0%);stroke-opacity:1;stroke-miterlimit:4;" d="M 225.404297 145.798828 L 225.404297 7.201172 " transform="matrix(1.333333,0,0,1.333333,0,-0.000000000000014211)"/>
<path style="fill:none;stroke-width:0.8;stroke-linecap:square;stroke-linejoin:miter;stroke:rgb(0%,0%,0%);stroke-opacity:1;stroke-miterlimit:4;" d="M 30.102539 145.798828 L 225.404297 145.798828 " transform="matrix(1.333333,0,0,1.333333,0,-0.000000000000014211)"/>
<path style="fill:none;stroke-width:0.8;stroke-linecap:square;stroke-linejoin:miter;stroke:rgb(0%,0%,0%);stroke-opacity:1;stroke-miterlimit:4;" d="M 30.102539 7.201172 L 225.404297 7.201172 " transform="matrix(1.333333,0,0,1.333333,0,-0.000000000000014211)"/>
<use xlink:href="#surface5" mask="url(#mask0)"/>
<path style="fill:none;stroke-width:1.5;stroke-linecap:square;stroke-linejoin:round;stroke:rgb(12.156863%,46.666667%,70.588237%);stroke-opacity:1;stroke-miterlimit:4;" d="M 83.329102 20.299805 L 103.327148 20.299805 " transform="matrix(1.333333,0,0,1.333333,0,-0.000000000000014211)"/>
<path style=" stroke:none;fill-rule:nonzero;fill:rgb(0%,0%,0%);fill-opacity:1;" d="M 154.339844 24.652344 L 154.339844 25.789062 C 154.003906 25.613281 153.652344 25.484375 153.289062 25.398438 C 152.921875 25.308594 152.546875 25.265625 152.152344 25.265625 C 151.558594 25.265625 151.113281 25.359375 150.816406 25.539062 C 150.519531 25.722656 150.371094 25.996094 150.371094 26.359375 C 150.371094 26.636719 150.476562 26.855469 150.691406 27.015625 C 150.902344 27.171875 151.328125 27.324219 151.972656 27.464844 L 152.382812 27.558594 C 153.234375 27.742188 153.835938 27.996094 154.195312 28.328125 C 154.554688 28.660156 154.734375 29.125 154.734375 29.71875 C 154.734375 30.398438 154.464844 30.933594 153.929688 31.328125 C 153.394531 31.722656 152.65625 31.921875 151.71875 31.921875 C 151.328125 31.921875 150.921875 31.882812 150.496094 31.804688 C 150.074219 31.730469 149.628906 31.617188 149.160156 31.464844 L 149.160156 30.226562 C 149.601562 30.457031 150.039062 30.628906 150.46875 30.746094 C 150.898438 30.859375 151.324219 30.917969 151.746094 30.917969 C 152.308594 30.917969 152.742188 30.820312 153.046875 30.628906 C 153.351562 30.433594 153.503906 30.160156 153.503906 29.808594 C 153.503906 29.484375 153.390625 29.234375 153.171875 29.0625 C 152.953125 28.890625 152.472656 28.722656 151.730469 28.558594 L 151.316406 28.460938 C 150.574219 28.308594 150.035156 28.066406 149.707031 27.742188 C 149.378906 27.421875 149.210938 26.976562 149.210938 26.414062 C 149.210938 25.726562 149.457031 25.195312 149.941406 24.824219 C 150.429688 24.453125 151.117188 24.265625 152.011719 24.265625 C 152.453125 24.265625 152.871094 24.296875 153.261719 24.363281 C 153.652344 24.425781 154.011719 24.523438 154.339844 24.652344 Z M 154.339844 24.652344 "/>
<path style=" stroke:none;fill-rule:nonzero;fill:rgb(0%,0%,0%);fill-opacity:1;" d="M 156.640625 24.441406 L 157.839844 24.441406 L 157.839844 31.730469 L 156.640625 31.730469 Z M 156.640625 21.601562 L 157.839844 21.601562 L 157.839844 23.117188 L 156.640625 23.117188 Z M 156.640625 21.601562 "/>
<path style=" stroke:none;fill-rule:nonzero;fill:rgb(0%,0%,0%);fill-opacity:1;" d="M 165.144531 28 C 165.144531 27.132812 164.964844 26.460938 164.605469 25.984375 C 164.25 25.503906 163.746094 25.265625 163.097656 25.265625 C 162.457031 25.265625 161.957031 25.503906 161.597656 25.984375 C 161.242188 26.460938 161.0625 27.132812 161.0625 28 C 161.0625 28.863281 161.242188 29.535156 161.597656 30.011719 C 161.957031 30.492188 162.457031 30.730469 163.097656 30.730469 C 163.746094 30.730469 164.25 30.492188 164.605469 30.011719 C 164.964844 29.535156 165.144531 28.863281 165.144531 28 Z M 166.339844 30.828125 C 166.339844 32.066406 166.066406 32.992188 165.511719 33.597656 C 164.964844 34.203125 164.121094 34.503906 162.980469 34.503906 C 162.5625 34.503906 162.164062 34.472656 161.789062 34.410156 C 161.417969 34.347656 161.054688 34.25 160.703125 34.121094 L 160.703125 32.957031 C 161.054688 33.148438 161.402344 33.285156 161.746094 33.378906 C 162.085938 33.46875 162.4375 33.515625 162.792969 33.515625 C 163.578125 33.515625 164.167969 33.308594 164.558594 32.898438 C 164.949219 32.492188 165.144531 31.871094 165.144531 31.042969 L 165.144531 30.449219 C 164.894531 30.878906 164.578125 31.199219 164.191406 31.414062 C 163.804688 31.625 163.34375 31.730469 162.804688 31.730469 C 161.914062 31.730469 161.191406 31.390625 160.644531 30.710938 C 160.097656 30.027344 159.824219 29.125 159.824219 28 C 159.824219 26.871094 160.097656 25.96875 160.644531 25.289062 C 161.191406 24.605469 161.914062 24.265625 162.804688 24.265625 C 163.34375 24.265625 163.804688 24.371094 164.191406 24.582031 C 164.578125 24.796875 164.894531 25.117188 165.144531 25.546875 L 165.144531 24.441406 L 166.339844 24.441406 Z M 166.339844 30.828125 "/>
<path style=" stroke:none;fill-rule:nonzero;fill:rgb(0%,0%,0%);fill-opacity:1;" d="M 174.484375 25.839844 C 174.785156 25.300781 175.144531 24.902344 175.558594 24.648438 C 175.976562 24.390625 176.46875 24.265625 177.03125 24.265625 C 177.789062 24.265625 178.378906 24.53125 178.789062 25.0625 C 179.203125 25.59375 179.410156 26.347656 179.410156 27.328125 L 179.410156 31.730469 L 178.203125 31.730469 L 178.203125 27.367188 C 178.203125 26.671875 178.078125 26.152344 177.832031 25.816406 C 177.585938 25.476562 177.207031 25.304688 176.699219 25.304688 C 176.078125 25.304688 175.589844 25.511719 175.226562 25.925781 C 174.867188 26.335938 174.6875 26.898438 174.6875 27.609375 L 174.6875 31.730469 L 173.484375 31.730469 L 173.484375 27.367188 C 173.484375 26.664062 173.359375 26.148438 173.113281 25.808594 C 172.867188 25.472656 172.484375 25.304688 171.964844 25.304688 C 171.355469 25.304688 170.867188 25.511719 170.507812 25.925781 C 170.148438 26.339844 169.964844 26.902344 169.964844 27.609375 L 169.964844 31.730469 L 168.761719 31.730469 L 168.761719 24.441406 L 169.964844 24.441406 L 169.964844 25.574219 C 170.242188 25.125 170.566406 24.796875 170.949219 24.582031 C 171.332031 24.371094 171.785156 24.265625 172.308594 24.265625 C 172.839844 24.265625 173.292969 24.398438 173.664062 24.667969 C 174.035156 24.9375 174.308594 25.328125 174.484375 25.839844 Z M 174.484375 25.839844 "/>
<path style=" stroke:none;fill-rule:nonzero;fill:rgb(0%,0%,0%);fill-opacity:1;" d="M 185.109375 28.066406 C 184.144531 28.066406 183.472656 28.175781 183.097656 28.398438 C 182.726562 28.617188 182.539062 28.996094 182.539062 29.53125 C 182.539062 29.957031 182.679688 30.292969 182.960938 30.542969 C 183.238281 30.792969 183.621094 30.917969 184.101562 30.917969 C 184.765625 30.917969 185.300781 30.679688 185.699219 30.210938 C 186.101562 29.738281 186.304688 29.113281 186.304688 28.332031 L 186.304688 28.066406 Z M 187.5 27.570312 L 187.5 31.730469 L 186.304688 31.730469 L 186.304688 30.625 C 186.027344 31.066406 185.6875 31.394531 185.28125 31.605469 C 184.871094 31.816406 184.371094 31.921875 183.78125 31.921875 C 183.035156 31.921875 182.441406 31.710938 182 31.292969 C 181.558594 30.871094 181.339844 30.3125 181.339844 29.609375 C 181.339844 28.789062 181.613281 28.171875 182.164062 27.753906 C 182.714844 27.335938 183.53125 27.128906 184.621094 27.128906 L 186.304688 27.128906 L 186.304688 27.011719 C 186.304688 26.460938 186.121094 26.03125 185.757812 25.730469 C 185.398438 25.429688 184.886719 25.277344 184.230469 25.277344 C 183.816406 25.277344 183.410156 25.328125 183.011719 25.429688 C 182.617188 25.527344 182.238281 25.679688 181.875 25.878906 L 181.875 24.769531 C 182.3125 24.601562 182.738281 24.476562 183.152344 24.390625 C 183.5625 24.308594 183.964844 24.265625 184.355469 24.265625 C 185.410156 24.265625 186.199219 24.539062 186.71875 25.085938 C 187.242188 25.632812 187.5 26.460938 187.5 27.570312 Z M 187.5 27.570312 "/>
<path style=" stroke:none;fill-rule:nonzero;fill:rgb(0%,0%,0%);fill-opacity:1;" d="M 190.125 25.675781 L 198.46875 25.675781 L 198.46875 26.769531 L 190.125 26.769531 Z M 190.125 28.332031 L 198.46875 28.332031 L 198.46875 29.441406 L 190.125 29.441406 Z M 190.125 28.332031 "/>
<path style=" stroke:none;fill-rule:nonzero;fill:rgb(0%,0%,0%);fill-opacity:1;" d="M 201.535156 30.625 L 203.683594 30.625 L 203.683594 23.207031 L 201.347656 23.675781 L 201.347656 22.480469 L 203.671875 22.011719 L 204.988281 22.011719 L 204.988281 30.625 L 207.136719 30.625 L 207.136719 31.730469 L 201.535156 31.730469 Z M 201.535156 30.625 "/>
<path style=" stroke:none;fill-rule:nonzero;fill:rgb(0%,0%,0%);fill-opacity:1;" d="M 212.601562 22.878906 C 211.925781 22.878906 211.417969 23.210938 211.078125 23.878906 C 210.734375 24.542969 210.566406 25.542969 210.566406 26.882812 C 210.566406 28.214844 210.734375 29.210938 211.078125 29.878906 C 211.417969 30.546875 211.925781 30.878906 212.601562 30.878906 C 213.285156 30.878906 213.796875 30.546875 214.136719 29.878906 C 214.476562 29.210938 214.648438 28.214844 214.648438 26.882812 C 214.648438 25.542969 214.476562 24.542969 214.136719 23.878906 C 213.796875 23.210938 213.285156 22.878906 212.601562 22.878906 Z M 212.601562 21.835938 C 213.695312 21.835938 214.527344 22.265625 215.101562 23.128906 C 215.675781 23.992188 215.964844 25.242188 215.964844 26.882812 C 215.964844 28.515625 215.675781 29.765625 215.101562 30.628906 C 214.527344 31.492188 213.695312 31.921875 212.601562 31.921875 C 211.515625 31.921875 210.683594 31.492188 210.109375 30.628906 C 209.53125 29.765625 209.246094 28.515625 209.246094 26.882812 C 209.246094 25.242188 209.53125 23.992188 210.109375 23.128906 C 210.683594 22.265625 211.515625 21.835938 212.601562 21.835938 Z M 212.601562 21.835938 "/>
<path style=" stroke:none;fill-rule:nonzero;fill:rgb(0%,0%,0%);fill-opacity:1;" d="M 218.273438 30.078125 L 219.648438 30.078125 L 219.648438 31.730469 L 218.273438 31.730469 Z M 218.273438 30.078125 "/>
<path style=" stroke:none;fill-rule:nonzero;fill:rgb(0%,0%,0%);fill-opacity:1;" d="M 225.324219 22.878906 C 224.648438 22.878906 224.140625 23.210938 223.796875 23.878906 C 223.457031 24.542969 223.289062 25.542969 223.289062 26.882812 C 223.289062 28.214844 223.457031 29.210938 223.796875 29.878906 C 224.140625 30.546875 224.648438 30.878906 225.324219 30.878906 C 226.007812 30.878906 226.519531 30.546875 226.859375 29.878906 C 227.199219 29.210938 227.371094 28.214844 227.371094 26.882812 C 227.371094 25.542969 227.199219 24.542969 226.859375 23.878906 C 226.519531 23.210938 226.007812 22.878906 225.324219 22.878906 Z M 225.324219 21.835938 C 226.414062 21.835938 227.246094 22.265625 227.824219 23.128906 C 228.398438 23.992188 228.683594 25.242188 228.683594 26.882812 C 228.683594 28.515625 228.398438 29.765625 227.824219 30.628906 C 227.246094 31.492188 226.414062 31.921875 225.324219 31.921875 C 224.234375 31.921875 223.402344 31.492188 222.828125 30.628906 C 222.253906 29.765625 221.964844 28.515625 221.964844 26.882812 C 221.964844 25.242188 222.253906 23.992188 222.828125 23.128906 C 223.402344 22.265625 224.234375 21.835938 225.324219 21.835938 Z M 225.324219 21.835938 "/>
<path style="fill:none;stroke-width:1.5;stroke-linecap:butt;stroke-linejoin:round;stroke:rgb(100%,49.803922%,5.490196%);stroke-opacity:1;stroke-dasharray:5.55,2.4;stroke-miterlimit:4;" d="M 83.329102 34.977539 L 103.327148 34.977539 " transform="matrix(1.333333,0,0,1.333333,0,-0.000000000000014211)"/>
<path style=" stroke:none;fill-rule:nonzero;fill:rgb(0%,0%,0%);fill-opacity:1;" d="M 154.339844 44.226562 L 154.339844 45.359375 C 154.003906 45.183594 153.652344 45.054688 153.289062 44.96875 C 152.921875 44.882812 152.546875 44.835938 152.152344 44.835938 C 151.558594 44.835938 151.113281 44.929688 150.816406 45.109375 C 150.519531 45.292969 150.371094 45.566406 150.371094 45.929688 C 150.371094 46.210938 150.476562 46.425781 150.691406 46.585938 C 150.902344 46.742188 151.328125 46.894531 151.972656 47.039062 L 152.382812 47.128906 C 153.234375 47.3125 153.835938 47.566406 154.195312 47.898438 C 154.554688 48.230469 154.734375 48.695312 154.734375 49.289062 C 154.734375 49.96875 154.464844 50.503906 153.929688 50.898438 C 153.394531 51.292969 152.65625 51.492188 151.71875 51.492188 C 151.328125 51.492188 150.921875 51.453125 150.496094 51.378906 C 150.074219 51.300781 149.628906 51.1875 149.160156 51.035156 L 149.160156 49.796875 C 149.601562 50.027344 150.039062 50.203125 150.46875 50.316406 C 150.898438 50.429688 151.324219 50.488281 151.746094 50.488281 C 152.308594 50.488281 152.742188 50.390625 153.046875 50.199219 C 153.351562 50.003906 153.503906 49.734375 153.503906 49.382812 C 153.503906 49.054688 153.390625 48.808594 153.171875 48.632812 C 152.953125 48.460938 152.472656 48.292969 151.730469 48.132812 L 151.316406 48.035156 C 150.574219 47.878906 150.035156 47.636719 149.707031 47.316406 C 149.378906 46.992188 149.210938 46.546875 149.210938 45.984375 C 149.210938 45.296875 149.457031 44.769531 149.941406 44.394531 C 150.429688 44.023438 151.117188 43.835938 152.011719 43.835938 C 152.453125 43.835938 152.871094 43.867188 153.261719 43.933594 C 153.652344 43.996094 154.011719 44.09375 154.339844 44.226562 Z M 154.339844 44.226562 "/>
<path style=" stroke:none;fill-rule:nonzero;fill:rgb(0%,0%,0%);fill-opacity:1;" d="M 156.640625 44.011719 L 157.839844 44.011719 L 157.839844 51.300781 L 156.640625 51.300781 Z M 156.640625 41.171875 L 157.839844 41.171875 L 157.839844 42.691406 L 156.640625 42.691406 Z M 156.640625 41.171875 "/>
<path style=" stroke:none;fill-rule:nonzero;fill:rgb(0%,0%,0%);fill-opacity:1;" d="M 165.144531 47.570312 C 165.144531 46.703125 164.964844 46.03125 164.605469 45.554688 C 164.25 45.078125 163.746094 44.835938 163.097656 44.835938 C 162.457031 44.835938 161.957031 45.078125 161.597656 45.554688 C 161.242188 46.03125 161.0625 46.703125 161.0625 47.570312 C 161.0625 48.433594 161.242188 49.105469 161.597656 49.582031 C 161.957031 50.0625 162.457031 50.300781 163.097656 50.300781 C 163.746094 50.300781 164.25 50.0625 164.605469 49.582031 C 164.964844 49.105469 165.144531 48.433594 165.144531 47.570312 Z M 166.339844 50.398438 C 166.339844 51.636719 166.066406 52.5625 165.511719 53.167969 C 164.964844 53.773438 164.121094 54.074219 162.980469 54.074219 C 162.5625 54.074219 162.164062 54.042969 161.789062 53.980469 C 161.417969 53.917969 161.054688 53.820312 160.703125 53.691406 L 160.703125 52.527344 C 161.054688 52.71875 161.402344 52.859375 161.746094 52.949219 C 162.085938 53.039062 162.4375 53.085938 162.792969 53.085938 C 163.578125 53.085938 164.167969 52.878906 164.558594 52.472656 C 164.949219 52.0625 165.144531 51.441406 165.144531 50.613281 L 165.144531 50.019531 C 164.894531 50.449219 164.578125 50.769531 164.191406 50.984375 C 163.804688 51.195312 163.34375 51.300781 162.804688 51.300781 C 161.914062 51.300781 161.191406 50.960938 160.644531 50.28125 C 160.097656 49.597656 159.824219 48.695312 159.824219 47.570312 C 159.824219 46.441406 160.097656 45.539062 160.644531 44.859375 C 161.191406 44.175781 161.914062 43.835938 162.804688 43.835938 C 163.34375 43.835938 163.804688 43.941406 164.191406 44.152344 C 164.578125 44.367188 164.894531 44.6875 165.144531 45.117188 L 165.144531 44.011719 L 166.339844 44.011719 Z M 166.339844 50.398438 "/>
<path style=" stroke:none;fill-rule:nonzero;fill:rgb(0%,0%,0%);fill-opacity:1;" d="M 174.484375 45.410156 C 174.785156 44.871094 175.144531 44.472656 175.558594 44.21875 C 175.976562 43.964844 176.46875 43.835938 177.03125 43.835938 C 177.789062 43.835938 178.378906 44.101562 178.789062 44.632812 C 179.203125 45.164062 179.410156 45.917969 179.410156 46.898438 L 179.410156 51.300781 L 178.203125 51.300781 L 178.203125 46.941406 C 178.203125 46.242188 178.078125 45.722656 177.832031 45.386719 C 177.585938 45.046875 177.207031 44.878906 176.699219 44.878906 C 176.078125 44.878906 175.589844 45.082031 175.226562 45.496094 C 174.867188 45.90625 174.6875 46.46875 174.6875 47.179688 L 174.6875 51.300781 L 173.484375 51.300781 L 173.484375 46.941406 C 173.484375 46.238281 173.359375 45.71875 173.113281 45.382812 C 172.867188 45.046875 172.484375 44.878906 171.964844 44.878906 C 171.355469 44.878906 170.867188 45.085938 170.507812 45.496094 C 170.148438 45.910156 169.964844 46.472656 169.964844 47.179688 L 169.964844 51.300781 L 168.761719 51.300781 L 168.761719 44.011719 L 169.964844 44.011719 L 169.964844 45.144531 C 170.242188 44.695312 170.566406 44.367188 170.949219 44.152344 C 171.332031 43.941406 171.785156 43.835938 172.308594 43.835938 C 172.839844 43.835938 173.292969 43.96875 173.664062 44.238281 C 174.035156 44.507812 174.308594 44.898438 174.484375 45.410156 Z M 174.484375 45.410156 "/>
<path style=" stroke:none;fill-rule:nonzero;fill:rgb(0%,0%,0%);fill-opacity:1;" d="M 185.109375 47.636719 C 184.144531 47.636719 183.472656 47.746094 183.097656 47.96875 C 182.726562 48.191406 182.539062 48.566406 182.539062 49.101562 C 182.539062 49.527344 182.679688 49.863281 182.960938 50.113281 C 183.238281 50.363281 183.621094 50.488281 184.101562 50.488281 C 184.765625 50.488281 185.300781 50.253906 185.699219 49.78125 C 186.101562 49.308594 186.304688 48.683594 186.304688 47.902344 L 186.304688 47.636719 Z M 187.5 47.140625 L 187.5 51.300781 L 186.304688 51.300781 L 186.304688 50.195312 C 186.027344 50.636719 185.6875 50.964844 185.28125 51.175781 C 184.871094 51.386719 184.371094 51.492188 183.78125 51.492188 C 183.035156 51.492188 182.441406 51.28125 182 50.863281 C 181.558594 50.441406 181.339844 49.882812 181.339844 49.179688 C 181.339844 48.359375 181.613281 47.742188 182.164062 47.324219 C 182.714844 46.910156 183.53125 46.699219 184.621094 46.699219 L 186.304688 46.699219 L 186.304688 46.582031 C 186.304688 46.03125 186.121094 45.601562 185.757812 45.300781 C 185.398438 45 184.886719 44.851562 184.230469 44.851562 C 183.816406 44.851562 183.410156 44.898438 183.011719 45 C 182.617188 45.101562 182.238281 45.25 181.875 45.449219 L 181.875 44.339844 C 182.3125 44.171875 182.738281 44.046875 183.152344 43.960938 C 183.5625 43.878906 183.964844 43.835938 184.355469 43.835938 C 185.410156 43.835938 186.199219 44.109375 186.71875 44.65625 C 187.242188 45.203125 187.5 46.03125 187.5 47.140625 Z M 187.5 47.140625 "/>
<path style=" stroke:none;fill-rule:nonzero;fill:rgb(0%,0%,0%);fill-opacity:1;" d="M 190.125 45.246094 L 198.46875 45.246094 L 198.46875 46.339844 L 190.125 46.339844 Z M 190.125 47.902344 L 198.46875 47.902344 L 198.46875 49.011719 L 190.125 49.011719 Z M 190.125 47.902344 "/>
<path style=" stroke:none;fill-rule:nonzero;fill:rgb(0%,0%,0%);fill-opacity:1;" d="M 201.535156 50.195312 L 203.683594 50.195312 L 203.683594 42.777344 L 201.347656 43.246094 L 201.347656 42.050781 L 203.671875 41.582031 L 204.988281 41.582031 L 204.988281 50.195312 L 207.136719 50.195312 L 207.136719 51.300781 L 201.535156 51.300781 Z M 201.535156 50.195312 "/>
<path style=" stroke:none;fill-rule:nonzero;fill:rgb(0%,0%,0%);fill-opacity:1;" d="M 209.789062 49.648438 L 211.164062 49.648438 L 211.164062 51.300781 L 209.789062 51.300781 Z M 209.789062 49.648438 "/>
<path style=" stroke:none;fill-rule:nonzero;fill:rgb(0%,0%,0%);fill-opacity:1;" d="M 216.839844 42.449219 C 216.164062 42.449219 215.65625 42.78125 215.316406 43.449219 C 214.972656 44.113281 214.804688 45.113281 214.804688 46.453125 C 214.804688 47.785156 214.972656 48.785156 215.316406 49.449219 C 215.65625 50.117188 216.164062 50.449219 216.839844 50.449219 C 217.523438 50.449219 218.035156 50.117188 218.375 49.449219 C 218.714844 48.785156 218.886719 47.785156 218.886719 46.453125 C 218.886719 45.113281 218.714844 44.113281 218.375 43.449219 C 218.035156 42.78125 217.523438 42.449219 216.839844 42.449219 Z M 216.839844 41.40625 C 217.933594 41.40625 218.765625 41.835938 219.339844 42.699219 C 219.914062 43.5625 220.203125 44.8125 220.203125 46.453125 C 220.203125 48.089844 219.914062 49.335938 219.339844 50.199219 C 218.765625 51.0625 217.933594 51.492188 216.839844 51.492188 C 215.753906 51.492188 214.921875 51.0625 214.347656 50.199219 C 213.769531 49.335938 213.484375 48.089844 213.484375 46.453125 C 213.484375 44.8125 213.769531 43.5625 214.347656 42.699219 C 214.921875 41.835938 215.753906 41.40625 216.839844 41.40625 Z M 216.839844 41.40625 "/>
<path style="fill:none;stroke-width:1.5;stroke-linecap:butt;stroke-linejoin:round;stroke:rgb(17.254902%,62.7451%,17.254902%);stroke-opacity:1;stroke-dasharray:9.6,2.4,1.5,2.4;stroke-miterlimit:4;" d="M 83.329102 49.655273 L 103.327148 49.655273 " transform="matrix(1.333333,0,0,1.333333,0,-0.000000000000014211)"/>
<path style=" stroke:none;fill-rule:nonzero;fill:rgb(0%,0%,0%);fill-opacity:1;" d="M 154.339844 63.796875 L 154.339844 64.929688 C 154.003906 64.753906 153.652344 64.625 153.289062 64.539062 C 152.921875 64.453125 152.546875 64.410156 152.152344 64.410156 C 151.558594 64.410156 151.113281 64.5 150.816406 64.679688 C 150.519531 64.863281 150.371094 65.136719 150.371094 65.503906 C 150.371094 65.78125 150.476562 65.996094 150.691406 66.15625 C 150.902344 66.316406 151.328125 66.464844 151.972656 66.609375 L 152.382812 66.699219 C 153.234375 66.882812 153.835938 67.140625 154.195312 67.472656 C 154.554688 67.804688 154.734375 68.265625 154.734375 68.859375 C 154.734375 69.539062 154.464844 70.074219 153.929688 70.472656 C 153.394531 70.867188 152.65625 71.0625 151.71875 71.0625 C 151.328125 71.0625 150.921875 71.023438 150.496094 70.949219 C 150.074219 70.871094 149.628906 70.757812 149.160156 70.605469 L 149.160156 69.367188 C 149.601562 69.597656 150.039062 69.773438 150.46875 69.886719 C 150.898438 70 151.324219 70.058594 151.746094 70.058594 C 152.308594 70.058594 152.742188 69.960938 153.046875 69.769531 C 153.351562 69.574219 153.503906 69.304688 153.503906 68.953125 C 153.503906 68.628906 153.390625 68.378906 153.171875 68.203125 C 152.953125 68.03125 152.472656 67.863281 151.730469 67.703125 L 151.316406 67.605469 C 150.574219 67.449219 150.035156 67.210938 149.707031 66.886719 C 149.378906 66.5625 149.210938 66.117188 149.210938 65.554688 C 149.210938 64.867188 149.457031 64.339844 149.941406 63.964844 C 150.429688 63.59375 151.117188 63.40625 152.011719 63.40625 C 152.453125 63.40625 152.871094 63.4375 153.261719 63.503906 C 153.652344 63.566406 154.011719 63.664062 154.339844 63.796875 Z M 154.339844 63.796875 "/>
<path style=" stroke:none;fill-rule:nonzero;fill:rgb(0%,0%,0%);fill-opacity:1;" d="M 156.640625 63.582031 L 157.839844 63.582031 L 157.839844 70.871094 L 156.640625 70.871094 Z M 156.640625 60.742188 L 157.839844 60.742188 L 157.839844 62.261719 L 156.640625 62.261719 Z M 156.640625 60.742188 "/>
<path style=" stroke:none;fill-rule:nonzero;fill:rgb(0%,0%,0%);fill-opacity:1;" d="M 165.144531 67.140625 C 165.144531 66.273438 164.964844 65.601562 164.605469 65.125 C 164.25 64.648438 163.746094 64.410156 163.097656 64.410156 C 162.457031 64.410156 161.957031 64.648438 161.597656 65.125 C 161.242188 65.601562 161.0625 66.273438 161.0625 67.140625 C 161.0625 68.003906 161.242188 68.675781 161.597656 69.152344 C 161.957031 69.632812 162.457031 69.871094 163.097656 69.871094 C 163.746094 69.871094 164.25 69.632812 164.605469 69.152344 C 164.964844 68.675781 165.144531 68.003906 165.144531 67.140625 Z M 166.339844 69.96875 C 166.339844 71.210938 166.066406 72.132812 165.511719 72.738281 C 164.964844 73.34375 164.121094 73.644531 162.980469 73.644531 C 162.5625 73.644531 162.164062 73.613281 161.789062 73.550781 C 161.417969 73.488281 161.054688 73.394531 160.703125 73.261719 L 160.703125 72.097656 C 161.054688 72.289062 161.402344 72.429688 161.746094 72.519531 C 162.085938 72.609375 162.4375 72.65625 162.792969 72.65625 C 163.578125 72.65625 164.167969 72.453125 164.558594 72.042969 C 164.949219 71.632812 165.144531 71.011719 165.144531 70.183594 L 165.144531 69.589844 C 164.894531 70.019531 164.578125 70.339844 164.191406 70.554688 C 163.804688 70.765625 163.34375 70.871094 162.804688 70.871094 C 161.914062 70.871094 161.191406 70.53125 160.644531 69.851562 C 160.097656 69.171875 159.824219 68.265625 159.824219 67.140625 C 159.824219 66.015625 160.097656 65.109375 160.644531 64.429688 C 161.191406 63.746094 161.914062 63.40625 162.804688 63.40625 C 163.34375 63.40625 163.804688 63.511719 164.191406 63.726562 C 164.578125 63.9375 164.894531 64.257812 165.144531 64.6875 L 165.144531 63.582031 L 166.339844 63.582031 Z M 166.339844 69.96875 "/>
<path style=" stroke:none;fill-rule:nonzero;fill:rgb(0%,0%,0%);fill-opacity:1;" d="M 174.484375 64.980469 C 174.785156 64.441406 175.144531 64.046875 175.558594 63.789062 C 175.976562 63.535156 176.46875 63.40625 177.03125 63.40625 C 177.789062 63.40625 178.378906 63.671875 178.789062 64.203125 C 179.203125 64.734375 179.410156 65.492188 179.410156 66.472656 L 179.410156 70.871094 L 178.203125 70.871094 L 178.203125 66.511719 C 178.203125 65.8125 178.078125 65.292969 177.832031 64.957031 C 177.585938 64.617188 177.207031 64.449219 176.699219 64.449219 C 176.078125 64.449219 175.589844 64.652344 175.226562 65.066406 C 174.867188 65.476562 174.6875 66.039062 174.6875 66.753906 L 174.6875 70.871094 L 173.484375 70.871094 L 173.484375 66.511719 C 173.484375 65.808594 173.359375 65.289062 173.113281 64.953125 C 172.867188 64.617188 172.484375 64.449219 171.964844 64.449219 C 171.355469 64.449219 170.867188 64.65625 170.507812 65.070312 C 170.148438 65.484375 169.964844 66.042969 169.964844 66.753906 L 169.964844 70.871094 L 168.761719 70.871094 L 168.761719 63.582031 L 169.964844 63.582031 L 169.964844 64.714844 C 170.242188 64.265625 170.566406 63.9375 170.949219 63.726562 C 171.332031 63.511719 171.785156 63.40625 172.308594 63.40625 C 172.839844 63.40625 173.292969 63.539062 173.664062 63.808594 C 174.035156 64.078125 174.308594 64.46875 174.484375 64.980469 Z M 174.484375 64.980469 "/>
<path style=" stroke:none;fill-rule:nonzero;fill:rgb(0%,0%,0%);fill-opacity:1;" d="M 185.109375 67.207031 C 184.144531 67.207031 183.472656 67.320312 183.097656 67.539062 C 182.726562 67.761719 182.539062 68.136719 182.539062 68.671875 C 182.539062 69.097656 182.679688 69.433594 182.960938 69.683594 C 183.238281 69.933594 183.621094 70.058594 184.101562 70.058594 C 184.765625 70.058594 185.300781 69.824219 185.699219 69.351562 C 186.101562 68.882812 186.304688 68.253906 186.304688 67.476562 L 186.304688 67.207031 Z M 187.5 66.710938 L 187.5 70.871094 L 186.304688 70.871094 L 186.304688 69.765625 C 186.027344 70.207031 185.6875 70.535156 185.28125 70.746094 C 184.871094 70.957031 184.371094 71.0625 183.78125 71.0625 C 183.035156 71.0625 182.441406 70.851562 182 70.433594 C 181.558594 70.015625 181.339844 69.453125 181.339844 68.75 C 181.339844 67.929688 181.613281 67.3125 182.164062 66.894531 C 182.714844 66.480469 183.53125 66.269531 184.621094 66.269531 L 186.304688 66.269531 L 186.304688 66.152344 C 186.304688 65.601562 186.121094 65.175781 185.757812 64.871094 C 185.398438 64.570312 184.886719 64.421875 184.230469 64.421875 C 183.816406 64.421875 183.410156 64.472656 183.011719 64.570312 C 182.617188 64.671875 182.238281 64.820312 181.875 65.019531 L 181.875 63.914062 C 182.3125 63.742188 182.738281 63.617188 183.152344 63.535156 C 183.5625 63.449219 183.964844 63.40625 184.355469 63.40625 C 185.410156 63.40625 186.199219 63.679688 186.71875 64.226562 C 187.242188 64.773438 187.5 65.601562 187.5 66.710938 Z M 187.5 66.710938 "/>
<path style=" stroke:none;fill-rule:nonzero;fill:rgb(0%,0%,0%);fill-opacity:1;" d="M 190.125 64.820312 L 198.46875 64.820312 L 198.46875 65.914062 L 190.125 65.914062 Z M 190.125 67.476562 L 198.46875 67.476562 L 198.46875 68.582031 L 190.125 68.582031 Z M 190.125 67.476562 "/>
<path style=" stroke:none;fill-rule:nonzero;fill:rgb(0%,0%,0%);fill-opacity:1;" d="M 204.121094 62.019531 C 203.445312 62.019531 202.933594 62.351562 202.59375 63.019531 C 202.253906 63.683594 202.082031 64.683594 202.082031 66.023438 C 202.082031 67.355469 202.253906 68.355469 202.59375 69.019531 C 202.933594 69.6875 203.445312 70.019531 204.121094 70.019531 C 204.800781 70.019531 205.3125 69.6875 205.652344 69.019531 C 205.996094 68.355469 206.167969 67.355469 206.167969 66.023438 C 206.167969 64.683594 205.996094 63.683594 205.652344 63.019531 C 205.3125 62.351562 204.800781 62.019531 204.121094 62.019531 Z M 204.121094 60.976562 C 205.210938 60.976562 206.042969 61.410156 206.617188 62.269531 C 207.191406 63.132812 207.480469 64.382812 207.480469 66.023438 C 207.480469 67.660156 207.191406 68.910156 206.617188 69.769531 C 206.042969 70.632812 205.210938 71.0625 204.121094 71.0625 C 203.03125 71.0625 202.199219 70.632812 201.625 69.769531 C 201.050781 68.910156 200.761719 67.660156 200.761719 66.023438 C 200.761719 64.382812 201.050781 63.132812 201.625 62.269531 C 202.199219 61.410156 203.03125 60.976562 204.121094 60.976562 Z M 204.121094 60.976562 "/>
<path style=" stroke:none;fill-rule:nonzero;fill:rgb(0%,0%,0%);fill-opacity:1;" d="M 209.789062 69.21875 L 211.164062 69.21875 L 211.164062 70.871094 L 209.789062 70.871094 Z M 209.789062 69.21875 "/>
<path style=" stroke:none;fill-rule:nonzero;fill:rgb(0%,0%,0%);fill-opacity:1;" d="M 214.042969 61.152344 L 219.207031 61.152344 L 219.207031 62.261719 L 215.246094 62.261719 L 215.246094 64.640625 C 215.4375 64.578125 215.628906 64.527344 215.820312 64.496094 C 216.011719 64.464844 216.203125 64.449219 216.394531 64.449219 C 217.476562 64.449219 218.335938 64.746094 218.972656 65.339844 C 219.605469 65.933594 219.921875 66.738281 219.921875 67.753906 C 219.921875 68.800781 219.597656 69.613281 218.945312 70.195312 C 218.292969 70.773438 217.375 71.0625 216.191406 71.0625 C 215.785156 71.0625 215.367188 71.027344 214.945312 70.957031 C 214.523438 70.890625 214.085938 70.785156 213.632812 70.644531 L 213.632812 69.324219 C 214.023438 69.535156 214.425781 69.695312 214.84375 69.796875 C 215.261719 69.902344 215.699219 69.953125 216.164062 69.953125 C 216.914062 69.953125 217.511719 69.757812 217.949219 69.363281 C 218.386719 68.96875 218.605469 68.433594 218.605469 67.753906 C 218.605469 67.078125 218.386719 66.542969 217.949219 66.148438 C 217.511719 65.753906 216.914062 65.554688 216.164062 65.554688 C 215.8125 65.554688 215.460938 65.59375 215.113281 65.671875 C 214.765625 65.75 214.40625 65.871094 214.042969 66.035156 Z M 214.042969 61.152344 "/>
</g>
</svg>
