<?xml version="1.0" encoding="UTF-8"?>
<svg xmlns="http://www.w3.org/2000/svg" xmlns:xlink="http://www.w3.org/1999/xlink" width="335.587504" height="244.474996" viewBox="0 0 335.587504 244.474996" version="1.1">
<defs>
<clipPath id="clip1">
  <path d="M 111 9.601562 L 113 9.601562 L 113 194.398438 L 111 194.398438 Z M 111 9.601562 "/>
</clipPath>
<clipPath id="clip2">
  <path d="M 179 9.601562 L 182 9.601562 L 182 194.398438 L 179 194.398438 Z M 179 9.601562 "/>
</clipPath>
<clipPath id="clip3">
  <path d="M 248 9.601562 L 250 9.601562 L 250 194.398438 L 248 194.398438 Z M 248 9.601562 "/>
</clipPath>
<clipPath id="clip4">
  <path d="M 316 9.601562 L 317.503906 9.601562 L 317.503906 194.398438 L 316 194.398438 Z M 316 9.601562 "/>
</clipPath>
<clipPath id="clip5">
  <path d="M 57.105469 167 L 317.503906 167 L 317.503906 170 L 57.105469 170 Z M 57.105469 167 "/>
</clipPath>
<clipPath id="clip6">
  <path d="M 57.105469 121 L 317.503906 121 L 317.503906 124 L 57.105469 124 Z M 57.105469 121 "/>
</clipPath>
<clipPath id="clip7">
  <path d="M 57.105469 76 L 317.503906 76 L 317.503906 78 L 57.105469 78 Z M 57.105469 76 "/>
</clipPath>
<clipPath id="clip8">
  <path d="M 57.105469 30 L 317.503906 30 L 317.503906 32 L 57.105469 32 Z M 57.105469 30 "/>
</clipPath>
<clipPath id="clip9">
  <path d="M 57.105469 16 L 317.503906 16 L 317.503906 187 L 57.105469 187 Z M 57.105469 16 "/>
</clipPath>
<clipPath id="clip10">
  <path d="M 57.105469 164 L 317.503906 164 L 317.503906 187 L 57.105469 187 Z M 57.105469 164 "/>
</clipPath>
<filter id="alpha" filterUnits="objectBoundingBox" x="0%" y="0%" width="100%" height="100%">
  <feColorMatrix type="matrix" in="SourceGraphic" values="0 0 0 0 1 0 0 0 0 1 0 0 0 0 1 0 0 0 1 0"/>
</filter>
<mask id="mask0">
  <g filter="url(#alpha)">
<rect x="0" y="0" width="335.587504" height="244.474996" style="fill:rgb(0%,0%,0%);fill-opacity:0.8;stroke:none;"/>
  </g>
</mask>
<clipPath id="clip11">
  <rect x="0" y="0" width="336" height="245"/>
</clipPath>
<g id="surface5" clip-path="url(#clip11)">
<path style="fill-rule:nonzero;fill:rgb(100%,100%,100%);fill-opacity:1;stroke-width:1;stroke-linecap:butt;stroke-linejoin:miter;stroke:rgb(80.000001%,80.000001%,80.000001%);stroke-opacity:1;stroke-miterlimit:4;" d="M 146.920898 44.557617 L 231.128906 44.557617 C 232.461914 44.557617 233.126953 43.889648 233.126953 42.556641 L 233.126953 14.200195 C 233.126953 12.867188 232.461914 12.199219 231.128906 12.199219 L 146.920898 12.199219 C 145.587891 12.199219 144.922852 12.867188 144.922852 14.200195 L 144.922852 42.556641 C 144.922852 43.889648 145.587891 44.557617 146.920898 44.557617 Z M 146.920898 44.557617 " transform="matrix(1.333333,0,0,1.333333,0,-0.000000000000014211)"/>
</g>
</defs>
<g id="surface1">
<path style=" stroke:none;fill-rule:nonzero;fill:rgb(100%,100%,100%);fill-opacity:1;" d="M 0 244.476562 L 335.585938 244.476562 L 335.585938 0 L 0 0 Z M 0 244.476562 "/>
<path style=" stroke:none;fill-rule:nonzero;fill:rgb(100%,100%,100%);fill-opacity:1;" d="M 57.105469 194.398438 L 317.503906 194.398438 L 317.503906 9.601562 L 57.105469 9.601562 Z M 57.105469 194.398438 "/>
<g clip-path="url(#clip1)" clip-rule="nonzero">
<path style="fill:none;stroke-width:0.8;stroke-linecap:square;stroke-linejoin:round;stroke:rgb(69.01961%,69.01961%,69.01961%);stroke-opacity:1;stroke-miterlimit:4;" d="M 83.944336 145.798828 L 83.944336 7.201172 " transform="matrix(1.333333,0,0,1.333333,0,-0.000000000000014211)"/>
</g>
<path style="fill:none;stroke-width:0.8;stroke-linecap:butt;stroke-linejoin:round;stroke:rgb(0%,0%,0%);stroke-opacity:1;stroke-miterlimit:4;" d="M 0.000419617 -0.00117493 L 0.000419617 3.499802 " transform="matrix(1.333333,0,0,1.333333,111.925222,194.400004)"/>
<path style=" stroke:none;fill-rule:nonzero;fill:rgb(0%,0%,0%);fill-opacity:1;" d="M 109.125 204.144531 L 114.285156 204.144531 L 114.285156 205.253906 L 110.328125 205.253906 L 110.328125 207.632812 C 110.519531 207.566406 110.707031 207.519531 110.898438 207.488281 C 111.089844 207.457031 111.28125 207.441406 111.472656 207.441406 C 112.558594 207.441406 113.417969 207.738281 114.050781 208.332031 C 114.683594 208.925781 115.003906 209.730469 115.003906 210.746094 C 115.003906 211.792969 114.675781 212.605469 114.023438 213.183594 C 113.375 213.765625 112.457031 214.054688 111.269531 214.054688 C 110.863281 214.054688 110.445312 214.019531 110.023438 213.949219 C 109.601562 213.878906 109.164062 213.777344 108.710938 213.636719 L 108.710938 212.316406 C 109.101562 212.527344 109.507812 212.683594 109.921875 212.789062 C 110.339844 212.894531 110.78125 212.945312 111.242188 212.945312 C 111.996094 212.945312 112.589844 212.75 113.027344 212.355469 C 113.464844 211.960938 113.6875 211.421875 113.6875 210.746094 C 113.6875 210.070312 113.464844 209.535156 113.027344 209.140625 C 112.589844 208.742188 111.996094 208.546875 111.242188 208.546875 C 110.894531 208.546875 110.542969 208.585938 110.191406 208.664062 C 109.84375 208.742188 109.488281 208.863281 109.125 209.027344 Z M 109.125 204.144531 "/>
<g clip-path="url(#clip2)" clip-rule="nonzero">
<path style="fill:none;stroke-width:0.8;stroke-linecap:square;stroke-linejoin:round;stroke:rgb(69.01961%,69.01961%,69.01961%);stroke-opacity:1;stroke-miterlimit:4;" d="M 135.339844 145.798828 L 135.339844 7.201172 " transform="matrix(1.333333,0,0,1.333333,0,-0.000000000000014211)"/>
</g>
<path style="fill:none;stroke-width:0.8;stroke-linecap:butt;stroke-linejoin:round;stroke:rgb(0%,0%,0%);stroke-opacity:1;stroke-miterlimit:4;" d="M 0.00119019 -0.00117493 L 0.00119019 3.499802 " transform="matrix(1.333333,0,0,1.333333,180.451538,194.400004)"/>
<path style=" stroke:none;fill-rule:nonzero;fill:rgb(0%,0%,0%);fill-opacity:1;" d="M 173.621094 212.757812 L 175.769531 212.757812 L 175.769531 205.339844 L 173.433594 205.808594 L 173.433594 204.613281 L 175.757812 204.144531 L 177.074219 204.144531 L 177.074219 212.757812 L 179.21875 212.757812 L 179.21875 213.863281 L 173.621094 213.863281 Z M 173.621094 212.757812 "/>
<path style=" stroke:none;fill-rule:nonzero;fill:rgb(0%,0%,0%);fill-opacity:1;" d="M 184.6875 205.011719 C 184.011719 205.011719 183.503906 205.34375 183.160156 206.011719 C 182.820312 206.675781 182.652344 207.675781 182.652344 209.015625 C 182.652344 210.347656 182.820312 211.347656 183.160156 212.011719 C 183.503906 212.679688 184.011719 213.011719 184.6875 213.011719 C 185.371094 213.011719 185.882812 212.679688 186.222656 212.011719 C 186.5625 211.347656 186.734375 210.347656 186.734375 209.015625 C 186.734375 207.675781 186.5625 206.675781 186.222656 206.011719 C 185.882812 205.34375 185.371094 205.011719 184.6875 205.011719 Z M 184.6875 203.96875 C 185.777344 203.96875 186.613281 204.398438 187.1875 205.261719 C 187.761719 206.125 188.050781 207.375 188.050781 209.015625 C 188.050781 210.652344 187.761719 211.898438 187.1875 212.761719 C 186.613281 213.625 185.777344 214.054688 184.6875 214.054688 C 183.601562 214.054688 182.769531 213.625 182.191406 212.761719 C 181.617188 211.898438 181.332031 210.652344 181.332031 209.015625 C 181.332031 207.375 181.617188 206.125 182.191406 205.261719 C 182.769531 204.398438 183.601562 203.96875 184.6875 203.96875 Z M 184.6875 203.96875 "/>
<g clip-path="url(#clip3)" clip-rule="nonzero">
<path style="fill:none;stroke-width:0.8;stroke-linecap:square;stroke-linejoin:round;stroke:rgb(69.01961%,69.01961%,69.01961%);stroke-opacity:1;stroke-miterlimit:4;" d="M 186.732422 145.798828 L 186.732422 7.201172 " transform="matrix(1.333333,0,0,1.333333,0,-0.000000000000014211)"/>
</g>
<path style="fill:none;stroke-width:0.8;stroke-linecap:butt;stroke-linejoin:round;stroke:rgb(0%,0%,0%);stroke-opacity:1;stroke-miterlimit:4;" d="M -0.000961304 -0.00117493 L -0.000961304 3.499802 " transform="matrix(1.333333,0,0,1.333333,248.977844,194.400004)"/>
<path style=" stroke:none;fill-rule:nonzero;fill:rgb(0%,0%,0%);fill-opacity:1;" d="M 242.148438 212.757812 L 244.296875 212.757812 L 244.296875 205.339844 L 241.960938 205.808594 L 241.960938 204.613281 L 244.285156 204.144531 L 245.597656 204.144531 L 245.597656 212.757812 L 247.746094 212.757812 L 247.746094 213.863281 L 242.148438 213.863281 Z M 242.148438 212.757812 "/>
<path style=" stroke:none;fill-rule:nonzero;fill:rgb(0%,0%,0%);fill-opacity:1;" d="M 250.417969 204.144531 L 255.578125 204.144531 L 255.578125 205.253906 L 251.621094 205.253906 L 251.621094 207.632812 C 251.8125 207.566406 252 207.519531 252.191406 207.488281 C 252.382812 207.457031 252.574219 207.441406 252.765625 207.441406 C 253.851562 207.441406 254.710938 207.738281 255.34375 208.332031 C 255.980469 208.925781 256.296875 209.730469 256.296875 210.746094 C 256.296875 211.792969 255.96875 212.605469 255.320312 213.183594 C 254.667969 213.765625 253.75 214.054688 252.566406 214.054688 C 252.15625 214.054688 251.742188 214.019531 251.316406 213.949219 C 250.894531 213.878906 250.457031 213.777344 250.007812 213.636719 L 250.007812 212.316406 C 250.398438 212.527344 250.800781 212.683594 251.21875 212.789062 C 251.632812 212.894531 252.074219 212.945312 252.539062 212.945312 C 253.289062 212.945312 253.882812 212.75 254.320312 212.355469 C 254.761719 211.960938 254.980469 211.421875 254.980469 210.746094 C 254.980469 210.070312 254.761719 209.535156 254.320312 209.140625 C 253.882812 208.742188 253.289062 208.546875 252.539062 208.546875 C 252.1875 208.546875 251.835938 208.585938 251.484375 208.664062 C 251.136719 208.742188 250.78125 208.863281 250.417969 209.027344 Z M 250.417969 204.144531 "/>
<g clip-path="url(#clip4)" clip-rule="nonzero">
<path style="fill:none;stroke-width:0.8;stroke-linecap:square;stroke-linejoin:round;stroke:rgb(69.01961%,69.01961%,69.01961%);stroke-opacity:1;stroke-miterlimit:4;" d="M 238.12793 145.798828 L 238.12793 7.201172 " transform="matrix(1.333333,0,0,1.333333,0,-0.000000000000014211)"/>
</g>
<path style="fill:none;stroke-width:0.8;stroke-linecap:butt;stroke-linejoin:round;stroke:rgb(0%,0%,0%);stroke-opacity:1;stroke-miterlimit:4;" d="M -0.000198364 -0.00117493 L -0.000198364 3.499802 " transform="matrix(1.333333,0,0,1.333333,317.504171,194.400004)"/>
<path style=" stroke:none;fill-rule:nonzero;fill:rgb(0%,0%,0%);fill-opacity:1;" d="M 311.578125 212.757812 L 316.167969 212.757812 L 316.167969 213.863281 L 309.996094 213.863281 L 309.996094 212.757812 C 310.496094 212.242188 311.175781 211.546875 312.039062 210.679688 C 312.898438 209.808594 313.441406 209.246094 313.664062 208.992188 C 314.082031 208.523438 314.378906 208.121094 314.542969 207.792969 C 314.710938 207.464844 314.796875 207.144531 314.796875 206.828125 C 314.796875 206.308594 314.613281 205.890625 314.253906 205.566406 C 313.890625 205.238281 313.417969 205.074219 312.835938 205.074219 C 312.421875 205.074219 311.988281 205.148438 311.527344 205.289062 C 311.070312 205.433594 310.582031 205.648438 310.0625 205.941406 L 310.0625 204.613281 C 310.589844 204.398438 311.085938 204.238281 311.546875 204.132812 C 312.007812 204.023438 312.429688 203.96875 312.808594 203.96875 C 313.816406 203.96875 314.621094 204.222656 315.21875 204.726562 C 315.816406 205.226562 316.117188 205.898438 316.117188 206.742188 C 316.117188 207.140625 316.042969 207.519531 315.890625 207.878906 C 315.742188 208.234375 315.472656 208.65625 315.074219 209.144531 C 314.964844 209.269531 314.621094 209.632812 314.039062 210.234375 C 313.460938 210.835938 312.640625 211.679688 311.578125 212.757812 Z M 311.578125 212.757812 "/>
<path style=" stroke:none;fill-rule:nonzero;fill:rgb(0%,0%,0%);fill-opacity:1;" d="M 321.742188 205.011719 C 321.066406 205.011719 320.554688 205.34375 320.214844 206.011719 C 319.875 206.675781 319.703125 207.675781 319.703125 209.015625 C 319.703125 210.347656 319.875 211.347656 320.214844 212.011719 C 320.554688 212.679688 321.066406 213.011719 321.742188 213.011719 C 322.421875 213.011719 322.933594 212.679688 323.273438 212.011719 C 323.617188 211.347656 323.789062 210.347656 323.789062 209.015625 C 323.789062 207.675781 323.617188 206.675781 323.273438 206.011719 C 322.933594 205.34375 322.421875 205.011719 321.742188 205.011719 Z M 321.742188 203.96875 C 322.832031 203.96875 323.664062 204.398438 324.238281 205.261719 C 324.8125 206.125 325.101562 207.375 325.101562 209.015625 C 325.101562 210.652344 324.8125 211.898438 324.238281 212.761719 C 323.664062 213.625 322.832031 214.054688 321.742188 214.054688 C 320.652344 214.054688 319.820312 213.625 319.246094 212.761719 C 318.671875 211.898438 318.382812 210.652344 318.382812 209.015625 C 318.382812 207.375 318.671875 206.125 319.246094 205.261719 C 319.820312 204.398438 320.652344 203.96875 321.742188 203.96875 Z M 321.742188 203.96875 "/>
<path style=" stroke:none;fill-rule:nonzero;fill:rgb(0%,0%,0%);fill-opacity:1;" d="M 174.492188 228.15625 L 174.492188 228.742188 L 168.984375 228.742188 C 169.039062 229.566406 169.285156 230.195312 169.730469 230.628906 C 170.175781 231.058594 170.796875 231.273438 171.589844 231.273438 C 172.050781 231.273438 172.496094 231.21875 172.925781 231.105469 C 173.359375 230.992188 173.789062 230.824219 174.214844 230.597656 L 174.214844 231.730469 C 173.785156 231.914062 173.34375 232.050781 172.890625 232.148438 C 172.441406 232.242188 171.984375 232.292969 171.519531 232.292969 C 170.355469 232.292969 169.433594 231.953125 168.753906 231.277344 C 168.074219 230.597656 167.734375 229.683594 167.734375 228.527344 C 167.734375 227.335938 168.058594 226.386719 168.703125 225.6875 C 169.347656 224.984375 170.214844 224.636719 171.308594 224.636719 C 172.289062 224.636719 173.066406 224.953125 173.636719 225.582031 C 174.207031 226.214844 174.492188 227.070312 174.492188 228.15625 Z M 173.296875 227.804688 C 173.289062 227.148438 173.105469 226.628906 172.746094 226.238281 C 172.386719 225.847656 171.914062 225.648438 171.324219 225.648438 C 170.65625 225.648438 170.121094 225.839844 169.71875 226.214844 C 169.316406 226.59375 169.085938 227.125 169.023438 227.8125 Z M 173.296875 227.804688 "/>
<path style=" stroke:none;fill-rule:nonzero;fill:rgb(0%,0%,0%);fill-opacity:1;" d="M 177.617188 231.007812 L 177.617188 234.875 L 176.414062 234.875 L 176.414062 224.808594 L 177.617188 224.808594 L 177.617188 225.917969 C 177.871094 225.484375 178.1875 225.160156 178.570312 224.953125 C 178.957031 224.742188 179.414062 224.636719 179.949219 224.636719 C 180.835938 224.636719 181.554688 224.988281 182.105469 225.691406 C 182.660156 226.390625 182.9375 227.316406 182.9375 228.460938 C 182.9375 229.609375 182.660156 230.535156 182.105469 231.238281 C 181.554688 231.941406 180.835938 232.292969 179.949219 232.292969 C 179.414062 232.292969 178.957031 232.1875 178.570312 231.976562 C 178.1875 231.765625 177.871094 231.441406 177.617188 231.007812 Z M 181.695312 228.460938 C 181.695312 227.582031 181.511719 226.890625 181.152344 226.390625 C 180.789062 225.886719 180.289062 225.636719 179.65625 225.636719 C 179.023438 225.636719 178.523438 225.886719 178.160156 226.390625 C 177.800781 226.890625 177.617188 227.582031 177.617188 228.460938 C 177.617188 229.34375 177.800781 230.035156 178.160156 230.535156 C 178.523438 231.035156 179.023438 231.289062 179.65625 231.289062 C 180.289062 231.289062 180.789062 231.035156 181.152344 230.535156 C 181.511719 230.035156 181.695312 229.34375 181.695312 228.460938 Z M 181.695312 228.460938 "/>
<path style=" stroke:none;fill-rule:nonzero;fill:rgb(0%,0%,0%);fill-opacity:1;" d="M 187.746094 225.648438 C 187.105469 225.648438 186.597656 225.902344 186.226562 226.402344 C 185.851562 226.902344 185.664062 227.589844 185.664062 228.460938 C 185.664062 229.335938 185.851562 230.023438 186.222656 230.523438 C 186.59375 231.023438 187.101562 231.273438 187.746094 231.273438 C 188.386719 231.273438 188.890625 231.023438 189.265625 230.519531 C 189.636719 230.015625 189.824219 229.332031 189.824219 228.460938 C 189.824219 227.597656 189.636719 226.914062 189.265625 226.410156 C 188.890625 225.902344 188.386719 225.648438 187.746094 225.648438 Z M 187.746094 224.636719 C 188.789062 224.636719 189.609375 224.972656 190.203125 225.652344 C 190.796875 226.328125 191.097656 227.265625 191.097656 228.460938 C 191.097656 229.65625 190.796875 230.59375 190.203125 231.273438 C 189.609375 231.953125 188.789062 232.292969 187.746094 232.292969 C 186.703125 232.292969 185.882812 231.953125 185.289062 231.273438 C 184.699219 230.59375 184.402344 229.65625 184.402344 228.460938 C 184.402344 227.265625 184.699219 226.328125 185.289062 225.652344 C 185.882812 224.972656 186.703125 224.636719 187.746094 224.636719 Z M 187.746094 224.636719 "/>
<path style=" stroke:none;fill-rule:nonzero;fill:rgb(0%,0%,0%);fill-opacity:1;" d="M 198.328125 225.089844 L 198.328125 226.210938 C 197.988281 226.023438 197.648438 225.882812 197.308594 225.789062 C 196.96875 225.695312 196.625 225.648438 196.277344 225.648438 C 195.5 225.648438 194.894531 225.898438 194.464844 226.390625 C 194.035156 226.882812 193.820312 227.570312 193.820312 228.460938 C 193.820312 229.351562 194.035156 230.042969 194.464844 230.539062 C 194.894531 231.027344 195.5 231.273438 196.277344 231.273438 C 196.625 231.273438 196.96875 231.226562 197.308594 231.136719 C 197.648438 231.042969 197.988281 230.902344 198.328125 230.714844 L 198.328125 231.824219 C 197.992188 231.976562 197.648438 232.09375 197.289062 232.171875 C 196.933594 232.253906 196.550781 232.292969 196.148438 232.292969 C 195.046875 232.292969 194.175781 231.945312 193.527344 231.257812 C 192.882812 230.566406 192.558594 229.632812 192.558594 228.460938 C 192.558594 227.273438 192.886719 226.339844 193.539062 225.660156 C 194.191406 224.976562 195.089844 224.636719 196.226562 224.636719 C 196.59375 224.636719 196.953125 224.671875 197.304688 224.75 C 197.65625 224.824219 197.996094 224.9375 198.328125 225.089844 Z M 198.328125 225.089844 "/>
<path style=" stroke:none;fill-rule:nonzero;fill:rgb(0%,0%,0%);fill-opacity:1;" d="M 206.472656 227.699219 L 206.472656 232.101562 L 205.277344 232.101562 L 205.277344 227.738281 C 205.277344 227.050781 205.140625 226.535156 204.871094 226.191406 C 204.601562 225.847656 204.199219 225.675781 203.660156 225.675781 C 203.015625 225.675781 202.503906 225.882812 202.128906 226.296875 C 201.757812 226.707031 201.570312 227.269531 201.570312 227.980469 L 201.570312 232.101562 L 200.367188 232.101562 L 200.367188 221.972656 L 201.570312 221.972656 L 201.570312 225.945312 C 201.855469 225.503906 202.195312 225.175781 202.582031 224.960938 C 202.972656 224.742188 203.417969 224.636719 203.929688 224.636719 C 204.765625 224.636719 205.398438 224.894531 205.828125 225.414062 C 206.257812 225.929688 206.472656 226.691406 206.472656 227.699219 Z M 206.472656 227.699219 "/>
<g clip-path="url(#clip5)" clip-rule="nonzero">
<path style="fill:none;stroke-width:0.8;stroke-linecap:square;stroke-linejoin:round;stroke:rgb(69.01961%,69.01961%,69.01961%);stroke-opacity:1;stroke-miterlimit:4;" d="M 42.829102 126.319336 L 238.12793 126.319336 " transform="matrix(1.333333,0,0,1.333333,0,-0.000000000000014211)"/>
</g>
<path style="fill:none;stroke-width:0.8;stroke-linecap:butt;stroke-linejoin:round;stroke:rgb(0%,0%,0%);stroke-opacity:1;stroke-miterlimit:4;" d="M 0.000976562 -0.000213623 L -3.5 -0.000213623 " transform="matrix(1.333333,0,0,1.333333,57.104167,168.426066)"/>
<path style=" stroke:none;fill-rule:nonzero;fill:rgb(0%,0%,0%);fill-opacity:1;" d="M 13.835938 164.636719 C 13.160156 164.636719 12.652344 164.972656 12.308594 165.636719 C 11.96875 166.304688 11.800781 167.304688 11.800781 168.640625 C 11.800781 169.972656 11.96875 170.972656 12.308594 171.640625 C 12.652344 172.304688 13.160156 172.640625 13.835938 172.640625 C 14.519531 172.640625 15.03125 172.304688 15.371094 171.640625 C 15.710938 170.972656 15.882812 169.972656 15.882812 168.640625 C 15.882812 167.304688 15.710938 166.304688 15.371094 165.636719 C 15.03125 164.972656 14.519531 164.636719 13.835938 164.636719 Z M 13.835938 163.597656 C 14.929688 163.597656 15.761719 164.027344 16.335938 164.890625 C 16.910156 165.75 17.199219 167 17.199219 168.640625 C 17.199219 170.277344 16.910156 171.527344 16.335938 172.390625 C 15.761719 173.25 14.929688 173.679688 13.835938 173.679688 C 12.75 173.679688 11.917969 173.25 11.339844 172.390625 C 10.765625 171.527344 10.480469 170.277344 10.480469 168.640625 C 10.480469 167 10.765625 165.75 11.339844 164.890625 C 11.917969 164.027344 12.75 163.597656 13.835938 163.597656 Z M 13.835938 163.597656 "/>
<path style=" stroke:none;fill-rule:nonzero;fill:rgb(0%,0%,0%);fill-opacity:1;" d="M 19.507812 171.835938 L 20.882812 171.835938 L 20.882812 173.492188 L 19.507812 173.492188 Z M 19.507812 171.835938 "/>
<path style=" stroke:none;fill-rule:nonzero;fill:rgb(0%,0%,0%);fill-opacity:1;" d="M 26.558594 164.636719 C 25.882812 164.636719 25.375 164.972656 25.03125 165.636719 C 24.691406 166.304688 24.519531 167.304688 24.519531 168.640625 C 24.519531 169.972656 24.691406 170.972656 25.03125 171.640625 C 25.375 172.304688 25.882812 172.640625 26.558594 172.640625 C 27.242188 172.640625 27.75 172.304688 28.09375 171.640625 C 28.433594 170.972656 28.605469 169.972656 28.605469 168.640625 C 28.605469 167.304688 28.433594 166.304688 28.09375 165.636719 C 27.75 164.972656 27.242188 164.636719 26.558594 164.636719 Z M 26.558594 163.597656 C 27.648438 163.597656 28.480469 164.027344 29.058594 164.890625 C 29.632812 165.75 29.917969 167 29.917969 168.640625 C 29.917969 170.277344 29.632812 171.527344 29.058594 172.390625 C 28.480469 173.25 27.648438 173.679688 26.558594 173.679688 C 25.46875 173.679688 24.636719 173.25 24.0625 172.390625 C 23.488281 171.527344 23.199219 170.277344 23.199219 168.640625 C 23.199219 167 23.488281 165.75 24.0625 164.890625 C 24.636719 164.027344 25.46875 163.597656 26.558594 163.597656 Z M 26.558594 163.597656 "/>
<path style=" stroke:none;fill-rule:nonzero;fill:rgb(0%,0%,0%);fill-opacity:1;" d="M 35.042969 164.636719 C 34.367188 164.636719 33.855469 164.972656 33.515625 165.636719 C 33.175781 166.304688 33.003906 167.304688 33.003906 168.640625 C 33.003906 169.972656 33.175781 170.972656 33.515625 171.640625 C 33.855469 172.304688 34.367188 172.640625 35.042969 172.640625 C 35.722656 172.640625 36.234375 172.304688 36.574219 171.640625 C 36.917969 170.972656 37.085938 169.972656 37.085938 168.640625 C 37.085938 167.304688 36.917969 166.304688 36.574219 165.636719 C 36.234375 164.972656 35.722656 164.636719 35.042969 164.636719 Z M 35.042969 163.597656 C 36.132812 163.597656 36.964844 164.027344 37.539062 164.890625 C 38.113281 165.75 38.402344 167 38.402344 168.640625 C 38.402344 170.277344 38.113281 171.527344 37.539062 172.390625 C 36.964844 173.25 36.132812 173.679688 35.042969 173.679688 C 33.953125 173.679688 33.121094 173.25 32.546875 172.390625 C 31.972656 171.527344 31.683594 170.277344 31.683594 168.640625 C 31.683594 167 31.972656 165.75 32.546875 164.890625 C 33.121094 164.027344 33.953125 163.597656 35.042969 163.597656 Z M 35.042969 163.597656 "/>
<path style=" stroke:none;fill-rule:nonzero;fill:rgb(0%,0%,0%);fill-opacity:1;" d="M 40.726562 163.769531 L 45.890625 163.769531 L 45.890625 164.878906 L 41.929688 164.878906 L 41.929688 167.261719 C 42.121094 167.195312 42.3125 167.148438 42.503906 167.113281 C 42.695312 167.082031 42.886719 167.066406 43.078125 167.066406 C 44.160156 167.066406 45.019531 167.363281 45.652344 167.957031 C 46.289062 168.554688 46.605469 169.359375 46.605469 170.371094 C 46.605469 171.417969 46.28125 172.230469 45.628906 172.8125 C 44.976562 173.390625 44.058594 173.679688 42.875 173.679688 C 42.464844 173.679688 42.050781 173.648438 41.628906 173.578125 C 41.203125 173.507812 40.769531 173.402344 40.316406 173.265625 L 40.316406 171.941406 C 40.707031 172.152344 41.109375 172.3125 41.527344 172.417969 C 41.945312 172.519531 42.382812 172.574219 42.847656 172.574219 C 43.597656 172.574219 44.195312 172.375 44.632812 171.980469 C 45.070312 171.585938 45.289062 171.050781 45.289062 170.371094 C 45.289062 169.695312 45.070312 169.160156 44.632812 168.765625 C 44.195312 168.371094 43.597656 168.171875 42.847656 168.171875 C 42.496094 168.171875 42.144531 168.210938 41.796875 168.289062 C 41.445312 168.367188 41.089844 168.488281 40.726562 168.652344 Z M 40.726562 163.769531 "/>
<g clip-path="url(#clip6)" clip-rule="nonzero">
<path style="fill:none;stroke-width:0.8;stroke-linecap:square;stroke-linejoin:round;stroke:rgb(69.01961%,69.01961%,69.01961%);stroke-opacity:1;stroke-miterlimit:4;" d="M 42.829102 91.977539 L 238.12793 91.977539 " transform="matrix(1.333333,0,0,1.333333,0,-0.000000000000014211)"/>
</g>
<path style="fill:none;stroke-width:0.8;stroke-linecap:butt;stroke-linejoin:round;stroke:rgb(0%,0%,0%);stroke-opacity:1;stroke-miterlimit:4;" d="M 0.000976562 0.000953674 L -3.5 0.000953674 " transform="matrix(1.333333,0,0,1.333333,57.104167,122.635447)"/>
<path style=" stroke:none;fill-rule:nonzero;fill:rgb(0%,0%,0%);fill-opacity:1;" d="M 13.835938 118.847656 C 13.160156 118.847656 12.652344 119.179688 12.308594 119.847656 C 11.96875 120.511719 11.800781 121.511719 11.800781 122.851562 C 11.800781 124.183594 11.96875 125.183594 12.308594 125.847656 C 12.652344 126.515625 13.160156 126.847656 13.835938 126.847656 C 14.519531 126.847656 15.03125 126.515625 15.371094 125.847656 C 15.710938 125.183594 15.882812 124.183594 15.882812 122.851562 C 15.882812 121.511719 15.710938 120.511719 15.371094 119.847656 C 15.03125 119.179688 14.519531 118.847656 13.835938 118.847656 Z M 13.835938 117.804688 C 14.929688 117.804688 15.761719 118.238281 16.335938 119.097656 C 16.910156 119.960938 17.199219 121.210938 17.199219 122.851562 C 17.199219 124.488281 16.910156 125.738281 16.335938 126.597656 C 15.761719 127.460938 14.929688 127.890625 13.835938 127.890625 C 12.75 127.890625 11.917969 127.460938 11.339844 126.597656 C 10.765625 125.738281 10.480469 124.488281 10.480469 122.851562 C 10.480469 121.210938 10.765625 119.960938 11.339844 119.097656 C 11.917969 118.238281 12.75 117.804688 13.835938 117.804688 Z M 13.835938 117.804688 "/>
<path style=" stroke:none;fill-rule:nonzero;fill:rgb(0%,0%,0%);fill-opacity:1;" d="M 19.507812 126.046875 L 20.882812 126.046875 L 20.882812 127.699219 L 19.507812 127.699219 Z M 19.507812 126.046875 "/>
<path style=" stroke:none;fill-rule:nonzero;fill:rgb(0%,0%,0%);fill-opacity:1;" d="M 26.558594 118.847656 C 25.882812 118.847656 25.375 119.179688 25.03125 119.847656 C 24.691406 120.511719 24.519531 121.511719 24.519531 122.851562 C 24.519531 124.183594 24.691406 125.183594 25.03125 125.847656 C 25.375 126.515625 25.882812 126.847656 26.558594 126.847656 C 27.242188 126.847656 27.75 126.515625 28.09375 125.847656 C 28.433594 125.183594 28.605469 124.183594 28.605469 122.851562 C 28.605469 121.511719 28.433594 120.511719 28.09375 119.847656 C 27.75 119.179688 27.242188 118.847656 26.558594 118.847656 Z M 26.558594 117.804688 C 27.648438 117.804688 28.480469 118.238281 29.058594 119.097656 C 29.632812 119.960938 29.917969 121.210938 29.917969 122.851562 C 29.917969 124.488281 29.632812 125.738281 29.058594 126.597656 C 28.480469 127.460938 27.648438 127.890625 26.558594 127.890625 C 25.46875 127.890625 24.636719 127.460938 24.0625 126.597656 C 23.488281 125.738281 23.199219 124.488281 23.199219 122.851562 C 23.199219 121.210938 23.488281 119.960938 24.0625 119.097656 C 24.636719 118.238281 25.46875 117.804688 26.558594 117.804688 Z M 26.558594 117.804688 "/>
<path style=" stroke:none;fill-rule:nonzero;fill:rgb(0%,0%,0%);fill-opacity:1;" d="M 32.457031 126.59375 L 34.605469 126.59375 L 34.605469 119.179688 L 32.269531 119.648438 L 32.269531 118.449219 L 34.59375 117.980469 L 35.910156 117.980469 L 35.910156 126.59375 L 38.054688 126.59375 L 38.054688 127.699219 L 32.457031 127.699219 Z M 32.457031 126.59375 "/>
<path style=" stroke:none;fill-rule:nonzero;fill:rgb(0%,0%,0%);fill-opacity:1;" d="M 43.523438 118.847656 C 42.847656 118.847656 42.339844 119.179688 41.996094 119.847656 C 41.65625 120.511719 41.488281 121.511719 41.488281 122.851562 C 41.488281 124.183594 41.65625 125.183594 41.996094 125.847656 C 42.339844 126.515625 42.847656 126.847656 43.523438 126.847656 C 44.207031 126.847656 44.71875 126.515625 45.058594 125.847656 C 45.398438 125.183594 45.570312 124.183594 45.570312 122.851562 C 45.570312 121.511719 45.398438 120.511719 45.058594 119.847656 C 44.71875 119.179688 44.207031 118.847656 43.523438 118.847656 Z M 43.523438 117.804688 C 44.617188 117.804688 45.449219 118.238281 46.023438 119.097656 C 46.597656 119.960938 46.886719 121.210938 46.886719 122.851562 C 46.886719 124.488281 46.597656 125.738281 46.023438 126.597656 C 45.449219 127.460938 44.617188 127.890625 43.523438 127.890625 C 42.4375 127.890625 41.605469 127.460938 41.027344 126.597656 C 40.453125 125.738281 40.167969 124.488281 40.167969 122.851562 C 40.167969 121.210938 40.453125 119.960938 41.027344 119.097656 C 41.605469 118.238281 42.4375 117.804688 43.523438 117.804688 Z M 43.523438 117.804688 "/>
<g clip-path="url(#clip7)" clip-rule="nonzero">
<path style="fill:none;stroke-width:0.8;stroke-linecap:square;stroke-linejoin:round;stroke:rgb(69.01961%,69.01961%,69.01961%);stroke-opacity:1;stroke-miterlimit:4;" d="M 42.829102 57.632812 L 238.12793 57.632812 " transform="matrix(1.333333,0,0,1.333333,0,-0.000000000000014211)"/>
</g>
<path style="fill:none;stroke-width:0.8;stroke-linecap:butt;stroke-linejoin:round;stroke:rgb(0%,0%,0%);stroke-opacity:1;stroke-miterlimit:4;" d="M 0.000976562 -0.000801086 L -3.5 -0.000801086 " transform="matrix(1.333333,0,0,1.333333,57.104167,76.844818)"/>
<path style=" stroke:none;fill-rule:nonzero;fill:rgb(0%,0%,0%);fill-opacity:1;" d="M 13.835938 73.054688 C 13.160156 73.054688 12.652344 73.390625 12.308594 74.054688 C 11.96875 74.722656 11.800781 75.722656 11.800781 77.058594 C 11.800781 78.390625 11.96875 79.390625 12.308594 80.058594 C 12.652344 80.726562 13.160156 81.058594 13.835938 81.058594 C 14.519531 81.058594 15.03125 80.726562 15.371094 80.058594 C 15.710938 79.390625 15.882812 78.390625 15.882812 77.058594 C 15.882812 75.722656 15.710938 74.722656 15.371094 74.054688 C 15.03125 73.390625 14.519531 73.054688 13.835938 73.054688 Z M 13.835938 72.015625 C 14.929688 72.015625 15.761719 72.445312 16.335938 73.308594 C 16.910156 74.167969 17.199219 75.421875 17.199219 77.058594 C 17.199219 78.695312 16.910156 79.945312 16.335938 80.808594 C 15.761719 81.667969 14.929688 82.101562 13.835938 82.101562 C 12.75 82.101562 11.917969 81.667969 11.339844 80.808594 C 10.765625 79.945312 10.480469 78.695312 10.480469 77.058594 C 10.480469 75.421875 10.765625 74.167969 11.339844 73.308594 C 11.917969 72.445312 12.75 72.015625 13.835938 72.015625 Z M 13.835938 72.015625 "/>
<path style=" stroke:none;fill-rule:nonzero;fill:rgb(0%,0%,0%);fill-opacity:1;" d="M 19.507812 80.257812 L 20.882812 80.257812 L 20.882812 81.910156 L 19.507812 81.910156 Z M 19.507812 80.257812 "/>
<path style=" stroke:none;fill-rule:nonzero;fill:rgb(0%,0%,0%);fill-opacity:1;" d="M 26.558594 73.054688 C 25.882812 73.054688 25.375 73.390625 25.03125 74.054688 C 24.691406 74.722656 24.519531 75.722656 24.519531 77.058594 C 24.519531 78.390625 24.691406 79.390625 25.03125 80.058594 C 25.375 80.726562 25.882812 81.058594 26.558594 81.058594 C 27.242188 81.058594 27.75 80.726562 28.09375 80.058594 C 28.433594 79.390625 28.605469 78.390625 28.605469 77.058594 C 28.605469 75.722656 28.433594 74.722656 28.09375 74.054688 C 27.75 73.390625 27.242188 73.054688 26.558594 73.054688 Z M 26.558594 72.015625 C 27.648438 72.015625 28.480469 72.445312 29.058594 73.308594 C 29.632812 74.167969 29.917969 75.421875 29.917969 77.058594 C 29.917969 78.695312 29.632812 79.945312 29.058594 80.808594 C 28.480469 81.667969 27.648438 82.101562 26.558594 82.101562 C 25.46875 82.101562 24.636719 81.667969 24.0625 80.808594 C 23.488281 79.945312 23.199219 78.695312 23.199219 77.058594 C 23.199219 75.421875 23.488281 74.167969 24.0625 73.308594 C 24.636719 72.445312 25.46875 72.015625 26.558594 72.015625 Z M 26.558594 72.015625 "/>
<path style=" stroke:none;fill-rule:nonzero;fill:rgb(0%,0%,0%);fill-opacity:1;" d="M 32.457031 80.804688 L 34.605469 80.804688 L 34.605469 73.386719 L 32.269531 73.855469 L 32.269531 72.660156 L 34.59375 72.191406 L 35.910156 72.191406 L 35.910156 80.804688 L 38.054688 80.804688 L 38.054688 81.910156 L 32.457031 81.910156 Z M 32.457031 80.804688 "/>
<path style=" stroke:none;fill-rule:nonzero;fill:rgb(0%,0%,0%);fill-opacity:1;" d="M 40.726562 72.191406 L 45.890625 72.191406 L 45.890625 73.296875 L 41.929688 73.296875 L 41.929688 75.679688 C 42.121094 75.613281 42.3125 75.566406 42.503906 75.535156 C 42.695312 75.5 42.886719 75.484375 43.078125 75.484375 C 44.160156 75.484375 45.019531 75.78125 45.652344 76.378906 C 46.289062 76.972656 46.605469 77.777344 46.605469 78.792969 C 46.605469 79.835938 46.28125 80.652344 45.628906 81.230469 C 44.976562 81.808594 44.058594 82.101562 42.875 82.101562 C 42.464844 82.101562 42.050781 82.066406 41.628906 81.996094 C 41.203125 81.925781 40.769531 81.820312 40.316406 81.683594 L 40.316406 80.359375 C 40.707031 80.574219 41.109375 80.730469 41.527344 80.835938 C 41.945312 80.941406 42.382812 80.992188 42.847656 80.992188 C 43.597656 80.992188 44.195312 80.792969 44.632812 80.398438 C 45.070312 80.003906 45.289062 79.46875 45.289062 78.792969 C 45.289062 78.117188 45.070312 77.578125 44.632812 77.183594 C 44.195312 76.789062 43.597656 76.589844 42.847656 76.589844 C 42.496094 76.589844 42.144531 76.628906 41.796875 76.707031 C 41.445312 76.785156 41.089844 76.90625 40.726562 77.074219 Z M 40.726562 72.191406 "/>
<g clip-path="url(#clip8)" clip-rule="nonzero">
<path style="fill:none;stroke-width:0.8;stroke-linecap:square;stroke-linejoin:round;stroke:rgb(69.01961%,69.01961%,69.01961%);stroke-opacity:1;stroke-miterlimit:4;" d="M 42.829102 23.291016 L 238.12793 23.291016 " transform="matrix(1.333333,0,0,1.333333,0,-0.000000000000014211)"/>
</g>
<path style="fill:none;stroke-width:0.8;stroke-linecap:butt;stroke-linejoin:round;stroke:rgb(0%,0%,0%);stroke-opacity:1;stroke-miterlimit:4;" d="M 0.000976562 0.000368118 L -3.5 0.000368118 " transform="matrix(1.333333,0,0,1.333333,57.104167,31.054197)"/>
<path style=" stroke:none;fill-rule:nonzero;fill:rgb(0%,0%,0%);fill-opacity:1;" d="M 13.835938 27.265625 C 13.160156 27.265625 12.652344 27.597656 12.308594 28.265625 C 11.96875 28.929688 11.800781 29.933594 11.800781 31.269531 C 11.800781 32.601562 11.96875 33.601562 12.308594 34.269531 C 12.652344 34.933594 13.160156 35.269531 13.835938 35.269531 C 14.519531 35.269531 15.03125 34.933594 15.371094 34.269531 C 15.710938 33.601562 15.882812 32.601562 15.882812 31.269531 C 15.882812 29.933594 15.710938 28.929688 15.371094 28.265625 C 15.03125 27.597656 14.519531 27.265625 13.835938 27.265625 Z M 13.835938 26.222656 C 14.929688 26.222656 15.761719 26.65625 16.335938 27.519531 C 16.910156 28.378906 17.199219 29.628906 17.199219 31.269531 C 17.199219 32.90625 16.910156 34.15625 16.335938 35.019531 C 15.761719 35.878906 14.929688 36.308594 13.835938 36.308594 C 12.75 36.308594 11.917969 35.878906 11.339844 35.019531 C 10.765625 34.15625 10.480469 32.90625 10.480469 31.269531 C 10.480469 29.628906 10.765625 28.378906 11.339844 27.519531 C 11.917969 26.65625 12.75 26.222656 13.835938 26.222656 Z M 13.835938 26.222656 "/>
<path style=" stroke:none;fill-rule:nonzero;fill:rgb(0%,0%,0%);fill-opacity:1;" d="M 19.507812 34.464844 L 20.882812 34.464844 L 20.882812 36.121094 L 19.507812 36.121094 Z M 19.507812 34.464844 "/>
<path style=" stroke:none;fill-rule:nonzero;fill:rgb(0%,0%,0%);fill-opacity:1;" d="M 26.558594 27.265625 C 25.882812 27.265625 25.375 27.597656 25.03125 28.265625 C 24.691406 28.929688 24.519531 29.933594 24.519531 31.269531 C 24.519531 32.601562 24.691406 33.601562 25.03125 34.269531 C 25.375 34.933594 25.882812 35.269531 26.558594 35.269531 C 27.242188 35.269531 27.75 34.933594 28.09375 34.269531 C 28.433594 33.601562 28.605469 32.601562 28.605469 31.269531 C 28.605469 29.933594 28.433594 28.929688 28.09375 28.265625 C 27.75 27.597656 27.242188 27.265625 26.558594 27.265625 Z M 26.558594 26.222656 C 27.648438 26.222656 28.480469 26.65625 29.058594 27.519531 C 29.632812 28.378906 29.917969 29.628906 29.917969 31.269531 C 29.917969 32.90625 29.632812 34.15625 29.058594 35.019531 C 28.480469 35.878906 27.648438 36.308594 26.558594 36.308594 C 25.46875 36.308594 24.636719 35.878906 24.0625 35.019531 C 23.488281 34.15625 23.199219 32.90625 23.199219 31.269531 C 23.199219 29.628906 23.488281 28.378906 24.0625 27.519531 C 24.636719 26.65625 25.46875 26.222656 26.558594 26.222656 Z M 26.558594 26.222656 "/>
<path style=" stroke:none;fill-rule:nonzero;fill:rgb(0%,0%,0%);fill-opacity:1;" d="M 33.363281 35.011719 L 37.953125 35.011719 L 37.953125 36.121094 L 31.78125 36.121094 L 31.78125 35.011719 C 32.28125 34.496094 32.960938 33.804688 33.820312 32.933594 C 34.683594 32.0625 35.226562 31.5 35.445312 31.25 C 35.867188 30.777344 36.160156 30.375 36.328125 30.050781 C 36.496094 29.722656 36.578125 29.398438 36.578125 29.082031 C 36.578125 28.566406 36.398438 28.144531 36.035156 27.820312 C 35.671875 27.492188 35.199219 27.332031 34.617188 27.332031 C 34.207031 27.332031 33.769531 27.402344 33.3125 27.542969 C 32.855469 27.6875 32.367188 27.90625 31.847656 28.195312 L 31.847656 26.867188 C 32.375 26.65625 32.871094 26.496094 33.328125 26.386719 C 33.789062 26.277344 34.210938 26.222656 34.59375 26.222656 C 35.601562 26.222656 36.402344 26.476562 37.003906 26.980469 C 37.601562 27.484375 37.898438 28.15625 37.898438 28.996094 C 37.898438 29.398438 37.824219 29.777344 37.675781 30.132812 C 37.527344 30.492188 37.253906 30.914062 36.859375 31.398438 C 36.75 31.523438 36.40625 31.890625 35.824219 32.492188 C 35.242188 33.09375 34.421875 33.933594 33.363281 35.011719 Z M 33.363281 35.011719 "/>
<path style=" stroke:none;fill-rule:nonzero;fill:rgb(0%,0%,0%);fill-opacity:1;" d="M 43.523438 27.265625 C 42.847656 27.265625 42.339844 27.597656 41.996094 28.265625 C 41.65625 28.929688 41.488281 29.933594 41.488281 31.269531 C 41.488281 32.601562 41.65625 33.601562 41.996094 34.269531 C 42.339844 34.933594 42.847656 35.269531 43.523438 35.269531 C 44.207031 35.269531 44.71875 34.933594 45.058594 34.269531 C 45.398438 33.601562 45.570312 32.601562 45.570312 31.269531 C 45.570312 29.933594 45.398438 28.929688 45.058594 28.265625 C 44.71875 27.597656 44.207031 27.265625 43.523438 27.265625 Z M 43.523438 26.222656 C 44.617188 26.222656 45.449219 26.65625 46.023438 27.519531 C 46.597656 28.378906 46.886719 29.628906 46.886719 31.269531 C 46.886719 32.90625 46.597656 34.15625 46.023438 35.019531 C 45.449219 35.878906 44.617188 36.308594 43.523438 36.308594 C 42.4375 36.308594 41.605469 35.878906 41.027344 35.019531 C 40.453125 34.15625 40.167969 32.90625 40.167969 31.269531 C 40.167969 29.628906 40.453125 28.378906 41.027344 27.519531 C 41.605469 26.65625 42.4375 26.222656 43.523438 26.222656 Z M 43.523438 26.222656 "/>
<g clip-path="url(#clip9)" clip-rule="nonzero">
<path style="fill:none;stroke-width:1.5;stroke-linecap:square;stroke-linejoin:round;stroke:rgb(12.156863%,46.666667%,70.588237%);stroke-opacity:1;stroke-miterlimit:4;" d="M 42.829102 13.5 L 53.106445 127.341797 L 63.386719 127.962891 L 73.664062 130.262695 L 83.944336 131.833008 L 94.22168 133.617187 L 104.501953 134.317383 L 114.779297 135.137695 L 125.05957 136.048828 L 135.339844 136.253906 L 145.617187 136.845703 L 155.897461 137.264648 L 166.174805 137.302734 L 176.455078 137.639648 L 186.732422 138.161133 L 197.012695 138.073242 L 207.290039 138.541992 L 217.570312 138.785156 L 227.850586 138.864258 L 238.12793 138.222656 " transform="matrix(1.333333,0,0,1.333333,0,-0.000000000000014211)"/>
</g>
<g clip-path="url(#clip10)" clip-rule="nonzero">
<path style="fill:none;stroke-width:1.5;stroke-linecap:butt;stroke-linejoin:round;stroke:rgb(74.901962%,0%,74.901962%);stroke-opacity:1;stroke-dasharray:5.55,2.4;stroke-miterlimit:4;" d="M 42.829102 124.013672 L 53.106445 127.256836 L 63.386719 128.994141 L 73.664062 130.664062 L 83.944336 131.885742 L 94.22168 132.703125 L 104.501953 133.388672 L 114.779297 134.021484 L 125.05957 134.671875 L 135.339844 135.28125 L 145.617187 135.899414 L 155.897461 136.50293 L 166.174805 136.989258 L 176.455078 137.499023 L 186.732422 137.935547 L 197.012695 138.375 L 207.290039 138.711914 L 217.570312 139.037109 L 227.850586 139.253906 L 238.12793 139.5 " transform="matrix(1.333333,0,0,1.333333,0,-0.000000000000014211)"/>
</g>
<path style="fill:none;stroke-width:0.8;stroke-linecap:square;stroke-linejoin:miter;stroke:rgb(0%,0%,0%);stroke-opacity:1;stroke-miterlimit:4;" d="M 42.829102 145.798828 L 42.829102 7.201172 " transform="matrix(1.333333,0,0,1.333333,0,-0.000000000000014211)"/>
<path style="fill:none;stroke-width:0.8;stroke-linecap:square;stroke-linejoin:miter;stroke:rgb(0%,0%,0%);stroke-opacity:1;stroke-miterlimit:4;" d="M 238.12793 145.798828 L 238.12793 7.201172 " transform="matrix(1.333333,0,0,1.333333,0,-0.000000000000014211)"/>
<path style="fill:none;stroke-width:0.8;stroke-linecap:square;stroke-linejoin:miter;stroke:rgb(0%,0%,0%);stroke-opacity:1;stroke-miterlimit:4;" d="M 42.829102 145.798828 L 238.12793 145.798828 " transform="matrix(1.333333,0,0,1.333333,0,-0.000000000000014211)"/>
<path style="fill:none;stroke-width:0.8;stroke-linecap:square;stroke-linejoin:miter;stroke:rgb(0%,0%,0%);stroke-opacity:1;stroke-miterlimit:4;" d="M 42.829102 7.201172 L 238.12793 7.201172 " transform="matrix(1.333333,0,0,1.333333,0,-0.000000000000014211)"/>
<use xlink:href="#surface5" mask="url(#mask0)"/>
<path style="fill:none;stroke-width:1.5;stroke-linecap:square;stroke-linejoin:round;stroke:rgb(12.156863%,46.666667%,70.588237%);stroke-opacity:1;stroke-miterlimit:4;" d="M 148.921875 20.299805 L 168.922852 20.299805 " transform="matrix(1.333333,0,0,1.333333,0,-0.000000000000014211)"/>
<path style=" stroke:none;fill-rule:nonzero;fill:rgb(0%,0%,0%);fill-opacity:1;" d="M 242.398438 24.71875 L 242.398438 25.839844 C 242.0625 25.652344 241.722656 25.511719 241.382812 25.417969 C 241.039062 25.324219 240.695312 25.277344 240.351562 25.277344 C 239.570312 25.277344 238.96875 25.527344 238.539062 26.019531 C 238.109375 26.511719 237.894531 27.203125 237.894531 28.089844 C 237.894531 28.980469 238.109375 29.671875 238.539062 30.167969 C 238.96875 30.660156 239.570312 30.902344 240.351562 30.902344 C 240.695312 30.902344 241.039062 30.859375 241.382812 30.765625 C 241.722656 30.671875 242.0625 30.53125 242.398438 30.34375 L 242.398438 31.453125 C 242.066406 31.609375 241.71875 31.722656 241.359375 31.800781 C 241.003906 31.882812 240.621094 31.921875 240.21875 31.921875 C 239.121094 31.921875 238.246094 31.574219 237.601562 30.886719 C 236.953125 30.195312 236.632812 29.265625 236.632812 28.089844 C 236.632812 26.902344 236.957031 25.96875 237.609375 25.289062 C 238.265625 24.605469 239.160156 24.265625 240.296875 24.265625 C 240.664062 24.265625 241.027344 24.304688 241.378906 24.378906 C 241.726562 24.453125 242.070312 24.566406 242.398438 24.71875 Z M 242.398438 24.71875 "/>
<path style=" stroke:none;fill-rule:nonzero;fill:rgb(0%,0%,0%);fill-opacity:1;" d="M 244.484375 21.601562 L 245.679688 21.601562 L 245.679688 31.730469 L 244.484375 31.730469 Z M 244.484375 21.601562 "/>
<path style=" stroke:none;fill-rule:nonzero;fill:rgb(0%,0%,0%);fill-opacity:1;" d="M 251.5 28.066406 C 250.535156 28.066406 249.863281 28.175781 249.488281 28.398438 C 249.117188 28.617188 248.929688 28.996094 248.929688 29.53125 C 248.929688 29.957031 249.070312 30.292969 249.351562 30.542969 C 249.628906 30.792969 250.011719 30.917969 250.492188 30.917969 C 251.15625 30.917969 251.691406 30.679688 252.089844 30.210938 C 252.492188 29.738281 252.695312 29.113281 252.695312 28.332031 L 252.695312 28.066406 Z M 253.890625 27.570312 L 253.890625 31.730469 L 252.695312 31.730469 L 252.695312 30.625 C 252.417969 31.066406 252.078125 31.394531 251.671875 31.605469 C 251.261719 31.816406 250.761719 31.921875 250.171875 31.921875 C 249.425781 31.921875 248.832031 31.710938 248.390625 31.292969 C 247.949219 30.871094 247.730469 30.3125 247.730469 29.609375 C 247.730469 28.789062 248.003906 28.171875 248.554688 27.753906 C 249.105469 27.335938 249.921875 27.128906 251.011719 27.128906 L 252.695312 27.128906 L 252.695312 27.011719 C 252.695312 26.460938 252.511719 26.03125 252.148438 25.730469 C 251.789062 25.429688 251.277344 25.277344 250.621094 25.277344 C 250.207031 25.277344 249.800781 25.328125 249.402344 25.429688 C 249.007812 25.527344 248.628906 25.679688 248.265625 25.878906 L 248.265625 24.769531 C 248.703125 24.601562 249.128906 24.476562 249.542969 24.390625 C 249.953125 24.308594 250.355469 24.265625 250.746094 24.265625 C 251.800781 24.265625 252.589844 24.539062 253.109375 25.085938 C 253.632812 25.632812 253.890625 26.460938 253.890625 27.570312 Z M 253.890625 27.570312 "/>
<path style=" stroke:none;fill-rule:nonzero;fill:rgb(0%,0%,0%);fill-opacity:1;" d="M 261.003906 24.652344 L 261.003906 25.789062 C 260.667969 25.613281 260.316406 25.484375 259.953125 25.398438 C 259.585938 25.308594 259.210938 25.265625 258.816406 25.265625 C 258.222656 25.265625 257.777344 25.359375 257.480469 25.539062 C 257.183594 25.722656 257.035156 25.996094 257.035156 26.359375 C 257.035156 26.636719 257.140625 26.855469 257.355469 27.015625 C 257.566406 27.171875 257.992188 27.324219 258.636719 27.464844 L 259.046875 27.558594 C 259.898438 27.742188 260.5 27.996094 260.859375 28.328125 C 261.21875 28.660156 261.398438 29.125 261.398438 29.71875 C 261.398438 30.398438 261.128906 30.933594 260.59375 31.328125 C 260.058594 31.722656 259.320312 31.921875 258.382812 31.921875 C 257.992188 31.921875 257.585938 31.882812 257.160156 31.804688 C 256.738281 31.730469 256.292969 31.617188 255.824219 31.464844 L 255.824219 30.226562 C 256.265625 30.457031 256.703125 30.628906 257.132812 30.746094 C 257.5625 30.859375 257.988281 30.917969 258.410156 30.917969 C 258.972656 30.917969 259.40625 30.820312 259.710938 30.628906 C 260.015625 30.433594 260.167969 30.160156 260.167969 29.808594 C 260.167969 29.484375 260.054688 29.234375 259.835938 29.0625 C 259.617188 28.890625 259.136719 28.722656 258.394531 28.558594 L 257.980469 28.460938 C 257.238281 28.308594 256.699219 28.066406 256.371094 27.742188 C 256.042969 27.421875 255.875 26.976562 255.875 26.414062 C 255.875 25.726562 256.121094 25.195312 256.605469 24.824219 C 257.09375 24.453125 257.78125 24.265625 258.675781 24.265625 C 259.117188 24.265625 259.535156 24.296875 259.925781 24.363281 C 260.316406 24.425781 260.675781 24.523438 261.003906 24.652344 Z M 261.003906 24.652344 "/>
<path style=" stroke:none;fill-rule:nonzero;fill:rgb(0%,0%,0%);fill-opacity:1;" d="M 267.953125 24.652344 L 267.953125 25.789062 C 267.613281 25.613281 267.261719 25.484375 266.898438 25.398438 C 266.535156 25.308594 266.15625 25.265625 265.765625 25.265625 C 265.171875 25.265625 264.722656 25.359375 264.425781 25.539062 C 264.128906 25.722656 263.980469 25.996094 263.980469 26.359375 C 263.980469 26.636719 264.085938 26.855469 264.300781 27.015625 C 264.511719 27.171875 264.941406 27.324219 265.582031 27.464844 L 265.992188 27.558594 C 266.84375 27.742188 267.449219 27.996094 267.804688 28.328125 C 268.164062 28.660156 268.34375 29.125 268.34375 29.71875 C 268.34375 30.398438 268.074219 30.933594 267.539062 31.328125 C 267.003906 31.722656 266.265625 31.921875 265.328125 31.921875 C 264.9375 31.921875 264.53125 31.882812 264.109375 31.804688 C 263.683594 31.730469 263.238281 31.617188 262.769531 31.464844 L 262.769531 30.226562 C 263.214844 30.457031 263.648438 30.628906 264.078125 30.746094 C 264.507812 30.859375 264.933594 30.917969 265.355469 30.917969 C 265.921875 30.917969 266.355469 30.820312 266.65625 30.628906 C 266.960938 30.433594 267.113281 30.160156 267.113281 29.808594 C 267.113281 29.484375 267.003906 29.234375 266.785156 29.0625 C 266.566406 28.890625 266.085938 28.722656 265.34375 28.558594 L 264.925781 28.460938 C 264.183594 28.308594 263.648438 28.066406 263.316406 27.742188 C 262.988281 27.421875 262.824219 26.976562 262.824219 26.414062 C 262.824219 25.726562 263.066406 25.195312 263.550781 24.824219 C 264.039062 24.453125 264.730469 24.265625 265.625 24.265625 C 266.066406 24.265625 266.480469 24.296875 266.871094 24.363281 C 267.261719 24.425781 267.625 24.523438 267.953125 24.652344 Z M 267.953125 24.652344 "/>
<path style=" stroke:none;fill-rule:nonzero;fill:rgb(0%,0%,0%);fill-opacity:1;" d="M 280.726562 27.785156 L 280.726562 28.371094 L 275.21875 28.371094 C 275.269531 29.195312 275.519531 29.824219 275.964844 30.257812 C 276.410156 30.6875 277.027344 30.902344 277.824219 30.902344 C 278.28125 30.902344 278.726562 30.847656 279.160156 30.734375 C 279.59375 30.621094 280.019531 30.453125 280.449219 30.226562 L 280.449219 31.359375 C 280.015625 31.542969 279.574219 31.679688 279.125 31.777344 C 278.671875 31.871094 278.214844 31.921875 277.75 31.921875 C 276.589844 31.921875 275.667969 31.582031 274.988281 30.90625 C 274.308594 30.226562 273.96875 29.3125 273.96875 28.15625 C 273.96875 26.964844 274.289062 26.015625 274.933594 25.316406 C 275.578125 24.617188 276.449219 24.265625 277.542969 24.265625 C 278.523438 24.265625 279.300781 24.582031 279.871094 25.210938 C 280.441406 25.84375 280.726562 26.699219 280.726562 27.785156 Z M 279.527344 27.433594 C 279.519531 26.777344 279.335938 26.257812 278.980469 25.867188 C 278.621094 25.476562 278.144531 25.277344 277.554688 25.277344 C 276.886719 25.277344 276.351562 25.46875 275.953125 25.847656 C 275.550781 26.222656 275.320312 26.753906 275.257812 27.441406 Z M 279.527344 27.433594 "/>
<path style=" stroke:none;fill-rule:nonzero;fill:rgb(0%,0%,0%);fill-opacity:1;" d="M 286.917969 25.558594 C 286.78125 25.480469 286.636719 25.421875 286.476562 25.386719 C 286.320312 25.351562 286.144531 25.332031 285.953125 25.332031 C 285.277344 25.332031 284.757812 25.550781 284.394531 25.992188 C 284.03125 26.433594 283.851562 27.066406 283.851562 27.890625 L 283.851562 31.730469 L 282.648438 31.730469 L 282.648438 24.441406 L 283.851562 24.441406 L 283.851562 25.574219 C 284.105469 25.128906 284.429688 24.800781 284.835938 24.585938 C 285.238281 24.371094 285.730469 24.265625 286.308594 24.265625 C 286.390625 24.265625 286.480469 24.269531 286.578125 24.28125 C 286.679688 24.289062 286.789062 24.308594 286.910156 24.328125 Z M 286.917969 25.558594 "/>
<path style=" stroke:none;fill-rule:nonzero;fill:rgb(0%,0%,0%);fill-opacity:1;" d="M 292.164062 25.558594 C 292.03125 25.480469 291.882812 25.421875 291.726562 25.386719 C 291.566406 25.351562 291.394531 25.332031 291.203125 25.332031 C 290.527344 25.332031 290.003906 25.550781 289.644531 25.992188 C 289.28125 26.433594 289.097656 27.066406 289.097656 27.890625 L 289.097656 31.730469 L 287.894531 31.730469 L 287.894531 24.441406 L 289.097656 24.441406 L 289.097656 25.574219 C 289.351562 25.128906 289.679688 24.800781 290.082031 24.585938 C 290.488281 24.371094 290.976562 24.265625 291.554688 24.265625 C 291.636719 24.265625 291.726562 24.269531 291.828125 24.28125 C 291.929688 24.289062 292.039062 24.308594 292.160156 24.328125 Z M 292.164062 25.558594 "/>
<path style=" stroke:none;fill-rule:nonzero;fill:rgb(0%,0%,0%);fill-opacity:1;" d="M 295.949219 25.277344 C 295.304688 25.277344 294.796875 25.53125 294.425781 26.03125 C 294.050781 26.53125 293.863281 27.21875 293.863281 28.089844 C 293.863281 28.964844 294.050781 29.652344 294.421875 30.152344 C 294.792969 30.652344 295.300781 30.902344 295.949219 30.902344 C 296.585938 30.902344 297.09375 30.652344 297.464844 30.148438 C 297.839844 29.644531 298.023438 28.960938 298.023438 28.089844 C 298.023438 27.226562 297.839844 26.542969 297.464844 26.039062 C 297.09375 25.53125 296.585938 25.277344 295.949219 25.277344 Z M 295.949219 24.265625 C 296.988281 24.265625 297.808594 24.601562 298.402344 25.28125 C 298.996094 25.957031 299.296875 26.894531 299.296875 28.089844 C 299.296875 29.285156 298.996094 30.222656 298.402344 30.902344 C 297.808594 31.582031 296.988281 31.921875 295.949219 31.921875 C 294.902344 31.921875 294.082031 31.582031 293.488281 30.902344 C 292.898438 30.222656 292.601562 29.285156 292.601562 28.089844 C 292.601562 26.894531 292.898438 25.957031 293.488281 25.28125 C 294.082031 24.601562 294.902344 24.265625 295.949219 24.265625 Z M 295.949219 24.265625 "/>
<path style=" stroke:none;fill-rule:nonzero;fill:rgb(0%,0%,0%);fill-opacity:1;" d="M 305.503906 25.558594 C 305.371094 25.480469 305.222656 25.421875 305.066406 25.386719 C 304.90625 25.351562 304.734375 25.332031 304.542969 25.332031 C 303.863281 25.332031 303.34375 25.550781 302.980469 25.992188 C 302.621094 26.433594 302.4375 27.066406 302.4375 27.890625 L 302.4375 31.730469 L 301.234375 31.730469 L 301.234375 24.441406 L 302.4375 24.441406 L 302.4375 25.574219 C 302.691406 25.128906 303.019531 24.800781 303.421875 24.585938 C 303.824219 24.371094 304.316406 24.265625 304.894531 24.265625 C 304.976562 24.265625 305.066406 24.269531 305.167969 24.28125 C 305.269531 24.289062 305.378906 24.308594 305.5 24.328125 Z M 305.503906 25.558594 "/>
<path style="fill:none;stroke-width:1.5;stroke-linecap:butt;stroke-linejoin:round;stroke:rgb(74.901962%,0%,74.901962%);stroke-opacity:1;stroke-dasharray:5.55,2.4;stroke-miterlimit:4;" d="M 148.921875 34.977539 L 168.922852 34.977539 " transform="matrix(1.333333,0,0,1.333333,0,-0.000000000000014211)"/>
<path style=" stroke:none;fill-rule:nonzero;fill:rgb(0%,0%,0%);fill-opacity:1;" d="M 242.386719 47.664062 C 242.386719 46.78125 242.207031 46.089844 241.84375 45.589844 C 241.480469 45.089844 240.984375 44.835938 240.351562 44.835938 C 239.714844 44.835938 239.214844 45.089844 238.855469 45.589844 C 238.492188 46.089844 238.308594 46.78125 238.308594 47.664062 C 238.308594 48.542969 238.492188 49.234375 238.855469 49.734375 C 239.214844 50.238281 239.714844 50.488281 240.351562 50.488281 C 240.984375 50.488281 241.480469 50.238281 241.84375 49.734375 C 242.207031 49.234375 242.386719 48.542969 242.386719 47.664062 Z M 238.308594 45.117188 C 238.5625 44.683594 238.882812 44.363281 239.265625 44.152344 C 239.648438 43.941406 240.109375 43.835938 240.640625 43.835938 C 241.527344 43.835938 242.246094 44.1875 242.800781 44.890625 C 243.355469 45.59375 243.632812 46.515625 243.632812 47.664062 C 243.632812 48.808594 243.355469 49.734375 242.800781 50.4375 C 242.246094 51.140625 241.527344 51.492188 240.640625 51.492188 C 240.109375 51.492188 239.648438 51.386719 239.265625 51.175781 C 238.882812 50.964844 238.5625 50.640625 238.308594 50.207031 L 238.308594 51.300781 L 237.105469 51.300781 L 237.105469 41.171875 L 238.308594 41.171875 Z M 238.308594 45.117188 "/>
<path style=" stroke:none;fill-rule:nonzero;fill:rgb(0%,0%,0%);fill-opacity:1;" d="M 250.851562 47.664062 C 250.851562 46.78125 250.667969 46.089844 250.308594 45.589844 C 249.945312 45.089844 249.445312 44.835938 248.8125 44.835938 C 248.179688 44.835938 247.679688 45.089844 247.316406 45.589844 C 246.957031 46.089844 246.773438 46.78125 246.773438 47.664062 C 246.773438 48.542969 246.957031 49.234375 247.316406 49.734375 C 247.679688 50.238281 248.179688 50.488281 248.8125 50.488281 C 249.445312 50.488281 249.945312 50.238281 250.308594 49.734375 C 250.667969 49.234375 250.851562 48.542969 250.851562 47.664062 Z M 246.773438 45.117188 C 247.027344 44.683594 247.34375 44.363281 247.726562 44.152344 C 248.113281 43.941406 248.570312 43.835938 249.105469 43.835938 C 249.992188 43.835938 250.710938 44.1875 251.261719 44.890625 C 251.816406 45.59375 252.09375 46.515625 252.09375 47.664062 C 252.09375 48.808594 251.816406 49.734375 251.261719 50.4375 C 250.710938 51.140625 249.992188 51.492188 249.105469 51.492188 C 248.570312 51.492188 248.113281 51.386719 247.726562 51.175781 C 247.34375 50.964844 247.027344 50.640625 246.773438 50.207031 L 246.773438 51.300781 L 245.570312 51.300781 L 245.570312 41.171875 L 246.773438 41.171875 Z M 246.773438 45.117188 "/>
<path style=" stroke:none;fill-rule:nonzero;fill:rgb(0%,0%,0%);fill-opacity:1;" d="M 256.902344 44.851562 C 256.261719 44.851562 255.753906 45.101562 255.382812 45.601562 C 255.007812 46.101562 254.820312 46.789062 254.820312 47.664062 C 254.820312 48.535156 255.007812 49.222656 255.378906 49.722656 C 255.75 50.222656 256.257812 50.476562 256.902344 50.476562 C 257.542969 50.476562 258.046875 50.222656 258.421875 49.722656 C 258.792969 49.214844 258.980469 48.53125 258.980469 47.664062 C 258.980469 46.796875 258.792969 46.113281 258.421875 45.609375 C 258.046875 45.101562 257.542969 44.851562 256.902344 44.851562 Z M 256.902344 43.835938 C 257.945312 43.835938 258.765625 44.175781 259.359375 44.851562 C 259.953125 45.527344 260.253906 46.464844 260.253906 47.664062 C 260.253906 48.855469 259.953125 49.792969 259.359375 50.472656 C 258.765625 51.152344 257.945312 51.492188 256.902344 51.492188 C 255.859375 51.492188 255.039062 51.152344 254.445312 50.472656 C 253.855469 49.792969 253.558594 48.855469 253.558594 47.664062 C 253.558594 46.464844 253.855469 45.527344 254.445312 44.851562 C 255.039062 44.175781 255.859375 43.835938 256.902344 43.835938 Z M 256.902344 43.835938 "/>
<path style=" stroke:none;fill-rule:nonzero;fill:rgb(0%,0%,0%);fill-opacity:1;" d="M 267.882812 44.011719 L 265.246094 47.558594 L 268.019531 51.300781 L 266.605469 51.300781 L 264.484375 48.4375 L 262.363281 51.300781 L 260.945312 51.300781 L 263.78125 47.488281 L 261.1875 44.011719 L 262.601562 44.011719 L 264.535156 46.609375 L 266.46875 44.011719 Z M 267.882812 44.011719 "/>
<path style=" stroke:none;fill-rule:nonzero;fill:rgb(0%,0%,0%);fill-opacity:1;" d="M 279.625 45.410156 C 279.925781 44.871094 280.285156 44.472656 280.699219 44.21875 C 281.117188 43.964844 281.609375 43.835938 282.171875 43.835938 C 282.929688 43.835938 283.519531 44.101562 283.929688 44.632812 C 284.34375 45.164062 284.550781 45.917969 284.550781 46.898438 L 284.550781 51.300781 L 283.34375 51.300781 L 283.34375 46.941406 C 283.34375 46.242188 283.21875 45.722656 282.972656 45.386719 C 282.726562 45.046875 282.347656 44.878906 281.839844 44.878906 C 281.21875 44.878906 280.730469 45.082031 280.367188 45.496094 C 280.007812 45.90625 279.828125 46.46875 279.828125 47.179688 L 279.828125 51.300781 L 278.625 51.300781 L 278.625 46.941406 C 278.625 46.238281 278.5 45.71875 278.253906 45.382812 C 278.007812 45.046875 277.625 44.878906 277.105469 44.878906 C 276.496094 44.878906 276.007812 45.085938 275.648438 45.496094 C 275.289062 45.910156 275.105469 46.472656 275.105469 47.179688 L 275.105469 51.300781 L 273.902344 51.300781 L 273.902344 44.011719 L 275.105469 44.011719 L 275.105469 45.144531 C 275.382812 44.695312 275.707031 44.367188 276.089844 44.152344 C 276.472656 43.941406 276.925781 43.835938 277.449219 43.835938 C 277.980469 43.835938 278.433594 43.96875 278.804688 44.238281 C 279.175781 44.507812 279.449219 44.898438 279.625 45.410156 Z M 279.625 45.410156 "/>
<path style=" stroke:none;fill-rule:nonzero;fill:rgb(0%,0%,0%);fill-opacity:1;" d="M 290.25 47.636719 C 289.285156 47.636719 288.613281 47.746094 288.238281 47.96875 C 287.867188 48.191406 287.679688 48.566406 287.679688 49.101562 C 287.679688 49.527344 287.820312 49.863281 288.101562 50.113281 C 288.378906 50.363281 288.761719 50.488281 289.242188 50.488281 C 289.90625 50.488281 290.441406 50.253906 290.839844 49.78125 C 291.242188 49.308594 291.445312 48.683594 291.445312 47.902344 L 291.445312 47.636719 Z M 292.640625 47.140625 L 292.640625 51.300781 L 291.445312 51.300781 L 291.445312 50.195312 C 291.167969 50.636719 290.828125 50.964844 290.421875 51.175781 C 290.011719 51.386719 289.511719 51.492188 288.921875 51.492188 C 288.175781 51.492188 287.582031 51.28125 287.140625 50.863281 C 286.699219 50.441406 286.480469 49.882812 286.480469 49.179688 C 286.480469 48.359375 286.753906 47.742188 287.304688 47.324219 C 287.855469 46.910156 288.671875 46.699219 289.761719 46.699219 L 291.445312 46.699219 L 291.445312 46.582031 C 291.445312 46.03125 291.261719 45.601562 290.898438 45.300781 C 290.539062 45 290.027344 44.851562 289.371094 44.851562 C 288.957031 44.851562 288.550781 44.898438 288.152344 45 C 287.757812 45.101562 287.378906 45.25 287.015625 45.449219 L 287.015625 44.339844 C 287.453125 44.171875 287.878906 44.046875 288.292969 43.960938 C 288.703125 43.878906 289.105469 43.835938 289.496094 43.835938 C 290.550781 43.835938 291.339844 44.109375 291.859375 44.65625 C 292.382812 45.203125 292.640625 46.03125 292.640625 47.140625 Z M 292.640625 47.140625 "/>
<path style=" stroke:none;fill-rule:nonzero;fill:rgb(0%,0%,0%);fill-opacity:1;" d="M 301.34375 47.355469 L 301.34375 47.941406 L 295.835938 47.941406 C 295.890625 48.765625 296.136719 49.394531 296.582031 49.828125 C 297.027344 50.257812 297.648438 50.476562 298.441406 50.476562 C 298.902344 50.476562 299.347656 50.417969 299.777344 50.304688 C 300.210938 50.195312 300.640625 50.023438 301.066406 49.796875 L 301.066406 50.929688 C 300.636719 51.113281 300.195312 51.253906 299.742188 51.347656 C 299.292969 51.445312 298.835938 51.492188 298.371094 51.492188 C 297.207031 51.492188 296.285156 51.152344 295.605469 50.476562 C 294.925781 49.800781 294.585938 48.882812 294.585938 47.726562 C 294.585938 46.535156 294.910156 45.585938 295.554688 44.886719 C 296.199219 44.1875 297.066406 43.835938 298.160156 43.835938 C 299.140625 43.835938 299.917969 44.152344 300.488281 44.785156 C 301.058594 45.414062 301.34375 46.273438 301.34375 47.355469 Z M 300.148438 47.003906 C 300.140625 46.351562 299.957031 45.828125 299.597656 45.4375 C 299.238281 45.046875 298.765625 44.851562 298.175781 44.851562 C 297.507812 44.851562 296.972656 45.039062 296.570312 45.417969 C 296.167969 45.792969 295.9375 46.328125 295.875 47.011719 Z M 300.148438 47.003906 "/>
</g>
</svg>
