<?xml version="1.0" encoding="UTF-8"?>
<svg xmlns="http://www.w3.org/2000/svg" xmlns:xlink="http://www.w3.org/1999/xlink" width="326.827087" height="244.474996" viewBox="0 0 326.827087 244.474996" version="1.1">
<defs>
<clipPath id="clip1">
  <path d="M 164 9.601562 L 317.226562 9.601562 L 317.226562 149 L 164 149 Z M 164 9.601562 "/>
</clipPath>
<clipPath id="clip2">
  <path d="M 116 9.601562 L 317.226562 9.601562 L 317.226562 188 L 116 188 Z M 116 9.601562 "/>
</clipPath>
<clipPath id="clip3">
  <path d="M 80 9.601562 L 182 9.601562 L 182 194.398438 L 80 194.398438 Z M 80 9.601562 "/>
</clipPath>
<clipPath id="clip4">
  <path d="M 56.828125 95 L 130 95 L 130 194.398438 L 56.828125 194.398438 Z M 56.828125 95 "/>
</clipPath>
<clipPath id="clip5">
  <path d="M 56.828125 155 L 91 155 L 91 194.398438 L 56.828125 194.398438 Z M 56.828125 155 "/>
</clipPath>
<clipPath id="clip6">
  <path d="M 56.828125 192 L 59 192 L 59 194.398438 L 56.828125 194.398438 Z M 56.828125 192 "/>
</clipPath>
</defs>
<g id="surface1">
<path style=" stroke:none;fill-rule:nonzero;fill:rgb(100%,100%,100%);fill-opacity:1;" d="M 0 244.476562 L 326.828125 244.476562 L 326.828125 0 L 0 0 Z M 0 244.476562 "/>
<path style=" stroke:none;fill-rule:nonzero;fill:rgb(100%,100%,100%);fill-opacity:1;" d="M 56.828125 194.398438 L 317.226562 194.398438 L 317.226562 9.601562 L 56.828125 9.601562 Z M 56.828125 194.398438 "/>
<path style="fill:none;stroke-width:0.8;stroke-linecap:butt;stroke-linejoin:round;stroke:rgb(0%,0%,0%);stroke-opacity:1;stroke-miterlimit:4;" d="M 0.000778198 -0.00117493 L 0.000778198 3.499802 " transform="matrix(1.333333,0,0,1.333333,117.858337,194.400004)"/>
<path style=" stroke:none;fill-rule:nonzero;fill:rgb(0%,0%,0%);fill-opacity:1;" d="M 109.441406 209.132812 L 117.789062 209.132812 L 117.789062 210.238281 L 109.441406 210.238281 Z M 109.441406 209.132812 "/>
<path style=" stroke:none;fill-rule:nonzero;fill:rgb(0%,0%,0%);fill-opacity:1;" d="M 124.242188 205.289062 L 120.921875 210.480469 L 124.242188 210.480469 Z M 123.894531 204.144531 L 125.550781 204.144531 L 125.550781 210.480469 L 126.9375 210.480469 L 126.9375 211.574219 L 125.550781 211.574219 L 125.550781 213.863281 L 124.242188 213.863281 L 124.242188 211.574219 L 119.855469 211.574219 L 119.855469 210.304688 Z M 123.894531 204.144531 "/>
<path style="fill:none;stroke-width:0.8;stroke-linecap:butt;stroke-linejoin:round;stroke:rgb(0%,0%,0%);stroke-opacity:1;stroke-miterlimit:4;" d="M 0.000778198 -0.00117493 L 0.000778198 3.499802 " transform="matrix(1.333333,0,0,1.333333,199.233337,194.400004)"/>
<path style=" stroke:none;fill-rule:nonzero;fill:rgb(0%,0%,0%);fill-opacity:1;" d="M 190.816406 209.132812 L 199.164062 209.132812 L 199.164062 210.238281 L 190.816406 210.238281 Z M 190.816406 209.132812 "/>
<path style=" stroke:none;fill-rule:nonzero;fill:rgb(0%,0%,0%);fill-opacity:1;" d="M 203.136719 212.757812 L 207.726562 212.757812 L 207.726562 213.863281 L 201.554688 213.863281 L 201.554688 212.757812 C 202.054688 212.242188 202.734375 211.546875 203.59375 210.679688 C 204.457031 209.808594 204.996094 209.246094 205.21875 208.992188 C 205.640625 208.523438 205.933594 208.121094 206.101562 207.792969 C 206.269531 207.464844 206.351562 207.144531 206.351562 206.828125 C 206.351562 206.308594 206.171875 205.890625 205.808594 205.566406 C 205.445312 205.238281 204.972656 205.074219 204.390625 205.074219 C 203.980469 205.074219 203.542969 205.148438 203.085938 205.289062 C 202.628906 205.433594 202.140625 205.648438 201.617188 205.941406 L 201.617188 204.613281 C 202.148438 204.398438 202.640625 204.238281 203.101562 204.132812 C 203.5625 204.023438 203.984375 203.96875 204.367188 203.96875 C 205.375 203.96875 206.175781 204.222656 206.773438 204.726562 C 207.375 205.226562 207.671875 205.898438 207.671875 206.742188 C 207.671875 207.140625 207.597656 207.519531 207.449219 207.878906 C 207.300781 208.234375 207.027344 208.65625 206.632812 209.144531 C 206.523438 209.269531 206.179688 209.632812 205.597656 210.234375 C 205.015625 210.835938 204.195312 211.679688 203.136719 212.757812 Z M 203.136719 212.757812 "/>
<path style="fill:none;stroke-width:0.8;stroke-linecap:butt;stroke-linejoin:round;stroke:rgb(0%,0%,0%);stroke-opacity:1;stroke-miterlimit:4;" d="M 0.000778198 -0.00117493 L 0.000778198 3.499802 " transform="matrix(1.333333,0,0,1.333333,280.608337,194.400004)"/>
<path style=" stroke:none;fill-rule:nonzero;fill:rgb(0%,0%,0%);fill-opacity:1;" d="M 280.605469 205.011719 C 279.929688 205.011719 279.417969 205.34375 279.078125 206.011719 C 278.738281 206.675781 278.566406 207.675781 278.566406 209.015625 C 278.566406 210.347656 278.738281 211.347656 279.078125 212.011719 C 279.417969 212.679688 279.929688 213.011719 280.605469 213.011719 C 281.285156 213.011719 281.796875 212.679688 282.136719 212.011719 C 282.480469 211.347656 282.648438 210.347656 282.648438 209.015625 C 282.648438 207.675781 282.480469 206.675781 282.136719 206.011719 C 281.796875 205.34375 281.285156 205.011719 280.605469 205.011719 Z M 280.605469 203.96875 C 281.695312 203.96875 282.527344 204.398438 283.101562 205.261719 C 283.675781 206.125 283.964844 207.375 283.964844 209.015625 C 283.964844 210.652344 283.675781 211.898438 283.101562 212.761719 C 282.527344 213.625 281.695312 214.054688 280.605469 214.054688 C 279.515625 214.054688 278.683594 213.625 278.109375 212.761719 C 277.535156 211.898438 277.246094 210.652344 277.246094 209.015625 C 277.246094 207.375 277.535156 206.125 278.109375 205.261719 C 278.683594 204.398438 279.515625 203.96875 280.605469 203.96875 Z M 280.605469 203.96875 "/>
<path style=" stroke:none;fill-rule:nonzero;fill:rgb(0%,0%,0%);fill-opacity:1;" d="M 186.160156 224.808594 L 183.519531 228.359375 L 186.292969 232.101562 L 184.882812 232.101562 L 182.757812 229.238281 L 180.636719 232.101562 L 179.222656 232.101562 L 182.054688 228.289062 L 179.464844 224.808594 L 180.878906 224.808594 L 182.808594 227.410156 L 184.742188 224.808594 Z M 186.160156 224.808594 "/>
<path style=" stroke:none;fill-rule:nonzero;fill:rgb(0%,0%,0%);fill-opacity:1;" d="M 188.382812 230.996094 L 190.53125 230.996094 L 190.53125 223.578125 L 188.195312 224.046875 L 188.195312 222.851562 L 190.519531 222.382812 L 191.835938 222.382812 L 191.835938 230.996094 L 193.980469 230.996094 L 193.980469 232.101562 L 188.382812 232.101562 Z M 188.382812 230.996094 "/>
<path style="fill:none;stroke-width:0.8;stroke-linecap:butt;stroke-linejoin:round;stroke:rgb(0%,0%,0%);stroke-opacity:1;stroke-miterlimit:4;" d="M 0.000782013 -0.00117493 L -3.500195 -0.00117493 " transform="matrix(1.333333,0,0,1.333333,56.827082,194.400004)"/>
<path style=" stroke:none;fill-rule:nonzero;fill:rgb(0%,0%,0%);fill-opacity:1;" d="M 29.25 194.730469 L 37.597656 194.730469 L 37.597656 195.839844 L 29.25 195.839844 Z M 29.25 194.730469 "/>
<path style=" stroke:none;fill-rule:nonzero;fill:rgb(0%,0%,0%);fill-opacity:1;" d="M 44.417969 194.222656 C 45.050781 194.359375 45.539062 194.640625 45.894531 195.066406 C 46.246094 195.492188 46.425781 196.015625 46.425781 196.640625 C 46.425781 197.597656 46.09375 198.339844 45.433594 198.867188 C 44.773438 199.394531 43.835938 199.65625 42.621094 199.65625 C 42.214844 199.65625 41.796875 199.613281 41.363281 199.535156 C 40.929688 199.453125 40.484375 199.332031 40.027344 199.171875 L 40.027344 197.902344 C 40.390625 198.117188 40.789062 198.277344 41.222656 198.382812 C 41.65625 198.492188 42.109375 198.546875 42.585938 198.546875 C 43.40625 198.546875 44.035156 198.382812 44.46875 198.058594 C 44.898438 197.734375 45.117188 197.261719 45.117188 196.640625 C 45.117188 196.066406 44.914062 195.617188 44.511719 195.296875 C 44.113281 194.972656 43.554688 194.8125 42.839844 194.8125 L 41.707031 194.8125 L 41.707031 193.730469 L 42.890625 193.730469 C 43.535156 193.730469 44.03125 193.601562 44.375 193.34375 C 44.71875 193.085938 44.886719 192.710938 44.886719 192.226562 C 44.886719 191.726562 44.710938 191.34375 44.355469 191.078125 C 44.003906 190.808594 43.5 190.675781 42.839844 190.675781 C 42.476562 190.675781 42.089844 190.714844 41.679688 190.792969 C 41.265625 190.871094 40.8125 190.992188 40.316406 191.15625 L 40.316406 189.988281 C 40.816406 189.847656 41.285156 189.742188 41.722656 189.675781 C 42.15625 189.605469 42.570312 189.570312 42.957031 189.570312 C 43.953125 189.570312 44.742188 189.796875 45.324219 190.25 C 45.90625 190.703125 46.195312 191.316406 46.195312 192.089844 C 46.195312 192.628906 46.042969 193.082031 45.734375 193.453125 C 45.425781 193.824219 44.988281 194.082031 44.417969 194.222656 Z M 44.417969 194.222656 "/>
<path style="fill:none;stroke-width:0.8;stroke-linecap:butt;stroke-linejoin:round;stroke:rgb(0%,0%,0%);stroke-opacity:1;stroke-miterlimit:4;" d="M 0.000782013 0.000183105 L -3.500195 0.000183105 " transform="matrix(1.333333,0,0,1.333333,56.827082,147.015381)"/>
<path style=" stroke:none;fill-rule:nonzero;fill:rgb(0%,0%,0%);fill-opacity:1;" d="M 29.25 147.347656 L 37.597656 147.347656 L 37.597656 148.453125 L 29.25 148.453125 Z M 29.25 147.347656 "/>
<path style=" stroke:none;fill-rule:nonzero;fill:rgb(0%,0%,0%);fill-opacity:1;" d="M 41.566406 150.976562 L 46.15625 150.976562 L 46.15625 152.082031 L 39.988281 152.082031 L 39.988281 150.976562 C 40.484375 150.457031 41.164062 149.765625 42.027344 148.894531 C 42.886719 148.023438 43.429688 147.464844 43.652344 147.210938 C 44.070312 146.738281 44.367188 146.339844 44.53125 146.011719 C 44.699219 145.683594 44.785156 145.359375 44.785156 145.042969 C 44.785156 144.527344 44.601562 144.105469 44.242188 143.78125 C 43.878906 143.453125 43.40625 143.292969 42.824219 143.292969 C 42.410156 143.292969 41.976562 143.363281 41.519531 143.507812 C 41.0625 143.648438 40.570312 143.867188 40.050781 144.15625 L 40.050781 142.828125 C 40.582031 142.617188 41.074219 142.457031 41.535156 142.347656 C 41.996094 142.238281 42.417969 142.183594 42.800781 142.183594 C 43.804688 142.183594 44.609375 142.4375 45.207031 142.941406 C 45.804688 143.445312 46.105469 144.117188 46.105469 144.957031 C 46.105469 145.359375 46.03125 145.738281 45.878906 146.09375 C 45.730469 146.453125 45.460938 146.875 45.0625 147.359375 C 44.957031 147.488281 44.609375 147.851562 44.027344 148.453125 C 43.449219 149.054688 42.628906 149.894531 41.566406 150.976562 Z M 41.566406 150.976562 "/>
<path style="fill:none;stroke-width:0.8;stroke-linecap:butt;stroke-linejoin:round;stroke:rgb(0%,0%,0%);stroke-opacity:1;stroke-miterlimit:4;" d="M 0.000782013 -0.00139618 L -3.500195 -0.00139618 " transform="matrix(1.333333,0,0,1.333333,56.827082,99.630768)"/>
<path style=" stroke:none;fill-rule:nonzero;fill:rgb(0%,0%,0%);fill-opacity:1;" d="M 29.25 99.964844 L 37.597656 99.964844 L 37.597656 101.070312 L 29.25 101.070312 Z M 29.25 99.964844 "/>
<path style=" stroke:none;fill-rule:nonzero;fill:rgb(0%,0%,0%);fill-opacity:1;" d="M 40.664062 103.589844 L 42.8125 103.589844 L 42.8125 96.171875 L 40.472656 96.640625 L 40.472656 95.445312 L 42.800781 94.976562 L 44.113281 94.976562 L 44.113281 103.589844 L 46.261719 103.589844 L 46.261719 104.695312 L 40.664062 104.695312 Z M 40.664062 103.589844 "/>
<path style="fill:none;stroke-width:0.8;stroke-linecap:butt;stroke-linejoin:round;stroke:rgb(0%,0%,0%);stroke-opacity:1;stroke-miterlimit:4;" d="M 0.000782013 -0.0000457764 L -3.500195 -0.0000457764 " transform="matrix(1.333333,0,0,1.333333,56.827082,52.246155)"/>
<path style=" stroke:none;fill-rule:nonzero;fill:rgb(0%,0%,0%);fill-opacity:1;" d="M 43.246094 48.457031 C 42.570312 48.457031 42.0625 48.789062 41.722656 49.457031 C 41.378906 50.121094 41.210938 51.125 41.210938 52.460938 C 41.210938 53.792969 41.378906 54.792969 41.722656 55.460938 C 42.0625 56.125 42.570312 56.460938 43.246094 56.460938 C 43.929688 56.460938 44.441406 56.125 44.78125 55.460938 C 45.121094 54.792969 45.292969 53.792969 45.292969 52.460938 C 45.292969 51.125 45.121094 50.121094 44.78125 49.457031 C 44.441406 48.789062 43.929688 48.457031 43.246094 48.457031 Z M 43.246094 47.414062 C 44.339844 47.414062 45.171875 47.847656 45.746094 48.710938 C 46.320312 49.570312 46.609375 50.820312 46.609375 52.460938 C 46.609375 54.097656 46.320312 55.347656 45.746094 56.210938 C 45.171875 57.070312 44.339844 57.5 43.246094 57.5 C 42.160156 57.5 41.328125 57.070312 40.753906 56.210938 C 40.175781 55.347656 39.890625 54.097656 39.890625 52.460938 C 39.890625 50.820312 40.175781 49.570312 40.753906 48.710938 C 41.328125 47.847656 42.160156 47.414062 43.246094 47.414062 Z M 43.246094 47.414062 "/>
<path style=" stroke:none;fill-rule:nonzero;fill:rgb(0%,0%,0%);fill-opacity:1;" d="M 12.441406 102.867188 L 15.988281 105.507812 L 19.730469 102.734375 L 19.730469 104.144531 L 16.867188 106.269531 L 19.730469 108.390625 L 19.730469 109.804688 L 15.917969 106.972656 L 12.441406 109.5625 L 12.441406 108.148438 L 15.039062 106.214844 L 12.441406 104.285156 Z M 12.441406 102.867188 "/>
<path style=" stroke:none;fill-rule:nonzero;fill:rgb(0%,0%,0%);fill-opacity:1;" d="M 18.625 99.738281 L 18.625 95.148438 L 19.730469 95.148438 L 19.730469 101.320312 L 18.625 101.320312 C 18.109375 100.820312 17.414062 100.140625 16.546875 99.28125 C 15.675781 98.417969 15.113281 97.875 14.859375 97.65625 C 14.386719 97.234375 13.988281 96.941406 13.660156 96.773438 C 13.332031 96.605469 13.011719 96.523438 12.695312 96.523438 C 12.175781 96.523438 11.757812 96.703125 11.429688 97.066406 C 11.105469 97.429688 10.941406 97.898438 10.941406 98.480469 C 10.941406 98.894531 11.011719 99.332031 11.15625 99.789062 C 11.300781 100.246094 11.515625 100.734375 11.808594 101.253906 L 10.480469 101.253906 C 10.265625 100.726562 10.105469 100.230469 9.996094 99.773438 C 9.890625 99.3125 9.835938 98.890625 9.835938 98.507812 C 9.835938 97.5 10.085938 96.699219 10.589844 96.097656 C 11.09375 95.5 11.765625 95.199219 12.609375 95.199219 C 13.007812 95.199219 13.386719 95.277344 13.746094 95.425781 C 14.101562 95.574219 14.523438 95.847656 15.011719 96.242188 C 15.136719 96.351562 15.5 96.695312 16.101562 97.277344 C 16.703125 97.859375 17.542969 98.679688 18.625 99.738281 Z M 18.625 99.738281 "/>
<path style="fill:none;stroke-width:1.5;stroke-linecap:square;stroke-linejoin:round;stroke:rgb(100%,49.803922%,5.490196%);stroke-opacity:1;stroke-miterlimit:4;" d="M 57.878906 110.261719 L 88.394531 81.832031 L 112.807617 64.772461 L 132.336914 54.536133 L 147.960938 48.395508 L 160.458984 44.712891 L 170.458008 42.500977 L 178.458984 41.173828 L 184.857422 40.379883 L 189.978516 39.902344 L 194.074219 39.615234 L 197.349609 39.442383 L 199.97168 39.339844 L 202.069336 39.27832 L 203.745117 39.240234 L 205.086914 39.216797 L 206.162109 39.205078 L 207.020508 39.196289 L 207.708984 39.19043 L 208.256836 39.1875 L 208.696289 39.1875 " transform="matrix(1.333333,0,0,1.333333,0,0.000000000000014211)"/>
<path style="fill-rule:nonzero;fill:rgb(100%,49.803922%,5.490196%);fill-opacity:1;stroke-width:1;stroke-linecap:butt;stroke-linejoin:round;stroke:rgb(100%,49.803922%,5.490196%);stroke-opacity:1;stroke-miterlimit:4;" d="M 0.000782013 3.000183 C 0.794727 3.000183 1.559376 2.683777 2.121876 2.121277 C 2.684376 1.558777 3.000782 0.797058 3.000782 0.000183105 C 3.000782 -0.796692 2.684376 -1.558411 2.121876 -2.120911 C 1.559376 -2.683411 0.794727 -2.999817 0.000782013 -2.999817 C -0.796093 -2.999817 -1.557812 -2.683411 -2.120312 -2.120911 C -2.682812 -1.558411 -2.999218 -0.796692 -2.999218 0.000183105 C -2.999218 0.797058 -2.682812 1.558777 -2.120312 2.121277 C -1.557812 2.683777 -0.796093 3.000183 0.000782013 3.000183 Z M 0.000782013 3.000183 " transform="matrix(1.333333,0,0,1.333333,77.170832,147.015381)"/>
<path style="fill-rule:nonzero;fill:rgb(100%,49.803922%,5.490196%);fill-opacity:1;stroke-width:1;stroke-linecap:butt;stroke-linejoin:round;stroke:rgb(100%,49.803922%,5.490196%);stroke-opacity:1;stroke-miterlimit:4;" d="M 0.000778198 3.001259 C 0.794724 3.001259 1.559372 2.684853 2.121872 2.122353 C 2.684372 1.559853 3.000778 0.795204 3.000778 0.00125885 C 3.000778 -0.795616 2.684372 -1.557335 2.121872 -2.122765 C 1.559372 -2.685265 0.794724 -2.998741 0.000778198 -2.998741 C -0.796097 -2.998741 -1.557816 -2.685265 -2.120316 -2.122765 C -2.682816 -1.557335 -2.999222 -0.795616 -2.999222 0.00125885 C -2.999222 0.795204 -2.682816 1.559853 -2.120316 2.122353 C -1.557816 2.684853 -0.796097 3.001259 0.000778198 3.001259 Z M 0.000778198 3.001259 " transform="matrix(1.333333,0,0,1.333333,117.858337,109.107697)"/>
<path style="fill-rule:nonzero;fill:rgb(100%,49.803922%,5.490196%);fill-opacity:1;stroke-width:1;stroke-linecap:butt;stroke-linejoin:round;stroke:rgb(100%,49.803922%,5.490196%);stroke-opacity:1;stroke-miterlimit:4;" d="M 0.00136566 3.000153 C 0.795311 3.000153 1.559959 2.683746 2.122459 2.121246 C 2.684959 1.558746 3.001366 0.797028 3.001366 0.000152588 C 3.001366 -0.796722 2.684959 -1.558441 2.122459 -2.120941 C 1.559959 -2.683441 0.795311 -2.999847 0.00136566 -2.999847 C -0.795509 -2.999847 -1.560158 -2.683441 -2.122658 -2.120941 C -2.685158 -1.558441 -2.998634 -0.796722 -2.998634 0.000152588 C -2.998634 0.797028 -2.685158 1.558746 -2.122658 2.121246 C -1.560158 2.683746 -0.795509 3.000153 0.00136566 3.000153 Z M 0.00136566 3.000153 " transform="matrix(1.333333,0,0,1.333333,150.408335,86.363078)"/>
<path style="fill-rule:nonzero;fill:rgb(100%,49.803922%,5.490196%);fill-opacity:1;stroke-width:1;stroke-linecap:butt;stroke-linejoin:round;stroke:rgb(100%,49.803922%,5.490196%);stroke-opacity:1;stroke-miterlimit:4;" d="M 0.000671387 2.998901 C 0.794617 2.998901 1.559265 2.682495 2.121765 2.119995 C 2.684265 1.557495 3.000671 0.795776 3.000671 -0.00109863 C 3.000671 -0.795044 2.684265 -1.559692 2.121765 -2.122192 C 1.559265 -2.684692 0.794617 -3.001099 0.000671387 -3.001099 C -0.796204 -3.001099 -1.557922 -2.684692 -2.120422 -2.122192 C -2.682922 -1.559692 -2.999329 -0.795044 -2.999329 -0.00109863 C -2.999329 0.795776 -2.682922 1.557495 -2.120422 2.119995 C -1.557922 2.682495 -0.796204 2.998901 0.000671387 2.998901 Z M 0.000671387 2.998901 " transform="matrix(1.333333,0,0,1.333333,176.448324,72.716309)"/>
<path style="fill-rule:nonzero;fill:rgb(100%,49.803922%,5.490196%);fill-opacity:1;stroke-width:1;stroke-linecap:butt;stroke-linejoin:round;stroke:rgb(100%,49.803922%,5.490196%);stroke-opacity:1;stroke-miterlimit:4;" d="M 0.000686646 2.999325 C 0.794632 2.999325 1.55928 2.682919 2.12178 2.120419 C 2.68428 1.557919 3.000687 0.7962 3.000687 -0.000675201 C 3.000687 -0.794621 2.68428 -1.559269 2.12178 -2.121769 C 1.55928 -2.684269 0.794632 -3.000675 0.000686646 -3.000675 C -0.796188 -3.000675 -1.557907 -2.684269 -2.120407 -2.121769 C -2.682907 -1.559269 -2.999313 -0.794621 -2.999313 -0.000675201 C -2.999313 0.7962 -2.682907 1.557919 -2.120407 2.120419 C -1.557907 2.682919 -0.796188 2.999325 0.000686646 2.999325 Z M 0.000686646 2.999325 " transform="matrix(1.333333,0,0,1.333333,197.280334,64.528244)"/>
<path style="fill-rule:nonzero;fill:rgb(100%,49.803922%,5.490196%);fill-opacity:1;stroke-width:1;stroke-linecap:butt;stroke-linejoin:round;stroke:rgb(100%,49.803922%,5.490196%);stroke-opacity:1;stroke-miterlimit:4;" d="M -0.000473022 3.001335 C 0.796402 3.001335 1.558121 2.684929 2.120621 2.122429 C 2.683121 1.559929 2.999527 0.79528 2.999527 0.00133514 C 2.999527 -0.79554 2.683121 -1.560188 2.120621 -2.122688 C 1.558121 -2.685188 0.796402 -2.998665 -0.000473022 -2.998665 C -0.794418 -2.998665 -1.559067 -2.685188 -2.121567 -2.122688 C -2.684067 -1.560188 -3.000473 -0.79554 -3.000473 0.00133514 C -3.000473 0.79528 -2.684067 1.559929 -2.121567 2.122429 C -1.559067 2.684929 -0.794418 3.001335 -0.000473022 3.001335 Z M -0.000473022 3.001335 " transform="matrix(1.333333,0,0,1.333333,213.945943,59.615407)"/>
<path style="fill-rule:nonzero;fill:rgb(100%,49.803922%,5.490196%);fill-opacity:1;stroke-width:1;stroke-linecap:butt;stroke-linejoin:round;stroke:rgb(100%,49.803922%,5.490196%);stroke-opacity:1;stroke-miterlimit:4;" d="M -0.000808716 3.000198 C 0.796066 3.000198 1.557785 2.683792 2.120285 2.121292 C 2.682785 1.558792 2.999191 0.797073 2.999191 0.000198364 C 2.999191 -0.796677 2.682785 -1.558395 2.120285 -2.120895 C 1.557785 -2.683395 0.796066 -2.999802 -0.000808716 -2.999802 C -0.794754 -2.999802 -1.559402 -2.683395 -2.121902 -2.120895 C -2.684402 -1.558395 -3.000809 -0.796677 -3.000809 0.000198364 C -3.000809 0.797073 -2.684402 1.558792 -2.121902 2.121292 C -1.559402 2.683792 -0.794754 3.000198 -0.000808716 3.000198 Z M -0.000808716 3.000198 " transform="matrix(1.333333,0,0,1.333333,227.278422,56.667704)"/>
<path style="fill-rule:nonzero;fill:rgb(100%,49.803922%,5.490196%);fill-opacity:1;stroke-width:1;stroke-linecap:butt;stroke-linejoin:round;stroke:rgb(100%,49.803922%,5.490196%);stroke-opacity:1;stroke-miterlimit:4;" d="M 0.000686646 2.999516 C 0.794632 2.999516 1.55928 2.683109 2.12178 2.120609 C 2.68428 1.558109 3.000687 0.796391 3.000687 -0.000484467 C 3.000687 -0.79443 2.68428 -1.559078 2.12178 -2.121578 C 1.55928 -2.684078 0.794632 -3.000484 0.000686646 -3.000484 C -0.796188 -3.000484 -1.557907 -2.684078 -2.120407 -2.121578 C -2.682907 -1.559078 -2.999313 -0.79443 -2.999313 -0.000484467 C -2.999313 0.796391 -2.682907 1.558109 -2.120407 2.120609 C -1.557907 2.683109 -0.796188 2.999516 0.000686646 2.999516 Z M 0.000686646 2.999516 " transform="matrix(1.333333,0,0,1.333333,237.944397,54.899083)"/>
<path style="fill-rule:nonzero;fill:rgb(100%,49.803922%,5.490196%);fill-opacity:1;stroke-width:1;stroke-linecap:butt;stroke-linejoin:round;stroke:rgb(100%,49.803922%,5.490196%);stroke-opacity:1;stroke-miterlimit:4;" d="M -0.000473022 3.00145 C 0.796402 3.00145 1.558121 2.685043 2.120621 2.122543 C 2.683121 1.560043 2.999527 0.795395 2.999527 0.00144958 C 2.999527 -0.795425 2.683121 -1.560074 2.120621 -2.122574 C 1.558121 -2.685074 0.796402 -2.99855 -0.000473022 -2.99855 C -0.794418 -2.99855 -1.559067 -2.685074 -2.121567 -2.122574 C -2.684067 -1.560074 -3.000473 -0.795425 -3.000473 0.00144958 C -3.000473 0.795395 -2.684067 1.560043 -2.121567 2.122543 C -1.559067 2.685043 -0.794418 3.00145 -0.000473022 3.00145 Z M -0.000473022 3.00145 " transform="matrix(1.333333,0,0,1.333333,246.477193,53.837911)"/>
<path style="fill-rule:nonzero;fill:rgb(100%,49.803922%,5.490196%);fill-opacity:1;stroke-width:1;stroke-linecap:butt;stroke-linejoin:round;stroke:rgb(100%,49.803922%,5.490196%);stroke-opacity:1;stroke-miterlimit:4;" d="M 0.000961304 3.001438 C 0.794907 3.001438 1.559555 2.685032 2.122055 2.122532 C 2.684555 1.560032 3.000961 0.795383 3.000961 0.00143814 C 3.000961 -0.795437 2.684555 -1.560085 2.122055 -2.122585 C 1.559555 -2.685085 0.794907 -2.998562 0.000961304 -2.998562 C -0.795914 -2.998562 -1.557632 -2.685085 -2.120132 -2.122585 C -2.682632 -1.560085 -2.999039 -0.795437 -2.999039 0.00143814 C -2.999039 0.795383 -2.682632 1.560032 -2.120132 2.122532 C -1.557632 2.685032 -0.795914 3.001438 0.000961304 3.001438 Z M 0.000961304 3.001438 " transform="matrix(1.333333,0,0,1.333333,253.303406,53.201207)"/>
<path style="fill-rule:nonzero;fill:rgb(100%,49.803922%,5.490196%);fill-opacity:1;stroke-width:1;stroke-linecap:butt;stroke-linejoin:round;stroke:rgb(100%,49.803922%,5.490196%);stroke-opacity:1;stroke-miterlimit:4;" d="M 0.000915527 3.000843 C 0.794861 3.000843 1.559509 2.684437 2.122009 2.121937 C 2.684509 1.559437 3.000916 0.794788 3.000916 0.000843048 C 3.000916 -0.796032 2.684509 -1.557751 2.122009 -2.120251 C 1.559509 -2.682751 0.794861 -2.999157 0.000915527 -2.999157 C -0.795959 -2.999157 -1.557678 -2.682751 -2.120178 -2.120251 C -2.682678 -1.557751 -2.999084 -0.796032 -2.999084 0.000843048 C -2.999084 0.794788 -2.682678 1.559437 -2.120178 2.121937 C -1.557678 2.684437 -0.795959 3.000843 0.000915527 3.000843 Z M 0.000915527 3.000843 " transform="matrix(1.333333,0,0,1.333333,258.764404,52.819188)"/>
<path style="fill-rule:nonzero;fill:rgb(100%,49.803922%,5.490196%);fill-opacity:1;stroke-width:1;stroke-linecap:butt;stroke-linejoin:round;stroke:rgb(100%,49.803922%,5.490196%);stroke-opacity:1;stroke-miterlimit:4;" d="M -0.000274658 2.999905 C 0.7966 2.999905 1.558319 2.683498 2.120819 2.120998 C 2.683319 1.558498 2.999725 0.79678 2.999725 -0.0000953674 C 2.999725 -0.79697 2.683319 -1.558689 2.120819 -2.121189 C 1.558319 -2.683689 0.7966 -3.000095 -0.000274658 -3.000095 C -0.79422 -3.000095 -1.558868 -2.683689 -2.121368 -2.121189 C -2.683868 -1.558689 -3.000275 -0.79697 -3.000275 -0.0000953674 C -3.000275 0.79678 -2.683868 1.558498 -2.121368 2.120998 C -1.558868 2.683498 -0.79422 2.999905 -0.000274658 2.999905 Z M -0.000274658 2.999905 " transform="matrix(1.333333,0,0,1.333333,263.133179,52.589971)"/>
<path style="fill-rule:nonzero;fill:rgb(100%,49.803922%,5.490196%);fill-opacity:1;stroke-width:1;stroke-linecap:butt;stroke-linejoin:round;stroke:rgb(100%,49.803922%,5.490196%);stroke-opacity:1;stroke-miterlimit:4;" d="M 0.000518799 3.000511 C 0.794464 3.000511 1.559113 2.684105 2.121613 2.121605 C 2.684113 1.559105 3.000519 0.794456 3.000519 0.000511169 C 3.000519 -0.796364 2.684113 -1.558083 2.121613 -2.120583 C 1.559113 -2.683083 0.794464 -2.999489 0.000518799 -2.999489 C -0.796356 -2.999489 -1.558075 -2.683083 -2.120575 -2.120583 C -2.683075 -1.558083 -2.999481 -0.796364 -2.999481 0.000511169 C -2.999481 0.794456 -2.683075 1.559105 -2.120575 2.121605 C -1.558075 2.684105 -0.796356 3.000511 0.000518799 3.000511 Z M 0.000518799 3.000511 " transform="matrix(1.333333,0,0,1.333333,266.628215,52.452443)"/>
<path style="fill-rule:nonzero;fill:rgb(100%,49.803922%,5.490196%);fill-opacity:1;stroke-width:1;stroke-linecap:butt;stroke-linejoin:round;stroke:rgb(100%,49.803922%,5.490196%);stroke-opacity:1;stroke-miterlimit:4;" d="M 0.00115967 3.000874 C 0.795105 3.000874 1.559753 2.684467 2.122253 2.121967 C 2.684753 1.559467 3.00116 0.794819 3.00116 0.000873566 C 3.00116 -0.796001 2.684753 -1.55772 2.122253 -2.12022 C 1.559753 -2.68272 0.795105 -2.999126 0.00115967 -2.999126 C -0.795715 -2.999126 -1.557434 -2.68272 -2.119934 -2.12022 C -2.685364 -1.55772 -2.99884 -0.796001 -2.99884 0.000873566 C -2.99884 0.794819 -2.685364 1.559467 -2.119934 2.121967 C -1.557434 2.684467 -0.795715 3.000874 0.00115967 3.000874 Z M 0.00115967 3.000874 " transform="matrix(1.333333,0,0,1.333333,269.424235,52.369929)"/>
<path style="fill-rule:nonzero;fill:rgb(100%,49.803922%,5.490196%);fill-opacity:1;stroke-width:1;stroke-linecap:butt;stroke-linejoin:round;stroke:rgb(100%,49.803922%,5.490196%);stroke-opacity:1;stroke-miterlimit:4;" d="M -0.000671387 2.99992 C 0.796204 2.99992 1.557922 2.683514 2.120422 2.121014 C 2.682922 1.558514 2.999329 0.796795 2.999329 -0.0000801086 C 2.999329 -0.796955 2.682922 -1.558674 2.120422 -2.121174 C 1.557922 -2.683674 0.796204 -3.00008 -0.000671387 -3.00008 C -0.794617 -3.00008 -1.559265 -2.683674 -2.121765 -2.121174 C -2.684265 -1.558674 -3.000671 -0.796955 -3.000671 -0.0000801086 C -3.000671 0.796795 -2.684265 1.558514 -2.121765 2.121014 C -1.559265 2.683514 -0.794617 2.99992 -0.000671387 2.99992 Z M -0.000671387 2.99992 " transform="matrix(1.333333,0,0,1.333333,271.661051,52.320419)"/>
<path style="fill-rule:nonzero;fill:rgb(100%,49.803922%,5.490196%);fill-opacity:1;stroke-width:1;stroke-linecap:butt;stroke-linejoin:round;stroke:rgb(100%,49.803922%,5.490196%);stroke-opacity:1;stroke-miterlimit:4;" d="M -0.000976562 2.998764 C 0.795898 2.998764 1.557617 2.685287 2.120117 2.119858 C 2.682617 1.557358 2.999023 0.795639 2.999023 -0.00123596 C 2.999023 -0.795181 2.682617 -1.55983 2.120117 -2.12233 C 1.557617 -2.68483 0.795898 -3.001236 -0.000976562 -3.001236 C -0.794922 -3.001236 -1.55957 -2.68483 -2.12207 -2.12233 C -2.68457 -1.55983 -3.000977 -0.795181 -3.000977 -0.00123596 C -3.000977 0.795639 -2.68457 1.557358 -2.12207 2.119858 C -1.55957 2.685287 -0.794922 2.998764 -0.000976562 2.998764 Z M -0.000976562 2.998764 " transform="matrix(1.333333,0,0,1.333333,273.450521,52.29071)"/>
<path style="fill-rule:nonzero;fill:rgb(100%,49.803922%,5.490196%);fill-opacity:1;stroke-width:1;stroke-linecap:butt;stroke-linejoin:round;stroke:rgb(100%,49.803922%,5.490196%);stroke-opacity:1;stroke-miterlimit:4;" d="M 0.000549316 3.000412 C 0.794495 3.000412 1.559143 2.684006 2.121643 2.121506 C 2.684143 1.559006 3.000549 0.794357 3.000549 0.000411987 C 3.000549 -0.796463 2.684143 -1.558182 2.121643 -2.120682 C 1.559143 -2.683182 0.794495 -2.999588 0.000549316 -2.999588 C -0.796326 -2.999588 -1.558044 -2.683182 -2.120544 -2.120682 C -2.683044 -1.558182 -2.999451 -0.796463 -2.999451 0.000411987 C -2.999451 0.794357 -2.683044 1.559006 -2.120544 2.121506 C -1.558044 2.684006 -0.796326 3.000412 0.000549316 3.000412 Z M 0.000549316 3.000412 " transform="matrix(1.333333,0,0,1.333333,274.88208,52.272888)"/>
<path style="fill-rule:nonzero;fill:rgb(100%,49.803922%,5.490196%);fill-opacity:1;stroke-width:1;stroke-linecap:butt;stroke-linejoin:round;stroke:rgb(100%,49.803922%,5.490196%);stroke-opacity:1;stroke-miterlimit:4;" d="M 0.0000152588 2.999641 C 0.79689 2.999641 1.558609 2.683235 2.121109 2.120735 C 2.683609 1.558235 3.000015 0.796516 3.000015 -0.000358582 C 3.000015 -0.794304 2.683609 -1.558952 2.121109 -2.121452 C 1.558609 -2.683952 0.79689 -3.000359 0.0000152588 -3.000359 C -0.79686 -3.000359 -1.558578 -2.683952 -2.121078 -2.121452 C -2.683578 -1.558952 -2.999985 -0.794304 -2.999985 -0.000358582 C -2.999985 0.796516 -2.683578 1.558235 -2.121078 2.120735 C -1.558578 2.683235 -0.79686 2.999641 0.0000152588 2.999641 Z M 0.0000152588 2.999641 " transform="matrix(1.333333,0,0,1.333333,276.027323,52.262197)"/>
<path style="fill-rule:nonzero;fill:rgb(100%,49.803922%,5.490196%);fill-opacity:1;stroke-width:1;stroke-linecap:butt;stroke-linejoin:round;stroke:rgb(100%,49.803922%,5.490196%);stroke-opacity:1;stroke-miterlimit:4;" d="M 0.00134277 2.998596 C 0.795288 2.998596 1.559937 2.68512 2.122437 2.12262 C 2.684937 1.56012 3.001343 0.795471 3.001343 -0.00140381 C 3.001343 -0.795349 2.684937 -1.559998 2.122437 -2.122498 C 1.559937 -2.684998 0.795288 -3.001404 0.00134277 -3.001404 C -0.795532 -3.001404 -1.560181 -2.684998 -2.122681 -2.122498 C -2.685181 -1.559998 -2.998657 -0.795349 -2.998657 -0.00140381 C -2.998657 0.795471 -2.685181 1.56012 -2.122681 2.12262 C -1.560181 2.68512 -0.795532 2.998596 0.00134277 2.998596 Z M 0.00134277 2.998596 " transform="matrix(1.333333,0,0,1.333333,276.943522,52.255778)"/>
<path style="fill-rule:nonzero;fill:rgb(100%,49.803922%,5.490196%);fill-opacity:1;stroke-width:1;stroke-linecap:butt;stroke-linejoin:round;stroke:rgb(100%,49.803922%,5.490196%);stroke-opacity:1;stroke-miterlimit:4;" d="M -0.000534058 2.998554 C 0.796341 2.998554 1.55806 2.685078 2.12056 2.122578 C 2.68306 1.560078 2.999466 0.795429 2.999466 -0.00144577 C 2.999466 -0.795391 2.68306 -1.56004 2.12056 -2.12254 C 1.55806 -2.68504 0.796341 -3.001446 -0.000534058 -3.001446 C -0.794479 -3.001446 -1.559128 -2.68504 -2.121628 -2.12254 C -2.684128 -1.56004 -3.000534 -0.795391 -3.000534 -0.00144577 C -3.000534 0.795429 -2.684128 1.560078 -2.121628 2.122578 C -1.559128 2.685078 -0.794479 2.998554 -0.000534058 2.998554 Z M -0.000534058 2.998554 " transform="matrix(1.333333,0,0,1.333333,277.676493,52.251928)"/>
<path style="fill-rule:nonzero;fill:rgb(100%,49.803922%,5.490196%);fill-opacity:1;stroke-width:1;stroke-linecap:butt;stroke-linejoin:round;stroke:rgb(100%,49.803922%,5.490196%);stroke-opacity:1;stroke-miterlimit:4;" d="M -0.000854492 3.000286 C 0.796021 3.000286 1.557739 2.68388 2.120239 2.12138 C 2.682739 1.55888 2.999146 0.794231 2.999146 0.000286102 C 2.999146 -0.796589 2.682739 -1.558308 2.120239 -2.120808 C 1.557739 -2.683308 0.796021 -2.999714 -0.000854492 -2.999714 C -0.7948 -2.999714 -1.559448 -2.683308 -2.121948 -2.120808 C -2.684448 -1.558308 -3.000854 -0.796589 -3.000854 0.000286102 C -3.000854 0.794231 -2.684448 1.55888 -2.121948 2.12138 C -1.559448 2.68388 -0.7948 3.000286 -0.000854492 3.000286 Z M -0.000854492 3.000286 " transform="matrix(1.333333,0,0,1.333333,278.262858,52.249619)"/>
<g clip-path="url(#clip1)" clip-rule="nonzero">
<path style="fill:none;stroke-width:1.5;stroke-linecap:butt;stroke-linejoin:round;stroke:rgb(12.156863%,46.666667%,70.588237%);stroke-opacity:1;stroke-miterlimit:4;" d="M 133.388672 7.201172 L 131.355469 10.754883 L 131.115234 11.226562 L 129.618164 14.308594 L 128.121094 17.862305 L 128.06543 18.023437 L 126.899414 21.416016 L 125.900391 24.969727 L 125.124023 28.523437 L 125.012695 29.232422 L 124.584961 32.077148 L 124.262695 35.630859 L 124.157227 39.18457 L 124.262695 42.738281 L 124.584961 46.291992 L 125.012695 49.136719 L 125.124023 49.845703 L 125.900391 53.399414 L 126.899414 56.953125 L 128.06543 60.345703 L 128.121094 60.506836 L 129.618164 64.060547 L 131.115234 67.142578 L 131.355469 67.614258 L 133.388672 71.167969 L 134.167969 72.383789 L 135.723633 74.72168 L 137.217773 76.754883 L 138.386719 78.27832 L 140.270508 80.516602 L 141.421875 81.832031 L 143.323242 83.821289 L 144.881836 85.385742 L 146.373047 86.765625 L 148.828125 88.939453 L 149.425781 89.428711 L 152.475586 91.819336 L 153.383789 92.493164 L 155.52832 93.981445 L 158.581055 95.988281 L 158.671875 96.046875 L 161.630859 97.769531 L 164.683594 99.439453 L 164.99707 99.600586 L 167.733398 100.918945 L 170.786133 102.290039 L 172.860352 103.154297 L 173.838867 103.538086 L 176.888672 104.642578 L 179.941406 105.650391 L 182.991211 106.564453 L 183.530273 106.708008 L 186.043945 107.34668 L 189.09668 108.029297 L 192.146484 108.621094 L 195.199219 109.12207 L 198.249023 109.532227 L 201.301758 109.851562 L 204.354492 110.080078 L 207.404297 110.214844 L 210.457031 110.261719 L 213.506836 110.214844 L 216.55957 110.080078 L 219.612305 109.851562 L 222.662109 109.532227 L 225.714844 109.12207 L 228.764648 108.621094 L 231.817383 108.029297 L 234.870117 107.34668 L 237.380859 106.708008 L 237.919922 106.564453 " transform="matrix(1.333333,0,0,1.333333,0,0.000000000000014211)"/>
</g>
<g clip-path="url(#clip2)" clip-rule="nonzero">
<path style="fill:none;stroke-width:1.5;stroke-linecap:butt;stroke-linejoin:round;stroke:rgb(12.156863%,46.666667%,70.588237%);stroke-opacity:1;stroke-miterlimit:4;" d="M 94.740234 7.201172 L 94.49707 7.828125 L 93.386719 10.754883 L 92.197266 14.308594 L 91.444336 16.904297 L 91.174805 17.862305 L 90.325195 21.416016 L 89.630859 24.969727 L 89.088867 28.523437 L 88.702148 32.077148 L 88.470703 35.630859 L 88.394531 39.18457 L 88.470703 42.738281 L 88.702148 46.291992 L 89.088867 49.845703 L 89.630859 53.399414 L 90.325195 56.953125 L 91.174805 60.506836 L 91.444336 61.464844 L 92.197266 64.060547 L 93.386719 67.614258 L 94.49707 70.541016 L 94.740234 71.167969 L 96.287109 74.72168 L 97.549805 77.34668 L 98.006836 78.27832 L 99.931641 81.832031 L 100.599609 82.96875 L 102.061523 85.385742 L 103.652344 87.820312 L 104.402344 88.939453 L 106.702148 92.124023 L 106.977539 92.493164 L 109.754883 95.988281 L 109.801758 96.046875 L 112.807617 99.492187 L 112.904297 99.600586 L 115.857422 102.697266 L 116.308594 103.154297 L 118.910156 105.650391 L 120.046875 106.708008 L 121.959961 108.392578 L 124.157227 110.261719 L 125.012695 110.956055 L 128.06543 113.337891 L 128.698242 113.81543 L 131.115234 115.549805 L 133.749023 117.369141 L 134.167969 117.644531 L 137.217773 119.581055 L 139.426758 120.922852 L 140.270508 121.415039 L 143.323242 123.117187 L 145.87793 124.476562 L 146.373047 124.731445 L 149.425781 126.216797 L 152.475586 127.631836 L 153.383789 128.030273 L 155.52832 128.935547 L 158.581055 130.157227 L 161.630859 131.305664 L 162.418945 131.583984 L 164.683594 132.354492 L 167.733398 133.327148 L 170.786133 134.232422 L 173.838867 135.070312 L 174.102539 135.137695 L 176.888672 135.817383 L 179.941406 136.494141 L 182.991211 137.109375 L 186.043945 137.657227 L 189.09668 138.143555 L 192.146484 138.5625 L 193.256836 138.691406 L 195.199219 138.911133 L 198.249023 139.192383 L 201.301758 139.40918 L 204.354492 139.564453 L 207.404297 139.658203 L 210.457031 139.69043 L 213.506836 139.658203 L 216.55957 139.564453 L 219.612305 139.40918 L 222.662109 139.192383 L 225.714844 138.911133 L 227.657227 138.691406 L 228.764648 138.5625 L 231.817383 138.143555 L 234.870117 137.657227 L 237.919922 137.109375 " transform="matrix(1.333333,0,0,1.333333,0,0.000000000000014211)"/>
</g>
<g clip-path="url(#clip3)" clip-rule="nonzero">
<path style="fill:none;stroke-width:1.5;stroke-linecap:butt;stroke-linejoin:round;stroke:rgb(12.156863%,46.666667%,70.588237%);stroke-opacity:1;stroke-miterlimit:4;" d="M 66.102539 7.201172 L 65.009766 10.754883 L 64.045898 14.308594 L 63.981445 14.581055 L 63.225586 17.862305 L 62.53418 21.416016 L 61.96875 24.969727 L 61.526367 28.523437 L 61.212891 32.077148 L 61.025391 35.630859 L 60.960938 39.18457 L 61.025391 42.738281 L 61.212891 46.291992 L 61.526367 49.845703 L 61.96875 53.399414 L 62.53418 56.953125 L 63.225586 60.506836 L 63.981445 63.788086 L 64.045898 64.060547 L 65.009766 67.614258 L 66.102539 71.167969 L 67.03418 73.880859 L 67.327148 74.72168 L 68.707031 78.27832 L 70.083984 81.521484 L 70.21875 81.832031 L 71.894531 85.385742 L 73.136719 87.820312 L 73.719727 88.939453 L 75.706055 92.493164 L 76.186523 93.295898 L 77.871094 96.046875 L 79.239258 98.147461 L 80.208984 99.600586 L 82.291992 102.544922 L 82.731445 103.154297 L 85.341797 106.564453 L 85.456055 106.708008 L 88.394531 110.261719 L 91.444336 113.686523 L 91.564453 113.81543 L 94.49707 116.874023 L 94.986328 117.369141 L 97.549805 119.856445 L 98.677734 120.922852 L 100.599609 122.663086 L 102.662109 124.476562 L 103.652344 125.311523 L 106.702148 127.813477 L 106.977539 128.030273 L 109.754883 130.157227 L 111.679688 131.583984 L 112.807617 132.389648 L 115.857422 134.501953 L 116.80957 135.137695 L 118.910156 136.494141 L 121.959961 138.401367 L 122.443359 138.691406 L 125.012695 140.188477 L 128.06543 141.902344 L 128.698242 142.245117 L 131.115234 143.510742 L 134.167969 145.045898 L 135.723633 145.798828 " transform="matrix(1.333333,0,0,1.333333,0,0.000000000000014211)"/>
</g>
<g clip-path="url(#clip4)" clip-rule="nonzero">
<path style="fill:none;stroke-width:1.5;stroke-linecap:butt;stroke-linejoin:round;stroke:rgb(12.156863%,46.666667%,70.588237%);stroke-opacity:1;stroke-miterlimit:4;" d="M 42.621094 72.383789 L 43.321289 74.72168 L 44.496094 78.27832 L 45.670898 81.521484 L 45.785156 81.832031 L 47.211914 85.385742 L 48.723633 88.87207 L 48.75293 88.939453 L 50.4375 92.493164 L 51.776367 95.129883 L 52.248047 96.046875 L 54.205078 99.600586 L 54.826172 100.666992 L 56.305664 103.154297 L 57.878906 105.650391 L 58.555664 106.708008 L 60.928711 110.214844 L 60.960938 110.261719 L 63.541992 113.81543 L 63.981445 114.392578 L 66.292969 117.369141 L 67.03418 118.277344 L 69.231445 120.922852 L 70.083984 121.907227 L 72.363281 124.476562 L 73.136719 125.311523 L 75.706055 128.030273 L 76.186523 128.519531 L 79.239258 131.548828 L 79.274414 131.583984 L 82.291992 134.402344 L 83.100586 135.137695 L 85.341797 137.109375 L 87.1875 138.691406 L 88.394531 139.69043 L 91.444336 142.151367 L 91.564453 142.245117 L 94.49707 144.474609 L 96.287109 145.798828 " transform="matrix(1.333333,0,0,1.333333,0,0.000000000000014211)"/>
</g>
<g clip-path="url(#clip5)" clip-rule="nonzero">
<path style="fill:none;stroke-width:1.5;stroke-linecap:butt;stroke-linejoin:round;stroke:rgb(12.156863%,46.666667%,70.588237%);stroke-opacity:1;stroke-miterlimit:4;" d="M 42.621094 117.644531 L 44.944336 120.922852 L 45.670898 121.907227 L 47.610352 124.476562 L 48.723633 125.891602 L 50.4375 128.030273 L 51.776367 129.632812 L 53.43457 131.583984 L 54.826172 133.160156 L 56.610352 135.137695 L 57.878906 136.494141 L 59.973633 138.691406 L 60.928711 139.658203 L 63.541992 142.245117 L 63.981445 142.666992 L 67.03418 145.529297 L 67.327148 145.798828 " transform="matrix(1.333333,0,0,1.333333,0,0.000000000000014211)"/>
</g>
<g clip-path="url(#clip6)" clip-rule="nonzero">
<path style="fill:none;stroke-width:1.5;stroke-linecap:butt;stroke-linejoin:round;stroke:rgb(12.156863%,46.666667%,70.588237%);stroke-opacity:1;stroke-miterlimit:4;" d="M 42.621094 145.045898 L 43.321289 145.798828 " transform="matrix(1.333333,0,0,1.333333,0,0.000000000000014211)"/>
</g>
<path style="fill:none;stroke-width:0.8;stroke-linecap:square;stroke-linejoin:miter;stroke:rgb(0%,0%,0%);stroke-opacity:1;stroke-miterlimit:4;" d="M 42.621094 145.798828 L 42.621094 7.201172 " transform="matrix(1.333333,0,0,1.333333,0,0.000000000000014211)"/>
<path style="fill:none;stroke-width:0.8;stroke-linecap:square;stroke-linejoin:miter;stroke:rgb(0%,0%,0%);stroke-opacity:1;stroke-miterlimit:4;" d="M 237.919922 145.798828 L 237.919922 7.201172 " transform="matrix(1.333333,0,0,1.333333,0,0.000000000000014211)"/>
<path style="fill:none;stroke-width:0.8;stroke-linecap:square;stroke-linejoin:miter;stroke:rgb(0%,0%,0%);stroke-opacity:1;stroke-miterlimit:4;" d="M 42.621094 145.798828 L 237.919922 145.798828 " transform="matrix(1.333333,0,0,1.333333,0,0.000000000000014211)"/>
<path style="fill:none;stroke-width:0.8;stroke-linecap:square;stroke-linejoin:miter;stroke:rgb(0%,0%,0%);stroke-opacity:1;stroke-miterlimit:4;" d="M 42.621094 7.201172 L 237.919922 7.201172 " transform="matrix(1.333333,0,0,1.333333,0,0.000000000000014211)"/>
</g>
</svg>
